<svg xmlns="http://www.w3.org/2000/svg" width="96.014" height="185.266" viewBox="0 0 96.014 185.266">
  <g>
    <path d="M63.243,143.547h0v41.719H21.524A41.719,41.719,0,0,1,63.243,143.547Z" fill="#faa21e"/>
    <path d="M17.822,173.847H63.243v11.419H6.4A11.419,11.419,0,0,1,17.822,173.847Z" fill="#faa21e"/>
    <path d="M28.579,109.452H96.014v54.025H43.57a14.994,14.994,0,0,1-14.991-14.993V109.452Z" fill="#b32029"/>
    <path d="M0,69.618H78.347v39.834H11.717A11.719,11.719,0,0,1,0,97.733V69.618Z" fill="#faa21e"/>
    <path d="M48.736,58.763H72.58A23.434,23.434,0,0,1,96.014,82.2v27.255H36.1V71.4A12.634,12.634,0,0,1,48.736,58.763Z" fill="#faa21e"/>
    <path d="M0,69.618H19.971v2.994A10.931,10.931,0,0,1,9.04,83.543H0V69.618Z" fill="#411f1f"/>
    <path d="M54.536,120.2H67.594v20.544h0a13.058,13.058,0,0,1-13.058-13.058V120.2Z" fill="#faa21e"/>
    <path d="M96.014,143.547h0v41.719H54.3A41.72,41.72,0,0,1,96.014,143.547Z" fill="#faa21e"/>
    <path d="M50.593,173.847H96.014v11.419H39.174A11.419,11.419,0,0,1,50.593,173.847Z" fill="#faa21e"/>
    <path d="M36.1,69.618H48.857a7.717,7.717,0,0,1-7.717,7.716H36.1V69.618Z" fill="#411f1f"/>
    <path d="M53.92,69.618H66.675a7.717,7.717,0,0,1-7.717,7.716H53.92V69.618Z" fill="#411f1f"/>
    <rect x="36.101" y="66.171" width="48.392" height="3.447" fill="#411f1f"/>
    <path d="M72.97,58.763h0A23.042,23.042,0,0,1,96.013,81.805v32.1a11.521,11.521,0,0,1-11.521,11.521h0A11.522,11.522,0,0,1,72.97,113.9h0V58.763Z" fill="#411f1f"/>
    <path d="M0,93.238H58.305A3.993,3.993,0,0,1,62.3,97.23h0a3.992,3.992,0,0,1-3.992,3.991H0V93.238Z" fill="#fff"/>
    <g>
      <g>
        <path d="M27.748,47.58H93.29v2.24a9.61,9.61,0,0,1-9.61,9.61H37.357a9.61,9.61,0,0,1-9.609-9.61V47.58Z" fill="#ab7029"/>
        <rect x="27.748" y="39.233" width="65.542" height="8.346" fill="#a9ae38"/>
        <rect x="27.748" y="39.233" width="65.542" height="4.173" fill="#b32029"/>
        <path d="M35.458,24.051H85.579a7.711,7.711,0,0,1,7.711,7.711h0a7.711,7.711,0,0,1-7.711,7.711H35.458a7.71,7.71,0,0,1-7.71-7.711h0A7.711,7.711,0,0,1,35.458,24.051Z" fill="#411f1f"/>
        <rect x="27.305" y="19.616" width="65.984" height="5.112" fill="#faa21e"/>
        <path d="M80.45,22.172,60.3,19.614,40.144,22.172l20.153,8.8Z" fill="#faa21e"/>
        <path d="M93.289,19.616C93.289,8.782,78.521,0,60.3,0S27.305,8.782,27.305,19.616Z" fill="#ab7029"/>
      </g>
      <path d="M44.074,20.672H53.9v29.42A4.91,4.91,0,0,1,48.985,55h0a4.911,4.911,0,0,1-4.911-4.911V20.672Z" fill="#faa21e"/>
    </g>
  </g>
</svg>
