<svg xmlns="http://www.w3.org/2000/svg" viewBox="0 0 606.92 409.97"><defs><style>.cls-1{fill:#aaa;}.cls-2{fill:#ab7029;}.cls-3{fill:#592b2b;}.cls-4{fill:#a9ae38;}.cls-5{fill:#faa21e;}.cls-6{fill:#b32029;}.cls-7{fill:#fff;}</style></defs><g id="Layer_2" data-name="Layer 2"><g id="website_artwork" data-name="website artwork"><rect class="cls-1" width="606.92" height="409.97"/><g id="Group_138" data-name="Group 138"><path id="Rectangle_563" data-name="Rectangle 563" class="cls-2" d="M401.75,159H206.89A65.11,65.11,0,0,1,272,93.88h64.63A65.11,65.11,0,0,1,401.75,159Z"/><path id="Rectangle_564" data-name="Rectangle 564" class="cls-2" d="M206.89,256.66H401.76a43,43,0,0,1-43,43H249.86a43,43,0,0,1-43-43Z"/><path id="Rectangle_565" data-name="Rectangle 565" class="cls-3" d="M378.47,222.56H230.18a23.28,23.28,0,0,1-23.29-23.28h0A23.28,23.28,0,0,1,230.18,176H378.47a23.28,23.28,0,0,1,23.28,23.28h0A23.28,23.28,0,0,1,378.47,222.56Z"/><path id="Rectangle_566" data-name="Rectangle 566" class="cls-4" d="M388.83,256.66h-169A16.85,16.85,0,0,1,203,239.81H405.69A16.85,16.85,0,0,1,388.83,256.66Z"/><path id="Rectangle_567" data-name="Rectangle 567" class="cls-5" d="M384.36,175.85H224.28A16.85,16.85,0,0,1,207.43,159H401.22A16.85,16.85,0,0,1,384.36,175.85Z"/><rect id="Rectangle_568" data-name="Rectangle 568" class="cls-6" x="194.11" y="222.28" width="218.69" height="17.34"/><path id="Rectangle_569" data-name="Rectangle 569" class="cls-5" d="M263.77,244.38h0a11.85,11.85,0,0,1-11.86-11.85h0V172.81h23.72v59.72a11.85,11.85,0,0,1-11.86,11.85Z"/><path id="Rectangle_570" data-name="Rectangle 570" class="cls-5" d="M251.91,199.28h0a23.71,23.71,0,0,1-23.71-23.71h0V159h23.71v40.29Z"/></g><path class="cls-7" d="M107.42,299.63H499.5a0,0,0,0,1,0,0v0a40.15,40.15,0,0,1-40.15,40.15H147.57a40.15,40.15,0,0,1-40.15-40.15v0a0,0,0,0,1,0,0Z"/></g></g></svg>