<svg xmlns="http://www.w3.org/2000/svg" viewBox="0 0 438.21 403.57"><defs><style>.cls-1{fill:#ed5d28;}.cls-2{fill:#fff;}.cls-3{fill:#592b2b;}.cls-4{fill:#faa21e;}.cls-5{fill:#cf3339;}.cls-6{fill:#a9ae38;}.cls-7{fill:#ab7029;}.cls-8{fill:#b32029;}.cls-9{isolation:isolate;}.cls-10{fill:#faa227;}</style></defs><g id="Layer_2" data-name="Layer 2"><g id="website_artwork" data-name="website artwork"><g id="Group_137" data-name="Group 137"><path id="Rectangle_550" data-name="Rectangle 550" class="cls-1" d="M361.94.47h28.15a48.13,48.13,0,0,1,48.12,48.12h0A48.11,48.11,0,0,1,390.09,96.7H313.82V48.59A48.12,48.12,0,0,1,361.94.47Z"/><g id="Group_137-2" data-name="Group 137-2"><path id="Rectangle_551" data-name="Rectangle 551" class="cls-2" d="M352.6,29.7h0a15.36,15.36,0,0,1,21.71,0l23.41,23.41h0L376,74.82h0L352.6,51.41A15.36,15.36,0,0,1,352.6,29.7Z"/><path id="Rectangle_552" data-name="Rectangle 552" class="cls-2" d="M376,74.82,354.3,53.11h0L377.72,29.7a15.36,15.36,0,0,1,21.71,0h0a15.36,15.36,0,0,1,0,21.71L376,74.82Z"/></g><g id="Group_144" data-name="Group 144"><path id="Rectangle_553" data-name="Rectangle 553" class="cls-3" d="M87.13,191.29h0V296.48H1.78V276.65A85.36,85.36,0,0,1,87.13,191.29Z"/><circle id="Ellipse_90" data-name="Ellipse 90" class="cls-4" cx="87.13" cy="206.45" r="15.16"/><rect id="Rectangle_554" data-name="Rectangle 554" class="cls-5" x="35.03" y="226.47" width="73.88" height="70"/><rect id="Rectangle_555" data-name="Rectangle 555" class="cls-5" x="104.11" y="226.47" width="59.96" height="29.85"/><path id="Rectangle_556" data-name="Rectangle 556" class="cls-4" d="M164.08,256.32h0V226.47h23.4v6.45A23.4,23.4,0,0,1,164.08,256.32Z"/><rect id="Rectangle_557" data-name="Rectangle 557" class="cls-5" x="35.16" y="173.04" width="29.85" height="59.96"/><path id="Rectangle_558" data-name="Rectangle 558" class="cls-4" d="M57.68,150.52H65V173H35.16A22.52,22.52,0,0,1,57.68,150.52Z"/><rect id="Rectangle_559" data-name="Rectangle 559" class="cls-4" x="35.03" y="296.48" width="36.94" height="79.6"/><rect id="Rectangle_560" data-name="Rectangle 560" class="cls-4" x="71.97" y="296.48" width="36.94" height="79.6"/><rect id="Rectangle_561" data-name="Rectangle 561" class="cls-6" x="35.03" y="296.48" width="36.94" height="33.93"/><rect id="Rectangle_562" data-name="Rectangle 562" class="cls-6" x="71.97" y="296.48" width="36.94" height="33.93"/><path id="Path_818" data-name="Path 818" class="cls-5" d="M16.17,402.37H72v-26.3H35.17Z"/><path id="Path_819" data-name="Path 819" class="cls-5" d="M127.77,402.37H72v-26.3h36.81Z"/><g id="Group_138" data-name="Group 138"><path id="Rectangle_563" data-name="Rectangle 563" class="cls-7" d="M185,169.39H113.9a23.76,23.76,0,0,1,23.76-23.76h23.58A23.76,23.76,0,0,1,185,169.39Z"/><path id="Rectangle_564" data-name="Rectangle 564" class="cls-7" d="M113.91,205H185a15.68,15.68,0,0,1-15.68,15.68H129.58A15.67,15.67,0,0,1,113.91,205Z"/><path id="Rectangle_565" data-name="Rectangle 565" class="cls-3" d="M176.51,192.58H122.4a8.49,8.49,0,0,1-8.49-8.49h0a8.5,8.5,0,0,1,8.49-8.5h54.11a8.5,8.5,0,0,1,8.49,8.5h0A8.49,8.49,0,0,1,176.51,192.58Z"/><path id="Rectangle_566" data-name="Rectangle 566" class="cls-6" d="M180.29,205H118.62a6.15,6.15,0,0,1-6.15-6.15h74A6.15,6.15,0,0,1,180.29,205Z"/><path id="Rectangle_567" data-name="Rectangle 567" class="cls-4" d="M178.66,175.54H120.25a6.15,6.15,0,0,1-6.15-6.15h70.71A6.15,6.15,0,0,1,178.66,175.54Z"/><rect id="Rectangle_568" data-name="Rectangle 568" class="cls-8" x="109.24" y="192.48" width="79.79" height="6.33"/><path id="Rectangle_569" data-name="Rectangle 569" class="cls-4" d="M155.87,200.54h0a4.32,4.32,0,0,1-4.33-4.32h0V174.43h8.65v21.79a4.31,4.31,0,0,1-4.32,4.32Z"/><path id="Rectangle_570" data-name="Rectangle 570" class="cls-4" d="M151.54,184.09h0a8.65,8.65,0,0,1-8.65-8.65h0v-6.05h8.65v14.7Z"/></g><g id="Group_139" data-name="Group 139"><path id="Rectangle_571" data-name="Rectangle 571" class="cls-7" d="M203.53,302.24h-71.1a23.76,23.76,0,0,1,23.76-23.76h23.58a23.76,23.76,0,0,1,23.76,23.76Z"/><path id="Rectangle_572" data-name="Rectangle 572" class="cls-7" d="M132.44,337.88h71.1a15.67,15.67,0,0,1-15.68,15.67H148.11a15.66,15.66,0,0,1-15.67-15.67Z"/><path id="Rectangle_573" data-name="Rectangle 573" class="cls-3" d="M195,325.44H140.93a8.5,8.5,0,0,1-8.49-8.5h0a8.49,8.49,0,0,1,8.49-8.49H195a8.49,8.49,0,0,1,8.49,8.49h0A8.5,8.5,0,0,1,195,325.44Z"/><path id="Rectangle_574" data-name="Rectangle 574" class="cls-6" d="M198.82,337.88H137.15a6.15,6.15,0,0,1-6.15-6.15h74A6.16,6.16,0,0,1,198.82,337.88Z"/><path id="Rectangle_575" data-name="Rectangle 575" class="cls-4" d="M197.19,308.39H138.78a6.15,6.15,0,0,1-6.15-6.15h70.71A6.15,6.15,0,0,1,197.19,308.39Z"/><rect id="Rectangle_576" data-name="Rectangle 576" class="cls-8" x="127.77" y="325.33" width="79.79" height="6.33"/><path id="Rectangle_577" data-name="Rectangle 577" class="cls-4" d="M174.4,333.4h0a4.33,4.33,0,0,1-4.33-4.33h0V307.28h8.65v21.79a4.32,4.32,0,0,1-4.32,4.33Z"/><path id="Rectangle_578" data-name="Rectangle 578" class="cls-4" d="M170.07,316.94h0a8.65,8.65,0,0,1-8.65-8.65h0v-6.05h8.65v14.7Z"/></g><g id="Group_140" data-name="Group 140"><path id="Rectangle_579" data-name="Rectangle 579" class="cls-7" d="M407.41,352.26h-71.1a23.75,23.75,0,0,1,23.76-23.76h23.58a23.76,23.76,0,0,1,23.76,23.76Z"/><path id="Rectangle_580" data-name="Rectangle 580" class="cls-7" d="M336.31,387.89h71.1a15.68,15.68,0,0,1-15.68,15.68H352a15.68,15.68,0,0,1-15.68-15.68Z"/><path id="Rectangle_581" data-name="Rectangle 581" class="cls-3" d="M398.91,375.45H344.8a8.49,8.49,0,0,1-8.49-8.5h0a8.49,8.49,0,0,1,8.49-8.49h54.11a8.5,8.5,0,0,1,8.5,8.49h0A8.5,8.5,0,0,1,398.91,375.45Z"/><path id="Rectangle_582" data-name="Rectangle 582" class="cls-6" d="M402.69,387.89H341a6.15,6.15,0,0,1-6.15-6.15h74A6.15,6.15,0,0,1,402.69,387.89Z"/><path id="Rectangle_583" data-name="Rectangle 583" class="cls-4" d="M401.06,358.41H342.65a6.16,6.16,0,0,1-6.15-6.15h70.71A6.15,6.15,0,0,1,401.06,358.41Z"/><rect id="Rectangle_584" data-name="Rectangle 584" class="cls-8" x="331.65" y="375.34" width="79.79" height="6.33"/><path id="Rectangle_585" data-name="Rectangle 585" class="cls-4" d="M378.27,383.41h0a4.33,4.33,0,0,1-4.33-4.32h0V357.3h8.66v21.78a4.33,4.33,0,0,1-4.33,4.33Z"/><path id="Rectangle_586" data-name="Rectangle 586" class="cls-4" d="M373.94,367h0a8.65,8.65,0,0,1-8.65-8.65h0v-6.05h8.65V367Z"/></g><g id="Group_141" data-name="Group 141"><path id="Rectangle_587" data-name="Rectangle 587" class="cls-7" d="M223.35,23.76h-71.1A23.76,23.76,0,0,1,176,0h23.58a23.76,23.76,0,0,1,23.76,23.76Z"/><path id="Rectangle_588" data-name="Rectangle 588" class="cls-7" d="M152.25,59.39h71.1a15.68,15.68,0,0,1-15.68,15.68H167.93a15.68,15.68,0,0,1-15.68-15.68Z"/><path id="Rectangle_589" data-name="Rectangle 589" class="cls-3" d="M214.85,47H160.74a8.49,8.49,0,0,1-8.49-8.49h0a8.5,8.5,0,0,1,8.49-8.5h54.11a8.51,8.51,0,0,1,8.5,8.5h0A8.5,8.5,0,0,1,214.85,47Z"/><path id="Rectangle_590" data-name="Rectangle 590" class="cls-6" d="M218.63,59.39H157a6.15,6.15,0,0,1-6.15-6.15h74A6.15,6.15,0,0,1,218.63,59.39Z"/><path id="Rectangle_591" data-name="Rectangle 591" class="cls-4" d="M217,29.91H158.59a6.15,6.15,0,0,1-6.15-6.15h70.71A6.15,6.15,0,0,1,217,29.91Z"/><rect id="Rectangle_592" data-name="Rectangle 592" class="cls-8" x="147.59" y="46.85" width="79.79" height="6.33"/><path id="Rectangle_593" data-name="Rectangle 593" class="cls-4" d="M194.21,54.91h0a4.32,4.32,0,0,1-4.33-4.32h0V28.8h8.66V50.59a4.32,4.32,0,0,1-4.33,4.32Z"/><path id="Rectangle_594" data-name="Rectangle 594" class="cls-4" d="M189.88,38.46h0a8.65,8.65,0,0,1-8.65-8.65h0v-6h8.65v14.7Z"/></g><g id="Group_143" data-name="Group 143"><path id="Path_820" data-name="Path 820" class="cls-3" d="M238.91,376.07H199.17l-23.38,26.3h63.12Z"/><path id="Rectangle_595" data-name="Rectangle 595" class="cls-4" d="M275.09,278.44h40.09a26.28,26.28,0,0,1,26.27,26.28H275.09V278.44Z"/><circle id="Ellipse_91" data-name="Ellipse 91" class="cls-4" cx="262.99" cy="251.6" r="15.16"/><rect id="Rectangle_596" data-name="Rectangle 596" class="cls-1" x="220.43" y="278.44" width="73.88" height="70"/><path id="Path_821" data-name="Path 821" class="cls-7" d="M331.65,402.37h-55.8v-26.3h36.8Z"/><path id="Rectangle_597" data-name="Rectangle 597" class="cls-4" d="M178.75,278.44h69.08a26.28,26.28,0,0,1-26.27,26.28H205a26.28,26.28,0,0,1-26.27-26.28Z"/><rect id="Rectangle_598" data-name="Rectangle 598" class="cls-5" x="220.43" y="324.29" width="73.88" height="24.15"/><g id="Group_142" data-name="Group 142"><path id="Path_822" data-name="Path 822" class="cls-5" d="M220.43,402.37h21.65a15.29,15.29,0,0,0,15.29-15.29V348.36H220.43Z"/><path id="Path_823" data-name="Path 823" class="cls-5" d="M301.72,324.29H275.84v51.78h37V335.35A11.07,11.07,0,0,0,301.72,324.29Z"/></g><rect id="Rectangle_599" data-name="Rectangle 599" class="cls-1" x="238.9" y="233" width="39.24" height="8.93"/><rect id="Rectangle_600" data-name="Rectangle 600" class="cls-1" x="247.83" y="220.7" width="30.31" height="21.23"/></g><path id="Rectangle_601" data-name="Rectangle 601" class="cls-3" d="M80.2,184.09H97.6a8.23,8.23,0,0,1,8.23,8.23h0a8.23,8.23,0,0,1-8.23,8.22H72v-8.22A8.22,8.22,0,0,1,80.2,184.09Z"/><path id="Rectangle_602" data-name="Rectangle 602" class="cls-3" d="M247.83,118.54h83.82v72.75H312.41a64.57,64.57,0,0,1-64.58-64.57h0v-8.18Z"/><circle id="Ellipse_92" data-name="Ellipse 92" class="cls-5" cx="225.63" cy="154.91" r="13.27"/><rect id="Rectangle_603" data-name="Rectangle 603" class="cls-3" x="247.83" y="96.43" width="41.91" height="22.11"/><rect id="Rectangle_604" data-name="Rectangle 604" class="cls-3" x="198.67" y="74.32" width="91.07" height="28.12"/><path id="Rectangle_605" data-name="Rectangle 605" class="cls-5" d="M170.55,74.32h28.12v28.12h0a28.12,28.12,0,0,1-28.12-28.12Z"/><rect id="Rectangle_606" data-name="Rectangle 606" class="cls-6" x="331.65" y="118.54" width="80.28" height="36.38"/><rect id="Rectangle_607" data-name="Rectangle 607" class="cls-6" x="331.65" y="154.91" width="36.38" height="80.28"/><path id="Path_824" data-name="Path 824" class="cls-5" d="M368,261.48H312.79l18.86-26.27H368Z"/><path id="Path_825" data-name="Path 825" class="cls-5" d="M438.21,118.54v55.24l-26.28-18.86V118.54Z"/></g><g id="Group_8" data-name="Group 8"><rect id="Rectangle_34" data-name="Rectangle 34" class="cls-5" x="58.61" y="67.23" width="59.27" height="58.94"/><circle id="Ellipse_10" data-name="Ellipse 10" class="cls-5" cx="58.94" cy="67.23" r="58.94"/><g id="_20_20" data-name=" 20 20"><g id="_20" data-name=" 20" class="cls-9"><g class="cls-9"><path class="cls-10" d="M54.61,63H32V56.8l9.9-8.23a22.09,22.09,0,0,0,3.69-3.83,5.89,5.89,0,0,0,1.12-3.42v-.45a3.73,3.73,0,0,0-1.17-3,4.62,4.62,0,0,0-3.15-1A4.49,4.49,0,0,0,39,38.17a7.35,7.35,0,0,0-1.71,3.11L31.34,39a13.74,13.74,0,0,1,1.49-3.09,9.8,9.8,0,0,1,2.4-2.54,12.22,12.22,0,0,1,3.4-1.73A13.83,13.83,0,0,1,43.09,31a13.65,13.65,0,0,1,4.59.72,10.06,10.06,0,0,1,3.42,2,8.19,8.19,0,0,1,2.11,3,9.69,9.69,0,0,1,.72,3.76,9.84,9.84,0,0,1-.65,3.62,12.17,12.17,0,0,1-1.8,3.08A22,22,0,0,1,48.78,50q-1.56,1.35-3.31,2.7l-6,4.64H54.61Z"/><path class="cls-10" d="M70.09,63.51q-6.3,0-9.3-4.28t-3-12q0-7.69,3-12T70.09,31q6.3,0,9.29,4.27t3,12q0,7.7-3,12T70.09,63.51Zm0-5.31a4.4,4.4,0,0,0,4.2-2.12,12,12,0,0,0,1.2-5.89V44.34a12.05,12.05,0,0,0-1.2-5.9,4.39,4.39,0,0,0-4.2-2.11,4.41,4.41,0,0,0-4.21,2.11,12.06,12.06,0,0,0-1.19,5.9v5.85a12,12,0,0,0,1.19,5.89A4.42,4.42,0,0,0,70.09,58.2Zm0-8.28a3,3,0,0,1-2.19-.63,2.14,2.14,0,0,1-.6-1.53v-1a2.14,2.14,0,0,1,.6-1.53,4.1,4.1,0,0,1,4.37,0,2.1,2.1,0,0,1,.61,1.53v1a2.1,2.1,0,0,1-.61,1.53A3,3,0,0,1,70.09,49.92Z"/></g></g><g id="_20-2" data-name=" 20-2" class="cls-9"><g class="cls-9"><path class="cls-10" d="M54.61,101.67H32V95.51l9.9-8.24a22.09,22.09,0,0,0,3.69-3.82A5.89,5.89,0,0,0,46.73,80v-.45a3.77,3.77,0,0,0-1.17-3,4.67,4.67,0,0,0-3.15-1A4.49,4.49,0,0,0,39,76.88,7.32,7.32,0,0,0,37.24,80l-5.9-2.25a13.67,13.67,0,0,1,1.49-3.08,9.8,9.8,0,0,1,2.4-2.54,12.52,12.52,0,0,1,3.4-1.74,14.11,14.11,0,0,1,4.46-.65,13.65,13.65,0,0,1,4.59.72,10.06,10.06,0,0,1,3.42,2,8.27,8.27,0,0,1,2.11,3,10.29,10.29,0,0,1,.07,7.38,12.05,12.05,0,0,1-1.8,3.09,22,22,0,0,1-2.7,2.79q-1.56,1.35-3.31,2.7l-6,4.63H54.61Z"/><path class="cls-10" d="M70.09,102.21q-6.3,0-9.3-4.27t-3-12q0-7.69,3-12t9.3-4.28q6.3,0,9.29,4.28t3,12q0,7.69-3,12T70.09,102.21Zm0-5.31a4.39,4.39,0,0,0,4.2-2.11,12.05,12.05,0,0,0,1.2-5.9V83a12,12,0,0,0-1.2-5.89A4.4,4.4,0,0,0,70.09,75a4.42,4.42,0,0,0-4.21,2.12A12,12,0,0,0,64.69,83v5.85a12.06,12.06,0,0,0,1.19,5.9A4.41,4.41,0,0,0,70.09,96.9Zm0-8.28A3,3,0,0,1,67.9,88a2.14,2.14,0,0,1-.6-1.53v-1a2.14,2.14,0,0,1,.6-1.53,4.1,4.1,0,0,1,4.37,0,2.1,2.1,0,0,1,.61,1.53v1A2.1,2.1,0,0,1,72.27,88,3,3,0,0,1,70.09,88.62Z"/></g></g></g></g></g></g></g></svg>