<svg xmlns="http://www.w3.org/2000/svg" viewBox="0 0 500.06 281.64"><defs><style>.cls-1{fill:#faa21e}.cls-2{fill:#b32029}.cls-3{fill:#411f1f}.cls-4{fill:#fff}.cls-5{fill:#ab7029}.cls-6{fill:#a9ae38}.cls-7{fill:#cf3339}.cls-8{fill:#592b2b}.cls-9{fill:#ed5d28}.cls-10{fill:#ffe8c9}</style></defs><g id="Layer_2" data-name="Layer 2"><g id="website_artwork" data-name="website artwork"><g id="Group_127" data-name="Group 127"><path id="Rectangle_71" d="M22.78,215.3h69.6v10.62h-59A10.61,10.61,0,0,1,22.78,215.3Z" class="cls-1" data-name="Rectangle 71"/><path id="Rectangle_72" d="M119.22,245.77h0v35.87H83.35A35.87,35.87,0,0,1,119.22,245.77Z" class="cls-1" data-name="Rectangle 72"/><path id="Rectangle_73" d="M80.16,271.82h39.06v9.82H70.34A9.82,9.82,0,0,1,80.16,271.82Z" class="cls-1" data-name="Rectangle 73"/><path id="Rectangle_74" d="M89.41,207h58V262.9h-45.1A12.89,12.89,0,0,1,89.41,250V207Z" class="cls-2" data-name="Rectangle 74"/><path id="Rectangle_75" d="M64.84,172.72h67.37V207H74.91A10.07,10.07,0,0,1,64.84,196.9V172.72Z" class="cls-1" data-name="Rectangle 75"/><path id="Rectangle_76" d="M106.75,163.39h20.5a20.15,20.15,0,0,1,20.15,20.15V207H95.88V174.25a10.87,10.87,0,0,1,10.87-10.86Z" class="cls-1" data-name="Rectangle 76"/><path id="Rectangle_77" d="M64.84,172.72H82v2.58a9.4,9.4,0,0,1-9.4,9.4H64.84v-12Z" class="cls-3" data-name="Rectangle 77"/><path id="Rectangle_78" d="M111.73,218.3h9.91v25h0a9.91,9.91,0,0,1-9.91-9.9h0V218.3Z" class="cls-1" data-name="Rectangle 78"/><path id="Rectangle_79" d="M147.41,245.77h0v35.87H111.53A35.87,35.87,0,0,1,147.41,245.77Z" class="cls-1" data-name="Rectangle 79"/><path id="Rectangle_80" d="M108.34,271.82H147.4v9.82H98.52A9.82,9.82,0,0,1,108.34,271.82Z" class="cls-1" data-name="Rectangle 80"/><path id="Rectangle_81" d="M95.88,172.72h11a6.64,6.64,0,0,1-6.64,6.64H95.88v-6.64Z" class="cls-3" data-name="Rectangle 81"/><path id="Rectangle_82" d="M111.2,172.72h11a6.63,6.63,0,0,1-6.63,6.64H111.2v-6.64Z" class="cls-3" data-name="Rectangle 82"/><rect id="Rectangle_83" width="41.62" height="2.96" x="95.88" y="169.76" class="cls-3" data-name="Rectangle 83"/><path id="Rectangle_84" d="M127.59,163.39h0A19.81,19.81,0,0,1,147.4,183.2v27.6a9.9,9.9,0,0,1-9.9,9.91h0a9.9,9.9,0,0,1-9.91-9.91h0V163.39Z" class="cls-3" data-name="Rectangle 84"/><path id="Rectangle_85" d="M64.84,193H115a3.44,3.44,0,0,1,3.43,3.44h0A3.44,3.44,0,0,1,115,199.9H64.84V193Z" class="cls-4" data-name="Rectangle 85"/><g id="Group_13" data-name="Group 13"><path id="Rectangle_66" d="M.38,205.84H56.74v1.93A8.26,8.26,0,0,1,48.48,216H8.65a8.26,8.26,0,0,1-8.27-8.26v-1.93Z" class="cls-5" data-name="Rectangle 66"/><rect id="Rectangle_67" width="56.36" height="7.18" x=".38" y="198.66" class="cls-6" data-name="Rectangle 67"/><rect id="Rectangle_68" width="56.36" height="3.59" x=".38" y="198.66" class="cls-2" data-name="Rectangle 68"/><path id="Rectangle_69" d="M7,185.61h43.1a6.63,6.63,0,0,1,6.63,6.63h0a6.63,6.63,0,0,1-6.63,6.63H7a6.63,6.63,0,0,1-6.63-6.63h0A6.63,6.63,0,0,1,7,185.61Z" class="cls-3" data-name="Rectangle 69"/><rect id="Rectangle_70" width="56.74" height="4.4" y="180.93" class="cls-1" data-name="Rectangle 70"/><path id="Path_247" d="M45.7,183.13l-17.33-2.2L11,183.13l17.33,7.57Z" class="cls-1" data-name="Path 247"/><path id="Path_248" d="M56.74,180.93c0-9.31-12.7-16.87-28.37-16.87S0,171.62,0,180.93Z" class="cls-5" data-name="Path 248"/></g><path id="Rectangle_86" d="M14.42,181.7h8.45V207a4.23,4.23,0,0,1-4.23,4.23h0A4.22,4.22,0,0,1,14.42,207V181.7Z" class="cls-1" data-name="Rectangle 86"/></g><g id="Group_154" data-name="Group 154"><g id="Group_147" data-name="Group 147"><path id="Rectangle_608" d="M198.15,55.51h23.53a14.27,14.27,0,0,1,14.26,14.26h0V89.43h-3.87a33.91,33.91,0,0,1-33.92-33.92Z" class="cls-6" data-name="Rectangle 608"/><path id="Path_826" d="M231.48,281.55h-63.6l20.94-24.15h42.66Z" class="cls-7" data-name="Path 826"/><rect id="Rectangle_609" width="42.66" height="67.68" x="187.85" y="189.72" class="cls-3" data-name="Rectangle 609"/><rect id="Rectangle_610" width="42.66" height="67.68" x="220.62" y="189.72" class="cls-3" data-name="Rectangle 610"/><g id="Group_145" data-name="Group 145"><path id="Rectangle_611" d="M99,35.38h23.75a23.93,23.93,0,0,1,23.94,23.93H75.06A23.93,23.93,0,0,1,99,35.38Z" class="cls-5" data-name="Rectangle 611"/><path id="Rectangle_612" d="M130.9,111h-40a15.79,15.79,0,0,1-15.8-15.79h71.63A15.79,15.79,0,0,1,130.9,111Z" class="cls-5" data-name="Rectangle 612"/><rect id="Rectangle_613" width="71.63" height="17.12" x="75.06" y="65.56" class="cls-8" data-name="Rectangle 613" rx="8.56"/><path id="Rectangle_614" d="M73.62,89h74.51a6.2,6.2,0,0,1-6.2,6.2H79.82a6.2,6.2,0,0,1-6.2-6.2Z" class="cls-6" data-name="Rectangle 614"/><path id="Rectangle_615" d="M75.26,59.31h71.23a6.19,6.19,0,0,1-6.2,6.2H81.46a6.19,6.19,0,0,1-6.2-6.2Z" class="cls-1" data-name="Rectangle 615"/><rect id="Rectangle_616" width="80.39" height="6.38" x="71" y="82.57" class="cls-2" data-name="Rectangle 616"/><path id="Rectangle_617" d="M100.06,64.39h8.72v22a4.37,4.37,0,0,1-4.36,4.36h0a4.36,4.36,0,0,1-4.36-4.36v-22Z" class="cls-1" data-name="Rectangle 617"/><path id="Rectangle_618" d="M108.78,59.31h8.71V65.4a8.71,8.71,0,0,1-8.71,8.72h0V59.31Z" class="cls-1" data-name="Rectangle 618"/></g><path id="Path_827" d="M236.17,111H187.85v78.71h75.44v-51.6A27.12,27.12,0,0,0,236.17,111Z" class="cls-7" data-name="Path 827"/><rect id="Rectangle_619" width="64.4" height="28.78" x="138.51" y="111.01" class="cls-7" data-name="Rectangle 619"/><path id="Rectangle_620" d="M108.6,111h29.91v28.77h-1.14A28.77,28.77,0,0,1,108.6,111Z" class="cls-9" data-name="Rectangle 620"/><circle id="Ellipse_93" cx="220.62" cy="89.43" r="15.31" class="cls-9" data-name="Ellipse 93"/><rect id="Rectangle_621" width="11.83" height="82.03" x="187.85" y="111.01" class="cls-10" data-name="Rectangle 621"/><rect id="Rectangle_622" width="11.83" height="82.03" x="225.57" y="111.01" class="cls-10" data-name="Rectangle 622"/><path id="Rectangle_623" d="M187.85,189.72h49.93v8.06a49.93,49.93,0,0,1-49.93,49.94h0v-58Z" class="cls-10" data-name="Rectangle 623"/><path id="Path_828" d="M263.29,281.55H199.68l20.94-24.15h42.67Z" class="cls-7" data-name="Path 828"/><path id="Rectangle_624" d="M237.79,189.72h25.5v31.82h0a25.5,25.5,0,0,1-25.5-25.5h0v-6.32Z" class="cls-9" data-name="Rectangle 624"/><circle id="Ellipse_94" cx="233.93" cy="82.68" r="7.17" class="cls-9" data-name="Ellipse 94"/><rect id="Rectangle_625" width="6.13" height="14.9" x="223.69" y="74.12" class="cls-6" data-name="Rectangle 625"/><g id="Group_146" data-name="Group 146"><circle id="Ellipse_95" cx="111.19" cy="26.01" r="26.01" class="cls-1" data-name="Ellipse 95"/><path id="Path_829" d="M110.85,6.66l5.9,12L130,20.54l-9.56,9.32L122.65,43,110.84,36.8,99,43l2.25-13.15-9.55-9.32,13.2-1.92Z" class="cls-4" data-name="Path 829"/></g></g><g id="Group_150" data-name="Group 150"><path id="Path_830" d="M309.36,281.55H373L352,257.4H309.36Z" class="cls-6" data-name="Path 830"/><rect id="Rectangle_626" width="42.66" height="67.68" x="310.33" y="189.72" class="cls-10" data-name="Rectangle 626"/><rect id="Rectangle_627" width="42.66" height="67.68" x="277.56" y="189.72" class="cls-10" data-name="Rectangle 627"/><g id="Group_148" data-name="Group 148"><path id="Rectangle_628" d="M465.78,59.31H394.16a23.93,23.93,0,0,1,23.93-23.93h23.76a23.93,23.93,0,0,1,23.93,23.93Z" class="cls-5" data-name="Rectangle 628"/><path id="Rectangle_629" d="M394.16,95.21h71.62A15.79,15.79,0,0,1,450,111H410a15.79,15.79,0,0,1-15.79-15.8Z" class="cls-5" data-name="Rectangle 629"/><rect id="Rectangle_630" width="71.63" height="17.12" x="394.16" y="65.56" class="cls-8" data-name="Rectangle 630" rx="8.56"/><path id="Rectangle_631" d="M461,95.21H398.91a6.19,6.19,0,0,1-6.2-6.2h74.52A6.2,6.2,0,0,1,461,95.21Z" class="cls-6" data-name="Rectangle 631"/><path id="Rectangle_632" d="M459.39,65.51H400.55a6.2,6.2,0,0,1-6.2-6.2h71.24A6.21,6.21,0,0,1,459.39,65.51Z" class="cls-1" data-name="Rectangle 632"/><rect id="Rectangle_633" width="80.39" height="6.38" x="389.46" y="82.57" class="cls-2" data-name="Rectangle 633"/><path id="Rectangle_634" d="M436.43,90.7h0a4.36,4.36,0,0,1-4.36-4.36v-22h8.72v22A4.36,4.36,0,0,1,436.43,90.7Z" class="cls-1" data-name="Rectangle 634"/><path id="Rectangle_635" d="M432.07,74.12h0a8.72,8.72,0,0,1-8.72-8.72V59.31h8.72V74.12Z" class="cls-1" data-name="Rectangle 635"/></g><path id="Path_831" d="M304.68,111a27.12,27.12,0,0,0-27.12,27.11v51.6H353V111Z" class="cls-6" data-name="Path 831"/><rect id="Rectangle_636" width="64.4" height="28.78" x="337.94" y="111.01" class="cls-6" data-name="Rectangle 636"/><path id="Rectangle_637" d="M403.47,139.78h-1.13V111h29.91a28.77,28.77,0,0,1-28.78,28.77Z" class="cls-1" data-name="Rectangle 637"/><path id="Path_832" d="M335.54,89.43a15.32,15.32,0,1,1-.45-3.67A15.11,15.11,0,0,1,335.54,89.43Z" class="cls-1" data-name="Path 832"/><rect id="Rectangle_638" width="11.83" height="81.04" x="341.17" y="111.01" class="cls-2" data-name="Rectangle 638"/><rect id="Rectangle_639" width="11.83" height="81.04" x="303.45" y="111.01" class="cls-2" data-name="Rectangle 639"/><path id="Rectangle_640" d="M353,247.72h0a49.94,49.94,0,0,1-49.94-49.94h0v-8.06H353v58Z" class="cls-2" data-name="Rectangle 640"/><path id="Path_833" d="M277.56,281.55h63.61L320.22,257.4H277.56Z" class="cls-6" data-name="Path 833"/><path id="Rectangle_641" d="M277.56,221.54h0V189.72h25.5V196A25.5,25.5,0,0,1,277.56,221.54Z" class="cls-1" data-name="Rectangle 641"/><path id="Path_834" d="M335.09,85.76H305.35a15.32,15.32,0,0,1,29.74,0Z" class="cls-8" data-name="Path 834"/><circle id="Ellipse_96" cx="304.91" cy="65.51" r="15.31" class="cls-8" data-name="Ellipse 96"/><g id="Group_149" data-name="Group 149"><circle id="Ellipse_97" cx="429.97" cy="26.01" r="26.01" class="cls-2" data-name="Ellipse 97"/><path id="Path_835" d="M429.62,6.66l5.91,12,13.2,1.92-9.56,9.32L441.43,43,429.62,36.8,417.81,43l2.25-13.15-9.55-9.32,13.2-1.92Z" class="cls-4" data-name="Path 835"/></g></g><g id="Group_153" data-name="Group 153"><g id="Group_151" data-name="Group 151"><path id="Rectangle_642" d="M443.05,198.17h25.86a26,26,0,0,1,26,26H417A26,26,0,0,1,443.05,198.17Z" class="cls-5" data-name="Rectangle 642"/><path id="Rectangle_643" d="M477.77,280.46H434.19A17.18,17.18,0,0,1,417,263.28H495A17.18,17.18,0,0,1,477.77,280.46Z" class="cls-5" data-name="Rectangle 643"/><path id="Rectangle_644" d="M421.21,231h69.54a9.31,9.31,0,0,1,9.31,9.32h0a9.31,9.31,0,0,1-9.31,9.31H421.21a9.31,9.31,0,0,1-9.31-9.31h0A9.31,9.31,0,0,1,421.21,231Z" class="cls-8" data-name="Rectangle 644"/><path id="Rectangle_645" d="M415.44,256.54h81.08a6.74,6.74,0,0,1-6.74,6.74h-67.6a6.74,6.74,0,0,1-6.74-6.74Z" class="cls-6" data-name="Rectangle 645"/><path id="Rectangle_646" d="M417.22,224.21h77.52A6.74,6.74,0,0,1,488,231H424a6.74,6.74,0,0,1-6.74-6.74Z" class="cls-1" data-name="Rectangle 646"/><rect id="Rectangle_647" width="87.47" height="6.94" x="412.59" y="249.52" class="cls-9" data-name="Rectangle 647"/><path id="Rectangle_648" d="M444.21,229.74h9.48v23.88a4.75,4.75,0,0,1-4.74,4.75h0a4.75,4.75,0,0,1-4.74-4.75V229.74Z" class="cls-1" data-name="Rectangle 648"/><path id="Rectangle_649" d="M453.69,224.21h9.49v6.63a9.49,9.49,0,0,1-9.49,9.49h0V224.21Z" class="cls-1" data-name="Rectangle 649"/></g><circle id="Ellipse_98" cx="456.32" cy="188.62" r="26.01" class="cls-10" data-name="Ellipse 98"/><g id="Group_152" data-name="Group 152"><path id="Rectangle_650" d="M442.84,178h0a8.82,8.82,0,0,1,12.5,0l13.49,13.49h0L456.33,204h0l-13.49-13.49A8.84,8.84,0,0,1,442.84,178Z" class="cls-2" data-name="Rectangle 650"/><path id="Rectangle_651" d="M456.33,204l-12.51-12.51h0L457.31,178a8.84,8.84,0,0,1,12.51,0h0a8.85,8.85,0,0,1,0,12.51L456.33,204Z" class="cls-2" data-name="Rectangle 651"/></g></g></g></g></g></svg>