<svg xmlns="http://www.w3.org/2000/svg" viewBox="0 0 413.02 227.61"><defs><style>.cls-1{fill:#ab7029;}.cls-2{fill:#faa21e;}.cls-3{fill:#592b2b;}.cls-4{fill:#b32029;}.cls-5{fill:#a9ae38;}.cls-6{fill:#cf3339;}</style></defs><g id="Layer_2" data-name="Layer 2"><g id="website_artwork" data-name="website artwork"><g id="Group_116" data-name="Group 116"><g id="Group_119" data-name="Group 119"><g id="Group_116-2" data-name="Group 116-2"><path id="Rectangle_422" data-name="Rectangle 422" class="cls-1" d="M76.61,101.52h24.27A24.15,24.15,0,0,1,125,125.67H52.46a24.15,24.15,0,0,1,24.15-24.15Z"/><rect id="Rectangle_423" data-name="Rectangle 423" class="cls-2" x="52.46" y="125.67" width="72.56" height="9.04"/><rect id="Rectangle_424" data-name="Rectangle 424" class="cls-3" x="44.1" y="134.06" width="89.3" height="17.71" rx="8.86"/><rect id="Rectangle_425" data-name="Rectangle 425" class="cls-4" x="52.46" y="151.77" width="72.56" height="10.47"/><rect id="Rectangle_426" data-name="Rectangle 426" class="cls-5" x="52.46" y="162.24" width="72.56" height="12.42"/><path id="Rectangle_427" data-name="Rectangle 427" class="cls-1" d="M52.46,174.65H125v5.22a13.71,13.71,0,0,1-13.7,13.7H66.16a13.71,13.71,0,0,1-13.7-13.7v-5.22Z"/><path id="Rectangle_428" data-name="Rectangle 428" class="cls-2" d="M70.32,125.67h7.26v39.15A3.63,3.63,0,0,1,74,168.45h0a3.64,3.64,0,0,1-3.63-3.63V125.67Z"/><path id="Rectangle_429" data-name="Rectangle 429" class="cls-2" d="M77.58,125.67H88.75v6.08a11.17,11.17,0,0,1-11.17,11.16h0V125.67Z"/></g><g id="Group_117" data-name="Group 117"><path id="Rectangle_430" data-name="Rectangle 430" class="cls-1" d="M190.89,59.58h24.27a24.16,24.16,0,0,1,24.15,24.15H166.74a24.15,24.15,0,0,1,24.15-24.15Z"/><rect id="Rectangle_431" data-name="Rectangle 431" class="cls-2" x="166.74" y="83.73" width="72.56" height="9.04"/><rect id="Rectangle_432" data-name="Rectangle 432" class="cls-2" x="166.74" y="109.08" width="72.56" height="9.04"/><rect id="Rectangle_433" data-name="Rectangle 433" class="cls-3" x="158.38" y="92.12" width="89.3" height="17.71" rx="8.86"/><rect id="Rectangle_434" data-name="Rectangle 434" class="cls-3" x="158.38" y="117.65" width="89.3" height="17.71" rx="8.86"/><rect id="Rectangle_435" data-name="Rectangle 435" class="cls-4" x="166.74" y="151.77" width="72.56" height="10.47"/><rect id="Rectangle_436" data-name="Rectangle 436" class="cls-2" x="166.74" y="135.36" width="72.56" height="10.65"/><rect id="Rectangle_437" data-name="Rectangle 437" class="cls-5" x="166.74" y="162.24" width="72.56" height="12.42"/><rect id="Rectangle_438" data-name="Rectangle 438" class="cls-5" x="166.74" y="146.02" width="72.56" height="6.21"/><path id="Rectangle_439" data-name="Rectangle 439" class="cls-1" d="M166.74,174.65h72.57v5.22a13.71,13.71,0,0,1-13.7,13.7H180.44a13.71,13.71,0,0,1-13.7-13.7v-5.22Z"/><path id="Rectangle_440" data-name="Rectangle 440" class="cls-2" d="M184.6,83.73h7.26v39.15a3.63,3.63,0,0,1-3.63,3.63h0a3.64,3.64,0,0,1-3.63-3.63V83.73Z"/><path id="Rectangle_441" data-name="Rectangle 441" class="cls-2" d="M213.91,114.65h7.25v39.14a3.62,3.62,0,0,1-3.63,3.63h0a3.62,3.62,0,0,1-3.62-3.63V114.65Z"/><path id="Rectangle_442" data-name="Rectangle 442" class="cls-2" d="M191.86,83.73H203v6.08A11.15,11.15,0,0,1,191.86,101h0V83.73Z"/></g><g id="Group_118" data-name="Group 118"><rect id="Rectangle_443" data-name="Rectangle 443" class="cls-4" x="281.02" y="130.19" width="72.56" height="15.73"/><rect id="Rectangle_444" data-name="Rectangle 444" class="cls-2" x="281.51" y="103.84" width="71.59" height="13.81"/><path id="Rectangle_445" data-name="Rectangle 445" class="cls-1" d="M305.17,0h24.27a24.15,24.15,0,0,1,24.15,24.15H281A24.15,24.15,0,0,1,305.17,0Z"/><rect id="Rectangle_446" data-name="Rectangle 446" class="cls-2" x="281.02" y="24.15" width="72.56" height="9.04"/><rect id="Rectangle_447" data-name="Rectangle 447" class="cls-2" x="281.02" y="49.49" width="72.56" height="9.04"/><rect id="Rectangle_448" data-name="Rectangle 448" class="cls-3" x="272.66" y="32.54" width="89.3" height="17.71" rx="8.86"/><rect id="Rectangle_449" data-name="Rectangle 449" class="cls-3" x="272.66" y="58.07" width="89.3" height="17.71" rx="8.86"/><rect id="Rectangle_450" data-name="Rectangle 450" class="cls-3" x="272.66" y="86.25" width="89.3" height="17.71" rx="8.86"/><rect id="Rectangle_451" data-name="Rectangle 451" class="cls-4" x="281.02" y="151.77" width="72.56" height="10.47"/><rect id="Rectangle_452" data-name="Rectangle 452" class="cls-2" x="281.51" y="75.78" width="71.59" height="10.47"/><rect id="Rectangle_453" data-name="Rectangle 453" class="cls-5" x="281.02" y="162.24" width="72.56" height="12.42"/><rect id="Rectangle_454" data-name="Rectangle 454" class="cls-5" x="281.02" y="146.02" width="72.56" height="6.21"/><rect id="Rectangle_455" data-name="Rectangle 455" class="cls-3" x="272.66" y="116.13" width="89.3" height="17.71" rx="8.86"/><path id="Rectangle_456" data-name="Rectangle 456" class="cls-1" d="M281,174.65h72.57v5.22a13.71,13.71,0,0,1-13.7,13.7H294.72a13.71,13.71,0,0,1-13.7-13.7v-5.22Z"/><path id="Rectangle_457" data-name="Rectangle 457" class="cls-2" d="M298.89,24.15h7.25V63.29a3.62,3.62,0,0,1-3.63,3.63h0a3.62,3.62,0,0,1-3.62-3.63V24.15Z"/><path id="Rectangle_458" data-name="Rectangle 458" class="cls-2" d="M328.19,55.06h7.25V94.21a3.63,3.63,0,0,1-3.62,3.63h0a3.63,3.63,0,0,1-3.63-3.63V55.06Z"/><path id="Rectangle_459" data-name="Rectangle 459" class="cls-2" d="M298.89,86.25h7.25v39.14a3.62,3.62,0,0,1-3.63,3.63h0a3.62,3.62,0,0,1-3.62-3.63V86.25Z"/><path id="Rectangle_460" data-name="Rectangle 460" class="cls-2" d="M320.1,114.65h7.26v39.14a3.63,3.63,0,0,1-3.63,3.63h0a3.62,3.62,0,0,1-3.63-3.63V114.65Z"/><path id="Rectangle_461" data-name="Rectangle 461" class="cls-2" d="M306.14,24.15H317.3v6.08a11.16,11.16,0,0,1-11.16,11.16h0V24.15Z"/><path id="Rectangle_462" data-name="Rectangle 462" class="cls-2" d="M335.44,75.78h11.17v6.08A11.17,11.17,0,0,1,335.44,93h0V75.78Z"/></g></g><rect id="Rectangle_463" data-name="Rectangle 463" class="cls-6" y="193.56" width="413.02" height="34.05"/></g></g></g></svg>