<svg xmlns="http://www.w3.org/2000/svg" width="3212.468" height="675.917" viewBox="0 0 3212.468 675.917"><g><polygon fill="none" points="2451.938 520.827 2439.354 520.827 2439.354 521.524 2453.535 521.524 2451.938 520.827"/><rect height="108.813" x="2927.126" y="520.1" fill="none"/><polygon fill="none" points="263.896 256.293 249.705 256.293 249.705 256.812 265.085 256.812 263.896 256.293"/><path fill="#a9ae38" d="M1702.577,256.9a31.863,31.863,0,0,1,31.4-11.536v30.327h12.751V250.3a14.828,14.828,0,0,1,12.7-2.1V235.676a29.634,29.634,0,0,0-29.634-29.634h-48.921A70.288,70.288,0,0,0,1702.577,256.9Z"/><path fill="#411f1f" d="M1763.279,498.161v21.22a86.211,86.211,0,0,1-86.211,86.211h-17.592V625.73h156.816V551.173h0A53.012,53.012,0,0,1,1763.279,498.161Z"/><path fill="#ab7029" d="M1513.215,213.943h60.7a49.749,49.749,0,0,0-26.086-43.776,54.067,54.067,0,0,1-95.681-.535,49.744,49.744,0,0,0-27.132,44.311h88.2Z"/><path fill="#ab7029" d="M1573.91,288.573h-148.9A32.828,32.828,0,0,0,1457.84,321.4h83.241A32.828,32.828,0,0,0,1573.91,288.573Z"/><path fill="#592b2b" d="M1476.972,226.936H1442.8a17.791,17.791,0,0,0-17.791,17.791h0a17.78,17.78,0,0,0,15.132,17.571h36.829Z"/><path fill="#592b2b" d="M1495.094,244.727V262.3h63.683a17.781,17.781,0,0,0,15.133-17.571h0a17.791,17.791,0,0,0-17.791-17.791H1513.2A18.112,18.112,0,0,1,1495.094,244.727Z"/><path fill="#a9ae38" d="M1576.913,275.693h-83.74a9.039,9.039,0,0,1-14.281,0h-56.885a12.88,12.88,0,0,0,12.88,12.88h129.147A12.879,12.879,0,0,0,1576.913,275.693Z"/><path fill="#b32029" d="M1476.972,262.3h-60.406v13.251h62.218a9.011,9.011,0,0,1-1.812-5.42Z"/><path fill="#b32029" d="M1495.094,270.129a9.005,9.005,0,0,1-1.813,5.42h90.394V262.3h-88.581Z"/><path fill="#faa21e" d="M1486.033,279.19a9.035,9.035,0,0,0,7.14-3.5c.037-.047.072-.1.108-.144a9.005,9.005,0,0,0,1.813-5.42v-25.4a18.112,18.112,0,0,0,18.1-17.791c0-.038,0-.075.006-.113h47.418a12.879,12.879,0,0,0,12.879-12.88H1425.419a12.88,12.88,0,0,0,12.88,12.88h38.673v43.306a9.011,9.011,0,0,0,1.812,5.42c.036.048.072.1.108.144A9.039,9.039,0,0,0,1486.033,279.19Z"/><path fill="#cf3339" d="M1762.476,321.466V485.034h53.816V377.774A56.37,56.37,0,0,0,1762.476,321.466Z"/><polygon fill="#cf3339" points="1684.069 485.034 1727.603 485.034 1737.884 485.034 1737.884 321.401 1690.766 321.401 1684.069 321.401 1684.069 485.034"/><rect width="102.578" height="59.819" x="1556.898" y="321.401" fill="#cf3339"/><path fill="#ed5d28" d="M1541.081,321.4h-46.359v1.616a58.2,58.2,0,0,0,58.2,58.2h3.973V321.4Z"/><path fill="#ffe8c9" d="M1763.279,519.381V485.034h-.8V321.4h-24.592V485.034h-53.815V321.4h-24.593V605.592h17.592A86.211,86.211,0,0,0,1763.279,519.381Z"/><polygon fill="#cf3339" points="1748.164 625.73 1727.603 625.73 1661.492 625.73 1617.957 675.917 1684.069 675.917 1750.18 675.917 1816.292 675.917 1816.292 625.73 1750.18 625.73 1748.164 625.73"/><path fill="#ed5d28" d="M1763.279,498.161a53.012,53.012,0,0,0,53.012,53.012h0V485.034h-53.013Z"/><path fill="#ed5d28" d="M1746.73,250.3v25.393h-12.751V245.366a31.863,31.863,0,0,0-31.4,11.536,31.823,31.823,0,1,0,56.847,19.931A14.908,14.908,0,1,0,1746.73,250.3Z"/><path fill="#faa21e" d="M1500.121,198.778a54.077,54.077,0,1,0-47.978-29.146A54.052,54.052,0,0,0,1500.121,198.778Zm-12.994-69.42,12.275-24.872,12.275,24.872,27.448,3.988-19.861,19.361,4.688,27.337-24.55-12.907-24.55,12.907,4.689-27.337-19.862-19.361Z"/><polygon fill="#fff" points="1474.852 180.044 1499.402 167.137 1523.952 180.044 1519.264 152.707 1539.125 133.346 1511.677 129.358 1499.402 104.486 1487.127 129.358 1459.679 133.346 1479.541 152.707 1474.852 180.044"/><path fill="#ffe8c9" d="M1898.972,519.381v-21.22a53.013,53.013,0,0,1-53.012,53.012h0V625.73h156.816V605.592h-17.592A86.211,86.211,0,0,1,1898.972,519.381Z"/><path fill="#ab7029" d="M2167.157,213.943h70.083a49.744,49.744,0,0,0-26.609-44.044,54.065,54.065,0,0,1-95.681,0,49.744,49.744,0,0,0-26.609,44.044h78.816Z"/><path fill="#ab7029" d="M2204.411,321.4a32.828,32.828,0,0,0,32.829-32.828h-148.9A32.828,32.828,0,0,0,2121.17,321.4h83.241Z"/><path fill="#592b2b" d="M2167.157,244.727a18.112,18.112,0,0,1-18.1-17.791h-42.921a17.791,17.791,0,0,0-17.791,17.791h0a17.78,17.78,0,0,0,15.133,17.571h63.683Z"/><path fill="#592b2b" d="M2222.108,262.3a17.78,17.78,0,0,0,15.132-17.571h0a17.791,17.791,0,0,0-17.791-17.791h-34.17V262.3Z"/><path fill="#a9ae38" d="M2240.243,275.693h-56.885a9.035,9.035,0,0,1-7.14,3.5h0a9.039,9.039,0,0,1-7.141-3.5h-83.739a12.879,12.879,0,0,0,12.879,12.88h129.147A12.879,12.879,0,0,0,2240.243,275.693Z"/><path fill="#b32029" d="M2167.157,262.3h-88.581v13.251h90.394a9.005,9.005,0,0,1-1.813-5.42Z"/><path fill="#b32029" d="M2185.279,270.129a9.005,9.005,0,0,1-1.813,5.42h62.218V262.3h-60.405Z"/><path fill="#faa21e" d="M2176.218,279.19h0a9.035,9.035,0,0,0,7.14-3.5c.037-.047.072-.1.108-.144a9.005,9.005,0,0,0,1.813-5.42V226.823h38.673a12.88,12.88,0,0,0,12.88-12.88H2088.75a12.879,12.879,0,0,0,12.879,12.88h47.418c0,.038.005.075.006.113a18.112,18.112,0,0,0,18.1,17.791v25.4a9.005,9.005,0,0,0,1.813,5.42c.036.048.071.1.107.144A9.039,9.039,0,0,0,2176.218,279.19Z"/><polygon fill="#a9ae38" points="1934.648 485.034 1978.182 485.034 1978.182 321.401 1971.485 321.401 1924.367 321.401 1924.367 485.034 1934.648 485.034"/><path fill="#a9ae38" d="M1899.774,485.034V321.466a56.369,56.369,0,0,0-53.814,56.308v107.26h53.814Z"/><rect width="102.578" height="59.819" x="2002.775" y="321.401" fill="#a9ae38"/><path fill="#faa21e" d="M2167.529,321.4h-62.176V381.22h2.357A59.819,59.819,0,0,0,2167.529,321.4Z"/><path fill="#faa21e" d="M1902.82,276.55a31.83,31.83,0,1,0,62.74-7.63h-61.82A31.947,31.947,0,0,0,1902.82,276.55Z"/><path fill="#b32029" d="M1978.182,321.4V485.034h-53.815V321.4h-24.593V485.034h-.8v34.347a86.211,86.211,0,0,0,86.211,86.211h17.592V321.4Z"/><polygon fill="#a9ae38" points="1914.087 625.73 1912.071 625.73 1845.959 625.73 1845.959 675.917 1912.071 675.917 1978.182 675.917 2044.294 675.917 2000.759 625.73 1934.648 625.73 1914.087 625.73"/><path fill="#faa21e" d="M1898.972,498.161V485.034h-53.013v66.139h0A53.013,53.013,0,0,0,1898.972,498.161Z"/><path fill="#592b2b" d="M1902.82,258.653a32,32,0,0,0,5.9-.554,31.673,31.673,0,0,0-4.977,10.821h61.82a31.837,31.837,0,0,0-36.818-23.636,31.825,31.825,0,1,0-25.922,13.369Z"/><path fill="#b32029" d="M2162.791,198.778A54.071,54.071,0,1,0,2114.95,169.9,54.049,54.049,0,0,0,2162.791,198.778Zm-12.994-69.42,12.275-24.872,12.275,24.872,27.448,3.988-19.861,19.361,4.688,27.337-24.55-12.907-24.55,12.907,4.689-27.337-19.862-19.361Z"/><polygon fill="#fff" points="2137.522 180.044 2162.072 167.137 2186.622 180.044 2181.934 152.707 2201.795 133.346 2174.347 129.358 2162.072 104.486 2149.797 129.358 2122.349 133.346 2142.211 152.707 2137.522 180.044"/><path fill="#ed5d28" d="M728.394,190.667a38.163,38.163,0,0,1,34.142,21.107V168H713.642a19.391,19.391,0,0,0-19.391,19.391v24.382A38.163,38.163,0,0,1,728.394,190.667Z"/><path fill="#faa21e" d="M844,424.986V196.046H793.209v79.917H610.337c-1.015.09-2.041.144-3.08.144H591.58v50.646h81.256v98.233H844Z"/><path fill="#411f1f" d="M693.663,244.672a38.168,38.168,0,0,0,69.461,0,15.844,15.844,0,0,0,0-31.667q-.284-.621-.588-1.231a38.168,38.168,0,0,0-68.285,0q-.306.609-.588,1.231a15.844,15.844,0,0,0,0,31.667Z"/><path fill="#411f1f" d="M851.834,196.046a32.181,32.181,0,0,0,32.178-31.82h-63.49a32.2,32.2,0,0,0-27.313,31.82h58.625Z"/><path fill="#411f1f" d="M552.51,276.107v21.048H542.082a39.678,39.678,0,0,0,38.372,29.6H591.58V276.107Z"/><path fill="#411f1f" d="M552.51,276.107H520.3c-1.039,0-2.065-.054-3.08-.144h-7.062a10.6,10.6,0,0,0,0,21.192H552.51Z"/><polygon fill="#ed5d28" points="947.742 510.568 947.742 424.986 844 424.986 758.418 424.986 672.836 424.986 672.836 637.329 758.418 637.329 758.418 510.568 882.73 510.568 934.668 510.568 947.742 510.568"/><polygon fill="#faa21e" points="639.969 675.917 758.418 675.917 758.418 637.329 672.836 637.329 639.969 675.917"/><polygon fill="#faa21e" points="986.331 510.568 986.331 392.12 947.742 424.986 947.742 510.568 986.331 510.568"/><path fill="#ab7029" d="M923.165,562.9H987a52.332,52.332,0,0,0-52.332-52.332H882.73A52.332,52.332,0,0,0,830.4,562.9h92.767Z"/><path fill="#ab7029" d="M830.4,641.39a34.527,34.527,0,0,0,34.527,34.527h87.548A34.527,34.527,0,0,0,987,641.39H830.4Z"/><path fill="#592b2b" d="M885.048,576.564H849.109A18.712,18.712,0,0,0,830.4,595.276h0a18.7,18.7,0,0,0,15.915,18.48h38.735Z"/><path fill="#592b2b" d="M904.106,595.276v18.48h66.978A18.7,18.7,0,0,0,987,595.276h0a18.712,18.712,0,0,0-18.711-18.712H923.148A19.05,19.05,0,0,1,904.106,595.276Z"/><path fill="#a9ae38" d="M894.577,631.521a9.506,9.506,0,0,1-7.51-3.676H827.239a13.546,13.546,0,0,0,13.546,13.545H976.613a13.546,13.546,0,0,0,13.546-13.545H902.087A9.506,9.506,0,0,1,894.577,631.521Z"/><path fill="#b32029" d="M885.048,613.756H821.517v13.937h65.437a9.472,9.472,0,0,1-1.906-5.7Z"/><path fill="#b32029" d="M904.106,613.756v8.236a9.472,9.472,0,0,1-1.906,5.7h95.07V613.756H904.106Z"/><path fill="#faa21e" d="M904.106,613.756v-18.48a19.05,19.05,0,0,0,19.042-18.712c0-.04,0-.078.006-.118h49.871A13.545,13.545,0,0,0,986.57,562.9H830.828a13.545,13.545,0,0,0,13.545,13.546h40.675v45.546a9.472,9.472,0,0,0,1.906,5.7c.037.05.074.1.113.152a9.509,9.509,0,0,0,15.02,0c.039-.05.075-.1.113-.152a9.472,9.472,0,0,0,1.906-5.7Z"/><path fill="#ab7029" d="M857.678,51.977h63.4A51.977,51.977,0,0,0,869.1,0H817.518a51.977,51.977,0,0,0-51.977,51.977h92.137Z"/><path fill="#ab7029" d="M886.786,164.226a34.293,34.293,0,0,0,34.293-34.292H765.541a34.292,34.292,0,0,0,34.292,34.292h86.953Z"/><path fill="#592b2b" d="M819.819,65.549H784.125a18.573,18.573,0,0,0-2.777,36.938h38.471Z"/><path fill="#592b2b" d="M838.748,84.133v18.354h66.524a18.572,18.572,0,0,0,15.807-18.354h0A18.584,18.584,0,0,0,902.5,65.549H857.66A18.92,18.92,0,0,1,838.748,84.133Z"/><path fill="#a9ae38" d="M924.216,116.48H836.743a9.443,9.443,0,0,1-14.918,0H762.4a13.454,13.454,0,0,0,13.453,13.454H910.763A13.454,13.454,0,0,0,924.216,116.48Z"/><path fill="#b32029" d="M819.819,102.487h-63.1v13.842h64.992a9.414,9.414,0,0,1-1.893-5.662Z"/><path fill="#b32029" d="M838.748,110.667a9.407,9.407,0,0,1-1.893,5.662h94.424V102.487H838.748Z"/><path fill="#faa21e" d="M829.284,120.132a9.442,9.442,0,0,0,7.459-3.652c.038-.049.075-.1.112-.151a9.407,9.407,0,0,0,1.893-5.662V84.133A18.92,18.92,0,0,0,857.66,65.549c0-.04.006-.079.006-.119H907.2a13.453,13.453,0,0,0,13.454-13.453H765.968A13.453,13.453,0,0,0,779.421,65.43h40.4v45.237a9.414,9.414,0,0,0,1.893,5.662c.038.05.074.1.113.151A9.44,9.44,0,0,0,829.284,120.132Z"/><path fill="#ab7029" d="M578.149,163.858h63.4a51.976,51.976,0,0,0-51.977-51.976H537.989a51.976,51.976,0,0,0-51.977,51.976h92.137Z"/><path fill="#ab7029" d="M552.51,276.107h54.747c1.039,0,2.065-.054,3.08-.144a34.292,34.292,0,0,0,31.213-34.148H486.012a34.292,34.292,0,0,0,31.213,34.148c1.015.09,2.041.144,3.08.144Z"/><path fill="#592b2b" d="M540.29,177.43H504.6a18.573,18.573,0,0,0-2.777,36.939H540.29Z"/><path fill="#592b2b" d="M559.219,196.014v18.355h66.524a18.573,18.573,0,0,0-2.777-36.939H578.131A18.92,18.92,0,0,1,559.219,196.014Z"/><path fill="#a9ae38" d="M644.687,228.361H557.214a9.442,9.442,0,0,1-14.918,0H482.875a13.453,13.453,0,0,0,13.453,13.454H631.234A13.453,13.453,0,0,0,644.687,228.361Z"/><path fill="#b32029" d="M540.29,214.369h-63.1v13.842h64.992a9.414,9.414,0,0,1-1.893-5.662Z"/><path fill="#b32029" d="M559.219,222.549a9.413,9.413,0,0,1-1.892,5.662H651.75V214.369H559.219Z"/><path fill="#faa21e" d="M549.755,232.014a9.44,9.44,0,0,0,7.459-3.653c.038-.049.075-.1.113-.15a9.413,9.413,0,0,0,1.892-5.662V196.014a18.92,18.92,0,0,0,18.912-18.584c0-.039.006-.078.006-.118H627.67a13.453,13.453,0,0,0,13.453-13.454H486.439a13.453,13.453,0,0,0,13.453,13.454h40.4v45.237a9.414,9.414,0,0,0,1.893,5.662c.038.05.074.1.113.15A9.438,9.438,0,0,0,549.755,232.014Z"/><path fill="#ab7029" d="M2231.826,558.985h66.045a54.142,54.142,0,0,0-32.113-49.457,54.064,54.064,0,0,1-96.627-.518,54.157,54.157,0,0,0-33.285,49.975h95.98Z"/><path fill="#ab7029" d="M2135.846,640.194a35.722,35.722,0,0,0,35.722,35.723h90.58a35.723,35.723,0,0,0,35.723-35.723H2135.846Z"/><path fill="#592b2b" d="M2308.5,592.483a19.359,19.359,0,0,0-19.359-19.359h-57.331a19.708,19.708,0,0,1-19.7,19.359V611.6h79.924A19.346,19.346,0,0,0,2308.5,592.483Z"/><path fill="#592b2b" d="M2192.388,573.124h-47.809a19.347,19.347,0,0,0-2.893,38.479h50.7Z"/><path fill="#a9ae38" d="M2202.247,629.984a9.835,9.835,0,0,1-7.77-3.805h-61.9a14.015,14.015,0,0,0,14.015,14.015h140.533a14.015,14.015,0,0,0,14.015-14.015h-91.123A9.834,9.834,0,0,1,2202.247,629.984Z"/><path fill="#ed5d28" d="M2192.388,611.6h-65.731v14.419h67.7a9.8,9.8,0,0,1-1.972-5.9Z"/><path fill="#ed5d28" d="M2212.107,620.125a9.8,9.8,0,0,1-1.972,5.9H2308.5V611.6h-96.39Z"/><path fill="#faa21e" d="M2212.107,611.6v-19.12a19.708,19.708,0,0,0,19.7-19.359c0-.042.006-.082.007-.124h51.6a14.015,14.015,0,0,0,14.015-14.015H2136.29A14.015,14.015,0,0,0,2150.3,573h42.083v47.125a9.8,9.8,0,0,0,1.972,5.9c.039.053.077.106.117.157a9.836,9.836,0,0,0,15.54,0c.041-.051.079-.1.118-.157a9.8,9.8,0,0,0,1.972-5.9Z"/><path fill="#ffe8c9" d="M2217.577,539.071a54.068,54.068,0,1,0-48.446-30.061A54.051,54.051,0,0,0,2217.577,539.071Zm-28.043-76.114h0a18.384,18.384,0,0,1,26,0l2.042,2.041,2.041-2.041a18.386,18.386,0,0,1,26,0h0a18.387,18.387,0,0,1,0,26L2243.579,491h0l-26,26-26-26h0l-2.041-2.041A18.385,18.385,0,0,1,2189.534,462.957Z"/><path fill="#b32029" d="M2191.575,491h0l26,26,26-26h0l2.042-2.041a18.387,18.387,0,0,0,0-26h0a18.386,18.386,0,0,0-26,0L2217.577,465l-2.042-2.041a18.384,18.384,0,0,0-26,0h0a18.385,18.385,0,0,0,0,26Z"/><path fill="#ab7029" d="M360.083,536.645v-3.583H297.067v4.019a7.856,7.856,0,0,1-15.711,0v-4.019H255.241v3.583a15.372,15.372,0,0,0,15.372,15.372h74.1A15.372,15.372,0,0,0,360.083,536.645Z"/><rect width="63.016" height="6.674" x="297.067" y="526.387" fill="#a9ae38"/><rect width="26.116" height="6.674" x="255.241" y="526.387" fill="#a9ae38"/><path fill="#b32029" d="M297.067,520.094v6.293h63.016v-6.676H350.75a12.322,12.322,0,0,1-3,.383Z"/><path fill="#b32029" d="M281.356,520.094H267.575a12.334,12.334,0,0,1-3-.383h-9.332v6.676h26.115Z"/><path fill="#411f1f" d="M297.067,500.422v19.672h50.681a12.334,12.334,0,1,0,0-24.668H328.991l-21.685,9.468Z"/><path fill="#411f1f" d="M281.356,520.094V495.426H267.575a12.334,12.334,0,0,0,0,24.668Z"/><path fill="#ab7029" d="M360.081,486.729c0-17.33-23.623-31.377-52.775-31.377s-52.774,14.047-52.774,31.377Z"/><path fill="#faa21e" d="M296.9,552.514a19.754,19.754,0,0,0,19.754,19.754h104.2V552.514Z"/><path fill="#b32029" d="M528.716,544.148a18.43,18.43,0,1,1-36.859,0v-7.114H420.848v80.045a24,24,0,0,0,23.98,23.984h26.977a66.688,66.688,0,0,1,56.913-31.88V537.034h0ZM480.8,604.7a18.429,18.429,0,0,1-18.429-18.429V558.094H480.8Z"/><path fill="#faa21e" d="M491.857,473.315H481.786a12.343,12.343,0,0,1-12.343,12.343h-8.06V473.315h-8.1a12.343,12.343,0,0,1-12.343,12.343h-8.06V473.315h-25.8V478.1a17.485,17.485,0,0,1-17.485,17.485h-14.46V511.1H468.4a6.385,6.385,0,1,1,0,12.769H375.978a18.753,18.753,0,0,0,17.9,13.166h97.982Z"/><path fill="#faa21e" d="M528.716,537.034h0v-43.6c0-.024,0-.048,0-.072Z"/><path fill="#faa21e" d="M491.857,455.967c-.209,0-.416-.016-.625-.016H453.091A20.2,20.2,0,0,0,434.706,467.8h57.151Z"/><path fill="#411f1f" d="M407.078,478.1v-4.789H375.133v22.274h14.46A17.485,17.485,0,0,0,407.078,478.1Z"/><path fill="#faa21e" d="M462.369,586.267v0A18.429,18.429,0,0,0,480.8,604.7v-46.6H462.369Z"/><path fill="#faa21e" d="M471.805,641.063H444.828a23.935,23.935,0,0,1-18.761-9.056,66.562,66.562,0,0,0-13.952,25.644H403.64a18.266,18.266,0,0,0-18.266,18.266H528.718V609.183A66.688,66.688,0,0,0,471.805,641.063Z"/><path fill="#411f1f" d="M432.881,476.161v9.5h8.06a12.343,12.343,0,0,0,12.343-12.343h8.1v12.343h8.06a12.343,12.343,0,0,0,12.343-12.343h10.071v70.833a18.43,18.43,0,1,0,36.859,0V492.811a36.859,36.859,0,0,0-36.859-36.86V467.8H432.881v5.513h0Z"/><path fill="#fff" d="M468.4,523.868a6.385,6.385,0,1,0,0-12.769H375.133v12.769H468.4Z"/><path fill="#faa21e" d="M289.212,544.936a7.856,7.856,0,0,0,7.855-7.855v-4.019h0V500.422l10.239,4.472,21.685-9.468,1.189-.519h29.9v-8.178H254.532v8.178h26.824v38.154h0v4.019A7.856,7.856,0,0,0,289.212,544.936Z"/><path fill="#faa21e" d="M2656.8,396.3a27.118,27.118,0,0,1-18.69-7.441h-164.5v50.067h116.83v60.112h132.711v0h0V388.855h-47.664A27.118,27.118,0,0,1,2656.8,396.3Z"/><polygon fill="#411f1f" points="2656.8 499.034 2651.221 499.034 2590.445 499.034 2590.445 499.036 2590.445 631.683 2651.221 631.683 2656.8 631.683 2723.156 631.683 2723.156 499.036 2723.156 499.034 2656.8 499.034"/><path fill="#411f1f" d="M2673.905,631.685H2640.73a44.233,44.233,0,0,0-44.233,44.233h121.641A44.232,44.232,0,0,0,2673.905,631.685Z"/><path fill="#ab7029" d="M2412.706,649.822v0c0,14.41,11.4,26.091,25.455,26.091h89.98c14.059,0,25.454-11.685,25.452-26.1V623.7H2412.706Z"/><polygon fill="#a9ae38" points="2412.706 623.703 2412.706 623.703 2553.593 623.703 2553.593 623.703 2553.593 614.731 2412.706 614.731 2412.706 623.703"/><rect width="140.886" height="8.969" x="2412.706" y="605.762" fill="#b32029"/><rect width="10.937" height="8.971" x="2412.706" y="563.643" fill="#a9ae38"/><polygon fill="#a9ae38" points="2439.354 572.613 2537.017 572.613 2537.02 572.614 2553.593 572.614 2553.593 563.643 2439.354 563.643 2439.354 572.613"/><rect width="10.937" height="8.97" x="2412.706" y="554.673" fill="#b32029"/><rect width="114.239" height="8.97" x="2439.354" y="554.673" fill="#b32029"/><path fill="#411f1f" d="M2412.706,538.1a16.564,16.564,0,0,0,10.937,15.569V522.529A16.565,16.565,0,0,0,2412.706,538.1Z"/><path fill="#411f1f" d="M2453.535,521.524h-14.181v33.149h97.663a16.575,16.575,0,1,0,0-33.149h-25.206l-29.138,12.722Z"/><path fill="#411f1f" d="M2439.354,572.613v13.9a7.856,7.856,0,0,1-15.711,0V573.618a16.565,16.565,0,0,0,5.639,32.144h107.735a16.574,16.574,0,1,0,0-33.148h-97.666Z"/><path fill="#faa21e" d="M2411.756,509.839v10.988h11.887v65.685a7.856,7.856,0,0,0,15.711,0V554.673h0V520.827h12.584l1.6.7,29.138,12.722,29.138-12.722,1.6-.7h40.184V509.839Z"/><path fill="#ab7029" d="M2411.756,509.839h141.837a70.917,70.917,0,0,0-70.883-70.917h-.072A70.917,70.917,0,0,0,2411.756,509.839Z"/><path fill="#b32029" d="M2462.049,388.855a50.066,50.066,0,0,0-50.066,50.067h61.632V388.855Z"/><path fill="#a9ae38" d="M2656.8,341.852a27.229,27.229,0,0,1,26.108,19.509,7.874,7.874,0,0,1,1.115-.089V288.951h-54.445v72.321a7.874,7.874,0,0,1,1.115.089A27.229,27.229,0,0,1,2656.8,341.852Z"/><path fill="#b32029" d="M2675.492,388.855a27.215,27.215,0,0,0,7.417-12.069,7.8,7.8,0,1,0,1.115-15.514h0a7.874,7.874,0,0,0-1.115.089,27.223,27.223,0,0,0-52.215,0,7.8,7.8,0,1,0-1.115,15.514,7.729,7.729,0,0,0,1.115-.089,27.213,27.213,0,0,0,44.8,12.069Z"/><path fill="#ab7029" d="M3055.457,425.764h19.135V301.685h-19.137a25.728,25.728,0,0,0-25.728,25.729v72.623A25.729,25.729,0,0,0,3055.457,425.764Z"/><polygon fill="#a9ae38" points="3082.498 425.764 3082.492 425.763 3090.045 301.915 3090.391 301.936 3090.391 301.685 3074.592 301.685 3074.592 425.764 3082.498 425.764"/><polygon fill="#b32029" points="3082.492 425.763 3082.498 425.764 3090.377 426.244 3097.93 302.396 3090.391 301.936 3090.045 301.915 3082.492 425.763"/><path fill="#411f1f" d="M3104.593,425.805a14.6,14.6,0,0,0,16.246-12.744l11.386-94.219a14.6,14.6,0,1,0-28.989-3.5l-11.386,94.219A14.6,14.6,0,0,0,3104.593,425.805Z"/><polygon fill="#faa21e" points="3171.132 311.495 3171.134 311.496 3171.134 311.495 3162.029 308.22 3150.051 341.521 3129.768 362.993 3131.726 392.467 3119.75 425.765 3127.244 428.461 3129.06 428.461 3171.132 311.495"/><path fill="#ab7029" d="M3171.134,311.5h0L3129.06,428.461h18.68a28.706,28.706,0,0,1,13.33,3.267A62.453,62.453,0,0,0,3171.134,311.5Z"/><path fill="#ffe8c9" d="M3002.649,428.461H2885.63a56.742,56.742,0,0,1,22.244-45.09V312.215h-56.606V520.1h151.381V485.067H3118.9V428.461Z"/><path fill="#411f1f" d="M2908.957,283.37a28.845,28.845,0,0,0-57.689,0v28.845h57.689Z"/><path fill="#411f1f" d="M3129.06,428.461H3118.9v57.688h28.845a28.844,28.844,0,0,0,0-57.688Z"/><polygon fill="#b32029" points="2927.126 520.1 2927.126 520.1 2851.268 520.1 2851.268 520.1 2851.268 628.913 2927.126 628.913 2927.126 520.1"/><polygon fill="#b32029" points="2927.126 520.1 2927.126 628.913 3002.984 628.913 3002.984 520.1 3002.649 520.1 2927.126 520.1 2927.126 520.1"/><polygon fill="#a9ae38" points="2927.126 628.913 2851.268 628.913 2822.044 675.917 2927.126 675.917 3032.208 675.917 3002.984 628.913 2927.126 628.913 2927.126 628.913"/><path fill="#411f1f" d="M2999.322,428.461a56.846,56.846,0,0,0-56.846-56.846h0v56.846Z"/><path fill="#b32029" d="M2885.63,428.461h56.846V371.615a56.869,56.869,0,0,0-56.846,56.846Z"/><path fill="#b32029" d="M3144.062,281.685l20.657-20.659h0l1.623-1.622a14.607,14.607,0,0,0-20.658-20.658l-1.623,1.623-1.621-1.622a14.607,14.607,0,1,0-20.658,20.658Z"/><path fill="#411f1f" d="M299.823,332.982H144.5a66.218,66.218,0,0,1,25.418,52.2v3.789h73.922A55.989,55.989,0,0,0,299.823,332.982Z"/><path fill="#b32029" d="M169.913,385.182a66.356,66.356,0,0,0-132.711,0v43.824H169.913V385.182Z"/><polygon fill="#faa21e" points="103.556 544.458 103.557 544.458 169.911 544.458 169.911 544.461 207.113 544.461 169.913 429.013 37.202 429.013 0 544.461 37.202 544.461 37.202 544.458 103.556 544.458"/><polygon fill="#411f1f" points="169.911 544.458 103.557 544.458 103.556 544.458 37.202 544.458 37.202 544.461 37.202 631.685 103.558 631.684 169.911 631.685 169.911 544.461 169.911 544.458"/><path fill="#b32029" d="M37.2,631.685h-.03L24.319,650.118,6.35,675.917a148.968,148.968,0,0,0,68.708-16.792,33.16,33.16,0,0,0,28.5,16.191V642.138h0v33.175a33.156,33.156,0,0,0,28.5-16.19,148.952,148.952,0,0,0,68.707,16.793l-17.968-25.8-12.853-18.433H37.2Z"/><path fill="#ab7029" d="M25.848,309.17a16.361,16.361,0,0,0,14.917-23.126A16.342,16.342,0,0,0,62.27,271.72a61.382,61.382,0,0,0,10.393,8.571,7.759,7.759,0,0,1,5.5-2.278c.061,0,.12.008.181.009a25.387,25.387,0,0,1,50.423,0c.06,0,.12-.009.18-.009a7.776,7.776,0,0,1,7.01,4.417,61.305,61.305,0,0,0,13.912-10.708,16.342,16.342,0,0,0,21.5,14.322,16.415,16.415,0,1,0,9.734-8.787,16.366,16.366,0,0,0-19.6-22.438,61.1,61.1,0,1,0-110.881,0,16.363,16.363,0,0,0-19.6,22.438,16.378,16.378,0,1,0-5.184,31.913Z"/><path fill="#ab7029" d="M249.705,298.538a7.851,7.851,0,0,1-15,3.243v8.836a21.74,21.74,0,0,0,21.74,21.74H317.8a21.74,21.74,0,0,0,21.741-21.74V294.449H249.705Z"/><rect width="89.838" height="6.674" x="249.705" y="287.775" fill="#a9ae38"/><path fill="#b32029" d="M249.705,281.48v6.295h89.839V281.1H330.2a12.311,12.311,0,0,1-2.994.381Z"/><path fill="#411f1f" d="M265.085,256.812h-15.38V281.48h77.5a12.334,12.334,0,1,0,0-24.668H308.454l-21.685,9.468Z"/><path fill="#ab7029" d="M339.544,248.116h0a52.775,52.775,0,0,0-105.549,0Z"/><path fill="#411f1f" d="M128.948,278.013c-.06,0-.12.008-.18.009a25.387,25.387,0,0,0-50.423,0c-.061,0-.12-.009-.181-.009a7.785,7.785,0,1,0,3,14.969,25.4,25.4,0,0,0,44.787,0,7.783,7.783,0,1,0,3-14.969Z"/><path fill="#faa21e" d="M241.85,306.393a7.856,7.856,0,0,0,7.855-7.855V256.293H263.9l1.189.519,21.684,9.468,21.685-9.468,1.189-.519h29.9v-8.177H234v50.422a7.873,7.873,0,0,0,7.855,7.855Z"/><g><path fill="#411f1f" d="M1173.212,486.052h121.372V349.66h0a71.242,71.242,0,0,0-61.3,34.942Z"/><path fill="#411f1f" d="M1415.955,486.052H1294.584V349.66h0a71.242,71.242,0,0,1,61.3,34.942Z"/><path fill="#a9ae38" d="M1347.934,440.941H1240.013a71.992,71.992,0,0,0-71.992,71.992V628.979h251.9V512.933A71.992,71.992,0,0,0,1347.934,440.941Z"/><circle cx="1294.584" cy="424.223" r="44.744" fill="#cf3339"/><path fill="#cf3339" d="M1363.215,529.329h0a44.577,44.577,0,0,1,44.577,44.577V675.917a0,0,0,0,1,0,0h0a44.577,44.577,0,0,1-44.577-44.577V529.329A0,0,0,0,1,1363.215,529.329Z"/><path fill="#a9ae38" d="M1497.834,598.427,1407.792,473.34V675.917h50.343A48.914,48.914,0,0,0,1507.049,627h0A48.911,48.911,0,0,0,1497.834,598.427Z"/><path fill="#cf3339" d="M1225.952,529.329h0a0,0,0,0,1,0,0V631.34a44.577,44.577,0,0,1-44.577,44.577h0a0,0,0,0,1,0,0V573.906A44.577,44.577,0,0,1,1225.952,529.329Z" transform="translate(2407.326 1205.246) rotate(-180)"/><path fill="#a9ae38" d="M1091.333,598.427l90.042-125.087V675.917h-50.343A48.914,48.914,0,0,1,1082.118,627h0A48.911,48.911,0,0,1,1091.333,598.427Z"/><g><path fill="#ab7029" d="M1267,504.84h53.736a54.145,54.145,0,0,1,54.145,54.145v0a0,0,0,0,1,0,0H1212.852a0,0,0,0,1,0,0v0A54.145,54.145,0,0,1,1267,504.84Z"/><path fill="#ab7029" d="M1248.575,640.194h90.58a35.723,35.723,0,0,1,35.723,35.723v0a0,0,0,0,1,0,0H1212.852a0,0,0,0,1,0,0v0A35.723,35.723,0,0,1,1248.575,640.194Z" transform="translate(2587.73 1316.111) rotate(180)"/><rect width="183.278" height="38.719" x="1202.226" y="573.123" fill="#592b2b" rx="19.359"/><path fill="#a9ae38" d="M1209.584,626.179h168.563a0,0,0,0,1,0,0v0a14.015,14.015,0,0,1-14.015,14.015H1223.6a14.015,14.015,0,0,1-14.015-14.015v0A0,0,0,0,1,1209.584,626.179Z"/><path fill="#faa21e" d="M1213.3,558.985h161.137a0,0,0,0,1,0,0v0A14.015,14.015,0,0,1,1360.419,573H1227.311a14.015,14.015,0,0,1-14.015-14.015v0A0,0,0,0,1,1213.3,558.985Z"/><rect width="181.841" height="14.42" x="1203.663" y="611.603" fill="#ed5d28"/><path fill="#faa21e" d="M1269.394,570.469h19.719a0,0,0,0,1,0,0v49.655a9.859,9.859,0,0,1-9.859,9.859h0a9.859,9.859,0,0,1-9.859-9.859V570.469A0,0,0,0,1,1269.394,570.469Z"/><path fill="#faa21e" d="M1289.113,558.985h19.719a0,0,0,0,1,0,0v13.778a19.719,19.719,0,0,1-19.719,19.719h0a0,0,0,0,1,0,0v-33.5A0,0,0,0,1,1289.113,558.985Z"/></g><path fill="#411f1f" d="M1279.767,371.732h59.561a0,0,0,0,1,0,0v46.124a0,0,0,0,1,0,0h-23.345a36.216,36.216,0,0,1-36.216-36.216v-9.908A0,0,0,0,1,1279.767,371.732Z"/></g></g></svg>