<svg xmlns="http://www.w3.org/2000/svg" viewBox="0 0 77.22 70.48"><defs><style>.cls-1{fill:#cf3339;}.cls-2{fill:#411f1f;}.cls-3{isolation:isolate;}.cls-4{fill:#fff;}</style></defs><g id="Layer_2" data-name="Layer 2"><g id="website_artwork" data-name="website artwork"><rect class="cls-1" width="77.22" height="41.37"/><rect class="cls-2" width="10.33" height="70.48"/><g id="Top_Five" data-name="Top Five" class="cls-3"><g class="cls-3"><path class="cls-4" d="M47.1,13.6H36.77l-.51,7.07h.28a11.38,11.38,0,0,1,.8-1.42,4.71,4.71,0,0,1,1.06-1.12,4.58,4.58,0,0,1,1.41-.72,6,6,0,0,1,1.82-.26,7.12,7.12,0,0,1,2.61.48A6.65,6.65,0,0,1,46.42,19a6.49,6.49,0,0,1,1.48,2.24,7.75,7.75,0,0,1,.55,3,8.22,8.22,0,0,1-.58,3.13,7,7,0,0,1-1.68,2.5,7.82,7.82,0,0,1-2.73,1.65,11,11,0,0,1-3.72.59,11.27,11.27,0,0,1-2.91-.35,8.85,8.85,0,0,1-2.25-.94,7.64,7.64,0,0,1-1.7-1.36,10.59,10.59,0,0,1-1.23-1.61l3.49-2.75A12.9,12.9,0,0,0,36,26.34a5.21,5.21,0,0,0,1,1,4.46,4.46,0,0,0,1.25.68,4.83,4.83,0,0,0,1.59.24,3.53,3.53,0,0,0,2.7-1,3.7,3.7,0,0,0,.91-2.62V24.4a3.3,3.3,0,0,0-.93-2.48A3.51,3.51,0,0,0,39.9,21a4.29,4.29,0,0,0-2.22.53,5.54,5.54,0,0,0-1.33,1l-3.93-.54.83-12.64H47.1Z"/></g></g></g></g></svg>