<svg xmlns="http://www.w3.org/2000/svg" viewBox="0 0 127.8 69.22"><defs><style>.cls-1{fill:#faa21e}.cls-2{fill:#cf3339}.cls-3{fill:#fff}</style></defs><g id="Layer_2" data-name="Layer 2"><g id="website_artwork" data-name="website artwork"><g id="Group_42" data-name="Group 42"><path id="Path_730" d="M106.52,22.68c-.92,3.13,1.94,14.44,1.94,14.44s8.5-8,9.41-11.12a5.92,5.92,0,1,0-11.34-3.38v.06Z" class="cls-1" data-name="Path 730"/><path id="Path_733" d="M114.54,11.08h.88l1,2.78h0l1-2.78h.87v3.56h-.59V11.9h0l-1,2.74h-.52l-1-2.74h0v2.74h-.6Z" class="cls-2" data-name="Path 733"/><path id="Path_734" d="M119,11.08h1.48a1.68,1.68,0,0,1,.7.14,1.55,1.55,0,0,1,.5.38,1.69,1.69,0,0,1,.28.57,2.93,2.93,0,0,1,0,1.38,1.52,1.52,0,0,1-.28.57,1.33,1.33,0,0,1-.5.38,1.54,1.54,0,0,1-.7.14H119Zm.63,3.05h.61a1.49,1.49,0,0,0,.59-.09,1,1,0,0,0,.55-.68,2.41,2.41,0,0,0,0-1,.92.92,0,0,0-.19-.4.8.8,0,0,0-.36-.27,1.5,1.5,0,0,0-.59-.1h-.61Z" class="cls-2" data-name="Path 734"/><path id="Path_735" d="M123.54,11h.54l-1.43,3.76h-.54Z" class="cls-2" data-name="Path 735"/><path id="Path_736" d="M127.8,12.86a1.74,1.74,0,0,1-.15.77,1.76,1.76,0,0,1-1,1,2.1,2.1,0,0,1-.69.13,1.85,1.85,0,0,1-.74-.15,1.65,1.65,0,0,1-.58-.39,1.76,1.76,0,0,1-.38-.59,1.91,1.91,0,0,1-.14-.74,2.06,2.06,0,0,1,.14-.77,2,2,0,0,1,.4-.59,1.73,1.73,0,0,1,.59-.37A1.89,1.89,0,0,1,126,11a2.08,2.08,0,0,1,.7.14,1.79,1.79,0,0,1,1,1A2,2,0,0,1,127.8,12.86Zm-.4,0a1.6,1.6,0,0,0-.16-.65,1.54,1.54,0,0,0-.3-.49,1.39,1.39,0,0,0-.45-.31,1.48,1.48,0,0,0-1.13,0,1.44,1.44,0,0,0-.46.31,1.54,1.54,0,0,0-.3.49,1.68,1.68,0,0,0-.12.63,2.09,2.09,0,0,0,.1.6,1.81,1.81,0,0,0,.29.48,1.19,1.19,0,0,0,.45.33,1.41,1.41,0,0,0,.6.13,1.44,1.44,0,0,0,1-.43,1.54,1.54,0,0,0,.3-.49,1.78,1.78,0,0,0,.16-.6Zm-1.79,1.07h-.34V11.86h.78a.91.91,0,0,1,.56.13.53.53,0,0,1,.19.47.47.47,0,0,1-.15.4.79.79,0,0,1-.39.16l.58.9h-.38l-.54-.88h-.31Zm.38-1.17h.34a.94.94,0,0,0,.1-.1.48.48,0,0,0,0-.17.38.38,0,0,0,0-.15l-.12-.09h-.7v.61Z" class="cls-2" data-name="Path 736"/><ellipse id="Ellipse_39" cx="61.76" cy="34.61" class="cls-2" data-name="Ellipse 39" rx="61.76" ry="34.61"/><path id="Path_738" d="M11.27,36.44c-.86,3.26.44,6.16,4.59,6.16a4.78,4.78,0,0,0,4.82-3.32c.52-2.19-.7-3.48-2.13-4.94l-1.35-1.4c-1.78-1.81-3.13-3.44-2.51-6.15.93-3.88,5-6.26,9.64-6.26a8.5,8.5,0,0,1,5.87,2,2.69,2.69,0,0,1,.65,3.74,2.72,2.72,0,0,1-2.22,1.14.75.75,0,0,1-.29-.09c.8-2.51,0-5.28-3.53-5.28-1.94,0-4.35,1-4.78,2.81-.47,2,1,3.41,2.27,4.73l1.26,1.25c2,1.92,3.56,3.76,2.85,6.66-1,4.23-5.24,6.73-10.23,6.73a9.42,9.42,0,0,1-7-2.51C6.24,38.17,9.62,36.4,11.27,36.44Z" class="cls-3" data-name="Path 738"/><path id="Path_739" d="M45.93,52.32l4.84-10.66h.08a3.93,3.93,0,0,0,3.93,2.27c6.27,0,10.59-6,11.13-10.47a5.31,5.31,0,0,0,0-1.26c-.19-2.15-1.64-3.76-4.74-3.76a8.31,8.31,0,0,0-5.7,2.3l-.07-.07.51-1.25a5.35,5.35,0,0,0-3.13-2.64L42.6,49.5a5.69,5.69,0,0,0,3.33,2.83ZM61.1,32.47C60.79,35,57.74,42,53.87,42A1.82,1.82,0,0,1,52,40.2a2.73,2.73,0,0,1,0-.41c.27-2.12,3.18-9.39,7-9.39A1.87,1.87,0,0,1,61.11,32a2.57,2.57,0,0,1,0,.48Z" class="cls-3" data-name="Path 739"/><path id="Path_740" d="M44.68,41.82a1.87,1.87,0,0,1-.77.2c-.6,0-.71-.82-.66-1.26a13.5,13.5,0,0,1,1-2.58l4.42-9.4a6.37,6.37,0,0,0-4.47,0l-1.08,1.91a3.91,3.91,0,0,0-4-2.27c-6.19,0-11.28,5.93-11.81,10.43-.33,2.73,1.09,5,4.7,5a9,9,0,0,0,6.91-3.67l.07.07a10.9,10.9,0,0,0-.28,1.26c-.17,1.25.84,2.33,2.5,2.33a6.74,6.74,0,0,0,2.86-.7l.63-1.39Zm-2.8-9.48c-.32,2.51-3.76,9.49-7.7,9.49A1.81,1.81,0,0,1,32.34,40a1.89,1.89,0,0,1,.06-.47c.3-2.5,3.66-9.21,7.44-9.21,1.5,0,2.15.88,2,2Z" class="cls-3" data-name="Path 740"/><path id="Path_741" d="M82.8,35l2.61-5-2.34-.25c-.63,0-2.16-.19-2.16-.19l-1.26,2.26c-1.18,2.27-5,9.78-8.55,9.78-.74,0-1.25-.29-1.14-.92a61.45,61.45,0,0,1,3-6,14.9,14.9,0,0,0,1.68-4c.16-1.37-1-2.23-2.65-2.23a9.1,9.1,0,0,0-4.5,1.52,3,3,0,0,1,.37.86,5.36,5.36,0,0,1,1.11-.3.58.58,0,0,1,.64.74A55.11,55.11,0,0,1,66.92,37a15.18,15.18,0,0,0-1.72,4.19c-.2,1.7,1.25,2.76,3.18,2.74,3.44,0,6.18-2.24,8.13-4.91l.07.08A10,10,0,0,0,76,41.37a2.28,2.28,0,0,0,2,2.51h.5a7.38,7.38,0,0,0,4.29-1.58h0a2.25,2.25,0,0,1-.13-1.06v-.13a2.7,2.7,0,0,1-1.25.54c-.68,0-.69-.68-.64-1.1A26.62,26.62,0,0,1,82.8,35Z" class="cls-3" data-name="Path 741"/><path id="Path_742" d="M108.9,28.59c-2.32-1.58-6.37-2.9-13.45-3.06l1.62-3.6a6,6,0,0,0-4.38,0L91,25.58c-4.69.22-10.24,1.47-20.39-.56l-.26.44c5.64,2.33,14.28,2.83,19.37,2.83L86,36c-.33.72-.77,1.65-1.13,2.59a7.81,7.81,0,0,0-.8,2.62C83.85,42.81,85.29,44,87.19,44a8.44,8.44,0,0,0,5.54-2.63h0a5.71,5.71,0,0,1-.44-1,11.26,11.26,0,0,1-1,.85,2.87,2.87,0,0,1-1.58.64c-.81,0-.9-.57-.84-1.09a19.66,19.66,0,0,1,1.57-4l3.87-8.61c3.89-.39,8.72-.93,11.29.63-3.69.28-7.38,1.42-9.68,4.09A9.75,9.75,0,0,0,93.57,38a7.83,7.83,0,0,0,0,1.81c.49,2.5,2.77,4.18,6.34,4.18,6,0,11.28-4.74,11.84-9.42a5.39,5.39,0,0,0-1.06-4.25,9.14,9.14,0,0,1,3.9,2.63A4.65,4.65,0,0,0,117,30.63C116.22,29.76,112.84,28.79,108.9,28.59ZM104,39.88c-2.85,3.94-7.36,4-5.75-1.58.25-.89,2.3-8.12,8.46-8.68a3.54,3.54,0,0,1,.55,1.33c.44,2.26-1.27,6.33-3.26,9Z" class="cls-3" data-name="Path 742"/></g></g></g></svg>