<svg xmlns="http://www.w3.org/2000/svg" viewBox="0 0 69.22 69.22"><defs><style>.cls-1{fill:#fff}.cls-2{fill:#a9ae38}</style></defs><g id="Layer_2" data-name="Layer 2"><g id="website_artwork" data-name="website artwork"><path d="M38.63,2.37h0a4.59,4.59,0,0,1,8.61,2.31h0a4.6,4.6,0,0,0,7,4h0A4.6,4.6,0,0,1,60.51,15h0a4.6,4.6,0,0,0,4,7h0a4.6,4.6,0,0,1,2.31,8.62h0a4.6,4.6,0,0,0,0,8h0a4.59,4.59,0,0,1-2.31,8.61h0a4.61,4.61,0,0,0-4,7h0a4.59,4.59,0,0,1-6.3,6.3h0a4.61,4.61,0,0,0-7,4h0a4.59,4.59,0,0,1-8.61,2.31h0a4.6,4.6,0,0,0-8,0h0A4.6,4.6,0,0,1,22,64.53h0a4.6,4.6,0,0,0-7-4h0a4.6,4.6,0,0,1-6.31-6.3h0a4.6,4.6,0,0,0-4-7h0a4.59,4.59,0,0,1-2.31-8.61h0a4.59,4.59,0,0,0,0-8h0A4.6,4.6,0,0,1,4.68,22h0a4.6,4.6,0,0,0,4-7h0A4.6,4.6,0,0,1,15,8.7h0a4.6,4.6,0,0,0,7-4h0a4.6,4.6,0,0,1,8.62-2.31h0A4.59,4.59,0,0,0,38.63,2.37Z" class="cls-1"/><rect width="13.15" height="7.13" x="22.46" y="35.22" class="cls-2" transform="translate(35.93 -9.17) rotate(45)"/><rect width="22.91" height="7.13" x="25.28" y="31.77" class="cls-2" transform="translate(87.69 34.34) rotate(135)"/></g></g></svg>