<svg xmlns="http://www.w3.org/2000/svg" viewBox="0 0 125.4 93.4"><defs><style>.cls-1{fill:#ffe8c9;}.cls-2{fill:#ab7029;}.cls-3{fill:#cf3339;}.cls-4{fill:#faa21e;}.cls-5{fill:#a9ae38;}.cls-6{fill:#ed5d28;}</style></defs><g id="Layer_2" data-name="Layer 2"><g id="website_artwork" data-name="website artwork"><path class="cls-1" d="M0,16.75H125.4a0,0,0,0,1,0,0V80A13.44,13.44,0,0,1,112,93.4H13.44A13.44,13.44,0,0,1,0,80V16.75A0,0,0,0,1,0,16.75Z"/><path class="cls-2" d="M11.79,0H113.61A11.79,11.79,0,0,1,125.4,11.79v5a0,0,0,0,1,0,0H0a0,0,0,0,1,0,0v-5A11.79,11.79,0,0,1,11.79,0Z"/><circle class="cls-3" cx="11.54" cy="8.37" r="4.65"/><circle class="cls-4" cx="27.78" cy="8.37" r="4.65"/><circle class="cls-5" cx="44.03" cy="8.37" r="4.65"/><rect class="cls-6" x="23.13" y="54.73" width="20.9" height="25.27"/><rect class="cls-6" x="50.78" y="46.01" width="20.9" height="33.99"/><rect class="cls-6" x="78.36" y="39.82" width="20.9" height="40.19"/></g></g></svg>