<svg xmlns="http://www.w3.org/2000/svg" viewBox="0 0 159.37 104.71"><defs><style>.cls-1{fill:#faa21e;}.cls-2{fill:#a9ae38;}.cls-3{fill:#ffe8c9;}.cls-4{fill:#ed5d28;}.cls-5{fill:#cf3339;}.cls-6{fill:#592b2b;}</style></defs><g id="Layer_2" data-name="Layer 2"><g id="website_artwork" data-name="website artwork"><circle class="cls-1" cx="13.68" cy="63.94" r="8.65"/><rect class="cls-2" y="76.53" width="28.18" height="28.18"/><circle class="cls-3" cx="57.4" cy="63.94" r="8.65"/><rect class="cls-4" x="43.71" y="76.53" width="28.18" height="28.18"/><circle class="cls-1" cx="101.16" cy="63.94" r="8.65"/><rect class="cls-5" x="87.48" y="76.53" width="28.18" height="28.18"/><circle class="cls-6" cx="144.87" cy="63.94" r="8.65"/><rect class="cls-1" x="131.19" y="76.53" width="28.18" height="28.18"/><circle class="cls-3" cx="145.69" cy="8.65" r="8.65"/><rect class="cls-2" x="131.19" y="21.23" width="28.18" height="28.18" transform="translate(290.56 70.65) rotate(-180)"/><circle class="cls-5" cx="101.97" cy="8.65" r="8.65"/><rect class="cls-1" x="87.48" y="21.23" width="28.18" height="28.18" transform="translate(203.13 70.65) rotate(-180)"/><circle class="cls-6" cx="58.21" cy="8.65" r="8.65"/><rect class="cls-5" x="43.71" y="21.23" width="28.18" height="28.18" transform="translate(115.61 70.65) rotate(-180)"/><circle class="cls-5" cx="14.5" cy="8.65" r="8.65"/><rect class="cls-3" y="21.23" width="28.18" height="28.18" transform="translate(28.18 70.65) rotate(-180)"/></g></g></svg>