<svg xmlns="http://www.w3.org/2000/svg" viewBox="0 0 1250.24 464.22"><defs><style>.cls-1{fill:#ab7029;}.cls-2{fill:#a9ae38;}.cls-3{fill:#b32029;}.cls-4{fill:#411f1f;}.cls-5{fill:#faa21e;}.cls-6{fill:#ffe8c9;}.cls-7{fill:#ed5d28;}.cls-8{fill:#fff;}.cls-9{isolation:isolate;}.cls-10{fill:#592b2b;}</style></defs><g id="Layer_2" data-name="Layer 2"><g id="website_artwork" data-name="website artwork"><g id="Group_31" data-name="Group 31"><g id="Group_1" data-name="Group 1"><path id="Rectangle_6" data-name="Rectangle 6" class="cls-1" d="M350.16,228.43V306h-12a16.08,16.08,0,0,1-16.08-16.08h0v-45.4a16.08,16.08,0,0,1,16.08-16.09h12Z"/><rect id="Rectangle_7" data-name="Rectangle 7" class="cls-2" x="350.16" y="228.43" width="9.88" height="77.57"/><rect id="Rectangle_8" data-name="Rectangle 8" class="cls-3" x="321.14" y="264.97" width="77.57" height="4.94" transform="translate(71.08 610.42) rotate(-86.51)"/><path id="Rectangle_9" data-name="Rectangle 9" class="cls-4" d="M386.19,239.16l-7.11,58.9a9.15,9.15,0,0,1-10.16,8h0a9.15,9.15,0,0,1-8-10.16l7.12-58.9a9.13,9.13,0,0,1,10.16-8h0A9.13,9.13,0,0,1,386.19,239.16Z"/><rect id="Rectangle_10" data-name="Rectangle 10" class="cls-5" x="355.41" y="267.26" width="78.09" height="6.05" transform="translate(6.62 549.98) rotate(-70.22)"/><path id="Path_231" data-name="Path 231" class="cls-5" d="M386.38,292.73l10.92-21.42,5.23-23.47-17.87,18.92Z"/><path id="Path_232" data-name="Path 232" class="cls-1" d="M384.09,308.05a39,39,0,0,0,26.43-73.48h0Z"/></g><rect id="Rectangle_11" data-name="Rectangle 11" class="cls-6" x="210.55" y="307.69" width="94.64" height="57.29"/><rect id="Rectangle_12" data-name="Rectangle 12" class="cls-6" x="298.21" y="307.69" width="79.65" height="35.39"/><rect id="Rectangle_13" data-name="Rectangle 13" class="cls-6" x="210.55" y="235.02" width="35.39" height="87.79"/><path id="Rectangle_14" data-name="Rectangle 14" class="cls-4" d="M210.55,235V217a18,18,0,0,1,18-18h0a18,18,0,0,1,18,18h0v18H210.55Z"/><path id="Rectangle_15" data-name="Rectangle 15" class="cls-4" d="M377.86,307.69h18a18,18,0,0,1,18,18h0a18,18,0,0,1-18,18h-18V307.69Z"/><rect id="Rectangle_16" data-name="Rectangle 16" class="cls-3" x="210.55" y="364.98" width="47.42" height="68.03"/><rect id="Rectangle_17" data-name="Rectangle 17" class="cls-3" x="257.98" y="364.98" width="47.42" height="68.03"/><path id="Path_233" data-name="Path 233" class="cls-2" d="M192.28,462.39H258V433H210.55Z"/><path id="Path_234" data-name="Path 234" class="cls-2" d="M323.67,462.39H258V433H305.4Z"/><path id="Rectangle_18" data-name="Rectangle 18" class="cls-4" d="M267.57,272.15h0a35.54,35.54,0,0,1,35.54,35.54H267.57V272.15Z"/><path id="Rectangle_19" data-name="Rectangle 19" class="cls-3" d="M267.57,307.69H232a35.54,35.54,0,0,1,35.54-35.54h0v35.54Z"/><g id="Group_2" data-name="Group 2"><path id="Rectangle_20" data-name="Rectangle 20" class="cls-3" d="M379.67,189.09h0a9.12,9.12,0,0,1,12.91,0L406.51,203h0l-12.92,12.91h0L379.67,202A9.12,9.12,0,0,1,379.67,189.09Z"/><path id="Rectangle_21" data-name="Rectangle 21" class="cls-3" d="M393.59,215.93,380.68,203h0l13.93-13.92a9.12,9.12,0,0,1,12.91,0h0a9.12,9.12,0,0,1,0,12.91h0l-13.93,13.93Z"/></g></g><g id="Group_32" data-name="Group 32"><circle id="Ellipse_14" data-name="Ellipse 14" class="cls-5" cx="92.46" cy="150.61" r="21.23"/><path id="Rectangle_52" data-name="Rectangle 52" class="cls-4" d="M54.67,175.19h75.57a33.3,33.3,0,0,1,33.3,33.3h0v76.05H21.37V208.49a33.3,33.3,0,0,1,33.3-33.3Z"/><rect id="Rectangle_53" data-name="Rectangle 53" class="cls-2" x="21.37" y="284.55" width="71.08" height="147.2"/><rect id="Rectangle_54" data-name="Rectangle 54" class="cls-2" x="91.82" y="284.55" width="71.08" height="147.2"/><path id="Path_243" data-name="Path 243" class="cls-3" d="M0,464H92.45V431.74H21.37Z"/><path id="Path_244" data-name="Path 244" class="cls-3" d="M184.91,464H92.45V431.74h71.09Z"/><rect id="Rectangle_55" data-name="Rectangle 55" class="cls-4" x="21.37" y="229.87" width="45.45" height="132.74"/><path id="Rectangle_56" data-name="Rectangle 56" class="cls-5" d="M21.37,362.61H96.1A25.35,25.35,0,0,1,70.75,388h-24a25.35,25.35,0,0,1-25.35-25.35Z"/><g id="Group_11" data-name="Group 11"><path id="Rectangle_57" data-name="Rectangle 57" class="cls-1" d="M43.48,334.57H121v12A16.08,16.08,0,0,1,105,362.61H59.56a16.08,16.08,0,0,1-16.08-16.08h0v-12Z"/><rect id="Rectangle_58" data-name="Rectangle 58" class="cls-2" x="43.48" y="324.69" width="77.57" height="9.88"/><rect id="Rectangle_59" data-name="Rectangle 59" class="cls-3" x="43.48" y="324.69" width="77.57" height="4.94"/><path id="Rectangle_60" data-name="Rectangle 60" class="cls-4" d="M52.6,306.72h59.32a9.12,9.12,0,0,1,9.12,9.13h0a9.12,9.12,0,0,1-9.12,9.12H52.6a9.12,9.12,0,0,1-9.12-9.12h0A9.12,9.12,0,0,1,52.6,306.72Z"/><rect id="Rectangle_61" data-name="Rectangle 61" class="cls-5" x="42.95" y="300.29" width="78.09" height="6.05"/><path id="Path_245" data-name="Path 245" class="cls-5" d="M105.85,303.31l-23.85-3-23.85,3L82,313.72Z"/><path id="Path_246" data-name="Path 246" class="cls-1" d="M121,300.29a39,39,0,1,0-78.09,0H121Z"/></g><path id="Rectangle_62" data-name="Rectangle 62" class="cls-4" d="M91.39,113.87h29.66v11.81a19.45,19.45,0,0,1-19.45,19.45H72V133.31a19.44,19.44,0,0,1,19.44-19.44Z"/><path id="Rectangle_63" data-name="Rectangle 63" class="cls-5" d="M67.29,150.61h0a7.19,7.19,0,0,1,7.19-7.18H88.8V157.8H74.48a7.19,7.19,0,0,1-7.19-7.19Z"/><rect id="Rectangle_64" data-name="Rectangle 64" class="cls-4" x="82.26" y="131.99" width="9.56" height="26.05"/><path id="Rectangle_65" data-name="Rectangle 65" class="cls-5" d="M100.94,301.7h9.82v29.42a4.91,4.91,0,0,1-4.91,4.91h0a4.91,4.91,0,0,1-4.91-4.91V301.7Z"/></g><g id="Group_33" data-name="Group 33"><g id="Group_5" data-name="Group 5"><rect id="Rectangle_22" data-name="Rectangle 22" class="cls-7" x="498.79" y="152.85" width="121.88" height="121.88"/><path id="Path_235" data-name="Path 235" class="cls-7" d="M560.48,269.85l60.19,34.83V274.73l-23.93-15.81Z"/><g id="Group_4" data-name="Group 4"><path id="Rectangle_23" data-name="Rectangle 23" class="cls-5" d="M527.27,234.32h65v5.1A11.24,11.24,0,0,1,581,250.66H538.51a11.24,11.24,0,0,1-11.24-11.24v-5.1Z"/><rect id="Rectangle_24" data-name="Rectangle 24" class="cls-2" x="527.27" y="226.04" width="64.98" height="8.27"/><rect id="Rectangle_25" data-name="Rectangle 25" class="cls-3" x="527.27" y="226.04" width="64.98" height="4.14"/><rect id="Rectangle_26" data-name="Rectangle 26" class="cls-4" x="527.27" y="210.99" width="64.98" height="15.29" rx="7.64"/><rect id="Rectangle_27" data-name="Rectangle 27" class="cls-8" x="526.83" y="205.6" width="65.42" height="5.07"/><path id="Path_236" data-name="Path 236" class="cls-8" d="M579.53,208.13l-20-2.53-20,2.53,20,8.72Z"/><path id="Path_237" data-name="Path 237" class="cls-5" d="M592.25,205.6c0-14.76-14.64-26.72-32.71-26.72s-32.71,12-32.71,26.72Z"/></g></g><g id="Group_14" data-name="Group 14"><g id="Group_13" data-name="Group 13"><path id="Rectangle_66" data-name="Rectangle 66" class="cls-1" d="M472.75,373h65.54v2.24a9.61,9.61,0,0,1-9.61,9.61H482.36a9.61,9.61,0,0,1-9.61-9.61V373Z"/><rect id="Rectangle_67" data-name="Rectangle 67" class="cls-2" x="472.75" y="364.69" width="65.54" height="8.35"/><rect id="Rectangle_68" data-name="Rectangle 68" class="cls-3" x="472.75" y="364.69" width="65.54" height="4.17"/><path id="Rectangle_69" data-name="Rectangle 69" class="cls-4" d="M480.46,349.51h50.12a7.71,7.71,0,0,1,7.71,7.71h0a7.71,7.71,0,0,1-7.71,7.71H480.46a7.71,7.71,0,0,1-7.71-7.71h0A7.71,7.71,0,0,1,480.46,349.51Z"/><rect id="Rectangle_70" data-name="Rectangle 70" class="cls-5" x="472.31" y="344.07" width="65.98" height="5.11"/><path id="Path_247" data-name="Path 247" class="cls-5" d="M525.45,346.63l-20.15-2.56-20.15,2.56,20.15,8.8Z"/><path id="Path_248" data-name="Path 248" class="cls-1" d="M538.29,344.07c0-10.83-14.77-19.61-33-19.61s-33,8.78-33,19.61Z"/></g><path id="Rectangle_71" data-name="Rectangle 71" class="cls-5" d="M498.79,385.2h80.94v12.35H511.14A12.35,12.35,0,0,1,498.79,385.2Z"/><path id="Rectangle_72" data-name="Rectangle 72" class="cls-5" d="M610.94,420.63h0v41.71H569.22A41.71,41.71,0,0,1,610.94,420.63Z"/><path id="Rectangle_73" data-name="Rectangle 73" class="cls-5" d="M565.52,450.93h45.42v11.41H554.1A11.42,11.42,0,0,1,565.52,450.93Z"/><path id="Rectangle_74" data-name="Rectangle 74" class="cls-3" d="M576.28,375.52h67.44v65H591.27a15,15,0,0,1-15-15v-50Z"/><path id="Rectangle_75" data-name="Rectangle 75" class="cls-5" d="M547.7,335.69h78.35v39.83H559.42A11.72,11.72,0,0,1,547.7,363.8V335.69Z"/><path id="Rectangle_76" data-name="Rectangle 76" class="cls-5" d="M596.44,324.83h23.84a23.44,23.44,0,0,1,23.44,23.44v27.25H583.8v-38a12.64,12.64,0,0,1,12.64-12.64Z"/><path id="Rectangle_77" data-name="Rectangle 77" class="cls-4" d="M547.7,335.69h20v3a10.93,10.93,0,0,1-10.93,10.93h-9V335.69Z"/><path id="Rectangle_78" data-name="Rectangle 78" class="cls-5" d="M602.24,388.69h11.52v29.13h0a11.52,11.52,0,0,1-11.52-11.52h0V388.69Z"/><path id="Rectangle_79" data-name="Rectangle 79" class="cls-5" d="M643.72,420.63h0v41.71H602A41.71,41.71,0,0,1,643.72,420.63Z"/><path id="Rectangle_80" data-name="Rectangle 80" class="cls-5" d="M598.29,450.93h45.43v11.41H586.87A11.42,11.42,0,0,1,598.29,450.93Z"/><path id="Rectangle_81" data-name="Rectangle 81" class="cls-4" d="M583.8,335.69h12.76a7.72,7.72,0,0,1-7.72,7.71h-5v-7.71Z"/><path id="Rectangle_82" data-name="Rectangle 82" class="cls-4" d="M601.62,335.69h12.76a7.72,7.72,0,0,1-7.72,7.71h-5v-7.71Z"/><rect id="Rectangle_83" data-name="Rectangle 83" class="cls-4" x="583.8" y="332.24" width="48.39" height="3.45"/><path id="Rectangle_84" data-name="Rectangle 84" class="cls-4" d="M620.67,324.83h0a23,23,0,0,1,23,23V380a11.52,11.52,0,0,1-11.52,11.52h0A11.52,11.52,0,0,1,620.67,380h0V324.83Z"/><path id="Rectangle_85" data-name="Rectangle 85" class="cls-8" d="M547.7,359.31H606a4,4,0,0,1,4,4h0a4,4,0,0,1-4,4H547.7v-8Z"/><path id="Rectangle_86" data-name="Rectangle 86" class="cls-5" d="M489.08,346.13h9.82v29.42a4.91,4.91,0,0,1-4.91,4.91h0a4.91,4.91,0,0,1-4.91-4.91V346.13Z"/></g></g><g id="Group_28" data-name="Group 28"><g id="Group_8" data-name="Group 8"><circle id="Ellipse_10" data-name="Ellipse 10" class="cls-4" cx="1076.05" cy="64.32" r="64.32"/><rect id="Rectangle_34" data-name="Rectangle 34" class="cls-4" x="1011.73" y="64.32" width="64.32" height="64.32"/><g id="_20_20" data-name=" 20 20" class="cls-9"><g class="cls-9"><path class="cls-7" d="M1071.78,60.53h-25.06V53.69l11-9.14a24.54,24.54,0,0,0,4.09-4.24,6.51,6.51,0,0,0,1.25-3.8V36a4.15,4.15,0,0,0-1.3-3.32,5.14,5.14,0,0,0-3.49-1.12A5,5,0,0,0,1054.4,33a8.11,8.11,0,0,0-1.89,3.44L1046,34a15.21,15.21,0,0,1,1.64-3.43,10.82,10.82,0,0,1,2.67-2.82,13.93,13.93,0,0,1,3.77-1.92,15.59,15.59,0,0,1,5-.72,15,15,0,0,1,5.09.8,11.22,11.22,0,0,1,3.8,2.19,9.21,9.21,0,0,1,2.34,3.32,11.42,11.42,0,0,1,.08,8.19,13.44,13.44,0,0,1-2,3.42,23.51,23.51,0,0,1-3,3.1c-1.14,1-2.37,2-3.67,3L1055,54.24h16.78Z"/><path class="cls-7" d="M1089,61.13q-7,0-10.32-4.75t-3.32-13.28q0-8.54,3.32-13.28T1089,25.08q7,0,10.31,4.74t3.32,13.28q0,8.53-3.32,13.28T1089,61.13Zm0-5.9q3.35,0,4.66-2.34a13.35,13.35,0,0,0,1.33-6.54V39.86a13.3,13.3,0,0,0-1.33-6.54Q1092.3,31,1089,31c-2.24,0-3.79.78-4.67,2.35a13.3,13.3,0,0,0-1.33,6.54v6.49a13.35,13.35,0,0,0,1.33,6.54C1085.17,54.45,1086.72,55.23,1089,55.23Zm0-9.18a3.31,3.31,0,0,1-2.43-.7,2.4,2.4,0,0,1-.67-1.7v-1.1a2.41,2.41,0,0,1,.67-1.7,4.61,4.61,0,0,1,4.85,0,2.37,2.37,0,0,1,.67,1.7v1.1a2.35,2.35,0,0,1-.67,1.7A3.3,3.3,0,0,1,1089,46.05Z"/></g><g class="cls-9"><path class="cls-7" d="M1071.78,102.76h-25.06V95.92l11-9.13a24.18,24.18,0,0,0,4.09-4.25,6.48,6.48,0,0,0,1.25-3.79v-.5a4.13,4.13,0,0,0-1.3-3.32,5.14,5.14,0,0,0-3.49-1.12,5,5,0,0,0-3.85,1.44,8.21,8.21,0,0,0-1.89,3.45L1046,76.2a14.93,14.93,0,0,1,1.64-3.42,10.82,10.82,0,0,1,2.67-2.82,13.65,13.65,0,0,1,3.77-1.92,15.58,15.58,0,0,1,5-.73,15.23,15.23,0,0,1,5.09.8,11.41,11.41,0,0,1,3.8,2.2,9.12,9.12,0,0,1,2.34,3.32,11.42,11.42,0,0,1,.08,8.19,13.79,13.79,0,0,1-2,3.42,23.45,23.45,0,0,1-3,3.09c-1.14,1-2.37,2-3.67,3L1055,96.47h16.78Z"/><path class="cls-7" d="M1089,103.36q-7,0-10.32-4.74t-3.32-13.28q0-8.53,3.32-13.28T1089,67.31q7,0,10.31,4.75t3.32,13.28q0,8.53-3.32,13.28T1089,103.36Zm0-5.89q3.35,0,4.66-2.35a13.3,13.3,0,0,0,1.33-6.54V82.09a13.35,13.35,0,0,0-1.33-6.54q-1.32-2.34-4.66-2.34c-2.24,0-3.79.78-4.67,2.34a13.35,13.35,0,0,0-1.33,6.54v6.49a13.3,13.3,0,0,0,1.33,6.54C1085.17,96.69,1086.72,97.47,1089,97.47Zm0-9.19a3.36,3.36,0,0,1-2.43-.69,2.41,2.41,0,0,1-.67-1.7v-1.1a2.4,2.4,0,0,1,.67-1.7,4.55,4.55,0,0,1,4.85,0,2.35,2.35,0,0,1,.67,1.7v1.1a2.37,2.37,0,0,1-.67,1.7A3.35,3.35,0,0,1,1089,88.28Z"/></g></g></g><g id="Group_16" data-name="Group 16"><path id="Rectangle_87" data-name="Rectangle 87" class="cls-4" d="M1042.69,249.61h103.12a35,35,0,0,1-35,35h-68.12v-35Z"/><circle id="Ellipse_15" data-name="Ellipse 15" class="cls-1" cx="1024.68" cy="184.7" r="38.19"/><path id="Rectangle_88" data-name="Rectangle 88" class="cls-3" d="M1023.11,240.76h0a41.49,41.49,0,0,1,41.49,41.48h0v27.39h-83V282.25A41.49,41.49,0,0,1,1023.11,240.76Z"/><path id="Path_249" data-name="Path 249" class="cls-5" d="M1087.85,381.82H958.37l23.26-72.17h83Z"/><rect id="Rectangle_89" data-name="Rectangle 89" class="cls-4" x="981.63" y="381.82" width="41.48" height="54.54"/><rect id="Rectangle_90" data-name="Rectangle 90" class="cls-4" x="1023.11" y="381.82" width="41.48" height="54.54"/><path id="Path_250" data-name="Path 250" class="cls-3" d="M1023.11,436.35v6.53l-12.25,7.48A93.12,93.12,0,0,1,962.34,464h0l11.24-16.13,8-11.52Z"/><path id="Rectangle_91" data-name="Rectangle 91" class="cls-3" d="M1002.37,442.88h20.74v20.74h0a20.74,20.74,0,0,1-20.74-20.74Z"/><path id="Path_251" data-name="Path 251" class="cls-3" d="M1023.11,436.35v6.53l12.26,7.48A93.08,93.08,0,0,0,1083.88,464h0l-11.23-16.13-8-11.52Z"/><path id="Rectangle_92" data-name="Rectangle 92" class="cls-3" d="M1023.11,463.62h0V442.88h20.75A20.74,20.74,0,0,1,1023.11,463.62Z"/><circle id="Ellipse_16" data-name="Ellipse 16" class="cls-4" cx="1023.11" cy="217.12" r="15.87"/><circle id="Ellipse_17" data-name="Ellipse 17" class="cls-1" cx="1062.27" cy="210.56" r="10.24"/><circle id="Ellipse_18" data-name="Ellipse 18" class="cls-1" cx="1074.84" cy="224.48" r="10.24"/><circle id="Ellipse_19" data-name="Ellipse 19" class="cls-1" cx="987.1" cy="210.56" r="10.24"/><circle id="Ellipse_20" data-name="Ellipse 20" class="cls-1" cx="974.53" cy="224.48" r="10.24"/><g id="Group_15" data-name="Group 15"><path id="Rectangle_93" data-name="Rectangle 93" class="cls-1" d="M1105.1,225.52h65.54v10.11a13.58,13.58,0,0,1-13.59,13.59h-38.36a13.58,13.58,0,0,1-13.59-13.59V225.52Z"/><rect id="Rectangle_94" data-name="Rectangle 94" class="cls-2" x="1105.1" y="217.18" width="65.54" height="8.35"/><rect id="Rectangle_95" data-name="Rectangle 95" class="cls-3" x="1105.1" y="217.18" width="65.54" height="4.17"/><path id="Rectangle_96" data-name="Rectangle 96" class="cls-4" d="M1112.81,202h50.12a7.71,7.71,0,0,1,7.71,7.71h0a7.71,7.71,0,0,1-7.71,7.71h-50.12a7.71,7.71,0,0,1-7.71-7.71h0A7.71,7.71,0,0,1,1112.81,202Z"/><rect id="Rectangle_97" data-name="Rectangle 97" class="cls-5" x="1104.66" y="196.56" width="65.98" height="5.11"/><path id="Path_252" data-name="Path 252" class="cls-5" d="M1157.8,199.11l-20.15-2.56-20.15,2.56,20.15,8.8Z"/><path id="Path_253" data-name="Path 253" class="cls-1" d="M1170.64,196.56a33,33,0,1,0-66,0Z"/></g><circle id="Ellipse_21" data-name="Ellipse 21" class="cls-4" cx="1038.99" cy="220.11" r="4.87"/><circle id="Ellipse_22" data-name="Ellipse 22" class="cls-4" cx="1007.24" cy="220.11" r="4.87"/><path id="Rectangle_98" data-name="Rectangle 98" class="cls-5" d="M1104.66,198.66h9.82v29.42a4.91,4.91,0,0,1-4.91,4.91h0a4.91,4.91,0,0,1-4.91-4.91V198.66Z"/></g></g><g id="Group_27" data-name="Group 27"><g id="Group_10" data-name="Group 10"><rect id="Rectangle_35" data-name="Rectangle 35" class="cls-5" x="815.42" y="283.38" width="82.97" height="68.88"/><rect id="Rectangle_36" data-name="Rectangle 36" class="cls-4" x="815.42" y="352.26" width="41.48" height="82.93"/><rect id="Rectangle_37" data-name="Rectangle 37" class="cls-4" x="853.41" y="352.26" width="44.97" height="82.93"/><path id="Rectangle_38" data-name="Rectangle 38" class="cls-4" d="M846.86,435.19h10.37v27.65h-38a27.65,27.65,0,0,1,27.66-27.65Z"/><path id="Rectangle_39" data-name="Rectangle 39" class="cls-4" d="M895.25,462.84h-38V435.19H867.6a27.65,27.65,0,0,1,27.65,27.65Z"/><g id="Group_9" data-name="Group 9"><path id="Rectangle_40" data-name="Rectangle 40" class="cls-1" d="M704.31,430.2h88.07v15.93a15.92,15.92,0,0,1-15.91,15.92H720.22a15.91,15.91,0,0,1-15.91-15.92h0V430.2Z"/><rect id="Rectangle_41" data-name="Rectangle 41" class="cls-2" x="704.31" y="418.98" width="88.08" height="11.22"/><rect id="Rectangle_42" data-name="Rectangle 42" class="cls-3" x="704.31" y="418.98" width="88.08" height="5.61"/><rect id="Rectangle_43" data-name="Rectangle 43" class="cls-2" x="704.31" y="387.05" width="88.08" height="11.22"/><rect id="Rectangle_44" data-name="Rectangle 44" class="cls-3" x="704.31" y="387.05" width="88.08" height="5.61"/><path id="Rectangle_45" data-name="Rectangle 45" class="cls-4" d="M714.67,366.32H782a10.36,10.36,0,0,1,10.36,10.36h0A10.36,10.36,0,0,1,782,387.05H714.67a10.36,10.36,0,0,1-10.36-10.37h0A10.36,10.36,0,0,1,714.67,366.32Z"/><path id="Rectangle_46" data-name="Rectangle 46" class="cls-4" d="M714.67,398.26H782a10.36,10.36,0,0,1,10.36,10.36h0A10.36,10.36,0,0,1,782,419H714.67a10.36,10.36,0,0,1-10.36-10.36h0A10.36,10.36,0,0,1,714.67,398.26Z"/><rect id="Rectangle_47" data-name="Rectangle 47" class="cls-5" x="703.71" y="359.02" width="88.67" height="6.87"/><path id="Path_241" data-name="Path 241" class="cls-5" d="M775.13,362.45,748.05,359,721,362.45l27.09,11.82Z"/><path id="Path_242" data-name="Path 242" class="cls-1" d="M792.38,359a44.34,44.34,0,1,0-88.67,0Z"/></g><rect id="Rectangle_48" data-name="Rectangle 48" class="cls-5" x="742.38" y="283.38" width="73.04" height="31.3"/><path id="Rectangle_49" data-name="Rectangle 49" class="cls-3" d="M735.15,283.38h7.23v31.3H703.85a31.31,31.31,0,0,1,31.3-31.3Z"/><rect id="Rectangle_50" data-name="Rectangle 50" class="cls-2" x="839.88" y="220.93" width="34.04" height="50.09"/><circle id="Ellipse_11" data-name="Ellipse 11" class="cls-3" cx="856.9" cy="271.02" r="17.02"/><circle id="Ellipse_12" data-name="Ellipse 12" class="cls-3" cx="839.88" cy="271.02" r="4.88"/><circle id="Ellipse_13" data-name="Ellipse 13" class="cls-3" cx="873.92" cy="271.02" r="4.88"/><path id="Rectangle_51" data-name="Rectangle 51" class="cls-5" d="M711.14,365.89H721V407a4.91,4.91,0,0,1-4.91,4.91h0a4.91,4.91,0,0,1-4.91-4.91V365.89Z"/></g><g id="Group_7" data-name="Group 7"><rect id="Rectangle_28" data-name="Rectangle 28" class="cls-2" x="702.32" y="51.25" width="161.37" height="106.63"/><path id="Path_238" data-name="Path 238" class="cls-2" d="M803.5,153l60.19,34.83v-30l-30.1-24.81Z"/><g id="Group_6" data-name="Group 6"><path id="Rectangle_29" data-name="Rectangle 29" class="cls-4" d="M750.36,124.11h65v5.11a11.23,11.23,0,0,1-11.24,11.23H761.6a11.23,11.23,0,0,1-11.24-11.23v-5.11Z"/><rect id="Rectangle_30" data-name="Rectangle 30" class="cls-2" x="750.36" y="115.84" width="64.98" height="8.27"/><rect id="Rectangle_31" data-name="Rectangle 31" class="cls-3" x="750.36" y="115.84" width="64.98" height="4.14"/><rect id="Rectangle_32" data-name="Rectangle 32" class="cls-4" x="750.36" y="100.78" width="64.98" height="15.29" rx="7.64"/><rect id="Rectangle_33" data-name="Rectangle 33" class="cls-8" x="749.92" y="95.39" width="65.42" height="5.07"/><path id="Path_239" data-name="Path 239" class="cls-8" d="M802.61,97.93l-20-2.54-20,2.54,20,8.72Z"/><path id="Path_240" data-name="Path 240" class="cls-4" d="M815.34,95.39c0-14.75-14.65-26.71-32.71-26.71s-32.71,12-32.71,26.71Z"/></g></g></g><g id="Group_120" data-name="Group 120"><g id="Group_120-2" data-name="Group 120-2"><path id="Rectangle_464" data-name="Rectangle 464" class="cls-1" d="M1192.35,380.64h26.25a26.45,26.45,0,0,1,26.45,26.45H1165.9A26.45,26.45,0,0,1,1192.35,380.64Z"/><path id="Rectangle_465" data-name="Rectangle 465" class="cls-1" d="M1227.6,464.22h-44.25a17.45,17.45,0,0,1-17.45-17.45h79.15A17.45,17.45,0,0,1,1227.6,464.22Z"/><rect id="Rectangle_466" data-name="Rectangle 466" class="cls-10" x="1160.71" y="414" width="89.54" height="18.92" rx="9.46"/><path id="Rectangle_467" data-name="Rectangle 467" class="cls-2" d="M1164.3,439.92h82.35a6.85,6.85,0,0,1-6.85,6.85h-68.65a6.85,6.85,0,0,1-6.85-6.85Z"/><path id="Rectangle_468" data-name="Rectangle 468" class="cls-5" d="M1166.11,407.09h78.73a6.85,6.85,0,0,1-6.85,6.85h-65a6.85,6.85,0,0,1-6.85-6.85Z"/><rect id="Rectangle_469" data-name="Rectangle 469" class="cls-7" x="1161.41" y="432.8" width="88.84" height="7.04"/><path id="Rectangle_470" data-name="Rectangle 470" class="cls-5" d="M1193.52,412.7h9.63V437a4.81,4.81,0,0,1-4.81,4.81h0a4.81,4.81,0,0,1-4.82-4.81V412.7Z"/><path id="Rectangle_471" data-name="Rectangle 471" class="cls-5" d="M1203.15,407.09h9.64v6.73a9.65,9.65,0,0,1-9.64,9.64h0V407.09Z"/></g><circle id="Ellipse_78" data-name="Ellipse 78" class="cls-5" cx="1205.83" cy="370.95" r="26.41"/><path id="Path_797" data-name="Path 797" class="cls-8" d="M1205.48,351.3l6,12.15,13.41,1.95-9.7,9.45,2.29,13.36-12-6.31-12,6.31,2.29-13.36-9.7-9.45,13.41-1.95Z"/></g></g></g></svg>