<svg xmlns="http://www.w3.org/2000/svg" viewBox="0 0 611.53 518.16"><defs><style>.cls-1{fill:#411f1f}.cls-2{fill:#a9ae38}.cls-3{fill:#faa21e}.cls-4{fill:#b32029}.cls-5{fill:#ab7029}.cls-6{fill:#ed5d28}.cls-7{fill:#fff}.cls-8{isolation:isolate}.cls-9{fill:#592b2b}</style></defs><g id="Layer_2" data-name="Layer 2"><g id="illustrations"><rect width="18.04" height="103.27" x="561.58" y="414.89" class="cls-1"/><circle cx="570.48" cy="392.52" r="41.05" class="cls-2"/></g><g id="website_artwork" data-name="website artwork"><g id="Group_32" data-name="Group 32"><circle id="Ellipse_14" cx="92.46" cy="204.77" r="21.23" class="cls-3" data-name="Ellipse 14"/><path id="Rectangle_52" d="M54.67,229.35h75.57a33.3,33.3,0,0,1,33.3,33.3h0V338.7H21.37V262.65a33.3,33.3,0,0,1,33.3-33.3Z" class="cls-1" data-name="Rectangle 52"/><rect id="Rectangle_53" width="71.08" height="147.2" x="21.37" y="338.7" class="cls-2" data-name="Rectangle 53"/><rect id="Rectangle_54" width="71.08" height="147.2" x="91.82" y="338.7" class="cls-2" data-name="Rectangle 54"/><path id="Path_243" d="M0,518.16H92.45V485.9H21.37Z" class="cls-4" data-name="Path 243"/><path id="Path_244" d="M184.91,518.16H92.45V485.9h71.09Z" class="cls-4" data-name="Path 244"/><rect id="Rectangle_55" width="45.45" height="132.74" x="21.37" y="284.03" class="cls-1" data-name="Rectangle 55"/><path id="Rectangle_56" d="M21.37,416.77H96.1a25.35,25.35,0,0,1-25.35,25.35h-24a25.35,25.35,0,0,1-25.35-25.35Z" class="cls-3" data-name="Rectangle 56"/><g id="Group_11" data-name="Group 11"><path id="Rectangle_57" d="M43.48,388.72H121v12A16.08,16.08,0,0,1,105,416.77H59.56a16.08,16.08,0,0,1-16.08-16.08h0v-12Z" class="cls-5" data-name="Rectangle 57"/><rect id="Rectangle_58" width="77.57" height="9.88" x="43.48" y="378.85" class="cls-2" data-name="Rectangle 58"/><rect id="Rectangle_59" width="77.57" height="4.94" x="43.48" y="378.85" class="cls-4" data-name="Rectangle 59"/><path id="Rectangle_60" d="M52.6,360.88h59.32A9.12,9.12,0,0,1,121,370h0a9.12,9.12,0,0,1-9.12,9.13H52.6A9.12,9.12,0,0,1,43.48,370h0A9.12,9.12,0,0,1,52.6,360.88Z" class="cls-1" data-name="Rectangle 60"/><rect id="Rectangle_61" width="78.09" height="6.05" x="42.95" y="354.44" class="cls-3" data-name="Rectangle 61"/><path id="Path_245" d="M105.85,357.47l-23.85-3-23.85,3L82,367.88Z" class="cls-3" data-name="Path 245"/><path id="Path_246" d="M121,354.44a39,39,0,0,0-78.09,0H121Z" class="cls-5" data-name="Path 246"/></g><path id="Rectangle_62" d="M91.39,168h29.66v11.81a19.44,19.44,0,0,1-19.45,19.44H72V187.47A19.44,19.44,0,0,1,91.39,168Z" class="cls-1" data-name="Rectangle 62"/><path id="Rectangle_63" d="M67.29,204.77h0a7.18,7.18,0,0,1,7.19-7.18H88.8V212H74.48a7.19,7.19,0,0,1-7.19-7.19Z" class="cls-3" data-name="Rectangle 63"/><rect id="Rectangle_64" width="9.56" height="26.05" x="82.26" y="186.15" class="cls-1" data-name="Rectangle 64"/><path id="Rectangle_65" d="M100.94,355.86h9.82v29.42a4.91,4.91,0,0,1-4.91,4.91h0a4.91,4.91,0,0,1-4.91-4.91V355.86Z" class="cls-3" data-name="Rectangle 65"/></g><g id="Group_33" data-name="Group 33"><g id="Group_5" data-name="Group 5"><rect id="Rectangle_22" width="204.18" height="121.88" x="195.93" y="16.32" class="cls-6" data-name="Rectangle 22"/><path id="Path_235" d="M256.12,133.32l-60.19,24.82V138.2l23.93-15.82Z" class="cls-6" data-name="Path 235"/><g id="Group_6" data-name="Group 6"><path id="Rectangle_29" d="M265.75,97.78h65v5.11a11.23,11.23,0,0,1-11.24,11.23H277a11.23,11.23,0,0,1-11.23-11.23V97.78Z" class="cls-1" data-name="Rectangle 29"/><rect id="Rectangle_30" width="64.98" height="8.27" x="265.75" y="89.51" class="cls-2" data-name="Rectangle 30"/><rect id="Rectangle_31" width="64.98" height="4.14" x="265.75" y="89.51" class="cls-4" data-name="Rectangle 31"/><rect id="Rectangle_32" width="64.98" height="15.29" x="265.75" y="74.45" class="cls-1" data-name="Rectangle 32" rx="7.64"/><rect id="Rectangle_33" width="65.42" height="5.07" x="265.31" y="69.06" class="cls-7" data-name="Rectangle 33"/><path id="Path_239" d="M318,71.6l-20-2.54L278,71.6l20,8.72Z" class="cls-7" data-name="Path 239"/><path id="Path_240" d="M330.73,69.06c0-14.75-14.65-26.71-32.71-26.71s-32.71,12-32.71,26.71Z" class="cls-1" data-name="Path 240"/></g></g><g id="Group_14" data-name="Group 14"><g id="Group_13" data-name="Group 13"><path id="Rectangle_66" d="M363.87,226.5H298.32v2.24a9.62,9.62,0,0,0,9.61,9.61h46.33a9.62,9.62,0,0,0,9.61-9.61V226.5Z" class="cls-5" data-name="Rectangle 66"/><rect id="Rectangle_67" width="65.54" height="8.35" x="298.32" y="218.15" class="cls-2" data-name="Rectangle 67"/><rect id="Rectangle_68" width="65.54" height="4.17" x="298.32" y="218.15" class="cls-4" data-name="Rectangle 68"/><path id="Rectangle_69" d="M356.16,203H306a7.72,7.72,0,0,0-7.72,7.71h0a7.72,7.72,0,0,0,7.72,7.71h50.12a7.71,7.71,0,0,0,7.71-7.71h0A7.71,7.71,0,0,0,356.16,203Z" class="cls-1" data-name="Rectangle 69"/><rect id="Rectangle_70" width="65.98" height="5.11" x="298.33" y="197.53" class="cls-3" data-name="Rectangle 70"/><path id="Path_247" d="M311.16,200.09l20.16-2.56,20.15,2.56-20.15,8.8Z" class="cls-3" data-name="Path 247"/><path id="Path_248" d="M298.33,197.53c0-10.83,14.76-19.61,33-19.61s33,8.78,33,19.61Z" class="cls-5" data-name="Path 248"/></g><path id="Rectangle_71" d="M337.83,238.66H256.89V251h68.59A12.35,12.35,0,0,0,337.83,238.66Z" class="cls-3" data-name="Rectangle 71"/><path id="Rectangle_72" d="M225.67,274.08h0V315.8h41.72A41.72,41.72,0,0,0,225.67,274.08Z" class="cls-3" data-name="Rectangle 72"/><path id="Rectangle_73" d="M271.09,304.38H225.67V315.8h56.84A11.42,11.42,0,0,0,271.09,304.38Z" class="cls-3" data-name="Rectangle 73"/><path id="Rectangle_74" d="M260.34,229H192.9v65h52.45a15,15,0,0,0,15-15V229Z" class="cls-4" data-name="Rectangle 74"/><path id="Rectangle_75" d="M288.92,189.15H210.57V229H277.2a11.72,11.72,0,0,0,11.72-11.72V189.15Z" class="cls-3" data-name="Rectangle 75"/><path id="Rectangle_76" d="M240.18,178.29H216.34a23.43,23.43,0,0,0-23.44,23.44V229h59.91v-38a12.63,12.63,0,0,0-12.63-12.64Z" class="cls-3" data-name="Rectangle 76"/><path id="Rectangle_77" d="M288.92,189.15H269v3a10.93,10.93,0,0,0,10.93,10.93h9V189.15Z" class="cls-1" data-name="Rectangle 77"/><path id="Rectangle_78" d="M234.38,242.15H222.86v29.13h0a11.52,11.52,0,0,0,11.52-11.52h0V242.15Z" class="cls-3" data-name="Rectangle 78"/><path id="Rectangle_79" d="M192.9,274.08h0V315.8h41.72A41.72,41.72,0,0,0,192.9,274.08Z" class="cls-3" data-name="Rectangle 79"/><path id="Rectangle_80" d="M238.32,304.38H192.9V315.8h56.84A11.42,11.42,0,0,0,238.32,304.38Z" class="cls-3" data-name="Rectangle 80"/><path id="Rectangle_81" d="M252.81,189.15H240.06a7.71,7.71,0,0,0,7.72,7.71h5v-7.71Z" class="cls-1" data-name="Rectangle 81"/><path id="Rectangle_82" d="M235,189.15H222.24a7.72,7.72,0,0,0,7.72,7.71h5v-7.71Z" class="cls-1" data-name="Rectangle 82"/><rect id="Rectangle_83" width="48.39" height="3.45" x="204.42" y="185.7" class="cls-1" data-name="Rectangle 83"/><path id="Rectangle_84" d="M216,178.29h0a23,23,0,0,0-23,23v32.1A11.52,11.52,0,0,0,204.42,245h0A11.53,11.53,0,0,0,216,233.43h0V178.29Z" class="cls-1" data-name="Rectangle 84"/><path id="Rectangle_85" d="M288.92,212.77H230.61a4,4,0,0,0-4,4h0a4,4,0,0,0,4,4h58.31v-8Z" class="cls-7" data-name="Rectangle 85"/><path id="Rectangle_86" d="M347.54,199.59h-9.82V229a4.91,4.91,0,0,0,4.91,4.91h0a4.91,4.91,0,0,0,4.91-4.91V199.59Z" class="cls-3" data-name="Rectangle 86"/></g></g><g id="Group_28" data-name="Group 28"><g id="Group_8" data-name="Group 8"><circle id="Ellipse_10" cx="515.85" cy="100.26" r="82.54" class="cls-1" data-name="Ellipse 10"/><rect id="Rectangle_34" width="82.54" height="82.54" x="433.32" y="100.26" class="cls-1" data-name="Rectangle 34"/><g id="_20_20" class="cls-8" data-name="20 20"><g class="cls-8"><path d="M510.38,95.4H478.21V86.62l14.1-11.73a31.48,31.48,0,0,0,5.25-5.44,8.38,8.38,0,0,0,1.6-4.87v-.64a5.32,5.32,0,0,0-1.66-4.26A6.63,6.63,0,0,0,493,58.24a6.4,6.4,0,0,0-4.93,1.85,10.44,10.44,0,0,0-2.44,4.42l-8.39-3.2a19.48,19.48,0,0,1,2.11-4.39,13.85,13.85,0,0,1,3.43-3.62,17.64,17.64,0,0,1,4.84-2.47,20.11,20.11,0,0,1,6.34-.92,19.52,19.52,0,0,1,6.54,1,14.45,14.45,0,0,1,4.87,2.82,11.82,11.82,0,0,1,3,4.26,14.73,14.73,0,0,1,.1,10.51,17.29,17.29,0,0,1-2.57,4.39,30.33,30.33,0,0,1-3.84,4q-2.22,1.92-4.71,3.85l-8.52,6.6h21.53Z" class="cls-6"/><path d="M532.42,96.17q-9,0-13.23-6.09t-4.26-17q0-11,4.26-17.05t13.23-6.08q9,0,13.23,6.08T549.91,73q0,11-4.26,17T532.42,96.17Zm0-7.56q4.29,0,6-3t1.7-8.39V68.87c0-3.59-.57-6.38-1.7-8.39s-3.13-3-6-3-4.86,1-6,3-1.7,4.8-1.7,8.39V77.2c0,3.59.56,6.39,1.7,8.39S529.56,88.61,532.42,88.61Zm0-11.79a4.25,4.25,0,0,1-3.11-.9,3,3,0,0,1-.86-2.18V72.33a3,3,0,0,1,.86-2.18,5.88,5.88,0,0,1,6.22,0,3.06,3.06,0,0,1,.86,2.18v1.41a3,3,0,0,1-.86,2.18A4.26,4.26,0,0,1,532.42,76.82Z" class="cls-6"/></g><g class="cls-8"><path d="M510.38,149.6H478.21v-8.78l14.1-11.72a31.84,31.84,0,0,0,5.25-5.45,8.38,8.38,0,0,0,1.6-4.87v-.64a5.32,5.32,0,0,0-1.66-4.26,6.63,6.63,0,0,0-4.49-1.44,6.43,6.43,0,0,0-4.93,1.85,10.41,10.41,0,0,0-2.44,4.43l-8.39-3.21a19.48,19.48,0,0,1,2.11-4.39,14,14,0,0,1,3.43-3.62,17.62,17.62,0,0,1,4.84-2.46,19.82,19.82,0,0,1,6.34-.93,19.52,19.52,0,0,1,6.54,1,14.61,14.61,0,0,1,4.87,2.82,11.82,11.82,0,0,1,3,4.26,14.73,14.73,0,0,1,.1,10.51,17.29,17.29,0,0,1-2.57,4.39,30.33,30.33,0,0,1-3.84,4c-1.48,1.28-3.05,2.57-4.71,3.85l-8.52,6.6h21.53Z" class="cls-6"/><path d="M532.42,150.37q-9,0-13.23-6.09t-4.26-17q0-11,4.26-17t13.23-6.08q9,0,13.23,6.08t4.26,17q0,11-4.26,17T532.42,150.37Zm0-7.56c2.86,0,4.86-1,6-3s1.7-4.81,1.7-8.4v-8.33q0-5.37-1.7-8.39t-6-3q-4.29,0-6,3c-1.14,2-1.7,4.81-1.7,8.39v8.33c0,3.59.56,6.39,1.7,8.4S529.56,142.81,532.42,142.81Zm0-11.79a4.25,4.25,0,0,1-3.11-.9,3,3,0,0,1-.86-2.18v-1.41a3,3,0,0,1,.86-2.18,5.88,5.88,0,0,1,6.22,0,3.06,3.06,0,0,1,.86,2.18v1.41a3,3,0,0,1-.86,2.18A4.26,4.26,0,0,1,532.42,131Z" class="cls-6"/></g></g></g><g id="Group_16" data-name="Group 16"><path id="Rectangle_87" d="M483.28,303.78H586.4a35,35,0,0,1-35,35H483.28v-35Z" class="cls-1" data-name="Rectangle 87"/><circle id="Ellipse_15" cx="465.27" cy="238.86" r="38.19" class="cls-5" data-name="Ellipse 15"/><path id="Rectangle_88" d="M463.7,294.93h0a41.48,41.48,0,0,1,41.48,41.48h0v27.4h-83v-27.4A41.48,41.48,0,0,1,463.7,294.93Z" class="cls-4" data-name="Rectangle 88"/><path id="Path_249" d="M528.44,436H399l23.26-72.17h83Z" class="cls-3" data-name="Path 249"/><rect id="Rectangle_89" width="41.48" height="54.54" x="422.22" y="435.98" class="cls-1" data-name="Rectangle 89"/><rect id="Rectangle_90" width="41.48" height="54.54" x="463.7" y="435.98" class="cls-1" data-name="Rectangle 90"/><path id="Path_250" d="M463.7,490.51v6.54l-12.25,7.47a93.12,93.12,0,0,1-48.52,13.64h0L414.17,502l8-11.52Z" class="cls-4" data-name="Path 250"/><path id="Rectangle_91" d="M443,497.05H463.7v20.74h0A20.75,20.75,0,0,1,443,497.05Z" class="cls-4" data-name="Rectangle 91"/><path id="Path_251" d="M463.7,490.51v6.54L476,504.52a93.08,93.08,0,0,0,48.51,13.64h0L513.24,502l-8-11.52Z" class="cls-4" data-name="Path 251"/><path id="Rectangle_92" d="M463.7,517.79h0V497h20.74A20.74,20.74,0,0,1,463.7,517.79Z" class="cls-4" data-name="Rectangle 92"/><circle id="Ellipse_16" cx="463.7" cy="271.28" r="15.87" class="cls-1" data-name="Ellipse 16"/><circle id="Ellipse_17" cx="502.86" cy="264.72" r="10.24" class="cls-5" data-name="Ellipse 17"/><circle id="Ellipse_18" cx="515.42" cy="278.65" r="10.24" class="cls-5" data-name="Ellipse 18"/><circle id="Ellipse_19" cx="427.69" cy="264.72" r="10.24" class="cls-5" data-name="Ellipse 19"/><circle id="Ellipse_20" cx="415.12" cy="278.65" r="10.24" class="cls-5" data-name="Ellipse 20"/><g id="Group_15" data-name="Group 15"><path id="Rectangle_93" d="M545.69,279.69h65.54v10.1a13.59,13.59,0,0,1-13.59,13.59H559.28a13.58,13.58,0,0,1-13.59-13.59v-10.1Z" class="cls-5" data-name="Rectangle 93"/><rect id="Rectangle_94" width="65.54" height="8.35" x="545.69" y="271.34" class="cls-2" data-name="Rectangle 94"/><rect id="Rectangle_95" width="65.54" height="4.17" x="545.69" y="271.34" class="cls-4" data-name="Rectangle 95"/><path id="Rectangle_96" d="M553.4,256.16h50.12a7.71,7.71,0,0,1,7.71,7.71h0a7.71,7.71,0,0,1-7.71,7.71H553.4a7.71,7.71,0,0,1-7.71-7.71h0A7.71,7.71,0,0,1,553.4,256.16Z" class="cls-1" data-name="Rectangle 96"/><rect id="Rectangle_97" width="65.98" height="5.11" x="545.25" y="250.72" class="cls-3" data-name="Rectangle 97"/><path id="Path_252" d="M598.39,253.28l-20.15-2.56-20.16,2.56,20.16,8.8Z" class="cls-3" data-name="Path 252"/><path id="Path_253" d="M611.23,250.72a33,33,0,0,0-66,0Z" class="cls-5" data-name="Path 253"/></g><circle id="Ellipse_21" cx="479.57" cy="274.28" r="4.87" class="cls-1" data-name="Ellipse 21"/><circle id="Ellipse_22" cx="447.83" cy="274.28" r="4.87" class="cls-1" data-name="Ellipse 22"/><path id="Rectangle_98" d="M545.25,252.82h9.82v29.42a4.91,4.91,0,0,1-4.91,4.91h0a4.91,4.91,0,0,1-4.91-4.91V252.82Z" class="cls-3" data-name="Rectangle 98"/></g></g><g id="Group_27" data-name="Group 27"><g id="Group_10" data-name="Group 10"><rect id="Rectangle_35" width="82.97" height="68.88" x="301.64" y="338.45" class="cls-3" data-name="Rectangle 35"/><rect id="Rectangle_36" width="41.48" height="82.93" x="301.64" y="407.33" class="cls-1" data-name="Rectangle 36"/><rect id="Rectangle_37" width="44.97" height="82.93" x="339.64" y="407.33" class="cls-1" data-name="Rectangle 37"/><path id="Rectangle_38" d="M333.08,490.26h10.37v27.65h-38a27.65,27.65,0,0,1,27.65-27.65Z" class="cls-1" data-name="Rectangle 38"/><path id="Rectangle_39" d="M381.47,517.91h-38V490.26h10.37a27.65,27.65,0,0,1,27.65,27.65Z" class="cls-1" data-name="Rectangle 39"/><g id="Group_9" data-name="Group 9"><path id="Rectangle_40" d="M190.53,486.2h88.4v16a16,16,0,0,1-16,16H206.5a16,16,0,0,1-16-16h0v-16Z" class="cls-5" data-name="Rectangle 40"/><rect id="Rectangle_41" width="88.4" height="11.26" x="190.53" y="474.94" class="cls-2" data-name="Rectangle 41"/><rect id="Rectangle_42" width="88.4" height="5.63" x="190.53" y="474.94" class="cls-4" data-name="Rectangle 42"/><rect id="Rectangle_43" width="88.4" height="11.26" x="190.53" y="442.89" class="cls-2" data-name="Rectangle 43"/><rect id="Rectangle_44" width="88.4" height="5.63" x="190.53" y="442.89" class="cls-4" data-name="Rectangle 44"/><path id="Rectangle_45" d="M200.93,422.09h67.6a10.4,10.4,0,0,1,10.4,10.4h0a10.4,10.4,0,0,1-10.4,10.4h-67.6a10.4,10.4,0,0,1-10.4-10.4h0A10.4,10.4,0,0,1,200.93,422.09Z" class="cls-1" data-name="Rectangle 45"/><path id="Rectangle_46" d="M200.93,454.14h67.6a10.4,10.4,0,0,1,10.4,10.4h0a10.4,10.4,0,0,1-10.4,10.4h-67.6a10.4,10.4,0,0,1-10.4-10.4h0A10.4,10.4,0,0,1,200.93,454.14Z" class="cls-1" data-name="Rectangle 46"/><rect id="Rectangle_47" width="88.99" height="6.89" x="189.94" y="414.76" class="cls-3" data-name="Rectangle 47"/><path id="Path_241" d="M261.61,418.2l-27.18-3.44-27.18,3.44,27.18,11.87Z" class="cls-3" data-name="Path 241"/><path id="Path_242" d="M278.93,414.76a44.5,44.5,0,1,0-89,0Z" class="cls-5" data-name="Path 242"/></g><rect id="Rectangle_48" width="73.04" height="31.3" x="228.61" y="338.45" class="cls-3" data-name="Rectangle 48"/><path id="Rectangle_49" d="M221.38,338.45h7.23v31.3H190.08a31.3,31.3,0,0,1,31.3-31.3Z" class="cls-4" data-name="Rectangle 49"/><rect id="Rectangle_50" width="34.04" height="50.09" x="326.11" y="276" class="cls-2" data-name="Rectangle 50"/><circle id="Ellipse_11" cx="343.13" cy="326.08" r="17.02" class="cls-4" data-name="Ellipse 11"/><circle id="Ellipse_12" cx="326.11" cy="326.08" r="4.88" class="cls-4" data-name="Ellipse 12"/><circle id="Ellipse_13" cx="360.15" cy="326.08" r="4.88" class="cls-4" data-name="Ellipse 13"/><path id="Rectangle_51" d="M197.37,421h9.82V462a4.91,4.91,0,0,1-4.91,4.91h0a4.91,4.91,0,0,1-4.91-4.91V421Z" class="cls-3" data-name="Rectangle 51"/></g></g><g id="Group_120" data-name="Group 120"><g id="Group_120-2" data-name="Group 120-2"><path id="Rectangle_464" d="M80.35,44.43h32.3A32.55,32.55,0,0,1,145.2,77H47.8A32.54,32.54,0,0,1,80.35,44.43Z" class="cls-5" data-name="Rectangle 464"/><path id="Rectangle_465" d="M123.72,147.26H69.27A21.47,21.47,0,0,1,47.8,125.79h97.4A21.48,21.48,0,0,1,123.72,147.26Z" class="cls-5" data-name="Rectangle 465"/><rect id="Rectangle_466" width="110.17" height="23.27" x="41.41" y="85.47" class="cls-9" data-name="Rectangle 466" rx="11.64"/><path id="Rectangle_467" d="M45.84,117.36H147.16a8.42,8.42,0,0,1-8.42,8.43H54.26a8.42,8.42,0,0,1-8.42-8.43Z" class="cls-2" data-name="Rectangle 467"/><path id="Rectangle_468" d="M48.07,77h96.86a8.42,8.42,0,0,1-8.42,8.43h-80A8.42,8.42,0,0,1,48.07,77Z" class="cls-3" data-name="Rectangle 468"/><rect id="Rectangle_469" width="109.3" height="8.67" x="42.28" y="108.6" class="cls-6" data-name="Rectangle 469"/><path id="Rectangle_470" d="M81.79,83.87H93.64v29.85a5.92,5.92,0,0,1-5.93,5.92h0a5.92,5.92,0,0,1-5.92-5.92V83.87Z" class="cls-3" data-name="Rectangle 470"/><path id="Rectangle_471" d="M93.64,77h11.85v8.29A11.85,11.85,0,0,1,93.64,97.11h0V77Z" class="cls-3" data-name="Rectangle 471"/></g><circle id="Ellipse_78" cx="96.93" cy="32.5" r="32.5" class="cls-3" data-name="Ellipse 78"/><path id="Path_797" d="M96.5,8.32l7.38,15,16.5,2.4L108.44,37.31l2.82,16.43L96.5,46,81.74,53.74l2.82-16.43L72.62,25.67l16.5-2.4Z" class="cls-7" data-name="Path 797"/></g></g></g></svg>