<svg xmlns="http://www.w3.org/2000/svg" viewBox="0 0 1250.24 464"><defs><style>.cls-1{fill:#ab7029}.cls-2{fill:#a9ae38}.cls-3{fill:#b32029}.cls-4{fill:#411f1f}.cls-5{fill:#faa21e}.cls-6{fill:#ffe8c9}.cls-7{fill:#ed5d28}.cls-8{fill:#fff}.cls-9{isolation:isolate}.cls-10{fill:#592b2b}</style></defs><g id="Layer_2" data-name="Layer 2"><g id="website_artwork" data-name="website artwork"><g id="Group_31" data-name="Group 31"><g id="Group_1" data-name="Group 1"><path id="Rectangle_6" d="M350.16,230.05v77.56h-12a16.08,16.08,0,0,1-16.08-16.08h0v-45.4a16.08,16.08,0,0,1,16.08-16.08h12Z" class="cls-1" data-name="Rectangle 6"/><rect id="Rectangle_7" width="9.88" height="77.57" x="350.16" y="230.05" class="cls-2" data-name="Rectangle 7"/><rect id="Rectangle_8" width="77.57" height="4.94" x="321.14" y="266.58" class="cls-3" data-name="Rectangle 8" transform="translate(69.47 611.93) rotate(-86.51)"/><path id="Rectangle_9" d="M386.19,240.77l-7.11,58.9a9.14,9.14,0,0,1-10.16,8h0a9.13,9.13,0,0,1-8-10.16l7.12-58.9a9.14,9.14,0,0,1,10.16-8h0A9.13,9.13,0,0,1,386.19,240.77Z" class="cls-4" data-name="Rectangle 9"/><rect id="Rectangle_10" width="78.09" height="6.05" x="355.41" y="268.87" class="cls-5" data-name="Rectangle 10" transform="translate(5.1 551.05) rotate(-70.22)"/><path id="Path_231" d="M386.38,294.34l10.92-21.42,5.23-23.47-17.87,18.92Z" class="cls-5" data-name="Path 231"/><path id="Path_232" d="M384.09,309.66a39,39,0,0,0,26.43-73.48h0Z" class="cls-1" data-name="Path 232"/></g><rect id="Rectangle_11" width="94.64" height="57.29" x="210.55" y="309.3" class="cls-6" data-name="Rectangle 11"/><rect id="Rectangle_12" width="79.65" height="35.39" x="298.21" y="309.3" class="cls-6" data-name="Rectangle 12"/><rect id="Rectangle_13" width="35.39" height="87.79" x="210.55" y="236.63" class="cls-6" data-name="Rectangle 13"/><path id="Rectangle_14" d="M210.55,236.63v-18a18,18,0,0,1,18-18h0a18,18,0,0,1,18,18h0v18H210.55Z" class="cls-4" data-name="Rectangle 14"/><path id="Rectangle_15" d="M377.86,309.3h18a18,18,0,0,1,18,18h0a18,18,0,0,1-18,18h-18V309.3Z" class="cls-4" data-name="Rectangle 15"/><rect id="Rectangle_16" width="47.42" height="68.03" x="210.55" y="366.59" class="cls-3" data-name="Rectangle 16"/><rect id="Rectangle_17" width="50.43" height="68.03" x="254.97" y="366.59" class="cls-3" data-name="Rectangle 17"/><path id="Path_233" d="M192.28,464H258V434.61H210.55Z" class="cls-2" data-name="Path 233"/><path id="Path_234" d="M323.67,464H255V434.61H305.4Z" class="cls-2" data-name="Path 234"/><path id="Rectangle_18" d="M267.57,273.76h0a35.54,35.54,0,0,1,35.54,35.54H267.57V273.76Z" class="cls-4" data-name="Rectangle 18"/><path id="Rectangle_19" d="M267.57,309.3H232a35.54,35.54,0,0,1,35.54-35.54h0V309.3Z" class="cls-3" data-name="Rectangle 19"/><g id="Group_2" data-name="Group 2"><path id="Rectangle_20" d="M379.67,190.7h0a9.12,9.12,0,0,1,12.91,0l13.93,13.93h0l-12.92,12.91h0l-13.92-13.93A9.12,9.12,0,0,1,379.67,190.7Z" class="cls-3" data-name="Rectangle 20"/><path id="Rectangle_21" d="M393.59,217.54l-12.91-12.91h0l13.93-13.93a9.12,9.12,0,0,1,12.91,0h0a9.12,9.12,0,0,1,0,12.91h0l-13.93,13.93Z" class="cls-3" data-name="Rectangle 21"/></g></g><g id="Group_32" data-name="Group 32"><circle id="Ellipse_14" cx="92.46" cy="150.61" r="21.23" class="cls-5" data-name="Ellipse 14"/><path id="Rectangle_52" d="M54.67,175.19h75.57a33.3,33.3,0,0,1,33.3,33.3h0v76.05H21.37V208.49a33.3,33.3,0,0,1,33.3-33.3Z" class="cls-4" data-name="Rectangle 52"/><rect id="Rectangle_53" width="71.08" height="147.2" x="21.37" y="284.54" class="cls-2" data-name="Rectangle 53"/><rect id="Rectangle_54" width="71.08" height="147.2" x="91.82" y="284.54" class="cls-2" data-name="Rectangle 54"/><path id="Path_243" d="M0,464H92.45V431.74H21.37Z" class="cls-3" data-name="Path 243"/><path id="Path_244" d="M184.91,464H90.45V431.74h73.09Z" class="cls-3" data-name="Path 244"/><rect id="Rectangle_55" width="45.45" height="132.74" x="21.37" y="229.86" class="cls-4" data-name="Rectangle 55"/><path id="Rectangle_56" d="M21.37,362.61H96.1A25.35,25.35,0,0,1,70.75,388h-24a25.35,25.35,0,0,1-25.35-25.35Z" class="cls-5" data-name="Rectangle 56"/><g id="Group_11" data-name="Group 11"><path id="Rectangle_57" d="M43.48,334.56H121v12A16.08,16.08,0,0,1,105,362.61H59.56a16.08,16.08,0,0,1-16.08-16.09h0v-12Z" class="cls-1" data-name="Rectangle 57"/><rect id="Rectangle_58" width="77.57" height="9.88" x="43.48" y="324.68" class="cls-2" data-name="Rectangle 58"/><rect id="Rectangle_59" width="77.57" height="4.94" x="43.48" y="324.68" class="cls-3" data-name="Rectangle 59"/><path id="Rectangle_60" d="M52.6,306.71h59.32a9.12,9.12,0,0,1,9.12,9.13h0a9.12,9.12,0,0,1-9.12,9.12H52.6a9.12,9.12,0,0,1-9.12-9.12h0A9.12,9.12,0,0,1,52.6,306.71Z" class="cls-4" data-name="Rectangle 60"/><rect id="Rectangle_61" width="78.09" height="6.05" x="42.95" y="300.28" class="cls-5" data-name="Rectangle 61"/><path id="Path_245" d="M105.85,303.3l-23.85-3-23.85,3L82,313.72Z" class="cls-5" data-name="Path 245"/><path id="Path_246" d="M121,300.28a39,39,0,1,0-78.09,0H121Z" class="cls-1" data-name="Path 246"/></g><path id="Rectangle_62" d="M91.39,113.87h29.66v11.81a19.45,19.45,0,0,1-19.45,19.44H72V133.31a19.44,19.44,0,0,1,19.44-19.44Z" class="cls-4" data-name="Rectangle 62"/><path id="Rectangle_63" d="M67.29,150.61h0a7.19,7.19,0,0,1,7.19-7.19H88.8v14.37H74.48a7.18,7.18,0,0,1-7.19-7.18Z" class="cls-5" data-name="Rectangle 63"/><rect id="Rectangle_64" width="9.56" height="26.05" x="82.26" y="131.99" class="cls-4" data-name="Rectangle 64"/><path id="Rectangle_65" d="M100.94,301.7h9.82v29.41a4.91,4.91,0,0,1-4.91,4.92h0a4.91,4.91,0,0,1-4.91-4.92V301.7Z" class="cls-5" data-name="Rectangle 65"/></g><g id="Group_33" data-name="Group 33"><g id="Group_5" data-name="Group 5"><rect id="Rectangle_22" width="121.88" height="121.88" x="498.79" y="154.5" class="cls-7" data-name="Rectangle 22"/><path id="Path_235" d="M560.48,271.51l60.19,34.82V276.38l-23.93-15.81Z" class="cls-7" data-name="Path 235"/><g id="Group_4" data-name="Group 4"><path id="Rectangle_23" d="M527.27,236h65v5.1A11.24,11.24,0,0,1,581,252.31H538.51a11.24,11.24,0,0,1-11.24-11.24V236Z" class="cls-5" data-name="Rectangle 23"/><rect id="Rectangle_24" width="64.98" height="8.27" x="527.27" y="227.7" class="cls-2" data-name="Rectangle 24"/><rect id="Rectangle_25" width="64.98" height="4.14" x="527.27" y="227.7" class="cls-3" data-name="Rectangle 25"/><rect id="Rectangle_26" width="64.98" height="15.29" x="527.27" y="212.64" class="cls-4" data-name="Rectangle 26" rx="7.64"/><rect id="Rectangle_27" width="65.42" height="5.07" x="526.83" y="207.25" class="cls-8" data-name="Rectangle 27"/><path id="Path_236" d="M579.53,209.79l-20-2.54-20,2.54,20,8.72Z" class="cls-8" data-name="Path 236"/><path id="Path_237" d="M592.25,207.25c0-14.75-14.64-26.71-32.71-26.71s-32.71,12-32.71,26.71Z" class="cls-5" data-name="Path 237"/></g></g><g id="Group_14" data-name="Group 14"><g id="Group_13" data-name="Group 13"><path id="Rectangle_66" d="M472.75,374.69h65.54v2.24a9.61,9.61,0,0,1-9.61,9.61H482.36a9.61,9.61,0,0,1-9.61-9.61v-2.24Z" class="cls-1" data-name="Rectangle 66"/><rect id="Rectangle_67" width="65.54" height="8.35" x="472.75" y="366.35" class="cls-2" data-name="Rectangle 67"/><rect id="Rectangle_68" width="65.54" height="4.17" x="472.75" y="366.35" class="cls-3" data-name="Rectangle 68"/><path id="Rectangle_69" d="M480.46,351.16h50.12a7.71,7.71,0,0,1,7.71,7.71h0a7.72,7.72,0,0,1-7.71,7.72H480.46a7.72,7.72,0,0,1-7.71-7.72h0A7.71,7.71,0,0,1,480.46,351.16Z" class="cls-4" data-name="Rectangle 69"/><rect id="Rectangle_70" width="65.98" height="5.11" x="472.31" y="345.73" class="cls-5" data-name="Rectangle 70"/><path id="Path_247" d="M525.45,348.28l-20.15-2.56-20.15,2.56,20.15,8.8Z" class="cls-5" data-name="Path 247"/><path id="Path_248" d="M538.29,345.73c0-10.84-14.77-19.62-33-19.62s-33,8.78-33,19.62Z" class="cls-1" data-name="Path 248"/></g><path id="Rectangle_71" d="M498.79,386.85h80.94V399.2H511.14A12.35,12.35,0,0,1,498.79,386.85Z" class="cls-5" data-name="Rectangle 71"/><path id="Rectangle_72" d="M610.94,422.28h0V464H569.22A41.72,41.72,0,0,1,610.94,422.28Z" class="cls-5" data-name="Rectangle 72"/><path id="Rectangle_73" d="M565.52,452.58h45.42V464H554.1A11.42,11.42,0,0,1,565.52,452.58Z" class="cls-5" data-name="Rectangle 73"/><path id="Rectangle_74" d="M576.28,377.17h67.44v65H591.27a15,15,0,0,1-15-15V377.17Z" class="cls-3" data-name="Rectangle 74"/><path id="Rectangle_75" d="M547.7,337.34h78.35v39.83H559.42a11.72,11.72,0,0,1-11.72-11.71V337.34Z" class="cls-5" data-name="Rectangle 75"/><path id="Rectangle_76" d="M596.44,326.49h23.84a23.44,23.44,0,0,1,23.44,23.43v27.25H583.8V339.12a12.63,12.63,0,0,1,12.64-12.63Z" class="cls-5" data-name="Rectangle 76"/><path id="Rectangle_77" d="M547.7,337.34h20v3a10.93,10.93,0,0,1-10.93,10.93h-9V337.34Z" class="cls-4" data-name="Rectangle 77"/><path id="Rectangle_78" d="M602.24,390.34h11.52v29.14h0A11.52,11.52,0,0,1,602.24,408h0V390.34Z" class="cls-5" data-name="Rectangle 78"/><path id="Rectangle_79" d="M643.72,422.28h0V464H602A41.72,41.72,0,0,1,643.72,422.28Z" class="cls-5" data-name="Rectangle 79"/><path id="Rectangle_80" d="M598.29,452.58h45.43V464H586.87A11.42,11.42,0,0,1,598.29,452.58Z" class="cls-5" data-name="Rectangle 80"/><path id="Rectangle_81" d="M583.8,337.34h12.76a7.72,7.72,0,0,1-7.72,7.72h-5v-7.72Z" class="cls-4" data-name="Rectangle 81"/><path id="Rectangle_82" d="M601.62,337.34h12.76a7.72,7.72,0,0,1-7.72,7.72h-5v-7.72Z" class="cls-4" data-name="Rectangle 82"/><rect id="Rectangle_83" width="48.39" height="3.45" x="583.8" y="333.89" class="cls-4" data-name="Rectangle 83"/><path id="Rectangle_84" d="M620.67,326.49h0a23,23,0,0,1,23,23v32.09a11.51,11.51,0,0,1-11.52,11.52h0a11.52,11.52,0,0,1-11.52-11.52h0V326.49Z" class="cls-4" data-name="Rectangle 84"/><path id="Rectangle_85" d="M547.7,361H606a4,4,0,0,1,4,4h0a4,4,0,0,1-4,4H547.7v-8Z" class="cls-8" data-name="Rectangle 85"/><path id="Rectangle_86" d="M489.08,347.78h9.82V377.2a4.91,4.91,0,0,1-4.91,4.91h0a4.9,4.9,0,0,1-4.91-4.91V347.78Z" class="cls-5" data-name="Rectangle 86"/></g></g><g id="Group_28" data-name="Group 28"><g id="Group_8" data-name="Group 8"><circle id="Ellipse_10" cx="1076.05" cy="64.32" r="64.32" class="cls-4" data-name="Ellipse 10"/><rect id="Rectangle_34" width="64.32" height="64.32" x="1011.73" y="64.32" class="cls-4" data-name="Rectangle 34"/><g id="_20_20" class="cls-9" data-name="20 20"><g class="cls-9"><path d="M1071.78,60.53h-25.06V53.69l11-9.14a24.54,24.54,0,0,0,4.09-4.24,6.51,6.51,0,0,0,1.25-3.8V36a4.15,4.15,0,0,0-1.3-3.32,5.14,5.14,0,0,0-3.49-1.12A5,5,0,0,0,1054.4,33a8.11,8.11,0,0,0-1.89,3.44L1046,34a15.21,15.21,0,0,1,1.64-3.43,10.82,10.82,0,0,1,2.67-2.82,13.93,13.93,0,0,1,3.77-1.92,15.59,15.59,0,0,1,5-.72,15,15,0,0,1,5.09.8,11.22,11.22,0,0,1,3.8,2.19,9.21,9.21,0,0,1,2.34,3.32,11.42,11.42,0,0,1,.08,8.19,13.44,13.44,0,0,1-2,3.42,23.51,23.51,0,0,1-3,3.1c-1.14,1-2.37,2-3.67,3L1055,54.24h16.78Z" class="cls-7"/><path d="M1089,61.13q-7,0-10.32-4.75t-3.32-13.28q0-8.54,3.32-13.28T1089,25.08q7,0,10.31,4.74t3.32,13.28q0,8.53-3.32,13.28T1089,61.13Zm0-5.9q3.35,0,4.66-2.34a13.35,13.35,0,0,0,1.33-6.54V39.86a13.3,13.3,0,0,0-1.33-6.54Q1092.3,31,1089,31c-2.24,0-3.79.78-4.67,2.35a13.3,13.3,0,0,0-1.33,6.54v6.49a13.35,13.35,0,0,0,1.33,6.54C1085.17,54.45,1086.72,55.23,1089,55.23Zm0-9.18a3.31,3.31,0,0,1-2.43-.7,2.4,2.4,0,0,1-.67-1.7v-1.1a2.41,2.41,0,0,1,.67-1.7,4.61,4.61,0,0,1,4.85,0,2.37,2.37,0,0,1,.67,1.7v1.1a2.35,2.35,0,0,1-.67,1.7A3.3,3.3,0,0,1,1089,46.05Z" class="cls-7"/></g><g class="cls-9"><path d="M1071.78,102.76h-25.06V95.92l11-9.13a24.18,24.18,0,0,0,4.09-4.25,6.48,6.48,0,0,0,1.25-3.79v-.5a4.13,4.13,0,0,0-1.3-3.32,5.14,5.14,0,0,0-3.49-1.12,5,5,0,0,0-3.85,1.44,8.21,8.21,0,0,0-1.89,3.45L1046,76.2a14.93,14.93,0,0,1,1.64-3.42,10.82,10.82,0,0,1,2.67-2.82,13.65,13.65,0,0,1,3.77-1.92,15.58,15.58,0,0,1,5-.73,15.23,15.23,0,0,1,5.09.8,11.41,11.41,0,0,1,3.8,2.2,9.12,9.12,0,0,1,2.34,3.32,11.42,11.42,0,0,1,.08,8.19,13.79,13.79,0,0,1-2,3.42,23.45,23.45,0,0,1-3,3.09c-1.14,1-2.37,2-3.67,3L1055,96.47h16.78Z" class="cls-7"/><path d="M1089,103.36q-7,0-10.32-4.74t-3.32-13.28q0-8.53,3.32-13.28T1089,67.31q7,0,10.31,4.75t3.32,13.28q0,8.53-3.32,13.28T1089,103.36Zm0-5.89q3.35,0,4.66-2.35a13.3,13.3,0,0,0,1.33-6.54V82.09a13.35,13.35,0,0,0-1.33-6.54q-1.32-2.34-4.66-2.34c-2.24,0-3.79.78-4.67,2.34a13.35,13.35,0,0,0-1.33,6.54v6.49a13.3,13.3,0,0,0,1.33,6.54C1085.17,96.69,1086.72,97.47,1089,97.47Zm0-9.19a3.36,3.36,0,0,1-2.43-.69,2.41,2.41,0,0,1-.67-1.7v-1.1a2.4,2.4,0,0,1,.67-1.7,4.55,4.55,0,0,1,4.85,0,2.35,2.35,0,0,1,.67,1.7v1.1a2.37,2.37,0,0,1-.67,1.7A3.35,3.35,0,0,1,1089,88.28Z" class="cls-7"/></g></g></g><g id="Group_16" data-name="Group 16"><path id="Rectangle_87" d="M1042.69,249.61h103.12a35,35,0,0,1-35,35h-68.12v-35Z" class="cls-4" data-name="Rectangle 87"/><circle id="Ellipse_15" cx="1024.68" cy="184.7" r="38.19" class="cls-1" data-name="Ellipse 15"/><path id="Rectangle_88" d="M1023.11,240.76h0a41.49,41.49,0,0,1,41.49,41.48h0v27.39h-83V282.25A41.49,41.49,0,0,1,1023.11,240.76Z" class="cls-3" data-name="Rectangle 88"/><path id="Path_249" d="M1087.85,381.82H958.37l23.26-72.17h83Z" class="cls-5" data-name="Path 249"/><rect id="Rectangle_89" width="41.48" height="54.54" x="981.63" y="381.82" class="cls-4" data-name="Rectangle 89"/><rect id="Rectangle_90" width="43.88" height="54.54" x="1020.71" y="381.82" class="cls-4" data-name="Rectangle 90"/><path id="Path_250" d="M1023.11,436.35v6.53l-12.25,7.48A93.12,93.12,0,0,1,962.34,464h0l11.24-16.13,8-11.52Z" class="cls-3" data-name="Path 250"/><path id="Rectangle_91" d="M1002.37,442.88h20.74v20.74h0a20.74,20.74,0,0,1-20.74-20.74Z" class="cls-3" data-name="Rectangle 91"/><path id="Path_251" d="M1013.11,436.35v6.53l22.26,7.48A93.08,93.08,0,0,0,1083.88,464h0l-11.23-16.13-8-11.52Z" class="cls-3" data-name="Path 251"/><path id="Rectangle_92" d="M1023.11,463.62h0l-10-20.74h30.75A20.74,20.74,0,0,1,1023.11,463.62Z" class="cls-3" data-name="Rectangle 92"/><circle id="Ellipse_16" cx="1023.11" cy="217.12" r="15.87" class="cls-4" data-name="Ellipse 16"/><circle id="Ellipse_17" cx="1062.27" cy="210.56" r="10.24" class="cls-1" data-name="Ellipse 17"/><circle id="Ellipse_18" cx="1074.84" cy="224.48" r="10.24" class="cls-1" data-name="Ellipse 18"/><circle id="Ellipse_19" cx="987.1" cy="210.56" r="10.24" class="cls-1" data-name="Ellipse 19"/><circle id="Ellipse_20" cx="974.53" cy="224.48" r="10.24" class="cls-1" data-name="Ellipse 20"/><g id="Group_15" data-name="Group 15"><path id="Rectangle_93" d="M1105.1,225.52h65.54v10.11a13.58,13.58,0,0,1-13.59,13.59h-38.36a13.58,13.58,0,0,1-13.59-13.59V225.52Z" class="cls-1" data-name="Rectangle 93"/><rect id="Rectangle_94" width="65.54" height="8.35" x="1105.1" y="217.18" class="cls-2" data-name="Rectangle 94"/><rect id="Rectangle_95" width="65.54" height="4.17" x="1105.1" y="217.18" class="cls-3" data-name="Rectangle 95"/><path id="Rectangle_96" d="M1112.81,202h50.12a7.71,7.71,0,0,1,7.71,7.71h0a7.71,7.71,0,0,1-7.71,7.71h-50.12a7.71,7.71,0,0,1-7.71-7.71h0A7.71,7.71,0,0,1,1112.81,202Z" class="cls-4" data-name="Rectangle 96"/><rect id="Rectangle_97" width="65.98" height="5.11" x="1104.66" y="196.56" class="cls-5" data-name="Rectangle 97"/><path id="Path_252" d="M1157.8,199.11l-20.15-2.56-20.15,2.56,20.15,8.8Z" class="cls-5" data-name="Path 252"/><path id="Path_253" d="M1170.64,196.56a33,33,0,1,0-66,0Z" class="cls-1" data-name="Path 253"/></g><circle id="Ellipse_21" cx="1038.99" cy="220.11" r="4.87" class="cls-4" data-name="Ellipse 21"/><circle id="Ellipse_22" cx="1007.24" cy="220.11" r="4.87" class="cls-4" data-name="Ellipse 22"/><path id="Rectangle_98" d="M1104.66,198.66h9.82v29.42a4.91,4.91,0,0,1-4.91,4.91h0a4.91,4.91,0,0,1-4.91-4.91V198.66Z" class="cls-5" data-name="Rectangle 98"/></g></g><g id="Group_27" data-name="Group 27"><g id="Group_10" data-name="Group 10"><rect id="Rectangle_35" width="82.97" height="68.88" x="815.42" y="284.54" class="cls-5" data-name="Rectangle 35"/><rect id="Rectangle_36" width="41.48" height="82.93" x="815.42" y="353.42" class="cls-4" data-name="Rectangle 36"/><rect id="Rectangle_37" width="44.97" height="82.93" x="853.41" y="353.42" class="cls-4" data-name="Rectangle 37"/><path id="Rectangle_38" d="M846.86,436.35h10.37V464h-38a27.65,27.65,0,0,1,27.66-27.65Z" class="cls-4" data-name="Rectangle 38"/><path id="Rectangle_39" d="M895.25,464h-41V436.35H867.6A27.65,27.65,0,0,1,895.25,464Z" class="cls-4" data-name="Rectangle 39"/><g id="Group_9" data-name="Group 9"><path id="Rectangle_40" d="M704.31,431.36h88.07v15.93a15.91,15.91,0,0,1-15.91,15.91H720.22a15.91,15.91,0,0,1-15.91-15.91h0V431.36Z" class="cls-1" data-name="Rectangle 40"/><rect id="Rectangle_41" width="88.08" height="11.22" x="704.31" y="420.14" class="cls-2" data-name="Rectangle 41"/><rect id="Rectangle_42" width="88.08" height="5.61" x="704.31" y="420.14" class="cls-3" data-name="Rectangle 42"/><rect id="Rectangle_43" width="88.08" height="11.22" x="704.31" y="388.2" class="cls-2" data-name="Rectangle 43"/><rect id="Rectangle_44" width="88.08" height="5.61" x="704.31" y="388.2" class="cls-3" data-name="Rectangle 44"/><path id="Rectangle_45" d="M714.67,367.48H782a10.36,10.36,0,0,1,10.36,10.36h0A10.36,10.36,0,0,1,782,388.2H714.67a10.36,10.36,0,0,1-10.36-10.36h0A10.36,10.36,0,0,1,714.67,367.48Z" class="cls-4" data-name="Rectangle 45"/><path id="Rectangle_46" d="M714.67,399.42H782a10.36,10.36,0,0,1,10.36,10.36h0A10.36,10.36,0,0,1,782,420.14H714.67a10.36,10.36,0,0,1-10.36-10.36h0A10.36,10.36,0,0,1,714.67,399.42Z" class="cls-4" data-name="Rectangle 46"/><rect id="Rectangle_47" width="88.67" height="6.87" x="703.71" y="360.17" class="cls-5" data-name="Rectangle 47"/><path id="Path_241" d="M775.13,363.61l-27.08-3.44L721,363.61l27.09,11.82Z" class="cls-5" data-name="Path 241"/><path id="Path_242" d="M792.38,360.17a44.34,44.34,0,0,0-88.67,0Z" class="cls-1" data-name="Path 242"/></g><rect id="Rectangle_48" width="83.04" height="31.3" x="742.38" y="284.54" class="cls-5" data-name="Rectangle 48"/><path id="Rectangle_49" d="M735.15,284.54h7.23v31.3H703.85a31.3,31.3,0,0,1,31.3-31.3Z" class="cls-3" data-name="Rectangle 49"/><rect id="Rectangle_50" width="34.04" height="50.09" x="839.88" y="222.08" class="cls-2" data-name="Rectangle 50"/><circle id="Ellipse_11" cx="856.9" cy="272.17" r="17.02" class="cls-3" data-name="Ellipse 11"/><circle id="Ellipse_12" cx="839.88" cy="272.17" r="4.88" class="cls-3" data-name="Ellipse 12"/><circle id="Ellipse_13" cx="873.92" cy="272.17" r="4.88" class="cls-3" data-name="Ellipse 13"/><path id="Rectangle_51" d="M711.14,367H721v41.07a4.91,4.91,0,0,1-4.91,4.91h0a4.91,4.91,0,0,1-4.91-4.91V367Z" class="cls-5" data-name="Rectangle 51"/></g><g id="Group_7" data-name="Group 7"><rect id="Rectangle_28" width="161.37" height="106.63" x="702.32" y="52.41" class="cls-2" data-name="Rectangle 28"/><path id="Path_238" d="M803.5,154.16,863.69,189V159l-30.1-24.81Z" class="cls-2" data-name="Path 238"/><g id="Group_6" data-name="Group 6"><path id="Rectangle_29" d="M750.36,125.27h65v5.1a11.24,11.24,0,0,1-11.24,11.24H761.6a11.24,11.24,0,0,1-11.24-11.24v-5.1Z" class="cls-4" data-name="Rectangle 29"/><rect id="Rectangle_30" width="64.98" height="8.27" x="750.36" y="116.99" class="cls-2" data-name="Rectangle 30"/><rect id="Rectangle_31" width="64.98" height="4.14" x="750.36" y="116.99" class="cls-3" data-name="Rectangle 31"/><rect id="Rectangle_32" width="64.98" height="15.29" x="750.36" y="101.94" class="cls-4" data-name="Rectangle 32" rx="7.64"/><rect id="Rectangle_33" width="65.42" height="5.07" x="749.92" y="96.55" class="cls-8" data-name="Rectangle 33"/><path id="Path_239" d="M802.61,99.08l-20-2.53-20,2.53,20,8.73Z" class="cls-8" data-name="Path 239"/><path id="Path_240" d="M815.34,96.55c0-14.75-14.65-26.71-32.71-26.71s-32.71,12-32.71,26.71Z" class="cls-4" data-name="Path 240"/></g></g></g><g id="Group_120" data-name="Group 120"><g id="Group_120-2" data-name="Group 120-2"><path id="Rectangle_464" d="M1192.35,380.42h26.25a26.45,26.45,0,0,1,26.45,26.45H1165.9A26.45,26.45,0,0,1,1192.35,380.42Z" class="cls-1" data-name="Rectangle 464"/><path id="Rectangle_465" d="M1227.6,464h-44.25a17.45,17.45,0,0,1-17.45-17.45h79.15A17.45,17.45,0,0,1,1227.6,464Z" class="cls-1" data-name="Rectangle 465"/><rect id="Rectangle_466" width="89.54" height="18.92" x="1160.71" y="413.78" class="cls-10" data-name="Rectangle 466" rx="9.46"/><path id="Rectangle_467" d="M1164.3,439.7h82.35a6.85,6.85,0,0,1-6.85,6.85h-68.65a6.85,6.85,0,0,1-6.85-6.85Z" class="cls-2" data-name="Rectangle 467"/><path id="Rectangle_468" d="M1166.11,406.87h78.73a6.85,6.85,0,0,1-6.85,6.85h-65a6.85,6.85,0,0,1-6.85-6.85Z" class="cls-5" data-name="Rectangle 468"/><rect id="Rectangle_469" width="88.84" height="7.04" x="1161.41" y="432.58" class="cls-7" data-name="Rectangle 469"/><path id="Rectangle_470" d="M1193.52,412.48h9.63v24.26a4.81,4.81,0,0,1-4.81,4.81h0a4.81,4.81,0,0,1-4.82-4.81V412.48Z" class="cls-5" data-name="Rectangle 470"/><path id="Rectangle_471" d="M1203.15,406.87h9.64v6.73a9.65,9.65,0,0,1-9.64,9.64h0V406.87Z" class="cls-5" data-name="Rectangle 471"/></g><circle id="Ellipse_78" cx="1205.83" cy="370.73" r="26.41" class="cls-5" data-name="Ellipse 78"/><path id="Path_797" d="M1205.48,351.08l6,12.15,13.41,1.95-9.7,9.46,2.29,13.35-12-6.3-12,6.3,2.29-13.35-9.7-9.46,13.41-1.95Z" class="cls-8" data-name="Path 797"/></g></g></g></svg>