<svg xmlns="http://www.w3.org/2000/svg" viewBox="0 0 917.72 845.17"><defs><style>.cls-1{fill:#ed5d28}.cls-2{fill:#fff}.cls-3{fill:#592b2b}.cls-4{fill:#faa21e}.cls-5{fill:#cf3339}.cls-6{fill:#a9ae38}.cls-7{fill:#ab7029}.cls-8{fill:#b32029}.cls-9{fill:#411f1f}.cls-10{isolation:isolate}.cls-11{fill:#faa227}</style></defs><g id="Layer_2" data-name="Layer 2"><g id="website_artwork" data-name="website artwork"><path d="M817,1H758A100.77,100.77,0,0,0,657.23,101.76V202.52H817A100.76,100.76,0,0,0,917.72,101.76h0A100.77,100.77,0,0,0,817,1Zm19.55,106.67-49,49-49-49a32.15,32.15,0,0,1,0-45.46h0a32.13,32.13,0,0,1,45.46,0l3.57,3.57L791,62.2a32.15,32.15,0,0,1,45.47,0h0A32.15,32.15,0,0,1,836.51,107.66Z" class="cls-1"/><path d="M836.51,62.2a32.15,32.15,0,0,0-45.47,0l-3.57,3.57L783.9,62.2a32.13,32.13,0,0,0-45.46,0h0a32.15,32.15,0,0,0,0,45.46l49,49,49-49a32.15,32.15,0,0,0,0-45.46Z" class="cls-2"/><path d="M73.64,474.29V430.08A163.4,163.4,0,0,0,3.72,564.2v56.7H73.36V474.29Z" class="cls-3"/><path d="M182.46,474.29V464.1A31.76,31.76,0,0,1,153.22,420H204.4a17.21,17.21,0,0,0,17.23-17.23h0a17.23,17.23,0,0,0-17.23-17.23H168a17.22,17.22,0,0,0-17.16,15.92c-4.95.49-9.83,1.22-14.64,2.15v70.69Z" class="cls-3"/><path d="M153.22,420a31.75,31.75,0,1,0,57.88-1.35,17.17,17.17,0,0,1-6.7,1.35Z" class="cls-4"/><polygon points="182.47 620.9 228.09 620.9 228.09 536.81 218.04 536.81 218.04 474.29 182.47 474.29 136.15 474.29 136.15 487.97 73.64 487.97 73.64 474.29 73.36 474.29 73.36 620.9 150.72 620.9 182.47 620.9" class="cls-5"/><polygon points="228.09 536.81 343.62 536.81 343.62 474.29 228.09 474.29 218.04 474.29 218.04 536.81 228.09 536.81" class="cls-5"/><path d="M343.62,536.81a49,49,0,0,0,49-49v-13.5h-49v62.52Z" class="cls-4"/><polygon points="73.64 487.97 136.15 487.97 136.15 474.29 136.15 403.6 136.15 362.39 73.64 362.39 73.64 430.08 73.64 474.29 73.64 487.97" class="cls-5"/><path d="M136.15,315.23H120.8a47.15,47.15,0,0,0-47.16,47.16h62.51Z" class="cls-4"/><polygon points="227.81 787.6 228.09 787.6 228.09 691.97 150.72 691.97 73.36 691.97 73.36 787.6 73.64 787.6 150.72 787.6 227.81 787.6" class="cls-4"/><polygon points="228.09 691.97 228.09 620.9 182.47 620.9 150.72 620.9 73.36 620.9 73.36 691.97 150.72 691.97 228.09 691.97" class="cls-6"/><polygon points="150.72 787.6 73.64 787.6 33.86 842.67 150.72 842.67 267.59 842.67 227.81 787.6 150.72 787.6" class="cls-5"/><path d="M238.55,354.75h148.9A49.76,49.76,0,0,0,337.69,305H288.31a49.76,49.76,0,0,0-49.76,49.76Z" class="cls-7"/><path d="M238.55,429.38h0a32.83,32.83,0,0,0,32.83,32.83h83.24a32.83,32.83,0,0,0,32.83-32.83H238.55Z" class="cls-7"/><path d="M372.31,403.1a17.78,17.78,0,0,0,15.14-17.57h0a17.79,17.79,0,0,0-17.79-17.79H335.48V403.1Z" class="cls-3"/><path d="M317.36,385.53a18.12,18.12,0,0,1-18.1-17.79H256.34a17.78,17.78,0,0,0-17.79,17.79h0a17.78,17.78,0,0,0,15.13,17.57h63.68Z" class="cls-3"/><path d="M326.42,420a9.05,9.05,0,0,1-7.14-3.49H235.54a12.88,12.88,0,0,0,12.88,12.88H377.57a12.88,12.88,0,0,0,12.88-12.88H333.56A9,9,0,0,1,326.42,420Z" class="cls-6"/><path d="M317.36,403.1H228.78v13.25h90.4a9,9,0,0,1-1.82-5.42Z" class="cls-8"/><path d="M335.48,410.93a8.94,8.94,0,0,1-1.81,5.42h62.22V403.1H335.48Z" class="cls-8"/><path d="M299.24,354.75H239a12.88,12.88,0,0,0,12.87,12.88h47.42s0,.07,0,.11a18.12,18.12,0,0,0,18.1,17.79v25.4a9,9,0,0,0,1.82,5.42l.1.15a9,9,0,0,0,14.28,0l.11-.15a8.94,8.94,0,0,0,1.81-5.42v-43.3h38.68A12.88,12.88,0,0,0,387,354.75h-87.8Z" class="cls-4"/><path d="M773.3,724.25h78.86a56,56,0,0,0-56-56H740.6a56,56,0,0,0-56,56h88.7Z" class="cls-3"/><path d="M684.6,808.23a36.94,36.94,0,0,0,36.95,36.94h93.67a36.94,36.94,0,0,0,36.94-36.94H684.6Z" class="cls-3"/><path d="M835.13,778.67a20,20,0,0,0-3-39.8H793.69v39.8Z" class="cls-3"/><path d="M773.3,758.89h0a20.38,20.38,0,0,1-20.38-20h-48.3a20,20,0,0,0-3,39.8H773.3Z" class="cls-3"/><path d="M783.49,797.67h0a10.15,10.15,0,0,1-8-3.93H681.22a14.5,14.5,0,0,0,14.5,14.49H841.05a14.49,14.49,0,0,0,14.49-14.49h-64A10.18,10.18,0,0,1,783.49,797.67Z" class="cls-6"/><path d="M773.3,778.67H673.62v14.91H775.34a10.12,10.12,0,0,1-2-6.1Z" class="cls-8"/><path d="M793.69,778.67v8.81a10.19,10.19,0,0,1-2,6.1h70V778.67h-68Z" class="cls-8"/><path d="M793.69,778.67V738.74h43.52a14.49,14.49,0,0,0,14.49-14.49H685.06a14.49,14.49,0,0,0,14.5,14.49h53.36v.13a20.38,20.38,0,0,0,20.38,20h0v28.59a10.12,10.12,0,0,0,2,6.1l.12.16a10.15,10.15,0,0,0,8,3.93h0a10.18,10.18,0,0,0,8-3.93l.12-.16a10.19,10.19,0,0,0,2-6.1Z" class="cls-4"/><path d="M397.67,49.76h70.08A49.76,49.76,0,0,0,418,0H368.61a49.76,49.76,0,0,0-49.76,49.76h78.82Z" class="cls-7"/><path d="M357.18,155.65h87.76a32.83,32.83,0,0,0,22.81-31.26H318.85a32.83,32.83,0,0,0,32.83,32.83h5.54c0-.53,0-1,0-1.57Z" class="cls-7"/><path d="M397.67,80.54a18.12,18.12,0,0,1-18.11-17.79H336.64A17.78,17.78,0,0,0,334,98.11h63.69Z" class="cls-3"/><path d="M452.62,98.11A17.78,17.78,0,0,0,450,62.75H415.79V98.11Z" class="cls-3"/><path d="M470.75,111.51H413.87a9.05,9.05,0,0,1-7.14,3.49h0a9,9,0,0,1-7.14-3.49H315.85a12.88,12.88,0,0,0,12.88,12.88H457.87A12.88,12.88,0,0,0,470.75,111.51Z" class="cls-6"/><path d="M397.67,98.11H309.08v13.25h90.4a9,9,0,0,1-1.81-5.42Z" class="cls-8"/><path d="M415.79,105.94a9,9,0,0,1-1.81,5.42h62.21V98.11h-60.4Z" class="cls-8"/><path d="M406.73,115h0a9.05,9.05,0,0,0,7.14-3.49l.11-.15a9,9,0,0,0,1.81-5.42V62.64h38.67a12.88,12.88,0,0,0,12.88-12.88H319.26a12.88,12.88,0,0,0,12.88,12.88h47.42v.11a18.12,18.12,0,0,0,18.11,17.79v25.4a9,9,0,0,0,1.81,5.42l.11.15A9,9,0,0,0,406.73,115Z" class="cls-4"/><path d="M694.56,248.25H606.79v-92.6H416.07v58.89H519V336a64.58,64.58,0,0,0,64.58,64.58H694.56V248.25Z" class="cls-3"/><path d="M472.53,352.22a27.79,27.79,0,1,0-27.78-27.79A27.79,27.79,0,0,0,472.53,352.22Z" class="cls-5"/><path d="M416.07,155.65H357.18c0,.53,0,1,0,1.57a58.87,58.87,0,0,0,58.85,57.32h0Z" class="cls-5"/><polygon points="694.56 248.25 694.56 324.43 694.56 400.62 694.56 492.57 770.74 492.57 770.74 324.43 862.69 324.43 862.69 248.25 694.56 248.25" class="cls-6"/><polygon points="655.05 547.6 770.74 547.6 770.74 492.57 694.56 492.57 655.05 547.6" class="cls-5"/><polygon points="862.69 324.43 917.72 363.94 917.72 248.25 862.69 248.25 862.69 324.43" class="cls-5"/><path d="M436.45,692v-4.85H351.16v5.44a10.63,10.63,0,0,1-21.26,0v-5.44H294.56V692a20.8,20.8,0,0,0,20.8,20.8H415.64A20.81,20.81,0,0,0,436.45,692Z" class="cls-7"/><rect width="35.34" height="9.03" x="294.56" y="678.11" class="cls-6"/><rect width="85.28" height="9.03" x="351.16" y="678.11" class="cls-6"/><path d="M351.16,669.59v8.52h85.29v-9H423.82a16.57,16.57,0,0,1-4.07.52Z" class="cls-8"/><path d="M329.9,669.59H311.25a16.42,16.42,0,0,1-4.06-.52H294.56v9H329.9Z" class="cls-8"/><path d="M351.16,643v26.62h68.59a16.69,16.69,0,1,0,0-33.38H394.37L365,649Z" class="cls-9"/><path d="M329.9,669.59V636.21H311.25a16.68,16.68,0,0,0-4.06,32.86,16.42,16.42,0,0,0,4.06.52Z" class="cls-9"/><path d="M436.44,624.44c0-23.46-32-42.47-71.42-42.47s-71.42,19-71.42,42.47Z" class="cls-7"/><path d="M369.71,713.32a20.86,20.86,0,0,0,20.86,20.86H500.63V713.32Z" class="cls-4"/><path d="M614.56,697v7.51a19.47,19.47,0,1,1-38.93,0V697h-75v84.54A25.35,25.35,0,0,0,526,806.85h28.49a70.43,70.43,0,0,1,60.11-33.68V697ZM564,768.44A19.47,19.47,0,0,1,544.48,749h0V719.21H564Z" class="cls-8"/><path d="M575.63,629.67H565a13,13,0,0,1-13,13h-8.51v-13h-8.55a13,13,0,0,1-13,13h-8.51v-13H486.08v5.06a18.47,18.47,0,0,1-18.46,18.47H452.34v16.38h98.51a6.74,6.74,0,1,1,0,13.48H453.23A19.81,19.81,0,0,0,472.14,697H575.63Z" class="cls-4"/><path d="M614.56,697v0Z" class="cls-4"/><path d="M575.63,611.35l-.66,0H534.68a21.34,21.34,0,0,0-19.42,12.52h60.37Z" class="cls-4"/><path d="M486.08,634.73v-5.06H452.34V653.2h15.28A18.47,18.47,0,0,0,486.08,634.73Z" class="cls-9"/><path d="M544.48,749h0A19.47,19.47,0,0,0,564,768.44V719.21H544.48Z" class="cls-4"/><path d="M554.45,806.85H526a25.3,25.3,0,0,1-19.82-9.57,70.44,70.44,0,0,0-14.74,27.09h-8.95a19.29,19.29,0,0,0-19.29,19.29h151.4V773.17A70.43,70.43,0,0,0,554.45,806.85Z" class="cls-4"/><path d="M513.34,642.71h8.51a13,13,0,0,0,13-13h8.55v13H552a13,13,0,0,0,13-13h10.64v74.81a19.47,19.47,0,1,0,38.93,0V650.26a38.93,38.93,0,0,0-38.93-38.93v12.52H513.34v18.86Z" class="cls-9"/><path d="M550.85,683.06a6.74,6.74,0,1,0,0-13.48H452.34v13.48h98.51Z" class="cls-2"/><path d="M340.53,703.21a10.63,10.63,0,0,0,10.63-10.63v-5.44h0V643L365,649l29.35-12.81,1.61-.71h40.46V624.44H293.6V635.5h36.3v51.64h0v5.44A10.63,10.63,0,0,0,340.53,703.21Z" class="cls-4"/><path d="M122.75,264.23H246.88V140.8h0A123.44,123.44,0,1,0,122.75,264.23Z" class="cls-5"/><g id="_20_20" class="cls-10" data-name="20 20"><g class="cls-10"><path d="M115.25,133.53H67.14V120.4l21.08-17.54a46.86,46.86,0,0,0,7.86-8.14,12.55,12.55,0,0,0,2.4-7.28v-1c0-2.81-.84-4.94-2.5-6.37A9.86,9.86,0,0,0,89.28,78q-4.8,0-7.38,2.78a15.54,15.54,0,0,0-3.64,6.61L65.7,82.55A28.82,28.82,0,0,1,68.87,76,20.52,20.52,0,0,1,74,70.57a26.37,26.37,0,0,1,7.24-3.69,29.75,29.75,0,0,1,9.48-1.39A29.14,29.14,0,0,1,100.49,67a21.56,21.56,0,0,1,7.28,4.22,17.77,17.77,0,0,1,4.51,6.37,21.9,21.9,0,0,1,.14,15.72,26.06,26.06,0,0,1-3.83,6.56,45.68,45.68,0,0,1-5.75,6q-3.32,2.86-7,5.75l-12.74,9.87h32.2Z" class="cls-11"/><path d="M148.21,134.68q-13.41,0-19.79-9.1t-6.37-25.49q0-16.4,6.37-25.49t19.79-9.11q13.41,0,19.79,9.11t6.37,25.49q0,16.38-6.37,25.49T148.21,134.68Zm0-11.31q6.42,0,9-4.5t2.54-12.56V93.86q0-8.06-2.54-12.56t-9-4.5q-6.42,0-9,4.5t-2.54,12.56v12.45q0,8.06,2.54,12.56T148.21,123.37Zm0-17.63c-2.24,0-3.78-.45-4.65-1.34a4.54,4.54,0,0,1-1.29-3.26V99a4.54,4.54,0,0,1,1.29-3.26c.87-.89,2.41-1.34,4.65-1.34s3.79.45,4.65,1.34A4.54,4.54,0,0,1,154.15,99v2.11a4.54,4.54,0,0,1-1.29,3.26C152,105.29,150.45,105.74,148.21,105.74Z" class="cls-11"/></g><g class="cls-10"><path d="M115.25,214.59H67.14V201.46l21.08-17.53a47.22,47.22,0,0,0,7.86-8.15,12.55,12.55,0,0,0,2.4-7.28v-1c0-2.81-.84-4.94-2.5-6.37a9.86,9.86,0,0,0-6.7-2.16q-4.8,0-7.38,2.78a15.54,15.54,0,0,0-3.64,6.61L65.7,163.61a28.55,28.55,0,0,1,3.17-6.56A20.41,20.41,0,0,1,74,151.63a26.37,26.37,0,0,1,7.24-3.69,29.75,29.75,0,0,1,9.48-1.39,28.89,28.89,0,0,1,9.78,1.54,21.38,21.38,0,0,1,7.28,4.21,17.77,17.77,0,0,1,4.51,6.37,21.9,21.9,0,0,1,.14,15.72,26.06,26.06,0,0,1-3.83,6.56,45.68,45.68,0,0,1-5.75,6q-3.32,2.86-7,5.75l-12.74,9.87h32.2Z" class="cls-11"/><path d="M148.21,215.74q-13.41,0-19.79-9.1t-6.37-25.49q0-16.4,6.37-25.49t19.79-9.11q13.41,0,19.79,9.11t6.37,25.49q0,16.38-6.37,25.49T148.21,215.74Zm0-11.31q6.42,0,9-4.5t2.54-12.55V174.92q0-8.05-2.54-12.56t-9-4.5q-6.42,0-9,4.5t-2.54,12.56v12.46q0,8,2.54,12.55T148.21,204.43Zm0-17.63c-2.24,0-3.78-.45-4.65-1.34a4.54,4.54,0,0,1-1.29-3.26v-2.11a4.54,4.54,0,0,1,1.29-3.26c.87-.89,2.41-1.34,4.65-1.34s3.79.45,4.65,1.34a4.54,4.54,0,0,1,1.29,3.26v2.11a4.54,4.54,0,0,1-1.29,3.26C152,186.35,150.45,186.8,148.21,186.8Z" class="cls-11"/></g></g></g></g></svg>