<svg xmlns="http://www.w3.org/2000/svg" xmlns:xlink="http://www.w3.org/1999/xlink" viewBox="0 0 220.39 255.03"><defs><style>.cls-1{fill:#fff}.cls-2{fill:#231f20}.cls-3{fill:#ed5253}.cls-4{fill:#ab7029}.cls-5{fill:#9c6226}.cls-6{fill:#b32029}.cls-7{fill:#faa21e}.cls-8{fill:#a9ae38}.cls-9{fill:#6d1f11}.cls-10{fill:#411f1f}.cls-11{fill:url(#linear-gradient)}.cls-12{fill:none;stroke:#fff;stroke-linejoin:round;stroke-width:3.55px}.cls-13{fill:#cf3339}</style><linearGradient id="linear-gradient" x1="132.38" x2="132.38" y1="111.44" y2="51.39" gradientUnits="userSpaceOnUse"><stop offset="0" stop-color="#ab7029" stop-opacity="0"/><stop offset="1" stop-color="#411f1f" stop-opacity=".6"/></linearGradient></defs><g id="Layer_2" data-name="Layer 2"><g id="logos"><path d="M39.42,219.87H173.28a0,0,0,0,1,0,0v19.6A15.57,15.57,0,0,1,157.71,255H55a15.57,15.57,0,0,1-15.57-15.57v-19.6a0,0,0,0,1,0,0Z" class="cls-1"/><path d="M85.73,234.6a4.49,4.49,0,0,0-4.65,4.67,4.31,4.31,0,0,0,4.67,4.64c1.14,0,2.34.58,2.34,1.85s-1,2-2.34,2a2.18,2.18,0,0,1-2.41-2H81.08c0,2.49,2,4.12,4.67,4.12s4.62-1.57,4.62-4.12a3.09,3.09,0,0,0-1.91-3,3.67,3.67,0,0,0,2-3.45A4.5,4.5,0,0,0,85.73,234.6Zm0,7.42a2.54,2.54,0,0,1-2.41-2.75A2.43,2.43,0,1,1,85.75,242Z" class="cls-2"/><circle cx="78.64" cy="231.88" r="1.33" class="cls-2"/><path d="M141.29,240.26a2.76,2.76,0,0,0,2.87,2,3.91,3.91,0,0,0,2.47-1l1.46,1.44a5.68,5.68,0,0,1-4,1.48,4.66,4.66,0,0,1-5-4.84,4.75,4.75,0,0,1,4.8-4.83c2.79,0,5.11,1.91,4.86,5.66Zm5.36-1.74a2.76,2.76,0,0,0-2.66-2,2.84,2.84,0,0,0-2.7,2Z" class="cls-2"/><path d="M130.77,240.26a2.76,2.76,0,0,0,2.87,2,3.91,3.91,0,0,0,2.47-1l1.46,1.44a5.66,5.66,0,0,1-4,1.48,4.66,4.66,0,0,1-5-4.84,4.75,4.75,0,0,1,4.8-4.83c2.79,0,5.11,1.91,4.86,5.66Zm5.36-1.74a2.76,2.76,0,0,0-2.66-2,2.84,2.84,0,0,0-2.7,2Z" class="cls-2"/><path d="M97,234.59A3.36,3.36,0,0,0,94.14,236v-5.22H91.87V244h2.27v-4.69a2.35,2.35,0,0,1,2.27-2.51c1.21,0,2.08.71,2.08,2.38V244h2.27v-5C100.76,236.36,99.61,234.59,97,234.59Z" class="cls-2"/><path d="M123.09,234.6a3.66,3.66,0,0,0-3,1.47l-.07-1.26h-2.2v13.28l2.27-.24V243a3.67,3.67,0,0,0,3,1.32,4.84,4.84,0,0,0-.06-9.67Zm-.17,7.71a2.75,2.75,0,0,1-2.6-2.85,2.63,2.63,0,1,1,5.21,0A2.76,2.76,0,0,1,122.92,242.31Z" class="cls-2"/><path d="M154.32,244.27a3.64,3.64,0,0,0,3-1.47l.07,1.23h2.2V230.78H157.3v5.14a3.71,3.71,0,0,0-3.05-1.3,4.52,4.52,0,0,0-4.64,4.85A4.59,4.59,0,0,0,154.32,244.27Zm.17-7.7a2.75,2.75,0,0,1,2.6,2.85,2.63,2.63,0,1,1-5.21,0A2.76,2.76,0,0,1,154.49,236.57Z" class="cls-2"/><path d="M106.28,242.47a.74.74,0,0,1-.63-.27,1.44,1.44,0,0,1-.21-.88v-4.53h1.83l.21-2h-2v-2.54l-2.29.25v2.29h-1.73v2h1.73v4.58a3.09,3.09,0,0,0,.66,2.15,2.6,2.6,0,0,0,2,.75,4.27,4.27,0,0,0,1.16-.16,3.83,3.83,0,0,0,1-.49l-.78-1.45A1.91,1.91,0,0,1,106.28,242.47Z" class="cls-2"/><path d="M115.63,239.09a6.51,6.51,0,0,0-3.07-.71c-.62,0-1.59-.18-1.59-1,0-.58.61-.91,1.7-.91a3.15,3.15,0,0,1,2.29.81l1.28-1.48a5,5,0,0,0-3.61-1.21c-1.69,0-3.91.74-3.91,2.86a2.53,2.53,0,0,0,1.22,2.16,6.77,6.77,0,0,0,2.93.71c.64.07,1.71.24,1.54,1.13-.13.63-.87.81-1.42.84a6.38,6.38,0,0,1-1.74-.16,5.61,5.61,0,0,1-1.61-.79l-1.15,1.47.14.11a6.43,6.43,0,0,0,5.42,1.2,3.06,3.06,0,0,0,2.62-2.87A2.44,2.44,0,0,0,115.63,239.09Z" class="cls-2"/><rect width="2.25" height="13.28" x="73.4" y="230.76" class="cls-2"/><rect width="2.27" height="9.21" x="77.51" y="234.82" class="cls-2"/><path d="M58.32,224.77l1.17,2a1.36,1.36,0,0,1,0,1.35l-6.92,12,3.27,5.66a2.87,2.87,0,0,0,5,0l3.26-5.66-.88-1.52L59.49,245a1.34,1.34,0,0,1-2.33,0l-2.82-4.89L60.76,229l1.16,2a1.34,1.34,0,0,1,0,1.34l-4.48,7.76.88,1.53,4.87-8.43,3.19,5.53a2.76,2.76,0,0,1,0,2.75l-3.24,5.62a5.56,5.56,0,0,1-9.63,0l-3.25-5.62a2.76,2.76,0,0,1,0-2.75l8.06-14" class="cls-3"/><path d="M68.53,224.68c-13.42,0-26.1-.05-36-3.9C20.23,216,14,206.1,13.83,191.29l-2.93.15h-.42a7.72,7.72,0,0,1-7.71-7.33l-.23-4.53a7.74,7.74,0,0,1,.58-3.37L3,174a7.73,7.73,0,0,1,4.51-7.43,7.84,7.84,0,0,1,.19-1.18l5.1-21.54C3.43,142.29,0,135.54,0,129.17c0-8.19,5.23-16,14-21.45.11-30.3,32.67-62.41,92.87-62.3,27.24.06,50.54,6.74,67.39,19.33,15.39,11.51,24.21,27.33,24.17,43.4v3.31c0,.2,0,.41,0,.61l0,10.48h1.09a7.79,7.79,0,0,1,3.28.73,16.11,16.11,0,0,1,4.77-.72,13.25,13.25,0,0,1-.28,26.5,11.82,11.82,0,0,1-3.79-.63l-1.58,7.42,2-.1.43,0a7.74,7.74,0,0,1,7.7,7.33l.12,2.25a7.6,7.6,0,0,1,.93,3.29l.24,4.53a7.73,7.73,0,0,1-7.33,8.13l-2.93.15-.49.05c-.25.14-.83.56-1.26.88-.82.59-1.83,1.32-3.06,2.07v6.67c0,15.13-6.35,25.21-18.79,30-9.95,3.82-22.62,3.79-36,3.76Z" class="cls-1"/><path d="M192.33,107.4c0-26.52-29-56-85.74-56s-86.82,29.46-86.82,56v4H192.33Z" class="cls-4"/><path d="M88,59.24h-5.6a.69.69,0,0,0-.65.42,3.3,3.3,0,0,0-.21,1.19A3.35,3.35,0,0,0,81.73,62a.69.69,0,0,0,.65.42H88a.7.7,0,0,0,.64-.43,3.39,3.39,0,0,0,.2-1.18,3.34,3.34,0,0,0-.2-1.18A.7.7,0,0,0,88,59.24Z" class="cls-5"/><path d="M109,59.24h-5.61a.69.69,0,0,0-.64.42,3.64,3.64,0,0,0,0,2.38.69.69,0,0,0,.64.42H109a.69.69,0,0,0,.64-.43,3.17,3.17,0,0,0,.2-1.18,3.08,3.08,0,0,0-.2-1.18A.7.7,0,0,0,109,59.24Z" class="cls-5"/><path d="M129.92,59.24h-5.61a.7.7,0,0,0-.64.43,3.12,3.12,0,0,0-.2,1.18,3.34,3.34,0,0,0,.2,1.18.7.7,0,0,0,.64.43h5.61a.69.69,0,0,0,.64-.43,3.58,3.58,0,0,0,0-2.36A.69.69,0,0,0,129.92,59.24Z" class="cls-5"/><path d="M77.45,71.74H71.84a.7.7,0,0,0-.64.43,3.19,3.19,0,0,0-.2,1.19,3.12,3.12,0,0,0,.2,1.18.7.7,0,0,0,.64.43h5.61a.68.68,0,0,0,.63-.43,3.45,3.45,0,0,0,0-2.37A.68.68,0,0,0,77.45,71.74Z" class="cls-5"/><path d="M98.42,71.74H92.81a.7.7,0,0,0-.64.43,3.45,3.45,0,0,0,0,2.37.7.7,0,0,0,.64.43h5.61a.7.7,0,0,0,.64-.43,3.34,3.34,0,0,0,.2-1.18,3.41,3.41,0,0,0-.2-1.19A.7.7,0,0,0,98.42,71.74Z" class="cls-5"/><path d="M56.57,71.74H51a.7.7,0,0,0-.64.43,3.19,3.19,0,0,0-.2,1.19,3.12,3.12,0,0,0,.2,1.18A.7.7,0,0,0,51,75h5.61a.69.69,0,0,0,.63-.43,3,3,0,0,0,.22-1.18,3.05,3.05,0,0,0-.22-1.2A.7.7,0,0,0,56.57,71.74Z" class="cls-5"/><path d="M119.39,71.74h-5.61a.7.7,0,0,0-.64.43,3.19,3.19,0,0,0-.2,1.19,3.12,3.12,0,0,0,.2,1.18.7.7,0,0,0,.64.43h5.61a.7.7,0,0,0,.64-.43,3.34,3.34,0,0,0,.2-1.18,3.41,3.41,0,0,0-.2-1.19A.7.7,0,0,0,119.39,71.74Z" class="cls-5"/><path d="M140.36,71.74h-5.61a.7.7,0,0,0-.64.44,3.39,3.39,0,0,0,0,2.35.68.68,0,0,0,.64.44h5.61a.7.7,0,0,0,.64-.43,3.45,3.45,0,0,0,0-2.37A.7.7,0,0,0,140.36,71.74Z" class="cls-5"/><path d="M161.33,71.74h-5.61a.7.7,0,0,0-.64.44,3.12,3.12,0,0,0-.2,1.18,3.34,3.34,0,0,0,.2,1.18.71.71,0,0,0,.65.43h5.6a.68.68,0,0,0,.64-.44,3.55,3.55,0,0,0,0-2.35A.71.71,0,0,0,161.33,71.74Z" class="cls-5"/><path d="M88,84.81h-5.6a.69.69,0,0,0-.64.43,2.93,2.93,0,0,0-.22,1.18,3,3,0,0,0,.22,1.19.69.69,0,0,0,.64.43H88a.71.71,0,0,0,.64-.44,3.39,3.39,0,0,0,.2-1.18,3.34,3.34,0,0,0-.2-1.18A.7.7,0,0,0,88,84.81Z" class="cls-5"/><path d="M109,84.81h-5.61a.7.7,0,0,0-.64.43,3,3,0,0,0-.2,1.18,3.14,3.14,0,0,0,.2,1.19.7.7,0,0,0,.64.43H109a.71.71,0,0,0,.64-.44,3.58,3.58,0,0,0,0-2.36A.7.7,0,0,0,109,84.81Z" class="cls-5"/><path d="M129.92,84.81h-5.61a.7.7,0,0,0-.64.43,3.34,3.34,0,0,0-.2,1.18,3.13,3.13,0,0,0,.21,1.19.68.68,0,0,0,.63.43h5.61a.71.71,0,0,0,.64-.44,3.12,3.12,0,0,0,.2-1.18,3.06,3.06,0,0,0-.2-1.17A.69.69,0,0,0,129.92,84.81Z" class="cls-5"/><path d="M98.42,97.31H92.81a.71.71,0,0,0-.64.44A3.07,3.07,0,0,0,92,98.93a3.11,3.11,0,0,0,.21,1.18.7.7,0,0,0,.64.43h5.61a.7.7,0,0,0,.64-.43,3.34,3.34,0,0,0,.2-1.18,3.24,3.24,0,0,0-.2-1.18A.71.71,0,0,0,98.42,97.31Z" class="cls-5"/><path d="M119.39,97.31h-5.61a.71.71,0,0,0-.64.44,3.24,3.24,0,0,0-.2,1.18,3.12,3.12,0,0,0,.2,1.18.7.7,0,0,0,.64.43h5.61a.7.7,0,0,0,.64-.43,3.34,3.34,0,0,0,.2-1.18,3.24,3.24,0,0,0-.2-1.18A.71.71,0,0,0,119.39,97.31Z" class="cls-5"/><path d="M150.71,84.81h-5.42a.69.69,0,0,0-.65.44,3,3,0,0,0-.21,1.17,3.11,3.11,0,0,0,.21,1.18.71.71,0,0,0,.65.44h5.42a.71.71,0,0,0,.65-.44,3.34,3.34,0,0,0,.2-1.18,3.27,3.27,0,0,0-.2-1.17A.69.69,0,0,0,150.71,84.81Z" class="cls-5"/><path d="M172.32,85.25a.68.68,0,0,0-.64-.44h-5.6a.68.68,0,0,0-.64.44,3,3,0,0,0-.21,1.17,3.11,3.11,0,0,0,.21,1.18.7.7,0,0,0,.64.44h5.6a.7.7,0,0,0,.64-.44,3.07,3.07,0,0,0,.21-1.18A3,3,0,0,0,172.32,85.25Z" class="cls-5"/><path d="M161.33,97.31h-5.78a.71.71,0,0,0-.65.44,3.34,3.34,0,0,0-.2,1.18,3.39,3.39,0,0,0,.2,1.18.7.7,0,0,0,.65.43h5.78a.69.69,0,0,0,.64-.43,3.17,3.17,0,0,0,.2-1.18,3.12,3.12,0,0,0-.2-1.18A.71.71,0,0,0,161.33,97.31Z" class="cls-5"/><path d="M140.27,97.31h-5.52a.71.71,0,0,0-.64.44,3.07,3.07,0,0,0-.21,1.18,3.11,3.11,0,0,0,.21,1.18.69.69,0,0,0,.64.43h5.52a.7.7,0,0,0,.65-.43,3.39,3.39,0,0,0,.2-1.18,3.34,3.34,0,0,0-.2-1.18A.71.71,0,0,0,140.27,97.31Z" class="cls-5"/><path d="M46,84.81h-5.6a.68.68,0,0,0-.64.44,3,3,0,0,0-.21,1.17,3.07,3.07,0,0,0,.21,1.18.7.7,0,0,0,.64.44H46a.71.71,0,0,0,.65-.44,3.34,3.34,0,0,0,.2-1.18,3.07,3.07,0,0,0-.21-1.18A.69.69,0,0,0,46,84.81Z" class="cls-5"/><path d="M67,84.81H61.4a.68.68,0,0,0-.64.44,3,3,0,0,0-.21,1.17,3.13,3.13,0,0,0,.21,1.19.7.7,0,0,0,.64.43H67a.71.71,0,0,0,.64-.44,3.34,3.34,0,0,0,.2-1.18,3.07,3.07,0,0,0-.21-1.18A.68.68,0,0,0,67,84.81Z" class="cls-5"/><path d="M56.46,97.31H51a.71.71,0,0,0-.64.44,3.29,3.29,0,0,0-.2,1.18,3.12,3.12,0,0,0,.2,1.18.7.7,0,0,0,.64.43h5.5a.7.7,0,0,0,.64-.43,3.34,3.34,0,0,0,.2-1.18,3,3,0,0,0-.21-1.18A.69.69,0,0,0,56.46,97.31Z" class="cls-5"/><path d="M77.83,97.46a.64.64,0,0,0-.41-.15H71.84a.71.71,0,0,0-.64.44,3,3,0,0,0-.2,1.18,3.12,3.12,0,0,0,.2,1.18.7.7,0,0,0,.64.43h5.61a.68.68,0,0,0,.63-.43,3,3,0,0,0,.21-1.18,3.09,3.09,0,0,0-.21-1.19A.62.62,0,0,0,77.83,97.46Z" class="cls-5"/><path d="M192.3,129.92c0,1.66,0,3-1.67,3H21.46c-1.66,0-1.67-1.35-1.67-3v-5.83c0-1.66,0-3,1.67-3H190.63c1.66,0,1.67,1.34,1.67,3Z" class="cls-6"/><rect width="172.58" height="4.54" x="19.76" y="113.96" class="cls-7"/><polygon points="131.44 115.53 106.51 130.53 80.65 115.53 131.44 115.53" class="cls-7"/><path d="M19.79,188.1v4c0,26.53,21.51,26.67,48,26.67h76.5c26.53,0,48-.14,48-26.67v-4Z" class="cls-4"/><path d="M28.32,193c0,4.17.32,7.06,6.09,4.17s12.83-6.73,27.59-6.42c-5.45,1.61-11.87,4.5-12.51,8.34s3.2,5.46,11.55,3.53c1,3.53,4.48,7.38,11.86,1s11.55-9,15.08-10.26,4.49.64.64,2.89-7.38,3.53-8,6.09,0,6.74,6.42,4.81c0,4.49,1.28,8.34,6.73,8.34s7.7-2.88,7.7-8.34c3.53,1.93,8.66,3.21,9-3.85S114,193,117.16,191.42s3.78,1.38,1.6,2.24c-2.87,1.15-4.11,3.21-4.16,5.45-.07,2.89,4.88,7.16,9.94,1.93.38,3.09,6.09,5.13,8-1.28s2.46-10.39,8.34-10.59c-4,1.46-6.42,7.38-1.29,9.3s7.7-2.89,8.34-4.49,2.25-5.13,7.06-4.81c-4.16,1.85-4.17,8.34,0,8.66s5.77-1,9-3.85a21.69,21.69,0,0,1,17.64-4.81c-1.61,4.17,1.3,5.85,3.89,5.35,3.16-.61,2.88-4.08,3.86-6.42H25v.11C22.39,189.81,20.62,196.55,28.32,193Z" class="cls-8"/><path d="M11.13,178.62c3.09-.16,4.44.61,6.68,1.9a21.19,21.19,0,0,0,13,3.32,21.11,21.11,0,0,0,12.54-4.7c2.09-1.52,3.34-2.44,6.45-2.61s4.44.61,6.68,1.9A22.29,22.29,0,0,0,82,177.05c2.09-1.52,3.35-2.44,6.45-2.61s4.45.61,6.69,1.9A22.29,22.29,0,0,0,120.65,175c2.08-1.52,3.34-2.43,6.44-2.6s4.45.61,6.68,1.9a22.29,22.29,0,0,0,25.53-1.39c2.09-1.52,3.34-2.43,6.44-2.6s4.45.61,6.69,1.89A22.31,22.31,0,0,0,198,170.77c2.09-1.52,3.35-2.43,6.45-2.6l2.21-.12-.22-4.16-2.22.12a21.93,21.93,0,0,0-13,4.86c-2,1.48-3.16,2.3-6,2.46s-4.07-.54-6.26-1.79A23.05,23.05,0,0,0,152.56,171c-2,1.49-3.16,2.3-6,2.46s-4.07-.54-6.26-1.79a23.1,23.1,0,0,0-26.37,1.42c-2,1.48-3.16,2.31-6,2.46s-4.07-.54-6.26-1.8a23.1,23.1,0,0,0-26.37,1.44c-2,1.48-3.16,2.3-6,2.45s-4.08-.54-6.26-1.79a21.77,21.77,0,0,0-13.41-3.43,21.77,21.77,0,0,0-13,4.86c-2,1.48-3.16,2.3-6,2.45s-4.08-.54-6.26-1.79a21.79,21.79,0,0,0-13.41-3.43l-2.21.12.22,4.15Z" class="cls-6"/><path d="M198.88,172a23.85,23.85,0,0,1-27.21,1.48c-2.13-1.23-3.2-1.84-5.84-1.7s-3.64.87-5.62,2.31A23.84,23.84,0,0,1,133,175.59c-2.12-1.23-3.19-1.84-5.83-1.7s-3.64.87-5.61,2.31a23.85,23.85,0,0,1-27.21,1.48c-2.13-1.23-3.2-1.84-5.84-1.7s-3.64.87-5.61,2.31a22.52,22.52,0,0,1-13.37,5,22.55,22.55,0,0,1-13.84-3.53c-2.12-1.23-3.19-1.84-5.83-1.7s-3.64.87-5.61,2.31a22.59,22.59,0,0,1-13.38,5A22.53,22.53,0,0,1,17,181.86c-2.12-1.23-3.19-1.84-5.83-1.7l-3,.17L8.47,185l3-.16c2.87-.15,4.07.53,6.26,1.79A21.77,21.77,0,0,0,31.13,190a21.8,21.8,0,0,0,13-4.85c2-1.49,3.16-2.31,6-2.46s4.07.53,6.25,1.79a21.88,21.88,0,0,0,13.41,3.43,21.74,21.74,0,0,0,13-4.86c2-1.48,3.16-2.3,6-2.45s4.07.53,6.26,1.8A23.1,23.1,0,0,0,121.39,181c2-1.48,3.16-2.29,6-2.45s4.07.53,6.26,1.79a23.08,23.08,0,0,0,26.37-1.43c2-1.48,3.16-2.3,6-2.45s4.07.53,6.26,1.79a23.09,23.09,0,0,0,26.38-1.43c2-1.48,3.15-2.3,6-2.46l3-.15-.25-4.63-3,.16C201.84,169.85,200.86,170.58,198.88,172Z" class="cls-6"/><path d="M38.19,115.61l-4.13,17.73h.53c7,0,12.64-7,12.64-12.94,0-4.55-3.25-8.63-11.59-8.63-10.26,0-21.93,6.23-21.93,19.42,0,4.07,1.13,4.71,1.23,5.43-5.8,0-9.4-2-9.4-7.35,0-11,15.27-21.17,31.86-21.17,12.9,0,18.69,6.15,18.69,12.7,0,4.72-3.07,9.75-8.78,12.7,7.46,1.36,10.36,6.87,10.36,12.86,0,7.67-4.56,23-19.22,23-3.77,0-8.69-1-8.69-5.91a12,12,0,0,1,1.15-4.64c2.19,2.08,3.86,2.88,5.88,2.88,6.4,0,8.68-8.31,8.68-14.38,0-5.59-1.93-10.14-8.33-10.14-.71,0-2.46.08-4,.23L25.9,168H13.27L25.2,117.2Z" class="cls-9"/><path d="M38.45,172.64c-4.29,0-7.58-1.13-9.62-3.17a3.27,3.27,0,0,1-2.93,1.81H13.27A3.26,3.26,0,0,1,10.7,170a3.29,3.29,0,0,1-.62-2.78l6.54-27.84a3.27,3.27,0,0,1-1.68.47c-11,0-12.67-6.66-12.67-10.62,0-13,16.42-24.44,35.13-24.44,10.93,0,22,4.94,22,16a16.74,16.74,0,0,1-5.29,11.83c4.39,2.79,6.87,7.61,6.87,13.73a32.43,32.43,0,0,1-4.6,16.11C52.21,169.12,46,172.64,38.45,172.64Zm-5.24-8.34c.52,1.19,2.28,1.8,5.24,1.8,13,0,15.95-14.62,15.95-19.74,0-3.76-1.33-8.49-7.67-9.64A3.27,3.27,0,0,1,44.08,134a2.82,2.82,0,0,1,0-.87,17.56,17.56,0,0,1-2.39,1.57c3.44,1.28,7.06,4.55,7.06,12.64,0,8.5-3.74,17.65-12,17.65A9.45,9.45,0,0,1,33.21,164.3Zm-15.81.44h5.91l6.6-28.07a3.25,3.25,0,0,1,1.22-1.87,3.27,3.27,0,0,1-.25-2.2l3.06-13.18-6.07.75Zm14.74-9a3.39,3.39,0,0,1,1,.66c1.94,1.83,2.83,2,3.64,2,3.94,0,5.41-6.82,5.41-11.11,0-6.34-2.61-6.87-5.06-6.87-.29,0-.8,0-1.41.05ZM21,120.77a14.49,14.49,0,0,0-4,10.42,6.08,6.08,0,0,0,.58,3.26c.05.09.11.19.16.3Zm-7.81-.47c-2.74,2.71-4.37,5.81-4.37,9,0,1.11,0,2.49,1.66,3.33,0-.44-.05-.91-.05-1.41A21.71,21.71,0,0,1,13.19,120.3Zm35.34-6.42a10.84,10.84,0,0,1,2,6.52,15.58,15.58,0,0,1-3.08,9.24c3.37-2.27,5.4-5.54,5.4-8.84C52.82,117.9,51.27,115.53,48.53,113.88Zm-7.12,2.28a1.29,1.29,0,0,1,0,.19l-2.95,12.7c3.22-1.76,5.54-5.46,5.54-8.65A4.5,4.5,0,0,0,41.41,116.16Z" class="cls-1"/><path d="M92.81,130l-5.48,25.88a10.53,10.53,0,0,0-.31,2.44c0,2.13,1,2.82,3.12,2.82,3,0,5-2.9,6.17-6.7h3.2c-4.34,12.41-11.19,14.08-15.3,14.08-4.34,0-7.08-2.51-7.54-7.23-3.81,6.24-8.07,7.23-11.27,7.23-4.56,0-8.14-2.74-8.14-9.13a24.88,24.88,0,0,1,.6-5L63,130H74l-5.48,25.88A10.86,10.86,0,0,0,68.3,158c0,1.76.6,3.13,2.28,3.13,3,0,5-2.9,6.09-6.7L81.85,130Z" class="cls-9"/><path d="M84.21,171.33a9.66,9.66,0,0,1-8.52-4.25,14.08,14.08,0,0,1-10.29,4.25c-5.29,0-10.94-3.14-10.94-11.93a27.3,27.3,0,0,1,.67-5.52l5.18-24.45A2.79,2.79,0,0,1,63,127.21H74a2.81,2.81,0,0,1,2.74,3.38l-5.48,25.88a8.14,8.14,0,0,0-.17,1.55,1.77,1.77,0,0,0,0,.24c1.51-.56,2.52-3.42,2.86-4.51l5.15-24.32a2.81,2.81,0,0,1,2.74-2.22h11a2.8,2.8,0,0,1,2.73,3.38l-5.48,25.88a8.31,8.31,0,0,0-.25,1.86v0h.33c1.53,0,2.81-2.43,3.49-4.71a2.8,2.8,0,0,1,2.68-2h3.2a2.8,2.8,0,0,1,2.64,3.72C97.53,168.56,89.85,171.33,84.21,171.33ZM77.92,158.8A2.78,2.78,0,0,1,79.45,161c.41,4.22,2.91,4.71,4.76,4.71a10,10,0,0,0,5.8-1.8c-5.22-.06-5.79-3.94-5.79-5.61a13.25,13.25,0,0,1,.38-3.06l4.76-22.47H84.11L79.4,155a1.74,1.74,0,0,1-.05.22A19.38,19.38,0,0,1,77.92,158.8Zm-12.61-26L60.6,155a22.51,22.51,0,0,0-.55,4.37c0,4.26,1.75,6.34,5.35,6.34a8.32,8.32,0,0,0,5.4-1.8h-.22c-2.34,0-5.08-1.56-5.08-5.93a13.63,13.63,0,0,1,.28-2.67l4.77-22.55Zm24.54,26h0Z" class="cls-1"/><path d="M112.44,130l-1,4.72c2.66-2.29,5.56-4.72,9.22-4.72,3.42,0,5.24,2.82,5.24,5.71a5.32,5.32,0,0,1-5.48,5.56c-4.26,0-2.13-5-4.41-5s-3.65,1.14-5.56,2.9l-6.09,28.93h-11L101.48,130Z" class="cls-9"/><path d="M104.37,170.87h-11a2.8,2.8,0,0,1-2.74-3.37l8.07-38.07a2.81,2.81,0,0,1,2.74-2.22h11a2.78,2.78,0,0,1,2.17,1,3.08,3.08,0,0,1,.32.48,12,12,0,0,1,5.74-1.52c4.58,0,8,3.66,8,8.51a8.14,8.14,0,0,1-8.28,8.35c-4.2,0-5.29-3-5.68-4.74a7.88,7.88,0,0,0-1.74,1.28l-5.9,28A2.8,2.8,0,0,1,104.37,170.87Zm-7.51-5.59h5.24l5.63-26.71a2.76,2.76,0,0,1,.84-1.48l.69-.63a2.74,2.74,0,0,1-.54-2.3l.28-1.36h-5.26Zm23.44-26.8h.13a2.58,2.58,0,0,0,2.69-2.76c0-.3-.07-2.92-2.45-2.92a6.69,6.69,0,0,0-3.2.91c2,.76,2.47,3.08,2.64,3.94A5.87,5.87,0,0,0,120.3,138.48Z" class="cls-1"/><path d="M158.39,130l-7.54,35.32c4.64-1.67,7.46-4.26,9.59-10.88h3.2c-3,10-8.76,12.94-13.48,14.23L149,174.16c-2.28,10.89-8.68,13-13.7,13-4.64,0-8.53-2.44-8.53-7.39,0-6.39,6.7-9.59,12.41-11.34l.92-4a12.24,12.24,0,0,1-9.14,4.19c-5.17,0-10.13-3.2-10.13-12.26,0-10.27,6.32-26.64,19.57-26.64,4.34,0,6.17,1.67,6.17,3.88V134l.84-4Zm-24.82,51.16c1.6,0,3.43-2.29,4.42-6.78l.45-2.21c-3.88,1.45-7.46,3.43-7.46,6.47A2.59,2.59,0,0,0,133.57,181.17Zm-1.45-26c0,5.87,2.44,6,3.81,6,2.06,0,5-2.06,6.09-6l3.88-18a3,3,0,0,0-3.12-2.82C136.31,134.35,132.12,148.05,132.12,155.2Z" class="cls-9"/><path d="M135.32,189.9c-6.77,0-11.32-4.09-11.32-10.18a11.33,11.33,0,0,1,4-8.7c-5.24-1.11-10-5.39-10-14.75,0-12.34,7.77-29.44,22.36-29.44a12.22,12.22,0,0,1,5.25,1,2.75,2.75,0,0,1,1.76-.63h11a2.8,2.8,0,0,1,2.73,3.38L155,159.29a17.86,17.86,0,0,0,2.78-5.7,2.81,2.81,0,0,1,2.66-1.94h3.2a2.79,2.79,0,0,1,2.68,3.59c-3.06,10.37-9,14-13.76,15.63l-.8,3.86C149.13,187.27,141.37,189.9,135.32,189.9Zm-2.86-6.05a8.42,8.42,0,0,0,2.86.46c3.74,0,9-1.11,11-10.72l1.14-5.48a2.83,2.83,0,0,1,.91-1.55,2.81,2.81,0,0,1-.22-1.81l6.82-31.95h-5.25l-.37,1.75a2.77,2.77,0,0,1-.79,1.43,6,6,0,0,1,.16.93,3,3,0,0,1-.06.84l-3.88,18,0,.15a11.84,11.84,0,0,1-3.56,5.81l.27.12a2.81,2.81,0,0,1,1.41,3.09l-.91,4a2.86,2.86,0,0,1-1.13,1.68,2.81,2.81,0,0,1,.38,2.07l-.45,2.21c-1.27,5.73-3.87,9-7.16,9A5.65,5.65,0,0,1,132.46,183.85Zm6.64-51.36c-10.77,1.13-15.45,16-15.45,23.78,0,6.19,2.53,9.47,7.33,9.47a8.87,8.87,0,0,0,5.44-1.82l-.49,0c-4.38,0-6.6-2.95-6.6-8.75S132.28,136.13,139.1,132.49Zm3.68,4.65c-3.64,0-7.86,10.93-7.86,18.06,0,2.54.53,3.16.54,3.17a2.91,2.91,0,0,1,.47,0c.68,0,2.6-1.1,3.38-3.82L143,137.19l0,0S142.94,137.14,142.78,137.14Z" class="cls-1"/><path d="M173.68,162.14c6,0,9.67-3.35,13.48-7.69h2.59c-4.34,7-10.81,14.08-20.94,14.08-7.16,0-11.87-3.5-11.87-12.11s4.94-27.1,20.55-27.1c6.78,0,8.37,3.51,8.37,7.31,0,8.75-8.37,15.53-17.5,16.07-.08,1.06-.16,2.13-.16,3C168.2,160.92,170,162.14,173.68,162.14Zm4.42-28.78c-3.88,0-7.61,8.14-9.14,15.68,5.87-.38,11-6.24,11-12.56C180,134.57,179.55,133.36,178.1,133.36Z" class="cls-9"/><path d="M168.81,171.33c-9.32,0-14.67-5.44-14.67-14.9,0-9.76,5.71-29.9,23.35-29.9,7.2,0,11.17,3.59,11.17,10.1,0,9-7.72,16.92-17.65,18.58,0,.18,0,.36,0,.53,0,3.6.57,3.6,2.68,3.6,4.59,0,7.54-2.37,11.38-6.74a2.81,2.81,0,0,1,2.1-.95h2.59a2.8,2.8,0,0,1,2.37,4.27C185.7,166.29,178.08,171.33,168.81,171.33Zm4.51-38.63c-10.17,3-13.59,16.68-13.59,23.73,0,6.43,2.8,9.31,9.08,9.31a17.05,17.05,0,0,0,5.25-.81h-.38c-5.64,0-8.27-2.92-8.27-9.19,0-1,.08-2.16.16-3.25a2.78,2.78,0,0,1,1-2,2.84,2.84,0,0,1-.38-2.05C166.51,147.07,168.66,137.13,173.32,132.7Zm3.89,4c-1.16,1.11-2.82,3.91-4.17,7.9A10.54,10.54,0,0,0,177.21,136.68Zm5.19-3a8.53,8.53,0,0,1,.4,2.76,15.1,15.1,0,0,1-.8,4.83,11,11,0,0,0,1.07-4.68A4.84,4.84,0,0,0,182.4,133.72Z" class="cls-1"/><path d="M201.36,130l-1,4.72c2.67-2.29,5.56-4.72,9.21-4.72,3.43,0,5.26,2.82,5.26,5.71a5.33,5.33,0,0,1-5.49,5.56c-4.26,0-2.12-5-4.41-5s-3.65,1.14-5.55,2.9l-6.1,28.93h-11L190.4,130Z" class="cls-9"/><path d="M193.29,170.87h-11a2.78,2.78,0,0,1-2.73-3.37l8.07-38.07a2.79,2.79,0,0,1,2.73-2.22h11a2.81,2.81,0,0,1,2.17,1,3.74,3.74,0,0,1,.32.49,12,12,0,0,1,5.73-1.52c4.59,0,8.06,3.66,8.06,8.51a8.15,8.15,0,0,1-8.29,8.35c-4.2,0-5.28-3-5.68-4.74a8.12,8.12,0,0,0-1.74,1.28l-5.9,28A2.79,2.79,0,0,1,193.29,170.87Zm-7.51-5.59H191l5.63-26.71a2.8,2.8,0,0,1,.84-1.48l.69-.63a2.81,2.81,0,0,1-.54-2.3l.28-1.36h-5.26Zm23.44-26.8h.13a2.57,2.57,0,0,0,2.69-2.76c0-.3-.06-2.92-2.46-2.92a6.72,6.72,0,0,0-3.18.91c2,.77,2.46,3.08,2.63,3.94C209.08,137.89,209.15,138.25,209.22,138.48Z" class="cls-1"/><path d="M38.19,115.61l-4.13,17.73h.53c7,0,12.64-7,12.64-12.94,0-4.55-3.25-8.63-11.59-8.63-10.26,0-21.93,6.23-21.93,19.42,0,4.07,1.13,4.71,1.23,5.43-5.8,0-9.4-2-9.4-7.35,0-11,15.27-21.17,31.86-21.17,12.9,0,18.69,6.15,18.69,12.7,0,4.72-3.07,9.75-8.78,12.7,7.46,1.36,10.36,6.87,10.36,12.86,0,7.67-4.56,23-19.22,23-3.77,0-8.69-1-8.69-5.91a12,12,0,0,1,1.15-4.64c2.19,2.08,3.86,2.88,5.88,2.88,6.4,0,8.68-8.31,8.68-14.38,0-5.59-1.93-10.14-8.33-10.14-.71,0-2.46.08-4,.23L25.9,168H13.27L25.2,117.2Z" class="cls-10"/><path d="M92.81,130l-5.48,25.88a10.53,10.53,0,0,0-.31,2.44c0,2.13,1,2.82,3.12,2.82,3,0,5-2.9,6.17-6.7h3.2c-4.34,12.41-11.19,14.08-15.3,14.08-4.34,0-7.08-2.51-7.54-7.23-3.81,6.24-8.07,7.23-11.27,7.23-4.56,0-8.14-2.74-8.14-9.13a24.88,24.88,0,0,1,.6-5L63,130H74l-5.48,25.88A10.86,10.86,0,0,0,68.3,158c0,1.76.6,3.13,2.28,3.13,3,0,5-2.9,6.09-6.7L81.85,130Z" class="cls-10"/><path d="M112.44,130l-1,4.72c2.66-2.29,5.56-4.72,9.22-4.72,3.42,0,5.24,2.82,5.24,5.71a5.32,5.32,0,0,1-5.48,5.56c-4.26,0-2.13-5-4.41-5s-3.65,1.14-5.56,2.9l-6.09,28.93h-11L101.48,130Z" class="cls-10"/><path d="M158.39,130l-7.54,35.32c4.64-1.67,7.46-4.26,9.59-10.88h3.2c-3,10-8.76,12.94-13.48,14.23L149,174.16c-2.28,10.89-8.68,13-13.7,13-4.64,0-8.53-2.44-8.53-7.39,0-6.39,6.7-9.59,12.41-11.34l.92-4a12.24,12.24,0,0,1-9.14,4.19c-5.17,0-10.13-3.2-10.13-12.26,0-10.27,6.32-26.64,19.57-26.64,4.34,0,6.17,1.67,6.17,3.88V134l.84-4Zm-24.82,51.16c1.6,0,3.43-2.29,4.42-6.78l.45-2.21c-3.88,1.45-7.46,3.43-7.46,6.47A2.59,2.59,0,0,0,133.57,181.17Zm-1.45-26c0,5.87,2.44,6,3.81,6,2.06,0,5-2.06,6.09-6l3.88-18a3,3,0,0,0-3.12-2.82C136.31,134.35,132.12,148.05,132.12,155.2Z" class="cls-10"/><path d="M173.68,162.14c6,0,9.67-3.35,13.48-7.69h2.59c-4.34,7-10.81,14.08-20.94,14.08-7.16,0-11.87-3.5-11.87-12.11s4.94-27.1,20.55-27.1c6.78,0,8.37,3.51,8.37,7.31,0,8.75-8.37,15.53-17.5,16.07-.08,1.06-.16,2.13-.16,3C168.2,160.92,170,162.14,173.68,162.14Zm4.42-28.78c-3.88,0-7.61,8.14-9.14,15.68,5.87-.38,11-6.24,11-12.56C180,134.57,179.55,133.36,178.1,133.36Z" class="cls-10"/><path d="M201.36,130l-1,4.72c2.67-2.29,5.56-4.72,9.21-4.72,3.43,0,5.26,2.82,5.26,5.71a5.33,5.33,0,0,1-5.49,5.56c-4.26,0-2.12-5-4.41-5s-3.65,1.14-5.55,2.9l-6.1,28.93h-11L190.4,130Z" class="cls-10"/><path d="M192.22,107.43v4H158.51l-19.76-10.88-4.85-2.67-61.36-34c12.18-4.47,16.75-12.47,33.86-12.47C163.18,51.39,192.22,80.88,192.22,107.43Z" class="cls-11"/><path d="M172.46,63.05a4.59,4.59,0,0,0-8.37-3.77c-1.05,2.32-18.41,52.09-18.41,52.09S171.42,65.36,172.46,63.05Z" class="cls-7"/><circle cx="201.01" cy="103.06" r="5.24" class="cls-7"/><circle cx="10.06" cy="99.84" r="3.64" class="cls-7"/><path d="M14.36,65.7c2.13,2.13,12.52,4.81,12.52,4.81S24.19,60.13,22.07,58a5.45,5.45,0,0,0-7.71,7.7Z" class="cls-7"/><path d="M142.11,35.09c-.73,2.5,1.55,11.48,1.55,11.48s6.75-6.34,7.48-8.83a4.71,4.71,0,0,0-9-2.65Z" class="cls-7"/><path d="M68.17,49.2c.24,1.36,3.44,5.12,3.44,5.12s1.74-4.62,1.5-6a2.51,2.51,0,0,0-4.94.87Z" class="cls-7"/><path d="M96.54,35.7a3.72,3.72,0,0,0-7.4.74c.2,2.05,8.12,44,8.12,44S96.74,37.75,96.54,35.7Z" class="cls-7"/><path d="M133.2,48.92a3.72,3.72,0,1,0-7.29-1.44c-.4,2-5,44.46-5,44.46S132.81,50.93,133.2,48.92Z" class="cls-7"/><path d="M208,70.54a3.12,3.12,0,0,0-4.17-4.65C202.55,67,178.05,93.2,178.05,93.2S206.71,71.69,208,70.54Z" class="cls-7"/><path d="M43.23,46.76a3.72,3.72,0,0,0-6.49,3.62c1,1.8,25,37.12,25,37.12S44.23,48.55,43.23,46.76Z" class="cls-7"/><ellipse cx="68.27" cy="202.59" class="cls-1" rx="2.15" ry="4.34"/><polygon points="176 219.18 70.8 219.18 74.54 204.35 176 204.35 176 219.18" class="cls-1"/><path d="M81,204.59l-.64,3H74.54L71.3,222.63H65.53l5.77-26.77c-3.09.12-5.21,1.88-5.21,8.29a5.6,5.6,0,0,0,.56,2.73c-2.77,0-4.29-1-4.29-3.89,0-5.33,3.77-10.42,13.67-10.42,1.6,0,4.12.48,6.65.48a11.86,11.86,0,0,0,3.6-.48c-.56,1.69-.68,4.13-3.8,4.81a26.93,26.93,0,0,1-5.61-.76l-1.69,8Z" class="cls-10"/><path d="M88.89,202.59l-.52,2.48c1.4-1.2,2.92-2.48,4.84-2.48a3,3,0,0,1-.12,5.93c-2.24,0-1.12-2.64-2.32-2.64s-1.92.6-2.92,1.52l-3.21,15.23H78.87l4.25-20Z" class="cls-10"/><path d="M111,208.64a.94.94,0,0,0,.44.08c1.84,0,4.45-1.2,6.17-2.4l.36,1.08a12.67,12.67,0,0,1-7.09,3.32c-.64,7.42-4.65,12.07-9.58,12.07-3.73,0-6.41-1.77-6.41-6.34s2.72-14.22,11-14.22C109.32,202.23,111,204.43,111,208.64Zm-3.45,2.21c-.84-.21-1.08-.89-1.08-1.69a2.2,2.2,0,0,1,1.24-2.16c-.08-1.69-.48-2.33-1.52-2.33-2.85,0-5.33,7.34-5.33,11.26,0,2.65.52,3.25,2,3.25C104.88,219.18,106.92,215.57,107.56,210.85Z" class="cls-10"/><path d="M133.05,206.08c-1.45,0-2.53,1.68-3.13,3.68l-2.72,12.87h-5.77l2.92-13.83a4,4,0,0,0,.12-1c0-.88-.32-1.76-1.2-1.76-1.56,0-2.65,1.72-3.25,3.72l-2.72,12.87h-5.77l4.25-20h5.77l-.44,2.08a6.15,6.15,0,0,1,4.88-2.28,3.78,3.78,0,0,1,4.13,3.45c1.92-3,4.09-3.41,5.57-3.41,2.57,0,4.45,1.32,4.45,4.53s-1.92,8.09-1.92,10.34c0,1,.4,1.68,1.6,1.68,1.76,0,2.48-1.44,3.36-3.53h1.69c-2.25,6.57-5.33,7.42-7.46,7.42-3.48,0-4.72-2.25-4.72-4.53,0-2.73,1.8-7.66,1.8-10.22C134.49,206.8,134,206.08,133.05,206.08Z" class="cls-10"/><path d="M162.42,202.59l-2.89,13.62a5.69,5.69,0,0,0-.16,1.29c0,1.12.52,1.72,1.65,1.72,1.56,0,2.64-1.76,3.24-3.77h1.68c-2.28,6.53-5.89,7.42-8.05,7.42a3.68,3.68,0,0,1-3.93-3.69c-1.24,1.84-3.12,3.69-6,3.69s-5.33-1.69-5.33-6.46c0-5.4,3.33-14,10.3-14,2.28,0,3.25.88,3.25,2v.28l.44-2.12Zm-13.83,13.26c0,3.09,1.28,3.13,2,3.13,1.16,0,2.84-1.2,3.32-3.53l1.93-9a1.57,1.57,0,0,0-1.65-1.53C150.8,204.87,148.59,212.09,148.59,215.85Z" class="cls-10"/><path d="M183.49,202.59l-4,18.59c2.44-.88,3.92-2.24,5.05-5.73h1.68c-1.56,5.29-4.61,6.81-7.09,7.5l-.61,2.88c-1.2,5.73-4.56,6.81-7.21,6.81-2.44,0-4.49-1.28-4.49-3.88,0-3.37,3.53-5,6.54-6l.48-2.13a6.47,6.47,0,0,1-4.81,2.21c-2.73,0-5.33-1.69-5.33-6.46,0-5.4,3.32-14,10.3-14,2.28,0,3.24.88,3.24,2v.24l.44-2.08Zm-13.06,26.93c.84,0,1.8-1.2,2.32-3.57l.25-1.16c-2.05.76-3.93,1.8-3.93,3.41A1.36,1.36,0,0,0,170.43,229.52Zm-.76-13.67c0,3.09,1.28,3.13,2,3.13a3.91,3.91,0,0,0,3.21-3.13l2-9.49a1.58,1.58,0,0,0-1.64-1.49C171.87,204.87,169.67,212.09,169.67,215.85Z" class="cls-10"/><path d="M192.43,219.06a8.2,8.2,0,0,0,4.73-2.12c-.84,4.56-3.73,5.93-6.93,5.93-3.73,0-6.21-1.85-6.21-6.38s2.6-14.26,10.81-14.26c3.57,0,4.41,1.84,4.41,3.85,0,4.64-4.41,8.17-9.21,8.45,0,.4-.08.84-.08,1.2C190,218.26,191,219.06,192.43,219.06Zm2.73-14.71c-2,0-4,4.45-4.85,8.26,3.12-.16,5.85-3.25,5.85-6.61C196.16,205,195.92,204.35,195.16,204.35Z" class="cls-10"/><path d="M81,204.59l-.64,3H74.54L71.3,222.63H65.53l5.77-26.77c-3.09.12-5.21,1.88-5.21,8.29a5.6,5.6,0,0,0,.56,2.73c-2.77,0-4.29-1-4.29-3.89,0-5.33,3.77-10.42,13.67-10.42,1.6,0,4.12.48,6.65.48a11.86,11.86,0,0,0,3.6-.48c-.56,1.69-.68,4.13-3.8,4.81a26.93,26.93,0,0,1-5.61-.76l-1.69,8Z" class="cls-12"/><path d="M88.89,202.59l-.52,2.48c1.4-1.2,2.92-2.48,4.84-2.48a3,3,0,0,1-.12,5.93c-2.24,0-1.12-2.64-2.32-2.64s-1.92.6-2.92,1.52l-3.21,15.23H78.87l4.25-20Z" class="cls-12"/><path d="M111,208.64a.94.94,0,0,0,.44.08c1.84,0,4.45-1.2,6.17-2.4l.36,1.08a12.67,12.67,0,0,1-7.09,3.32c-.64,7.42-4.65,12.07-9.58,12.07-3.73,0-6.41-1.77-6.41-6.34s2.72-14.22,11-14.22C109.32,202.23,111,204.43,111,208.64Zm-3.45,2.21c-.84-.21-1.08-.89-1.08-1.69a2.2,2.2,0,0,1,1.24-2.16c-.08-1.69-.48-2.33-1.52-2.33-2.85,0-5.33,7.34-5.33,11.26,0,2.65.52,3.25,2,3.25C104.88,219.18,106.92,215.57,107.56,210.85Z" class="cls-12"/><path d="M133.05,206.08c-1.45,0-2.53,1.68-3.13,3.68l-2.72,12.87h-5.77l2.92-13.83a4,4,0,0,0,.12-1c0-.88-.32-1.76-1.2-1.76-1.56,0-2.65,1.72-3.25,3.72l-2.72,12.87h-5.77l4.25-20h5.77l-.44,2.08a6.15,6.15,0,0,1,4.88-2.28,3.78,3.78,0,0,1,4.13,3.45c1.92-3,4.09-3.41,5.57-3.41,2.57,0,4.45,1.32,4.45,4.53s-1.92,8.09-1.92,10.34c0,1,.4,1.68,1.6,1.68,1.76,0,2.48-1.44,3.36-3.53h1.69c-2.25,6.57-5.33,7.42-7.46,7.42-3.48,0-4.72-2.25-4.72-4.53,0-2.73,1.8-7.66,1.8-10.22C134.49,206.8,134,206.08,133.05,206.08Z" class="cls-12"/><path d="M162.42,202.59l-2.89,13.62a5.69,5.69,0,0,0-.16,1.29c0,1.12.52,1.72,1.65,1.72,1.56,0,2.64-1.76,3.24-3.77h1.68c-2.28,6.53-5.89,7.42-8.05,7.42a3.68,3.68,0,0,1-3.93-3.69c-1.24,1.84-3.12,3.69-6,3.69s-5.33-1.69-5.33-6.46c0-5.4,3.33-14,10.3-14,2.28,0,3.25.88,3.25,2v.28l.44-2.12Zm-13.83,13.26c0,3.09,1.28,3.13,2,3.13,1.16,0,2.84-1.2,3.32-3.53l1.93-9a1.57,1.57,0,0,0-1.65-1.53C150.8,204.87,148.59,212.09,148.59,215.85Z" class="cls-12"/><path d="M183.49,202.59l-4,18.59c2.44-.88,3.92-2.24,5.05-5.73h1.68c-1.56,5.29-4.61,6.81-7.09,7.5l-.61,2.88c-1.2,5.73-4.56,6.81-7.21,6.81-2.44,0-4.49-1.28-4.49-3.88,0-3.37,3.53-5,6.54-6l.48-2.13a6.47,6.47,0,0,1-4.81,2.21c-2.73,0-5.33-1.69-5.33-6.46,0-5.4,3.32-14,10.3-14,2.28,0,3.24.88,3.24,2v.24l.44-2.08Zm-13.06,26.93c.84,0,1.8-1.2,2.32-3.57l.25-1.16c-2.05.76-3.93,1.8-3.93,3.41A1.36,1.36,0,0,0,170.43,229.52Zm-.76-13.67c0,3.09,1.28,3.13,2,3.13a3.91,3.91,0,0,0,3.21-3.13l2-9.49a1.58,1.58,0,0,0-1.64-1.49C171.87,204.87,169.67,212.09,169.67,215.85Z" class="cls-12"/><path d="M192.43,219.06a8.2,8.2,0,0,0,4.73-2.12c-.84,4.56-3.73,5.93-6.93,5.93-3.73,0-6.21-1.85-6.21-6.38s2.6-14.26,10.81-14.26c3.57,0,4.41,1.84,4.41,3.85,0,4.64-4.41,8.17-9.21,8.45,0,.4-.08.84-.08,1.2C190,218.26,191,219.06,192.43,219.06Zm2.73-14.71c-2,0-4,4.45-4.85,8.26,3.12-.16,5.85-3.25,5.85-6.61C196.16,205,195.92,204.35,195.16,204.35Z" class="cls-12"/><path d="M81,204.59l-.64,3H74.54L71.3,222.63H65.53l5.77-26.77c-3.09.12-5.21,1.88-5.21,8.29a5.6,5.6,0,0,0,.56,2.73c-2.77,0-4.29-1-4.29-3.89,0-5.33,3.77-10.42,13.67-10.42,1.6,0,4.12.48,6.65.48a11.86,11.86,0,0,0,3.6-.48c-.56,1.69-.68,4.13-3.8,4.81a26.93,26.93,0,0,1-5.61-.76l-1.69,8Z" class="cls-7"/><path d="M88.89,202.59l-.52,2.48c1.4-1.2,2.92-2.48,4.84-2.48a3,3,0,0,1-.12,5.93c-2.24,0-1.12-2.64-2.32-2.64s-1.92.6-2.92,1.52l-3.21,15.23H78.87l4.25-20Z" class="cls-7"/><path d="M111,208.64a.94.94,0,0,0,.44.08c1.84,0,4.45-1.2,6.17-2.4l.36,1.08a12.67,12.67,0,0,1-7.09,3.32c-.64,7.42-4.65,12.07-9.58,12.07-3.73,0-6.41-1.77-6.41-6.34s2.72-14.22,11-14.22C109.32,202.23,111,204.43,111,208.64Zm-3.45,2.21c-.84-.21-1.08-.89-1.08-1.69a2.2,2.2,0,0,1,1.24-2.16c-.08-1.69-.48-2.33-1.52-2.33-2.85,0-5.33,7.34-5.33,11.26,0,2.65.52,3.25,2,3.25C104.88,219.18,106.92,215.57,107.56,210.85Z" class="cls-7"/><path d="M133.05,206.08c-1.45,0-2.53,1.68-3.13,3.68l-2.72,12.87h-5.77l2.92-13.83a4,4,0,0,0,.12-1c0-.88-.32-1.76-1.2-1.76-1.56,0-2.65,1.72-3.25,3.72l-2.72,12.87h-5.77l4.25-20h5.77l-.44,2.08a6.15,6.15,0,0,1,4.88-2.28,3.78,3.78,0,0,1,4.13,3.45c1.92-3,4.09-3.41,5.57-3.41,2.57,0,4.45,1.32,4.45,4.53s-1.92,8.09-1.92,10.34c0,1,.4,1.68,1.6,1.68,1.76,0,2.48-1.44,3.36-3.53h1.69c-2.25,6.57-5.33,7.42-7.46,7.42-3.48,0-4.72-2.25-4.72-4.53,0-2.73,1.8-7.66,1.8-10.22C134.49,206.8,134,206.08,133.05,206.08Z" class="cls-7"/><path d="M162.42,202.59l-2.89,13.62a5.69,5.69,0,0,0-.16,1.29c0,1.12.52,1.72,1.65,1.72,1.56,0,2.64-1.76,3.24-3.77h1.68c-2.28,6.53-5.89,7.42-8.05,7.42a3.68,3.68,0,0,1-3.93-3.69c-1.24,1.84-3.12,3.69-6,3.69s-5.33-1.69-5.33-6.46c0-5.4,3.33-14,10.3-14,2.28,0,3.25.88,3.25,2v.28l.44-2.12Zm-13.83,13.26c0,3.09,1.28,3.13,2,3.13,1.16,0,2.84-1.2,3.32-3.53l1.93-9a1.57,1.57,0,0,0-1.65-1.53C150.8,204.87,148.59,212.09,148.59,215.85Z" class="cls-7"/><path d="M183.49,202.59l-4,18.59c2.44-.88,3.92-2.24,5.05-5.73h1.68c-1.56,5.29-4.61,6.81-7.09,7.5l-.61,2.88c-1.2,5.73-4.56,6.81-7.21,6.81-2.44,0-4.49-1.28-4.49-3.88,0-3.37,3.53-5,6.54-6l.48-2.13a6.47,6.47,0,0,1-4.81,2.21c-2.73,0-5.33-1.69-5.33-6.46,0-5.4,3.32-14,10.3-14,2.28,0,3.24.88,3.24,2v.24l.44-2.08Zm-13.06,26.93c.84,0,1.8-1.2,2.32-3.57l.25-1.16c-2.05.76-3.93,1.8-3.93,3.41A1.36,1.36,0,0,0,170.43,229.52Zm-.76-13.67c0,3.09,1.28,3.13,2,3.13a3.91,3.91,0,0,0,3.21-3.13l2-9.49a1.58,1.58,0,0,0-1.64-1.49C171.87,204.87,169.67,212.09,169.67,215.85Z" class="cls-7"/><path d="M192.43,219.06a8.2,8.2,0,0,0,4.73-2.12c-.84,4.56-3.73,5.93-6.93,5.93-3.73,0-6.21-1.85-6.21-6.38s2.6-14.26,10.81-14.26c3.57,0,4.41,1.84,4.41,3.85,0,4.64-4.41,8.17-9.21,8.45,0,.4-.08.84-.08,1.2C190,218.26,191,219.06,192.43,219.06Zm2.73-14.71c-2,0-4,4.45-4.85,8.26,3.12-.16,5.85-3.25,5.85-6.61C196.16,205,195.92,204.35,195.16,204.35Z" class="cls-7"/><path d="M61.26,220.91a2.28,2.28,0,0,1-2-1,3.45,3.45,0,0,1-2.52,1,2.43,2.43,0,0,1-2.1-1,3.78,3.78,0,0,1-2.61,1,2.33,2.33,0,0,1-2-1,3.5,3.5,0,0,1-2.49,1c-1.48,0-3.08-.95-3.08-3.6,0-3,1.86-7.05,5.36-7.05a2.79,2.79,0,0,1,1.26.25.65.65,0,0,1,.42-.16h2.63a.65.65,0,0,1,.64.78l-1.32,6.22a2.13,2.13,0,0,0,0,.46.45.45,0,0,0,0,.13h.08c.29,0,.64-.52.86-1.25l1.24-5.83a.64.64,0,0,1,.64-.51h2.63a.65.65,0,0,1,.63.78l-1.32,6.22a1.84,1.84,0,0,0,0,.33v.13c.41-.12.66-.88.73-1.12l1.23-5.83a.64.64,0,0,1,.64-.51h2.63a.65.65,0,0,1,.64.78l-1.32,6.22a2.13,2.13,0,0,0,0,.46v0h.1a.58.58,0,0,0,.31-.05.75.75,0,0,1,.26-.05.67.67,0,0,1,.39.12.65.65,0,0,1,.28.56A2.57,2.57,0,0,1,61.26,220.91Zm-10.92-8.22c-.9,0-1.9,2.6-1.9,4.37,0,.62.13.77.13.77h.13c.19,0,.72-.31.88-1.09l.86-4S50.39,212.69,50.34,212.69Z" class="cls-7"/><path d="M49.77,210.91c1,0,1.48.4,1.48.93V212l.21-1h2.63l-1.32,6.22a2.82,2.82,0,0,0-.07.59c0,.51.24.78.75.78.71,0,1.21-.8,1.48-1.72L56.18,211h2.63l-1.32,6.22a2.4,2.4,0,0,0-.05.46c0,.42.13.8.55.8.71,0,1.19-.69,1.46-1.61L60.69,211h2.64L62,217.22a2.82,2.82,0,0,0-.07.59c0,.51.24.67.75.67a1.29,1.29,0,0,0,.6-.11,1.92,1.92,0,0,1-2,1.89,1.76,1.76,0,0,1-1.79-1.74,3.05,3.05,0,0,1-2.73,1.74,1.79,1.79,0,0,1-1.9-1.62A3.28,3.28,0,0,1,52,220.26a1.68,1.68,0,0,1-1.79-1.69,3.31,3.31,0,0,1-2.73,1.69c-1.24,0-2.43-.77-2.43-2.95,0-2.47,1.52-6.4,4.7-6.4m-1.08,7.57a1.84,1.84,0,0,0,1.52-1.61l.88-4.13a.72.72,0,0,0-.75-.7c-1.56,0-2.56,3.3-2.56,5,0,1.4.58,1.42.91,1.42M63.33,211h0m-13.57-1.39c-4.09,0-6,4.59-6,7.7s2,4.25,3.73,4.25a4.08,4.08,0,0,0,2.41-.78,3,3,0,0,0,2.11.78,4.37,4.37,0,0,0,2.54-.79,3.17,3.17,0,0,0,2.18.79,4,4,0,0,0,2.44-.78,3,3,0,0,0,2.08.78,3.22,3.22,0,0,0,3.33-3.1,1.31,1.31,0,0,0-1.21-1.39l1.21-5.72a1.34,1.34,0,0,0,0-.35,1.3,1.3,0,0,0-1.3-1.3H60.69a1.31,1.31,0,0,0-.94.4,1.31,1.31,0,0,0-.94-.4H56.18a1.28,1.28,0,0,0-1,.53l0,0a1.29,1.29,0,0,0-1-.48H51.46a1.18,1.18,0,0,0-.46.09,3.71,3.71,0,0,0-1.23-.18Z" class="cls-1"/><path d="M149.45,24.2h.7l.79,2.23h0l.76-2.23h.69v2.85h-.47v-2.2h0l-.79,2.2h-.41l-.78-2.2h0v2.2h-.48Z" class="cls-13"/><path d="M153,24.2h1.18a1.26,1.26,0,0,1,.57.12,1,1,0,0,1,.39.3,1.35,1.35,0,0,1,.22.45,2,2,0,0,1,.07.56,2,2,0,0,1-.07.55,1.35,1.35,0,0,1-.22.45,1.19,1.19,0,0,1-.39.31,1.41,1.41,0,0,1-.57.11H153Zm.5,2.44H154a1.34,1.34,0,0,0,.48-.08.7.7,0,0,0,.29-.21.84.84,0,0,0,.14-.32,2.58,2.58,0,0,0,0-.4,2.35,2.35,0,0,0,0-.4.82.82,0,0,0-.14-.33.7.7,0,0,0-.29-.21,1.34,1.34,0,0,0-.48-.08h-.49Z" class="cls-13"/><path d="M156.63,24.14h.43l-1.14,3h-.43Z" class="cls-13"/><path d="M160,25.63a1.46,1.46,0,0,1-.12.6,1.31,1.31,0,0,1-.32.47,1.44,1.44,0,0,1-.46.31,1.5,1.5,0,0,1-.56.1A1.44,1.44,0,0,1,158,27a1.33,1.33,0,0,1-.46-.31,1.35,1.35,0,0,1-.3-.47,1.47,1.47,0,0,1-.11-.59,1.66,1.66,0,0,1,.11-.61,1.45,1.45,0,0,1,.32-.47,1.67,1.67,0,0,1,.47-.31,1.54,1.54,0,0,1,.56-.1,1.5,1.5,0,0,1,.56.1,1.62,1.62,0,0,1,.46.31,1.31,1.31,0,0,1,.32.47A1.48,1.48,0,0,1,160,25.63Zm-.32,0a1.31,1.31,0,0,0-.09-.5,1.28,1.28,0,0,0-.24-.39,1,1,0,0,0-.36-.26,1.31,1.31,0,0,0-.9,0,1,1,0,0,0-.36.26,1.14,1.14,0,0,0-.25.39,1.31,1.31,0,0,0-.08.5,1.45,1.45,0,0,0,.07.47,1.26,1.26,0,0,0,.23.39,1.08,1.08,0,0,0,.84.37,1.13,1.13,0,0,0,.45-.09,1,1,0,0,0,.36-.26,1.23,1.23,0,0,0,.24-.38A1.35,1.35,0,0,0,159.71,25.63Zm-1.43.85H158V24.83h.62a.78.78,0,0,1,.45.11.42.42,0,0,1,.15.36.42.42,0,0,1-.12.33.54.54,0,0,1-.31.12l.46.73H159l-.43-.71h-.25Zm.3-.94h.15l.12,0a.2.2,0,0,0,.08-.08.26.26,0,0,0,0-.14.21.21,0,0,0,0-.12.15.15,0,0,0-.09-.06.2.2,0,0,0-.11,0h-.45v.48Z" class="cls-13"/><path d="M59.22,26.51,53.5,20.4l2.36-2.22a3,3,0,0,1,.93-.61,2.14,2.14,0,0,1,1-.16,2.3,2.3,0,0,1,.94.27,3.26,3.26,0,0,1,.88.69,3.44,3.44,0,0,1,.63.92,2.22,2.22,0,0,1,.21,1,2.27,2.27,0,0,1-.22.94,3.17,3.17,0,0,1-.67.88l-1,1,2.09,2.22ZM57.47,22l.71-.67a1.26,1.26,0,0,0,.48-.77,1.09,1.09,0,0,0-.36-.75l-.25-.26a1,1,0,0,0-.72-.41,1.22,1.22,0,0,0-.81.42l-.71.67Z" class="cls-13"/><path d="M63.54,20.79l1.19-.8-1.89-2.83L61.65,18l-.77-1.16L63.54,15l1,1.46.07,0a3.22,3.22,0,0,1-.17-.68,2.21,2.21,0,0,1,0-.68,1.77,1.77,0,0,1,.26-.64,2.22,2.22,0,0,1,.58-.56l.49-.33.91,1.36-1.1.73a1.28,1.28,0,0,0-.62.88,1.41,1.41,0,0,0,.25,1l1,1.52,1.7-1.13L68.67,19l-4.36,2.9Z" class="cls-13"/><path d="M72.8,17.06a3,3,0,0,1-2.5.26,3.32,3.32,0,0,1-1.76-1.76,4.12,4.12,0,0,1-.41-1.31,2.92,2.92,0,0,1,.09-1.19,2.61,2.61,0,0,1,.56-1,3.34,3.34,0,0,1,1-.75A3.28,3.28,0,0,1,71,11a2.61,2.61,0,0,1,1.12.15,3.11,3.11,0,0,1,1,.63,4,4,0,0,1,.76,1.08l.23.47-3.8,1.86,0,.1a1.32,1.32,0,0,0,.76.71,1.49,1.49,0,0,0,1.14-.15A2.07,2.07,0,0,0,73,15.2a2.17,2.17,0,0,0,.37-.8l1.32.52a2.87,2.87,0,0,1-.57,1.13A3.61,3.61,0,0,1,72.8,17.06Zm-3-6.29H68.59l0-2.61h1.64Zm.61,1.68a1.21,1.21,0,0,0-.67.72,1.29,1.29,0,0,0,.12,1l0,.09,2.24-1.1,0-.08a1.33,1.33,0,0,0-.72-.72A1.2,1.2,0,0,0,70.38,12.45Z" class="cls-13"/><path d="M79,14.46a4.6,4.6,0,0,1-1.79.31,2.55,2.55,0,0,1-1.37-.41l.63-1.21a2.52,2.52,0,0,0,1,.3,2.64,2.64,0,0,0,1.12-.17,1.72,1.72,0,0,0,.73-.43.53.53,0,0,0,.11-.57.36.36,0,0,0-.31-.27,2.08,2.08,0,0,0-.59,0l-1,.19a3.68,3.68,0,0,1-.79.09,2.3,2.3,0,0,1-.71-.11,1.72,1.72,0,0,1-.57-.36,1.64,1.64,0,0,1-.4-.66,1.76,1.76,0,0,1,.19-1.68A3.42,3.42,0,0,1,77,8.28,4.41,4.41,0,0,1,78.58,8a2.43,2.43,0,0,1,1.2.32l-.49,1.25a2.17,2.17,0,0,0-.84-.24,2.39,2.39,0,0,0-1,.16c-.65.23-.9.54-.76.93a.38.38,0,0,0,.32.29,1.76,1.76,0,0,0,.58,0l1-.18a3.85,3.85,0,0,1,.8-.09,2.35,2.35,0,0,1,.71.11,1.53,1.53,0,0,1,.58.36,1.76,1.76,0,0,1,.4.66,1.81,1.81,0,0,1-.19,1.69A3.43,3.43,0,0,1,79,14.46Z" class="cls-13"/><path d="M85.92,12.37a3.08,3.08,0,0,1-2.5-.26A3.31,3.31,0,0,1,82.07,10a3.94,3.94,0,0,1-.13-1.38,2.84,2.84,0,0,1,.32-1.14A2.53,2.53,0,0,1,83,6.65a3.35,3.35,0,0,1,1.16-.53A3.45,3.45,0,0,1,85.45,6a2.56,2.56,0,0,1,1.06.39,2.75,2.75,0,0,1,.82.81,3.69,3.69,0,0,1,.52,1.21L88,9l-4.1,1,0,.1a1.32,1.32,0,0,0,.6.85,1.51,1.51,0,0,0,1.15.09,2.1,2.1,0,0,0,.87-.44A2.29,2.29,0,0,0,87,9.88l1.19.78a3,3,0,0,1-.79,1A3.59,3.59,0,0,1,85.92,12.37Zm-1.41-5a1.25,1.25,0,0,0-.8.57,1.28,1.28,0,0,0-.1,1l0,.09,2.42-.61,0-.09a1.33,1.33,0,0,0-.56-.85A1.2,1.2,0,0,0,84.51,7.35Z" class="cls-13"/><path d="M89.81,11.3l-1-6.11,1.75-.28L90.75,6h.07A3,3,0,0,1,91,5.48,1.77,1.77,0,0,1,91.31,5a1.7,1.7,0,0,1,.47-.35,1.93,1.93,0,0,1,.64-.21,2.1,2.1,0,0,1,.83,0,1.69,1.69,0,0,1,.7.34,2.26,2.26,0,0,1,.52.65,2.93,2.93,0,0,1,.31,1l.65,4-1.76.28L93.07,7q-.19-1.18-1.23-1a1.29,1.29,0,0,0-.38.12,1,1,0,0,0-.33.22.8.8,0,0,0-.19.32.87.87,0,0,0,0,.4l.66,4Z" class="cls-13"/><path d="M100.09,10a1.88,1.88,0,0,1-1.47-.39,1.76,1.76,0,0,1-.57-1.23l-.24-3-1.68.14L96,4.08,97.11,4a.85.85,0,0,0,.55-.2.8.8,0,0,0,.12-.59l-.12-1.45,1.62-.13.18,2.18,2.41-.2L102,5l-2.4.19.27,3.4,2.41-.2.11,1.39Z" class="cls-13"/><path d="M106.8,9.83A3.07,3.07,0,0,1,104.43,9a3.33,3.33,0,0,1-.83-2.35,4.14,4.14,0,0,1,.2-1.36,2.8,2.8,0,0,1,.59-1,2.75,2.75,0,0,1,.94-.66,3.31,3.31,0,0,1,1.25-.23,3.49,3.49,0,0,1,1.25.21,2.57,2.57,0,0,1,.94.62,2.91,2.91,0,0,1,.61,1,4,4,0,0,1,.22,1.3V7l-4.23,0v.11a1.27,1.27,0,0,0,.38,1,1.49,1.49,0,0,0,1.1.36,2,2,0,0,0,.94-.22,2.29,2.29,0,0,0,.68-.56l1,1a3,3,0,0,1-1,.78A3.73,3.73,0,0,1,106.8,9.83Zm-.19-5.21a1.25,1.25,0,0,0-.92.37,1.28,1.28,0,0,0-.33,1V6l2.5,0V5.92a1.33,1.33,0,0,0-.33-1A1.22,1.22,0,0,0,106.61,4.62Zm.16-1.78-1.06-.5L106.87,0l1.49.72Z" class="cls-13"/><path d="M113.84,10.05a3.06,3.06,0,0,1-2.3-1,3.28,3.28,0,0,1-.65-2.4,4,4,0,0,1,.3-1.35,3,3,0,0,1,.67-1,2.59,2.59,0,0,1,1-.58,3.42,3.42,0,0,1,1.26-.14,3.14,3.14,0,0,1,1.23.31,2.58,2.58,0,0,1,.9.69,2.81,2.81,0,0,1,.52,1,3.76,3.76,0,0,1,.13,1.32l0,.52-4.23-.28v.11a1.28,1.28,0,0,0,.3,1,1.54,1.54,0,0,0,1.07.44,2.07,2.07,0,0,0,1-.15,2.25,2.25,0,0,0,.72-.51l.89,1.1a2.88,2.88,0,0,1-1.06.7A3.68,3.68,0,0,1,113.84,10.05Zm.2-5.21a1.24,1.24,0,0,0-.94.29,1.3,1.3,0,0,0-.4.93v.1l2.49.16V6.23a1.38,1.38,0,0,0-.27-1A1.19,1.19,0,0,0,114,4.84Z" class="cls-13"/><path d="M126.19,5.25l1.72.4-.25,1.11.08,0a2.26,2.26,0,0,1,.85-.75A1.74,1.74,0,0,1,129.82,6a2.17,2.17,0,0,1,.87.4,1.86,1.86,0,0,1,.58.74,2.88,2.88,0,0,1,.24,1.09,5.22,5.22,0,0,1-.16,1.45,5.8,5.8,0,0,1-.5,1.38,3,3,0,0,1-.7.87,1.92,1.92,0,0,1-.84.4,2.28,2.28,0,0,1-1,0,1.83,1.83,0,0,1-1.06-.62,2.19,2.19,0,0,1-.43-1.05l-.08,0L126,14l-1.73-.41Zm1.72,5.48a1.19,1.19,0,0,0,1-.15,1.48,1.48,0,0,0,.54-.9l.22-.93a1.49,1.49,0,0,0-.09-1.06,1.2,1.2,0,0,0-.82-.56,1.49,1.49,0,0,0-.84,0,.82.82,0,0,0-.49.62L127,9.55a.77.77,0,0,0,.17.77A1.39,1.39,0,0,0,127.91,10.73Z" class="cls-13"/><path d="M136.46,14.55a1.33,1.33,0,0,1-.75-.55,1.21,1.21,0,0,1-.12-.89l-.06,0a1.49,1.49,0,0,1-.92.66,2.31,2.31,0,0,1-1.26-.09,2.08,2.08,0,0,1-1.21-.92,1.71,1.71,0,0,1-.09-1.46,1.59,1.59,0,0,1,1.13-1.14,3.74,3.74,0,0,1,2.12.21l.94.32.1-.3a1.19,1.19,0,0,0,0-.87,1.15,1.15,0,0,0-.74-.55,1.71,1.71,0,0,0-.93-.08,2.29,2.29,0,0,0-.75.34l-.64-1.12a2.36,2.36,0,0,1,1.2-.52,3.83,3.83,0,0,1,1.73.22A3.08,3.08,0,0,1,137.93,9a2.14,2.14,0,0,1,.12,1.9l-.86,2.57.65.21-.41,1.22Zm-2.1-1.78a1.37,1.37,0,0,0,.82,0,.75.75,0,0,0,.52-.53l.24-.7-.9-.3c-.69-.24-1.12-.12-1.27.34l-.08.23a.54.54,0,0,0,.09.55A1.15,1.15,0,0,0,134.36,12.77Z" class="cls-13"/><path d="M138.94,14l1.3.59,1.42-3.09-1.3-.6.58-1.27L143.85,11l-.73,1.59.08,0a3.24,3.24,0,0,1,.48-.5,2.09,2.09,0,0,1,.59-.35,1.91,1.91,0,0,1,.68-.12,2.25,2.25,0,0,1,.78.2l.53.25-.68,1.48-1.2-.55a1.25,1.25,0,0,0-1.06-.06,1.39,1.39,0,0,0-.71.72l-.76,1.66,1.85.85-.58,1.27-4.76-2.19Z" class="cls-13"/><ellipse cx="107.35" cy="42.97" class="cls-13" rx="49.27" ry="27.61"/><path d="M67.07,44.43c-.69,2.6.35,4.91,3.66,4.91a3.8,3.8,0,0,0,3.86-2.64C75,45,74,43.92,72.89,42.76l-1.08-1.12c-1.42-1.45-2.49-2.75-2-4.91.74-3.09,4-5,7.69-5a6.86,6.86,0,0,1,4.69,1.61c2.44,2.46-.59,4-1.26,3.89a.53.53,0,0,1-.23-.08c.64-2,0-4.21-2.82-4.21-1.55,0-3.47.84-3.81,2.25-.38,1.61.77,2.71,1.81,3.76l1,1c1.57,1.52,2.85,3,2.29,5.31C78.36,48.57,75,50.57,71,50.57a7.53,7.53,0,0,1-5.59-2C63.06,45.82,65.75,44.41,67.07,44.43Z" class="cls-1"/><path d="M94.73,57.15l3.86-8.55h.06a3.13,3.13,0,0,0,3.14,1.81c5,0,8.45-4.82,8.88-8.36a4.82,4.82,0,0,0,0-1c-.15-1.71-1.31-3-3.78-3a6.61,6.61,0,0,0-4.55,1.83l-.06-.05.41-1a4.23,4.23,0,0,0-2.5-2.11L92.09,54.88A4.56,4.56,0,0,0,94.73,57.15Zm12.09-15.84c-.25,2-2.68,7.57-5.77,7.57a1.46,1.46,0,0,1-1.49-1.81c.21-1.7,2.54-7.49,5.59-7.49A1.49,1.49,0,0,1,106.82,41.31Z" class="cls-1"/><path d="M93.72,48.72a1.5,1.5,0,0,1-.61.16c-.48,0-.57-.64-.53-1a10.31,10.31,0,0,1,.8-2l3.53-7.51a5,5,0,0,0-3.57,0l-.86,1.52A3.1,3.1,0,0,0,89.3,38c-4.94,0-9,4.74-9.42,8.33-.27,2.17.87,4,3.75,4a7.16,7.16,0,0,0,5.51-2.92l.06.05a6.75,6.75,0,0,0-.22,1c-.14,1,.66,1.86,2,1.86a5.29,5.29,0,0,0,2.28-.56l.5-1.11Zm-2.23-7.55c-.24,2-3,7.56-6.14,7.56a1.45,1.45,0,0,1-1.42-1.81c.24-2,2.92-7.34,5.94-7.34C91.07,39.58,91.6,40.27,91.49,41.17Z" class="cls-1"/><path d="M124.13,43.3l2.08-4-1.86-.12c-.51,0-1.73-.15-1.73-.15l-1,1.8c-.94,1.8-4,7.8-6.82,7.8-.59,0-1-.23-.91-.73A47.8,47.8,0,0,1,116.25,43a12,12,0,0,0,1.32-3.22c.13-1.09-.82-1.78-2.11-1.78a7.34,7.34,0,0,0-3.59,1.2,2.9,2.9,0,0,1,.3.7,3.34,3.34,0,0,1,.88-.24.47.47,0,0,1,.51.59c0,.44-2.11,4.57-2.11,4.57a12.4,12.4,0,0,0-1.37,3.35c-.16,1.36,1,2.2,2.55,2.18,2.73,0,4.92-1.78,6.47-3.91l.07.06a7.16,7.16,0,0,0-.51,1.83,1.8,1.8,0,0,0,2,2,5.83,5.83,0,0,0,3.44-1.26v0a1.65,1.65,0,0,1-.1-.83s0-.07,0-.11a2.34,2.34,0,0,1-1,.43c-.55,0-.56-.54-.52-.87A21.39,21.39,0,0,1,124.13,43.3Z" class="cls-1"/><path d="M145,38.18c-1.84-1.26-5.08-2.32-10.73-2.45l1.3-2.86a4.86,4.86,0,0,0-3.5,0l-1.38,2.91c-3.75.17-8.18,1.17-16.27-.45l-.21.35c4.5,1.86,11.39,2.26,15.45,2.26l-3,6.19c-.26.58-.61,1.32-.9,2.07a6.39,6.39,0,0,0-.64,2.1c-.15,1.25,1,2.16,2.51,2.16a6.72,6.72,0,0,0,4.43-2.11l0,0a4.12,4.12,0,0,1-.35-.8,7.72,7.72,0,0,1-.78.68,2.29,2.29,0,0,1-1.26.51c-.65,0-.72-.46-.67-.88a15.76,15.76,0,0,1,1.25-3.21l3.09-6.87c3.1-.31,7-.74,9,.49-2.94.23-5.88,1.14-7.71,3.26a7.83,7.83,0,0,0-1.9,4.21,6,6,0,0,0,0,1.43c.39,2,2.21,3.34,5.06,3.34,4.79,0,9-3.78,9.44-7.52a4.28,4.28,0,0,0-.84-3.38,7.17,7.17,0,0,1,3.11,2.1,3.71,3.71,0,0,0,2-1.87C150.79,39.12,148.09,38.33,145,38.18Zm-3.91,9c-2.26,3.15-5.87,3.23-4.59-1.27.2-.7,1.84-6.47,6.75-6.91a2.82,2.82,0,0,1,.44,1.05C144,41.86,142.63,45.07,141,47.22Z" class="cls-1"/><circle cx="59.73" cy="105.79" r="6.81" class="cls-1"/><rect width="16.39" height="8.45" x="130.64" y="104.92" class="cls-1"/><path d="M64.41,113.71c-4.79,0-8-2.84-8-7.08a6.77,6.77,0,0,1,3.72-6.25,6.85,6.85,0,0,1-.87-3.33c0-4.13,3.62-7.24,8.43-7.24,4.09,0,6.83,2.37,6.83,5.9a5.58,5.58,0,0,1-1.91,4.35A8.6,8.6,0,0,1,74,104.85C74,110,70,113.71,64.41,113.71Z" class="cls-1"/><path d="M69.49,98a1.29,1.29,0,0,1-1-.48,2.36,2.36,0,0,0,1-2c0-.79-.44-1.52-1.69-1.52a1.91,1.91,0,0,0-2.1,2.07c0,3.35,5.13,3.81,5.13,8.73,0,3.83-3.1,5.7-6.4,5.7-2.6,0-4.84-1.14-4.84-3.92a3.48,3.48,0,0,1,3.35-3.74c.8,0,1.94.32,2,1.5-1.23,0-2.67.57-2.67,2.15a2.07,2.07,0,0,0,2.19,2.18c1.53,0,2.65-1.11,2.65-3,0-3.89-4.68-5.28-4.68-8.64,0-2.37,2.33-4.08,5.27-4.08,1.07,0,3.67.23,3.67,2.74C71.36,97,70.63,98,69.49,98Z" class="cls-1"/><path d="M75.21,113.37c-4.08,0-6.72-2.66-6.72-6.79,0-4.68,2.89-11.28,9.32-11.28,3.44,0,5.67,2.1,5.67,5.36a7.13,7.13,0,0,1-.47,2.56,3.1,3.1,0,0,1,1.23,1.23,3.18,3.18,0,0,1-.07,3.21C81.82,111.45,78.81,113.37,75.21,113.37Z" class="cls-1"/><path d="M76.67,108.29c1.8,0,2.89-1,4-2.3h.78c-1.3,2.1-3.24,4.22-6.27,4.22-2.14,0-3.56-1-3.56-3.63s1.49-8.11,6.16-8.11c2,0,2.51,1,2.51,2.19,0,2.62-2.51,4.65-5.25,4.81,0,.31,0,.63,0,.91C75,107.93,75.57,108.29,76.67,108.29ZM78,99.68c-1.16,0-2.28,2.43-2.73,4.69a3.82,3.82,0,0,0,3.3-3.76C78.56,100,78.42,99.68,78,99.68Z" class="cls-1"/><path d="M94.56,113.37A6.1,6.1,0,0,1,91,112.31a3.17,3.17,0,0,1-2.24.93H85.47a3.14,3.14,0,0,1-1.18-.23,3.05,3.05,0,0,1-1.17.23H79.84a3.18,3.18,0,0,1-3.1-3.83L79.16,98a3.16,3.16,0,0,1,3.09-2.51h3.29a3,3,0,0,1,.79.1,6.73,6.73,0,0,1,1.74-.22,5.84,5.84,0,0,1,2.72.64,6.4,6.4,0,0,1,2.79-.61,5.48,5.48,0,0,1,5.7,5.74,10.7,10.7,0,0,1-.15,1.68A3.17,3.17,0,0,1,101.8,107C100,112.27,96.87,113.37,94.56,113.37Z" class="cls-1"/><path d="M92.08,100.66c-.82,0-1.44,1-1.78,2.09l-1.55,7.32H85.47l1.66-7.86a2.17,2.17,0,0,0,.07-.57c0-.51-.18-1-.68-1-.89,0-1.51,1-1.85,2.12l-1.55,7.32H79.84l2.41-11.4h3.29l-.26,1.19a3.5,3.5,0,0,1,2.79-1.3,2.15,2.15,0,0,1,2.34,2,3.62,3.62,0,0,1,3.17-1.94,2.3,2.3,0,0,1,2.53,2.58c0,1.84-1.09,4.6-1.09,5.88,0,.57.23,1,.91,1,1,0,1.41-.82,1.91-2h1c-1.28,3.74-3,4.22-4.24,4.22a2.42,2.42,0,0,1-2.69-2.58c0-1.55,1-4.35,1-5.81C92.9,101.07,92.62,100.66,92.08,100.66Z" class="cls-1"/><path d="M106.21,113.37a5.47,5.47,0,0,1-2.71-.67,6.58,6.58,0,0,1-2.92.67c-3.09,0-6.2-2.11-6.2-6.83,0-4.5,2.87-11.15,9-11.15a6.55,6.55,0,0,1,1.52.17,3.66,3.66,0,0,1,.57,0h3.28a3.17,3.17,0,0,1,3.1,3.82l-.74,3.51a3.18,3.18,0,0,1,2.64,4.19C111.85,112.55,108.21,113.37,106.21,113.37Z" class="cls-1"/><path d="M108.78,98.67l-1.64,7.75a3.12,3.12,0,0,0-.09.73c0,.64.3,1,.94,1,.89,0,1.5-1,1.84-2.14h1c-1.3,3.71-3.35,4.22-4.58,4.22a2.1,2.1,0,0,1-2.24-2.1,4.1,4.1,0,0,1-3.39,2.1c-1.55,0-3-1-3-3.67,0-3.08,1.89-8,5.86-8,1.29,0,1.84.5,1.84,1.16v.16l.25-1.21Zm-7.86,7.55c0,1.75.73,1.78,1.14,1.78a2.3,2.3,0,0,0,1.89-2l1.1-5.15a.89.89,0,0,0-.94-.87C102.17,100,100.92,104.08,100.92,106.22Z" class="cls-1"/><path d="M112.09,113.37c-3.3,0-5.61-2.42-5.61-5.9a11,11,0,0,1,.25-2.12L108.29,98a3.09,3.09,0,0,1,.52-1.2,5.08,5.08,0,0,1-.14-1.18,5,5,0,1,1,10,0,4.9,4.9,0,0,1-.82,2.72,2.88,2.88,0,0,1,0,1l-.74,3.5a3.15,3.15,0,0,1,2.84,4.2C117.86,112.75,113.76,113.37,112.09,113.37Z" class="cls-1"/><path d="M114.66,98.67,113,106.42a3.78,3.78,0,0,0-.09.73c0,.64.3.85.94.85.89,0,1.71-.87,2-2h1c-1.3,3.71-3.56,4.22-4.79,4.22s-2.44-.82-2.44-2.74a7.81,7.81,0,0,1,.18-1.48l1.55-7.32Zm-1-4.85a1.81,1.81,0,1,1,0,3.62,1.81,1.81,0,0,1,0-3.62Z" class="cls-1"/><path d="M124.15,113.37a6.16,6.16,0,0,1-3.58-1.06,3.15,3.15,0,0,1-2.24.93h-3.28a3.17,3.17,0,0,1-3.09-3.83L114.37,98a3.16,3.16,0,0,1,3.1-2.51h3.28a3.1,3.1,0,0,1,.81.1,6.51,6.51,0,0,1,1.61-.19,5.47,5.47,0,0,1,5.69,5.74,10.7,10.7,0,0,1-.15,1.68,3.17,3.17,0,0,1,2.67,4.17C129.59,112.27,126.46,113.37,124.15,113.37Z" class="cls-1"/><path d="M121.66,100.66c-.82,0-1.43,1-1.78,2.09l-1.55,7.32h-3.28l2.42-11.4h3.28l-.25,1.19a3.38,3.38,0,0,1,2.67-1.28,2.3,2.3,0,0,1,2.53,2.58c0,1.84-1.1,4.6-1.1,5.88,0,.57.23,1,.91,1,1,0,1.42-.82,1.92-2h1c-1.28,3.74-3,4.22-4.24,4.22a2.42,2.42,0,0,1-2.69-2.58c0-1.55,1-4.35,1-5.81C122.48,101.07,122.21,100.66,121.66,100.66Z" class="cls-1"/><path d="M130.64,113.37c-4.07,0-6.7-2.66-6.7-6.79,0-4.68,2.9-11.28,9.32-11.28,3.45,0,5.68,2.1,5.68,5.36a7.47,7.47,0,0,1-1.61,4.59,3.22,3.22,0,0,1,.37,2.16A6.82,6.82,0,0,1,130.64,113.37Z" class="cls-1"/><path d="M131.9,108a4.67,4.67,0,0,0,2.69-1.21,3.67,3.67,0,0,1-4,3.38c-2.12,0-3.53-1-3.53-3.63s1.48-8.11,6.15-8.11c2,0,2.51,1,2.51,2.19,0,2.64-2.51,4.65-5.24,4.81,0,.22-.05.47-.05.68C130.48,107.59,131.1,108,131.9,108Zm1.55-8.36c-1.14,0-2.28,2.53-2.76,4.69a3.78,3.78,0,0,0,3.33-3.76C134,100,133.88,99.68,133.45,99.68Z" class="cls-1"/><path d="M143.45,113.37c-3.08,0-6.19-2.11-6.19-6.83,0-4.39,2.72-10.82,8.57-11.13l.32-1.5a3.15,3.15,0,0,1,2.67-2.48l3.37-.45a3,3,0,0,1,.43,0,3.15,3.15,0,0,1,3.09,3.82L154,102.84a3.17,3.17,0,0,1,2.23,1.32,3.13,3.13,0,0,1,.41,2.87c-1.79,5.13-5.11,6.21-7.57,6.21a5.66,5.66,0,0,1-2.57-.6A6.62,6.62,0,0,1,143.45,113.37Z" class="cls-1"/><path d="M152.61,94.11,150,106.42a3.78,3.78,0,0,0-.09.73c0,.64.3.85.94.85.89,0,1.5-.87,1.84-2h1c-1.3,3.71-3.35,4.08-4.58,4.08a2.09,2.09,0,0,1-2.23-2,4.07,4.07,0,0,1-3.38,2.1c-1.55,0-3-1-3-3.67,0-3.08,1.89-8,5.86-8,1.3,0,1.84.5,1.84,1.16v.09l1.12-5.24ZM146.8,106l1.12-5.22a.91.91,0,0,0-.94-.8c-1.93,0-3.19,4.11-3.19,6.25,0,1.75.73,1.78,1.14,1.78a2.25,2.25,0,0,0,1.87-1.9Z" class="cls-1"/><path d="M160.57,113.37a5.45,5.45,0,0,1-2.67-.67,6.7,6.7,0,0,1-3,.67c-3.3,0-5.6-2.42-5.6-5.9a11.09,11.09,0,0,1,.24-2.13L151.14,98a3.16,3.16,0,0,1,3.09-2.51h3.29a3.33,3.33,0,0,1,1.17.22,3.24,3.24,0,0,1,1.17-.22h3.29a3.17,3.17,0,0,1,3.09,3.82l-1.26,6,.06,0a3.18,3.18,0,0,1,1.22,2.72A5.52,5.52,0,0,1,160.57,113.37Z" class="cls-1"/><path d="M157.52,98.67l-1.65,7.75a2.83,2.83,0,0,0-.06.57c0,.53.16,1,.68,1,.89,0,1.48-.87,1.82-2l1.55-7.32h3.29l-1.65,7.75a3.78,3.78,0,0,0-.09.73c0,.64.3.85.94.85a1.73,1.73,0,0,0,.75-.14,2.39,2.39,0,0,1-2.53,2.35,2.19,2.19,0,0,1-2.23-2.17,3.8,3.8,0,0,1-3.4,2.17c-1.37,0-2.44-.82-2.44-2.74a7.81,7.81,0,0,1,.18-1.48l1.55-7.32Z" class="cls-1"/><path d="M69.49,98a1.31,1.31,0,0,1-1-.47,2.39,2.39,0,0,0,1-2c0-.8-.44-1.53-1.69-1.53a1.91,1.91,0,0,0-2.1,2.07c0,3.35,5.13,3.81,5.13,8.73,0,3.83-3.1,5.7-6.4,5.7-2.6,0-4.84-1.14-4.84-3.92a3.48,3.48,0,0,1,3.35-3.74c.8,0,1.94.32,2,1.51-1.23,0-2.67.57-2.67,2.14a2.08,2.08,0,0,0,2.19,2.19c1.53,0,2.65-1.12,2.65-3,0-3.89-4.68-5.28-4.68-8.63,0-2.37,2.33-4.08,5.27-4.08,1.07,0,3.67.23,3.67,2.73C71.36,97,70.63,98,69.49,98Z" class="cls-10"/><path d="M76.67,108.29c1.8,0,2.89-1,4-2.3h.78c-1.3,2.1-3.24,4.22-6.27,4.22-2.14,0-3.56-1-3.56-3.63s1.49-8.11,6.16-8.11c2,0,2.51,1,2.51,2.19,0,2.62-2.51,4.65-5.25,4.81,0,.32,0,.63,0,.91C75,107.93,75.58,108.29,76.67,108.29ZM78,99.68c-1.16,0-2.28,2.44-2.73,4.69a3.82,3.82,0,0,0,3.3-3.76C78.56,100,78.42,99.68,78,99.68Z" class="cls-10"/><path d="M92.08,100.66c-.82,0-1.44,1-1.78,2.09l-1.55,7.32H85.47l1.66-7.86a2.12,2.12,0,0,0,.07-.57c0-.5-.18-1-.68-1-.89,0-1.51,1-1.85,2.11l-1.55,7.32H79.84l2.41-11.4h3.29l-.26,1.19a3.53,3.53,0,0,1,2.78-1.3,2.15,2.15,0,0,1,2.35,2,3.62,3.62,0,0,1,3.17-1.94,2.31,2.31,0,0,1,2.53,2.58c0,1.85-1.09,4.6-1.09,5.88,0,.57.22,1,.91,1,1,0,1.41-.82,1.91-2h1c-1.28,3.74-3,4.22-4.24,4.22a2.42,2.42,0,0,1-2.69-2.58c0-1.55,1-4.35,1-5.81C92.9,101.07,92.62,100.66,92.08,100.66Z" class="cls-10"/><path d="M108.78,98.67l-1.64,7.75a3.12,3.12,0,0,0-.09.73c0,.64.3,1,.94,1,.88,0,1.5-1,1.84-2.14h1c-1.3,3.72-3.35,4.22-4.58,4.22a2.1,2.1,0,0,1-2.24-2.1,4.1,4.1,0,0,1-3.39,2.1c-1.55,0-3-1-3-3.67,0-3.08,1.89-8,5.85-8,1.3,0,1.85.5,1.85,1.16v.16l.25-1.21Zm-7.86,7.55c0,1.75.73,1.78,1.14,1.78a2.3,2.3,0,0,0,1.89-2l1.1-5.15a.89.89,0,0,0-.94-.87C102.17,100,100.92,104.08,100.92,106.22Z" class="cls-10"/><path d="M114.66,98.67,113,106.42a3.78,3.78,0,0,0-.09.73c0,.64.3.85.94.85.89,0,1.71-.87,2-2h1c-1.29,3.72-3.55,4.22-4.78,4.22s-2.44-.82-2.44-2.74a7.81,7.81,0,0,1,.18-1.48l1.55-7.32Zm-1-4.85a1.83,1.83,0,0,1,1.82,1.82,1.81,1.81,0,1,1-1.82-1.82Z" class="cls-10"/><path d="M121.66,100.66c-.82,0-1.43,1-1.78,2.09l-1.55,7.32h-3.28l2.42-11.4h3.28l-.25,1.19a3.41,3.41,0,0,1,2.67-1.28,2.31,2.31,0,0,1,2.53,2.58c0,1.85-1.1,4.6-1.1,5.88,0,.57.23,1,.91,1,1,0,1.42-.82,1.92-2h1c-1.28,3.74-3,4.22-4.24,4.22a2.42,2.42,0,0,1-2.69-2.58c0-1.55,1-4.35,1-5.81C122.48,101.07,122.21,100.66,121.66,100.66Z" class="cls-10"/><path d="M131.9,108a4.67,4.67,0,0,0,2.69-1.21,3.67,3.67,0,0,1-4,3.38c-2.12,0-3.53-1-3.53-3.63s1.48-8.11,6.15-8.11c2,0,2.51,1,2.51,2.19,0,2.64-2.51,4.65-5.24,4.81,0,.22-.05.48-.05.68C130.48,107.59,131.1,108,131.9,108Zm1.55-8.36c-1.14,0-2.28,2.53-2.76,4.69a3.78,3.78,0,0,0,3.33-3.76C134,100,133.88,99.68,133.45,99.68Z" class="cls-10"/><path d="M152.61,94.12,150,106.42a3.12,3.12,0,0,0-.09.73c0,.64.3.85.94.85.88,0,1.5-.87,1.84-2h1c-1.3,3.72-3.35,4.08-4.58,4.08a2.1,2.1,0,0,1-2.24-2,4,4,0,0,1-3.37,2.1c-1.55,0-3-1-3-3.67,0-3.08,1.89-8,5.86-8,1.3,0,1.84.5,1.84,1.16v.09l1.12-5.24ZM146.8,106l1.12-5.22a.91.91,0,0,0-.94-.8c-1.93,0-3.19,4.11-3.19,6.25,0,1.75.73,1.78,1.14,1.78a2.25,2.25,0,0,0,1.87-1.9Z" class="cls-10"/><path d="M157.51,98.67l-1.64,7.75a2.83,2.83,0,0,0-.06.57c0,.53.15,1,.68,1,.89,0,1.48-.87,1.82-2l1.55-7.32h3.28l-1.64,7.75a3.12,3.12,0,0,0-.09.73c0,.64.3.85.94.85a1.73,1.73,0,0,0,.75-.14,2.39,2.39,0,0,1-2.53,2.35,2.18,2.18,0,0,1-2.23-2.17,3.8,3.8,0,0,1-3.4,2.17c-1.37,0-2.44-.82-2.44-2.74a7.81,7.81,0,0,1,.18-1.48l1.55-7.32Z" class="cls-10"/><path d="M53.17,110.91c-1.55,0-2.92-1.1-4.25-2.16s-2.74-2.18-4.27-2.18h-.44a.73.73,0,0,1-.71-.88l1.5-7a.86.86,0,0,1-.35.09c-2.29,0-2.77-1.41-2.77-2.59,0-3.15,4.07-5.69,7.43-5.69.29,0,.56,0,.82,0a.7.7,0,0,1,.53.29.73.73,0,0,1,.13.59L48,104.52a13.35,13.35,0,0,1,2,1,7.84,7.84,0,0,0,3.58,1.28,3.35,3.35,0,0,0,1.33-.25.67.67,0,0,1,.28-.06.74.74,0,0,1,.72.8C55.65,109.51,54.61,110.91,53.17,110.91ZM46,94.26a3.74,3.74,0,0,0-.85,2.53,1.73,1.73,0,0,0,.13.81Z" class="cls-10"/><path d="M49.31,91.27c.27,0,.52,0,.77,0L47.13,105c2,.44,4,2.47,6.42,2.47a4.14,4.14,0,0,0,1.61-.31c-.19,1.83-1,3-2,3-2.73,0-5.14-4.34-8.52-4.34a3.24,3.24,0,0,0-.44,0l2.85-13.24a4.24,4.24,0,0,0-2.68,4.17,2.69,2.69,0,0,0,.27,1.3c-1.32,0-2-.48-2-1.86,0-2.54,3.51-5,6.7-5m0-1.46c-4.59,0-8.16,3.45-8.16,6.42a3,3,0,0,0,2.93,3.29l-1.29,6a1.45,1.45,0,0,0,1.42,1.76h.44c1.27,0,2.51,1,3.81,2s2.91,2.32,4.71,2.32c1.45,0,3.11-1.14,3.44-4.31a1.46,1.46,0,0,0-1.45-1.61,1.55,1.55,0,0,0-.56.11,2.52,2.52,0,0,1-1.05.2,7.28,7.28,0,0,1-3.23-1.19c-.48-.27-1-.54-1.49-.77L51.5,91.61a1.43,1.43,0,0,0-.26-1.18,1.46,1.46,0,0,0-1.05-.58c-.24,0-.54,0-.88,0Z" class="cls-1"/><path d="M56.75,106.25a2.46,2.46,0,0,1-2.11-1.08A3.75,3.75,0,0,1,52,106.25c-1.58,0-3.27-1-3.27-3.81,0-3.11,2-7.41,5.64-7.41a3.19,3.19,0,0,1,1.31.24.75.75,0,0,1,.44-.15h2.76a.72.72,0,0,1,.56.27.75.75,0,0,1,.15.61l-1.38,6.5a1.92,1.92,0,0,0-.06.44h.06a.24.24,0,0,0,.13,0,.72.72,0,0,1,.29-.06.74.74,0,0,1,.5.2.75.75,0,0,1,.18.79C58.81,105.21,58.29,106.25,56.75,106.25ZM55,97.67c-.9,0-2,2.73-2,4.5,0,.63.13.78.13.78s.07,0,.1,0c.19,0,.71-.32.87-1.1L55,97.67Z" class="cls-10"/><path d="M54.4,95.76c1.09,0,1.54.42,1.54,1v.13l.21-1h2.76l-1.38,6.5a2.49,2.49,0,0,0-.08.61c0,.53.25.7.79.7a1,1,0,0,0,.42-.07c-.52,1.34-.88,1.93-1.91,1.93a1.84,1.84,0,0,1-1.87-1.78A3.46,3.46,0,0,1,52,105.52c-1.3,0-2.54-.8-2.54-3.08,0-2.58,1.58-6.68,4.91-6.68m-1.13,7.9A1.93,1.93,0,0,0,54.86,102l.91-4.31a.74.74,0,0,0-.78-.73c-1.63,0-2.68,3.44-2.68,5.23,0,1.48.62,1.49,1,1.49M54.4,94.3a5.74,5.74,0,0,0-4.95,3.08A10.22,10.22,0,0,0,48,102.44c0,3.35,2.15,4.53,4,4.53a4.35,4.35,0,0,0,2.52-.79,3.26,3.26,0,0,0,2.2.79c2.16,0,2.83-1.72,3.27-2.86a1.46,1.46,0,0,0-.35-1.57,1.43,1.43,0,0,0-.62-.35l1.28-6a1.45,1.45,0,0,0-1.42-1.76H56.15a1.33,1.33,0,0,0-.49.09,4,4,0,0,0-1.26-.18Z" class="cls-1"/></g></g></svg>