<svg xmlns="http://www.w3.org/2000/svg" viewBox="0 0 378.26 116.31"><defs><style>.cls-1{fill:none}.cls-2{fill:#f0f}.cls-3{fill:#00f}</style></defs><g id="Layer_2" data-name="Layer 2"><g id="concepts_round_2" data-name="concepts round 2"><rect width="378.26" height="116.31" class="cls-1"/><path d="M149.31,30.35V77.79H141V72.48a10.53,10.53,0,0,1-4.27,4.3,12.83,12.83,0,0,1-6.36,1.55,13.67,13.67,0,0,1-7.57-2.15,14.31,14.31,0,0,1-5.18-6.09A21,21,0,0,1,115.72,61a20.27,20.27,0,0,1,1.86-8.95,13.54,13.54,0,0,1,12.75-8,13.14,13.14,0,0,1,6.32,1.48,10.27,10.27,0,0,1,4.24,4.17V30.35ZM138.77,69c1.46-1.83,2.19-4.46,2.19-7.87s-.73-6-2.19-7.84a7.42,7.42,0,0,0-6.15-2.73,7.64,7.64,0,0,0-6.26,2.7Q124.14,56,124.14,61c0,3.41.74,6.05,2.22,7.94a8.3,8.3,0,0,0,12.41.06Z"/><path d="M157.52,29.61h9.28v8.28h-9.28ZM158,77.79V44.88h8.41V77.79Z"/><path d="M203,47.44q2.9,3.38,2.89,10.16V77.79h-8.41V58.07q0-3.82-1.45-5.58a5.53,5.53,0,0,0-4.54-1.75A7.67,7.67,0,0,0,185.68,53a8.46,8.46,0,0,0-2.19,6.12V77.79h-8.41V44.88h8.21V49.8a11.42,11.42,0,0,1,4.51-4.24,13.56,13.56,0,0,1,6.39-1.48Q200.11,44.08,203,47.44Z"/><path d="M243.32,62.85H220.91q.41,4.58,2.76,6.8t6.73,2.22a15.9,15.9,0,0,0,10-3.5l2.42,5.79a17.47,17.47,0,0,1-5.75,3,22.17,22.17,0,0,1-7,1.14q-8.07,0-12.75-4.57t-4.68-12.52a19.25,19.25,0,0,1,2-9,14.73,14.73,0,0,1,5.69-6.06,16.13,16.13,0,0,1,8.31-2.15q6.79,0,10.73,4.37t3.94,12Zm-19.89-10.7a10.45,10.45,0,0,0-2.52,6.19h15.21a9.57,9.57,0,0,0-2-6.22A6.68,6.68,0,0,0,228.85,50,7.17,7.17,0,0,0,223.43,52.15Z"/><path d="M250,77.79V37.48H234.5V30.35h39.64v7.13H258.66V77.79Z"/><path d="M290.43,47.44q3.36,3.38,3.36,10.37v20h-8v-5a8.83,8.83,0,0,1-3.61,4.1,10.74,10.74,0,0,1-5.68,1.48,13.28,13.28,0,0,1-6-1.34,10.57,10.57,0,0,1-4.24-3.71A9.36,9.36,0,0,1,264.72,68a8.36,8.36,0,0,1,1.85-5.73c1.23-1.39,3.24-2.39,6-3a54.71,54.71,0,0,1,11.51-.95h1.69V56.8c0-2.25-.49-3.86-1.45-4.85s-2.57-1.48-4.81-1.48a18,18,0,0,0-5.49.91,27.72,27.72,0,0,0-5.62,2.52l-2.35-5.79a28.82,28.82,0,0,1,14.06-4Q287.06,44.08,290.43,47.44ZM283.66,70a8.12,8.12,0,0,0,2.13-5.82V62.79h-1.22a46.48,46.48,0,0,0-7,.4A6.77,6.77,0,0,0,274,64.6a3.62,3.62,0,0,0-1.08,2.76,4.61,4.61,0,0,0,1.48,3.54,5.3,5.3,0,0,0,3.77,1.37A7.18,7.18,0,0,0,283.66,70Z"/><path d="M328.85,46.16A14,14,0,0,1,334,52.09,20.27,20.27,0,0,1,335.85,61,21,21,0,0,1,334,70.09a14.31,14.31,0,0,1-5.18,6.09,13.67,13.67,0,0,1-7.57,2.15,12.8,12.8,0,0,1-6.36-1.55,10.47,10.47,0,0,1-4.27-4.3v5.31h-8.28V30.35h8.41V49.66A10.14,10.14,0,0,1,315,45.52a13.34,13.34,0,0,1,6.26-1.44A13.89,13.89,0,0,1,328.85,46.16ZM325.22,69c1.48-1.89,2.22-4.53,2.22-7.94s-.73-5.95-2.19-7.74a8.49,8.49,0,0,0-12.45,0q-2.18,2.73-2.18,7.84c0,3.41.73,6,2.18,7.87A8.31,8.31,0,0,0,325.22,69Z"/><path d="M338.57,72.73v-1h5.5v1h-2.16v5.62h-1.19V72.73Zm12-1h.92v6.6h-1V73.93l-1.77,3.37h-.78L346.16,74v4.38h-1.07v-6.6H346l2.29,4.39Z"/><path d="M55.14,79.83A21.68,21.68,0,1,1,76.82,58.16,21.69,21.69,0,0,1,55.14,79.83Zm0-36.71a15,15,0,1,0,15,15A15.05,15.05,0,0,0,55.14,43.12Z" class="cls-2"/><path d="M40.76,97.12a14.09,14.09,0,0,1-14-14.06V33.25A14,14,0,0,1,47.78,21.1L90.92,46a14,14,0,0,1,0,24.31L47.78,95.22A14,14,0,0,1,40.76,97.12Zm0-71.27a7.42,7.42,0,0,0-7.39,7.4V83.06a7.4,7.4,0,0,0,11.09,6.41L87.6,64.56a7.39,7.39,0,0,0,0-12.8L44.46,26.85A7.37,7.37,0,0,0,40.76,25.85Z" class="cls-3"/></g></g></svg>