<svg xmlns="http://www.w3.org/2000/svg" viewBox="0 0 157.17 45.08"><defs><style>.cls-1{fill:none;}.cls-2{fill:#231f20;}.cls-3{fill:#ed5253;}</style></defs><g id="Layer_2" data-name="Layer 2"><g id="Layer_1-2" data-name="Layer 1"><rect class="cls-1" width="157.17" height="45.08"/><path class="cls-2" d="M53.6,18.94a5.91,5.91,0,0,0-6.12,6.15c0,3.79,2.36,6.1,6.15,6.1,1.5,0,3.07.76,3.07,2.44s-1.35,2.6-3.07,2.6-3.17-1-3.17-2.6h-3c0,3.27,2.63,5.41,6.15,5.41s6.08-2.07,6.08-5.41a4.09,4.09,0,0,0-2.51-4,4.81,4.81,0,0,0,2.55-4.53A5.91,5.91,0,0,0,53.6,18.94Zm0,9.77a3.34,3.34,0,0,1-3.17-3.62,3.19,3.19,0,1,1,6.32,0A3.37,3.37,0,0,1,53.63,28.71Z"/><circle class="cls-2" cx="44.28" cy="15.36" r="1.75"/><path class="cls-2" d="M126.66,26.38a3.64,3.64,0,0,0,3.77,2.69,5.11,5.11,0,0,0,3.25-1.24l1.92,1.88a7.48,7.48,0,0,1-5.22,2c-3.78,0-6.52-2.51-6.52-6.38A6.23,6.23,0,0,1,130.17,19c3.67,0,6.72,2.51,6.39,7.43Zm7.05-2.28a3.64,3.64,0,0,0-3.5-2.68,3.71,3.71,0,0,0-3.54,2.68Z"/><path class="cls-2" d="M112.83,26.38a3.62,3.62,0,0,0,3.77,2.69,5.11,5.11,0,0,0,3.25-1.24l1.92,1.88a7.48,7.48,0,0,1-5.22,2c-3.78,0-6.53-2.51-6.53-6.38A6.23,6.23,0,0,1,116.34,19c3.67,0,6.72,2.51,6.39,7.43Zm7-2.28a3.64,3.64,0,0,0-3.5-2.68,3.73,3.73,0,0,0-3.55,2.68Z"/><path class="cls-2" d="M68.43,18.93a4.46,4.46,0,0,0-3.77,1.81V13.89h-3V31.35h3V25.18a3.09,3.09,0,0,1,3-3.3c1.59,0,2.74.93,2.74,3.13v6.34h3V24.8C73.37,21.25,71.85,18.93,68.43,18.93Z"/><path class="cls-2" d="M102.73,19a4.77,4.77,0,0,0-3.91,1.93l-.1-1.66H95.83V36.69l3-.32V29.93c.85,1.32,2.71,1.74,4,1.74,3.87,0,6.12-2.89,6.12-6.41A6,6,0,0,0,102.73,19Zm-.22,10.13a3.63,3.63,0,0,1-3.43-3.75c0-1.88,1.28-3.91,3.43-3.91s3.43,2,3.43,3.91A3.63,3.63,0,0,1,102.51,29.08Z"/><path class="cls-2" d="M143.8,31.67a4.78,4.78,0,0,0,3.91-1.94l.1,1.62h2.89V13.92h-3v6.76c-.85-1.32-2.74-1.71-4-1.71-3.86,0-6.09,2.86-6.09,6.38A6,6,0,0,0,143.8,31.67ZM144,21.53a3.62,3.62,0,0,1,3.42,3.75c0,1.89-1.27,3.91-3.42,3.91s-3.43-2-3.43-3.91A3.63,3.63,0,0,1,144,21.53Z"/><path class="cls-2" d="M80.63,29.3a1,1,0,0,1-.84-.36,1.93,1.93,0,0,1-.27-1.15v-6h2.4l.28-2.6H79.54V15.9l-3,.32v3H74.26v2.6h2.27v6a4,4,0,0,0,.88,2.83,3.45,3.45,0,0,0,2.6,1,5.76,5.76,0,0,0,1.52-.22,4.67,4.67,0,0,0,1.37-.64l-1-1.91A2.47,2.47,0,0,1,80.63,29.3Z"/><path class="cls-2" d="M92.92,24.85a8.39,8.39,0,0,0-4-.93c-.82-.05-2.08-.25-2.08-1.31,0-.76.79-1.2,2.22-1.2a4.12,4.12,0,0,1,3,1.08l1.68-2A6.6,6.6,0,0,0,89,18.94c-2.22,0-5.14,1-5.14,3.77a3.36,3.36,0,0,0,1.6,2.84,9.06,9.06,0,0,0,3.86.93c.85.09,2.25.31,2,1.49-.16.83-1.14,1.06-1.87,1.1a7.88,7.88,0,0,1-2.27-.21,7.22,7.22,0,0,1-2.12-1l-1.51,1.93.18.15a8.45,8.45,0,0,0,7.12,1.58,4,4,0,0,0,3.45-3.78A3.21,3.21,0,0,0,92.92,24.85Z"/><rect class="cls-2" x="37.38" y="13.9" width="2.96" height="17.46"/><rect class="cls-2" x="42.79" y="19.24" width="2.98" height="12.11"/><path class="cls-3" d="M17.56,6l1.53,2.66a1.8,1.8,0,0,1,0,1.77L10,26.2l4.29,7.43a3.77,3.77,0,0,0,6.54,0l4.29-7.43-1.16-2-4.87,8.44a1.77,1.77,0,0,1-3.06,0L12.32,26.2l8.44-14.63,1.53,2.65a1.75,1.75,0,0,1,0,1.77L16.4,26.2l1.16,2L24,17.11l4.2,7.28a3.65,3.65,0,0,1,0,3.62L23.89,35.4a7.31,7.31,0,0,1-12.67,0L7,28a3.6,3.6,0,0,1,0-3.62L17.56,6"/></g></g></svg>