<svg xmlns="http://www.w3.org/2000/svg" width="150.984" height="81.776" viewBox="0 0 150.984 81.776"><g transform="translate(-825.991 -1574.892)"><path d="M932.541,1598.346c-1.081,3.7,2.3,17.06,2.3,17.06s10.042-9.433,11.121-13.136a6.99,6.99,0,1,0-13.4-3.993l-.02.068Z" transform="translate(19.286 3.335)" fill="#faa21e"/><path d="M940.531,1585.974h1.037l1.17,3.288h0l1.126-3.288h1.022v4.206h-.7v-3.243h0l-1.17,3.243h-.607l-1.156-3.243h0v3.243h-.709Z" transform="translate(20.774 2.01)" fill="#cf3339"/><path d="M944.981,1585.974h1.748a1.973,1.973,0,0,1,.827.163,1.786,1.786,0,0,1,.591.444,1.947,1.947,0,0,1,.326.682,3.281,3.281,0,0,1,0,1.629,1.764,1.764,0,0,1-.326.666,1.664,1.664,0,0,1-.591.459,1.971,1.971,0,0,1-.827.163h-1.748Zm.741,3.6h.725a1.884,1.884,0,0,0,.7-.1.982.982,0,0,0,.429-.326,1.083,1.083,0,0,0,.222-.473,2.966,2.966,0,0,0,0-1.181,1.083,1.083,0,0,0-.222-.473.986.986,0,0,0-.43-.326,1.841,1.841,0,0,0-.7-.118h-.725Z" transform="translate(21.581 2.01)" fill="#cf3339"/><path d="M949.791,1585.848h.637l-1.688,4.443H948.1Z" transform="translate(22.147 1.987)" fill="#cf3339"/><path d="M954.456,1588.1a2.262,2.262,0,0,1-.177.9,2.107,2.107,0,0,1-1.155,1.14,2.32,2.32,0,0,1-.815.148,2.157,2.157,0,0,1-.874-.177,1.794,1.794,0,0,1-.682-.46,2,2,0,0,1-.444-.7,2.115,2.115,0,0,1-.163-.874,2.213,2.213,0,0,1,.163-.9,2.29,2.29,0,0,1,.473-.7,2.149,2.149,0,0,1,.7-.444,2.214,2.214,0,0,1,.827-.193,2.283,2.283,0,0,1,.827.163,2.1,2.1,0,0,1,1.155,1.14A2.252,2.252,0,0,1,954.456,1588.1Zm-.473,0a2.022,2.022,0,0,0-.193-.77,1.911,1.911,0,0,0-.354-.578,1.652,1.652,0,0,0-.533-.37,1.738,1.738,0,0,0-1.333,0,1.683,1.683,0,0,0-.548.37,1.864,1.864,0,0,0-.354.578,1.984,1.984,0,0,0-.134.741,2.192,2.192,0,0,0,.118.709,1.841,1.841,0,0,0,.34.578,1.486,1.486,0,0,0,.533.385,1.559,1.559,0,0,0,.709.148,1.634,1.634,0,0,0,1.2-.5,1.917,1.917,0,0,0,.354-.578,2.03,2.03,0,0,0,.194-.709Zm-2.118,1.259h-.4v-2.447h.918a1.159,1.159,0,0,1,.666.163.653.653,0,0,1,.222.548.58.58,0,0,1-.177.473.929.929,0,0,1-.46.193l.682,1.063h-.444l-.637-1.037h-.37Zm.444-1.377h.208a.747.747,0,0,0,.193,0,.469.469,0,0,0,.118-.118.383.383,0,0,0,0-.207.323.323,0,0,0,0-.177.472.472,0,0,0-.134-.1.292.292,0,0,0-.163,0h-.666v.725Z" transform="translate(22.517 1.987)" fill="#cf3339"/><ellipse cx="72.966" cy="40.888" rx="72.966" ry="40.888" transform="translate(825.991 1574.892)" fill="#cf3339"/><path d="M837.851,1614.222c-1.022,3.85.519,7.271,5.42,7.271a5.658,5.658,0,0,0,5.7-3.925c.607-2.577-.827-4.1-2.517-5.835l-1.6-1.654c-2.1-2.133-3.7-4.058-2.962-7.257,1.1-4.591,5.923-7.405,11.388-7.405a10.091,10.091,0,0,1,6.931,2.37,3.17,3.17,0,0,1-1.851,5.76,1.009,1.009,0,0,1-.34-.1c.945-2.962,0-6.235-4.176-6.235-2.3,0-5.139,1.229-5.642,3.317-.562,2.384,1.14,4.028,2.681,5.583l1.481,1.481c2.325,2.266,4.206,4.443,3.376,7.865-1.181,5.005-6.19,7.953-12.084,7.953a11.155,11.155,0,0,1-8.279-2.962C831.912,1616.266,835.9,1614.177,837.851,1614.222Z" transform="translate(1.455 3.721)" fill="#fff"/><path d="M872.528,1631.851l5.715-12.6h.089a4.636,4.636,0,0,0,4.65,2.681c7.4,0,12.514-7.124,13.151-12.365a7.38,7.38,0,0,0,0-1.481c-.222-2.547-1.94-4.443-5.6-4.443a9.755,9.755,0,0,0-6.734,2.71l-.089-.074.607-1.482a6.306,6.306,0,0,0-3.7-3.125l-12.029,26.851a6.729,6.729,0,0,0,3.94,3.333Zm17.919-23.458c-.37,2.962-3.969,11.211-8.545,11.211a2.145,2.145,0,0,1-2.177-2.562c.311-2.5,3.747-11.092,8.279-11.092a2.206,2.206,0,0,1,2.449,1.933,2.254,2.254,0,0,1-.006.571Z" transform="translate(7.726 4.856)" fill="#fff"/><path d="M873.824,1619.149a2.232,2.232,0,0,1-.9.236c-.709,0-.845-.963-.784-1.481a15.711,15.711,0,0,1,1.181-3.05l5.228-11.1a7.553,7.553,0,0,0-5.287,0L871.982,1606a4.607,4.607,0,0,0-4.709-2.68c-7.316,0-13.328,7-13.951,12.322-.4,3.229,1.289,5.923,5.552,5.923a10.62,10.62,0,0,0,8.16-4.339l.089.089a11.351,11.351,0,0,0-.34,1.481c-.193,1.481.992,2.755,2.962,2.755a8.042,8.042,0,0,0,3.376-.827l.741-1.643Zm-3.308-11.2c-.37,2.962-4.443,11.211-9.1,11.211a2.148,2.148,0,0,1-2.17-2.125,2.088,2.088,0,0,1,.067-.555c.354-2.962,4.324-10.885,8.8-10.885,1.772,0,2.533,1.037,2.4,2.354Z" transform="translate(4.947 5.147)" fill="#fff"/><path d="M911.985,1611.115l3.081-5.923-2.755-.3c-.755,0-2.562-.222-2.562-.222l-1.481,2.665c-1.392,2.681-5.923,11.551-10.1,11.551-.874,0-1.481-.34-1.348-1.081a72.4,72.4,0,0,1,3.48-7.153,17.414,17.414,0,0,0,1.985-4.709c.193-1.614-1.214-2.635-3.125-2.635a10.731,10.731,0,0,0-5.316,1.792,3.683,3.683,0,0,1,.43,1.022,5.912,5.912,0,0,1,1.318-.354.7.7,0,0,1,.755.874,66.8,66.8,0,0,1-3.125,6.782,18.043,18.043,0,0,0-2.028,4.946c-.236,2.008,1.481,3.258,3.761,3.243,4.058,0,7.3-2.651,9.6-5.805l.089.089a11.352,11.352,0,0,0-.741,2.71,2.68,2.68,0,0,0,2.365,2.962,2.649,2.649,0,0,0,.6,0,8.655,8.655,0,0,0,5.065-1.865h0a2.484,2.484,0,0,1-.148-1.244v-.163a3.132,3.132,0,0,1-1.481.637c-.8,0-.814-.8-.755-1.289A31.522,31.522,0,0,1,911.985,1611.115Z" transform="translate(11.822 5.154)" fill="#fff"/><path d="M941.89,1604.769c-2.74-1.867-7.523-3.426-15.891-3.614l1.91-4.253a7.072,7.072,0,0,0-5.168,0l-2.059,4.31c-5.538.252-12.1,1.733-24.08-.666l-.311.519c6.664,2.755,16.868,3.347,22.881,3.347l-4.371,9.138c-.385.859-.9,1.955-1.333,3.066a9.111,9.111,0,0,0-.945,3.1c-.222,1.851,1.481,3.2,3.718,3.2a9.939,9.939,0,0,0,6.546-3.11h0a5.861,5.861,0,0,1-.519-1.2,13.551,13.551,0,0,1-1.155,1.007,3.391,3.391,0,0,1-1.866.755c-.963,0-1.063-.682-.992-1.289a23.1,23.1,0,0,1,1.851-4.769l4.577-10.174c4.591-.459,10.292-1.1,13.328.741-4.354.326-8.708,1.674-11.433,4.828a11.593,11.593,0,0,0-2.8,6.22,9.068,9.068,0,0,0,0,2.132c.578,2.962,3.272,4.946,7.493,4.946,7.088,0,13.328-5.6,13.98-11.137a6.385,6.385,0,0,0-1.244-5.021,10.88,10.88,0,0,1,4.607,3.11,5.5,5.5,0,0,0,2.888-2.769C950.54,1606.146,946.54,1605.005,941.89,1604.769ZM936.1,1618.1c-3.362,4.665-8.694,4.783-6.8-1.867.3-1.051,2.725-9.582,10-10.248a4.161,4.161,0,0,1,.651,1.57c.519,2.665-1.5,7.479-3.85,10.6Z" transform="translate(12.75 3.903)" fill="#fff"/></g></svg>