<svg xmlns="http://www.w3.org/2000/svg" viewBox="0 0 209.61 59.89"><defs><style>.cls-1{fill:#fff}.cls-2{fill:#252222}.cls-3{fill:#e1171c}</style></defs><g id="Layer_2" data-name="Layer 2"><g id="content"><rect width="209.61" height="59.89" class="cls-1" rx="29.94"/><path d="M189,29.81a16.6,16.6,0,0,1-16.2,16.79,15.94,15.94,0,0,1-16-15.74c0-9.34,7.48-17.08,16.54-17.08A15.76,15.76,0,0,1,189,29.81Zm-29.34.92c-.2,7.58,6.87,13.9,15,12.91,5.88-.73,10.28-5.64,10.3-11a5.34,5.34,0,0,0-3.95-5.42A5,5,0,0,0,175,29.3c-.19.26-.3.67-.54.78-.53.24-1.27.6-1.66.39s-.56-1-.66-1.57c-.06-.36.23-.76.3-1.15a5.51,5.51,0,0,0-9.22-5A10.37,10.37,0,0,0,159.7,30.73Zm7.67-12.37c4.15.43,6.7,2.77,8,6.52,4.67-1.34,6.1-1.09,10.44,1.76C183.84,17,172.58,14.41,167.37,18.36Z" class="cls-2"/><path d="M54,33.71H44.23c-.88,3.21,3.07,6.23,9.08,4.48.43,2.44.42,2.47-1.81,2.76-.64.08-1.29.13-1.93.15-8.44.3-10.1-7.09-8.34-12a6.82,6.82,0,0,1,9-4.33C53.57,26,55.18,29.6,54,33.71Zm-2.44-2.13c0-2-.46-3.78-2.32-4.42a4.92,4.92,0,0,0-3.58.42,3.67,3.67,0,0,0-1.67,4Z" class="cls-2"/><path d="M120.94,40.47a21.19,21.19,0,0,1-9.43.23,4.09,4.09,0,0,1-3.38-3.38c-.34-1.92.15-3.72,1.83-4.66a26.43,26.43,0,0,1,5.38-1.91,10.58,10.58,0,0,1,2.4-.15c.3-2.81-.53-3.81-3.21-3.76a11.57,11.57,0,0,0-2.61.43,23.72,23.72,0,0,0-2.28.8c-.51-2.29-.45-2.48,1.51-3.08a12.44,12.44,0,0,1,2.84-.57c4.52-.31,7.25,1,7,6.44C120.82,34,120.94,37.14,120.94,40.47Zm-3-8.18a32.63,32.63,0,0,0-5.47,1.63,3,3,0,0,0-1.22,2.56,3,3,0,0,0,2,2,23.19,23.19,0,0,0,4.73.09Z" class="cls-2"/><path d="M132.22,24.84h2.67l.2,1.93a1.91,1.91,0,0,0,.59-.29,5.41,5.41,0,0,1,6.54-1.68c2.48.95,3.17,3,3.17,5.45,0,3.47,0,6.93,0,10.48h-3V35c0-1.46,0-2.91,0-4.36a3.12,3.12,0,0,0-2.6-3.32,3.47,3.47,0,0,0-4.06,2.28,10.87,10.87,0,0,0-.53,3.31c-.08,2.57,0,5.14,0,7.83h-2.88Z" class="cls-2"/><path d="M64.11,24.88h3c0,3.37-.06,6.65,0,9.93.06,2.24,1.15,3.38,3.13,3.6,2.48.26,3.93-1,4-3.66.12-3.21,0-6.44,0-9.81h3c0,3.63.17,7.25,0,10.85s-2.88,5.41-6.8,5.31-6.22-2.1-6.34-5.8C64,31.92,64.11,28.53,64.11,24.88Z" class="cls-2"/><path d="M99,37.9c.37,2.56.23,2.76-2.22,3.09-3.8.52-6.86-1-8.46-4.23A9.2,9.2,0,0,1,89.71,26.6c2.37-2.44,5.92-2.91,9.38-1.22v2.38C95.63,26.57,93.4,27,91.8,29a6.36,6.36,0,0,0-.27,7.06C93,38.36,95.2,38.9,99,37.9Z" class="cls-2"/><path d="M27.64,17.3h3V40.67h-3Z" class="cls-2"/><path d="M186.88,16.05c-.85-1.3-1.63-2-1.71-2.72-.1-1,.69-1.73,1.84-1.7s1.88.78,1.69,1.81C188.57,14.18,187.78,14.81,186.88,16.05Z" class="cls-2"/><path d="M176.39,11.13c-.51-.68-1.32-1.31-1.47-2.07a1.45,1.45,0,0,1,1.75-1.74,2.41,2.41,0,0,1,1.66,1.54c.06.71-.69,1.48-1.09,2.23Z" class="cls-2"/><path d="M159.7,30.73a10.37,10.37,0,0,1,3.48-8,5.51,5.51,0,0,1,9.22,5c-.07.39-.36.79-.3,1.15.1.57.26,1.36.66,1.57s1.13-.15,1.66-.39c.24-.11.35-.52.54-.78a5,5,0,0,1,6.09-2.12A5.34,5.34,0,0,1,185,32.6c0,5.4-4.42,10.31-10.3,11C166.57,44.63,159.5,38.31,159.7,30.73Zm19-.3-.82,0c-.47.71-1.39,1.49-1.29,2.1s1.14,1.23,1.78,1.84c.59-.63,1.56-1.22,1.65-1.91S179.21,31.12,178.73,30.43Zm-13.85,5.8h.8c.47-.71,1.36-1.47,1.27-2.11s-1.1-1.24-1.71-1.85c-.61.63-1.62,1.2-1.7,1.89S164.39,35.53,164.88,36.23Zm12.62,2.92,0-.8c-.72-.43-1.53-1.3-2.15-1.19s-1.21,1.16-1.8,1.8c.65.58,1.27,1.58,2,1.63S176.83,39.67,177.5,39.15Zm-8.82-13.47-.79,0c-.48.7-1.25,1.35-1.39,2.11a1.46,1.46,0,0,0,1.68,1.77,2.63,2.63,0,0,0,1.74-1.72C170,27.17,169.13,26.39,168.68,25.68Z" class="cls-3"/><path d="M175.21,21.54c-.77-1-1.57-1.54-1.54-2.07s.82-1.25,1.41-1.41c.33-.09,1.3.75,1.32,1.2S175.81,20.48,175.21,21.54Z" class="cls-2"/><path d="M180,19.42c.58,1,1.19,1.68,1.16,2.28s-1,1.3-1.31,1.21c-.61-.19-1.42-.9-1.44-1.43S179.21,20.38,180,19.42Z" class="cls-2"/></g></g></svg>