<svg xmlns="http://www.w3.org/2000/svg" viewBox="0 0 72.44 36.64"><defs><style>.cls-1{fill:#545456;}.cls-2{fill:#fff;}.cls-3{fill:#ec1c24;}.cls-4{fill:#008642;}</style></defs><g id="Layer_2" data-name="Layer 2"><g id="artwork"><path class="cls-1" d="M29.61,22a.12.12,0,0,1-.17,0,.13.13,0,0,1-.06-.16l2.39-7.58L25.51,9.59a.16.16,0,0,1-.05-.17.15.15,0,0,1,.14-.11h7.73l2.39-7.57a.16.16,0,0,1,.15-.11.16.16,0,0,1,.14.11L38.4,9.31h7.73a.15.15,0,0,1,.15.11.16.16,0,0,1-.06.17L40,14.27l2.39,7.58a.14.14,0,0,1-.05.16.14.14,0,0,1-.18,0l-6.25-4.68Z"/><path class="cls-2" d="M46.67,7.85A.77.77,0,0,0,46,7.32H38.8L36.59.52A.77.77,0,0,0,35.87,0a.76.76,0,0,0-.72.52l-2.21,6.8H25.78a.76.76,0,0,0-.71.53.74.74,0,0,0,.27.84l5.79,4.21-2.22,6.8a.77.77,0,0,0,.28.84,1.6,1.6,0,0,0,.52.26l6.16-4.46L42,20.8a1.6,1.6,0,0,0,.52-.26.77.77,0,0,0,.28-.84l-2.21-6.8,5.78-4.21a.76.76,0,0,0,.28-.84"/><path class="cls-3" d="M29.85,20a.17.17,0,0,1-.17,0,.14.14,0,0,1-.05-.16l2.3-7.08-6-4.37a.14.14,0,0,1-.05-.16.14.14,0,0,1,.13-.1h7.44l2.3-7.07a.14.14,0,0,1,.14-.1.13.13,0,0,1,.13.1l2.3,7.07h7.44a.15.15,0,0,1,.14.1.14.14,0,0,1-.05.16l-6,4.37,2.3,7.08a.15.15,0,0,1-.06.16.17.17,0,0,1-.17,0l-6-4.38Z"/><polygon class="cls-1" points="18.75 19.27 18.75 17.88 18.47 17.88 18.47 17.43 19.53 17.43 19.53 17.88 19.25 17.88 19.25 19.27 18.75 19.27"/><path class="cls-1" d="M20.87,19.27l-.27-.76h0c0,.09,0,.18,0,.27v.49h-.5V17.43h.48c.43,0,.75.13.75.61a.47.47,0,0,1-.29.47l.37.76Zm-.24-1a.21.21,0,0,0,.2-.23.19.19,0,0,0-.23-.22v.45Z"/><path class="cls-1" d="M22.67,19.27l0-.23H22.3l0,.23h-.52l.45-1.84h.61l.39,1.84Zm-.09-.62-.06-.43,0-.35h0c0,.11,0,.23-.05.35l-.06.43Z"/><path class="cls-1" d="M23.65,17.43h.4a.82.82,0,0,1,.87.91c0,.86-.54.93-.84.93h-.43Zm.49,1.4c.23,0,.27-.29.27-.46s0-.48-.27-.48Z"/><polygon class="cls-1" points="25.48 17.43 26.41 17.43 26.41 17.86 25.98 17.86 25.98 18.12 26.36 18.12 26.36 18.56 25.98 18.56 25.98 18.84 26.41 18.84 26.41 19.27 25.48 19.27 25.48 17.43"/><path class="cls-1" d="M46.48,19.27l0-1.16h0l-.06.41-.14.75h-.41l-.17-1.16h0v.41l0,.75h-.53l.21-1.84h.62l.15,1h0c0-.11,0-.23.05-.34l.12-.64h.61L47,19.27Z"/><path class="cls-1" d="M48.26,19.27l0-.23h-.34l0,.23h-.51l.44-1.84h.61l.39,1.84Zm-.1-.62,0-.43c0-.12,0-.24,0-.35h0c0,.11,0,.23,0,.35l-.07.43Z"/><path class="cls-1" d="M50,19.27l-.28-.76h0v.76h-.49V17.43h.48c.43,0,.74.13.74.61a.46.46,0,0,1-.28.47l.37.76Zm-.24-1a.21.21,0,0,0,.2-.23.2.2,0,0,0-.24-.22v.45Z"/><polygon class="cls-1" points="52.33 17.43 51.93 18.32 52.37 19.27 51.84 19.27 51.53 18.43 51.52 18.43 51.52 19.27 51.03 19.27 51.03 17.43 51.52 17.43 51.52 18.21 51.53 18.21 51.8 17.43 52.33 17.43"/><path class="cls-4" d="M18.54,33.65a4.67,4.67,0,0,1-1.71,1.14c-.57.19-2.21.33-2.7-1-.1-.3,0-.39.25-.47s1.41-.41,2.49-.82a13,13,0,0,0,2.12-1,.91.91,0,0,0,.34-1.25,4.22,4.22,0,0,0-4.81-2.67,4.6,4.6,0,0,0,.07,9,4.79,4.79,0,0,0,4.95-2c.37-.58-.67-1.27-1-.91M13.9,31.59c-.2-.55,0-2.25.89-2.57s1.59.17,1.88,1.16a1.15,1.15,0,0,1,0,.9,1.72,1.72,0,0,1-.77.43l-.73.25c-.72.24-1.07.29-1.24-.17"/><path class="cls-4" d="M42.51,33.65a4.67,4.67,0,0,1-1.71,1.14c-.57.19-2.21.33-2.69-1-.11-.3,0-.39.24-.47s1.42-.41,2.49-.82a12.61,12.61,0,0,0,2.12-1,.92.92,0,0,0,.35-1.25,4.23,4.23,0,0,0-4.81-2.67A4.39,4.39,0,0,0,35,31.91a4.44,4.44,0,0,0,3.57,4.61,4.81,4.81,0,0,0,5-2c.37-.58-.67-1.27-1-.91m-4.64-2.06A3,3,0,0,1,38,29.91a1.39,1.39,0,0,1,.78-.89,1.22,1.22,0,0,1,1.13.05,1.84,1.84,0,0,1,.75,1.11,1.18,1.18,0,0,1,0,.9,1.65,1.65,0,0,1-.76.43c-.32.12-.6.21-.74.25-.73.23-1.07.29-1.24-.17"/><path class="cls-4" d="M60.78,33.65a4.55,4.55,0,0,1-1.7,1.14c-.58.19-2.21.33-2.7-1-.1-.3,0-.39.25-.47s1.41-.41,2.49-.82a13.47,13.47,0,0,0,2.12-1,.91.91,0,0,0,.34-1.25,4.22,4.22,0,0,0-4.81-2.67,4.6,4.6,0,0,0,.07,9,4.79,4.79,0,0,0,4.95-2c.37-.58-.67-1.27-1-.91m-4.63-2.06a3,3,0,0,1,.11-1.68A1.42,1.42,0,0,1,57,29a1.25,1.25,0,0,1,1.14.05,1.83,1.83,0,0,1,.74,1.11,1.15,1.15,0,0,1,0,.9,1.69,1.69,0,0,1-.77.43c-.32.12-.6.21-.73.25-.73.23-1.07.29-1.24-.17"/><path class="cls-4" d="M4.33,30.91a.26.26,0,0,0-.26.26v2.95c0,.46.14.77.39.88l.6.27c.11,0,.12.17.1.32s0,.51-.07.65-.13.22-.37.22H.45c-.22,0-.36,0-.37-.22S0,35.7,0,35.57s0-.26.12-.31L.72,35a.92.92,0,0,0,.38-.86V26.82A.86.86,0,0,0,.68,26l-.55-.26A.25.25,0,0,1,0,25.38c0-.13,0-.36.07-.5s.15-.22.37-.22H4.53c.21,0,.34,0,.36.22s.05.37.07.5,0,.25-.12.31L4.36,26c-.17.09-.29.29-.29.76v2.14a.26.26,0,0,0,.26.26H6.61a.27.27,0,0,0,.27-.26V26.72c0-.47-.11-.67-.29-.76l-.48-.27C6,25.63,6,25.53,6,25.38s0-.36.07-.5.15-.22.37-.22H10.5c.21,0,.34,0,.37.22s.05.37.07.5,0,.26-.13.31l-.55.26c-.3.13-.41.46-.41.87v7.31a.9.9,0,0,0,.38.86c.13.07.44.21.59.27s.14.14.12.31-.06.53-.07.67-.16.22-.37.22H6.22c-.23,0-.35-.06-.37-.22s0-.52-.07-.65,0-.27.11-.32L6.48,35c.25-.11.39-.42.39-.88V31.17a.26.26,0,0,0-.27-.26Z"/><path class="cls-4" d="M50.19,30.67l2,3.57a2.41,2.41,0,0,0,1.17,1c.13.07.16.12.14.36s0,.46-.06.6-.16.23-.36.23H50.77c-.29,0-.4-.06-.5-.25l-2-3.67-.72.69v1a.91.91,0,0,0,.4.83l.48.27c.12.06.13.15.11.33s-.05.48-.06.62-.12.22-.37.22h-3.8c-.22,0-.35,0-.37-.22s-.05-.51-.07-.64,0-.25.12-.32l.48-.27c.19-.1.34-.38.34-.84V26.75c0-.52-.19-.75-.34-.84L44,25.64c-.11-.06-.13-.17-.11-.32s0-.3.07-.44.14-.22.37-.22H47a.49.49,0,0,1,.5.5v5.68l1.77-1.6c.16-.14.11-.3,0-.34l-.43-.2c-.11-.05-.17-.1-.15-.29s0-.44.06-.57.08-.24.36-.24h3.35c.21,0,.29.07.3.21s0,.48.07.64-.08.19-.26.26a3.18,3.18,0,0,0-1.36.94l-1.07,1"/><path class="cls-4" d="M23.63,34.2A.9.9,0,0,0,24,35l.48.26c.12.07.13.16.11.34s-.05.48-.06.62-.13.22-.37.22h-3.8c-.22,0-.35,0-.37-.22s0-.51-.07-.64,0-.25.12-.32L20.5,35c.19-.1.34-.38.34-.84V30c0-.56-.16-.82-.34-.92l-.33-.19c-.12-.06-.13-.17-.11-.31s.05-.36.06-.5.16-.21.37-.21h2.89a.25.25,0,0,1,.25.25Z"/><path class="cls-4" d="M22,24.43a1.47,1.47,0,1,0,1.53,1.47A1.49,1.49,0,0,0,22,24.43"/><path class="cls-4" d="M33.55,30a2.13,2.13,0,0,0-1.49-2.36,3.94,3.94,0,0,0-2.62.45l-.45.22c-.15-.35-.23-.44-.45-.44H25.83c-.22,0-.34,0-.37.21s-.05.37-.07.5,0,.25.11.31l.33.19c.18.1.35.36.35.92v4.16c0,.46-.15.74-.34.84l-.48.27c-.11.07-.14.15-.12.32s.05.5.06.64.16.22.37.22h3.81c.24,0,.35-.06.36-.22s.05-.48.07-.62,0-.27-.12-.33L29.32,35a.94.94,0,0,1-.35-.83V30.88c0-.86.42-1.35,1-1.42a.79.79,0,0,1,.88.87v4.46a1.77,1.77,0,0,0,1.92,1.75,2.14,2.14,0,0,0,2-1.13.46.46,0,0,0-.14-.52c-.13-.14-.24-.27-.45-.16s-.42.31-.54.24-.1-.13-.1-.33Z"/><path class="cls-4" d="M70.47,30A2.13,2.13,0,0,0,69,27.65a4,4,0,0,0-2.62.45l-.45.22c-.14-.35-.22-.44-.44-.44H62.76c-.22,0-.35,0-.37.21s0,.37-.07.5,0,.25.11.31l.33.19c.18.1.34.36.34.92v4.16c0,.46-.15.74-.34.84l-.48.27c-.11.07-.14.15-.12.32s.06.5.07.64.15.22.37.22h3.8c.25,0,.35-.06.37-.22s0-.48.06-.62,0-.27-.11-.33L66.24,35a1,1,0,0,1-.35-.83V30.88c0-.86.43-1.35,1-1.42a.78.78,0,0,1,.88.87v4.46a1.78,1.78,0,0,0,1.93,1.75,2.13,2.13,0,0,0,2-1.13.45.45,0,0,0-.13-.52c-.13-.14-.25-.27-.45-.16s-.42.31-.54.24-.11-.13-.11-.33Z"/><path class="cls-4" d="M72.44,25.3a1.69,1.69,0,1,1-1.68-1.68,1.68,1.68,0,0,1,1.68,1.68m-.34,0a1.35,1.35,0,1,0-1.34,1.34A1.34,1.34,0,0,0,72.1,25.3m-.65.4a1.34,1.34,0,0,0,.17.44h-.45a2.61,2.61,0,0,1-.15-.45c-.06-.2-.18-.25-.39-.25h-.15v.7h-.42V24.33h.87a.52.52,0,0,1,.55.51.49.49,0,0,1-.27.46.51.51,0,0,1,.24.4m-.4-.84c0-.15-.15-.2-.28-.2h-.29v.42h.33a.23.23,0,0,0,.24-.22"/></g></g></svg>