<svg xmlns="http://www.w3.org/2000/svg" viewBox="0 0 332.72 81.03"><defs><style>.cls-1{fill:#252222}.cls-2{fill:#e1171c}</style></defs><g id="Layer_2" data-name="Layer 2"><g id="Layer_1-2" data-name="Layer 1"><path d="M332.72,46.41c0,19-15,34.5-33.39,34.62-18,.12-33-14.61-33-32.44,0-19.26,15.41-35.21,34.09-35.21C318.41,13.37,332.72,28,332.72,46.41Zm-60.48,1.91C271.82,64,286.41,77,303.16,74.93c12.11-1.49,21.2-11.62,21.24-22.76,0-5.49-2.82-9.38-8.15-11.16-5-1.67-9.25-.18-12.56,4.37-.39.54-.61,1.38-1.12,1.61-1.09.48-2.61,1.22-3.4.8s-1.18-2.08-1.38-3.25c-.13-.73.48-1.56.63-2.37.93-5.35-1.08-9.56-5.74-12.12a10.7,10.7,0,0,0-13.27,1.75C274.61,36.38,272,42,272.24,48.32ZM288,22.81c8.57.89,13.83,5.72,16.45,13.46,9.64-2.78,12.59-2.26,21.53,3.62C322,20,298.79,14.68,288,22.81Z" class="cls-1"/><path d="M54.28,54.47H34.19c-1.81,6.6,6.33,12.83,18.73,9.22.88,5,.85,5.1-3.75,5.7-1.31.17-2.64.26-4,.31C27.81,70.32,24.39,55.07,28,45c2.86-8,10.66-11.67,18.46-8.93C53.46,38.51,56.77,46,54.28,54.47Zm-5-4.4c0-4.08-1-7.78-4.79-9.11a10.09,10.09,0,0,0-7.38.87c-2.92,1.64-4,4.81-3.45,8.24Z" class="cls-1"/><path d="M192.34,68.41c-6.63,1.48-13,1.9-19.44.46-3.62-.81-6.27-3.05-7-7s.31-7.66,3.77-9.59,7.32-2.84,11.09-3.94a22.44,22.44,0,0,1,4.94-.33c.62-5.79-1.08-7.83-6.62-7.74a24.77,24.77,0,0,0-5.38.88c-1.6.41-3.13,1.1-4.69,1.66-1-4.72-.93-5.11,3.1-6.36A26,26,0,0,1,178,35.32c9.33-.66,15,2.16,14.4,13.26C192.08,55.05,192.34,61.54,192.34,68.41ZM186.1,51.55c-4.22,1.17-8,1.74-11.27,3.34-1.45.71-2.77,3.62-2.52,5.29a6.24,6.24,0,0,0,4,4.13c3.08.67,6.41.19,9.75.19Z" class="cls-1"/><path d="M215.59,36.18h5.49c.14,1.31.27,2.55.43,4,.44-.22,1-.31,1.21-.61,3.69-4.3,8.23-5.45,13.47-3.45s6.54,6.23,6.55,11.23c0,7.14,0,14.29,0,21.61h-6.25c0-4,0-8,0-11.91,0-3,0-6-.08-9-.15-3.5-1.66-6.09-5.35-6.83a7.15,7.15,0,0,0-8.38,4.7,22.33,22.33,0,0,0-1.1,6.82c-.15,5.3-.05,10.6-.05,16.15h-5.94Z" class="cls-1"/><path d="M75.18,36.25h6.23c0,7-.13,13.72,0,20.49.12,4.61,2.37,7,6.46,7.4,5.09.55,8.09-2,8.29-7.53.22-6.63,0-13.27,0-20.23h6.18c0,7.49.36,14.95-.1,22.36-.45,7.22-5.94,11.16-14,11s-12.8-4.33-13.07-12C75,50.77,75.18,43.78,75.18,36.25Z" class="cls-1"/><path d="M147.18,63.09c.75,5.29.47,5.69-4.59,6.38-7.83,1.07-14.15-2.09-17.44-8.72-3.4-6.86-2.21-15.8,2.79-21s12.21-6,19.34-2.5v4.89c-7.13-2.44-11.72-1.63-15,2.54-3.08,3.89-3.32,10.19-.54,14.57C134.72,64,139.28,65.16,147.18,63.09Z" class="cls-1"/><path d="M0,20.63H6.12V68.8H0Z" class="cls-1"/><path d="M328.27,18.05c-1.76-2.67-3.37-4.06-3.53-5.61-.21-2.12,1.43-3.55,3.8-3.5s3.87,1.61,3.49,3.74C331.75,14.21,330.13,15.51,328.27,18.05Z" class="cls-1"/><path d="M306.63,7.92c-1.05-1.41-2.72-2.71-3-4.27a3,3,0,0,1,3.6-3.59c1.36.26,3.32,2,3.42,3.17.12,1.46-1.43,3.06-2.25,4.6Z" class="cls-1"/><path d="M272.24,48.32C272,42,274.61,36.38,279.41,31.8a10.7,10.7,0,0,1,13.27-1.75c4.66,2.56,6.67,6.77,5.74,12.12-.15.81-.76,1.64-.63,2.37.2,1.17.55,2.82,1.38,3.25s2.31-.32,3.4-.8c.51-.23.73-1.07,1.12-1.61,3.31-4.55,7.57-6,12.56-4.37,5.33,1.78,8.16,5.67,8.15,11.16,0,11.14-9.13,21.27-21.24,22.76C286.41,77,271.82,64,272.24,48.32Zm39.22-.62-1.69,0c-1,1.45-2.86,3.06-2.65,4.32.24,1.43,2.35,2.55,3.66,3.8,1.21-1.31,3.23-2.52,3.4-3.95S312.45,49.12,311.46,47.7Zm-28.54,12,1.65,0c.95-1.46,2.79-3,2.61-4.35s-2.27-2.55-3.52-3.81c-1.26,1.29-3.35,2.48-3.52,3.89S281.91,58.22,282.92,59.66Zm26,6L308.86,64c-1.5-.9-3.16-2.68-4.44-2.45s-2.49,2.39-3.71,3.7c1.34,1.21,2.62,3.26,4.06,3.38S307.54,66.75,308.94,65.68Zm-18.2-27.77-1.61,0c-1,1.43-2.59,2.76-2.87,4.33a3,3,0,0,0,3.46,3.66c1.45-.29,3.4-2.17,3.58-3.55S291.68,39.38,290.74,37.91Z" class="cls-2"/><path d="M304.22,29.38c-1.59-2-3.24-3.17-3.2-4.27s1.7-2.57,2.91-2.91c.69-.19,2.68,1.54,2.73,2.47C306.71,25.89,305.44,27.18,304.22,29.38Z" class="cls-1"/><path d="M314.08,25c1.19,2.18,2.46,3.47,2.39,4.7-.05.94-2.05,2.69-2.7,2.49-1.24-.38-2.92-1.85-3-2.94S312.45,27,314.08,25Z" class="cls-1"/></g></g></svg>