<svg xmlns="http://www.w3.org/2000/svg" width="337.687" height="337.687" viewBox="0 0 337.687 337.687">
  <g>
    <path d="M0,168.792C.011,75.523,75.675-.041,169.017,0c93.186.041,168.71,75.721,168.67,169.017-.041,93.325-75.8,168.768-169.376,168.67C75.457,337.589-.011,261.86,0,168.792Zm76.739-7.85a5.943,5.943,0,0,0-1.007-.235c-1.543-.093-2.111-.924-1.628-2.375.168-.5.254-1.038.391-1.621,1.077.788,1.653.041,2.272-.914.8-1.238,1.771-2.367,2.595-3.593a4.5,4.5,0,0,0,.3-1.454,22.863,22.863,0,0,0,5.949-10.776,9.917,9.917,0,0,0-.2-5.787c-.638-1.987-1.32-2.45-3.277-1.8-3.18,1.056-6.288,2.326-9.467,3.383-3.136,1.042-4.548,3.67-6.187,6.227l1.489.8-.055.33H66.378l-3.845,6.521,1.4.86a2.172,2.172,0,0,1-1.018.115,2.586,2.586,0,0,0-1.3.295c-.608.474-.176.97.18,1.423.706.9,1.4,1.815,2.123,2.762-1.129.944-2.034.235-2.99-.094l.47-1.517-.166-.071-2.347,2.958h2.79c-1.722,1.16-1.765,2.627-1.664,4.226l.828-.357c.315,1.64-1.086,1.858-1.994,2.674a9.183,9.183,0,0,1-.644-2.705,10.666,10.666,0,0,1,.968-2.715l-.335-.142a27.273,27.273,0,0,0-1.517,3.572,29.067,29.067,0,0,0-1.459,5.683c-.16,2.264-1.064,4.469-1.55,6.72A16.524,16.524,0,0,0,54.159,176l.294.078,1.749-2.785a2.052,2.052,0,0,1-.788,3.013A2.6,2.6,0,0,0,53.5,178.9c-.153,3.427-.215,6.858-.3,10.287a3.627,3.627,0,0,0,.136.686c.472-.073.9-.1,1.315-.21,2.164-.558,4.317-1.158,6.487-1.691a1.387,1.387,0,0,0,1.182-1.4c.152-1.749.243-3.512.541-5.239q.954-5.531,2.13-11.023a5.815,5.815,0,0,1,1.233-1.984,15.389,15.389,0,0,1,1.271-1.35c.271-.26.787-.256,1.172-.479,2.629-1.513,5.23-3.073,7.84-4.619,1.651-.774,2.548-.3,2.743,1.643l-1.424-.887c.2.645.326,1.078.454,1.512-.82.6-2.742,5.8-2.487,6.415-.376.414-.846.723-1.014,1.15q-1.809,4.626-3.51,9.3a7.7,7.7,0,0,0,1.3,7.356,3.988,3.988,0,0,0,2.407,1.516,15.94,15.94,0,0,0,4.039-.223,1.924,1.924,0,0,0,.8-.455,6.974,6.974,0,0,1-1.067-1.224,4.052,4.052,0,0,1-.317-1.393c-.392-4.287-.8-8.574-1.124-12.866-.114-1.509-.018-3.034-.018-4.551l.573-.027c.249,1.812.5,3.625.736,5.353l.63-.09a2.55,2.55,0,0,1-.037.95,7.963,7.963,0,0,0-.343,5.671l1.007-1.558.3.1c-.06.407-.1.819-.184,1.22-.3,1.363-.693,2.712-.889,4.089a3.224,3.224,0,0,0,.424,1.765,21.718,21.718,0,0,0,1.468,2.2c-.081.022.078,0,.221-.063a35.533,35.533,0,0,0,11.612-8.282c.087-.09.316-.042.478-.059.1.911.207,1.82.29,2.731.087.96.143,1.886,1.435,2.047.328.04.611.45.922.7l-.708,1.346,1.693-.159c-.155,1.391.958,3.107,2.2,3.184a40.739,40.739,0,0,0,4.361-.165c-.517-1.794.014-4.538,1-5.2l.59.68.7-.556c1.611,1.2-.065,2.521.271,3.837l2.292-1.836c-1.363-1.353-1.363-1.353-.7-2.35l1.316.619-.564.769c.849.772,1.459.551,2.082-.193,1.385-1.653,2.814-3.268,4.231-4.893.314-.36.653-.7.981-1.045l.4.155c0,1.788-.024,3.576.006,5.364a5,5,0,0,0,4.883,4.917,11.379,11.379,0,0,0,7.548-2.905c2.027-1.62,3.879-3.486,6.018-4.933,1.969-1.331,1.785-3.106,1.8-5.134-2.9,1.169-4.026,3.888-5.885,6.093l-.412-1.3c-.954.333-1.8.668-2.679.927a1.192,1.192,0,0,1-1.709-1.115,10.387,10.387,0,0,1,0-3.672c1.47-5.054,3.065-10.074,4.727-15.069.841-2.525,1.92-4.971,2.912-7.5a6.735,6.735,0,0,0-5.188,1.064c-1.674,1.052-3.443,1.954-5.14,2.905-1.667-1.55-2.579-3.658-4.8-4.3-2.28-.66-4.126.635-6.288,1.16l1.294,2.909a7.4,7.4,0,0,0,.891-.576,2.966,2.966,0,0,1,4.568,1.05c1.211,2.835,1.676,5.732.108,8.638-.758,1.4-1.532,2.8-2.171,4.263-.465,1.06-.436,2.449-1.126,3.278a64.43,64.43,0,0,1-5.95,6.2,3.479,3.479,0,0,1-4.158.363c-.281-.145-.7-.021-1.363-.021a18.164,18.164,0,0,1-.58-1.976,22.514,22.514,0,0,1-.215-2.3l-.255-.252c-.7,1.951-1.981,2.2-3.476,1.368l-.455,1.264H98.6l-.774-2.619c.577.124,1.153.251,1.732.365.062.013.139-.048.349-.127-.181-1.667,1.562-3.146.592-4.94l-1.906.868c.774,1.507.758,1.355-.785,1.5-1.315.124-1.237-.894-1.623-1.312l2.431-1.967a3.276,3.276,0,0,0,1.05.529c.855.078,1.722.025,2.509.025.324-.737.73-1.591,1.074-2.469.226-.574.364-1.184.64-2.106l1.753.343c-2.907,2.793-3.394,4.077-2.119,5.611a7.207,7.207,0,0,0,1-1.4c.674-1.7,1.266-3.435,1.881-5.159a4.551,4.551,0,0,0,.237-.89c.066-.477-.094-1.1.156-1.417a35.2,35.2,0,0,1,3.043-3.358c2.193-2.116,2.406-3.1.967-5.723-3.409,1.841-7.167,3.18-9.232,6.778-.2-.037-.525-.208-.674-.11-1.872,1.236-3.164,3.688-2.8,4.971a25,25,0,0,0-2.288,2.151c-.316.375-.94,1.013-.021,1.558.09.054-.012.431-.025.658l-.87-.3-.251,3.8a3.951,3.951,0,0,0-1.379,3.228l-.318-2.482c-.83.651-1.565,1.261-2.334,1.825-2.057,1.507-4.111,3.021-6.206,4.475a1.561,1.561,0,0,1-2.191-.051,4.5,4.5,0,0,1-.6-2.175,2.865,2.865,0,0,1,.393-1.241c1.325-3.209,2.635-6.424,4-9.616a39.3,39.3,0,0,0,2.922-9.389,4.785,4.785,0,0,0-5.5-5.152c-1.514.336-3.006.78-4.493,1.227-1.139.343-1.347,1.038-.671,2.031.965,1.42,1.953,2.824,2.889,4.261a3.374,3.374,0,0,1,.267,1.043l-.4.1c-.864-1.33-1.674-2.7-2.6-3.98-1.108-1.528-1.981-1.606-3.6-.3a19.88,19.88,0,0,0,2,.172c.284.034.534.344.8.528Zm172.839,27.9,2.35-1.847c-.607-.609-1.929-1-.809-2.32l1.411.651-.6.729a1.172,1.172,0,0,0,2.028-.126c.693-.875,1.448-1.7,2.185-2.544,1.035-1.181,2.079-2.356,3.12-3.533l.317.1c0,1.86-.071,3.723.016,5.578a5.021,5.021,0,0,0,5.083,4.852,10.592,10.592,0,0,0,6.736-2.457c2.275-1.756,4.361-3.766,6.7-5.431,1.858-1.325,1.814-3.036,1.711-5.059-2.882,1.17-4.012,3.881-5.844,6.06l-.468-1.375c-.41.193-.762.379-1.13.525a10.371,10.371,0,0,1-1.245.424c-1.292.333-2-.05-2.02-1.39a15.9,15.9,0,0,1,.426-5.07c2.164-6.593,4.54-13.117,6.838-19.667.135-.384.27-.769.412-1.177a6.337,6.337,0,0,0-4.858.9c-.932.613-1.925,1.136-2.9,1.688-2.623,1.489-2.622,1.484-4.494-.8a9.271,9.271,0,0,0-.974-1.054,4.2,4.2,0,0,0-3.509-1.229,47.3,47.3,0,0,0-4.655,1.28c.264.633.437,1.074.631,1.5.206.46.432.911.67,1.409.4-.244.713-.423,1.015-.614a2.89,2.89,0,0,1,4.438,1.163c1.266,2.9,1.63,5.875-.019,8.852-1.043,1.88-1.929,3.85-2.836,5.8-.248.534-.147,1.293-.5,1.707-1.489,1.77-3.019,3.516-4.661,5.144-1.946,1.929-3.569,2.107-5.829.891l-.458.584c-1.327-1.352-.87-3.065-1.245-5.039-.855,2.035-2.1,2.5-3.651,1.61l-.607,1.629c-.417-1.078-.733-1.8-.949-2.55-.033-.113.423-.539.6-.51a6.036,6.036,0,0,1,1.307.524c.207-.859.337-1.566.552-2.246s.512-1.318.658-1.683c-.235-.553-.381-.9-.513-1.207l-1.819.828c.163.425.327.852.547,1.427l-2.264.171-.732-1.371,2.348-1.952a5.1,5.1,0,0,0,1.24.461c.784.07,1.579.021,2.394.021.309-.681.761-1.6,1.142-2.55a17.657,17.657,0,0,0,.508-1.9c.9-.4.9-.4,1.466.587-2.585,2.483-3.071,3.787-1.757,5.32a10.524,10.524,0,0,0,.98-1.573c.667-1.663,1.26-3.357,1.886-5.037.1-.26.388-.618.3-.749-.87-1.362.395-2.016.978-2.8a24.048,24.048,0,0,1,2.42-2.488c2.025-2.025,2.117-2.627.714-5.38-3.391,1.868-7.143,3.186-9.185,6.647-.344.036-.726-.027-.805.1-1.012,1.618-3.506,2.458-2.766,4.955a13.868,13.868,0,0,0-2.225,2.106c-.569.832-1.368,2.195-1.054,2.79.516.975-1.208,1.9.257,2.493-2.178,2.346-2.388,4.021-1.229,9.079.62.3,1.369.438,1.7.887.253.343-.022,1.076-.061,1.632l1.461-.132c-.2,1.4,1.091,3.185,2.319,3.2,1.41.019,2.823-.123,4.1-.187-.045-1.829-.231-3.6,1.184-5.377l.374.98.869-.694C250.912,186.234,249.22,187.521,249.578,188.84ZM308.083,175.8a30.84,30.84,0,0,1-3.155,2.885,74.39,74.39,0,0,1-7.387,4.623c-1.969,1.027-3.347.379-4.379-1.523-.457-.842-.878-1.7-1.287-2.569a8.489,8.489,0,0,1,1.383-9.537c1.111-1.277,2.681-2.234,2.728-4.283.023-1.011.742-.46,1.263-.071.431-.958.837-1.86,1.26-2.8l.781.587c1.179-1.666,2.375-3.217,3.423-4.862,3.416-5.362,6.237-11,6.983-17.409a26.361,26.361,0,0,0-.136-6.07c-.18-1.529-1.057-1.984-2.583-1.695-1.095.207-2.164.549-3.253.8-5.355,1.21-9.03,4.216-10.865,9.542-1.257,3.65-3.015,7.124-4.375,10.743-.88,2.339-.1,4.77-.1,7.258l1.359-.472c-.2.425-.245.782-.429.88-1.349.714-1.263,2.006-1.354,3.222-.074.994-.154,1.992-.146,2.987q.085,10.183.211,20.366a1.363,1.363,0,0,0,.034.59c.113.208.348.517.513.506,2.014-.133,4.183.109,6-.571,4.324-1.614,8.032-4.375,11.692-7.175C308.312,180.183,307.965,178.113,308.083,175.8Zm-72.157.92c-.856.736-1.667,1.378-2.415,2.087a6.755,6.755,0,0,1-5.758,1.737c-2.485-.294-3.2-1.469-1.966-3.638a33.122,33.122,0,0,0,3.312-8.829,33.054,33.054,0,0,0,1.23-7.513c0-3.783-3.535-5.553-6.331-3.829a11.34,11.34,0,0,1-1.973.858,8.73,8.73,0,0,1-1.219.26l.641-1.139-.164-.407a34.11,34.11,0,0,0-4.825,1,31.417,31.417,0,0,0-4.824,2.376c-1.961,1.1-1.934,1.148-1.05,3.213l-3.835,2.786-.516-1.222-1.2,1.547.21.336,2.349-.524c.577,1.313.634,1.311,1.934.442a.955.955,0,0,1,.914.032,4.359,4.359,0,0,1,.738,1.484c.034.116-.431.506-.709.565-.953.2-2.119.049-1.938,1.957l-.99-1.714-2.232,2.571-.376-.485c-1.389.875-.975,2.179-.88,3.447a4.162,4.162,0,0,0,1.486,3.233c1.662-1.13,1.947-1.091,3,.406l-1.863,2.722,2.819,1.637-.044.313-1.75.311-.162,1.03c-.9-1.009-1.666-.317-2.315.034a1.511,1.511,0,0,0-.491,1.277c.037.3.6.54.987.86l.635-1.751c.173,1.861-.057,2.125-1.544,2.193a13.933,13.933,0,0,0-1.394.195c1.068,2.514,3.048,3.223,5.444,3.4a11.606,11.606,0,0,0,8.488-2.592c2.067-1.682,4.059-3.456,6.129-5.227.714.3,1.512.661,2.332.967a8.686,8.686,0,0,0,9.523-2.307A3.282,3.282,0,0,0,235.926,176.722Zm-83.8-8.577c-.24.54-.387.943-.589,1.316-1.122,2.072-2.282,4.123-3.381,6.206-1.629,3.09-2.715,6.306-2.137,9.881a4.771,4.771,0,0,0,4.412,4.328,8.8,8.8,0,0,0,6.536-1.733,2.266,2.266,0,0,0,.852-1.363c.2-1.256.2-2.542.337-3.811a1.322,1.322,0,0,0-.8-1.533,2.326,2.326,0,0,1-1.4-2.646,15.436,15.436,0,0,1,.383-2.23c.94-3.095,1.9-6.182,2.919-9.252a16.3,16.3,0,0,1,1.118-2.184.866.866,0,0,0,.018-.284l-1.071-.17.665-3.249.351.049c.2.7.4,1.4.693,2.442l3.76-8.842a14.548,14.548,0,0,1-1.713-.011,2.418,2.418,0,0,0-2.6,1.379,30.555,30.555,0,0,1-3.381,4.335,16.2,16.2,0,0,1-7.462,4.649,12.375,12.375,0,0,1,.137-1.625,38.3,38.3,0,0,0,.941-3.957,14.737,14.737,0,0,0-.139-3.755c-.119-.814-.756-1.186-1.681-1.163a7.315,7.315,0,0,0-4.467,1.477,11.407,11.407,0,0,0-4.34,7.477c-.3,1.892-.133,3.645,1.366,5.069a10.6,10.6,0,0,1,1.085,1.459,53.921,53.921,0,0,1-4.586,4.88c-1.648,1.384-1.153,3.076-1.511,5.047a14.908,14.908,0,0,0,1.336-.979c1.552-1.493,3.084-3.006,4.624-4.512,1.68-1.641,3.275-3.387,5.073-4.887A7.862,7.862,0,0,1,152.13,168.145Zm-120.475,21.9h2.419c2.109,0,2.109,0,2.871-1.89.146.292.252.7.367.7,1.239.029,2.427.5,3.72-.236a57.359,57.359,0,0,0,9.956-7.438c1.516-1.361.984-3.063,1.161-4.918-1.894,1.561-3.548,2.937-5.215,4.3a11.051,11.051,0,0,1-6.476,2.534,38.488,38.488,0,0,1-4.91-.012,2.113,2.113,0,0,1-1.514-.921c-1.617-3.239-2.913-6.645-2.6-10.317a21.059,21.059,0,0,1,4.981-12.111l.1-2,7.128.851c-1.71,2.719-1.094,5.533-1.21,8.621.667-.863,1.06-1.377,1.9-.795.267.185.841.011,1.245-.1.642-.181,1.246-.49,1.887-.675a4.844,4.844,0,0,0,3.39-5.783,7.224,7.224,0,0,0-8.043-5.262,9.484,9.484,0,0,1-1.775.25c-1.244-.052-1.846.426-1.782,1.714.013.259-.213.53-.479,1.142l-.529-2.32c-1.166.96-2.951.924-3.092,2.818-1.134-.7-1.572-.6-2.151.545a14.031,14.031,0,0,0-.707,1.649c-.5,1.406-.973,2.823-1.457,4.236l-.4.038-.693-2.832c-1.466,1.833-2.935,3.618-4.336,5.455a6.947,6.947,0,0,0-.682,1.608,3.138,3.138,0,0,1-.885,1.387,5.062,5.062,0,0,0-1.7,3.464A28.706,28.706,0,0,0,23.31,184.8a3.554,3.554,0,0,0,.369.6l2.138-6.384,1.077,1.188,2.09-6.374,1.079,1.437c-1.211-.516-1.165.1-1.306.682-.572,2.349-1.2,4.685-1.835,7.116-.655-.537-.655-.537-.167-1.733l-1.072-.413-.259,4.511.169.013.441-.926.328.02c0,.521.03,1.044-.008,1.562-.051.7-.473,1.75-.174,2.012a5.763,5.763,0,0,0,2.875,1.47c1.213.145,1.823-.75,2.177-2.335.09-.4.223-.795.408-1.442C32.6,187.367,31.463,188.58,31.655,190.044Zm153.5-34.412c-1.869.414-3.1,1.465-3.092,2.606-1.21-.772-1.6-.681-2.223.575a15.007,15.007,0,0,0-.7,1.655c-.5,1.379-.963,2.768-1.473,4.242-1.077-.87-.85-1.964-.821-3.22-.41.506-.684.837-.95,1.174-1.237,1.567-2.5,3.118-3.69,4.717a5.843,5.843,0,0,0-.574,1.449,2.8,2.8,0,0,1-.865,1.368,4.919,4.919,0,0,0-1.728,3.564c-.068,1.429.062,2.868-.043,4.292-.171,2.321.789,4.422,1.15,6.637a2.988,2.988,0,0,0,.4.719c.736-2.178,1.409-4.171,2.082-6.165l.473-.092.587,1.249c.8-2.4,1.462-4.412,2.17-6.545l.638.784a6.84,6.84,0,0,0-.873,1.439c-.636,2.289-1.206,4.6-1.815,6.957-1.522-.608.036-1.12-.286-1.732l-1.01-.3v4.106l.369-.68.426.177c-.036.537-.067,1.075-.11,1.612-.054.661-.412,1.675-.122,1.916a5.429,5.429,0,0,0,2.876,1.434,2.067,2.067,0,0,0,2.13-2.117,10.562,10.562,0,0,1,.415-1.7c.951,1.538-.135,2.815.028,4.291h2.6c1.985,0,1.985,0,2.674-1.968.2.291.29.595.482.683a3.94,3.94,0,0,0,4.139-.452c2.917-2.09,5.726-4.333,8.681-6.367,2.074-1.428,1.842-3.444,1.961-5.694-1.973,1.613-3.73,3.1-5.538,4.514a11.23,11.23,0,0,1-7.139,2.372,30.054,30.054,0,0,0-3.234.023,2.348,2.348,0,0,1-2.727-1.8c-.735-2.273-1.443-4.561-1.989-6.884a8.952,8.952,0,0,1-.08-3.317,22.149,22.149,0,0,1,4.919-11.437,8.9,8.9,0,0,1,.019-1.418c.038-.187.276-.334.458-.539l.582.788c.494-.911,2.264-.845,6.064.186-1.6,2.625-.938,5.51-1.047,8.375.542-.9,1.124-1.274,2.082-.639.216.142.693-.044,1.024-.155.635-.211,1.24-.515,1.879-.712a5,5,0,0,0,3.528-5.084c-.372-3.249-4.011-6.308-7.267-6.046-1.385.112-2.76.362-4.175.554-.091.418-.17.8-.259,1.186-.092.4-.194.8-.291,1.193l-.268,0ZM287.1,157.556l-.437-.053c-1.46,5.216-3.044,10.4-4.321,15.663a24.316,24.316,0,0,0-.467,6.644,11.885,11.885,0,0,0,2.523,7.469,15.823,15.823,0,0,0,2.411,1.929l.446-.27V165.557c-.45-.2-1.268-.324-1.39-.68-.321-.946.488-.983,1.235-.881v-6.44Zm-127.837,24.83,1.423,2.016c.848-.152,1.6-.279,2.352-.428a2.957,2.957,0,0,0,.789-.246,6.32,6.32,0,0,0,3.352-7.344Zm42.51,2.729c.367-5.246.734-10.491,1.122-16.051C199.7,174.433,199.383,179.682,201.776,185.115Zm-99.73-10.935-.953,2.885,1.366.738,1.5-2.662Zm143.56.02-.978,2.873,1.406.68c.507-.891.989-1.74,1.483-2.61Zm-68.312-12.029c1,.007,1.367-.619,1.2-2.06C177.387,160.446,177.578,161.421,177.294,162.171Zm-146.65.034c1.01-.275,1-1.137,1.171-2.106C30.474,160.356,30.78,161.414,30.644,162.205ZM202.984,177.7l.6.317a6.735,6.735,0,0,0,.456-1.2c.027-.136-.288-.338-.447-.51Z" fill="#595959"/>
    <path d="M177.294,162.171c.284-.75.093-1.725,1.2-2.06C178.661,161.552,178.3,162.178,177.294,162.171Z" fill="#f1f1f1"/>
    <path d="M241.051,186.311c-.008-1.541-.388-3.2,1.569-4.042.836,1.123.068,1.765-1.109,2.625l1.962.412C242.729,185.809,242.369,187.023,241.051,186.311Z" fill="#5e5e5e"/>
    <path d="M245.988,183.567q-.177-1.254-.375-2.665C246.962,182.139,247,182.623,245.988,183.567Z" fill="#777"/>
    <path d="M97.4,186.275c.208-1.444-.335-3.179,1.7-3.976.321.748.717,1.433-.355,1.954-.18.088-.231.439-.342.668a6.309,6.309,0,0,0,.795.27,2.43,2.43,0,0,0,.615-.042C98.891,186.628,98.718,186.709,97.4,186.275Z" fill="#5f5f5f"/>
    <path d="M102.026,180.95c.394.672,1.564,1.15.543,2.176Z" fill="#717171"/>
    <path d="M97.844,180.776l-2.061-.843.148-.431,2.093.759Z" fill="#797979"/>
    <path d="M76.585,155.152c-.9-1.247-1.626-1.226-2.269-.347q-2.262,3.093-4.543,6.173a3.83,3.83,0,0,1-3.263,1.813c-.593-1.779.934-2.805,1.635-4.347l-1.37-.882c.42-.367.638-.593.889-.772,1.486-1.058,1.488-1.054.716-2.687-.082-.172-.148-.352-.339-.813.425.323.624.466.813.621s.355.314.627.556l.868-1.156-1.168-.264c.2-.153.336-.345.487-.358.7-.058.975-.463,1.209-1.089a46.879,46.879,0,0,1,8.935-14.214,2.829,2.829,0,0,1,1.912-.491c.176,0,.408.8.533,1.254.633,2.313-.229,4.308-1.374,6.237-.2.343-.373.71-.6,1.033a19.642,19.642,0,0,0-2.87,7.159C77.224,153.359,76.922,154.112,76.585,155.152Z" fill="#5a5a5a"/>
    <path d="M67.64,149.912c-1.5.315-1.311,2.278-2.681,3.032l-.565-3.092,1.4.747a7,7,0,0,1-.714-2.062,4.9,4.9,0,0,1,.557-1.633H67.64Z" fill="#5c5c5c"/>
    <path d="M70.5,140.135l-.233,2.921c-1.244-.214-2.332-1.054-2.3-1.735C68,140.678,68.6,140.382,70.5,140.135Z" fill="#5d5d5d"/>
    <path d="M70.919,148.476c-.873-.623-2.063-.5-1.918-1.858l1.995.137Z" fill="#5f5f5f"/>
    <path d="M63.971,158.163l-1.695,2.82c-.479-1.012-.771-1.721.409-2.156a5.436,5.436,0,0,0,1.131-.781Z" fill="#666"/>
    <path d="M294.616,163.409c.682-2.448,1.359-4.9,2.049-7.343a66.76,66.76,0,0,1,7.387-17.351c.344-.552.576-1.318,1.511-.963a1.623,1.623,0,0,1,1.16,1.829,30.331,30.331,0,0,1-5.006,14.689c-2.063,3.214-4.42,6.239-6.646,9.349Z" fill="#5a5a5a"/>
    <path d="M211.776,166.574q2.6-2.808,5.2-5.616c1.849-1.986,4.143-2.5,6.94-2.013a23.515,23.515,0,0,1-2.15,2.35c-1.746,1.456-1.936,3.328-1.759,5.4.1,1.174.019,2.364.019,3.834l-1.264-2.01c-1.215,1.655-1,3.454.132,3.878-.085.791-.412,1.594-.186,2.184a28.315,28.315,0,0,0,2.092,4.138,1.335,1.335,0,0,1,.014,1.712,11.036,11.036,0,0,1-4.8,3.834,3.386,3.386,0,0,1-4.405-1.6,10.6,10.6,0,0,1-1.129-7.413c.489-2.3,1.142-4.565,1.652-6.861a6.127,6.127,0,0,0-.093-1.67Z" fill="#5a5a5a"/>
    <path d="M148.015,160.814l-2.6.4c.26-.425.4-.951.652-1.007C146.722,160.06,147.617,159.374,148.015,160.814Z" fill="#5e5e5e"/>
    <path d="M29.309,165.315l.3,1.469.707-1.141.214,4.436-.962.435c.459-1.474-.293-2.633-.981-3.8C28.153,165.991,28.24,165.531,29.309,165.315Z" fill="#616161"/>
    <path d="M33.12,181.046l-.347,4.213-.628-.052.285-4.235Z" fill="#686868"/>
    <path d="M36.983,185.828l2.144-1.584.294.215-.789,2.315Z" fill="#646464"/>
    <path d="M34.117,186.809c-.022-2.2-.347-1.379,3.029-2.814Z" fill="#6a6a6a"/>
    <path d="M31.07,182.929l-.712,3.389-.614-.136.728-3.389Z" fill="#6d6d6d"/>
    <path d="M29.073,185.231a2.324,2.324,0,0,1,.213-3.206Z" fill="#737373"/>
    <path d="M27.366,175.2l-.933,3.235-.468-.138.89-3.247Z" fill="#6c6c6c"/>
    <path d="M45.728,158.949l-.643,2.339-.555-.146.588-2.364Z" fill="#737373"/>
    <path d="M30.4,179.363l-.639,2.237-.565-.18.691-2.288Z" fill="#646464"/>
    <path d="M28.437,168.221l-.193,1.814L27.7,170l.141-1.866Z" fill="#626262"/>
    <path d="M176.851,170.186c-.475-1.2-.844-2.358-1.389-3.427-.375-.736-.422-1.172.564-1.436l.567,1.1.684-.824v4.407Z" fill="#626262"/>
    <path d="M179.012,185.214l.294-4.2.631.042q-.127,2.085-.253,4.169Z" fill="#717171"/>
    <path d="M185.452,186.819l-1.558-1.029,2.134-1.552.307.282Z" fill="#636363"/>
    <path d="M181.087,185.15l2.408-.982.1.17-2.738,2.607Z" fill="#6a6a6a"/>
    <path d="M177.989,182.654l-.8,3.958A3.461,3.461,0,0,1,177.989,182.654Z" fill="#6a6a6a"/>
    <path d="M175.239,185.328l.324-3.443A2.555,2.555,0,0,1,175.239,185.328Z" fill="#656565"/>
    <path d="M174.234,175.18q-.45,1.609-.9,3.221l-.467-.123.846-3.227Z" fill="#686868"/>
    <path d="M192.6,158.946l-.728,2.376-.553-.181.728-2.375Z" fill="#737373"/>
    <path d="M177.287,179.308l-.705,2.314-.547-.174.684-2.308Z" fill="#666"/>
    <path d="M174.462,169.909l.279-1.809.423.081c.156.668.355,1.346-.223,1.871Z" fill="#656565"/>
    <path d="M87.25,164.244l-1.64,4.167-.54-.22,1.709-4.14Z" fill="#6a6a6a"/>
  </g>
</svg>
