<svg xmlns="http://www.w3.org/2000/svg" viewBox="0 0 352.68 96.03"><defs><style>.cls-1{isolation:isolate}.cls-2,.cls-9{fill:#ecae65}.cls-3{fill:#bdb6b1}.cls-4{fill:#84bd5a}.cls-4,.cls-5,.cls-6,.cls-7,.cls-8,.cls-9{mix-blend-mode:multiply}.cls-5{fill:#48b1c6}.cls-6{fill:#fcc976}.cls-7{fill:#b85f98}.cls-8{fill:#c7d417}.cls-10{fill:#fff}</style></defs><g class="cls-1"><g id="Layer_2" data-name="Layer 2"><g id="Moisson_Québec" data-name="Moisson Québec"><rect width="5" height="58.34" x="271.1" y="37.24" class="cls-2"/><circle cx="41.78" cy="12.5" r="12.5" class="cls-3"/><path d="M33.37,31.77a29.25,29.25,0,0,1,8.41,20.29A2,2,0,0,1,40,53.89a29.24,29.24,0,0,1-20.29-8.41,29.24,29.24,0,0,1-8.41-20.29,2,2,0,0,1,1.82-1.83A29.27,29.27,0,0,1,33.37,31.77Z" class="cls-4"/><path d="M31.65,47.38A35.81,35.81,0,0,1,41.78,72.2,2,2,0,0,1,40,74,35.84,35.84,0,0,1,15.13,63.9,35.82,35.82,0,0,1,5,39.08a2,2,0,0,1,1.83-1.83A35.82,35.82,0,0,1,31.65,47.38Z" class="cls-5"/><path d="M30.28,64.37c12.24,12.24,11.5,28.44,11.5,28.44A2,2,0,0,1,40,94.64s-16.21.74-28.44-11.5S0,54.7,0,54.7a2,2,0,0,1,1.83-1.83S18,52.14,30.28,64.37Z" class="cls-6"/><path d="M50.19,31.77a29.25,29.25,0,0,0-8.41,20.29,2,2,0,0,0,1.83,1.83A29.24,29.24,0,0,0,63.9,45.48a29.24,29.24,0,0,0,8.41-20.29,2,2,0,0,0-1.82-1.83A29.27,29.27,0,0,0,50.19,31.77Z" class="cls-7"/><path d="M51.91,47.38A35.81,35.81,0,0,0,41.78,72.2,2,2,0,0,0,43.61,74,35.84,35.84,0,0,0,68.43,63.9,35.82,35.82,0,0,0,78.56,39.08a2,2,0,0,0-1.83-1.83A35.81,35.81,0,0,0,51.91,47.38Z" class="cls-8"/><path d="M53.28,64.37C41,76.61,41.78,92.81,41.78,92.81a2,2,0,0,0,1.83,1.83s16.21.74,28.44-11.5S83.55,54.7,83.55,54.7a2,2,0,0,0-1.83-1.83S65.51,52.14,53.28,64.37Z" class="cls-9"/><path d="M292.17,47.55v8h-1.55v-11h2.16l1.78,6.58V44.52h1.54v11h-1.78Z" class="cls-2"/><path d="M298.13,47.16a2.63,2.63,0,1,1,5.25,0v5.72a2.63,2.63,0,1,1-5.25,0ZM299.86,53c0,.78.34,1.08.89,1.08s.9-.3.9-1.08V47.05c0-.78-.35-1.08-.9-1.08s-.89.3-.89,1.08Z" class="cls-2"/><path d="M305,44.52h5.34v1.57h-1.81v9.43H306.8V46.09H305Z" class="cls-2"/><path d="M315.58,55.52a3.32,3.32,0,0,1-.16-1.36V52.44c0-1-.34-1.4-1.13-1.4h-.6v4.48H312v-11h2.6c1.79,0,2.56.83,2.56,2.53v.86A2.18,2.18,0,0,1,316,50.14c.87.37,1.15,1.2,1.15,2.34v1.7a3.16,3.16,0,0,0,.19,1.34Zm-1.89-9.43v3.38h.68c.64,0,1-.28,1-1.16V47.22c0-.78-.27-1.13-.88-1.13Z" class="cls-2"/><path d="M320.79,49.16h2.37v1.57h-2.37v3.21h3v1.58h-4.71v-11h4.71v1.57h-3Z" class="cls-2"/><path d="M295.74,63.63v1.43c0,1.76-.85,2.72-2.58,2.72h-.82v4.13h-1.72v-11h2.54C294.89,60.92,295.74,61.87,295.74,63.63Zm-3.4-1.14v3.72h.82c.55,0,.85-.25.85-1V63.52c0-.78-.3-1-.85-1Z" class="cls-2"/><path d="M301,71.91a3.53,3.53,0,0,1-.15-1.35V68.83c0-1-.35-1.4-1.13-1.4h-.6v4.48h-1.73v-11H300c1.79,0,2.56.83,2.56,2.52v.87a2.19,2.19,0,0,1-1.13,2.23c.86.36,1.14,1.19,1.14,2.34v1.69a3.3,3.3,0,0,0,.19,1.34Zm-1.88-9.42v3.37h.67c.65,0,1-.28,1-1.16V63.62c0-.79-.27-1.13-.88-1.13Z" class="cls-2"/><path d="M304.32,63.55a2.63,2.63,0,1,1,5.25,0v5.72a2.63,2.63,0,1,1-5.25,0Zm1.73,5.83c0,.79.34,1.08.89,1.08s.9-.29.9-1.08V63.44c0-.78-.35-1.08-.9-1.08s-.89.3-.89,1.08Z" class="cls-2"/><path d="M314.06,69.88l1.32-9H317l-1.7,11H312.7l-1.7-11h1.74Z" class="cls-2"/><path d="M318.62,60.92h1.73v11h-1.73Z" class="cls-2"/><path d="M324.68,60.79c1.68,0,2.54,1,2.54,2.76v.35h-1.63v-.46c0-.78-.31-1.08-.86-1.08s-.87.3-.87,1.08c0,2.27,3.38,2.69,3.38,5.83,0,1.76-.88,2.76-2.58,2.76s-2.57-1-2.57-2.76V68.6h1.63v.78c0,.79.35,1.07.9,1.07s.89-.28.89-1.07c0-2.26-3.37-2.69-3.37-5.83C322.14,61.8,323,60.79,324.68,60.79Z" class="cls-2"/><path d="M329,60.92h1.73v11H329Z" class="cls-2"/><path d="M332.55,63.55a2.63,2.63,0,1,1,5.25,0v5.72a2.63,2.63,0,1,1-5.25,0Zm1.73,5.83c0,.79.35,1.08.9,1.08s.89-.29.89-1.08V63.44c0-.78-.35-1.08-.89-1.08s-.9.3-.9,1.08Z" class="cls-2"/><path d="M341.19,64v8h-1.56v-11h2.17l1.77,6.58V60.92h1.54v11h-1.77Z" class="cls-2"/><path d="M295.77,84.2v1.47c0,1.75-.88,2.76-2.58,2.76s-2.57-1-2.57-2.76V80c0-1.76.88-2.76,2.57-2.76s2.58,1,2.58,2.76V81h-1.63V79.84c0-.79-.35-1.08-.9-1.08s-.9.29-.9,1.08v5.93c0,.79.35,1.07.9,1.07s.9-.28.9-1.07V84.2Z" class="cls-2"/><path d="M297.48,80a2.62,2.62,0,1,1,5.24,0v5.72a2.62,2.62,0,1,1-5.24,0Zm1.72,5.82c0,.79.35,1.09.9,1.09s.89-.3.89-1.09V79.84c0-.79-.34-1.08-.89-1.08s-.9.29-.9,1.08Z" class="cls-2"/><path d="M304.56,77.31h1.73v9.42h2.84V88.3h-4.57Z" class="cls-2"/><path d="M310.76,77.31h1.73v9.42h2.84V88.3h-4.57Z" class="cls-2"/><path d="M318.69,81.94h2.37v1.57h-2.37v3.22h3V88.3H317v-11h4.71v1.57h-3Z" class="cls-2"/><path d="M328.51,84.2v1.47c0,1.75-.88,2.76-2.58,2.76s-2.57-1-2.57-2.76V80c0-1.76.88-2.76,2.57-2.76s2.58,1,2.58,2.76V81h-1.63V79.84c0-.79-.35-1.08-.9-1.08s-.89.29-.89,1.08v5.93c0,.79.34,1.07.89,1.07s.9-.28.9-1.07V84.2Z" class="cls-2"/><path d="M330,77.31h5.34v1.57h-1.81V88.3h-1.72V78.88H330Z" class="cls-2"/><path d="M337,77.31h1.73v11H337Z" class="cls-2"/><path d="M343.41,86.28l1.32-9h1.58l-1.69,11H342l-1.69-11h1.74Z" class="cls-2"/><path d="M349.69,81.94h2.37v1.57h-2.37v3.22h3V88.3H348v-11h4.71v1.57h-3Z" class="cls-2"/><path d="M107.75,61.94l3.71-24.59H119V72h-5.14V47.14L110.13,72H105l-4-24.49V72H96.18V37.35h7.56Z" class="cls-10"/><path d="M127.33,45.66c0-5.54,2.92-8.71,8.26-8.71s8.26,3.17,8.26,8.71v18c0,5.54-2.92,8.7-8.26,8.7s-8.26-3.16-8.26-8.7ZM132.77,64c0,2.48,1.09,3.42,2.82,3.42s2.82-.94,2.82-3.42V45.31c0-2.47-1.09-3.41-2.82-3.41s-2.82.94-2.82,3.41Z" class="cls-10"/><path d="M152.13,37.35h5.44V72h-5.44Z" class="cls-10"/><path d="M173.69,37c5.29,0,8,3.17,8,8.71v1.09h-5.15V45.31c0-2.47-1-3.41-2.71-3.41s-2.73.94-2.73,3.41c0,7.13,10.64,8.46,10.64,18.36,0,5.54-2.77,8.7-8.11,8.7s-8.12-3.16-8.12-8.7V61.54h5.15V64c0,2.48,1.09,3.37,2.82,3.37s2.82-.89,2.82-3.37c0-7.12-10.64-8.46-10.64-18.35C165.67,40.12,168.39,37,173.69,37Z" class="cls-10"/><path d="M196.8,37c5.29,0,8,3.17,8,8.71v1.09h-5.14V45.31c0-2.47-1-3.41-2.72-3.41s-2.72.94-2.72,3.41c0,7.13,10.63,8.46,10.63,18.36,0,5.54-2.77,8.7-8.11,8.7s-8.11-3.16-8.11-8.7V61.54h5.14V64c0,2.48,1.09,3.37,2.82,3.37s2.82-.89,2.82-3.37c0-7.12-10.64-8.46-10.64-18.35C188.78,40.12,191.51,37,196.8,37Z" class="cls-10"/><path d="M212,45.66C212,40.12,215,37,220.3,37s8.26,3.17,8.26,8.71v18c0,5.54-2.92,8.7-8.26,8.7S212,69.21,212,63.67ZM217.48,64c0,2.48,1.09,3.42,2.82,3.42s2.82-.94,2.82-3.42V45.31c0-2.47-1.09-3.41-2.82-3.41s-2.82.94-2.82,3.41Z" class="cls-10"/><path d="M241.51,46.9V72h-4.9V37.35h6.82L249,58.08V37.35h4.85V72h-5.59Z" class="cls-10"/><path d="M110.76,95.69h-7.68a6.83,6.83,0,1,1,0-13.66,6.65,6.65,0,0,1,6.79,6.66,5.78,5.78,0,0,1-3,5.38v0h4Zm-2.83-6.92a4.92,4.92,0,1,0-9.84,0,4.93,4.93,0,1,0,9.84,0Z" class="cls-10"/><path d="M118,82.37v8.17c0,1.65.83,3.8,3.35,3.8s3.35-2.15,3.35-3.8V82.37h1.81v8.45a5.16,5.16,0,1,1-10.31,0V82.37Z" class="cls-10"/><path d="M133.53,82.37h8.6v1.7h-6.79v4h6.32v1.69h-6.32V94h7.13v1.69h-8.94Zm4.76-3.46h2.41l-2.8,2.71h-1.56Z" class="cls-10"/><path d="M148.66,82.37h4.63c2.32,0,4.05,1.08,4.05,3.33a3,3,0,0,1-2.3,2.94v0A3.21,3.21,0,0,1,157.92,92c0,2.39-2.08,3.7-4.68,3.7h-4.58Zm1.81,5.53h2.47c1.37,0,2.48-.54,2.48-2a1.9,1.9,0,0,0-2.11-2h-2.84Zm0,6.21h2.65c1.1,0,2.88-.37,2.88-2.25,0-1.58-1.11-2.38-2.86-2.38h-2.67Z" class="cls-10"/><path d="M164.34,82.37h8.6v1.7h-6.79v4h6.32v1.69h-6.32V94h7.13v1.69h-8.94Z" class="cls-10"/><path d="M188.55,85.25a4.07,4.07,0,0,0-3.21-1.52c-3,0-5,2.39-5,5.42a4.9,4.9,0,0,0,5,5.19,4.11,4.11,0,0,0,3.48-1.79l1.52,1.15a6.19,6.19,0,0,1-5,2.33,6.86,6.86,0,0,1-6.85-6.88A6.75,6.75,0,0,1,185.39,82a5.85,5.85,0,0,1,4.67,2.07Z" class="cls-10"/></g></g></g></svg>