<svg xmlns="http://www.w3.org/2000/svg" xmlns:xlink="http://www.w3.org/1999/xlink" viewBox="0 0 236.3 223.13"><defs><style>.cls-1{fill:#fff}.cls-2{fill:#ab7029}.cls-3{fill:#9c6226}.cls-4{fill:#b32029}.cls-5{fill:#faa21e}.cls-6{fill:#a9ae38}.cls-7{fill:#6d1d0e}.cls-8{fill:#411f1f}.cls-9{fill:url(#linear-gradient)}.cls-10{fill:#cf3339}</style><linearGradient id="linear-gradient" x1="147.74" x2="147.74" y1="109.42" y2="49.37" gradientUnits="userSpaceOnUse"><stop offset="0" stop-color="#ab7029" stop-opacity="0"/><stop offset="1" stop-color="#411f1f" stop-opacity=".6"/></linearGradient></defs><g id="Layer_2" data-name="Layer 2"><g id="logos"><path d="M224.56,145.56a11.52,11.52,0,0,0,11.74-11.81c0-6.82-5-12-11.5-12a15,15,0,0,0-5,.89,6.3,6.3,0,0,0-3.21-.89h-2.83a13.41,13.41,0,0,0-.38-3,6.18,6.18,0,0,0,.42-2.23V112a6.16,6.16,0,0,0-.14-1.3,6.54,6.54,0,0,0,.12-1.25v-4c0-15.9-8.79-31.57-24.13-43C172.68,49.8,149.19,43.13,121.7,43.13c-60.51,0-93.16,32.09-93.16,62.28v.86c-8.84,5.24-14.15,12.89-14.23,20.85C7.05,128.43,0,134.09,0,141.36a8.86,8.86,0,0,0,4.27,8l-1.46,6.76a6.25,6.25,0,0,0,6.74,7.52h.1c.78,0,2.78,1.59,4,2.54a29.9,29.9,0,0,0,4.76,3.27,6.22,6.22,0,0,0-.92,3.57l.15,2.7a6.14,6.14,0,0,0-.61,3.05l.25,4.63a6.24,6.24,0,0,0,6.57,5.9l3-.16.43,0a2.09,2.09,0,0,1,1.33.39v.71c0,32.94,28.86,32.94,54.32,32.94h76.57c25.47,0,54.33,0,54.33-32.94v-4a6.2,6.2,0,0,0-.92-3.26,36.92,36.92,0,0,0,4.73-3c1.66-1.21,1.66-1.21,2.68-1.27l3-.16a6.24,6.24,0,0,0,5.9-6.57l-.25-4.63a6.27,6.27,0,0,0-.94-3l-.14-2.7a6.26,6.26,0,0,0-6.58-5.89l-2.21.12c-.7,0-1.38.09-2.05.17l2.49-11.82A9.49,9.49,0,0,0,224.56,145.56Z" class="cls-1"/><path d="M207.52,105.41c0-26.55-29-56-85.82-56s-86.91,29.49-86.91,56v4H207.52Z" class="cls-2"/><path d="M103.07,57.19H97.46a.69.69,0,0,0-.64.43,3.09,3.09,0,0,0-.21,1.19A3.13,3.13,0,0,0,96.82,60a.69.69,0,0,0,.64.42h5.6a.7.7,0,0,0,.65-.43,3.61,3.61,0,0,0,0-2.37A.7.7,0,0,0,103.07,57.19Z" class="cls-3"/><path d="M124.06,57.19h-5.61a.7.7,0,0,0-.64.43,3.48,3.48,0,0,0,0,2.38.7.7,0,0,0,.64.42h5.61a.69.69,0,0,0,.64-.43,3.61,3.61,0,0,0,0-2.37A.7.7,0,0,0,124.06,57.19Z" class="cls-3"/><path d="M145.05,57.19h-5.61a.69.69,0,0,0-.64.43,3.13,3.13,0,0,0-.21,1.19A3.07,3.07,0,0,0,138.8,60a.7.7,0,0,0,.64.43h5.61a.69.69,0,0,0,.64-.43,3.11,3.11,0,0,0,.21-1.18,3.07,3.07,0,0,0-.21-1.18A.7.7,0,0,0,145.05,57.19Z" class="cls-3"/><path d="M92.52,69.71H86.91a.7.7,0,0,0-.64.43,3.19,3.19,0,0,0-.2,1.19,3.12,3.12,0,0,0,.2,1.18.7.7,0,0,0,.64.43h5.61a.7.7,0,0,0,.64-.43,3,3,0,0,0,.21-1.18,3.09,3.09,0,0,0-.21-1.19A.7.7,0,0,0,92.52,69.71Z" class="cls-3"/><path d="M113.52,69.71h-5.61a.7.7,0,0,0-.65.43,3.61,3.61,0,0,0,0,2.37.7.7,0,0,0,.65.43h5.61a.7.7,0,0,0,.64-.43,3.34,3.34,0,0,0,.2-1.18,3.41,3.41,0,0,0-.2-1.19A.7.7,0,0,0,113.52,69.71Z" class="cls-3"/><path d="M71.62,69.71H66a.71.71,0,0,0-.65.43,3.41,3.41,0,0,0-.2,1.19,3.34,3.34,0,0,0,.2,1.18.71.71,0,0,0,.65.43h5.6a.7.7,0,0,0,.64-.43,3,3,0,0,0,.21-1.18,3.11,3.11,0,0,0-.21-1.2A.7.7,0,0,0,71.62,69.71Z" class="cls-3"/><path d="M134.51,69.71H128.9a.69.69,0,0,0-.64.43,3.13,3.13,0,0,0-.21,1.19,3.07,3.07,0,0,0,.21,1.18.69.69,0,0,0,.64.43h5.61a.7.7,0,0,0,.64-.43,3.07,3.07,0,0,0,.21-1.18,3.13,3.13,0,0,0-.21-1.19A.7.7,0,0,0,134.51,69.71Z" class="cls-3"/><path d="M155.5,69.71h-5.61a.69.69,0,0,0-.65.44,3.34,3.34,0,0,0-.2,1.18,3.27,3.27,0,0,0,.2,1.17.69.69,0,0,0,.65.44h5.61a.7.7,0,0,0,.64-.43,3.45,3.45,0,0,0,0-2.37A.7.7,0,0,0,155.5,69.71Z" class="cls-3"/><path d="M176.49,69.71h-5.61a.67.67,0,0,0-.64.44,3.42,3.42,0,0,0,0,2.36.7.7,0,0,0,.64.43h5.61a.68.68,0,0,0,.64-.44,3.39,3.39,0,0,0,0-2.35A.68.68,0,0,0,176.49,69.71Z" class="cls-3"/><path d="M103.07,82.79H97.46a.7.7,0,0,0-.64.43,3.48,3.48,0,0,0,0,2.38.7.7,0,0,0,.64.42h5.6a.7.7,0,0,0,.65-.43,3.61,3.61,0,0,0,0-2.37A.7.7,0,0,0,103.07,82.79Z" class="cls-3"/><path d="M124.06,82.79h-5.61a.7.7,0,0,0-.64.43,3,3,0,0,0-.21,1.19,3.09,3.09,0,0,0,.21,1.19.7.7,0,0,0,.64.42h5.61a.7.7,0,0,0,.64-.43,3.61,3.61,0,0,0,0-2.37A.7.7,0,0,0,124.06,82.79Z" class="cls-3"/><path d="M145.05,82.79h-5.61a.7.7,0,0,0-.64.43,3.45,3.45,0,0,0,0,2.37.7.7,0,0,0,.64.43h5.61a.69.69,0,0,0,.64-.43,3.11,3.11,0,0,0,.21-1.18,3.07,3.07,0,0,0-.21-1.18A.68.68,0,0,0,145.05,82.79Z" class="cls-3"/><path d="M113.52,95.31h-5.61a.7.7,0,0,0-.65.43,3.61,3.61,0,0,0,0,2.37.7.7,0,0,0,.65.43h5.61a.7.7,0,0,0,.64-.43,3.61,3.61,0,0,0,0-2.37A.7.7,0,0,0,113.52,95.31Z" class="cls-3"/><path d="M134.51,95.31H128.9a.69.69,0,0,0-.64.43,3.45,3.45,0,0,0,0,2.37.69.69,0,0,0,.64.43h5.61a.7.7,0,0,0,.64-.43,3.45,3.45,0,0,0,0-2.37A.7.7,0,0,0,134.51,95.31Z" class="cls-3"/><path d="M165.86,82.79h-5.43a.69.69,0,0,0-.64.44,3.07,3.07,0,0,0-.21,1.18,3.11,3.11,0,0,0,.21,1.18.7.7,0,0,0,.64.43h5.43a.7.7,0,0,0,.65-.43,3.17,3.17,0,0,0,.2-1.18,3.12,3.12,0,0,0-.2-1.18A.69.69,0,0,0,165.86,82.79Z" class="cls-3"/><path d="M187.5,83.23a.69.69,0,0,0-.64-.44h-5.61a.69.69,0,0,0-.65.44,3.34,3.34,0,0,0-.2,1.18,3.39,3.39,0,0,0,.2,1.18.7.7,0,0,0,.65.43h5.61a.7.7,0,0,0,.64-.43,3.39,3.39,0,0,0,.2-1.18A3.29,3.29,0,0,0,187.5,83.23Z" class="cls-3"/><path d="M176.49,95.31H170.7a.7.7,0,0,0-.64.43,3.58,3.58,0,0,0,0,2.36.69.69,0,0,0,.64.44h5.79a.68.68,0,0,0,.64-.44,3.42,3.42,0,0,0,0-2.36A.69.69,0,0,0,176.49,95.31Z" class="cls-3"/><path d="M155.42,95.31h-5.53a.7.7,0,0,0-.65.43,3.58,3.58,0,0,0,0,2.36.69.69,0,0,0,.65.44h5.53a.68.68,0,0,0,.64-.44,3.58,3.58,0,0,0,0-2.36A.7.7,0,0,0,155.42,95.31Z" class="cls-3"/><path d="M61.06,82.79H55.45a.68.68,0,0,0-.64.44,3,3,0,0,0-.21,1.18,3.11,3.11,0,0,0,.21,1.18.69.69,0,0,0,.64.43h5.61a.69.69,0,0,0,.64-.43,3.45,3.45,0,0,0,0-2.37A.69.69,0,0,0,61.06,82.79Z" class="cls-3"/><path d="M82.05,82.79H76.46a.69.69,0,0,0-.64.44,3.42,3.42,0,0,0,0,2.36.7.7,0,0,0,.64.43h5.59a.68.68,0,0,0,.64-.43,3.45,3.45,0,0,0,0-2.37A.69.69,0,0,0,82.05,82.79Z" class="cls-3"/><path d="M71.51,95.31H66a.71.71,0,0,0-.65.43,3.61,3.61,0,0,0,0,2.37.71.71,0,0,0,.65.43h5.49a.69.69,0,0,0,.64-.43,3.45,3.45,0,0,0,0-2.37A.69.69,0,0,0,71.51,95.31Z" class="cls-3"/><path d="M92.91,95.45a.72.72,0,0,0-.41-.14H86.91a.7.7,0,0,0-.64.43,3.34,3.34,0,0,0-.2,1.18,3.14,3.14,0,0,0,.2,1.19.7.7,0,0,0,.64.43h5.61a.7.7,0,0,0,.64-.43,3.09,3.09,0,0,0,.21-1.19,3,3,0,0,0-.21-1.18A.59.59,0,0,0,92.91,95.45Z" class="cls-3"/><path d="M207.5,128c0,1.66,0,3-1.67,3H36.48c-1.66,0-1.67-1.35-1.67-3v-5.84c0-1.66,0-3,1.67-3H205.83c1.66,0,1.67,1.35,1.67,3Z" class="cls-4"/><rect width="172.76" height="4.55" x="34.78" y="111.97" class="cls-5"/><polygon points="146.57 113.54 121.62 128.56 95.73 113.54 146.57 113.54" class="cls-5"/><path d="M34.81,186.19v4c0,26.56,21.53,26.69,48.08,26.69h76.57c26.56,0,48.09-.13,48.09-26.69v-4Z" class="cls-2"/><path d="M43.35,191.11c0,4.17.32,7.06,6.1,4.17s12.84-6.74,27.61-6.42c-5.46,1.61-11.88,4.5-12.52,8.35s3.21,5.46,11.56,3.53c1,3.53,4.49,7.39,11.88,1s11.55-9,15.08-10.27,4.5.64.65,2.89-7.39,3.53-8,6.1,0,6.74,6.42,4.82c0,4.49,1.29,8.34,6.74,8.34s7.71-2.88,7.71-8.34c3.53,1.92,8.67,3.21,9-3.86s3.53-10.27,6.74-11.88,3.78,1.39,1.6,2.25c-2.87,1.15-4.12,3.21-4.17,5.46-.06,2.88,4.89,7.16,9.95,1.93.39,3.1,6.1,5.13,8-1.29s2.47-10.39,8.35-10.59c-4,1.46-6.42,7.38-1.29,9.31s7.71-2.89,8.35-4.5,2.25-5.13,7.07-4.81c-4.17,1.85-4.18,8.34,0,8.67s5.77-1,9-3.86a21.69,21.69,0,0,1,17.66-4.81c-1.6,4.17,1.3,5.85,3.9,5.35,3.15-.6,2.88-4.08,3.86-6.42H40v.1C37.41,187.9,35.64,194.64,43.35,191.11Z" class="cls-6"/><path d="M26.14,176.7c3.1-.17,4.45.61,6.69,1.89a21.18,21.18,0,0,0,13,3.34,21.23,21.23,0,0,0,12.56-4.72c2.08-1.52,3.34-2.44,6.45-2.6s4.45.6,6.69,1.89a22.32,22.32,0,0,0,25.54-1.38c2.1-1.52,3.35-2.44,6.46-2.61s4.45.61,6.69,1.9A22.34,22.34,0,0,0,135.77,173c2.08-1.51,3.34-2.43,6.44-2.6s4.46.61,6.69,1.9a22.33,22.33,0,0,0,25.56-1.39c2.09-1.52,3.35-2.44,6.45-2.6s4.46.6,6.69,1.89a22.31,22.31,0,0,0,25.56-1.38c2.09-1.52,3.35-2.44,6.45-2.61l2.22-.12L221.6,162l-2.21.12a21.9,21.9,0,0,0-13,4.87c-2,1.48-3.16,2.3-6,2.46s-4.08-.54-6.27-1.8a23.12,23.12,0,0,0-26.4,1.43c-2,1.48-3.16,2.3-6,2.46s-4.07-.54-6.26-1.8A23.11,23.11,0,0,0,129,171.12c-2,1.49-3.17,2.31-6,2.46s-4.08-.53-6.27-1.79a23.06,23.06,0,0,0-26.39,1.43c-2,1.48-3.16,2.3-6,2.45s-4.08-.53-6.27-1.79a21.91,21.91,0,0,0-13.42-3.44,21.86,21.86,0,0,0-13,4.87c-2,1.49-3.16,2.3-6,2.46s-4.08-.54-6.27-1.79a21.8,21.8,0,0,0-13.42-3.44l-2.21.12.22,4.16Z" class="cls-4"/><path d="M214.08,170.09a23.89,23.89,0,0,1-27.24,1.48c-2.13-1.23-3.2-1.84-5.85-1.7s-3.64.87-5.61,2.31a23.89,23.89,0,0,1-27.24,1.48c-2.13-1.23-3.19-1.84-5.85-1.7s-3.63.87-5.61,2.31a23.83,23.83,0,0,1-27.23,1.48c-2.14-1.22-3.2-1.84-5.85-1.69s-3.64.86-5.62,2.3a23.85,23.85,0,0,1-27.23,1.49c-2.13-1.23-3.2-1.84-5.84-1.7s-3.64.87-5.62,2.31a22.57,22.57,0,0,1-13.38,5,22.58,22.58,0,0,1-13.85-3.53c-2.13-1.23-3.2-1.84-5.84-1.7l-3,.16.25,4.63,3-.16c2.87-.15,4.08.54,6.27,1.8a21.88,21.88,0,0,0,13.42,3.43,21.87,21.87,0,0,0,13-4.86c2-1.49,3.16-2.31,6-2.46s4.08.53,6.26,1.79a23.1,23.1,0,0,0,26.4-1.42c2-1.49,3.16-2.31,6-2.47s4.08.54,6.27,1.8a23.13,23.13,0,0,0,26.4-1.43c2-1.48,3.16-2.3,6-2.46s4.07.54,6.26,1.8a23.13,23.13,0,0,0,26.4-1.43c2-1.49,3.17-2.3,6-2.46s4.08.54,6.27,1.8a23.1,23.1,0,0,0,26.4-1.44c2-1.48,3.17-2.3,6-2.45l3-.16-.25-4.63-3,.16C217.05,167.92,216.06,168.65,214.08,170.09Z" class="cls-4"/><path d="M71.85,187.83l6.6-19.22h4.12v19.22l6.75-19.22h2.2L82.79,192H78.14V176l-6.22,16H67.3V170.55a6.74,6.74,0,0,0-5.09,7,4.35,4.35,0,0,0,.44,2.13c-2.17,0-3.37-.78-3.37-3,0-4.17,5.79-8.16,11-8.16.44,0,.85,0,1.26.06Z" class="cls-7"/><path d="M82.79,194.59H78.14A2.59,2.59,0,0,1,75.56,192v-2.27l-1.24,3.2a2.57,2.57,0,0,1-2.4,1.65H67.3A2.59,2.59,0,0,1,64.72,192V181.18a1.84,1.84,0,0,1-.17.22,2.6,2.6,0,0,1-1.9.84c-5.36,0-5.94-3.93-5.94-5.63,0-6.05,7.31-10.74,13.6-10.74.51,0,1,0,1.46.07a2.57,2.57,0,0,1,2.37,2.53l.07,4.56L76,167.77A2.56,2.56,0,0,1,78.45,166h4.12a2.57,2.57,0,0,1,2.57,2.57v4.14l1.76-5A2.56,2.56,0,0,1,89.32,166h2.2a2.59,2.59,0,0,1,2.12,1.11,2.54,2.54,0,0,1,.29,2.36L85.2,192.91A2.58,2.58,0,0,1,82.79,194.59ZM79.4,173.77a2.67,2.67,0,0,1,.59.46V172Z" class="cls-1"/><path d="M93.64,189.56c2.48,0,4-1.38,5.56-3.17h1.07c-1.79,2.89-4.46,5.81-8.64,5.81-2.95,0-4.9-1.45-4.9-5s2-11.19,8.48-11.19c2.8,0,3.46,1.44,3.46,3,0,3.62-3.46,6.41-7.23,6.63,0,.44-.06.88-.06,1.26C91.38,189.05,92.14,189.56,93.64,189.56Zm1.82-11.88c-1.6,0-3.14,3.36-3.77,6.48A5.26,5.26,0,0,0,96.25,179C96.25,178.19,96.06,177.68,95.46,177.68Z" class="cls-7"/><path d="M91.63,194.77c-4.68,0-7.47-2.83-7.47-7.57,0-5.71,3.43-13.76,11-13.76,3.72,0,6,2.15,6,5.59a8.44,8.44,0,0,1-1.5,4.78h.53a2.58,2.58,0,0,1,2.19,3.94C99.57,192.41,95.93,194.77,91.63,194.77Z" class="cls-1"/><path d="M105.7,189.56c2.48,0,4-1.38,5.57-3.17h1.06c-1.79,2.89-4.46,5.81-8.64,5.81-3,0-4.9-1.45-4.9-5s2-11.19,8.48-11.19c2.8,0,3.46,1.44,3.46,3,0,3.62-3.46,6.41-7.23,6.63,0,.44-.06.88-.06,1.26C103.44,189.05,104.2,189.56,105.7,189.56Zm1.83-11.88c-1.6,0-3.15,3.36-3.78,6.48a5.26,5.26,0,0,0,4.56-5.19C108.31,178.19,108.12,177.68,107.53,177.68Z" class="cls-7"/><path d="M103.69,194.77c-4.68,0-7.47-2.83-7.47-7.57,0-5.71,3.43-13.76,11-13.76,3.72,0,6,2.15,6,5.59a8.33,8.33,0,0,1-1.55,4.78h.58a2.58,2.58,0,0,1,2.19,3.94C111.63,192.41,108,194.77,103.69,194.77Z" class="cls-1"/><path d="M126.09,176.3l-6.28,4.37a6,6,0,0,1,1-.13c2.33,0,3.46,1.67,3.46,3.68a5,5,0,0,1-.13,1.19l-.34,1.58a5.22,5.22,0,0,0-.16,1c0,.63.25,1.16,1.23,1.16A2.09,2.09,0,0,0,126,189a3.47,3.47,0,0,1-2.93,3.24c-2.57,0-4-1.29-4-3.58a7.54,7.54,0,0,1,.2-1.63l.25-1.23a5.53,5.53,0,0,0,.12-1.17c0-.91-.31-1.5-1.13-1.5a4,4,0,0,0-2.32,1.16L114.59,192h-4.52l4.55-21.37,4.65-.63-2.35,11.07L123,176.3Z" class="cls-7"/><path d="M123.07,194.77c-2.71,0-4.76-1.12-5.79-3l-.17.8a2.58,2.58,0,0,1-2.52,2.05h-4.52a2.58,2.58,0,0,1-2.52-3.11l4.56-21.37a2.57,2.57,0,0,1,2.17-2l4.65-.63a2.57,2.57,0,0,1,2.86,3.09l-.87,4.1.47-.37a2.54,2.54,0,0,1,1.59-.55h3.11a2.58,2.58,0,0,1,2.46,1.8,2.61,2.61,0,0,1-1,2.89l-2.17,1.51a6.45,6.45,0,0,1,1.48,4.29,7.75,7.75,0,0,1-.19,1.77l-.1.47a2.33,2.33,0,0,1,.92.42,2.57,2.57,0,0,1,1.07,2.27A6,6,0,0,1,123.07,194.77Z" class="cls-1"/><path d="M71.85,187.83l6.6-19.22h4.12v19.22l6.75-19.22h2.2L82.79,192H78.14V176l-6.22,16H67.3V170.55a6.74,6.74,0,0,0-5.09,7,4.35,4.35,0,0,0,.44,2.13c-2.17,0-3.37-.78-3.37-3,0-4.17,5.79-8.16,11-8.16.44,0,.85,0,1.26.06Z" class="cls-8"/><path d="M93.64,189.56c2.48,0,4-1.38,5.56-3.17h1.07c-1.79,2.89-4.46,5.81-8.64,5.81-2.95,0-4.9-1.45-4.9-5s2-11.19,8.48-11.19c2.8,0,3.46,1.44,3.46,3,0,3.62-3.46,6.41-7.23,6.63,0,.44-.06.88-.06,1.26C91.38,189.05,92.14,189.56,93.64,189.56Zm1.82-11.88c-1.6,0-3.14,3.36-3.77,6.48A5.26,5.26,0,0,0,96.25,179C96.25,178.19,96.06,177.68,95.46,177.68Z" class="cls-8"/><path d="M105.7,189.56c2.48,0,4-1.38,5.57-3.17h1.06c-1.79,2.89-4.46,5.81-8.64,5.81-3,0-4.9-1.45-4.9-5s2-11.19,8.48-11.19c2.8,0,3.46,1.44,3.46,3,0,3.62-3.46,6.41-7.23,6.63,0,.44-.06.88-.06,1.26C103.44,189.05,104.2,189.56,105.7,189.56Zm1.83-11.88c-1.6,0-3.15,3.36-3.78,6.48a5.26,5.26,0,0,0,4.56-5.19C108.31,178.19,108.12,177.68,107.53,177.68Z" class="cls-8"/><path d="M126.09,176.3l-6.28,4.37a6,6,0,0,1,1-.13c2.33,0,3.46,1.67,3.46,3.68a5,5,0,0,1-.13,1.19l-.34,1.58a5.22,5.22,0,0,0-.16,1c0,.63.25,1.16,1.23,1.16A2.09,2.09,0,0,0,126,189a3.47,3.47,0,0,1-2.93,3.24c-2.57,0-4-1.29-4-3.58a7.54,7.54,0,0,1,.2-1.63l.25-1.23a5.53,5.53,0,0,0,.12-1.17c0-.91-.31-1.5-1.13-1.5a4,4,0,0,0-2.32,1.16L114.59,192h-4.52l4.55-21.37,4.65-.63-2.35,11.07L123,176.3Z" class="cls-8"/><path d="M53.23,113.62,49.1,131.37h.53c7,0,12.65-7,12.65-13,0-4.56-3.26-8.64-11.6-8.64-10.28,0-22,6.24-22,19.43,0,4.08,1.14,4.72,1.23,5.44-5.8,0-9.4-2-9.4-7.36,0-11,15.29-21.18,31.89-21.18,12.91,0,18.71,6.15,18.71,12.71,0,4.72-3.08,9.75-8.79,12.71,7.47,1.36,10.37,6.88,10.37,12.88,0,7.67-4.57,23-19.24,23-3.77,0-8.7-1-8.7-5.91a12,12,0,0,1,1.15-4.64c2.19,2.08,3.86,2.88,5.88,2.88,6.42,0,8.7-8.32,8.7-14.4,0-5.59-1.94-10.15-8.34-10.15-.71,0-2.46.08-4,.24l-7.2,30.63H28.28l11.95-50.86Z" class="cls-7"/><path d="M53.49,170.45c-4.41,0-7.75-1.21-9.71-3.39a3,3,0,0,1-2.85,2H28.28a3,3,0,0,1-2.93-3.7l6.71-28.59a3,3,0,0,1-2.11.87c-10.8,0-12.41-6.5-12.41-10.38,0-12.66,16.63-24.2,34.9-24.2,10.81,0,21.72,4.86,21.72,15.72A16.54,16.54,0,0,1,68.7,130.7c4.49,2.73,7,7.55,7,13.71a32.13,32.13,0,0,1-4.57,16C67.09,167,61,170.45,53.49,170.45Zm-5.65-8.54c.24,1.67,2.14,2.51,5.65,2.51,13.25,0,16.23-14.82,16.23-20,0-3.87-1.37-8.73-7.9-9.92A3,3,0,0,1,59.38,132a3.08,3.08,0,0,1,.22-1.65,16.3,16.3,0,0,1-3.46,2.42c6.59,2.05,7.39,9.24,7.39,12.61,0,8.39-3.66,17.41-11.71,17.41A9.29,9.29,0,0,1,47.84,161.91Zm-15.76,1.15h6.46l6.66-28.3a3,3,0,0,1,1.31-1.85,3,3,0,0,1-.35-2.22l3.16-13.55-6.64.81ZM46.86,154a3.05,3.05,0,0,1,1.15.68c2,1.9,3,2.06,3.81,2.06,4.14,0,5.69-7,5.69-11.39,0-6.27-2.57-7.14-5.33-7.14-.32,0-.92,0-1.62.06ZM36.49,118a14.68,14.68,0,0,0-4.76,11.24,6.3,6.3,0,0,0,.62,3.39,5.86,5.86,0,0,1,.46,1Zm-7-1.11c-3.64,3-5.89,6.7-5.89,10.43,0,1.22,0,2.87,2.22,3.75-.05-.55-.07-1.15-.07-1.83A21,21,0,0,1,29.45,116.86Zm33.14-5.8a10.93,10.93,0,0,1,2.7,7.36,16.41,16.41,0,0,1-4.18,10.37c4.34-2.3,7-6.11,7-10C68.13,115.44,66.11,112.75,62.59,111.06Zm-6.36,2.74a2.74,2.74,0,0,1-.07.5l-3.08,13.26c3.56-1.69,6.18-5.71,6.18-9.14A4.8,4.8,0,0,0,56.23,113.8Z" class="cls-1"/><path d="M107.9,128,102.41,154a11,11,0,0,0-.3,2.43c0,2.14,1,2.83,3.12,2.83,3,0,5-2.9,6.18-6.71h3.2c-4.35,12.42-11.2,14.1-15.32,14.1-4.34,0-7.09-2.52-7.54-7.24-3.81,6.24-8.08,7.24-11.28,7.24-4.57,0-8.16-2.74-8.16-9.15a25,25,0,0,1,.61-4.95L78.1,128h11L83.59,154a10.82,10.82,0,0,0-.23,2.13c0,1.75.61,3.13,2.29,3.13,3,0,4.95-2.9,6.1-6.71L96.93,128Z" class="cls-7"/><path d="M99.29,169.17c-3.81,0-6.76-1.57-8.48-4.38a13.94,13.94,0,0,1-10.34,4.38c-5.19,0-10.73-3.08-10.73-11.72A27.75,27.75,0,0,1,70.4,152l5.19-24.47a2.57,2.57,0,0,1,2.51-2h11a2.57,2.57,0,0,1,2.52,3.11l-5.49,25.91a8.55,8.55,0,0,0-.17,1.6,3.54,3.54,0,0,0,0,.52c1.78-.38,2.92-3.57,3.28-4.74l5.16-24.36a2.57,2.57,0,0,1,2.52-2h11a2.57,2.57,0,0,1,2.52,3.11l-5.49,25.91a8.63,8.63,0,0,0-.25,1.9,1.62,1.62,0,0,0,0,.23l.54,0c2.09,0,3.37-3.73,3.71-4.87a2.58,2.58,0,0,1,2.47-1.84h3.2a2.58,2.58,0,0,1,2.43,3.43C112.46,166.43,104.86,169.17,99.29,169.17ZM92.69,157a2.56,2.56,0,0,1,1.62,2.15c.32,3.35,1.91,4.91,5,4.91a10.31,10.31,0,0,0,6.53-2.26l-.59,0c-5,0-5.7-3.38-5.7-5.4a13.49,13.49,0,0,1,.37-3l4.82-22.76H99L94.27,153l-.06.21A18.84,18.84,0,0,1,92.69,157Zm-12.5-26.35L75.44,153a22.27,22.27,0,0,0-.55,4.42c0,4.36,1.88,6.57,5.58,6.57a8.64,8.64,0,0,0,6.1-2.3,7.72,7.72,0,0,1-.92.06c-2.24,0-4.86-1.49-4.86-5.7a13.17,13.17,0,0,1,.28-2.63l4.83-22.84Z" class="cls-1"/><path d="M127.55,128l-1,4.72c2.67-2.29,5.57-4.72,9.23-4.72,3.42,0,5.25,2.82,5.25,5.71a5.33,5.33,0,0,1-5.48,5.57c-4.27,0-2.14-5-4.42-5s-3.66,1.14-5.57,2.89l-6.09,29h-11l8.08-38.1Z" class="cls-7"/><path d="M119.48,168.72h-11a2.58,2.58,0,0,1-2.52-3.11l8.08-38.11a2.59,2.59,0,0,1,2.52-2h11a2.58,2.58,0,0,1,2,1,2.88,2.88,0,0,1,.39.65,12.05,12.05,0,0,1,5.85-1.6c4.46,0,7.83,3.56,7.83,8.29a7.94,7.94,0,0,1-8.06,8.14c-4.26,0-5.2-3.25-5.54-4.84a7.49,7.49,0,0,0-2.1,1.48L122,166.67A2.58,2.58,0,0,1,119.48,168.72Zm-7.8-5.15h5.71l5.66-26.92a2.54,2.54,0,0,1,.78-1.36c.27-.25.56-.52.85-.77a2.61,2.61,0,0,1-.64-2.29l.34-1.62h-5.71Zm23.57-26.85.31,0a2.79,2.79,0,0,0,2.91-3c0-.32-.08-3.14-2.68-3.14a7.35,7.35,0,0,0-3.77,1.2c2.32.51,2.81,3,3,3.91A7.74,7.74,0,0,0,135.25,136.72Z" class="cls-1"/><path d="M173.55,128,166,163.39c4.65-1.67,7.47-4.26,9.61-10.89h3.2c-3,10.06-8.77,12.95-13.49,14.25l-1.15,5.49c-2.28,10.89-8.68,12.95-13.71,12.95-4.65,0-8.54-2.44-8.54-7.39,0-6.4,6.71-9.6,12.42-11.35l.92-4a12.26,12.26,0,0,1-9.15,4.19c-5.18,0-10.13-3.21-10.13-12.28,0-10.28,6.32-26.67,19.58-26.67,4.35,0,6.18,1.68,6.18,3.89V132l.83-4ZM148.7,179.25c1.61,0,3.43-2.29,4.43-6.79l.45-2.21c-3.88,1.45-7.47,3.43-7.47,6.48A2.6,2.6,0,0,0,148.7,179.25Zm-1.44-26c0,5.87,2.44,6,3.81,6,2.06,0,5-2.06,6.09-6l3.89-18.06a3,3,0,0,0-3.13-2.82C151.45,132.38,147.26,146.1,147.26,153.26Z" class="cls-7"/><path d="M150.46,187.77c-6.65,0-11.11-4-11.11-10a11.23,11.23,0,0,1,4.31-8.84c-5.32-1-10.26-5.14-10.26-14.64,0-12.26,7.7-29.24,22.16-29.24a11.84,11.84,0,0,1,5.28,1,2.56,2.56,0,0,1,1.73-.67h11a2.58,2.58,0,0,1,2.52,3.11l-6.32,29.59a16.45,16.45,0,0,0,3.41-6.45,2.58,2.58,0,0,1,2.45-1.79h3.2a2.59,2.59,0,0,1,2.47,3.31c-3.07,10.37-9,13.94-13.76,15.54l-.83,4C164.09,185.16,156.43,187.77,150.46,187.77Zm-5.24-7.32c1.28,1.91,3.91,2.17,5.24,2.17,8,0,10.21-6.23,11.19-10.91l1.15-5.49a2.57,2.57,0,0,1,1-1.54,2.5,2.5,0,0,1-.29-1.82l6.88-32.25h-5.71l-.41,1.92a2.56,2.56,0,0,1-.82,1.41,6.18,6.18,0,0,1,.18,1,2.48,2.48,0,0,1,0,.77l-3.89,18.06,0,.14a11.54,11.54,0,0,1-3.81,6,2.32,2.32,0,0,1,.62.23,2.57,2.57,0,0,1,1.31,2.84l-.92,4a2.54,2.54,0,0,1-1.23,1.67,2.56,2.56,0,0,1,.48,2.09l-.45,2.21c-1.24,5.63-3.77,8.84-7,8.84A5,5,0,0,1,145.22,180.45Zm3.47-3.78s0,0,0,.06l0-.06Zm.76-1.29a2.26,2.26,0,0,0-.73,1.1A5.53,5.53,0,0,0,149.45,175.38Zm6-45.15c-11.81.08-16.92,16-16.92,24.09,0,6.35,2.61,9.7,7.56,9.7a9.25,9.25,0,0,0,6.24-2.38,6.42,6.42,0,0,1-1.28.14c-4.24,0-6.39-2.87-6.39-8.52a39.12,39.12,0,0,1,3.12-14.14C149.86,134.3,152.49,131.28,155.47,130.23Zm2.45,4.72c-3.83,0-8.09,10.91-8.09,18.31,0,2.73.61,3.32.61,3.33a3.08,3.08,0,0,0,.63,0c.83,0,2.8-1.2,3.59-4l3.76-17.47C158.33,135,158.14,135,157.92,135Z" class="cls-1"/><path d="M188.86,160.2c6,0,9.68-3.36,13.49-7.7h2.59c-4.34,7-10.82,14.1-21,14.1-7.17,0-11.89-3.51-11.89-12.12,0-8.77,5-27.13,20.58-27.13,6.78,0,8.38,3.51,8.38,7.32,0,8.76-8.38,15.54-17.52,16.08-.08,1.06-.16,2.13-.16,3.05C183.37,159,185.2,160.2,188.86,160.2Zm4.42-28.81c-3.89,0-7.62,8.15-9.15,15.69,5.87-.38,11.05-6.24,11.05-12.57C195.18,132.61,194.73,131.39,193.28,131.39Z" class="cls-7"/><path d="M184,169.17c-9.19,0-14.46-5.35-14.46-14.69,0-9.69,5.66-29.71,23.15-29.71,7.07,0,11,3.52,11,9.9,0,9-7.74,16.82-17.67,18.4,0,.25,0,.5,0,.73,0,3.66.65,3.82,2.91,3.82,4.68,0,7.67-2.39,11.56-6.82a2.54,2.54,0,0,1,1.93-.88h2.59a2.58,2.58,0,0,1,2.19,3.93C200.74,164.16,193.17,169.17,184,169.17Zm5.47-38.92c-4.39.92-8,3.82-10.68,8.64a34.32,34.32,0,0,0-4.1,15.59c0,6.51,3,9.54,9.31,9.54a17,17,0,0,0,6.75-1.35,16.12,16.12,0,0,1-1.87.1c-5.5,0-8.06-2.85-8.06-9,0-1,.08-2.11.16-3.25a2.59,2.59,0,0,1,1.11-1.93,2.54,2.54,0,0,1-.46-2.05C182.65,141.42,185.3,133.47,189.45,130.25Zm3.16,4c-1.28.93-3.29,4.11-4.82,8.94a10.74,10.74,0,0,0,4.82-8.68Zm4.31-3.42a7.06,7.06,0,0,1,.84,3.68,15.29,15.29,0,0,1-2.07,7.62,11.86,11.86,0,0,0,2.79-7.46C198.48,133.19,198.31,131.73,196.92,130.83ZM193.28,134h0v0Z" class="cls-1"/><path d="M216.57,128l-1,4.72c2.66-2.29,5.56-4.72,9.22-4.72,3.43,0,5.26,2.82,5.26,5.71a5.34,5.34,0,0,1-5.5,5.57c-4.26,0-2.13-5-4.41-5s-3.66,1.14-5.56,2.89l-6.1,29h-11l8.08-38.1Z" class="cls-7"/><path d="M208.49,168.72h-11a2.57,2.57,0,0,1-2.51-3.11l8.07-38.11a2.59,2.59,0,0,1,2.52-2h11a2.57,2.57,0,0,1,2,1,2.21,2.21,0,0,1,.39.66,12,12,0,0,1,5.85-1.61c4.46,0,7.83,3.56,7.83,8.29a7.94,7.94,0,0,1-8.07,8.14c-4.25,0-5.19-3.25-5.52-4.84a7.37,7.37,0,0,0-2.11,1.48L211,166.67A2.6,2.6,0,0,1,208.49,168.72Zm-7.8-5.15h5.71l5.67-26.92a2.59,2.59,0,0,1,.77-1.36l.85-.77a2.56,2.56,0,0,1-.63-2.29l.34-1.62h-5.72Zm23.57-26.85.3,0a2.83,2.83,0,0,0,2.92-3c0-.32-.07-3.14-2.68-3.14a7.29,7.29,0,0,0-3.76,1.2c2.31.51,2.81,3,3,3.92A8,8,0,0,0,224.26,136.72Z" class="cls-1"/><path d="M53.23,113.62,49.1,131.37h.53c7,0,12.65-7,12.65-13,0-4.56-3.26-8.64-11.6-8.64-10.28,0-22,6.24-22,19.43,0,4.08,1.14,4.72,1.23,5.44-5.8,0-9.4-2-9.4-7.36,0-11,15.29-21.18,31.89-21.18,12.91,0,18.71,6.15,18.71,12.71,0,4.72-3.08,9.75-8.79,12.71,7.47,1.36,10.37,6.88,10.37,12.88,0,7.67-4.57,23-19.24,23-3.77,0-8.7-1-8.7-5.91a12,12,0,0,1,1.15-4.64c2.19,2.08,3.86,2.88,5.88,2.88,6.42,0,8.7-8.32,8.7-14.4,0-5.59-1.94-10.15-8.34-10.15-.71,0-2.46.08-4,.24l-7.2,30.63H28.28l11.95-50.86Z" class="cls-8"/><path d="M107.9,128,102.41,154a11,11,0,0,0-.3,2.43c0,2.14,1,2.83,3.12,2.83,3,0,5-2.9,6.18-6.71h3.2c-4.35,12.42-11.2,14.1-15.32,14.1-4.34,0-7.09-2.52-7.54-7.24-3.81,6.24-8.08,7.24-11.28,7.24-4.57,0-8.16-2.74-8.16-9.15a25,25,0,0,1,.61-4.95L78.1,128h11L83.59,154a10.82,10.82,0,0,0-.23,2.13c0,1.75.61,3.13,2.29,3.13,3,0,4.95-2.9,6.1-6.71L96.93,128Z" class="cls-8"/><path d="M127.55,128l-1,4.72c2.67-2.29,5.57-4.72,9.23-4.72,3.42,0,5.25,2.82,5.25,5.71a5.33,5.33,0,0,1-5.48,5.57c-4.27,0-2.14-5-4.42-5s-3.66,1.14-5.57,2.89l-6.09,29h-11l8.08-38.1Z" class="cls-8"/><path d="M173.55,128,166,163.39c4.65-1.67,7.47-4.26,9.61-10.89h3.2c-3,10.06-8.77,12.95-13.49,14.25l-1.15,5.49c-2.28,10.89-8.68,12.95-13.71,12.95-4.65,0-8.54-2.44-8.54-7.39,0-6.4,6.71-9.6,12.42-11.35l.92-4a12.26,12.26,0,0,1-9.15,4.19c-5.18,0-10.13-3.21-10.13-12.28,0-10.28,6.32-26.67,19.58-26.67,4.35,0,6.18,1.68,6.18,3.89V132l.83-4ZM148.7,179.25c1.61,0,3.43-2.29,4.43-6.79l.45-2.21c-3.88,1.45-7.47,3.43-7.47,6.48A2.6,2.6,0,0,0,148.7,179.25Zm-1.44-26c0,5.87,2.44,6,3.81,6,2.06,0,5-2.06,6.09-6l3.89-18.06a3,3,0,0,0-3.13-2.82C151.45,132.38,147.26,146.1,147.26,153.26Z" class="cls-8"/><path d="M188.86,160.2c6,0,9.68-3.36,13.49-7.7h2.59c-4.34,7-10.82,14.1-21,14.1-7.17,0-11.89-3.51-11.89-12.12,0-8.77,5-27.13,20.58-27.13,6.78,0,8.38,3.51,8.38,7.32,0,8.76-8.38,15.54-17.52,16.08-.08,1.06-.16,2.13-.16,3.05C183.37,159,185.2,160.2,188.86,160.2Zm4.42-28.81c-3.89,0-7.62,8.15-9.15,15.69,5.87-.38,11.05-6.24,11.05-12.57C195.18,132.61,194.73,131.39,193.28,131.39Z" class="cls-8"/><path d="M216.57,128l-1,4.72c2.66-2.29,5.56-4.72,9.22-4.72,3.43,0,5.26,2.82,5.26,5.71a5.34,5.34,0,0,1-5.5,5.57c-4.26,0-2.13-5-4.41-5s-3.66,1.14-5.56,2.89l-6.1,29h-11l8.08-38.1Z" class="cls-8"/><path d="M13.79,156c3.31.73,6.65,4.1,10.69,4.1a6.86,6.86,0,0,0,2.67-.51c-.32,3.06-1.59,5-3.31,5-4.55,0-8.56-7.22-14.19-7.22a5.94,5.94,0,0,0-.73,0l4.74-22.05a7,7,0,0,0-4.46,6.94,4.43,4.43,0,0,0,.45,2.16c-2.19,0-3.41-.8-3.41-3.09,0-4.23,5.86-8.27,11.17-8.27.45,0,.86,0,1.28.06Z" class="cls-7"/><path d="M23.84,167.16c-3.05,0-5.53-2-7.93-3.88-2.16-1.72-4.19-3.34-6.26-3.34a2.81,2.81,0,0,0-.41,0,2.57,2.57,0,0,1-2.84-3.09L8.53,147c-4.36-.51-4.86-4-4.86-5.6,0-5,6-10.85,13.74-10.85.51,0,1,0,1.44.07a2.63,2.63,0,0,1,1.88,1,2.56,2.56,0,0,1,.47,2.08l-4.42,20.64c.81.37,1.61.81,2.38,1.23,1.85,1,3.6,2,5.32,2a4.13,4.13,0,0,0,1.68-.32,2.58,2.58,0,0,1,3.55,2.65C29.15,165.24,26.31,167.16,23.84,167.16Z" class="cls-1"/><path d="M24.35,153.8a6.48,6.48,0,0,0,3.75-1.68c-.67,3.62-3,4.7-5.5,4.7-3,0-4.93-1.46-4.93-5s2.06-11.33,8.59-11.33c2.83,0,3.5,1.46,3.5,3.05,0,3.69-3.5,6.49-7.32,6.72,0,.31-.06.67-.06.95C22.38,153.16,23.23,153.8,24.35,153.8Zm2.16-11.67c-1.59,0-3.18,3.53-3.85,6.55a5.29,5.29,0,0,0,4.65-5.25C27.31,142.63,27.11,142.13,26.51,142.13Z" class="cls-7"/><path d="M22.6,159.4c-4.63,0-7.51-2.93-7.51-7.63,0-5.78,3.47-13.91,11.17-13.91,3.74,0,6.07,2.16,6.07,5.63a8.82,8.82,0,0,1-2.89,6.43,2.55,2.55,0,0,1,1.19,2.66C29.84,156.91,26.91,159.4,22.6,159.4Z" class="cls-1"/><path d="M13.79,156c3.31.73,6.65,4.1,10.69,4.1a6.86,6.86,0,0,0,2.67-.51c-.32,3.06-1.59,5-3.31,5-4.55,0-8.56-7.22-14.19-7.22a5.94,5.94,0,0,0-.73,0l4.74-22.05a7,7,0,0,0-4.46,6.94,4.43,4.43,0,0,0,.45,2.16c-2.19,0-3.41-.8-3.41-3.09,0-4.23,5.86-8.27,11.17-8.27.45,0,.86,0,1.28.06Z" class="cls-8"/><path d="M24.35,153.8a6.48,6.48,0,0,0,3.75-1.68c-.67,3.62-3,4.7-5.5,4.7-3,0-4.93-1.46-4.93-5s2.06-11.33,8.59-11.33c2.83,0,3.5,1.46,3.5,3.05,0,3.69-3.5,6.49-7.32,6.72,0,.31-.06.67-.06.95C22.38,153.16,23.23,153.8,24.35,153.8Zm2.16-11.67c-1.59,0-3.18,3.53-3.85,6.55a5.29,5.29,0,0,0,4.65-5.25C27.31,142.63,27.11,142.13,26.51,142.13Z" class="cls-8"/><path d="M207.58,105.41v4H173.87L154.11,98.54l-4.85-2.67-61.36-34c12.18-4.47,16.75-12.47,33.86-12.47C178.54,49.37,207.58,78.86,207.58,105.41Z" class="cls-9"/><path d="M187.92,60.4a4.61,4.61,0,1,0-8.4-3.78c-1.05,2.32-18.47,52.26-18.47,52.26S186.87,62.72,187.92,60.4Z" class="cls-5"/><circle cx="216.57" cy="100.54" r="5.26" class="cls-5"/><circle cx="24.98" cy="97.31" r="3.65" class="cls-5"/><path d="M29.3,63.06c2.13,2.13,12.55,4.82,12.55,4.82S39.16,57.47,37,55.33a5.47,5.47,0,1,0-7.73,7.73Z" class="cls-5"/><path d="M157.47,32.35c-.73,2.5,1.55,11.52,1.55,11.52s6.78-6.37,7.51-8.87a4.72,4.72,0,0,0-9.06-2.65Z" class="cls-5"/><path d="M83.28,46.5c.24,1.37,3.46,5.14,3.46,5.14s1.74-4.64,1.5-6a2.52,2.52,0,0,0-5,.87Z" class="cls-5"/><path d="M111.75,33a3.73,3.73,0,0,0-7.43.74c.21,2,8.15,44.14,8.15,44.14S112,35,111.75,33Z" class="cls-5"/><path d="M148.53,46.22a3.73,3.73,0,1,0-7.31-1.44c-.4,2-5,44.6-5,44.6S148.14,48.24,148.53,46.22Z" class="cls-5"/><path d="M223.58,67.91a3.13,3.13,0,1,0-4.19-4.66c-1.28,1.15-25.86,27.4-25.86,27.4S222.29,69.06,223.58,67.91Z" class="cls-5"/><path d="M58.26,44.05a3.73,3.73,0,0,0-6.51,3.64c1,1.8,25.06,37.24,25.06,37.24S59.27,45.85,58.26,44.05Z" class="cls-5"/><path d="M163.87,23.1h.7l.79,2.22h0l.76-2.22h.69v2.84h-.47V23.75h0l-.79,2.19h-.41l-.78-2.19h0v2.19h-.48Z" class="cls-10"/><path d="M167.42,23.1h1.18a1.33,1.33,0,0,1,.56.11,1.2,1.2,0,0,1,.4.3,1.31,1.31,0,0,1,.22.46,2.2,2.2,0,0,1,0,1.1,1.18,1.18,0,0,1-.22.45,1.11,1.11,0,0,1-.4.31,1.33,1.33,0,0,1-.56.11h-1.18Zm.5,2.43h.49a1.26,1.26,0,0,0,.47-.07.66.66,0,0,0,.29-.22.73.73,0,0,0,.15-.32,2,2,0,0,0,0-.8.73.73,0,0,0-.15-.32.66.66,0,0,0-.29-.22,1.24,1.24,0,0,0-.47-.08h-.49Z" class="cls-10"/><path d="M171.05,23h.43l-1.14,3h-.43Z" class="cls-10"/><path d="M174.45,24.52a1.51,1.51,0,0,1-.12.61,1.42,1.42,0,0,1-.78.77A1.55,1.55,0,0,1,173,26a1.45,1.45,0,0,1-.59-.12,1.21,1.21,0,0,1-.46-.31,1.35,1.35,0,0,1-.3-.47,1.44,1.44,0,0,1-.11-.59,1.51,1.51,0,0,1,.11-.61,1.56,1.56,0,0,1,.32-.47,1.45,1.45,0,0,1,.47-.3A1.51,1.51,0,0,1,173,23a1.55,1.55,0,0,1,.56.11,1.42,1.42,0,0,1,.78.77A1.51,1.51,0,0,1,174.45,24.52Zm-.32,0A1.35,1.35,0,0,0,174,24a1.28,1.28,0,0,0-.24-.39,1.11,1.11,0,0,0-.36-.25,1.17,1.17,0,0,0-.9,0,1.15,1.15,0,0,0-.37.25,1.28,1.28,0,0,0-.24.39,1.35,1.35,0,0,0-.09.5,1.51,1.51,0,0,0,.08.48,1.26,1.26,0,0,0,.23.39,1,1,0,0,0,.36.26,1.06,1.06,0,0,0,.48.1,1.13,1.13,0,0,0,.45-.09,1.11,1.11,0,0,0,.36-.25A1.28,1.28,0,0,0,174,25,1.35,1.35,0,0,0,174.13,24.52Zm-1.43.85h-.27V23.72h.62a.78.78,0,0,1,.45.11.44.44,0,0,1,.15.37.39.39,0,0,1-.12.32.62.62,0,0,1-.31.13l.46.72h-.3l-.43-.7h-.25Zm.3-.93h.14a.5.5,0,0,0,.13,0,.3.3,0,0,0,.08-.08.26.26,0,0,0,0-.14.21.21,0,0,0,0-.12.31.31,0,0,0-.09-.07.2.2,0,0,0-.11,0h-.45v.49Z" class="cls-10"/><path d="M73.64,25.41l-5.72-6.12,2.36-2.21a2.87,2.87,0,0,1,.93-.61,2.15,2.15,0,0,1,1-.17,2.3,2.3,0,0,1,.94.27,3.52,3.52,0,0,1,.88.7,3.15,3.15,0,0,1,.63.92,2.3,2.3,0,0,1,.21.95,2.27,2.27,0,0,1-.22.94,3.06,3.06,0,0,1-.68.89l-1,1L75,24.17Zm-1.75-4.53.71-.66a1.26,1.26,0,0,0,.48-.78,1.09,1.09,0,0,0-.36-.75l-.25-.26a1,1,0,0,0-.72-.41,1.29,1.29,0,0,0-.81.43l-.71.66Z" class="cls-10"/><path d="M78,19.68l1.19-.79-1.89-2.84-1.19.79-.77-1.16L78,13.91l1,1.46.07,0a3.84,3.84,0,0,1-.16-.67,2.28,2.28,0,0,1,0-.69,1.84,1.84,0,0,1,.26-.64,2.22,2.22,0,0,1,.58-.56l.49-.32.91,1.36-1.1.73a1.25,1.25,0,0,0-.62.87,1.41,1.41,0,0,0,.25,1l1,1.52,1.7-1.13.77,1.16-4.36,2.91Z" class="cls-10"/><path d="M87.22,16a3.1,3.1,0,0,1-2.5.26A3.32,3.32,0,0,1,83,14.46a4.17,4.17,0,0,1-.41-1.32A2.94,2.94,0,0,1,82.64,12a2.68,2.68,0,0,1,.56-1,3.7,3.7,0,0,1,1-.75,3.48,3.48,0,0,1,1.22-.35,2.66,2.66,0,0,1,2.09.79,3.8,3.8,0,0,1,.76,1.07l.23.48-3.81,1.86,0,.1a1.3,1.3,0,0,0,.76.7,1.49,1.49,0,0,0,1.14-.15,2,2,0,0,0,.76-.6,2.21,2.21,0,0,0,.37-.81l1.32.52a2.81,2.81,0,0,1-.57,1.13A3.62,3.62,0,0,1,87.22,16ZM84.8,11.34a1.24,1.24,0,0,0-.67.72,1.35,1.35,0,0,0,.11,1l.05.08,2.24-1.09,0-.09a1.4,1.4,0,0,0-.72-.72A1.2,1.2,0,0,0,84.8,11.34Z" class="cls-10"/><path d="M93.42,13.36a4.79,4.79,0,0,1-1.79.31,2.61,2.61,0,0,1-1.37-.42l.63-1.2a2.68,2.68,0,0,0,1,.29A2.63,2.63,0,0,0,93,12.18a1.78,1.78,0,0,0,.73-.43.53.53,0,0,0,.11-.57.37.37,0,0,0-.31-.28,1.81,1.81,0,0,0-.59,0l-1,.19a4.52,4.52,0,0,1-.8.08,1.81,1.81,0,0,1-.7-.11,1.55,1.55,0,0,1-.57-.35,1.64,1.64,0,0,1-.4-.66,1.81,1.81,0,0,1,.18-1.69,3.5,3.5,0,0,1,1.78-1.22A4.28,4.28,0,0,1,93,6.89a2.43,2.43,0,0,1,1.2.31l-.49,1.25a2.36,2.36,0,0,0-.84-.24,2.54,2.54,0,0,0-1.05.16c-.65.24-.9.55-.76.94a.39.39,0,0,0,.32.29,2.55,2.55,0,0,0,.58,0l1-.19a4.52,4.52,0,0,1,.8-.08,1.86,1.86,0,0,1,.71.11,1.58,1.58,0,0,1,.58.35,1.76,1.76,0,0,1,.4.66,1.83,1.83,0,0,1-.19,1.7A3.53,3.53,0,0,1,93.42,13.36Z" class="cls-10"/><path d="M100.34,11.26a3,3,0,0,1-2.5-.26,3.33,3.33,0,0,1-1.36-2.08,4.44,4.44,0,0,1-.13-1.37,3,3,0,0,1,.33-1.15,2.61,2.61,0,0,1,.76-.86A3.48,3.48,0,0,1,98.61,5a3.05,3.05,0,0,1,1.26-.09,2.54,2.54,0,0,1,1.06.38,2.75,2.75,0,0,1,.82.81,3.79,3.79,0,0,1,.52,1.21l.13.52-4.11,1,0,.11a1.27,1.27,0,0,0,.6.84,1.47,1.47,0,0,0,1.15.09,2,2,0,0,0,.86-.43,2.17,2.17,0,0,0,.53-.71l1.19.77a3.11,3.11,0,0,1-.79,1A3.71,3.71,0,0,1,100.34,11.26Zm-1.41-5a1.22,1.22,0,0,0-.81.57,1.3,1.3,0,0,0-.09,1l0,.1,2.42-.61,0-.1a1.36,1.36,0,0,0-.56-.85A1.16,1.16,0,0,0,98.93,6.25Z" class="cls-10"/><path d="M104.23,10.2l-1-6.11L105,3.8l.18,1.11h.07a2.55,2.55,0,0,1,.18-.53,1.9,1.9,0,0,1,.31-.45,1.72,1.72,0,0,1,.47-.36,1.93,1.93,0,0,1,.64-.21,2.3,2.3,0,0,1,.83,0,1.69,1.69,0,0,1,.7.34,2.18,2.18,0,0,1,.52.66,2.93,2.93,0,0,1,.31,1l.64,3.95-1.75.29-.6-3.72q-.19-1.19-1.23-1a1.46,1.46,0,0,0-.39.12,1.21,1.21,0,0,0-.32.22.88.88,0,0,0-.19.32.79.79,0,0,0,0,.41l.65,4Z" class="cls-10"/><path d="M114.51,8.85A1.84,1.84,0,0,1,113,8.47a1.79,1.79,0,0,1-.57-1.24l-.24-3-1.68.14L110.44,3l1.09-.09a.75.75,0,0,0,.54-.2.74.74,0,0,0,.13-.58L112.08.65,113.7.51l.18,2.18,2.4-.2.12,1.39-2.41.2.28,3.4,2.41-.2.11,1.39Z" class="cls-10"/><path d="M121.22,8.72a3.07,3.07,0,0,1-2.37-.84A3.27,3.27,0,0,1,118,5.54a4.2,4.2,0,0,1,.2-1.37,2.75,2.75,0,0,1,.59-1,2.43,2.43,0,0,1,.94-.66A3.52,3.52,0,0,1,121,2.24a3.31,3.31,0,0,1,1.25.22,2.53,2.53,0,0,1,.94.62,2.86,2.86,0,0,1,.61,1,4.07,4.07,0,0,1,.22,1.3v.53l-4.23,0V6a1.27,1.27,0,0,0,.38,1,1.47,1.47,0,0,0,1.1.35,2,2,0,0,0,.94-.21,2.32,2.32,0,0,0,.68-.57l1,1a3.12,3.12,0,0,1-1,.77A3.59,3.59,0,0,1,121.22,8.72ZM121,3.52a1.21,1.21,0,0,0-.92.36,1.28,1.28,0,0,0-.33,1v.09l2.49,0v-.1a1.27,1.27,0,0,0-.34-.95A1.15,1.15,0,0,0,121,3.52Z" class="cls-10"/><path d="M129.29,7.72h-.09a2.33,2.33,0,0,1-.72.88,1.78,1.78,0,0,1-1.19.28,2.29,2.29,0,0,1-.93-.26,1.81,1.81,0,0,1-.69-.63,2.8,2.8,0,0,1-.41-1,5.19,5.19,0,0,1-.08-1.46,5.6,5.6,0,0,1,.27-1.44,2.89,2.89,0,0,1,.54-1,2,2,0,0,1,.77-.54,2.33,2.33,0,0,1,1-.13,2.14,2.14,0,0,1,.65.14,1.84,1.84,0,0,1,.49.3,1.87,1.87,0,0,1,.36.43,3.18,3.18,0,0,1,.24.53h.09L129.8,0l1.77.12L131,9l-1.77-.12Zm-1.14-.18a1.48,1.48,0,0,0,.82-.17.8.8,0,0,0,.39-.69l.12-1.81a.8.8,0,0,0-.3-.74,1.37,1.37,0,0,0-.79-.28,1.14,1.14,0,0,0-.94.3,1.45,1.45,0,0,0-.4,1l-.06,1a1.42,1.42,0,0,0,.26,1A1.18,1.18,0,0,0,128.15,7.54Z" class="cls-10"/><path d="M141.22,1.52l1.73.41-.88,3.72.09,0a2.32,2.32,0,0,1,.85-.74,1.79,1.79,0,0,1,1.23-.09,2.32,2.32,0,0,1,.87.4,1.94,1.94,0,0,1,.58.74,2.92,2.92,0,0,1,.24,1.09,5.7,5.7,0,0,1-.16,1.46,5.71,5.71,0,0,1-.5,1.37,3,3,0,0,1-.7.87,1.92,1.92,0,0,1-.85.41,2.24,2.24,0,0,1-1,0,1.82,1.82,0,0,1-1.06-.61,2.23,2.23,0,0,1-.43-1.06h-.08l-.26,1.1-1.73-.4Zm1.11,8.1a1.19,1.19,0,0,0,1-.14,1.47,1.47,0,0,0,.55-.91l.22-.93a1.51,1.51,0,0,0-.09-1,1.18,1.18,0,0,0-.82-.57,1.4,1.4,0,0,0-.84,0,.77.77,0,0,0-.49.62l-.42,1.76a.84.84,0,0,0,.17.78A1.45,1.45,0,0,0,142.33,9.62Z" class="cls-10"/><path d="M152.2,7.35l1.71.58-5,5.89a2.48,2.48,0,0,1-1,.76,2,2,0,0,1-1.3-.06l-1.16-.39.45-1.32,1.41.48.69-.87-.41-6.63,1.81.6,0,2.76,0,1.89.09,0,1.08-1.54Z" class="cls-10"/><ellipse cx="121.77" cy="41.87" class="cls-10" rx="49.27" ry="27.61"/><path d="M81.49,43.33c-.69,2.6.35,4.91,3.66,4.91A3.82,3.82,0,0,0,89,45.59c.41-1.74-.56-2.77-1.7-3.94l-1.08-1.12c-1.42-1.44-2.5-2.74-2-4.9.74-3.1,4-5,7.69-5a6.81,6.81,0,0,1,4.68,1.6,2.14,2.14,0,0,1-1.25,3.89.67.67,0,0,1-.23-.07c.64-2,0-4.21-2.82-4.21-1.55,0-3.47.83-3.81,2.24-.38,1.61.77,2.72,1.81,3.77l1,1c1.57,1.53,2.84,3,2.28,5.31-.8,3.38-4.18,5.37-8.16,5.37a7.53,7.53,0,0,1-5.59-2C77.48,44.71,80.17,43.3,81.49,43.33Z" class="cls-1"/><path d="M109.14,56,113,47.49h.06a3.13,3.13,0,0,0,3.14,1.81c5,0,8.45-4.81,8.88-8.35a4.92,4.92,0,0,0,0-1c-.15-1.72-1.31-3-3.78-3a6.59,6.59,0,0,0-4.55,1.83l-.06-.05.41-1a4.26,4.26,0,0,0-2.5-2.11l-8.12,18.13A4.55,4.55,0,0,0,109.14,56Zm12.1-15.84c-.25,2-2.68,7.57-5.77,7.57A1.45,1.45,0,0,1,114,46c.21-1.69,2.53-7.49,5.59-7.49A1.49,1.49,0,0,1,121.24,40.2Z" class="cls-1"/><path d="M108.14,47.62a1.5,1.5,0,0,1-.61.16c-.48,0-.57-.65-.53-1a10.63,10.63,0,0,1,.8-2.06l3.53-7.5a5.1,5.1,0,0,0-3.57,0l-.86,1.52a3.11,3.11,0,0,0-3.18-1.81c-4.94,0-9,4.73-9.42,8.32-.27,2.18.87,4,3.75,4a7.17,7.17,0,0,0,5.51-2.93l.06.06a7.72,7.72,0,0,0-.23,1c-.13,1,.67,1.86,2,1.86a5.43,5.43,0,0,0,2.28-.56l.5-1.11Zm-2.23-7.56c-.25,2-3,7.57-6.14,7.57a1.45,1.45,0,0,1-1.42-1.81c.24-2,2.92-7.35,5.94-7.35C105.49,38.47,106,39.17,105.91,40.06Z" class="cls-1"/><path d="M138.55,42.2l2.08-4L138.77,38c-.51,0-1.73-.15-1.73-.15l-1,1.8c-.94,1.81-4,7.8-6.82,7.8-.59,0-1-.23-.91-.73a49,49,0,0,1,2.35-4.83A11.76,11.76,0,0,0,132,38.71c.13-1.09-.82-1.78-2.11-1.78a7.25,7.25,0,0,0-3.59,1.21,2.47,2.47,0,0,1,.29.69,4,4,0,0,1,.89-.24.47.47,0,0,1,.51.59c0,.45-2.11,4.58-2.11,4.58a12.21,12.21,0,0,0-1.37,3.34c-.16,1.36,1,2.2,2.54,2.19,2.74,0,4.93-1.79,6.48-3.92l.06.06a7.71,7.71,0,0,0-.5,1.83,1.81,1.81,0,0,0,2,2A5.84,5.84,0,0,0,138.51,48h0a1.69,1.69,0,0,1-.1-.84s0-.07,0-.11a2.11,2.11,0,0,1-1,.43c-.54,0-.55-.54-.51-.87A21.31,21.31,0,0,1,138.55,42.2Z" class="cls-1"/><path d="M159.37,37.07c-1.85-1.26-5.08-2.31-10.73-2.44l1.29-2.87a4.78,4.78,0,0,0-3.49,0l-1.39,2.91c-3.74.17-8.17,1.17-16.26-.45l-.21.35c4.5,1.86,11.39,2.26,15.45,2.26L141.08,43c-.26.58-.61,1.32-.9,2.07a6.17,6.17,0,0,0-.64,2.09c-.15,1.25,1,2.16,2.51,2.16a6.71,6.71,0,0,0,4.42-2.1v0a4,4,0,0,1-.35-.81,9,9,0,0,1-.78.68,2.29,2.29,0,0,1-1.26.51c-.65,0-.72-.46-.67-.87a15.62,15.62,0,0,1,1.25-3.22l3.09-6.87c3.1-.31,6.95-.74,9,.5-2.94.22-5.88,1.13-7.72,3.26a7.83,7.83,0,0,0-1.89,4.2,6.15,6.15,0,0,0,0,1.44c.39,2,2.21,3.34,5.06,3.34,4.79,0,9-3.78,9.44-7.52a4.31,4.31,0,0,0-.84-3.39,7.35,7.35,0,0,1,3.11,2.1,3.71,3.71,0,0,0,1.95-1.87C165.21,38,162.51,37.23,159.37,37.07Zm-3.91,9c-2.27,3.15-5.87,3.23-4.59-1.26.2-.71,1.84-6.47,6.75-6.92a2.8,2.8,0,0,1,.44,1.06C158.41,40.75,157.05,44,155.46,46.11Z" class="cls-1"/><path d="M92.09,115.6c-2.56,6.46-9.36,9-13.75,9-7.14,0-10.57-3.18-10.57-11.87S72,87.6,84.61,87.6c4.54,0,8.06,1.79,8.06,6.47,0,2.56-.91,4.44-3.38,4.44a3.46,3.46,0,0,1-2.75-1.26c1.16-.57,2.22-2.6,2.22-4.44a2.68,2.68,0,0,0-2.94-2.94c-5.31,0-10,12.69-10,22.54,0,4.44,1.16,7.53,5.79,7.53A11.7,11.7,0,0,0,91,115.11Z" class="cls-8"/><path d="M103,103.87c-1.88,0-3.37,2.94-3.66,4.24L96,123.8H89L96,91l7.15-1-2.61,12.17a7.18,7.18,0,0,1,5.65-2.71c3.09,0,5.36,1.6,5.36,5.46s-2.32,9.75-2.32,12.45c0,1.21.48,2,1.93,2,2.12,0,3-1.74,4-4.25h2c-2.7,7.92-6.42,8.93-9,8.93-4.19,0-5.69-2.7-5.69-5.45,0-3.29,2.17-9.22,2.17-12.31C104.74,104.74,104.16,103.87,103,103.87Z" class="cls-8"/><path d="M125.2,120c3.82,0,6.13-2.12,8.55-4.87h1.64c-2.75,4.44-6.86,8.93-13.27,8.93-4.54,0-7.53-2.22-7.53-7.67s3.13-17.19,13-17.19c4.29,0,5.31,2.22,5.31,4.64,0,5.55-5.31,9.84-11.1,10.18,0,.68-.1,1.35-.1,1.93C121.73,119.26,122.89,120,125.2,120Zm2.8-18.24c-2.46,0-4.82,5.17-5.79,9.94,3.72-.24,7-4,7-8C129.21,102.56,128.92,101.79,128,101.79Z" class="cls-8"/><path d="M143.74,120c3.81,0,6.13-2.12,8.54-4.87h1.64c-2.75,4.44-6.85,8.93-13.27,8.93-4.54,0-7.53-2.22-7.53-7.67s3.14-17.19,13-17.19c4.3,0,5.31,2.22,5.31,4.64,0,5.55-5.31,9.84-11.1,10.18-.05.68-.1,1.35-.1,1.93C140.26,119.26,141.42,120,143.74,120Zm2.8-18.24c-2.46,0-4.83,5.17-5.79,9.94,3.71-.24,7-4,7-8C147.74,102.56,147.46,101.79,146.54,101.79Z" class="cls-8"/><path d="M172.75,115.16a28.64,28.64,0,0,1-7.39,6,10.6,10.6,0,0,1-7.58,2.9c-4.92,0-7-3.23-7-6.18a4.94,4.94,0,0,1,2.56-4.49,72.72,72.72,0,0,0,5.93-14.28l7.15-1c.57,12.5,1.06,14.38,1.06,17.57a7.08,7.08,0,0,1-.2,1.83,26.85,26.85,0,0,0,3.48-2.41Zm-18.15,2.37a1.4,1.4,0,0,1-1.3-.63c0,2.27.82,3.38,2.94,3.38s4.2-1.11,4.2-4.49c0-2.51-.44-4-.92-11.44a54.09,54.09,0,0,1-3.91,9.12,1.82,1.82,0,0,1,1.11,1.69A2.3,2.3,0,0,1,154.6,117.53Z" class="cls-8"/><path d="M180.18,119.5a9.87,9.87,0,0,0,5.7-2.55c-1,5.5-4.49,7.14-8.35,7.14-4.49,0-7.48-2.22-7.48-7.67s3.13-17.19,13-17.19c4.29,0,5.31,2.22,5.31,4.64,0,5.6-5.31,9.84-11.11,10.18,0,.48-.09,1-.09,1.45C177.19,118.54,178.49,119.5,180.18,119.5Zm3.28-17.71c-2.41,0-4.82,5.36-5.84,9.94,3.77-.19,7-3.91,7-8C184.67,102.56,184.38,101.79,183.46,101.79Z" class="cls-8"/><path d="M78.34,127.57c-9.13,0-13.57-4.86-13.57-14.87,0-10.86,5.39-28.1,19.84-28.1,6.82,0,11.06,3.63,11.06,9.47,0,5.49-3.29,7.44-6.38,7.44a6.46,6.46,0,0,1-5-2.29,3,3,0,0,1-.67-2.55,3,3,0,0,1,1.5-2,3.15,3.15,0,0,0,.66-1.76c-2,.17-7,9-7,19.54,0,4.53,1.23,4.53,2.79,4.53a8.67,8.67,0,0,0,7-3.62,3,3,0,0,1,3.61-1l1.11.48a3,3,0,0,1,1.59,3.86C91.93,124.17,84.23,127.57,78.34,127.57Zm-1-33.87c-4.81,4.76-6.54,13.84-6.54,19,0,6.43,1.87,8.36,5.57,8.77-2-1.44-3.56-4.16-3.56-9.06A42.53,42.53,0,0,1,77.31,93.7Zm7.89.87Z" class="cls-1"/><path d="M108.26,127.09c-5.14,0-7.85-3.11-8.52-6.65l-.85,4A3,3,0,0,1,96,126.8H89a3,3,0,0,1-2.94-3.63l7-32.82A3,3,0,0,1,95.6,88l7.15-1a3,3,0,0,1,3.33,3.6l-1.27,5.92a10.44,10.44,0,0,1,1.38-.08c5.08,0,8.36,3.31,8.36,8.45a35.19,35.19,0,0,1-1.41,8v0a3,3,0,0,1,2.08-.84h2a3,3,0,0,1,2.84,4C117.6,123.4,113.62,127.09,108.26,127.09Zm-1.74-24.61a5.86,5.86,0,0,1,1.22,3.85A31.67,31.67,0,0,1,106.6,113a31.52,31.52,0,0,0-1,5.64c0,1.53.6,2.26,2.06,2.42a5.06,5.06,0,0,1-1.4-3.68,26.82,26.82,0,0,1,1.09-5.89,31.55,31.55,0,0,0,1.23-6.56C108.55,103.19,108,102.56,106.52,102.48ZM92.71,120.8h.82l2.82-13.31A11.07,11.07,0,0,1,98,103.82a3,3,0,0,1-.42-2.27l1.71-8-.82.11Z" class="cls-1"/><path d="M122.12,127.09c-6.6,0-10.53-4-10.53-10.67,0-8.38,5-20.19,16-20.19,5.2,0,8.31,2.86,8.31,7.64a12.4,12.4,0,0,1-4.06,8.95,3,3,0,0,1,1.88-.66h1.64a3,3,0,0,1,2.55,4.58C133.68,123.61,128.36,127.09,122.12,127.09ZM120.79,106a14.64,14.64,0,0,0-.78,1.24,20.28,20.28,0,0,0-2.42,9.21c0,2.57.7,3.92,2.47,4.43a7.86,7.86,0,0,1-1.33-4.87c0-.7.06-1.47.1-2.15a3,3,0,0,1,.47-1.39,3,3,0,0,1,0-1.3A32.92,32.92,0,0,1,120.79,106Zm4,11h.4c2.48,0,4-1.24,6.29-3.85a.27.27,0,0,0,.07-.08,15.6,15.6,0,0,1-6.81,3.54C124.77,116.8,124.78,116.92,124.8,117Z" class="cls-1"/><path d="M140.65,127.09c-6.59,0-10.53-4-10.53-10.67,0-8.38,5-20.19,16-20.19,5.21,0,8.31,2.86,8.31,7.64a12.4,12.4,0,0,1-4.06,8.95,3,3,0,0,1,1.88-.66h1.64a3,3,0,0,1,2.55,4.58C152.22,123.61,146.9,127.09,140.65,127.09ZM139.33,106a12.53,12.53,0,0,0-.79,1.24,20.41,20.41,0,0,0-2.42,9.21c0,2.57.7,3.92,2.47,4.43a7.86,7.86,0,0,1-1.33-4.87c0-.7.06-1.47.11-2.15a3,3,0,0,1,.46-1.39,3,3,0,0,1,0-1.3A30.81,30.81,0,0,1,139.33,106Zm4,11h.41c2.47,0,4-1.24,6.29-3.85l.07-.08a15.66,15.66,0,0,1-6.81,3.54C143.3,116.8,143.32,116.92,143.33,117Z" class="cls-1"/><path d="M157.78,127.09c-6.59,0-10-4.62-10-9.18a8.07,8.07,0,0,1,3.33-6.65,71.89,71.89,0,0,0,5.3-13,3,3,0,0,1,2.46-2.07l7.14-1a3,3,0,0,1,3.4,2.83c.33,7,.62,10.64.81,13q.06.6.09,1.11a3.4,3.4,0,0,1,.45,0h2a3,3,0,0,1,2.26,5,31.42,31.42,0,0,1-7.79,6.45A13.85,13.85,0,0,1,157.78,127.09Zm3.66-25a3,3,0,0,1,1.08,2.11c.24,3.76.47,6,.64,7.58a35.69,35.69,0,0,1,.28,4.05,8.46,8.46,0,0,1-.89,3.9,4.92,4.92,0,0,0,.64-.57,3.3,3.3,0,0,1,.65-.52c.16-.09.33-.18.5-.29a3,3,0,0,1,0-1.46,4.13,4.13,0,0,0,.11-1.11c0-1.27-.09-2.3-.24-4.18-.16-2-.4-5-.66-10l-2,.28Z" class="cls-1"/><path d="M177.53,127.09c-6.57,0-10.48-4-10.48-10.67,0-8.38,5-20.19,16-20.19,5.2,0,8.31,2.86,8.31,7.64A12.64,12.64,0,0,1,186.08,114a3,3,0,0,1,2.75,3.54C187.69,123.68,183.67,127.09,177.53,127.09Zm-1.21-21.22a13.37,13.37,0,0,0-.85,1.34,20.28,20.28,0,0,0-2.42,9.21c0,2.88.86,4.23,3.11,4.58a7.24,7.24,0,0,1-2-5.5c0-.58.06-1.21.11-1.75a2.9,2.9,0,0,1,.42-1.26,3,3,0,0,1,0-1.4A34.3,34.3,0,0,1,176.32,105.87Z" class="cls-1"/><path d="M92.09,115.6c-2.56,6.46-9.36,9-13.75,9-7.14,0-10.57-3.18-10.57-11.87S72,87.6,84.61,87.6c4.54,0,8.06,1.79,8.06,6.47,0,2.56-.91,4.44-3.38,4.44a3.46,3.46,0,0,1-2.75-1.26c1.16-.57,2.22-2.6,2.22-4.44a2.68,2.68,0,0,0-2.94-2.94c-5.31,0-10,12.69-10,22.54,0,4.44,1.16,7.53,5.79,7.53A11.7,11.7,0,0,0,91,115.11Z" class="cls-5"/><path d="M103,103.87c-1.88,0-3.37,2.94-3.66,4.24L96,123.8H89L96,91l7.15-1-2.61,12.17a7.18,7.18,0,0,1,5.65-2.71c3.09,0,5.36,1.6,5.36,5.46s-2.32,9.75-2.32,12.45c0,1.21.48,2,1.93,2,2.12,0,3-1.74,4-4.25h2c-2.7,7.92-6.42,8.93-9,8.93-4.19,0-5.69-2.7-5.69-5.45,0-3.29,2.17-9.22,2.17-12.31C104.74,104.74,104.16,103.87,103,103.87Z" class="cls-5"/><path d="M125.2,120c3.82,0,6.13-2.12,8.55-4.87h1.64c-2.75,4.44-6.86,8.93-13.27,8.93-4.54,0-7.53-2.22-7.53-7.67s3.13-17.19,13-17.19c4.29,0,5.31,2.22,5.31,4.64,0,5.55-5.31,9.84-11.1,10.18,0,.68-.1,1.35-.1,1.93C121.73,119.26,122.89,120,125.2,120Zm2.8-18.24c-2.46,0-4.82,5.17-5.79,9.94,3.72-.24,7-4,7-8C129.21,102.56,128.92,101.79,128,101.79Z" class="cls-5"/><path d="M143.74,120c3.81,0,6.13-2.12,8.54-4.87h1.64c-2.75,4.44-6.85,8.93-13.27,8.93-4.54,0-7.53-2.22-7.53-7.67s3.14-17.19,13-17.19c4.3,0,5.31,2.22,5.31,4.64,0,5.55-5.31,9.84-11.1,10.18-.05.68-.1,1.35-.1,1.93C140.26,119.26,141.42,120,143.74,120Zm2.8-18.24c-2.46,0-4.83,5.17-5.79,9.94,3.71-.24,7-4,7-8C147.74,102.56,147.46,101.79,146.54,101.79Z" class="cls-5"/><path d="M172.75,115.16a28.64,28.64,0,0,1-7.39,6,10.6,10.6,0,0,1-7.58,2.9c-4.92,0-7-3.23-7-6.18a4.94,4.94,0,0,1,2.56-4.49,72.72,72.72,0,0,0,5.93-14.28l7.15-1c.57,12.5,1.06,14.38,1.06,17.57a7.08,7.08,0,0,1-.2,1.83,26.85,26.85,0,0,0,3.48-2.41Zm-18.15,2.37a1.4,1.4,0,0,1-1.3-.63c0,2.27.82,3.38,2.94,3.38s4.2-1.11,4.2-4.49c0-2.51-.44-4-.92-11.44a54.09,54.09,0,0,1-3.91,9.12,1.82,1.82,0,0,1,1.11,1.69A2.3,2.3,0,0,1,154.6,117.53Z" class="cls-5"/><path d="M180.18,119.5a9.87,9.87,0,0,0,5.7-2.55c-1,5.5-4.49,7.14-8.35,7.14-4.49,0-7.48-2.22-7.48-7.67s3.13-17.19,13-17.19c4.29,0,5.31,2.22,5.31,4.64,0,5.6-5.31,9.84-11.11,10.18,0,.48-.09,1-.09,1.45C177.19,118.54,178.49,119.5,180.18,119.5Zm3.28-17.71c-2.41,0-4.82,5.36-5.84,9.94,3.77-.19,7-3.91,7-8C184.67,102.56,184.38,101.79,183.46,101.79Z" class="cls-5"/></g></g></svg>