<?xml version="1.0" encoding="utf-8"?>
<!-- Generator: Adobe Illustrator 24.2.3, SVG Export Plug-In . SVG Version: 6.00 Build 0)  -->
<svg version="1.1" id="Layer_1" xmlns="http://www.w3.org/2000/svg" xmlns:xlink="http://www.w3.org/1999/xlink" x="0px" y="0px"
	 viewBox="0 0 170 67" style="enable-background:new 0 0 170 67;" xml:space="preserve">
<style type="text/css">
	.st0{fill-rule:evenodd;clip-rule:evenodd;fill:#FFFFFF;}
</style>
<g id="Symbols">
	<g id="navigation_x2F_z-utility-desktop" transform="translate(-57.000000, -30.000000)">
		<g id="UW-logo" transform="translate(57.000000, 30.000000)">
			<g id="Group-7" transform="translate(31.306210, 30.312415)">
				<path id="Fill-1" class="st0" d="M20,20.9c-0.1-0.1-0.3-0.1-0.5-0.1h-0.3v0.8h0.4c0.2,0,0.3,0,0.4-0.1c0.2-0.1,0.2-0.2,0.2-0.4
					C20.2,21,20.1,20.9,20,20.9L20,20.9z M19.6,20.5c0.3,0,0.5,0,0.6,0.1c0.2,0.1,0.4,0.3,0.4,0.6c0,0.2-0.1,0.4-0.2,0.5
					s-0.2,0.1-0.3,0.1c0.2,0,0.3,0.1,0.4,0.2s0.1,0.2,0.1,0.4v0.2c0,0.1,0,0.1,0,0.2s0,0.1,0,0.1l0,0h-0.4l0,0l0,0v-0.1v-0.2
					c0-0.3-0.1-0.4-0.2-0.5c-0.1,0-0.2-0.1-0.5-0.1h-0.3v0.9h-0.4v-2.3h0.8V20.5z M18.3,20.4c-0.4,0.4-0.5,0.8-0.5,1.3
					s0.2,0.9,0.5,1.3c0.4,0.4,0.8,0.5,1.3,0.5s0.9-0.2,1.3-0.5c0.4-0.4,0.5-0.8,0.5-1.3s-0.2-0.9-0.5-1.3c-0.4-0.4-0.8-0.5-1.3-0.5
					C19.1,19.9,18.7,20,18.3,20.4L18.3,20.4z M21.1,23.2c-0.4,0.4-0.9,0.6-1.5,0.6s-1.1-0.2-1.5-0.6s-0.6-0.9-0.6-1.5
					s0.2-1.1,0.6-1.5s0.9-0.6,1.5-0.6s1.1,0.2,1.5,0.6s0.6,0.9,0.6,1.5C21.7,22.2,21.5,22.7,21.1,23.2L21.1,23.2z"/>
				<path id="Fill-3" class="st0" d="M18.3,8.2c1-0.9,1-2.3,0.2-3.3c-0.9-1-2.3-1-3.3-0.2l-8.6,7.6C9.2,14.7,9,16.4,9,16.4L18.3,8.2
					z"/>
				<path id="Fill-5" class="st0" d="M1.9,7.6L0.1,5.7l5.8-5.2C6.4,0,7.2,0,7.7,0.6C8.2,1.1,8.2,2,7.6,2.5L1.9,7.6z"/>
			</g>
			<g id="Group-13" transform="translate(0.000000, 0.319086)">
				<path id="Fill-8" class="st0" d="M36.9,41.4l-2.7-2.8l6.8-6.2c0.8-0.7,2-0.7,2.7,0.1s0.7,2-0.1,2.7L36.9,41.4z"/>
				<g id="Group-12">
					<path id="Fill-10" class="st0" d="M17.9,28.9c2.6,0.2,4,0.4,5.9,1.4c1.5,0.9,2.8,2.3,4.1,3.6L28,34l1,1.1l9.1,9.5
						c0.5,0.5,0.7,1.2,0.7,2c0,1.6-1.3,3-3,3c-0.8,0-1.6-0.3-2.1-0.9l-8.2-8.5l0,0C25.4,40.1,25.2,40,25,40c-0.4,0-0.7,0.3-0.7,0.7
						c0,0.2,0.1,0.4,0.2,0.5l0,0L32,49c0.8,0.8,1.7,1.5,2.6,1.8c0.9,0.3,2.6,0.2,3.4-0.4c0.5-0.3,0.9-0.7,1.3-1l13.5-12.1h0.1
						c0.5-0.3,1.1-0.5,1.7-0.5c1.6,0,3,1.3,3,2.9c0,0.8-0.4,1.6-0.9,2.1L47,50.3c-2,1.7-4.1,4.2-6.6,5.4c-6.8,3.4-13.1,1.7-18.1-2
						c-2.4-1.8-4.9-3.8-8.1-4.9c-1.6-0.5-5.6-0.6-8.9-0.6H0.1V28.9v-0.1C0.5,21,3.8,13.9,8.7,8.7C13.9,3.4,20.9,0,28.7,0
						c8,0,15.2,3.5,20.4,9.2c5.2,5.6,8.3,13.4,8.3,21.9c0,0.9,0,1.6-0.1,2.5c-0.1,1.1-1,2-2.2,2c-0.1,0-0.1,0-0.2,0
						c-1.2-0.1-2.1-1.1-2-2.3C53,32.5,53,32,53,31.2c0-7.5-2.8-14.2-7.2-19S35.3,4.4,28.6,4.4c-6.5,0-12.4,2.8-16.8,7.3
						c-4.2,4.4-7,10.4-7.5,17.2H6c0.3-6.1,2.7-11.6,6.6-15.7c4.1-4.3,9.8-7,16.1-7s12,2.7,16.1,7s6.6,10.2,6.6,16.7
						c0,0.7,0,1.5-0.1,2.2c-0.1,0.9-0.9,1.5-1.7,1.5c-0.9-0.1-1.5-0.9-1.5-1.7c0.1-0.6,0.1-1.3,0.1-1.9c0-5.7-2.2-10.8-5.7-14.5
						s-8.4-6-13.7-6s-10.2,2.3-13.7,6C11.8,19,9.7,23.7,9.4,29h2c0.1-4.8,2-9.2,5.1-12.3c3.2-3.2,7.5-5.3,12.4-5.3
						c4.8,0,9.2,2,12.4,5.3c3.2,3.2,5.1,7.7,5.1,12.7c0,0.5,0,1.1-0.1,1.6c-0.1,0.7-0.7,1.2-1.4,1.2c-0.7-0.1-1.2-0.7-1.2-1.4
						c0-0.5,0.1-0.9,0.1-1.4c0-4.3-1.7-8.1-4.4-10.9S33,14,28.9,14s-7.8,1.7-10.5,4.5c-2.6,2.7-4.3,6.4-4.4,10.6h2
						c0.2-7.2,5.8-13,12.9-13c7.2,0,12.9,6.1,13,13.4c0,0.6-0.5,1-1.1,1s-1-0.5-1-1c0-3.1-1.3-6.1-3.2-8.1c-2-2-4.6-3.3-7.6-3.3
						s-5.7,1.2-7.6,3.3C19.1,23.2,17.9,25.9,17.9,28.9L17.9,28.9z"/>
				</g>
			</g>
			<g id="Group-48" transform="translate(0.000000, 0.319086)">
				<path id="Fill-14" class="st0" d="M29.5,24.2c-0.2,0.2-0.5,0.3-0.7,0.3c-0.3,0-0.6-0.1-0.8-0.3l-2.6-2.3
					c-0.5-0.4-1.2-0.4-1.6,0.1s-0.4,1.2,0.1,1.6l2.4,2.2c0,0,1.2,1,1.2,3.6v1.7c0,0.2,0,0.4,0,0.6c0,0.6,0.5,1.1,1.1,1.1l0,0h0.2
					l0,0c0.6,0,1.1-0.5,1.1-1.1c0-0.2,0-0.4,0-0.6v-1.7c0-2.6,1.2-3.6,1.2-3.6l2.4-2.2c0.5-0.4,0.5-1.1,0.1-1.6s-1.1-0.5-1.6-0.1
					L29.5,24.2L29.5,24.2z"/>
				<path id="Fill-16" class="st0" d="M30.3,21.6c0,0.8-0.7,1.5-1.5,1.5s-1.5-0.7-1.5-1.5s0.7-1.5,1.5-1.5
					C29.6,20.1,30.3,20.8,30.3,21.6"/>
				<path id="Fill-18" class="st0" d="M78.7,37.9c-0.6-0.7-1.5-1.1-2.7-1.1c-2.3,0-4.1,1.9-4.1,4.5s1.7,4.5,4,4.5
					c1.2,0,2.3-0.6,2.9-1.5l2.6,1.9c-1.2,1.7-3.1,2.4-5.1,2.4c-4.4,0-7.6-2.9-7.6-7.3c0-4.5,3.2-7.3,7.6-7.3c1.6,0,3.5,0.5,4.7,2
					L78.7,37.9z"/>
				<path id="Fill-20" class="st0" d="M88.5,42.4c0-1-0.8-1.8-1.8-1.8c-1.3,0-2,0.9-2.1,1.8H88.5z M91,46.6c-1,1.2-2.5,1.9-4.1,1.9
					c-3,0-5.4-2-5.4-5c0-3.1,2.4-5,5.4-5c2.8,0,4.5,2,4.5,5v0.9h-6.9c0.2,1.1,1.1,1.8,2.2,1.8c1,0,1.6-0.5,2.1-1.2L91,46.6z"/>
				<path id="Fill-22" class="st0" d="M92.5,38.7h2.9V40l0,0c0.4-0.7,1.4-1.5,2.8-1.5c3,0,3.6,2,3.6,4.5v5.3h-3v-4.7
					c0-1.1,0-2.5-1.5-2.5s-1.8,1.2-1.8,2.4v4.8h-3V38.7z"/>
				<path id="Fill-24" class="st0" d="M110.6,41h-3.4v3.2c0,1,0.1,1.8,1.4,1.8c0.3,0,0.7,0,1-0.2v2.4c-0.6,0.2-1.3,0.2-1.9,0.2
					c-2,0-3.5-0.8-3.5-2.9V41h-1.9v-2.4h1.9v-3.8h3v3.8h6.4v1.5l0,0c0.6-1.2,1.5-1.8,2.8-1.8c0.3,0,0.7,0,1,0.1v2.7
					c-0.4-0.1-0.8-0.2-1.3-0.2c-2.3,0-2.5,1.3-2.5,3.2v4h-3V41z"/>
				<path id="Fill-26" class="st0" d="M122.8,44c-0.9,0-2.9,0.1-2.9,1.4c0,0.7,0.8,1,1.4,1c1.2,0,2.3-0.6,2.3-1.8V44H122.8z
					 M123.5,47L123.5,47c-0.7,1-1.9,1.4-3.1,1.4c-1.8,0-3.4-1-3.4-3c0-3.3,4-3.4,6.5-3.4c0-1-0.9-1.7-1.9-1.7s-1.8,0.4-2.4,1.1
					l-1.6-1.6c1.1-1,2.7-1.5,4.2-1.5c3.5,0,4.4,1.8,4.4,4.9v4.9h-2.7V47z"/>
				<polygon id="Fill-28" class="st0" points="127.5,48.2 130.5,48.2 130.5,38.7 127.5,38.7 				"/>
				<path id="Fill-30" class="st0" d="M137,41c-1.5,0-2.4,1-2.4,2.4s0.9,2.4,2.4,2.4s2.4-1,2.4-2.4C139.3,42,138.4,41,137,41L137,41
					z M142.1,48.2h-2.7V47l0,0c-0.5,0.7-1.6,1.5-3,1.5c-2.9,0-4.7-2-4.7-4.9c0-2.7,1.7-5.1,4.4-5.1c1.2,0,2.4,0.3,3.1,1.3l0,0V35h3
					v13.2H142.1z"/>
				<path id="Fill-31" class="st0" d="M150.1,42.4c0-1-0.8-1.8-1.8-1.8c-1.3,0-2,0.9-2.1,1.8H150.1z M152.6,46.6
					c-1,1.2-2.5,1.9-4.1,1.9c-3,0-5.4-2-5.4-5s2.4-5,5.4-5c2.8,0,4.5,2,4.5,5v0.9h-6.9c0.2,1.1,1.1,1.8,2.2,1.8c1,0,1.6-0.5,2.1-1.2
					L152.6,46.6z"/>
				<polygon id="Fill-32" class="st0" points="127.5,37.3 130.5,37.3 130.5,34.9 127.5,34.9 				"/>
				<polygon id="Fill-33" class="st0" points="150.6,16.3 146.7,29.8 143.9,29.8 140.8,20.7 140.7,20.7 137.6,29.8 135,29.8 
					130.9,16.3 134.3,16.3 136.4,24.7 136.5,24.7 139.4,16.3 142.3,16.3 145.2,25 145.3,25 147.5,16.3 				"/>
				<path id="Fill-34" class="st0" d="M81.2,24.4c0,3.3-2,5.8-5.9,5.8s-6-2.5-6-5.8v-8h3.1v7.9c0,1.7,1.2,3,2.9,3
					c1.6,0,2.8-1.3,2.8-3v-7.9h3.1V24.4z"/>
				<path id="Fill-35" class="st0" d="M82.6,20.1h2.9v1.3l0,0c0.4-0.8,1.4-1.5,2.8-1.5c3,0,3.6,2,3.6,4.6v5.3h-3v-4.7
					c0-1.1,0-2.5-1.6-2.5s-1.8,1.2-1.8,2.5v4.8h-3L82.6,20.1L82.6,20.1z"/>
				<path id="Fill-36" class="st0" d="M96.5,29.8h-3v-9.6h5.4v-3.8h3v3.8h2.6v2.4h-2.6v3.2c0,1,0.1,1.8,1.4,1.8c0.3,0,1,0,1.2-0.3
					v2.5c-0.7,0.2-1.4,0.3-2.1,0.3c-2,0-3.5-0.8-3.5-2.9v-4.6h-2.4V29.8z"/>
				<path id="Fill-37" class="st0" d="M112,23.9c0-1-0.8-1.8-1.8-1.8c-1.3,0-2,0.9-2.1,1.8H112z M114.6,28.1c-1,1.2-2.5,1.9-4.1,1.9
					c-3,0-5.4-2-5.4-5.1s2.4-5.1,5.4-5.1c2.8,0,4.6,2,4.6,5.1v0.9h-6.9c0.2,1.1,1.1,1.9,2.3,1.9c1,0,1.6-0.5,2.1-1.2L114.6,28.1z"/>
				<path id="Fill-38" class="st0" d="M121.2,22.5c-1.5,0-2.4,1-2.4,2.4s0.9,2.4,2.4,2.4s2.4-1,2.4-2.4S122.7,22.5,121.2,22.5
					L121.2,22.5z M126.3,29.8h-2.8v-1.3l0,0c-0.5,0.7-1.6,1.5-3,1.5c-2.9,0-4.8-2.1-4.8-5c0-2.7,1.7-5.1,4.4-5.1
					c1.2,0,2.4,0.3,3.1,1.3l0,0v-4.9h3v13.5H126.3z"/>
				<path id="Fill-39" class="st0" d="M155.3,25.6c-0.9,0-3,0.1-3,1.4c0,0.7,0.8,1.1,1.4,1.1c1.2,0,2.3-0.6,2.3-1.8v-0.6h-0.7V25.6z
					 M156.1,28.6L156.1,28.6c-0.7,1-1.9,1.4-3.1,1.4c-1.8,0-3.5-1-3.5-3c0-3.3,4.1-3.4,6.6-3.4c0-1-0.9-1.7-1.9-1.7
					s-1.8,0.4-2.4,1.1l-1.6-1.6c1.1-1,2.7-1.5,4.3-1.5c3.5,0,4.4,1.8,4.4,5v4.9h-2.8V28.6z"/>
				<path id="Fill-40" class="st0" d="M165.6,31.3c-0.8,2-1.3,3.2-4.1,3.2c-0.8,0-1.5-0.1-2.2-0.4l0.4-2.4c0.5,0.2,0.9,0.3,1.4,0.3
					c1.4,0,1.6-0.6,2-1.6l0.2-0.6l-4.3-9.7h3.2l2.5,6.4l0,0l2.1-6.4h3.1L165.6,31.3z"/>
				<polygon id="Fill-41" class="st0" points="93.5,18.8 96.5,18.8 96.5,16.3 93.5,16.3 				"/>
				<path id="Fill-42" class="st0" d="M76.5,58.6c-0.7-0.7-1.3-0.9-1.9-0.9c-1.9,0-3.1,1.4-3.1,3.2c0,1.9,1.3,3.4,3.1,3.4
					c0.7,0,1.4-0.3,2.1-1.1l1.3,0.9c-0.8,1.1-2.1,1.6-3.4,1.6c-2.8,0-4.8-1.9-4.8-4.7c0-2.9,2-4.8,4.8-4.8c1.2,0,2.3,0.4,3.2,1.4
					L76.5,58.6z"/>
				<path id="Fill-43" class="st0" d="M82.5,62.8h-0.3c-0.9,0-2.3,0.1-2.3,0.9c0,0.6,0.6,0.8,1.1,0.8c1.1,0,1.6-0.6,1.6-1.4
					L82.5,62.8L82.5,62.8z M82.6,64.7L82.6,64.7c-0.5,0.7-1.2,1-2,1c-1.1,0-2.3-0.6-2.3-1.8c0-2,2.4-2.1,3.9-2.1h0.4v-0.2
					c0-0.8-0.6-1.2-1.4-1.2c-0.6,0-1.2,0.3-1.7,0.6l-0.8-0.8c0.7-0.7,1.7-1,2.6-1c2.6,0,2.6,1.9,2.6,2.8v3.5h-1.4v-0.8H82.6z"/>
				<path id="Fill-44" class="st0" d="M85.6,59.4H87v1l0,0c0.3-0.6,0.9-1.1,1.9-1.1c1.7,0,2.3,1.2,2.3,2.4v3.9h-1.6v-3.1
					c0-0.7-0.1-1.8-1.1-1.8s-1.4,0.7-1.4,1.6v3.4h-1.6L85.6,59.4L85.6,59.4z"/>
				<path id="Fill-45" class="st0" d="M96.6,62.8h-0.3c-0.9,0-2.3,0.1-2.3,0.9c0,0.6,0.6,0.8,1.1,0.8c1.1,0,1.6-0.6,1.6-1.4
					L96.6,62.8L96.6,62.8z M96.7,64.7L96.7,64.7c-0.5,0.7-1.2,1-2,1c-1.1,0-2.3-0.6-2.3-1.8c0-2,2.4-2.1,3.9-2.1h0.4v-0.2
					c0-0.8-0.6-1.2-1.4-1.2c-0.6,0-1.2,0.3-1.7,0.6l-0.8-0.8c0.7-0.7,1.7-1,2.6-1c2.6,0,2.6,1.9,2.6,2.8v3.5h-1.4v-0.8H96.7z"/>
				<path id="Fill-46" class="st0" d="M102.7,64.3c1.1,0,1.8-0.9,1.8-1.8c0-1-0.7-1.8-1.8-1.8c-1.1,0-1.8,0.9-1.8,1.8
					C100.9,63.4,101.6,64.3,102.7,64.3L102.7,64.3z M104.6,64.6L104.6,64.6c-0.5,0.7-1.3,1.1-2.2,1.1c-1.9,0-3.1-1.4-3.1-3.2
					s1.2-3.2,3-3.2c1.2,0,1.8,0.5,2.1,0.9l0,0v-4.3h1.6v9.7h-1.5L104.6,64.6L104.6,64.6z"/>
				<path id="Fill-47" class="st0" d="M111.5,62.8h-0.3c-0.9,0-2.3,0.1-2.3,0.9c0,0.6,0.6,0.8,1.1,0.8c1.1,0,1.6-0.6,1.6-1.4
					L111.5,62.8L111.5,62.8z M111.5,64.7L111.5,64.7c-0.5,0.7-1.2,1-2,1c-1.1,0-2.3-0.6-2.3-1.8c0-2,2.4-2.1,3.9-2.1h0.4v-0.2
					c0-0.8-0.6-1.2-1.4-1.2c-0.6,0-1.2,0.3-1.7,0.6l-0.8-0.8c0.7-0.7,1.7-1,2.6-1c2.6,0,2.6,1.9,2.6,2.8v3.5h-1.4v-0.8H111.5z"/>
			</g>
		</g>
	</g>
</g>
</svg>
