<svg xmlns="http://www.w3.org/2000/svg" width="182" height="59" viewBox="0 0 182 59"><g transform="translate(-911 -4036)"><rect width="182" height="59" rx="10" transform="translate(911 4036)"/><g transform="translate(935.701 4049.804)"><g transform="translate(36.403 4.26)"><path d="M2425.4,130.069v19.407h-3.413V147.3a4.316,4.316,0,0,1-1.748,1.762,5.278,5.278,0,0,1-2.6.634,5.577,5.577,0,0,1-3.1-.881,5.842,5.842,0,0,1-2.12-2.491,8.623,8.623,0,0,1-.757-3.7,8.348,8.348,0,0,1,.757-3.661,5.556,5.556,0,0,1,5.217-3.276,5.382,5.382,0,0,1,2.587.606,4.2,4.2,0,0,1,1.735,1.707v-7.928ZM2421.1,145.9a5.085,5.085,0,0,0,.894-3.221,5.025,5.025,0,0,0-.894-3.207,3.05,3.05,0,0,0-2.52-1.115,3.134,3.134,0,0,0-2.56,1.1,4.856,4.856,0,0,0-.908,3.165,5.143,5.143,0,0,0,.908,3.249,3.4,3.4,0,0,0,5.08.028Z" transform="translate(-2411.668 -129.766)" fill="#fff"/><path d="M2435.2,129.652h3.8v3.386h-3.8Zm.193,19.71V135.9h3.441v13.461Z" transform="translate(-2418.103 -129.652)" fill="#fff"/><path d="M2456.513,139.176a6.243,6.243,0,0,1,1.184,4.156v8.258h-3.441v-8.066a3.577,3.577,0,0,0-.591-2.285,2.28,2.28,0,0,0-1.859-.716,3.14,3.14,0,0,0-2.381.936,3.469,3.469,0,0,0-.9,2.5v7.625h-3.44V138.13h3.358v2.01a4.648,4.648,0,0,1,1.844-1.734,5.552,5.552,0,0,1,2.615-.606A4.5,4.5,0,0,1,2456.513,139.176Z" transform="translate(-2420.809 -131.88)" fill="#fff"/><path d="M2478.785,145.479h-9.167a4.185,4.185,0,0,0,1.128,2.781,3.862,3.862,0,0,0,2.753.908,6.5,6.5,0,0,0,4.074-1.431l.991,2.368a7.213,7.213,0,0,1-2.353,1.239,9.055,9.055,0,0,1-2.849.468,7.137,7.137,0,0,1-5.217-1.872,6.834,6.834,0,0,1-1.914-5.12,7.855,7.855,0,0,1,.826-3.661,6.012,6.012,0,0,1,2.326-2.478,6.591,6.591,0,0,1,3.4-.881,5.61,5.61,0,0,1,4.391,1.789,7.1,7.1,0,0,1,1.611,4.927Zm-8.135-4.376a4.284,4.284,0,0,0-1.031,2.533h6.221a3.93,3.93,0,0,0-.826-2.546,2.724,2.724,0,0,0-2.147-.867A2.923,2.923,0,0,0,2470.649,141.1Z" transform="translate(-2426.59 -131.88)" fill="#fff"/><path d="M2484.877,149.476V132.987h-6.332v-2.918h16.214v2.918h-6.332v16.489Z" transform="translate(-2429.958 -129.766)" fill="#fff"/><path d="M2506.075,139.176a5.775,5.775,0,0,1,1.376,4.239v8.175h-3.276v-2.064a3.6,3.6,0,0,1-1.473,1.679,4.42,4.42,0,0,1-2.327.606,5.4,5.4,0,0,1-2.45-.551,4.365,4.365,0,0,1-1.734-1.514,3.826,3.826,0,0,1-.632-2.148,3.4,3.4,0,0,1,.757-2.339,4.546,4.546,0,0,1,2.464-1.239,22.414,22.414,0,0,1,4.707-.386h.688V143a2.771,2.771,0,0,0-.592-1.982,2.677,2.677,0,0,0-1.968-.605,7.4,7.4,0,0,0-2.244.371,11.326,11.326,0,0,0-2.3,1.032l-.964-2.367a11.79,11.79,0,0,1,5.753-1.652A5.732,5.732,0,0,1,2506.075,139.176Zm-2.767,9.235a3.335,3.335,0,0,0,.867-2.382v-.578h-.5a18.939,18.939,0,0,0-2.862.165,2.782,2.782,0,0,0-1.459.578,1.472,1.472,0,0,0-.44,1.128,1.888,1.888,0,0,0,.605,1.446,2.17,2.17,0,0,0,1.542.564A2.941,2.941,0,0,0,2503.308,148.411Z" transform="translate(-2434.611 -131.88)" fill="#fff"/><path d="M2527.587,136.538a5.745,5.745,0,0,1,2.106,2.423,8.338,8.338,0,0,1,.757,3.661,8.612,8.612,0,0,1-.757,3.7,5.839,5.839,0,0,1-2.12,2.491,5.571,5.571,0,0,1-3.1.881,5.277,5.277,0,0,1-2.6-.634,4.31,4.31,0,0,1-1.748-1.762v2.174h-3.386V130.069h3.442v7.9a4.109,4.109,0,0,1,1.734-1.693,5.429,5.429,0,0,1,2.56-.592A5.7,5.7,0,0,1,2527.587,136.538Zm-1.487,9.333a5.143,5.143,0,0,0,.909-3.249,4.915,4.915,0,0,0-.894-3.165,3.479,3.479,0,0,0-5.093.014,5.019,5.019,0,0,0-.9,3.207,5.079,5.079,0,0,0,.9,3.221,3.394,3.394,0,0,0,5.078-.028Z" transform="translate(-2440.404 -129.766)" fill="#fff"/><g transform="translate(91.155 17.237)"><path d="M2537.138,153.783v-.4h2.25v.4h-.884v2.3h-.488v-2.3Zm4.924-.4h.379v2.7h-.429v-1.808l-.725,1.378h-.32l-.724-1.359v1.789h-.436v-2.7h.384l.937,1.8Z" transform="translate(-2537.138 -153.378)" fill="#fff"/></g></g><g transform="translate(2.756 7.071)"><path d="M2374.222,151.255a8.867,8.867,0,1,1,8.865-8.866A8.877,8.877,0,0,1,2374.222,151.255Zm0-15.017a6.151,6.151,0,1,0,6.149,6.151A6.158,6.158,0,0,0,2374.222,136.238Z" transform="translate(-2365.355 -133.522)" fill="#f0f"/></g><g transform="translate(0 0)"><path d="M2367.3,155.665a5.762,5.762,0,0,1-5.741-5.75V129.538a5.74,5.74,0,0,1,8.611-4.972l17.647,10.189a5.74,5.74,0,0,1,0,9.943l-17.647,10.189A5.727,5.727,0,0,1,2367.3,155.665Zm0-29.156a3.036,3.036,0,0,0-3.023,3.03v20.376a3.024,3.024,0,0,0,4.535,2.62l17.647-10.189a3.024,3.024,0,0,0,0-5.237l-17.647-10.189A3.017,3.017,0,0,0,2367.3,126.509Z" transform="translate(-2361.561 -123.789)" fill="blue"/></g></g></g></svg>