<svg xmlns="http://www.w3.org/2000/svg" viewBox="0 0 500 500"><defs><style>.cls-1{fill:#42d49f}.cls-2{fill:#fafdfd}</style></defs><g id="Layer_2" data-name="Layer 2"><g id="illustrations"><g id="iHJtBD"><path d="M500,500H0V0H500ZM264.12,360q79.49,0,159,.06c4.86,0,8-1.52,9.1-6.47,1.83-8.1-1.59-12.59-9.86-12.59h-290c-5.33,0-10.67.11-16-.05-10.1-.3-17.53-7.29-17.65-17.28-.26-22.33-.22-44.66-.15-67,0-7.43,3.26-13.47,10.25-16.32,3.7-1.52,8.11-1.83,12.2-1.83q148.49-.15,297-.09c2.66,0,5.33.07,8-.07,3.75-.21,6.35-1.83,6.69-6,.34-4-1.12-6.65-5-8.2-15.59-6.26-31.09-12.75-46.69-19q-39.9-15.87-79.89-31.48c-11.63-4.53-23.47-8.55-35.09-13.11a22,22,0,0,1-8.31-5.49c-5-5.75-10.66-10.37-17.78-13.26-11-4.48-23.62-2-30.94,6.9-2.09,2.53-4,2.21-6.51,1.64-15.24-3.51-29.15-.21-40.35,10.36-4.32,4.08-7.87,4.83-13,4.15-16.18-2.13-29.69,3-39.38,16.23-3.49,4.77-7.55,6.51-13.13,7.5-10.06,1.78-19,6.18-24.4,15.53-6.55,11.25-5.63,23.15-3.58,35.42,3.21,19.2,6.15,38.46,8.37,57.79,1.64,14.37,1.76,28.91,2.95,43.34.63,7.69,4.5,13.95,12.12,16.2a69.45,69.45,0,0,0,19,2.9C162.12,360.09,213.12,360,264.12,360Zm4-76.07v-.06H125.69c-3.33,0-6.66,0-10,.12-3.8.11-5.33,2.84-5.43,5.92-.11,3.24,1.68,5.76,5.38,6,2.33.14,4.66.13,7,.13q147.41,0,294.82,0c1.33,0,3.14.41,3.89-.28,1.89-1.72,4.61-4,4.54-6s-3-4-5-5.64c-.7-.58-2.26-.15-3.42-.15Zm3-15.88v0H417a26.53,26.53,0,0,0,4-.08c3.53-.53,5.75-3,5-6.19-.53-2.19-3-4.46-5.12-5.54-1.88-.93-4.57-.27-6.9-.27H131.08c-3,0-6.24-.64-8.92.29a9.33,9.33,0,0,0-5.29,5.32c-.92,3.23,1.43,5.61,4.79,6.38a15.49,15.49,0,0,0,3.48.14ZM270.9,324v0H416.79a31.35,31.35,0,0,0,4-.08c3.51-.45,5.86-2.82,5.2-6-.45-2.19-2.92-4.32-5-5.7-1.3-.85-3.56-.31-5.39-.31H126.81c-1.83,0-4.19-.58-5.37.32-2,1.51-4.3,4-4.39,6.1-.07,1.78,2.62,4,4.56,5.38,1.15.8,3.24.28,4.9.28Z" class="cls-1"/><path d="M264.12,360c-51,0-102,.1-153-.13a69.45,69.45,0,0,1-19-2.9c-7.62-2.25-11.49-8.51-12.12-16.2-1.19-14.43-1.31-29-2.95-43.34-2.22-19.33-5.16-38.59-8.37-57.79-2-12.27-3-24.17,3.58-35.42,5.44-9.35,14.34-13.75,24.4-15.53,5.58-1,9.64-2.73,13.13-7.5,9.69-13.27,23.2-18.36,39.38-16.23,5.14.68,8.69-.07,13-4.15,11.2-10.57,25.11-13.87,40.35-10.36,2.47.57,4.42.89,6.51-1.64,7.32-8.87,19.93-11.38,30.94-6.9,7.12,2.89,12.76,7.51,17.78,13.26a22,22,0,0,0,8.31,5.49c11.62,4.56,23.46,8.58,35.09,13.11q40,15.59,79.89,31.48c15.6,6.21,31.1,12.7,46.69,19,3.86,1.55,5.32,4.24,5,8.2-.34,4.13-2.94,5.75-6.69,6-2.66.14-5.33.07-8,.07q-148.5,0-297,.09c-4.09,0-8.5.31-12.2,1.83-7,2.85-10.22,8.89-10.25,16.32-.07,22.33-.11,44.66.15,67,.12,10,7.55,17,17.65,17.28,5.32.16,10.66.05,16,.05h290c8.27,0,11.69,4.49,9.86,12.59-1.11,5-4.24,6.48-9.1,6.47Q343.61,359.93,264.12,360Z" class="cls-2"/><path d="M268.1,283.93H417.51c1.16,0,2.72-.43,3.42.15,2,1.65,4.89,3.68,5,5.64s-2.65,4.28-4.54,6c-.75.69-2.56.28-3.89.28q-147.4,0-294.82,0c-2.33,0-4.66,0-7-.13-3.7-.22-5.49-2.74-5.38-6,.1-3.08,1.63-5.81,5.43-5.92,3.33-.1,6.66-.12,10-.12H268.1Z" class="cls-2"/><path d="M271.09,268.05H125.14a15.49,15.49,0,0,1-3.48-.14c-3.36-.77-5.71-3.15-4.79-6.38a9.33,9.33,0,0,1,5.29-5.32c2.68-.93,5.92-.29,8.92-.29H414c2.33,0,5-.66,6.9.27,2.16,1.08,4.59,3.35,5.12,5.54.78,3.2-1.44,5.66-5,6.19a26.53,26.53,0,0,1-4,.08H271.09Z" class="cls-2"/><path d="M270.9,324H126.51c-1.66,0-3.75.52-4.9-.28-1.94-1.35-4.63-3.6-4.56-5.38.09-2.14,2.41-4.59,4.39-6.1,1.18-.9,3.54-.32,5.37-.32H415.59c1.83,0,4.09-.54,5.39.31,2.09,1.38,4.56,3.51,5,5.7.66,3.21-1.69,5.58-5.2,6a31.35,31.35,0,0,1-4,.08H270.9Z" class="cls-2"/></g></g></g></svg>