<svg xmlns="http://www.w3.org/2000/svg" viewBox="0 0 450.96 153.77"><defs><style>.cls-1{fill:#fff}</style></defs><g id="Layer_2" data-name="Layer 2"><g id="Bi_Eng_Fr" data-name="Bi Eng Fr"><path d="M139.11,142a5.59,5.59,0,1,1,1.64-4A5.4,5.4,0,0,1,139.11,142Zm-7.36-7.37a4.87,4.87,0,0,0,0,6.83,4.78,4.78,0,0,0,6.8,0,4.82,4.82,0,1,0-6.8-6.83Zm3.29.31a4.6,4.6,0,0,1,1.68.23,1.52,1.52,0,0,1,.95,1.55,1.34,1.34,0,0,1-.6,1.21,2.26,2.26,0,0,1-.89.3,1.55,1.55,0,0,1,1.06.6,1.68,1.68,0,0,1,.33.95v.45c0,.14,0,.3,0,.46a.9.9,0,0,0,0,.32l0,.07h-1a.13.13,0,0,0,0-.06s0,0,0-.06l0-.2v-.49a1.47,1.47,0,0,0-.58-1.4,2.56,2.56,0,0,0-1.2-.2H134V141h-1.09v-6.14Zm1.17,1a2.84,2.84,0,0,0-1.31-.23H134v2.23h1a3,3,0,0,0,1-.14,1,1,0,0,0,.63-1A.93.93,0,0,0,136.21,135.86Z" class="cls-1"/><path d="M131.5,102a6.18,6.18,0,0,0-8.24-9.22L100.4,113.27c7,6.42,6.27,10.92,6.27,10.92Z" class="cls-1"/><path d="M88.11,100.34l-4.85-5.12L98.62,81.37a3.54,3.54,0,0,1,4.79,5.21Z" class="cls-1"/><path d="M97.8,110.54l-7-7.45,18.13-16.47a5.13,5.13,0,1,1,7,7.48Z" class="cls-1"/><path d="M47.4,77.2c6.77.54,10.68,1,15.55,3.81,4,2.32,7.53,6,10.9,9.67l.13.15,2.79,3,24.15,25.41A7.92,7.92,0,0,1,89.31,130l-21.66-22.8,0,0a1.9,1.9,0,0,0-2.75,2.62l.05.06,19.85,21a20,20,0,0,0,6.89,4.9c2.42.85,7,.48,9-.95a36.73,36.73,0,0,0,3.4-2.78l35.74-32.24.14-.09a7.83,7.83,0,0,1,9.87,12.12l-25,22.55c-5.43,4.62-10.91,11.2-17.56,14.55-18.17,9.14-34.86,4.48-48.08-5.35-6.49-4.83-13-10.15-21.55-13-4.13-1.38-14.89-1.67-23.75-1.66L0,128.84V76.91A86.14,86.14,0,0,1,23.21,23.2h0C36.82,8.91,55.49,0,76.06,0h0c21.2,0,40.39,9.47,54.1,24.55h0a86.81,86.81,0,0,1,22.15,58.59h0c0,2.41,0,4.21-.19,6.56h0A5.76,5.76,0,0,1,146.38,95h-.46a5.77,5.77,0,0,1-5.3-6.2h0c.16-2.06.15-3.56.15-5.67h0a75.25,75.25,0,0,0-19.14-50.82h0C109.84,19.39,93.78,11.54,76.06,11.54h0c-17.19,0-32.81,7.38-44.5,19.62h0a74.62,74.62,0,0,0-20,46H16A64.76,64.76,0,0,1,33.43,35.32h0A58.52,58.52,0,0,1,76,16.69h0a58.56,58.56,0,0,1,42.62,18.63h0A64.9,64.9,0,0,1,136.19,80h0q0,3-.25,5.84h0a4.29,4.29,0,0,1-4.63,3.89h0a4.28,4.28,0,0,1-3.89-4.63h0c.15-1.68.22-3.38.22-5.1h0a56.3,56.3,0,0,0-15.2-38.82h0a50,50,0,0,0-36.4-16h0a50,50,0,0,0-36.4,16h0a56.21,56.21,0,0,0-15.13,36H29.7A48.69,48.69,0,0,1,43.22,44.24h0A45.37,45.37,0,0,1,76,30.15h0a45.37,45.37,0,0,1,32.8,14.09h0a48.67,48.67,0,0,1,13.53,33.87h0c0,1.46-.06,2.91-.19,4.34h0a3.38,3.38,0,0,1-3.66,3.08h0a3.38,3.38,0,0,1-3.08-3.66h0c.11-1.24.16-2.49.16-3.76h0A41.89,41.89,0,0,0,104,48.93h0A38.62,38.62,0,0,0,76,36.91h0a38.62,38.62,0,0,0-27.93,12h0A41.88,41.88,0,0,0,36.47,77.19h5.36C42.25,58,57.3,42.5,76,42.49h0c19,0,34.35,16.41,34.38,35.91h0a2.78,2.78,0,0,1-2.78,2.78h0a2.78,2.78,0,0,1-2.79-2.78h0a31.72,31.72,0,0,0-8.6-21.63h0A27.93,27.93,0,0,0,76,48.06h0a27.94,27.94,0,0,0-20.21,8.71h0a30.38,30.38,0,0,0-8.41,20.38Z" class="cls-1"/><path d="M78.27,64.69a2.81,2.81,0,0,1-4,0l-6.87-6.14h0a3,3,0,0,0-4.21.24h0A3,3,0,0,0,63.42,63l6.47,5.75s3.16,2.57,3.16,9.54l0,4.6h0V84.5h0a3,3,0,0,0,3,3h.42a3,3,0,0,0,3-3h0V82.86h0l0-4.59c0-7,3.17-9.54,3.17-9.54L89.16,63a3,3,0,0,0,.25-4.21h0a3,3,0,0,0-4.22-.25h0Z" class="cls-1"/><path d="M80.31,57.57a4,4,0,1,1-4-4A4,4,0,0,1,80.31,57.57Z" class="cls-1"/><path d="M208.93,101.23a8.79,8.79,0,0,0-7-3c-6.21,0-10.79,5-10.79,12s4.58,12,10.52,12a8.91,8.91,0,0,0,7.68-4l6.84,5.1c-3.1,4.42-8.36,6.47-13.47,6.47-11.62,0-20.09-7.63-20.09-19.57s8.47-19.56,20.09-19.56c4.16,0,9.42,1.42,12.58,5.47Z" class="cls-1"/><path d="M241.4,124.37a13.9,13.9,0,0,1-10.79,5c-7.89,0-14.2-5.26-14.2-13.41s6.31-13.41,14.2-13.41c7.37,0,12,5.26,12,13.41v2.47H224.3a5.9,5.9,0,0,0,5.95,5,6.74,6.74,0,0,0,5.62-3.1Zm-6.68-11.25a4.74,4.74,0,0,0-4.85-4.84,5.26,5.26,0,0,0-5.57,4.84Z" class="cls-1"/><path d="M245.55,103.23h7.57v3.47h.11a8.3,8.3,0,0,1,7.47-4.1c8,0,9.46,5.26,9.46,12.1v14.09h-7.88V116.28c0-3-.06-6.74-4.11-6.74s-4.73,3.21-4.73,6.53v12.72h-7.89Z" class="cls-1"/><path d="M293.47,109.62h-9.1v8.52c0,2.74.31,4.73,3.73,4.73a7.32,7.32,0,0,0,2.76-.45v6.44a17.11,17.11,0,0,1-5.08.64c-5.26,0-9.31-2.16-9.31-7.73V109.62h-5.05v-6.31h5.05V93.21h7.89v10.1h17v4.1h.11c1.68-3.1,3.89-4.73,7.36-4.73a10.34,10.34,0,0,1,2.63.26v7.2a12.33,12.33,0,0,0-3.36-.52c-6,0-6.74,3.47-6.74,8.57v10.68h-7.88Z" class="cls-1"/><path d="M327.73,125.58h-.1c-1.74,2.74-4.89,3.84-8.1,3.84-4.78,0-9.1-2.73-9.1-7.88,0-8.84,10.73-9,17.3-9,0-2.78-2.31-4.58-5-4.58a8.4,8.4,0,0,0-6.42,3.06l-4.21-4.32a16.53,16.53,0,0,1,11.26-4.1c9.2,0,11.67,4.68,11.67,13.2v13h-7.26Zm-2-8c-2.42,0-7.78.21-7.78,3.68,0,1.89,2,2.79,3.74,2.79,3.1,0,6-1.63,6-4.79v-1.68Z" class="cls-1"/><path d="M338.46,103.23h7.89v25.56h-7.89Z" class="cls-1"/><path d="M377,128.79h-7.26v-3.36h-.1a9.91,9.91,0,0,1-7.84,4c-7.57,0-12.57-5.47-12.57-13.2,0-7.1,4.42-13.62,11.68-13.62,3.26,0,6.31.9,8.1,3.37h.1V93.17H377Zm-13.57-19.25c-3.94,0-6.31,2.63-6.31,6.47s2.37,6.47,6.31,6.47,6.31-2.63,6.31-6.47S367.39,109.54,363.44,109.54Z" class="cls-1"/><path d="M404.91,124.44a13.88,13.88,0,0,1-10.78,5.05c-7.89,0-14.2-5.26-14.2-13.41s6.31-13.42,14.2-13.42c7.36,0,12,5.26,12,13.42v2.47h-18.3a5.88,5.88,0,0,0,5.94,4.94,6.73,6.73,0,0,0,5.63-3.1Zm-6.68-11.26a4.72,4.72,0,0,0-4.83-4.84,5.26,5.26,0,0,0-5.58,4.84Z" class="cls-1"/><path d="M338.47,93.14h7.89v6.5h-7.89Z" class="cls-1"/><path d="M399.74,43.53l-10.52,36h-7.36L373.58,55.1h-.11l-8.24,24.39h-7.1l-10.67-36h8.94L362,66h.1l7.83-22.49h7.68l7.8,23.13h.11l5.91-23.15Z" class="cls-1"/><path d="M215.36,65c0,8.85-5.41,15.42-15.79,15.42S183.74,73.87,183.74,65V43.51H192v21.2c0,4.6,3.17,8.1,7.57,8.1s7.52-3.5,7.52-8.1V43.51h8.27Z" class="cls-1"/><path d="M219.15,53.74h7.63v3.5h.11a8.35,8.35,0,0,1,7.52-4.13c8.05,0,9.53,5.29,9.53,12.18V79.48H236V66.88c0-3-.06-6.78-4.13-6.78s-4.77,3.23-4.77,6.56V79.48h-7.95Z" class="cls-1"/><path d="M256.11,79.48h-8V53.74h14.41V43.5h7.95V53.74h7V60.1h-7v8.58c0,2.75.31,4.77,3.76,4.77.84,0,2.54-.11,3.23-.75v6.62a16.36,16.36,0,0,1-5.56.8c-5.3,0-9.38-2.17-9.38-7.79V60.1H256.1Z" class="cls-1"/><path d="M304,75a14,14,0,0,1-10.86,5.08c-7.94,0-14.3-5.3-14.3-13.51s6.36-13.5,14.3-13.5c7.42,0,12.08,5.29,12.08,13.5V69.1H286.83a5.93,5.93,0,0,0,6,5A6.77,6.77,0,0,0,298.48,71ZM297.31,63.7a4.76,4.76,0,0,0-4.87-4.88,5.3,5.3,0,0,0-5.61,4.88Z" class="cls-1"/><path d="M335.24,79.48h-7.31V76.09h-.11a9.93,9.93,0,0,1-7.89,4c-7.63,0-12.66-5.51-12.66-13.3,0-7.15,4.45-13.71,11.76-13.71,3.29,0,6.36.9,8.16,3.39h.1v-13h7.95ZM321.57,60.1c-4,0-6.35,2.65-6.35,6.51s2.38,6.52,6.35,6.52,6.36-2.65,6.36-6.52S325.55,60.1,321.57,60.1Z" class="cls-1"/><path d="M414.19,76.25h-.11c-1.75,2.76-4.92,3.87-8.15,3.87-4.82,0-9.17-2.75-9.17-8,0-8.89,10.81-9.05,17.43-9.05,0-2.81-2.33-4.61-5.09-4.61a8.47,8.47,0,0,0-6.46,3.07l-4.23-4.34a16.56,16.56,0,0,1,11.33-4.13c9.27,0,11.76,4.71,11.76,13.29V79.48h-7.31Zm-2-8c-2.44,0-7.84.21-7.84,3.71,0,1.9,2,2.81,3.76,2.81,3.13,0,6-1.65,6-4.82V68.2Z" class="cls-1"/><path d="M439.31,83.67c-2.12,5.46-3.33,8.52-10.91,8.52a18.64,18.64,0,0,1-5.93-1l1.06-6.51a9,9,0,0,0,3.7.79c3.61,0,4.19-1.54,5.3-4.34l.58-1.48-11.28-26h8.58l6.62,17h.11l5.67-17H451Z" class="cls-1"/><path d="M248.18,43.51h7.94v6.55h-7.94Z" class="cls-1"/></g></g></svg>