<svg xmlns="http://www.w3.org/2000/svg" viewBox="0 0 287.46 332.41"><defs><style>.cls-1{fill:#cf3339;}.cls-2{fill:#a9ae38;}.cls-3{fill:#faa21e;}.cls-4{fill:#fff;}</style></defs><g id="Layer_2" data-name="Layer 2"><g id="website_artwork" data-name="website artwork"><rect class="cls-1" x="139.53" y="91.58" width="124.21" height="117.41" transform="translate(403.27 300.57) rotate(180)"/><circle class="cls-2" cx="201.63" cy="60.14" r="24.32"/><rect class="cls-1" x="76.1" y="91.58" width="104.87" height="51.77" transform="translate(257.06 234.93) rotate(180)"/><path class="cls-2" d="M30.56,91.58h0A45.54,45.54,0,0,1,76.1,137.12v6.23a0,0,0,0,1,0,0H30.56a0,0,0,0,1,0,0V91.58A0,0,0,0,1,30.56,91.58Z" transform="translate(106.66 234.93) rotate(180)"/><rect class="cls-3" x="201.63" y="208.99" width="62.11" height="87.37" transform="translate(465.37 505.34) rotate(180)"/><rect class="cls-3" x="139.53" y="208.99" width="72.11" height="87.37" transform="translate(351.16 505.34) rotate(180)"/><polygon class="cls-3" points="287.46 332.41 201.63 332.41 201.63 296.35 263.46 290.65 287.46 332.41"/><polygon class="cls-3" points="115.8 332.41 211.63 332.41 211.63 296.35 139.8 290.65 115.8 332.41"/><path class="cls-2" d="M212.8,209h14.89A36.06,36.06,0,0,1,263.74,245v0a0,0,0,0,1,0,0H212.8a0,0,0,0,1,0,0V209A0,0,0,0,1,212.8,209Z" transform="translate(476.54 454.03) rotate(180)"/><rect class="cls-1" y="21.93" width="70.66" height="50.54" transform="translate(70.66 94.4) rotate(180)"/><path class="cls-1" d="M13.4,21.93A21.94,21.94,0,1,0,35.33,0,21.93,21.93,0,0,0,13.4,21.93Zm10.57,0A11.37,11.37,0,1,1,35.33,33.29,11.36,11.36,0,0,1,24,21.93Z"/><path class="cls-1" d="M13.4,21.93A21.94,21.94,0,1,0,35.33,0,21.93,21.93,0,0,0,13.4,21.93Zm10.57,0A11.37,11.37,0,1,1,35.33,33.29,11.36,11.36,0,0,1,24,21.93Z"/><circle class="cls-4" cx="35.33" cy="41.15" r="6.43"/><polygon class="cls-4" points="35.33 41.15 41.55 59.19 29.11 59.19 35.33 41.15"/></g></g></svg>