<svg xmlns="http://www.w3.org/2000/svg" viewBox="0 0 196.42 411.59"><defs><style>.cls-1{fill:#faa21e;}.cls-2{fill:#411f1f;}.cls-3{fill:#ab7029;}.cls-4{fill:#a9ae38;}.cls-5{fill:#b32029;}.cls-6{fill:#fff;}</style></defs><g id="Layer_2" data-name="Layer 2"><g id="website_artwork" data-name="website artwork"><g id="Group_27" data-name="Group 27"><g id="Group_10" data-name="Group 10"><rect id="Rectangle_35" data-name="Rectangle 35" class="cls-1" x="113.45" y="232.13" width="82.97" height="68.88"/><rect id="Rectangle_36" data-name="Rectangle 36" class="cls-2" x="113.45" y="301.01" width="41.48" height="82.93"/><rect id="Rectangle_37" data-name="Rectangle 37" class="cls-2" x="151.45" y="301.01" width="44.97" height="82.93"/><path id="Rectangle_38" data-name="Rectangle 38" class="cls-2" d="M144.89,383.94h10.37v27.65h-38a27.65,27.65,0,0,1,27.65-27.65Z"/><path id="Rectangle_39" data-name="Rectangle 39" class="cls-2" d="M193.28,411.59h-38V383.94h10.37a27.65,27.65,0,0,1,27.65,27.65Z"/><g id="Group_9" data-name="Group 9"><path id="Rectangle_40" data-name="Rectangle 40" class="cls-3" d="M2.34,379H90.41v15.93A15.9,15.9,0,0,1,74.5,410.79H18.25A15.91,15.91,0,0,1,2.34,394.88h0V379Z"/><rect id="Rectangle_41" data-name="Rectangle 41" class="cls-4" x="2.34" y="367.73" width="88.08" height="11.22"/><rect id="Rectangle_42" data-name="Rectangle 42" class="cls-5" x="2.34" y="367.73" width="88.08" height="5.61"/><rect id="Rectangle_43" data-name="Rectangle 43" class="cls-4" x="2.34" y="335.79" width="88.08" height="11.22"/><rect id="Rectangle_44" data-name="Rectangle 44" class="cls-5" x="2.34" y="335.79" width="88.08" height="5.61"/><path id="Rectangle_45" data-name="Rectangle 45" class="cls-2" d="M12.7,315.07H80.05a10.36,10.36,0,0,1,10.36,10.36h0a10.36,10.36,0,0,1-10.36,10.36H12.7A10.36,10.36,0,0,1,2.34,325.43h0A10.36,10.36,0,0,1,12.7,315.07Z"/><path id="Rectangle_46" data-name="Rectangle 46" class="cls-2" d="M12.7,347H80.05a10.36,10.36,0,0,1,10.36,10.36h0a10.36,10.36,0,0,1-10.36,10.36H12.7A10.36,10.36,0,0,1,2.34,357.37h0A10.36,10.36,0,0,1,12.7,347Z"/><rect id="Rectangle_47" data-name="Rectangle 47" class="cls-1" x="1.74" y="307.77" width="88.67" height="6.87"/><path id="Path_241" data-name="Path 241" class="cls-1" d="M73.16,311.2l-27.08-3.43L19,311.2,46.08,323Z"/><path id="Path_242" data-name="Path 242" class="cls-3" d="M90.41,307.77a44.34,44.34,0,1,0-88.67,0Z"/></g><rect id="Rectangle_48" data-name="Rectangle 48" class="cls-1" x="40.42" y="232.13" width="73.04" height="31.3"/><path id="Rectangle_49" data-name="Rectangle 49" class="cls-5" d="M33.19,232.13h7.23v31.3H1.89a31.3,31.3,0,0,1,31.3-31.3Z"/><rect id="Rectangle_50" data-name="Rectangle 50" class="cls-4" x="137.92" y="169.68" width="34.04" height="50.09"/><circle id="Ellipse_11" data-name="Ellipse 11" class="cls-5" cx="154.94" cy="219.76" r="17.02"/><circle id="Ellipse_12" data-name="Ellipse 12" class="cls-5" cx="137.92" cy="219.76" r="4.88"/><circle id="Ellipse_13" data-name="Ellipse 13" class="cls-5" cx="171.95" cy="219.76" r="4.88"/><path id="Rectangle_51" data-name="Rectangle 51" class="cls-1" d="M9.18,314.63H19V355.7a4.91,4.91,0,0,1-4.91,4.91h0a4.91,4.91,0,0,1-4.91-4.91V314.63Z"/></g><g id="Group_7" data-name="Group 7"><rect id="Rectangle_28" data-name="Rectangle 28" class="cls-4" width="161.37" height="106.63"/><path id="Path_238" data-name="Path 238" class="cls-4" d="M101.18,101.75l60.19,34.83v-30L131.28,81.82Z"/><g id="Group_6" data-name="Group 6"><path id="Rectangle_29" data-name="Rectangle 29" class="cls-2" d="M48,72.86h65V78A11.23,11.23,0,0,1,101.79,89.2H59.28A11.24,11.24,0,0,1,48,78v-5.1Z"/><rect id="Rectangle_30" data-name="Rectangle 30" class="cls-4" x="48.04" y="64.58" width="64.98" height="8.27"/><rect id="Rectangle_31" data-name="Rectangle 31" class="cls-5" x="48.04" y="64.58" width="64.98" height="4.14"/><rect id="Rectangle_32" data-name="Rectangle 32" class="cls-2" x="48.04" y="49.53" width="64.98" height="15.29" rx="7.64"/><rect id="Rectangle_33" data-name="Rectangle 33" class="cls-6" x="47.6" y="44.14" width="65.42" height="5.07"/><path id="Path_239" data-name="Path 239" class="cls-6" d="M100.29,46.68l-20-2.54-20,2.54,20,8.72Z"/><path id="Path_240" data-name="Path 240" class="cls-2" d="M113,44.14c0-14.75-14.65-26.71-32.71-26.71S47.6,29.39,47.6,44.14Z"/></g></g></g></g></g></svg>