<svg xmlns="http://www.w3.org/2000/svg" viewBox="0 0 184.91 350.13"><defs><style>.cls-1{fill:#faa21e;}.cls-2{fill:#411f1f;}.cls-3{fill:#a9ae38;}.cls-4{fill:#b32029;}.cls-5{fill:#ab7029;}</style></defs><g id="Layer_2" data-name="Layer 2"><g id="website_artwork" data-name="website artwork"><g id="Group_32" data-name="Group 32"><circle id="Ellipse_14" data-name="Ellipse 14" class="cls-1" cx="92.46" cy="36.74" r="21.23"/><path id="Rectangle_52" data-name="Rectangle 52" class="cls-2" d="M54.67,61.32h75.57a33.3,33.3,0,0,1,33.3,33.3h0v76H21.37v-76a33.3,33.3,0,0,1,33.3-33.3Z"/><rect id="Rectangle_53" data-name="Rectangle 53" class="cls-3" x="21.37" y="170.68" width="71.08" height="147.2"/><rect id="Rectangle_54" data-name="Rectangle 54" class="cls-3" x="81.82" y="170.68" width="81.08" height="147.2"/><path id="Path_243" data-name="Path 243" class="cls-4" d="M0,350.13H92.45V317.87H21.37Z"/><path id="Path_244" data-name="Path 244" class="cls-4" d="M184.91,350.13H82.45V317.87h81.09Z"/><rect id="Rectangle_55" data-name="Rectangle 55" class="cls-2" x="21.37" y="116" width="45.45" height="132.74"/><path id="Rectangle_56" data-name="Rectangle 56" class="cls-1" d="M21.37,248.74H96.1a25.35,25.35,0,0,1-25.35,25.35h-24a25.35,25.35,0,0,1-25.35-25.35Z"/><g id="Group_11" data-name="Group 11"><path id="Rectangle_57" data-name="Rectangle 57" class="cls-5" d="M43.48,220.7H121v12A16.08,16.08,0,0,1,105,248.74H59.56a16.08,16.08,0,0,1-16.08-16.08h0v-12Z"/><rect id="Rectangle_58" data-name="Rectangle 58" class="cls-3" x="43.48" y="210.82" width="77.57" height="9.88"/><rect id="Rectangle_59" data-name="Rectangle 59" class="cls-4" x="43.48" y="210.82" width="77.57" height="4.94"/><path id="Rectangle_60" data-name="Rectangle 60" class="cls-2" d="M52.6,192.85h59.32A9.12,9.12,0,0,1,121,202h0a9.12,9.12,0,0,1-9.12,9.13H52.6A9.12,9.12,0,0,1,43.48,202h0A9.12,9.12,0,0,1,52.6,192.85Z"/><rect id="Rectangle_61" data-name="Rectangle 61" class="cls-1" x="42.95" y="186.41" width="78.09" height="6.05"/><path id="Path_245" data-name="Path 245" class="cls-1" d="M105.85,189.44l-23.85-3-23.85,3L82,199.85Z"/><path id="Path_246" data-name="Path 246" class="cls-5" d="M121,186.41a39,39,0,0,0-78.09,0H121Z"/></g><path id="Rectangle_62" data-name="Rectangle 62" class="cls-2" d="M91.39,0h29.66V11.81A19.44,19.44,0,0,1,101.6,31.25H72V19.44A19.44,19.44,0,0,1,91.39,0Z"/><path id="Rectangle_63" data-name="Rectangle 63" class="cls-1" d="M67.29,36.74h0a7.19,7.19,0,0,1,7.19-7.18H88.8V43.93H74.48a7.19,7.19,0,0,1-7.19-7.19Z"/><rect id="Rectangle_64" data-name="Rectangle 64" class="cls-2" x="82.26" y="18.12" width="9.56" height="26.05"/><path id="Rectangle_65" data-name="Rectangle 65" class="cls-1" d="M100.94,187.83h9.82v29.42a4.91,4.91,0,0,1-4.91,4.91h0a4.91,4.91,0,0,1-4.91-4.91V187.83Z"/></g></g></g></svg>