<svg xmlns="http://www.w3.org/2000/svg" viewBox="0 0 184.91 350.13"><defs><style>.cls-1{fill:#faa21e}.cls-2{fill:#411f1f}.cls-3{fill:#a9ae38}.cls-4{fill:#b32029}.cls-5{fill:#ab7029}</style></defs><g id="Layer_2" data-name="Layer 2"><g id="website_artwork" data-name="website artwork"><g id="Group_32" data-name="Group 32"><circle id="Ellipse_14" cx="92.46" cy="36.74" r="21.23" class="cls-1" data-name="Ellipse 14"/><path id="Rectangle_52" d="M54.67,61.32h75.57a33.3,33.3,0,0,1,33.3,33.3h0v76H21.37v-76a33.3,33.3,0,0,1,33.3-33.3Z" class="cls-2" data-name="Rectangle 52"/><rect id="Rectangle_53" width="71.08" height="147.2" x="21.37" y="170.68" class="cls-3" data-name="Rectangle 53"/><rect id="Rectangle_54" width="81.08" height="147.2" x="81.82" y="170.68" class="cls-3" data-name="Rectangle 54"/><path id="Path_243" d="M0,350.13H92.45V317.87H21.37Z" class="cls-4" data-name="Path 243"/><path id="Path_244" d="M184.91,350.13H82.45V317.87h81.09Z" class="cls-4" data-name="Path 244"/><rect id="Rectangle_55" width="45.45" height="132.74" x="21.37" y="116" class="cls-2" data-name="Rectangle 55"/><path id="Rectangle_56" d="M21.37,248.74H96.1a25.35,25.35,0,0,1-25.35,25.35h-24a25.35,25.35,0,0,1-25.35-25.35Z" class="cls-1" data-name="Rectangle 56"/><g id="Group_11" data-name="Group 11"><path id="Rectangle_57" d="M43.48,220.7H121v12A16.08,16.08,0,0,1,105,248.74H59.56a16.08,16.08,0,0,1-16.08-16.08h0v-12Z" class="cls-5" data-name="Rectangle 57"/><rect id="Rectangle_58" width="77.57" height="9.88" x="43.48" y="210.82" class="cls-3" data-name="Rectangle 58"/><rect id="Rectangle_59" width="77.57" height="4.94" x="43.48" y="210.82" class="cls-4" data-name="Rectangle 59"/><path id="Rectangle_60" d="M52.6,192.85h59.32A9.12,9.12,0,0,1,121,202h0a9.12,9.12,0,0,1-9.12,9.13H52.6A9.12,9.12,0,0,1,43.48,202h0A9.12,9.12,0,0,1,52.6,192.85Z" class="cls-2" data-name="Rectangle 60"/><rect id="Rectangle_61" width="78.09" height="6.05" x="42.95" y="186.41" class="cls-1" data-name="Rectangle 61"/><path id="Path_245" d="M105.85,189.44l-23.85-3-23.85,3L82,199.85Z" class="cls-1" data-name="Path 245"/><path id="Path_246" d="M121,186.41a39,39,0,0,0-78.09,0H121Z" class="cls-5" data-name="Path 246"/></g><path id="Rectangle_62" d="M91.39,0h29.66V11.81A19.44,19.44,0,0,1,101.6,31.25H72V19.44A19.44,19.44,0,0,1,91.39,0Z" class="cls-2" data-name="Rectangle 62"/><path id="Rectangle_63" d="M67.29,36.74h0a7.19,7.19,0,0,1,7.19-7.18H88.8V43.93H74.48a7.19,7.19,0,0,1-7.19-7.19Z" class="cls-1" data-name="Rectangle 63"/><rect id="Rectangle_64" width="9.56" height="26.05" x="82.26" y="18.12" class="cls-2" data-name="Rectangle 64"/><path id="Rectangle_65" d="M100.94,187.83h9.82v29.42a4.91,4.91,0,0,1-4.91,4.91h0a4.91,4.91,0,0,1-4.91-4.91V187.83Z" class="cls-1" data-name="Rectangle 65"/></g></g></g></svg>