<svg xmlns="http://www.w3.org/2000/svg" viewBox="0 0 171.41 309.49"><defs><style>.cls-1{fill:#ed5d28}.cls-2{fill:#faa21e}.cls-3{fill:#a9ae38}.cls-4{fill:#b32029}.cls-5{fill:#411f1f}.cls-6{fill:#fff}.cls-7{fill:#ab7029}</style></defs><g id="Layer_2" data-name="Layer 2"><g id="website_artwork" data-name="website artwork"><g id="Group_33" data-name="Group 33"><g id="Group_5" data-name="Group 5"><rect id="Rectangle_22" width="121.88" height="121.88" x="26.48" class="cls-1" data-name="Rectangle 22"/><path id="Path_235" d="M88.17,117l60.19,34.83v-30l-23.93-15.81Z" class="cls-1" data-name="Path 235"/><g id="Group_4" data-name="Group 4"><path id="Rectangle_23" d="M55,81.47h65v5.1a11.24,11.24,0,0,1-11.24,11.24H66.2A11.23,11.23,0,0,1,55,86.57v-5.1Z" class="cls-2" data-name="Rectangle 23"/><rect id="Rectangle_24" width="64.98" height="8.27" x="54.97" y="73.19" class="cls-3" data-name="Rectangle 24"/><rect id="Rectangle_25" width="64.98" height="4.14" x="54.97" y="73.19" class="cls-4" data-name="Rectangle 25"/><rect id="Rectangle_26" width="64.98" height="15.29" x="54.97" y="58.14" class="cls-5" data-name="Rectangle 26" rx="7.64"/><rect id="Rectangle_27" width="65.42" height="5.07" x="54.53" y="52.75" class="cls-6" data-name="Rectangle 27"/><path id="Path_236" d="M107.22,55.28l-20-2.53-20,2.53,20,8.72Z" class="cls-6" data-name="Path 236"/><path id="Path_237" d="M120,52.75C120,38,105.3,26,87.24,26S54.53,38,54.53,52.75Z" class="cls-2" data-name="Path 237"/></g></g><g id="Group_14" data-name="Group 14"><g id="Group_13" data-name="Group 13"><path id="Rectangle_66" d="M.44,220.19H66v2.24A9.61,9.61,0,0,1,56.38,232H10.05a9.61,9.61,0,0,1-9.61-9.61v-2.24Z" class="cls-7" data-name="Rectangle 66"/><rect id="Rectangle_67" width="65.54" height="8.35" x=".44" y="211.84" class="cls-3" data-name="Rectangle 67"/><rect id="Rectangle_68" width="65.54" height="4.17" x=".44" y="211.84" class="cls-4" data-name="Rectangle 68"/><path id="Rectangle_69" d="M8.15,196.66H58.27A7.72,7.72,0,0,1,66,204.37h0a7.72,7.72,0,0,1-7.72,7.71H8.15a7.71,7.71,0,0,1-7.71-7.71h0A7.71,7.71,0,0,1,8.15,196.66Z" class="cls-5" data-name="Rectangle 69"/><rect id="Rectangle_70" width="65.98" height="5.11" y="191.22" class="cls-2" data-name="Rectangle 70"/><path id="Path_247" d="M53.15,193.78,33,191.22l-20.15,2.56L33,202.58Z" class="cls-2" data-name="Path 247"/><path id="Path_248" d="M66,191.22c0-10.83-14.76-19.61-33-19.61S0,180.39,0,191.22Z" class="cls-7" data-name="Path 248"/></g><path id="Rectangle_71" d="M26.48,232.35h80.94V244.7H38.83A12.35,12.35,0,0,1,26.48,232.35Z" class="cls-2" data-name="Rectangle 71"/><path id="Rectangle_72" d="M138.64,267.78h0v41.71H96.92A41.71,41.71,0,0,1,138.64,267.78Z" class="cls-2" data-name="Rectangle 72"/><path id="Rectangle_73" d="M93.22,298.08h45.42v11.41H81.8A11.41,11.41,0,0,1,93.22,298.08Z" class="cls-2" data-name="Rectangle 73"/><path id="Rectangle_74" d="M104,222.67h67.44v65H119a15,15,0,0,1-15-15v-50Z" class="cls-4" data-name="Rectangle 74"/><path id="Rectangle_75" d="M75.39,182.84h78.35v39.83H87.11A11.72,11.72,0,0,1,75.39,211V182.84Z" class="cls-2" data-name="Rectangle 75"/><path id="Rectangle_76" d="M124.13,172H148a23.43,23.43,0,0,1,23.44,23.44v27.25H111.5v-38A12.63,12.63,0,0,1,124.13,172Z" class="cls-2" data-name="Rectangle 76"/><path id="Rectangle_77" d="M75.39,182.84h20v3a10.93,10.93,0,0,1-10.93,10.93h-9V182.84Z" class="cls-5" data-name="Rectangle 77"/><path id="Rectangle_78" d="M129.93,235.84h11.52V265h0a11.52,11.52,0,0,1-11.52-11.52h0V235.84Z" class="cls-2" data-name="Rectangle 78"/><path id="Rectangle_79" d="M171.41,267.78h0v41.71H129.69A41.71,41.71,0,0,1,171.41,267.78Z" class="cls-2" data-name="Rectangle 79"/><path id="Rectangle_80" d="M126,298.08h45.42v11.41H114.57A11.41,11.41,0,0,1,126,298.08Z" class="cls-2" data-name="Rectangle 80"/><path id="Rectangle_81" d="M111.5,182.84h12.75a7.71,7.71,0,0,1-7.72,7.71h-5v-7.71Z" class="cls-5" data-name="Rectangle 81"/><path id="Rectangle_82" d="M129.31,182.84h12.76a7.72,7.72,0,0,1-7.72,7.71h-5v-7.71Z" class="cls-5" data-name="Rectangle 82"/><rect id="Rectangle_83" width="48.39" height="3.45" x="111.5" y="179.39" class="cls-5" data-name="Rectangle 83"/><path id="Rectangle_84" d="M148.36,172h0a23,23,0,0,1,23,23v32.1a11.52,11.52,0,0,1-11.52,11.52h0a11.53,11.53,0,0,1-11.53-11.52h0V172Z" class="cls-5" data-name="Rectangle 84"/><path id="Rectangle_85" d="M75.39,206.46H133.7a4,4,0,0,1,4,4h0a4,4,0,0,1-4,4H75.39v-8Z" class="cls-6" data-name="Rectangle 85"/><path id="Rectangle_86" d="M16.77,193.28h9.82V222.7a4.91,4.91,0,0,1-4.91,4.91h0a4.91,4.91,0,0,1-4.91-4.91V193.28Z" class="cls-2" data-name="Rectangle 86"/></g></g></g></g></svg>