<svg xmlns="http://www.w3.org/2000/svg" viewBox="0 0 212.27 464"><defs><style>.cls-1{fill:#411f1f;}.cls-2{isolation:isolate;}.cls-3{fill:#ed5d28;}.cls-4{fill:#ab7029;}.cls-5{fill:#b32029;}.cls-6{fill:#faa21e;}.cls-7{fill:#a9ae38;}</style></defs><g id="Layer_2" data-name="Layer 2"><g id="website_artwork" data-name="website artwork"><g id="Group_28" data-name="Group 28"><g id="Group_8" data-name="Group 8"><circle id="Ellipse_10" data-name="Ellipse 10" class="cls-1" cx="117.67" cy="64.32" r="64.32"/><rect id="Rectangle_34" data-name="Rectangle 34" class="cls-1" x="53.36" y="64.32" width="64.32" height="64.32"/><g id="_20_20" data-name=" 20 20" class="cls-2"><g class="cls-2"><path class="cls-3" d="M113.41,60.53H88.34V53.69l11-9.14a24.93,24.93,0,0,0,4.09-4.24,6.59,6.59,0,0,0,1.25-3.8V36a4.18,4.18,0,0,0-1.3-3.32,5.16,5.16,0,0,0-3.5-1.12A5,5,0,0,0,96,33a8.13,8.13,0,0,0-1.9,3.44L87.59,34a15.24,15.24,0,0,1,1.65-3.43,10.82,10.82,0,0,1,2.67-2.82,13.78,13.78,0,0,1,3.77-1.92,15.53,15.53,0,0,1,4.94-.72,15,15,0,0,1,5.1.8,11.17,11.17,0,0,1,3.79,2.19,9.24,9.24,0,0,1,2.35,3.32,10.83,10.83,0,0,1,.8,4.17,10.62,10.62,0,0,1-.73,4,13.4,13.4,0,0,1-2,3.42,23.51,23.51,0,0,1-3,3.1q-1.72,1.5-3.67,3l-6.64,5.15h16.78Z"/><path class="cls-3" d="M130.58,61.13q-7,0-10.31-4.75T117,43.1q0-8.54,3.32-13.28t10.31-4.74q7,0,10.31,4.74t3.32,13.28q0,8.53-3.32,13.28T130.58,61.13Zm0-5.9q3.34,0,4.67-2.34a13.48,13.48,0,0,0,1.32-6.54V39.86a13.42,13.42,0,0,0-1.32-6.54Q133.93,31,130.58,31c-2.23,0-3.78.78-4.67,2.35a13.42,13.42,0,0,0-1.32,6.54v6.49a13.48,13.48,0,0,0,1.32,6.54C126.8,54.45,128.35,55.23,130.58,55.23Zm0-9.18a3.3,3.3,0,0,1-2.42-.7,2.35,2.35,0,0,1-.67-1.7v-1.1a2.37,2.37,0,0,1,.67-1.7,4.59,4.59,0,0,1,4.84,0,2.38,2.38,0,0,1,.68,1.7v1.1a2.36,2.36,0,0,1-.68,1.7A3.29,3.29,0,0,1,130.58,46.05Z"/></g><g class="cls-2"><path class="cls-3" d="M113.41,102.76H88.34V95.92l11-9.13a24.56,24.56,0,0,0,4.09-4.25,6.56,6.56,0,0,0,1.25-3.79v-.5a4.16,4.16,0,0,0-1.3-3.32,5.16,5.16,0,0,0-3.5-1.12A5,5,0,0,0,96,75.25a8.22,8.22,0,0,0-1.9,3.45l-6.54-2.5a15,15,0,0,1,1.65-3.42A10.82,10.82,0,0,1,91.91,70,13.51,13.51,0,0,1,95.68,68a15.52,15.52,0,0,1,4.94-.73,15.25,15.25,0,0,1,5.1.8,11.36,11.36,0,0,1,3.79,2.2,9.15,9.15,0,0,1,2.35,3.32,11.35,11.35,0,0,1,.07,8.19,13.75,13.75,0,0,1-2,3.42,23.45,23.45,0,0,1-3,3.09q-1.72,1.5-3.67,3l-6.64,5.14h16.78Z"/><path class="cls-3" d="M130.58,103.36q-7,0-10.31-4.74T117,85.34q0-8.53,3.32-13.28t10.31-4.75q7,0,10.31,4.75t3.32,13.28q0,8.53-3.32,13.28T130.58,103.36Zm0-5.89q3.34,0,4.67-2.35a13.42,13.42,0,0,0,1.32-6.54V82.09a13.48,13.48,0,0,0-1.32-6.54q-1.32-2.34-4.67-2.34c-2.23,0-3.78.78-4.67,2.34a13.48,13.48,0,0,0-1.32,6.54v6.49a13.42,13.42,0,0,0,1.32,6.54C126.8,96.69,128.35,97.47,130.58,97.47Zm0-9.19a3.35,3.35,0,0,1-2.42-.69,2.37,2.37,0,0,1-.67-1.7v-1.1a2.35,2.35,0,0,1,.67-1.7,4.53,4.53,0,0,1,4.84,0,2.36,2.36,0,0,1,.68,1.7v1.1a2.38,2.38,0,0,1-.68,1.7A3.33,3.33,0,0,1,130.58,88.28Z"/></g></g></g><g id="Group_16" data-name="Group 16"><path id="Rectangle_87" data-name="Rectangle 87" class="cls-1" d="M84.32,249.61H187.44a35,35,0,0,1-35,35H84.32v-35Z"/><circle id="Ellipse_15" data-name="Ellipse 15" class="cls-4" cx="66.31" cy="184.7" r="38.19"/><path id="Rectangle_88" data-name="Rectangle 88" class="cls-5" d="M64.74,240.76h0a41.48,41.48,0,0,1,41.48,41.48h0v27.39h-83V282.25A41.49,41.49,0,0,1,64.74,240.76Z"/><path id="Path_249" data-name="Path 249" class="cls-6" d="M129.48,381.82H0l23.26-72.17h83Z"/><rect id="Rectangle_89" data-name="Rectangle 89" class="cls-1" x="23.26" y="381.82" width="41.48" height="54.54"/><rect id="Rectangle_90" data-name="Rectangle 90" class="cls-1" x="62.74" y="381.82" width="43.48" height="54.54"/><path id="Path_250" data-name="Path 250" class="cls-5" d="M64.74,436.35v6.53l-12.25,7.48A93.12,93.12,0,0,1,4,464H4L15.2,447.87l8-11.52Z"/><path id="Rectangle_91" data-name="Rectangle 91" class="cls-5" d="M44,442.88H64.74v20.74h0A20.73,20.73,0,0,1,44,442.88Z"/><path id="Path_251" data-name="Path 251" class="cls-5" d="M64.74,436.35v6.53L77,450.36A93.12,93.12,0,0,0,125.51,464h0l-11.23-16.13-8-11.52Z"/><path id="Rectangle_92" data-name="Rectangle 92" class="cls-5" d="M64.74,463.62h0l-10-20.74H85.48A20.73,20.73,0,0,1,64.74,463.62Z"/><circle id="Ellipse_16" data-name="Ellipse 16" class="cls-1" cx="64.74" cy="217.12" r="15.87"/><circle id="Ellipse_17" data-name="Ellipse 17" class="cls-4" cx="103.9" cy="210.56" r="10.24"/><circle id="Ellipse_18" data-name="Ellipse 18" class="cls-4" cx="116.46" cy="224.48" r="10.24"/><circle id="Ellipse_19" data-name="Ellipse 19" class="cls-4" cx="28.73" cy="210.56" r="10.24"/><circle id="Ellipse_20" data-name="Ellipse 20" class="cls-4" cx="16.16" cy="224.48" r="10.24"/><g id="Group_15" data-name="Group 15"><path id="Rectangle_93" data-name="Rectangle 93" class="cls-4" d="M146.72,225.52h65.55v10.11a13.59,13.59,0,0,1-13.59,13.59H160.32a13.59,13.59,0,0,1-13.6-13.59V225.52Z"/><rect id="Rectangle_94" data-name="Rectangle 94" class="cls-7" x="146.72" y="217.18" width="65.54" height="8.35"/><rect id="Rectangle_95" data-name="Rectangle 95" class="cls-5" x="146.72" y="217.18" width="65.54" height="4.17"/><path id="Rectangle_96" data-name="Rectangle 96" class="cls-1" d="M154.44,202h50.12a7.72,7.72,0,0,1,7.71,7.71h0a7.71,7.71,0,0,1-7.71,7.71H154.44a7.72,7.72,0,0,1-7.72-7.71h0A7.72,7.72,0,0,1,154.44,202Z"/><rect id="Rectangle_97" data-name="Rectangle 97" class="cls-6" x="146.28" y="196.56" width="65.98" height="5.11"/><path id="Path_252" data-name="Path 252" class="cls-6" d="M199.43,199.11l-20.16-2.56-20.15,2.56,20.15,8.8Z"/><path id="Path_253" data-name="Path 253" class="cls-4" d="M212.27,196.56a33,33,0,1,0-66,0Z"/></g><circle id="Ellipse_21" data-name="Ellipse 21" class="cls-1" cx="80.61" cy="220.11" r="4.87"/><circle id="Ellipse_22" data-name="Ellipse 22" class="cls-1" cx="48.86" cy="220.11" r="4.87"/><path id="Rectangle_98" data-name="Rectangle 98" class="cls-6" d="M146.28,198.66h9.82v29.42a4.91,4.91,0,0,1-4.91,4.91h0a4.91,4.91,0,0,1-4.91-4.91V198.66Z"/></g></g></g></g></svg>