<svg xmlns="http://www.w3.org/2000/svg" viewBox="0 0 244.07 275.97"><defs><style>.cls-1{fill:#ab7029;}.cls-2{fill:#a9ae38;}.cls-3{fill:#b32029;}.cls-4{fill:#411f1f;}.cls-5{fill:#faa21e;}.cls-6{fill:#ffe8c9;}</style></defs><g id="Layer_2" data-name="Layer 2"><g id="website_artwork" data-name="website artwork"><g id="Group_31" data-name="Group 31"><g id="Group_1" data-name="Group 1"><path id="Rectangle_6" data-name="Rectangle 6" class="cls-1" d="M157.88,42v77.57h-12a16.09,16.09,0,0,1-16.09-16.08h0V58.11A16.09,16.09,0,0,1,145.92,42h12Z"/><rect id="Rectangle_7" data-name="Rectangle 7" class="cls-2" x="157.88" y="42.02" width="9.88" height="77.57"/><rect id="Rectangle_8" data-name="Rectangle 8" class="cls-3" x="128.86" y="78.56" width="77.57" height="4.94" transform="translate(76.56 243.43) rotate(-86.51)"/><path id="Rectangle_9" data-name="Rectangle 9" class="cls-4" d="M193.91,52.75l-7.12,58.9a9.13,9.13,0,0,1-10.15,8h0a9.13,9.13,0,0,1-8-10.16l7.12-58.9a9.12,9.12,0,0,1,10.15-8h0A9.12,9.12,0,0,1,193.91,52.75Z"/><rect id="Rectangle_10" data-name="Rectangle 10" class="cls-5" x="163.13" y="80.85" width="78.09" height="6.05" transform="translate(54.82 245.73) rotate(-70.22)"/><path id="Path_231" data-name="Path 231" class="cls-5" d="M194.1,106.32,205,84.9l5.23-23.47L192.37,80.35Z"/><path id="Path_232" data-name="Path 232" class="cls-1" d="M191.8,121.64a39,39,0,0,0,26.43-73.49h0Z"/></g><rect id="Rectangle_11" data-name="Rectangle 11" class="cls-6" x="18.27" y="121.28" width="94.64" height="57.29"/><rect id="Rectangle_12" data-name="Rectangle 12" class="cls-6" x="105.93" y="121.28" width="79.65" height="35.39"/><rect id="Rectangle_13" data-name="Rectangle 13" class="cls-6" x="18.27" y="48.6" width="35.39" height="87.79"/><path id="Rectangle_14" data-name="Rectangle 14" class="cls-4" d="M18.27,48.6v-18a18,18,0,0,1,18-18h0a18,18,0,0,1,18,18h0v18H18.27Z"/><path id="Rectangle_15" data-name="Rectangle 15" class="cls-4" d="M185.58,121.28h18a18,18,0,0,1,18,18h0a18,18,0,0,1-18,18h-18V121.28Z"/><rect id="Rectangle_16" data-name="Rectangle 16" class="cls-3" x="18.27" y="178.56" width="47.42" height="68.03"/><rect id="Rectangle_17" data-name="Rectangle 17" class="cls-3" x="55.69" y="178.56" width="57.42" height="68.03"/><path id="Path_233" data-name="Path 233" class="cls-2" d="M0,276H65.69V246.59H18.27Z"/><path id="Path_234" data-name="Path 234" class="cls-2" d="M131.38,276H55.69V246.59h57.43Z"/><path id="Rectangle_18" data-name="Rectangle 18" class="cls-4" d="M75.29,85.74h0a35.54,35.54,0,0,1,35.54,35.54H75.29V85.74Z"/><path id="Rectangle_19" data-name="Rectangle 19" class="cls-3" d="M75.29,121.28H39.75A35.54,35.54,0,0,1,75.29,85.74h0v35.54Z"/><g id="Group_2" data-name="Group 2"><path id="Rectangle_20" data-name="Rectangle 20" class="cls-3" d="M187.38,2.68h0a9.13,9.13,0,0,1,12.92,0L214.22,16.6h0L201.31,29.52h0L187.38,15.59A9.14,9.14,0,0,1,187.38,2.68Z"/><path id="Rectangle_21" data-name="Rectangle 21" class="cls-3" d="M201.31,29.52,188.4,16.6h0L202.32,2.67a9.15,9.15,0,0,1,12.92,0h0a9.15,9.15,0,0,1,0,12.92h0L201.31,29.52Z"/></g></g></g></g></svg>