<svg xmlns="http://www.w3.org/2000/svg" viewBox="0 0 219.92 170.95"><defs><style>.cls-1{fill:#411f1f;}.cls-2{fill:#a9ae38;}.cls-3{fill:#cf3339;}.cls-4{fill:#ab7029;}.cls-5{fill:#592b2b;}.cls-6{fill:#faa21e;}.cls-7{fill:#ed5d28;}</style></defs><g id="Layer_2" data-name="Layer 2"><g id="website_artwork" data-name="website artwork"><g id="Group_95" data-name="Group 95"><path id="Path_768" data-name="Path 768" class="cls-1" d="M47.15,70.59H110V0h0A36.87,36.87,0,0,0,78.23,18.08Z"/><path id="Path_769" data-name="Path 769" class="cls-1" d="M172.77,70.59H110V0h0a36.84,36.84,0,0,1,31.72,18.08Z"/><path id="Path_770" data-name="Path 770" class="cls-2" d="M137.57,47.24H81.72A37.26,37.26,0,0,0,44.46,84.5h0v60.05H174.83V84.5a37.26,37.26,0,0,0-37.26-37.26Z"/><circle id="Ellipse_67" data-name="Ellipse 67" class="cls-3" cx="109.96" cy="38.59" r="23.16"/><path id="Rectangle_303" data-name="Rectangle 303" class="cls-3" d="M145.48,93h0a23.07,23.07,0,0,1,23.07,23.07v52.8h0a23.07,23.07,0,0,1-23.07-23.07V93Z"/><path id="Path_771" data-name="Path 771" class="cls-2" d="M215.15,128.74,168.55,64V168.85h26a25.32,25.32,0,0,0,25.32-25.32h0A25.35,25.35,0,0,0,215.15,128.74Z"/><path id="Rectangle_304" data-name="Rectangle 304" class="cls-3" d="M51.37,168.85h0v-52.8A23.07,23.07,0,0,1,74.44,93h0v52.8A23.07,23.07,0,0,1,51.37,168.85Z"/><path id="Path_772" data-name="Path 772" class="cls-2" d="M4.77,128.74,51.37,64V168.85h-26A25.31,25.31,0,0,1,0,143.53H0A25.35,25.35,0,0,1,4.77,128.74Z"/><g id="Group_94" data-name="Group 94"><path id="Rectangle_305" data-name="Rectangle 305" class="cls-4" d="M95.68,82.41h27.81a28,28,0,0,1,28,28H67.66a28,28,0,0,1,28-28Z"/><path id="Rectangle_306" data-name="Rectangle 306" class="cls-4" d="M133,171H86.15a18.49,18.49,0,0,1-18.49-18.49h83.85A18.49,18.49,0,0,1,133,171Z"/><path id="Rectangle_307" data-name="Rectangle 307" class="cls-5" d="M72.18,117.75H147a10,10,0,0,1,10,10h0a10,10,0,0,1-10,10H72.18a10,10,0,0,1-10-10h0A10,10,0,0,1,72.18,117.75Z"/><path id="Rectangle_308" data-name="Rectangle 308" class="cls-2" d="M66,145.21H153.2a7.25,7.25,0,0,1-7.25,7.25H73.22A7.26,7.26,0,0,1,66,145.21Z"/><path id="Rectangle_309" data-name="Rectangle 309" class="cls-6" d="M67.89,110.43h83.39a7.24,7.24,0,0,1-7.25,7.25H75.14a7.25,7.25,0,0,1-7.25-7.25Z"/><rect id="Rectangle_310" data-name="Rectangle 310" class="cls-7" x="62.9" y="137.66" width="94.11" height="7.46"/><path id="Rectangle_311" data-name="Rectangle 311" class="cls-6" d="M96.92,116.37h10.21v25.7a5.1,5.1,0,0,1-5.1,5.1h0a5.09,5.09,0,0,1-5.11-5.09h0v-25.7Z"/><path id="Rectangle_312" data-name="Rectangle 312" class="cls-6" d="M107.13,110.43h10.2v7.13a10.21,10.21,0,0,1-10.2,10.21h0V110.43Z"/></g><path id="Rectangle_313" data-name="Rectangle 313" class="cls-1" d="M102.29,11.42h30.83V35.29h-7a23.87,23.87,0,0,1-23.87-23.87Z"/></g></g></g></svg>