<svg xmlns="http://www.w3.org/2000/svg" viewBox="0 0 270.01 350.92"><defs><style>.cls-1{fill:#ed5d28;}.cls-2{fill:#faa21e;}.cls-3{fill:#411f1f;}.cls-4{fill:#ab7029;}.cls-5{fill:#592b2b;}.cls-6{fill:#a9ae38;}.cls-7{fill:#b32029;}</style></defs><g id="Layer_2" data-name="Layer 2"><g id="website_artwork" data-name="website artwork"><g id="Group_93" data-name="Group 93"><g id="Group_89" data-name="Group 89"><path id="Rectangle_270" data-name="Rectangle 270" class="cls-1" d="M132.08,87.22h16.06v25.21H112.69v-5.82a19.39,19.39,0,0,1,19.39-19.39Z"/><rect id="Rectangle_271" data-name="Rectangle 271" class="cls-2" x="101.57" y="143.27" width="88.86" height="77.37"/><circle id="Ellipse_64" data-name="Ellipse 64" class="cls-3" cx="130.42" cy="118.81" r="19.82"/><circle id="Ellipse_65" data-name="Ellipse 65" class="cls-3" cx="112.69" cy="118.81" r="8.24"/><circle id="Ellipse_66" data-name="Ellipse 66" class="cls-3" cx="148.14" cy="118.81" r="8.24"/><rect id="Rectangle_272" data-name="Rectangle 272" class="cls-2" x="164.07" y="101.78" width="26.37" height="42.19"/><rect id="Rectangle_273" data-name="Rectangle 273" class="cls-2" x="59.39" y="143.27" width="42.19" height="26.37"/><path id="Rectangle_274" data-name="Rectangle 274" class="cls-3" d="M164.07,101.78h0a16.71,16.71,0,0,1,16.71-16.71h30.44a16.72,16.72,0,0,1-16.72,16.71Z"/><path id="Rectangle_275" data-name="Rectangle 275" class="cls-3" d="M59.39,169.64h0A26.37,26.37,0,0,1,33,143.27H59.39v26.37Z"/><path id="Rectangle_276" data-name="Rectangle 276" class="cls-3" d="M39.1,154.27h-22a5.5,5.5,0,0,1-5.5-5.5h0a5.5,5.5,0,0,1,5.5-5.5h22v11Z"/><rect id="Rectangle_277" data-name="Rectangle 277" class="cls-1" x="101.57" y="220.64" width="44.43" height="110.24"/><rect id="Rectangle_278" data-name="Rectangle 278" class="cls-1" x="146.01" y="220.64" width="98.29" height="44.43"/><path id="Path_766" data-name="Path 766" class="cls-2" d="M146,350.92H84.51l17.06-20H146Z"/><path id="Path_767" data-name="Path 767" class="cls-2" d="M264.33,265.07v-61.5l-20,17.07v44.43Z"/></g><g id="Group_90" data-name="Group 90"><path id="Rectangle_279" data-name="Rectangle 279" class="cls-4" d="M210.54,265.07h27a27.17,27.17,0,0,1,27.16,27.17h-81.3A27.18,27.18,0,0,1,210.54,265.07Z"/><path id="Rectangle_280" data-name="Rectangle 280" class="cls-4" d="M246.75,350.92H201.3A17.93,17.93,0,0,1,183.38,333h81.3a17.93,17.93,0,0,1-17.93,17.93Z"/><rect id="Rectangle_281" data-name="Rectangle 281" class="cls-5" x="183.37" y="299.34" width="81.3" height="19.43" rx="9.71"/><path id="Rectangle_282" data-name="Rectangle 282" class="cls-6" d="M181.73,326h84.59a7,7,0,0,1-7,7H188.77a7,7,0,0,1-7-7Z"/><path id="Rectangle_283" data-name="Rectangle 283" class="cls-2" d="M183.6,292.24h80.85a7,7,0,0,1-7,7H190.63a7,7,0,0,1-7-7Z"/><rect id="Rectangle_284" data-name="Rectangle 284" class="cls-7" x="178.76" y="318.64" width="91.25" height="7.24"/><path id="Rectangle_285" data-name="Rectangle 285" class="cls-2" d="M211.75,298h9.89v24.92a5,5,0,0,1-4.95,4.95h0a5,5,0,0,1-4.94-4.95h0V298Z"/><path id="Rectangle_286" data-name="Rectangle 286" class="cls-2" d="M221.64,292.24h9.9v6.92a9.89,9.89,0,0,1-9.9,9.89h0V292.24Z"/></g><g id="Group_91" data-name="Group 91"><path id="Rectangle_287" data-name="Rectangle 287" class="cls-4" d="M176.69,0h26.78a27,27,0,0,1,27,27H149.7a27,27,0,0,1,27-27Z"/><path id="Rectangle_288" data-name="Rectangle 288" class="cls-4" d="M212.65,85.26H167.51a17.8,17.8,0,0,1-17.8-17.8h80.74a17.8,17.8,0,0,1-17.8,17.8Z"/><rect id="Rectangle_289" data-name="Rectangle 289" class="cls-5" x="149.7" y="34.03" width="80.75" height="19.3" rx="9.65"/><path id="Rectangle_290" data-name="Rectangle 290" class="cls-6" d="M148.07,60.47h84a7,7,0,0,1-7,7h-70a7,7,0,0,1-7-7Z"/><path id="Rectangle_291" data-name="Rectangle 291" class="cls-2" d="M149.92,27h80.31a7,7,0,0,1-7,7H156.91a7,7,0,0,1-7-7Z"/><rect id="Rectangle_292" data-name="Rectangle 292" class="cls-7" x="145.12" y="53.21" width="90.63" height="7.19"/><path id="Rectangle_293" data-name="Rectangle 293" class="cls-2" d="M177.88,32.71h9.83V57.46a4.91,4.91,0,0,1-4.91,4.91h0a4.91,4.91,0,0,1-4.92-4.91V32.71Z"/><path id="Rectangle_294" data-name="Rectangle 294" class="cls-2" d="M187.71,27h9.83v6.86a9.83,9.83,0,0,1-9.83,9.83h0V27Z"/></g><g id="Group_92" data-name="Group 92"><path id="Rectangle_295" data-name="Rectangle 295" class="cls-4" d="M31.57,58.09H58.35a27,27,0,0,1,27,27H4.58a27,27,0,0,1,27-27Z"/><path id="Rectangle_296" data-name="Rectangle 296" class="cls-4" d="M67.53,143.35H22.38a17.8,17.8,0,0,1-17.8-17.8H85.33a17.8,17.8,0,0,1-17.8,17.8Z"/><rect id="Rectangle_297" data-name="Rectangle 297" class="cls-5" x="4.58" y="92.12" width="80.75" height="19.3" rx="9.65"/><path id="Rectangle_298" data-name="Rectangle 298" class="cls-6" d="M3,118.56H87a7,7,0,0,1-7,7h-70a7,7,0,0,1-7-7Z"/><path id="Rectangle_299" data-name="Rectangle 299" class="cls-2" d="M4.8,85.07H85.11a7,7,0,0,1-7,7H11.79a7,7,0,0,1-7-7Z"/><rect id="Rectangle_300" data-name="Rectangle 300" class="cls-7" y="111.29" width="90.63" height="7.19"/><path id="Rectangle_301" data-name="Rectangle 301" class="cls-2" d="M32.76,90.79h9.83v24.75a4.91,4.91,0,0,1-4.92,4.91h0a4.91,4.91,0,0,1-4.91-4.91V90.79Z"/><path id="Rectangle_302" data-name="Rectangle 302" class="cls-2" d="M42.59,85.07h9.83v6.87a9.83,9.83,0,0,1-9.83,9.82h0V85.07Z"/></g></g></g></g></svg>