<svg xmlns="http://www.w3.org/2000/svg" viewBox="0 0 244.07 275.97"><defs><style>.cls-1{fill:#ab7029}.cls-2{fill:#a9ae38}.cls-3{fill:#b32029}.cls-4{fill:#411f1f}.cls-5{fill:#faa21e}.cls-6{fill:#ffe8c9}</style></defs><g id="Layer_2" data-name="Layer 2"><g id="website_artwork" data-name="website artwork"><g id="Group_31" data-name="Group 31"><g id="Group_1" data-name="Group 1"><path id="Rectangle_6" d="M157.88,42v77.57h-12a16.09,16.09,0,0,1-16.09-16.08h0V58.11A16.09,16.09,0,0,1,145.92,42h12Z" class="cls-1" data-name="Rectangle 6"/><rect id="Rectangle_7" width="9.88" height="77.57" x="157.88" y="42.02" class="cls-2" data-name="Rectangle 7"/><rect id="Rectangle_8" width="77.57" height="4.94" x="128.86" y="78.56" class="cls-3" data-name="Rectangle 8" transform="translate(76.56 243.43) rotate(-86.51)"/><path id="Rectangle_9" d="M193.91,52.75l-7.12,58.9a9.13,9.13,0,0,1-10.15,8h0a9.13,9.13,0,0,1-8-10.16l7.12-58.9a9.12,9.12,0,0,1,10.15-8h0A9.12,9.12,0,0,1,193.91,52.75Z" class="cls-4" data-name="Rectangle 9"/><rect id="Rectangle_10" width="78.09" height="6.05" x="163.13" y="80.85" class="cls-5" data-name="Rectangle 10" transform="translate(54.82 245.73) rotate(-70.22)"/><path id="Path_231" d="M194.1,106.32,205,84.9l5.23-23.47L192.37,80.35Z" class="cls-5" data-name="Path 231"/><path id="Path_232" d="M191.8,121.64a39,39,0,0,0,26.43-73.49h0Z" class="cls-1" data-name="Path 232"/></g><rect id="Rectangle_11" width="94.64" height="57.29" x="18.27" y="121.28" class="cls-6" data-name="Rectangle 11"/><rect id="Rectangle_12" width="79.65" height="35.39" x="105.93" y="121.28" class="cls-6" data-name="Rectangle 12"/><rect id="Rectangle_13" width="35.39" height="87.79" x="18.27" y="48.6" class="cls-6" data-name="Rectangle 13"/><path id="Rectangle_14" d="M18.27,48.6v-18a18,18,0,0,1,18-18h0a18,18,0,0,1,18,18h0v18H18.27Z" class="cls-4" data-name="Rectangle 14"/><path id="Rectangle_15" d="M185.58,121.28h18a18,18,0,0,1,18,18h0a18,18,0,0,1-18,18h-18V121.28Z" class="cls-4" data-name="Rectangle 15"/><rect id="Rectangle_16" width="47.42" height="68.03" x="18.27" y="178.56" class="cls-3" data-name="Rectangle 16"/><rect id="Rectangle_17" width="57.42" height="68.03" x="55.69" y="178.56" class="cls-3" data-name="Rectangle 17"/><path id="Path_233" d="M0,276H65.69V246.59H18.27Z" class="cls-2" data-name="Path 233"/><path id="Path_234" d="M131.38,276H55.69V246.59h57.43Z" class="cls-2" data-name="Path 234"/><path id="Rectangle_18" d="M75.29,85.74h0a35.54,35.54,0,0,1,35.54,35.54H75.29V85.74Z" class="cls-4" data-name="Rectangle 18"/><path id="Rectangle_19" d="M75.29,121.28H39.75A35.54,35.54,0,0,1,75.29,85.74h0v35.54Z" class="cls-3" data-name="Rectangle 19"/><g id="Group_2" data-name="Group 2"><path id="Rectangle_20" d="M187.38,2.68h0a9.13,9.13,0,0,1,12.92,0L214.22,16.6h0L201.31,29.52h0L187.38,15.59A9.14,9.14,0,0,1,187.38,2.68Z" class="cls-3" data-name="Rectangle 20"/><path id="Rectangle_21" d="M201.31,29.52,188.4,16.6h0L202.32,2.67a9.15,9.15,0,0,1,12.92,0h0a9.15,9.15,0,0,1,0,12.92h0L201.31,29.52Z" class="cls-3" data-name="Rectangle 21"/></g></g></g></g></svg>