<svg xmlns="http://www.w3.org/2000/svg" viewBox="0 0 219.91 170.95"><defs><style>.cls-1{fill:#411f1f}.cls-2{fill:#a9ae38}.cls-3{fill:#cf3339}.cls-4{fill:#ab7029}.cls-5{fill:#592b2b}.cls-6{fill:#faa21e}.cls-7{fill:#ed5d28}</style></defs><g id="Layer_2" data-name="Layer 2"><g id="website_artwork" data-name="website artwork"><g id="Group_95" data-name="Group 95"><path d="M110,11.43V70.59H47.14l2.35-4,3.38-5.71A37.18,37.18,0,0,1,81.71,47.24h6.77a22.83,22.83,0,0,1-1.68-8.65,23.13,23.13,0,0,1,16-22,24.07,24.07,0,0,1-.55-5.13Z" class="cls-1"/><path d="M172.76,70.59H110V11.43h23.16V35.3h-.24a22.25,22.25,0,0,1,.24,3.29,22.83,22.83,0,0,1-1.68,8.65h6.14a37.23,37.23,0,0,1,32.12,18.37l.68.94Z" class="cls-1"/><path d="M174.83,84.5v60.06H44.45V84.5a37,37,0,0,1,2.69-13.91h0c.24-.59.49-1.18.76-1.75a36.8,36.8,0,0,1,5-7.92A37.18,37.18,0,0,1,81.71,47.24h55.86A37.22,37.22,0,0,1,174.83,84.5Z" class="cls-2"/><path d="M133.11,38.59a22.83,22.83,0,0,1-1.68,8.65,23.15,23.15,0,0,1-42.95,0,22.83,22.83,0,0,1-1.68-8.65,23.15,23.15,0,0,1,46.07-3.29A22.25,22.25,0,0,1,133.11,38.59Z" class="cls-3"/><path id="Rectangle_303" d="M145.48,93h0a23.07,23.07,0,0,1,23.07,23.07v52.79h0a23.07,23.07,0,0,1-23.07-23.07V93Z" class="cls-3" data-name="Rectangle 303"/><path d="M219.91,143.54a25.31,25.31,0,0,1-25.31,25.31H168.54V64l1.15,1.6.68.94,44.77,62.2a25.28,25.28,0,0,1,4.77,14.79Z" class="cls-2"/><path id="Rectangle_304" d="M51.37,168.85h0V116.06A23.07,23.07,0,0,1,74.44,93h0v52.79A23.07,23.07,0,0,1,51.37,168.85Z" class="cls-3" data-name="Rectangle 304"/><path id="Path_772" d="M4.77,128.75,51.37,64V168.85h-26A25.31,25.31,0,0,1,0,143.54H0A25.32,25.32,0,0,1,4.77,128.75Z" class="cls-2" data-name="Path 772"/><g id="Group_94" data-name="Group 94"><path id="Rectangle_305" d="M95.68,82.41h27.81a28,28,0,0,1,28,28H67.66a28,28,0,0,1,28-28Z" class="cls-4" data-name="Rectangle 305"/><path id="Rectangle_306" d="M133,171H86.15a18.49,18.49,0,0,1-18.49-18.49h83.85A18.49,18.49,0,0,1,133,171Z" class="cls-4" data-name="Rectangle 306"/><path id="Rectangle_307" d="M72.18,117.75H147a10,10,0,0,1,10,10h0a10,10,0,0,1-10,10H72.18a10,10,0,0,1-10-10h0A10,10,0,0,1,72.18,117.75Z" class="cls-5" data-name="Rectangle 307"/><path id="Rectangle_308" d="M66,145.21H153.2a7.25,7.25,0,0,1-7.25,7.25H73.22A7.26,7.26,0,0,1,66,145.21Z" class="cls-2" data-name="Rectangle 308"/><path id="Rectangle_309" d="M67.89,110.43h83.39a7.25,7.25,0,0,1-7.25,7.26H75.14a7.26,7.26,0,0,1-7.25-7.26Z" class="cls-6" data-name="Rectangle 309"/><rect id="Rectangle_310" width="94.11" height="7.46" x="62.9" y="137.66" class="cls-7" data-name="Rectangle 310"/><path id="Rectangle_311" d="M96.92,116.38h10.21v25.7a5.11,5.11,0,0,1-5.1,5.1h0a5.1,5.1,0,0,1-5.11-5.1h0v-25.7Z" class="cls-6" data-name="Rectangle 311"/><path id="Rectangle_312" d="M107.13,110.43h10.2v7.13a10.21,10.21,0,0,1-10.2,10.21h0V110.43Z" class="cls-6" data-name="Rectangle 312"/></g><path d="M170.37,66.55l-.68-.94a37.23,37.23,0,0,0-32.12-18.37h-6.14a22.83,22.83,0,0,0,1.68-8.65,22.25,22.25,0,0,0-.24-3.29h-6.71a23.89,23.89,0,0,1-23.32-18.74,23.13,23.13,0,0,0-16,22,22.83,22.83,0,0,0,1.68,8.65H81.71A37.18,37.18,0,0,0,52.87,60.91L78.23,18.09a36.87,36.87,0,0,1,63.45,0Z" class="cls-1"/></g></g></g></svg>