<svg xmlns="http://www.w3.org/2000/svg" viewBox="0 0 189.97 242"><defs><style>.cls-1{fill:#ab7029;}.cls-2{fill:#ffe8c9;}.cls-3{fill:#b32029;}.cls-4{fill:#411f1f;}.cls-5{fill:#faa21e;}</style></defs><g id="Layer_2" data-name="Layer 2"><g id="website_artwork" data-name="website artwork"><g id="Group_63" data-name="Group 63"><rect id="Rectangle_169" data-name="Rectangle 169" class="cls-1" x="19.18" y="98.25" width="151.81" height="143.75"/><g id="Group_62" data-name="Group 62"><path id="Rectangle_170" data-name="Rectangle 170" class="cls-2" d="M38.16,98.25h38v54.52a19,19,0,0,1-19,19h0a19,19,0,0,1-19-19h0V98.25Z"/><path id="Rectangle_171" data-name="Rectangle 171" class="cls-3" d="M76.11,98.25h38v54.52a19,19,0,0,1-19,19h0a19,19,0,0,1-19-19h0V98.25Z"/><path id="Rectangle_172" data-name="Rectangle 172" class="cls-3" d="M0,98.25H38v54.52a19,19,0,0,1-19,19h0a19,19,0,0,1-19-19H0V98.25Z"/><path id="Rectangle_173" data-name="Rectangle 173" class="cls-2" d="M114.07,98.25h38v54.52a19,19,0,0,1-19,19h0a19,19,0,0,1-19-19h0V98.25Z"/><path id="Rectangle_174" data-name="Rectangle 174" class="cls-3" d="M152,98.25H190v54.52a19,19,0,0,1-19,19h0a19,19,0,0,1-19-19h0V98.25Z"/></g><rect id="Rectangle_175" data-name="Rectangle 175" class="cls-4" x="43.74" y="181.93" width="51.35" height="60.07"/><rect id="Rectangle_176" data-name="Rectangle 176" class="cls-4" x="107.37" y="181.93" width="41.02" height="41.02"/><rect id="Rectangle_177" data-name="Rectangle 177" class="cls-2" x="107.37" y="211.57" width="41.02" height="11.38"/><circle id="Ellipse_46" data-name="Ellipse 46" class="cls-2" cx="82.1" cy="217.26" r="5.58"/><g id="Group_64" data-name="Group 64"><circle id="Ellipse_45" data-name="Ellipse 45" class="cls-5" cx="96.38" cy="29.36" r="29.36"/><g id="Group_59" data-name="Group 59"><path id="Path_748" data-name="Path 748" class="cls-4" d="M94.64,42.94a13.87,13.87,0,0,1-5-1.27,9.62,9.62,0,0,1-3.46-2.74l3.29-3.59a9.87,9.87,0,0,0,2.59,2,9,9,0,0,0,2.93.94v-7l-.86-.16a8.87,8.87,0,0,1-5.38-2.66A7.36,7.36,0,0,1,87,23.57a7.13,7.13,0,0,1,2-5.22,9.43,9.43,0,0,1,5.64-2.5v-4H99v3.94A11.35,11.35,0,0,1,103,17a9.7,9.7,0,0,1,2.82,2.23l-3.25,3.63a7.43,7.43,0,0,0-4-2.27v6.31l.87.15a9.26,9.26,0,0,1,5.37,2.64,7,7,0,0,1,1.74,4.82,8.26,8.26,0,0,1-.51,2.91,7.38,7.38,0,0,1-1.48,2.42,8.22,8.22,0,0,1-2.38,1.8A11.6,11.6,0,0,1,99,42.75v4.08H94.64ZM92.37,23.39A2.46,2.46,0,0,0,93,25.22a4.53,4.53,0,0,0,2,1V20.51a3.3,3.3,0,0,0-2,.95A2.8,2.8,0,0,0,92.37,23.39Zm8.88,11.53a2.58,2.58,0,0,0-.64-1.93,4.32,4.32,0,0,0-2-1v6.24a3.31,3.31,0,0,0,2-1.16,3.37,3.37,0,0,0,.66-2.17Z"/></g></g></g></g></g></svg>