<svg xmlns="http://www.w3.org/2000/svg" viewBox="0 0 201.26 301.47"><defs><style>.cls-1{fill:#ab7029}.cls-2{fill:#592b2b}.cls-3{fill:#a9ae38}.cls-4{fill:#faa21e}.cls-5{fill:#b32029}.cls-6{fill:#ffe8c9}.cls-7{fill:#411f1f}</style></defs><g id="Layer_2" data-name="Layer 2"><g id="website_artwork" data-name="website artwork"><g id="Group_61" data-name="Group 61"><g id="Group_58" data-name="Group 58"><g id="Group_57" data-name="Group 57"><path id="Rectangle_151" d="M32.06,78H59.25a27.39,27.39,0,0,1,27.41,27.4h-82A27.41,27.41,0,0,1,32.06,78Z" class="cls-1" data-name="Rectangle 151"/><path id="Rectangle_152" d="M68.58,164.54H22.73A18.09,18.09,0,0,1,4.65,146.45h82A18.09,18.09,0,0,1,68.58,164.54Z" class="cls-1" data-name="Rectangle 152"/><path id="Rectangle_153" d="M14.45,112.51H76.86a9.79,9.79,0,0,1,9.8,9.79h0a9.8,9.8,0,0,1-9.8,9.8H14.45a9.8,9.8,0,0,1-9.8-9.8h0A9.79,9.79,0,0,1,14.45,112.51Z" class="cls-2" data-name="Rectangle 153"/><path id="Rectangle_154" d="M3,139.36H88.31a7.08,7.08,0,0,1-7.09,7.09H10.09A7.08,7.08,0,0,1,3,139.36Z" class="cls-3" data-name="Rectangle 154"/><path id="Rectangle_155" d="M4.88,105.35H86.43a7.08,7.08,0,0,1-7.09,7.09H12a7.08,7.08,0,0,1-7.09-7.09Z" class="cls-4" data-name="Rectangle 155"/><rect id="Rectangle_156" width="92.04" height="7.3" y="131.98" class="cls-5" data-name="Rectangle 156"/><path id="Rectangle_157" d="M33.27,111.16h10V136.3a5,5,0,0,1-5,5h0a5,5,0,0,1-5-5h0V111.16Z" class="cls-4" data-name="Rectangle 157"/><path id="Rectangle_158" d="M43.25,105.35h10v7a10,10,0,0,1-10,10h0v-17Z" class="cls-4" data-name="Rectangle 158"/></g><path id="Rectangle_159" d="M108.61,164.54h62.16a19.06,19.06,0,0,1,19.07,19.06h0v50.14H108.61v-69.2Z" class="cls-6" data-name="Rectangle 159"/><circle id="Ellipse_44" cx="149.22" cy="145.27" r="13.61" class="cls-5" data-name="Ellipse 44"/><rect id="Rectangle_160" width="11.75" height="69.21" x="129.74" y="164.54" class="cls-5" data-name="Rectangle 160"/><rect id="Rectangle_161" width="11.75" height="69.21" x="156.96" y="164.54" class="cls-5" data-name="Rectangle 161"/><rect id="Rectangle_162" width="81.23" height="38" x="108.61" y="219.58" class="cls-5" data-name="Rectangle 162"/><rect id="Rectangle_163" width="40.62" height="31.98" x="108.61" y="257.58" class="cls-1" data-name="Rectangle 163"/><rect id="Rectangle_164" width="51.63" height="31.98" x="138.21" y="257.58" class="cls-1" data-name="Rectangle 164"/><path id="Rectangle_165" d="M109.1,289.56h40.12v11.9h-52A11.9,11.9,0,0,1,109.1,289.56Z" class="cls-6" data-name="Rectangle 165"/><path id="Rectangle_166" d="M201.26,301.47h-62V289.56h50.14a11.91,11.91,0,0,1,11.91,11.91Z" class="cls-6" data-name="Rectangle 166"/><rect id="Rectangle_167" width="72.6" height="34.6" x="46.02" y="164.54" class="cls-6" data-name="Rectangle 167"/><path id="Rectangle_168" d="M12.17,164.54H46v33.85h0a33.85,33.85,0,0,1-33.85-33.85Z" class="cls-5" data-name="Rectangle 168"/></g><g id="Group_60" data-name="Group 60"><circle id="Ellipse_45" cx="43.38" cy="29.36" r="29.36" class="cls-4" data-name="Ellipse 45"/><g id="Group_59" data-name="Group 59"><path id="Path_748" d="M41.64,42.94a13.87,13.87,0,0,1-5-1.27,9.62,9.62,0,0,1-3.46-2.74l3.29-3.59a9.87,9.87,0,0,0,2.59,2,9,9,0,0,0,2.93.94v-7l-.86-.16a8.87,8.87,0,0,1-5.38-2.66A7.36,7.36,0,0,1,34,23.57a7.13,7.13,0,0,1,2-5.22,9.43,9.43,0,0,1,5.64-2.5v-4H46v3.94A11.35,11.35,0,0,1,50,17a9.7,9.7,0,0,1,2.82,2.23l-3.25,3.63a7.43,7.43,0,0,0-4-2.27v6.31l.87.15a9.26,9.26,0,0,1,5.37,2.64,7,7,0,0,1,1.74,4.82A8.26,8.26,0,0,1,53,37.45a7.38,7.38,0,0,1-1.48,2.42,8.22,8.22,0,0,1-2.38,1.8A11.6,11.6,0,0,1,46,42.75v4.08H41.64ZM39.37,23.39A2.46,2.46,0,0,0,40,25.22a4.53,4.53,0,0,0,2,1V20.51a3.3,3.3,0,0,0-2,.95A2.8,2.8,0,0,0,39.37,23.39Zm8.88,11.53A2.58,2.58,0,0,0,47.61,33a4.32,4.32,0,0,0-2-1v6.24a3.31,3.31,0,0,0,2-1.16,3.37,3.37,0,0,0,.66-2.17Z" class="cls-7" data-name="Path 748"/></g></g></g></g></g></svg>