<svg xmlns="http://www.w3.org/2000/svg" width="92.725" height="92.725" viewBox="0 0 92.725 92.725"><defs><style>.a{fill:#f41600;}.b{fill:#fdfbfb;}</style></defs><g transform="translate(0)"><path class="a" d="M534.74,681.353H442.2V588.808H534.74Zm-34.814-28.9c-.005-7.508-5.454-12.87-13.083-12.87s-13.069,5.351-13.085,12.867c-.013,7.494,5.448,12.867,13.083,12.867S499.931,659.958,499.926,652.455Zm5.559-13.408a2.671,2.671,0,0,0,.293.25c.283.172.565.347.859.5a14.355,14.355,0,0,0,7.252,1.491c5.763-.25,8.948-3.588,8.953-9.338q.008-7.276,0-14.547v-.945H517.5l-.089,1.588a7.175,7.175,0,0,0-9.89-.175,8.545,8.545,0,0,0-2.88,5.562,9.257,9.257,0,0,0,1.944,7.287,7.413,7.413,0,0,0,4.824,2.746,6.291,6.291,0,0,0,6.019-2.051,15.416,15.416,0,0,1-.11,1.908c-.39,2.006-2.078,3.155-4.455,3.115a9.679,9.679,0,0,1-5.421-1.763Zm-49.91-26.566V633.8h5.311l.089-1.575c3.6,3.723,9.524,2.189,11.745-2.024a10.207,10.207,0,0,0-.011-10.1,7.464,7.464,0,0,0-8.175-3.952,17.293,17.293,0,0,0-3.454,1.518v-9.3h-7.29v4.113Zm18.741,32.376v-5.475h-20.5v5.5h7.306v19.963h5.906v-19.99Zm28.464-19.643a9.438,9.438,0,1,0-9.478,9.123C498.728,634.352,502.755,630.476,502.779,625.213Zm-26.593-12.738v21.3h5.508V608.365h-7.282v4.111Z" transform="translate(-442.198 -588.627)"/><path class="b" d="M534.74,681.466V588.922H442.2a3.2,3.2,0,0,1,.721-.172q5.378-.016,10.754-.008h81.25q0,45.955-.008,91.909A3.845,3.845,0,0,1,534.74,681.466Z" transform="translate(-442.198 -588.741)"/><path class="b" d="M480.09,620.541c.005,7.5-5.448,12.867-13.085,12.864s-13.1-5.373-13.083-12.867c.016-7.516,5.456-12.867,13.085-12.867S480.085,613.033,480.09,620.541Zm-6.189.043c.024-5.3-4.622-8.606-9.5-6.77a7.12,7.12,0,0,0-4.178,8.213,6.459,6.459,0,0,0,4.525,5.357C469.546,628.923,473.88,625.685,473.9,620.584Z" transform="translate(-422.362 -556.713)"/><path class="b" d="M466.3,621.97l1.952-4.374a9.679,9.679,0,0,0,5.421,1.763c2.377.04,4.065-1.109,4.455-3.115a15.406,15.406,0,0,0,.11-1.908,6.291,6.291,0,0,1-6.019,2.051,7.412,7.412,0,0,1-4.824-2.746,9.257,9.257,0,0,1-1.943-7.287,8.544,8.544,0,0,1,2.88-5.561,7.175,7.175,0,0,1,9.89.175l.089-1.588h5.346v.945q0,7.272,0,14.547c-.005,5.75-3.19,9.088-8.953,9.338a14.352,14.352,0,0,1-7.252-1.491c-.293-.151-.576-.326-.859-.5A2.652,2.652,0,0,1,466.3,621.97Zm4.821-14.3a3.536,3.536,0,0,0,3.618,3.752,3.718,3.718,0,1,0-3.618-3.752Z" transform="translate(-403.014 -571.55)"/><path class="b" d="M448.289,600.187H446.5v-4.113h7.29v9.3a17.292,17.292,0,0,1,3.454-1.518,7.463,7.463,0,0,1,8.175,3.952,10.208,10.208,0,0,1,.011,10.1c-2.221,4.213-8.143,5.747-11.745,2.024L453.6,621.5h-5.311Zm12.684,12.679a3.691,3.691,0,0,0-3.726-3.992,3.991,3.991,0,0,0-.016,7.957A3.669,3.669,0,0,0,460.973,612.866Z" transform="translate(-434.913 -576.334)"/><path class="b" d="M467.016,613.07h-7.292v19.99h-5.906V613.1h-7.306v-5.5h20.5Z" transform="translate(-434.899 -556.842)"/><path class="b" d="M476.562,608.147c-.024,5.263-4.051,9.139-9.478,9.123a9.191,9.191,0,1,1,9.478-9.123Zm-9.4,3.909a3.983,3.983,0,1,0-3.806-3.933A3.763,3.763,0,0,0,467.164,612.056Z" transform="translate(-415.98 -571.561)"/><path class="b" d="M455.939,600.184h-1.774v-4.111h7.282v25.409h-5.508Z" transform="translate(-421.951 -576.336)"/><path class="a" d="M470.037,617.044c-.021,5.1-4.355,8.339-9.152,6.8a6.459,6.459,0,0,1-4.525-5.357,7.12,7.12,0,0,1,4.178-8.213C465.415,608.438,470.061,611.747,470.037,617.044Z" transform="translate(-418.498 -553.173)"/><path class="a" d="M467.5,604.473a3.579,3.579,0,1,1,3.618,3.753A3.523,3.523,0,0,1,467.5,604.473Z" transform="translate(-399.391 -568.356)"/><path class="a" d="M456.535,604.821a3.669,3.669,0,0,1-3.742,3.965,3.991,3.991,0,0,1,.016-7.957A3.691,3.691,0,0,1,456.535,604.821Z" transform="translate(-430.475 -568.289)"/><path class="a" d="M463.6,608.784a3.983,3.983,0,1,1,3.734-4.008A3.749,3.749,0,0,1,463.6,608.784Z" transform="translate(-412.421 -568.289)"/></g></svg>