<svg xmlns="http://www.w3.org/2000/svg" width="93.1" height="92.889" viewBox="0 0 93.1 92.889"><defs><style>.a{fill:#d91720;}.b{fill:#fdfdfd;}.c{fill:#fbf1f2;}.d{fill:#fcf8f8;}.e{fill:#fcf5f6;}.f{fill:#fcf6f6;}.g{fill:#fcf7f7;}.h{fill:#fdfcfc;}.i{fill:#fcf7f8;}.j{fill:#da1c25;}.k{fill:#db232c;}.l{fill:#d91821;}</style></defs><g transform="translate(0 0)"><path class="a" d="M618.331,681.355H525.463V588.466h92.868Zm-79.239-88.58c.67,0,1.211.043,1.744-.008a1.707,1.707,0,0,1,2.092,1.607c.221,1.125.606,2.218.939,3.4l1.389-.156V592.84h1.979v17.6l-2.075.091c-.234.757-.073,1.077.713,1.066q3.364-.048,6.733,0c.894.013.961-.377.694-1.079l-1.8-.086v-7.96h5.729v8h-1.849l.054,1.077h22.825v-6.183l-1.2-.218c-.291,1.166-.536,2.253-.837,3.324-.285,1.02-.8,1.914-1.987,1.984-1.3.078-2.606.019-3.911.019v-8.057h4.961v-1.7h-4.948v-7.938c1.036,0,2,.005,2.966,0a1.726,1.726,0,0,1,1.855,1.408c.318,1.147.684,2.28,1.058,3.51l1.268-.17v-5.86H564.329l.089,1.052,1.68.135v17.578h-4.6V592.816l1.849-.091v-1.063h-7.987l.07,1.061,1.782.118v7.893H551.5v-7.914l1.86-.091v-1.1h-24.5v5.976l1.262.159c.342-1.279.568-2.466.991-3.575a2.284,2.284,0,0,1,1.2-1.314,10.129,10.129,0,0,1,2.573-.056v17.67h-2.686l.051,1.093h8.9c.934,0,.678-.541.52-1.166h-2.576Zm6.31,42.637c.393.584.552,1.042.872,1.252a2.8,2.8,0,0,1,1.448,2.652c-.081,4.062-.03,8.124-.03,12.189,0,2.45-.371,2.8-2.837,2.711-.151-.005-.3-.04-.5-.067l-5.739-18.738a10.175,10.175,0,0,1-1.3-.008c-1.08-.148-1.569.21-1.9,1.357-1.467,5.072-3.074,10.105-4.652,15.145a3.071,3.071,0,0,1-1.989,2.377c-.242.07-.339.627-.546,1.053h6.493l-.048-1.061c-.224-.024-.372-.043-.52-.054-1.766-.154-2.07-.447-1.771-2.164.24-1.386.67-2.74,1.015-4.1h4.8l1.771,6.223-2.032.1v1.063h13.729c0-1,0-1-.754-1.117-1.529-.237-1.782-.528-1.785-2.132q-.008-5.338,0-10.679c0-.283.038-.563.073-1.066.326.53.53.848.724,1.171,2.557,4.275,5.147,8.531,7.642,12.843a1.717,1.717,0,0,0,2.242.931v-15.04c0-3.653.3-3.93,3.989-3.683.062.005.121.089.143.1v17.6h-2.089l.078,1.12c2.563,0,5.034.011,7.508-.008a11.676,11.676,0,0,0,2.191-.156c4.143-.824,6.652-3.72,7.365-8.436.942-6.259-3.163-11.3-9.319-11.368-4.256-.048-8.512.008-12.768-.024-.875-.005-1.131.275-.829,1.077,2.321.371,2.334.385,2.334,2.695q0,3.771-.005,7.545c0,.269-.051.541-.1,1.031-2.363-3.96-4.592-7.71-6.851-11.443-.213-.353-.6-.829-.929-.848C548.953,635.364,547.37,635.413,545.4,635.413Zm4.442,21.9c-1.758,0-3.419.046-5.077-.016a1.317,1.317,0,0,0-1.564,1.077c-1.009,3.055-2.143,6.07-3.305,9.311-.224-.5-.38-.8-.487-1.106-.985-2.8-1.943-5.612-2.964-8.4-.124-.344-.549-.813-.851-.824-1.968-.073-3.936-.038-5.952-.038v1.069c2.04.328,2.188.45,2.089,2.436-.226,4.514-.509,9.029-.762,13.543a1.707,1.707,0,0,1-1.335,1.682c-.4.116-.8.2-1.222.307l.07.9h6.9v-.977c-.506-.089-1-.156-1.475-.269a1.457,1.457,0,0,1-1.311-1.618c.167-4.428.307-8.859.455-13.287l.237-.046L538.317,675a10.677,10.677,0,0,0,.835-1.376c.641-1.653,1.238-3.324,1.857-4.988q1.284-3.428,2.579-6.854l.213.051.716,14.318-1.917.1.046,1.015h13.435c.4-1.012-.169-1.182-.867-1.193-1.174-.016-1.631-.662-1.419-1.728.277-1.4.649-2.775,1.042-4.143.054-.191.452-.39.7-.4,1.16-.04,2.323-.04,3.481,0,.256.011.676.177.732.361.6,1.97,1.147,3.963,1.744,6.081h-2.159l.078.969h15.567c.067-.87.067-.87-1.664-1.141V658.445l1.739-.083.172-.372c-.275-.2-.546-.565-.824-.571-2.2-.048-4.412-.011-6.617-.035-.724-.008-.88.283-.624.966l1.663.126v17.688a7.762,7.762,0,0,0-1.572.019c-1.131.248-1.524-.294-1.822-1.3-1.51-5.1-3.09-10.186-4.646-15.277-.738-2.417-.74-2.417-3.249-2.267a.89.89,0,0,0-.24.116c-.1.342-.2.713-.312,1.08-1.6,5.155-3.187,10.321-4.829,15.462-.614,1.922-1.37,2.328-3.5,2.1l-1.039-17.557,2.159-.1Zm26.389-24.965c0,1.12,0,1.131.883,1.133,1.507.011,3.018.03,4.525,0a38.483,38.483,0,0,0,5.085-.24,4.877,4.877,0,0,0,4.369-3.777,4.711,4.711,0,0,0-1.849-5.139,16.493,16.493,0,0,0-2.132-1.163c.11-.057.237-.124.369-.189,2.468-1.214,3.55-2.934,3.249-5.176s-1.769-3.812-4.517-4.057c-3.225-.288-6.487-.137-9.734-.172-.067,0-.135.057-.285.127l.07,1.02H578.2v17.635Zm-17.417-8.865a43.188,43.188,0,0,0,1.039,5.152,7.049,7.049,0,0,0,6.261,5.112c3.408.38,6.242-.652,7.9-3.825a14.052,14.052,0,0,0,.509-12.105c-1.252-3.147-3.809-4.566-7.12-4.609a7,7,0,0,0-7.072,4.471A40.77,40.77,0,0,0,558.816,623.482Zm-16.235-3.516c1.136.038,1.6-.482,1.416-1.623a8.844,8.844,0,0,1-.011-1.389c0-3,0-3-3-3.548-4.958-.9-8.708,1.009-10.56,5.427a13.046,13.046,0,0,0-.633,8.4c1.2,4.8,5.093,7.343,9.947,6.447,1.548-.285,3.074-.668,4.617-1.007v-7.19h-5.8v1.031l1.935.1c0,1.637.038,3.182-.032,4.719a1.144,1.144,0,0,1-.7.789c-2.765.778-4.73-.46-5.454-3.47a20.55,20.55,0,0,1-.318-8.291,12.147,12.147,0,0,1,1.446-4.21,3.207,3.207,0,0,1,5.682.218A32.407,32.407,0,0,1,542.581,619.967Zm63.588,13.486v-6.191L605,627.073c-.293,1.171-.541,2.258-.837,3.333-.248.886-.662,1.793-1.656,1.887-1.438.137-2.9.035-4.283.035v-7.984h4.929v-1.758h-4.91v-7.914c1.031,0,1.992.021,2.953-.005a1.708,1.708,0,0,1,1.884,1.359c.339,1.179.716,2.347,1.093,3.58l1.271-.161v-5.858H592.357v1.039l1.717.1v17.635h-2.487l.135,1.1Zm-60.522-18.827,1.822.1v17.661H545.4l.145,1h13.018l.4-6.339h-1.295a33.931,33.931,0,0,1-1.3,3.709,2.86,2.86,0,0,1-1.548,1.494,13.331,13.331,0,0,1-3.141.067V614.642H553.8l-.051-1.047h-8.105Zm43.832,56.417c-1.012-.463-1.378-.054-1.6.832a12.276,12.276,0,0,1-1.026,2.94,2.774,2.774,0,0,1-1.577,1.319,14.587,14.587,0,0,1-3.09.059V658.525c2.21-.315,2.21-.315,2.008-1.069H576.13c0,.272-.046.676.008.689.638.167,1.292.277,1.946.4v17.575c-1.992.2-1.992.2-1.8,1.023h12.752Zm5.324-4.617c2.409,1.973,2.727,2.1,3.989,1.669l-.7-.939c.584-.1,1.026-.167,1.459-.261.463-.1.918-.229,1.432-.358l-.4-.684a9.468,9.468,0,0,0,1.709-1.106,7.32,7.32,0,0,0,.956-1.47c-.608-.223-1.225-.484-1.863-.659-.218-.059-.493.129-.748.156-.345.04-.695.035-1.042.048a4.62,4.62,0,0,1,.127-1.069c.258-.708.592-1.386.907-2.108-1.556-.342-.765-1.69-1.257-2.436-2.043,1.674-2.043,1.674-2.81.719l-1.252,3.017-3.653-2.95c.291,1.933-.016,3.241-1.114,3.938l1.887,1.989-1.594.369c.8,1.1,1.642,2.076,3.282,1.726a2.708,2.708,0,0,1-1.717,2.092c-.188.086-.3.339-.455.514.266.07.587.269.789.183a2.409,2.409,0,0,0,.878-.716C594.036,667.562,594.405,666.986,594.8,666.426Z" transform="translate(-525.463 -588.466)"/><path class="b" d="M559.962,681.355V588.466a4.15,4.15,0,0,1,.224.929q.016,20.262.008,40.524,0,25.2-.008,50.392A5.2,5.2,0,0,1,559.962,681.355Z" transform="translate(-467.094 -588.466)"/><path class="c" d="M536.96,590.786v17.643h2.576c.159.625.415,1.166-.52,1.166h-8.9l-.051-1.093h2.686v-17.67a10.128,10.128,0,0,0-2.573.056,2.285,2.285,0,0,0-1.2,1.314c-.423,1.109-.649,2.3-.991,3.575l-1.262-.159v-5.976h24.5v1.1l-1.86.091v7.914h5.709v-7.893l-1.782-.118-.07-1.061h7.987v1.063l-1.849.091V608.44h4.6V590.861l-1.68-.135-.089-1.052h13.155v5.86l-1.268.17c-.374-1.23-.74-2.363-1.058-3.51a1.726,1.726,0,0,0-1.855-1.408c-.966.005-1.93,0-2.966,0v7.938h4.948v1.7h-4.961v8.057c1.306,0,2.614.059,3.911-.019,1.185-.07,1.7-.964,1.987-1.984.3-1.071.546-2.159.837-3.324l1.2.218v6.183H553.3l-.054-1.077h1.849v-8h-5.729v7.96l1.8.086c.267.7.2,1.093-.694,1.079q-3.364-.048-6.733,0c-.786.011-.948-.31-.713-1.066l2.075-.091v-17.6h-1.979v4.775l-1.389.156c-.334-1.179-.719-2.272-.939-3.4a1.707,1.707,0,0,0-2.092-1.607C538.172,590.829,537.631,590.786,536.96,590.786Z" transform="translate(-523.331 -586.476)"/><path class="d" d="M543.663,605.933c1.968,0,3.551-.049,5.128.04.328.019.716.5.929.848,2.258,3.734,4.487,7.483,6.851,11.443.051-.49.1-.762.1-1.031q.008-3.775.005-7.545c0-2.31-.013-2.323-2.334-2.695-.3-.8-.046-1.082.829-1.077,4.256.032,8.512-.024,12.768.024,6.157.07,10.262,5.109,9.319,11.368-.713,4.716-3.222,7.613-7.365,8.436a11.671,11.671,0,0,1-2.191.156c-2.474.019-4.945.008-7.508.008l-.078-1.12h2.089v-17.6c-.022-.016-.081-.1-.143-.1-3.693-.248-3.989.03-3.989,3.683v15.04a1.717,1.717,0,0,1-2.242-.931c-2.5-4.312-5.085-8.568-7.642-12.843-.194-.323-.4-.641-.724-1.171-.035.5-.073.783-.073,1.066q0,5.338,0,10.679c0,1.6.256,1.9,1.785,2.132.756.118.756.118.754,1.117H536.2v-1.063l2.032-.1-1.771-6.223h-4.8c-.344,1.362-.775,2.716-1.015,4.1-.3,1.718.005,2.011,1.771,2.164.148.011.3.03.52.054l.048,1.061h-6.493c.207-.425.3-.983.546-1.053a3.071,3.071,0,0,0,1.989-2.377c1.578-5.039,3.185-10.073,4.652-15.145.331-1.147.821-1.5,1.9-1.357a10.176,10.176,0,0,0,1.3.008l5.739,18.738c.2.027.35.062.5.067,2.466.094,2.837-.261,2.837-2.711,0-4.065-.051-8.127.03-12.189a2.8,2.8,0,0,0-1.448-2.652C544.214,606.975,544.056,606.517,543.663,605.933ZM566.4,607.1c0,5.634,0,11.2-.005,16.757,0,.721.358.9,1.02.9a4.532,4.532,0,0,0,4.576-3.238,17.8,17.8,0,0,0,.218-10.054C571.486,608.6,569.551,607.176,566.4,607.1ZM534.168,610.5l-.207.011-1.909,6.7h4.032Z" transform="translate(-523.724 -558.986)"/><path class="e" d="M547.989,614.055l-.075,1.131-2.159.1,1.039,17.557c2.135.226,2.891-.18,3.5-2.1,1.642-5.142,3.225-10.307,4.829-15.462.116-.366.215-.737.312-1.08a.888.888,0,0,1,.24-.116c2.509-.151,2.511-.151,3.249,2.267,1.556,5.09,3.136,10.173,4.646,15.277.3,1,.692,1.545,1.822,1.3a7.762,7.762,0,0,1,1.572-.019V615.22l-1.663-.126c-.256-.684-.1-.974.624-.966,2.2.024,4.412-.013,6.617.035.277.005.549.372.824.571l-.172.372-1.739.083v17.629c1.731.272,1.731.272,1.664,1.141H557.556l-.078-.969h2.159c-.6-2.119-1.141-4.111-1.744-6.081-.057-.183-.477-.35-.732-.361-1.157-.038-2.32-.038-3.481,0-.245.008-.643.207-.7.4-.393,1.367-.765,2.746-1.042,4.143-.213,1.066.245,1.712,1.419,1.728.7.011,1.265.18.867,1.192H540.791L540.745,633l1.917-.1-.716-14.318-.213-.051q-1.288,3.428-2.579,6.854c-.619,1.664-1.217,3.335-1.857,4.988a10.673,10.673,0,0,1-.835,1.375l-5.026-13.949-.237.046c-.148,4.428-.288,8.859-.455,13.287a1.457,1.457,0,0,0,1.311,1.618c.479.113.969.18,1.475.269v.977h-6.9l-.07-.9c.423-.1.826-.191,1.222-.307a1.707,1.707,0,0,0,1.335-1.683c.253-4.514.536-9.029.762-13.543.1-1.987-.049-2.108-2.089-2.436v-1.069c2.016,0,3.984-.035,5.952.038.3.011.727.479.851.824,1.02,2.789,1.979,5.6,2.964,8.4.108.31.264.6.487,1.106,1.163-3.241,2.3-6.256,3.305-9.311a1.317,1.317,0,0,1,1.564-1.077C544.57,614.1,546.231,614.055,547.989,614.055Zm9.473,11.336-1.9-6.641-.272.005-1.882,6.636Z" transform="translate(-523.609 -545.21)"/><path class="f" d="M544.347,616.577h1.965V598.942h-1.933l-.07-1.02c.151-.07.218-.127.285-.127,3.246.035,6.509-.116,9.734.172,2.748.245,4.216,1.825,4.517,4.057s-.781,3.962-3.249,5.176c-.132.064-.259.132-.369.188a16.507,16.507,0,0,1,2.132,1.163,4.711,4.711,0,0,1,1.849,5.139,4.877,4.877,0,0,1-4.369,3.777,38.5,38.5,0,0,1-5.085.24c-1.507.032-3.018.013-4.525,0C544.349,617.708,544.349,617.7,544.347,616.577Zm6.178.008c.708,0,1.354.005,2,0,1.346-.016,2.17-.436,2.328-1.755a24.188,24.188,0,0,0-.056-5.125,1.714,1.714,0,0,0-1.666-1.526c-.867-.051-1.736-.011-2.606-.011Zm-.032-9.72c1.424-.234,3.055.587,3.933-1.09a5.847,5.847,0,0,0-.14-5.871c-.875-1.518-2.42-.91-3.793-.961Z" transform="translate(-493.578 -572.696)"/><path class="d" d="M537.853,607.933a40.77,40.77,0,0,1,1.513-5.8,7,7,0,0,1,7.072-4.471c3.311.043,5.868,1.462,7.12,4.609a14.052,14.052,0,0,1-.509,12.105c-1.653,3.174-4.487,4.2-7.9,3.825a7.049,7.049,0,0,1-6.261-5.112A43.176,43.176,0,0,1,537.853,607.933Zm12.638.081c-.215-2.517-.269-5.007-1.518-7.244a2.937,2.937,0,0,0-5.314,0,6.609,6.609,0,0,0-.643,1.6,23.316,23.316,0,0,0-.3,9.532,12.484,12.484,0,0,0,1.012,3.171,2.757,2.757,0,0,0,2.638,1.755,2.96,2.96,0,0,0,2.668-1.739,4.227,4.227,0,0,0,.522-1.276C549.9,611.884,550.185,609.949,550.491,608.013Z" transform="translate(-504.5 -572.917)"/><path class="g" d="M540.121,604.428a32.4,32.4,0,0,0-1.462-3.6,3.207,3.207,0,0,0-5.682-.218,12.149,12.149,0,0,0-1.446,4.21,20.552,20.552,0,0,0,.318,8.291c.724,3.01,2.689,4.248,5.454,3.47a1.144,1.144,0,0,0,.7-.789c.07-1.537.032-3.082.032-4.719l-1.935-.1v-1.031h5.8v7.19c-1.543.339-3.069.721-4.617,1.007-4.853.9-8.749-1.65-9.947-6.447a13.046,13.046,0,0,1,.633-8.4c1.852-4.417,5.6-6.329,10.56-5.427,3,.544,3,.544,3,3.548a8.837,8.837,0,0,0,.011,1.389C541.723,603.946,541.257,604.466,540.121,604.428Z" transform="translate(-523.003 -572.928)"/><path class="d" d="M564.609,617.664H550.162l-.135-1.1h2.487V598.934l-1.717-.1V597.8h13.085v5.858l-1.271.161c-.377-1.233-.754-2.4-1.093-3.58a1.708,1.708,0,0,0-1.884-1.359c-.961.027-1.922.005-2.953.005V606.8h4.91v1.758h-4.929v7.984c1.384,0,2.845.1,4.283-.035.993-.094,1.408-1,1.655-1.887.3-1.074.544-2.162.837-3.333l1.171.188Z" transform="translate(-483.903 -572.677)"/><path class="f" d="M533.113,598.832V597.8h8.105l.051,1.047h-2.116v17.686a13.328,13.328,0,0,0,3.141-.067,2.86,2.86,0,0,0,1.548-1.494,33.918,33.918,0,0,0,1.3-3.709h1.295l-.4,6.339H533.016l-.145-1h2.065V598.937Z" transform="translate(-512.93 -572.672)"/><path class="h" d="M557.646,627.681l-.442,6.1H544.453c-.194-.826-.194-.826,1.8-1.023V615.185c-.654-.124-1.308-.234-1.946-.4-.054-.014-.008-.417-.008-.689h8.062c.2.754.2.754-2.008,1.069v17.667a14.587,14.587,0,0,0,3.09-.059,2.774,2.774,0,0,0,1.577-1.319,12.28,12.28,0,0,0,1.026-2.94C556.267,627.627,556.633,627.218,557.646,627.681Z" transform="translate(-493.63 -545.104)"/><path class="i" d="M553.9,623.22c-.4.56-.767,1.136-1.2,1.664a2.41,2.41,0,0,1-.878.716c-.2.086-.522-.113-.789-.183.151-.175.266-.428.455-.514a2.708,2.708,0,0,0,1.717-2.092c-1.639.35-2.477-.622-3.282-1.726l1.594-.369-1.887-1.989c1.1-.7,1.405-2.005,1.114-3.938l3.653,2.95,1.252-3.017c.767.956.767.956,2.81-.719.493.746-.3,2.094,1.257,2.436-.315.722-.649,1.4-.907,2.108a4.622,4.622,0,0,0-.127,1.069c.347-.013.7-.008,1.042-.048.256-.027.53-.215.748-.156.638.175,1.255.436,1.863.659a7.32,7.32,0,0,1-.956,1.47,9.472,9.472,0,0,1-1.709,1.106l.4.684c-.514.129-.969.258-1.432.358-.433.094-.875.159-1.459.261l.7.939C556.63,625.323,556.313,625.193,553.9,623.22Z" transform="translate(-484.563 -545.26)"/><path class="a" d="M541.32,606.338c3.149.081,5.085,1.5,5.809,4.363a17.8,17.8,0,0,1-.218,10.054,4.532,4.532,0,0,1-4.576,3.238c-.662,0-1.02-.178-1.02-.9C541.323,617.534,541.32,611.972,541.32,606.338Z" transform="translate(-498.643 -558.228)"/><path class="j" d="M530.673,607.6l1.916,6.711h-4.032l1.909-6.7Z" transform="translate(-520.228 -556.088)"/><path class="k" d="M540.589,622.426h-4.057l1.882-6.636.272-.005Z" transform="translate(-506.736 -542.245)"/><path class="a" d="M546.618,610.072v-8.42c.87,0,1.739-.04,2.606.011a1.714,1.714,0,0,1,1.666,1.526,24.188,24.188,0,0,1,.056,5.125c-.159,1.319-.983,1.739-2.328,1.755C547.972,610.077,547.326,610.072,546.618,610.072Z" transform="translate(-489.671 -566.183)"/><path class="l" d="M546.606,606.188v-7.922c1.373.051,2.918-.557,3.793.961a5.847,5.847,0,0,1,.14,5.871C549.661,606.774,548.03,605.953,546.606,606.188Z" transform="translate(-489.691 -572.019)"/><path class="a" d="M547.653,607.117c-.307,1.935-.592,3.871-.931,5.8a4.227,4.227,0,0,1-.522,1.276,2.96,2.96,0,0,1-2.668,1.739,2.757,2.757,0,0,1-2.638-1.755A12.482,12.482,0,0,1,539.882,611a23.316,23.316,0,0,1,.3-9.532,6.609,6.609,0,0,1,.643-1.6,2.937,2.937,0,0,1,5.314,0C547.384,602.11,547.438,604.6,547.653,607.117Z" transform="translate(-501.662 -572.02)"/></g></svg>