<svg xmlns="http://www.w3.org/2000/svg" width="188.35" height="90.842" viewBox="0 0 188.35 90.842"><defs><style>.a{fill:#020202;}.b{fill:#fd0202;}.c{fill:#003398;}.d{fill:#030303;}.e{fill:#349834;}.f{fill:#a30404;}.g{fill:#cb0202;}.h{fill:#bb0303;}.i{fill:#df0101;}.j{fill:#d70202;}.k{fill:#ae0606;}.l{fill:#be0303;}.m{fill:#d50303;}.n{fill:#ea0101;}.o{fill:#f00202;}.p{fill:#fdfafa;}.q{fill:#fd2020;}.r{fill:#f6f7fa;}.s{fill:#fafcfa;}.t{fill:#910404;}.u{fill:#fc0101;}.v{fill:#810606;}.w{fill:#fd4545;}.x{fill:#fd6d6d;}.y{fill:#fd9696;}.z{fill:#fd6262;}.aa{fill:#fd7e7e;}</style></defs><g transform="translate(0 0)"><path class="a" d="M412.437,643.765q3.493-.028,6.986-.054c1.257-.005,2.514.032,3.771-.013a1.448,1.448,0,0,1,1.319.614q17.48,21.768,34.989,43.512c.113.14.232.272.45.525.019-.358.043-.576.043-.794q0-16.935-.008-33.867a27.765,27.765,0,0,0-.248-3.6c-.35-2.619-1.5-3.693-4.14-3.957-.937-.094-1.876-.142-2.867-.215v-2.164h18.819v2.116c-1.222.135-2.444.223-3.648.414a3.428,3.428,0,0,0-3.106,3.069,31.182,31.182,0,0,0-.366,4.447q-.073,23.928-.083,47.854c0,.31,0,.617,0,.9a1.917,1.917,0,0,1-2.275-.778q-18.288-22.531-36.626-45.019c-.048-.062-.108-.116-.221-.237a5.051,5.051,0,0,0-.065.544q0,18.311.016,36.618a17.163,17.163,0,0,0,.293,2.964c.409,2.315,1.413,3.252,3.739,3.534,1.034.124,2.081.159,3.176.237v2.178H413.46V700.41c.913-.067,1.822-.1,2.724-.207,2.724-.331,3.8-1.408,4.1-4.167a32.078,32.078,0,0,0,.18-3.448q.016-20.234-.014-40.467a2.2,2.2,0,0,0-.476-1.319,37.377,37.377,0,0,0-2.9-3.082,6.058,6.058,0,0,0-4.635-1.755Z" transform="translate(-412.437 -612.958)"/><path class="b" d="M459.784,632.277c.921.213,1.857.366,2.757.649,6.522,2.051,10.49,6.45,11.965,13.112a5.025,5.025,0,0,1,.054.7c-.848-.371-1.688-.77-2.549-1.106a9.071,9.071,0,0,0-4.611-.751,21.822,21.822,0,0,0-1.731-2.5,10.912,10.912,0,0,0-9.642-3.446,4.412,4.412,0,0,0-4.937-1.529,4.583,4.583,0,0,0-3.236,4.331,2.7,2.7,0,0,0,.8,2.334,10.9,10.9,0,0,0-.875,7.685A10.4,10.4,0,0,0,455.7,659.5c.027,1.855.991,3.333,1.944,4.816.342.53.695,1.052,1.042,1.577-7.8.579-15.355-5.16-17.131-12.927a16.889,16.889,0,0,1,13.834-20.51,2.265,2.265,0,0,0,.468-.18Z" transform="translate(-363.915 -632.277)"/><path class="c" d="M454.117,632.757h30.776v31.651H454.117Zm14.1,9.212V657.98h2.861V641.958h8.479v-2.8H459.509v2.816Z" transform="translate(-341.919 -631.465)"/><path class="a" d="M478.693,658.738,467.115,695.27a2.379,2.379,0,0,1-.28.04c-2,.059-2,.059-2.592-1.86q-5.637-18.425-11.285-36.844a31.1,31.1,0,0,0-1.489-3.866c-.729-1.572-1.868-2.657-3.817-2.46V648.1h15.171v2.116c-.773.062-1.572.1-2.366.191-1.157.129-1.717.6-1.68,1.761a16.737,16.737,0,0,0,.546,4.167c2.711,9.053,5.5,18.081,8.269,27.118.051.172.132.337.232.584q5.673-18.041,11.292-35.9a.68.68,0,0,1,.175-.067c2.011-.083,2.011-.083,2.73,1.876q6.142,16.761,12.289,33.522c.075.21.17.412.328.8.738-2.447,1.419-4.7,2.1-6.961,2.154-7.177,4.318-14.348,6.439-21.535a22.05,22.05,0,0,0,.549-3.158,1.51,1.51,0,0,0-1.109-1.766c-.934-.307-1.914-.476-2.94-.721V648.1h11.691v2.167c-2.38-.245-3.411,1.319-4.035,3.2-1.263,3.788-2.439,7.6-3.6,11.424q-4.51,14.92-8.975,29.851c-.054.175-.121.344-.18.506a.646.646,0,0,1-.154.062c-2.067.07-2.067.07-2.775-1.836q-6.3-16.955-12.606-33.9C478.957,659.33,478.849,659.1,478.693,658.738Z" transform="translate(-352.855 -605.611)"/><path class="d" d="M463.107,675.983h-2.633c-.108-.859-.148-1.717-.334-2.541-.336-1.5-.872-2.059-2.38-2.156-2.818-.178-5.645-.229-8.469-.315-.94-.027-1.882,0-2.891,0-.014.309-.038.582-.038.856,0,4.926.048,9.85-.019,14.773-.04,3.015.673,4.746,4.4,5.465a34.068,34.068,0,0,0,9.457.444,4.028,4.028,0,0,0,3.65-2.786c.441-1.222.738-2.5,1.12-3.817h2.606l-.87,9.338H434.234V693.09c.651-.038,1.276-.065,1.9-.11,2.32-.175,3.292-1.1,3.537-3.389a24.426,24.426,0,0,0,.148-2.587q.016-15.36-.005-30.723a20.308,20.308,0,0,0-.272-3.357c-.293-1.728-1.031-2.358-2.778-2.549-.829-.092-1.661-.129-2.528-.194v-2.124h31.3l.95,8.73H463.84c-.283-1.1-.517-2.191-.851-3.255a3.1,3.1,0,0,0-2.878-2.39c-2.635-.18-5.271-.35-7.909-.447-1.93-.07-3.866-.013-5.817-.013v17.99c.062.027.129.081.2.078,3.3-.043,6.6-.021,9.893-.159,3.036-.126,3.831-1.036,3.909-4.083.008-.234,0-.469,0-.74h2.721Z" transform="translate(-375.559 -605.579)"/><path class="a" d="M471.436,684.714h2.455a42.794,42.794,0,0,0,2.118,5.322c1.968,3.535,5.22,5.018,9.169,4.942a9.1,9.1,0,0,0,8.4-5.233,7.219,7.219,0,0,0-.31-7.475,20.657,20.657,0,0,0-5.806-5.661c-3.672-2.641-7.357-5.265-10.972-7.984a11.3,11.3,0,0,1-4.032-4.918,10.957,10.957,0,0,1,5.082-13.731,18.678,18.678,0,0,1,8.375-2.353,34.575,34.575,0,0,1,12.832,1.758.741.741,0,0,1,.622.735c.3,2.835.646,5.664.983,8.552h-2.695c-.229-.668-.449-1.384-.721-2.081-2.027-5.169-6.283-7.136-11.362-6.684a7.81,7.81,0,0,0-7.074,5.034c-1.163,2.913-.4,5.532,1.569,7.874a29.807,29.807,0,0,0,5.868,4.808c3.575,2.549,7.15,5.1,10.652,7.755a9.99,9.99,0,0,1,3.979,5.674c1.346,5.763-.651,11.39-6.87,14.329a23.506,23.506,0,0,1-11.422,1.828,38.373,38.373,0,0,1-9.484-1.642c-.5-.154-.716-.334-.746-.88C471.869,691.387,471.649,688.1,471.436,684.714Z" transform="translate(-312.617 -606.412)"/><path class="e" d="M484.64,664.8c-6.28-10.708-12.509-21.331-18.781-32.028H503.43C497.182,643.417,490.945,654.047,484.64,664.8Zm-.008-13.15c-.21-.339-.377-.6-.536-.869q-3.5-5.815-7-11.624c-.153-.256-.452-.573-.705-.592-.929-.073-1.863-.03-2.964-.03l11.206,18.954,11.2-18.954c-1.009,0-1.844.03-2.676-.011a.956.956,0,0,0-.983.573c-1.855,3.125-3.734,6.237-5.607,9.352C485.941,649.493,485.305,650.534,484.632,651.646Z" transform="translate(-322.053 -631.446)"/><path class="f" d="M459.444,645.215a14.986,14.986,0,0,1-5.031,5.185,6.2,6.2,0,0,1-5.726-3.995l1.631-.789c.167.224.353.436.5.671a3.651,3.651,0,1,0,3.742-5.335l.42-1.077a2.284,2.284,0,0,1,.853-.059,4.734,4.734,0,0,1,3.249,3.93C459.169,644.241,459.32,644.725,459.444,645.215Z" transform="translate(-351.106 -619.575)"/><path class="g" d="M463.6,642.094l-.339,1.472a2.92,2.92,0,0,1-.565-.468,7.78,7.78,0,0,0-6.918-3.494,7.572,7.572,0,0,0-6.994,6.94l-1.257.189a16.951,16.951,0,0,1,.444-2.439,8.81,8.81,0,0,1,9.825-5.911A8.132,8.132,0,0,1,463.6,642.094Z" transform="translate(-353.072 -622.185)"/><path class="h" d="M447.992,645.692a7.572,7.572,0,0,1,6.994-6.94,7.779,7.779,0,0,1,6.918,3.494,2.92,2.92,0,0,0,.565.468l-.835,2.35-.431-.673a12.457,12.457,0,0,0-1.744-2.633,5.821,5.821,0,0,0-6.539-1.071,5.579,5.579,0,0,0-3.513,4.533Z" transform="translate(-352.282 -621.333)"/><path class="i" d="M464.97,640.308l-.038,1.413a2.31,2.31,0,0,1-.46-.258,9.865,9.865,0,0,0-14.948,1.262,10.584,10.584,0,0,0-1.855,5.3l-.786-.056a22.3,22.3,0,0,1,1.066-4.191,10.666,10.666,0,0,1,7.828-5.987,2.169,2.169,0,0,0,.536-.3l1.728-.021a2.219,2.219,0,0,0,.681.307,11.2,11.2,0,0,1,5.561,2.24A3.26,3.26,0,0,0,464.97,640.308Z" transform="translate(-354.158 -623.489)"/><path class="j" d="M447.175,647.317a10.584,10.584,0,0,1,1.855-5.3,9.865,9.865,0,0,1,14.948-1.262,2.306,2.306,0,0,0,.46.258l-.25,1.677a8.122,8.122,0,0,0-5.8-3.712,8.81,8.81,0,0,0-9.825,5.911,16.942,16.942,0,0,0-.444,2.439Z" transform="translate(-353.664 -622.777)"/><path class="k" d="M448.518,644.348a5.579,5.579,0,0,1,3.513-4.533,5.821,5.821,0,0,1,6.539,1.071,12.457,12.457,0,0,1,1.744,2.633l.431.673L459.73,646.1c-.124-.49-.275-.975-.363-1.47a4.734,4.734,0,0,0-3.249-3.93,2.285,2.285,0,0,0-.853.059c-.783-.021-1.567-.019-2.347-.07a.87.87,0,0,0-.918.53A7.042,7.042,0,0,1,448.518,644.348Z" transform="translate(-351.392 -620.461)"/><path class="l" d="M449.961,642.244a6.2,6.2,0,0,0,5.726,3.995l-3.335,1.717a17.943,17.943,0,0,1-1.925-1.295,6.623,6.623,0,0,1-2.493-3.887Z" transform="translate(-352.38 -615.414)"/><path class="m" d="M449.218,642.441a6.623,6.623,0,0,0,2.493,3.887,17.938,17.938,0,0,0,1.925,1.295l-2.84.791a13.637,13.637,0,0,0-.956-1.187,9.99,9.99,0,0,1-2.665-4.665Z" transform="translate(-353.664 -615.081)"/><path class="n" d="M448.261,642.649a9.991,9.991,0,0,0,2.665,4.665,13.616,13.616,0,0,1,.956,1.187l-2.363.283c-.347-.525-.7-1.047-1.042-1.577-.953-1.483-1.917-2.961-1.944-4.816Z" transform="translate(-354.75 -615.167)"/><path class="o" d="M450.88,637a9.07,9.07,0,0,1,4.611.751c.862.336,1.7.735,2.549,1.106l.14,1.257a9.9,9.9,0,0,1-1.244-.579,11.817,11.817,0,0,0-5.72-1.758Z" transform="translate(-347.396 -624.396)"/><path class="n" d="M451.005,637.248a11.817,11.817,0,0,1,5.72,1.758,9.9,9.9,0,0,0,1.244.579l.027,1.1a3.259,3.259,0,0,1-.686-.291,11.2,11.2,0,0,0-5.561-2.24,2.222,2.222,0,0,1-.681-.307Z" transform="translate(-347.184 -623.867)"/><path class="p" d="M463.766,641.518l.062.6-1.728.021a1.346,1.346,0,0,1-1.569-.958,7.708,7.708,0,0,0-7.387-3.753l-.794.119-.651.124-.471.159-.77.342-2.194,1.594-.342.393-.5.676-.283.485-.31.635a7.757,7.757,0,0,0,4.584,10.34l1.257.326.786.057.942.008,1.257-.188,1.416-.471a7.042,7.042,0,0,0,3.481-3.128.87.87,0,0,1,.918-.53c.781.051,1.564.049,2.347.07l-.42,1.077-.872,1.553-2.027,2.2-1.341.91-1.631.789-2.027.53-2.043.121-1.728-.258a10.4,10.4,0,0,1-7.914-7.742,10.9,10.9,0,0,1,.875-7.685l.466-.789.318-.431.587-.692a10.459,10.459,0,0,1,3.467-2.506l.786-.312.953-.261.791-.145a10.912,10.912,0,0,1,9.642,3.446,21.811,21.811,0,0,1,1.731,2.5Z" transform="translate(-359.945 -628.136)"/><path class="q" d="M444.89,640.2l-.466.789a2.7,2.7,0,0,1-.8-2.334,4.583,4.583,0,0,1,3.236-4.331,4.412,4.412,0,0,1,4.937,1.529l-.791.145c-.633-1.074-2.84-1.647-4.24-.988a3.881,3.881,0,0,0-2.442,4.043A3.973,3.973,0,0,0,444.89,640.2Z" transform="translate(-359.681 -629.189)"/><path class="r" d="M464.828,637.949H456.12v-2.816h20.049v2.8H467.69V653.96h-2.861Z" transform="translate(-338.53 -627.445)"/><path class="s" d="M479.876,648.032c.673-1.112,1.308-2.153,1.935-3.2,1.874-3.115,3.753-6.226,5.607-9.352a.956.956,0,0,1,.983-.573c.832.04,1.666.011,2.676.011l-11.2,18.954L468.67,634.917c1.1,0,2.035-.043,2.964.03.253.019.552.336.705.592q3.517,5.8,7,11.624C479.5,647.429,479.666,647.693,479.876,648.032Z" transform="translate(-317.297 -627.832)"/><path class="t" d="M449.293,644.883l1.341-.91c.207.294.433.571.616.878a1.732,1.732,0,0,0,1.639.864,1.7,1.7,0,0,0,1.612-.913c.775-1.462.016-2.719-1.841-3.031l.872-1.553a3.633,3.633,0,1,1-3.742,5.335C449.646,645.319,449.46,645.106,449.293,644.883Z" transform="translate(-350.081 -618.842)"/><path class="n" d="M455.534,637.123a1.346,1.346,0,0,0,1.569.958,2.168,2.168,0,0,1-.536.3,10.667,10.667,0,0,0-7.828,5.987,22.3,22.3,0,0,0-1.066,4.191l-1.257-.326c.054-.49.073-.988.164-1.47a12.2,12.2,0,0,1,4.512-7.379A17.745,17.745,0,0,1,455.534,637.123Z" transform="translate(-354.948 -624.078)"/><path class="u" d="M458.789,639.5a17.744,17.744,0,0,0-4.442,2.264,12.2,12.2,0,0,0-4.512,7.379c-.091.482-.11.98-.164,1.47a7.757,7.757,0,0,1-4.584-10.34,4.739,4.739,0,0,0,5.2-1.44,5.813,5.813,0,0,0,1.117-3.085A7.708,7.708,0,0,1,458.789,639.5Z" transform="translate(-358.203 -626.455)"/><path class="v" d="M451.818,640.8c1.857.312,2.616,1.569,1.841,3.031a1.7,1.7,0,0,1-1.612.912,1.732,1.732,0,0,1-1.639-.864c-.183-.307-.409-.584-.616-.878Z" transform="translate(-349.238 -617.866)"/><path class="w" d="M444.468,639.8a3.974,3.974,0,0,1-.571-1.147,3.881,3.881,0,0,1,2.442-4.043c1.4-.659,3.607-.086,4.24.988l-.953.261a2.481,2.481,0,0,0-2.482-.711c-1.925.514-2.781,2.046-2.358,4.221Z" transform="translate(-359.259 -628.797)"/><path class="q" d="M451.028,635.729a5.812,5.812,0,0,1-1.117,3.085,4.739,4.739,0,0,1-5.2,1.44l.31-.635c2.63.853,5.43-.883,5.212-3.771Z" transform="translate(-357.829 -626.437)"/><path class="x" d="M444.276,638.906c-.423-2.175.433-3.707,2.358-4.221a2.481,2.481,0,0,1,2.482.711l-.786.312a4.342,4.342,0,0,0-.778-.3,2.5,2.5,0,0,0-2.689,2.8Z" transform="translate(-358.749 -628.33)"/><path class="w" d="M450.04,635.773c.218,2.888-2.582,4.625-5.212,3.771l.283-.485c.439.014.88.04,1.319.032a3.014,3.014,0,0,0,2.958-3.2Z" transform="translate(-357.635 -626.362)"/><path class="y" d="M444.435,637.728a2.5,2.5,0,0,1,2.689-2.8,4.339,4.339,0,0,1,.778.3A10.461,10.461,0,0,0,444.435,637.728Z" transform="translate(-358.321 -627.843)"/><path class="z" d="M449.21,635.819a3.014,3.014,0,0,1-2.958,3.2c-.439.008-.88-.019-1.319-.032.167-.226.334-.449.5-.676a3.054,3.054,0,0,0,1.071.159,2.684,2.684,0,0,0,2.234-2.487Z" transform="translate(-357.457 -626.284)"/><path class="aa" d="M448.425,635.878a2.684,2.684,0,0,1-2.234,2.487,3.053,3.053,0,0,1-1.071-.159l.342-.393c1.351.008,2.065-.509,2.194-1.594Z" transform="translate(-357.143 -626.184)"/><path class="y" d="M447.44,636.005c-.129,1.085-.843,1.6-2.194,1.594Z" transform="translate(-356.928 -625.97)"/></g></svg>