<svg xmlns="http://www.w3.org/2000/svg" width="92.364" height="92.365" viewBox="0 0 92.364 92.365"><defs><style>.a{fill:#429ecf;}.b{fill:#edf4f7;}.c{fill:#016da3;}</style></defs><g transform="translate(0 0)"><path class="a" d="M617.228,632.149v92.058H525.17V632.149Zm-13.233,63.787-.67,1.65h4.288c2.253,0,2.439-.226,2.172-2.835a7.014,7.014,0,0,1-1.225,1.586,2.774,2.774,0,0,1-1.763.5c-.261-.027-.552-.851-.614-1.341a15.663,15.663,0,0,1,.014-2.277c1.758-1.7,3.489-3.44,5.289-5.1a3.485,3.485,0,0,0,1.19-2.818q-.049-23.311.011-46.621c.005-1.561-.458-1.989-2-1.984q-23.311.077-46.621.011a3.653,3.653,0,0,0-2.829,1.171q-15.089,15.166-30.254,30.254a3.812,3.812,0,0,0-1.236,2.956q.053,23.234.024,46.465c0,2.019.005,2.027,2.032,2.027,14.62,0,29.239-.054,43.859.048,2.848.019,5.368-.172,7.088-2.77.1-.156.328-.232.5-.347h4.364l.081-.442c-1.847-.6-1.015-2.059-1.139-3.211.49-.436.985-.869,1.473-1.308q1.849-1.663,3.7-3.332c.046,2.7.721,5.448-.544,8.076h6.348l.382-2.264a8.055,8.055,0,0,0-1.591,1.289c-.966.789-2.323.5-2.4-.52-.1-1.246-.024-2.506-.024-3.763l.466-.323,2.046,1.6v-3.481l-2.444,1.747v-4.622c1.776-.71,2.533.6,3.647,1.516l-.328-2.267-2.4-.218c1.628-1.725,3.273-3.44,4.883-5.185.641-.7,1.2-1.464,1.8-2.2l.9-.318Z" transform="translate(-524.863 -631.842)"/><path class="b" d="M617.42,632.342H525.363V724.4a6.6,6.6,0,0,1-.294-1.378q-.02-41.239-.013-82.477v-8.509h2.377q44.3,0,88.609.014A6.6,6.6,0,0,1,617.42,632.342Z" transform="translate(-525.056 -632.035)"/><path class="c" d="M580.373,713.652c-.17.116-.393.191-.5.347-1.72,2.6-4.24,2.789-7.088,2.77-14.62-.1-29.239-.046-43.859-.048-2.027,0-2.032-.008-2.032-2.027q0-23.23-.024-46.465a3.812,3.812,0,0,1,1.236-2.956q15.166-15.09,30.254-30.254a3.653,3.653,0,0,1,2.829-1.171q23.311.044,46.621-.011c1.54-.005,2,.423,2,1.984q-.077,23.311-.011,46.621a3.484,3.484,0,0,1-1.19,2.818c-1.8,1.658-3.532,3.394-5.289,5.1-.019-1.526-.121-3.055-.016-4.573a9.142,9.142,0,0,1,.756-2.229h-3.405c1.206,3.125.541,6.35.463,9.524-.509.45-1.02.9-1.529,1.346-.5-.584-1.217-1.093-1.445-1.769-.775-2.318-1.376-4.695-2.051-7.045-.232-.8-.49-1.6-.738-2.4l-.45-.1a9.642,9.642,0,0,0-1.079,1.831c-.765,2.374-1.389,4.8-2.164,7.169a18.029,18.029,0,0,1-1.268,2.527h2.792c-1.012-.9-1.249-3.093-.24-3.774a3.058,3.058,0,0,1,2.533-.056c.826.366.705,3.042-.083,3.933h3.3c-.6.735-1.163,1.5-1.8,2.2-1.61,1.744-3.255,3.459-4.883,5.184l-3.489.194.331,3.036q-1.849,1.667-3.7,3.332c-.487.439-.983.872-1.473,1.306v-6.953c1.887-.581,2.016,1.015,2.743,2.477l.393-3.362h-8.108l-.25,2.832.339.2c.616-1.112,1.047-2.5,2.983-2.124C580.932,706.553,583.019,710.349,580.373,713.652Zm-42.785-23.673-.293-.046c-1.039-3.354-2.065-6.711-3.133-10.054-.14-.431-.477-1.088-.781-1.12a32.152,32.152,0,0,0-3.567-.054l-.31.35c2.291.512,2.019,2.162,1.976,3.669-.075,2.6-.2,5.2-.318,7.8-.067,1.548-.011,3.15-2.07,4.116h4.4c-.425-.762-1.206-1.54-1.252-2.358-.159-2.783-.062-5.58-.062-8.372l.476-.059,3.693,11.117.5-.005,3.58-11.15.533.062q0,3.267,0,6.536c0,1.58.63,3.384-1.491,4.256h5.265a12.505,12.505,0,0,1-1.155-3.2c-.224-2.9-.207-5.817-.245-8.727-.019-1.5-.433-3.193,1.556-3.981h-3.847Zm2.754,12.116.449-.186a17.254,17.254,0,0,1-.172-2.256c.065-1.435-.8-1.943-1.989-2.237a6.479,6.479,0,0,0-7.747,3.892,11.61,11.61,0,0,0-.4,7.5c1.333,5.529,6.873,6,10.585,3.847a14.038,14.038,0,0,1-.344-3.152,9.435,9.435,0,0,1,.988-2.469h-5.031c1.669.393,1.763,1.591,1.709,2.888-.019.409.014.818-.011,1.225-.091,1.575-1.209,2.369-2.6,1.65a4.027,4.027,0,0,1-1.8-1.927,15.679,15.679,0,0,1-.253-10.5,2.954,2.954,0,0,1,2.541-2.353c1.454-.143,2.232.81,2.883,1.9C539.577,700.623,539.946,701.369,540.341,702.1Zm36.319-11.8c.339,0,.425-.019.436,0,.479.953.948,1.914,1.429,2.867.824,1.634,1.392,1.879,3.125,1.486l-2.765-5.2a14.7,14.7,0,0,0,1.236-1.176c1.252-1.551.708-4.159-1.112-4.555a36.345,36.345,0,0,0-5.446-.358c2.008,1.9,1.157,3.946,1.176,5.747.019,1.839.773,3.876-.853,5.5h4.062C576.084,693.447,576.873,691.769,576.66,690.3ZM549.9,683.285a3.6,3.6,0,0,0-3.594,2.25,8.266,8.266,0,0,0,.062,7.244,3.841,3.841,0,0,0,6.953-.048,8.125,8.125,0,0,0,.022-7.228A3.506,3.506,0,0,0,549.9,683.285Zm5.053,11.33h2.789c-1.236-1.023-1.777-5.621-.983-8.1l5.133,8.436.563-.151c0-2.894-.046-5.79.03-8.684a13,13,0,0,1,.595-2.589h-2.633c2.1,2.1.81,4.511.977,6.765-1.2-1.723-2.232-3.483-3.265-5.239-1.1-1.868-1.459-2-3.464-1.421.347.624,1,1.273,1.034,1.952.118,2.3.075,4.6-.035,6.9A7.985,7.985,0,0,1,554.95,694.615Zm27.772.008h6.749l.369-2.224a8.485,8.485,0,0,0-1.585,1.314c-1,.81-2.318.549-2.406-.484-.11-1.284-.027-2.587-.027-3.882l.479-.328,1.97,1.639v-3.693a1.828,1.828,0,0,1-2.414,1.473v-4.178c1.8-.662,2.584.678,3.709,1.591l-.355-2.318h-6.434C584.26,684.892,584.222,693.4,582.723,694.623ZM563.478,708.3c1.588-.716,1.979.463,2.539,1.591v-4.156c-.3,1.534-1.225,1.682-2.452,1.419v-4.068c1.836-.74,2.686.579,3.758,1.542l-.358-2.285H560.45c1.537,1.276,1.6,9.691,0,11.207h5.026c2,0,2.17-.229,1.822-2.568-.38.474-.635,1.053-1.071,1.279a3.994,3.994,0,0,1-2.1.493c-.264-.024-.562-.966-.622-1.516A28.036,28.036,0,0,1,563.478,708.3Zm-3.96,2.776-.345-.183c-.953,2.1-2.716,2.073-4.748,1.9l5.182-10.582h-6.722l-.331,2.832.377.337c.582-2.345,2.108-2.689,4.162-2.3l-5.082,10.35h7.125Zm4.727-24.844.347.229c.568-1.217,1.055-2.549,2.848-2.156,0,2.689.067,5.292-.04,7.887a8.987,8.987,0,0,1-.786,2.412h3.863c-.35-.449-.98-.883-.993-1.332-.089-2.993-.046-5.989-.046-8.91,2.013-.665,2.043,1.05,2.786,2.32l.369-3.306h-8.105Zm-19.39,22.814c1.017.342,2.35.4,2.649.98.5.964,1.392,2.364-.4,3.43h3.927c-.4-.854-.845-1.653-1.141-2.5-.388-1.1-.646-2.25-.972-3.375q-.816-2.815-1.648-5.626l-.455-.091a9.237,9.237,0,0,0-1.079,1.825c-.732,2.277-1.314,4.6-2.054,6.875a24.476,24.476,0,0,1-1.349,2.875h2.781C543.332,712.05,544.635,710.742,544.856,709.043Zm30.071,4.409c-.336-.643-.9-1.238-.926-1.852-.1-2.84-.043-5.688-.043-8.512,1.941-.692,2.121.958,2.821,2.393l.439-3.33h-8.162l-.215,3.252c1.039-1.211,1.327-2.864,3.155-2.328,0,2.724.057,5.432-.035,8.135a8.283,8.283,0,0,1-.754,2.242Z" transform="translate(-521.985 -628.986)"/><path class="b" d="M550.236,662.436,549.9,659.4l3.489-.194c.754.07,1.507.137,2.4.218l.328,2.267c-1.114-.913-1.871-2.226-3.647-1.516V664.8l2.444-1.747v3.481l-2.046-1.6-.466.323c0,1.257-.073,2.517.024,3.763.075,1.015,1.432,1.308,2.4.52a8.055,8.055,0,0,1,1.591-1.289l-.382,2.264h-6.348C550.957,667.885,550.282,665.134,550.236,662.436Z" transform="translate(-483.374 -586.065)"/><path class="b" d="M547.951,670.712c2.646-3.3.56-7.1,1.405-10.587-1.935-.371-2.366,1.012-2.983,2.124l-.339-.2.25-2.832h8.108L554,662.579c-.727-1.462-.856-3.058-2.743-2.477v6.953c.124,1.155-.708,2.617,1.139,3.214l-.081.442Z" transform="translate(-489.564 -586.046)"/><path class="b" d="M558.767,663.772h-3.3c.789-.891.91-3.567.083-3.933a3.058,3.058,0,0,0-2.533.056c-1.009.681-.773,2.877.24,3.774h-2.791a18.047,18.047,0,0,0,1.268-2.528c.775-2.372,1.4-4.794,2.164-7.169a9.64,9.64,0,0,1,1.079-1.831l.45.1c.248.8.506,1.6.738,2.4.676,2.35,1.276,4.727,2.051,7.045.229.676.95,1.185,1.445,1.769Zm-4.321-8.515-.256-.011-.945,3.472h2.129Z" transform="translate(-482.062 -598.014)"/><path class="b" d="M554.873,661.831c.078-3.174.743-6.4-.463-9.524h3.405a9.14,9.14,0,0,0-.756,2.229c-.1,1.518,0,3.047.016,4.573a15.663,15.663,0,0,0-.013,2.277c.062.49.353,1.314.614,1.34a2.774,2.774,0,0,0,1.763-.5,7.015,7.015,0,0,0,1.225-1.585c.266,2.608.081,2.835-2.172,2.835H554.2Z" transform="translate(-475.742 -597.737)"/><path class="b" d="M536.192,661.793l3.462-11.22H543.5c-1.989.789-1.575,2.482-1.556,3.981.038,2.91.021,5.828.245,8.727a12.51,12.51,0,0,0,1.155,3.2h-5.265c2.121-.872,1.494-2.676,1.491-4.256q0-3.267,0-6.536l-.533-.062-3.58,11.15-.5.005-3.693-11.117-.476.059c0,2.791-.1,5.588.062,8.372.046.818.826,1.6,1.252,2.358h-4.4c2.059-.966,2-2.568,2.07-4.116.113-2.6.242-5.2.318-7.8.043-1.507.315-3.157-1.976-3.669l.31-.35a32.152,32.152,0,0,1,3.567.054c.3.032.641.689.781,1.12,1.069,3.343,2.094,6.7,3.133,10.054Z" transform="translate(-520.59 -600.8)"/><path class="b" d="M538.343,662.27c-.4-.727-.765-1.472-1.192-2.183-.651-1.085-1.43-2.038-2.883-1.9a2.954,2.954,0,0,0-2.541,2.353,15.678,15.678,0,0,0,.253,10.5,4.027,4.027,0,0,0,1.8,1.927c1.392.719,2.509-.075,2.6-1.65.024-.407-.008-.816.011-1.225.054-1.3-.04-2.5-1.709-2.888h5.031a9.436,9.436,0,0,0-.988,2.469,14.042,14.042,0,0,0,.344,3.152c-3.712,2.153-9.252,1.682-10.585-3.847a11.61,11.61,0,0,1,.4-7.5,6.479,6.479,0,0,1,7.747-3.892c1.19.293,2.054.8,1.989,2.237a17.229,17.229,0,0,0,.172,2.256Z" transform="translate(-519.987 -589.16)"/><path class="b" d="M547.313,659.168c.213,1.472-.576,3.15,1.29,4.315H544.54c1.626-1.623.872-3.661.853-5.5-.019-1.8.832-3.852-1.176-5.747a36.369,36.369,0,0,1,5.446.358c1.82.4,2.363,3,1.112,4.555a14.677,14.677,0,0,1-1.236,1.176l2.765,5.2c-1.734.393-2.3.148-3.125-1.486-.482-.953-.95-1.914-1.429-2.867C547.738,659.149,547.652,659.168,547.313,659.168Zm.124-6.283v5.053c1.666-.2,2.094-.853,2-2.923C549.386,653.814,549.143,652.785,547.437,652.885Z" transform="translate(-492.638 -597.857)"/><path class="b" d="M538.19,652.207a3.506,3.506,0,0,1,3.443,2.218,8.125,8.125,0,0,1-.022,7.228,3.841,3.841,0,0,1-6.953.048,8.266,8.266,0,0,1-.062-7.244A3.6,3.6,0,0,1,538.19,652.207Zm-2.382,5.535c.3,1.281.595,2.923,1.122,4.482a2.071,2.071,0,0,0,1.518.964,1.6,1.6,0,0,0,1.219-.9,11.03,11.03,0,0,0-.4-8.579,1.772,1.772,0,0,0-1.445-.826,2.066,2.066,0,0,0-1.365,1.168A25.047,25.047,0,0,0,535.807,657.742Z" transform="translate(-510.278 -597.909)"/><path class="b" d="M537.465,663.509a7.983,7.983,0,0,0,.74-2.132c.11-2.3.153-4.6.035-6.9-.035-.678-.687-1.327-1.034-1.952,2.005-.579,2.366-.447,3.464,1.421,1.034,1.755,2.065,3.516,3.265,5.238-.167-2.253,1.12-4.668-.977-6.765h2.633a13,13,0,0,0-.595,2.589c-.075,2.894-.03,5.79-.03,8.684l-.563.151-5.133-8.436c-.794,2.479-.253,7.077.982,8.1Z" transform="translate(-504.5 -597.88)"/><path class="b" d="M547.619,663.389c1.5-1.222,1.537-9.731.054-11.091h6.434l.355,2.318c-1.125-.913-1.911-2.253-3.709-1.591V657.2a1.828,1.828,0,0,0,2.414-1.473v3.693l-1.97-1.639-.479.328c0,1.295-.083,2.6.027,3.882.089,1.034,1.4,1.295,2.407.484a8.483,8.483,0,0,1,1.586-1.314l-.369,2.224Z" transform="translate(-486.882 -597.752)"/><path class="b" d="M542.375,665.242a28.036,28.036,0,0,0,.027,2.937c.059.549.358,1.491.622,1.516a3.993,3.993,0,0,0,2.1-.493c.436-.226.692-.8,1.071-1.279.347,2.339.18,2.565-1.822,2.568h-5.026c1.6-1.516,1.54-9.93,0-11.206h6.515l.358,2.285c-1.071-.964-1.922-2.283-3.758-1.542V664.1c1.227.264,2.156.116,2.452-1.419v4.156C544.354,665.705,543.963,664.526,542.375,665.242Z" transform="translate(-500.882 -585.931)"/><path class="b" d="M543.718,668.1l-.382,2.355H536.21l5.082-10.35c-2.054-.388-3.58-.043-4.162,2.3l-.377-.337.331-2.832h6.722l-5.182,10.582c2.032.17,3.8.194,4.748-1.9Z" transform="translate(-506.185 -586.012)"/><path class="b" d="M540.755,655.1l.242-2.856H549.1l-.369,3.306c-.743-1.271-.773-2.985-2.786-2.32,0,2.921-.043,5.917.046,8.91.014.449.643.883.993,1.332h-3.863a8.985,8.985,0,0,0,.786-2.412c.108-2.595.04-5.2.04-7.887-1.793-.393-2.28.939-2.848,2.156Z" transform="translate(-498.495 -597.852)"/><path class="b" d="M535.137,666.292c-.221,1.7-1.524,3.007.258,4.388h-2.781a24.465,24.465,0,0,0,1.349-2.875c.74-2.272,1.322-4.6,2.054-6.875a9.233,9.233,0,0,1,1.079-1.825l.455.091q.828,2.815,1.648,5.626c.326,1.125.584,2.272.972,3.375.3.851.746,1.65,1.141,2.5h-3.927c1.793-1.066.9-2.466.4-3.43C537.487,666.688,536.155,666.634,535.137,666.292Zm.2-.53h2.154l-1.074-3.965Z" transform="translate(-512.267 -586.235)"/><path class="b" d="M548.549,670.516h-3.72a8.282,8.282,0,0,0,.754-2.242c.092-2.7.035-5.411.035-8.135-1.828-.536-2.116,1.117-3.155,2.328l.215-3.252h8.162l-.439,3.33c-.7-1.435-.88-3.085-2.821-2.393,0,2.824-.054,5.672.043,8.512C547.644,669.277,548.212,669.872,548.549,670.516Z" transform="translate(-495.607 -586.049)"/><path class="c" d="M552.7,653.307l.929,3.462H551.5l.945-3.472Z" transform="translate(-480.316 -596.064)"/><path class="c" d="M545.413,652.481c1.707-.1,1.949.929,2,2.129.091,2.07-.337,2.727-2,2.923Z" transform="translate(-490.614 -597.454)"/><path class="c" d="M534.54,657.321a25.05,25.05,0,0,1,.646-3.691,2.066,2.066,0,0,1,1.365-1.168,1.772,1.772,0,0,1,1.445.827,11.03,11.03,0,0,1,.4,8.579,1.6,1.6,0,0,1-1.219.9,2.071,2.071,0,0,1-1.518-.964C535.135,660.244,534.844,658.6,534.54,657.321Z" transform="translate(-509.01 -597.488)"/><path class="c" d="M533.627,664.07l1.08-3.965,1.074,3.965Z" transform="translate(-510.555 -584.543)"/></g></svg>