<svg xmlns="http://www.w3.org/2000/svg" width="165.235" height="92.889" viewBox="0 0 165.235 92.889"><defs><style>.a{fill:#de1a24;}.b{fill:#040404;}</style></defs><g transform="translate(0 0)"><path class="a" d="M373.238,710.857V708.6c0-6.151.1-12.3-.059-18.445-.048-1.817.845-2.657,2.065-3.529,3.739-2.67,7.486-5.335,11.2-8.049,1.071-.783.929-1.8-.261-2.657q-8.419-6.057-16.843-12.1c-2.234-1.6-4.479-3.2-6.714-4.8a39.929,39.929,0,0,0-3.691-2.633c-1.419-.789-1.7-1.863-1.682-3.37.078-6.469.035-12.94.038-19.409v-1.887c1.567,1.08,2.875,1.943,4.146,2.861q17,12.259,34,24.531c2.8,2.022,5.629,4.006,8.4,6.068a2.076,2.076,0,0,1,.77,1.419q.073,10.256,0,20.51a2.078,2.078,0,0,1-.8,1.421q-14.1,10.276-28.254,20.491C374.862,709.517,374.229,710.066,373.238,710.857Z" transform="translate(-239.394 -631.726)"/><path class="b" d="M341.584,655.845c-2.07,0-3.949.038-5.825-.035a1.636,1.636,0,0,1-1.1-.711,7.341,7.341,0,0,0-12.741,0c-3.171,4.956-1.524,12.068,3.349,14.461a7.007,7.007,0,0,0,9.478-4.035h-6.533v-5.963h13.384v16.124h-5.868v-2.059c-.729.5-1.254.915-1.822,1.252-5.02,2.993-12.7,1.424-16.835-3.427-5.408-6.345-4.614-17.613,1.629-23.1,6.189-5.443,19.029-4.88,22.386,5.6C341.261,654.507,341.385,655.086,341.584,655.845Z" transform="translate(-313.467 -609.353)"/><path class="b" d="M345.728,673.888l-.113,1.3h-6.566V645.257h6.862v9.069a2.344,2.344,0,0,0,.595-.124c6.143-3.648,12.55-1.082,14.35,5.841a14.8,14.8,0,0,1-.875,10.582,9.383,9.383,0,0,1-13.594,3.69C346.2,674.2,346.024,674.082,345.728,673.888Zm8.8-9.772a28.392,28.392,0,0,0-1.026-3.742,3.49,3.49,0,0,0-3.327-2.221,3.557,3.557,0,0,0-3.537,2.116,8.8,8.8,0,0,0,.046,7.92,3.508,3.508,0,0,0,3.3,2.059,3.374,3.374,0,0,0,3.408-2.078A34.535,34.535,0,0,0,354.527,664.116Z" transform="translate(-270.185 -608.833)"/><path class="b" d="M369.24,670.689h-6.522l-.162-1.141a3.578,3.578,0,0,0-.536.194,11.429,11.429,0,0,1-9.274,1.01c-2.891-.891-4.385-3.085-4.42-6.221-.035-3.185,1.346-5.413,4.28-6.28a66.255,66.255,0,0,1,6.584-1.268,5.431,5.431,0,0,0,1.728-.372c.511-.3,1.227-.961,1.168-1.359a2.67,2.67,0,0,0-1.179-1.86c-2.45-1.055-4.4,0-5.08,2.622h-6.88a6.623,6.623,0,0,1,3.666-6.428,15.544,15.544,0,0,1,13.285-.339,5.12,5.12,0,0,1,3.324,4.956C369.28,659.65,369.24,665.1,369.24,670.689Zm-7.166-9.615c-.886.167-1.771.323-2.651.5a19.836,19.836,0,0,0-2.781.63,1.954,1.954,0,0,0-1.292,2.3,1.862,1.862,0,0,0,1.782,1.594C360.653,666.708,362.475,664.894,362.074,661.074Z" transform="translate(-254.49 -604.323)"/><path class="b" d="M340.79,647.966c6.983.038,11.527,4.689,11.476,11.753-.051,7.026-4.654,11.524-11.734,11.473-6.786-.049-11.349-4.775-11.26-11.661C329.361,652.481,333.9,647.929,340.79,647.966Zm4.509,11.78a27.681,27.681,0,0,0-.576-3.246,4.139,4.139,0,0,0-7.841-.215,9.6,9.6,0,0,0,.011,6.716,3.758,3.758,0,0,0,3.89,2.662,3.8,3.8,0,0,0,3.911-2.829A26.087,26.087,0,0,0,345.3,659.746Z" transform="translate(-286.729 -604.25)"/><path class="b" d="M353.514,678.729h-5.031l-5.365-20.144H348.3l2.778,11.788c.635-2.415,1.182-4.469,1.715-6.531.39-1.5.713-3.026,1.174-4.506a1.391,1.391,0,0,1,1-.775c1.228-.094,2.469-.035,3.882-.035l2.886,11.494.226.062,2.824-11.508h5.082c-1.432,5.289-2.837,10.485-4.245,15.683-.024.089-.062.172-.089.261-.42,1.389-.433,3.421-1.359,4.005-1.112.7-3,.164-4.714.164l-2.985-11.826Z" transform="translate(-263.3 -586.413)"/><path class="b" d="M327.112,658.528c1.419,0,2.832-.059,4.234.035a1.751,1.751,0,0,1,1.1.791c2.043,3.2,4.041,6.439,6.054,9.664.229.366.466.727.9,1.4v-11.8h4.9v20.144c-1.467,0-2.921.059-4.366-.04a1.769,1.769,0,0,1-1.066-.837c-2.043-3.206-4.043-6.439-6.057-9.664-.21-.331-.42-.662-.845-1.335v11.793h-4.851Z" transform="translate(-290.381 -586.412)"/><path class="b" d="M351.48,674.251v4.425H335.953V658.528h15.36v4.337H341.092v3.362h9.357v4.089H341.1v3.936Z" transform="translate(-275.423 -586.38)"/><path class="b" d="M370.844,665.426H366.1c-.853-2.522-2.447-3.518-4.635-2.716a2.422,2.422,0,0,0-1.389,1.529c-.07.407.695,1.244,1.241,1.43,1.812.614,3.71.964,5.545,1.518,4.587,1.384,6.242,6.067,3.33,9.591a7.292,7.292,0,0,1-2.87,2,11.559,11.559,0,0,1-8.7-.049,6.51,6.51,0,0,1-4.31-6.848h4.757c.84,3.08,2.5,4.054,5.629,3.306.958-.231,1.769-.624,1.847-1.712s-.783-1.524-1.6-1.8c-1.381-.468-2.813-.783-4.213-1.2a17.423,17.423,0,0,1-2.576-.913,5.546,5.546,0,0,1-.878-9.581c2.921-2.2,8.337-2.2,11.258.024A5.857,5.857,0,0,1,370.844,665.426Z" transform="translate(-244.371 -586.717)"/><path class="b" d="M332.408,675.2h-6.87V645.25h6.87Z" transform="translate(-293.044 -608.845)"/><path class="b" d="M357.555,645.244h6.837v29.934h-6.837Z" transform="translate(-238.875 -608.855)"/></g></svg>