<svg xmlns="http://www.w3.org/2000/svg" width="217.243" height="94.252" viewBox="0 0 217.243 94.252"><defs><style>.a{fill:#ec2e24;}.b{fill:#fdfbfb;}</style></defs><g transform="translate(0)"><path class="a" d="M530.239,683.082H313.382V588.831H530.239Zm-70.961-61.3-.183.005c-.062-.159-.127-.318-.183-.479q-4.4-12.6-8.789-25.2c-.162-.468-.347-.668-.886-.659-2.463.035-4.926.013-7.387.019-.191,0-.38.032-.549.049v37.21h6.162V605.992a3,3,0,0,1,.439.888q4.45,12.663,8.886,25.328c.143.4.3.6.781.6,2.436-.03,4.875-.014,7.311-.016a3.76,3.76,0,0,0,.506-.067V595.5h-6.108ZM420.1,595.238A18.888,18.888,0,1,0,439,614.105,18.922,18.922,0,0,0,420.1,595.238Zm-82.819,18.835a18.889,18.889,0,1,0,18.755-18.835A18.894,18.894,0,0,0,337.283,614.073Zm188.056.027a18.9,18.9,0,1,0-18.865,18.905A18.939,18.939,0,0,0,525.339,614.1ZM377.347,595.6v37.151h6.4V617.209c1.634,0,3.187.019,4.738-.014a.922.922,0,0,1,.977.592c2.479,4.816,4.993,9.613,7.486,14.423a.888.888,0,0,0,.9.595c2.035-.03,4.07-.011,6.108-.016a5.916,5.916,0,0,0,.622-.078l-9.616-17.271c.121-.1.178-.148.24-.189a10.613,10.613,0,0,0,4.665-11.427,10.206,10.206,0,0,0-9.2-8.167C386.271,595.372,381.837,595.6,377.347,595.6Zm12.813,55.316v-9.128h15.993V635.85h-22.4v37.223h22.407v-6H390.179V656.9h14.832v-5.992Zm-30.413-15.058v37.2h6.4V656.906h13.661v-5.992H366.186v-9.142h14.022v-5.919Zm123.165-3.1V601.488H490.6V595.55H468.734v5.971h7.788v31.229ZM326.233,601.5v31.245h6.388V601.472h7.71v-5.938H318.443V601.5Zm-.016,34.338v37.226h19.99v-5.987H332.6V635.84Zm29.49,37.245V635.848h-6.3v37.237Z" transform="translate(-313.382 -588.831)"/><path class="b" d="M393.941,683.082V588.831c.1.051.269.083.288.154a2.13,2.13,0,0,1,.013.525q0,46.447-.022,92.895C394.221,682.6,394.6,683.1,393.941,683.082Z" transform="translate(-177.084 -588.831)"/><path class="b" d="M378.878,617.625V591.344h6.108v37.218a3.76,3.76,0,0,1-.506.067c-2.436,0-4.875-.013-7.311.016-.479.005-.638-.2-.781-.6q-4.429-12.671-8.886-25.328a3,3,0,0,0-.439-.888v26.736H360.9v-37.21c.17-.016.358-.049.549-.049,2.46-.005,4.923.016,7.387-.019.538-.008.724.191.886.659q4.377,12.606,8.789,25.2c.057.162.121.32.183.479Z" transform="translate(-232.983 -584.671)"/><path class="b" d="M364.923,591.211A18.888,18.888,0,1,1,346,610.132,18.905,18.905,0,0,1,364.923,591.211Zm.046,31.764c1.085-.191,2.194-.293,3.246-.589,6.07-1.707,9.809-7.672,8.969-14.227a12.443,12.443,0,0,0-16.114-10.224,12.9,12.9,0,0,0,3.9,25.04Z" transform="translate(-258.203 -584.804)"/><path class="b" d="M322.261,610.046a18.889,18.889,0,1,1,18.894,18.94A18.858,18.858,0,0,1,322.261,610.046Zm19.306,12.832a21.189,21.189,0,0,0,2.2-.315,12.787,12.787,0,0,0,9.389-15.645,12.5,12.5,0,0,0-13.206-9.567,12.813,12.813,0,0,0,1.612,25.527Z" transform="translate(-298.36 -584.804)"/><path class="b" d="M415.876,610.08a18.9,18.9,0,1,1-18.744-18.873A18.9,18.9,0,0,1,415.876,610.08Zm-6.428.056c-.094-.821-.148-1.65-.291-2.463a12.436,12.436,0,0,0-15.643-9.858,12.868,12.868,0,0,0-8.388,16.054,12.343,12.343,0,0,0,13.511,8.878A12.728,12.728,0,0,0,409.448,610.137Z" transform="translate(-203.919 -584.811)"/><path class="b" d="M337.144,591.4c4.49,0,8.924-.224,13.32.062a10.206,10.206,0,0,1,9.2,8.167A10.613,10.613,0,0,1,355,611.053c-.062.04-.119.091-.24.189l9.616,17.271a5.914,5.914,0,0,1-.622.078c-2.038.005-4.073-.013-6.108.016a.888.888,0,0,1-.9-.595c-2.493-4.81-5.007-9.607-7.486-14.423a.922.922,0,0,0-.977-.592c-1.55.032-3.1.013-4.738.013v15.538h-6.4Zm6.409,15.527a57.722,57.722,0,0,0,6-.043,4.535,4.535,0,0,0,3.876-4.522c.1-2.433-1.1-4.4-3.354-4.775a57.183,57.183,0,0,0-6.52-.385Z" transform="translate(-273.179 -584.632)"/><path class="b" d="M345.934,621.359h14.851v5.992H345.953v10.167h15.976v6H339.522V606.3h22.4v5.933H345.934Z" transform="translate(-269.156 -559.279)"/><path class="b" d="M330.606,606.3h20.461v5.919H337.045v9.142h13.621v5.992H337V643.5h-6.4Z" transform="translate(-284.241 -559.277)"/><path class="b" d="M385.271,628.526h-6.391V597.3h-7.788v-5.971h21.864v5.938h-7.685Z" transform="translate(-215.741 -584.608)"/><path class="b" d="M323.052,597.289h-7.79v-5.968H337.15v5.938h-7.71v31.275h-6.388Z" transform="translate(-310.201 -584.618)"/><path class="b" d="M318.15,606.294h6.385v31.239h13.6v5.987H318.15Z" transform="translate(-305.315 -559.285)"/><path class="b" d="M333.064,643.534h-6.3V606.3h6.3Z" transform="translate(-290.739 -559.28)"/><path class="a" d="M360.88,619.14a12.9,12.9,0,0,1-3.9-25.04A12.443,12.443,0,0,1,373.1,604.323c.84,6.555-2.9,12.52-8.969,14.227C363.074,618.846,361.964,618.948,360.88,619.14Z" transform="translate(-254.114 -580.968)"/><path class="a" d="M337.505,619.064a12.813,12.813,0,0,1-1.612-25.527A12.5,12.5,0,0,1,349.1,603.1a12.787,12.787,0,0,1-9.389,15.645A21.189,21.189,0,0,1,337.505,619.064Z" transform="translate(-294.298 -580.99)"/><path class="a" d="M405.372,606.3a12.728,12.728,0,0,1-10.811,12.612,12.343,12.343,0,0,1-13.511-8.878,12.868,12.868,0,0,1,8.388-16.054,12.436,12.436,0,0,1,15.643,9.858C405.224,604.651,405.278,605.48,405.372,606.3Z" transform="translate(-199.843 -580.976)"/><path class="a" d="M339.525,603.225V593.5a57.2,57.2,0,0,1,6.52.385c2.25.38,3.454,2.342,3.354,4.775a4.535,4.535,0,0,1-3.876,4.522A57.721,57.721,0,0,1,339.525,603.225Z" transform="translate(-269.151 -580.933)"/></g></svg>