<?xml version="1.0" encoding="utf-8"?>
<!-- Generator: Adobe Illustrator 23.0.4, SVG Export Plug-In . SVG Version: 6.00 Build 0)  -->
<svg version="1.1" id="Layer_1" xmlns="http://www.w3.org/2000/svg" xmlns:xlink="http://www.w3.org/1999/xlink" x="0px" y="0px"
	 viewBox="0 0 284.6 95.9" style="enable-background:new 0 0 284.6 95.9;" xml:space="preserve">
<style type="text/css">
	.st0{fill:#533636;}
	.st1{fill:#4A2B2B;}
	.st2{fill:#EA6433;}
	.st3{fill:#FFFFFF;}
	.st4{fill:#AB7029;}
	.st5{fill:#9C6226;}
	.st6{fill:#B32029;}
	.st7{fill:#FAA21E;}
	.st8{fill:#A9AE38;}
	.st9{fill:#6D1F11;}
	.st10{fill:#411F1F;}
	.st11{fill:#CF3339;}
	.st12{fill:none;stroke:#FFFFFF;stroke-width:1.2515;stroke-linejoin:round;}
</style>
<title>logo-registration-page-fr</title>
<g>
	<g id="Layer_1-2">
		<rect x="130.8" y="4.8" class="st0" width="4" height="87.2"/>
		<path class="st1" d="M169.7,26.2c-1.6,0-3.1-0.3-4.6-0.9c-1.2-0.5-2.3-1.3-3.2-2.4l2.6-2.9c0.7,0.8,1.6,1.4,2.5,1.9
			c0.9,0.4,1.8,0.6,2.8,0.6c0.9,0.1,1.7-0.2,2.4-0.7c0.6-0.5,0.9-1.3,0.8-2.1c0-0.6-0.2-1.2-0.6-1.7c-0.6-0.5-1.4-0.7-2.1-0.8
			l-2.2-0.3c-1.5-0.2-3-0.9-4-2.1c-0.9-1.1-1.3-2.5-1.3-3.9c-0.1-1.8,0.6-3.5,2-4.7c1.6-1.2,3.5-1.8,5.5-1.7c1.4,0,2.9,0.2,4.2,0.7
			c1.1,0.4,2.1,1.1,2.9,2l-2.5,2.8c-0.6-0.6-1.2-1.1-2-1.4c-0.8-0.4-1.7-0.5-2.6-0.5c-2,0-3,0.8-3,2.5c0,0.6,0.2,1.2,0.7,1.6
			c0.7,0.4,1.4,0.7,2.2,0.8l2.2,0.4c1.5,0.2,2.8,0.9,3.9,1.9c1,1.1,1.4,2.5,1.4,3.9c0,0.9-0.2,1.8-0.5,2.7c-0.3,0.8-0.9,1.6-1.5,2.1
			c-0.7,0.6-1.6,1.1-2.5,1.4C172,26,170.9,26.2,169.7,26.2z"/>
		<path class="st1" d="M188.3,26.2c-2.2,0.2-4.3-0.6-5.9-2.1c-1.4-1.6-2.1-3.7-2-5.8c0-1.1,0.2-2.3,0.5-3.4c0.3-0.9,0.8-1.8,1.5-2.6
			c0.6-0.7,1.5-1.3,2.4-1.6c1-0.4,2-0.6,3.1-0.6c1.1,0,2.1,0.2,3.1,0.6c0.9,0.3,1.7,0.9,2.3,1.6c0.6,0.7,1.1,1.5,1.5,2.5
			c0.4,1,0.5,2.1,0.5,3.2v1.3h-10.5v0.3c0,0.9,0.3,1.8,0.9,2.4c0.7,0.7,1.7,1,2.7,0.9c0.8,0,1.6-0.2,2.4-0.5
			c0.7-0.3,1.2-0.8,1.7-1.4l2.4,2.6c-0.7,0.8-1.5,1.5-2.5,1.9C191.1,26,189.7,26.2,188.3,26.2z M188,13.3c-0.8,0-1.7,0.3-2.3,0.9
			c-0.6,0.6-0.9,1.5-0.9,2.4v0.2h6.1v-0.2c0.1-0.9-0.2-1.7-0.8-2.4C189.6,13.6,188.8,13.3,188,13.3z"/>
		<path class="st1" d="M197.7,25.9V10.5h3.5v2.3h0.2c0.2-0.7,0.5-1.3,1-1.9c0.5-0.5,1.2-0.8,1.9-0.8c1.5,0,2.4,0.9,2.7,2.6h0.2
			c0.1-0.3,0.3-0.7,0.4-1c0.2-0.3,0.4-0.6,0.7-0.8c0.3-0.2,0.6-0.4,0.9-0.6c0.4-0.1,0.8-0.2,1.2-0.2c2.1,0,3.2,1.6,3.2,4.7v11h-3.5
			V15.3c0.1-0.5-0.1-1.1-0.4-1.5c-0.2-0.3-0.6-0.4-1-0.4c-0.4,0-0.7,0.1-1,0.4c-0.3,0.3-0.4,0.7-0.4,1.1v11H204V15.3
			c0-0.5-0.1-1.1-0.3-1.5c-0.2-0.3-0.6-0.4-0.9-0.4c-0.4,0-0.7,0.1-1,0.4c-0.3,0.3-0.5,0.7-0.4,1.1v11L197.7,25.9z"/>
		<path class="st1" d="M229.2,25.9c-0.8,0-1.6-0.2-2.2-0.7c-0.6-0.5-0.9-1.2-1-2h-0.1c-0.2,0.9-0.8,1.8-1.6,2.3
			c-0.9,0.5-1.9,0.8-3,0.8c-1.3,0.1-2.6-0.4-3.6-1.2c-0.9-0.9-1.4-2.1-1.4-3.4c-0.1-1.4,0.6-2.8,1.8-3.6c1.6-0.9,3.4-1.3,5.1-1.2
			h2.5v-0.8c0.1-0.8-0.2-1.5-0.6-2.1c-0.6-0.5-1.4-0.8-2.2-0.7c-0.8,0-1.6,0.2-2.3,0.5c-0.6,0.4-1.1,0.8-1.5,1.4l-2.4-2.1
			c0.6-0.9,1.4-1.6,2.4-2.1c1.3-0.6,2.8-0.9,4.2-0.9c1.8-0.1,3.5,0.4,4.9,1.4c1.2,1.1,1.9,2.7,1.7,4.3v6.7h1.7v3.2H229.2z
			 M222.9,23.3c0.7,0,1.4-0.2,2-0.6c0.5-0.4,0.8-1,0.8-1.6v-1.8h-2.4c-1.8,0-2.7,0.6-2.7,1.8v0.6c0,0.5,0.2,1,0.6,1.2
			C221.7,23.2,222.3,23.3,222.9,23.3z"/>
		<path class="st1" d="M235.4,22.4h4.9v-8.4h-4.9v-3.4h9.3v11.9h4.5v3.5h-13.8V22.4z M242.4,8.5c-0.7,0.1-1.5-0.1-2.1-0.6
			c-0.4-0.4-0.6-0.9-0.6-1.5V5.6c0-0.6,0.2-1.1,0.6-1.5c1.3-0.8,2.9-0.8,4.1,0c0.4,0.4,0.6,0.9,0.6,1.5v0.9c0,0.5-0.2,1.1-0.6,1.5
			C243.9,8.4,243.2,8.6,242.4,8.5z"/>
		<path class="st1" d="M252.4,25.9V10.5h4.4v2.8h0.2c0.2-0.4,0.4-0.8,0.7-1.2c0.3-0.4,0.6-0.7,0.9-1c0.4-0.3,0.8-0.5,1.3-0.7
			c0.5-0.2,1.1-0.3,1.6-0.2c0.7,0,1.4,0.1,2,0.4c0.6,0.2,1.1,0.6,1.6,1.1c0.4,0.5,0.8,1.1,1,1.8c0.3,0.8,0.4,1.6,0.4,2.5v10H262
			v-9.4c0-2-0.9-3-2.6-3c-0.3,0-0.7,0-1,0.1c-0.3,0.1-0.6,0.2-0.9,0.4c-0.5,0.4-0.8,1-0.8,1.7v10.1L252.4,25.9z"/>
		<path class="st1" d="M277.6,26.2c-2.2,0.2-4.3-0.6-5.9-2.1c-1.4-1.6-2.1-3.7-2-5.8c0-1.1,0.2-2.3,0.5-3.4c0.3-0.9,0.8-1.8,1.5-2.6
			c0.7-0.7,1.5-1.3,2.4-1.6c1-0.4,2-0.6,3.1-0.6c1.1,0,2.1,0.2,3.1,0.6c0.9,0.3,1.7,0.9,2.3,1.6c0.7,0.7,1.2,1.5,1.5,2.5
			c0.4,1,0.5,2.1,0.5,3.2v1.3h-10.5v0.3c0,0.9,0.3,1.8,0.9,2.4c0.7,0.7,1.7,1,2.7,0.9c0.8,0,1.6-0.2,2.4-0.5
			c0.7-0.3,1.2-0.8,1.7-1.4l2.4,2.6c-0.7,0.8-1.5,1.5-2.5,1.9C280.4,26,279,26.2,277.6,26.2z M277.3,13.3c-0.8,0-1.7,0.3-2.3,0.9
			c-0.6,0.6-0.9,1.5-0.9,2.4v0.2h6.2v-0.2c0.1-0.9-0.2-1.7-0.8-2.4C278.9,13.5,278.1,13.2,277.3,13.3z"/>
		<path class="st1" d="M172.8,54.7h-0.2c-0.4,0.9-0.9,1.6-1.6,2.3c-0.8,0.6-1.9,0.9-2.9,0.9c-0.8,0-1.6-0.2-2.3-0.5
			c-0.7-0.3-1.4-0.8-1.9-1.4c-0.5-0.8-1-1.6-1.2-2.5c-0.6-2.4-0.6-4.8,0-7.2c0.2-0.9,0.6-1.7,1.2-2.5c0.5-0.6,1.1-1.1,1.8-1.5
			c0.7-0.3,1.5-0.5,2.3-0.5c0.6,0,1.1,0.1,1.6,0.2c0.5,0.1,0.9,0.4,1.3,0.7c0.4,0.3,0.7,0.6,0.9,1c0.3,0.4,0.5,0.8,0.7,1.3h0.2v-9.5
			h4.4v22h-4.4V54.7z M170,54.5c0.7,0,1.4-0.2,2-0.6c0.6-0.4,0.9-1.1,0.9-1.8v-4.5c0-0.7-0.3-1.4-0.9-1.8c-0.6-0.4-1.3-0.6-2-0.6
			c-0.9-0.1-1.7,0.3-2.3,0.9c-0.6,0.7-0.9,1.6-0.8,2.5v2.4c-0.1,0.9,0.2,1.8,0.8,2.5C168.3,54.2,169.1,54.5,170,54.5z"/>
		<path class="st1" d="M190.5,54.8h-0.2c-0.3,0.9-0.9,1.6-1.6,2.2c-0.8,0.6-1.9,1-2.9,0.9c-0.7,0-1.4-0.1-2-0.4
			c-0.6-0.2-1.1-0.6-1.6-1.1c-0.4-0.5-0.8-1.1-1-1.8c-0.3-0.8-0.4-1.6-0.4-2.5v-9.9h4.4v9.4c0,2,0.9,3,2.6,3c0.3,0,0.7,0,1-0.1
			c0.3-0.1,0.6-0.2,0.9-0.4c0.2-0.2,0.5-0.4,0.6-0.7c0.2-0.3,0.2-0.7,0.2-1V42.2h4.4v15.4h-4.4L190.5,54.8z"/>
		<path class="st2" d="M163.4,68.5h7.3c1.7-0.1,3.4,0.4,4.7,1.5c1.1,1,1.7,2.5,1.6,4c0.1,1-0.3,2-0.9,2.8c-0.7,0.7-1.5,1.3-2.5,1.5
			v0.2c1.1,0.2,2.2,0.8,3,1.7c0.8,0.9,1.1,2.1,1.1,3.3c0.1,1.6-0.5,3.1-1.7,4.2c-1.3,1.1-2.9,1.6-4.6,1.5h-8L163.4,68.5z
			 M169.4,77.3c0.8,0.1,1.6-0.1,2.3-0.5c0.5-0.5,0.8-1.2,0.7-1.9V74c0.1-0.7-0.2-1.4-0.7-1.9c-0.7-0.4-1.5-0.6-2.3-0.5h-1.7v5.7
			L169.4,77.3z M170,86.2c0.8,0.1,1.6-0.1,2.4-0.5c0.6-0.5,0.8-1.3,0.7-2v-0.9c0.1-0.7-0.2-1.5-0.7-2c-0.7-0.4-1.5-0.6-2.4-0.5h-2.3
			v5.9L170,86.2z"/>
		<path class="st2" d="M190.5,86.5h-0.2c-0.3,0.9-0.9,1.6-1.6,2.2c-0.8,0.6-1.9,1-2.9,0.9c-0.7,0-1.4-0.1-2-0.4
			c-0.6-0.2-1.1-0.6-1.6-1.1c-0.4-0.5-0.8-1.1-1-1.8c-0.3-0.8-0.4-1.6-0.4-2.5v-10h4.4v9.3c0,2,0.9,3,2.6,3c0.3,0,0.7,0,1-0.1
			c0.3-0.1,0.6-0.2,0.9-0.4c0.2-0.2,0.5-0.4,0.6-0.7c0.2-0.3,0.2-0.7,0.2-1v-10h4.4v15.4h-4.4L190.5,86.5z"/>
		<path class="st2" d="M199,85.8h3.5v-8.5H199v-3.5h8v4.3h0.2c0.1-0.6,0.3-1.1,0.6-1.6c0.2-0.5,0.6-1,0.9-1.4c0.4-0.4,0.9-0.8,1.4-1
			c0.6-0.3,1.3-0.4,2-0.4h1.5v4h-3.3c-0.9-0.1-1.8,0.3-2.5,1c-0.6,0.7-0.9,1.5-0.8,2.3v4.5h5.1v3.4H199V85.8z"/>
		<path class="st2" d="M232.1,90.8c0.1,1.5-0.7,2.9-2.1,3.6c-1.4,0.8-3.5,1.2-6.5,1.2c-1.2,0-2.4-0.1-3.6-0.2
			c-0.8-0.1-1.6-0.4-2.3-0.7c-0.5-0.3-0.9-0.6-1.2-1.1c-0.2-0.4-0.3-0.9-0.3-1.4c-0.1-0.7,0.2-1.5,0.8-2c0.6-0.5,1.4-0.8,2.2-1v-0.2
			c-0.6-0.2-1.1-0.4-1.6-0.8c-0.4-0.4-0.6-1-0.6-1.6c-0.1-0.7,0.2-1.3,0.8-1.7c0.6-0.4,1.3-0.7,2-0.8v-0.2c-0.9-0.4-1.6-1-2.1-1.8
			c-0.5-0.9-0.8-1.9-0.8-2.9c0-0.8,0.1-1.6,0.5-2.4c0.3-0.7,0.8-1.2,1.4-1.7c0.6-0.5,1.3-0.8,2.1-1c0.9-0.2,1.8-0.4,2.7-0.3
			c0.9,0,1.8,0.1,2.7,0.3v-0.8c0-0.6,0.2-1.1,0.6-1.5c0.5-0.4,1.1-0.6,1.7-0.6h2.7v3.2h-3.7v0.3c0.8,0.4,1.5,1,1.9,1.8
			c0.5,0.8,0.7,1.8,0.7,2.8c0,0.8-0.1,1.6-0.5,2.4c-0.3,0.7-0.8,1.3-1.4,1.7c-0.6,0.5-1.4,0.8-2.1,1c-0.9,0.2-1.8,0.4-2.8,0.4
			c-0.4,0-0.9,0-1.3-0.1c-0.4,0-0.8-0.1-1.2-0.2c-0.2,0.1-0.4,0.3-0.6,0.4c-0.2,0.2-0.2,0.4-0.2,0.7c0,0.2,0.1,0.4,0.2,0.6
			c0.1,0.1,0.3,0.3,0.5,0.3c0.2,0.1,0.5,0.1,0.7,0.1c0.3,0,0.6,0,0.9,0h3.6c0.9,0,1.9,0.1,2.8,0.3c0.7,0.2,1.3,0.5,1.9,0.9
			c0.5,0.4,0.8,0.8,1.1,1.4C232,89.6,232.1,90.2,232.1,90.8z M227.9,91.2c0-0.4-0.2-0.7-0.5-0.9c-0.6-0.3-1.2-0.4-1.8-0.3h-5.3
			c-0.4,0.3-0.6,0.8-0.6,1.2c0,0.5,0.2,0.9,0.6,1.2c0.6,0.4,1.3,0.5,2.1,0.5h2.6c0.8,0.1,1.5-0.1,2.2-0.4
			C227.6,92.1,227.9,91.7,227.9,91.2z M223.5,81.7c0.7,0.1,1.5-0.2,2-0.7c0.4-0.5,0.6-1.1,0.5-1.7v-0.7c0-0.6-0.2-1.2-0.6-1.7
			c-0.5-0.5-1.3-0.7-2-0.7c-0.7-0.1-1.4,0.2-1.9,0.7c-0.4,0.5-0.6,1.1-0.6,1.7v0.7c0,0.6,0.2,1.2,0.6,1.7
			C222,81.5,222.7,81.8,223.5,81.7L223.5,81.7z"/>
		<path class="st2" d="M241.9,89.6c-2.2,0.2-4.3-0.6-5.9-2.1c-1.4-1.6-2.1-3.7-2-5.8c0-1.1,0.2-2.3,0.5-3.4c0.3-0.9,0.8-1.8,1.5-2.6
			c0.7-0.7,1.5-1.2,2.4-1.6c1-0.4,2.1-0.6,3.1-0.6c1.1,0,2.1,0.2,3.1,0.6c0.9,0.3,1.7,0.9,2.3,1.6c0.7,0.7,1.2,1.5,1.5,2.5
			c0.4,1,0.5,2.1,0.5,3.2v1.3h-10.5v0.3c0,0.9,0.3,1.8,0.9,2.4c0.7,0.7,1.7,1,2.7,0.9c0.8,0,1.6-0.2,2.4-0.5
			c0.7-0.3,1.2-0.8,1.7-1.4l2.4,2.6c-0.7,0.8-1.5,1.5-2.5,1.9C244.7,89.4,243.3,89.7,241.9,89.6z M241.5,76.7
			c-0.9,0-1.7,0.3-2.3,0.9c-0.6,0.6-0.9,1.5-0.9,2.4v0.2h6.2V80c0.1-0.9-0.2-1.7-0.8-2.4C243.2,77,242.4,76.7,241.5,76.7L241.5,76.7
			z"/>
		<path class="st2" d="M252.6,85.8h3.5v-8.5h-3.5v-3.5h7.9v4.3h0.2c0.1-0.6,0.3-1.1,0.6-1.6c0.2-0.5,0.6-1,1-1.4
			c0.4-0.4,0.9-0.8,1.4-1c0.6-0.3,1.3-0.4,2-0.4h1.5v4h-3.3c-0.9-0.1-1.8,0.3-2.5,1c-0.6,0.7-0.9,1.5-0.8,2.3v4.5h5.1v3.4h-13
			L252.6,85.8z"/>
	</g>
</g>
<g>
	<g>
		<path class="st3" d="M53.4,92.4H38.9c-3.1,0-5.6-2.5-5.6-5.6l0,0h20.1V92.4z"/>
	</g>
	<g>
		<g>
			<g>
				<path class="st3" d="M45.3,88.5c-5.4,0-10.5,0-14.5-1.6c-4.9-1.9-7.5-5.9-7.5-11.9c0,0-1.2,0.1-1.2,0.1c-0.1,0-0.1,0-0.2,0
					c-0.8,0-1.5-0.3-2.1-0.8c-0.6-0.6-1-1.3-1-2.2l-0.1-1.8c0-0.5,0.1-0.9,0.2-1.4l0-0.9c-0.1-1.3,0.7-2.5,1.8-3
					c0-0.2,0-0.3,0.1-0.5l2.1-8.7c-3.8-0.6-5.2-3.3-5.2-5.9c0-3.3,2.1-6.5,5.6-8.6c0-12.2,13.2-25.1,37.4-25.1
					c11,0,20.4,2.7,27.1,7.8c6.2,4.6,9.7,11,9.7,17.5l0,1.3c0,0.1,0,0.2,0,0.2l0,4.2l0.4,0c0.5,0,0.9,0.1,1.3,0.3
					c0.6-0.2,1.2-0.3,1.9-0.3c2.9,0,5.2,2.4,5.2,5.4c0,3-2.3,5.3-5.3,5.3c-0.4,0-0.9,0-1.5-0.3l-0.6,3l0.8,0c0.1,0,0.1,0,0.2,0
					c0.8,0,1.5,0.3,2.1,0.8c0.6,0.6,1,1.3,1,2.2l0,0.9c0.2,0.4,0.3,0.8,0.4,1.3l0.1,1.8c0,0.8-0.2,1.6-0.8,2.2c-0.6,0.6-1.3,1-2.2,1
					l-1.2,0.1c-0.1,0-0.2,0-0.2,0c-0.1,0.1-0.3,0.2-0.5,0.4c-0.3,0.2-0.7,0.5-1.2,0.8l0,2.7c0,6.1-2.6,10.2-7.6,12.1
					c-4,1.5-9.1,1.5-14.5,1.5L45.3,88.5z"/>
			</g>
			<g>
				<path class="st4" d="M95.1,41.3c0-10.7-11.7-22.5-34.5-22.5c-22.8,0-35,11.9-35,22.5v1.6h69.5V41.3z"/>
			</g>
			<g>
				<g>
					<path class="st5" d="M53.1,21.9h-2.3c-0.1,0-0.2,0.1-0.3,0.2c0,0.1-0.1,0.2-0.1,0.5c0,0.2,0.1,0.4,0.1,0.5
						c0,0.1,0.1,0.2,0.3,0.2h2.3c0.1,0,0.2-0.1,0.3-0.2c0-0.1,0.1-0.2,0.1-0.5c0-0.2-0.1-0.4-0.1-0.5C53.3,22,53.2,21.9,53.1,21.9z"
						/>
				</g>
				<g>
					<path class="st5" d="M61.5,21.9h-2.3c-0.1,0-0.2,0.1-0.3,0.2c0,0.1-0.1,0.2-0.1,0.5c0,0.2,0.1,0.4,0.1,0.5
						c0,0.1,0.1,0.2,0.3,0.2h2.3c0.1,0,0.2-0.1,0.3-0.2c0-0.1,0.1-0.2,0.1-0.5c0-0.2-0.1-0.4-0.1-0.5C61.7,22,61.6,21.9,61.5,21.9z"
						/>
				</g>
				<g>
					<path class="st5" d="M70,21.9h-2.3c-0.1,0-0.2,0.1-0.3,0.2c0,0.1-0.1,0.2-0.1,0.5c0,0.2,0.1,0.4,0.1,0.5c0,0.1,0.1,0.2,0.3,0.2
						H70c0.1,0,0.2-0.1,0.3-0.2c0-0.1,0.1-0.2,0.1-0.5c0-0.2-0.1-0.4-0.1-0.5C70.2,22,70.1,21.9,70,21.9z"/>
				</g>
				<g>
					<path class="st5" d="M48.8,26.9h-2.3c-0.1,0-0.2,0.1-0.3,0.2c0,0.1-0.1,0.2-0.1,0.5c0,0.2,0.1,0.4,0.1,0.5
						c0,0.1,0.1,0.2,0.3,0.2h2.3c0.1,0,0.2-0.1,0.3-0.2c0-0.1,0.1-0.2,0.1-0.5c0-0.2-0.1-0.4-0.1-0.5C49.1,27,49,26.9,48.8,26.9z"/>
				</g>
				<g>
					<path class="st5" d="M57.3,26.9H55c-0.1,0-0.2,0.1-0.3,0.2c0,0.1-0.1,0.2-0.1,0.5c0,0.2,0.1,0.4,0.1,0.5c0,0.1,0.1,0.2,0.3,0.2
						h2.3c0.1,0,0.2-0.1,0.3-0.2c0-0.1,0.1-0.2,0.1-0.5c0-0.2-0.1-0.4-0.1-0.5C57.5,27,57.4,26.9,57.3,26.9z"/>
				</g>
				<g>
					<path class="st5" d="M40.4,26.9h-2.3c-0.1,0-0.2,0.1-0.3,0.2c0,0.1-0.1,0.2-0.1,0.5c0,0.2,0.1,0.4,0.1,0.5
						c0,0.1,0.1,0.2,0.3,0.2h2.3c0.1,0,0.2-0.1,0.3-0.2c0-0.1,0.1-0.2,0.1-0.5c0-0.2-0.1-0.4-0.1-0.5C40.7,27,40.6,26.9,40.4,26.9z"
						/>
				</g>
				<g>
					<path class="st5" d="M65.7,26.9h-2.3c-0.1,0-0.2,0.1-0.3,0.2c0,0.1-0.1,0.2-0.1,0.5c0,0.2,0.1,0.4,0.1,0.5
						c0,0.1,0.1,0.2,0.3,0.2h2.3c0.1,0,0.2-0.1,0.3-0.2c0-0.1,0.1-0.2,0.1-0.5c0-0.2-0.1-0.4-0.1-0.5C66,27,65.9,26.9,65.7,26.9z"/>
				</g>
				<g>
					<path class="st5" d="M74.2,26.9h-2.3c-0.1,0-0.2,0.1-0.3,0.2c0,0.1-0.1,0.2-0.1,0.5c0,0.2,0.1,0.4,0.1,0.5
						c0,0.1,0.1,0.2,0.3,0.2h2.3c0.1,0,0.2-0.1,0.3-0.2c0-0.1,0.1-0.2,0.1-0.5c0-0.2-0.1-0.4-0.1-0.5C74.4,27,74.3,26.9,74.2,26.9z"
						/>
				</g>
				<g>
					<path class="st5" d="M82.6,26.9h-2.3c-0.1,0-0.2,0.1-0.3,0.2c0,0.1-0.1,0.2-0.1,0.5c0,0.2,0.1,0.4,0.1,0.5
						c0,0.1,0.1,0.2,0.3,0.2h2.3c0.1,0,0.2-0.1,0.3-0.2c0-0.1,0.1-0.2,0.1-0.5c0-0.2-0.1-0.4-0.1-0.5C82.8,27,82.7,26.9,82.6,26.9z"
						/>
				</g>
				<g>
					<path class="st5" d="M53.1,32.2h-2.3c-0.1,0-0.2,0.1-0.3,0.2c0,0.1-0.1,0.2-0.1,0.5c0,0.2,0.1,0.4,0.1,0.5
						c0,0.1,0.1,0.2,0.3,0.2h2.3c0.1,0,0.2-0.1,0.3-0.2c0-0.1,0.1-0.2,0.1-0.5c0-0.2-0.1-0.4-0.1-0.5C53.3,32.3,53.2,32.2,53.1,32.2
						z"/>
				</g>
				<g>
					<path class="st5" d="M61.5,32.2h-2.3c-0.1,0-0.2,0.1-0.3,0.2c0,0.1-0.1,0.2-0.1,0.5c0,0.2,0.1,0.4,0.1,0.5
						c0,0.1,0.1,0.2,0.3,0.2h2.3c0.1,0,0.2-0.1,0.3-0.2c0-0.1,0.1-0.2,0.1-0.5c0-0.2-0.1-0.4-0.1-0.5C61.7,32.3,61.6,32.2,61.5,32.2
						z"/>
				</g>
				<g>
					<path class="st5" d="M70,32.2h-2.3c-0.1,0-0.2,0.1-0.3,0.2c0,0.1-0.1,0.2-0.1,0.5c0,0.2,0.1,0.4,0.1,0.5c0,0.1,0.1,0.2,0.3,0.2
						H70c0.1,0,0.2-0.1,0.3-0.2c0-0.1,0.1-0.2,0.1-0.5c0-0.2-0.1-0.4-0.1-0.5C70.2,32.3,70.1,32.2,70,32.2z"/>
				</g>
				<g>
					<path class="st5" d="M57.3,37.2H55c-0.1,0-0.2,0.1-0.3,0.2c0,0.1-0.1,0.2-0.1,0.5c0,0.2,0.1,0.4,0.1,0.5c0,0.1,0.1,0.2,0.3,0.2
						h2.3c0.1,0,0.2-0.1,0.3-0.2c0-0.1,0.1-0.2,0.1-0.5c0-0.2-0.1-0.4-0.1-0.5C57.5,37.3,57.4,37.2,57.3,37.2z"/>
				</g>
				<g>
					<path class="st5" d="M65.7,37.2h-2.3c-0.1,0-0.2,0.1-0.3,0.2c0,0.1-0.1,0.2-0.1,0.5c0,0.2,0.1,0.4,0.1,0.5
						c0,0.1,0.1,0.2,0.3,0.2h2.3c0.1,0,0.2-0.1,0.3-0.2c0-0.1,0.1-0.2,0.1-0.5c0-0.2-0.1-0.4-0.1-0.5C66,37.3,65.9,37.2,65.7,37.2z"
						/>
				</g>
				<g>
					<path class="st5" d="M78.4,32.2h-2.2c-0.1,0-0.2,0.1-0.3,0.2c0,0.1-0.1,0.2-0.1,0.5c0,0.2,0.1,0.4,0.1,0.5
						c0,0.1,0.1,0.2,0.3,0.2h2.2c0.1,0,0.2-0.1,0.3-0.2c0-0.1,0.1-0.2,0.1-0.5c0-0.2-0.1-0.4-0.1-0.5C78.6,32.3,78.5,32.2,78.4,32.2
						z"/>
				</g>
				<g>
					<path class="st5" d="M87.1,32.4c0-0.1-0.1-0.2-0.3-0.2h-2.3c-0.1,0-0.2,0.1-0.3,0.2c0,0.1-0.1,0.2-0.1,0.5
						c0,0.2,0.1,0.4,0.1,0.5c0,0.1,0.1,0.2,0.3,0.2h2.3c0.1,0,0.2-0.1,0.3-0.2c0-0.1,0.1-0.2,0.1-0.5C87.1,32.6,87.1,32.4,87.1,32.4
						z"/>
				</g>
				<g>
					<path class="st5" d="M82.6,37.2h-2.3c-0.1,0-0.2,0.1-0.3,0.2c0,0.1-0.1,0.2-0.1,0.5c0,0.2,0.1,0.4,0.1,0.5
						c0,0.1,0.1,0.2,0.3,0.2h2.3c0.1,0,0.2-0.1,0.3-0.2c0-0.1,0.1-0.2,0.1-0.5c0-0.2-0.1-0.4-0.1-0.5C82.8,37.3,82.7,37.2,82.6,37.2
						z"/>
				</g>
				<g>
					<path class="st5" d="M74.1,37.2h-2.2c-0.1,0-0.2,0.1-0.3,0.2c0,0.1-0.1,0.2-0.1,0.5c0,0.2,0.1,0.4,0.1,0.5
						c0,0.1,0.1,0.2,0.3,0.2h2.2c0.1,0,0.2-0.1,0.3-0.2c0-0.1,0.1-0.2,0.1-0.5c0-0.2-0.1-0.4-0.1-0.5C74.4,37.3,74.3,37.2,74.1,37.2
						z"/>
				</g>
				<g>
					<path class="st5" d="M36.2,32.2h-2.3c-0.1,0-0.2,0.1-0.3,0.2c0,0.1-0.1,0.2-0.1,0.5c0,0.2,0.1,0.4,0.1,0.5
						c0,0.1,0.1,0.2,0.3,0.2h2.3c0.1,0,0.2-0.1,0.3-0.2c0-0.1,0.1-0.2,0.1-0.5c0-0.2-0.1-0.4-0.1-0.5C36.4,32.3,36.3,32.2,36.2,32.2
						z"/>
				</g>
				<g>
					<path class="st5" d="M44.6,32.2h-2.2c-0.1,0-0.2,0.1-0.3,0.2c0,0.1-0.1,0.2-0.1,0.5c0,0.2,0.1,0.4,0.1,0.5
						c0,0.1,0.1,0.2,0.3,0.2h2.2c0.1,0,0.2-0.1,0.3-0.2c0-0.1,0.1-0.2,0.1-0.5c0-0.2-0.1-0.4-0.1-0.5C44.9,32.3,44.7,32.2,44.6,32.2
						z"/>
				</g>
				<g>
					<path class="st5" d="M40.4,37.2h-2.2c-0.1,0-0.2,0.1-0.3,0.2c0,0.1-0.1,0.2-0.1,0.5c0,0.2,0.1,0.4,0.1,0.5
						c0,0.1,0.1,0.2,0.3,0.2h2.2c0.1,0,0.2-0.1,0.3-0.2c0-0.1,0.1-0.2,0.1-0.5c0-0.2-0.1-0.4-0.1-0.5C40.6,37.3,40.5,37.2,40.4,37.2
						z"/>
				</g>
				<g>
					<path class="st5" d="M49,37.3c0,0-0.1-0.1-0.2-0.1h-2.2c-0.1,0-0.2,0.1-0.3,0.2c0,0.1-0.1,0.2-0.1,0.5c0,0.2,0.1,0.4,0.1,0.5
						c0,0.1,0.1,0.2,0.3,0.2h2.2h0c0.1,0,0.2-0.1,0.3-0.2c0-0.1,0.1-0.2,0.1-0.5c0-0.2-0.1-0.4-0.1-0.5C49.1,37.3,49,37.3,49,37.3z"
						/>
				</g>
			</g>
			<g>
				<path class="st6" d="M95.1,50.3c0,0.7,0,1.2-0.7,1.2H26.3c-0.7,0-0.7-0.5-0.7-1.2V48c0-0.7,0-1.2,0.7-1.2h68.1
					c0.7,0,0.7,0.5,0.7,1.2V50.3z"/>
			</g>
			<g>
				<rect x="25.6" y="43.9" class="st7" width="69.5" height="1.8"/>
			</g>
			<g>
				<polygon class="st7" points="70.6,44.6 60.6,50.6 50.1,44.6 				"/>
			</g>
			<g>
				<path class="st4" d="M25.6,73.8v1.6c0,10.7,8.7,10.7,19.3,10.7h30.8c10.7,0,19.3-0.1,19.3-10.7v-1.6H25.6z"/>
			</g>
			<g>
				<g>
					<path class="st8" d="M29.1,75.8c0,1.7,0.1,2.8,2.5,1.7c2.3-1.2,5.2-2.7,11.1-2.6c-2.2,0.6-4.8,1.8-5,3.4
						c-0.3,1.6,1.3,2.2,4.6,1.4c0.4,1.4,1.8,3,4.8,0.4c3-2.6,4.7-3.6,6.1-4.1c1.4-0.5,1.8,0.3,0.3,1.2c-1.5,0.9-3,1.4-3.2,2.5
						c-0.3,1,0,2.7,2.6,1.9c0,1.8,0.5,3.4,2.7,3.4c2.2,0,3.1-1.2,3.1-3.4c1.4,0.8,3.5,1.3,3.6-1.6c0.1-2.8,1.4-4.1,2.7-4.8
						c1.3-0.6,1.5,0.6,0.6,0.9c-1.2,0.5-1.7,1.3-1.7,2.2c0,1.2,2,2.9,4,0.8c0.2,1.2,2.5,2.1,3.2-0.5c0.8-2.6,1-4.2,3.4-4.3
						c-1.6,0.6-2.6,3-0.5,3.7c2.1,0.8,3.1-1.2,3.4-1.8c0.3-0.6,0.9-2.1,2.8-1.9c-1.7,0.7-1.7,3.4,0,3.5c1.7,0.1,2.3-0.4,3.6-1.6
						c1.3-1.2,3.9-2.5,7.1-1.9c-0.6,1.7,0.5,2.4,1.6,2.2c1.3-0.2,1.2-1.6,1.6-2.6H27.7v0C26.7,74.5,26,77.2,29.1,75.8z"/>
				</g>
			</g>
			<g>
				<path class="st6" d="M22.1,70c1.2-0.1,1.8,0.2,2.7,0.8c1.1,0.6,2.6,1.5,5.2,1.3c2.6-0.1,4-1.2,5.1-1.9c0.8-0.6,1.3-1,2.6-1
					c1.2-0.1,1.8,0.2,2.7,0.8c1.1,0.6,2.6,1.5,5.2,1.3c2.6-0.1,4-1.2,5.1-1.9c0.8-0.6,1.3-1,2.6-1.1c1.2-0.1,1.8,0.2,2.7,0.8
					c1.1,0.6,2.6,1.5,5.2,1.3c2.6-0.1,4-1.2,5.1-1.9c0.8-0.6,1.3-1,2.6-1c1.2-0.1,1.8,0.2,2.7,0.8c1.1,0.6,2.6,1.5,5.2,1.3
					c2.6-0.1,4-1.2,5.1-1.9c0.8-0.6,1.3-1,2.6-1c1.2-0.1,1.8,0.2,2.7,0.8c1.1,0.6,2.6,1.5,5.2,1.3c2.6-0.1,4-1.2,5.1-1.9
					c0.8-0.6,1.3-1,2.6-1l0.9,0l-0.1-1.7l-0.9,0c-2.7,0.1-4.2,1.2-5.2,2c-0.8,0.6-1.3,0.9-2.4,1c-1.2,0.1-1.6-0.2-2.5-0.7
					c-1.1-0.6-2.7-1.5-5.4-1.4c-2.7,0.1-4.2,1.2-5.2,2c-0.8,0.6-1.3,0.9-2.4,1c-1.2,0.1-1.6-0.2-2.5-0.7c-1.1-0.6-2.7-1.5-5.4-1.4
					c-2.7,0.1-4.2,1.2-5.2,2c-0.8,0.6-1.3,0.9-2.4,1c-1.2,0.1-1.6-0.2-2.5-0.7c-1.1-0.6-2.7-1.5-5.4-1.4c-2.7,0.1-4.2,1.2-5.2,2
					c-0.8,0.6-1.3,0.9-2.4,1c-1.2,0.1-1.6-0.2-2.5-0.7c-1.1-0.6-2.7-1.5-5.4-1.4c-2.7,0.1-4.2,1.2-5.2,2c-0.8,0.6-1.3,0.9-2.4,1
					c-1.2,0.1-1.6-0.2-2.5-0.7c-1.1-0.6-2.7-1.5-5.4-1.4l-0.9,0l0.1,1.7L22.1,70z"/>
			</g>
			<g>
				<path class="st6" d="M97.7,67.3c-1.1,0.8-2.6,1.9-5.4,2c-2.8,0.2-4.4-0.8-5.6-1.4c-0.9-0.5-1.3-0.7-2.4-0.7
					c-1.1,0.1-1.5,0.3-2.3,0.9c-1.1,0.8-2.6,1.9-5.4,2c-2.8,0.2-4.4-0.8-5.6-1.4c-0.9-0.5-1.3-0.7-2.4-0.7c-1.1,0.1-1.5,0.3-2.3,0.9
					c-1.1,0.8-2.6,1.9-5.4,2c-2.8,0.2-4.4-0.8-5.6-1.4c-0.9-0.5-1.3-0.7-2.4-0.7c-1.1,0.1-1.5,0.3-2.3,0.9c-1.1,0.8-2.6,1.9-5.4,2
					c-2.8,0.2-4.4-0.8-5.6-1.4c-0.9-0.5-1.3-0.7-2.3-0.7c-1.1,0.1-1.5,0.3-2.3,0.9c-1.1,0.8-2.6,1.9-5.4,2c-2.8,0.2-4.4-0.8-5.6-1.4
					c-0.9-0.5-1.3-0.7-2.3-0.7L21,70.6l0.1,1.9l1.2-0.1c1.2-0.1,1.6,0.2,2.5,0.7c1.1,0.6,2.7,1.5,5.4,1.4c2.7-0.1,4.2-1.2,5.2-2
					c0.8-0.6,1.3-0.9,2.4-1c1.2-0.1,1.6,0.2,2.5,0.7c1.1,0.6,2.7,1.5,5.4,1.4c2.7-0.1,4.2-1.2,5.2-2c0.8-0.6,1.3-0.9,2.4-1
					c1.2-0.1,1.6,0.2,2.5,0.7c1.1,0.6,2.7,1.5,5.4,1.4c2.7-0.1,4.2-1.2,5.2-2c0.8-0.6,1.3-0.9,2.4-1c1.2-0.1,1.6,0.2,2.5,0.7
					c1.1,0.6,2.7,1.5,5.4,1.4c2.7-0.1,4.2-1.2,5.2-2c0.8-0.6,1.3-0.9,2.4-1c1.2-0.1,1.6,0.2,2.5,0.7c1.1,0.6,2.7,1.5,5.4,1.4
					c2.7-0.1,4.2-1.2,5.2-2c0.8-0.6,1.3-0.9,2.4-1l1.2-0.1l-0.1-1.9l-1.2,0.1C98.9,66.4,98.5,66.7,97.7,67.3z"/>
			</g>
			<g>
				<path class="st9" d="M33,44.6l-1.7,7.1h0.2c2.8,0,5.1-2.8,5.1-5.2c0-1.8-1.3-3.5-4.7-3.5c-4.1,0-8.8,2.5-8.8,7.8
					c0,1.6,0.5,1.9,0.5,2.2c-2.3,0-3.8-0.8-3.8-3c0-4.4,6.1-8.5,12.8-8.5c5.2,0,7.5,2.5,7.5,5.1c0,1.9-1.2,3.9-3.5,5.1
					c3,0.5,4.2,2.8,4.2,5.2c0,3.1-1.8,9.3-7.7,9.3c-1.5,0-3.5-0.4-3.5-2.4c0-0.5,0.1-1.1,0.5-1.9c0.9,0.8,1.6,1.2,2.4,1.2
					c2.6,0,3.5-3.3,3.5-5.8c0-2.3-0.8-4.1-3.4-4.1c-0.3,0-1,0-1.6,0.1l-2.9,12.3H23l4.8-20.5L33,44.6z"/>
				<path class="st3" d="M33.1,67.6c-1.7,0-3.1-0.5-3.9-1.3c-0.2,0.4-0.7,0.7-1.2,0.7H23c-0.4,0-0.8-0.2-1-0.5
					c-0.3-0.3-0.3-0.7-0.3-1.1l2.6-11.2c-0.2,0.1-0.4,0.2-0.7,0.2c-4.4,0-5.1-2.7-5.1-4.3c0-5.2,6.6-9.8,14.1-9.8
					c4.4,0,8.8,2,8.8,6.4c0,1.7-0.8,3.4-2.1,4.8c1.8,1.1,2.8,3.1,2.8,5.5c0,1.7-0.5,4.3-1.9,6.5C38.7,66.1,36.2,67.6,33.1,67.6z
					 M31,64.2c0.2,0.5,0.9,0.7,2.1,0.7c5.2,0,6.4-5.9,6.4-7.9c0-1.5-0.5-3.4-3.1-3.9c-0.6-0.1-1-0.5-1.1-1.1c0-0.1,0-0.2,0-0.4
					c-0.3,0.2-0.6,0.5-1,0.6c1.4,0.5,2.8,1.8,2.8,5.1c0,3.4-1.5,7.1-4.8,7.1C32,64.5,31.5,64.4,31,64.2z M24.7,64.4H27l2.7-11.3
					c0.1-0.3,0.3-0.6,0.5-0.8c-0.1-0.3-0.2-0.6-0.1-0.9l1.2-5.3l-2.4,0.3L24.7,64.4z M30.6,60.8c0.2,0.1,0.3,0.1,0.4,0.3
					c0.8,0.7,1.1,0.8,1.5,0.8c1.6,0,2.2-2.7,2.2-4.5c0-2.6-1.1-2.8-2-2.8c-0.1,0-0.3,0-0.6,0L30.6,60.8z M26.1,46.7
					c-1,1-1.6,2.4-1.6,4.2c0,0.9,0.1,1.1,0.2,1.3c0,0,0,0.1,0.1,0.1L26.1,46.7z M23,46.5c-1.1,1.1-1.8,2.3-1.8,3.6
					c0,0.4,0,1,0.7,1.3c0-0.2,0-0.4,0-0.6C21.9,49.2,22.2,47.8,23,46.5z M37.2,43.9c0.5,0.7,0.8,1.5,0.8,2.6c0,1.4-0.5,2.7-1.2,3.7
					c1.4-0.9,2.2-2.2,2.2-3.6C38.9,45.5,38.3,44.6,37.2,43.9z M34.3,44.8C34.3,44.8,34.3,44.9,34.3,44.8L33.1,50
					c1.3-0.7,2.2-2.2,2.2-3.5C35.4,45.7,34.9,45.1,34.3,44.8z"/>
			</g>
			<g>
				<path class="st9" d="M55,50.4l-2.2,10.4c-0.1,0.4-0.1,0.7-0.1,1c0,0.9,0.4,1.1,1.3,1.1c1.2,0,2-1.2,2.5-2.7h1.3
					c-1.7,5-4.5,5.7-6.2,5.7c-1.7,0-2.9-1-3-2.9c-1.5,2.5-3.2,2.9-4.5,2.9c-1.8,0-3.3-1.1-3.3-3.7c0-0.6,0.1-1.3,0.2-2l2.1-9.8h4.4
					l-2.2,10.4c-0.1,0.3-0.1,0.6-0.1,0.9c0,0.7,0.2,1.3,0.9,1.3c1.2,0,2-1.2,2.5-2.7l2.1-9.8H55z"/>
				<path class="st3" d="M51.6,67c-1.5,0-2.7-0.6-3.4-1.7C47,66.5,45.6,67,44,67c-2.1,0-4.4-1.3-4.4-4.8c0-0.6,0.1-1.4,0.3-2.2
					l2.1-9.8c0.1-0.5,0.6-0.9,1.1-0.9h4.4c0.3,0,0.7,0.2,0.9,0.4s0.3,0.6,0.2,0.9L46.4,61c0,0.2-0.1,0.4-0.1,0.6c0,0,0,0.1,0,0.1
					c0.6-0.2,1-1.4,1.2-1.8l2.1-9.8c0.1-0.5,0.6-0.9,1.1-0.9H55c0.3,0,0.7,0.2,0.9,0.4c0.2,0.3,0.3,0.6,0.2,0.9L53.9,61
					c-0.1,0.3-0.1,0.5-0.1,0.7c0,0,0,0,0,0c0,0,0.1,0,0.1,0c0.6,0,1.1-1,1.4-1.9c0.1-0.5,0.6-0.8,1.1-0.8h1.3c0.4,0,0.7,0.2,0.9,0.5
					c0.2,0.3,0.3,0.7,0.1,1C56.9,65.9,53.8,67,51.6,67z M49,62c0.3,0.2,0.6,0.5,0.6,0.9c0.2,1.7,1.2,1.9,1.9,1.9
					c0.9,0,1.6-0.2,2.3-0.7c-2.1,0-2.3-1.6-2.3-2.3c0-0.4,0-0.8,0.2-1.2l1.9-9h-2.1l-1.9,8.9c0,0,0,0.1,0,0.1
					C49.4,61.1,49.3,61.6,49,62z M44,51.5l-1.9,8.9c-0.1,0.7-0.2,1.3-0.2,1.8c0,1.7,0.7,2.6,2.2,2.6c0.6,0,1.4-0.1,2.2-0.7
					c0,0-0.1,0-0.1,0c-0.9,0-2-0.6-2-2.4c0-0.3,0-0.7,0.1-1.1l1.9-9.1H44z M53.8,62L53.8,62L53.8,62z"/>
			</g>
			<g>
				<path class="st9" d="M62.9,50.4l-0.4,1.9c1.1-0.9,2.2-1.9,3.7-1.9c1.4,0,2.1,1.1,2.1,2.3c0,1.1-0.7,2.2-2.2,2.2
					c-1.7,0-0.9-2-1.8-2c-0.9,0-1.5,0.5-2.2,1.2l-2.5,11.6h-4.4l3.3-15.3H62.9z"/>
				<path class="st3" d="M59.7,66.8h-4.4c-0.3,0-0.7-0.2-0.9-0.4c-0.2-0.3-0.3-0.6-0.2-0.9l3.2-15.3c0.1-0.5,0.6-0.9,1.1-0.9h4.4
					c0.3,0,0.7,0.2,0.9,0.4c0,0.1,0.1,0.1,0.1,0.2c0.7-0.4,1.4-0.6,2.3-0.6c1.8,0,3.2,1.5,3.2,3.4c0,1.6-1.2,3.4-3.3,3.4
					c-1.7,0-2.1-1.2-2.3-1.9c-0.2,0.1-0.4,0.3-0.7,0.5l-2.4,11.3C60.7,66.5,60.2,66.8,59.7,66.8z M56.7,64.6h2.1L61,53.8
					c0-0.2,0.2-0.4,0.3-0.6c0.1-0.1,0.2-0.2,0.3-0.3c-0.2-0.3-0.3-0.6-0.2-0.9l0.1-0.5h-2.1L56.7,64.6z M66.1,53.8
					C66.1,53.8,66.1,53.8,66.1,53.8c1.1,0,1.1-0.9,1.1-1.1c0-0.1,0-1.2-1-1.2c-0.4,0-0.9,0.1-1.3,0.4c0.8,0.3,1,1.2,1.1,1.6
					C66,53.6,66.1,53.7,66.1,53.8z M66,53.8L66,53.8L66,53.8z"/>
			</g>
			<g>
				<path class="st9" d="M81.4,50.4l-3,14.2c1.9-0.7,3-1.7,3.9-4.4h1.3c-1.2,4-3.5,5.2-5.4,5.7l-0.5,2.2c-0.9,4.4-3.5,5.2-5.5,5.2
					c-1.9,0-3.4-1-3.4-3c0-2.6,2.7-3.9,5-4.6l0.4-1.6c-0.9,0.9-2.1,1.7-3.7,1.7c-2.1,0-4.1-1.3-4.1-4.9c0-4.1,2.5-10.7,7.9-10.7
					c1.7,0,2.5,0.7,2.5,1.6V52l0.3-1.6H81.4z M71.4,71c0.6,0,1.4-0.9,1.8-2.7l0.2-0.9c-1.6,0.6-3,1.4-3,2.6
					C70.4,70.4,70.8,71,71.4,71z M70.9,60.5c0,2.4,1,2.4,1.5,2.4c0.8,0,2-0.8,2.5-2.4l1.6-7.3c0-0.3-0.3-1.1-1.3-1.1
					C72.6,52.1,70.9,57.6,70.9,60.5z"/>
				<path class="st3" d="M72.2,74.5c-2.7,0-4.6-1.6-4.6-4.1c0-1.4,0.5-2.5,1.6-3.5c-2.1-0.4-4-2.2-4-5.9c0-5,3.1-11.9,9-11.9
					c0.9,0,1.6,0.2,2.1,0.4c0.2-0.2,0.4-0.3,0.7-0.3h4.4c0.3,0,0.7,0.2,0.9,0.4c0.2,0.3,0.3,0.6,0.2,0.9l-2.5,11.6
					c0.4-0.5,0.8-1.3,1.1-2.3c0.1-0.5,0.6-0.8,1.1-0.8h1.3c0.4,0,0.7,0.2,0.9,0.5c0.2,0.3,0.3,0.7,0.2,1c-1.2,4.2-3.6,5.6-5.5,6.3
					l-0.3,1.6C77.7,73.4,74.6,74.5,72.2,74.5z M71,72.1c0.4,0.2,0.9,0.2,1.2,0.2c1.5,0,3.6-0.4,4.4-4.3l0.5-2.2
					c0.1-0.2,0.2-0.5,0.4-0.6c-0.1-0.2-0.1-0.5-0.1-0.7l2.7-12.9h-2.1l-0.1,0.7c0,0.2-0.2,0.4-0.3,0.6c0,0.1,0.1,0.3,0.1,0.4
					c0,0.1,0,0.2,0,0.3L76,60.8c0,0,0,0,0,0.1c-0.3,1-0.8,1.8-1.4,2.3c0,0,0.1,0,0.1,0.1c0.4,0.2,0.7,0.7,0.6,1.2l-0.4,1.6
					c-0.1,0.3-0.2,0.5-0.5,0.7c0.2,0.2,0.2,0.5,0.2,0.8l-0.2,0.9c-0.5,2.3-1.6,3.6-2.9,3.6C71.3,72.1,71.1,72.1,71,72.1z M73.7,51.4
					c-4.3,0.5-6.2,6.5-6.2,9.6c0,2.5,1,3.8,3,3.8c0.8,0,1.5-0.2,2.2-0.7c-0.1,0-0.1,0-0.2,0c-1.8,0-2.7-1.2-2.7-3.5
					C69.7,58.2,70.9,52.8,73.7,51.4z M75.2,53.3c-1.5,0-3.2,4.4-3.2,7.3c0,1,0.2,1.3,0.2,1.3c0,0,0.1,0,0.2,0c0.3,0,1-0.4,1.4-1.5
					l1.5-7C75.3,53.3,75.3,53.3,75.2,53.3C75.3,53.3,75.2,53.3,75.2,53.3z"/>
			</g>
			<g>
				<path class="st9" d="M87.6,63.3c2.4,0,3.9-1.3,5.4-3.1h1c-1.7,2.8-4.4,5.7-8.4,5.7c-2.9,0-4.8-1.4-4.8-4.9
					c0-3.5,2-10.9,8.3-10.9c2.7,0,3.4,1.4,3.4,2.9c0,3.5-3.4,6.3-7,6.5c0,0.4-0.1,0.9-0.1,1.2C85.4,62.8,86.1,63.3,87.6,63.3z
					 M89.4,51.7c-1.6,0-3.1,3.3-3.7,6.3c2.4-0.2,4.4-2.5,4.4-5.1C90.1,52.2,90,51.7,89.4,51.7z"/>
				<path class="st3" d="M85.6,67c-3.8,0-5.9-2.2-5.9-6c0-3.9,2.3-12,9.4-12c2.9,0,4.5,1.4,4.5,4.1c0,3.6-3.1,6.8-7.1,7.5
					c0,0.1,0,0.1,0,0.2c0,1.4,0.2,1.4,1.1,1.4c1.8,0,3-1,4.6-2.7c0.2-0.2,0.5-0.4,0.8-0.4h1c0.4,0,0.8,0.2,1,0.6
					c0.2,0.4,0.2,0.8,0,1.1C92.4,65,89.4,67,85.6,67z M87.5,51.5C83.4,52.7,82,58.2,82,61c0,2.6,1.1,3.7,3.7,3.7
					c0.7,0,1.4-0.1,2.1-0.3c0,0-0.1,0-0.2,0c-2.3,0-3.3-1.2-3.3-3.7c0-0.4,0-0.9,0.1-1.3c0-0.3,0.2-0.6,0.4-0.8
					c-0.2-0.2-0.2-0.5-0.2-0.8C84.7,57.3,85.6,53.3,87.5,51.5z M89,53.1c-0.5,0.4-1.1,1.6-1.7,3.2C88.3,55.5,89,54.3,89,53.1z
					 M91.1,51.9c0.1,0.3,0.2,0.7,0.2,1.1c0,0.7-0.1,1.3-0.3,1.9c0.3-0.6,0.4-1.2,0.4-1.9C91.4,52.6,91.3,52.2,91.1,51.9z M89.4,52.9
					L89.4,52.9L89.4,52.9z"/>
			</g>
			<g>
				<path class="st9" d="M98.7,50.4l-0.4,1.9c1.1-0.9,2.2-1.9,3.7-1.9c1.4,0,2.1,1.1,2.1,2.3c0,1.1-0.7,2.2-2.2,2.2
					c-1.7,0-0.9-2-1.8-2c-0.9,0-1.5,0.5-2.2,1.2l-2.5,11.6h-4.4l3.2-15.3H98.7z"/>
				<path class="st3" d="M95.5,66.8h-4.4c-0.3,0-0.7-0.2-0.9-0.4c-0.2-0.3-0.3-0.6-0.2-0.9l3.2-15.3c0.1-0.5,0.6-0.9,1.1-0.9h4.4
					c0.3,0,0.7,0.2,0.9,0.4c0,0.1,0.1,0.1,0.1,0.2c0.7-0.4,1.4-0.6,2.3-0.6c1.8,0,3.2,1.5,3.2,3.4c0,1.6-1.2,3.4-3.3,3.4
					c-1.7,0-2.1-1.2-2.3-1.9c-0.2,0.1-0.4,0.3-0.7,0.5l-2.4,11.3C96.5,66.5,96,66.8,95.5,66.8z M92.5,64.6h2.1l2.3-10.8
					c0-0.2,0.2-0.4,0.3-0.6c0.1-0.1,0.2-0.2,0.3-0.3c-0.2-0.3-0.3-0.6-0.2-0.9l0.1-0.5h-2.1L92.5,64.6z M101.9,53.8
					C101.9,53.8,101.9,53.8,101.9,53.8c1.1,0,1.1-0.9,1.1-1.1c0-0.1,0-1.2-1-1.2c-0.4,0-0.9,0.1-1.3,0.4c0.8,0.3,1,1.2,1.1,1.6
					C101.9,53.6,101.9,53.7,101.9,53.8z M101.8,53.8L101.8,53.8L101.8,53.8z"/>
			</g>
			<g>
				<path class="st10" d="M33,44.6l-1.7,7.1h0.2c2.8,0,5.1-2.8,5.1-5.2c0-1.8-1.3-3.5-4.7-3.5c-4.1,0-8.8,2.5-8.8,7.8
					c0,1.6,0.5,1.9,0.5,2.2c-2.3,0-3.8-0.8-3.8-3c0-4.4,6.1-8.5,12.8-8.5c5.2,0,7.5,2.5,7.5,5.1c0,1.9-1.2,3.9-3.5,5.1
					c3,0.5,4.2,2.8,4.2,5.2c0,3.1-1.8,9.3-7.7,9.3c-1.5,0-3.5-0.4-3.5-2.4c0-0.5,0.1-1.1,0.5-1.9c0.9,0.8,1.6,1.2,2.4,1.2
					c2.6,0,3.5-3.3,3.5-5.8c0-2.3-0.8-4.1-3.4-4.1c-0.3,0-1,0-1.6,0.1l-2.9,12.3H23l4.8-20.5L33,44.6z"/>
			</g>
			<g>
				<path class="st10" d="M55,50.4l-2.2,10.4c-0.1,0.4-0.1,0.7-0.1,1c0,0.9,0.4,1.1,1.3,1.1c1.2,0,2-1.2,2.5-2.7h1.3
					c-1.7,5-4.5,5.7-6.2,5.7c-1.7,0-2.9-1-3-2.9c-1.5,2.5-3.2,2.9-4.5,2.9c-1.8,0-3.3-1.1-3.3-3.7c0-0.6,0.1-1.3,0.2-2l2.1-9.8h4.4
					l-2.2,10.4c-0.1,0.3-0.1,0.6-0.1,0.9c0,0.7,0.2,1.3,0.9,1.3c1.2,0,2-1.2,2.5-2.7l2.1-9.8H55z"/>
			</g>
			<g>
				<path class="st10" d="M62.9,50.4l-0.4,1.9c1.1-0.9,2.2-1.9,3.7-1.9c1.4,0,2.1,1.1,2.1,2.3c0,1.1-0.7,2.2-2.2,2.2
					c-1.7,0-0.9-2-1.8-2c-0.9,0-1.5,0.5-2.2,1.2l-2.5,11.6h-4.4l3.3-15.3H62.9z"/>
			</g>
			<g>
				<path class="st10" d="M81.4,50.4l-3,14.2c1.9-0.7,3-1.7,3.9-4.4h1.3c-1.2,4-3.5,5.2-5.4,5.7l-0.5,2.2c-0.9,4.4-3.5,5.2-5.5,5.2
					c-1.9,0-3.4-1-3.4-3c0-2.6,2.7-3.9,5-4.6l0.4-1.6c-0.9,0.9-2.1,1.7-3.7,1.7c-2.1,0-4.1-1.3-4.1-4.9c0-4.1,2.5-10.7,7.9-10.7
					c1.7,0,2.5,0.7,2.5,1.6V52l0.3-1.6H81.4z M71.4,71c0.6,0,1.4-0.9,1.8-2.7l0.2-0.9c-1.6,0.6-3,1.4-3,2.6
					C70.4,70.4,70.8,71,71.4,71z M70.9,60.5c0,2.4,1,2.4,1.5,2.4c0.8,0,2-0.8,2.5-2.4l1.6-7.3c0-0.3-0.3-1.1-1.3-1.1
					C72.6,52.1,70.9,57.6,70.9,60.5z"/>
			</g>
			<g>
				<path class="st10" d="M87.6,63.3c2.4,0,3.9-1.3,5.4-3.1h1c-1.7,2.8-4.4,5.7-8.4,5.7c-2.9,0-4.8-1.4-4.8-4.9
					c0-3.5,2-10.9,8.3-10.9c2.7,0,3.4,1.4,3.4,2.9c0,3.5-3.4,6.3-7,6.5c0,0.4-0.1,0.9-0.1,1.2C85.4,62.8,86.1,63.3,87.6,63.3z
					 M89.4,51.7c-1.6,0-3.1,3.3-3.7,6.3c2.4-0.2,4.4-2.5,4.4-5.1C90.1,52.2,90,51.7,89.4,51.7z"/>
			</g>
			<g>
				<path class="st10" d="M98.7,50.4l-0.4,1.9c1.1-0.9,2.2-1.9,3.7-1.9c1.4,0,2.1,1.1,2.1,2.3c0,1.1-0.7,2.2-2.2,2.2
					c-1.7,0-0.9-2-1.8-2c-0.9,0-1.5,0.5-2.2,1.2l-2.5,11.6h-4.4l3.2-15.3H98.7z"/>
			</g>
			<g>
				<path class="st9" d="M40.5,74.4l2.7-7.7h1.7v7.7l2.7-7.7h0.9l-3.5,9.4h-1.9v-6.4l-2.5,6.4h-1.9v-8.6c-1.4,0.4-2,1.4-2,2.8
					c0,0.6,0.2,0.7,0.2,0.9c-0.9,0-1.4-0.3-1.4-1.2c0-1.7,2.3-3.3,4.4-3.3c0.2,0,0.3,0,0.5,0L40.5,74.4z"/>
				<path class="st3" d="M44.9,77.2h-1.9c-0.6,0-1.1-0.5-1.1-1.1v-0.4l-0.3,0.8c-0.2,0.4-0.6,0.7-1,0.7h-1.9c-0.6,0-1.1-0.5-1.1-1.1
					V72c-0.2,0.2-0.5,0.3-0.7,0.3c-1.6,0-2.5-0.9-2.5-2.4c0-2.5,3-4.4,5.6-4.4c0.2,0,0.4,0,0.6,0c0.6,0,1,0.5,1,1.1l0,1.3l0.6-1.6
					c0.2-0.5,0.6-0.8,1.1-0.8h1.7c0.6,0,1.1,0.5,1.1,1.1v1.1l0.5-1.5c0.2-0.5,0.6-0.8,1.1-0.8h0.9c0.4,0,0.7,0.2,0.9,0.5
					c0.2,0.3,0.3,0.7,0.1,1L46,76.5C45.8,77,45.4,77.2,44.9,77.2z M43.7,68.7C43.7,68.8,43.7,68.8,43.7,68.7l0-0.1L43.7,68.7z"/>
			</g>
			<g>
				<path class="st9" d="M49.3,75.1c1,0,1.6-0.6,2.2-1.3H52c-0.7,1.2-1.8,2.3-3.5,2.3c-1.2,0-2-0.6-2-2c0-1.5,0.8-4.5,3.4-4.5
					c1.1,0,1.4,0.6,1.4,1.2c0,1.5-1.4,2.6-2.9,2.7c0,0.2,0,0.4,0,0.5C48.4,74.9,48.7,75.1,49.3,75.1z M50,70.4
					c-0.6,0-1.3,1.4-1.5,2.6c1-0.1,1.8-1,1.8-2.1C50.3,70.6,50.3,70.4,50,70.4z"/>
				<path class="st3" d="M48.5,77.3c-1.9,0-3.1-1.2-3.1-3.1c0-2.3,1.4-5.6,4.5-5.6c1.6,0,2.5,0.9,2.5,2.3c0,0.7-0.2,1.3-0.5,1.8h0
					c0.4,0,0.8,0.2,1,0.6c0.2,0.4,0.2,0.8,0,1.1C51.7,76.4,50.3,77.3,48.5,77.3z"/>
			</g>
			<g>
				<path class="st9" d="M54.2,75.1c1,0,1.6-0.6,2.2-1.3h0.4c-0.7,1.2-1.8,2.3-3.5,2.3c-1.2,0-2-0.6-2-2c0-1.5,0.8-4.5,3.4-4.5
					c1.1,0,1.4,0.6,1.4,1.2c0,1.5-1.4,2.6-2.9,2.7c0,0.2,0,0.4,0,0.5C53.2,74.9,53.5,75.1,54.2,75.1z M54.9,70.4
					c-0.6,0-1.3,1.4-1.5,2.6c1-0.1,1.8-1,1.8-2.1C55.2,70.6,55.1,70.4,54.9,70.4z"/>
				<path class="st3" d="M53.3,77.3c-1.9,0-3.1-1.2-3.1-3.1c0-2.3,1.4-5.6,4.5-5.6c1.6,0,2.5,0.9,2.5,2.3c0,0.7-0.2,1.3-0.5,1.8h0
					c0.4,0,0.8,0.2,1,0.6c0.2,0.4,0.2,0.8,0,1.1C56.6,76.4,55.1,77.3,53.3,77.3z"/>
			</g>
			<g>
				<path class="st9" d="M62.4,69.8l-2.5,1.8c0.1,0,0.3,0,0.4,0c0.9,0,1.4,0.7,1.4,1.5c0,0.2,0,0.3-0.1,0.5l-0.1,0.6
					c0,0.1-0.1,0.3-0.1,0.4c0,0.3,0.1,0.5,0.5,0.5c0.3,0,0.4,0,0.4-0.1c-0.1,0.9-0.8,1.3-1.2,1.3c-1,0-1.6-0.5-1.6-1.4
					c0-0.2,0-0.4,0.1-0.7l0.1-0.5c0-0.2,0-0.3,0-0.5c0-0.4-0.1-0.6-0.5-0.6c-0.3,0-0.6,0.2-0.9,0.5l-0.7,3.1h-1.8l1.8-8.6l1.9-0.3
					l-0.9,4.5l2.4-1.9H62.4z"/>
				<path class="st3" d="M61.1,77.3c-1,0-1.8-0.4-2.3-1.1l0,0.1c-0.1,0.5-0.6,0.9-1.1,0.9h-1.8c-0.3,0-0.7-0.2-0.9-0.4
					c-0.2-0.3-0.3-0.6-0.2-0.9l1.8-8.6c0.1-0.5,0.5-0.8,0.9-0.9l1.9-0.3c0.4-0.1,0.7,0.1,1,0.3c0.2,0.3,0.4,0.6,0.3,1l-0.3,1.4
					c0.2-0.2,0.4-0.2,0.7-0.2h1.3c0.5,0,0.9,0.3,1.1,0.8c0.1,0.5,0,1-0.4,1.3l-0.8,0.6c0.4,0.4,0.6,1,0.6,1.7c0,0.3,0,0.5-0.1,0.7
					l0,0.1c0.1,0,0.2,0.1,0.3,0.2c0.3,0.2,0.5,0.6,0.5,1C63.3,76.5,62,77.3,61.1,77.3z"/>
			</g>
			<g>
				<path class="st10" d="M40.5,74.4l2.7-7.7h1.7v7.7l2.7-7.7h0.9l-3.5,9.4h-1.9v-6.4l-2.5,6.4h-1.9v-8.6c-1.4,0.4-2,1.4-2,2.8
					c0,0.6,0.2,0.7,0.2,0.9c-0.9,0-1.4-0.3-1.4-1.2c0-1.7,2.3-3.3,4.4-3.3c0.2,0,0.3,0,0.5,0L40.5,74.4z"/>
			</g>
			<g>
				<path class="st10" d="M49.3,75.1c1,0,1.6-0.6,2.2-1.3H52c-0.7,1.2-1.8,2.3-3.5,2.3c-1.2,0-2-0.6-2-2c0-1.5,0.8-4.5,3.4-4.5
					c1.1,0,1.4,0.6,1.4,1.2c0,1.5-1.4,2.6-2.9,2.7c0,0.2,0,0.4,0,0.5C48.4,74.9,48.7,75.1,49.3,75.1z M50,70.4
					c-0.6,0-1.3,1.4-1.5,2.6c1-0.1,1.8-1,1.8-2.1C50.3,70.6,50.3,70.4,50,70.4z"/>
			</g>
			<g>
				<path class="st10" d="M54.2,75.1c1,0,1.6-0.6,2.2-1.3h0.4c-0.7,1.2-1.8,2.3-3.5,2.3c-1.2,0-2-0.6-2-2c0-1.5,0.8-4.5,3.4-4.5
					c1.1,0,1.4,0.6,1.4,1.2c0,1.5-1.4,2.6-2.9,2.7c0,0.2,0,0.4,0,0.5C53.2,74.9,53.5,75.1,54.2,75.1z M54.9,70.4
					c-0.6,0-1.3,1.4-1.5,2.6c1-0.1,1.8-1,1.8-2.1C55.2,70.6,55.1,70.4,54.9,70.4z"/>
			</g>
			<g>
				<path class="st10" d="M62.4,69.8l-2.5,1.8c0.1,0,0.3,0,0.4,0c0.9,0,1.4,0.7,1.4,1.5c0,0.2,0,0.3-0.1,0.5l-0.1,0.6
					c0,0.1-0.1,0.3-0.1,0.4c0,0.3,0.1,0.5,0.5,0.5c0.3,0,0.4,0,0.4-0.1c-0.1,0.9-0.8,1.3-1.2,1.3c-1,0-1.6-0.5-1.6-1.4
					c0-0.2,0-0.4,0.1-0.7l0.1-0.5c0-0.2,0-0.3,0-0.5c0-0.4-0.1-0.6-0.5-0.6c-0.3,0-0.6,0.2-0.9,0.5l-0.7,3.1h-1.8l1.8-8.6l1.9-0.3
					l-0.9,4.5l2.4-1.9H62.4z"/>
			</g>
			<g>
				<g>
					<rect x="66.9" y="40.2" class="st3" width="6.4" height="3.3"/>
				</g>
				<g>
					<g>
						<g>
							<path class="st3" d="M41,43.7c-1.9,0-3.1-1.1-3.1-2.8c0-1.2,0.6-2,1.5-2.4c-0.2-0.4-0.3-0.8-0.3-1.3c0-1.6,1.4-2.8,3.3-2.8
								c1.6,0,2.7,0.9,2.7,2.3c0,0.7-0.3,1.3-0.7,1.7c0.3,0.5,0.5,1.1,0.5,1.9C44.7,42.2,43.2,43.7,41,43.7z"/>
						</g>
						<g>
							<path class="st3" d="M43,37.5c-0.2,0-0.3-0.1-0.4-0.2c0.2-0.1,0.4-0.5,0.4-0.8c0-0.3-0.2-0.6-0.7-0.6s-0.8,0.3-0.8,0.8
								c0,1.3,2,1.5,2,3.4c0,1.5-1.2,2.2-2.5,2.2c-1,0-1.9-0.4-1.9-1.5c0-1,0.7-1.5,1.3-1.5c0.3,0,0.8,0.1,0.8,0.6
								c-0.5,0-1,0.2-1,0.8c0,0.4,0.3,0.9,0.9,0.9c0.6,0,1-0.4,1-1.2c0-1.5-1.8-2.1-1.8-3.4c0-0.9,0.9-1.6,2.1-1.6
								c0.4,0,1.4,0.1,1.4,1.1C43.7,37.2,43.4,37.5,43,37.5z"/>
						</g>
						<g>
							<path class="st3" d="M45.2,43.6c-1.6,0-2.6-1-2.6-2.7c0-1.8,1.1-4.4,3.6-4.4c1.3,0,2.2,0.8,2.2,2.1c0,0.4-0.1,0.7-0.2,1
								c0.2,0.1,0.4,0.3,0.5,0.5c0.2,0.4,0.2,0.9,0,1.3C47.8,42.8,46.6,43.6,45.2,43.6z"/>
						</g>
						<g>
							<path class="st3" d="M45.8,41.6c0.7,0,1.1-0.4,1.6-0.9h0.3c-0.5,0.8-1.3,1.6-2.5,1.6c-0.8,0-1.4-0.4-1.4-1.4
								c0-1,0.6-3.2,2.4-3.2c0.8,0,1,0.4,1,0.9c0,1-1,1.8-2.1,1.9c0,0.1,0,0.2,0,0.4C45.1,41.4,45.4,41.6,45.8,41.6z M46.3,38.2
								c-0.5,0-0.9,1-1.1,1.8c0.7,0,1.3-0.7,1.3-1.5C46.5,38.3,46.5,38.2,46.3,38.2z"/>
						</g>
						<g>
							<path class="st3" d="M52.8,43.6c-0.5,0-1-0.2-1.4-0.4c-0.2,0.2-0.5,0.4-0.9,0.4h-1.3c-0.2,0-0.3,0-0.5-0.1
								c-0.1,0.1-0.3,0.1-0.5,0.1H47c-0.4,0-0.7-0.2-1-0.5c-0.2-0.3-0.3-0.7-0.2-1l0.9-4.5c0.1-0.6,0.6-1,1.2-1h1.3
								c0.1,0,0.2,0,0.3,0c0.2-0.1,0.4-0.1,0.7-0.1c0.4,0,0.8,0.1,1.1,0.2c0.3-0.2,0.7-0.2,1.1-0.2c1.3,0,2.2,0.9,2.2,2.2
								c0,0.2,0,0.4-0.1,0.7c0.4,0,0.7,0.2,0.9,0.5c0.2,0.3,0.3,0.7,0.2,1.1C54.9,43.1,53.7,43.6,52.8,43.6z"/>
						</g>
						<g>
							<path class="st3" d="M51.8,38.6c-0.3,0-0.6,0.4-0.7,0.8l-0.6,2.9h-1.3l0.7-3.1c0-0.1,0-0.1,0-0.2c0-0.2-0.1-0.4-0.3-0.4
								c-0.3,0-0.6,0.4-0.7,0.8l-0.6,2.9H47l0.9-4.5h1.3l-0.1,0.5c0.4-0.4,0.8-0.5,1.1-0.5c0.5,0,0.8,0.2,0.9,0.8
								c0.4-0.7,0.9-0.8,1.2-0.8c0.6,0,1,0.3,1,1c0,0.7-0.4,1.8-0.4,2.3c0,0.2,0.1,0.4,0.4,0.4c0.4,0,0.6-0.3,0.7-0.8h0.4
								c-0.5,1.5-1.2,1.6-1.7,1.6c-0.8,0-1.1-0.5-1.1-1c0-0.6,0.4-1.7,0.4-2.3C52.1,38.7,52,38.6,51.8,38.6z"/>
						</g>
						<g>
							<path class="st3" d="M57.3,43.6c-0.4,0-0.8-0.1-1.1-0.3c-0.4,0.2-0.8,0.3-1.1,0.3c-1.2,0-2.4-0.8-2.4-2.7
								c0-1.8,1.1-4.4,3.5-4.4c0.2,0,0.4,0,0.6,0.1c0.1,0,0.1,0,0.2,0h1.3c0.4,0,0.7,0.2,1,0.5s0.3,0.7,0.2,1l-0.3,1.4
								c0.3,0,0.7,0.2,0.9,0.5c0.2,0.3,0.3,0.7,0.2,1.1C59.6,43.2,58.1,43.6,57.3,43.6z"/>
						</g>
						<g>
							<path class="st3" d="M58.4,37.8l-0.6,3c0,0.1,0,0.2,0,0.3c0,0.2,0.1,0.4,0.4,0.4c0.3,0,0.6-0.4,0.7-0.8h0.4
								c-0.5,1.5-1.3,1.6-1.8,1.6c-0.5,0-0.8-0.3-0.9-0.8c-0.3,0.4-0.7,0.8-1.3,0.8c-0.6,0-1.2-0.4-1.2-1.4c0-1.2,0.7-3.1,2.3-3.1
								c0.5,0,0.7,0.2,0.7,0.5v0.1l0.1-0.5H58.4z M55.3,40.8c0,0.7,0.3,0.7,0.4,0.7c0.3,0,0.6-0.3,0.7-0.8l0.4-2
								c0-0.1-0.1-0.3-0.4-0.3C55.8,38.3,55.3,39.9,55.3,40.8z"/>
						</g>
						<g>
							<path class="st3" d="M59.6,43.6c-1.3,0-2.2-0.9-2.2-2.3c0-0.2,0-0.5,0.1-0.8l0.6-2.9c0-0.2,0.1-0.3,0.2-0.5
								c0-0.1-0.1-0.3-0.1-0.5c0-1.1,0.9-2,1.9-2c1.1,0,2,0.9,2,2c0,0.4-0.1,0.8-0.3,1.1c0,0.1,0,0.3,0,0.4l-0.3,1.4
								c0.4,0,0.7,0.2,1,0.5c0.2,0.3,0.3,0.7,0.2,1.1C61.9,43.3,60.3,43.6,59.6,43.6z"/>
						</g>
						<g>
							<path class="st3" d="M60.7,37.8l-0.6,3c0,0.1,0,0.2,0,0.3c0,0.2,0.1,0.3,0.4,0.3c0.3,0,0.7-0.3,0.8-0.8h0.4
								c-0.5,1.5-1.4,1.6-1.9,1.6c-0.5,0-1-0.3-1-1.1c0-0.2,0-0.4,0.1-0.6l0.6-2.9H60.7z M60.3,35.9c0.4,0,0.7,0.3,0.7,0.7
								s-0.3,0.7-0.7,0.7c-0.4,0-0.7-0.3-0.7-0.7S59.9,35.9,60.3,35.9z"/>
						</g>
						<g>
							<path class="st3" d="M64.4,43.6c-0.5,0-1-0.2-1.4-0.4c-0.2,0.2-0.5,0.4-0.9,0.4h-1.3c-0.4,0-0.7-0.2-1-0.5
								c-0.2-0.3-0.3-0.7-0.2-1l0.9-4.5c0.1-0.6,0.6-1,1.2-1H63c0.1,0,0.2,0,0.3,0c0.2-0.1,0.4-0.1,0.6-0.1c1.3,0,2.2,0.9,2.2,2.2
								c0,0.2,0,0.4-0.1,0.7c0.4,0,0.7,0.2,0.9,0.5c0.2,0.3,0.3,0.7,0.2,1.1C66.5,43.1,65.3,43.6,64.4,43.6z"/>
						</g>
						<g>
							<path class="st3" d="M63.4,38.6c-0.3,0-0.6,0.4-0.7,0.8l-0.6,2.9h-1.3l0.9-4.5H63l-0.1,0.5c0.4-0.4,0.8-0.5,1-0.5
								c0.6,0,1,0.3,1,1c0,0.7-0.4,1.8-0.4,2.3c0,0.2,0.1,0.4,0.4,0.4c0.4,0,0.6-0.3,0.7-0.8H66c-0.5,1.5-1.2,1.6-1.7,1.6
								c-0.8,0-1.1-0.5-1.1-1c0-0.6,0.4-1.7,0.4-2.3C63.7,38.7,63.6,38.6,63.4,38.6z"/>
						</g>
						<g>
							<path class="st3" d="M66.9,43.6c-1.6,0-2.6-1-2.6-2.7c0-1.8,1.1-4.4,3.6-4.4c1.3,0,2.2,0.8,2.2,2.1c0,0.7-0.2,1.3-0.6,1.8
								c0.1,0.2,0.2,0.5,0.1,0.8C69.4,42.7,68.4,43.6,66.9,43.6z"/>
						</g>
						<g>
							<path class="st3" d="M67.4,41.5c0.3,0,0.8-0.2,1.1-0.5c-0.2,1-0.8,1.3-1.5,1.3c-0.8,0-1.4-0.4-1.4-1.4c0-1,0.6-3.2,2.4-3.2
								c0.8,0,1,0.4,1,0.9c0,1-1,1.8-2.1,1.9c0,0.1,0,0.2,0,0.3C66.8,41.3,67.1,41.5,67.4,41.5z M68,38.2c-0.4,0-0.9,1-1.1,1.8
								c0.7,0,1.3-0.7,1.3-1.5C68.2,38.3,68.2,38.2,68,38.2z"/>
						</g>
						<g>
							<path class="st3" d="M71.9,43.6c-1.2,0-2.4-0.8-2.4-2.7c0-1.7,1.1-4.2,3.4-4.4l0.1-0.6c0.1-0.5,0.5-0.9,1-1l1.3-0.2
								c0.1,0,0.1,0,0.2,0c0.3,0,0.7,0.1,0.9,0.4c0.3,0.3,0.4,0.7,0.3,1.1L76,39.4c0.3,0,0.7,0.2,0.9,0.5c0.2,0.3,0.3,0.7,0.2,1.1
								c-0.7,2-2,2.4-3,2.4c-0.4,0-0.7-0.1-1-0.2C72.7,43.5,72.3,43.6,71.9,43.6z"/>
						</g>
						<g>
							<path class="st3" d="M75.5,36l-1,4.8c0,0.1,0,0.2,0,0.3c0,0.2,0.1,0.3,0.4,0.3c0.3,0,0.6-0.3,0.7-0.8h0.4
								c-0.5,1.5-1.3,1.6-1.8,1.6s-0.8-0.3-0.9-0.8c-0.3,0.4-0.7,0.8-1.3,0.8c-0.6,0-1.2-0.4-1.2-1.4c0-1.2,0.7-3.1,2.3-3.1
								c0.5,0,0.7,0.2,0.7,0.5v0l0.4-2.1L75.5,36z M73.2,40.7l0.4-2c0-0.1-0.1-0.3-0.4-0.3c-0.8,0-1.2,1.6-1.2,2.4
								c0,0.7,0.3,0.7,0.4,0.7C72.7,41.4,73.1,41.2,73.2,40.7L73.2,40.7z"/>
						</g>
						<g>
							<path class="st3" d="M78.6,43.6c-0.4,0-0.7-0.1-1-0.3c-0.4,0.2-0.7,0.3-1.2,0.3c-1.3,0-2.2-0.9-2.2-2.3c0-0.2,0-0.5,0.1-0.8
								l0.6-2.9c0.1-0.6,0.6-1,1.2-1h1.3c0.2,0,0.3,0,0.5,0.1c0.1-0.1,0.3-0.1,0.5-0.1h1.3c0.4,0,0.7,0.2,1,0.5
								c0.2,0.3,0.3,0.7,0.2,1l-0.5,2.3c0,0,0,0,0,0c0.3,0.3,0.5,0.7,0.5,1.1C80.8,42.7,79.8,43.6,78.6,43.6z"/>
						</g>
						<g>
							<path class="st3" d="M77.4,37.8l-0.6,3c0,0.1,0,0.2,0,0.2c0,0.2,0.1,0.4,0.3,0.4c0.3,0,0.6-0.3,0.7-0.8l0.6-2.9h1.3l-0.6,3
								c0,0.1,0,0.2,0,0.3c0,0.2,0.1,0.3,0.4,0.3c0.2,0,0.2,0,0.3-0.1c0,0.6-0.5,0.9-1,0.9c-0.5,0-0.8-0.3-0.9-0.8
								c-0.4,0.7-1,0.8-1.3,0.8c-0.5,0-1-0.3-1-1.1c0-0.2,0-0.4,0.1-0.6l0.6-2.9H77.4z"/>
						</g>
					</g>
				</g>
				<g>
					<g>
						<path class="st10" d="M43,37.5c-0.2,0-0.3-0.1-0.4-0.2c0.2-0.1,0.4-0.5,0.4-0.8c0-0.3-0.2-0.6-0.7-0.6s-0.8,0.3-0.8,0.8
							c0,1.3,2,1.5,2,3.4c0,1.5-1.2,2.2-2.5,2.2c-1,0-1.9-0.4-1.9-1.5c0-1,0.7-1.5,1.3-1.5c0.3,0,0.8,0.1,0.8,0.6
							c-0.5,0-1,0.2-1,0.8c0,0.4,0.3,0.9,0.9,0.9c0.6,0,1-0.4,1-1.2c0-1.5-1.8-2.1-1.8-3.4c0-0.9,0.9-1.6,2.1-1.6
							c0.4,0,1.4,0.1,1.4,1.1C43.7,37.2,43.4,37.5,43,37.5z"/>
					</g>
					<g>
						<path class="st10" d="M45.8,41.6c0.7,0,1.1-0.4,1.6-0.9h0.3c-0.5,0.8-1.3,1.6-2.5,1.6c-0.8,0-1.4-0.4-1.4-1.4
							c0-1,0.6-3.2,2.4-3.2c0.8,0,1,0.4,1,0.9c0,1-1,1.8-2.1,1.9c0,0.1,0,0.2,0,0.4C45.1,41.4,45.4,41.6,45.8,41.6z M46.3,38.2
							c-0.5,0-0.9,1-1.1,1.8c0.7,0,1.3-0.7,1.3-1.5C46.5,38.3,46.5,38.2,46.3,38.2z"/>
					</g>
					<g>
						<path class="st10" d="M51.8,38.6c-0.3,0-0.6,0.4-0.7,0.8l-0.6,2.9h-1.3l0.7-3.1c0-0.1,0-0.1,0-0.2c0-0.2-0.1-0.4-0.3-0.4
							c-0.3,0-0.6,0.4-0.7,0.8l-0.6,2.9H47l0.9-4.5h1.3l-0.1,0.5c0.4-0.4,0.8-0.5,1.1-0.5c0.5,0,0.8,0.2,0.9,0.8
							c0.4-0.7,0.9-0.8,1.2-0.8c0.6,0,1,0.3,1,1c0,0.7-0.4,1.8-0.4,2.3c0,0.2,0.1,0.4,0.4,0.4c0.4,0,0.6-0.3,0.7-0.8h0.4
							c-0.5,1.5-1.2,1.6-1.7,1.6c-0.8,0-1.1-0.5-1.1-1c0-0.6,0.4-1.7,0.4-2.3C52.1,38.7,52,38.6,51.8,38.6z"/>
					</g>
					<g>
						<path class="st10" d="M58.4,37.8l-0.6,3c0,0.1,0,0.2,0,0.3c0,0.2,0.1,0.4,0.4,0.4c0.3,0,0.6-0.4,0.7-0.8h0.4
							c-0.5,1.5-1.3,1.6-1.8,1.6c-0.5,0-0.8-0.3-0.9-0.8c-0.3,0.4-0.7,0.8-1.3,0.8c-0.6,0-1.2-0.4-1.2-1.4c0-1.2,0.7-3.1,2.3-3.1
							c0.5,0,0.7,0.2,0.7,0.5v0.1l0.1-0.5H58.4z M55.3,40.8c0,0.7,0.3,0.7,0.4,0.7c0.3,0,0.6-0.3,0.7-0.8l0.4-2
							c0-0.1-0.1-0.3-0.4-0.3C55.8,38.3,55.3,39.9,55.3,40.8z"/>
					</g>
					<g>
						<path class="st10" d="M60.7,37.8l-0.6,3c0,0.1,0,0.2,0,0.3c0,0.2,0.1,0.3,0.4,0.3c0.3,0,0.7-0.3,0.8-0.8h0.4
							c-0.5,1.5-1.4,1.6-1.9,1.6c-0.5,0-1-0.3-1-1.1c0-0.2,0-0.4,0.1-0.6l0.6-2.9H60.7z M60.3,35.9c0.4,0,0.7,0.3,0.7,0.7
							s-0.3,0.7-0.7,0.7c-0.4,0-0.7-0.3-0.7-0.7S59.9,35.9,60.3,35.9z"/>
					</g>
					<g>
						<path class="st10" d="M63.4,38.6c-0.3,0-0.6,0.4-0.7,0.8l-0.6,2.9h-1.3l0.9-4.5H63l-0.1,0.5c0.4-0.4,0.8-0.5,1-0.5
							c0.6,0,1,0.3,1,1c0,0.7-0.4,1.8-0.4,2.3c0,0.2,0.1,0.4,0.4,0.4c0.4,0,0.6-0.3,0.7-0.8H66c-0.5,1.5-1.2,1.6-1.7,1.6
							c-0.8,0-1.1-0.5-1.1-1c0-0.6,0.4-1.7,0.4-2.3C63.7,38.7,63.6,38.6,63.4,38.6z"/>
					</g>
					<g>
						<path class="st10" d="M67.4,41.5c0.3,0,0.8-0.2,1.1-0.5c-0.2,1-0.8,1.3-1.5,1.3c-0.8,0-1.4-0.4-1.4-1.4c0-1,0.6-3.2,2.4-3.2
							c0.8,0,1,0.4,1,0.9c0,1-1,1.8-2.1,1.9c0,0.1,0,0.2,0,0.3C66.8,41.3,67.1,41.5,67.4,41.5z M68,38.2c-0.4,0-0.9,1-1.1,1.8
							c0.7,0,1.3-0.7,1.3-1.5C68.2,38.3,68.2,38.2,68,38.2z"/>
					</g>
					<g>
						<path class="st10" d="M75.5,36l-1,4.8c0,0.1,0,0.2,0,0.3c0,0.2,0.1,0.3,0.4,0.3c0.3,0,0.6-0.3,0.7-0.8h0.4
							c-0.5,1.5-1.3,1.6-1.8,1.6c-0.5,0-0.8-0.3-0.9-0.8c-0.3,0.4-0.7,0.8-1.3,0.8c-0.6,0-1.2-0.4-1.2-1.4c0-1.2,0.7-3.1,2.3-3.1
							c0.5,0,0.7,0.2,0.7,0.5v0l0.4-2.1L75.5,36z M73.2,40.7l0.4-2c0-0.1-0.1-0.3-0.4-0.3c-0.8,0-1.2,1.6-1.2,2.4
							c0,0.7,0.3,0.7,0.4,0.7C72.7,41.4,73.1,41.2,73.2,40.7L73.2,40.7z"/>
					</g>
					<g>
						<path class="st10" d="M77.4,37.8l-0.6,3c0,0.1,0,0.2,0,0.2c0,0.2,0.1,0.4,0.3,0.4c0.3,0,0.6-0.3,0.7-0.8l0.6-2.9h1.3l-0.6,3
							c0,0.1,0,0.2,0,0.3c0,0.2,0.1,0.3,0.4,0.3c0.2,0,0.2,0,0.3-0.1c0,0.6-0.5,0.9-1,0.9c-0.5,0-0.8-0.3-0.9-0.8
							c-0.4,0.7-1,0.8-1.3,0.8c-0.5,0-1-0.3-1-1.1c0-0.2,0-0.4,0.1-0.6l0.6-2.9H77.4z"/>
					</g>
				</g>
			</g>
		</g>
	</g>
	<g>
		<path class="st11" d="M39.2,90.8c-0.2,0-0.3,0-0.5-0.1c-0.1-0.1-0.2-0.2-0.2-0.4h0c-0.1,0.2-0.2,0.4-0.3,0.5
			c-0.2,0.1-0.4,0.2-0.6,0.2c-0.3,0-0.6-0.1-0.7-0.3c-0.2-0.2-0.3-0.4-0.3-0.7c0-0.3,0.1-0.6,0.4-0.7c0.2-0.2,0.6-0.2,1.1-0.2h0.5
			v-0.2c0-0.2,0-0.3-0.1-0.4c-0.1-0.1-0.2-0.1-0.5-0.1c-0.2,0-0.4,0-0.5,0.1c-0.1,0.1-0.2,0.2-0.3,0.3l-0.5-0.4
			c0.1-0.2,0.3-0.3,0.5-0.5c0.2-0.1,0.5-0.2,0.9-0.2c0.4,0,0.8,0.1,1,0.3c0.2,0.2,0.4,0.5,0.4,0.9v1.4h0.4v0.7H39.2z M37.8,90.3
			c0.2,0,0.3,0,0.4-0.1c0.1-0.1,0.2-0.2,0.2-0.3v-0.4h-0.5c-0.4,0-0.6,0.1-0.6,0.4V90c0,0.1,0,0.2,0.1,0.3
			C37.6,90.3,37.7,90.3,37.8,90.3z"/>
		<path class="st11" d="M41.2,90.8L40,87.6h1l0.4,1.4l0.3,1.1h0l0.3-1.1l0.4-1.4h0.9l-1.2,3.2H41.2z"/>
		<path class="st11" d="M45.5,90.9c-0.5,0-0.9-0.1-1.2-0.4c-0.3-0.3-0.4-0.7-0.4-1.2c0-0.3,0-0.5,0.1-0.7c0.1-0.2,0.2-0.4,0.3-0.5
			c0.1-0.1,0.3-0.3,0.5-0.3c0.2-0.1,0.4-0.1,0.6-0.1c0.2,0,0.5,0,0.6,0.1c0.2,0.1,0.4,0.2,0.5,0.3c0.1,0.1,0.2,0.3,0.3,0.5
			c0.1,0.2,0.1,0.4,0.1,0.7v0.3h-2.2v0.1c0,0.2,0.1,0.4,0.2,0.5c0.1,0.1,0.3,0.2,0.6,0.2c0.2,0,0.4,0,0.5-0.1
			c0.1-0.1,0.3-0.2,0.4-0.3l0.5,0.5c-0.1,0.2-0.3,0.3-0.5,0.4C46.2,90.8,45.9,90.9,45.5,90.9z M45.5,88.2c-0.2,0-0.4,0.1-0.5,0.2
			c-0.1,0.1-0.2,0.3-0.2,0.5v0h1.3v0c0-0.2-0.1-0.4-0.2-0.5C45.8,88.3,45.7,88.2,45.5,88.2z"/>
		<path class="st11" d="M49.3,90.9c-0.3,0-0.5,0-0.7-0.1c-0.2-0.1-0.4-0.2-0.5-0.3c-0.1-0.1-0.2-0.3-0.3-0.5
			c-0.1-0.2-0.1-0.4-0.1-0.7c0-0.3,0-0.5,0.1-0.7c0.1-0.2,0.2-0.4,0.3-0.5c0.1-0.1,0.3-0.3,0.5-0.3c0.2-0.1,0.4-0.1,0.7-0.1
			c0.4,0,0.6,0.1,0.8,0.2s0.4,0.3,0.5,0.6l-0.7,0.4c-0.1-0.1-0.1-0.2-0.2-0.3c-0.1-0.1-0.2-0.1-0.4-0.1c-0.2,0-0.4,0.1-0.5,0.2
			s-0.2,0.3-0.2,0.5v0.5c0,0.2,0.1,0.4,0.2,0.5c0.1,0.1,0.3,0.2,0.5,0.2c0.2,0,0.3,0,0.4-0.1c0.1-0.1,0.2-0.2,0.3-0.3l0.7,0.4
			c-0.1,0.2-0.3,0.4-0.5,0.6C50,90.8,49.7,90.9,49.3,90.9z"/>
	</g>
	<g>
		<g>
			<path class="st7" d="M97.8,77.9c0.4-0.4,0.3-1-0.1-1.4s-1-0.3-1.4,0.1C95.9,77,89.1,86,89.1,86S97.4,78.3,97.8,77.9z"/>
		</g>
		<g>
			<circle class="st7" cx="101.4" cy="86.7" r="0.9"/>
		</g>
		<g>
			<circle class="st7" cx="48.7" cy="85.1" r="0.8"/>
		</g>
		<g>
			<path class="st7" d="M48.1,80.1c0.5,0.5,2.7,1,2.7,1s-0.6-2.2-1-2.7c-0.5-0.5-1.2-0.5-1.7,0C47.6,78.9,47.6,79.7,48.1,80.1z"/>
		</g>
		<g>
			<path class="st7" d="M72.2,77.6c0.1,0.6,1.6,2.3,1.6,2.3s0.8-2.1,0.7-2.7c-0.1-0.6-0.7-1-1.3-0.9S72,77,72.2,77.6z"/>
		</g>
		<g>
			<path class="st7" d="M81.1,73.9c0.2-0.5-0.1-1.1-0.6-1.2c-0.5-0.2-1.1,0.1-1.2,0.6c-0.2,0.5-2.5,11.5-2.5,11.5S81,74.4,81.1,73.9
				z"/>
		</g>
		<g>
			<path class="st7" d="M88.2,76.4c0.2-0.4,0-0.9-0.4-1.1c-0.4-0.2-0.9,0-1.1,0.4c-0.2,0.4-3.6,8.9-3.6,8.9S88,76.8,88.2,76.4z"/>
		</g>
		<g>
			<path class="st7" d="M103.3,80.9c0.3-0.2,0.4-0.6,0.3-0.9c-0.2-0.3-0.6-0.4-0.9-0.3c-0.3,0.2-6.7,4.5-6.7,4.5
				S103,81.1,103.3,80.9z"/>
		</g>
		<g>
			<path class="st7" d="M67.8,74.8c-0.1-0.4-0.6-0.6-1-0.5c-0.4,0.1-0.6,0.6-0.5,1c0.1,0.4,3.7,8.8,3.7,8.8S67.9,75.2,67.8,74.8z"/>
		</g>
		<g>
			<path class="st7" d="M59.9,77.9c-0.2-0.4-0.7-0.5-1.1-0.3c-0.4,0.2-0.5,0.7-0.3,1.1c0.2,0.4,5.7,7.7,5.7,7.7S60.1,78.2,59.9,77.9
				z"/>
		</g>
	</g>
	<g>
		<g>
			<path class="st10" d="M57.6,85.4l-0.2,1h-2.1l-1.1,5.3h-2l2-9.4c-1.1,0-1.8,0.7-1.8,2.9c0,0.7,0.2,0.8,0.2,1
				c-1,0-1.5-0.4-1.5-1.4c0-1.9,1.3-3.7,4.8-3.7c0.6,0,1.5,0.2,2.3,0.2c0.4,0,0.9,0,1.3-0.2c-0.2,0.6-0.2,1.5-1.3,1.7
				c-0.7,0-1.3-0.1-2-0.3l-0.6,2.8H57.6z"/>
			<path class="st10" d="M60.4,84.7l-0.2,0.9c0.5-0.4,1-0.9,1.7-0.9c0.6,0,1,0.5,1,1.1c0,0.5-0.3,1-1,1c-0.8,0-0.4-0.9-0.8-0.9
				c-0.4,0-0.7,0.2-1,0.5l-1.1,5.4h-2l1.5-7.1H60.4z"/>
			<path class="st10" d="M68.2,86.8c0.1,0,0.1,0,0.2,0c0.7,0,1.6-0.4,2.2-0.8l0.1,0.4c-0.5,0.6-1.5,1-2.5,1.2
				c-0.2,2.6-1.6,4.3-3.4,4.3c-1.3,0-2.3-0.6-2.3-2.2c0-1.6,1-5,3.9-5C67.6,84.6,68.2,85.3,68.2,86.8z M66.9,87.6
				c-0.3-0.1-0.4-0.3-0.4-0.6c0-0.4,0.2-0.7,0.4-0.8c0-0.6-0.2-0.8-0.5-0.8c-1,0-1.9,2.6-1.9,4c0,0.9,0.2,1.1,0.7,1.1
				C66,90.5,66.7,89.3,66.9,87.6z"/>
			<path class="st10" d="M75.9,85.9c-0.5,0-0.9,0.6-1.1,1.3l-1,4.5h-2l1-4.9c0-0.1,0-0.2,0-0.4c0-0.3-0.1-0.6-0.4-0.6
				c-0.6,0-0.9,0.6-1.1,1.3l-1,4.5h-2l1.5-7.1h2l-0.2,0.7c0.6-0.7,1.2-0.8,1.7-0.8c0.7,0,1.3,0.3,1.5,1.2c0.7-1,1.4-1.2,2-1.2
				c0.9,0,1.6,0.5,1.6,1.6c0,1.1-0.7,2.9-0.7,3.6c0,0.4,0.1,0.6,0.6,0.6c0.6,0,0.9-0.5,1.2-1.2h0.6c-0.8,2.3-1.9,2.6-2.6,2.6
				c-1.2,0-1.7-0.8-1.7-1.6c0-1,0.6-2.7,0.6-3.6C76.4,86.2,76.3,85.9,75.9,85.9z"/>
			<path class="st10" d="M86.3,84.7l-1,4.8c0,0.2-0.1,0.3-0.1,0.5c0,0.4,0.2,0.6,0.6,0.6c0.6,0,0.9-0.6,1.1-1.3h0.6
				c-0.8,2.3-2.1,2.6-2.8,2.6c-0.8,0-1.3-0.5-1.4-1.3c-0.4,0.6-1.1,1.3-2.1,1.3c-1,0-1.9-0.6-1.9-2.3c0-1.9,1.2-4.9,3.6-4.9
				c0.8,0,1.1,0.3,1.1,0.7v0.1l0.2-0.7H86.3z M81.4,89.4c0,1.1,0.5,1.1,0.7,1.1c0.4,0,1-0.4,1.2-1.2L84,86c0-0.2-0.1-0.5-0.6-0.5
				C82.2,85.5,81.4,88,81.4,89.4z"/>
			<path class="st10" d="M93.7,84.7l-1.4,6.6c0.9-0.3,1.4-0.8,1.8-2h0.6c-0.6,1.9-1.6,2.4-2.5,2.6l-0.2,1c-0.4,2-1.6,2.4-2.5,2.4
				c-0.9,0-1.6-0.5-1.6-1.4c0-1.2,1.2-1.8,2.3-2.1l0.2-0.7c-0.4,0.4-1,0.8-1.7,0.8c-1,0-1.9-0.6-1.9-2.3c0-1.9,1.2-4.9,3.6-4.9
				c0.8,0,1.1,0.3,1.1,0.7v0.1l0.2-0.7H93.7z M89.1,94.2c0.3,0,0.6-0.4,0.8-1.3l0.1-0.4c-0.7,0.3-1.4,0.6-1.4,1.2
				C88.6,93.9,88.8,94.2,89.1,94.2z M88.9,89.4c0,1.1,0.5,1.1,0.7,1.1c0.4,0,0.9-0.4,1.1-1.1l0.7-3.3c0-0.2-0.1-0.5-0.6-0.5
				C89.6,85.5,88.9,88,88.9,89.4z"/>
			<path class="st10" d="M96.9,90.5c0.5,0,1.2-0.4,1.7-0.7c-0.3,1.6-1.3,2.1-2.4,2.1c-1.3,0-2.2-0.7-2.2-2.2c0-1.6,0.9-5,3.8-5
				c1.3,0,1.6,0.7,1.6,1.4c0,1.6-1.6,2.9-3.3,3c0,0.1,0,0.3,0,0.4C96,90.2,96.4,90.5,96.9,90.5z M97.8,85.3c-0.7,0-1.4,1.6-1.7,2.9
				c1.1-0.1,2.1-1.1,2.1-2.3C98.2,85.5,98.1,85.3,97.8,85.3z"/>
		</g>
		<g>
			<path class="st12" d="M57.6,85.4l-0.2,1h-2.1l-1.1,5.3h-2l2-9.4c-1.1,0-1.8,0.7-1.8,2.9c0,0.7,0.2,0.8,0.2,1
				c-1,0-1.5-0.4-1.5-1.4c0-1.9,1.3-3.7,4.8-3.7c0.6,0,1.5,0.2,2.3,0.2c0.4,0,0.9,0,1.3-0.2c-0.2,0.6-0.2,1.5-1.3,1.7
				c-0.7,0-1.3-0.1-2-0.3l-0.6,2.8H57.6z"/>
			<path class="st12" d="M60.4,84.7l-0.2,0.9c0.5-0.4,1-0.9,1.7-0.9c0.6,0,1,0.5,1,1.1c0,0.5-0.3,1-1,1c-0.8,0-0.4-0.9-0.8-0.9
				c-0.4,0-0.7,0.2-1,0.5l-1.1,5.4h-2l1.5-7.1H60.4z"/>
			<path class="st12" d="M68.2,86.8c0.1,0,0.1,0,0.2,0c0.7,0,1.6-0.4,2.2-0.8l0.1,0.4c-0.5,0.6-1.5,1-2.5,1.2
				c-0.2,2.6-1.6,4.3-3.4,4.3c-1.3,0-2.3-0.6-2.3-2.2c0-1.6,1-5,3.9-5C67.6,84.6,68.2,85.3,68.2,86.8z M66.9,87.6
				c-0.3-0.1-0.4-0.3-0.4-0.6c0-0.4,0.2-0.7,0.4-0.8c0-0.6-0.2-0.8-0.5-0.8c-1,0-1.9,2.6-1.9,4c0,0.9,0.2,1.1,0.7,1.1
				C66,90.5,66.7,89.3,66.9,87.6z"/>
			<path class="st12" d="M75.9,85.9c-0.5,0-0.9,0.6-1.1,1.3l-1,4.5h-2l1-4.9c0-0.1,0-0.2,0-0.4c0-0.3-0.1-0.6-0.4-0.6
				c-0.6,0-0.9,0.6-1.1,1.3l-1,4.5h-2l1.5-7.1h2l-0.2,0.7c0.6-0.7,1.2-0.8,1.7-0.8c0.7,0,1.3,0.3,1.5,1.2c0.7-1,1.4-1.2,2-1.2
				c0.9,0,1.6,0.5,1.6,1.6c0,1.1-0.7,2.9-0.7,3.6c0,0.4,0.1,0.6,0.6,0.6c0.6,0,0.9-0.5,1.2-1.2h0.6c-0.8,2.3-1.9,2.6-2.6,2.6
				c-1.2,0-1.7-0.8-1.7-1.6c0-1,0.6-2.7,0.6-3.6C76.4,86.2,76.3,85.9,75.9,85.9z"/>
			<path class="st12" d="M86.3,84.7l-1,4.8c0,0.2-0.1,0.3-0.1,0.5c0,0.4,0.2,0.6,0.6,0.6c0.6,0,0.9-0.6,1.1-1.3h0.6
				c-0.8,2.3-2.1,2.6-2.8,2.6c-0.8,0-1.3-0.5-1.4-1.3c-0.4,0.6-1.1,1.3-2.1,1.3c-1,0-1.9-0.6-1.9-2.3c0-1.9,1.2-4.9,3.6-4.9
				c0.8,0,1.1,0.3,1.1,0.7v0.1l0.2-0.7H86.3z M81.4,89.4c0,1.1,0.5,1.1,0.7,1.1c0.4,0,1-0.4,1.2-1.2L84,86c0-0.2-0.1-0.5-0.6-0.5
				C82.2,85.5,81.4,88,81.4,89.4z"/>
			<path class="st12" d="M93.7,84.7l-1.4,6.6c0.9-0.3,1.4-0.8,1.8-2h0.6c-0.6,1.9-1.6,2.4-2.5,2.6l-0.2,1c-0.4,2-1.6,2.4-2.5,2.4
				c-0.9,0-1.6-0.5-1.6-1.4c0-1.2,1.2-1.8,2.3-2.1l0.2-0.7c-0.4,0.4-1,0.8-1.7,0.8c-1,0-1.9-0.6-1.9-2.3c0-1.9,1.2-4.9,3.6-4.9
				c0.8,0,1.1,0.3,1.1,0.7v0.1l0.2-0.7H93.7z M89.1,94.2c0.3,0,0.6-0.4,0.8-1.3l0.1-0.4c-0.7,0.3-1.4,0.6-1.4,1.2
				C88.6,93.9,88.8,94.2,89.1,94.2z M88.9,89.4c0,1.1,0.5,1.1,0.7,1.1c0.4,0,0.9-0.4,1.1-1.1l0.7-3.3c0-0.2-0.1-0.5-0.6-0.5
				C89.6,85.5,88.9,88,88.9,89.4z"/>
			<path class="st12" d="M96.9,90.5c0.5,0,1.2-0.4,1.7-0.7c-0.3,1.6-1.3,2.1-2.4,2.1c-1.3,0-2.2-0.7-2.2-2.2c0-1.6,0.9-5,3.8-5
				c1.3,0,1.6,0.7,1.6,1.4c0,1.6-1.6,2.9-3.3,3c0,0.1,0,0.3,0,0.4C96,90.2,96.4,90.5,96.9,90.5z M97.8,85.3c-0.7,0-1.4,1.6-1.7,2.9
				c1.1-0.1,2.1-1.1,2.1-2.3C98.2,85.5,98.1,85.3,97.8,85.3z"/>
		</g>
		<g>
			<g>
				<path class="st7" d="M57.6,85.4l-0.2,1h-2.1l-1.1,5.3h-2l2-9.4c-1.1,0-1.8,0.7-1.8,2.9c0,0.7,0.2,0.8,0.2,1
					c-1,0-1.5-0.4-1.5-1.4c0-1.9,1.3-3.7,4.8-3.7c0.6,0,1.5,0.2,2.3,0.2c0.4,0,0.9,0,1.3-0.2c-0.2,0.6-0.2,1.5-1.3,1.7
					c-0.7,0-1.3-0.1-2-0.3l-0.6,2.8H57.6z"/>
				<path class="st7" d="M60.4,84.7l-0.2,0.9c0.5-0.4,1-0.9,1.7-0.9c0.6,0,1,0.5,1,1.1c0,0.5-0.3,1-1,1c-0.8,0-0.4-0.9-0.8-0.9
					c-0.4,0-0.7,0.2-1,0.5l-1.1,5.4h-2l1.5-7.1H60.4z"/>
				<path class="st7" d="M68.2,86.8c0.1,0,0.1,0,0.2,0c0.7,0,1.6-0.4,2.2-0.8l0.1,0.4c-0.5,0.6-1.5,1-2.5,1.2
					c-0.2,2.6-1.6,4.3-3.4,4.3c-1.3,0-2.3-0.6-2.3-2.2c0-1.6,1-5,3.9-5C67.6,84.6,68.2,85.3,68.2,86.8z M66.9,87.6
					c-0.3-0.1-0.4-0.3-0.4-0.6c0-0.4,0.2-0.7,0.4-0.8c0-0.6-0.2-0.8-0.5-0.8c-1,0-1.9,2.6-1.9,4c0,0.9,0.2,1.1,0.7,1.1
					C66,90.5,66.7,89.3,66.9,87.6z"/>
				<path class="st7" d="M75.9,85.9c-0.5,0-0.9,0.6-1.1,1.3l-1,4.5h-2l1-4.9c0-0.1,0-0.2,0-0.4c0-0.3-0.1-0.6-0.4-0.6
					c-0.6,0-0.9,0.6-1.1,1.3l-1,4.5h-2l1.5-7.1h2l-0.2,0.7c0.6-0.7,1.2-0.8,1.7-0.8c0.7,0,1.3,0.3,1.5,1.2c0.7-1,1.4-1.2,2-1.2
					c0.9,0,1.6,0.5,1.6,1.6c0,1.1-0.7,2.9-0.7,3.6c0,0.4,0.1,0.6,0.6,0.6c0.6,0,0.9-0.5,1.2-1.2h0.6c-0.8,2.3-1.9,2.6-2.6,2.6
					c-1.2,0-1.7-0.8-1.7-1.6c0-1,0.6-2.7,0.6-3.6C76.4,86.2,76.3,85.9,75.9,85.9z"/>
				<path class="st7" d="M86.3,84.7l-1,4.8c0,0.2-0.1,0.3-0.1,0.5c0,0.4,0.2,0.6,0.6,0.6c0.6,0,0.9-0.6,1.1-1.3h0.6
					c-0.8,2.3-2.1,2.6-2.8,2.6c-0.8,0-1.3-0.5-1.4-1.3c-0.4,0.6-1.1,1.3-2.1,1.3c-1,0-1.9-0.6-1.9-2.3c0-1.9,1.2-4.9,3.6-4.9
					c0.8,0,1.1,0.3,1.1,0.7v0.1l0.2-0.7H86.3z M81.4,89.4c0,1.1,0.5,1.1,0.7,1.1c0.4,0,1-0.4,1.2-1.2L84,86c0-0.2-0.1-0.5-0.6-0.5
					C82.2,85.5,81.4,88,81.4,89.4z"/>
				<path class="st7" d="M93.7,84.7l-1.4,6.6c0.9-0.3,1.4-0.8,1.8-2h0.6c-0.6,1.9-1.6,2.4-2.5,2.6l-0.2,1c-0.4,2-1.6,2.4-2.5,2.4
					c-0.9,0-1.6-0.5-1.6-1.4c0-1.2,1.2-1.8,2.3-2.1l0.2-0.7c-0.4,0.4-1,0.8-1.7,0.8c-1,0-1.9-0.6-1.9-2.3c0-1.9,1.2-4.9,3.6-4.9
					c0.8,0,1.1,0.3,1.1,0.7v0.1l0.2-0.7H93.7z M89.1,94.2c0.3,0,0.6-0.4,0.8-1.3l0.1-0.4c-0.7,0.3-1.4,0.6-1.4,1.2
					C88.6,93.9,88.8,94.2,89.1,94.2z M88.9,89.4c0,1.1,0.5,1.1,0.7,1.1c0.4,0,0.9-0.4,1.1-1.1l0.7-3.3c0-0.2-0.1-0.5-0.6-0.5
					C89.6,85.5,88.9,88,88.9,89.4z"/>
				<path class="st7" d="M96.9,90.5c0.5,0,1.2-0.4,1.7-0.7c-0.3,1.6-1.3,2.1-2.4,2.1c-1.3,0-2.2-0.7-2.2-2.2c0-1.6,0.9-5,3.8-5
					c1.3,0,1.6,0.7,1.6,1.4c0,1.6-1.6,2.9-3.3,3c0,0.1,0,0.3,0,0.4C96,90.2,96.4,90.5,96.9,90.5z M97.8,85.3c-0.7,0-1.4,1.6-1.7,2.9
					c1.1-0.1,2.1-1.1,2.1-2.3C98.2,85.5,98.1,85.3,97.8,85.3z"/>
			</g>
		</g>
	</g>
	<g>
		<g>
			<defs>
				<path id="SVGID_1_" d="M95.2,41.3v1.6H81.7l-7.9-4.4l-1.9-1.1L49.5,25c4.9-1.8,4.4-6.2,11.3-6.2C83.5,18.8,95.2,30.6,95.2,41.3z
					"/>
			</defs>
			<clipPath id="SVGID_2_">
				<use xlink:href="#SVGID_1_"  style="overflow:visible;"/>
			</clipPath>
			<g style="clip-path:url(#SVGID_2_);">
				
					<image style="overflow:visible;" width="47" height="25" xlink:href="76AEC2E943305C8B.png"  transform="matrix(1 0 0 1 49 17.91)">
				</image>
			</g>
		</g>
	</g>
	<g>
		<g>
			<g>
				<g>
					<g>
						<g>
							<path class="st11" d="M77.5,8.3h0.3l0.3,0.9h0l0.3-0.9h0.3v1.1h-0.2V8.6h0l-0.3,0.9H78l-0.3-0.9h0v0.9h-0.2V8.3z"/>
						</g>
						<g>
							<path class="st11" d="M78.9,8.3h0.5c0.1,0,0.2,0,0.2,0c0.1,0,0.1,0.1,0.2,0.1c0,0.1,0.1,0.1,0.1,0.2c0,0.1,0,0.1,0,0.2
								c0,0.1,0,0.2,0,0.2c0,0.1,0,0.1-0.1,0.2c0,0.1-0.1,0.1-0.2,0.1c-0.1,0-0.1,0-0.2,0h-0.5V8.3z M79.1,9.3h0.2
								c0.1,0,0.1,0,0.2,0c0,0,0.1,0,0.1-0.1c0,0,0-0.1,0.1-0.1c0,0,0-0.1,0-0.2c0-0.1,0-0.1,0-0.2c0,0,0-0.1-0.1-0.1
								s-0.1-0.1-0.1-0.1c0,0-0.1,0-0.2,0h-0.2V9.3z"/>
						</g>
						<g>
							<path class="st11" d="M80.4,8.3h0.2l-0.5,1.2h-0.2L80.4,8.3z"/>
						</g>
						<g>
							<path class="st11" d="M81.8,8.9c0,0.1,0,0.2,0,0.2c0,0.1-0.1,0.1-0.1,0.2c-0.1,0.1-0.1,0.1-0.2,0.1c-0.1,0-0.1,0-0.2,0
								c-0.1,0-0.2,0-0.2,0c-0.1,0-0.1-0.1-0.2-0.1c-0.1-0.1-0.1-0.1-0.1-0.2c0-0.1,0-0.2,0-0.2c0-0.1,0-0.2,0-0.2
								c0-0.1,0.1-0.1,0.1-0.2c0.1-0.1,0.1-0.1,0.2-0.1c0.1,0,0.1,0,0.2,0c0.1,0,0.2,0,0.2,0c0.1,0,0.1,0.1,0.2,0.1
								c0.1,0.1,0.1,0.1,0.1,0.2C81.8,8.7,81.8,8.8,81.8,8.9z M81.6,8.9c0-0.1,0-0.1,0-0.2c0-0.1-0.1-0.1-0.1-0.2
								c0,0-0.1-0.1-0.1-0.1c-0.1,0-0.1,0-0.2,0c-0.1,0-0.1,0-0.2,0c-0.1,0-0.1,0.1-0.1,0.1c0,0-0.1,0.1-0.1,0.2c0,0.1,0,0.1,0,0.2
								c0,0.1,0,0.1,0,0.2c0,0.1,0.1,0.1,0.1,0.2c0,0,0.1,0.1,0.1,0.1c0.1,0,0.1,0,0.2,0c0.1,0,0.1,0,0.2,0c0.1,0,0.1-0.1,0.1-0.1
								c0,0,0.1-0.1,0.1-0.2S81.6,9,81.6,8.9z M81.1,9.2H81V8.6h0.3c0.1,0,0.1,0,0.2,0c0,0,0.1,0.1,0.1,0.1c0,0.1,0,0.1,0,0.1
								c0,0-0.1,0-0.1,0l0.2,0.3h-0.1L81.2,9h-0.1V9.2z M81.2,8.9C81.2,8.9,81.2,8.9,81.2,8.9c0.1,0,0.1,0,0.1,0c0,0,0,0,0,0
								c0,0,0,0,0-0.1c0,0,0,0,0,0c0,0,0,0,0,0c0,0,0,0,0,0c0,0,0,0,0,0h-0.1v0.2H81.2z"/>
						</g>
					</g>
				</g>
			</g>
			<g>
				<g>
					<path class="st11" d="M39.4,19.6l-3.2,1.1l-0.4-1.2c-0.1-0.2-0.1-0.3-0.1-0.4c0-0.1,0-0.3,0.1-0.4c0.1-0.1,0.1-0.2,0.3-0.3
						c0.1-0.1,0.2-0.2,0.4-0.2c0.2-0.1,0.3-0.1,0.4-0.1c0.1,0,0.3,0,0.4,0.1c0.1,0.1,0.2,0.1,0.3,0.2c0.1,0.1,0.2,0.2,0.2,0.4
						l0.2,0.5l1.2-0.4L39.4,19.6z M37.4,19.5l-0.1-0.4c-0.1-0.2-0.1-0.3-0.2-0.3c-0.1,0-0.2,0-0.3,0l-0.1,0c-0.1,0-0.2,0.1-0.3,0.2
						c0,0.1,0,0.2,0,0.4l0.1,0.4L37.4,19.5z"/>
					<path class="st11" d="M38,17.1l0-0.6l-1.4,0l0,0.6l-0.6,0l0-1.3l0.7,0l0,0c-0.1,0-0.2,0-0.3-0.1c-0.1,0-0.2-0.1-0.2-0.1
						c-0.1-0.1-0.1-0.1-0.2-0.2c0-0.1-0.1-0.2-0.1-0.3l0-0.2l0.7,0l0,0.5c0,0.2,0.1,0.3,0.2,0.4s0.2,0.1,0.4,0.1l0.7,0l0-0.8l0.6,0
						l0.1,2.1L38,17.1z"/>
					<path class="st11" d="M36.3,12.5L36,12.9l-0.8-0.7l0.5-0.5L36.3,12.5z M39,13.3c-0.1,0.4-0.3,0.7-0.6,0.8c-0.3,0.1-0.6,0.2-1,0
						c-0.2-0.1-0.4-0.1-0.5-0.2c-0.1-0.1-0.2-0.2-0.3-0.3c-0.1-0.1-0.1-0.3-0.1-0.4c0-0.2,0-0.3,0.1-0.5c0.1-0.2,0.1-0.3,0.2-0.5
						c0.1-0.1,0.2-0.2,0.3-0.3c0.1-0.1,0.3-0.1,0.4-0.1c0.2,0,0.3,0,0.5,0.1l0.2,0.1l-0.5,1.6l0,0c0.2,0,0.3,0,0.4,0
						s0.2-0.2,0.3-0.4c0-0.1,0.1-0.3,0-0.4s-0.1-0.2-0.1-0.3l0.5-0.2c0.1,0.1,0.1,0.3,0.2,0.5C39.1,12.9,39.1,13.1,39,13.3z
						 M37,12.8c0,0.1,0,0.3,0,0.4c0.1,0.1,0.2,0.2,0.3,0.2l0,0l0.3-1l0,0c-0.2,0-0.3,0-0.4,0S37,12.6,37,12.8z"/>
					<path class="st11" d="M40.1,11c-0.1,0.2-0.3,0.4-0.5,0.5c-0.2,0.1-0.4,0.2-0.5,0.2L39,11.2c0.1,0,0.3-0.1,0.4-0.2
						c0.1-0.1,0.2-0.2,0.3-0.3c0.1-0.1,0.1-0.2,0.1-0.3c0-0.1,0-0.2-0.1-0.2c-0.1,0-0.1,0-0.2,0c-0.1,0-0.1,0.1-0.2,0.2l-0.3,0.3
						c-0.1,0.1-0.2,0.2-0.2,0.2C38.8,11,38.7,11,38.6,11c-0.1,0-0.2,0-0.3,0c-0.1,0-0.2,0-0.3-0.1c-0.2-0.1-0.3-0.3-0.4-0.6
						c0-0.2,0.1-0.5,0.3-0.8c0.1-0.2,0.3-0.4,0.4-0.5c0.1-0.1,0.3-0.2,0.5-0.2L39,9.4c-0.1,0-0.2,0.1-0.3,0.1
						c-0.1,0.1-0.2,0.2-0.3,0.3c-0.1,0.2-0.2,0.4,0,0.5c0.1,0,0.1,0,0.2,0c0.1,0,0.1-0.1,0.2-0.2l0.3-0.3c0.1-0.1,0.2-0.2,0.2-0.2
						c0.1-0.1,0.2-0.1,0.3-0.1c0.1,0,0.2,0,0.3,0c0.1,0,0.2,0,0.3,0.1c0.2,0.1,0.3,0.3,0.4,0.6S40.3,10.7,40.1,11z"/>
					<path class="st11" d="M41.8,8.9c-0.3,0.3-0.6,0.4-0.9,0.4c-0.3,0-0.6-0.2-0.9-0.4c-0.1-0.1-0.3-0.3-0.3-0.4
						c-0.1-0.2-0.1-0.3-0.1-0.5c0-0.2,0-0.3,0.1-0.5c0.1-0.1,0.2-0.3,0.3-0.4c0.1-0.1,0.3-0.2,0.4-0.3c0.1-0.1,0.3-0.1,0.4-0.1
						c0.2,0,0.3,0,0.4,0.1c0.1,0.1,0.3,0.2,0.4,0.3l0.2,0.1l-1.2,1.2l0,0c0.1,0.1,0.2,0.2,0.4,0.2c0.1,0,0.3-0.1,0.4-0.2
						c0.1-0.1,0.2-0.2,0.2-0.3c0-0.1,0-0.2,0-0.4l0.6,0c0,0.2,0,0.3-0.1,0.5C42.1,8.5,42,8.7,41.8,8.9z M40.3,7.4
						c-0.1,0.1-0.2,0.2-0.2,0.4c0,0.1,0.1,0.3,0.2,0.4l0,0l0.7-0.7l0,0c-0.1-0.1-0.2-0.2-0.4-0.2C40.5,7.3,40.4,7.3,40.3,7.4z"/>
					<path class="st11" d="M42.9,7.7l-1.4-2l0.6-0.4l0.3,0.4l0,0c0-0.1,0-0.1,0-0.2c0-0.1,0-0.1,0-0.2c0-0.1,0.1-0.1,0.1-0.2
						c0-0.1,0.1-0.1,0.2-0.2c0.1-0.1,0.2-0.1,0.3-0.1c0.1,0,0.2,0,0.3,0c0.1,0,0.2,0.1,0.3,0.1c0.1,0.1,0.2,0.2,0.3,0.3l0.9,1.3
						l-0.6,0.4l-0.9-1.2c-0.2-0.3-0.4-0.3-0.6-0.2c0,0-0.1,0.1-0.1,0.1c0,0-0.1,0.1-0.1,0.1c0,0,0,0.1,0,0.1c0,0.1,0,0.1,0.1,0.2
						l0.9,1.3L42.9,7.7z"/>
					<path class="st11" d="M46.4,5.6c-0.2,0.1-0.4,0.1-0.6,0.1c-0.2-0.1-0.3-0.2-0.4-0.4l-0.6-1.1l-0.6,0.3L44,4l0.4-0.2
						c0.1,0,0.2-0.1,0.2-0.2c0-0.1,0-0.1,0-0.2l-0.3-0.5l0.6-0.3l0.4,0.8l0.9-0.4l0.3,0.5l-0.9,0.4l0.6,1.2L47,4.7l0.3,0.5L46.4,5.6
						z"/>
					<path class="st11" d="M48.9,4.6c-0.4,0.1-0.7,0.2-1,0c-0.3-0.1-0.5-0.4-0.6-0.8c-0.1-0.2-0.1-0.4-0.1-0.5c0-0.2,0-0.3,0.1-0.5
						c0.1-0.1,0.1-0.3,0.3-0.4c0.1-0.1,0.3-0.2,0.4-0.3c0.2-0.1,0.3-0.1,0.5-0.1c0.2,0,0.3,0,0.4,0.1c0.1,0.1,0.3,0.2,0.4,0.3
						c0.1,0.1,0.2,0.3,0.3,0.5l0.1,0.2l-1.6,0.6l0,0C48,3.9,48.1,4,48.2,4.1c0.1,0.1,0.3,0.1,0.5,0C48.8,4,48.9,3.9,49,3.8
						c0.1-0.1,0.1-0.2,0.2-0.3l0.5,0.3c0,0.1-0.1,0.3-0.3,0.4C49.3,4.3,49.1,4.5,48.9,4.6z M47.9,1.9l-0.5,0l0.1-1l0.7,0.1L47.9,1.9
						z M48.1,2.6c-0.1,0.1-0.2,0.1-0.3,0.3c-0.1,0.1,0,0.3,0,0.4l0,0L48.7,3l0,0c-0.1-0.2-0.1-0.3-0.3-0.3
						C48.3,2.6,48.2,2.6,48.1,2.6z"/>
					<path class="st11" d="M52.6,0.8l0.7-0.1l0.1,0.4l0,0c0-0.2,0.1-0.3,0.2-0.4s0.2-0.2,0.4-0.2c0.1,0,0.3,0,0.4,0
						c0.1,0,0.2,0.1,0.3,0.2c0.1,0.1,0.2,0.2,0.3,0.4c0.1,0.2,0.1,0.3,0.2,0.6c0,0.2,0.1,0.4,0,0.6c0,0.2-0.1,0.3-0.1,0.4
						c-0.1,0.1-0.1,0.2-0.2,0.3C54.8,3,54.7,3,54.5,3.1c-0.2,0-0.4,0-0.5-0.1c-0.1-0.1-0.2-0.2-0.3-0.3l0,0l0.2,1.4l-0.7,0.1
						L52.6,0.8z M54.1,2.6c0.2,0,0.3-0.1,0.3-0.2c0.1-0.1,0.1-0.3,0.1-0.4l-0.1-0.4c0-0.2-0.1-0.3-0.2-0.4c-0.1-0.1-0.2-0.1-0.4-0.1
						c-0.1,0-0.2,0.1-0.3,0.1c-0.1,0.1-0.1,0.2-0.1,0.3l0.1,0.7c0,0.1,0.1,0.2,0.2,0.3C53.9,2.6,54,2.6,54.1,2.6z"/>
					<path class="st11" d="M57.9,2.6c-0.1,0-0.3,0-0.4-0.1c-0.1-0.1-0.2-0.2-0.2-0.3l0,0c0,0.2-0.1,0.3-0.2,0.4
						c-0.1,0.1-0.3,0.2-0.5,0.2c-0.2,0-0.4,0-0.6-0.1c-0.2-0.1-0.2-0.3-0.3-0.5c0-0.3,0.1-0.5,0.2-0.6c0.2-0.1,0.4-0.2,0.8-0.3
						l0.4,0l0-0.1c0-0.1-0.1-0.3-0.1-0.3c-0.1-0.1-0.2-0.1-0.4-0.1c-0.2,0-0.3,0.1-0.4,0.1c-0.1,0.1-0.2,0.1-0.2,0.2l-0.4-0.3
						c0.1-0.1,0.2-0.3,0.4-0.4c0.2-0.1,0.4-0.2,0.7-0.2c0.3,0,0.6,0,0.8,0.2c0.2,0.1,0.3,0.4,0.4,0.7L58,2.1l0.3,0l0,0.5L57.9,2.6z
						 M56.8,2.3c0.1,0,0.2-0.1,0.3-0.1c0.1-0.1,0.1-0.2,0.1-0.3l0-0.3l-0.4,0c-0.3,0-0.4,0.1-0.4,0.3l0,0.1c0,0.1,0,0.1,0.1,0.2
						C56.6,2.3,56.7,2.3,56.8,2.3z"/>
					<path class="st11" d="M58.7,2l0.6,0l0-1.4l-0.6,0l0-0.6L60,0l0,0.7l0,0c0-0.1,0.1-0.2,0.1-0.3c0-0.1,0.1-0.2,0.1-0.2
						c0.1-0.1,0.1-0.1,0.2-0.2C60.6,0,60.7,0,60.8,0L61,0l0,0.7l-0.5,0c-0.2,0-0.3,0.1-0.4,0.2S60,1.1,60,1.2l0,0.7l0.8,0l0,0.6
						l-2.1,0L58.7,2z"/>
				</g>
				<g>
					<ellipse class="st11" cx="60.6" cy="15.9" rx="19.8" ry="11.1"/>
				</g>
				<g>
					<g>
						<path class="st3" d="M44.5,16.4c-0.3,1,0.1,2,1.5,2c0.7,0,1.4-0.4,1.5-1.1c0.2-0.7-0.2-1.1-0.7-1.6l-0.4-0.5
							c-0.6-0.6-1-1.1-0.8-2c0.3-1.2,1.6-2,3.1-2c0.8,0,1.4,0.2,1.9,0.6c1,1-0.2,1.6-0.5,1.6c-0.1,0-0.1,0-0.1,0
							c0.3-0.8,0-1.7-1.1-1.7c-0.6,0-1.4,0.3-1.5,0.9c-0.2,0.6,0.3,1.1,0.7,1.5l0.4,0.4c0.6,0.6,1.1,1.2,0.9,2.1
							c-0.3,1.4-1.7,2.2-3.3,2.2c-0.9,0-1.8-0.3-2.2-0.8C42.8,17,43.9,16.4,44.5,16.4z"/>
					</g>
					<g>
						<path class="st3" d="M55.6,21.6l1.6-3.4h0c0.2,0.5,0.6,0.7,1.3,0.7c2,0,3.4-1.9,3.6-3.4c0,0,0-0.2,0-0.4
							c-0.1-0.7-0.5-1.2-1.5-1.2c-0.7,0-1.4,0.3-1.8,0.7l0,0l0.2-0.4c-0.2-0.4-0.6-0.7-1-0.8l-3.3,7.3
							C54.7,21.1,55.1,21.4,55.6,21.6z M60.4,15.2c-0.1,0.8-1.1,3-2.3,3c-0.5,0-0.6-0.4-0.6-0.7c0.1-0.7,1-3,2.2-3
							C60.2,14.5,60.5,14.8,60.4,15.2z"/>
					</g>
					<g>
						<path class="st3" d="M55.2,18.2c-0.1,0-0.2,0.1-0.2,0.1c-0.2,0-0.2-0.3-0.2-0.4c0-0.2,0.2-0.6,0.3-0.8l1.4-3
							c-0.5-0.2-1-0.2-1.4,0l-0.3,0.6c-0.2-0.5-0.6-0.7-1.3-0.7c-2,0-3.6,1.9-3.8,3.3c-0.1,0.9,0.4,1.6,1.5,1.6
							c0.9,0,1.7-0.5,2.2-1.2l0,0c0,0-0.1,0.2-0.1,0.4c-0.1,0.4,0.3,0.7,0.8,0.7c0.3,0,0.6-0.1,0.9-0.2L55.2,18.2L55.2,18.2z
							 M54.3,15.1c-0.1,0.8-1.2,3-2.5,3c-0.5,0-0.6-0.4-0.6-0.7c0.1-0.8,1.2-2.9,2.4-2.9C54.1,14.5,54.3,14.8,54.3,15.1z"/>
					</g>
					<g>
						<g>
							<path class="st3" d="M67.4,16l0.8-1.6c0,0-0.5,0-0.7,0c-0.2,0-0.7-0.1-0.7-0.1L66.4,15c-0.4,0.7-1.6,3.1-2.7,3.1
								c-0.2,0-0.4-0.1-0.4-0.3c0-0.2,0.9-1.9,0.9-1.9c0.2-0.4,0.5-0.9,0.5-1.3c0.1-0.4-0.3-0.7-0.8-0.7c-0.5,0-1,0.2-1.4,0.5
								c0.1,0.1,0.1,0.2,0.1,0.3c0.2-0.1,0.3-0.1,0.4-0.1c0.2,0,0.2,0.1,0.2,0.2c0,0.2-0.8,1.8-0.8,1.8c-0.2,0.4-0.5,0.9-0.6,1.3
								c-0.1,0.5,0.4,0.9,1,0.9c1.1,0,2-0.7,2.6-1.6l0,0c-0.1,0.3-0.2,0.4-0.2,0.7c-0.1,0.4,0.2,0.8,0.8,0.8c0.5,0,1-0.2,1.4-0.5v0
								c0-0.1-0.1-0.2,0-0.3c0,0,0,0,0,0c-0.1,0.1-0.3,0.2-0.4,0.2c-0.2,0-0.2-0.2-0.2-0.3C66.8,17.3,67.2,16.4,67.4,16z"/>
						</g>
					</g>
					<g>
						<path class="st3" d="M75.7,13.9c-0.7-0.5-2-0.9-4.3-1l0.5-1.2c-0.4-0.2-0.9-0.2-1.4,0L70,13c-1.5,0.1-3.3,0.5-6.5-0.2
							l-0.1,0.1c1.8,0.7,4.6,0.9,6.2,0.9l-1.2,2.5c-0.1,0.2-0.2,0.5-0.4,0.8c-0.2,0.4-0.2,0.7-0.3,0.8c-0.1,0.5,0.4,0.9,1,0.9
							c0.7,0,1.3-0.4,1.8-0.8l0,0c-0.1-0.1-0.1-0.2-0.1-0.3c-0.1,0.1-0.2,0.2-0.3,0.3c-0.2,0.1-0.3,0.2-0.5,0.2
							c-0.3,0-0.3-0.2-0.3-0.4c0-0.3,0.4-1,0.5-1.3l1.2-2.8c1.2-0.1,2.8-0.3,3.6,0.2c-1.2,0.1-2.4,0.5-3.1,1.3
							c-0.4,0.5-0.7,1.1-0.8,1.7c0,0.2,0,0.5,0,0.6c0.2,0.8,0.9,1.3,2,1.3c1.9,0,3.6-1.5,3.8-3c0-0.1,0.2-0.7-0.3-1.4
							c0.6,0.2,1.1,0.6,1.2,0.8c0.3-0.1,0.6-0.4,0.8-0.8C78.1,14.3,77,14,75.7,13.9z M74.1,17.6c-0.9,1.3-2.4,1.3-1.8-0.5
							c0.1-0.3,0.7-2.6,2.7-2.8c0.1,0.1,0.1,0.3,0.2,0.4C75.3,15.4,74.8,16.7,74.1,17.6z"/>
					</g>
				</g>
			</g>
		</g>
	</g>
</g>
</svg>
