<?xml version="1.0" encoding="utf-8"?>
<!-- Generator: Adobe Illustrator 23.0.4, SVG Export Plug-In . SVG Version: 6.00 Build 0)  -->
<svg version="1.1" id="Layer_1" xmlns="http://www.w3.org/2000/svg" xmlns:xlink="http://www.w3.org/1999/xlink" x="0px" y="0px"
	 viewBox="0 0 276.2 93.7" style="enable-background:new 0 0 276.2 93.7;" xml:space="preserve">
<style type="text/css">
	.st0{fill:#4A2B2B;}
	.st1{fill:#ED5D28;}
	.st2{fill:#533636;}
	.st3{fill:#FFFFFF;}
	.st4{fill:#AB7029;}
	.st5{fill:#9C6226;}
	.st6{fill:#B32029;}
	.st7{fill:#FAA21E;}
	.st8{fill:#A9AE38;}
	.st9{fill:#6D1D0E;}
	.st10{fill:#6D1D0E;stroke:#FFFFFF;stroke-width:2.0529;stroke-linecap:round;stroke-linejoin:round;stroke-miterlimit:10;}
	.st11{fill:#411F1F;}
	.st12{fill:none;}
	.st13{fill:none;stroke:#EDEBAE;stroke-width:0.3987;stroke-linecap:round;}
	.st14{fill:#CF3339;}
</style>
<title>logo-registration-page</title>
<g>
	<g id="Layer_1-2">
		<path class="st0" d="M167.2,24.3V2.4h4.8v18.1h9.4v3.9H167.2z"/>
		<path class="st0" d="M193,24.7c-2.7,0-4.8-0.8-6.2-2.3c-1.5-1.7-2.2-3.9-2.1-6.2c0-1.2,0.2-2.4,0.6-3.6c0.3-1,0.9-1.9,1.6-2.7
			c0.7-0.7,1.5-1.3,2.5-1.7c1.1-0.4,2.2-0.6,3.3-0.6c1.1,0,2.2,0.2,3.3,0.6c0.9,0.4,1.8,0.9,2.5,1.7c0.7,0.7,1.2,1.6,1.6,2.6
			c0.4,1.1,0.6,2.3,0.6,3.4v1.4h-11.1v0.3c0,0.9,0.3,1.9,1,2.5c0.8,0.7,1.8,1.1,2.9,1c0.9,0,1.7-0.2,2.5-0.5
			c0.7-0.4,1.3-0.9,1.8-1.5l2.5,2.6c-0.7,0.9-1.6,1.5-2.6,2C196,24.5,194.5,24.8,193,24.7z M192.6,11.1c-0.9,0-1.8,0.3-2.4,0.9
			c-0.6,0.7-0.9,1.6-0.9,2.5v0.3h6.5v-0.3c0-0.9-0.3-1.8-0.9-2.5C194.4,11.4,193.5,11,192.6,11.1L192.6,11.1z"/>
		<path class="st0" d="M166.8,34.1h7.7c1.8-0.1,3.6,0.4,5,1.6c1.2,1.1,1.8,2.7,1.7,4.3c0.1,1.1-0.3,2.1-0.9,3
			c-0.7,0.8-1.6,1.4-2.6,1.6v0.2c1.2,0.2,2.3,0.9,3.1,1.8c0.8,1,1.2,2.2,1.1,3.5c0.1,1.6-0.6,3.2-1.7,4.4c-1.4,1.1-3.1,1.7-4.9,1.6
			h-8.4V34.1z M173.1,43.4c0.8,0.1,1.7-0.1,2.4-0.5c0.6-0.5,0.8-1.3,0.8-2v-1c0.1-0.7-0.2-1.5-0.8-2c-0.7-0.4-1.6-0.6-2.4-0.5h-1.8
			v6L173.1,43.4z M173.7,52.7c0.9,0.1,1.7-0.1,2.5-0.6c0.6-0.5,0.9-1.3,0.8-2.1v-0.9c0.1-0.8-0.2-1.6-0.8-2.1
			c-0.7-0.4-1.6-0.6-2.5-0.6h-2.4v6.2H173.7z"/>
		<path class="st0" d="M195.3,53h-0.2c-0.4,0.9-0.9,1.7-1.7,2.4c-0.9,0.7-2,1.1-3.1,1c-0.7,0-1.5-0.1-2.1-0.4
			c-0.6-0.3-1.2-0.7-1.7-1.2c-0.5-0.6-0.8-1.2-1.1-1.9c-0.3-0.8-0.4-1.7-0.4-2.6V39.8h4.6v9.9c0,2.1,0.9,3.1,2.7,3.1
			c0.4,0,0.7,0,1.1-0.1c0.3-0.1,0.6-0.2,0.9-0.4c0.3-0.2,0.5-0.5,0.6-0.7c0.2-0.3,0.3-0.7,0.2-1V39.8h4.7V56h-4.6L195.3,53z"/>
		<path class="st0" d="M204.4,52.4h3.7v-8.9h-3.7v-3.6h8.4v4.6h0.3c0.1-0.6,0.3-1.2,0.6-1.7c0.3-0.5,0.6-1,1-1.5
			c0.4-0.4,0.9-0.8,1.5-1c0.7-0.3,1.4-0.4,2.1-0.4h1.5v4.3h-3.5c-1-0.1-1.9,0.3-2.6,1c-0.6,0.7-0.9,1.6-0.9,2.5v4.8h5.3V56h-13.8
			V52.4z"/>
		<path class="st0" d="M239.2,57.6c0.1,1.6-0.8,3.1-2.2,3.8c-1.4,0.8-3.7,1.2-6.8,1.2c-1.3,0-2.6-0.1-3.8-0.3
			c-0.8-0.1-1.6-0.4-2.4-0.8c-0.5-0.3-1-0.7-1.3-1.2c-0.2-0.5-0.4-1-0.4-1.5c-0.1-0.8,0.2-1.5,0.8-2.1c0.7-0.5,1.5-0.9,2.3-1.1v-0.2
			c-0.6-0.2-1.2-0.5-1.6-0.9c-0.4-0.4-0.7-1.1-0.6-1.7c-0.1-0.7,0.2-1.3,0.8-1.8c0.6-0.4,1.4-0.7,2.1-0.9v-0.2
			c-0.9-0.4-1.7-1.1-2.2-2c-0.5-0.9-0.8-1.9-0.8-3c0-0.9,0.2-1.7,0.5-2.5c0.3-0.7,0.8-1.3,1.4-1.8c0.7-0.5,1.4-0.9,2.2-1.1
			c0.9-0.3,1.9-0.4,2.9-0.4c1,0,1.9,0.1,2.9,0.3v-0.9c0-0.6,0.2-1.2,0.7-1.6c0.5-0.4,1.2-0.7,1.8-0.6h2.9v3.4h-3.9v0.3
			c0.8,0.4,1.6,1.1,2.1,1.9c0.5,0.9,0.8,1.9,0.7,2.9c0,0.9-0.1,1.7-0.5,2.5c-0.3,0.7-0.8,1.3-1.4,1.8c-0.7,0.5-1.4,0.9-2.3,1.1
			c-0.9,0.3-1.9,0.4-2.9,0.4c-0.5,0-0.9,0-1.4-0.1c-0.4,0-0.8-0.1-1.2-0.2c-0.2,0.1-0.4,0.3-0.6,0.5c-0.2,0.2-0.2,0.5-0.2,0.7
			c0,0.2,0.1,0.4,0.2,0.6c0.1,0.2,0.3,0.3,0.5,0.3c0.2,0.1,0.5,0.1,0.8,0.1c0.3,0,0.6,0,0.9,0h3.7c1,0,2,0.1,3,0.3
			c0.7,0.2,1.4,0.5,2,1c0.5,0.4,0.9,0.9,1.1,1.5C239.1,56.4,239.2,57,239.2,57.6z M234.8,58c0-0.4-0.2-0.8-0.5-1
			c-0.6-0.3-1.3-0.4-1.9-0.4h-5.6c-0.4,0.3-0.6,0.8-0.6,1.3c0,0.5,0.2,1,0.6,1.2c0.7,0.4,1.4,0.6,2.2,0.5h2.7
			c0.8,0.1,1.6-0.1,2.3-0.4C234.5,59,234.8,58.5,234.8,58L234.8,58z M230.1,48c0.7,0.1,1.5-0.2,2-0.7c0.4-0.5,0.7-1.1,0.6-1.8v-0.8
			c0-0.6-0.2-1.3-0.6-1.8c-0.5-0.5-1.3-0.8-2-0.7c-0.7-0.1-1.5,0.2-2,0.7c-0.4,0.5-0.6,1.1-0.6,1.8v0.8c0,0.6,0.2,1.3,0.6,1.8
			C228.6,47.8,229.4,48.1,230.1,48z"/>
		<path class="st0" d="M249.6,56.4c-2.7,0-4.8-0.8-6.2-2.3c-1.5-1.7-2.2-3.9-2.1-6.2c0-1.2,0.2-2.4,0.6-3.6c0.3-1,0.9-1.9,1.6-2.7
			c0.7-0.7,1.5-1.3,2.5-1.7c2.1-0.8,4.4-0.8,6.6,0c0.9,0.4,1.8,0.9,2.4,1.7c0.7,0.7,1.2,1.6,1.6,2.6c0.4,1.1,0.6,2.3,0.5,3.4V49
			h-11.1v0.3c0,0.9,0.3,1.9,1,2.5c0.8,0.7,1.8,1.1,2.9,1c0.9,0,1.7-0.2,2.5-0.5c0.7-0.4,1.3-0.9,1.8-1.5l2.5,2.7
			c-0.7,0.8-1.6,1.5-2.6,2C252.5,56.1,251.1,56.4,249.6,56.4z M249.2,42.8c-0.9,0-1.8,0.3-2.4,0.9c-0.6,0.7-0.9,1.6-0.9,2.5v0.2h6.5
			v-0.2c0.1-0.9-0.3-1.8-0.9-2.5C250.9,43,250.1,42.7,249.2,42.8z"/>
		<path class="st0" d="M260.9,52.4h3.7v-8.9h-3.7v-3.6h8.4v4.6h0.2c0.1-0.6,0.4-1.2,0.6-1.7c0.3-0.5,0.6-1,1-1.5
			c0.4-0.4,0.9-0.8,1.5-1c0.7-0.3,1.4-0.4,2.1-0.4h1.5v4.3h-3.5c-1-0.1-1.9,0.3-2.6,1c-0.6,0.7-0.9,1.6-0.9,2.5v4.8h5.3V56h-13.7
			V52.4z"/>
		<path class="st1" d="M166,87.7l-1.4-21.9h4l0.6,13.1l0.2,4.2h0.3l1.9-12.5h4.4l1.9,12.5h0.3l0.2-4l0.6-13.3h3.9l-1.4,21.9h-6
			l-1.6-12.1h-0.3L172,87.7H166z"/>
		<path class="st1" d="M193,88.1c-2.7,0-4.8-0.8-6.2-2.3c-1.5-1.7-2.2-3.9-2.1-6.2c0-1.2,0.2-2.4,0.6-3.6c0.3-1,0.9-1.9,1.6-2.7
			c0.7-0.7,1.5-1.3,2.5-1.7c1.1-0.4,2.2-0.6,3.3-0.6c1.1,0,2.2,0.2,3.3,0.6c0.9,0.4,1.8,0.9,2.4,1.7c0.7,0.7,1.2,1.6,1.6,2.6
			c0.4,1.1,0.6,2.3,0.6,3.4v1.4h-11.1V81c0,0.9,0.3,1.9,1,2.5c0.8,0.7,1.8,1.1,2.9,1c0.9,0,1.7-0.2,2.5-0.6c0.7-0.4,1.3-0.9,1.8-1.5
			l2.5,2.7c-0.7,0.8-1.6,1.5-2.6,2C196,87.8,194.5,88.1,193,88.1z M192.6,74.4c-0.9,0-1.8,0.3-2.4,0.9c-0.6,0.7-0.9,1.6-0.9,2.5v0.2
			h6.5v-0.2c0.1-0.9-0.3-1.8-0.9-2.5C194.4,74.7,193.5,74.4,192.6,74.4L192.6,74.4z"/>
		<path class="st1" d="M211.9,88.1c-2.7,0-4.8-0.8-6.2-2.3c-1.5-1.7-2.2-3.9-2.1-6.2c0-1.2,0.2-2.4,0.6-3.6c0.3-1,0.9-1.9,1.6-2.7
			c0.7-0.7,1.5-1.3,2.5-1.7c2.1-0.8,4.4-0.8,6.6,0c0.9,0.4,1.8,0.9,2.4,1.7c0.7,0.8,1.2,1.6,1.6,2.6c0.4,1.1,0.6,2.3,0.6,3.4v1.4
			h-11.1V81c0,0.9,0.3,1.9,1,2.5c0.8,0.7,1.8,1.1,2.9,1c0.9,0,1.7-0.2,2.5-0.6c0.7-0.4,1.3-0.9,1.8-1.5l2.5,2.7
			c-0.7,0.8-1.6,1.5-2.6,2C214.9,87.9,213.4,88.1,211.9,88.1z M211.5,74.4c-0.9,0-1.8,0.3-2.4,0.9c-0.6,0.7-0.9,1.6-0.9,2.5v0.2h6.5
			v-0.2c0.1-0.9-0.3-1.8-0.9-2.5C213.3,74.7,212.4,74.4,211.5,74.4z"/>
		<path class="st1" d="M222.9,64.4h4.6v13.2h0.2l2.2-2.5l3.4-3.6h5.3l-6.3,6.4l6.9,9.8h-5.5l-4.7-7.2l-1.5,1.5v5.6h-4.6V64.4z"/>
		<rect x="136.9" y="3.2" class="st2" width="4" height="87.2"/>
	</g>
</g>
<g>
	<g>
		<path class="st3" d="M60.9,92.6H42.1c-3.1,0-5.6-2.5-5.6-5.6l0,0h19.9L60.9,92.6z"/>
	</g>
	<g>
		<g>
			<g>
				<g>
					<g>
						<path class="st3" d="M106.3,57.8c2.7,0,4.7-2,4.7-4.7c0-2.7-2-4.8-4.6-4.8c-0.7,0-1.4,0.1-2,0.4c-0.4-0.2-0.8-0.4-1.3-0.4H102
							c0-0.5-0.1-0.9-0.1-1.2c0.1-0.3,0.2-0.6,0.2-0.9v-1.8c0-0.2,0-0.4-0.1-0.5c0-0.2,0-0.3,0-0.5v-1.6c0-6.3-3.5-12.6-9.6-17.1
							c-6.8-5-16.1-7.7-27.1-7.7c-8,0-14.8,1.4-20.3,3.8c-11,4.7-16.8,13.1-16.8,21.1v0.3c-3.5,2.1-5.6,5.1-5.7,8.3
							c-2.9,0.5-5.7,2.8-5.7,5.7c0,1.4,0.6,2.6,1.7,3.2L17.9,62c-0.2,0.8,0.1,1.6,0.6,2.2c0.5,0.6,1.3,0.9,2.1,0.8h0
							c0.3,0,1.1,0.6,1.6,1c0.6,0.4,1.2,0.9,1.9,1.3c-0.3,0.4-0.4,0.9-0.4,1.4l0.1,1.1c-0.2,0.4-0.3,0.8-0.2,1.2l0.1,1.8
							c0,0.7,0.3,1.3,0.8,1.7c0.5,0.4,1.1,0.7,1.8,0.6l1.2-0.1c0.1,0,0.1,0,0.2,0c0.2,0,0.2,0,0.5,0.2v0.3
							c0,13.1,11.5,13.1,21.7,13.1h30.5c10.2,0,21.7,0,21.7-13.1V74c0-0.5-0.1-0.9-0.4-1.3c0.8-0.4,1.4-0.9,1.9-1.2
							c0.7-0.5,0.7-0.5,1.1-0.5l1.2-0.1c0.7,0,1.3-0.3,1.7-0.8c0.4-0.5,0.7-1.1,0.6-1.8l-0.1-1.8c0-0.4-0.2-0.8-0.4-1.2l-0.1-1.1
							c0-0.7-0.3-1.3-0.8-1.7c-0.5-0.4-1.1-0.7-1.8-0.6l-0.9,0c-0.3,0-0.6,0-0.8,0.1l1-4.7C104.9,57.7,105.7,57.8,106.3,57.8z"/>
					</g>
				</g>
				<g>
					<g>
						<path class="st4" d="M99.5,41.8c0-10.6-11.6-22.3-34.2-22.3c-22.6,0-34.7,11.8-34.7,22.3v1.6h68.9V41.8z"/>
					</g>
				</g>
				<g>
					<g>
						<g>
							<path class="st5" d="M57.8,22.6h-2.2c-0.1,0-0.2,0.1-0.3,0.2c0,0.1-0.1,0.2-0.1,0.5c0,0.2,0.1,0.4,0.1,0.5
								c0,0.1,0.1,0.2,0.3,0.2h2.2c0.1,0,0.2-0.1,0.3-0.2c0-0.1,0.1-0.2,0.1-0.5c0-0.2-0.1-0.4-0.1-0.5C58,22.7,57.9,22.6,57.8,22.6
								z"/>
						</g>
					</g>
					<g>
						<g>
							<path class="st5" d="M66.2,22.6H64c-0.1,0-0.2,0.1-0.3,0.2c0,0.1-0.1,0.2-0.1,0.5c0,0.2,0.1,0.4,0.1,0.5
								c0,0.1,0.1,0.2,0.3,0.2h2.2c0.1,0,0.2-0.1,0.3-0.2c0-0.1,0.1-0.2,0.1-0.5c0-0.2-0.1-0.4-0.1-0.5
								C66.4,22.7,66.3,22.6,66.2,22.6z"/>
						</g>
					</g>
					<g>
						<g>
							<path class="st5" d="M74.6,22.6h-2.2c-0.1,0-0.2,0.1-0.3,0.2c0,0.1-0.1,0.2-0.1,0.5c0,0.2,0.1,0.4,0.1,0.5
								c0,0.1,0.1,0.2,0.3,0.2h2.2c0.1,0,0.2-0.1,0.3-0.2c0-0.1,0.1-0.2,0.1-0.5c0-0.2-0.1-0.4-0.1-0.5
								C74.8,22.7,74.7,22.6,74.6,22.6z"/>
						</g>
					</g>
					<g>
						<g>
							<path class="st5" d="M53.6,27.6h-2.2c-0.1,0-0.2,0.1-0.3,0.2c0,0.1-0.1,0.2-0.1,0.5c0,0.2,0,0.4,0.1,0.5
								c0,0.1,0.1,0.2,0.3,0.2h2.2c0.1,0,0.2-0.1,0.3-0.2c0-0.1,0.1-0.2,0.1-0.5c0-0.2-0.1-0.4-0.1-0.5
								C53.8,27.7,53.7,27.6,53.6,27.6z"/>
						</g>
					</g>
					<g>
						<g>
							<path class="st5" d="M62,27.6h-2.2c-0.1,0-0.2,0.1-0.3,0.2c0,0.1-0.1,0.2-0.1,0.5c0,0.2,0.1,0.4,0.1,0.5
								c0,0.1,0.1,0.2,0.3,0.2H62c0.1,0,0.2-0.1,0.3-0.2c0-0.1,0.1-0.2,0.1-0.5c0-0.2-0.1-0.4-0.1-0.5C62.2,27.7,62.1,27.6,62,27.6z
								"/>
						</g>
					</g>
					<g>
						<g>
							<path class="st5" d="M45.3,27.6h-2.2c-0.1,0-0.2,0.1-0.3,0.2c0,0.1-0.1,0.2-0.1,0.5c0,0.2,0.1,0.4,0.1,0.5
								c0,0.1,0.1,0.2,0.3,0.2h2.2c0.1,0,0.2-0.1,0.3-0.2c0-0.1,0.1-0.2,0.1-0.5c0-0.2-0.1-0.4-0.1-0.5
								C45.5,27.7,45.4,27.6,45.3,27.6z"/>
						</g>
					</g>
					<g>
						<g>
							<path class="st5" d="M70.4,27.6h-2.2c-0.1,0-0.2,0.1-0.3,0.2c0,0.1-0.1,0.2-0.1,0.5c0,0.2,0.1,0.4,0.1,0.5
								c0,0.1,0.1,0.2,0.3,0.2h2.2c0.1,0,0.2-0.1,0.3-0.2c0-0.1,0.1-0.2,0.1-0.5c0-0.2-0.1-0.4-0.1-0.5
								C70.6,27.7,70.5,27.6,70.4,27.6z"/>
						</g>
					</g>
					<g>
						<g>
							<path class="st5" d="M78.7,27.6h-2.2c-0.1,0-0.2,0.1-0.3,0.2c0,0.1-0.1,0.2-0.1,0.5c0,0.2,0.1,0.4,0.1,0.5
								c0,0.1,0.1,0.2,0.3,0.2h2.2c0.1,0,0.2-0.1,0.3-0.2c0-0.1,0.1-0.2,0.1-0.5c0-0.2-0.1-0.4-0.1-0.5
								C78.9,27.7,78.8,27.6,78.7,27.6z"/>
						</g>
					</g>
					<g>
						<g>
							<path class="st5" d="M87.1,27.6h-2.2c-0.1,0-0.2,0.1-0.3,0.2c0,0.1-0.1,0.2-0.1,0.5c0,0.2,0.1,0.4,0.1,0.5
								c0,0.1,0.1,0.2,0.3,0.2h2.2c0.1,0,0.2-0.1,0.3-0.2c0-0.1,0.1-0.2,0.1-0.5c0-0.2-0.1-0.4-0.1-0.5
								C87.3,27.7,87.2,27.6,87.1,27.6z"/>
						</g>
					</g>
					<g>
						<g>
							<path class="st5" d="M57.8,32.8h-2.2c-0.1,0-0.2,0.1-0.3,0.2c0,0.1-0.1,0.2-0.1,0.5c0,0.2,0.1,0.4,0.1,0.5
								c0,0.1,0.1,0.2,0.3,0.2h2.2c0.1,0,0.2-0.1,0.3-0.2c0-0.1,0.1-0.2,0.1-0.5c0-0.2-0.1-0.4-0.1-0.5C58,32.9,57.9,32.8,57.8,32.8
								z"/>
						</g>
					</g>
					<g>
						<g>
							<path class="st5" d="M66.2,32.8H64c-0.1,0-0.2,0.1-0.3,0.2c0,0.1-0.1,0.2-0.1,0.5c0,0.2,0.1,0.4,0.1,0.5
								c0,0.1,0.1,0.2,0.3,0.2h2.2c0.1,0,0.2-0.1,0.3-0.2c0-0.1,0.1-0.2,0.1-0.5c0-0.2-0.1-0.4-0.1-0.5
								C66.4,32.9,66.3,32.8,66.2,32.8z"/>
						</g>
					</g>
					<g>
						<g>
							<path class="st5" d="M74.6,32.8h-2.2c-0.1,0-0.2,0.1-0.3,0.2c0,0.1-0.1,0.2-0.1,0.5c0,0.2,0.1,0.4,0.1,0.5
								c0,0.1,0.1,0.2,0.3,0.2h2.2c0.1,0,0.2-0.1,0.3-0.2c0-0.1,0.1-0.2,0.1-0.5c0-0.2-0.1-0.4-0.1-0.5
								C74.8,32.9,74.7,32.8,74.6,32.8z"/>
						</g>
					</g>
					<g>
						<g>
							<path class="st5" d="M62,37.8h-2.2c-0.1,0-0.2,0.1-0.3,0.2c0,0.1-0.1,0.2-0.1,0.5c0,0.2,0.1,0.4,0.1,0.5
								c0,0.1,0.1,0.2,0.3,0.2H62c0.1,0,0.2-0.1,0.3-0.2c0-0.1,0.1-0.2,0.1-0.5c0-0.2-0.1-0.4-0.1-0.5C62.2,37.9,62.1,37.8,62,37.8z
								"/>
						</g>
					</g>
					<g>
						<g>
							<path class="st5" d="M70.4,37.8h-2.2c-0.1,0-0.2,0.1-0.3,0.2c0,0.1-0.1,0.2-0.1,0.5c0,0.2,0.1,0.4,0.1,0.5
								c0,0.1,0.1,0.2,0.3,0.2h2.2c0.1,0,0.2-0.1,0.3-0.2c0-0.1,0.1-0.2,0.1-0.5c0-0.2-0.1-0.4-0.1-0.5
								C70.6,37.9,70.5,37.8,70.4,37.8z"/>
						</g>
					</g>
					<g>
						<g>
							<path class="st5" d="M82.9,32.8h-2.2c-0.1,0-0.2,0.1-0.3,0.2c0,0.1-0.1,0.2-0.1,0.5c0,0.2,0.1,0.4,0.1,0.5
								c0,0.1,0.1,0.2,0.3,0.2h2.2c0.1,0,0.2-0.1,0.3-0.2c0-0.1,0.1-0.2,0.1-0.5c0-0.2-0.1-0.4-0.1-0.5C83.1,32.9,83,32.8,82.9,32.8
								z"/>
						</g>
					</g>
					<g>
						<g>
							<path class="st5" d="M91.5,33c0-0.1-0.1-0.2-0.3-0.2H89c-0.1,0-0.2,0.1-0.3,0.2c0,0.1-0.1,0.2-0.1,0.5c0,0.2,0.1,0.4,0.1,0.5
								c0,0.1,0.1,0.2,0.3,0.2h2.2c0.1,0,0.2-0.1,0.3-0.2c0-0.1,0.1-0.2,0.1-0.5C91.6,33.2,91.5,33,91.5,33z"/>
						</g>
					</g>
					<g>
						<g>
							<path class="st5" d="M87.1,37.8h-2.3c-0.1,0-0.2,0.1-0.3,0.2c0,0.1-0.1,0.2-0.1,0.5c0,0.2,0.1,0.4,0.1,0.5
								c0,0.1,0.1,0.2,0.3,0.2h2.3c0.1,0,0.2-0.1,0.3-0.2c0-0.1,0.1-0.2,0.1-0.5c0-0.2-0.1-0.4-0.1-0.5
								C87.3,37.9,87.2,37.8,87.1,37.8z"/>
						</g>
					</g>
					<g>
						<g>
							<path class="st5" d="M78.7,37.8h-2.2c-0.1,0-0.2,0.1-0.3,0.2c0,0.1-0.1,0.2-0.1,0.5c0,0.2,0.1,0.4,0.1,0.5
								c0,0.1,0.1,0.2,0.3,0.2h2.2c0.1,0,0.2-0.1,0.3-0.2c0-0.1,0.1-0.2,0.1-0.5C79,38.2,79,38,79,38C78.9,37.9,78.8,37.8,78.7,37.8
								z"/>
						</g>
					</g>
					<g>
						<g>
							<path class="st5" d="M41.1,32.8h-2.2c-0.1,0-0.2,0.1-0.3,0.2c0,0.1-0.1,0.2-0.1,0.5c0,0.2,0.1,0.4,0.1,0.5
								c0,0.1,0.1,0.2,0.3,0.2h2.2c0.1,0,0.2-0.1,0.3-0.2c0-0.1,0.1-0.2,0.1-0.5c0-0.2-0.1-0.4-0.1-0.5
								C41.3,32.9,41.2,32.8,41.1,32.8z"/>
						</g>
					</g>
					<g>
						<g>
							<path class="st5" d="M49.4,32.8h-2.2c-0.1,0-0.2,0.1-0.3,0.2c0,0.1-0.1,0.2-0.1,0.5c0,0.2,0.1,0.4,0.1,0.5
								c0,0.1,0.1,0.2,0.3,0.2h2.2c0.1,0,0.2-0.1,0.3-0.2c0-0.1,0.1-0.2,0.1-0.5c0-0.2-0.1-0.4-0.1-0.5
								C49.7,32.9,49.6,32.8,49.4,32.8z"/>
						</g>
					</g>
					<g>
						<g>
							<path class="st5" d="M45.2,37.8h-2.2c-0.1,0-0.2,0.1-0.3,0.2c0,0.1-0.1,0.2-0.1,0.5c0,0.2,0.1,0.4,0.1,0.5
								c0,0.1,0.1,0.2,0.3,0.2h2.2c0.1,0,0.2-0.1,0.3-0.2c0-0.1,0.1-0.2,0.1-0.5c0-0.2-0.1-0.4-0.1-0.5
								C45.5,37.9,45.4,37.8,45.2,37.8z"/>
						</g>
					</g>
					<g>
						<g>
							<path class="st5" d="M53.8,37.8c0,0-0.1-0.1-0.2-0.1h-2.2c-0.1,0-0.2,0.1-0.3,0.2c0,0.1-0.1,0.2-0.1,0.5c0,0.2,0,0.4,0.1,0.5
								c0,0.1,0.1,0.2,0.3,0.2h2.2h0c0.1,0,0.2-0.1,0.3-0.2c0-0.1,0.1-0.2,0.1-0.5c0-0.2-0.1-0.4-0.1-0.5
								C53.9,37.9,53.8,37.9,53.8,37.8z"/>
						</g>
					</g>
				</g>
				<g>
					<g>
						<path class="st6" d="M99.5,50.8c0,0.7,0,1.2-0.7,1.2H31.3c-0.7,0-0.7-0.5-0.7-1.2v-2.3c0-0.7,0-1.2,0.7-1.2h67.5
							c0.7,0,0.7,0.5,0.7,1.2V50.8z"/>
					</g>
				</g>
				<g>
					<g>
						<rect x="30.6" y="44.4" class="st7" width="68.9" height="1.8"/>
					</g>
				</g>
				<g>
					<g>
						<polygon class="st7" points="75.2,45.1 65.2,51 54.9,45.1 						"/>
					</g>
				</g>
				<g>
					<g>
						<path class="st4" d="M30.6,74v1.6c0,10.6,8.6,10.6,19.2,10.6h30.5c10.6,0,19.2-0.1,19.2-10.6V74H30.6z"/>
					</g>
				</g>
				<g>
					<g>
						<g>
							<path class="st8" d="M34,76c0,1.7,0.1,2.8,2.4,1.7c2.3-1.2,5.1-2.7,11-2.6c-2.2,0.6-4.7,1.8-5,3.3c-0.3,1.5,1.3,2.2,4.6,1.4
								c0.4,1.4,1.8,2.9,4.7,0.4c2.9-2.6,4.6-3.6,6-4.1c1.4-0.5,1.8,0.3,0.3,1.2c-1.5,0.9-2.9,1.4-3.2,2.4c-0.3,1,0,2.7,2.6,1.9
								c0,1.8,0.5,3.3,2.7,3.3c2.2,0,3.1-1.2,3.1-3.3c1.4,0.8,3.5,1.3,3.6-1.5c0.1-2.8,1.4-4.1,2.7-4.7c1.3-0.6,1.5,0.6,0.6,0.9
								c-1.1,0.5-1.6,1.3-1.7,2.2c0,1.1,2,2.9,4,0.8c0.2,1.2,2.4,2,3.2-0.5s1-4.1,3.3-4.2c-1.6,0.6-2.6,2.9-0.5,3.7
								c2,0.8,3.1-1.2,3.3-1.8c0.3-0.6,0.9-2,2.8-1.9c-1.7,0.7-1.7,3.3,0,3.5c1.7,0.1,2.3-0.4,3.6-1.5c1.3-1.2,3.8-2.4,7-1.9
								c-0.6,1.7,0.5,2.3,1.6,2.1c1.3-0.2,1.1-1.6,1.5-2.6H32.7v0C31.6,74.7,30.9,77.4,34,76z"/>
						</g>
					</g>
				</g>
				<g>
					<g>
						<path class="st6" d="M27.2,70.2c1.2-0.1,1.8,0.2,2.7,0.8c1.1,0.6,2.6,1.5,5.2,1.3c2.6-0.1,4-1.1,5-1.9c0.8-0.6,1.3-1,2.6-1
							c1.2-0.1,1.8,0.2,2.7,0.8c1.1,0.6,2.6,1.5,5.2,1.3c2.6-0.1,4-1.1,5-1.9c0.8-0.6,1.3-1,2.6-1c1.2-0.1,1.8,0.2,2.7,0.8
							c1.1,0.6,2.6,1.5,5.2,1.3c2.6-0.1,4-1.1,5-1.9c0.8-0.6,1.3-1,2.6-1c1.2-0.1,1.8,0.2,2.7,0.8c1.1,0.6,2.6,1.5,5.2,1.3
							c2.6-0.1,4-1.1,5-1.9c0.8-0.6,1.3-1,2.6-1c1.2-0.1,1.8,0.2,2.7,0.8c1.1,0.6,2.6,1.5,5.2,1.3c2.6-0.1,4-1.1,5-1.9
							c0.8-0.6,1.3-1,2.6-1l0.9,0l-0.1-1.7l-0.9,0c-2.7,0.1-4.1,1.2-5.2,1.9c-0.8,0.6-1.3,0.9-2.4,1c-1.1,0.1-1.6-0.2-2.5-0.7
							c-1.1-0.6-2.6-1.5-5.4-1.4c-2.7,0.1-4.1,1.2-5.2,1.9c-0.8,0.6-1.3,0.9-2.4,1c-1.1,0.1-1.6-0.2-2.5-0.7
							c-1.1-0.6-2.6-1.5-5.4-1.4c-2.7,0.1-4.1,1.2-5.2,1.9c-0.8,0.6-1.3,0.9-2.4,1c-1.1,0.1-1.6-0.2-2.5-0.7
							c-1.1-0.6-2.6-1.5-5.4-1.4c-2.7,0.1-4.1,1.2-5.2,1.9c-0.8,0.6-1.3,0.9-2.4,1c-1.1,0.1-1.6-0.2-2.5-0.7
							c-1.1-0.6-2.6-1.5-5.4-1.4c-2.7,0.1-4.1,1.2-5.2,1.9c-0.8,0.6-1.3,0.9-2.4,1c-1.1,0.1-1.6-0.2-2.5-0.7
							c-1.1-0.6-2.6-1.5-5.4-1.4l-0.9,0l0.1,1.7L27.2,70.2z"/>
					</g>
				</g>
				<g>
					<g>
						<path class="st6" d="M102.1,67.6c-1.1,0.8-2.5,1.8-5.3,2c-2.8,0.2-4.4-0.7-5.5-1.4c-0.9-0.5-1.3-0.7-2.3-0.7
							c-1.1,0.1-1.5,0.3-2.2,0.9c-1.1,0.8-2.5,1.8-5.3,2c-2.8,0.2-4.4-0.7-5.5-1.4c-0.8-0.5-1.3-0.7-2.3-0.7
							c-1.1,0.1-1.5,0.3-2.2,0.9c-1.1,0.8-2.5,1.8-5.3,2c-2.8,0.2-4.4-0.8-5.5-1.4c-0.9-0.5-1.3-0.7-2.3-0.7
							c-1.1,0.1-1.5,0.3-2.2,0.9c-1.1,0.8-2.5,1.8-5.3,2c-2.8,0.2-4.4-0.8-5.5-1.4c-0.8-0.5-1.3-0.7-2.3-0.7
							c-1.1,0.1-1.5,0.3-2.2,0.9c-1.1,0.8-2.5,1.8-5.3,2c-2.8,0.2-4.4-0.8-5.5-1.4c-0.8-0.5-1.3-0.7-2.3-0.7L26,70.9l0.1,1.8
							l1.2-0.1c1.1-0.1,1.6,0.2,2.5,0.7c1.1,0.6,2.6,1.5,5.4,1.4c2.7-0.1,4.1-1.2,5.2-1.9c0.8-0.6,1.3-0.9,2.4-1
							c1.1-0.1,1.6,0.2,2.5,0.7c1.1,0.6,2.6,1.5,5.4,1.4c2.7-0.1,4.1-1.2,5.2-1.9c0.8-0.6,1.3-0.9,2.4-1c1.1-0.1,1.6,0.2,2.5,0.7
							c1.1,0.6,2.6,1.5,5.4,1.4c2.7-0.1,4.1-1.2,5.2-1.9c0.8-0.6,1.3-0.9,2.4-1c1.1-0.1,1.6,0.2,2.5,0.7c1.1,0.6,2.6,1.5,5.4,1.4
							c2.7-0.1,4.1-1.2,5.2-1.9c0.8-0.6,1.3-0.9,2.4-1c1.1-0.1,1.6,0.2,2.5,0.7c1.1,0.6,2.6,1.5,5.4,1.4c2.7-0.1,4.1-1.2,5.2-1.9
							c0.8-0.6,1.3-0.9,2.4-1l1.2-0.1l-0.1-1.8l-1.2,0.1C103.3,66.7,102.9,67,102.1,67.6z"/>
					</g>
				</g>
				<g>
					<g>
						<path class="st9" d="M52.3,67l-0.9,2.6l-0.6,1.8l-0.2,0.6L49.9,74l0,0.1l-0.2,0.7V67H48l-0.6,1.8l-0.7,2l-0.2,0.6L46,73
							l-0.4,1l-0.2,0.7l0-0.7l0-1.4l0-1.7l0-0.7l0-2.2l0-1c-0.2,0-0.3,0-0.5,0c-0.9,0-1.9,0.3-2.7,0.8c-1,0.6-1.7,1.5-1.7,2.4v0
							c0,0.3,0,0.5,0.1,0.6c0.2,0.4,0.6,0.6,1.2,0.6c0-0.1-0.2-0.2-0.2-0.8c0-0.1,0-0.2,0-0.4c0-0.2,0.1-0.5,0.1-0.7
							c0.3-0.8,0.9-1.4,1.9-1.7v8.6h1.8l0.2-0.6l0.2-0.6l0.4-1.1l0.3-0.7l0.6-1.6l0.2-0.6l0.5-1.2v6.4h1.9l0.9-2.3l0-0.1l0.7-1.9
							l0.2-0.7l0.9-2.3l0.8-2H52.3z"/>
					</g>
					<g>
						<path class="st3" d="M49.7,77.4h-1.9c-0.6,0-1-0.5-1-1v-0.9l-0.5,1.3c-0.2,0.4-0.5,0.7-1,0.7h-1.8c-0.6,0-1-0.5-1-1V72
							c0,0-0.1,0.1-0.1,0.1c-0.2,0.2-0.5,0.3-0.8,0.3c-1.3,0-1.9-0.6-2.1-1.1c-0.1-0.3-0.2-0.7-0.2-1.1c0-1.3,0.8-2.4,2.2-3.3
							c1-0.6,2.2-1,3.3-1c0.2,0,0.4,0,0.6,0c0.5,0,0.9,0.5,1,1l0,1.8l0.7-2.1c0.1-0.4,0.5-0.7,1-0.7h1.6c0.6,0,1,0.5,1,1v1.6l0.7-2
							c0.1-0.4,0.5-0.7,1-0.7h0.9c0.3,0,0.7,0.2,0.8,0.4c0.2,0.3,0.2,0.6,0.1,0.9l-3.5,9.3C50.6,77.1,50.2,77.4,49.7,77.4z
							 M48.4,69.1c0.1,0,0.2,0.1,0.2,0.2v-0.9L48.4,69.1z"/>
					</g>
				</g>
				<g>
					<g>
						<path class="st10" d="M56.3,74.1c-0.1,0.1-0.1,0.1-0.2,0.2c-0.6,0.6-1.2,1.1-2.1,1.1c-0.6,0-0.9-0.2-0.9-1.1
							c0-0.1,0-0.2,0-0.3c0-0.1,0-0.1,0-0.2c1.3-0.1,2.4-0.9,2.8-2c0.1-0.2,0.1-0.4,0.1-0.7c0-0.4-0.1-0.7-0.4-1
							c-0.2-0.1-0.4-0.2-0.7-0.2c-0.1,0-0.1,0-0.2,0c-1.1,0-1.8,0.5-2.4,1.2c-0.2,0.2-0.3,0.5-0.4,0.7c-0.3,0.6-0.5,1.4-0.6,1.9
							c0,0.1,0,0.1,0,0.1c0,0.1,0,0.3,0,0.4c0,1.4,0.8,2,2,2c1.3,0,2.2-0.7,2.9-1.5c0.2-0.3,0.4-0.5,0.6-0.8H56.3z M54.8,70.6
							c0.1,0,0.1,0,0.2,0.1c0.1,0.1,0.1,0.2,0.1,0.5c0,1-0.9,2-1.8,2.1c0.1-0.7,0.4-1.5,0.7-2C54.3,70.9,54.5,70.6,54.8,70.6z"/>
					</g>
				</g>
				<g>
					<g>
						<path class="st10" d="M61.1,74.1c-0.6,0.7-1.2,1.3-2.2,1.3c-0.6,0-0.9-0.2-0.9-1.1c0-0.1,0-0.2,0-0.3c0-0.1,0-0.1,0-0.2
							c1.3-0.1,2.4-0.9,2.8-2c0.1-0.2,0.1-0.4,0.1-0.7c0-0.6-0.3-1.2-1.4-1.2c-1.1,0-1.8,0.5-2.4,1.2c-0.6,0.9-0.9,2-1,2.8
							c0,0.1,0,0.2,0,0.3c0,0.1,0,0.1,0,0.1c0,0.2,0,0.3,0,0.5c0.1,0.8,0.5,1.2,1.2,1.4c0.2,0.1,0.5,0.1,0.8,0.1
							c0.4,0,0.7-0.1,1-0.2c0.8-0.2,1.4-0.7,1.8-1.3c0.2-0.3,0.4-0.6,0.6-0.9H61.1z M59.6,70.6c0.2,0,0.3,0.2,0.3,0.5
							c0,0.1,0,0.1,0,0.2c-0.1,1-0.9,1.8-1.8,1.9c0.2-0.8,0.5-1.7,0.9-2.2C59.2,70.8,59.4,70.6,59.6,70.6z"/>
					</g>
				</g>
				<g>
					<g>
						<path class="st9" d="M66,74.7c0-0.1,0-0.3,0.1-0.4l0.1-0.3l0.1-0.3c0-0.2,0.1-0.3,0.1-0.5c0,0,0-0.1,0-0.1
							c-0.1-0.7-0.5-1.3-1.4-1.3c-0.1,0-0.3,0-0.4,0l0.8-0.5h0l0.9-0.7l0.8-0.5h-1.2L65,70.7l-0.7,0.6L63.4,72l0.2-0.9l0.1-0.6
							l0.4-1.8l0.2-1.1l-1.9,0.3h0L62,70l-0.1,0.6l-0.3,1.6L61.1,74l0,0.1L60.9,75l-0.3,1.4h1.8l0.5-2.3l0.2-0.8
							c0.2-0.1,0.3-0.2,0.4-0.3c0.2-0.1,0.3-0.2,0.5-0.2c0.2,0,0.4,0.1,0.4,0.3c0,0.1,0,0.2,0,0.3c0,0.1,0,0.3-0.1,0.5l0,0.2
							l-0.1,0.3c0,0.2-0.1,0.5-0.1,0.6c0,0.9,0.6,1.4,1.6,1.4c0.3,0,1.1-0.4,1.2-1.3c-0.1,0-0.1,0.1-0.4,0.1
							C66.1,75.2,66,75,66,74.7z"/>
					</g>
					<g>
						<path class="st3" d="M65.8,77.5c-1.1,0-1.9-0.4-2.3-1.2l-0.1,0.3c-0.1,0.5-0.5,0.8-1,0.8h-1.8c-0.3,0-0.6-0.1-0.8-0.4
							c-0.2-0.2-0.3-0.6-0.2-0.9l1.8-8.5c0.1-0.4,0.5-0.8,0.9-0.8l1.8-0.3c0.3,0,0.7,0.1,0.9,0.3c0.2,0.2,0.3,0.6,0.3,0.9l-0.3,1.6
							l0.2-0.1c0.2-0.1,0.4-0.2,0.6-0.2H67c0.4,0,0.8,0.3,1,0.7c0.1,0.4,0,0.9-0.4,1.1l-0.9,0.6c0.3,0.4,0.5,0.9,0.6,1.5
							c0,0.1,0,0.1,0,0.2c0,0.2,0,0.5-0.1,0.7l0,0.2c0.1,0,0.3,0.1,0.4,0.2c0.3,0.2,0.5,0.6,0.4,0.9C67.9,76.7,66.6,77.5,65.8,77.5z
							"/>
					</g>
				</g>
				<g>
					<g>
						<path class="st11" d="M52.3,67l-0.9,2.6l-0.6,1.8l-0.2,0.6L49.9,74l0,0.1l-0.2,0.7V67H48l-0.6,1.8l-0.7,2l-0.2,0.6L46,73
							l-0.4,1l-0.2,0.7l0-0.7l0-1.4l0-1.7l0-0.7l0-2.2l0-1c-0.2,0-0.3,0-0.5,0c-0.9,0-1.9,0.3-2.7,0.8c-1,0.6-1.7,1.5-1.7,2.4v0
							c0,0.3,0,0.5,0.1,0.6c0.2,0.4,0.6,0.6,1.2,0.6c0-0.1-0.2-0.2-0.2-0.8c0-0.1,0-0.2,0-0.4c0-0.2,0.1-0.5,0.1-0.7
							c0.3-0.8,0.9-1.4,1.9-1.7v8.6h1.8l0.2-0.6l0.2-0.6l0.4-1.1l0.3-0.7l0.6-1.6l0.2-0.6l0.5-1.2v6.4h1.9l0.9-2.3l0-0.1l0.7-1.9
							l0.2-0.7l0.9-2.3l0.8-2H52.3z"/>
					</g>
				</g>
				<g>
					<g>
						<path class="st11" d="M56.3,74.1c-0.1,0.1-0.1,0.1-0.2,0.2c-0.6,0.6-1.2,1.1-2.1,1.1c-0.6,0-0.9-0.2-0.9-1.1
							c0-0.1,0-0.2,0-0.3c0-0.1,0-0.1,0-0.2c1.3-0.1,2.4-0.9,2.8-2c0.1-0.2,0.1-0.4,0.1-0.7c0-0.4-0.1-0.7-0.4-1
							c-0.2-0.1-0.4-0.2-0.7-0.2c-0.1,0-0.1,0-0.2,0c-1.1,0-1.8,0.5-2.4,1.2c-0.2,0.2-0.3,0.5-0.4,0.7c-0.3,0.6-0.5,1.4-0.6,1.9
							c0,0.1,0,0.1,0,0.1c0,0.1,0,0.3,0,0.4c0,1.4,0.8,2,2,2c1.3,0,2.2-0.7,2.9-1.5c0.2-0.3,0.4-0.5,0.6-0.8H56.3z M54.8,70.6
							c0.1,0,0.1,0,0.2,0.1c0.1,0.1,0.1,0.2,0.1,0.5c0,1-0.9,2-1.8,2.1c0.1-0.7,0.4-1.5,0.7-2C54.3,70.9,54.5,70.6,54.8,70.6z"/>
					</g>
				</g>
				<g>
					<g>
						<path class="st11" d="M61.1,74.1c-0.6,0.7-1.2,1.3-2.2,1.3c-0.6,0-0.9-0.2-0.9-1.1c0-0.1,0-0.2,0-0.3c0-0.1,0-0.1,0-0.2
							c1.3-0.1,2.4-0.9,2.8-2c0.1-0.2,0.1-0.4,0.1-0.7c0-0.6-0.3-1.2-1.4-1.2c-1.1,0-1.8,0.5-2.4,1.2c-0.6,0.9-0.9,2-1,2.8
							c0,0.1,0,0.2,0,0.3c0,0.1,0,0.1,0,0.1c0,0.2,0,0.3,0,0.5c0.1,0.8,0.5,1.2,1.2,1.4c0.2,0.1,0.5,0.1,0.8,0.1
							c0.4,0,0.7-0.1,1-0.2c0.8-0.2,1.4-0.7,1.8-1.3c0.2-0.3,0.4-0.6,0.6-0.9H61.1z M59.6,70.6c0.2,0,0.3,0.2,0.3,0.5
							c0,0.1,0,0.1,0,0.2c-0.1,1-0.9,1.8-1.8,1.9c0.2-0.8,0.5-1.7,0.9-2.2C59.2,70.8,59.4,70.6,59.6,70.6z"/>
					</g>
				</g>
				<g>
					<g>
						<path class="st11" d="M66,74.7c0-0.1,0-0.3,0.1-0.4l0.1-0.3l0.1-0.3c0-0.2,0.1-0.3,0.1-0.5c0,0,0-0.1,0-0.1
							c-0.1-0.7-0.5-1.3-1.4-1.3c-0.1,0-0.3,0-0.4,0l0.8-0.5h0l0.9-0.7l0.8-0.5h-1.2L65,70.7l-0.7,0.6L63.4,72l0.2-0.9l0.1-0.6
							l0.4-1.8l0.2-1.1l-1.9,0.3h0L62,70l-0.1,0.6l-0.3,1.6L61.1,74l0,0.1L60.9,75l-0.3,1.4h1.8l0.5-2.3l0.2-0.8
							c0.2-0.1,0.3-0.2,0.4-0.3c0.2-0.1,0.3-0.2,0.5-0.2c0.2,0,0.4,0.1,0.4,0.3c0,0.1,0,0.2,0,0.3c0,0.1,0,0.3-0.1,0.5l0,0.2
							l-0.1,0.3c0,0.2-0.1,0.5-0.1,0.6c0,0.9,0.6,1.4,1.6,1.4c0.3,0,1.1-0.4,1.2-1.3c-0.1,0-0.1,0.1-0.4,0.1
							C66.1,75.2,66,75,66,74.7z"/>
					</g>
				</g>
			</g>
		</g>
		<g>
			<g>
				<path class="st9" d="M41.6,52.2c0.1-0.1,0.3-0.1,0.4-0.2c2-1.2,3-3,3.1-4.7c0,0,0-0.1,0-0.1c0-0.3,0-0.6-0.1-0.9
					c-0.1-0.6-0.4-1.3-0.9-1.8c-0.3-0.4-0.7-0.7-1.1-1c-1.2-0.8-3-1.3-5.3-1.3c-2.3,0-4.5,0.5-6.5,1.3c-3.6,1.5-6.2,4.3-6.2,7.1
					c0,2.1,1.4,2.9,3.7,2.9c0-0.3-0.5-0.5-0.5-2.2c0-2.4,1-4.2,2.4-5.5c0.6-0.6,1.4-1,2.2-1.4c1.3-0.6,2.8-0.9,4.2-0.9
					c1.5,0,2.6,0.3,3.3,0.9c0.7,0.5,1,1.1,1.2,1.8c0.1,0.2,0.1,0.5,0.1,0.8c0,0.1,0,0.2,0,0.3c-0.1,2-1.7,4.1-3.9,4.7
					c-0.4,0.1-0.8,0.2-1.2,0.2h-0.2l0-0.2l1.1-4.7l0.2-1l0.3-1.2l-5.2,0.6l-0.1,0.5l-0.2,1L31.3,52L28,66h5l2.9-12.2
					c0.6-0.1,1.3-0.1,1.6-0.1c2.6,0,3.3,1.8,3.3,4c0,2.4-0.9,5.7-3.5,5.7c-0.8,0-1.5-0.3-2.3-1.1c-0.3,0.7-0.5,1.3-0.5,1.9
					c0,1.9,2,2.4,3.5,2.4c5.8,0,7.7-6.1,7.7-9.2C45.7,55,44.6,52.8,41.6,52.2z"/>
			</g>
			<g>
				<path class="st3" d="M38.1,67.8c-1.8,0-3.1-0.5-3.9-1.3c-0.2,0.5-0.6,0.8-1.1,0.8h-5c-0.4,0-0.7-0.2-0.9-0.5
					c-0.2-0.3-0.3-0.7-0.2-1l2.7-11.4c-0.2,0.2-0.5,0.3-0.8,0.3c-4.3,0-4.9-2.6-4.9-4.1c0-3.3,2.7-6.4,6.9-8.2
					c2.2-0.9,4.6-1.4,7-1.4c2.5,0,4.5,0.5,6,1.5c0.5,0.4,1,0.8,1.4,1.3c0.6,0.7,0.9,1.5,1.1,2.3c0.1,0.4,0.1,0.8,0.1,1.2
					c0,0.1,0,0.1,0,0.2c-0.1,1.7-0.8,3.3-2.2,4.6c1.8,1.1,2.8,3,2.8,5.5c0,1.7-0.5,4.2-1.8,6.4C43.5,66.4,41,67.8,38.1,67.8z
					 M35.8,64.3c0.1,0.7,0.9,1,2.3,1c5.3,0,6.5-5.9,6.5-8c0-1.5-0.5-3.5-3.1-4c-0.5-0.1-0.9-0.5-1-1c0-0.2,0-0.4,0.1-0.6
					c-0.4,0.4-0.9,0.7-1.4,0.9c1.9,0.6,2.9,2.4,2.9,5c0,3.3-1.5,6.9-4.7,6.9C36.8,64.7,36.3,64.6,35.8,64.3z M29.5,64.8h2.6
					l2.7-11.3c0.1-0.3,0.3-0.6,0.5-0.7c-0.2-0.3-0.2-0.6-0.1-0.9l0-0.2l1.2-5.2l-2.6,0.3l-1.3,5.5L29.5,64.8z M35.4,61.2
					c0.2,0.1,0.3,0.1,0.5,0.3c0.8,0.8,1.2,0.8,1.5,0.8c1.7,0,2.3-2.8,2.3-4.5c0-2.5-1-2.8-2.1-2.8c-0.1,0-0.4,0-0.6,0L35.4,61.2z
					 M31.3,46.8c-1.3,1.2-1.9,2.7-1.9,4.5c0,0.9,0.1,1.2,0.2,1.3c0.1,0.1,0.1,0.2,0.2,0.4L31.3,46.8z M28.4,46.4
					c-1.5,1.2-2.3,2.7-2.3,4.1c0,0.5,0,1.1,0.9,1.5c0-0.2,0-0.5,0-0.7C27,49.5,27.5,47.8,28.4,46.4z M41.7,44.1
					c0.5,0.5,0.8,1.2,1,1.9c0.1,0.3,0.1,0.7,0.1,1c0,0.1,0,0.3,0,0.4c-0.1,1.3-0.7,2.7-1.6,3.7c0.1,0,0.2-0.1,0.2-0.1
					c1.5-0.9,2.5-2.3,2.5-3.7c0,0,0-0.1,0-0.1c0-0.2,0-0.4-0.1-0.7c-0.1-0.5-0.3-0.9-0.6-1.3c-0.2-0.3-0.5-0.5-0.9-0.8
					C42.1,44.3,41.9,44.2,41.7,44.1z M39.2,45.2c0,0.1,0,0.1,0,0.2l-1.2,5.3c1.4-0.7,2.4-2.2,2.5-3.5c0-0.1,0-0.1,0-0.2
					c0-0.2,0-0.3-0.1-0.5c-0.1-0.4-0.3-0.8-0.7-1.1C39.5,45.3,39.3,45.2,39.2,45.2z"/>
			</g>
		</g>
		<g>
			<g>
				<path class="st9" d="M61.2,60.6C61.1,60.6,61.1,60.6,61.2,60.6c-0.5,1.5-1.3,2.7-2.5,2.7c-0.8,0-1.2-0.3-1.2-1.1
					c0-0.3,0-0.6,0.1-1l1.9-9.2l0.2-1.2h-4.4L55.1,52l-1.8,8.6c-0.5,1.5-1.2,2.7-2.4,2.7c-0.7,0-0.9-0.5-0.9-1.2
					c0-0.3,0-0.5,0.1-0.8L52,52l0.2-1.2h-4.4L47.6,52l-1.8,8.6c-0.2,0.7-0.2,1.4-0.2,2c0,2.6,1.4,3.6,3.3,3.6c1.3,0,3-0.4,4.5-2.9
					c0.2,1.9,1.3,2.9,3,2.9c1.1,0,2.6-0.3,4-1.9c0.8-0.8,1.5-2,2.1-3.8H61.2z"/>
			</g>
			<g>
				<path class="st3" d="M56.3,67.2c-1.5,0-2.7-0.6-3.4-1.7c-1.2,1.2-2.5,1.7-4.1,1.7c-2.1,0-4.3-1.2-4.3-4.7c0-0.6,0.1-1.3,0.3-2.2
					l2.1-9.8c0.1-0.5,0.5-0.8,1-0.8h4.4c0.3,0,0.6,0.1,0.8,0.4c0.2,0.2,0.3,0.6,0.2,0.9l-2.2,10.3c0,0.2-0.1,0.4-0.1,0.6
					c0,0.1,0,0.2,0,0.2c0.7-0.1,1.2-1.4,1.3-1.9l2.1-9.7c0.1-0.5,0.5-0.8,1-0.8h4.4c0.3,0,0.6,0.1,0.8,0.4c0.2,0.2,0.3,0.6,0.2,0.9
					l-2.2,10.3c-0.1,0.3-0.1,0.5-0.1,0.8c0,0,0,0.1,0,0.1c0.1,0,0.1,0,0.2,0c0.8,0,1.3-1.4,1.5-1.9c0-0.1,0-0.1,0.1-0.2
					c0.2-0.3,0.5-0.6,0.9-0.6h1.3c0.3,0,0.6,0.2,0.8,0.4c0.2,0.3,0.2,0.6,0.1,0.9C62.8,62.6,62,64,61.1,65
					C59.8,66.5,58.2,67.2,56.3,67.2z M53.7,62.4c0.4,0.1,0.6,0.5,0.6,0.9c0.1,1.3,0.8,2,2,2c1,0,1.8-0.3,2.6-0.9c-0.1,0-0.2,0-0.2,0
					c-2,0-2.3-1.3-2.3-2.2c0-0.4,0-0.8,0.2-1.2l1.9-9.1h-2.3l-1.9,8.9c0,0,0,0.1,0,0.1C54.1,61.5,53.9,62,53.7,62.4z M48.7,51.9
					l-1.9,8.9c-0.1,0.7-0.2,1.3-0.2,1.8c0,1.7,0.7,2.6,2.2,2.6c0.7,0,1.5-0.1,2.4-0.9c-0.1,0-0.3,0-0.4,0c-0.9,0-1.9-0.6-1.9-2.3
					c0-0.3,0-0.7,0.1-1l1.9-9.1H48.7z M58.5,62.3L58.5,62.3L58.5,62.3z M61.1,60.6L61.1,60.6L61.1,60.6z"/>
			</g>
		</g>
		<g>
			<g>
				<path class="st9" d="M72.7,52c-0.3-0.7-0.9-1.2-1.9-1.2c-1.1,0-2,0.5-2.8,1.2c-0.3,0.2-0.6,0.5-0.9,0.7l0.2-0.7l0.2-1.2h-4.4
					L63,52l-1.8,8.6l-0.8,3.7L60,66h4.4l2.4-11.5c0.8-0.7,1.3-1.2,2.2-1.2c0.9,0,0.1,2,1.8,2c1.5,0,2.2-1.2,2.2-2.2
					C73,52.7,72.9,52.3,72.7,52z"/>
			</g>
			<g>
				<path class="st3" d="M64.4,67.1H60c-0.3,0-0.6-0.1-0.8-0.4c-0.2-0.2-0.3-0.6-0.2-0.9l3.2-15.2c0.1-0.5,0.5-0.8,1-0.8h4.4
					c0.3,0,0.6,0.1,0.8,0.4c0.1,0.1,0.1,0.2,0.2,0.3c0.7-0.4,1.4-0.6,2.3-0.6c1.2,0,2.3,0.7,2.8,1.7c0.2,0.5,0.3,1,0.3,1.6
					c0,1.6-1.1,3.2-3.2,3.2c-1.7,0-2.1-1.3-2.2-1.9c-0.2,0.1-0.5,0.3-0.8,0.6l-2.4,11.2C65.3,66.7,64.9,67.1,64.4,67.1z M61.3,65
					h2.3l2.3-10.7c0-0.2,0.2-0.4,0.3-0.5c0.1-0.1,0.2-0.2,0.3-0.3c-0.2-0.2-0.3-0.6-0.3-0.9l0.1-0.6H64L61.3,65z M70.7,54.3
					c0,0,0.1,0,0.1,0c1.1,0,1.2-1,1.2-1.2c0-0.2-0.1-0.5-0.1-0.7c0,0,0,0,0,0c-0.2-0.4-0.5-0.6-0.9-0.6c-0.5,0-1,0.1-1.5,0.5
					c0.9,0.2,1.1,1.2,1.2,1.6C70.6,54,70.6,54.2,70.7,54.3z M70.6,54.3L70.6,54.3L70.6,54.3z"/>
			</g>
		</g>
		<g>
			<g>
				<path class="st10" d="M86.8,60.6c-0.3,1.1-0.7,1.9-1.2,2.5c-0.7,0.9-1.5,1.4-2.6,1.8L85.7,52l0.2-1.2h-4.4L81.3,52l-0.1,0.4
					v-0.2c0-0.1,0-0.2,0-0.2c-0.1-0.8-0.9-1.3-2.4-1.3c-1.5,0-2.7,0.5-3.8,1.3c-2.7,2.1-4,6.4-4,9.3c0,2.9,1.3,4.3,2.9,4.7
					c0.4,0.1,0.8,0.2,1.2,0.2c0.2,0,0.3,0,0.5,0c1.3-0.1,2.4-0.8,3.1-1.6l-0.4,1.6c-0.4,0.1-0.9,0.3-1.3,0.5
					c-0.8,0.3-1.6,0.7-2.2,1.3c-0.2,0.2-0.4,0.3-0.5,0.5c-0.5,0.5-0.8,1.1-0.9,1.8c0,0.2,0,0.3,0,0.5c0,2,1.5,2.9,3.4,2.9
					c1.2,0,2.5-0.3,3.6-1.3c0.5-0.5,0.9-1.1,1.3-1.9c0.1-0.2,0.2-0.4,0.3-0.6c0.1-0.4,0.3-0.8,0.4-1.3l0.1-0.5l0.4-1.7
					c1.1-0.3,2.3-0.8,3.4-2c0.8-0.8,1.5-2,2-3.7H86.8z M77,63.3c-0.5,0-1.5,0-1.5-2.4c0-2.9,1.7-8.3,4.3-8.3c1,0,1.2,0.8,1.2,1.1
					l-1.6,7.2C79,62.4,77.8,63.3,77,63.3z M76,71.3c-0.6,0-1-0.5-1-0.9c0,0,0-0.1,0-0.1c0-0.5,0.2-0.9,0.6-1.3
					c0.2-0.1,0.3-0.3,0.5-0.4c0.5-0.3,1.1-0.6,1.8-0.9l-0.2,0.9c-0.1,0.3-0.1,0.5-0.2,0.7c-0.1,0.2-0.1,0.4-0.2,0.6
					c-0.3,0.7-0.6,1.1-0.9,1.3C76.3,71.2,76.2,71.3,76,71.3z"/>
			</g>
		</g>
		<g>
			<g>
				<path class="st10" d="M97.4,60.6c-0.3,0.4-0.7,0.7-1,1.1c-1.2,1.2-2.5,2-4.4,2c-1.5,0-2.2-0.5-2.2-2.6c0-0.4,0-0.8,0.1-1.2
					c3.6-0.2,7-2.9,7-6.4c0-0.5-0.1-1-0.3-1.5c-0.4-0.8-1.3-1.4-3.1-1.4c-1.7,0-3.1,0.6-4.2,1.4c-2.9,2.3-4,6.8-4,9.4
					c0,0.6,0.1,1.2,0.2,1.7c0.1,0.5,0.3,0.9,0.5,1.2c0.3,0.5,0.7,0.9,1.1,1.1c0.8,0.5,1.8,0.7,3,0.7c0.9,0,1.7-0.1,2.5-0.4
					c1.3-0.4,2.4-1.2,3.4-2.1c1-0.9,1.8-2,2.5-3.1H97.4z M90.2,58.4c0.6-3,2.1-6.3,3.6-6.3c0.6,0,0.8,0.5,0.8,1.2
					C94.6,55.9,92.5,58.3,90.2,58.4z"/>
			</g>
		</g>
		<g>
			<g>
				<path class="st9" d="M106.4,50.8c-1.5,0-2.6,1-3.7,1.9l0.4-1.9h-4.4L98.5,52l-2,9.7L96,63.7L95.5,66h4.4l0.1-0.3l2.4-11.2
					c0.8-0.7,1.3-1.2,2.2-1.2c0.9,0,0.1,2,1.8,2c1.5,0,2.2-1.2,2.2-2.2C108.5,52,107.7,50.8,106.4,50.8z"/>
			</g>
			<g>
				<path class="st3" d="M99.9,67.1h-4.4c-0.3,0-0.6-0.1-0.8-0.4c-0.2-0.2-0.3-0.6-0.2-0.9l3.2-15.2c0.1-0.5,0.5-0.8,1-0.8h4.4
					c0.3,0,0.6,0.1,0.8,0.4c0.1,0.1,0.1,0.2,0.2,0.3c0.7-0.4,1.5-0.6,2.3-0.6c1.8,0,3.1,1.4,3.1,3.3c0,1.6-1.1,3.2-3.2,3.2
					c-1.7,0-2.1-1.3-2.2-1.9c-0.2,0.1-0.5,0.3-0.8,0.6l-2.4,11.2C100.8,66.7,100.3,67.1,99.9,67.1z M96.8,65H99l2.3-10.7
					c0-0.2,0.2-0.4,0.3-0.5c0.1-0.1,0.2-0.2,0.3-0.3c-0.2-0.2-0.3-0.6-0.3-0.9l0.1-0.6h-2.3L96.8,65z M106.2,54.3c0,0,0.1,0,0.1,0
					c1.1,0,1.2-1,1.2-1.2c0-0.1,0-1.3-1.1-1.3c-0.5,0-1,0.2-1.5,0.5c0.9,0.2,1.1,1.2,1.2,1.6C106.1,54,106.1,54.2,106.2,54.3z
					 M106.1,54.3L106.1,54.3L106.1,54.3z"/>
			</g>
		</g>
		<g>
			<g>
				<path class="st11" d="M41.6,52.2c0.1-0.1,0.3-0.1,0.4-0.2c2-1.2,3-3,3.1-4.7c0,0,0-0.1,0-0.1c0-0.3,0-0.6-0.1-0.9
					c-0.1-0.6-0.4-1.3-0.9-1.8c-0.3-0.4-0.7-0.7-1.1-1c-1.2-0.8-3-1.3-5.3-1.3c-2.3,0-4.5,0.5-6.5,1.3c-3.6,1.5-6.2,4.3-6.2,7.1
					c0,2.1,1.4,2.9,3.7,2.9c0-0.3-0.5-0.5-0.5-2.2c0-2.4,1-4.2,2.4-5.5c0.6-0.6,1.4-1,2.2-1.4c1.3-0.6,2.8-0.9,4.2-0.9
					c1.5,0,2.6,0.3,3.3,0.9c0.7,0.5,1,1.1,1.2,1.8c0.1,0.2,0.1,0.5,0.1,0.8c0,0.1,0,0.2,0,0.3c-0.1,2-1.7,4.1-3.9,4.7
					c-0.4,0.1-0.8,0.2-1.2,0.2h-0.2l0-0.2l1.1-4.7l0.2-1l0.3-1.2l-5.2,0.6l-0.1,0.5l-0.2,1L31.3,52L28,66h5l2.9-12.2
					c0.6-0.1,1.3-0.1,1.6-0.1c2.6,0,3.3,1.8,3.3,4c0,2.4-0.9,5.7-3.5,5.7c-0.8,0-1.5-0.3-2.3-1.1c-0.3,0.7-0.5,1.3-0.5,1.9
					c0,1.9,2,2.4,3.5,2.4c5.8,0,7.7-6.1,7.7-9.2C45.7,55,44.6,52.8,41.6,52.2z"/>
			</g>
		</g>
		<g>
			<g>
				<path class="st11" d="M61.2,60.6C61.1,60.6,61.1,60.6,61.2,60.6c-0.5,1.5-1.3,2.7-2.5,2.7c-0.8,0-1.2-0.3-1.2-1.1
					c0-0.3,0-0.6,0.1-1l1.9-9.2l0.2-1.2h-4.4L55.1,52l-1.8,8.6c-0.5,1.5-1.2,2.7-2.4,2.7c-0.7,0-0.9-0.5-0.9-1.2
					c0-0.3,0-0.5,0.1-0.8L52,52l0.2-1.2h-4.4L47.6,52l-1.8,8.6c-0.2,0.7-0.2,1.4-0.2,2c0,2.6,1.4,3.6,3.3,3.6c1.3,0,3-0.4,4.5-2.9
					c0.2,1.9,1.3,2.9,3,2.9c1.1,0,2.6-0.3,4-1.9c0.8-0.8,1.5-2,2.1-3.8H61.2z"/>
			</g>
		</g>
		<g>
			<g>
				<path class="st11" d="M72.7,52c-0.3-0.7-0.9-1.2-1.9-1.2c-1.1,0-2,0.5-2.8,1.2c-0.3,0.2-0.6,0.5-0.9,0.7l0.2-0.7l0.2-1.2h-4.4
					L63,52l-1.8,8.6l-0.8,3.7L60,66h4.4l2.4-11.5c0.8-0.7,1.3-1.2,2.2-1.2c0.9,0,0.1,2,1.8,2c1.5,0,2.2-1.2,2.2-2.2
					C73,52.7,72.9,52.3,72.7,52z"/>
			</g>
		</g>
		<g>
			<g>
				<path class="st11" d="M86.8,60.6c-0.3,1.1-0.7,1.9-1.2,2.5c-0.7,0.9-1.5,1.4-2.6,1.8L85.7,52l0.2-1.2h-4.4L81.3,52l-0.1,0.4
					v-0.2c0-0.1,0-0.2,0-0.2c-0.1-0.8-0.9-1.3-2.4-1.3c-1.5,0-2.7,0.5-3.8,1.3c-2.7,2.1-4,6.4-4,9.3c0,2.9,1.3,4.3,2.9,4.7
					c0.4,0.1,0.8,0.2,1.2,0.2c0.2,0,0.3,0,0.5,0c1.3-0.1,2.4-0.8,3.1-1.6l-0.4,1.6c-0.4,0.1-0.9,0.3-1.3,0.5
					c-0.8,0.3-1.6,0.7-2.2,1.3c-0.2,0.2-0.4,0.3-0.5,0.5c-0.5,0.5-0.8,1.1-0.9,1.8c0,0.2,0,0.3,0,0.5c0,2,1.5,2.9,3.4,2.9
					c1.2,0,2.5-0.3,3.6-1.3c0.5-0.5,0.9-1.1,1.3-1.9c0.1-0.2,0.2-0.4,0.3-0.6c0.1-0.4,0.3-0.8,0.4-1.3l0.1-0.5l0.4-1.7
					c1.1-0.3,2.3-0.8,3.4-2c0.8-0.8,1.5-2,2-3.7H86.8z M77,63.3c-0.5,0-1.5,0-1.5-2.4c0-2.9,1.7-8.3,4.3-8.3c1,0,1.2,0.8,1.2,1.1
					l-1.6,7.2C79,62.4,77.8,63.3,77,63.3z M76,71.3c-0.6,0-1-0.5-1-0.9c0,0,0-0.1,0-0.1c0-0.5,0.2-0.9,0.6-1.3
					c0.2-0.1,0.3-0.3,0.5-0.4c0.5-0.3,1.1-0.6,1.8-0.9l-0.2,0.9c-0.1,0.3-0.1,0.5-0.2,0.7c-0.1,0.2-0.1,0.4-0.2,0.6
					c-0.3,0.7-0.6,1.1-0.9,1.3C76.3,71.2,76.2,71.3,76,71.3z"/>
			</g>
		</g>
		<g>
			<g>
				<path class="st11" d="M97.4,60.6c-0.3,0.4-0.7,0.7-1,1.1c-1.2,1.2-2.5,2-4.4,2c-1.5,0-2.2-0.5-2.2-2.6c0-0.4,0-0.8,0.1-1.2
					c3.6-0.2,7-2.9,7-6.4c0-0.5-0.1-1-0.3-1.5c-0.4-0.8-1.3-1.4-3.1-1.4c-1.7,0-3.1,0.6-4.2,1.4c-2.9,2.3-4,6.8-4,9.4
					c0,0.6,0.1,1.2,0.2,1.7c0.1,0.5,0.3,0.9,0.5,1.2c0.3,0.5,0.7,0.9,1.1,1.1c0.8,0.5,1.8,0.7,3,0.7c0.9,0,1.7-0.1,2.5-0.4
					c1.3-0.4,2.4-1.2,3.4-2.1c1-0.9,1.8-2,2.5-3.1H97.4z M90.2,58.4c0.6-3,2.1-6.3,3.6-6.3c0.6,0,0.8,0.5,0.8,1.2
					C94.6,55.9,92.5,58.3,90.2,58.4z"/>
			</g>
		</g>
		<g>
			<g>
				<path class="st11" d="M106.4,50.8c-1.5,0-2.6,1-3.7,1.9l0.4-1.9h-4.4L98.5,52l-2,9.7L96,63.7L95.5,66h4.4l0.1-0.3l2.4-11.2
					c0.8-0.7,1.3-1.2,2.2-1.2c0.9,0,0.1,2,1.8,2c1.5,0,2.2-1.2,2.2-2.2C108.5,52,107.7,50.8,106.4,50.8z"/>
			</g>
		</g>
		<g>
			<g>
				<g>
					<path class="st9" d="M26.5,63.6c-1.6,0-2.9-1.3-4.3-1.6l2-9.1c-0.2,0-0.3,0-0.5,0c-2.1,0-4.5,1.6-4.5,3.3
						c0,0.9,0.5,1.2,1.4,1.2c0-0.1-0.2-0.2-0.2-0.9c0-1.4,0.7-2.3,1.8-2.8l-1.9,8.8c0.1,0,0.2,0,0.3,0c2.2,0,3.8,2.9,5.7,2.9
						c0.7,0,1.2-0.8,1.3-2C27.2,63.6,26.8,63.6,26.5,63.6z"/>
				</g>
				<g>
					<path class="st3" d="M26.2,66.4c-1.2,0-2.2-0.8-3.2-1.5c-0.9-0.7-1.7-1.3-2.5-1.3c-0.1,0-0.1,0-0.2,0c-0.3,0-0.7-0.1-0.9-0.3
						c-0.2-0.2-0.3-0.6-0.2-0.9l0.8-3.9c-1.7-0.2-1.9-1.6-1.9-2.2c0-2,2.4-4.3,5.5-4.3c0.2,0,0.4,0,0.6,0c0.3,0,0.6,0.2,0.8,0.4
						c0.2,0.2,0.3,0.5,0.2,0.8l-1.8,8.2c0.3,0.1,0.6,0.3,1,0.5c0.7,0.4,1.4,0.8,2.1,0.8c0.2,0,0.5,0,0.7-0.1c0.3-0.1,0.7-0.1,1,0.1
						c0.3,0.2,0.4,0.6,0.4,0.9C28.4,65.7,27.2,66.4,26.2,66.4z"/>
				</g>
			</g>
			<g>
				<g>
					<path class="st10" d="M25.7,60.1c0-0.1,0-0.3,0-0.4c1.5-0.1,2.9-1.2,2.9-2.7c0-0.6-0.3-1.2-1.4-1.2c-2.6,0-3.4,3.1-3.4,4.5
						c0,1.4,0.8,2,2,2c1,0,1.9-0.4,2.2-1.9c-0.4,0.4-1,0.7-1.5,0.7C26,61.1,25.7,60.9,25.7,60.1z M27.3,56.5c0.2,0,0.3,0.2,0.3,0.5
						c0,1.1-0.9,2-1.9,2.1C26,57.9,26.7,56.5,27.3,56.5z"/>
				</g>
			</g>
		</g>
		<g>
			<g>
				<g>
					<path class="st11" d="M26.5,63.6c-1.6,0-2.9-1.3-4.3-1.6l2-9.1c-0.2,0-0.3,0-0.5,0c-2.1,0-4.5,1.6-4.5,3.3
						c0,0.9,0.5,1.2,1.4,1.2c0-0.1-0.2-0.2-0.2-0.9c0-1.4,0.7-2.3,1.8-2.8l-1.9,8.8c0.1,0,0.2,0,0.3,0c2.2,0,3.8,2.9,5.7,2.9
						c0.7,0,1.2-0.8,1.3-2C27.2,63.6,26.8,63.6,26.5,63.6z"/>
				</g>
			</g>
			<g>
				<g>
					<path class="st11" d="M25.7,60.1c0-0.1,0-0.3,0-0.4c1.5-0.1,2.9-1.2,2.9-2.7c0-0.6-0.3-1.2-1.4-1.2c-2.6,0-3.4,3.1-3.4,4.5
						c0,1.4,0.8,2,2,2c1,0,1.9-0.4,2.2-1.9c-0.4,0.4-1,0.7-1.5,0.7C26,61.1,25.7,60.9,25.7,60.1z M27.3,56.5c0.2,0,0.3,0.2,0.3,0.5
						c0,1.1-0.9,2-1.9,2.1C26,57.9,26.7,56.5,27.3,56.5z"/>
				</g>
			</g>
		</g>
		<g>
			<g>
				<path class="st12" d="M72,45.1"/>
			</g>
		</g>
		<g>
			<g>
				<path class="st12" d="M44.6,47.1"/>
			</g>
		</g>
		<g>
			<g>
				<path class="st13" d="M37,42.8"/>
			</g>
		</g>
		<g>
			<g>
				<defs>
					<path id="SVGID_1_" d="M99.5,41.8v1.6H86l-7.9-4.3L76.2,38L51.8,24.4c4.9-1.8,6.7-5,13.5-5C87.9,19.5,99.5,31.2,99.5,41.8z"/>
				</defs>
				<clipPath id="SVGID_2_">
					<use xlink:href="#SVGID_1_"  style="overflow:visible;"/>
				</clipPath>
				<g style="clip-path:url(#SVGID_2_);">
					
						<image style="overflow:visible;" width="49" height="25" xlink:href="719724B814BEA602.png"  transform="matrix(1 0 0 1 51 18.74)">
					</image>
				</g>
			</g>
		</g>
	</g>
	<g>
		<g>
			<g>
				<g>
					<g>
						<g>
							<path class="st14" d="M81.9,9.1h0.3l0.3,0.9h0l0.3-0.9h0.3v1.1h-0.2V9.4h0l-0.3,0.9h-0.2l-0.3-0.9h0v0.9h-0.2V9.1z"/>
						</g>
						<g>
							<path class="st14" d="M83.3,9.1h0.5c0.1,0,0.2,0,0.2,0c0.1,0,0.1,0.1,0.2,0.1c0,0.1,0.1,0.1,0.1,0.2c0,0.1,0,0.1,0,0.2
								c0,0.1,0,0.2,0,0.2c0,0.1,0,0.1-0.1,0.2c0,0.1-0.1,0.1-0.2,0.1c-0.1,0-0.1,0-0.2,0h-0.5V9.1z M83.5,10.1h0.2
								c0.1,0,0.1,0,0.2,0c0,0,0.1,0,0.1-0.1c0,0,0-0.1,0.1-0.1c0,0,0-0.1,0-0.2c0-0.1,0-0.1,0-0.2c0,0,0-0.1-0.1-0.1
								c0,0-0.1-0.1-0.1-0.1c0,0-0.1,0-0.2,0h-0.2V10.1z"/>
						</g>
						<g>
							<path class="st14" d="M84.8,9.1H85l-0.5,1.2h-0.2L84.8,9.1z"/>
						</g>
						<g>
							<path class="st14" d="M86.1,9.7c0,0.1,0,0.2,0,0.2c0,0.1-0.1,0.1-0.1,0.2c-0.1,0.1-0.1,0.1-0.2,0.1c-0.1,0-0.1,0-0.2,0
								c-0.1,0-0.2,0-0.2,0c-0.1,0-0.1-0.1-0.2-0.1C85.1,10,85,10,85,9.9c0-0.1,0-0.2,0-0.2c0-0.1,0-0.2,0-0.2
								c0-0.1,0.1-0.1,0.1-0.2c0.1-0.1,0.1-0.1,0.2-0.1c0.1,0,0.1,0,0.2,0c0.1,0,0.2,0,0.2,0c0.1,0,0.1,0.1,0.2,0.1
								c0.1,0.1,0.1,0.1,0.1,0.2C86.1,9.5,86.1,9.6,86.1,9.7z M86,9.7c0-0.1,0-0.1,0-0.2c0-0.1-0.1-0.1-0.1-0.2c0,0-0.1-0.1-0.1-0.1
								c-0.1,0-0.1,0-0.2,0c-0.1,0-0.1,0-0.2,0c-0.1,0-0.1,0.1-0.1,0.1c0,0-0.1,0.1-0.1,0.2c0,0.1,0,0.1,0,0.2c0,0.1,0,0.1,0,0.2
								c0,0.1,0.1,0.1,0.1,0.2c0,0,0.1,0.1,0.1,0.1c0.1,0,0.1,0,0.2,0c0.1,0,0.1,0,0.2,0c0.1,0,0.1-0.1,0.1-0.1c0,0,0.1-0.1,0.1-0.2
								C86,9.8,86,9.7,86,9.7z M85.4,10h-0.1V9.4h0.2c0.1,0,0.1,0,0.2,0c0,0,0.1,0.1,0.1,0.1c0,0.1,0,0.1,0,0.1c0,0-0.1,0-0.1,0
								l0.2,0.3h-0.1l-0.2-0.3h-0.1V10z M85.6,9.6C85.6,9.6,85.6,9.6,85.6,9.6c0.1,0,0.1,0,0.1,0c0,0,0,0,0,0c0,0,0,0,0-0.1
								c0,0,0,0,0,0c0,0,0,0,0,0c0,0,0,0,0,0s0,0,0,0h-0.1v0.2H85.6z"/>
						</g>
					</g>
				</g>
			</g>
			<g>
				<g>
					<path class="st14" d="M44,20.3l-3.2,1l-0.4-1.2c-0.1-0.2-0.1-0.3-0.1-0.4c0-0.1,0-0.3,0.1-0.4c0.1-0.1,0.1-0.2,0.3-0.3
						c0.1-0.1,0.2-0.2,0.4-0.2c0.2-0.1,0.3-0.1,0.4-0.1c0.1,0,0.3,0,0.4,0.1s0.2,0.1,0.3,0.2c0.1,0.1,0.2,0.2,0.2,0.4l0.2,0.5
						l1.2-0.4L44,20.3z M42.1,20.2l-0.1-0.4c-0.1-0.2-0.1-0.3-0.2-0.3c-0.1,0-0.2,0-0.3,0l-0.1,0c-0.1,0-0.2,0.1-0.3,0.2
						c0,0.1,0,0.2,0,0.4l0.1,0.4L42.1,20.2z"/>
					<path class="st14" d="M42.7,17.8l0-0.6l-1.4,0l0,0.6l-0.6,0l0-1.3l0.7,0l0,0c-0.1,0-0.2,0-0.3-0.1S41,16.4,41,16.3
						c-0.1-0.1-0.1-0.1-0.2-0.2c0-0.1-0.1-0.2-0.1-0.3l0-0.2l0.7,0l0,0.5c0,0.2,0.1,0.3,0.2,0.4c0.1,0.1,0.2,0.1,0.4,0.1l0.7,0
						l0-0.8l0.6,0l0.1,2.1L42.7,17.8z"/>
					<path class="st14" d="M43.7,14.1c-0.1,0.4-0.3,0.7-0.6,0.8c-0.3,0.1-0.6,0.2-1,0c-0.2-0.1-0.4-0.1-0.5-0.2
						c-0.1-0.1-0.2-0.2-0.3-0.3c-0.1-0.1-0.1-0.3-0.1-0.4c0-0.2,0-0.3,0.1-0.5c0.1-0.2,0.1-0.3,0.2-0.5c0.1-0.1,0.2-0.2,0.3-0.3
						c0.1-0.1,0.3-0.1,0.4-0.1c0.2,0,0.3,0,0.5,0.1l0.2,0.1l-0.5,1.6l0,0c0.2,0,0.3,0,0.4,0c0.1-0.1,0.2-0.2,0.3-0.4
						c0-0.1,0.1-0.3,0-0.4c0-0.1-0.1-0.2-0.1-0.3l0.5-0.2c0.1,0.1,0.1,0.3,0.2,0.5C43.8,13.6,43.7,13.8,43.7,14.1z M41.6,13.5
						c0,0.1,0,0.3,0,0.4c0.1,0.1,0.2,0.2,0.3,0.2l0,0l0.3-1l0,0c-0.2,0-0.3,0-0.4,0C41.8,13.3,41.7,13.4,41.6,13.5z"/>
					<path class="st14" d="M44.7,11.8c-0.1,0.2-0.3,0.4-0.5,0.5c-0.2,0.1-0.4,0.2-0.5,0.2L43.6,12c0.1,0,0.3-0.1,0.4-0.2
						c0.1-0.1,0.2-0.2,0.3-0.3c0.1-0.1,0.1-0.2,0.1-0.3c0-0.1,0-0.2-0.1-0.2c-0.1,0-0.1,0-0.2,0c-0.1,0-0.1,0.1-0.2,0.2l-0.3,0.3
						c-0.1,0.1-0.1,0.2-0.2,0.2c-0.1,0.1-0.2,0.1-0.2,0.1c-0.1,0-0.2,0-0.3,0c-0.1,0-0.2,0-0.3-0.1c-0.2-0.1-0.3-0.3-0.4-0.6
						c0-0.2,0.1-0.5,0.3-0.8c0.1-0.2,0.3-0.4,0.4-0.5c0.1-0.1,0.3-0.2,0.5-0.2l0.2,0.5c-0.1,0-0.2,0.1-0.3,0.1
						c-0.1,0.1-0.2,0.2-0.3,0.3c-0.1,0.2-0.1,0.4,0,0.5c0.1,0,0.1,0,0.2,0c0.1,0,0.1-0.1,0.2-0.2l0.3-0.3c0.1-0.1,0.1-0.2,0.2-0.2
						c0.1-0.1,0.2-0.1,0.2-0.1c0.1,0,0.2,0,0.3,0c0.1,0,0.2,0,0.3,0.1c0.2,0.1,0.3,0.3,0.4,0.6C45,11.2,44.9,11.5,44.7,11.8z"/>
					<path class="st14" d="M46.5,9.6c-0.3,0.3-0.6,0.4-0.9,0.4c-0.3,0-0.6-0.2-0.9-0.4c-0.1-0.1-0.3-0.3-0.3-0.4
						c-0.1-0.2-0.1-0.3-0.1-0.5c0-0.2,0-0.3,0.1-0.4c0.1-0.1,0.2-0.3,0.3-0.4c0.1-0.1,0.3-0.2,0.4-0.3c0.1-0.1,0.3-0.1,0.4-0.1
						c0.1,0,0.3,0,0.4,0.1c0.1,0.1,0.3,0.2,0.4,0.3L46.5,8l-1.2,1.2l0,0c0.1,0.1,0.2,0.2,0.4,0.2c0.1,0,0.3-0.1,0.4-0.2
						c0.1-0.1,0.2-0.2,0.2-0.3c0-0.1,0-0.2,0-0.4l0.6,0c0,0.2,0,0.3-0.1,0.5C46.8,9.2,46.6,9.4,46.5,9.6z M45,8.2
						c-0.1,0.1-0.2,0.2-0.2,0.4c0,0.1,0.1,0.3,0.2,0.4l0,0l0.7-0.7l0,0C45.6,8.1,45.4,8,45.3,8C45.2,8,45.1,8.1,45,8.2z"/>
					<path class="st14" d="M47.5,8.5l-1.4-2l0.6-0.4L47,6.5l0,0c0-0.1,0-0.1,0-0.2c0-0.1,0-0.1,0-0.2c0-0.1,0.1-0.1,0.1-0.2
						c0-0.1,0.1-0.1,0.2-0.2c0.1-0.1,0.2-0.1,0.3-0.1c0.1,0,0.2,0,0.3,0c0.1,0,0.2,0.1,0.3,0.1c0.1,0.1,0.2,0.2,0.3,0.3l0.9,1.3
						l-0.6,0.4L48,6.4c-0.2-0.3-0.4-0.3-0.6-0.2c0,0-0.1,0.1-0.1,0.1c0,0-0.1,0.1-0.1,0.1c0,0,0,0.1,0,0.1c0,0.1,0,0.1,0.1,0.1
						l0.9,1.3L47.5,8.5z"/>
					<path class="st14" d="M51,6.4c-0.2,0.1-0.4,0.1-0.6,0.1c-0.2-0.1-0.3-0.2-0.4-0.4L49.4,5l-0.6,0.3l-0.3-0.5L49,4.6
						c0.1,0,0.2-0.1,0.2-0.2c0-0.1,0-0.1,0-0.2l-0.3-0.5l0.6-0.3l0.4,0.8l0.9-0.4l0.3,0.5l-0.9,0.4l0.6,1.2l0.9-0.4l0.3,0.5L51,6.4z
						"/>
					<path class="st14" d="M53.4,5.4c-0.4,0.1-0.7,0.2-1,0S52,5,51.8,4.6c-0.1-0.2-0.1-0.4-0.1-0.5c0-0.2,0-0.3,0.1-0.5
						c0.1-0.1,0.1-0.3,0.3-0.4C52.2,3.1,52.3,3,52.5,3c0.2-0.1,0.3-0.1,0.5-0.1c0.2,0,0.3,0,0.4,0.1c0.1,0.1,0.3,0.2,0.4,0.3
						C53.9,3.4,54,3.5,54,3.7l0.1,0.2l-1.6,0.6l0,0c0.1,0.1,0.1,0.3,0.3,0.3c0.1,0.1,0.3,0.1,0.5,0c0.1-0.1,0.2-0.1,0.3-0.2
						c0.1-0.1,0.1-0.2,0.2-0.3l0.5,0.3c0,0.1-0.1,0.3-0.3,0.4C53.9,5.1,53.7,5.3,53.4,5.4z M52.7,3.4c-0.1,0.1-0.2,0.1-0.3,0.3
						c-0.1,0.1,0,0.3,0,0.4l0,0l0.9-0.4l0,0c-0.1-0.2-0.1-0.3-0.3-0.3C52.9,3.4,52.8,3.4,52.7,3.4z"/>
					<path class="st14" d="M56.3,3.9L56.3,3.9c-0.1,0.2-0.1,0.3-0.2,0.4c-0.1,0.1-0.2,0.2-0.4,0.3c-0.1,0-0.3,0-0.4,0
						c-0.1,0-0.2-0.1-0.3-0.2c-0.1-0.1-0.2-0.2-0.3-0.3c-0.1-0.1-0.2-0.3-0.2-0.5c-0.1-0.2-0.1-0.4-0.1-0.6c0-0.2,0-0.3,0.1-0.4
						c0.1-0.1,0.1-0.2,0.2-0.3c0.1-0.1,0.2-0.1,0.3-0.2c0.1,0,0.2,0,0.3,0c0.1,0,0.2,0,0.2,0c0.1,0,0.1,0.1,0.2,0.1
						c0.1,0,0.1,0.1,0.2,0.2l0,0l-0.4-1.5l0.7-0.2l0.9,3.4l-0.7,0.2L56.3,3.9z M55.9,4c0.1,0,0.2-0.1,0.3-0.2
						c0.1-0.1,0.1-0.2,0.1-0.3L56,2.8c0-0.1-0.1-0.2-0.2-0.2c-0.1,0-0.2,0-0.3,0c-0.2,0-0.3,0.1-0.3,0.2c-0.1,0.1-0.1,0.3,0,0.4
						l0.1,0.4c0,0.2,0.1,0.3,0.2,0.4S55.7,4,55.9,4z"/>
					<path class="st14" d="M60.1,0.1L60.8,0l0.1,1.5l0,0c0-0.2,0.1-0.3,0.2-0.4C61.3,1,61.4,1,61.6,0.9c0.1,0,0.3,0,0.4,0
						c0.1,0,0.2,0.1,0.3,0.2c0.1,0.1,0.2,0.2,0.2,0.4c0.1,0.2,0.1,0.3,0.1,0.6c0,0.2,0,0.4,0,0.6c0,0.2-0.1,0.3-0.2,0.4
						c-0.1,0.1-0.2,0.2-0.3,0.3c-0.1,0.1-0.2,0.1-0.4,0.1c-0.2,0-0.4,0-0.5-0.1c-0.1-0.1-0.2-0.2-0.3-0.3l0,0l0,0.5l-0.7,0.1
						L60.1,0.1z M61.5,3c0.2,0,0.3-0.1,0.4-0.2c0.1-0.1,0.1-0.2,0.1-0.4l0-0.4c0-0.2-0.1-0.3-0.2-0.4c-0.1-0.1-0.2-0.1-0.4-0.1
						c-0.1,0-0.2,0.1-0.3,0.1c-0.1,0.1-0.1,0.2-0.1,0.3L61,2.7c0,0.1,0.1,0.2,0.2,0.3C61.3,3,61.4,3,61.5,3z"/>
					<path class="st14" d="M64.9,0.8l0.7,0l-1.1,2.9c-0.1,0.2-0.2,0.3-0.3,0.4c-0.1,0.1-0.3,0.1-0.5,0.2l-0.5,0l0-0.6l0.6,0L64,3.3
						l-1-2.4l0.8,0l0.4,1l0.2,0.7l0,0l0.2-0.7L64.9,0.8z"/>
				</g>
				<g>
					<ellipse class="st14" cx="65.1" cy="16.6" rx="19.6" ry="11"/>
				</g>
				<g>
					<g>
						<path class="st3" d="M49.1,17.2c-0.3,1,0.1,2,1.5,2c0.7,0,1.4-0.4,1.5-1.1c0.2-0.7-0.2-1.1-0.7-1.6L51,16.1
							c-0.6-0.6-1-1.1-0.8-2c0.3-1.2,1.6-2,3.1-2c0.8,0,1.4,0.2,1.9,0.6c1,1-0.2,1.6-0.5,1.6c-0.1,0-0.1,0-0.1,0
							c0.3-0.8,0-1.7-1.1-1.7c-0.6,0-1.4,0.3-1.5,0.9c-0.2,0.6,0.3,1.1,0.7,1.5l0.4,0.4c0.6,0.6,1.1,1.2,0.9,2.1
							c-0.3,1.3-1.7,2.1-3.3,2.1c-0.9,0-1.7-0.3-2.2-0.8C47.5,17.7,48.5,17.2,49.1,17.2z"/>
					</g>
					<g>
						<path class="st3" d="M60.1,22.2l1.5-3.4h0c0.2,0.5,0.6,0.7,1.3,0.7c2,0,3.4-1.9,3.5-3.3c0,0,0-0.2,0-0.4
							c-0.1-0.7-0.5-1.2-1.5-1.2c-0.7,0-1.3,0.3-1.8,0.7l0,0l0.2-0.4c-0.2-0.4-0.6-0.7-1-0.8L59,21.3C59.3,21.8,59.6,22.1,60.1,22.2
							z M64.9,15.9c-0.1,0.8-1.1,3-2.3,3c-0.5,0-0.6-0.4-0.6-0.7c0.1-0.7,1-3,2.2-3C64.8,15.2,65,15.6,64.9,15.9z"/>
					</g>
					<g>
						<path class="st3" d="M59.7,18.9c-0.1,0-0.2,0.1-0.2,0.1c-0.2,0-0.2-0.3-0.2-0.4c0-0.2,0.2-0.6,0.3-0.8l1.4-3
							c-0.4-0.2-1-0.2-1.4,0l-0.3,0.6c-0.2-0.5-0.6-0.7-1.3-0.7c-2,0-3.6,1.9-3.8,3.3c-0.1,0.9,0.3,1.6,1.5,1.6
							c0.9,0,1.7-0.5,2.2-1.2l0,0c0,0-0.1,0.2-0.1,0.4c-0.1,0.4,0.3,0.7,0.8,0.7c0.3,0,0.6-0.1,0.9-0.2L59.7,18.9L59.7,18.9z
							 M58.8,15.9c-0.1,0.8-1.2,3-2.5,3c-0.5,0-0.6-0.4-0.6-0.7c0.1-0.8,1.2-2.9,2.4-2.9C58.6,15.2,58.9,15.5,58.8,15.9z"/>
					</g>
					<g>
						<g>
							<path class="st3" d="M71.8,16.7l0.8-1.6c0,0-0.5,0-0.7,0c-0.2,0-0.7-0.1-0.7-0.1l-0.4,0.7c-0.4,0.7-1.6,3.1-2.7,3.1
								c-0.2,0-0.4-0.1-0.4-0.3c0-0.2,0.9-1.9,0.9-1.9c0.2-0.4,0.5-0.9,0.5-1.3c0.1-0.4-0.3-0.7-0.8-0.7c-0.5,0-1,0.2-1.4,0.5
								c0.1,0.1,0.1,0.2,0.1,0.3c0.2-0.1,0.3-0.1,0.4-0.1c0.2,0,0.2,0.1,0.2,0.2c0,0.2-0.8,1.8-0.8,1.8c-0.2,0.4-0.5,0.9-0.5,1.3
								c-0.1,0.5,0.4,0.9,1,0.9c1.1,0,2-0.7,2.6-1.6l0,0c-0.1,0.3-0.2,0.4-0.2,0.7c-0.1,0.4,0.2,0.8,0.8,0.8c0.5,0,1-0.2,1.4-0.5v0
								c0-0.1-0.1-0.2,0-0.3c0,0,0,0,0,0c-0.1,0.1-0.3,0.2-0.4,0.2c-0.2,0-0.2-0.2-0.2-0.3C71.2,18,71.6,17.2,71.8,16.7z"/>
						</g>
					</g>
					<g>
						<path class="st3" d="M80.1,14.7c-0.7-0.5-2-0.9-4.3-1l0.5-1.1c-0.4-0.2-0.9-0.2-1.4,0l-0.6,1.2c-1.5,0.1-3.3,0.5-6.5-0.2
							l-0.1,0.1c1.8,0.7,4.5,0.9,6.2,0.9L72.8,17c-0.1,0.2-0.2,0.5-0.4,0.8c-0.2,0.4-0.2,0.7-0.3,0.8c-0.1,0.5,0.4,0.9,1,0.9
							c0.7,0,1.3-0.4,1.8-0.8l0,0c-0.1-0.1-0.1-0.2-0.1-0.3c-0.1,0.1-0.2,0.2-0.3,0.3c-0.2,0.1-0.3,0.2-0.5,0.2
							c-0.3,0-0.3-0.2-0.3-0.3c0-0.3,0.4-1,0.5-1.3l1.2-2.7c1.2-0.1,2.8-0.3,3.6,0.2c-1.2,0.1-2.3,0.5-3.1,1.3
							c-0.4,0.5-0.7,1.1-0.8,1.7c0,0.2,0,0.5,0,0.6c0.2,0.8,0.9,1.3,2,1.3c1.9,0,3.6-1.5,3.8-3c0-0.1,0.2-0.7-0.3-1.3
							c0.6,0.2,1.1,0.6,1.2,0.8c0.3-0.1,0.6-0.4,0.8-0.7C82.5,15,81.4,14.7,80.1,14.7z M78.6,18.3c-0.9,1.3-2.3,1.3-1.8-0.5
							c0.1-0.3,0.7-2.6,2.7-2.8c0.1,0.1,0.1,0.3,0.2,0.4C79.7,16.1,79.2,17.4,78.6,18.3z"/>
					</g>
				</g>
			</g>
		</g>
	</g>
	<g>
		<path class="st14" d="M39.8,88.3h0.8l0.2,2.6h0.1l0.4-2.6h0.8l0.4,2.6h0.1l0.2-2.6h0.7l-0.4,3.2H42l-0.3-2.2h-0.1l-0.3,2.2h-1.1
			L39.8,88.3z"/>
		<path class="st14" d="M44.1,90.7h1V89h-1v-0.7H46v2.5H47v0.7h-2.9V90.7z M45.6,87.8c-0.2,0-0.3,0-0.4-0.1C45,87.6,45,87.5,45,87.4
			v-0.2c0-0.1,0-0.2,0.1-0.3c0.1-0.1,0.2-0.1,0.4-0.1c0.2,0,0.3,0,0.4,0.1c0.1,0.1,0.1,0.2,0.1,0.3v0.2c0,0.1,0,0.2-0.1,0.3
			C45.9,87.8,45.8,87.8,45.6,87.8z"/>
		<path class="st14" d="M49.3,91.4c-0.3,0-0.6-0.1-0.7-0.3c-0.2-0.2-0.2-0.4-0.2-0.7V89h-0.9v-0.7H48c0.1,0,0.2,0,0.3-0.1
			c0.1-0.1,0.1-0.2,0.1-0.3v-0.7h0.8v1.1h1.2V89h-1.2v1.8h1.2v0.7H49.3z"/>
		<path class="st14" d="M51.3,86.9h0.9v2h0c0-0.1,0.1-0.2,0.1-0.3c0.1-0.1,0.1-0.1,0.2-0.2c0.1-0.1,0.2-0.1,0.3-0.1
			c0.1,0,0.2-0.1,0.3-0.1c0.2,0,0.3,0,0.4,0.1c0.1,0.1,0.2,0.1,0.3,0.2c0.1,0.1,0.2,0.2,0.2,0.4c0.1,0.1,0.1,0.3,0.1,0.5v2.1h-0.9
			v-1.9c0-0.4-0.2-0.6-0.5-0.6c-0.1,0-0.1,0-0.2,0c-0.1,0-0.1,0-0.2,0.1c-0.1,0-0.1,0.1-0.1,0.1c0,0.1,0,0.1,0,0.2v2.1h-0.9V86.9z"
			/>
	</g>
	<g>
		<g>
			<path class="st7" d="M102,78.2c0.4-0.4,0.3-1-0.1-1.4c-0.4-0.4-1-0.3-1.4,0.1c-0.4,0.4-7.1,9.4-7.1,9.4S101.7,78.6,102,78.2z"/>
		</g>
		<g>
			<circle class="st7" cx="105.6" cy="87" r="0.9"/>
		</g>
		<g>
			<circle class="st7" cx="53.3" cy="85.4" r="0.8"/>
		</g>
		<g>
			<path class="st7" d="M52.7,80.4c0.5,0.5,2.7,1,2.7,1s-0.6-2.2-1-2.7s-1.2-0.5-1.6,0S52.2,80,52.7,80.4z"/>
		</g>
		<g>
			<path class="st7" d="M76.6,77.9c0.1,0.6,1.6,2.3,1.6,2.3s0.8-2.1,0.7-2.7c-0.1-0.6-0.7-1-1.3-0.9C76.9,76.7,76.5,77.3,76.6,77.9z
				"/>
		</g>
		<g>
			<path class="st7" d="M85.5,74.2c0.2-0.5-0.1-1.1-0.6-1.2s-1.1,0.1-1.2,0.6c-0.2,0.5-2.5,11.4-2.5,11.4S85.3,74.7,85.5,74.2z"/>
		</g>
		<g>
			<path class="st7" d="M92.5,76.8c0.2-0.4,0-0.9-0.3-1.1c-0.4-0.2-0.9,0-1.1,0.3s-3.6,8.8-3.6,8.8S92.3,77.2,92.5,76.8z"/>
		</g>
		<g>
			<path class="st7" d="M107.6,81.2c0.3-0.2,0.4-0.6,0.3-0.9c-0.2-0.3-0.6-0.4-0.9-0.3c-0.3,0.2-6.6,4.5-6.6,4.5
				S107.2,81.4,107.6,81.2z"/>
		</g>
		<g>
			<path class="st7" d="M72.2,75.1c-0.1-0.4-0.6-0.6-1-0.5c-0.4,0.1-0.6,0.6-0.5,1c0.1,0.4,3.7,8.8,3.7,8.8S72.4,75.5,72.2,75.1z"/>
		</g>
	</g>
	<g>
		<g>
			<g>
				<ellipse class="st3" cx="86" cy="87.3" rx="8.6" ry="4.5"/>
			</g>
		</g>
		<g>
			<g>
				<g>
					<path class="st11" d="M65.7,88.7c-1,2.6-3.7,3.6-5.5,3.6c-2.8,0-4.2-1.3-4.2-4.7c0-3.5,1.7-10,6.7-10c1.8,0,3.2,0.7,3.2,2.6
						c0,1-0.4,1.8-1.3,1.8c-0.3,0-0.7-0.1-1.1-0.5c0.5-0.2,0.9-1,0.9-1.8c0-0.6-0.3-1.2-1.2-1.2c-2.1,0-4,5.1-4,9c0,1.8,0.5,3,2.3,3
						c1.5,0,2.9-0.7,3.8-1.9L65.7,88.7z"/>
				</g>
				<g>
					<path class="st11" d="M70,84.1c-0.8,0-1.3,1.2-1.5,1.7L67.2,92h-2.8l2.8-13.1l2.8-0.4l-1,4.8c0.8-0.9,1.7-1.1,2.3-1.1
						c1.2,0,2.1,0.6,2.1,2.2c0,1.6-0.9,3.9-0.9,5c0,0.5,0.2,0.8,0.8,0.8c0.8,0,1.2-0.7,1.6-1.7h0.8c-1.1,3.2-2.6,3.6-3.6,3.6
						c-1.7,0-2.3-1.1-2.3-2.2c0-1.3,0.9-3.7,0.9-4.9C70.7,84.4,70.5,84.1,70,84.1z"/>
				</g>
				<g>
					<path class="st11" d="M78.9,90.5c1.5,0,2.4-0.8,3.4-1.9H83c-1.1,1.8-2.7,3.6-5.3,3.6c-1.8,0-3-0.9-3-3.1c0-2.2,1.3-6.9,5.2-6.9
						c1.7,0,2.1,0.9,2.1,1.8c0,2.2-2.1,3.9-4.4,4.1c0,0.3,0,0.5,0,0.8C77.5,90.2,78,90.5,78.9,90.5z M80,83.2c-1,0-1.9,2.1-2.3,4
						c1.5-0.1,2.8-1.6,2.8-3.2C80.5,83.5,80.4,83.2,80,83.2z"/>
				</g>
				<g>
					<path class="st11" d="M86.3,90.5c1.5,0,2.4-0.8,3.4-1.9h0.7c-1.1,1.8-2.7,3.6-5.3,3.6c-1.8,0-3-0.9-3-3.1
						c0-2.2,1.3-6.9,5.2-6.9c1.7,0,2.1,0.9,2.1,1.8c0,2.2-2.1,3.9-4.4,4.1c0,0.3,0,0.5,0,0.8C84.9,90.2,85.4,90.5,86.3,90.5z
						 M87.4,83.2c-1,0-1.9,2.1-2.3,4c1.5-0.1,2.8-1.6,2.8-3.2C87.9,83.5,87.8,83.2,87.4,83.2z"/>
				</g>
				<g>
					<path class="st11" d="M97.9,88.6c-1,1.2-2.1,1.9-2.9,2.4c-0.8,0.8-2,1.2-3,1.2c-2,0-2.8-1.3-2.8-2.5c0-0.9,0.5-1.5,1-1.8
						c1.1-1.9,1.8-3.8,2.4-5.7l2.8-0.4c0.2,5,0.4,5.7,0.4,7c0,0.3,0,0.5-0.1,0.7c0.5-0.3,1-0.7,1.4-1H97.9z M90.6,89.5
						c-0.2,0-0.4-0.1-0.5-0.3c0,0.9,0.3,1.3,1.2,1.3c0.8,0,1.7-0.4,1.7-1.8c0-1-0.2-1.6-0.4-4.6c-0.4,1.3-0.9,2.4-1.6,3.6
						c0.3,0.1,0.4,0.3,0.4,0.7C91.5,89,91.1,89.5,90.6,89.5z"/>
				</g>
				<g>
					<path class="st11" d="M100.8,90.3c0.7,0,1.7-0.5,2.3-1c-0.4,2.2-1.8,2.8-3.3,2.8c-1.8,0-3-0.9-3-3.1c0-2.2,1.3-6.9,5.2-6.9
						c1.7,0,2.1,0.9,2.1,1.8c0,2.2-2.1,3.9-4.4,4.1c0,0.2,0,0.4,0,0.6C99.6,89.9,100.1,90.3,100.8,90.3z M102.1,83.2
						c-1,0-1.9,2.1-2.3,4c1.5-0.1,2.8-1.6,2.8-3.2C102.6,83.5,102.5,83.2,102.1,83.2z"/>
				</g>
			</g>
			<g>
				<g>
					<g>
						<path class="st3" d="M60.2,93.5c-3.6,0-5.4-1.9-5.4-5.9c0-4.3,2.1-11.2,7.9-11.2c2.7,0,4.4,1.4,4.4,3.8c0,2.2-1.3,3-2.5,3
							c-0.8,0-1.5-0.3-2-0.9c-0.2-0.3-0.3-0.7-0.3-1c0.1-0.3,0.3-0.6,0.6-0.8c0.1-0.1,0.3-0.4,0.3-0.7c-0.8,0.1-2.8,3.6-2.8,7.8
							c0,1.8,0.5,1.8,1.1,1.8c1.1,0,2.1-0.5,2.8-1.4c0.3-0.4,0.9-0.6,1.4-0.4l0.4,0.2c0.6,0.3,0.9,0.9,0.6,1.5
							C65.6,92.2,62.6,93.5,60.2,93.5z M59.8,80c-1.9,1.9-2.6,5.5-2.6,7.6c0,2.6,0.7,3.3,2.2,3.5c-0.8-0.6-1.4-1.7-1.4-3.6
							C58,85.1,58.6,82.1,59.8,80z M62.9,80.4C62.9,80.4,62.9,80.4,62.9,80.4C62.9,80.4,62.9,80.4,62.9,80.4z M63.3,79.7L63.3,79.7
							L63.3,79.7z"/>
					</g>
					<g>
						<path class="st3" d="M72.1,93.3c-2.1,0-3.1-1.2-3.4-2.7l-0.3,1.6c-0.1,0.6-0.6,0.9-1.2,0.9h-2.8c-0.4,0-0.7-0.2-0.9-0.4
							c-0.2-0.3-0.3-0.6-0.2-1l2.8-13.1c0.1-0.5,0.5-0.9,1-0.9l2.8-0.4c0.4-0.1,0.8,0.1,1,0.4c0.3,0.3,0.4,0.7,0.3,1.1l-0.5,2.4
							c0.2,0,0.4,0,0.5,0c2,0,3.3,1.3,3.3,3.4c0,1-0.3,2.2-0.6,3.2c0,0,0,0,0,0c0.2-0.2,0.5-0.3,0.8-0.3h0.8c0.4,0,0.7,0.2,1,0.5
							c0.2,0.3,0.3,0.7,0.2,1.1C75.9,91.9,74.3,93.3,72.1,93.3z M71.4,83.5c0.3,0.4,0.5,0.9,0.5,1.5c0,0.7-0.2,1.7-0.5,2.7
							c-0.2,0.8-0.4,1.7-0.4,2.2c0,0.6,0.2,0.9,0.8,1c-0.4-0.4-0.6-0.9-0.6-1.5c0-0.6,0.2-1.4,0.4-2.3c0.2-0.9,0.5-1.9,0.5-2.6
							C72.3,83.8,72.1,83.5,71.4,83.5z M65.9,90.8h0.3l1.1-5.3c0.1-0.4,0.3-1,0.7-1.5c-0.2-0.3-0.2-0.6-0.2-0.9l0.7-3.2l-0.3,0
							L65.9,90.8z"/>
					</g>
					<g>
						<path class="st3" d="M77.7,93.3c-2.6,0-4.2-1.6-4.2-4.3c0-3.3,2-8,6.4-8c2.1,0,3.3,1.1,3.3,3c0,1.4-0.6,2.6-1.6,3.6
							c0.2-0.2,0.5-0.3,0.8-0.3H83c0.4,0,0.8,0.2,1,0.6c0.2,0.4,0.2,0.8,0,1.2C82.3,91.9,80.2,93.3,77.7,93.3z M77.1,84.9
							c-0.1,0.2-0.2,0.3-0.3,0.5c-0.7,1.3-1,2.8-1,3.7c0,1,0.3,1.6,1,1.8c-0.3-0.4-0.5-1-0.5-1.9c0-0.3,0-0.6,0-0.9
							c0-0.2,0.1-0.4,0.2-0.6c0-0.2,0-0.3,0-0.5C76.6,86.6,76.8,85.8,77.1,84.9z M78.7,89.3c0,0,0.1,0,0.2,0c1,0,1.6-0.5,2.5-1.5
							c0,0,0,0,0,0c-0.7,0.7-1.7,1.2-2.7,1.4C78.7,89.2,78.7,89.3,78.7,89.3z"/>
					</g>
					<g>
						<path class="st3" d="M85.1,93.3c-2.6,0-4.2-1.6-4.2-4.3c0-3.3,2-8,6.4-8c2.1,0,3.3,1.1,3.3,3c0,1.4-0.6,2.6-1.6,3.6
							c0.2-0.2,0.5-0.3,0.8-0.3h0.7c0.4,0,0.8,0.2,1,0.6c0.2,0.4,0.2,0.8,0,1.2C89.7,91.9,87.5,93.3,85.1,93.3z M84.5,84.9
							c-0.1,0.2-0.2,0.3-0.3,0.5c-0.7,1.3-1,2.8-1,3.7c0,1,0.3,1.6,1,1.8c-0.3-0.4-0.5-1-0.5-1.9c0-0.3,0-0.6,0-0.9
							c0-0.2,0.1-0.4,0.2-0.6c0-0.2,0-0.3,0-0.5C84,86.6,84.2,85.8,84.5,84.9z M86.1,89.3c0,0,0.1,0,0.2,0c1,0,1.6-0.5,2.5-1.5
							c0,0,0,0,0,0c-0.7,0.7-1.7,1.2-2.7,1.4C86.1,89.2,86.1,89.3,86.1,89.3z"/>
					</g>
					<g>
						<path class="st3" d="M91.9,93.3c-2.6,0-4-1.8-4-3.7c0-1.1,0.5-2.1,1.3-2.7c1-1.8,1.6-3.6,2.1-5.2c0.1-0.4,0.5-0.8,1-0.8
							l2.8-0.4c0.3,0,0.7,0.1,0.9,0.3c0.3,0.2,0.4,0.5,0.4,0.9c0.1,2.8,0.2,4.2,0.3,5.2c0,0.2,0,0.3,0,0.4c0.1,0,0.1,0,0.2,0h0.8
							c0.5,0,0.9,0.3,1.1,0.7c0.2,0.4,0.1,0.9-0.2,1.3c-1.1,1.3-2.3,2.1-3.1,2.6C94.3,93.2,92.6,93.3,91.9,93.3z M93.3,83.3
							c0.2,0.2,0.4,0.5,0.4,0.8c0.1,1.5,0.2,2.4,0.3,3c0.1,0.6,0.1,1.1,0.1,1.6c0,0.6-0.1,1.1-0.4,1.6c0.1-0.1,0.2-0.1,0.3-0.2
							c0.1-0.1,0.2-0.1,0.3-0.2c0.1,0,0.1-0.1,0.2-0.1c0-0.2,0-0.4,0-0.6c0-0.1,0-0.2,0-0.4c0-0.5,0-0.9-0.1-1.7
							c-0.1-0.8-0.2-2-0.3-4L93.3,83.3C93.4,83.3,93.4,83.3,93.3,83.3z"/>
					</g>
					<g>
						<path class="st3" d="M99.8,93.3c-2.6,0-4.2-1.6-4.2-4.3c0-3.3,2-8,6.4-8c2.1,0,3.3,1.1,3.3,3c0,1.6-0.8,3.1-2.1,4
							c0.2,0,0.3,0.1,0.5,0.2c0.4,0.3,0.7,0.8,0.6,1.3C103.8,92,102.2,93.3,99.8,93.3z M99.3,84.9c-0.1,0.2-0.2,0.3-0.3,0.5
							c-0.7,1.3-1,2.8-1,3.7c0,1.1,0.3,1.7,1.2,1.8c-0.5-0.4-0.8-1.1-0.8-2.2c0-0.2,0-0.5,0-0.7c0-0.2,0.1-0.4,0.2-0.5
							c0-0.2-0.1-0.4,0-0.6C98.7,86.6,98.9,85.8,99.3,84.9z"/>
					</g>
				</g>
			</g>
			<g>
				<g>
					<g>
						<path class="st7" d="M65.7,88.7c-1,2.6-3.7,3.6-5.5,3.6c-2.8,0-4.2-1.3-4.2-4.7c0-3.5,1.7-10,6.7-10c1.8,0,3.2,0.7,3.2,2.6
							c0,1-0.4,1.8-1.3,1.8c-0.3,0-0.7-0.1-1.1-0.5c0.5-0.2,0.9-1,0.9-1.8c0-0.6-0.3-1.2-1.2-1.2c-2.1,0-4,5.1-4,9
							c0,1.8,0.5,3,2.3,3c1.5,0,2.9-0.7,3.8-1.9L65.7,88.7z"/>
					</g>
					<g>
						<path class="st7" d="M70,84.1c-0.8,0-1.3,1.2-1.5,1.7L67.2,92h-2.8l2.8-13.1l2.8-0.4l-1,4.8c0.8-0.9,1.7-1.1,2.3-1.1
							c1.2,0,2.1,0.6,2.1,2.2c0,1.6-0.9,3.9-0.9,5c0,0.5,0.2,0.8,0.8,0.8c0.8,0,1.2-0.7,1.6-1.7h0.8c-1.1,3.2-2.6,3.6-3.6,3.6
							c-1.7,0-2.3-1.1-2.3-2.2c0-1.3,0.9-3.7,0.9-4.9C70.7,84.4,70.5,84.1,70,84.1z"/>
					</g>
					<g>
						<path class="st7" d="M78.9,90.5c1.5,0,2.4-0.8,3.4-1.9H83c-1.1,1.8-2.7,3.6-5.3,3.6c-1.8,0-3-0.9-3-3.1c0-2.2,1.3-6.9,5.2-6.9
							c1.7,0,2.1,0.9,2.1,1.8c0,2.2-2.1,3.9-4.4,4.1c0,0.3,0,0.5,0,0.8C77.5,90.2,78,90.5,78.9,90.5z M80,83.2c-1,0-1.9,2.1-2.3,4
							c1.5-0.1,2.8-1.6,2.8-3.2C80.5,83.5,80.4,83.2,80,83.2z"/>
					</g>
					<g>
						<path class="st7" d="M86.3,90.5c1.5,0,2.4-0.8,3.4-1.9h0.7c-1.1,1.8-2.7,3.6-5.3,3.6c-1.8,0-3-0.9-3-3.1
							c0-2.2,1.3-6.9,5.2-6.9c1.7,0,2.1,0.9,2.1,1.8c0,2.2-2.1,3.9-4.4,4.1c0,0.3,0,0.5,0,0.8C84.9,90.2,85.4,90.5,86.3,90.5z
							 M87.4,83.2c-1,0-1.9,2.1-2.3,4c1.5-0.1,2.8-1.6,2.8-3.2C87.9,83.5,87.8,83.2,87.4,83.2z"/>
					</g>
					<g>
						<path class="st7" d="M97.9,88.6c-1,1.2-2.1,1.9-2.9,2.4c-0.8,0.8-2,1.2-3,1.2c-2,0-2.8-1.3-2.8-2.5c0-0.9,0.5-1.5,1-1.8
							c1.1-1.9,1.8-3.8,2.4-5.7l2.8-0.4c0.2,5,0.4,5.7,0.4,7c0,0.3,0,0.5-0.1,0.7c0.5-0.3,1-0.7,1.4-1H97.9z M90.6,89.5
							c-0.2,0-0.4-0.1-0.5-0.3c0,0.9,0.3,1.3,1.2,1.3c0.8,0,1.7-0.4,1.7-1.8c0-1-0.2-1.6-0.4-4.6c-0.4,1.3-0.9,2.4-1.6,3.6
							c0.3,0.1,0.4,0.3,0.4,0.7C91.5,89,91.1,89.5,90.6,89.5z"/>
					</g>
					<g>
						<path class="st7" d="M100.8,90.3c0.7,0,1.7-0.5,2.3-1c-0.4,2.2-1.8,2.8-3.3,2.8c-1.8,0-3-0.9-3-3.1c0-2.2,1.3-6.9,5.2-6.9
							c1.7,0,2.1,0.9,2.1,1.8c0,2.2-2.1,3.9-4.4,4.1c0,0.2,0,0.4,0,0.6C99.6,89.9,100.1,90.3,100.8,90.3z M102.1,83.2
							c-1,0-1.9,2.1-2.3,4c1.5-0.1,2.8-1.6,2.8-3.2C102.6,83.5,102.5,83.2,102.1,83.2z"/>
					</g>
				</g>
			</g>
		</g>
	</g>
</g>
</svg>
