<svg xmlns="http://www.w3.org/2000/svg" xmlns:xlink="http://www.w3.org/1999/xlink" id="Layer_1" x="0" y="0" version="1.1" viewBox="0 0 226.4 37.8" xml:space="preserve" style="enable-background:new 0 0 226.4 37.8"><style type="text/css">.st0{fill:#4a2b2b}.st1{fill:#ea6433}.st2{fill:#fff}.st3{fill:#ab7029}.st4{fill:#9c6226}.st5{fill:#b32029}.st6{fill:#faa21e}.st7{fill:#a9ae38}.st8,.st9{fill:#6d1d0e}.st9{stroke:#fff;stroke-width:.8114;stroke-linecap:round;stroke-linejoin:round;stroke-miterlimit:10}.st10{fill:#411f1f}.st11,.st12{fill:none}.st12{stroke:#edebae;stroke-width:.1576;stroke-linecap:round}.st13{fill:#cf3339}</style><title>logo-main_1</title><g><g id="Layer_1-2"><path d="M44.5,29.1V12.8H48v13.4h7v2.9L44.5,29.1z" class="st0"/><path d="M63.3,29.4c-1.7,0.1-3.4-0.5-4.6-1.7c-1.1-1.3-1.7-2.9-1.6-4.6c0-0.9,0.1-1.8,0.4-2.7c0.2-0.7,0.6-1.4,1.2-2 c0.5-0.6,1.1-1,1.8-1.3c0.8-0.3,1.6-0.4,2.4-0.4c0.8,0,1.7,0.1,2.4,0.4c0.7,0.3,1.3,0.7,1.8,1.2c0.5,0.6,0.9,1.2,1.2,1.9 c0.3,0.8,0.4,1.7,0.4,2.5v1h-8.3v0.2c0,0.7,0.2,1.4,0.7,1.9c0.6,0.5,1.4,0.8,2.2,0.7c0.6,0,1.3-0.1,1.8-0.4c0.5-0.3,1-0.6,1.3-1.1 l1.9,2c-0.6,0.6-1.2,1.1-2,1.5C65.5,29.2,64.4,29.4,63.3,29.4z M63,19.2c-0.7,0-1.3,0.2-1.8,0.7c-0.5,0.5-0.7,1.2-0.7,1.9V22h4.9 v-0.2c0-0.7-0.2-1.4-0.6-1.9C64.3,19.4,63.7,19.2,63,19.2z" class="st0"/><path d="M81.8,12.8h5.7c1.3-0.1,2.7,0.3,3.7,1.2c0.9,0.8,1.3,2,1.3,3.2c0,0.8-0.2,1.6-0.7,2.2c-0.5,0.6-1.2,1-2,1.2 v0.1c0.9,0.2,1.7,0.6,2.4,1.3c0.6,0.7,0.9,1.7,0.8,2.6c0.1,1.2-0.4,2.4-1.3,3.3c-1,0.9-2.3,1.3-3.6,1.2h-6.3V12.8z M86.6,19.7 c0.6,0.1,1.3-0.1,1.8-0.4c0.4-0.4,0.6-0.9,0.6-1.5v-0.7c0.1-0.6-0.1-1.1-0.6-1.5c-0.5-0.3-1.2-0.4-1.8-0.4h-1.3v4.5H86.6z M87,26.7c0.6,0,1.3-0.1,1.8-0.4c0.4-0.4,0.7-1,0.6-1.5V24c0.1-0.6-0.2-1.2-0.6-1.5C88.3,22.1,87.7,22,87,22h-1.8v4.6L87,26.7z" class="st0"/><path d="M102.7,26.9h-0.1c-0.3,0.7-0.7,1.3-1.2,1.8c-0.7,0.5-1.5,0.8-2.3,0.7c-0.5,0-1.1-0.1-1.6-0.3 c-0.5-0.2-0.9-0.5-1.2-0.9c-0.4-0.4-0.6-0.9-0.8-1.4c-0.2-0.6-0.3-1.3-0.3-1.9V17h3.5v7.3c0,1.6,0.7,2.3,2,2.3 c0.3,0,0.5,0,0.8-0.1c0.2-0.1,0.5-0.2,0.7-0.3c0.2-0.1,0.4-0.3,0.5-0.5c0.1-0.2,0.2-0.5,0.2-0.8V17h3.5v12.1h-3.5L102.7,26.9z" class="st0"/><path d="M108.9,26.4h2.8v-6.6h-2.8V17h6.2v3.4h0.2c0.1-0.4,0.3-0.9,0.5-1.3c0.2-0.4,0.4-0.8,0.8-1.1 c0.3-0.3,0.7-0.6,1.1-0.8c0.5-0.2,1-0.3,1.5-0.3h1.1v3.2h-2.6c-0.7-0.1-1.4,0.2-1.9,0.8c-0.4,0.5-0.7,1.2-0.6,1.9v3.6h4v2.7h-10.2 V26.4z" class="st0"/><path d="M134.4,30.3c0.1,1.2-0.6,2.3-1.6,2.8c-1.6,0.7-3.3,1-5.1,0.9c-1,0-1.9,0-2.9-0.2c-0.6-0.1-1.2-0.3-1.8-0.6 c-0.4-0.2-0.7-0.5-0.9-0.9c-0.2-0.3-0.3-0.7-0.3-1.1c-0.1-0.6,0.1-1.1,0.5-1.6c0.5-0.4,1.1-0.7,1.7-0.8v-0.1 c-0.5-0.1-0.9-0.4-1.2-0.7c-0.3-0.3-0.5-0.8-0.4-1.2c0-0.5,0.2-1,0.6-1.3c0.5-0.3,1-0.5,1.6-0.6v-0.1c-0.7-0.3-1.3-0.8-1.7-1.5 c-0.4-0.7-0.6-1.5-0.5-2.3c0-0.6,0.1-1.3,0.4-1.9c0.2-0.5,0.6-1,1.1-1.4c0.5-0.4,1.1-0.6,1.6-0.8c0.7-0.2,1.4-0.3,2.1-0.3 c0.7,0,1.4,0.1,2.1,0.2v-0.6c0-0.4,0.2-0.9,0.5-1.2c0.4-0.3,0.9-0.5,1.4-0.5h2.1v2.5h-2.9v0.2c0.6,0.3,1.2,0.8,1.5,1.4 c0.4,0.7,0.6,1.4,0.6,2.2c0,0.6-0.1,1.3-0.4,1.9c-0.3,0.5-0.7,1-1.2,1.4c-0.5,0.4-1.1,0.7-1.7,0.8c-0.7,0.2-1.4,0.3-2.2,0.3 c-0.3,0-0.7,0-1-0.1c-0.3,0-0.6-0.1-0.9-0.2c-0.2,0.1-0.3,0.2-0.4,0.4c-0.1,0.2-0.2,0.3-0.2,0.5c0,0.2,0,0.3,0.1,0.4 c0.1,0.1,0.2,0.2,0.4,0.2c0.2,0.1,0.4,0.1,0.6,0.1c0.2,0,0.4,0,0.7,0h2.8c0.7,0,1.5,0.1,2.2,0.2c0.5,0.1,1,0.4,1.5,0.7 c0.4,0.3,0.7,0.7,0.9,1.1C134.3,29.3,134.4,29.8,134.4,30.3z M131.1,30.6c0-0.3-0.1-0.6-0.4-0.7c-0.4-0.2-0.9-0.3-1.4-0.3h-4.1 c-0.3,0.2-0.5,0.6-0.5,1c0,0.4,0.2,0.7,0.5,0.9c0.5,0.3,1.1,0.4,1.6,0.4h2c0.6,0,1.2-0.1,1.7-0.3C130.9,31.3,131.1,31,131.1,30.6 L131.1,30.6z M127.7,23.1c0.6,0.1,1.1-0.1,1.5-0.5c0.3-0.4,0.5-0.8,0.5-1.3v-0.6c0-0.5-0.2-1-0.5-1.3c-0.4-0.4-1-0.6-1.5-0.5 c-0.5,0-1.1,0.1-1.5,0.5c-0.3,0.4-0.5,0.8-0.5,1.3v0.6c0,0.5,0.2,0.9,0.5,1.3C126.6,23,127.1,23.2,127.7,23.1L127.7,23.1z" class="st0"/><path d="M141.7,29.4c-1.7,0.1-3.4-0.5-4.6-1.7c-1.1-1.3-1.7-2.9-1.6-4.6c0-0.9,0.1-1.8,0.4-2.7c0.2-0.7,0.6-1.4,1.2-2 c0.5-0.6,1.1-1,1.9-1.3c1.6-0.6,3.3-0.6,4.9,0c0.7,0.3,1.3,0.7,1.8,1.2c0.5,0.6,0.9,1.2,1.2,1.9c0.3,0.8,0.4,1.7,0.4,2.5v1h-8.3 v0.2c0,0.7,0.2,1.4,0.7,1.9c0.6,0.5,1.3,0.8,2.1,0.7c0.6,0,1.3-0.1,1.9-0.4c0.5-0.3,1-0.6,1.3-1.1l1.9,2c-0.6,0.6-1.2,1.1-2,1.5 C143.8,29.1,142.8,29.4,141.7,29.4z M141.4,19.2c-0.7,0-1.3,0.2-1.8,0.7c-0.5,0.5-0.7,1.2-0.7,1.9V22h4.9v-0.2 c0-0.7-0.2-1.4-0.6-1.9C142.7,19.5,142.1,19.2,141.4,19.2z" class="st0"/><path d="M149.6,26.4h2.8v-6.6h-2.8V17h6.2v3.4h0.2c0.1-0.4,0.3-0.9,0.4-1.3c0.2-0.4,0.4-0.8,0.8-1.1 c0.3-0.3,0.7-0.6,1.1-0.8c0.5-0.2,1-0.3,1.6-0.3h1.1v3.2h-2.6c-0.7-0.1-1.4,0.2-1.9,0.8c-0.4,0.5-0.7,1.2-0.7,1.9v3.6h4v2.7h-10.2 V26.4z" class="st0"/><path d="M173.3,29.1l-1-16.3h3l0.5,9.8l0.1,3.1h0.2l1.4-9.3h3.1l1.4,9.3h0.2l0.1-3l0.5-9.9h2.9l-1,16.3h-4.4l-1.2-9 h-0.2l-1.2,9L173.3,29.1z" class="st1"/><path d="M192.9,29.4c-1.7,0.1-3.4-0.5-4.6-1.7c-1.1-1.3-1.7-2.9-1.6-4.6c0-0.9,0.1-1.8,0.4-2.7c0.3-0.7,0.7-1.4,1.2-2 c0.5-0.6,1.1-1,1.9-1.3c0.8-0.3,1.6-0.4,2.4-0.4c0.8,0,1.7,0.1,2.4,0.4c0.7,0.3,1.3,0.7,1.8,1.2c0.5,0.6,0.9,1.2,1.2,1.9 c0.3,0.8,0.4,1.7,0.4,2.5v1h-8.3v0.2c0,0.7,0.2,1.4,0.7,1.9c0.6,0.5,1.4,0.8,2.1,0.7c0.6,0,1.3-0.1,1.8-0.4c0.5-0.3,1-0.6,1.3-1.1 l1.9,2c-0.6,0.6-1.2,1.1-2,1.5C195.1,29.1,194,29.4,192.9,29.4z M192.6,19.2c-0.7,0-1.3,0.2-1.8,0.7c-0.5,0.5-0.7,1.2-0.7,1.9V22 h4.9v-0.2c0-0.7-0.2-1.4-0.6-1.9C193.9,19.5,193.3,19.2,192.6,19.2z" class="st1"/><path d="M206.5,29.4c-1.7,0.1-3.4-0.5-4.6-1.7c-1.1-1.3-1.7-2.9-1.6-4.6c0-0.9,0.1-1.8,0.4-2.7c0.2-0.7,0.6-1.4,1.2-2 c0.5-0.6,1.1-1,1.9-1.3c1.6-0.6,3.3-0.6,4.9,0c0.7,0.3,1.3,0.7,1.8,1.2c0.5,0.6,0.9,1.2,1.1,1.9c0.3,0.8,0.4,1.7,0.4,2.5v1h-8.2 v0.2c0,0.7,0.2,1.4,0.7,1.9c0.6,0.5,1.4,0.8,2.1,0.7c0.6,0,1.3-0.1,1.9-0.4c0.5-0.3,1-0.6,1.3-1.1l1.9,2c-0.6,0.6-1.2,1.1-2,1.5 C208.6,29.1,207.6,29.4,206.5,29.4z M206.2,19.2c-0.7,0-1.3,0.2-1.8,0.7c-0.5,0.5-0.7,1.2-0.7,1.9V22h4.9v-0.2 c0-0.7-0.2-1.4-0.6-1.9C207.5,19.5,206.9,19.2,206.2,19.2z" class="st1"/><path d="M214.2,11.8h3.5v9.8h0.2l1.6-1.9L222,17h4l-4.7,4.8l5.1,7.3h-4.1l-3.5-5.3l-1.1,1.1v4.2h-3.5L214.2,11.8z" class="st1"/></g></g><g><g><path d="M18.3,36.6h-7.4c-1.2,0-2.2-1-2.2-2.2v0h7.9L18.3,36.6z" class="st2"/></g><g><g><g><g><g><path d="M36.2,22.9c1.1,0,1.9-0.8,1.9-1.9c0-1.1-0.8-1.9-1.8-1.9c-0.3,0-0.6,0.1-0.8,0.1 c-0.2-0.1-0.3-0.1-0.5-0.1h-0.4c0-0.2,0-0.3-0.1-0.5c0-0.1,0.1-0.2,0.1-0.4v-0.7c0-0.1,0-0.1,0-0.2c0-0.1,0-0.1,0-0.2v-0.6 c0-2.5-1.4-5-3.8-6.8c-2.7-2-6.4-3-10.7-3c-3.2,0-5.9,0.6-8,1.5c-4.4,1.9-6.6,5.2-6.6,8.3v0.1c-1.4,0.8-2.2,2-2.2,3.3 C2,20.2,0.8,21,0.8,22.2c0,0.6,0.3,1,0.7,1.3l-0.2,1.1c-0.1,0.3,0,0.6,0.2,0.9c0.2,0.2,0.5,0.3,0.8,0.3h0 c0.1,0,0.4,0.3,0.6,0.4c0.2,0.2,0.5,0.4,0.8,0.5c-0.1,0.2-0.2,0.4-0.1,0.6l0,0.4c-0.1,0.1-0.1,0.3-0.1,0.5l0,0.7 c0,0.3,0.1,0.5,0.3,0.7c0.2,0.2,0.4,0.3,0.7,0.3l0.5,0c0,0,0,0,0.1,0c0.1,0,0.1,0,0.2,0.1v0.1c0,5.2,4.5,5.2,8.6,5.2H26 c4,0,8.6,0,8.6-5.2v-0.6c0-0.2-0.1-0.4-0.1-0.5c0.3-0.2,0.6-0.3,0.7-0.5c0.3-0.2,0.3-0.2,0.4-0.2l0.5,0c0.3,0,0.5-0.1,0.7-0.3 c0.2-0.2,0.3-0.4,0.3-0.7l0-0.7c0-0.2-0.1-0.3-0.1-0.5l0-0.4c0-0.3-0.1-0.5-0.3-0.7c-0.2-0.2-0.4-0.3-0.7-0.3l-0.3,0 c-0.1,0-0.2,0-0.3,0l0.4-1.9C35.7,22.8,36,22.9,36.2,22.9z" class="st2"/></g></g><g><g><path d="M33.6,16.5c0-4.2-4.6-8.8-13.5-8.8c-8.9,0-13.7,4.6-13.7,8.8v0.6h27.2V16.5z" class="st3"/></g></g><g><g><g><path d="M17.1,8.9h-0.9c0,0-0.1,0-0.1,0.1c0,0,0,0.1,0,0.2c0,0.1,0,0.2,0,0.2c0,0,0.1,0.1,0.1,0.1h0.9 c0,0,0.1,0,0.1-0.1c0,0,0-0.1,0-0.2c0-0.1,0-0.2,0-0.2C17.2,9,17.1,8.9,17.1,8.9z" class="st4"/></g></g><g><g><path d="M20.4,8.9h-0.9c0,0-0.1,0-0.1,0.1c0,0,0,0.1,0,0.2c0,0.1,0,0.2,0,0.2c0,0,0.1,0.1,0.1,0.1h0.9 c0,0,0.1,0,0.1-0.1c0,0,0-0.1,0-0.2c0-0.1,0-0.2,0-0.2C20.5,9,20.4,8.9,20.4,8.9z" class="st4"/></g></g><g><g><path d="M23.7,8.9h-0.9c0,0-0.1,0-0.1,0.1c0,0,0,0.1,0,0.2c0,0.1,0,0.2,0,0.2c0,0,0.1,0.1,0.1,0.1h0.9 c0,0,0.1,0,0.1-0.1c0,0,0-0.1,0-0.2c0-0.1,0-0.2,0-0.2C23.8,9,23.8,8.9,23.7,8.9z" class="st4"/></g></g><g><g><path d="M15.4,10.9h-0.9c0,0-0.1,0-0.1,0.1c0,0,0,0.1,0,0.2c0,0.1,0,0.2,0,0.2c0,0,0.1,0.1,0.1,0.1h0.9 c0,0,0.1,0,0.1-0.1c0,0,0-0.1,0-0.2c0-0.1,0-0.2,0-0.2C15.5,10.9,15.5,10.9,15.4,10.9z" class="st4"/></g></g><g><g><path d="M18.7,10.9h-0.9c0,0-0.1,0-0.1,0.1c0,0,0,0.1,0,0.2c0,0.1,0,0.2,0,0.2c0,0,0.1,0.1,0.1,0.1h0.9 c0,0,0.1,0,0.1-0.1c0,0,0-0.1,0-0.2c0-0.1,0-0.2,0-0.2C18.8,10.9,18.8,10.9,18.7,10.9z" class="st4"/></g></g><g><g><path d="M12.1,10.9h-0.9c0,0-0.1,0-0.1,0.1c0,0,0,0.1,0,0.2c0,0.1,0,0.2,0,0.2c0,0,0.1,0.1,0.1,0.1h0.9 c0,0,0.1,0,0.1-0.1c0,0,0-0.1,0-0.2c0-0.1,0-0.2,0-0.2C12.2,10.9,12.2,10.9,12.1,10.9z" class="st4"/></g></g><g><g><path d="M22,10.9h-0.9c0,0-0.1,0-0.1,0.1c0,0,0,0.1,0,0.2c0,0.1,0,0.2,0,0.2c0,0,0.1,0.1,0.1,0.1H22 c0,0,0.1,0,0.1-0.1c0,0,0-0.1,0-0.2c0-0.1,0-0.2,0-0.2C22.1,10.9,22.1,10.9,22,10.9z" class="st4"/></g></g><g><g><path d="M25.4,10.9h-0.9c0,0-0.1,0-0.1,0.1c0,0,0,0.1,0,0.2c0,0.1,0,0.2,0,0.2c0,0,0.1,0.1,0.1,0.1h0.9 c0,0,0.1,0,0.1-0.1c0,0,0-0.1,0-0.2c0-0.1,0-0.2,0-0.2C25.4,10.9,25.4,10.9,25.4,10.9z" class="st4"/></g></g><g><g><path d="M28.7,10.9h-0.9c0,0-0.1,0-0.1,0.1c0,0,0,0.1,0,0.2c0,0.1,0,0.2,0,0.2c0,0,0.1,0.1,0.1,0.1h0.9 c0,0,0.1,0,0.1-0.1c0,0,0-0.1,0-0.2c0-0.1,0-0.2,0-0.2C28.7,10.9,28.7,10.9,28.7,10.9z" class="st4"/></g></g><g><g><path d="M17.1,13h-0.9c0,0-0.1,0-0.1,0.1c0,0,0,0.1,0,0.2c0,0.1,0,0.2,0,0.2c0,0,0.1,0.1,0.1,0.1h0.9 c0,0,0.1,0,0.1-0.1c0,0,0-0.1,0-0.2c0-0.1,0-0.2,0-0.2C17.2,13,17.1,13,17.1,13z" class="st4"/></g></g><g><g><path d="M20.4,13h-0.9c0,0-0.1,0-0.1,0.1c0,0,0,0.1,0,0.2c0,0.1,0,0.2,0,0.2c0,0,0.1,0.1,0.1,0.1h0.9 c0,0,0.1,0,0.1-0.1c0,0,0-0.1,0-0.2c0-0.1,0-0.2,0-0.2C20.5,13,20.4,13,20.4,13z" class="st4"/></g></g><g><g><path d="M23.7,13h-0.9c0,0-0.1,0-0.1,0.1c0,0,0,0.1,0,0.2c0,0.1,0,0.2,0,0.2c0,0,0.1,0.1,0.1,0.1h0.9 c0,0,0.1,0,0.1-0.1c0,0,0-0.1,0-0.2c0-0.1,0-0.2,0-0.2C23.8,13,23.8,13,23.7,13z" class="st4"/></g></g><g><g><path d="M18.7,14.9h-0.9c0,0-0.1,0-0.1,0.1c0,0,0,0.1,0,0.2c0,0.1,0,0.2,0,0.2c0,0,0.1,0.1,0.1,0.1h0.9 c0,0,0.1,0,0.1-0.1c0,0,0-0.1,0-0.2c0-0.1,0-0.2,0-0.2C18.8,15,18.8,14.9,18.7,14.9z" class="st4"/></g></g><g><g><path d="M22,14.9h-0.9c0,0-0.1,0-0.1,0.1c0,0,0,0.1,0,0.2c0,0.1,0,0.2,0,0.2c0,0,0.1,0.1,0.1,0.1H22 c0,0,0.1,0,0.1-0.1c0,0,0-0.1,0-0.2c0-0.1,0-0.2,0-0.2C22.1,15,22.1,14.9,22,14.9z" class="st4"/></g></g><g><g><path d="M27,13h-0.9c0,0-0.1,0-0.1,0.1c0,0,0,0.1,0,0.2c0,0.1,0,0.2,0,0.2c0,0,0.1,0.1,0.1,0.1H27 c0,0,0.1,0,0.1-0.1c0,0,0-0.1,0-0.2c0-0.1,0-0.2,0-0.2C27.1,13,27,13,27,13z" class="st4"/></g></g><g><g><path d="M30.4,13c0,0-0.1-0.1-0.1-0.1h-0.9c0,0-0.1,0-0.1,0.1c0,0,0,0.1,0,0.2c0,0.1,0,0.2,0,0.2 c0,0,0.1,0.1,0.1,0.1h0.9c0,0,0.1,0,0.1-0.1c0,0,0-0.1,0-0.2C30.4,13.1,30.4,13.1,30.4,13z" class="st4"/></g></g><g><g><path d="M28.7,14.9h-0.9c0,0-0.1,0-0.1,0.1c0,0,0,0.1,0,0.2c0,0.1,0,0.2,0,0.2c0,0,0.1,0.1,0.1,0.1h0.9 c0,0,0.1,0,0.1-0.1c0,0,0-0.1,0-0.2c0-0.1,0-0.2,0-0.2C28.7,15,28.7,14.9,28.7,14.9z" class="st4"/></g></g><g><g><path d="M25.3,14.9h-0.9c0,0-0.1,0-0.1,0.1c0,0,0,0.1,0,0.2c0,0.1,0,0.2,0,0.2c0,0,0.1,0.1,0.1,0.1h0.9 c0,0,0.1,0,0.1-0.1c0,0,0-0.1,0-0.2c0-0.1,0-0.2,0-0.2C25.4,15,25.4,14.9,25.3,14.9z" class="st4"/></g></g><g><g><path d="M10.5,13H9.6c0,0-0.1,0-0.1,0.1c0,0,0,0.1,0,0.2c0,0.1,0,0.2,0,0.2c0,0,0.1,0.1,0.1,0.1h0.9 c0,0,0.1,0,0.1-0.1c0,0,0-0.1,0-0.2c0-0.1,0-0.2,0-0.2C10.6,13,10.5,13,10.5,13z" class="st4"/></g></g><g><g><path d="M13.8,13h-0.9c0,0-0.1,0-0.1,0.1c0,0,0,0.1,0,0.2c0,0.1,0,0.2,0,0.2c0,0,0.1,0.1,0.1,0.1h0.9 c0,0,0.1,0,0.1-0.1c0,0,0-0.1,0-0.2c0-0.1,0-0.2,0-0.2C13.9,13,13.8,13,13.8,13z" class="st4"/></g></g><g><g><path d="M12.1,14.9h-0.9c0,0-0.1,0-0.1,0.1c0,0,0,0.1,0,0.2c0,0.1,0,0.2,0,0.2c0,0,0.1,0.1,0.1,0.1h0.9 c0,0,0.1,0,0.1-0.1c0,0,0-0.1,0-0.2c0-0.1,0-0.2,0-0.2C12.2,15,12.2,14.9,12.1,14.9z" class="st4"/></g></g><g><g><path d="M15.5,15C15.5,14.9,15.5,14.9,15.5,15l-0.9,0c0,0-0.1,0-0.1,0.1c0,0,0,0.1,0,0.2c0,0.1,0,0.2,0,0.2 c0,0,0.1,0.1,0.1,0.1h0.9h0c0,0,0.1,0,0.1-0.1c0,0,0-0.1,0-0.2C15.6,15.1,15.5,15,15.5,15C15.5,15,15.5,15,15.5,15z" class="st4"/></g></g></g><g><g><path d="M33.5,20.1c0,0.3,0,0.5-0.3,0.5H6.6c-0.3,0-0.3-0.2-0.3-0.5v-0.9c0-0.3,0-0.5,0.3-0.5h26.7 c0.3,0,0.3,0.2,0.3,0.5V20.1z" class="st5"/></g></g><g><g><rect width="27.2" height=".7" x="6.3" y="17.6" class="st6"/></g></g><g><g><polygon points="23.9 17.8 20 20.2 15.9 17.8" class="st6"/></g></g><g><g><path d="M6.3,29.3v0.6c0,4.2,3.4,4.2,7.6,4.2H26c4.2,0,7.6,0,7.6-4.2v-0.6H6.3z" class="st3"/></g></g><g><g><g><path d="M7.7,30c0,0.7,0.1,1.1,1,0.7c0.9-0.5,2-1.1,4.4-1c-0.9,0.3-1.9,0.7-2,1.3c-0.1,0.6,0.5,0.9,1.8,0.6 c0.2,0.6,0.7,1.2,1.9,0.2c1.2-1,1.8-1.4,2.4-1.6c0.6-0.2,0.7,0.1,0.1,0.5c-0.6,0.4-1.2,0.6-1.3,1c-0.1,0.4,0,1.1,1,0.8 c0,0.7,0.2,1.3,1.1,1.3c0.9,0,1.2-0.5,1.2-1.3c0.6,0.3,1.4,0.5,1.4-0.6c0.1-1.1,0.6-1.6,1.1-1.9c0.5-0.3,0.6,0.2,0.3,0.4 c-0.5,0.2-0.6,0.5-0.7,0.9c0,0.5,0.8,1.1,1.6,0.3c0.1,0.5,1,0.8,1.3-0.2c0.3-1,0.4-1.6,1.3-1.7c-0.6,0.2-1,1.2-0.2,1.5 c0.8,0.3,1.2-0.5,1.3-0.7c0.1-0.3,0.4-0.8,1.1-0.8c-0.7,0.3-0.7,1.3,0,1.4c0.7,0.1,0.9-0.2,1.4-0.6c0.5-0.5,1.5-1,2.8-0.8 c-0.3,0.7,0.2,0.9,0.6,0.8c0.5-0.1,0.5-0.6,0.6-1H7.1v0C6.7,29.5,6.5,30.6,7.7,30z" class="st7"/></g></g></g><g><g><path d="M5,27.8c0.5,0,0.7,0.1,1.1,0.3c0.4,0.2,1,0.6,2,0.5c1-0.1,1.6-0.5,2-0.7c0.3-0.2,0.5-0.4,1-0.4 c0.5,0,0.7,0.1,1.1,0.3c0.4,0.2,1,0.6,2,0.5c1-0.1,1.6-0.5,2-0.7c0.3-0.2,0.5-0.4,1-0.4c0.5,0,0.7,0.1,1.1,0.3 c0.4,0.2,1,0.6,2,0.5c1-0.1,1.6-0.5,2-0.7c0.3-0.2,0.5-0.4,1-0.4c0.5,0,0.7,0.1,1.1,0.3c0.4,0.2,1,0.6,2,0.5 c1-0.1,1.6-0.5,2-0.7c0.3-0.2,0.5-0.4,1-0.4c0.5,0,0.7,0.1,1.1,0.3c0.4,0.2,1,0.6,2,0.5c1-0.1,1.6-0.5,2-0.7 c0.3-0.2,0.5-0.4,1-0.4l0.3,0l0-0.7l-0.3,0c-1.1,0.1-1.6,0.5-2,0.8c-0.3,0.2-0.5,0.4-1,0.4c-0.5,0-0.6-0.1-1-0.3 c-0.4-0.3-1-0.6-2.1-0.5c-1.1,0.1-1.6,0.5-2,0.8c-0.3,0.2-0.5,0.4-1,0.4c-0.5,0-0.6-0.1-1-0.3c-0.4-0.3-1-0.6-2.1-0.5 c-1.1,0.1-1.6,0.5-2,0.8c-0.3,0.2-0.5,0.4-1,0.4c-0.5,0-0.6-0.1-1-0.3c-0.4-0.3-1-0.6-2.1-0.5c-1.1,0.1-1.6,0.5-2,0.8 c-0.3,0.2-0.5,0.4-1,0.4c-0.5,0-0.6-0.1-1-0.3c-0.4-0.3-1-0.6-2.1-0.5c-1.1,0.1-1.6,0.5-2,0.8c-0.3,0.2-0.5,0.4-1,0.4 c-0.5,0-0.6-0.1-1-0.3c-0.4-0.3-1-0.6-2.1-0.5l-0.3,0l0,0.7L5,27.8z" class="st5"/></g></g><g><g><path d="M34.6,26.7c-0.4,0.3-1,0.7-2.1,0.8c-1.1,0.1-1.7-0.3-2.2-0.6c-0.3-0.2-0.5-0.3-0.9-0.3 c-0.4,0-0.6,0.1-0.9,0.4c-0.4,0.3-1,0.7-2.1,0.8c-1.1,0.1-1.7-0.3-2.2-0.6c-0.3-0.2-0.5-0.3-0.9-0.3c-0.4,0-0.6,0.1-0.9,0.4 c-0.4,0.3-1,0.7-2.1,0.8c-1.1,0.1-1.7-0.3-2.2-0.6c-0.3-0.2-0.5-0.3-0.9-0.3c-0.4,0-0.6,0.1-0.9,0.4c-0.4,0.3-1,0.7-2.1,0.8 c-1.1,0.1-1.7-0.3-2.2-0.6c-0.3-0.2-0.5-0.3-0.9-0.3c-0.4,0-0.6,0.1-0.9,0.4c-0.4,0.3-1,0.7-2.1,0.8c-1.1,0.1-1.7-0.3-2.2-0.6 C5.6,28.1,5.4,28,5,28l-0.5,0l0,0.7l0.5,0c0.5,0,0.6,0.1,1,0.3c0.4,0.3,1,0.6,2.1,0.5c1.1-0.1,1.6-0.5,2-0.8 c0.3-0.2,0.5-0.4,1-0.4c0.5,0,0.6,0.1,1,0.3c0.4,0.3,1,0.6,2.1,0.5c1.1-0.1,1.6-0.5,2-0.8c0.3-0.2,0.5-0.4,1-0.4 c0.5,0,0.6,0.1,1,0.3c0.4,0.3,1,0.6,2.1,0.5c1.1-0.1,1.6-0.5,2-0.8c0.3-0.2,0.5-0.4,1-0.4c0.5,0,0.6,0.1,1,0.3 c0.4,0.3,1,0.6,2.1,0.5c1.1-0.1,1.6-0.5,2-0.8c0.3-0.2,0.5-0.4,1-0.4c0.5,0,0.6,0.1,1,0.3c0.4,0.3,1,0.6,2.1,0.5 c1.1-0.1,1.6-0.5,2-0.8c0.3-0.2,0.5-0.4,1-0.4l0.5,0l0-0.7l-0.5,0C35.1,26.4,34.9,26.5,34.6,26.7z" class="st5"/></g></g><g><g><path d="M14.9,26.5l-0.4,1l-0.3,0.7l-0.1,0.3L14,29.2l0,0l-0.1,0.3v-3h-0.6L13,27.2L12.7,28l-0.1,0.2l-0.2,0.6 l-0.1,0.4l-0.1,0.3l0-0.3l0-0.5l0-0.7l0-0.3l0-0.9l0-0.4c-0.1,0-0.1,0-0.2,0c-0.4,0-0.8,0.1-1.1,0.3c-0.4,0.2-0.7,0.6-0.7,1v0 c0,0.1,0,0.2,0,0.3c0.1,0.2,0.2,0.2,0.5,0.2c0,0-0.1-0.1-0.1-0.3c0,0,0-0.1,0-0.1c0-0.1,0-0.2,0.1-0.3 c0.1-0.3,0.4-0.6,0.7-0.7v3.4h0.7l0.1-0.2l0.1-0.2l0.2-0.4l0.1-0.3l0.2-0.6l0.1-0.2l0.2-0.5v2.5h0.7l0.3-0.9l0,0l0.3-0.8 l0.1-0.3l0.3-0.9l0.3-0.8H14.9z" class="st8"/></g><g><path d="M13.9,30.6h-0.7c-0.2,0-0.4-0.2-0.4-0.4v-0.4l-0.2,0.5c-0.1,0.2-0.2,0.3-0.4,0.3h-0.7 c-0.2,0-0.4-0.2-0.4-0.4v-1.7c0,0,0,0,0,0c-0.1,0.1-0.2,0.1-0.3,0.1c-0.5,0-0.7-0.2-0.8-0.5c-0.1-0.1-0.1-0.3-0.1-0.4 c0-0.5,0.3-1,0.9-1.3c0.4-0.3,0.9-0.4,1.3-0.4c0.1,0,0.2,0,0.2,0c0.2,0,0.4,0.2,0.4,0.4l0,0.7l0.3-0.8 c0.1-0.2,0.2-0.3,0.4-0.3h0.6c0.2,0,0.4,0.2,0.4,0.4v0.6l0.3-0.8c0.1-0.2,0.2-0.3,0.4-0.3h0.3c0.1,0,0.3,0.1,0.3,0.2 c0.1,0.1,0.1,0.2,0,0.4l-1.4,3.7C14.2,30.5,14.1,30.6,13.9,30.6z M13.4,27.3C13.4,27.3,13.4,27.3,13.4,27.3l0.1-0.3L13.4,27.3 z" class="st2"/></g></g><g><g><path d="M16.5,29.3C16.5,29.3,16.4,29.3,16.5,29.3c-0.3,0.3-0.5,0.5-0.9,0.5c-0.2,0-0.4-0.1-0.4-0.4 c0,0,0-0.1,0-0.1c0,0,0-0.1,0-0.1c0.5,0,1-0.3,1.1-0.8c0-0.1,0-0.2,0-0.3c0-0.1,0-0.3-0.2-0.4c-0.1,0-0.2-0.1-0.3-0.1 c0,0-0.1,0-0.1,0c-0.4,0-0.7,0.2-0.9,0.5c-0.1,0.1-0.1,0.2-0.2,0.3c-0.1,0.3-0.2,0.5-0.2,0.8c0,0,0,0,0,0.1c0,0.1,0,0.1,0,0.2 c0,0.6,0.3,0.8,0.8,0.8c0.5,0,0.9-0.3,1.1-0.6c0.1-0.1,0.2-0.2,0.2-0.3H16.5z M15.9,27.9C15.9,27.9,15.9,27.9,15.9,27.9 C16,28,16,28,16,28.1c0,0.4-0.3,0.8-0.7,0.8c0.1-0.3,0.2-0.6,0.3-0.8C15.7,28,15.8,27.9,15.9,27.9z" class="st9"/></g></g><g><g><path d="M18.4,29.3c-0.2,0.3-0.5,0.5-0.9,0.5c-0.2,0-0.4-0.1-0.4-0.4c0,0,0-0.1,0-0.1c0,0,0-0.1,0-0.1 c0.5,0,1-0.3,1.1-0.8c0-0.1,0-0.2,0-0.3c0-0.2-0.1-0.5-0.5-0.5c-0.4,0-0.7,0.2-0.9,0.5c-0.3,0.3-0.4,0.8-0.4,1.1 c0,0,0,0.1,0,0.1c0,0,0,0,0,0.1c0,0.1,0,0.1,0,0.2c0,0.3,0.2,0.5,0.5,0.6c0.1,0,0.2,0,0.3,0c0.1,0,0.3,0,0.4-0.1 c0.3-0.1,0.5-0.3,0.7-0.5c0.1-0.1,0.2-0.2,0.2-0.3H18.4z M17.8,27.9c0.1,0,0.1,0.1,0.1,0.2c0,0,0,0.1,0,0.1 c0,0.4-0.4,0.7-0.7,0.7c0.1-0.3,0.2-0.7,0.3-0.9C17.6,28,17.7,27.9,17.8,27.9z" class="st9"/></g></g><g><g><path d="M20.3,29.5c0-0.1,0-0.1,0-0.2l0-0.1l0-0.1c0-0.1,0-0.1,0-0.2c0,0,0,0,0-0.1c0-0.3-0.2-0.5-0.5-0.5 c-0.1,0-0.1,0-0.2,0l0.3-0.2h0l0.4-0.3l0.3-0.2h-0.5l-0.3,0.2l-0.3,0.2l-0.4,0.3l0.1-0.3l0.1-0.2l0.2-0.7l0.1-0.4l-0.7,0.1h0 l-0.2,0.9l-0.1,0.2l-0.1,0.6l-0.2,0.7l0,0l-0.1,0.3l-0.1,0.5h0.7l0.2-0.9l0.1-0.3c0.1-0.1,0.1-0.1,0.2-0.1 c0.1,0,0.1-0.1,0.2-0.1c0.1,0,0.1,0,0.2,0.1c0,0,0,0.1,0,0.1c0,0.1,0,0.1,0,0.2l0,0.1l0,0.1c0,0.1,0,0.2,0,0.3 c0,0.4,0.2,0.6,0.6,0.6c0.1,0,0.4-0.2,0.5-0.5c0,0-0.1,0-0.2,0C20.4,29.7,20.3,29.6,20.3,29.5z" class="st8"/></g><g><path d="M20.2,30.6c-0.4,0-0.8-0.2-0.9-0.5l0,0.1c0,0.2-0.2,0.3-0.4,0.3h-0.7c-0.1,0-0.2-0.1-0.3-0.2 c-0.1-0.1-0.1-0.2-0.1-0.3l0.7-3.4c0-0.2,0.2-0.3,0.4-0.3l0.7-0.1c0.1,0,0.3,0,0.4,0.1c0.1,0.1,0.1,0.2,0.1,0.4l-0.1,0.6 l0.1-0.1c0.1-0.1,0.2-0.1,0.3-0.1h0.5c0.2,0,0.3,0.1,0.4,0.3c0.1,0.2,0,0.4-0.2,0.5l-0.3,0.2c0.1,0.2,0.2,0.4,0.2,0.6 c0,0,0,0.1,0,0.1c0,0.1,0,0.2,0,0.3l0,0.1c0.1,0,0.1,0,0.1,0.1c0.1,0.1,0.2,0.2,0.2,0.4C21.1,30.3,20.6,30.6,20.2,30.6z" class="st2"/></g></g><g><g><path d="M14.9,26.5l-0.4,1l-0.3,0.7l-0.1,0.3L14,29.2l0,0l-0.1,0.3v-3h-0.6L13,27.2L12.7,28l-0.1,0.2l-0.2,0.6 l-0.1,0.4l-0.1,0.3l0-0.3l0-0.5l0-0.7l0-0.3l0-0.9l0-0.4c-0.1,0-0.1,0-0.2,0c-0.4,0-0.8,0.1-1.1,0.3c-0.4,0.2-0.7,0.6-0.7,1v0 c0,0.1,0,0.2,0,0.3c0.1,0.2,0.2,0.2,0.5,0.2c0,0-0.1-0.1-0.1-0.3c0,0,0-0.1,0-0.1c0-0.1,0-0.2,0.1-0.3 c0.1-0.3,0.4-0.6,0.7-0.7v3.4h0.7l0.1-0.2l0.1-0.2l0.2-0.4l0.1-0.3l0.2-0.6l0.1-0.2l0.2-0.5v2.5h0.7l0.3-0.9l0,0l0.3-0.8 l0.1-0.3l0.3-0.9l0.3-0.8H14.9z" class="st10"/></g></g><g><g><path d="M16.5,29.3C16.5,29.3,16.4,29.3,16.5,29.3c-0.3,0.3-0.5,0.5-0.9,0.5c-0.2,0-0.4-0.1-0.4-0.4 c0,0,0-0.1,0-0.1c0,0,0-0.1,0-0.1c0.5,0,1-0.3,1.1-0.8c0-0.1,0-0.2,0-0.3c0-0.1,0-0.3-0.2-0.4c-0.1,0-0.2-0.1-0.3-0.1 c0,0-0.1,0-0.1,0c-0.4,0-0.7,0.2-0.9,0.5c-0.1,0.1-0.1,0.2-0.2,0.3c-0.1,0.3-0.2,0.5-0.2,0.8c0,0,0,0,0,0.1c0,0.1,0,0.1,0,0.2 c0,0.6,0.3,0.8,0.8,0.8c0.5,0,0.9-0.3,1.1-0.6c0.1-0.1,0.2-0.2,0.2-0.3H16.5z M15.9,27.9C15.9,27.9,15.9,27.9,15.9,27.9 C16,28,16,28,16,28.1c0,0.4-0.3,0.8-0.7,0.8c0.1-0.3,0.2-0.6,0.3-0.8C15.7,28,15.8,27.9,15.9,27.9z" class="st10"/></g></g><g><g><path d="M18.4,29.3c-0.2,0.3-0.5,0.5-0.9,0.5c-0.2,0-0.4-0.1-0.4-0.4c0,0,0-0.1,0-0.1c0,0,0-0.1,0-0.1 c0.5,0,1-0.3,1.1-0.8c0-0.1,0-0.2,0-0.3c0-0.2-0.1-0.5-0.5-0.5c-0.4,0-0.7,0.2-0.9,0.5c-0.3,0.3-0.4,0.8-0.4,1.1 c0,0,0,0.1,0,0.1c0,0,0,0,0,0.1c0,0.1,0,0.1,0,0.2c0,0.3,0.2,0.5,0.5,0.6c0.1,0,0.2,0,0.3,0c0.1,0,0.3,0,0.4-0.1 c0.3-0.1,0.5-0.3,0.7-0.5c0.1-0.1,0.2-0.2,0.2-0.3H18.4z M17.8,27.9c0.1,0,0.1,0.1,0.1,0.2c0,0,0,0.1,0,0.1 c0,0.4-0.4,0.7-0.7,0.7c0.1-0.3,0.2-0.7,0.3-0.9C17.6,28,17.7,27.9,17.8,27.9z" class="st10"/></g></g><g><g><path d="M20.3,29.5c0-0.1,0-0.1,0-0.2l0-0.1l0-0.1c0-0.1,0-0.1,0-0.2c0,0,0,0,0-0.1c0-0.3-0.2-0.5-0.5-0.5 c-0.1,0-0.1,0-0.2,0l0.3-0.2h0l0.4-0.3l0.3-0.2h-0.5l-0.3,0.2l-0.3,0.2l-0.4,0.3l0.1-0.3l0.1-0.2l0.2-0.7l0.1-0.4l-0.7,0.1h0 l-0.2,0.9l-0.1,0.2l-0.1,0.6l-0.2,0.7l0,0l-0.1,0.3l-0.1,0.5h0.7l0.2-0.9l0.1-0.3c0.1-0.1,0.1-0.1,0.2-0.1 c0.1,0,0.1-0.1,0.2-0.1c0.1,0,0.1,0,0.2,0.1c0,0,0,0.1,0,0.1c0,0.1,0,0.1,0,0.2l0,0.1l0,0.1c0,0.1,0,0.2,0,0.3 c0,0.4,0.2,0.6,0.6,0.6c0.1,0,0.4-0.2,0.5-0.5c0,0-0.1,0-0.2,0C20.4,29.7,20.3,29.6,20.3,29.5z" class="st10"/></g></g></g></g><g><g><path d="M10.7,20.6c0.1,0,0.1-0.1,0.2-0.1c0.8-0.5,1.2-1.2,1.2-1.9c0,0,0,0,0,0c0-0.1,0-0.2,0-0.4 c-0.1-0.3-0.2-0.5-0.3-0.7c-0.1-0.1-0.3-0.3-0.5-0.4c-0.5-0.3-1.2-0.5-2.1-0.5c-0.9,0-1.8,0.2-2.6,0.5c-1.4,0.6-2.5,1.7-2.5,2.8 c0,0.8,0.6,1.2,1.5,1.2c0-0.1-0.2-0.2-0.2-0.9c0-0.9,0.4-1.7,1-2.2c0.3-0.2,0.5-0.4,0.9-0.5c0.5-0.2,1.1-0.3,1.6-0.3 c0.6,0,1,0.1,1.3,0.3c0.3,0.2,0.4,0.4,0.5,0.7c0,0.1,0,0.2,0,0.3c0,0,0,0.1,0,0.1c-0.1,0.8-0.7,1.6-1.5,1.9 c-0.1,0-0.3,0.1-0.5,0.1H8.6l0-0.1L9,18.7l0.1-0.4l0.1-0.5l-2,0.3l0,0.2L7,18.7l-0.4,1.9l-1.3,5.5h2l1.1-4.8c0.2,0,0.5,0,0.6,0 c1,0,1.3,0.7,1.3,1.6c0,1-0.4,2.3-1.4,2.3c-0.3,0-0.6-0.1-0.9-0.5c-0.1,0.3-0.2,0.5-0.2,0.7c0,0.8,0.8,0.9,1.4,0.9 c2.3,0,3-2.4,3-3.6C12.3,21.7,11.9,20.9,10.7,20.6z" class="st8"/></g><g><path d="M9.3,26.8c-0.7,0-1.2-0.2-1.5-0.5c-0.1,0.2-0.2,0.3-0.4,0.3h-2c-0.1,0-0.3-0.1-0.4-0.2 c-0.1-0.1-0.1-0.3-0.1-0.4l1.1-4.5c-0.1,0.1-0.2,0.1-0.3,0.1c-1.7,0-2-1-2-1.6c0-1.3,1.1-2.5,2.7-3.3c0.9-0.4,1.8-0.6,2.8-0.6 c1,0,1.8,0.2,2.4,0.6c0.2,0.1,0.4,0.3,0.6,0.5c0.2,0.3,0.4,0.6,0.4,0.9c0,0.2,0,0.3,0,0.5c0,0,0,0,0,0.1c0,0.7-0.3,1.3-0.9,1.8 c0.7,0.4,1.1,1.2,1.1,2.2c0,0.7-0.2,1.7-0.7,2.5C11.4,26.2,10.5,26.8,9.3,26.8z M8.4,25.4c0,0.3,0.3,0.4,0.9,0.4 c2.1,0,2.6-2.3,2.6-3.2c0-0.6-0.2-1.4-1.2-1.6c-0.2,0-0.4-0.2-0.4-0.4c0-0.1,0-0.2,0-0.2c-0.2,0.1-0.3,0.3-0.5,0.4 c0.7,0.2,1.2,0.9,1.2,2c0,1.3-0.6,2.7-1.8,2.7C8.8,25.6,8.6,25.5,8.4,25.4z M5.9,25.6h1l1-4.5c0-0.1,0.1-0.2,0.2-0.3 c-0.1-0.1-0.1-0.2-0.1-0.4l0-0.1l0.5-2.1l-1,0.1l-0.5,2.2L5.9,25.6z M8.2,24.2c0.1,0,0.1,0.1,0.2,0.1c0.3,0.3,0.5,0.3,0.6,0.3 c0.7,0,0.9-1.1,0.9-1.8c0-1-0.4-1.1-0.8-1.1c0,0-0.1,0-0.3,0L8.2,24.2z M6.6,18.5c-0.5,0.5-0.8,1.1-0.8,1.8 c0,0.4,0.1,0.5,0.1,0.5C6,20.9,6,20.9,6,21L6.6,18.5z M5.5,18.4c-0.6,0.5-0.9,1.1-0.9,1.6c0,0.2,0,0.5,0.3,0.6 c0-0.1,0-0.2,0-0.3C4.9,19.6,5.1,18.9,5.5,18.4z M10.7,17.4c0.2,0.2,0.3,0.5,0.4,0.8c0,0.1,0,0.3,0,0.4c0,0,0,0.1,0,0.1 c0,0.5-0.3,1.1-0.6,1.5c0,0,0.1,0,0.1-0.1c0.6-0.4,1-0.9,1-1.5c0,0,0,0,0,0c0-0.1,0-0.2,0-0.3c0-0.2-0.1-0.4-0.3-0.5 c-0.1-0.1-0.2-0.2-0.3-0.3C10.9,17.5,10.8,17.5,10.7,17.4z M9.7,17.9C9.7,17.9,9.7,17.9,9.7,17.9L9.2,20c0.6-0.3,0.9-0.9,1-1.4 c0,0,0-0.1,0-0.1c0-0.1,0-0.1,0-0.2c0-0.2-0.1-0.3-0.3-0.4C9.8,17.9,9.8,17.9,9.7,17.9z" class="st2"/></g></g><g><g><path d="M18.4,24C18.4,24,18.4,24,18.4,24c-0.2,0.6-0.5,1.1-1,1.1c-0.3,0-0.5-0.1-0.5-0.4c0-0.1,0-0.2,0-0.4 l0.8-3.6l0.1-0.5h-1.7L16,20.6L15.3,24c-0.2,0.6-0.5,1.1-1,1.1c-0.3,0-0.4-0.2-0.4-0.5c0-0.1,0-0.2,0-0.3l0.8-3.6l0.1-0.5h-1.7 l-0.1,0.5L12.3,24c-0.1,0.3-0.1,0.6-0.1,0.8c0,1,0.6,1.4,1.3,1.4c0.5,0,1.2-0.2,1.8-1.1c0.1,0.7,0.5,1.1,1.2,1.1 c0.4,0,1-0.1,1.6-0.7c0.3-0.3,0.6-0.8,0.8-1.5H18.4z" class="st8"/></g><g><path d="M16.5,26.6c-0.6,0-1.1-0.2-1.3-0.7c-0.5,0.5-1,0.7-1.6,0.7c-0.8,0-1.7-0.5-1.7-1.8c0-0.2,0-0.5,0.1-0.9 l0.8-3.9c0-0.2,0.2-0.3,0.4-0.3h1.7c0.1,0,0.2,0.1,0.3,0.2c0.1,0.1,0.1,0.2,0.1,0.3l-0.9,4.1c0,0.1,0,0.2,0,0.3c0,0,0,0.1,0,0.1 c0.3-0.1,0.5-0.6,0.5-0.7l0.8-3.8c0-0.2,0.2-0.3,0.4-0.3h1.7c0.1,0,0.2,0.1,0.3,0.2c0.1,0.1,0.1,0.2,0.1,0.3l-0.9,4.1 c0,0.1,0,0.2,0,0.3c0,0,0,0,0,0c0,0,0,0,0.1,0c0.3,0,0.5-0.6,0.6-0.8c0,0,0-0.1,0-0.1c0.1-0.1,0.2-0.2,0.4-0.2h0.5 c0.1,0,0.3,0.1,0.3,0.2c0.1,0.1,0.1,0.2,0.1,0.4c-0.2,0.7-0.5,1.2-0.9,1.6C17.9,26.3,17.2,26.6,16.5,26.6z M15.5,24.7 c0.1,0.1,0.2,0.2,0.3,0.3c0.1,0.5,0.3,0.8,0.8,0.8c0.4,0,0.7-0.1,1-0.4c0,0-0.1,0-0.1,0c-0.8,0-0.9-0.5-0.9-0.9 c0-0.2,0-0.3,0.1-0.5l0.8-3.6h-0.9L15.7,24c0,0,0,0,0,0C15.6,24.3,15.5,24.5,15.5,24.7z M13.5,20.5L12.7,24 c-0.1,0.3-0.1,0.5-0.1,0.7c0,0.7,0.3,1,0.9,1c0.3,0,0.6-0.1,1-0.4c-0.1,0-0.1,0-0.1,0c-0.4,0-0.8-0.2-0.8-0.9c0-0.1,0-0.3,0-0.4 l0.8-3.6H13.5z M17.4,24.6L17.4,24.6L17.4,24.6z M18.4,24L18.4,24L18.4,24z" class="st2"/></g></g><g><g><path d="M23,20.6c-0.1-0.3-0.4-0.5-0.7-0.5c-0.4,0-0.8,0.2-1.1,0.5c-0.1,0.1-0.2,0.2-0.3,0.3l0.1-0.3l0.1-0.5h-1.7 l-0.1,0.5L18.4,24l-0.3,1.5l-0.1,0.7h1.7l1-4.6c0.3-0.3,0.5-0.5,0.9-0.5c0.4,0,0,0.8,0.7,0.8c0.6,0,0.9-0.5,0.9-0.9 C23.1,20.8,23,20.7,23,20.6z" class="st8"/></g><g><path d="M19.7,26.5h-1.7c-0.1,0-0.2-0.1-0.3-0.2c-0.1-0.1-0.1-0.2-0.1-0.3l1.3-6c0-0.2,0.2-0.3,0.4-0.3H21 c0.1,0,0.2,0.1,0.3,0.1c0,0,0,0.1,0.1,0.1c0.3-0.1,0.6-0.3,0.9-0.3c0.5,0,0.9,0.3,1.1,0.7c0.1,0.2,0.1,0.4,0.1,0.6 c0,0.6-0.4,1.3-1.3,1.3c-0.7,0-0.8-0.5-0.9-0.8c-0.1,0-0.2,0.1-0.3,0.2l-0.9,4.4C20,26.4,19.9,26.5,19.7,26.5z M18.4,25.7h0.9 l0.9-4.2c0-0.1,0.1-0.2,0.1-0.2c0,0,0.1-0.1,0.1-0.1c-0.1-0.1-0.1-0.2-0.1-0.4l0.1-0.3h-0.9L18.4,25.7z M22.2,21.5 C22.2,21.5,22.2,21.5,22.2,21.5c0.5,0,0.5-0.4,0.5-0.5c0-0.1,0-0.2-0.1-0.3c0,0,0,0,0,0c-0.1-0.2-0.2-0.2-0.4-0.2 c-0.2,0-0.4,0.1-0.6,0.2c0.4,0.1,0.4,0.5,0.5,0.6C22.1,21.4,22.1,21.4,22.2,21.5z M22.1,21.5L22.1,21.5L22.1,21.5z" class="st2"/></g></g><g><g><path d="M28.5,24c-0.1,0.4-0.3,0.7-0.5,1c-0.3,0.4-0.6,0.6-1,0.7l1.1-5.1l0.1-0.5h-1.7l-0.1,0.5l0,0.2v-0.1 c0,0,0-0.1,0-0.1c0-0.3-0.3-0.5-1-0.5c-0.6,0-1.1,0.2-1.5,0.5c-1.1,0.8-1.6,2.5-1.6,3.7c0,1.2,0.5,1.7,1.1,1.9 c0.1,0,0.3,0.1,0.5,0.1c0.1,0,0.1,0,0.2,0c0.5-0.1,0.9-0.3,1.2-0.7l-0.1,0.6c-0.2,0.1-0.3,0.1-0.5,0.2c-0.3,0.1-0.6,0.3-0.9,0.5 c-0.1,0.1-0.1,0.1-0.2,0.2c-0.2,0.2-0.3,0.4-0.3,0.7c0,0.1,0,0.1,0,0.2c0,0.8,0.6,1.2,1.3,1.2c0.5,0,1-0.1,1.4-0.5 c0.2-0.2,0.4-0.4,0.5-0.7c0-0.1,0.1-0.2,0.1-0.3c0.1-0.2,0.1-0.3,0.1-0.5l0-0.2l0.1-0.7c0.4-0.1,0.9-0.3,1.3-0.8 c0.3-0.3,0.6-0.8,0.8-1.5H28.5z M24.7,25c-0.2,0-0.6,0-0.6-0.9c0-1.1,0.7-3.3,1.7-3.3c0.4,0,0.5,0.3,0.5,0.4l-0.6,2.8 C25.4,24.7,25,25,24.7,25z M24.3,28.2c-0.2,0-0.4-0.2-0.4-0.3c0,0,0,0,0,0c0-0.2,0.1-0.4,0.3-0.5c0.1-0.1,0.1-0.1,0.2-0.2 c0.2-0.1,0.5-0.2,0.7-0.3L25,27.1c0,0.1,0,0.2-0.1,0.3c0,0.1-0.1,0.2-0.1,0.2c-0.1,0.3-0.2,0.4-0.4,0.5 C24.4,28.1,24.3,28.2,24.3,28.2z" class="st9"/></g></g><g><g><path d="M32.7,24c-0.1,0.1-0.3,0.3-0.4,0.4c-0.5,0.5-1,0.8-1.7,0.8c-0.6,0-0.9-0.2-0.9-1c0-0.1,0-0.3,0-0.5 c1.4-0.1,2.8-1.2,2.8-2.5c0-0.2,0-0.4-0.1-0.6c-0.2-0.3-0.5-0.6-1.2-0.6c-0.7,0-1.2,0.2-1.7,0.6c-1.2,0.9-1.6,2.7-1.6,3.7 c0,0.3,0,0.5,0.1,0.7c0,0.2,0.1,0.3,0.2,0.5c0.1,0.2,0.3,0.3,0.4,0.5c0.3,0.2,0.7,0.3,1.2,0.3c0.4,0,0.7-0.1,1-0.2 c0.5-0.2,1-0.5,1.3-0.8c0.4-0.4,0.7-0.8,1-1.2H32.7z M29.9,23.1c0.2-1.2,0.8-2.5,1.4-2.5c0.2,0,0.3,0.2,0.3,0.5 C31.6,22.1,30.8,23,29.9,23.1z" class="st9"/></g></g><g><g><path d="M36.3,20.1c-0.6,0-1,0.4-1.5,0.7l0.2-0.7h-1.7l-0.1,0.5l-0.8,3.8l-0.2,0.8L32,26.1h1.7l0-0.1l0.9-4.4 c0.3-0.3,0.5-0.5,0.9-0.5c0.4,0,0,0.8,0.7,0.8c0.6,0,0.9-0.5,0.9-0.9C37.1,20.5,36.8,20.1,36.3,20.1z" class="st8"/></g><g><path d="M33.7,26.5H32c-0.1,0-0.2-0.1-0.3-0.2c-0.1-0.1-0.1-0.2-0.1-0.3l1.3-6c0-0.2,0.2-0.3,0.4-0.3H35 c0.1,0,0.2,0.1,0.3,0.1c0,0,0,0.1,0.1,0.1c0.3-0.1,0.6-0.3,0.9-0.3c0.7,0,1.2,0.6,1.2,1.3c0,0.6-0.4,1.3-1.3,1.3 c-0.7,0-0.8-0.5-0.9-0.8c-0.1,0-0.2,0.1-0.3,0.2l-0.9,4.4C34.1,26.4,33.9,26.5,33.7,26.5z M32.5,25.7h0.9l0.9-4.2 c0-0.1,0.1-0.2,0.1-0.2c0,0,0.1-0.1,0.1-0.1c-0.1-0.1-0.1-0.2-0.1-0.4l0.1-0.3h-0.9L32.5,25.7z M36.2,21.5 C36.2,21.5,36.2,21.5,36.2,21.5c0.5,0,0.5-0.4,0.5-0.5c0-0.1,0-0.5-0.4-0.5c-0.2,0-0.4,0.1-0.6,0.2c0.4,0.1,0.4,0.5,0.5,0.6 C36.2,21.4,36.2,21.4,36.2,21.5z M36.2,21.5L36.2,21.5L36.2,21.5z" class="st2"/></g></g><g><g><path d="M10.7,20.6c0.1,0,0.1-0.1,0.2-0.1c0.8-0.5,1.2-1.2,1.2-1.9c0,0,0,0,0,0c0-0.1,0-0.2,0-0.4 c-0.1-0.3-0.2-0.5-0.3-0.7c-0.1-0.1-0.3-0.3-0.5-0.4c-0.5-0.3-1.2-0.5-2.1-0.5c-0.9,0-1.8,0.2-2.6,0.5c-1.4,0.6-2.5,1.7-2.5,2.8 c0,0.8,0.6,1.2,1.5,1.2c0-0.1-0.2-0.2-0.2-0.9c0-0.9,0.4-1.7,1-2.2c0.3-0.2,0.5-0.4,0.9-0.5c0.5-0.2,1.1-0.3,1.6-0.3 c0.6,0,1,0.1,1.3,0.3c0.3,0.2,0.4,0.4,0.5,0.7c0,0.1,0,0.2,0,0.3c0,0,0,0.1,0,0.1c-0.1,0.8-0.7,1.6-1.5,1.9 c-0.1,0-0.3,0.1-0.5,0.1H8.6l0-0.1L9,18.7l0.1-0.4l0.1-0.5l-2,0.3l0,0.2L7,18.7l-0.4,1.9l-1.3,5.5h2l1.1-4.8c0.2,0,0.5,0,0.6,0 c1,0,1.3,0.7,1.3,1.6c0,1-0.4,2.3-1.4,2.3c-0.3,0-0.6-0.1-0.9-0.5c-0.1,0.3-0.2,0.5-0.2,0.7c0,0.8,0.8,0.9,1.4,0.9 c2.3,0,3-2.4,3-3.6C12.3,21.7,11.9,20.9,10.7,20.6z" class="st10"/></g></g><g><g><path d="M18.4,24C18.4,24,18.4,24,18.4,24c-0.2,0.6-0.5,1.1-1,1.1c-0.3,0-0.5-0.1-0.5-0.4c0-0.1,0-0.2,0-0.4 l0.8-3.6l0.1-0.5h-1.7L16,20.6L15.3,24c-0.2,0.6-0.5,1.1-1,1.1c-0.3,0-0.4-0.2-0.4-0.5c0-0.1,0-0.2,0-0.3l0.8-3.6l0.1-0.5h-1.7 l-0.1,0.5L12.3,24c-0.1,0.3-0.1,0.6-0.1,0.8c0,1,0.6,1.4,1.3,1.4c0.5,0,1.2-0.2,1.8-1.1c0.1,0.7,0.5,1.1,1.2,1.1 c0.4,0,1-0.1,1.6-0.7c0.3-0.3,0.6-0.8,0.8-1.5H18.4z" class="st10"/></g></g><g><g><path d="M23,20.6c-0.1-0.3-0.4-0.5-0.7-0.5c-0.4,0-0.8,0.2-1.1,0.5c-0.1,0.1-0.2,0.2-0.3,0.3l0.1-0.3l0.1-0.5h-1.7 l-0.1,0.5L18.4,24l-0.3,1.5l-0.1,0.7h1.7l1-4.6c0.3-0.3,0.5-0.5,0.9-0.5c0.4,0,0,0.8,0.7,0.8c0.6,0,0.9-0.5,0.9-0.9 C23.1,20.8,23,20.7,23,20.6z" class="st10"/></g></g><g><g><path d="M28.5,24c-0.1,0.4-0.3,0.7-0.5,1c-0.3,0.4-0.6,0.6-1,0.7l1.1-5.1l0.1-0.5h-1.7l-0.1,0.5l0,0.2v-0.1 c0,0,0-0.1,0-0.1c0-0.3-0.3-0.5-1-0.5c-0.6,0-1.1,0.2-1.5,0.5c-1.1,0.8-1.6,2.5-1.6,3.7c0,1.2,0.5,1.7,1.1,1.9 c0.1,0,0.3,0.1,0.5,0.1c0.1,0,0.1,0,0.2,0c0.5-0.1,0.9-0.3,1.2-0.7l-0.1,0.6c-0.2,0.1-0.3,0.1-0.5,0.2c-0.3,0.1-0.6,0.3-0.9,0.5 c-0.1,0.1-0.1,0.1-0.2,0.2c-0.2,0.2-0.3,0.4-0.3,0.7c0,0.1,0,0.1,0,0.2c0,0.8,0.6,1.2,1.3,1.2c0.5,0,1-0.1,1.4-0.5 c0.2-0.2,0.4-0.4,0.5-0.7c0-0.1,0.1-0.2,0.1-0.3c0.1-0.2,0.1-0.3,0.1-0.5l0-0.2l0.1-0.7c0.4-0.1,0.9-0.3,1.3-0.8 c0.3-0.3,0.6-0.8,0.8-1.5H28.5z M24.7,25c-0.2,0-0.6,0-0.6-0.9c0-1.1,0.7-3.3,1.7-3.3c0.4,0,0.5,0.3,0.5,0.4l-0.6,2.8 C25.4,24.7,25,25,24.7,25z M24.3,28.2c-0.2,0-0.4-0.2-0.4-0.3c0,0,0,0,0,0c0-0.2,0.1-0.4,0.3-0.5c0.1-0.1,0.1-0.1,0.2-0.2 c0.2-0.1,0.5-0.2,0.7-0.3L25,27.1c0,0.1,0,0.2-0.1,0.3c0,0.1-0.1,0.2-0.1,0.2c-0.1,0.3-0.2,0.4-0.4,0.5 C24.4,28.1,24.3,28.2,24.3,28.2z" class="st10"/></g></g><g><g><path d="M32.7,24c-0.1,0.1-0.3,0.3-0.4,0.4c-0.5,0.5-1,0.8-1.7,0.8c-0.6,0-0.9-0.2-0.9-1c0-0.1,0-0.3,0-0.5 c1.4-0.1,2.8-1.2,2.8-2.5c0-0.2,0-0.4-0.1-0.6c-0.2-0.3-0.5-0.6-1.2-0.6c-0.7,0-1.2,0.2-1.7,0.6c-1.2,0.9-1.6,2.7-1.6,3.7 c0,0.3,0,0.5,0.1,0.7c0,0.2,0.1,0.3,0.2,0.5c0.1,0.2,0.3,0.3,0.4,0.5c0.3,0.2,0.7,0.3,1.2,0.3c0.4,0,0.7-0.1,1-0.2 c0.5-0.2,1-0.5,1.3-0.8c0.4-0.4,0.7-0.8,1-1.2H32.7z M29.9,23.1c0.2-1.2,0.8-2.5,1.4-2.5c0.2,0,0.3,0.2,0.3,0.5 C31.6,22.1,30.8,23,29.9,23.1z" class="st10"/></g></g><g><g><path d="M36.3,20.1c-0.6,0-1,0.4-1.5,0.7l0.2-0.7h-1.7l-0.1,0.5l-0.8,3.8l-0.2,0.8L32,26.1h1.7l0-0.1l0.9-4.4 c0.3-0.3,0.5-0.5,0.9-0.5c0.4,0,0,0.8,0.7,0.8c0.6,0,0.9-0.5,0.9-0.9C37.1,20.5,36.8,20.1,36.3,20.1z" class="st10"/></g></g><g><g><g><path d="M4.7,25.1c-0.6,0-1.2-0.5-1.7-0.6l0.8-3.6c-0.1,0-0.1,0-0.2,0c-0.8,0-1.8,0.6-1.8,1.3 c0,0.4,0.2,0.5,0.5,0.5c0,0-0.1-0.1-0.1-0.3c0-0.5,0.3-0.9,0.7-1.1l-0.7,3.5c0,0,0.1,0,0.1,0c0.9,0,1.5,1.1,2.2,1.1 c0.3,0,0.5-0.3,0.5-0.8C5,25.1,4.8,25.1,4.7,25.1z" class="st8"/></g><g><path d="M4.6,26.3c-0.5,0-0.9-0.3-1.2-0.6c-0.3-0.3-0.7-0.5-1-0.5c0,0,0,0-0.1,0c-0.1,0-0.3,0-0.3-0.1 c-0.1-0.1-0.1-0.2-0.1-0.4l0.3-1.6c-0.7-0.1-0.8-0.6-0.8-0.9c0-0.8,0.9-1.7,2.2-1.7c0.1,0,0.2,0,0.2,0c0.1,0,0.2,0.1,0.3,0.2 c0.1,0.1,0.1,0.2,0.1,0.3l-0.7,3.3c0.1,0.1,0.3,0.1,0.4,0.2c0.3,0.2,0.6,0.3,0.8,0.3c0.1,0,0.2,0,0.3-0.1 c0.1-0.1,0.3,0,0.4,0.1c0.1,0.1,0.2,0.2,0.2,0.4C5.4,26,5,26.3,4.6,26.3z" class="st2"/></g></g><g><g><path d="M4.4,23.7c0,0,0-0.1,0-0.1c0.6,0,1.2-0.5,1.2-1.1c0-0.3-0.1-0.5-0.6-0.5c-1,0-1.4,1.2-1.4,1.8 c0,0.6,0.3,0.8,0.8,0.8c0.4,0,0.8-0.2,0.9-0.7c-0.2,0.1-0.4,0.3-0.6,0.3C4.5,24.2,4.4,24.1,4.4,23.7z M5,22.3 c0.1,0,0.1,0.1,0.1,0.2c0,0.4-0.3,0.8-0.7,0.8C4.5,22.9,4.8,22.3,5,22.3z" class="st9"/></g></g></g><g><g><g><path d="M4.7,25.1c-0.6,0-1.2-0.5-1.7-0.6l0.8-3.6c-0.1,0-0.1,0-0.2,0c-0.8,0-1.8,0.6-1.8,1.3 c0,0.4,0.2,0.5,0.5,0.5c0,0-0.1-0.1-0.1-0.3c0-0.5,0.3-0.9,0.7-1.1l-0.7,3.5c0,0,0.1,0,0.1,0c0.9,0,1.5,1.1,2.2,1.1 c0.3,0,0.5-0.3,0.5-0.8C5,25.1,4.8,25.1,4.7,25.1z" class="st10"/></g></g><g><g><path d="M4.4,23.7c0,0,0-0.1,0-0.1c0.6,0,1.2-0.5,1.2-1.1c0-0.3-0.1-0.5-0.6-0.5c-1,0-1.4,1.2-1.4,1.8 c0,0.6,0.3,0.8,0.8,0.8c0.4,0,0.8-0.2,0.9-0.7c-0.2,0.1-0.4,0.3-0.6,0.3C4.5,24.2,4.4,24.1,4.4,23.7z M5,22.3 c0.1,0,0.1,0.1,0.1,0.2c0,0.4-0.3,0.8-0.7,0.8C4.5,22.9,4.8,22.3,5,22.3z" class="st10"/></g></g></g><g><g><path d="M22.7,17.8" class="st11"/></g></g><g><g><path d="M11.8,18.6" class="st11"/></g></g><g><g><path d="M8.8,16.9" class="st12"/></g></g><g><g><defs><path id="SVGID_1_" d="M33.6,16.5v0.6h-5.3l-3.1-1.7L24.4,15l-9.7-5.4c1.9-0.7,2.6-2,5.3-2C29,7.7,33.6,12.3,33.6,16.5z"/></defs><clipPath id="SVGID_2_"><use xlink:href="#SVGID_1_" style="overflow:visible"/></clipPath><g style="clip-path:url(#SVGID_2_)"><image style="overflow:visible" width="20" height="11" transform="matrix(1 0 0 1 14 6.85)" xlink:href="B65278804BD35364.png"/></g></g></g></g><g><g><g><g><g><g><path d="M28.2,4.4h0.1l0.2,0.4h0l0.1-0.4h0.1V5h-0.1V4.5h0L28.5,5h-0.1l-0.2-0.4h0V5h-0.1V4.4z" class="st13"/></g><g><path d="M28.9,4.4h0.2c0,0,0.1,0,0.1,0c0,0,0.1,0,0.1,0.1c0,0,0,0.1,0,0.1c0,0,0,0.1,0,0.1c0,0,0,0.1,0,0.1 c0,0,0,0.1,0,0.1c0,0,0,0-0.1,0.1c0,0-0.1,0-0.1,0h-0.2V4.4z M29,4.9L29,4.9c0.1,0,0.2,0,0.2,0c0,0,0,0,0.1,0c0,0,0,0,0-0.1 s0,0,0-0.1c0,0,0-0.1,0-0.1s0,0,0-0.1s0,0-0.1,0c0,0-0.1,0-0.1,0H29V4.9z" class="st13"/></g><g><path d="M29.6,4.4L29.6,4.4L29.4,5h-0.1L29.6,4.4z" class="st13"/></g><g><path d="M30.2,4.7c0,0,0,0.1,0,0.1s0,0.1-0.1,0.1c0,0-0.1,0-0.1,0.1c0,0-0.1,0-0.1,0c0,0-0.1,0-0.1,0 c0,0-0.1,0-0.1-0.1c0,0,0-0.1-0.1-0.1c0,0,0-0.1,0-0.1c0,0,0-0.1,0-0.1c0,0,0-0.1,0.1-0.1c0,0,0.1,0,0.1-0.1c0,0,0.1,0,0.1,0 c0,0,0.1,0,0.1,0c0,0,0.1,0,0.1,0.1c0,0,0,0.1,0.1,0.1C30.2,4.6,30.2,4.6,30.2,4.7z M30.2,4.7C30.2,4.6,30.1,4.6,30.2,4.7 c0-0.1,0-0.1-0.1-0.2c0,0,0,0-0.1,0c0,0-0.1,0-0.1,0c0,0-0.1,0-0.1,0c0,0,0,0-0.1,0c0,0,0,0,0,0.1c0,0,0,0.1,0,0.1 c0,0,0,0.1,0,0.1c0,0,0,0.1,0,0.1c0,0,0,0,0.1,0.1c0,0,0.1,0,0.1,0c0,0,0.1,0,0.1,0c0,0,0,0,0.1,0 C30.1,4.8,30.1,4.8,30.2,4.7C30.1,4.8,30.2,4.7,30.2,4.7z M29.9,4.8L29.9,4.8l-0.1-0.3h0.1c0,0,0.1,0,0.1,0c0,0,0,0,0,0.1 c0,0,0,0,0,0.1c0,0,0,0-0.1,0l0.1,0.1H30l-0.1-0.1h0V4.8z M29.9,4.7C29.9,4.7,30,4.7,29.9,4.7C30,4.7,30,4.7,29.9,4.7 C30,4.7,30,4.7,29.9,4.7C30,4.6,30,4.6,29.9,4.7C30,4.6,30,4.6,29.9,4.7C30,4.6,30,4.6,29.9,4.7C30,4.6,30,4.6,29.9,4.7 C30,4.6,29.9,4.6,29.9,4.7L29.9,4.7L29.9,4.7L29.9,4.7z" class="st13"/></g></g></g></g><g><g><path d="M10,9.8l-1.5,0.5L8.3,9.7c0-0.1,0-0.1,0-0.2c0-0.1,0-0.1,0-0.2c0-0.1,0.1-0.1,0.1-0.1 c0.1,0,0.1-0.1,0.2-0.1c0.1,0,0.1,0,0.2,0c0.1,0,0.1,0,0.2,0c0.1,0,0.1,0.1,0.1,0.1c0,0.1,0.1,0.1,0.1,0.2l0.1,0.3l0.6-0.2 L10,9.8z M9.1,9.7L9,9.6C9,9.5,9,9.4,8.9,9.4c0,0-0.1,0-0.2,0l-0.1,0c-0.1,0-0.1,0.1-0.1,0.1c0,0,0,0.1,0,0.2l0.1,0.2L9.1,9.7z" class="st13"/><path d="M9.4,8.6l0-0.3l-0.7,0l0,0.3l-0.3,0l0-0.6l0.3,0l0,0c0,0-0.1,0-0.1,0c0,0-0.1,0-0.1-0.1 c0,0-0.1-0.1-0.1-0.1c0,0,0-0.1,0-0.2l0-0.1l0.3,0l0,0.3c0,0.1,0,0.1,0.1,0.2C8.9,8,8.9,8,9,8l0.3,0l0-0.4l0.3,0l0,1L9.4,8.6z" class="st13"/><path d="M9.8,6.8C9.8,7,9.7,7.1,9.5,7.2c-0.1,0.1-0.3,0.1-0.5,0C9,7.2,8.9,7.1,8.8,7.1C8.8,7,8.7,7,8.7,6.9 c0-0.1-0.1-0.1-0.1-0.2c0-0.1,0-0.2,0-0.2c0-0.1,0.1-0.2,0.1-0.2c0-0.1,0.1-0.1,0.2-0.1C9,6.1,9,6.1,9.1,6.1c0.1,0,0.2,0,0.3,0 l0.1,0L9.2,6.9l0,0c0.1,0,0.1,0,0.2,0s0.1-0.1,0.1-0.2c0-0.1,0-0.1,0-0.2c0-0.1,0-0.1-0.1-0.2l0.2-0.1c0,0.1,0.1,0.1,0.1,0.2 C9.9,6.6,9.9,6.7,9.8,6.8z M8.9,6.5c0,0.1,0,0.1,0,0.2S9,6.8,9,6.8l0,0l0.1-0.5l0,0c-0.1,0-0.1,0-0.2,0 C8.9,6.4,8.9,6.5,8.9,6.5z" class="st13"/><path d="M10.3,5.7c-0.1,0.1-0.1,0.2-0.2,0.3C10,6,9.9,6,9.9,6.1l0-0.3c0.1,0,0.1,0,0.2-0.1c0.1,0,0.1-0.1,0.1-0.2 c0-0.1,0.1-0.1,0.1-0.2c0,0,0-0.1,0-0.1c0,0-0.1,0-0.1,0S10,5.4,10,5.4L9.9,5.5c0,0-0.1,0.1-0.1,0.1c0,0-0.1,0.1-0.1,0.1 c0,0-0.1,0-0.1,0c0,0-0.1,0-0.1-0.1C9.3,5.6,9.2,5.5,9.2,5.4c0-0.1,0-0.2,0.1-0.4c0.1-0.1,0.1-0.2,0.2-0.2 c0.1-0.1,0.1-0.1,0.2-0.1l0.1,0.2C9.8,4.9,9.7,5,9.7,5C9.6,5,9.6,5.1,9.5,5.1c-0.1,0.1-0.1,0.2,0,0.2c0,0,0.1,0,0.1,0 c0,0,0.1,0,0.1-0.1l0.1-0.1c0,0,0.1-0.1,0.1-0.1S10,5,10,5c0,0,0.1,0,0.1,0c0,0,0.1,0,0.1,0.1c0.1,0.1,0.2,0.2,0.2,0.3 C10.5,5.4,10.4,5.5,10.3,5.7z" class="st13"/><path d="M11.2,4.7c-0.1,0.1-0.3,0.2-0.4,0.2c-0.2,0-0.3-0.1-0.4-0.2c-0.1-0.1-0.1-0.1-0.2-0.2 c0-0.1-0.1-0.1-0.1-0.2c0-0.1,0-0.1,0-0.2c0-0.1,0.1-0.1,0.1-0.2s0.1-0.1,0.2-0.1c0.1,0,0.1,0,0.2,0c0.1,0,0.1,0,0.2,0.1 c0.1,0,0.1,0.1,0.2,0.1l0.1,0.1l-0.6,0.6l0,0c0.1,0.1,0.1,0.1,0.2,0.1c0.1,0,0.1,0,0.2-0.1c0,0,0.1-0.1,0.1-0.2 c0-0.1,0-0.1,0-0.2l0.3,0c0,0.1,0,0.2,0,0.2C11.3,4.5,11.3,4.6,11.2,4.7z M10.5,4c-0.1,0.1-0.1,0.1-0.1,0.2 c0,0.1,0,0.1,0.1,0.2l0,0L10.8,4l0,0c-0.1-0.1-0.1-0.1-0.2-0.1C10.6,3.9,10.5,3.9,10.5,4z" class="st13"/><path d="M11.7,4.1l-0.7-1L11.3,3l0.1,0.2l0,0c0,0,0-0.1,0-0.1c0,0,0-0.1,0-0.1c0,0,0-0.1,0.1-0.1 c0,0,0.1-0.1,0.1-0.1c0,0,0.1-0.1,0.1-0.1c0,0,0.1,0,0.1,0c0,0,0.1,0,0.1,0.1c0,0,0.1,0.1,0.1,0.1l0.4,0.6l-0.3,0.2l-0.4-0.6 C11.8,3,11.7,3,11.6,3c0,0,0,0-0.1,0.1c0,0,0,0,0,0.1c0,0,0,0,0,0.1c0,0,0,0,0,0.1L12,3.9L11.7,4.1z" class="st13"/><path d="M13.4,3.1c-0.1,0.1-0.2,0.1-0.3,0c-0.1,0-0.1-0.1-0.2-0.2l-0.3-0.5l-0.3,0.1l-0.1-0.2l0.2-0.1 c0,0,0.1,0,0.1-0.1c0,0,0-0.1,0-0.1l-0.1-0.2l0.3-0.1l0.2,0.4l0.4-0.2l0.1,0.2l-0.4,0.2l0.3,0.6l0.4-0.2l0.1,0.2L13.4,3.1z" class="st13"/><path d="M14.5,2.6c-0.2,0.1-0.3,0.1-0.5,0c-0.1-0.1-0.2-0.2-0.3-0.4c0-0.1-0.1-0.2-0.1-0.3c0-0.1,0-0.2,0-0.2 c0-0.1,0.1-0.1,0.1-0.2c0.1-0.1,0.1-0.1,0.2-0.1s0.2,0,0.2,0c0.1,0,0.1,0,0.2,0c0.1,0,0.1,0.1,0.2,0.1c0.1,0.1,0.1,0.1,0.1,0.2 l0,0.1l-0.8,0.3l0,0c0,0.1,0.1,0.1,0.1,0.1c0.1,0,0.1,0,0.2,0c0.1,0,0.1-0.1,0.2-0.1s0.1-0.1,0.1-0.1l0.2,0.1 c0,0.1-0.1,0.1-0.1,0.2C14.7,2.5,14.7,2.6,14.5,2.6z M14.2,1.7c-0.1,0-0.1,0.1-0.1,0.1c0,0.1,0,0.1,0,0.2l0,0l0.4-0.2l0,0 c0-0.1-0.1-0.1-0.1-0.1C14.3,1.7,14.2,1.7,14.2,1.7z" class="st13"/><path d="M15.9,1.9L15.9,1.9c0,0.1-0.1,0.2-0.1,0.2c0,0.1-0.1,0.1-0.2,0.1c-0.1,0-0.1,0-0.2,0 c-0.1,0-0.1,0-0.2-0.1c-0.1,0-0.1-0.1-0.1-0.2c0-0.1-0.1-0.2-0.1-0.3c0-0.1,0-0.2,0-0.3c0-0.1,0-0.2,0-0.2 c0-0.1,0.1-0.1,0.1-0.1c0,0,0.1-0.1,0.2-0.1c0,0,0.1,0,0.1,0c0,0,0.1,0,0.1,0c0,0,0.1,0,0.1,0.1c0,0,0.1,0.1,0.1,0.1l0,0 l-0.2-0.7l0.3-0.1L16.3,2L16,2.1L15.9,1.9z M15.7,2c0.1,0,0.1,0,0.1-0.1c0,0,0-0.1,0-0.1l-0.1-0.3c0-0.1,0-0.1-0.1-0.1 c0,0-0.1,0-0.2,0c-0.1,0-0.1,0.1-0.2,0.1c0,0.1,0,0.1,0,0.2l0,0.2c0,0.1,0.1,0.1,0.1,0.2S15.6,2,15.7,2z" class="st13"/><path d="M17.7,0.1L18,0l0.1,0.7l0,0c0-0.1,0.1-0.1,0.1-0.2c0.1-0.1,0.1-0.1,0.2-0.1c0.1,0,0.1,0,0.2,0 c0.1,0,0.1,0.1,0.2,0.1c0,0,0.1,0.1,0.1,0.2c0,0.1,0,0.2,0.1,0.3c0,0.1,0,0.2,0,0.3c0,0.1,0,0.1-0.1,0.2c0,0.1-0.1,0.1-0.1,0.1 c-0.1,0-0.1,0-0.2,0.1c-0.1,0-0.2,0-0.2,0c-0.1,0-0.1-0.1-0.1-0.2l0,0l0,0.2l-0.3,0L17.7,0.1z M18.4,1.5c0.1,0,0.1,0,0.2-0.1 c0-0.1,0.1-0.1,0-0.2l0-0.2c0-0.1,0-0.1-0.1-0.2s-0.1-0.1-0.2-0.1c-0.1,0-0.1,0-0.1,0.1c0,0-0.1,0.1-0.1,0.1l0,0.3 c0,0.1,0,0.1,0.1,0.1C18.3,1.5,18.3,1.5,18.4,1.5z" class="st13"/><path d="M20,0.4l0.3,0l-0.5,1.4c0,0.1-0.1,0.2-0.1,0.2c-0.1,0-0.1,0.1-0.2,0.1l-0.2,0l0-0.3l0.3,0l0.1-0.2 l-0.5-1.2l0.4,0L19.6,1l0.1,0.3l0,0L19.9,1L20,0.4z" class="st13"/></g><g><ellipse cx="20.1" cy="8" class="st13" rx="9.4" ry="5.3"/></g><g><g><path d="M12.4,8.3c-0.1,0.5,0.1,0.9,0.7,0.9c0.4,0,0.7-0.2,0.7-0.5c0.1-0.3-0.1-0.5-0.3-0.8l-0.2-0.2 c-0.3-0.3-0.5-0.5-0.4-0.9c0.1-0.6,0.8-1,1.5-1c0.4,0,0.7,0.1,0.9,0.3c0.5,0.5-0.1,0.8-0.2,0.7c0,0,0,0,0,0 c0.1-0.4,0-0.8-0.5-0.8c-0.3,0-0.7,0.2-0.7,0.4c-0.1,0.3,0.1,0.5,0.3,0.7l0.2,0.2c0.3,0.3,0.5,0.6,0.4,1c-0.2,0.6-0.8,1-1.6,1 c-0.4,0-0.8-0.1-1.1-0.4C11.7,8.5,12.2,8.3,12.4,8.3z" class="st2"/></g><g><path d="M17.7,10.7l0.7-1.6h0c0.1,0.2,0.3,0.3,0.6,0.3c1,0,1.6-0.9,1.7-1.6c0,0,0-0.1,0-0.2 c0-0.3-0.3-0.6-0.7-0.6c-0.3,0-0.6,0.1-0.9,0.4l0,0l0.1-0.2C19.2,7,19,6.9,18.8,6.8l-1.6,3.5C17.3,10.5,17.5,10.6,17.7,10.7z M20,7.7c0,0.4-0.5,1.4-1.1,1.4c-0.2,0-0.3-0.2-0.3-0.3c0-0.3,0.5-1.4,1.1-1.4C20,7.4,20.1,7.5,20,7.7z" class="st2"/></g><g><path d="M17.5,9.1c0,0-0.1,0-0.1,0c-0.1,0-0.1-0.1-0.1-0.2c0-0.1,0.1-0.3,0.2-0.4l0.7-1.4c-0.2-0.1-0.5-0.1-0.7,0 l-0.2,0.3c-0.1-0.2-0.3-0.3-0.6-0.3c-0.9,0-1.7,0.9-1.8,1.6c-0.1,0.4,0.2,0.8,0.7,0.8c0.4,0,0.8-0.3,1.1-0.6l0,0 c0,0,0,0.1,0,0.2c0,0.2,0.1,0.4,0.4,0.4c0.2,0,0.3,0,0.4-0.1L17.5,9.1L17.5,9.1z M17.1,7.7c0,0.4-0.6,1.4-1.2,1.4 c-0.2,0-0.3-0.2-0.3-0.3c0-0.4,0.6-1.4,1.1-1.4C17,7.4,17.1,7.5,17.1,7.7z" class="st2"/></g><g><g><path d="M23.3,8.1l0.4-0.8c0,0-0.2,0-0.4,0c-0.1,0-0.3,0-0.3,0l-0.2,0.3c-0.2,0.3-0.8,1.5-1.3,1.5 c-0.1,0-0.2,0-0.2-0.1c0-0.1,0.4-0.9,0.4-0.9c0.1-0.2,0.2-0.4,0.3-0.6c0-0.2-0.2-0.3-0.4-0.3c-0.2,0-0.5,0.1-0.7,0.2 c0,0,0,0.1,0.1,0.1c0.1,0,0.1,0,0.2,0c0.1,0,0.1,0.1,0.1,0.1c0,0.1-0.4,0.9-0.4,0.9c-0.1,0.2-0.2,0.5-0.3,0.6 c0,0.3,0.2,0.4,0.5,0.4c0.5,0,0.9-0.3,1.2-0.7l0,0c0,0.1-0.1,0.2-0.1,0.4c0,0.2,0.1,0.4,0.4,0.4c0.2,0,0.5-0.1,0.7-0.2v0 c0,0,0-0.1,0-0.2c0,0,0,0,0,0c-0.1,0-0.1,0.1-0.2,0.1C23,9.1,23,9,23,8.9C23.1,8.7,23.2,8.3,23.3,8.1z" class="st2"/></g></g><g><path d="M27.3,7.1c-0.4-0.2-1-0.4-2.1-0.5l0.2-0.5c-0.2-0.1-0.5-0.1-0.7,0l-0.3,0.6c-0.7,0-1.6,0.2-3.1-0.1l0,0.1 C22.3,7,23.6,7,24.4,7l-0.6,1.2c0,0.1-0.1,0.3-0.2,0.4c-0.1,0.2-0.1,0.3-0.1,0.4c0,0.2,0.2,0.4,0.5,0.4c0.3,0,0.6-0.2,0.8-0.4 l0,0c0,0,0-0.1-0.1-0.2c0,0-0.1,0.1-0.2,0.1c-0.1,0.1-0.2,0.1-0.2,0.1c-0.1,0-0.1-0.1-0.1-0.2c0-0.1,0.2-0.5,0.2-0.6L25.1,7 c0.6-0.1,1.3-0.1,1.7,0.1c-0.6,0-1.1,0.2-1.5,0.6C25.1,8,25,8.2,25,8.5c0,0.1,0,0.2,0,0.3c0.1,0.4,0.4,0.6,1,0.6 c0.9,0,1.7-0.7,1.8-1.4c0,0,0.1-0.3-0.2-0.6c0.3,0.1,0.5,0.3,0.6,0.4c0.2-0.1,0.3-0.2,0.4-0.4C28.4,7.3,27.9,7.1,27.3,7.1z M26.6,8.8c-0.4,0.6-1.1,0.6-0.9-0.2c0-0.1,0.4-1.2,1.3-1.3c0,0.1,0.1,0.1,0.1,0.2C27.1,7.8,26.9,8.4,26.6,8.8z" class="st2"/></g></g></g></g></g><g><path d="M10,34.9h0.3l0.1,1h0l0.1-1h0.3l0.1,1h0l0.1-1h0.3l-0.1,1.3h-0.4l-0.1-0.9h0l-0.1,0.9h-0.4L10,34.9z" class="st13"/><path d="M11.7,35.9h0.4v-0.7h-0.4v-0.3h0.8v1h0.4v0.3h-1.1V35.9z M12.2,34.7c-0.1,0-0.1,0-0.2-0.1c0,0,0-0.1,0-0.1 v-0.1c0,0,0-0.1,0-0.1c0,0,0.1,0,0.2,0c0.1,0,0.1,0,0.2,0c0,0,0,0.1,0,0.1v0.1c0,0,0,0.1,0,0.1C12.4,34.7,12.3,34.7,12.2,34.7z" class="st13"/><path d="M13.7,36.1c-0.1,0-0.2,0-0.3-0.1c-0.1-0.1-0.1-0.2-0.1-0.3v-0.6H13v-0.3h0.2c0.1,0,0.1,0,0.1,0 c0,0,0-0.1,0-0.1v-0.3h0.3v0.4h0.5v0.3h-0.5v0.7h0.5v0.3H13.7z" class="st13"/><path d="M14.5,34.3h0.4v0.8h0c0,0,0-0.1,0.1-0.1c0,0,0-0.1,0.1-0.1c0,0,0.1,0,0.1-0.1c0,0,0.1,0,0.1,0 c0.1,0,0.1,0,0.2,0c0.1,0,0.1,0.1,0.1,0.1c0,0,0.1,0.1,0.1,0.1c0,0.1,0,0.1,0,0.2v0.8h-0.4v-0.8c0-0.2-0.1-0.2-0.2-0.2 c0,0-0.1,0-0.1,0c0,0-0.1,0-0.1,0c0,0,0,0-0.1,0.1c0,0,0,0,0,0.1v0.8h-0.4V34.3z" class="st13"/></g><g><g><path d="M34.6,30.9c0.1-0.2,0.1-0.4,0-0.5c-0.2-0.1-0.4-0.1-0.5,0c-0.1,0.2-2.8,3.7-2.8,3.7S34.4,31.1,34.6,30.9z" class="st6"/></g><g><circle cx="36" cy="34.4" r=".4" class="st6"/></g><g><circle cx="15.3" cy="33.7" r=".3" class="st6"/></g><g><path d="M15.1,31.8c0.2,0.2,1.1,0.4,1.1,0.4s-0.2-0.9-0.4-1.1c-0.2-0.2-0.5-0.2-0.6,0S14.9,31.6,15.1,31.8z" class="st6"/></g><g><path d="M24.5,30.8c0,0.2,0.6,0.9,0.6,0.9s0.3-0.8,0.3-1.1s-0.3-0.4-0.5-0.4S24.5,30.6,24.5,30.8z" class="st6"/></g><g><path d="M28,29.3c0.1-0.2-0.1-0.4-0.3-0.5c-0.2-0.1-0.4,0.1-0.5,0.3s-1,4.5-1,4.5S28,29.5,28,29.3z" class="st6"/></g><g><path d="M30.8,30.3c0.1-0.2,0-0.3-0.1-0.4c-0.2-0.1-0.3,0-0.4,0.1c-0.1,0.2-1.4,3.5-1.4,3.5S30.7,30.5,30.8,30.3z" class="st6"/></g><g><path d="M36.7,32.1c0.1-0.1,0.2-0.2,0.1-0.4c-0.1-0.1-0.2-0.2-0.4-0.1c-0.1,0.1-2.6,1.8-2.6,1.8S36.6,32.2,36.7,32.1 z" class="st6"/></g><g><path d="M22.8,29.7c-0.1-0.2-0.2-0.3-0.4-0.2c-0.2,0.1-0.3,0.2-0.2,0.4c0.1,0.2,1.5,3.5,1.5,3.5S22.8,29.9,22.8,29.7 z" class="st6"/></g></g><g><g><g><ellipse cx="28.2" cy="34.5" class="st2" rx="3.4" ry="1.8"/></g></g><g><g><g><path d="M20.2,35.1c-0.4,1-1.5,1.4-2.2,1.4c-1.1,0-1.7-0.5-1.7-1.9c0-1.4,0.7-4,2.7-4c0.7,0,1.3,0.3,1.3,1 c0,0.4-0.1,0.7-0.5,0.7c-0.1,0-0.3,0-0.4-0.2c0.2-0.1,0.4-0.4,0.4-0.7c0-0.2-0.1-0.5-0.5-0.5c-0.8,0-1.6,2-1.6,3.6 c0,0.7,0.2,1.2,0.9,1.2c0.6,0,1.1-0.3,1.5-0.8L20.2,35.1z" class="st10"/></g><g><path d="M21.9,33.2c-0.3,0-0.5,0.5-0.6,0.7l-0.5,2.5h-1.1l1.1-5.2l1.1-0.2L21.5,33c0.3-0.4,0.7-0.4,0.9-0.4 c0.5,0,0.8,0.3,0.8,0.9c0,0.6-0.4,1.5-0.4,2c0,0.2,0.1,0.3,0.3,0.3c0.3,0,0.5-0.3,0.6-0.7h0.3c-0.4,1.2-1,1.4-1.4,1.4 c-0.7,0-0.9-0.4-0.9-0.9c0-0.5,0.3-1.5,0.3-1.9C22.2,33.4,22.1,33.2,21.9,33.2z" class="st10"/></g><g><path d="M25.4,35.8c0.6,0,1-0.3,1.3-0.8H27c-0.4,0.7-1.1,1.4-2.1,1.4c-0.7,0-1.2-0.3-1.2-1.2 c0-0.9,0.5-2.7,2.1-2.7c0.7,0,0.8,0.3,0.8,0.7c0,0.9-0.8,1.6-1.7,1.6c0,0.1,0,0.2,0,0.3C24.9,35.7,25.1,35.8,25.4,35.8z M25.9,32.9c-0.4,0-0.8,0.8-0.9,1.6c0.6,0,1.1-0.6,1.1-1.3C26,33,26,32.9,25.9,32.9z" class="st10"/></g><g><path d="M28.3,35.8c0.6,0,1-0.3,1.3-0.8h0.3c-0.4,0.7-1.1,1.4-2.1,1.4c-0.7,0-1.2-0.3-1.2-1.2 c0-0.9,0.5-2.7,2.1-2.7c0.7,0,0.8,0.3,0.8,0.7c0,0.9-0.8,1.6-1.7,1.6c0,0.1,0,0.2,0,0.3C27.8,35.7,28,35.8,28.3,35.8z M28.8,32.9c-0.4,0-0.8,0.8-0.9,1.6c0.6,0,1.1-0.6,1.1-1.3C29,33,28.9,32.9,28.8,32.9z" class="st10"/></g><g><path d="M32.9,35c-0.4,0.5-0.8,0.7-1.2,1c-0.3,0.3-0.8,0.5-1.2,0.5c-0.8,0-1.1-0.5-1.1-1c0-0.3,0.2-0.6,0.4-0.7 c0.4-0.8,0.7-1.5,0.9-2.3l1.1-0.2c0.1,2,0.2,2.3,0.2,2.8c0,0.1,0,0.2,0,0.3c0.2-0.1,0.4-0.3,0.5-0.4H32.9z M30.1,35.4 c-0.1,0-0.2,0-0.2-0.1c0,0.4,0.1,0.5,0.5,0.5c0.3,0,0.7-0.2,0.7-0.7c0-0.4-0.1-0.6-0.1-1.8c-0.2,0.5-0.4,1-0.6,1.4 c0.1,0,0.2,0.1,0.2,0.3C30.4,35.2,30.2,35.4,30.1,35.4z" class="st10"/></g><g><path d="M34.1,35.7c0.3,0,0.7-0.2,0.9-0.4c-0.2,0.9-0.7,1.1-1.3,1.1c-0.7,0-1.2-0.3-1.2-1.2 c0-0.9,0.5-2.7,2.1-2.7c0.7,0,0.8,0.3,0.8,0.7c0,0.9-0.8,1.6-1.7,1.6c0,0.1,0,0.2,0,0.2C33.6,35.5,33.8,35.7,34.1,35.7z M34.6,32.9c-0.4,0-0.8,0.8-0.9,1.6c0.6,0,1.1-0.6,1.1-1.3C34.8,33,34.7,32.9,34.6,32.9z" class="st10"/></g></g><g><g><g><path d="M18,37c-1.4,0-2.1-0.8-2.1-2.3c0-1.7,0.8-4.4,3.1-4.4c1.1,0,1.7,0.6,1.7,1.5c0,0.9-0.5,1.2-1,1.2 c-0.3,0-0.6-0.1-0.8-0.4c-0.1-0.1-0.1-0.3-0.1-0.4c0-0.1,0.1-0.3,0.2-0.3c0,0,0.1-0.2,0.1-0.3c-0.3,0-1.1,1.4-1.1,3.1 c0,0.7,0.2,0.7,0.4,0.7c0.4,0,0.8-0.2,1.1-0.6c0.1-0.2,0.4-0.2,0.6-0.2l0.2,0.1c0.2,0.1,0.3,0.4,0.3,0.6 C20.2,36.4,19,37,18,37z M17.9,31.6c-0.8,0.7-1,2.2-1,3c0,1,0.3,1.3,0.9,1.4c-0.3-0.2-0.6-0.7-0.6-1.4 C17.2,33.6,17.4,32.5,17.9,31.6z M19.1,31.8C19.1,31.8,19.1,31.8,19.1,31.8C19.1,31.8,19.1,31.8,19.1,31.8z M19.2,31.5 L19.2,31.5L19.2,31.5z" class="st2"/></g><g><path d="M22.7,36.9c-0.8,0-1.2-0.5-1.3-1l-0.1,0.6c0,0.2-0.2,0.4-0.5,0.4h-1.1c-0.1,0-0.3-0.1-0.4-0.2 c-0.1-0.1-0.1-0.3-0.1-0.4l1.1-5.2c0-0.2,0.2-0.3,0.4-0.4l1.1-0.2c0.2,0,0.3,0,0.4,0.1c0.1,0.1,0.1,0.3,0.1,0.4l-0.2,0.9 c0.1,0,0.1,0,0.2,0c0.8,0,1.3,0.5,1.3,1.3c0,0.4-0.1,0.9-0.2,1.3c0,0,0,0,0,0c0.1-0.1,0.2-0.1,0.3-0.1h0.3 c0.2,0,0.3,0.1,0.4,0.2c0.1,0.1,0.1,0.3,0.1,0.4C24.2,36.3,23.6,36.9,22.7,36.9z M22.5,33c0.1,0.1,0.2,0.3,0.2,0.6 c0,0.3-0.1,0.7-0.2,1.1c-0.1,0.3-0.2,0.7-0.2,0.9c0,0.2,0.1,0.4,0.3,0.4c-0.1-0.1-0.2-0.3-0.2-0.6c0-0.3,0.1-0.6,0.2-0.9 c0.1-0.4,0.2-0.8,0.2-1C22.8,33.1,22.7,33,22.5,33z M20.3,35.9h0.1l0.4-2.1c0-0.2,0.1-0.4,0.3-0.6c-0.1-0.1-0.1-0.2-0.1-0.4 l0.3-1.3l-0.1,0L20.3,35.9z" class="st2"/></g><g><path d="M24.9,36.9c-1,0-1.7-0.6-1.7-1.7c0-1.3,0.8-3.2,2.5-3.2c0.8,0,1.3,0.4,1.3,1.2c0,0.5-0.2,1-0.6,1.4 c0.1-0.1,0.2-0.1,0.3-0.1H27c0.2,0,0.3,0.1,0.4,0.2c0.1,0.1,0.1,0.3,0,0.5C26.8,36.3,25.9,36.9,24.9,36.9z M24.7,33.6 c0,0.1-0.1,0.1-0.1,0.2c-0.3,0.5-0.4,1.1-0.4,1.5c0,0.4,0.1,0.6,0.4,0.7c-0.1-0.2-0.2-0.4-0.2-0.8c0-0.1,0-0.2,0-0.3 c0-0.1,0-0.2,0.1-0.2c0-0.1,0-0.1,0-0.2C24.5,34.2,24.6,33.9,24.7,33.6z M25.4,35.3C25.4,35.3,25.4,35.3,25.4,35.3 c0.5,0,0.7-0.2,1.1-0.6c0,0,0,0,0,0C26.1,34.9,25.8,35.1,25.4,35.3C25.3,35.3,25.4,35.3,25.4,35.3z" class="st2"/></g><g><path d="M27.9,36.9c-1,0-1.7-0.6-1.7-1.7c0-1.3,0.8-3.2,2.5-3.2c0.8,0,1.3,0.4,1.3,1.2c0,0.5-0.2,1-0.6,1.4 c0.1-0.1,0.2-0.1,0.3-0.1h0.3c0.2,0,0.3,0.1,0.4,0.2c0.1,0.1,0.1,0.3,0,0.5C29.7,36.3,28.8,36.9,27.9,36.9z M27.6,33.6 c0,0.1-0.1,0.1-0.1,0.2c-0.3,0.5-0.4,1.1-0.4,1.5c0,0.4,0.1,0.6,0.4,0.7c-0.1-0.2-0.2-0.4-0.2-0.8c0-0.1,0-0.2,0-0.3 c0-0.1,0-0.2,0.1-0.2c0-0.1,0-0.1,0-0.2C27.4,34.2,27.5,33.9,27.6,33.6z M28.3,35.3C28.3,35.3,28.3,35.3,28.3,35.3 c0.5,0,0.7-0.2,1.1-0.6c0,0,0,0,0,0C29,34.9,28.7,35.1,28.3,35.3C28.3,35.3,28.3,35.3,28.3,35.3z" class="st2"/></g><g><path d="M30.6,36.9c-1,0-1.6-0.7-1.6-1.4c0-0.4,0.2-0.8,0.5-1c0.4-0.7,0.6-1.4,0.8-2.1c0.1-0.2,0.2-0.3,0.4-0.3 l1.1-0.2c0.1,0,0.3,0,0.4,0.1c0.1,0.1,0.2,0.2,0.2,0.3c0.1,1.1,0.1,1.7,0.1,2.1c0,0.1,0,0.1,0,0.2c0,0,0,0,0.1,0h0.3 c0.2,0,0.4,0.1,0.4,0.3c0.1,0.2,0,0.4-0.1,0.5c-0.4,0.5-0.9,0.8-1.2,1C31.5,36.8,30.8,36.9,30.6,36.9z M31.1,32.9 c0.1,0.1,0.2,0.2,0.2,0.3c0,0.6,0.1,0.9,0.1,1.2c0,0.3,0,0.4,0,0.6c0,0.2,0,0.4-0.1,0.6c0,0,0.1-0.1,0.1-0.1 c0,0,0.1-0.1,0.1-0.1c0,0,0.1,0,0.1,0c0-0.1,0-0.2,0-0.2c0,0,0-0.1,0-0.2c0-0.2,0-0.4,0-0.7c0-0.3-0.1-0.8-0.1-1.6L31.1,32.9 C31.1,32.9,31.1,32.9,31.1,32.9z" class="st2"/></g><g><path d="M33.7,36.9c-1,0-1.7-0.6-1.7-1.7c0-1.3,0.8-3.2,2.5-3.2c0.8,0,1.3,0.4,1.3,1.2c0,0.6-0.3,1.2-0.8,1.6 c0.1,0,0.1,0,0.2,0.1c0.2,0.1,0.3,0.3,0.2,0.5C35.3,36.4,34.6,36.9,33.7,36.9z M33.5,33.5c0,0.1-0.1,0.1-0.1,0.2 c-0.3,0.5-0.4,1.1-0.4,1.5c0,0.5,0.1,0.7,0.5,0.7c-0.2-0.2-0.3-0.5-0.3-0.9c0-0.1,0-0.2,0-0.3c0-0.1,0-0.1,0.1-0.2 c0-0.1,0-0.1,0-0.2C33.2,34.2,33.3,33.9,33.5,33.5z" class="st2"/></g></g></g><g><g><g><path d="M20.2,35.1c-0.4,1-1.5,1.4-2.2,1.4c-1.1,0-1.7-0.5-1.7-1.9c0-1.4,0.7-4,2.7-4c0.7,0,1.3,0.3,1.3,1 c0,0.4-0.1,0.7-0.5,0.7c-0.1,0-0.3,0-0.4-0.2c0.2-0.1,0.4-0.4,0.4-0.7c0-0.2-0.1-0.5-0.5-0.5c-0.8,0-1.6,2-1.6,3.6 c0,0.7,0.2,1.2,0.9,1.2c0.6,0,1.1-0.3,1.5-0.8L20.2,35.1z" class="st6"/></g><g><path d="M21.9,33.2c-0.3,0-0.5,0.5-0.6,0.7l-0.5,2.5h-1.1l1.1-5.2l1.1-0.2L21.5,33c0.3-0.4,0.7-0.4,0.9-0.4 c0.5,0,0.8,0.3,0.8,0.9c0,0.6-0.4,1.5-0.4,2c0,0.2,0.1,0.3,0.3,0.3c0.3,0,0.5-0.3,0.6-0.7h0.3c-0.4,1.2-1,1.4-1.4,1.4 c-0.7,0-0.9-0.4-0.9-0.9c0-0.5,0.3-1.5,0.3-1.9C22.2,33.4,22.1,33.2,21.9,33.2z" class="st6"/></g><g><path d="M25.4,35.8c0.6,0,1-0.3,1.3-0.8H27c-0.4,0.7-1.1,1.4-2.1,1.4c-0.7,0-1.2-0.3-1.2-1.2 c0-0.9,0.5-2.7,2.1-2.7c0.7,0,0.8,0.3,0.8,0.7c0,0.9-0.8,1.6-1.7,1.6c0,0.1,0,0.2,0,0.3C24.9,35.7,25.1,35.8,25.4,35.8z M25.9,32.9c-0.4,0-0.8,0.8-0.9,1.6c0.6,0,1.1-0.6,1.1-1.3C26,33,26,32.9,25.9,32.9z" class="st6"/></g><g><path d="M28.3,35.8c0.6,0,1-0.3,1.3-0.8h0.3c-0.4,0.7-1.1,1.4-2.1,1.4c-0.7,0-1.2-0.3-1.2-1.2 c0-0.9,0.5-2.7,2.1-2.7c0.7,0,0.8,0.3,0.8,0.7c0,0.9-0.8,1.6-1.7,1.6c0,0.1,0,0.2,0,0.3C27.8,35.7,28,35.8,28.3,35.8z M28.8,32.9c-0.4,0-0.8,0.8-0.9,1.6c0.6,0,1.1-0.6,1.1-1.3C29,33,28.9,32.9,28.8,32.9z" class="st6"/></g><g><path d="M32.9,35c-0.4,0.5-0.8,0.7-1.2,1c-0.3,0.3-0.8,0.5-1.2,0.5c-0.8,0-1.1-0.5-1.1-1c0-0.3,0.2-0.6,0.4-0.7 c0.4-0.8,0.7-1.5,0.9-2.3l1.1-0.2c0.1,2,0.2,2.3,0.2,2.8c0,0.1,0,0.2,0,0.3c0.2-0.1,0.4-0.3,0.5-0.4H32.9z M30.1,35.4 c-0.1,0-0.2,0-0.2-0.1c0,0.4,0.1,0.5,0.5,0.5c0.3,0,0.7-0.2,0.7-0.7c0-0.4-0.1-0.6-0.1-1.8c-0.2,0.5-0.4,1-0.6,1.4 c0.1,0,0.2,0.1,0.2,0.3C30.4,35.2,30.2,35.4,30.1,35.4z" class="st6"/></g><g><path d="M34.1,35.7c0.3,0,0.7-0.2,0.9-0.4c-0.2,0.9-0.7,1.1-1.3,1.1c-0.7,0-1.2-0.3-1.2-1.2 c0-0.9,0.5-2.7,2.1-2.7c0.7,0,0.8,0.3,0.8,0.7c0,0.9-0.8,1.6-1.7,1.6c0,0.1,0,0.2,0,0.2C33.6,35.5,33.8,35.7,34.1,35.7z M34.6,32.9c-0.4,0-0.8,0.8-0.9,1.6c0.6,0,1.1-0.6,1.1-1.3C34.8,33,34.7,32.9,34.6,32.9z" class="st6"/></g></g></g></g></g></g></svg>