<?xml version="1.0" encoding="utf-8"?>
<!-- Generator: Adobe Illustrator 23.0.4, SVG Export Plug-In . SVG Version: 6.00 Build 0)  -->
<svg version="1.1" id="Layer_1" xmlns="http://www.w3.org/2000/svg" xmlns:xlink="http://www.w3.org/1999/xlink" x="0px" y="0px"
	 viewBox="0 0 270 37.9" style="enable-background:new 0 0 270 37.9;" xml:space="preserve">
<style type="text/css">
	.st0{fill:#4A2B2B;}
	.st1{fill:#EA6433;}
	.st2{fill:#FFFFFF;}
	.st3{fill:#AB7029;}
	.st4{fill:#9C6226;}
	.st5{fill:#B32029;}
	.st6{fill:#FAA21E;}
	.st7{fill:#A9AE38;}
	.st8{fill:#6D1F11;}
	.st9{fill:#411F1F;}
	.st10{fill:#CF3339;}
	.st11{fill:none;stroke:#FFFFFF;stroke-width:0.4951;stroke-linejoin:round;}
</style>
<title>logo-main-fr</title>
<g>
	<g id="Layer_1-2">
		<path class="st0" d="M60.6,30c-1.2,0-2.5-0.2-3.6-0.6c-1-0.4-1.8-1-2.5-1.8l2-2.2c0.6,0.6,1.2,1.1,2,1.5c0.7,0.3,1.4,0.5,2.2,0.5
			c0.7,0,1.4-0.2,1.9-0.6c0.5-0.4,0.7-1,0.7-1.6c0-0.5-0.1-1-0.5-1.3c-0.5-0.4-1.1-0.6-1.7-0.7l-1.7-0.3c-1.2-0.1-2.4-0.7-3.2-1.6
			c-0.7-0.9-1-1.9-1-3c-0.1-1.4,0.5-2.7,1.5-3.7c1.2-0.9,2.8-1.4,4.3-1.3c1.1,0,2.2,0.2,3.3,0.6c0.9,0.3,1.6,0.9,2.3,1.6l-2,2.2
			c-0.4-0.5-1-0.9-1.5-1.1c-0.6-0.3-1.3-0.4-2-0.4c-1.6,0-2.4,0.6-2.4,2c0,0.5,0.2,1,0.5,1.3c0.5,0.3,1.1,0.6,1.7,0.6l1.7,0.3
			c1.2,0.1,2.2,0.7,3.1,1.5c0.8,0.8,1.1,2,1.1,3.1c0,0.7-0.1,1.4-0.4,2.1c-0.3,0.6-0.7,1.2-1.2,1.7c-0.6,0.5-1.3,0.9-2,1.1
			C62.4,29.9,61.5,30,60.6,30z"/>
		<path class="st0" d="M74.8,30c-1.7,0.1-3.4-0.5-4.6-1.7c-1.1-1.3-1.7-2.9-1.6-4.6c0-0.9,0.1-1.8,0.4-2.6c0.2-0.7,0.6-1.4,1.2-2
			c0.5-0.6,1.1-1,1.8-1.3c0.8-0.3,1.6-0.4,2.4-0.4c0.8,0,1.7,0.1,2.4,0.4c0.7,0.3,1.3,0.7,1.8,1.2c0.5,0.6,0.9,1.2,1.2,2
			c0.3,0.8,0.4,1.7,0.4,2.5v1H72v0.2c0,0.7,0.2,1.4,0.7,1.9c0.6,0.5,1.4,0.8,2.1,0.7c0.6,0,1.3-0.1,1.9-0.3c0.5-0.3,1-0.6,1.3-1.1
			l1.9,2c-0.6,0.6-1.2,1.2-2,1.5C76.9,29.8,75.8,30,74.8,30z M74.5,19.9c-0.7,0-1.3,0.2-1.8,0.7C72.2,21,72,21.7,72,22.4v0.2h4.9
			v-0.2c0-0.7-0.2-1.4-0.6-1.9C75.8,20.1,75.1,19.8,74.5,19.9L74.5,19.9z"/>
		<path class="st0" d="M81.7,29.7V17.7h2.8v1.8h0.2c0.2-0.5,0.4-1,0.8-1.5c0.4-0.4,0.9-0.6,1.5-0.6c1.2,0,1.9,0.7,2.2,2.1h0.1
			c0.1-0.3,0.2-0.5,0.3-0.8c0.1-0.2,0.3-0.5,0.5-0.6c0.2-0.2,0.5-0.3,0.7-0.4c0.3-0.1,0.7-0.2,1-0.2c1.7,0,2.5,1.2,2.5,3.7v8.6h-2.8
			v-8.3c0-0.4-0.1-0.8-0.3-1.2c-0.2-0.2-0.5-0.3-0.8-0.3c-0.3,0-0.6,0.1-0.8,0.3c-0.2,0.2-0.3,0.6-0.3,0.9v8.6h-2.8v-8.3
			c0-0.4-0.1-0.8-0.3-1.2c-0.2-0.2-0.5-0.4-0.7-0.3c-0.6,0-1.1,0.4-1.1,1c0,0.1,0,0.1,0,0.2v8.6L81.7,29.7z"/>
		<path class="st0" d="M105.9,29.7c-0.6,0-1.2-0.2-1.7-0.5c-0.5-0.4-0.7-1-0.8-1.6h-0.1c-0.2,0.7-0.6,1.4-1.3,1.8
			c-0.7,0.4-1.5,0.6-2.4,0.6c-1,0.1-2-0.3-2.8-1c-0.7-0.7-1.1-1.7-1.1-2.6c-0.1-1.1,0.4-2.2,1.4-2.8c1.2-0.7,2.6-1,4-0.9h1.9v-0.6
			c0-0.6-0.1-1.2-0.5-1.6c-0.5-0.4-1.1-0.6-1.7-0.5c-0.6,0-1.2,0.1-1.8,0.4c-0.4,0.3-0.8,0.7-1.1,1.1l-1.9-1.7
			c0.5-0.7,1.1-1.3,1.9-1.7c1-0.5,2.2-0.7,3.3-0.7c1.4-0.1,2.8,0.3,3.9,1.1c1,0.9,1.5,2.2,1.4,3.5v5.3h1.3v2.5L105.9,29.7z
			 M100.9,27.7c0.5,0,1.1-0.1,1.5-0.4c0.4-0.3,0.7-0.8,0.6-1.3v-1.4h-1.8c-1.4,0-2.1,0.5-2.1,1.4v0.5c0,0.4,0.2,0.8,0.5,1
			C100,27.7,100.5,27.8,100.9,27.7L100.9,27.7z"/>
		<path class="st0" d="M110.3,27h3.8v-6.6h-3.8v-2.7h7.3V27h3.6v2.7h-10.9V27z M115.9,16.1c-0.6,0.1-1.2-0.1-1.6-0.5
			c-0.3-0.3-0.5-0.7-0.4-1.2v-0.7c0-0.4,0.2-0.9,0.4-1.2c0.5-0.4,1-0.5,1.6-0.5c0.6-0.1,1.2,0.1,1.6,0.5c0.3,0.3,0.5,0.7,0.5,1.2
			v0.7c0,0.4-0.2,0.9-0.5,1.2C117.1,16,116.5,16.2,115.9,16.1L115.9,16.1z"/>
		<path class="st0" d="M123.2,29.7V17.7h3.5v2.2h0.1c0.1-0.4,0.3-0.7,0.5-1c0.2-0.3,0.4-0.6,0.7-0.8c0.3-0.2,0.6-0.4,1-0.5
			c0.4-0.1,0.9-0.2,1.3-0.2c0.5,0,1.1,0.1,1.6,0.3c0.5,0.2,0.9,0.5,1.2,0.9c0.4,0.4,0.6,0.9,0.8,1.5c0.2,0.6,0.3,1.3,0.3,1.9v7.8
			h-3.5v-7.4c0-1.6-0.7-2.3-2-2.3c-0.3,0-0.5,0-0.8,0.1c-0.2,0.1-0.5,0.2-0.7,0.3c-0.2,0.1-0.4,0.3-0.5,0.5
			c-0.1,0.2-0.2,0.5-0.2,0.8v7.9H123.2z"/>
		<path class="st0" d="M142.6,30c-1.7,0.1-3.4-0.5-4.6-1.7c-1.1-1.3-1.7-2.9-1.6-4.6c0-0.9,0.1-1.8,0.4-2.6c0.3-0.7,0.7-1.4,1.2-2
			c0.5-0.6,1.1-1,1.9-1.3c0.8-0.3,1.6-0.4,2.4-0.4c0.8,0,1.7,0.1,2.4,0.4c0.7,0.3,1.3,0.7,1.8,1.2c0.5,0.6,0.9,1.2,1.1,1.9
			c0.3,0.8,0.4,1.7,0.4,2.5v1h-8.3v0.2c0,0.7,0.2,1.4,0.7,1.9c0.6,0.5,1.4,0.8,2.1,0.7c0.6,0,1.3-0.1,1.8-0.4c0.5-0.3,1-0.6,1.3-1.1
			l1.9,2c-0.5,0.6-1.2,1.2-2,1.5C144.8,29.8,143.7,30,142.6,30z M142.3,19.9c-0.7,0-1.3,0.2-1.8,0.7c-0.5,0.5-0.7,1.2-0.7,1.9v0.2
			h4.9v-0.2c0-0.7-0.2-1.4-0.6-1.9C143.6,20.1,143,19.8,142.3,19.9L142.3,19.9z"/>
		<path class="st0" d="M164.6,27.5h-0.2c-0.3,0.7-0.7,1.3-1.3,1.8c-0.7,0.5-1.5,0.7-2.3,0.7c-0.6,0-1.3-0.1-1.8-0.4
			c-0.6-0.3-1.1-0.7-1.4-1.1c-0.4-0.6-0.8-1.3-0.9-2c-0.2-0.9-0.4-1.9-0.3-2.8c0-1,0.1-1.9,0.3-2.8c0.2-0.7,0.5-1.4,0.9-2
			c0.4-0.5,0.9-0.8,1.4-1.1c0.6-0.3,1.2-0.4,1.8-0.4c0.4,0,0.9,0.1,1.3,0.2c0.7,0.2,1.3,0.7,1.7,1.3c0.2,0.3,0.4,0.6,0.6,1h0.2v-7.5
			h3.4v17.3h-3.5L164.6,27.5z M162.3,27.3c0.6,0,1.1-0.1,1.6-0.4c0.5-0.3,0.7-0.8,0.7-1.4v-3.5c0-0.5-0.2-1.1-0.7-1.4
			c-0.5-0.3-1-0.5-1.6-0.4c-0.7,0-1.3,0.2-1.8,0.7c-0.5,0.6-0.7,1.3-0.6,2v1.9c-0.1,0.7,0.2,1.4,0.6,2
			C161,27.1,161.7,27.4,162.3,27.3z"/>
		<path class="st0" d="M178,27.5h-0.1c-0.3,0.7-0.7,1.3-1.2,1.8c-0.7,0.5-1.5,0.8-2.3,0.7c-0.5,0-1.1-0.1-1.6-0.3
			c-0.5-0.2-0.9-0.5-1.2-0.9c-0.4-0.4-0.6-0.9-0.8-1.4c-0.2-0.6-0.3-1.3-0.3-2v-7.8h3.5V25c0,1.6,0.7,2.3,2,2.3c0.3,0,0.5,0,0.8-0.1
			c0.2-0.1,0.5-0.2,0.7-0.3c0.2-0.1,0.4-0.3,0.5-0.5c0.1-0.2,0.2-0.5,0.2-0.8v-7.9h3.5v12.1H178V27.5z"/>
		<path class="st1" d="M190.9,13.4h5.7c1.3-0.1,2.7,0.3,3.7,1.2c0.9,0.8,1.3,2,1.3,3.2c0,0.8-0.2,1.6-0.7,2.2c-0.5,0.6-1.2,1-2,1.2
			v0.1c0.9,0.2,1.7,0.6,2.4,1.3c0.6,0.7,0.9,1.7,0.8,2.6c0.1,1.2-0.4,2.4-1.3,3.3c-1,0.9-2.3,1.3-3.6,1.2h-6.3L190.9,13.4z
			 M195.6,20.3c0.6,0,1.3-0.1,1.8-0.4c0.4-0.4,0.6-0.9,0.6-1.5v-0.7c0.1-0.6-0.1-1.1-0.6-1.5c-0.5-0.3-1.2-0.5-1.8-0.4h-1.3v4.5
			H195.6z M196.1,27.3c0.6,0.1,1.3-0.1,1.9-0.4c0.4-0.4,0.7-1,0.6-1.5v-0.7c0.1-0.6-0.2-1.2-0.6-1.5c-0.6-0.3-1.2-0.5-1.9-0.4h-1.8
			v4.6L196.1,27.3z"/>
		<path class="st1" d="M211.7,27.5h-0.1c-0.3,0.7-0.7,1.3-1.2,1.8c-0.7,0.5-1.5,0.7-2.3,0.7c-0.5,0-1.1-0.1-1.6-0.3
			c-0.5-0.2-0.9-0.5-1.2-0.9c-0.4-0.4-0.6-0.9-0.8-1.4c-0.2-0.6-0.3-1.3-0.3-2v-7.8h3.5V25c0,1.6,0.7,2.3,2,2.3c0.3,0,0.5,0,0.8-0.1
			c0.2-0.1,0.5-0.2,0.7-0.3c0.2-0.1,0.4-0.3,0.5-0.5c0.1-0.2,0.2-0.5,0.2-0.8v-7.9h3.5v12.1h-3.5L211.7,27.5z"/>
		<path class="st1" d="M217.9,27h2.8v-6.6h-2.8v-2.7h6.2v3.4h0.2c0.1-0.4,0.3-0.9,0.5-1.3c0.2-0.4,0.4-0.8,0.8-1.1
			c0.3-0.3,0.7-0.6,1.1-0.8c0.5-0.2,1-0.3,1.5-0.3h1.1v3.2h-2.6c-0.7,0-1.4,0.2-1.9,0.8c-0.4,0.5-0.7,1.2-0.6,1.9V27h4v2.7h-10.2V27
			z"/>
		<path class="st1" d="M243.4,31c0.1,1.2-0.6,2.3-1.6,2.8c-1.6,0.7-3.3,1-5.1,0.9c-1,0-1.9-0.1-2.9-0.2c-0.6-0.1-1.2-0.3-1.8-0.6
			c-0.4-0.2-0.7-0.5-0.9-0.9c-0.2-0.3-0.3-0.7-0.3-1.1c0-0.6,0.2-1.2,0.6-1.6c0.5-0.4,1.1-0.7,1.7-0.8v-0.1
			c-0.5-0.1-0.9-0.3-1.2-0.7c-0.3-0.3-0.5-0.8-0.4-1.2c0-0.5,0.2-1,0.6-1.3c0.5-0.3,1-0.5,1.6-0.7v-0.1c-0.7-0.3-1.3-0.8-1.7-1.5
			c-0.4-0.7-0.6-1.5-0.6-2.3c0-0.6,0.1-1.3,0.4-1.9c0.2-0.5,0.6-1,1.1-1.4c0.5-0.4,1.1-0.7,1.6-0.8c0.7-0.2,1.4-0.3,2.1-0.3
			c0.7,0,1.4,0.1,2.1,0.3V17c0-0.4,0.2-0.9,0.5-1.2c0.4-0.3,0.9-0.5,1.4-0.5h2.1v2.5h-2.9v0.2c0.6,0.3,1.2,0.8,1.5,1.4
			c0.4,0.7,0.6,1.4,0.6,2.2c0,0.6-0.1,1.3-0.4,1.8c-0.2,0.5-0.6,1-1.1,1.4c-0.5,0.4-1.1,0.7-1.7,0.8c-0.7,0.2-1.4,0.3-2.2,0.3
			c-0.7,0-1.3-0.1-2-0.2c-0.2,0.1-0.3,0.2-0.4,0.4c-0.1,0.1-0.2,0.3-0.2,0.5c0,0.2,0,0.3,0.1,0.5c0.1,0.1,0.2,0.2,0.4,0.2
			c0.2,0.1,0.4,0.1,0.6,0.1h0.7h2.8c0.7,0,1.5,0.1,2.2,0.3c0.5,0.1,1,0.4,1.5,0.7c0.4,0.3,0.7,0.7,0.8,1.1
			C243.3,30,243.4,30.5,243.4,31z M240.1,31.2c0-0.3-0.1-0.6-0.4-0.7c-0.4-0.2-0.9-0.3-1.4-0.3h-4.1c-0.3,0.2-0.5,0.6-0.5,1
			c0,0.4,0.2,0.7,0.5,0.9c0.5,0.3,1.1,0.4,1.6,0.4h2c0.6,0,1.2-0.1,1.7-0.3C239.9,32,240.2,31.6,240.1,31.2L240.1,31.2z M236.6,23.8
			c0.6,0.1,1.1-0.1,1.5-0.5c0.3-0.4,0.5-0.8,0.5-1.3v-0.6c0-0.5-0.2-0.9-0.5-1.3c-0.4-0.4-1-0.6-1.5-0.5c-0.5-0.1-1.1,0.1-1.5,0.5
			c-0.3,0.4-0.5,0.8-0.5,1.3V22c0,0.5,0.1,1,0.5,1.3C235.6,23.7,236.1,23.9,236.6,23.8L236.6,23.8z"/>
		<path class="st1" d="M250.7,30c-1.7,0.1-3.4-0.5-4.6-1.7c-1.1-1.3-1.7-2.9-1.6-4.6c0-0.9,0.1-1.8,0.4-2.6c0.2-0.7,0.6-1.4,1.2-2
			c0.5-0.6,1.1-1,1.9-1.3c1.6-0.6,3.3-0.6,4.9,0c0.7,0.3,1.3,0.7,1.8,1.2c0.5,0.6,0.9,1.2,1.2,2c0.3,0.8,0.4,1.7,0.4,2.5v1h-8.3v0.2
			c0,0.7,0.2,1.4,0.7,1.9c0.6,0.5,1.3,0.8,2.1,0.7c0.6,0,1.3-0.1,1.9-0.4c0.5-0.3,1-0.6,1.4-1.1l1.9,2c-0.6,0.6-1.2,1.1-2,1.5
			C252.9,29.8,251.8,30,250.7,30z M250.4,19.9c-0.7,0-1.3,0.2-1.8,0.7c-0.5,0.5-0.7,1.2-0.7,1.9v0.2h4.9v-0.2c0-0.7-0.2-1.4-0.6-1.9
			C251.7,20.1,251.1,19.8,250.4,19.9L250.4,19.9z"/>
		<path class="st1" d="M258.6,27h2.8v-6.6h-2.8v-2.7h6.2v3.4h0.1c0.1-0.4,0.3-0.9,0.5-1.3c0.2-0.4,0.4-0.8,0.8-1.1
			c0.3-0.3,0.7-0.6,1.1-0.8c0.5-0.2,1-0.3,1.5-0.3h1.1v3.2h-2.6c-0.7-0.1-1.4,0.2-1.9,0.8c-0.4,0.5-0.7,1.2-0.7,1.9V27h4v2.7h-10.2
			V27z"/>
	</g>
</g>
<g>
	<g>
		<path class="st2" d="M19.2,36.5h-5.7c-1.2,0-2.2-1-2.2-2.2l0,0h7.9V36.5z"/>
	</g>
	<g>
		<g>
			<g>
				<path class="st2" d="M15.9,34.9c-2.1,0-4.2,0-5.7-0.6c-2-0.8-3-2.3-3-4.7c0,0-0.5,0-0.5,0c0,0,0,0-0.1,0c-0.3,0-0.6-0.1-0.8-0.3
					c-0.2-0.2-0.4-0.5-0.4-0.9l0-0.7c0-0.2,0-0.4,0.1-0.5l0-0.4c0-0.5,0.3-1,0.7-1.2c0-0.1,0-0.1,0-0.2l0.8-3.4
					c-1.5-0.2-2-1.3-2-2.3c0-1.3,0.8-2.6,2.2-3.4c0-4.8,5.2-9.9,14.8-9.9c4.3,0,8.1,1.1,10.7,3.1c2.5,1.8,3.9,4.4,3.9,6.9l0,0.5
					c0,0,0,0.1,0,0.1l0,1.7l0.2,0c0.2,0,0.4,0,0.5,0.1c0.2-0.1,0.5-0.1,0.8-0.1c1.2,0,2,0.9,2,2.1c0,1.2-0.9,2.1-2.1,2.1
					c-0.1,0-0.4,0-0.6-0.1L37.2,24l0.3,0c0,0,0,0,0.1,0c0.3,0,0.6,0.1,0.8,0.3c0.2,0.2,0.4,0.5,0.4,0.9l0,0.4
					c0.1,0.2,0.1,0.3,0.1,0.5l0,0.7c0,0.3-0.1,0.6-0.3,0.9c-0.2,0.2-0.5,0.4-0.9,0.4l-0.5,0c0,0-0.1,0-0.1,0c0,0-0.1,0.1-0.2,0.1
					c-0.1,0.1-0.3,0.2-0.5,0.3l0,1.1c0,2.4-1,4-3,4.8C32,35,30,35,27.9,35L15.9,34.9z"/>
			</g>
			<g>
				<path class="st3" d="M35.7,16.2C35.7,12,31,7.3,22,7.3c-9,0-13.8,4.7-13.8,8.9v0.6h27.5V16.2z"/>
			</g>
			<g>
				<g>
					<path class="st4" d="M19,8.6h-0.9c0,0-0.1,0-0.1,0.1c0,0,0,0.1,0,0.2C18,8.9,18,9,18,9c0,0,0.1,0.1,0.1,0.1H19
						c0,0,0.1,0,0.1-0.1c0,0,0-0.1,0-0.2c0-0.1,0-0.2,0-0.2C19.1,8.6,19.1,8.6,19,8.6z"/>
				</g>
				<g>
					<path class="st4" d="M22.4,8.6h-0.9c0,0-0.1,0-0.1,0.1c0,0,0,0.1,0,0.2c0,0.1,0,0.2,0,0.2c0,0,0.1,0.1,0.1,0.1h0.9
						c0,0,0.1,0,0.1-0.1c0,0,0-0.1,0-0.2c0-0.1,0-0.2,0-0.2C22.5,8.6,22.4,8.6,22.4,8.6z"/>
				</g>
				<g>
					<path class="st4" d="M25.7,8.6h-0.9c0,0-0.1,0-0.1,0.1c0,0,0,0.1,0,0.2c0,0.1,0,0.2,0,0.2c0,0,0.1,0.1,0.1,0.1h0.9
						c0,0,0.1,0,0.1-0.1c0,0,0-0.1,0-0.2c0-0.1,0-0.2,0-0.2C25.8,8.6,25.8,8.6,25.7,8.6z"/>
				</g>
				<g>
					<path class="st4" d="M17.4,10.6h-0.9c0,0-0.1,0-0.1,0.1c0,0,0,0.1,0,0.2c0,0.1,0,0.2,0,0.2c0,0,0.1,0.1,0.1,0.1h0.9
						c0,0,0.1,0,0.1-0.1c0,0,0-0.1,0-0.2c0-0.1,0-0.2,0-0.2C17.4,10.6,17.4,10.6,17.4,10.6z"/>
				</g>
				<g>
					<path class="st4" d="M20.7,10.6h-0.9c0,0-0.1,0-0.1,0.1c0,0,0,0.1,0,0.2c0,0.1,0,0.2,0,0.2c0,0,0.1,0.1,0.1,0.1h0.9
						c0,0,0.1,0,0.1-0.1c0,0,0-0.1,0-0.2c0-0.1,0-0.2,0-0.2C20.8,10.6,20.7,10.6,20.7,10.6z"/>
				</g>
				<g>
					<path class="st4" d="M14,10.6h-0.9c0,0-0.1,0-0.1,0.1c0,0,0,0.1,0,0.2c0,0.1,0,0.2,0,0.2c0,0,0.1,0.1,0.1,0.1H14
						c0,0,0.1,0,0.1-0.1c0,0,0-0.1,0-0.2c0-0.1,0-0.2,0-0.2C14.1,10.6,14.1,10.6,14,10.6z"/>
				</g>
				<g>
					<path class="st4" d="M24,10.6h-0.9c0,0-0.1,0-0.1,0.1c0,0,0,0.1,0,0.2c0,0.1,0,0.2,0,0.2c0,0,0.1,0.1,0.1,0.1H24
						c0,0,0.1,0,0.1-0.1c0,0,0-0.1,0-0.2c0-0.1,0-0.2,0-0.2C24.1,10.6,24.1,10.6,24,10.6z"/>
				</g>
				<g>
					<path class="st4" d="M27.4,10.6h-0.9c0,0-0.1,0-0.1,0.1c0,0,0,0.1,0,0.2c0,0.1,0,0.2,0,0.2c0,0,0.1,0.1,0.1,0.1h0.9
						c0,0,0.1,0,0.1-0.1c0,0,0-0.1,0-0.2c0-0.1,0-0.2,0-0.2C27.5,10.6,27.4,10.6,27.4,10.6z"/>
				</g>
				<g>
					<path class="st4" d="M30.7,10.6h-0.9c0,0-0.1,0-0.1,0.1c0,0,0,0.1,0,0.2c0,0.1,0,0.2,0,0.2c0,0,0.1,0.1,0.1,0.1h0.9
						c0,0,0.1,0,0.1-0.1c0,0,0-0.1,0-0.2c0-0.1,0-0.2,0-0.2C30.8,10.6,30.8,10.6,30.7,10.6z"/>
				</g>
				<g>
					<path class="st4" d="M19,12.7h-0.9c0,0-0.1,0-0.1,0.1c0,0,0,0.1,0,0.2c0,0.1,0,0.2,0,0.2c0,0,0.1,0.1,0.1,0.1H19
						c0,0,0.1,0,0.1-0.1c0,0,0-0.1,0-0.2c0-0.1,0-0.2,0-0.2C19.1,12.7,19.1,12.7,19,12.7z"/>
				</g>
				<g>
					<path class="st4" d="M22.4,12.7h-0.9c0,0-0.1,0-0.1,0.1c0,0,0,0.1,0,0.2c0,0.1,0,0.2,0,0.2c0,0,0.1,0.1,0.1,0.1h0.9
						c0,0,0.1,0,0.1-0.1c0,0,0-0.1,0-0.2c0-0.1,0-0.2,0-0.2C22.5,12.7,22.4,12.7,22.4,12.7z"/>
				</g>
				<g>
					<path class="st4" d="M25.7,12.7h-0.9c0,0-0.1,0-0.1,0.1c0,0,0,0.1,0,0.2c0,0.1,0,0.2,0,0.2c0,0,0.1,0.1,0.1,0.1h0.9
						c0,0,0.1,0,0.1-0.1c0,0,0-0.1,0-0.2c0-0.1,0-0.2,0-0.2C25.8,12.7,25.8,12.7,25.7,12.7z"/>
				</g>
				<g>
					<path class="st4" d="M20.7,14.6h-0.9c0,0-0.1,0-0.1,0.1c0,0,0,0.1,0,0.2c0,0.1,0,0.2,0,0.2c0,0,0.1,0.1,0.1,0.1h0.9
						c0,0,0.1,0,0.1-0.1c0,0,0-0.1,0-0.2c0-0.1,0-0.2,0-0.2C20.8,14.7,20.7,14.6,20.7,14.6z"/>
				</g>
				<g>
					<path class="st4" d="M24,14.6h-0.9c0,0-0.1,0-0.1,0.1c0,0,0,0.1,0,0.2c0,0.1,0,0.2,0,0.2c0,0,0.1,0.1,0.1,0.1H24
						c0,0,0.1,0,0.1-0.1c0,0,0-0.1,0-0.2c0-0.1,0-0.2,0-0.2C24.1,14.7,24.1,14.6,24,14.6z"/>
				</g>
				<g>
					<path class="st4" d="M29,12.7h-0.9c0,0-0.1,0-0.1,0.1c0,0,0,0.1,0,0.2c0,0.1,0,0.2,0,0.2c0,0,0.1,0.1,0.1,0.1H29
						c0,0,0.1,0,0.1-0.1c0,0,0-0.1,0-0.2c0-0.1,0-0.2,0-0.2C29.1,12.7,29.1,12.7,29,12.7z"/>
				</g>
				<g>
					<path class="st4" d="M32.5,12.7c0,0-0.1-0.1-0.1-0.1h-0.9c0,0-0.1,0-0.1,0.1c0,0,0,0.1,0,0.2c0,0.1,0,0.2,0,0.2
						c0,0,0.1,0.1,0.1,0.1h0.9c0,0,0.1,0,0.1-0.1c0,0,0-0.1,0-0.2C32.5,12.8,32.5,12.7,32.5,12.7z"/>
				</g>
				<g>
					<path class="st4" d="M30.7,14.6h-0.9c0,0-0.1,0-0.1,0.1c0,0,0,0.1,0,0.2c0,0.1,0,0.2,0,0.2c0,0,0.1,0.1,0.1,0.1h0.9
						c0,0,0.1,0,0.1-0.1c0,0,0-0.1,0-0.2c0-0.1,0-0.2,0-0.2C30.8,14.7,30.8,14.6,30.7,14.6z"/>
				</g>
				<g>
					<path class="st4" d="M27.4,14.6h-0.9c0,0-0.1,0-0.1,0.1c0,0,0,0.1,0,0.2c0,0.1,0,0.2,0,0.2c0,0,0.1,0.1,0.1,0.1h0.9
						c0,0,0.1,0,0.1-0.1c0,0,0-0.1,0-0.2c0-0.1,0-0.2,0-0.2C27.5,14.7,27.4,14.6,27.4,14.6z"/>
				</g>
				<g>
					<path class="st4" d="M12.3,12.7h-0.9c0,0-0.1,0-0.1,0.1c0,0,0,0.1,0,0.2c0,0.1,0,0.2,0,0.2c0,0,0.1,0.1,0.1,0.1h0.9
						c0,0,0.1,0,0.1-0.1c0,0,0-0.1,0-0.2c0-0.1,0-0.2,0-0.2C12.4,12.7,12.4,12.7,12.3,12.7z"/>
				</g>
				<g>
					<path class="st4" d="M15.7,12.7h-0.9c0,0-0.1,0-0.1,0.1c0,0,0,0.1,0,0.2c0,0.1,0,0.2,0,0.2c0,0,0.1,0.1,0.1,0.1h0.9
						c0,0,0.1,0,0.1-0.1c0,0,0-0.1,0-0.2c0-0.1,0-0.2,0-0.2C15.8,12.7,15.7,12.7,15.7,12.7z"/>
				</g>
				<g>
					<path class="st4" d="M14,14.6h-0.9c0,0-0.1,0-0.1,0.1c0,0,0,0.1,0,0.2c0,0.1,0,0.2,0,0.2c0,0,0.1,0.1,0.1,0.1H14
						c0,0,0.1,0,0.1-0.1c0,0,0-0.1,0-0.2c0-0.1,0-0.2,0-0.2C14.1,14.7,14.1,14.6,14,14.6z"/>
				</g>
				<g>
					<path class="st4" d="M17.4,14.7C17.4,14.7,17.4,14.6,17.4,14.7l-1,0c0,0-0.1,0-0.1,0.1c0,0,0,0.1,0,0.2c0,0.1,0,0.2,0,0.2
						c0,0,0.1,0.1,0.1,0.1h0.9h0c0,0,0.1,0,0.1-0.1c0,0,0-0.1,0-0.2C17.5,14.8,17.5,14.7,17.4,14.7C17.5,14.7,17.4,14.7,17.4,14.7z"
						/>
				</g>
			</g>
			<g>
				<path class="st5" d="M35.7,19.8c0,0.3,0,0.5-0.3,0.5H8.4c-0.3,0-0.3-0.2-0.3-0.5v-0.9c0-0.3,0-0.5,0.3-0.5h26.9
					c0.3,0,0.3,0.2,0.3,0.5V19.8z"/>
			</g>
			<g>
				<rect x="8.2" y="17.3" class="st6" width="27.5" height="0.7"/>
			</g>
			<g>
				<polygon class="st6" points="26,17.5 22,19.9 17.9,17.5 				"/>
			</g>
			<g>
				<path class="st3" d="M8.2,29.1v0.6c0,4.2,3.4,4.2,7.7,4.2H28c4.2,0,7.7,0,7.7-4.2v-0.6H8.2z"/>
			</g>
			<g>
				<g>
					<path class="st7" d="M9.5,29.9c0,0.7,0.1,1.1,1,0.7c0.9-0.5,2-1.1,4.4-1c-0.9,0.3-1.9,0.7-2,1.3c-0.1,0.6,0.5,0.9,1.8,0.6
						c0.2,0.6,0.7,1.2,1.9,0.2c1.2-1,1.8-1.4,2.4-1.6c0.6-0.2,0.7,0.1,0.1,0.5c-0.6,0.4-1.2,0.6-1.3,1c-0.1,0.4,0,1.1,1,0.8
						c0,0.7,0.2,1.3,1.1,1.3c0.9,0,1.2-0.5,1.2-1.3c0.6,0.3,1.4,0.5,1.4-0.6c0.1-1.1,0.6-1.6,1.1-1.9c0.5-0.3,0.6,0.2,0.3,0.4
						c-0.5,0.2-0.7,0.5-0.7,0.9c0,0.5,0.8,1.1,1.6,0.3c0.1,0.5,1,0.8,1.3-0.2s0.4-1.7,1.3-1.7c-0.6,0.2-1,1.2-0.2,1.5
						c0.8,0.3,1.2-0.5,1.3-0.7c0.1-0.3,0.4-0.8,1.1-0.8c-0.7,0.3-0.7,1.3,0,1.4c0.7,0.1,0.9-0.2,1.4-0.6c0.5-0.5,1.5-1,2.8-0.8
						c-0.3,0.7,0.2,0.9,0.6,0.9c0.5-0.1,0.5-0.6,0.6-1H9v0C8.6,29.4,8.3,30.5,9.5,29.9z"/>
				</g>
			</g>
			<g>
				<path class="st5" d="M6.8,27.6c0.5,0,0.7,0.1,1.1,0.3c0.4,0.2,1,0.6,2.1,0.5c1-0.1,1.6-0.5,2-0.7c0.3-0.2,0.5-0.4,1-0.4
					c0.5,0,0.7,0.1,1.1,0.3c0.4,0.2,1,0.6,2.1,0.5c1-0.1,1.6-0.5,2-0.7c0.3-0.2,0.5-0.4,1-0.4c0.5,0,0.7,0.1,1.1,0.3
					c0.4,0.2,1,0.6,2.1,0.5c1-0.1,1.6-0.5,2-0.8c0.3-0.2,0.5-0.4,1-0.4c0.5,0,0.7,0.1,1.1,0.3c0.4,0.2,1,0.6,2.1,0.5
					c1-0.1,1.6-0.5,2-0.8c0.3-0.2,0.5-0.4,1-0.4c0.5,0,0.7,0.1,1.1,0.3c0.4,0.2,1,0.6,2.1,0.5c1-0.1,1.6-0.5,2-0.8
					c0.3-0.2,0.5-0.4,1-0.4l0.4,0l0-0.7l-0.4,0c-1.1,0.1-1.6,0.5-2.1,0.8c-0.3,0.2-0.5,0.4-1,0.4c-0.5,0-0.6-0.1-1-0.3
					c-0.4-0.3-1.1-0.6-2.1-0.5c-1.1,0.1-1.6,0.5-2.1,0.8c-0.3,0.2-0.5,0.4-1,0.4c-0.5,0-0.6-0.1-1-0.3c-0.4-0.3-1.1-0.6-2.1-0.5
					c-1.1,0.1-1.6,0.5-2.1,0.8c-0.3,0.2-0.5,0.4-1,0.4c-0.5,0-0.6-0.1-1-0.3c-0.4-0.3-1.1-0.6-2.1-0.5C18,26.3,17.4,26.7,17,27
					c-0.3,0.2-0.5,0.4-1,0.4c-0.5,0-0.6-0.1-1-0.3c-0.4-0.3-1.1-0.6-2.1-0.5c-1.1,0.1-1.6,0.5-2.1,0.8c-0.3,0.2-0.5,0.4-1,0.4
					c-0.5,0-0.6-0.1-1-0.3c-0.4-0.3-1.1-0.6-2.1-0.5l-0.4,0l0,0.7L6.8,27.6z"/>
			</g>
			<g>
				<path class="st5" d="M36.7,26.5c-0.4,0.3-1,0.7-2.1,0.8c-1.1,0.1-1.7-0.3-2.2-0.6c-0.3-0.2-0.5-0.3-0.9-0.3
					c-0.4,0-0.6,0.1-0.9,0.4c-0.4,0.3-1,0.7-2.1,0.8c-1.1,0.1-1.7-0.3-2.2-0.6c-0.3-0.2-0.5-0.3-0.9-0.3c-0.4,0-0.6,0.1-0.9,0.4
					c-0.4,0.3-1,0.7-2.1,0.8c-1.1,0.1-1.7-0.3-2.2-0.6c-0.3-0.2-0.5-0.3-0.9-0.3c-0.4,0-0.6,0.1-0.9,0.4c-0.4,0.3-1,0.7-2.1,0.8
					c-1.1,0.1-1.7-0.3-2.2-0.6c-0.3-0.2-0.5-0.3-0.9-0.3c-0.4,0-0.6,0.1-0.9,0.4c-0.4,0.3-1,0.7-2.1,0.8c-1.1,0.1-1.7-0.3-2.2-0.6
					c-0.3-0.2-0.5-0.3-0.9-0.3l-0.5,0l0,0.7l0.5,0c0.5,0,0.6,0.1,1,0.3c0.4,0.3,1.1,0.6,2.1,0.5c1.1-0.1,1.6-0.5,2.1-0.8
					c0.3-0.2,0.5-0.4,1-0.4c0.5,0,0.6,0.1,1,0.3c0.4,0.3,1.1,0.6,2.1,0.5c1.1-0.1,1.7-0.5,2.1-0.8c0.3-0.2,0.5-0.4,1-0.4
					c0.5,0,0.6,0.1,1,0.3c0.4,0.3,1.1,0.6,2.1,0.5c1.1-0.1,1.7-0.5,2.1-0.8c0.3-0.2,0.5-0.4,1-0.4c0.5,0,0.6,0.1,1,0.3
					c0.4,0.3,1.1,0.6,2.1,0.5c1.1-0.1,1.6-0.5,2.1-0.8c0.3-0.2,0.5-0.4,1-0.4c0.5,0,0.6,0.1,1,0.3c0.4,0.3,1.1,0.6,2.1,0.5
					c1.1-0.1,1.7-0.5,2.1-0.8c0.3-0.2,0.5-0.4,1-0.4l0.5,0l0-0.7l-0.5,0C37.2,26.2,37,26.3,36.7,26.5z"/>
			</g>
			<g>
				<path class="st8" d="M11.1,17.6l-0.7,2.8h0.1c1.1,0,2-1.1,2-2.1c0-0.7-0.5-1.4-1.8-1.4c-1.6,0-3.5,1-3.5,3.1
					c0,0.6,0.2,0.8,0.2,0.9c-0.9,0-1.5-0.3-1.5-1.2c0-1.8,2.4-3.4,5.1-3.4c2.1,0,3,1,3,2c0,0.8-0.5,1.6-1.4,2c1.2,0.2,1.6,1.1,1.6,2
					c0,1.2-0.7,3.7-3.1,3.7c-0.6,0-1.4-0.2-1.4-0.9c0-0.2,0.1-0.4,0.2-0.7c0.3,0.3,0.6,0.5,0.9,0.5c1,0,1.4-1.3,1.4-2.3
					c0-0.9-0.3-1.6-1.3-1.6c-0.1,0-0.4,0-0.6,0l-1.1,4.9h-2L9,17.8L11.1,17.6z"/>
				<path class="st2" d="M11.1,26.6c-0.7,0-1.2-0.2-1.5-0.5c-0.1,0.2-0.3,0.3-0.5,0.3h-2c-0.2,0-0.3-0.1-0.4-0.2
					c-0.1-0.1-0.1-0.3-0.1-0.4l1-4.4c-0.1,0-0.2,0.1-0.3,0.1c-1.8,0-2-1.1-2-1.7c0-2.1,2.6-3.9,5.6-3.9c1.7,0,3.5,0.8,3.5,2.5
					c0,0.7-0.3,1.4-0.8,1.9c0.7,0.4,1.1,1.2,1.1,2.2c0,0.7-0.2,1.7-0.7,2.6C13.3,26.1,12.4,26.6,11.1,26.6z M10.3,25.3
					c0.1,0.2,0.4,0.3,0.8,0.3c2.1,0,2.5-2.3,2.5-3.1c0-0.6-0.2-1.4-1.2-1.5c-0.2,0-0.4-0.2-0.4-0.4c0,0,0-0.1,0-0.1
					c-0.1,0.1-0.2,0.2-0.4,0.3c0.5,0.2,1.1,0.7,1.1,2c0,1.4-0.6,2.8-1.9,2.8C10.7,25.4,10.5,25.4,10.3,25.3z M7.8,25.4h0.9l1.1-4.5
					c0-0.1,0.1-0.2,0.2-0.3c-0.1-0.1-0.1-0.2,0-0.3l0.5-2.1l-1,0.1L7.8,25.4z M10.1,24c0.1,0,0.1,0.1,0.2,0.1
					c0.3,0.3,0.4,0.3,0.6,0.3c0.6,0,0.9-1.1,0.9-1.8c0-1-0.4-1.1-0.8-1.1c0,0-0.1,0-0.2,0L10.1,24z M8.4,18.4
					C8,18.8,7.7,19.3,7.7,20c0,0.3,0.1,0.4,0.1,0.5c0,0,0,0,0,0L8.4,18.4z M7.1,18.3c-0.4,0.4-0.7,0.9-0.7,1.4c0,0.2,0,0.4,0.3,0.5
					c0-0.1,0-0.1,0-0.2C6.7,19.4,6.8,18.8,7.1,18.3z M12.8,17.3c0.2,0.3,0.3,0.6,0.3,1c0,0.6-0.2,1.1-0.5,1.5
					c0.5-0.4,0.9-0.9,0.9-1.4C13.4,17.9,13.2,17.5,12.8,17.3z M11.6,17.6C11.6,17.7,11.6,17.7,11.6,17.6l-0.5,2.1
					c0.5-0.3,0.9-0.9,0.9-1.4C12,18,11.9,17.8,11.6,17.6z"/>
			</g>
			<g>
				<path class="st8" d="M19.8,19.9L18.9,24c0,0.2,0,0.3,0,0.4c0,0.3,0.2,0.4,0.5,0.4c0.5,0,0.8-0.5,1-1.1h0.5
					c-0.7,2-1.8,2.2-2.4,2.2c-0.7,0-1.1-0.4-1.2-1.2c-0.6,1-1.3,1.2-1.8,1.2c-0.7,0-1.3-0.4-1.3-1.5c0-0.2,0-0.5,0.1-0.8l0.8-3.9
					h1.7L15.9,24c0,0.1,0,0.2,0,0.3c0,0.3,0.1,0.5,0.4,0.5c0.5,0,0.8-0.5,1-1.1l0.8-3.9H19.8z"/>
				<path class="st2" d="M18.4,26.4c-0.6,0-1.1-0.2-1.4-0.7c-0.5,0.5-1,0.7-1.6,0.7c-0.8,0-1.7-0.5-1.7-1.9c0-0.2,0-0.5,0.1-0.9
					l0.8-3.9c0-0.2,0.2-0.4,0.4-0.4h1.7c0.1,0,0.3,0.1,0.3,0.2c0.1,0.1,0.1,0.2,0.1,0.4l-0.9,4.1c0,0.1,0,0.2,0,0.2c0,0,0,0,0,0
					c0.2-0.1,0.4-0.5,0.5-0.7l0.8-3.9c0-0.2,0.2-0.4,0.4-0.4h1.7c0.1,0,0.3,0.1,0.3,0.2c0.1,0.1,0.1,0.2,0.1,0.4l-0.9,4.1
					c0,0.1,0,0.2,0,0.3c0,0,0,0,0,0c0,0,0,0,0.1,0c0.2,0,0.4-0.4,0.6-0.8c0.1-0.2,0.2-0.3,0.4-0.3h0.5c0.1,0,0.3,0.1,0.4,0.2
					c0.1,0.1,0.1,0.3,0.1,0.4C20.6,26,19.3,26.4,18.4,26.4z M17.4,24.4c0.1,0.1,0.2,0.2,0.2,0.4c0.1,0.7,0.5,0.7,0.8,0.7
					c0.3,0,0.6-0.1,0.9-0.3c-0.8,0-0.9-0.6-0.9-0.9c0-0.2,0-0.3,0.1-0.5l0.8-3.6h-0.8l-0.7,3.5c0,0,0,0,0,0
					C17.6,24.1,17.5,24.3,17.4,24.4z M15.4,20.3l-0.7,3.5c-0.1,0.3-0.1,0.5-0.1,0.7c0,0.7,0.3,1,0.9,1c0.2,0,0.5,0,0.9-0.3
					c0,0,0,0,0,0c-0.4,0-0.8-0.2-0.8-0.9c0-0.1,0-0.3,0-0.4l0.8-3.6H15.4z M19.3,24.4L19.3,24.4L19.3,24.4z"/>
			</g>
			<g>
				<path class="st8" d="M22.9,19.9l-0.2,0.8c0.4-0.4,0.9-0.8,1.5-0.8c0.5,0,0.8,0.4,0.8,0.9c0,0.4-0.3,0.9-0.9,0.9
					c-0.7,0-0.3-0.8-0.7-0.8c-0.4,0-0.6,0.2-0.9,0.5l-1,4.6h-1.7l1.3-6.1H22.9z"/>
				<path class="st2" d="M21.6,26.4h-1.7c-0.1,0-0.3-0.1-0.3-0.2c-0.1-0.1-0.1-0.2-0.1-0.4l1.3-6.1c0-0.2,0.2-0.4,0.4-0.4h1.7
					c0.1,0,0.3,0.1,0.3,0.2c0,0,0,0,0.1,0.1c0.3-0.1,0.6-0.2,0.9-0.2c0.7,0,1.3,0.6,1.3,1.4c0,0.6-0.5,1.3-1.3,1.3
					c-0.7,0-0.8-0.5-0.9-0.8c-0.1,0-0.2,0.1-0.3,0.2L22.1,26C22,26.2,21.9,26.4,21.6,26.4z M20.4,25.5h0.8l0.9-4.3
					c0-0.1,0.1-0.2,0.1-0.2c0,0,0.1-0.1,0.1-0.1c-0.1-0.1-0.1-0.2-0.1-0.4l0-0.2h-0.8L20.4,25.5z M24.2,21.2
					C24.2,21.2,24.2,21.2,24.2,21.2c0.4,0,0.4-0.4,0.4-0.4c0,0,0-0.5-0.4-0.5c-0.2,0-0.3,0.1-0.5,0.1c0.3,0.1,0.4,0.5,0.4,0.6
					C24.2,21.1,24.2,21.2,24.2,21.2z M24.2,21.2L24.2,21.2L24.2,21.2z"/>
			</g>
			<g>
				<path class="st8" d="M30.3,19.9l-1.2,5.6c0.7-0.3,1.2-0.7,1.5-1.7h0.5c-0.5,1.6-1.4,2.1-2.1,2.3l-0.2,0.9
					c-0.4,1.7-1.4,2.1-2.2,2.1c-0.7,0-1.4-0.4-1.4-1.2c0-1,1.1-1.5,2-1.8l0.1-0.6C27,25.7,26.5,26,25.9,26c-0.8,0-1.6-0.5-1.6-2
					c0-1.6,1-4.2,3.1-4.2c0.7,0,1,0.3,1,0.6v0.1l0.1-0.6H30.3z M26.3,28c0.3,0,0.5-0.4,0.7-1.1l0.1-0.4c-0.6,0.2-1.2,0.5-1.2,1
					C25.9,27.8,26,28,26.3,28z M26.1,23.9c0,0.9,0.4,0.9,0.6,0.9c0.3,0,0.8-0.3,1-0.9l0.6-2.9c0-0.1-0.1-0.4-0.5-0.4
					C26.7,20.5,26.1,22.7,26.1,23.9z"/>
				<path class="st2" d="M26.6,29.4c-1.1,0-1.8-0.7-1.8-1.6c0-0.5,0.2-1,0.6-1.4c-0.8-0.2-1.6-0.9-1.6-2.3c0-2,1.2-4.7,3.6-4.7
					c0.3,0,0.6,0.1,0.8,0.2c0.1-0.1,0.2-0.1,0.3-0.1h1.7c0.1,0,0.3,0.1,0.3,0.2c0.1,0.1,0.1,0.2,0.1,0.4l-1,4.6
					c0.2-0.2,0.3-0.5,0.4-0.9c0.1-0.2,0.2-0.3,0.4-0.3h0.5c0.1,0,0.3,0.1,0.4,0.2c0.1,0.1,0.1,0.3,0.1,0.4c-0.5,1.7-1.4,2.2-2.2,2.5
					L29.2,27C28.8,29,27.5,29.4,26.6,29.4z M26.1,28.4c0.2,0.1,0.3,0.1,0.5,0.1c0.6,0,1.4-0.2,1.7-1.7l0.2-0.9
					c0-0.1,0.1-0.2,0.1-0.2c0-0.1-0.1-0.2,0-0.3l1.1-5.1h-0.8l-0.1,0.3c0,0.1-0.1,0.2-0.1,0.2c0,0,0,0.1,0,0.1c0,0,0,0.1,0,0.1
					L28.1,24c0,0,0,0,0,0c-0.1,0.4-0.3,0.7-0.6,0.9c0,0,0,0,0,0c0.2,0.1,0.3,0.3,0.2,0.5l-0.1,0.6c0,0.1-0.1,0.2-0.2,0.3
					c0.1,0.1,0.1,0.2,0.1,0.3L27.4,27c-0.2,0.9-0.6,1.4-1.1,1.4C26.2,28.4,26.2,28.4,26.1,28.4z M27.2,20.2
					c-1.7,0.2-2.5,2.6-2.5,3.8c0,1,0.4,1.5,1.2,1.5c0.3,0,0.6-0.1,0.9-0.3c0,0-0.1,0-0.1,0c-0.7,0-1.1-0.5-1.1-1.4
					C25.6,22.9,26.1,20.8,27.2,20.2z M27.8,21c-0.6,0-1.3,1.7-1.3,2.9c0,0.4,0.1,0.5,0.1,0.5c0,0,0.1,0,0.1,0c0.1,0,0.4-0.2,0.5-0.6
					L27.8,21C27.8,21,27.8,21,27.8,21C27.8,21,27.8,21,27.8,21z"/>
			</g>
			<g>
				<path class="st8" d="M32.7,25c1,0,1.5-0.5,2.1-1.2h0.4c-0.7,1.1-1.7,2.2-3.3,2.2c-1.1,0-1.9-0.6-1.9-1.9c0-1.4,0.8-4.3,3.3-4.3
					c1.1,0,1.3,0.6,1.3,1.2c0,1.4-1.3,2.5-2.8,2.6c0,0.2,0,0.3,0,0.5C31.8,24.8,32.1,25,32.7,25z M33.4,20.4c-0.6,0-1.2,1.3-1.5,2.5
					c0.9-0.1,1.8-1,1.8-2C33.7,20.6,33.6,20.4,33.4,20.4z"/>
				<path class="st2" d="M31.9,26.4c-1.5,0-2.3-0.9-2.3-2.4c0-1.6,0.9-4.8,3.7-4.8c1.1,0,1.8,0.6,1.8,1.6c0,1.4-1.2,2.7-2.8,3
					c0,0,0,0.1,0,0.1c0,0.6,0.1,0.6,0.4,0.6c0.7,0,1.2-0.4,1.8-1.1c0.1-0.1,0.2-0.2,0.3-0.2h0.4c0.2,0,0.3,0.1,0.4,0.2
					s0.1,0.3,0,0.5C34.6,25.6,33.4,26.4,31.9,26.4z M32.6,20.3c-1.6,0.5-2.2,2.7-2.2,3.8c0,1,0.4,1.5,1.4,1.5c0.3,0,0.6,0,0.8-0.1
					c0,0,0,0-0.1,0c-0.9,0-1.3-0.5-1.3-1.5c0-0.2,0-0.3,0-0.5c0-0.1,0.1-0.2,0.2-0.3c-0.1-0.1-0.1-0.2-0.1-0.3
					C31.5,22.6,31.9,21,32.6,20.3z M33.2,20.9c-0.2,0.2-0.4,0.6-0.7,1.3C33,21.9,33.2,21.4,33.2,20.9z M34.1,20.4
					c0,0.1,0.1,0.3,0.1,0.4c0,0.3,0,0.5-0.1,0.8c0.1-0.2,0.2-0.5,0.2-0.7C34.2,20.7,34.2,20.6,34.1,20.4z M33.4,20.8L33.4,20.8
					L33.4,20.8z"/>
			</g>
			<g>
				<path class="st8" d="M37.1,19.9l-0.2,0.8c0.4-0.4,0.9-0.8,1.5-0.8c0.5,0,0.8,0.4,0.8,0.9c0,0.4-0.3,0.9-0.9,0.9
					c-0.7,0-0.3-0.8-0.7-0.8c-0.4,0-0.6,0.2-0.9,0.5l-1,4.6h-1.7l1.3-6.1H37.1z"/>
				<path class="st2" d="M35.8,26.4h-1.7c-0.1,0-0.3-0.1-0.3-0.2s-0.1-0.2-0.1-0.4l1.3-6.1c0-0.2,0.2-0.4,0.4-0.4h1.7
					c0.1,0,0.3,0.1,0.3,0.2c0,0,0,0.1,0.1,0.1c0.3-0.1,0.6-0.2,0.9-0.2c0.7,0,1.3,0.6,1.3,1.4c0,0.6-0.5,1.3-1.3,1.3
					c-0.7,0-0.8-0.5-0.9-0.8c-0.1,0-0.2,0.1-0.3,0.2L36.2,26C36.2,26.2,36,26.4,35.8,26.4z M34.6,25.5h0.8l0.9-4.3
					c0-0.1,0.1-0.2,0.1-0.2c0,0,0.1-0.1,0.1-0.1c-0.1-0.1-0.1-0.2-0.1-0.4l0-0.2h-0.8L34.6,25.5z M38.3,21.2
					C38.4,21.2,38.4,21.2,38.3,21.2c0.4,0,0.5-0.4,0.5-0.4c0,0,0-0.5-0.4-0.5c-0.2,0-0.3,0.1-0.5,0.1c0.3,0.1,0.4,0.5,0.4,0.6
					C38.3,21.1,38.3,21.2,38.3,21.2z M38.3,21.2L38.3,21.2L38.3,21.2z"/>
			</g>
			<g>
				<path class="st9" d="M11.1,17.6l-0.7,2.8h0.1c1.1,0,2-1.1,2-2.1c0-0.7-0.5-1.4-1.8-1.4c-1.6,0-3.5,1-3.5,3.1
					c0,0.6,0.2,0.8,0.2,0.9c-0.9,0-1.5-0.3-1.5-1.2c0-1.8,2.4-3.4,5.1-3.4c2.1,0,3,1,3,2c0,0.8-0.5,1.6-1.4,2c1.2,0.2,1.6,1.1,1.6,2
					c0,1.2-0.7,3.7-3.1,3.7c-0.6,0-1.4-0.2-1.4-0.9c0-0.2,0.1-0.4,0.2-0.7c0.3,0.3,0.6,0.5,0.9,0.5c1,0,1.4-1.3,1.4-2.3
					c0-0.9-0.3-1.6-1.3-1.6c-0.1,0-0.4,0-0.6,0l-1.1,4.9h-2L9,17.8L11.1,17.6z"/>
			</g>
			<g>
				<path class="st9" d="M19.8,19.9L18.9,24c0,0.2,0,0.3,0,0.4c0,0.3,0.2,0.4,0.5,0.4c0.5,0,0.8-0.5,1-1.1h0.5
					c-0.7,2-1.8,2.2-2.4,2.2c-0.7,0-1.1-0.4-1.2-1.2c-0.6,1-1.3,1.2-1.8,1.2c-0.7,0-1.3-0.4-1.3-1.5c0-0.2,0-0.5,0.1-0.8l0.8-3.9
					h1.7L15.9,24c0,0.1,0,0.2,0,0.3c0,0.3,0.1,0.5,0.4,0.5c0.5,0,0.8-0.5,1-1.1l0.8-3.9H19.8z"/>
			</g>
			<g>
				<path class="st9" d="M22.9,19.9l-0.2,0.8c0.4-0.4,0.9-0.8,1.5-0.8c0.5,0,0.8,0.4,0.8,0.9c0,0.4-0.3,0.9-0.9,0.9
					c-0.7,0-0.3-0.8-0.7-0.8c-0.4,0-0.6,0.2-0.9,0.5l-1,4.6h-1.7l1.3-6.1H22.9z"/>
			</g>
			<g>
				<path class="st9" d="M30.3,19.9l-1.2,5.6c0.7-0.3,1.2-0.7,1.5-1.7h0.5c-0.5,1.6-1.4,2.1-2.1,2.3l-0.2,0.9
					c-0.4,1.7-1.4,2.1-2.2,2.1c-0.7,0-1.4-0.4-1.4-1.2c0-1,1.1-1.5,2-1.8l0.1-0.6C27,25.7,26.5,26,25.9,26c-0.8,0-1.6-0.5-1.6-2
					c0-1.6,1-4.2,3.1-4.2c0.7,0,1,0.3,1,0.6v0.1l0.1-0.6H30.3z M26.3,28c0.3,0,0.5-0.4,0.7-1.1l0.1-0.4c-0.6,0.2-1.2,0.5-1.2,1
					C25.9,27.8,26,28,26.3,28z M26.1,23.9c0,0.9,0.4,0.9,0.6,0.9c0.3,0,0.8-0.3,1-0.9l0.6-2.9c0-0.1-0.1-0.4-0.5-0.4
					C26.7,20.5,26.1,22.7,26.1,23.9z"/>
			</g>
			<g>
				<path class="st9" d="M32.7,25c1,0,1.5-0.5,2.1-1.2h0.4c-0.7,1.1-1.7,2.2-3.3,2.2c-1.1,0-1.9-0.6-1.9-1.9c0-1.4,0.8-4.3,3.3-4.3
					c1.1,0,1.3,0.6,1.3,1.2c0,1.4-1.3,2.5-2.8,2.6c0,0.2,0,0.3,0,0.5C31.8,24.8,32.1,25,32.7,25z M33.4,20.4c-0.6,0-1.2,1.3-1.5,2.5
					c0.9-0.1,1.8-1,1.8-2C33.7,20.6,33.6,20.4,33.4,20.4z"/>
			</g>
			<g>
				<path class="st9" d="M37.1,19.9l-0.2,0.8c0.4-0.4,0.9-0.8,1.5-0.8c0.5,0,0.8,0.4,0.8,0.9c0,0.4-0.3,0.9-0.9,0.9
					c-0.7,0-0.3-0.8-0.7-0.8c-0.4,0-0.6,0.2-0.9,0.5l-1,4.6h-1.7l1.3-6.1H37.1z"/>
			</g>
			<g>
				<path class="st8" d="M14.1,29.4l1-3.1h0.7v3.1l1.1-3.1h0.3L15.8,30h-0.7v-2.5l-1,2.5h-0.7v-3.4c-0.5,0.2-0.8,0.6-0.8,1.1
					c0,0.3,0.1,0.3,0.1,0.3c-0.3,0-0.5-0.1-0.5-0.5c0-0.7,0.9-1.3,1.8-1.3c0.1,0,0.1,0,0.2,0L14.1,29.4z"/>
				<path class="st2" d="M15.8,30.5h-0.7c-0.2,0-0.4-0.2-0.4-0.4v-0.2l-0.1,0.3c-0.1,0.2-0.2,0.3-0.4,0.3h-0.7
					c-0.2,0-0.4-0.2-0.4-0.4v-1.6c-0.1,0.1-0.2,0.1-0.3,0.1c-0.6,0-1-0.3-1-0.9c0-1,1.2-1.7,2.2-1.7c0.1,0,0.2,0,0.2,0
					c0.2,0,0.4,0.2,0.4,0.4l0,0.5l0.2-0.6c0.1-0.2,0.2-0.3,0.4-0.3h0.7c0.2,0,0.4,0.2,0.4,0.4v0.4l0.2-0.6c0.1-0.2,0.2-0.3,0.4-0.3
					h0.3c0.1,0,0.3,0.1,0.4,0.2c0.1,0.1,0.1,0.3,0.1,0.4l-1.4,3.7C16.2,30.4,16,30.5,15.8,30.5z M15.3,27.1
					C15.3,27.1,15.3,27.1,15.3,27.1L15.3,27.1L15.3,27.1z"/>
			</g>
			<g>
				<path class="st8" d="M17.5,29.6c0.4,0,0.6-0.2,0.9-0.5h0.2c-0.3,0.5-0.7,0.9-1.4,0.9c-0.5,0-0.8-0.2-0.8-0.8
					c0-0.6,0.3-1.8,1.4-1.8c0.4,0,0.5,0.2,0.5,0.5c0,0.6-0.5,1-1.2,1.1c0,0.1,0,0.1,0,0.2C17.2,29.6,17.3,29.6,17.5,29.6z
					 M17.8,27.8c-0.3,0-0.5,0.5-0.6,1c0.4,0,0.7-0.4,0.7-0.8C17.9,27.8,17.9,27.8,17.8,27.8z"/>
				<path class="st2" d="M17.2,30.5c-0.8,0-1.2-0.5-1.2-1.2c0-0.9,0.6-2.2,1.8-2.2c0.6,0,1,0.4,1,0.9c0,0.3-0.1,0.5-0.2,0.7h0
					c0.2,0,0.3,0.1,0.4,0.2c0.1,0.1,0.1,0.3,0,0.5C18.5,30.1,17.9,30.5,17.2,30.5z"/>
			</g>
			<g>
				<path class="st8" d="M19.5,29.6c0.4,0,0.6-0.2,0.9-0.5h0.2c-0.3,0.5-0.7,0.9-1.4,0.9c-0.5,0-0.8-0.2-0.8-0.8
					c0-0.6,0.3-1.8,1.3-1.8c0.4,0,0.6,0.2,0.6,0.5c0,0.6-0.6,1-1.2,1.1c0,0.1,0,0.1,0,0.2C19.1,29.6,19.2,29.6,19.5,29.6z
					 M19.7,27.8c-0.3,0-0.5,0.5-0.6,1c0.4,0,0.7-0.4,0.7-0.8C19.9,27.8,19.8,27.8,19.7,27.8z"/>
				<path class="st2" d="M19.1,30.5c-0.8,0-1.2-0.5-1.2-1.2c0-0.9,0.6-2.2,1.8-2.2c0.6,0,1,0.4,1,0.9c0,0.3-0.1,0.5-0.2,0.7h0
					c0.2,0,0.3,0.1,0.4,0.2c0.1,0.1,0.1,0.3,0,0.5C20.4,30.1,19.8,30.5,19.1,30.5z"/>
			</g>
			<g>
				<path class="st8" d="M22.7,27.5l-1,0.7c0.1,0,0.1,0,0.2,0c0.4,0,0.5,0.3,0.5,0.6c0,0.1,0,0.1,0,0.2l-0.1,0.3c0,0,0,0.1,0,0.2
					c0,0.1,0,0.2,0.2,0.2c0.1,0,0.1,0,0.2,0c0,0.4-0.3,0.5-0.5,0.5c-0.4,0-0.6-0.2-0.6-0.6c0-0.1,0-0.2,0-0.3l0-0.2
					c0-0.1,0-0.1,0-0.2c0-0.1,0-0.2-0.2-0.2c-0.1,0-0.2,0.1-0.4,0.2L20.9,30h-0.7l0.7-3.4l0.7-0.1l-0.4,1.8l1-0.8H22.7z"/>
				<path class="st2" d="M22.2,30.5c-0.4,0-0.7-0.2-0.9-0.4l0,0c0,0.2-0.2,0.4-0.4,0.4h-0.7c-0.1,0-0.3-0.1-0.3-0.2
					c-0.1-0.1-0.1-0.2-0.1-0.4l0.7-3.4c0-0.2,0.2-0.3,0.4-0.3l0.7-0.1c0.1,0,0.3,0,0.4,0.1c0.1,0.1,0.1,0.3,0.1,0.4l-0.1,0.6
					c0.1-0.1,0.2-0.1,0.3-0.1h0.5c0.2,0,0.4,0.1,0.4,0.3c0.1,0.2,0,0.4-0.2,0.5l-0.3,0.2c0.1,0.2,0.2,0.4,0.2,0.7c0,0.1,0,0.2,0,0.3
					l0,0c0,0,0.1,0,0.1,0.1c0.1,0.1,0.2,0.2,0.2,0.4C23.1,30.2,22.6,30.5,22.2,30.5z"/>
			</g>
			<g>
				<path class="st9" d="M14.1,29.4l1-3.1h0.7v3.1l1.1-3.1h0.3L15.8,30h-0.7v-2.5l-1,2.5h-0.7v-3.4c-0.5,0.2-0.8,0.6-0.8,1.1
					c0,0.3,0.1,0.3,0.1,0.3c-0.3,0-0.5-0.1-0.5-0.5c0-0.7,0.9-1.3,1.8-1.3c0.1,0,0.1,0,0.2,0L14.1,29.4z"/>
			</g>
			<g>
				<path class="st9" d="M17.5,29.6c0.4,0,0.6-0.2,0.9-0.5h0.2c-0.3,0.5-0.7,0.9-1.4,0.9c-0.5,0-0.8-0.2-0.8-0.8
					c0-0.6,0.3-1.8,1.4-1.8c0.4,0,0.5,0.2,0.5,0.5c0,0.6-0.5,1-1.2,1.1c0,0.1,0,0.1,0,0.2C17.2,29.6,17.3,29.6,17.5,29.6z
					 M17.8,27.8c-0.3,0-0.5,0.5-0.6,1c0.4,0,0.7-0.4,0.7-0.8C17.9,27.8,17.9,27.8,17.8,27.8z"/>
			</g>
			<g>
				<path class="st9" d="M19.5,29.6c0.4,0,0.6-0.2,0.9-0.5h0.2c-0.3,0.5-0.7,0.9-1.4,0.9c-0.5,0-0.8-0.2-0.8-0.8
					c0-0.6,0.3-1.8,1.3-1.8c0.4,0,0.6,0.2,0.6,0.5c0,0.6-0.6,1-1.2,1.1c0,0.1,0,0.1,0,0.2C19.1,29.6,19.2,29.6,19.5,29.6z
					 M19.7,27.8c-0.3,0-0.5,0.5-0.6,1c0.4,0,0.7-0.4,0.7-0.8C19.9,27.8,19.8,27.8,19.7,27.8z"/>
			</g>
			<g>
				<path class="st9" d="M22.7,27.5l-1,0.7c0.1,0,0.1,0,0.2,0c0.4,0,0.5,0.3,0.5,0.6c0,0.1,0,0.1,0,0.2l-0.1,0.3c0,0,0,0.1,0,0.2
					c0,0.1,0,0.2,0.2,0.2c0.1,0,0.1,0,0.2,0c0,0.4-0.3,0.5-0.5,0.5c-0.4,0-0.6-0.2-0.6-0.6c0-0.1,0-0.2,0-0.3l0-0.2
					c0-0.1,0-0.1,0-0.2c0-0.1,0-0.2-0.2-0.2c-0.1,0-0.2,0.1-0.4,0.2L20.9,30h-0.7l0.7-3.4l0.7-0.1l-0.4,1.8l1-0.8H22.7z"/>
			</g>
			<g>
				<g>
					<rect x="24.5" y="15.8" class="st2" width="2.5" height="1.3"/>
				</g>
				<g>
					<g>
						<g>
							<path class="st2" d="M14.2,17.2c-0.7,0-1.2-0.4-1.2-1.1c0-0.5,0.3-0.8,0.6-1c-0.1-0.1-0.1-0.3-0.1-0.5c0-0.6,0.6-1.1,1.3-1.1
								c0.6,0,1.1,0.4,1.1,0.9c0,0.3-0.1,0.5-0.3,0.7c0.1,0.2,0.2,0.4,0.2,0.7C15.7,16.6,15.1,17.2,14.2,17.2z"/>
						</g>
						<g>
							<path class="st2" d="M15,14.8c-0.1,0-0.1,0-0.2-0.1c0.1-0.1,0.2-0.2,0.2-0.3c0-0.1-0.1-0.2-0.3-0.2s-0.3,0.1-0.3,0.3
								c0,0.5,0.8,0.6,0.8,1.4c0,0.6-0.5,0.9-1,0.9c-0.4,0-0.7-0.2-0.7-0.6c0-0.4,0.3-0.6,0.5-0.6c0.1,0,0.3,0,0.3,0.2
								c-0.2,0-0.4,0.1-0.4,0.3c0,0.2,0.1,0.3,0.3,0.3c0.2,0,0.4-0.2,0.4-0.5c0-0.6-0.7-0.8-0.7-1.3c0-0.4,0.4-0.6,0.8-0.6
								c0.2,0,0.6,0,0.6,0.4C15.3,14.6,15.2,14.8,15,14.8z"/>
						</g>
						<g>
							<path class="st2" d="M15.9,17.1c-0.6,0-1-0.4-1-1.1c0-0.7,0.4-1.7,1.4-1.7c0.5,0,0.9,0.3,0.9,0.8c0,0.1,0,0.3-0.1,0.4
								c0.1,0,0.1,0.1,0.2,0.2c0.1,0.2,0.1,0.3,0,0.5C16.9,16.9,16.5,17.1,15.9,17.1z"/>
						</g>
						<g>
							<path class="st2" d="M16.1,16.4c0.3,0,0.4-0.2,0.6-0.4h0.1c-0.2,0.3-0.5,0.7-1,0.7c-0.3,0-0.6-0.2-0.6-0.6
								c0-0.4,0.2-1.3,1-1.3c0.3,0,0.4,0.2,0.4,0.3c0,0.4-0.4,0.7-0.8,0.7c0,0,0,0.1,0,0.1C15.9,16.3,16,16.4,16.1,16.4z M16.4,15
								c-0.2,0-0.4,0.4-0.4,0.7c0.3,0,0.5-0.3,0.5-0.6C16.4,15.1,16.4,15,16.4,15z"/>
						</g>
						<g>
							<path class="st2" d="M18.9,17.1c-0.2,0-0.4-0.1-0.6-0.2c-0.1,0.1-0.2,0.1-0.3,0.1h-0.5c-0.1,0-0.1,0-0.2,0
								c-0.1,0-0.1,0-0.2,0h-0.5c-0.1,0-0.3-0.1-0.4-0.2c-0.1-0.1-0.1-0.3-0.1-0.4l0.4-1.8c0-0.2,0.2-0.4,0.5-0.4h0.5
								c0,0,0.1,0,0.1,0c0.1,0,0.2,0,0.3,0c0.2,0,0.3,0,0.4,0.1c0.1-0.1,0.3-0.1,0.4-0.1c0.5,0,0.9,0.4,0.9,0.9c0,0.1,0,0.2,0,0.3
								c0.1,0,0.3,0.1,0.3,0.2c0.1,0.1,0.1,0.3,0.1,0.4C19.8,17,19.3,17.1,18.9,17.1z"/>
						</g>
						<g>
							<path class="st2" d="M18.5,15.2c-0.1,0-0.2,0.1-0.3,0.3L18,16.6h-0.5l0.3-1.2c0,0,0-0.1,0-0.1c0-0.1,0-0.2-0.1-0.2
								c-0.1,0-0.2,0.2-0.3,0.3l-0.2,1.1h-0.5l0.4-1.8h0.5l0,0.2c0.1-0.2,0.3-0.2,0.4-0.2c0.2,0,0.3,0.1,0.4,0.3
								c0.2-0.3,0.4-0.3,0.5-0.3c0.2,0,0.4,0.1,0.4,0.4c0,0.3-0.2,0.7-0.2,0.9c0,0.1,0,0.1,0.1,0.1c0.2,0,0.2-0.1,0.3-0.3h0.1
								c-0.2,0.6-0.5,0.7-0.7,0.7c-0.3,0-0.4-0.2-0.4-0.4c0-0.2,0.2-0.7,0.2-0.9C18.7,15.2,18.6,15.2,18.5,15.2z"/>
						</g>
						<g>
							<path class="st2" d="M20.7,17.1c-0.2,0-0.3,0-0.4-0.1c-0.2,0.1-0.3,0.1-0.5,0.1c-0.5,0-1-0.3-1-1.1c0-0.7,0.4-1.7,1.4-1.7
								c0.1,0,0.2,0,0.2,0c0,0,0.1,0,0.1,0h0.5c0.1,0,0.3,0.1,0.4,0.2c0.1,0.1,0.1,0.3,0.1,0.4l-0.1,0.5c0.1,0,0.3,0.1,0.3,0.2
								c0.1,0.1,0.1,0.3,0.1,0.4C21.6,17,21,17.1,20.7,17.1z"/>
						</g>
						<g>
							<path class="st2" d="M21.1,14.9l-0.3,1.2c0,0,0,0.1,0,0.1c0,0.1,0,0.2,0.1,0.2c0.1,0,0.2-0.2,0.3-0.3h0.1
								c-0.2,0.6-0.5,0.7-0.7,0.7c-0.2,0-0.3-0.1-0.3-0.3c-0.1,0.2-0.3,0.3-0.5,0.3c-0.2,0-0.5-0.1-0.5-0.6c0-0.5,0.3-1.2,0.9-1.2
								c0.2,0,0.3,0.1,0.3,0.2v0l0-0.2H21.1z M19.9,16c0,0.3,0.1,0.3,0.2,0.3c0.1,0,0.3-0.1,0.3-0.3l0.2-0.8c0,0,0-0.1-0.1-0.1
								C20.1,15.1,19.9,15.7,19.9,16z"/>
						</g>
						<g>
							<path class="st2" d="M21.6,17.1c-0.5,0-0.9-0.4-0.9-0.9c0-0.1,0-0.2,0-0.3l0.2-1.1c0-0.1,0-0.1,0.1-0.2c0-0.1,0-0.1,0-0.2
								c0-0.4,0.3-0.8,0.8-0.8c0.4,0,0.8,0.3,0.8,0.8c0,0.2,0,0.3-0.1,0.4c0,0,0,0.1,0,0.2l-0.1,0.5c0.2,0,0.3,0.1,0.4,0.2
								c0.1,0.1,0.1,0.3,0.1,0.4C22.5,17.1,21.9,17.1,21.6,17.1z"/>
						</g>
						<g>
							<path class="st2" d="M22,14.9l-0.3,1.2c0,0,0,0.1,0,0.1c0,0.1,0,0.1,0.1,0.1c0.1,0,0.3-0.1,0.3-0.3h0.1
								c-0.2,0.6-0.6,0.7-0.7,0.7c-0.2,0-0.4-0.1-0.4-0.4c0-0.1,0-0.1,0-0.2l0.2-1.1H22z M21.9,14.1c0.2,0,0.3,0.1,0.3,0.3
								s-0.1,0.3-0.3,0.3c-0.2,0-0.3-0.1-0.3-0.3S21.7,14.1,21.9,14.1z"/>
						</g>
						<g>
							<path class="st2" d="M23.5,17.1c-0.2,0-0.4-0.1-0.6-0.2c-0.1,0.1-0.2,0.1-0.3,0.1h-0.5c-0.1,0-0.3-0.1-0.4-0.2
								c-0.1-0.1-0.1-0.3-0.1-0.4l0.4-1.8c0-0.2,0.2-0.4,0.5-0.4H23c0,0,0.1,0,0.1,0c0.1,0,0.2,0,0.2,0c0.5,0,0.9,0.4,0.9,0.9
								c0,0.1,0,0.2,0,0.3c0.1,0,0.3,0.1,0.3,0.2c0.1,0.1,0.1,0.3,0.1,0.4C24.3,17,23.9,17.1,23.5,17.1z"/>
						</g>
						<g>
							<path class="st2" d="M23.1,15.2c-0.1,0-0.2,0.1-0.3,0.3l-0.2,1.1h-0.5l0.4-1.8H23l0,0.2c0.1-0.2,0.3-0.2,0.4-0.2
								c0.2,0,0.4,0.1,0.4,0.4c0,0.3-0.2,0.7-0.2,0.9c0,0.1,0,0.1,0.1,0.1c0.2,0,0.2-0.1,0.3-0.3h0.1c-0.2,0.6-0.5,0.7-0.7,0.7
								c-0.3,0-0.4-0.2-0.4-0.4c0-0.2,0.2-0.7,0.2-0.9C23.2,15.2,23.2,15.2,23.1,15.2z"/>
						</g>
						<g>
							<path class="st2" d="M24.5,17.1c-0.6,0-1-0.4-1-1.1c0-0.7,0.4-1.7,1.4-1.7c0.5,0,0.9,0.3,0.9,0.8c0,0.3-0.1,0.5-0.2,0.7
								c0.1,0.1,0.1,0.2,0.1,0.3C25.5,16.8,25.1,17.1,24.5,17.1z"/>
						</g>
						<g>
							<path class="st2" d="M24.7,16.3c0.1,0,0.3-0.1,0.4-0.2c-0.1,0.4-0.3,0.5-0.6,0.5c-0.3,0-0.5-0.2-0.5-0.6c0-0.4,0.2-1.3,1-1.3
								c0.3,0,0.4,0.2,0.4,0.3c0,0.4-0.4,0.7-0.8,0.7c0,0,0,0.1,0,0.1C24.5,16.3,24.6,16.3,24.7,16.3z M24.9,15
								c-0.2,0-0.4,0.4-0.4,0.7c0.3,0,0.5-0.3,0.5-0.6C25,15.1,25,15,24.9,15z"/>
						</g>
						<g>
							<path class="st2" d="M26.5,17.1c-0.5,0-1-0.3-1-1.1c0-0.7,0.4-1.7,1.3-1.7l0-0.2c0-0.2,0.2-0.4,0.4-0.4l0.5-0.1
								c0,0,0,0,0.1,0c0.1,0,0.3,0.1,0.4,0.2c0.1,0.1,0.2,0.3,0.1,0.4l-0.3,1.2c0.1,0,0.3,0.1,0.3,0.2c0.1,0.1,0.1,0.3,0.1,0.4
								c-0.3,0.8-0.8,1-1.2,1c-0.1,0-0.3,0-0.4-0.1C26.8,17.1,26.6,17.1,26.5,17.1z"/>
						</g>
						<g>
							<path class="st2" d="M27.9,14.2l-0.4,1.9c0,0,0,0.1,0,0.1c0,0.1,0,0.1,0.1,0.1c0.1,0,0.2-0.1,0.3-0.3h0.1
								c-0.2,0.6-0.5,0.6-0.7,0.6c-0.2,0-0.3-0.1-0.3-0.3c-0.1,0.2-0.3,0.3-0.5,0.3c-0.2,0-0.5-0.1-0.5-0.6c0-0.5,0.3-1.2,0.9-1.2
								c0.2,0,0.3,0.1,0.3,0.2v0l0.2-0.8L27.9,14.2z M27,16l0.2-0.8c0,0,0-0.1-0.1-0.1c-0.3,0-0.5,0.6-0.5,1c0,0.3,0.1,0.3,0.2,0.3
								C26.8,16.3,27,16.2,27,16L27,16z"/>
						</g>
						<g>
							<path class="st2" d="M29.1,17.1c-0.2,0-0.3,0-0.4-0.1c-0.1,0.1-0.3,0.1-0.5,0.1c-0.5,0-0.9-0.4-0.9-0.9c0-0.1,0-0.2,0-0.3
								l0.2-1.1c0-0.2,0.2-0.4,0.5-0.4h0.5c0.1,0,0.1,0,0.2,0c0.1,0,0.1,0,0.2,0h0.5c0.1,0,0.3,0.1,0.4,0.2C30,14.7,30,14.8,30,15
								l-0.2,0.9c0,0,0,0,0,0C30,16,30,16.2,30,16.3C30,16.8,29.6,17.1,29.1,17.1z"/>
						</g>
						<g>
							<path class="st2" d="M28.7,14.9l-0.3,1.2c0,0,0,0.1,0,0.1c0,0.1,0,0.2,0.1,0.2c0.1,0,0.2-0.1,0.3-0.3l0.2-1.1h0.5l-0.3,1.2
								c0,0,0,0.1,0,0.1c0,0.1,0,0.1,0.1,0.1c0.1,0,0.1,0,0.1,0c0,0.3-0.2,0.4-0.4,0.4c-0.2,0-0.3-0.1-0.3-0.3
								c-0.2,0.3-0.4,0.3-0.5,0.3c-0.2,0-0.4-0.1-0.4-0.4c0-0.1,0-0.1,0-0.2l0.2-1.1H28.7z"/>
						</g>
					</g>
				</g>
				<g>
					<g>
						<path class="st9" d="M15,14.8c-0.1,0-0.1,0-0.2-0.1c0.1-0.1,0.2-0.2,0.2-0.3c0-0.1-0.1-0.2-0.3-0.2c-0.2,0-0.3,0.1-0.3,0.3
							c0,0.5,0.8,0.6,0.8,1.4c0,0.6-0.5,0.9-1,0.9c-0.4,0-0.7-0.2-0.7-0.6c0-0.4,0.3-0.6,0.5-0.6c0.1,0,0.3,0,0.3,0.2
							c-0.2,0-0.4,0.1-0.4,0.3c0,0.2,0.1,0.3,0.3,0.3c0.2,0,0.4-0.2,0.4-0.5c0-0.6-0.7-0.8-0.7-1.3c0-0.4,0.4-0.6,0.8-0.6
							c0.2,0,0.6,0,0.6,0.4C15.3,14.6,15.2,14.8,15,14.8z"/>
					</g>
					<g>
						<path class="st9" d="M16.1,16.4c0.3,0,0.4-0.2,0.6-0.4h0.1c-0.2,0.3-0.5,0.7-1,0.7c-0.3,0-0.6-0.2-0.6-0.6
							c0-0.4,0.2-1.3,1-1.3c0.3,0,0.4,0.2,0.4,0.3c0,0.4-0.4,0.7-0.8,0.7c0,0,0,0.1,0,0.1C15.9,16.3,16,16.4,16.1,16.4z M16.4,15
							c-0.2,0-0.4,0.4-0.4,0.7c0.3,0,0.5-0.3,0.5-0.6C16.4,15.1,16.4,15,16.4,15z"/>
					</g>
					<g>
						<path class="st9" d="M18.5,15.2c-0.1,0-0.2,0.1-0.3,0.3L18,16.6h-0.5l0.3-1.2c0,0,0-0.1,0-0.1c0-0.1,0-0.2-0.1-0.2
							c-0.1,0-0.2,0.2-0.3,0.3l-0.2,1.1h-0.5l0.4-1.8h0.5l0,0.2c0.1-0.2,0.3-0.2,0.4-0.2c0.2,0,0.3,0.1,0.4,0.3
							c0.2-0.3,0.4-0.3,0.5-0.3c0.2,0,0.4,0.1,0.4,0.4c0,0.3-0.2,0.7-0.2,0.9c0,0.1,0,0.1,0.1,0.1c0.2,0,0.2-0.1,0.3-0.3h0.1
							c-0.2,0.6-0.5,0.7-0.7,0.7c-0.3,0-0.4-0.2-0.4-0.4c0-0.2,0.2-0.7,0.2-0.9C18.7,15.2,18.6,15.2,18.5,15.2z"/>
					</g>
					<g>
						<path class="st9" d="M21.1,14.9l-0.3,1.2c0,0,0,0.1,0,0.1c0,0.1,0,0.2,0.1,0.2c0.1,0,0.2-0.2,0.3-0.3h0.1
							c-0.2,0.6-0.5,0.7-0.7,0.7c-0.2,0-0.3-0.1-0.3-0.3c-0.1,0.2-0.3,0.3-0.5,0.3c-0.2,0-0.5-0.1-0.5-0.6c0-0.5,0.3-1.2,0.9-1.2
							c0.2,0,0.3,0.1,0.3,0.2v0l0-0.2H21.1z M19.9,16c0,0.3,0.1,0.3,0.2,0.3c0.1,0,0.3-0.1,0.3-0.3l0.2-0.8c0,0,0-0.1-0.1-0.1
							C20.1,15.1,19.9,15.7,19.9,16z"/>
					</g>
					<g>
						<path class="st9" d="M22,14.9l-0.3,1.2c0,0,0,0.1,0,0.1c0,0.1,0,0.1,0.1,0.1c0.1,0,0.3-0.1,0.3-0.3h0.1
							c-0.2,0.6-0.6,0.7-0.7,0.7c-0.2,0-0.4-0.1-0.4-0.4c0-0.1,0-0.1,0-0.2l0.2-1.1H22z M21.9,14.1c0.2,0,0.3,0.1,0.3,0.3
							s-0.1,0.3-0.3,0.3c-0.2,0-0.3-0.1-0.3-0.3S21.7,14.1,21.9,14.1z"/>
					</g>
					<g>
						<path class="st9" d="M23.1,15.2c-0.1,0-0.2,0.1-0.3,0.3l-0.2,1.1h-0.5l0.4-1.8H23l0,0.2c0.1-0.2,0.3-0.2,0.4-0.2
							c0.2,0,0.4,0.1,0.4,0.4c0,0.3-0.2,0.7-0.2,0.9c0,0.1,0,0.1,0.1,0.1c0.2,0,0.2-0.1,0.3-0.3h0.1c-0.2,0.6-0.5,0.7-0.7,0.7
							c-0.3,0-0.4-0.2-0.4-0.4c0-0.2,0.2-0.7,0.2-0.9C23.2,15.2,23.2,15.2,23.1,15.2z"/>
					</g>
					<g>
						<path class="st9" d="M24.7,16.3c0.1,0,0.3-0.1,0.4-0.2c-0.1,0.4-0.3,0.5-0.6,0.5c-0.3,0-0.5-0.2-0.5-0.6c0-0.4,0.2-1.3,1-1.3
							c0.3,0,0.4,0.2,0.4,0.3c0,0.4-0.4,0.7-0.8,0.7c0,0,0,0.1,0,0.1C24.5,16.3,24.6,16.3,24.7,16.3z M24.9,15
							c-0.2,0-0.4,0.4-0.4,0.7c0.3,0,0.5-0.3,0.5-0.6C25,15.1,25,15,24.9,15z"/>
					</g>
					<g>
						<path class="st9" d="M27.9,14.2l-0.4,1.9c0,0,0,0.1,0,0.1c0,0.1,0,0.1,0.1,0.1c0.1,0,0.2-0.1,0.3-0.3h0.1
							c-0.2,0.6-0.5,0.6-0.7,0.6S27,16.5,27,16.3c-0.1,0.2-0.3,0.3-0.5,0.3c-0.2,0-0.5-0.1-0.5-0.6c0-0.5,0.3-1.2,0.9-1.2
							c0.2,0,0.3,0.1,0.3,0.2v0l0.2-0.8L27.9,14.2z M27,16l0.2-0.8c0,0,0-0.1-0.1-0.1c-0.3,0-0.5,0.6-0.5,1c0,0.3,0.1,0.3,0.2,0.3
							C26.8,16.3,27,16.2,27,16L27,16z"/>
					</g>
					<g>
						<path class="st9" d="M28.7,14.9l-0.3,1.2c0,0,0,0.1,0,0.1c0,0.1,0,0.2,0.1,0.2c0.1,0,0.2-0.1,0.3-0.3l0.2-1.1h0.5l-0.3,1.2
							c0,0,0,0.1,0,0.1c0,0.1,0,0.1,0.1,0.1c0.1,0,0.1,0,0.1,0c0,0.3-0.2,0.4-0.4,0.4c-0.2,0-0.3-0.1-0.3-0.3
							c-0.2,0.3-0.4,0.3-0.5,0.3c-0.2,0-0.4-0.1-0.4-0.4c0-0.1,0-0.1,0-0.2l0.2-1.1H28.7z"/>
					</g>
				</g>
			</g>
		</g>
	</g>
	<g>
		<path class="st10" d="M13.5,35.8c-0.1,0-0.1,0-0.2-0.1c0,0-0.1-0.1-0.1-0.2h0c0,0.1-0.1,0.1-0.1,0.2c-0.1,0-0.2,0.1-0.2,0.1
			c-0.1,0-0.2,0-0.3-0.1c-0.1-0.1-0.1-0.2-0.1-0.3c0-0.1,0-0.2,0.1-0.3c0.1-0.1,0.2-0.1,0.4-0.1h0.2V35c0-0.1,0-0.1-0.1-0.2
			c0,0-0.1-0.1-0.2-0.1c-0.1,0-0.1,0-0.2,0c0,0-0.1,0.1-0.1,0.1l-0.2-0.2c0-0.1,0.1-0.1,0.2-0.2c0.1,0,0.2-0.1,0.4-0.1
			c0.2,0,0.3,0,0.4,0.1c0.1,0.1,0.1,0.2,0.1,0.4v0.6h0.1v0.3H13.5z M13,35.6c0.1,0,0.1,0,0.2,0c0,0,0.1-0.1,0.1-0.1v-0.2H13
			c-0.1,0-0.2,0.1-0.2,0.2v0c0,0,0,0.1,0.1,0.1C12.9,35.6,12.9,35.6,13,35.6z"/>
		<path class="st10" d="M14.3,35.8l-0.5-1.3h0.4l0.2,0.5l0.1,0.4h0l0.1-0.4l0.2-0.5h0.4l-0.5,1.3H14.3z"/>
		<path class="st10" d="M16.1,35.9c-0.2,0-0.4-0.1-0.5-0.2c-0.1-0.1-0.2-0.3-0.2-0.5c0-0.1,0-0.2,0-0.3c0-0.1,0.1-0.2,0.1-0.2
			c0.1-0.1,0.1-0.1,0.2-0.1c0.1,0,0.2,0,0.3,0c0.1,0,0.2,0,0.3,0c0.1,0,0.1,0.1,0.2,0.1c0.1,0.1,0.1,0.1,0.1,0.2c0,0.1,0,0.2,0,0.3
			v0.1h-0.9v0c0,0.1,0,0.1,0.1,0.2c0.1,0.1,0.1,0.1,0.2,0.1c0.1,0,0.1,0,0.2,0c0.1,0,0.1-0.1,0.1-0.1l0.2,0.2c0,0.1-0.1,0.1-0.2,0.2
			C16.3,35.9,16.2,35.9,16.1,35.9z M16,34.8c-0.1,0-0.1,0-0.2,0.1c0,0-0.1,0.1-0.1,0.2v0h0.5v0c0-0.1,0-0.1-0.1-0.2
			C16.2,34.8,16.1,34.8,16,34.8z"/>
		<path class="st10" d="M17.5,35.9c-0.1,0-0.2,0-0.3,0c-0.1,0-0.1-0.1-0.2-0.1c-0.1-0.1-0.1-0.1-0.1-0.2c0-0.1,0-0.2,0-0.3
			c0-0.1,0-0.2,0-0.3c0-0.1,0.1-0.2,0.1-0.2c0.1-0.1,0.1-0.1,0.2-0.1c0.1,0,0.2,0,0.3,0c0.1,0,0.3,0,0.3,0.1s0.1,0.1,0.2,0.2
			L17.8,35c0,0-0.1-0.1-0.1-0.1c0,0-0.1,0-0.2,0c-0.1,0-0.1,0-0.2,0.1s-0.1,0.1-0.1,0.2v0.2c0,0.1,0,0.1,0.1,0.2
			c0,0,0.1,0.1,0.2,0.1c0.1,0,0.1,0,0.2,0c0,0,0.1-0.1,0.1-0.1l0.3,0.2c0,0.1-0.1,0.2-0.2,0.2C17.8,35.8,17.7,35.9,17.5,35.9z"/>
	</g>
	<g>
		<g>
			<path class="st6" d="M36.7,30.7c0.1-0.2,0.1-0.4,0-0.5c-0.2-0.1-0.4-0.1-0.5,0c-0.1,0.2-2.8,3.7-2.8,3.7S36.6,30.9,36.7,30.7z"/>
		</g>
		<g>
			<circle class="st6" cx="38.1" cy="34.2" r="0.4"/>
		</g>
		<g>
			<circle class="st6" cx="17.3" cy="33.6" r="0.3"/>
		</g>
		<g>
			<path class="st6" d="M17.1,31.6c0.2,0.2,1.1,0.4,1.1,0.4s-0.2-0.9-0.4-1.1c-0.2-0.2-0.5-0.2-0.7,0C16.9,31.1,16.9,31.4,17.1,31.6
				z"/>
		</g>
		<g>
			<path class="st6" d="M26.6,30.6c0,0.2,0.6,0.9,0.6,0.9s0.3-0.8,0.3-1.1s-0.3-0.4-0.5-0.4S26.5,30.4,26.6,30.6z"/>
		</g>
		<g>
			<path class="st6" d="M30.1,29.1c0.1-0.2-0.1-0.4-0.3-0.5c-0.2-0.1-0.4,0.1-0.5,0.3c-0.1,0.2-1,4.5-1,4.5S30.1,29.3,30.1,29.1z"/>
		</g>
		<g>
			<path class="st6" d="M32.9,30.2c0.1-0.2,0-0.3-0.1-0.4c-0.2-0.1-0.3,0-0.4,0.1c-0.1,0.2-1.4,3.5-1.4,3.5S32.8,30.3,32.9,30.2z"/>
		</g>
		<g>
			<path class="st6" d="M38.9,31.9c0.1-0.1,0.2-0.2,0.1-0.4s-0.2-0.2-0.4-0.1c-0.1,0.1-2.6,1.8-2.6,1.8S38.8,32,38.9,31.9z"/>
		</g>
		<g>
			<path class="st6" d="M24.8,29.5c-0.1-0.2-0.2-0.3-0.4-0.2c-0.2,0.1-0.3,0.2-0.2,0.4c0.1,0.2,1.5,3.5,1.5,3.5S24.9,29.7,24.8,29.5
				z"/>
		</g>
		<g>
			<path class="st6" d="M21.7,30.7c-0.1-0.1-0.3-0.2-0.4-0.1c-0.1,0.1-0.2,0.3-0.1,0.4c0.1,0.1,2.3,3,2.3,3S21.8,30.9,21.7,30.7z"/>
		</g>
	</g>
	<g>
		<g>
			<path class="st9" d="M20.8,33.7l-0.1,0.4h-0.8l-0.5,2.1h-0.8l0.8-3.7c-0.4,0-0.7,0.3-0.7,1.2c0,0.3,0.1,0.3,0.1,0.4
				c-0.4,0-0.6-0.1-0.6-0.5c0-0.7,0.5-1.5,1.9-1.5c0.2,0,0.6,0.1,0.9,0.1c0.2,0,0.3,0,0.5-0.1c-0.1,0.2-0.1,0.6-0.5,0.7
				c-0.3,0-0.5-0.1-0.8-0.1L20,33.7H20.8z"/>
			<path class="st9" d="M21.9,33.4l-0.1,0.3c0.2-0.2,0.4-0.3,0.7-0.3c0.3,0,0.4,0.2,0.4,0.4c0,0.2-0.1,0.4-0.4,0.4
				c-0.3,0-0.2-0.4-0.3-0.4s-0.3,0.1-0.4,0.2l-0.4,2.1h-0.8l0.6-2.8H21.9z"/>
			<path class="st9" d="M25,34.3C25,34.3,25,34.3,25,34.3c0.3,0,0.7-0.2,0.9-0.3l0.1,0.2c-0.2,0.2-0.6,0.4-1,0.5
				c-0.1,1-0.6,1.7-1.3,1.7c-0.5,0-0.9-0.2-0.9-0.9c0-0.6,0.4-2,1.5-2C24.8,33.4,25,33.7,25,34.3z M24.5,34.6
				c-0.1,0-0.2-0.1-0.2-0.2c0-0.2,0.1-0.3,0.2-0.3c0-0.2-0.1-0.3-0.2-0.3c-0.4,0-0.7,1-0.7,1.6c0,0.4,0.1,0.5,0.3,0.5
				C24.1,35.7,24.4,35.2,24.5,34.6z"/>
			<path class="st9" d="M28.1,33.9c-0.2,0-0.4,0.2-0.4,0.5l-0.4,1.8h-0.8l0.4-1.9c0,0,0-0.1,0-0.1c0-0.1,0-0.2-0.2-0.2
				c-0.2,0-0.4,0.2-0.5,0.5l-0.4,1.8h-0.8l0.6-2.8h0.8l-0.1,0.3c0.2-0.3,0.5-0.3,0.7-0.3c0.3,0,0.5,0.1,0.6,0.5
				c0.3-0.4,0.6-0.5,0.8-0.5c0.4,0,0.6,0.2,0.6,0.6c0,0.5-0.3,1.1-0.3,1.4c0,0.1,0.1,0.2,0.2,0.2c0.2,0,0.3-0.2,0.5-0.5h0.2
				c-0.3,0.9-0.7,1-1,1c-0.5,0-0.7-0.3-0.7-0.6c0-0.4,0.3-1.1,0.3-1.4C28.3,34,28.2,33.9,28.1,33.9z"/>
			<path class="st9" d="M32.2,33.4l-0.4,1.9c0,0.1,0,0.1,0,0.2c0,0.2,0.1,0.2,0.2,0.2c0.2,0,0.4-0.2,0.5-0.5h0.2
				c-0.3,0.9-0.8,1-1.1,1c-0.3,0-0.5-0.2-0.5-0.5c-0.2,0.3-0.4,0.5-0.8,0.5c-0.4,0-0.7-0.2-0.7-0.9c0-0.8,0.5-2,1.4-2
				c0.3,0,0.5,0.1,0.5,0.3v0l0.1-0.3H32.2z M30.2,35.3c0,0.4,0.2,0.4,0.3,0.4c0.2,0,0.4-0.2,0.5-0.5l0.3-1.3c0-0.1-0.1-0.2-0.2-0.2
				C30.5,33.7,30.2,34.7,30.2,35.3z"/>
			<path class="st9" d="M35.1,33.4L34.6,36c0.3-0.1,0.5-0.3,0.7-0.8h0.2c-0.2,0.7-0.6,1-1,1l-0.1,0.4c-0.2,0.8-0.6,1-1,1
				c-0.3,0-0.6-0.2-0.6-0.5c0-0.5,0.5-0.7,0.9-0.8l0.1-0.3c-0.2,0.2-0.4,0.3-0.7,0.3c-0.4,0-0.7-0.2-0.7-0.9c0-0.8,0.5-2,1.4-2
				c0.3,0,0.5,0.1,0.5,0.3v0l0.1-0.3H35.1z M33.3,37.2c0.1,0,0.3-0.2,0.3-0.5l0-0.2c-0.3,0.1-0.5,0.3-0.5,0.5
				C33.1,37.1,33.2,37.2,33.3,37.2z M33.2,35.3c0,0.4,0.2,0.4,0.3,0.4c0.2,0,0.4-0.2,0.4-0.4l0.3-1.3c0-0.1-0.1-0.2-0.2-0.2
				C33.5,33.7,33.2,34.7,33.2,35.3z"/>
			<path class="st9" d="M36.4,35.7c0.2,0,0.5-0.1,0.7-0.3c-0.1,0.6-0.5,0.8-1,0.8c-0.5,0-0.9-0.3-0.9-0.9c0-0.6,0.4-2,1.5-2
				c0.5,0,0.6,0.3,0.6,0.5c0,0.6-0.6,1.1-1.3,1.2c0,0.1,0,0.1,0,0.2C36,35.6,36.2,35.7,36.4,35.7z M36.7,33.7
				c-0.3,0-0.6,0.6-0.7,1.2c0.4,0,0.8-0.5,0.8-0.9C36.9,33.8,36.8,33.7,36.7,33.7z"/>
		</g>
		<g>
			<path class="st11" d="M20.8,33.7l-0.1,0.4h-0.8l-0.5,2.1h-0.8l0.8-3.7c-0.4,0-0.7,0.3-0.7,1.2c0,0.3,0.1,0.3,0.1,0.4
				c-0.4,0-0.6-0.1-0.6-0.5c0-0.7,0.5-1.5,1.9-1.5c0.2,0,0.6,0.1,0.9,0.1c0.2,0,0.3,0,0.5-0.1c-0.1,0.2-0.1,0.6-0.5,0.7
				c-0.3,0-0.5-0.1-0.8-0.1L20,33.7H20.8z"/>
			<path class="st11" d="M21.9,33.4l-0.1,0.3c0.2-0.2,0.4-0.3,0.7-0.3c0.3,0,0.4,0.2,0.4,0.4c0,0.2-0.1,0.4-0.4,0.4
				c-0.3,0-0.2-0.4-0.3-0.4s-0.3,0.1-0.4,0.2l-0.4,2.1h-0.8l0.6-2.8H21.9z"/>
			<path class="st11" d="M25,34.3C25,34.3,25,34.3,25,34.3c0.3,0,0.7-0.2,0.9-0.3l0.1,0.2c-0.2,0.2-0.6,0.4-1,0.5
				c-0.1,1-0.6,1.7-1.3,1.7c-0.5,0-0.9-0.2-0.9-0.9c0-0.6,0.4-2,1.5-2C24.8,33.4,25,33.7,25,34.3z M24.5,34.6
				c-0.1,0-0.2-0.1-0.2-0.2c0-0.2,0.1-0.3,0.2-0.3c0-0.2-0.1-0.3-0.2-0.3c-0.4,0-0.7,1-0.7,1.6c0,0.4,0.1,0.5,0.3,0.5
				C24.1,35.7,24.4,35.2,24.5,34.6z"/>
			<path class="st11" d="M28.1,33.9c-0.2,0-0.4,0.2-0.4,0.5l-0.4,1.8h-0.8l0.4-1.9c0,0,0-0.1,0-0.1c0-0.1,0-0.2-0.2-0.2
				c-0.2,0-0.4,0.2-0.5,0.5l-0.4,1.8h-0.8l0.6-2.8h0.8l-0.1,0.3c0.2-0.3,0.5-0.3,0.7-0.3c0.3,0,0.5,0.1,0.6,0.5
				c0.3-0.4,0.6-0.5,0.8-0.5c0.4,0,0.6,0.2,0.6,0.6c0,0.5-0.3,1.1-0.3,1.4c0,0.1,0.1,0.2,0.2,0.2c0.2,0,0.3-0.2,0.5-0.5h0.2
				c-0.3,0.9-0.7,1-1,1c-0.5,0-0.7-0.3-0.7-0.6c0-0.4,0.3-1.1,0.3-1.4C28.3,34,28.2,33.9,28.1,33.9z"/>
			<path class="st11" d="M32.2,33.4l-0.4,1.9c0,0.1,0,0.1,0,0.2c0,0.2,0.1,0.2,0.2,0.2c0.2,0,0.4-0.2,0.5-0.5h0.2
				c-0.3,0.9-0.8,1-1.1,1c-0.3,0-0.5-0.2-0.5-0.5c-0.2,0.3-0.4,0.5-0.8,0.5c-0.4,0-0.7-0.2-0.7-0.9c0-0.8,0.5-2,1.4-2
				c0.3,0,0.5,0.1,0.5,0.3v0l0.1-0.3H32.2z M30.2,35.3c0,0.4,0.2,0.4,0.3,0.4c0.2,0,0.4-0.2,0.5-0.5l0.3-1.3c0-0.1-0.1-0.2-0.2-0.2
				C30.5,33.7,30.2,34.7,30.2,35.3z"/>
			<path class="st11" d="M35.1,33.4L34.6,36c0.3-0.1,0.5-0.3,0.7-0.8h0.2c-0.2,0.7-0.6,1-1,1l-0.1,0.4c-0.2,0.8-0.6,1-1,1
				c-0.3,0-0.6-0.2-0.6-0.5c0-0.5,0.5-0.7,0.9-0.8l0.1-0.3c-0.2,0.2-0.4,0.3-0.7,0.3c-0.4,0-0.7-0.2-0.7-0.9c0-0.8,0.5-2,1.4-2
				c0.3,0,0.5,0.1,0.5,0.3v0l0.1-0.3H35.1z M33.3,37.2c0.1,0,0.3-0.2,0.3-0.5l0-0.2c-0.3,0.1-0.5,0.3-0.5,0.5
				C33.1,37.1,33.2,37.2,33.3,37.2z M33.2,35.3c0,0.4,0.2,0.4,0.3,0.4c0.2,0,0.4-0.2,0.4-0.4l0.3-1.3c0-0.1-0.1-0.2-0.2-0.2
				C33.5,33.7,33.2,34.7,33.2,35.3z"/>
			<path class="st11" d="M36.4,35.7c0.2,0,0.5-0.1,0.7-0.3c-0.1,0.6-0.5,0.8-1,0.8c-0.5,0-0.9-0.3-0.9-0.9c0-0.6,0.4-2,1.5-2
				c0.5,0,0.6,0.3,0.6,0.5c0,0.6-0.6,1.1-1.3,1.2c0,0.1,0,0.1,0,0.2C36,35.6,36.2,35.7,36.4,35.7z M36.7,33.7
				c-0.3,0-0.6,0.6-0.7,1.2c0.4,0,0.8-0.5,0.8-0.9C36.9,33.8,36.8,33.7,36.7,33.7z"/>
		</g>
		<g>
			<g>
				<path class="st6" d="M20.8,33.7l-0.1,0.4h-0.8l-0.5,2.1h-0.8l0.8-3.7c-0.4,0-0.7,0.3-0.7,1.2c0,0.3,0.1,0.3,0.1,0.4
					c-0.4,0-0.6-0.1-0.6-0.5c0-0.7,0.5-1.5,1.9-1.5c0.2,0,0.6,0.1,0.9,0.1c0.2,0,0.3,0,0.5-0.1c-0.1,0.2-0.1,0.6-0.5,0.7
					c-0.3,0-0.5-0.1-0.8-0.1L20,33.7H20.8z"/>
				<path class="st6" d="M21.9,33.4l-0.1,0.3c0.2-0.2,0.4-0.3,0.7-0.3c0.3,0,0.4,0.2,0.4,0.4c0,0.2-0.1,0.4-0.4,0.4
					c-0.3,0-0.2-0.4-0.3-0.4s-0.3,0.1-0.4,0.2l-0.4,2.1h-0.8l0.6-2.8H21.9z"/>
				<path class="st6" d="M25,34.3C25,34.3,25,34.3,25,34.3c0.3,0,0.7-0.2,0.9-0.3l0.1,0.2c-0.2,0.2-0.6,0.4-1,0.5
					c-0.1,1-0.6,1.7-1.3,1.7c-0.5,0-0.9-0.2-0.9-0.9c0-0.6,0.4-2,1.5-2C24.8,33.4,25,33.7,25,34.3z M24.5,34.6
					c-0.1,0-0.2-0.1-0.2-0.2c0-0.2,0.1-0.3,0.2-0.3c0-0.2-0.1-0.3-0.2-0.3c-0.4,0-0.7,1-0.7,1.6c0,0.4,0.1,0.5,0.3,0.5
					C24.1,35.7,24.4,35.2,24.5,34.6z"/>
				<path class="st6" d="M28.1,33.9c-0.2,0-0.4,0.2-0.4,0.5l-0.4,1.8h-0.8l0.4-1.9c0,0,0-0.1,0-0.1c0-0.1,0-0.2-0.2-0.2
					c-0.2,0-0.4,0.2-0.5,0.5l-0.4,1.8h-0.8l0.6-2.8h0.8l-0.1,0.3c0.2-0.3,0.5-0.3,0.7-0.3c0.3,0,0.5,0.1,0.6,0.5
					c0.3-0.4,0.6-0.5,0.8-0.5c0.4,0,0.6,0.2,0.6,0.6c0,0.5-0.3,1.1-0.3,1.4c0,0.1,0.1,0.2,0.2,0.2c0.2,0,0.3-0.2,0.5-0.5h0.2
					c-0.3,0.9-0.7,1-1,1c-0.5,0-0.7-0.3-0.7-0.6c0-0.4,0.3-1.1,0.3-1.4C28.3,34,28.2,33.9,28.1,33.9z"/>
				<path class="st6" d="M32.2,33.4l-0.4,1.9c0,0.1,0,0.1,0,0.2c0,0.2,0.1,0.2,0.2,0.2c0.2,0,0.4-0.2,0.5-0.5h0.2
					c-0.3,0.9-0.8,1-1.1,1c-0.3,0-0.5-0.2-0.5-0.5c-0.2,0.3-0.4,0.5-0.8,0.5c-0.4,0-0.7-0.2-0.7-0.9c0-0.8,0.5-2,1.4-2
					c0.3,0,0.5,0.1,0.5,0.3v0l0.1-0.3H32.2z M30.2,35.3c0,0.4,0.2,0.4,0.3,0.4c0.2,0,0.4-0.2,0.5-0.5l0.3-1.3c0-0.1-0.1-0.2-0.2-0.2
					C30.5,33.7,30.2,34.7,30.2,35.3z"/>
				<path class="st6" d="M35.1,33.4L34.6,36c0.3-0.1,0.5-0.3,0.7-0.8h0.2c-0.2,0.7-0.6,1-1,1l-0.1,0.4c-0.2,0.8-0.6,1-1,1
					c-0.3,0-0.6-0.2-0.6-0.5c0-0.5,0.5-0.7,0.9-0.8l0.1-0.3c-0.2,0.2-0.4,0.3-0.7,0.3c-0.4,0-0.7-0.2-0.7-0.9c0-0.8,0.5-2,1.4-2
					c0.3,0,0.5,0.1,0.5,0.3v0l0.1-0.3H35.1z M33.3,37.2c0.1,0,0.3-0.2,0.3-0.5l0-0.2c-0.3,0.1-0.5,0.3-0.5,0.5
					C33.1,37.1,33.2,37.2,33.3,37.2z M33.2,35.3c0,0.4,0.2,0.4,0.3,0.4c0.2,0,0.4-0.2,0.4-0.4l0.3-1.3c0-0.1-0.1-0.2-0.2-0.2
					C33.5,33.7,33.2,34.7,33.2,35.3z"/>
				<path class="st6" d="M36.4,35.7c0.2,0,0.5-0.1,0.7-0.3c-0.1,0.6-0.5,0.8-1,0.8c-0.5,0-0.9-0.3-0.9-0.9c0-0.6,0.4-2,1.5-2
					c0.5,0,0.6,0.3,0.6,0.5c0,0.6-0.6,1.1-1.3,1.2c0,0.1,0,0.1,0,0.2C36,35.6,36.2,35.7,36.4,35.7z M36.7,33.7
					c-0.3,0-0.6,0.6-0.7,1.2c0.4,0,0.8-0.5,0.8-0.9C36.9,33.8,36.8,33.7,36.7,33.7z"/>
			</g>
		</g>
	</g>
	<g>
		<g>
			<defs>
				<path id="SVGID_1_" d="M35.7,16.2v0.6h-5.4l-3.1-1.7l-0.8-0.4l-8.8-4.9c1.9-0.7,1.7-2.5,4.5-2.5C31.1,7.3,35.7,12,35.7,16.2z"/>
			</defs>
			<clipPath id="SVGID_2_">
				<use xlink:href="#SVGID_1_"  style="overflow:visible;"/>
			</clipPath>
			<g style="clip-path:url(#SVGID_2_);">
				
					<image style="overflow:visible;" width="19" height="10" xlink:href="DA29932B126D1BE9.png"  transform="matrix(1 0 0 1 17 6.9)">
				</image>
			</g>
		</g>
	</g>
	<g>
		<g>
			<g>
				<g>
					<g>
						<g>
							<path class="st10" d="M30.3,4.2h0.1l0.2,0.4h0l0.1-0.4h0.1v0.5h-0.1V4.3h0l-0.2,0.4h-0.1l-0.2-0.4h0v0.4h-0.1V4.2z"/>
						</g>
						<g>
							<path class="st10" d="M31,4.2h0.2c0,0,0.1,0,0.1,0c0,0,0.1,0,0.1,0.1c0,0,0,0.1,0,0.1c0,0,0,0.1,0,0.1c0,0,0,0.1,0,0.1
								c0,0,0,0.1,0,0.1c0,0,0,0-0.1,0.1c0,0-0.1,0-0.1,0H31V4.2z M31.1,4.6L31.1,4.6c0.1,0,0.2,0,0.2,0c0,0,0,0,0.1,0
								c0,0,0,0,0-0.1s0,0,0-0.1c0,0,0-0.1,0-0.1s0,0,0-0.1c0,0,0,0-0.1,0c0,0-0.1,0-0.1,0h-0.1V4.6z"/>
						</g>
						<g>
							<path class="st10" d="M31.7,4.2L31.7,4.2l-0.1,0.6h-0.1L31.7,4.2z"/>
						</g>
						<g>
							<path class="st10" d="M32.4,4.4c0,0,0,0.1,0,0.1s0,0.1-0.1,0.1c0,0-0.1,0-0.1,0.1c0,0-0.1,0-0.1,0c0,0-0.1,0-0.1,0
								c0,0-0.1,0-0.1-0.1c0,0,0-0.1-0.1-0.1c0,0,0-0.1,0-0.1c0,0,0-0.1,0-0.1c0,0,0-0.1,0.1-0.1c0,0,0.1,0,0.1-0.1c0,0,0.1,0,0.1,0
								c0,0,0.1,0,0.1,0c0,0,0.1,0,0.1,0.1c0,0,0,0.1,0.1,0.1C32.4,4.4,32.4,4.4,32.4,4.4z M32.3,4.4C32.3,4.4,32.3,4.4,32.3,4.4
								c0-0.1,0-0.2-0.1-0.2c0,0,0,0-0.1,0c0,0-0.1,0-0.1,0c0,0-0.1,0-0.1,0c0,0-0.1,0-0.1,0c0,0,0,0,0,0.1c0,0,0,0.1,0,0.1
								c0,0,0,0.1,0,0.1c0,0,0,0.1,0,0.1c0,0,0,0,0.1,0.1c0,0,0.1,0,0.1,0c0,0,0.1,0,0.1,0c0,0,0,0,0.1,0
								C32.3,4.6,32.3,4.6,32.3,4.4C32.3,4.5,32.3,4.5,32.3,4.4z M32,4.6L32,4.6L32,4.3h0.1c0,0,0.1,0,0.1,0c0,0,0,0,0,0.1
								c0,0,0,0,0,0.1c0,0,0,0-0.1,0l0.1,0.1h-0.1l-0.1-0.1h0V4.6z M32.1,4.4C32.1,4.4,32.1,4.4,32.1,4.4
								C32.1,4.4,32.1,4.4,32.1,4.4C32.1,4.4,32.2,4.4,32.1,4.4C32.2,4.4,32.2,4.4,32.1,4.4C32.2,4.4,32.2,4.4,32.1,4.4
								C32.2,4.3,32.1,4.3,32.1,4.4C32.1,4.3,32.1,4.3,32.1,4.4C32.1,4.3,32.1,4.3,32.1,4.4L32.1,4.4L32.1,4.4L32.1,4.4z"/>
						</g>
					</g>
				</g>
			</g>
			<g>
				<g>
					<path class="st10" d="M12,9.6l-1.5,0.5l-0.2-0.6c0-0.1,0-0.1,0-0.2c0-0.1,0-0.1,0-0.2c0-0.1,0.1-0.1,0.1-0.1
						c0.1,0,0.1-0.1,0.2-0.1c0.1,0,0.1,0,0.2,0c0.1,0,0.1,0,0.2,0c0.1,0,0.1,0.1,0.1,0.1c0,0.1,0.1,0.1,0.1,0.2l0.1,0.3l0.6-0.2
						L12,9.6z M11,9.5L11,9.4c0-0.1-0.1-0.1-0.1-0.1c0,0-0.1,0-0.2,0l-0.1,0c-0.1,0-0.1,0.1-0.1,0.1c0,0,0,0.1,0,0.2l0.1,0.2L11,9.5
						z"/>
					<path class="st10" d="M11.3,8.4l0-0.3l-0.7,0l0,0.3l-0.3,0l0-0.6l0.3,0l0,0c0,0-0.1,0-0.1,0c0,0-0.1,0-0.1-0.1
						c0,0-0.1-0.1-0.1-0.1c0,0,0-0.1,0-0.2l0-0.1l0.3,0l0,0.3c0,0.1,0,0.1,0.1,0.2s0.1,0.1,0.2,0.1l0.4,0l0-0.4l0.3,0l0,1L11.3,8.4z
						"/>
					<path class="st10" d="M10.5,6.2l-0.2,0.2L10,6l0.2-0.2L10.5,6.2z M11.8,6.6c-0.1,0.2-0.2,0.3-0.3,0.4C11.4,7,11.2,7,11,7
						c-0.1,0-0.2-0.1-0.2-0.1c-0.1,0-0.1-0.1-0.2-0.2c0-0.1-0.1-0.1-0.1-0.2c0-0.1,0-0.2,0-0.2c0-0.1,0.1-0.2,0.1-0.2
						c0-0.1,0.1-0.1,0.2-0.1c0.1,0,0.1-0.1,0.2-0.1c0.1,0,0.2,0,0.3,0l0.1,0l-0.2,0.8l0,0c0.1,0,0.1,0,0.2,0c0.1,0,0.1-0.1,0.1-0.2
						c0-0.1,0-0.1,0-0.2c0-0.1,0-0.1-0.1-0.2L11.7,6c0,0.1,0.1,0.1,0.1,0.2C11.8,6.3,11.8,6.5,11.8,6.6z M10.8,6.3
						c0,0.1,0,0.1,0,0.2c0,0.1,0.1,0.1,0.2,0.1l0,0l0.1-0.5l0,0c-0.1,0-0.1,0-0.2,0C10.9,6.2,10.8,6.2,10.8,6.3z"/>
					<path class="st10" d="M12.3,5.5c-0.1,0.1-0.1,0.2-0.2,0.3s-0.2,0.1-0.3,0.1l0-0.3c0.1,0,0.1,0,0.2-0.1c0.1,0,0.1-0.1,0.2-0.2
						c0-0.1,0.1-0.1,0.1-0.2c0,0,0-0.1-0.1-0.1c0,0-0.1,0-0.1,0c0,0-0.1,0-0.1,0.1l-0.1,0.1c0,0-0.1,0.1-0.1,0.1
						c0,0-0.1,0.1-0.1,0.1c0,0-0.1,0-0.1,0c0,0-0.1,0-0.1-0.1c-0.1-0.1-0.2-0.2-0.2-0.3c0-0.1,0-0.3,0.1-0.4
						c0.1-0.1,0.1-0.2,0.2-0.2c0.1-0.1,0.1-0.1,0.2-0.1l0.1,0.2c-0.1,0-0.1,0-0.2,0.1c-0.1,0-0.1,0.1-0.1,0.1
						c-0.1,0.1-0.1,0.2,0,0.2c0,0,0.1,0,0.1,0c0,0,0.1,0,0.1-0.1l0.1-0.1c0,0,0.1-0.1,0.1-0.1c0,0,0.1-0.1,0.1-0.1c0,0,0.1,0,0.1,0
						c0,0,0.1,0,0.1,0.1c0.1,0.1,0.2,0.2,0.2,0.3C12.4,5.2,12.4,5.3,12.3,5.5z"/>
					<path class="st10" d="M13.2,4.4c-0.1,0.1-0.3,0.2-0.4,0.2c-0.2,0-0.3-0.1-0.4-0.2c-0.1-0.1-0.1-0.1-0.2-0.2
						c0-0.1-0.1-0.1-0.1-0.2c0-0.1,0-0.1,0-0.2c0-0.1,0.1-0.1,0.1-0.2c0.1-0.1,0.1-0.1,0.2-0.1c0.1,0,0.1,0,0.2,0
						c0.1,0,0.1,0,0.2,0.1c0.1,0,0.1,0.1,0.2,0.1l0.1,0.1l-0.6,0.6l0,0c0.1,0.1,0.1,0.1,0.2,0.1c0.1,0,0.1,0,0.2-0.1
						c0.1-0.1,0.1-0.1,0.1-0.2c0-0.1,0-0.1,0-0.2l0.3,0c0,0.1,0,0.2,0,0.2C13.3,4.2,13.2,4.3,13.2,4.4z M12.4,3.7
						c-0.1,0.1-0.1,0.1-0.1,0.2c0,0.1,0,0.1,0.1,0.2l0,0l0.3-0.3l0,0c-0.1-0.1-0.1-0.1-0.2-0.1C12.5,3.6,12.5,3.7,12.4,3.7z"/>
					<path class="st10" d="M13.7,3.9l-0.7-1l0.3-0.2l0.1,0.2l0,0c0,0,0-0.1,0-0.1c0,0,0-0.1,0-0.1c0,0,0-0.1,0.1-0.1
						c0,0,0.1-0.1,0.1-0.1c0,0,0.1-0.1,0.1-0.1c0.1,0,0.1,0,0.2,0c0,0,0.1,0,0.1,0.1c0,0,0.1,0.1,0.1,0.1l0.4,0.6l-0.3,0.2l-0.4-0.6
						c-0.1-0.1-0.2-0.2-0.3-0.1c0,0,0,0-0.1,0.1c0,0,0,0,0,0.1c0,0,0,0,0,0.1c0,0,0,0,0,0.1L14,3.7L13.7,3.9z"/>
					<path class="st10" d="M15.4,2.8c-0.1,0.1-0.2,0.1-0.3,0c-0.1,0-0.1-0.1-0.2-0.2l-0.3-0.5l-0.3,0.1l-0.1-0.2L14.4,2
						c0,0,0.1,0,0.1-0.1c0,0,0-0.1,0-0.1l-0.1-0.2l0.3-0.1l0.2,0.4l0.4-0.2l0.1,0.2L14.9,2l0.3,0.6l0.4-0.2l0.1,0.2L15.4,2.8z"/>
					<path class="st10" d="M16.5,2.4c-0.2,0.1-0.3,0.1-0.5,0c-0.1-0.1-0.2-0.2-0.3-0.4c0-0.1-0.1-0.2-0.1-0.3c0-0.1,0-0.2,0-0.2
						c0-0.1,0.1-0.1,0.1-0.2c0.1-0.1,0.1-0.1,0.2-0.1c0.1,0,0.2,0,0.2,0c0.1,0,0.1,0,0.2,0c0.1,0,0.1,0.1,0.2,0.1
						c0.1,0.1,0.1,0.1,0.1,0.2l0,0.1l-0.8,0.3l0,0c0,0.1,0.1,0.1,0.1,0.1c0.1,0,0.1,0,0.2,0c0.1,0,0.1-0.1,0.2-0.1
						c0,0,0.1-0.1,0.1-0.1L16.9,2c0,0.1-0.1,0.1-0.1,0.2C16.7,2.2,16.7,2.3,16.5,2.4z M16.1,1.1l-0.2,0l0.1-0.5l0.3,0L16.1,1.1z
						 M16.2,1.4c-0.1,0-0.1,0.1-0.1,0.1c0,0.1,0,0.1,0,0.2l0,0l0.5-0.2l0,0c0-0.1-0.1-0.1-0.1-0.2S16.2,1.4,16.2,1.4z"/>
					<path class="st10" d="M18.3,0.5l0.3-0.1l0,0.2l0,0c0-0.1,0-0.1,0.1-0.2c0-0.1,0.1-0.1,0.2-0.1c0.1,0,0.1,0,0.2,0
						c0.1,0,0.1,0,0.2,0.1c0,0,0.1,0.1,0.1,0.2c0,0.1,0.1,0.2,0.1,0.3c0,0.1,0,0.2,0,0.3c0,0.1,0,0.2-0.1,0.2c0,0.1-0.1,0.1-0.1,0.1
						c0,0-0.1,0.1-0.2,0.1c-0.1,0-0.2,0-0.2,0c-0.1,0-0.1-0.1-0.2-0.2l0,0L19,2.1l-0.3,0.1L18.3,0.5z M19.1,1.4c0.1,0,0.1,0,0.2-0.1
						c0-0.1,0-0.1,0-0.2l0-0.2c0-0.1,0-0.1-0.1-0.2c0,0-0.1-0.1-0.2,0c-0.1,0-0.1,0-0.1,0.1c0,0-0.1,0.1,0,0.1l0.1,0.3
						c0,0.1,0,0.1,0.1,0.1C19,1.4,19,1.4,19.1,1.4z"/>
					<path class="st10" d="M20.9,1.4c-0.1,0-0.1,0-0.2,0c0,0-0.1-0.1-0.1-0.1l0,0c0,0.1-0.1,0.1-0.1,0.2s-0.1,0.1-0.2,0.1
						c-0.1,0-0.2,0-0.3-0.1c-0.1-0.1-0.1-0.1-0.1-0.3c0-0.1,0-0.2,0.1-0.3c0.1-0.1,0.2-0.1,0.4-0.1l0.2,0l0-0.1c0-0.1,0-0.1-0.1-0.2
						c0,0-0.1,0-0.2,0c-0.1,0-0.1,0-0.2,0.1c0,0-0.1,0.1-0.1,0.1l-0.2-0.1c0-0.1,0.1-0.1,0.2-0.2c0.1-0.1,0.2-0.1,0.3-0.1
						c0.2,0,0.3,0,0.4,0.1c0.1,0.1,0.2,0.2,0.2,0.3l0.1,0.5l0.1,0l0,0.2L20.9,1.4z M20.4,1.3c0.1,0,0.1,0,0.1-0.1
						c0,0,0.1-0.1,0.1-0.1l0-0.1l-0.2,0c-0.1,0-0.2,0.1-0.2,0.2l0,0c0,0,0,0.1,0.1,0.1C20.3,1.3,20.3,1.3,20.4,1.3z"/>
					<path class="st10" d="M21.3,1.1l0.3,0l0-0.7l-0.3,0l0-0.3l0.6,0l0,0.3l0,0c0,0,0-0.1,0-0.1c0,0,0-0.1,0.1-0.1
						c0,0,0.1-0.1,0.1-0.1c0,0,0.1,0,0.2,0l0.1,0l0,0.3l-0.3,0c-0.1,0-0.1,0-0.2,0.1s-0.1,0.1-0.1,0.2l0,0.4l0.4,0l0,0.3l-1,0
						L21.3,1.1z"/>
				</g>
				<g>
					<ellipse class="st10" cx="22.2" cy="7.8" rx="9.5" ry="5.3"/>
				</g>
				<g>
					<g>
						<path class="st2" d="M14.4,8.1C14.3,8.6,14.5,9,15.1,9c0.4,0,0.7-0.2,0.7-0.5c0.1-0.3-0.1-0.5-0.3-0.8l-0.2-0.2
							C15.1,7.3,14.9,7,15,6.6c0.1-0.6,0.8-1,1.5-1c0.4,0,0.7,0.1,0.9,0.3c0.5,0.5-0.1,0.8-0.2,0.8c0,0,0,0,0,0
							c0.1-0.4,0-0.8-0.5-0.8c-0.3,0-0.7,0.2-0.7,0.4c-0.1,0.3,0.1,0.5,0.3,0.7l0.2,0.2c0.3,0.3,0.5,0.6,0.4,1c-0.2,0.7-0.8,1-1.6,1
							c-0.4,0-0.8-0.1-1.1-0.4C13.6,8.3,14.2,8.1,14.4,8.1z"/>
					</g>
					<g>
						<path class="st2" d="M19.8,10.5l0.7-1.7h0c0.1,0.2,0.3,0.3,0.6,0.3c1,0,1.6-0.9,1.7-1.6c0,0,0-0.1,0-0.2
							c0-0.3-0.3-0.6-0.7-0.6c-0.3,0-0.7,0.1-0.9,0.4l0,0L21.3,7c-0.1-0.2-0.3-0.3-0.5-0.4l-1.6,3.5C19.4,10.3,19.5,10.5,19.8,10.5z
							 M22.1,7.5c0,0.4-0.5,1.5-1.1,1.5c-0.2,0-0.3-0.2-0.3-0.3c0-0.3,0.5-1.4,1.1-1.4C22,7.1,22.1,7.3,22.1,7.5z"/>
					</g>
					<g>
						<path class="st2" d="M19.6,8.9c0,0-0.1,0-0.1,0c-0.1,0-0.1-0.1-0.1-0.2c0-0.1,0.1-0.3,0.2-0.4l0.7-1.4c-0.2-0.1-0.5-0.1-0.7,0
							l-0.2,0.3C19.2,7,19,6.8,18.7,6.8c-1,0-1.7,0.9-1.8,1.6c-0.1,0.4,0.2,0.8,0.7,0.8c0.5,0,0.8-0.3,1.1-0.6l0,0c0,0,0,0.1,0,0.2
							c0,0.2,0.1,0.4,0.4,0.4c0.2,0,0.3,0,0.4-0.1L19.6,8.9L19.6,8.9z M19.1,7.4c0,0.4-0.6,1.5-1.2,1.5c-0.2,0-0.3-0.2-0.3-0.3
							c0-0.4,0.6-1.4,1.1-1.4C19.1,7.1,19.2,7.3,19.1,7.4z"/>
					</g>
					<g>
						<g>
							<path class="st2" d="M25.4,7.9l0.4-0.8c0,0-0.2,0-0.4,0c-0.1,0-0.3,0-0.3,0L25,7.4c-0.2,0.3-0.8,1.5-1.3,1.5
								c-0.1,0-0.2,0-0.2-0.1c0-0.1,0.5-0.9,0.5-0.9c0.1-0.2,0.2-0.4,0.3-0.6c0-0.2-0.2-0.3-0.4-0.3c-0.2,0-0.5,0.1-0.7,0.2
								c0,0,0,0.1,0.1,0.1c0.1,0,0.1,0,0.2,0c0.1,0,0.1,0.1,0.1,0.1c0,0.1-0.4,0.9-0.4,0.9c-0.1,0.2-0.2,0.5-0.3,0.6
								c0,0.3,0.2,0.4,0.5,0.4c0.5,0,1-0.3,1.3-0.8l0,0c0,0.1-0.1,0.2-0.1,0.4c0,0.2,0.1,0.4,0.4,0.4c0.2,0,0.5-0.1,0.7-0.2v0
								c0,0,0-0.1,0-0.2c0,0,0,0,0,0c-0.1,0-0.1,0.1-0.2,0.1c-0.1,0-0.1-0.1-0.1-0.2C25.1,8.5,25.3,8.1,25.4,7.9z"/>
						</g>
					</g>
					<g>
						<path class="st2" d="M29.5,6.9c-0.4-0.2-1-0.4-2.1-0.5l0.2-0.6c-0.2-0.1-0.5-0.1-0.7,0l-0.3,0.6c-0.7,0-1.6,0.2-3.1-0.1l0,0.1
							c0.9,0.4,2.2,0.4,3,0.4L25.9,8c-0.1,0.1-0.1,0.3-0.2,0.4c-0.1,0.2-0.1,0.3-0.1,0.4c0,0.2,0.2,0.4,0.5,0.4
							c0.3,0,0.6-0.2,0.9-0.4l0,0c0,0-0.1-0.1-0.1-0.2c0,0-0.1,0.1-0.2,0.1c-0.1,0.1-0.2,0.1-0.2,0.1c-0.1,0-0.1-0.1-0.1-0.2
							c0-0.1,0.2-0.5,0.2-0.6l0.6-1.3c0.6-0.1,1.3-0.1,1.7,0.1c-0.6,0-1.1,0.2-1.5,0.6c-0.2,0.2-0.3,0.5-0.4,0.8c0,0.1,0,0.2,0,0.3
							c0.1,0.4,0.4,0.6,1,0.6c0.9,0,1.7-0.7,1.8-1.5c0,0,0.1-0.3-0.2-0.7c0.3,0.1,0.5,0.3,0.6,0.4c0.2-0.1,0.3-0.2,0.4-0.4
							C30.6,7,30.1,6.9,29.5,6.9z M28.7,8.6c-0.4,0.6-1.1,0.6-0.9-0.2c0-0.1,0.4-1.2,1.3-1.3c0,0.1,0.1,0.1,0.1,0.2
							C29.3,7.6,29,8.2,28.7,8.6z"/>
					</g>
				</g>
			</g>
		</g>
	</g>
</g>
</svg>
