<svg xmlns="http://www.w3.org/2000/svg" width="297" height="375" fill="none" viewBox="0 0 297 375"><g clip-path="url(#clip0)"><path fill="#AB7029" d="M7.15295 178.527H116.35C116.35 191.745 105.593 202.509 92.2582 202.509H31.2446C17.9102 202.453 7.15295 191.745 7.15295 178.527Z"/><path fill="#592B2B" d="M103.296 159.51H20.2073C12.9798 159.51 7.15295 153.71 7.15295 146.515C7.15295 139.321 12.9798 133.521 20.2073 133.521H103.296C110.523 133.521 116.35 139.321 116.35 146.515C116.35 153.71 110.467 159.51 103.296 159.51Z"/><path fill="#592B2B" d="M103.296 133.521H20.2073C12.9798 133.521 7.15295 127.721 7.15295 120.526C7.15295 113.332 12.9798 107.532 20.2073 107.532H103.296C110.523 107.532 116.35 113.332 116.35 120.526C116.35 127.721 110.467 133.521 103.296 133.521Z"/><path fill="#A9AE38" d="M109.066 178.527H14.3805C9.16993 178.527 4.91187 174.344 4.91187 169.102H118.479C118.535 174.289 114.333 178.527 109.066 178.527Z"/><path fill="#AB7029" d="M116.35 98.1622H7.15295C7.15295 78.0849 23.5129 61.8557 43.6266 61.8557H79.8202C99.99 61.8557 116.35 78.0849 116.35 98.1622Z"/><path fill="#FAA21E" d="M106.601 107.587H16.9017C11.6912 107.587 7.43311 103.405 7.43311 98.1621H116.014C116.014 103.349 111.812 107.587 106.601 107.587Z"/><path fill="#B32029" d="M122.513 159.342H-0.0184937V168.991H122.513V159.342Z"/><path fill="#FAA21E" d="M113.1 130.398H10.3466V136.644H113.1V130.398Z"/><path fill="#FAA21E" d="M45.0273 103.07H28.2752V152.985C28.2752 157.558 32.029 161.294 36.6233 161.294C41.2175 161.294 44.9713 157.558 44.9713 152.985V103.07H45.0273Z"/><path fill="#FAA21E" d="M56.5129 104.408H45.0273V138.317C45.0273 141.44 47.6046 143.95 50.7421 143.95C53.9357 143.95 56.4569 141.44 56.4569 138.317V104.408H56.5129Z"/><path fill="#FAA21E" d="M60.5094 73.5053C80.9008 73.5053 97.4313 57.0506 97.4313 36.7527C97.4313 16.4547 80.9008 0 60.5094 0C40.118 0 23.5875 16.4547 23.5875 36.7527C23.5875 57.0506 40.118 73.5053 60.5094 73.5053Z"/><path fill="#fff" d="M60.0051 9.42529L68.4092 26.3237L87.1222 29.0565L73.5637 42.2183L76.7572 60.7898L60.0051 52.0339L43.253 60.7898L46.4465 42.2183L32.8879 29.0565L51.601 26.3237L60.0051 9.42529Z"/><path fill="#CF3339" d="M282.545 289.448H179.455V202H258.341C271.676 202 282.545 212.764 282.545 226.093V289.448Z"/><path fill="#FAA21E" d="M231 194.862C240.53 194.862 248.256 187.171 248.256 177.684C248.256 168.198 240.53 160.507 231 160.507C221.47 160.507 213.744 168.198 213.744 177.684C213.744 187.171 221.47 194.862 231 194.862Z"/><path fill="#fff" d="M221.195 202H206.292V289.392H221.195V202Z"/><path fill="#fff" d="M240.814 289.453L255.717 289.453L255.717 202.061L240.814 202.061L240.814 289.453Z"/><path fill="#fff" d="M282.545 271.546H179.455V319.564H282.545V271.546Z"/><path fill="#411F1F" d="M231 319.564H179.455V359.942H231V319.564Z"/><path fill="#411F1F" d="M282.545 319.564H231V359.942H282.545V319.564Z"/><path fill="#CF3339" d="M164.944 375H230.944V359.942H180.015C171.723 359.942 164.944 366.69 164.944 375Z"/><path fill="#CF3339" d="M297 375H231V359.942H281.929C290.277 359.942 297 366.69 297 375Z"/><path fill="#CF3339" d="M179.399 202H100.008V245.724H179.399V202Z"/><path fill="#FAA21E" d="M100.008 244.776V202H57.0356C57.0917 225.647 76.309 244.776 100.008 244.776Z"/><path fill="#CF3339" d="M229.347 105.355C230.805 106.902 233.18 106.902 234.66 105.355L257.347 81.4891C263.93 74.5508 263.555 63.0567 256.18 56.6617C249.764 51.0818 240.201 52.085 234.326 58.2709L231.993 60.716L229.68 58.2918C223.805 52.085 214.243 51.0818 207.826 56.6617C200.472 63.0567 200.076 74.5508 206.66 81.4891L229.347 105.355Z"/><rect width="40.196" height="24.554" x="211.026" y="148.438" fill="#fff"/><path fill="#fff" d="M211.026 148.438H251.222L262.387 132.812H199.861L211.026 148.438Z"/></g><defs><clipPath id="clip0"><rect width="297" height="375" fill="#fff"/></clipPath></defs></svg>