<svg xmlns="http://www.w3.org/2000/svg" width="341" height="319" fill="none" viewBox="0 0 341 319"><path fill="#AB7029" d="M38.9 215.499H71.2001C89.2001 215.499 103.7 230.099 103.7 247.999H6.30005C6.40005 229.999 20.9 215.499 38.9 215.499Z"/><path fill="#AB7029" d="M82.3 318.299H27.8C15.9 318.299 6.30005 308.699 6.30005 296.799H103.7C103.8 308.699 94.2001 318.299 82.3 318.299Z"/><path fill="#592B2B" d="M11.6 256.499H98.5C104.9 256.499 110.1 261.699 110.1 268.099C110.1 274.499 104.9 279.699 98.5 279.699H11.6C5.19998 279.699 0 274.499 0 268.099C0 261.699 5.19998 256.499 11.6 256.499Z"/><path fill="#A9AE38" d="M4.3999 288.399H105.7C105.7 293.099 101.9 296.799 97.2999 296.799H12.7999C8.19993 296.799 4.3999 292.999 4.3999 288.399Z"/><path fill="#FAA21E" d="M6.6001 247.999H103.5C103.5 252.699 99.7001 256.399 95.1001 256.399H15.1001C10.4001 256.399 6.6001 252.699 6.6001 247.999Z"/><path fill="#ED5D28" d="M110.2 279.599H0.899902V288.299H110.2V279.599Z"/><path fill="#FAA21E" d="M40.3999 254.899H52.2999V284.699C52.2999 287.999 49.5999 290.599 46.3999 290.599C43.0999 290.599 40.4999 287.899 40.4999 284.699V254.899H40.3999Z"/><path fill="#FAA21E" d="M52.2 247.999H64.0999V256.299C64.0999 262.799 58.8 268.199 52.2 268.199V247.999Z"/><path fill="#FAA21E" d="M55.5049 236C73.4541 236 88.0049 221.449 88.0049 203.5C88.0049 185.551 73.4541 171 55.5049 171C37.5556 171 23.0049 185.551 23.0049 203.5C23.0049 221.449 37.5556 236 55.5049 236Z"/><path fill="#fff" d="M55.1051 179.3L62.5051 194.2L79.0051 196.6L67.1051 208.2L69.9051 224.6L55.1051 216.8L40.3051 224.6L43.1051 208.2L31.2051 196.6L47.7051 194.2L55.1051 179.3Z"/><path fill="#411F1F" d="M212.3 103.6H315.4C315.4 122.9 299.7 138.6 280.4 138.6H212.3V103.6Z"/><path fill="#AB7029" d="M194.3 76.9C215.397 76.9 232.5 59.7973 232.5 38.7C232.5 17.6027 215.397 0.5 194.3 0.5C173.203 0.5 156.1 17.6027 156.1 38.7C156.1 59.7973 173.203 76.9 194.3 76.9Z"/><path fill="#B32029" d="M192.7 94.7C215.6 94.7 234.2 113.3 234.2 136.2V163.6H151.2V136.2C151.2 113.3 169.8 94.7 192.7 94.7Z"/><path fill="#FAA21E" d="M257.5 235.8H128L151.3 163.6H234.3L257.5 235.8Z"/><path fill="#411F1F" d="M192.7 235.8H151.2V290.3H192.7V235.8Z"/><path fill="#411F1F" d="M234.2 235.8H190.7V290.3H234.2V235.8Z"/><path fill="#B32029" d="M192.7 290.3V296.8L180.5 304.3C165.9 313.2 149.1 317.9 132 317.9L143.2 301.8L151.2 290.3H192.7Z"/><path fill="#B32029" d="M172 296.9H192.7V317.6C181.3 317.6 172 308.3 172 296.9Z"/><path fill="#B32029" d="M192.7 290.3V296.8L205 304.3C219.6 313.2 236.4 317.9 253.5 317.9L242.3 301.8L234.3 290.3H192.7Z"/><path fill="#B32029" d="M192.7 317.6L182.7 296.9H192.7H213.5C213.5 308.3 204.2 317.6 192.7 317.6Z"/><path fill="#411F1F" d="M192.7 87C201.481 87 208.6 79.8813 208.6 71.1C208.6 62.3186 201.481 55.2 192.7 55.2C183.919 55.2 176.8 62.3186 176.8 71.1C176.8 79.8813 183.919 87 192.7 87Z"/><path fill="#AB7029" d="M231.9 74.7C237.533 74.7 242.1 70.1333 242.1 64.5C242.1 58.8667 237.533 54.3 231.9 54.3C226.267 54.3 221.7 58.8667 221.7 64.5C221.7 70.1333 226.267 74.7 231.9 74.7Z"/><path fill="#AB7029" d="M244.4 88.7C250.033 88.7 254.6 84.1333 254.6 78.5C254.6 72.8667 250.033 68.3 244.4 68.3C238.767 68.3 234.2 72.8667 234.2 78.5C234.2 84.1333 238.767 88.7 244.4 88.7Z"/><path fill="#AB7029" d="M156.7 74.7C162.333 74.7 166.9 70.1333 166.9 64.5C166.9 58.8667 162.333 54.3 156.7 54.3C151.067 54.3 146.5 58.8667 146.5 64.5C146.5 70.1333 151.067 74.7 156.7 74.7Z"/><path fill="#AB7029" d="M144.1 88.7C149.733 88.7 154.3 84.1333 154.3 78.5C154.3 72.8667 149.733 68.3 144.1 68.3C138.467 68.3 133.9 72.8667 133.9 78.5C133.9 84.1333 138.467 88.7 144.1 88.7Z"/><path fill="#AB7029" d="M274.7 79.5H340.2V89.6C340.2 97.1 334.1 103.2 326.6 103.2H288.2C280.7 103.2 274.6 97.1 274.6 89.6V79.5H274.7Z"/><path fill="#A9AE38" d="M340.2 71.2H274.7V79.5H340.2V71.2Z"/><path fill="#B32029" d="M340.2 71.2H274.7V75.4H340.2V71.2Z"/><path fill="#411F1F" d="M282.4 56H332.5C336.8 56 340.2 59.5 340.2 63.7C340.2 68 336.7 71.4 332.5 71.4H282.4C278.1 71.4 274.7 67.9 274.7 63.7C274.7 59.4 278.2 56 282.4 56Z"/><path fill="#FAA21E" d="M340.3 50.5H274.3V55.6H340.3V50.5Z"/><path fill="#FAA21E" d="M327.4 53.1L307.2 50.5L287 53.1L307.2 61.9L327.4 53.1Z"/><path fill="#AB7029" d="M340.2 50.5C340.2 32.3 325.4 17.5 307.2 17.5C289 17.5 274.2 32.3 274.2 50.5H340.2Z"/><path fill="#411F1F" d="M208.6 79C211.306 79 213.5 76.8062 213.5 74.1C213.5 71.3938 211.306 69.2 208.6 69.2C205.894 69.2 203.7 71.3938 203.7 74.1C203.7 76.8062 205.894 79 208.6 79Z"/><path fill="#411F1F" d="M176.8 79C179.506 79 181.7 76.8062 181.7 74.1C181.7 71.3938 179.506 69.2 176.8 69.2C174.094 69.2 171.9 71.3938 171.9 74.1C171.9 76.8062 174.094 79 176.8 79Z"/><path fill="#FAA21E" d="M274.3 52.6H284.1V82C284.1 84.7 281.9 86.9 279.2 86.9C276.5 86.9 274.3 84.7 274.3 82V52.6Z"/></svg>