<svg xmlns="http://www.w3.org/2000/svg" width="476" height="439" fill="none" viewBox="0 0 476 439"><path fill="#592B2B" d="M1.91913 322.498H94.6087V208.073H86.7246C39.939 208.073 1.91913 246.145 1.91913 293.048V322.498Z"/><path fill="#FAA21E" d="M94.6605 241.055C103.741 241.055 111.103 233.684 111.103 224.59C111.103 215.497 103.741 208.125 94.6605 208.125C85.5797 208.125 78.2181 215.497 78.2181 224.59C78.2181 233.684 85.5797 241.055 94.6605 241.055Z"/><path fill="#CF3339" d="M118.313 246.353H38.0717V322.498H118.313V246.353Z"/><path fill="#CF3339" d="M178.221 246.353H113.074V278.816H178.221V246.353Z"/><path fill="#FAA21E" d="M178.221 278.816C192.278 278.816 203.637 267.441 203.637 253.365V246.353H178.221V278.816Z"/><path fill="#CF3339" d="M38.1825 188.216L38.1825 253.454H70.6005V188.216H38.1825Z"/><path fill="#FAA21E" d="M70.5934 163.716H62.6575C49.1716 163.716 38.1754 174.675 38.1754 188.232H70.5934V163.716Z"/><path fill="#FAA21E" d="M78.2182 322.498H38.0717V409.082H78.2182V322.498Z"/><path fill="#FAA21E" d="M118.313 322.498H78.1663V409.082H118.313V322.498Z"/><path fill="#A9AE38" d="M78.2182 322.498H38.0717V359.427H78.2182V322.498Z"/><path fill="#A9AE38" d="M118.313 322.498H78.1663V359.427H118.313V322.498Z"/><path fill="#CF3339" d="M17.5835 437.702H78.1663V409.082H38.1754L17.5835 437.702Z"/><path fill="#CF3339" d="M138.801 437.702H78.1663V409.082H118.157L138.801 437.702Z"/><path fill="#AB7029" d="M123.707 184.232H200.94C200.94 169.949 189.373 158.366 175.109 158.366H149.486C135.274 158.418 123.707 170.001 123.707 184.232Z"/><path fill="#AB7029" d="M200.94 223.032H123.707C123.707 232.433 131.332 240.068 140.72 240.068H183.875C193.315 240.068 200.94 232.433 200.94 223.032Z"/><path fill="#592B2B" d="M132.94 209.475H191.707C196.79 209.475 200.94 205.32 200.94 200.23C200.94 195.14 196.79 190.985 191.707 190.985H132.94C127.857 190.985 123.707 195.14 123.707 200.23C123.707 205.372 127.857 209.475 132.94 209.475Z"/><path fill="#A9AE38" d="M122.151 216.332H202.496C202.496 220.019 199.487 223.032 195.805 223.032H128.842C125.159 223.032 122.151 220.019 122.151 216.332Z"/><path fill="#FAA21E" d="M123.966 184.232H200.732C200.732 187.92 197.724 190.933 194.041 190.933H130.606C126.923 190.933 123.966 187.972 123.966 184.232Z"/><path fill="#B32029" d="M118.662 216.256L205.335 216.256L205.335 209.348L118.662 209.348L118.662 216.256Z"/><path fill="#FAA21E" d="M169.3 218.15C171.893 218.15 174.02 216.02 174.02 213.423V189.738H164.632V213.423C164.632 216.02 166.706 218.15 169.3 218.15Z"/><path fill="#FAA21E" d="M164.632 200.23V184.232H155.243V190.829C155.192 196.023 159.445 200.23 164.632 200.23Z"/><path fill="#592B2B" d="M355.094 376.204H442.026C442.026 360.154 429.007 347.117 412.979 347.117H384.14C368.113 347.117 355.094 360.103 355.094 376.204Z"/><path fill="#592B2B" d="M442.026 419.782H355.094C355.094 430.378 363.652 438.948 374.233 438.948H422.834C433.416 439 442.026 430.378 442.026 419.782Z"/><path fill="#592B2B" d="M365.468 404.564H431.6C437.358 404.564 441.974 399.889 441.974 394.175C441.974 388.41 437.306 383.787 431.6 383.787H365.468C359.71 383.787 355.094 388.462 355.094 394.175C355.094 399.889 359.762 404.564 365.468 404.564Z"/><path fill="#A9AE38" d="M353.33 412.251H443.737C443.737 416.406 440.366 419.782 436.217 419.782H360.851C356.702 419.782 353.33 416.406 353.33 412.251Z"/><path fill="#FAA21E" d="M355.353 376.204H441.766C441.766 380.359 438.395 383.735 434.246 383.735H362.874C358.724 383.684 355.353 380.359 355.353 376.204Z"/><path fill="#B32029" d="M349.429 412.168L446.943 412.168L446.943 404.429L349.429 404.429L349.429 412.168Z"/><path fill="#FAA21E" d="M406.392 414.328C409.297 414.328 411.683 411.939 411.683 409.03V382.333H401.101V409.03C401.101 411.939 403.487 414.328 406.392 414.328Z"/><path fill="#FAA21E" d="M401.101 394.175V376.204H390.52V383.58C390.52 389.449 395.24 394.175 401.101 394.175Z"/><path fill="#AB7029" d="M165.41 25.8663H242.642C242.59 11.5827 231.076 0 216.812 0H191.188C176.924 0 165.41 11.5827 165.41 25.8663Z"/><path fill="#AB7029" d="M242.59 64.6138H165.41C165.41 74.015 173.034 81.6503 182.423 81.6503H225.577C235.018 81.6503 242.59 74.015 242.59 64.6138Z"/><path fill="#592B2B" d="M174.59 51.0574H233.41C238.493 51.0574 242.642 46.9022 242.642 41.812C242.642 36.7218 238.493 32.5666 233.41 32.5666H174.59C169.507 32.5666 165.358 36.7218 165.358 41.812C165.41 46.9541 169.507 51.0574 174.59 51.0574Z"/><path fill="#A9AE38" d="M163.802 57.9135H244.146C244.146 61.6013 241.138 64.6138 237.455 64.6138H170.493C166.81 64.6138 163.802 61.6013 163.802 57.9135Z"/><path fill="#FAA21E" d="M165.617 25.8663H242.435C242.435 29.5541 239.426 32.5666 235.744 32.5666H172.256C168.574 32.5147 165.617 29.5541 165.617 25.8663Z"/><path fill="#B32029" d="M160.315 57.8492L246.988 57.8492L246.988 50.9411L160.315 50.9411L160.315 57.8492Z"/><path fill="#FAA21E" d="M210.95 59.7314C213.544 59.7314 215.67 57.6019 215.67 55.0049V31.32H206.282V55.0049C206.282 57.6019 208.357 59.7314 210.95 59.7314Z"/><path fill="#FAA21E" d="M206.282 41.812V25.8144H196.894V32.4108C196.842 37.6048 201.095 41.812 206.282 41.812Z"/><path fill="#592B2B" d="M106.02 200.23H87.1396C82.212 200.23 78.2181 204.23 78.2181 209.164V218.15H106.072C110.999 218.15 114.993 214.15 114.993 209.216C114.941 204.23 110.947 200.23 106.02 200.23Z"/><path fill="#592B2B" d="M360.281 128.916H269.199V174.52C269.199 193.062 284.189 208.073 302.706 208.073H360.281V128.916Z"/><path fill="#CF3339" d="M245.08 182.934C253.044 182.934 259.5 176.469 259.5 168.495C259.5 160.52 253.044 154.055 245.08 154.055C237.116 154.055 230.661 160.52 230.661 168.495C230.661 176.469 237.116 182.934 245.08 182.934Z"/><path fill="#592B2B" d="M314.74 104.92H269.199V128.968H314.74V104.92Z"/><path fill="#592B2B" d="M314.74 80.8711H215.826V111.464H314.74V80.8711Z"/><path fill="#CF3339" d="M215.826 111.412V80.8192H185.275C185.275 97.7518 198.917 111.412 215.826 111.412Z"/><path fill="#A9AE38" d="M447.472 128.916H360.281V168.495H447.472V128.916Z"/><path fill="#A9AE38" d="M399.779 255.834V168.523H360.255V255.834H399.779Z"/><path fill="#CF3339" d="M399.753 284.425H339.792L360.281 255.858H399.753V284.425Z"/><path fill="#CF3339" d="M476 128.916V189.011L447.472 168.495V128.916H476Z"/><path fill="#AB7029" d="M152.805 356.908H226.355V359.401C226.355 365.374 221.532 370.205 215.567 370.205H163.594C157.629 370.205 152.805 365.374 152.805 359.401V356.908Z"/><path fill="#A9AE38" d="M226.407 347.507H152.805V356.908H226.407V347.507Z"/><path fill="#B32029" d="M226.407 347.507H152.805V352.182H226.407V347.507Z"/><path fill="#411F1F" d="M161.416 330.471H217.745C222.517 330.471 226.407 334.366 226.407 339.145C226.407 343.923 222.517 347.819 217.745 347.819H161.416C156.644 347.819 152.754 343.923 152.754 339.145C152.805 334.314 156.644 330.471 161.416 330.471Z"/><path fill="#FAA21E" d="M226.355 324.342H152.287V330.107H226.355V324.342Z"/><path fill="#FAA21E" d="M211.936 327.198L189.321 324.342L166.706 327.198L189.321 337.067L211.936 327.198Z"/><path fill="#AB7029" d="M226.355 324.342C226.355 312.136 209.757 302.267 189.321 302.267C168.885 302.267 152.287 312.136 152.287 324.342H226.355Z"/><path fill="#FAA21E" d="M191.759 370.517H262.715V381.372H202.599C196.583 381.32 191.759 376.49 191.759 370.517Z"/><path fill="#FAA21E" d="M290.05 401.577V438.195H253.483C253.483 417.99 269.873 401.577 290.05 401.577Z"/><path fill="#FAA21E" d="M250.267 428.17H290.05V438.195H240.256C240.256 432.689 244.717 428.17 250.267 428.17Z"/><path fill="#B32029" d="M259.655 361.998H318.734V419.081H272.778C265.516 419.081 259.655 413.212 259.655 405.94V361.998Z"/><path fill="#FAA21E" d="M234.602 327.042H303.277V361.998H244.873C239.219 361.998 234.602 357.376 234.602 351.714V327.042Z"/><path fill="#FAA21E" d="M277.342 317.537H298.245C309.605 317.537 318.786 326.731 318.786 338.106V361.998H266.242V328.601C266.242 322.472 271.222 317.537 277.342 317.537Z"/><path fill="#411F1F" d="M234.602 327.042H252.082V329.691C252.082 334.989 247.777 339.3 242.487 339.3H234.602V327.042Z"/><path fill="#FAA21E" d="M282.426 373.581H292.54V399.136C286.938 399.136 282.426 394.617 282.426 389.007V373.581Z"/><path fill="#FAA21E" d="M318.786 401.577V438.195H282.218C282.218 417.99 298.557 401.577 318.786 401.577Z"/><path fill="#FAA21E" d="M278.95 428.17H318.734V438.195H268.94C268.94 432.689 273.452 428.17 278.95 428.17Z"/><path fill="#411F1F" d="M266.242 327.042H277.446C277.446 330.782 274.438 333.795 270.703 333.795H266.294V327.042H266.242Z"/><path fill="#411F1F" d="M281.855 327.042H293.059C293.059 330.782 290.05 333.795 286.316 333.795H281.907V327.042H281.855Z"/><path fill="#411F1F" d="M308.671 324.03H266.242V327.042H308.671V324.03Z"/><path fill="#411F1F" d="M298.557 317.537C309.709 317.537 318.734 326.575 318.734 337.742V365.894C318.734 371.503 314.221 376.022 308.619 376.022C303.017 376.022 298.505 371.503 298.505 365.894V317.537H298.557Z"/><path fill="#fff" d="M234.602 347.767H285.693C287.612 347.767 289.168 349.325 289.168 351.247C289.168 353.169 287.612 354.727 285.693 354.727H234.602V347.767Z"/><path fill="#FAA21E" d="M171.115 326.627H182.163V359.713C182.163 362.777 179.673 365.219 176.665 365.219C173.605 365.219 171.167 362.726 171.167 359.713V326.627H171.115Z"/><path fill="#CF3339" d="M128.037 73.158H63.6673V137.252H128.037V73.158Z"/><path fill="#CF3339" d="M64.0304 137.252C99.38 137.252 128.037 108.556 128.037 73.158C128.037 37.7596 99.38 9.06357 64.0304 9.06357C28.6808 9.06357 0.024292 37.7596 0.024292 73.158C0.024292 108.556 28.6808 137.252 64.0304 137.252Z"/><path fill="#FAA227" d="M61.8054 68H38.4643V61.63L48.6935 53.1212C50.4603 51.6023 51.7312 50.2849 52.5062 49.169C53.2811 48.0531 53.6686 46.8752 53.6686 45.6353V45.1703C53.6686 43.8064 53.2656 42.7835 52.4597 42.1016C51.6538 41.3886 50.5688 41.0321 49.2049 41.0321C47.6551 41.0321 46.4617 41.4816 45.6247 42.3805C44.7878 43.2795 44.1988 44.3489 43.8579 45.5888L37.7669 43.264C38.1388 42.1481 38.6503 41.0941 39.3012 40.1022C39.9522 39.0793 40.7736 38.1959 41.7655 37.4519C42.7885 36.708 43.9664 36.119 45.2993 35.6851C46.6322 35.2201 48.1665 34.9876 49.9024 34.9876C51.6693 34.9876 53.2501 35.2356 54.645 35.7316C56.0399 36.2275 57.2178 36.9095 58.1787 37.7774C59.1397 38.6453 59.8681 39.6838 60.3641 40.8927C60.86 42.0706 61.108 43.357 61.108 44.7519C61.108 46.1157 60.8755 47.3711 60.4106 48.518C59.9766 49.634 59.3566 50.6879 58.5507 51.6798C57.7758 52.6717 56.8458 53.6326 55.7609 54.5626C54.707 55.4925 53.5756 56.4224 52.3667 57.3523L46.1827 62.1415H61.8054V68ZM77.8285 68.558C73.4889 68.558 70.2806 67.0856 68.2038 64.1408C66.1579 61.196 65.135 57.0734 65.135 51.7728C65.135 46.4722 66.1579 42.3495 68.2038 39.4048C70.2806 36.46 73.4889 34.9876 77.8285 34.9876C82.1682 34.9876 85.3609 36.46 87.4067 39.4048C89.4836 42.3495 90.522 46.4722 90.522 51.7728C90.522 57.0734 89.4836 61.196 87.4067 64.1408C85.3609 67.0856 82.1682 68.558 77.8285 68.558ZM77.8285 63.0714C79.9053 63.0714 81.3467 62.3429 82.1527 60.8861C82.9896 59.4292 83.4081 57.3988 83.4081 54.7951V48.7505C83.4081 46.1467 82.9896 44.1164 82.1527 42.6595C81.3467 41.2026 79.9053 40.4742 77.8285 40.4742C75.7517 40.4742 74.2948 41.2026 73.4579 42.6595C72.6519 44.1164 72.249 46.1467 72.249 48.7505V54.7951C72.249 57.3988 72.6519 59.4292 73.4579 60.8861C74.2948 62.3429 75.7517 63.0714 77.8285 63.0714ZM77.8285 54.5161C76.7436 54.5161 75.9842 54.2991 75.5502 53.8651C75.1472 53.4312 74.9457 52.9042 74.9457 52.2842V51.2613C74.9457 50.6414 75.1472 50.1144 75.5502 49.6805C75.9842 49.2465 76.7436 49.0295 77.8285 49.0295C78.9134 49.0295 79.6574 49.2465 80.0603 49.6805C80.4943 50.1144 80.7113 50.6414 80.7113 51.2613V52.2842C80.7113 52.9042 80.4943 53.4312 80.0603 53.8651C79.6574 54.2991 78.9134 54.5161 77.8285 54.5161Z"/><path fill="#FAA227" d="M61.8054 109.392H38.4643V103.022L48.6935 94.5128C50.4603 92.994 51.7312 91.6766 52.5062 90.5606C53.2811 89.4447 53.6686 88.2668 53.6686 87.0269V86.562C53.6686 85.1981 53.2656 84.1752 52.4597 83.4932C51.6538 82.7803 50.5688 82.4238 49.2049 82.4238C47.6551 82.4238 46.4617 82.8733 45.6247 83.7722C44.7878 84.6711 44.1988 85.7405 43.8579 86.9804L37.7669 84.6556C38.1388 83.5397 38.6503 82.4858 39.3012 81.4939C39.9522 80.4709 40.7736 79.5875 41.7655 78.8436C42.7885 78.0996 43.9664 77.5107 45.2993 77.0767C46.6322 76.6118 48.1665 76.3793 49.9024 76.3793C51.6693 76.3793 53.2501 76.6273 54.645 77.1232C56.0399 77.6192 57.2178 78.3011 58.1787 79.1691C59.1397 80.037 59.8681 81.0754 60.3641 82.2843C60.86 83.4622 61.108 84.7486 61.108 86.1435C61.108 87.5074 60.8755 88.7628 60.4106 89.9097C59.9766 91.0256 59.3566 92.0795 58.5507 93.0714C57.7758 94.0634 56.8458 95.0243 55.7609 95.9542C54.707 96.8841 53.5756 97.8141 52.3667 98.744L46.1827 103.533H61.8054V109.392ZM68.2503 109.392V103.766H76.9916V82.0053H76.5731L69.9706 90.6536L65.507 87.1664L73.2719 76.9372H83.966V103.766H90.8475V109.392H68.2503Z"/></svg>