<svg xmlns="http://www.w3.org/2000/svg" width="226" height="261" fill="none" viewBox="0 0 226 261"><path fill="#CF3339" d="M109.364 163.719L206.662 163.719L206.662 71.7491L109.364 71.7491L109.364 163.719Z"/><path fill="#A9AE38" d="M157.987 66.1968C168.5 66.1968 177.023 57.6739 177.023 47.1603C177.023 36.6468 168.5 28.1238 157.987 28.1238C147.473 28.1238 138.95 36.6468 138.95 47.1603C138.95 57.6739 147.473 66.1968 157.987 66.1968Z"/><path fill="#CF3339" d="M59.6184 112.298L141.796 112.298L141.796 71.7181L59.6184 71.7181L59.6184 112.298Z"/><path fill="#A9AE38" d="M59.6706 112.339V71.7589H24.0262V76.6159C23.9478 96.3574 39.9291 112.339 59.6706 112.339Z"/><path fill="#FAA21E" d="M158.018 232.17L206.667 232.17L206.667 163.701L158.018 163.701L158.018 232.17Z"/><path fill="#FAA21E" d="M109.359 232.17L165.842 232.17L165.842 163.701L109.359 163.701L109.359 232.17Z"/><path fill="#FAA21E" d="M225.202 260.4H157.987V232.198L206.401 227.732L225.202 260.4Z"/><path fill="#FAA21E" d="M90.7715 260.4H165.821V232.198L109.573 227.732L90.7715 260.4Z"/><path fill="#A9AE38" d="M194.963 192.01H206.635V163.729H166.761C166.761 179.319 179.373 192.01 194.963 192.01Z"/><path fill="#CF3339" d="M-0.000141144 56.8149L55.3857 56.8149L55.3857 17.2536L-0.000141146 17.2536L-0.000141144 56.8149Z"/><path fill="#CF3339" d="M10.5518 17.1563C10.5518 26.6354 18.2289 34.3126 27.708 34.3126C37.1871 34.3126 44.8643 26.6354 44.8643 17.1563C44.8643 7.67725 37.1871 0 27.708 0C18.2289 0 10.5518 7.67725 10.5518 17.1563ZM18.8557 17.1563C18.8557 12.2209 22.851 8.22563 27.7864 8.22563C32.7218 8.22563 36.717 12.2209 36.717 17.1563C36.717 22.0917 32.7218 26.087 27.7864 26.087C22.7727 26.087 18.8557 22.0917 18.8557 17.1563Z"/><path fill="#CF3339" d="M10.5518 17.1563C10.5518 26.6354 18.2289 34.3126 27.708 34.3126C37.1871 34.3126 44.8643 26.6354 44.8643 17.1563C44.8643 7.67725 37.1871 0 27.708 0C18.2289 0 10.5518 7.67725 10.5518 17.1563ZM18.8557 17.1563C18.8557 12.2209 22.851 8.22563 27.7864 8.22563C32.7218 8.22563 36.717 12.2209 36.717 17.1563C36.717 22.0917 32.7218 26.087 27.7864 26.087C22.7727 26.087 18.8557 22.0917 18.8557 17.1563Z"/><path fill="#fff" d="M27.708 37.2896C30.477 37.2896 32.7217 35.0449 32.7217 32.2759C32.7217 29.5069 30.477 27.2621 27.708 27.2621C24.939 27.2621 22.6943 29.5069 22.6943 32.2759C22.6943 35.0449 24.939 37.2896 27.708 37.2896Z"/><path fill="#fff" d="M27.7086 32.2759L32.5657 46.377H22.8516L27.7086 32.2759Z"/></svg>