<svg xmlns="http://www.w3.org/2000/svg" width="172" height="310" fill="none" viewBox="0 0 172 310"><path fill="#ED5D28" d="M22.9999 0H144.9V121.9H22.9999V0Z"/><path fill="#ED5D28" d="M83.2998 117.1L23.0998 151.9V122L46.9998 106.2L83.2998 117.1Z"/><path fill="#FAA21E" d="M116.5 81.5H51.5V86.6C51.5 92.8 56.5 97.8 62.7 97.8H105.2C111.4 97.8 116.4 92.8 116.4 86.6V81.5H116.5Z"/><path fill="#A9AE38" d="M51.5 73.2H116.5V81.5H51.5V73.2Z"/><path fill="#B32029" d="M51.5 73.2H116.5V77.3H51.5V73.2Z"/><path fill="#411F1F" d="M108.8 58.2H59.0998C54.8998 58.2 51.4998 61.6 51.4998 65.8C51.4998 70 54.8998 73.4 59.0998 73.4H108.8C113 73.4 116.4 70 116.4 65.8C116.5 61.6 113 58.2 108.8 58.2Z"/><path fill="#fff" d="M51.4999 52.8H116.9V57.9H51.4999V52.8Z"/><path fill="#fff" d="M64.2002 55.3L84.2002 52.8L104.2 55.3L84.2002 64L64.2002 55.3Z"/><path fill="#FAA21E" d="M51.4999 52.8C51.4999 38 66.1 26.1 84.2 26.1C102.3 26.1 116.9 38.1 116.9 52.8H51.4999Z"/><path fill="#AB7029" d="M171 220.2H105.5V222.4C105.5 227.7 109.8 232 115.1 232H161.4C166.7 232 171 227.7 171 222.4V220.2Z"/><path fill="#A9AE38" d="M105.5 211.9H171V220.2H105.5V211.9Z"/><path fill="#B32029" d="M105.5 211.9H171V216.1H105.5V211.9Z"/><path fill="#411F1F" d="M163.3 196.7H113.2C108.9 196.7 105.5 200.2 105.5 204.4C105.5 208.7 109 212.1 113.2 212.1H163.3C167.6 212.1 171 208.6 171 204.4C171 200.2 167.5 196.7 163.3 196.7Z"/><path fill="#FAA21E" d="M105.4 191.3H171.4V196.4H105.4V191.3Z"/><path fill="#FAA21E" d="M118.3 193.8L138.5 191.2L158.7 193.8L138.5 202.6L118.3 193.8Z"/><path fill="#AB7029" d="M105.4 191.3C105.4 180.5 120.2 171.7 138.4 171.7C156.6 171.7 171.4 180.5 171.4 191.3H105.4Z"/><path fill="#FAA21E" d="M144.9 232.4H63.9999V244.7H132.6C139.4 244.7 144.9 239.2 144.9 232.4Z"/><path fill="#FAA21E" d="M32.8 267.8V309.5H74.5C74.5 286.5 55.8 267.8 32.8 267.8Z"/><path fill="#FAA21E" d="M78.2001 298.1H32.8001V309.5H89.6001C89.6001 303.2 84.5001 298.1 78.2001 298.1Z"/><path fill="#B32029" d="M67.5 222.7H0.0999756V287.7H52.5C60.8 287.7 67.5 281 67.5 272.7V222.7Z"/><path fill="#FAA21E" d="M96 182.9H17.7V222.7H84.3C90.8 222.7 96 217.5 96 211V182.9Z"/><path fill="#FAA21E" d="M47.3 172H23.5C10.6 172 0.0999756 182.5 0.0999756 195.4V222.7H60V184.6C59.9 177.7 54.3 172 47.3 172Z"/><path fill="#411F1F" d="M96 182.9H76V185.9C76 191.9 80.9 196.8 86.9 196.8H95.9V182.9H96Z"/><path fill="#FAA21E" d="M41.5 235.9H30V265C36.4 265 41.5 259.8 41.5 253.5V235.9Z"/><path fill="#FAA21E" d="M-0.000305176 267.8V309.5H41.6997C41.6997 286.5 23.0997 267.8 -0.000305176 267.8Z"/><path fill="#FAA21E" d="M45.3998 298.1H-0.000137329V309.5H56.7999C56.8999 303.2 51.6998 298.1 45.3998 298.1Z"/><path fill="#411F1F" d="M59.8999 182.9H47.0999C47.0999 187.2 50.5999 190.6 54.7999 190.6H59.7999V182.9H59.8999Z"/><path fill="#411F1F" d="M42.1001 182.9H29.3001C29.3001 187.2 32.8001 190.6 37.0001 190.6H42.0001V182.9H42.1001Z"/><path fill="#411F1F" d="M11.4999 179.4H59.8999V182.8H11.4999V179.4Z"/><path fill="#411F1F" d="M23.1001 172C10.4001 172 0.100098 182.3 0.100098 195V227.1C0.100098 233.5 5.3001 238.6 11.6001 238.6C18.0001 238.6 23.1001 233.4 23.1001 227.1V172Z"/><path fill="#fff" d="M96 206.5H37.7C35.5 206.5 33.7 208.3 33.7 210.5C33.7 212.7 35.5 214.5 37.7 214.5H96V206.5Z"/><path fill="#FAA21E" d="M154.7 193.3H144.9V222.7C144.9 225.4 147.1 227.6 149.8 227.6C152.5 227.6 154.7 225.4 154.7 222.7V193.3Z"/></svg>