<svg width="502" height="464" viewBox="0 0 502 464" fill="none" xmlns="http://www.w3.org/2000/svg">
<path d="M0 340.752H98.0711V219.851H89.7293C40.2273 219.851 0 260.078 0 309.635V340.752Z" fill="#592B2B"/>
<path d="M98.1261 254.7C107.734 254.7 115.523 246.911 115.523 237.303C115.523 227.694 107.734 219.906 98.1261 219.906C88.5179 219.906 80.729 227.694 80.729 237.303C80.729 246.911 88.5179 254.7 98.1261 254.7Z" fill="#FAA21E"/>
<path d="M123.151 260.297H38.2516V340.752H123.151V260.297Z" fill="#CF3339"/>
<path d="M186.538 260.297H117.609V294.598H186.538V260.297Z" fill="#CF3339"/>
<path d="M186.538 294.598C201.411 294.598 213.43 282.579 213.43 267.706V260.297H186.538V294.598Z" fill="#FAA21E"/>
<path d="M38.3688 198.87L38.3688 267.8H72.669V198.87H38.3688Z" fill="#CF3339"/>
<path d="M72.6615 172.983H64.2648C49.996 172.983 38.3613 184.563 38.3613 198.886H72.6615V172.983Z" fill="#FAA21E"/>
<path d="M80.729 340.752H38.2516V432.237H80.729V340.752Z" fill="#FAA21E"/>
<path d="M123.151 340.752H80.6741V432.237H123.151V340.752Z" fill="#FAA21E"/>
<path d="M80.729 340.752H38.2516V379.772H80.729V340.752Z" fill="#A9AE38"/>
<path d="M123.151 340.752H80.6741V379.772H123.151V340.752Z" fill="#A9AE38"/>
<path d="M16.5739 462.476H80.6741V432.237H38.3614L16.5739 462.476Z" fill="#CF3339"/>
<path d="M144.829 462.476H80.6741V432.237H122.987L144.829 462.476Z" fill="#CF3339"/>
<path d="M128.859 194.66H210.576C210.576 179.568 198.338 167.33 183.245 167.33H156.135C141.097 167.385 128.859 179.623 128.859 194.66Z" fill="#AB7029"/>
<path d="M210.576 235.656H128.859C128.859 245.59 136.926 253.657 146.86 253.657H192.52C202.508 253.657 210.576 245.59 210.576 235.656Z" fill="#AB7029"/>
<path d="M138.628 221.332H200.807C206.185 221.332 210.576 216.942 210.576 211.564C210.576 206.185 206.185 201.795 200.807 201.795H138.628C133.249 201.795 128.859 206.185 128.859 211.564C128.859 216.997 133.249 221.332 138.628 221.332Z" fill="#592B2B"/>
<path d="M127.213 228.577H212.222C212.222 232.473 209.039 235.656 205.143 235.656H134.292C130.396 235.656 127.213 232.473 127.213 228.577Z" fill="#A9AE38"/>
<path d="M129.133 194.66H210.356C210.356 198.557 207.173 201.74 203.277 201.74H136.158C132.262 201.74 129.133 198.612 129.133 194.66Z" fill="#FAA21E"/>
<path d="M123.521 228.497L215.226 228.497L215.226 221.198L123.521 221.198L123.521 228.497Z" fill="#CF3339"/>
<path d="M177.099 230.497C179.843 230.497 182.093 228.247 182.093 225.503V200.478H172.16V225.503C172.16 228.247 174.355 230.497 177.099 230.497Z" fill="#FAA21E"/>
<path d="M172.16 211.564V194.66H162.226V201.63C162.171 207.118 166.672 211.564 172.16 211.564Z" fill="#FAA21E"/>
<path d="M373.68 397.498H465.66C465.66 380.54 451.885 366.765 434.927 366.765H404.413C387.455 366.765 373.68 380.485 373.68 397.498Z" fill="#592B2B"/>
<path d="M465.66 443.543H373.68C373.68 454.738 382.735 463.794 393.931 463.794H445.354C456.549 463.848 465.66 454.738 465.66 443.543Z" fill="#592B2B"/>
<path d="M384.656 427.463H454.629C460.72 427.463 465.605 422.524 465.605 416.487C465.605 410.395 460.665 405.511 454.629 405.511H384.656C378.565 405.511 373.68 410.45 373.68 416.487C373.68 422.524 378.619 427.463 384.656 427.463Z" fill="#592B2B"/>
<path d="M371.814 435.585H467.471C467.471 439.976 463.903 443.543 459.513 443.543H379.772C375.381 443.543 371.814 439.976 371.814 435.585Z" fill="#A9AE38"/>
<path d="M373.954 397.498H465.385C465.385 401.888 461.818 405.456 457.427 405.456H381.912C377.522 405.401 373.954 401.888 373.954 397.498Z" fill="#FAA21E"/>
<path d="M367.687 435.498L470.862 435.498L470.862 427.321L367.687 427.321L367.687 435.498Z" fill="#CF3339"/>
<path d="M427.957 437.78C431.03 437.78 433.555 435.256 433.555 432.182V403.974H422.359V432.182C422.359 435.256 424.884 437.78 427.957 437.78Z" fill="#FAA21E"/>
<path d="M422.359 416.487V397.498H411.163V405.291C411.163 411.493 416.157 416.487 422.359 416.487Z" fill="#FAA21E"/>
<path d="M172.983 27.3304H254.7C254.645 12.2383 242.461 0 227.369 0H200.258C185.166 0 172.983 12.2383 172.983 27.3304Z" fill="#AB7029"/>
<path d="M254.645 68.2712H172.983C172.983 78.2046 181.05 86.272 190.984 86.272H236.644C246.632 86.272 254.645 78.2046 254.645 68.2712Z" fill="#AB7029"/>
<path d="M182.697 53.9473H244.931C250.309 53.9473 254.7 49.5569 254.7 44.1786C254.7 38.8003 250.309 34.4099 244.931 34.4099H182.697C177.318 34.4099 172.928 38.8003 172.928 44.1786C172.983 49.6118 177.318 53.9473 182.697 53.9473Z" fill="#592B2B"/>
<path d="M171.282 61.1915H256.291C256.291 65.088 253.108 68.2711 249.212 68.2711H178.361C174.465 68.2711 171.282 65.088 171.282 61.1915Z" fill="#A9AE38"/>
<path d="M173.202 27.3304H254.48C254.48 31.2269 251.297 34.41 247.401 34.41H180.227C176.331 34.3551 173.202 31.2269 173.202 27.3304Z" fill="#FAA21E"/>
<path d="M167.593 61.1237L259.298 61.1237L259.298 53.8246L167.593 53.8246L167.593 61.1237Z" fill="#CF3339"/>
<path d="M221.168 63.1124C223.912 63.1124 226.162 60.8623 226.162 58.1183V33.0929H216.229V58.1183C216.229 60.8623 218.424 63.1124 221.168 63.1124Z" fill="#FAA21E"/>
<path d="M216.229 44.1787V27.2755H206.295V34.2453C206.24 39.7333 210.74 44.1787 216.229 44.1787Z" fill="#FAA21E"/>
<path d="M110.145 211.564H90.1684C84.9548 211.564 80.729 215.79 80.729 221.003V230.497H110.2C115.413 230.497 119.639 226.272 119.639 221.058C119.584 215.789 115.358 211.564 110.145 211.564Z" fill="#592B2B"/>
<path d="M379.168 136.213H282.798V184.398C282.798 203.99 298.659 219.851 318.251 219.851H379.168V136.213Z" fill="#592B2B"/>
<path d="M257.279 193.289C265.705 193.289 272.536 186.458 272.536 178.032C272.536 169.606 265.705 162.775 257.279 162.775C248.853 162.775 242.022 169.606 242.022 178.032C242.022 186.458 248.853 193.289 257.279 193.289Z" fill="#CF3339"/>
<path d="M330.983 110.858H282.798V136.268H330.983V110.858Z" fill="#592B2B"/>
<path d="M330.983 85.4486H226.326V117.773H330.983V85.4486Z" fill="#592B2B"/>
<path d="M226.326 117.718V85.3938H194.002C194.002 103.285 208.435 117.718 226.326 117.718Z" fill="#CF3339"/>
<path d="M471.422 136.213H379.168V178.032H471.422V136.213Z" fill="#A9AE38"/>
<path d="M420.96 270.315V178.062H379.141V270.315H420.96Z" fill="#A9AE38"/>
<path d="M420.932 300.525H357.49L379.168 270.341H420.932V300.525Z" fill="#CF3339"/>
<path d="M501.606 136.213V199.709L471.422 178.032V136.213H501.606Z" fill="#CF3339"/>
<path d="M159.647 377.11H237.467V379.744C237.467 386.056 232.363 391.16 226.052 391.16H171.062C164.751 391.16 159.647 386.056 159.647 379.744V377.11Z" fill="#AB7029"/>
<path d="M237.522 367.177H159.647V377.11H237.522V367.177Z" fill="#A9AE38"/>
<path d="M237.522 367.177H159.647V372.116H237.522V367.177Z" fill="#CF3339"/>
<path d="M168.757 349.176H228.357C233.406 349.176 237.522 353.292 237.522 358.341C237.522 363.39 233.406 367.506 228.357 367.506H168.757C163.708 367.506 159.592 363.39 159.592 358.341C159.647 353.237 163.708 349.176 168.757 349.176Z" fill="#411F1F"/>
<path d="M237.467 342.7H159.098V348.792H237.467V342.7Z" fill="#FAA21E"/>
<path d="M222.21 345.719L198.283 342.7L174.355 345.719L198.283 356.146L222.21 345.719Z" fill="#FAA21E"/>
<path d="M237.467 342.7C237.467 329.803 219.905 319.376 198.283 319.376C176.66 319.376 159.098 329.803 159.098 342.7H237.467Z" fill="#AB7029"/>
<path d="M200.862 391.489H275.938V402.959H212.332C205.966 402.904 200.862 397.8 200.862 391.489Z" fill="#FAA21E"/>
<path d="M304.86 424.307V462.998H266.17C266.17 441.649 283.512 424.307 304.86 424.307Z" fill="#FAA21E"/>
<path d="M262.767 452.406H304.86V462.998H252.175C252.175 457.181 256.895 452.406 262.767 452.406Z" fill="#FAA21E"/>
<path d="M272.7 382.489H335.209V442.802H286.585C278.902 442.802 272.7 436.601 272.7 428.917V382.489Z" fill="#CF3339"/>
<path d="M246.193 345.554H318.855V382.488H257.059C251.077 382.488 246.193 377.604 246.193 371.622V345.554Z" fill="#FAA21E"/>
<path d="M291.415 335.511H313.531C325.55 335.511 335.264 345.225 335.264 357.244V382.489H279.67V347.2C279.67 340.725 284.939 335.511 291.415 335.511Z" fill="#FAA21E"/>
<path d="M246.193 345.554H264.688V348.353C264.688 353.951 260.133 358.506 254.535 358.506H246.193V345.554Z" fill="#411F1F"/>
<path d="M296.793 394.727H307.494V421.728C301.567 421.728 296.793 416.953 296.793 411.026V394.727Z" fill="#FAA21E"/>
<path d="M335.264 424.307V462.998H296.573C296.573 441.649 313.861 424.307 335.264 424.307Z" fill="#FAA21E"/>
<path d="M293.116 452.406H335.209V462.998H282.524C282.524 457.181 287.299 452.406 293.116 452.406Z" fill="#FAA21E"/>
<path d="M279.67 345.554H291.524C291.524 349.505 288.341 352.688 284.39 352.688H279.725V345.554H279.67Z" fill="#411F1F"/>
<path d="M296.189 345.554H308.043C308.043 349.505 304.86 352.688 300.909 352.688H296.244V345.554H296.189Z" fill="#411F1F"/>
<path d="M324.562 342.371H279.67V345.554H324.562V342.371Z" fill="#411F1F"/>
<path d="M313.861 335.511C325.66 335.511 335.209 345.06 335.209 356.859V386.605C335.209 392.532 330.434 397.306 324.507 397.306C318.58 397.306 313.806 392.532 313.806 386.605V335.511H313.861Z" fill="#411F1F"/>
<path d="M246.193 367.451H300.25C302.281 367.451 303.927 369.098 303.927 371.128C303.927 373.159 302.281 374.805 300.25 374.805H246.193V367.451Z" fill="white"/>
<path d="M179.02 345.115H190.709V380.074C190.709 383.312 188.075 385.891 184.892 385.891C181.654 385.891 179.074 383.257 179.074 380.074V345.115H179.02Z" fill="#FAA21E"/>
</svg>
