<svg width="172" height="139" viewBox="0 0 172 139" fill="none" xmlns="http://www.w3.org/2000/svg">
<path d="M171 49.2H105.5V51.4C105.5 56.7 109.8 60.9999 115.1 60.9999H161.4C166.7 60.9999 171 56.7 171 51.4V49.2Z" fill="#AB7029"/>
<path d="M105.5 40.8999H171V49.1999H105.5V40.8999Z" fill="#A9AE38"/>
<path d="M105.5 40.8999H171V45.0999H105.5V40.8999Z" fill="#B32029"/>
<path d="M163.3 25.7H113.2C108.9 25.7 105.5 29.2 105.5 33.4C105.5 37.7 109 41.0999 113.2 41.0999H163.3C167.6 41.0999 171 37.6 171 33.4C171 29.2 167.5 25.7 163.3 25.7Z" fill="#411F1F"/>
<path d="M105.4 20.2998H171.4V25.3998H105.4V20.2998Z" fill="#FAA21E"/>
<path d="M118.3 22.7999L138.5 20.2L158.7 22.7999L138.5 31.5999L118.3 22.7999Z" fill="#FAA21E"/>
<path d="M105.4 20.2999C105.4 9.49993 120.2 0.699951 138.4 0.699951C156.6 0.699951 171.4 9.49993 171.4 20.2999H105.4Z" fill="#AB7029"/>
<path d="M144.9 61.3999H63.9999V73.6999H132.6C139.4 73.6999 144.9 68.1999 144.9 61.3999Z" fill="#FAA21E"/>
<path d="M32.8 96.7998V138.5H74.5C74.5 115.5 55.8 96.7998 32.8 96.7998Z" fill="#FAA21E"/>
<path d="M78.2001 127.1H32.8001V138.5H89.6001C89.6001 132.2 84.5001 127.1 78.2001 127.1Z" fill="#FAA21E"/>
<path d="M67.5 51.7H0.0999756V116.7H52.5C60.8 116.7 67.5 110 67.5 101.7V51.7Z" fill="#B32029"/>
<path d="M96 11.8999H17.7V51.6999H84.3C90.8 51.6999 96 46.4999 96 39.9999V11.8999Z" fill="#FAA21E"/>
<path d="M47.3 1H23.5C10.6 1 0.0999756 11.5 0.0999756 24.4V51.7H60V13.6C59.9 6.69998 54.3 1 47.3 1Z" fill="#FAA21E"/>
<path d="M96 11.8999H76V14.8999C76 20.8999 80.9 25.7999 86.9 25.7999H95.9V11.8999H96Z" fill="#411F1F"/>
<path d="M41.5 64.8999H30V93.9999C36.4 93.9999 41.5 88.7999 41.5 82.4999V64.8999Z" fill="#FAA21E"/>
<path d="M-0.000305176 96.7998V138.5H41.6997C41.6997 115.5 23.0997 96.7998 -0.000305176 96.7998Z" fill="#FAA21E"/>
<path d="M45.3998 127.1H-0.000137329V138.5H56.7999C56.8999 132.2 51.6998 127.1 45.3998 127.1Z" fill="#FAA21E"/>
<path d="M59.7998 12H46.9998C46.9998 16.3 50.4998 19.7 54.6998 19.7H59.6998V12H59.7998Z" fill="#411F1F"/>
<path d="M42.1001 11.8999H29.3001C29.3001 16.1999 32.8001 19.5999 37.0001 19.5999H42.0001V11.8999H42.1001Z" fill="#411F1F"/>
<path d="M11.4999 9H59.8999V12.4H11.4999V9Z" fill="#411F1F"/>
<path d="M23.1001 1C10.4001 1 0.100098 11.3 0.100098 24V56.1C0.100098 62.5 5.3001 67.6 11.6001 67.6C18.0001 67.6 23.1001 62.4 23.1001 56.1V1Z" fill="#411F1F"/>
<path d="M96 35.5H37.7C35.5 35.5 33.7 37.3 33.7 39.5C33.7 41.7 35.5 43.5 37.7 43.5H96V35.5Z" fill="white"/>
<path d="M154.7 22.2998H144.9V51.6998C144.9 54.3998 147.1 56.5998 149.8 56.5998C152.5 56.5998 154.7 54.3998 154.7 51.6998V22.2998Z" fill="#FAA21E"/>
</svg>
