<svg width="208" height="300" viewBox="0 0 208 300" fill="none" xmlns="http://www.w3.org/2000/svg">
<path d="M207.3 0H3.1001V121.9H207.3V0Z" fill="#ED5D28"/>
<path d="M63.3001 117L3.1001 141.8V121.9L27.0001 106.1L63.3001 117Z" fill="#ED5D28"/>
<rect x="45" y="60" width="78" height="22" fill="white"/>
<path d="M165 71L120 96.9808L120 45.0192L165 71Z" fill="white"/>
<path d="M171 210.2H105.5V212.4C105.5 217.7 109.8 222 115.1 222H161.4C166.7 222 171 217.7 171 212.4V210.2Z" fill="#AB7029"/>
<path d="M171 201.9H105.5V210.2H171V201.9Z" fill="#A9AE38"/>
<path d="M171 201.9H105.5V206.1H171V201.9Z" fill="#B32029"/>
<path d="M163.3 186.7H113.2C108.9 186.7 105.5 190.2 105.5 194.4C105.5 198.7 109 202.1 113.2 202.1H163.3C167.6 202.1 171 198.6 171 194.4C171 190.1 167.6 186.7 163.3 186.7Z" fill="#411F1F"/>
<path d="M171.5 181.2H105.5V186.3H171.5V181.2Z" fill="#FAA21E"/>
<path d="M118.3 183.8L138.5 181.2L158.7 183.8L138.5 192.6L118.3 183.8Z" fill="#FAA21E"/>
<path d="M105.5 181.2C105.5 170.4 120.3 161.6 138.5 161.6C156.7 161.6 171.5 170.4 171.5 181.2H105.5Z" fill="#AB7029"/>
<path d="M145 222.4H64.1001V234.7H132.7C139.4 234.7 145 229.2 145 222.4Z" fill="#FAA21E"/>
<path d="M32.7998 257.8V299.5H74.4998C74.4998 276.5 55.8998 257.8 32.7998 257.8Z" fill="#FAA21E"/>
<path d="M78.1998 288.1H32.7998V299.5H89.6998C89.6998 293.2 84.4998 288.1 78.1998 288.1Z" fill="#FAA21E"/>
<path d="M67.5001 212.7H0.100098V277.7H52.5001C60.8001 277.7 67.5001 271 67.5001 262.7V212.7Z" fill="#B32029"/>
<path d="M96.1002 172.9H17.7002V212.7H84.3002C90.8002 212.7 96.0002 207.5 96.0002 201V172.9H96.1002Z" fill="#FAA21E"/>
<path d="M47.3001 162H23.5001C10.6001 162 0.100098 172.5 0.100098 185.4V212.7H60.0001V174.6C60.0001 167.7 54.3001 162 47.3001 162Z" fill="#FAA21E"/>
<path d="M96.1001 172.9H76.1001V175.9C76.1001 181.9 81.0001 186.8 87.0001 186.8H96.0001V172.9H96.1001Z" fill="#411F1F"/>
<path d="M41.5 225.9H30V255C36.4 255 41.5 249.8 41.5 243.5V225.9Z" fill="#FAA21E"/>
<path d="M0 257.8V299.5H41.7C41.8 276.5 23.1 257.8 0 257.8Z" fill="#FAA21E"/>
<path d="M45.5001 288.1H0.100098V299.5H56.9001C56.9001 293.2 51.8001 288.1 45.5001 288.1Z" fill="#FAA21E"/>
<path d="M60.0002 172.9H47.2002C47.2002 177.2 50.7002 180.6 54.9002 180.6H59.9002V172.9H60.0002Z" fill="#411F1F"/>
<path d="M42.0998 172.9H29.2998C29.2998 177.2 32.7998 180.6 36.9998 180.6H41.9998V172.9H42.0998Z" fill="#411F1F"/>
<path d="M60.0001 169.4H11.6001V172.8H60.0001V169.4Z" fill="#411F1F"/>
<path d="M23.1001 162C10.4001 162 0.100098 172.3 0.100098 185V217.1C0.100098 223.5 5.3001 228.6 11.6001 228.6C18.0001 228.6 23.1001 223.4 23.1001 217.1V162Z" fill="#411F1F"/>
<path d="M96.0998 196.5H37.7998C35.5998 196.5 33.7998 198.3 33.7998 200.5C33.7998 202.7 35.5998 204.5 37.7998 204.5H96.0998V196.5Z" fill="white"/>
<path d="M154.7 183.3H144.9V212.7C144.9 215.4 147.1 217.6 149.8 217.6C152.5 217.6 154.7 215.4 154.7 212.7V183.3Z" fill="#FAA21E"/>
</svg>
