<svg width="609" height="239" viewBox="0 0 609 239" fill="none" xmlns="http://www.w3.org/2000/svg">
<path d="M281.6 106.573H305.9C319.2 106.573 330 117.913 330 131.878H257.4C257.4 117.913 268.3 106.573 281.6 106.573Z" fill="#AB7029"/>
<path d="M330 131.983H257.4V141.433H330V131.983Z" fill="#FAA21E"/>
<path d="M257.9 140.803H329.5C334.4 140.803 338.4 145.003 338.4 150.147C338.4 155.292 334.4 159.492 329.5 159.492H257.9C253 159.492 249 155.292 249 150.147C249.1 144.898 253 140.803 257.9 140.803Z" fill="#592B2B"/>
<path d="M330 159.387H257.4V170.412H330V159.387Z" fill="#B32029"/>
<path d="M330 170.307H257.4V183.327H330V170.307Z" fill="#A9AE38"/>
<path d="M257.4 183.432H330V188.892C330 196.872 323.9 203.277 316.3 203.277H271.1C263.5 203.277 257.4 196.872 257.4 188.892V183.432V183.432Z" fill="#AB7029"/>
<path d="M275.3 131.983H282.6V173.037C282.6 175.137 281 176.817 279 176.817C277 176.817 275.4 175.137 275.4 173.037V131.983H275.3Z" fill="#FAA21E"/>
<path d="M282.6 131.983H293.8V138.388C293.8 144.898 288.8 150.148 282.6 150.148V131.983Z" fill="#FAA21E"/>
<path d="M395.9 62.579H420.2C433.5 62.579 444.3 73.9188 444.3 87.8837H371.7C371.7 73.9188 382.5 62.579 395.9 62.579Z" fill="#AB7029"/>
<path d="M444.3 87.8837H371.7V97.3334H444.3V87.8837Z" fill="#FAA21E"/>
<path d="M444.3 114.553H371.7V124.003H444.3V114.553Z" fill="#FAA21E"/>
<path d="M372.2 96.7035H443.8C448.7 96.7035 452.7 100.903 452.7 106.048C452.7 111.193 448.7 115.393 443.8 115.393H372.2C367.3 115.393 363.3 111.193 363.3 106.048C363.4 100.903 367.3 96.7035 372.2 96.7035Z" fill="#592B2B"/>
<path d="M372.2 123.583H443.8C448.7 123.583 452.7 127.783 452.7 132.928C452.7 138.073 448.7 142.273 443.8 142.273H372.2C367.3 142.273 363.3 138.073 363.3 132.928C363.4 127.678 367.3 123.583 372.2 123.583Z" fill="#592B2B"/>
<path d="M444.3 159.387H371.7V170.412H444.3V159.387Z" fill="#B32029"/>
<path d="M444.3 142.168H371.7V153.402H444.3V142.168Z" fill="#FAA21E"/>
<path d="M444.3 170.307H371.7V183.327H444.3V170.307Z" fill="#A9AE38"/>
<path d="M444.3 153.297H371.7V159.807H444.3V153.297Z" fill="#A9AE38"/>
<path d="M371.7 183.432H444.3V188.892C444.3 196.872 438.2 203.277 430.6 203.277H385.4C377.8 203.277 371.7 196.872 371.7 188.892V183.432V183.432Z" fill="#AB7029"/>
<path d="M389.6 87.8837H396.9V128.938C396.9 131.038 395.3 132.718 393.3 132.718C391.3 132.718 389.7 131.038 389.7 128.938V87.8837H389.6Z" fill="#FAA21E"/>
<path d="M418.9 120.328H426.2V161.382C426.2 163.482 424.6 165.162 422.6 165.162C420.6 165.162 419 163.482 419 161.382V120.328H418.9Z" fill="#FAA21E"/>
<path d="M396.8 87.8837H408V94.2885C408 100.798 403 106.048 396.8 106.048V87.8837Z" fill="#FAA21E"/>
<path d="M558.6 136.708H486V153.193H558.6V136.708Z" fill="#B32029"/>
<path d="M558.1 108.988H486.5V123.478H558.1V108.988Z" fill="#FAA21E"/>
<path d="M510.2 0H534.5C547.8 0 558.6 11.3399 558.6 25.3046H486C486 11.3399 496.8 0 510.2 0Z" fill="#AB7029"/>
<path d="M558.6 25.4097H486V34.8594H558.6V25.4097Z" fill="#FAA21E"/>
<path d="M558.6 51.9741H486V61.424H558.6V51.9741Z" fill="#FAA21E"/>
<path d="M486.5 34.1245H558.1C563 34.1245 567 38.3244 567 43.4693C567 48.6142 563 52.8141 558.1 52.8141H486.5C481.6 52.8141 477.6 48.6142 477.6 43.4693C477.6 38.3244 481.6 34.1245 486.5 34.1245Z" fill="#592B2B"/>
<path d="M486.5 61.004H558.1C563 61.004 567 65.2039 567 70.3488C567 75.4938 563 79.6937 558.1 79.6937H486.5C481.6 79.6937 477.6 75.4938 477.6 70.3488C477.6 65.0989 481.6 61.004 486.5 61.004Z" fill="#592B2B"/>
<path d="M486.5 90.5085H558.1C563 90.5085 567 94.7085 567 99.8535C567 104.998 563 109.198 558.1 109.198H486.5C481.6 109.198 477.6 104.998 477.6 99.8535C477.6 94.7085 481.6 90.5085 486.5 90.5085Z" fill="#592B2B"/>
<path d="M558.6 159.387H486V170.412H558.6V159.387Z" fill="#B32029"/>
<path d="M558.1 79.5886H486.5V90.6135H558.1V79.5886Z" fill="#FAA21E"/>
<path d="M558.6 170.307H486V183.327H558.6V170.307Z" fill="#A9AE38"/>
<path d="M558.6 153.297H486V159.807H558.6V153.297Z" fill="#A9AE38"/>
<path d="M486.5 121.903H558.1C563 121.903 567 126.103 567 131.248C567 136.393 563 140.593 558.1 140.593H486.5C481.6 140.593 477.6 136.393 477.6 131.248C477.6 126.103 481.6 121.903 486.5 121.903Z" fill="#592B2B"/>
<path d="M486 183.432H558.6V188.892C558.6 196.872 552.5 203.277 544.9 203.277H499.7C492.1 203.277 486 196.872 486 188.892V183.432V183.432Z" fill="#AB7029"/>
<path d="M503.9 25.4097H511.2V66.4639C511.2 68.5638 509.6 70.2438 507.6 70.2438C505.6 70.2438 504 68.5638 504 66.4639V25.4097H503.9Z" fill="#FAA21E"/>
<path d="M533.2 57.854H540.5V98.9084C540.5 101.008 538.9 102.688 536.9 102.688C534.9 102.688 533.3 101.008 533.3 98.9084V57.854H533.2Z" fill="#FAA21E"/>
<path d="M503.9 90.5085H511.2V131.563C511.2 133.663 509.6 135.343 507.6 135.343C505.6 135.343 504 133.663 504 131.563V90.5085H503.9Z" fill="#FAA21E"/>
<path d="M525.1 120.328H532.4V161.382C532.4 163.482 530.8 165.162 528.8 165.162C526.8 165.162 525.2 163.482 525.2 161.382V120.328H525.1Z" fill="#FAA21E"/>
<path d="M511.1 25.4097H522.3V31.8145C522.3 38.3244 517.3 43.5742 511.1 43.5742V25.4097Z" fill="#FAA21E"/>
<path d="M540.4 79.5886H551.6V85.9935C551.6 92.5034 546.6 97.7534 540.4 97.7534V79.5886Z" fill="#FAA21E"/>
<path d="M609 203H0V239H609V203Z" fill="#CF3339"/>
<path d="M89.5024 113.134H147.474V48C135.44 48 124.314 54.3511 118.202 64.6656L89.5024 113.134Z" fill="#A9AE38"/>
<path d="M205.445 113.134H147.474V48C159.507 48 170.634 54.3511 176.746 64.6656L205.445 113.134Z" fill="#A9AE38"/>
<path d="M172.926 91.5502H121.401C102.396 91.5502 87.0193 106.926 87.0193 125.932V203.5H207.308V125.932C207.308 106.974 191.931 91.5502 172.926 91.5502Z" fill="#ED5D28"/>
<path d="M147.474 104.921C159.263 104.921 168.819 95.3643 168.819 83.5756C168.819 71.7869 159.263 62.2302 147.474 62.2302C135.685 62.2302 126.129 71.7869 126.129 83.5756C126.129 95.3643 135.685 104.921 147.474 104.921Z" fill="#411F1F"/>
<path d="M201.53 203.768C189.783 203.768 180.232 194.218 180.232 182.471V133.763C191.979 133.763 201.53 143.314 201.53 155.061V203.768Z" fill="#411F1F"/>
<path d="M244.507 166.76L201.53 107.022V203.769H225.549C238.442 203.769 248.9 193.311 248.9 180.418C248.9 175.499 247.372 170.772 244.507 166.76Z" fill="#ED5D28"/>
<path d="M93.4182 203.768C105.165 203.768 114.716 194.218 114.716 182.471V133.763C102.969 133.763 93.4182 143.314 93.4182 155.061V203.768Z" fill="#411F1F"/>
<path d="M50.3933 166.76L93.3704 107.022V203.769H69.3509C56.4578 203.769 46 193.311 46 180.418C46 175.499 47.5281 170.772 50.3933 166.76Z" fill="#ED5D28"/>
<path d="M185.819 147.946H108.46C108.46 133.668 120.016 122.112 134.294 122.112H159.937C174.215 122.064 185.819 133.668 185.819 147.946Z" fill="#AB7029"/>
<path d="M108.46 186.721H185.819C185.819 196.128 178.179 203.768 168.771 203.768H125.508C116.053 203.768 108.46 196.128 108.46 186.721Z" fill="#AB7029"/>
<path d="M181.617 173.159H112.567C107.457 173.159 103.303 169.005 103.303 163.895C103.303 158.786 107.457 154.631 112.567 154.631H181.617C186.726 154.631 190.881 158.786 190.881 163.895C190.881 169.053 186.726 173.159 181.617 173.159Z" fill="#592B2B"/>
<path d="M187.347 180.036H106.837C106.837 183.713 109.845 186.721 113.522 186.721H180.614C184.386 186.721 187.347 183.713 187.347 180.036Z" fill="#A9AE38"/>
<path d="M185.58 147.946H108.651C108.651 151.623 111.66 154.631 115.336 154.631H178.895C182.62 154.631 185.58 151.623 185.58 147.946Z" fill="#FAA21E"/>
<path d="M190.881 173.064H104.067V179.94H190.881V173.064Z" fill="#CF3339"/>
<path d="M140.168 181.85C137.589 181.85 135.44 179.749 135.44 177.123V153.39H144.848V177.123C144.848 179.749 142.746 181.85 140.168 181.85Z" fill="#FAA21E"/>
<path d="M144.847 163.943V147.946H154.255V154.536C154.255 159.741 150.052 163.943 144.847 163.943Z" fill="#FAA21E"/>
<path d="M168.819 80.5672H157.693C148.142 80.5672 140.407 72.8313 140.407 63.2808V58.5533H168.867V80.5672H168.819Z" fill="#A9AE38"/>
</svg>
