<svg width="284" height="352" viewBox="0 0 284 352" fill="none" xmlns="http://www.w3.org/2000/svg">
<path d="M251.2 248.5H233.2V351.8H251.2V248.5Z" fill="#411F1F"/>
<path d="M242.1 267.2C264.799 267.2 283.2 248.799 283.2 226.1C283.2 203.401 264.799 185 242.1 185C219.401 185 201 203.401 201 226.1C201 248.799 219.401 267.2 242.1 267.2Z" fill="#A9AE38"/>
<path d="M92.3998 58C80.6914 58 71.1999 48.5084 71.1999 36.8C71.1999 25.0916 80.6914 15.6 92.3998 15.6C104.108 15.6 113.6 25.0916 113.6 36.8C113.6 48.5084 104.108 58 92.3998 58Z" fill="#FAA21E"/>
<path d="M130.2 61.3999H54.6C36.2 61.3999 21.3 76.2999 21.3 94.6999V170.7H163.5V94.6999C163.5 76.2999 148.6 61.3999 130.2 61.3999Z" fill="#411F1F"/>
<path d="M92.4 170.7H163.5V317.9H92.4V170.7Z" fill="#A9AE38"/>
<path d="M21.9 170.7H93V317.9H21.9V170.7Z" fill="#A9AE38"/>
<path d="M184.9 350.2H92.3999V317.9H163.5L184.9 350.2Z" fill="#B32029"/>
<path d="M0 350.2H92.5V317.9H21.3L0 350.2Z" fill="#B32029"/>
<path d="M118 116H163.5V248.7H118V116Z" fill="#411F1F"/>
<path d="M163.5 248.8H88.8C88.8 262.8 100.1 274.1 114.1 274.1H138.1C152.1 274.1 163.5 262.8 163.5 248.8Z" fill="#FAA21E"/>
<path d="M141.4 220.7H63.7999V232.7C63.7999 241.6 70.9999 248.8 79.8999 248.8H125.3C134.2 248.8 141.4 241.6 141.4 232.7V220.7Z" fill="#AB7029"/>
<path d="M63.7999 210.9H141.4V220.8H63.7999V210.9Z" fill="#A9AE38"/>
<path d="M63.7999 210.9H141.4V215.8H63.7999V210.9Z" fill="#B32029"/>
<path d="M132.3 192.9H72.9999C67.9999 192.9 63.8999 197 63.8999 202C63.8999 207 67.9999 211.1 72.9999 211.1H132.3C137.3 211.1 141.4 207 141.4 202C141.4 197 137.3 192.9 132.3 192.9Z" fill="#411F1F"/>
<path d="M63.7999 186.5H141.9V192.5H63.7999V186.5Z" fill="#FAA21E"/>
<path d="M78.9998 189.5L102.9 186.5L126.8 189.5L102.9 199.9L78.9998 189.5Z" fill="#FAA21E"/>
<path d="M63.7998 186.5C63.7998 164.9 81.2998 147.5 102.8 147.5C124.3 147.5 141.8 165 141.8 186.5H63.7998Z" fill="#AB7029"/>
<path d="M93.4999 0H63.7999V11.8C63.7999 22.5 72.5 31.2 83.2 31.2H112.9V19.4C112.9 8.69996 104.2 0 93.4999 0Z" fill="#411F1F"/>
<path d="M117.6 36.8C117.6 32.8 114.4 29.6 110.4 29.6H96.0999V44H110.4C114.4 44 117.6 40.8 117.6 36.8Z" fill="#FAA21E"/>
<path d="M92.9999 18.2H102.6V44.2H92.9999V18.2Z" fill="#411F1F"/>
<path d="M83.8999 187.9H74.0999V217.3C74.0999 220 76.2999 222.2 78.9999 222.2C81.6999 222.2 83.8999 220 83.8999 217.3V187.9Z" fill="#FAA21E"/>
</svg>
