<svg xmlns="http://www.w3.org/2000/svg" viewBox="0 0 606.92 409.97"><defs><style>.cls-1{fill:#a9ae38}.cls-2{fill:#ab7029}.cls-3{fill:#592b2b}.cls-4{fill:#faa21e}.cls-5{fill:#b32029}.cls-6{fill:#fff}</style></defs><g id="Layer_2" data-name="Layer 2"><g id="website_artwork" data-name="website artwork"><rect width="606.92" height="409.97" class="cls-1"/><g id="Group_138" data-name="Group 138"><path id="Rectangle_563" d="M401.75,159H206.89A65.11,65.11,0,0,1,272,93.88h64.63A65.11,65.11,0,0,1,401.75,159Z" class="cls-2" data-name="Rectangle 563"/><path id="Rectangle_564" d="M206.89,256.66H401.76a43,43,0,0,1-43,43H249.86a43,43,0,0,1-43-43Z" class="cls-2" data-name="Rectangle 564"/><path id="Rectangle_565" d="M378.47,222.56H230.18a23.28,23.28,0,0,1-23.29-23.28h0A23.28,23.28,0,0,1,230.18,176H378.47a23.28,23.28,0,0,1,23.28,23.28h0A23.28,23.28,0,0,1,378.47,222.56Z" class="cls-3" data-name="Rectangle 565"/><path id="Rectangle_566" d="M388.83,256.66h-169A16.85,16.85,0,0,1,203,239.81H405.69A16.85,16.85,0,0,1,388.83,256.66Z" class="cls-1" data-name="Rectangle 566"/><path id="Rectangle_567" d="M384.36,175.85H224.28A16.85,16.85,0,0,1,207.43,159H401.22A16.85,16.85,0,0,1,384.36,175.85Z" class="cls-4" data-name="Rectangle 567"/><rect id="Rectangle_568" width="218.69" height="17.34" x="194.11" y="222.28" class="cls-5" data-name="Rectangle 568"/><path id="Rectangle_569" d="M321.9,244.38h0A11.85,11.85,0,0,1,310,232.53h0V172.81h23.71v59.72a11.84,11.84,0,0,1-11.85,11.85Z" class="cls-4" data-name="Rectangle 569"/><path id="Rectangle_570" d="M310,199.28h0a23.72,23.72,0,0,1-23.72-23.71h0V159H310v40.29Z" class="cls-4" data-name="Rectangle 570"/></g><path d="M107.42,299.63H499.5a0,0,0,0,1,0,0v0a40.15,40.15,0,0,1-40.15,40.15H147.57a40.15,40.15,0,0,1-40.15-40.15v0a0,0,0,0,1,0,0Z" class="cls-6"/></g></g></svg>