<svg xmlns="http://www.w3.org/2000/svg" width="1440" height="409" fill="none" viewBox="0 0 1440 409"><path fill="#FAA21E" d="M434.824 244.773H350.643V257.594H422.004C429.019 257.594 434.824 251.909 434.824 244.773Z"/><path fill="#FAA21E" d="M318.108 281.663V325.084H361.529C361.529 301.015 342.056 281.663 318.108 281.663Z"/><path fill="#FAA21E" d="M365.399 313.11H318.108V324.963H377.252C377.252 318.431 371.931 313.11 365.399 313.11Z"/><path fill="#CF3339" d="M354.151 234.734H284V302.345H338.548C347.136 302.345 354.151 295.33 354.151 286.742V234.734Z"/><path fill="#FAA21E" d="M383.905 193.248H302.384V234.734H371.689C378.462 234.734 383.905 229.291 383.905 222.518V193.248V193.248Z"/><path fill="#FAA21E" d="M333.227 182H308.432C295.006 182 284 192.886 284 206.432V234.734H346.289V195.184C346.41 187.927 340.484 182 333.227 182Z"/><path fill="#411F1F" d="M383.905 193.248H363.101V196.393C363.101 202.682 368.181 207.762 374.471 207.762H383.905V193.248Z"/><path fill="#FAA21E" d="M327.179 248.401H315.205V278.76C321.857 278.76 327.179 273.438 327.179 266.786V248.401Z"/><path fill="#FAA21E" d="M284 281.663V325.084H327.421C327.421 301.015 308.069 281.663 284 281.663Z"/><path fill="#FAA21E" d="M331.291 313.11H284V324.963H343.145C343.145 318.431 337.823 313.11 331.291 313.11Z"/><path fill="#411F1F" d="M346.41 193.248H333.106C333.106 197.724 336.734 201.231 341.088 201.231H346.289V193.248H346.41Z"/><path fill="#411F1F" d="M327.784 193.248H314.479C314.479 197.724 318.108 201.231 322.462 201.231H327.663V193.248H327.784Z"/><path fill="#411F1F" d="M296.095 189.741H346.41V193.369H296.095V189.741Z"/><path fill="#411F1F" d="M308.069 182C294.886 182 284.121 192.765 284.121 205.948V239.33C284.121 245.982 289.443 251.304 296.095 251.304C302.747 251.304 308.069 245.982 308.069 239.33V182V182Z"/><path fill="#fff" d="M383.905 217.801H323.309C321.011 217.801 319.196 219.615 319.196 221.913C319.196 224.212 321.011 226.026 323.309 226.026H383.905V217.801Z"/><path fill="#AB7029" d="M461.917 233.404H393.701V235.702C393.701 241.265 398.177 245.741 403.74 245.741H451.878C457.442 245.741 461.917 241.265 461.917 235.702V233.404V233.404Z"/><path fill="#A9AE38" d="M393.701 224.695H461.917V233.404H393.701V224.695Z"/><path fill="#CF3339" d="M393.701 224.695H461.917V229.05H393.701V224.695Z"/><path fill="#411F1F" d="M453.814 208.851H401.684C397.209 208.851 393.702 212.479 393.702 216.834C393.702 221.309 397.33 224.816 401.684 224.816H453.814C458.289 224.816 461.796 221.188 461.796 216.834C461.917 212.479 458.289 208.851 453.814 208.851Z"/><path fill="#FAA21E" d="M393.702 203.166H462.28V208.488H393.702V203.166Z"/><path fill="#FAA21E" d="M407.006 205.827L427.93 203.166L448.855 205.827L427.93 215.019L407.006 205.827Z"/><path fill="#AB7029" d="M393.702 203.166C393.702 191.918 409.062 182.726 428.051 182.726C447.04 182.726 462.401 191.918 462.401 203.166H393.702Z"/><path fill="#FAA21E" d="M444.863 204.134H434.704V234.734C434.704 237.516 437.002 239.814 439.784 239.814C442.565 239.814 444.863 237.516 444.863 234.734V204.134Z"/><path fill="#A9AE38" d="M514.668 71.2979H541.046C549.914 71.2979 557.098 78.4818 557.098 87.3494V109.462H552.72C531.73 109.35 514.668 92.4006 514.668 71.2979Z"/><path fill="#CF3339" d="M552.159 325.092H480.769L504.229 298.04H552.159V325.092Z"/><path fill="#411F1F" d="M551.036 221.935H503.106V297.928H551.036V221.935Z"/><path fill="#411F1F" d="M587.854 221.935H539.924V297.928H587.854V221.935Z"/><path fill="#AB7029" d="M403.43 48.7112H430.145C444.961 48.7112 456.972 60.7218 456.972 75.5386H376.602C376.602 60.7218 388.613 48.7112 403.43 48.7112Z"/><path fill="#AB7029" d="M439.237 133.571H394.337C384.572 133.571 376.602 125.601 376.602 115.836H456.972C456.972 125.714 449.002 133.571 439.237 133.571Z"/><path fill="#592B2B" d="M386.143 82.6103H447.319C452.594 82.6103 456.972 86.8757 456.972 92.2636C456.972 97.5393 452.707 101.917 447.319 101.917H386.143C380.868 101.917 376.49 97.6516 376.49 92.2636C376.602 86.8757 380.868 82.6103 386.143 82.6103Z"/><path fill="#A9AE38" d="M374.918 108.876H458.544C458.544 112.693 455.401 115.836 451.584 115.836H381.878C378.061 115.836 374.918 112.805 374.918 108.876Z"/><path fill="#FAA21E" d="M376.714 75.5386H456.635C456.635 79.355 453.492 82.498 449.676 82.498H383.674C379.857 82.498 376.714 79.4673 376.714 75.5386Z"/><path fill="#CF3339" d="M462.248 101.693H372V108.876H462.248V101.693Z"/><path fill="#FAA21E" d="M404.552 81.2633H414.318V105.958C414.318 108.652 412.073 110.897 409.379 110.897C406.685 110.897 404.44 108.652 404.44 105.958V81.2633H404.552Z"/><path fill="#FAA21E" d="M414.43 75.5386H424.196V82.3858C424.196 87.7737 419.818 92.1514 414.43 92.1514V75.5386Z"/><path fill="#CF3339" d="M557.434 133.596H503.219V221.935H587.854V164.015C587.854 147.178 574.159 133.596 557.434 133.596Z"/><path fill="#CF3339" d="M520.056 133.596H447.768V165.923H520.056V133.596Z"/><path fill="#ED5D28" d="M414.205 133.596H447.768V165.923H446.533C428.686 165.923 414.205 151.443 414.205 133.596Z"/><path fill="#ED5D28" d="M539.924 126.524C549.409 126.524 557.098 118.835 557.098 109.35C557.098 99.8651 549.409 92.1761 539.924 92.1761C530.439 92.1761 522.75 99.8651 522.75 109.35C522.75 118.835 530.439 126.524 539.924 126.524Z"/><path fill="#FFE8C9" d="M516.352 133.596H503.106V225.64H516.352V133.596Z"/><path fill="#FFE8C9" d="M558.782 133.596H545.536V225.64H558.782V133.596Z"/><path fill="#FFE8C9" d="M503.106 221.935H559.118V231.027C559.118 262.008 533.974 287.039 503.106 287.039V221.935Z"/><path fill="#CF3339" d="M587.854 325.092H516.464L539.924 298.04H587.854V325.092V325.092Z"/><path fill="#ED5D28" d="M559.23 221.935H587.854V257.63C572.027 257.63 559.23 244.834 559.23 229.007V221.935Z"/><path fill="#ED5D28" d="M554.853 109.911C559.316 109.911 562.935 106.293 562.935 101.83C562.935 97.366 559.316 93.7476 554.853 93.7476C550.389 93.7476 546.771 97.366 546.771 101.83C546.771 106.293 550.389 109.911 554.853 109.911Z"/><path fill="#A9AE38" d="M550.251 92.1761H543.403V108.901H550.251V92.1761Z"/><path fill="#FAA21E" d="M417.106 67.3692C433.224 67.3692 446.29 54.3028 446.29 38.1846C446.29 22.0664 433.224 9 417.106 9C400.988 9 387.921 22.0664 387.921 38.1846C387.921 54.3028 400.988 67.3692 417.106 67.3692Z"/><path fill="#fff" d="M416.769 16.5206L423.392 29.9904L438.209 32.1231L427.433 42.5622L430.014 57.379L416.769 50.4196L403.524 57.379L406.105 42.5622L395.33 32.1231L410.146 29.9904L416.769 16.5206Z"/><path fill="#A9AE38" d="M887.695 325.092H959.085L935.625 298.04H887.695V325.092V325.092Z"/><path fill="#FFE8C9" d="M936.748 221.935H888.817V297.928H936.748V221.935Z"/><path fill="#FFE8C9" d="M899.93 221.935H852V297.928H899.93V221.935Z"/><path fill="#AB7029" d="M1063.25 75.5386H982.882C982.882 60.7218 994.892 48.7112 1009.71 48.7112H1036.42C1051.24 48.7112 1063.25 60.7218 1063.25 75.5386Z"/><path fill="#AB7029" d="M982.882 115.836H1063.25C1063.25 125.601 1055.28 133.571 1045.52 133.571H1000.62C990.851 133.571 982.882 125.714 982.882 115.836Z"/><path fill="#592B2B" d="M1053.71 101.805H992.535C987.259 101.805 982.882 97.5394 982.882 92.1515C982.882 86.8758 987.147 82.498 992.535 82.498H1053.71C1058.99 82.498 1063.36 86.7635 1063.36 92.1515C1063.25 97.5394 1058.99 101.805 1053.71 101.805Z"/><path fill="#A9AE38" d="M1057.98 115.836H988.27C984.453 115.836 981.31 112.693 981.31 108.876H1064.94C1064.94 112.805 1061.79 115.836 1057.98 115.836Z"/><path fill="#FAA21E" d="M1056.07 82.498H990.066C986.249 82.498 983.106 79.355 983.106 75.5386H1063.03C1063.03 79.4673 1059.88 82.498 1056.07 82.498Z"/><path fill="#CF3339" d="M1067.85 101.693H977.606V108.876H1067.85V101.693Z"/><path fill="#FAA21E" d="M1030.36 110.785C1027.67 110.785 1025.42 108.54 1025.42 105.846V81.151H1035.19V105.846C1035.19 108.652 1033.06 110.785 1030.36 110.785Z"/><path fill="#FAA21E" d="M1025.42 92.1514C1020.04 92.1514 1015.66 87.7737 1015.66 82.3858V75.5386H1025.42V92.1514Z"/><path fill="#A9AE38" d="M882.419 133.596C865.582 133.596 852 147.178 852 164.015V221.935H936.635V133.596H882.419Z"/><path fill="#A9AE38" d="M992.086 133.596H919.798V165.923H992.086V133.596Z"/><path fill="#FAA21E" d="M993.321 165.923H992.086V133.596H1025.65C1025.65 151.443 1011.17 165.923 993.321 165.923Z"/><path fill="#FAA21E" d="M917.104 109.35C917.104 118.779 909.359 126.524 899.93 126.524C890.501 126.524 882.756 118.779 882.756 109.35C882.756 99.9212 890.501 92.1761 899.93 92.1761C907.787 92.1761 914.635 97.5641 916.543 105.197C916.88 106.656 917.104 108.003 917.104 109.35Z"/><path fill="#CF3339" d="M936.635 133.596H923.39V224.517H936.635V133.596Z"/><path fill="#CF3339" d="M894.318 133.596H881.072V224.517H894.318V133.596Z"/><path fill="#CF3339" d="M936.635 287.039C905.655 287.039 880.623 261.896 880.623 231.027V221.935H936.635V287.039Z"/><path fill="#A9AE38" d="M852 325.092H923.39L899.93 298.04H852V325.092V325.092Z"/><path fill="#FAA21E" d="M852 257.63V221.935H880.623V229.007C880.623 244.834 867.827 257.63 852 257.63Z"/><path fill="#592B2B" d="M916.543 105.309H883.205C885.45 96.1048 894.767 90.4924 904.083 92.7373C910.257 94.1966 915.084 99.0233 916.543 105.309Z"/><path fill="#592B2B" d="M882.644 99.6968C892.129 99.6968 899.818 92.0077 899.818 82.5228C899.818 73.0378 892.129 65.3488 882.644 65.3488C873.159 65.3488 865.47 73.0378 865.47 82.5228C865.47 92.0077 873.159 99.6968 882.644 99.6968Z"/><path fill="#CF3339" d="M1023.07 67.3692C1039.19 67.3692 1052.25 54.3028 1052.25 38.1846C1052.25 22.0664 1039.19 9 1023.07 9C1006.95 9 993.884 22.0664 993.884 38.1846C993.884 54.3028 1006.95 67.3692 1023.07 67.3692Z"/><path fill="#fff" d="M1022.73 16.5206L1029.35 29.9904L1044.17 32.1231L1033.4 42.5622L1035.98 57.379L1022.73 50.4196L1009.49 57.379L1012.07 42.5622L1001.29 32.1231L1016.11 29.9904L1022.73 16.5206Z"/><path fill="#FAA21E" d="M1176.66 168.484H1104.19V228.643H1176.66V168.484Z"/><path fill="#411F1F" d="M1140.43 228.643H1104.19V301.026H1140.43V228.643Z"/><path fill="#411F1F" d="M1176.66 228.643H1137.37V301.026H1176.66V228.643Z"/><path fill="#411F1F" d="M1131.69 301.026H1140.77V325.212H1107.6C1107.51 311.853 1118.33 301.026 1131.69 301.026Z"/><path fill="#411F1F" d="M1173.95 325.212H1138.15V301.026H1140.77H1149.85C1163.13 301.026 1173.95 311.853 1173.95 325.212Z"/><path fill="#AB7029" d="M1007 296H1084V310.5C1084 318.525 1077.79 325 1070.1 325H1020.98C1013.29 325 1007.09 318.525 1007.09 310.5V296H1007Z"/><path fill="#A9AE38" d="M1084.11 286.881H1007.18V296.661H1084.11V286.881Z"/><path fill="#CF3339" d="M1084.11 286.881H1007.18V291.771H1084.11V286.881Z"/><path fill="#A9AE38" d="M1084.11 259.028H1007.18V268.807H1084.11V259.028Z"/><path fill="#CF3339" d="M1084.11 259.028H1007.18V263.918H1084.11V259.028Z"/><path fill="#411F1F" d="M1016.26 240.954H1075.11C1080.09 240.954 1084.2 244.971 1084.2 250.035C1084.2 255.012 1080.18 259.116 1075.11 259.116H1016.26C1011.29 259.116 1007.18 255.099 1007.18 250.035C1007.18 244.971 1011.29 240.954 1016.26 240.954Z"/><path fill="#411F1F" d="M1016.26 268.807H1075.11C1080.09 268.807 1084.2 272.824 1084.2 277.888C1084.2 282.865 1080.18 286.969 1075.11 286.969H1016.26C1011.29 286.969 1007.18 282.952 1007.18 277.888C1007.18 272.824 1011.29 268.807 1016.26 268.807Z"/><path fill="#FAA21E" d="M1084.11 234.493H1006.66V240.518H1084.11V234.493Z"/><path fill="#FAA21E" d="M1069.09 237.549L1045.43 234.581L1021.77 237.549L1045.43 247.852L1069.09 237.549Z"/><path fill="#AB7029" d="M1084.11 234.493C1084.11 213.101 1066.82 195.813 1045.43 195.813C1024.04 195.813 1006.75 213.101 1006.75 234.493H1084.11Z"/><path fill="#FAA21E" d="M1112.92 168.484H1040.45V195.813H1112.92V168.484Z"/><path fill="#CF3339" d="M1034.16 168.484H1040.45V195.813H1006.83C1006.83 180.708 1019.06 168.484 1034.16 168.484Z"/><path fill="#A9AE38" d="M1155.27 114H1125.58V157.744H1155.27V114Z"/><path fill="#CF3339" d="M1140.43 172.5C1148.62 172.5 1155.27 165.855 1155.27 157.657C1155.27 149.459 1148.62 142.814 1140.43 142.814C1132.23 142.814 1125.58 149.459 1125.58 157.657C1125.58 165.855 1132.23 172.5 1140.43 172.5Z"/><path fill="#CF3339" d="M1125.58 161.935C1127.94 161.935 1129.86 160.02 1129.86 157.657C1129.86 155.294 1127.94 153.379 1125.58 153.379C1123.22 153.379 1121.3 155.294 1121.3 157.657C1121.3 160.02 1123.22 161.935 1125.58 161.935Z"/><path fill="#CF3339" d="M1155.27 161.935C1157.63 161.935 1159.55 160.02 1159.55 157.657C1159.55 155.294 1157.63 153.379 1155.27 153.379C1152.91 153.379 1150.99 155.294 1150.99 157.657C1150.99 160.02 1152.91 161.935 1155.27 161.935Z"/><path fill="#FAA21E" d="M1013.21 240.518H1021.77V276.404C1021.77 278.761 1019.84 280.682 1017.49 280.682C1015.13 280.682 1013.21 278.761 1013.21 276.404V240.518V240.518Z"/><path fill="#411F1F" d="M1261.93 131.282H1355.22C1355.22 148.744 1341.01 162.949 1323.55 162.949H1261.93V131.282Z"/><path fill="#AB7029" d="M1245.65 107.125C1264.74 107.125 1280.21 91.6507 1280.21 72.5624C1280.21 53.4742 1264.74 38 1245.65 38C1226.56 38 1211.08 53.4742 1211.08 72.5624C1211.08 91.6507 1226.56 107.125 1245.65 107.125Z"/><path fill="#CF3339" d="M1244.29 123.23C1265.01 123.23 1281.84 140.059 1281.84 160.778V185.569H1206.74V160.778C1206.74 140.059 1223.57 123.23 1244.29 123.23Z"/><path fill="#FAA21E" d="M1302.83 250.893H1185.66L1206.74 185.569H1281.84L1302.83 250.893Z"/><path fill="#411F1F" d="M1244.29 250.893H1206.74V300.203H1244.29V250.893Z"/><path fill="#411F1F" d="M1281.84 250.893H1242.12V300.203H1281.84V250.893Z"/><path fill="#CF3339" d="M1244.29 300.203V306.085L1233.16 312.87C1219.95 320.923 1204.75 325.175 1189.28 325.175L1199.41 310.608L1206.65 300.203H1244.29Z"/><path fill="#CF3339" d="M1225.47 306.175H1244.2V324.904C1233.88 324.904 1225.47 316.489 1225.47 306.175Z"/><path fill="#CF3339" d="M1235.24 300.203V306.085L1255.42 312.87C1268.63 320.923 1283.83 325.175 1299.3 325.175L1289.17 310.608L1281.93 300.203H1235.24Z"/><path fill="#CF3339" d="M1244.29 324.904L1235.24 306.175H1244.29H1263.02C1263.02 316.489 1254.6 324.904 1244.29 324.904Z"/><path fill="#411F1F" d="M1244.29 116.263C1252.23 116.263 1258.68 109.822 1258.68 101.877C1258.68 93.9319 1252.23 87.4912 1244.29 87.4912C1236.34 87.4912 1229.9 93.9319 1229.9 101.877C1229.9 109.822 1236.34 116.263 1244.29 116.263Z"/><path fill="#AB7029" d="M1279.67 105.134C1284.76 105.134 1288.9 101.002 1288.9 95.9055C1288.9 90.8087 1284.76 86.6769 1279.67 86.6769C1274.57 86.6769 1270.44 90.8087 1270.44 95.9055C1270.44 101.002 1274.57 105.134 1279.67 105.134Z"/><path fill="#AB7029" d="M1291.07 117.801C1296.16 117.801 1300.3 113.669 1300.3 108.572C1300.3 103.475 1296.16 99.3437 1291.07 99.3437C1285.97 99.3437 1281.84 103.475 1281.84 108.572C1281.84 113.669 1285.97 117.801 1291.07 117.801Z"/><path fill="#AB7029" d="M1211.63 105.134C1216.72 105.134 1220.86 101.002 1220.86 95.9055C1220.86 90.8087 1216.72 86.6769 1211.63 86.6769C1206.53 86.6769 1202.4 90.8087 1202.4 95.9055C1202.4 101.002 1206.53 105.134 1211.63 105.134Z"/><path fill="#AB7029" d="M1200.32 117.801C1205.41 117.801 1209.55 113.669 1209.55 108.572C1209.55 103.475 1205.41 99.3437 1200.32 99.3437C1195.22 99.3437 1191.09 103.475 1191.09 108.572C1191.09 113.669 1195.22 117.801 1200.32 117.801Z"/><path fill="#AB7029" d="M1318.39 109.477H1377.74V118.615C1377.74 125.401 1372.22 130.92 1365.44 130.92H1330.7C1323.91 130.92 1318.39 125.401 1318.39 118.615V109.477Z"/><path fill="#A9AE38" d="M1377.65 101.968H1318.39V109.477H1377.65V101.968Z"/><path fill="#CF3339" d="M1377.65 101.968H1318.39V105.768H1377.65V101.968Z"/><path fill="#411F1F" d="M1325.45 88.215H1370.78C1374.67 88.215 1377.74 91.3817 1377.74 95.1818C1377.74 99.0723 1374.58 102.149 1370.78 102.149H1325.45C1321.56 102.149 1318.48 98.9818 1318.48 95.1818C1318.39 91.2913 1321.56 88.215 1325.45 88.215Z"/><path fill="#FAA21E" d="M1377.74 83.2387H1318.03V87.853H1377.74V83.2387Z"/><path fill="#FAA21E" d="M1366.16 85.5911L1347.89 83.2387L1329.61 85.5911L1347.89 93.5532L1366.16 85.5911Z"/><path fill="#AB7029" d="M1377.74 83.2387C1377.74 66.7718 1364.35 53.3812 1347.89 53.3812C1331.42 53.3812 1318.03 66.7718 1318.03 83.2387H1377.74Z"/><path fill="#411F1F" d="M1258.59 109.025C1261.03 109.025 1263.02 107.04 1263.02 104.591C1263.02 102.143 1261.03 100.158 1258.59 100.158C1256.14 100.158 1254.15 102.143 1254.15 104.591C1254.15 107.04 1256.14 109.025 1258.59 109.025Z"/><path fill="#411F1F" d="M1229.9 109.025C1232.35 109.025 1234.34 107.04 1234.34 104.591C1234.34 102.143 1232.35 100.158 1229.9 100.158C1227.46 100.158 1225.47 102.143 1225.47 104.591C1225.47 107.04 1227.46 109.025 1229.9 109.025Z"/><path fill="#FAA21E" d="M1318.03 85.1387H1326.9V111.739C1326.9 114.182 1324.91 116.172 1322.46 116.172C1320.02 116.172 1318.03 114.182 1318.03 111.739V85.1387Z"/><path fill="#AB7029" d="M796 181H644V325H796V181Z"/><path fill="#FFE8C9" d="M663.1 181H701.1V235.5C701.1 246 692.6 254.5 682.1 254.5C671.6 254.5 663.1 246 663.1 235.5V181Z"/><path fill="#CF3339" d="M701.1 181H739.1V235.5C739.1 246 730.6 254.5 720.1 254.5C709.6 254.5 701.1 246 701.1 235.5V181Z"/><path fill="#CF3339" d="M625 181H663V235.5C663 246 654.5 254.5 644 254.5C633.5 254.5 625 246 625 235.5V181Z"/><path fill="#FFE8C9" d="M739 181H777V235.5C777 246 768.5 254.5 758 254.5C747.5 254.5 739 246 739 235.5V181Z"/><path fill="#CF3339" d="M777 181H815V235.5C815 246 806.5 254.5 796 254.5C785.5 254.5 777 246 777 235.5V181Z"/><path fill="#411F1F" d="M720 264.7H668.7V324.8H720V264.7Z"/><path fill="#411F1F" d="M773.3 264.7H732.3V305.7H773.3V264.7Z"/><path fill="#FFE8C9" d="M773.3 294.3H732.3V305.7H773.3V294.3Z"/><path fill="#FFE8C9" d="M707.1 305.6C710.193 305.6 712.7 303.093 712.7 300C712.7 296.907 710.193 294.4 707.1 294.4C704.007 294.4 701.5 296.907 701.5 300C701.5 303.093 704.007 305.6 707.1 305.6Z"/><path fill="#ED5D28" d="M191.84 80.7843H176.92V104.138H209.819V98.763C209.726 88.8469 201.757 80.7843 191.84 80.7843Z"/><path fill="#FAA21E" d="M137.719 132.774H220.106V204.504H137.719V132.774Z"/><path fill="#411F1F" d="M193.323 128.419C183.189 128.419 174.974 120.203 174.974 110.069C174.974 99.9351 183.189 91.7198 193.323 91.7198C203.457 91.7198 211.673 99.9351 211.673 110.069C211.673 120.203 203.457 128.419 193.323 128.419Z"/><path fill="#411F1F" d="M209.726 117.668C205.53 117.668 202.127 114.266 202.127 110.069C202.127 105.872 205.53 102.47 209.726 102.47C213.923 102.47 217.326 105.872 217.326 110.069C217.326 114.266 213.923 117.668 209.726 117.668Z"/><path fill="#411F1F" d="M176.92 117.668C172.723 117.668 169.321 114.266 169.321 110.069C169.321 105.872 172.723 102.47 176.92 102.47C181.117 102.47 184.519 105.872 184.519 110.069C184.519 114.266 181.117 117.668 176.92 117.668Z"/><path fill="#FAA21E" d="M137.719 94.3146H162.185V133.423H137.719V94.3146Z"/><path fill="#FAA21E" d="M207.108 132.774H287.108V156.774H207.108V132.774Z"/><path fill="#411F1F" d="M162.185 94.3146C162.185 85.7887 155.234 78.8381 146.708 78.8381H118.536C118.536 87.3641 125.486 94.3146 134.012 94.3146H162.185Z"/><path fill="#411F1F" d="M287.108 157.24C300.639 157.24 311.574 146.305 311.574 132.774H287.108V157.24Z"/><path fill="#411F1F" d="M305.828 142.968H326.217C328.997 142.968 331.314 140.651 331.314 137.871C331.314 135.091 328.997 132.774 326.217 132.774H305.828V142.968Z"/><path fill="#ED5D28" d="M178.959 204.504H220.106V306.63H178.959V204.504Z"/><path fill="#ED5D28" d="M87.7679 204.504H188.133V245.651H87.7679V204.504Z"/><path fill="#FAA21E" d="M178.866 325.165H235.86L220.013 306.63H178.866V325.165Z"/><path fill="#FAA21E" d="M69.2333 245.651V188.656L87.768 204.504V245.651H69.2333Z"/><path fill="#AB7029" d="M119.048 245.652H94.0263C80.1252 245.652 68.8191 256.958 68.8191 270.859H144.163C144.255 256.958 132.949 245.652 119.048 245.652Z"/><path fill="#AB7029" d="M85.5003 325.166H127.667C136.841 325.166 144.255 317.752 144.255 308.577H68.9117C68.9117 317.752 76.3256 325.166 85.5003 325.166Z"/><path fill="#592B2B" d="M135.266 277.439H77.901C72.8966 277.439 68.9117 281.424 68.9117 286.428C68.9117 291.432 72.8966 295.417 77.901 295.417H135.266C140.27 295.417 144.255 291.432 144.255 286.428C144.255 281.424 140.27 277.439 135.266 277.439Z"/><path fill="#A9AE38" d="M145.831 302.09H67.4289C67.4289 305.704 70.3018 308.577 73.9161 308.577H139.251C142.865 308.577 145.831 305.704 145.831 302.09Z"/><path fill="#FAA21E" d="M144.07 270.859H69.097C69.097 274.473 71.9699 277.346 75.5841 277.346H137.49C141.104 277.346 144.07 274.381 144.07 270.859Z"/><path fill="#CF3339" d="M63.9999 295.325H148.518V301.997H63.9999V295.325Z"/><path fill="#FAA21E" d="M117.936 276.141H108.761V299.217C108.761 301.719 110.8 303.758 113.302 303.758C115.805 303.758 117.843 301.719 117.843 299.217V276.141H117.936Z"/><path fill="#FAA21E" d="M108.761 270.859H99.5866V277.253C99.5866 282.35 103.664 286.428 108.761 286.428V270.859Z"/><path fill="#AB7029" d="M150.502 0H125.666C111.858 0 100.644 11.2135 100.644 25.0219H175.524C175.432 11.2135 164.311 0 150.502 0Z"/><path fill="#AB7029" d="M117.14 79.0506H158.936C168.018 79.0506 175.432 71.6367 175.432 62.5547H100.644C100.644 71.6367 108.058 79.0506 117.14 79.0506Z"/><path fill="#592B2B" d="M166.535 31.509H109.541C104.629 31.509 100.644 35.494 100.644 40.4057C100.644 45.3174 104.629 49.3024 109.541 49.3024H166.535C171.447 49.3024 175.432 45.3174 175.432 40.4057C175.432 35.494 171.447 31.509 166.535 31.509Z"/><path fill="#A9AE38" d="M177.007 56.0675H99.1613C99.1613 59.6818 102.034 62.5547 105.648 62.5547H170.52C174.042 62.462 177.007 59.5891 177.007 56.0675Z"/><path fill="#FAA21E" d="M175.246 25.0219H100.83C100.83 28.6361 103.702 31.509 107.317 31.509H168.759C172.373 31.509 175.246 28.5434 175.246 25.0219Z"/><path fill="#CF3339" d="M95.7324 49.3024H179.695V55.9749H95.7324V49.3024Z"/><path fill="#FAA21E" d="M149.39 30.3043H140.308V53.1946C140.308 55.6968 142.347 57.7356 144.849 57.7356C147.352 57.7356 149.39 55.6968 149.39 53.1946V30.3043V30.3043Z"/><path fill="#FAA21E" d="M140.216 25.0219H131.134V31.4163C131.134 36.4207 135.211 40.4983 140.216 40.4983V25.0219Z"/><path fill="#AB7029" d="M312.887 53.8303H288.051C274.242 53.8303 263.029 65.0438 263.029 78.8522H337.909C337.817 65.0438 326.696 53.8303 312.887 53.8303Z"/><path fill="#AB7029" d="M279.525 132.881H321.321C330.403 132.881 337.817 125.467 337.817 116.385H263.029C263.029 125.467 270.443 132.881 279.525 132.881Z"/><path fill="#592B2B" d="M328.92 85.3394H271.926C267.014 85.3394 263.029 89.3243 263.029 94.236C263.029 99.1477 267.014 103.133 271.926 103.133H328.92C333.832 103.133 337.817 99.1477 337.817 94.236C337.817 89.3243 333.832 85.3394 328.92 85.3394Z"/><path fill="#A9AE38" d="M339.392 109.898H261.546C261.546 113.512 264.419 116.385 268.033 116.385H332.905C336.426 116.292 339.392 113.419 339.392 109.898Z"/><path fill="#FAA21E" d="M337.631 78.8522H263.214C263.214 82.4664 266.087 85.3393 269.702 85.3393H331.144C334.758 85.3393 337.631 82.3738 337.631 78.8522Z"/><path fill="#CF3339" d="M258.117 103.133H342.08V109.805H258.117V103.133Z"/><path fill="#FAA21E" d="M311.775 84.1346H302.693V107.025C302.693 109.527 304.732 111.566 307.234 111.566C309.737 111.566 311.775 109.527 311.775 107.025V84.1346V84.1346Z"/><path fill="#FAA21E" d="M302.601 78.8522H293.519V85.2467C293.519 90.251 297.596 94.3287 302.601 94.3287V78.8522Z"/><path fill="#AB7029" d="M1342.1 242.552H1368C1382.4 242.552 1394 254.252 1394 268.552H1316.1C1316.1 254.252 1327.8 242.552 1342.1 242.552Z"/><path fill="#AB7029" d="M1376.9 324.852H1333.3C1323.8 324.852 1316.1 317.152 1316.1 307.652H1394C1394 317.152 1386.4 324.852 1376.9 324.852Z"/><path fill="#592B2B" d="M1320.3 275.452H1389.8C1394.9 275.452 1399.1 279.652 1399.1 284.752C1399.1 289.852 1394.9 294.052 1389.8 294.052H1320.3C1315.2 294.052 1311 289.852 1311 284.752C1311 279.552 1315.2 275.452 1320.3 275.452Z"/><path fill="#A9AE38" d="M1314.5 300.952H1395.6C1395.6 304.652 1392.6 307.652 1388.9 307.652H1321.3C1317.5 307.652 1314.5 304.652 1314.5 300.952Z"/><path fill="#FAA21E" d="M1316.3 268.552H1393.8C1393.8 272.252 1390.8 275.252 1387.1 275.252H1323.1C1319.3 275.352 1316.3 272.352 1316.3 268.552Z"/><path fill="#ED5D28" d="M1399.2 293.952H1311.7V300.852H1399.2V293.952Z"/><path fill="#FAA21E" d="M1343.3 274.152H1352.8V298.052C1352.8 300.652 1350.7 302.752 1348.1 302.752C1345.5 302.752 1343.4 300.652 1343.4 298.052V274.152H1343.3Z"/><path fill="#FAA21E" d="M1352.8 268.552H1362.3V275.152C1362.3 280.352 1358.1 284.652 1352.8 284.652V268.552Z"/><path fill="#FFE8C9" d="M1355.4 259C1369.76 259 1381.4 247.359 1381.4 233C1381.4 218.641 1369.76 207 1355.4 207C1341.04 207 1329.4 218.641 1329.4 233C1329.4 247.359 1341.04 259 1355.4 259Z"/><path fill="#CF3339" d="M1341.88 222.45C1345.38 218.95 1350.98 218.95 1354.38 222.45L1367.88 235.95L1355.38 248.45L1341.88 234.95C1338.48 231.45 1338.48 225.85 1341.88 222.45Z"/><path fill="#CF3339" d="M1355.38 248.45L1342.88 235.95L1356.38 222.45C1359.88 218.95 1365.48 218.95 1368.88 222.45C1372.38 225.95 1372.38 231.55 1368.88 234.95L1355.38 248.45Z"/><path fill="#411F1F" d="M755.549 146C775.431 126.118 775.431 93.8823 755.549 74C735.667 54.1178 703.431 54.1177 683.549 74C663.667 93.8823 663.667 126.118 683.549 146C703.431 165.882 735.667 165.882 755.549 146Z"/><path fill="#411F1F" d="M719.549 110L683.549 146L719.549 182L755.549 146L719.549 110Z"/><path fill="#ED5D28" d="M693.72 131V124.95H703.12V101.55H702.67L695.57 110.85L690.77 107.1L699.12 96.1H710.62V124.95H718.02V131H693.72ZM734 131.6C729.333 131.6 725.883 130.017 723.65 126.85C721.45 123.683 720.35 119.25 720.35 113.55C720.35 107.85 721.45 103.417 723.65 100.25C725.883 97.0833 729.333 95.5 734 95.5C738.667 95.5 742.1 97.0833 744.3 100.25C746.533 103.417 747.65 107.85 747.65 113.55C747.65 119.25 746.533 123.683 744.3 126.85C742.1 130.017 738.667 131.6 734 131.6ZM734 125.7C736.233 125.7 737.783 124.917 738.65 123.35C739.55 121.783 740 119.6 740 116.8V110.3C740 107.5 739.55 105.317 738.65 103.75C737.783 102.183 736.233 101.4 734 101.4C731.767 101.4 730.2 102.183 729.3 103.75C728.433 105.317 728 107.5 728 110.3V116.8C728 119.6 728.433 121.783 729.3 123.35C730.2 124.917 731.767 125.7 734 125.7ZM734 116.5C732.833 116.5 732.017 116.267 731.55 115.8C731.117 115.333 730.9 114.767 730.9 114.1V113C730.9 112.333 731.117 111.767 731.55 111.3C732.017 110.833 732.833 110.6 734 110.6C735.167 110.6 735.967 110.833 736.4 111.3C736.867 111.767 737.1 112.333 737.1 113V114.1C737.1 114.767 736.867 115.333 736.4 115.8C735.967 116.267 735.167 116.5 734 116.5Z"/><rect width="1440" height="84" y="325" fill="#A9AE38"/></svg>