<svg width="826" height="405" viewBox="0 0 826 405" fill="none" xmlns="http://www.w3.org/2000/svg">
<path d="M181.824 240.773H97.6434V253.594H169.004C176.019 253.594 181.824 247.909 181.824 240.773Z" fill="#FAA21E"/>
<path d="M65.1078 277.663V321.084H108.529C108.529 297.015 89.0559 277.663 65.1078 277.663Z" fill="#FAA21E"/>
<path d="M112.399 309.11H65.1079V320.963H124.252C124.252 314.431 118.931 309.11 112.399 309.11Z" fill="#FAA21E"/>
<path d="M101.151 230.734H31V298.345H85.5483C94.1358 298.345 101.151 291.33 101.151 282.742V230.734Z" fill="#CF3339"/>
<path d="M130.905 189.248H49.3843V230.734H118.689C125.462 230.734 130.905 225.291 130.905 218.518V189.248V189.248Z" fill="#FAA21E"/>
<path d="M80.2266 178H55.4318C42.0064 178 31 188.886 31 202.432V230.734H93.2892V191.184C93.4101 183.927 87.4835 178 80.2266 178Z" fill="#FAA21E"/>
<path d="M130.905 189.248H110.101V192.393C110.101 198.682 115.181 203.762 121.471 203.762H130.905V189.248Z" fill="#411F1F"/>
<path d="M74.1792 244.401H62.2053V274.76C68.8575 274.76 74.1792 269.438 74.1792 262.786V244.401Z" fill="#FAA21E"/>
<path d="M31.0001 277.663V321.084H74.4211C74.4211 297.015 55.0691 277.663 31.0001 277.663Z" fill="#FAA21E"/>
<path d="M78.2914 309.11H31V320.963H90.1445C90.1445 314.431 84.8227 309.11 78.2914 309.11Z" fill="#FAA21E"/>
<path d="M93.4102 189.248H80.1057C80.1057 193.724 83.7341 197.231 88.0883 197.231H93.2892V189.248H93.4102Z" fill="#411F1F"/>
<path d="M74.7837 189.248H61.4792C61.4792 193.724 65.1078 197.231 69.462 197.231H74.6628V189.248H74.7837Z" fill="#411F1F"/>
<path d="M43.0951 185.741H93.4102V189.369H43.0951V185.741Z" fill="#411F1F"/>
<path d="M55.0691 178C41.8856 178 31.121 188.765 31.121 201.948V235.33C31.121 241.982 36.4428 247.304 43.095 247.304C49.7473 247.304 55.0691 241.982 55.0691 235.33V178V178Z" fill="#411F1F"/>
<path d="M130.905 213.801H70.3087C68.0107 213.801 66.1964 215.615 66.1964 217.913C66.1964 220.212 68.0107 222.026 70.3087 222.026H130.905V213.801Z" fill="white"/>
<path d="M208.917 229.404H140.701V231.702C140.701 237.265 145.177 241.741 150.74 241.741H198.878C204.442 241.741 208.917 237.265 208.917 231.702V229.404V229.404Z" fill="#AB7029"/>
<path d="M140.701 220.695H208.917V229.404H140.701V220.695Z" fill="#A9AE38"/>
<path d="M140.701 220.695H208.917V225.05H140.701V220.695Z" fill="#CF3339"/>
<path d="M200.814 204.851H148.684C144.209 204.851 140.702 208.479 140.702 212.834C140.702 217.309 144.33 220.816 148.684 220.816H200.814C205.289 220.816 208.796 217.188 208.796 212.834C208.917 208.479 205.289 204.851 200.814 204.851Z" fill="#411F1F"/>
<path d="M140.702 199.166H209.28V204.488H140.702V199.166Z" fill="#FAA21E"/>
<path d="M154.006 201.827L174.93 199.166L195.855 201.827L174.93 211.019L154.006 201.827Z" fill="#FAA21E"/>
<path d="M140.702 199.166C140.702 187.918 156.062 178.726 175.051 178.726C194.04 178.726 209.401 187.918 209.401 199.166H140.702Z" fill="#AB7029"/>
<path d="M191.863 200.134H181.704V230.734C181.704 233.516 184.002 235.814 186.784 235.814C189.565 235.814 191.863 233.516 191.863 230.734V200.134Z" fill="#FAA21E"/>
<path d="M232.668 67.2979H259.046C267.914 67.2979 275.098 74.4818 275.098 83.3494V105.462H270.72C249.73 105.35 232.668 88.4006 232.668 67.2979Z" fill="#A9AE38"/>
<path d="M270.159 321.092H198.769L222.229 294.04H270.159V321.092Z" fill="#CF3339"/>
<path d="M269.036 217.935H221.106V293.928H269.036V217.935Z" fill="#411F1F"/>
<path d="M305.854 217.935H257.924V293.928H305.854V217.935Z" fill="#411F1F"/>
<path d="M121.429 44.7112H148.145C162.961 44.7112 174.972 56.7218 174.972 71.5386H94.6021C94.6021 56.7218 106.613 44.7112 121.429 44.7112Z" fill="#AB7029"/>
<path d="M157.237 129.571H112.337C102.572 129.571 94.6021 121.601 94.6021 111.836H174.972C174.972 121.714 167.002 129.571 157.237 129.571Z" fill="#AB7029"/>
<path d="M104.143 78.6103H165.319C170.594 78.6103 174.972 82.8757 174.972 88.2636C174.972 93.5393 170.707 97.917 165.319 97.917H104.143C98.8677 97.917 94.49 93.6516 94.49 88.2636C94.6022 82.8757 98.8677 78.6103 104.143 78.6103Z" fill="#592B2B"/>
<path d="M92.9185 104.876H176.544C176.544 108.693 173.401 111.836 169.584 111.836H99.8778C96.0614 111.836 92.9185 108.805 92.9185 104.876Z" fill="#A9AE38"/>
<path d="M94.7144 71.5386H174.635C174.635 75.355 171.492 78.498 167.676 78.498H101.674C97.8574 78.498 94.7144 75.4673 94.7144 71.5386Z" fill="#FAA21E"/>
<path d="M180.248 97.6926H90V104.876H180.248V97.6926Z" fill="#CF3339"/>
<path d="M122.552 77.2633H132.318V101.958C132.318 104.652 130.073 106.897 127.379 106.897C124.685 106.897 122.44 104.652 122.44 101.958V77.2633H122.552Z" fill="#FAA21E"/>
<path d="M132.43 71.5386H142.196V78.3858C142.196 83.7737 137.818 88.1514 132.43 88.1514V71.5386Z" fill="#FAA21E"/>
<path d="M275.434 129.596H221.219V217.935H305.854V160.015C305.854 143.178 292.159 129.596 275.434 129.596Z" fill="#CF3339"/>
<path d="M238.056 129.596H165.768V161.923H238.056V129.596Z" fill="#CF3339"/>
<path d="M132.205 129.596H165.768V161.923H164.533C146.685 161.923 132.205 147.443 132.205 129.596Z" fill="#ED5D28"/>
<path d="M257.924 122.524C267.409 122.524 275.098 114.835 275.098 105.35C275.098 95.8651 267.409 88.1761 257.924 88.1761C248.439 88.1761 240.75 95.8651 240.75 105.35C240.75 114.835 248.439 122.524 257.924 122.524Z" fill="#ED5D28"/>
<path d="M234.352 129.596H221.106V221.64H234.352V129.596Z" fill="#FFE8C9"/>
<path d="M276.782 129.596H263.536V221.64H276.782V129.596Z" fill="#FFE8C9"/>
<path d="M221.106 217.935H277.118V227.027C277.118 258.008 251.975 283.039 221.106 283.039V217.935Z" fill="#FFE8C9"/>
<path d="M305.854 321.092H234.464L257.924 294.04H305.854V321.092V321.092Z" fill="#CF3339"/>
<path d="M277.23 217.935H305.854V253.63C290.027 253.63 277.23 240.834 277.23 225.007V217.935Z" fill="#ED5D28"/>
<path d="M272.853 105.911C277.316 105.911 280.935 102.293 280.935 97.8295C280.935 93.366 277.316 89.7476 272.853 89.7476C268.389 89.7476 264.771 93.366 264.771 97.8295C264.771 102.293 268.389 105.911 272.853 105.911Z" fill="#ED5D28"/>
<path d="M268.25 88.1761H261.403V104.901H268.25V88.1761Z" fill="#A9AE38"/>
<path d="M135.106 63.3692C151.224 63.3692 164.291 50.3028 164.291 34.1846C164.291 18.0664 151.224 5 135.106 5C118.988 5 105.921 18.0664 105.921 34.1846C105.921 50.3028 118.988 63.3692 135.106 63.3692Z" fill="#FAA21E"/>
<path d="M134.769 12.5206L141.392 25.9904L156.209 28.1231L145.433 38.5622L148.015 53.379L134.769 46.4196L121.524 53.379L124.106 38.5622L113.33 28.1231L128.147 25.9904L134.769 12.5206Z" fill="white"/>
<path d="M605.695 321.092H677.085L653.625 294.04H605.695V321.092V321.092Z" fill="#A9AE38"/>
<path d="M654.748 217.935H606.817V293.928H654.748V217.935Z" fill="#FFE8C9"/>
<path d="M617.93 217.935H570V293.928H617.93V217.935Z" fill="#FFE8C9"/>
<path d="M781.252 71.5386H700.882C700.882 56.7218 712.892 44.7112 727.709 44.7112H754.424C769.241 44.7112 781.252 56.7218 781.252 71.5386Z" fill="#AB7029"/>
<path d="M700.882 111.836H781.252C781.252 121.601 773.282 129.571 763.516 129.571H718.617C708.851 129.571 700.882 121.714 700.882 111.836Z" fill="#AB7029"/>
<path d="M771.71 97.8048H710.535C705.259 97.8048 700.882 93.5394 700.882 88.1515C700.882 82.8758 705.147 78.498 710.535 78.498H771.71C776.986 78.498 781.364 82.7635 781.364 88.1515C781.252 93.5394 776.986 97.8048 771.71 97.8048Z" fill="#592B2B"/>
<path d="M775.976 111.836H706.27C702.453 111.836 699.31 108.693 699.31 104.876H782.935C782.935 108.805 779.792 111.836 775.976 111.836Z" fill="#A9AE38"/>
<path d="M774.068 78.498H708.066C704.249 78.498 701.106 75.355 701.106 71.5386H781.027C781.027 75.4673 777.884 78.498 774.068 78.498Z" fill="#FAA21E"/>
<path d="M785.854 97.6926H695.606V104.876H785.854V97.6926Z" fill="#CF3339"/>
<path d="M748.363 106.785C745.669 106.785 743.424 104.54 743.424 101.846V77.151H753.19V101.846C753.19 104.652 751.057 106.785 748.363 106.785Z" fill="#FAA21E"/>
<path d="M743.424 88.1514C738.036 88.1514 733.658 83.7737 733.658 78.3858V71.5386H743.424V88.1514Z" fill="#FAA21E"/>
<path d="M600.419 129.596C583.582 129.596 570 143.178 570 160.015V217.935H654.635V129.596H600.419Z" fill="#A9AE38"/>
<path d="M710.086 129.596H637.798V161.923H710.086V129.596Z" fill="#A9AE38"/>
<path d="M711.321 161.923H710.086V129.596H743.648C743.648 147.443 729.168 161.923 711.321 161.923Z" fill="#FAA21E"/>
<path d="M635.104 105.35C635.104 114.779 627.359 122.524 617.93 122.524C608.501 122.524 600.756 114.779 600.756 105.35C600.756 95.9212 608.501 88.1761 617.93 88.1761C625.787 88.1761 632.635 93.5641 634.543 101.197C634.88 102.656 635.104 104.003 635.104 105.35Z" fill="#FAA21E"/>
<path d="M654.635 129.596H641.39V220.517H654.635V129.596Z" fill="#CF3339"/>
<path d="M612.318 129.596H599.072V220.517H612.318V129.596Z" fill="#CF3339"/>
<path d="M654.635 283.039C623.655 283.039 598.623 257.896 598.623 227.027V217.935H654.635V283.039Z" fill="#CF3339"/>
<path d="M570 321.092H641.39L617.93 294.04H570V321.092V321.092Z" fill="#A9AE38"/>
<path d="M570 253.63V217.935H598.623V225.007C598.623 240.834 585.827 253.63 570 253.63Z" fill="#FAA21E"/>
<path d="M634.543 101.309H601.205C603.45 92.1048 612.767 86.4924 622.083 88.7373C628.257 90.1966 633.084 95.0233 634.543 101.309Z" fill="#592B2B"/>
<path d="M600.644 95.6968C610.129 95.6968 617.818 88.0077 617.818 78.5228C617.818 69.0378 610.129 61.3488 600.644 61.3488C591.159 61.3488 583.47 69.0378 583.47 78.5228C583.47 88.0077 591.159 95.6968 600.644 95.6968Z" fill="#592B2B"/>
<path d="M741.069 63.3692C757.187 63.3692 770.253 50.3028 770.253 34.1846C770.253 18.0664 757.187 5 741.069 5C724.951 5 711.884 18.0664 711.884 34.1846C711.884 50.3028 724.951 63.3692 741.069 63.3692Z" fill="#CF3339"/>
<path d="M740.732 12.5206L747.355 25.9904L762.172 28.1231L751.396 38.5622L753.978 53.379L740.732 46.4196L727.487 53.379L730.069 38.5622L719.293 28.1231L734.109 25.9904L740.732 12.5206Z" fill="white"/>
<path d="M724.1 238.552H750C764.4 238.552 776 250.252 776 264.552H698.1C698.1 250.252 709.8 238.552 724.1 238.552Z" fill="#AB7029"/>
<path d="M758.9 320.852H715.3C705.8 320.852 698.1 313.152 698.1 303.652H776C776 313.152 768.4 320.852 758.9 320.852Z" fill="#AB7029"/>
<path d="M702.3 271.452H771.8C776.9 271.452 781.1 275.652 781.1 280.752C781.1 285.852 776.9 290.052 771.8 290.052H702.3C697.2 290.052 693 285.852 693 280.752C693 275.552 697.2 271.452 702.3 271.452Z" fill="#592B2B"/>
<path d="M696.5 296.952H777.6C777.6 300.652 774.6 303.652 770.9 303.652H703.3C699.5 303.652 696.5 300.652 696.5 296.952Z" fill="#A9AE38"/>
<path d="M698.3 264.552H775.8C775.8 268.252 772.8 271.252 769.1 271.252H705.1C701.3 271.352 698.3 268.352 698.3 264.552Z" fill="#FAA21E"/>
<path d="M781.2 289.952H693.7V296.852H781.2V289.952Z" fill="#ED5D28"/>
<path d="M725.3 270.152H734.8V294.052C734.8 296.652 732.7 298.752 730.1 298.752C727.5 298.752 725.4 296.652 725.4 294.052V270.152H725.3Z" fill="#FAA21E"/>
<path d="M734.8 264.552H744.3V271.152C744.3 276.352 740.1 280.652 734.8 280.652V264.552Z" fill="#FAA21E"/>
<path d="M737.4 255C751.76 255 763.4 243.359 763.4 229C763.4 214.641 751.76 203 737.4 203C723.041 203 711.4 214.641 711.4 229C711.4 243.359 723.041 255 737.4 255Z" fill="#FFE8C9"/>
<path d="M723.884 218.45C727.384 214.95 732.984 214.95 736.384 218.45L749.884 231.95L737.384 244.45L723.884 230.95C720.484 227.45 720.484 221.85 723.884 218.45Z" fill="#CF3339"/>
<path d="M737.384 244.45L724.884 231.95L738.384 218.45C741.884 214.95 747.484 214.95 750.884 218.45C754.384 221.95 754.384 227.55 750.884 230.95L737.384 244.45Z" fill="#CF3339"/>
<path d="M514 177H362V321H514V177Z" fill="#AB7029"/>
<path d="M381.1 177H419.1V231.5C419.1 242 410.6 250.5 400.1 250.5C389.6 250.5 381.1 242 381.1 231.5V177Z" fill="#FFE8C9"/>
<path d="M419.1 177H457.1V231.5C457.1 242 448.6 250.5 438.1 250.5C427.6 250.5 419.1 242 419.1 231.5V177Z" fill="#CF3339"/>
<path d="M343 177H381V231.5C381 242 372.5 250.5 362 250.5C351.5 250.5 343 242 343 231.5V177Z" fill="#CF3339"/>
<path d="M457 177H495V231.5C495 242 486.5 250.5 476 250.5C465.5 250.5 457 242 457 231.5V177Z" fill="#FFE8C9"/>
<path d="M495 177H533V231.5C533 242 524.5 250.5 514 250.5C503.5 250.5 495 242 495 231.5V177Z" fill="#CF3339"/>
<path d="M438 260.7H386.7V320.8H438V260.7Z" fill="#411F1F"/>
<path d="M491.3 260.7H450.3V301.7H491.3V260.7Z" fill="#411F1F"/>
<path d="M491.3 290.3H450.3V301.7H491.3V290.3Z" fill="#FFE8C9"/>
<path d="M425.1 301.6C428.193 301.6 430.7 299.093 430.7 296C430.7 292.907 428.193 290.4 425.1 290.4C422.007 290.4 419.5 292.907 419.5 296C419.5 299.093 422.007 301.6 425.1 301.6Z" fill="#FFE8C9"/>
<path d="M473.549 142C493.431 122.118 493.431 89.8823 473.549 70C453.667 50.1178 421.431 50.1177 401.549 70C381.667 89.8823 381.667 122.118 401.549 142C421.431 161.882 453.667 161.882 473.549 142Z" fill="#411F1F"/>
<path d="M437.549 106L401.549 142L437.549 178L473.549 142L437.549 106Z" fill="#411F1F"/>
<path d="M411.72 127V120.95H421.12V97.55H420.67L413.57 106.85L408.77 103.1L417.12 92.1H428.62V120.95H436.02V127H411.72ZM452 127.6C447.333 127.6 443.883 126.017 441.65 122.85C439.45 119.683 438.35 115.25 438.35 109.55C438.35 103.85 439.45 99.4167 441.65 96.25C443.883 93.0833 447.333 91.5 452 91.5C456.667 91.5 460.1 93.0833 462.3 96.25C464.533 99.4167 465.65 103.85 465.65 109.55C465.65 115.25 464.533 119.683 462.3 122.85C460.1 126.017 456.667 127.6 452 127.6ZM452 121.7C454.233 121.7 455.783 120.917 456.65 119.35C457.55 117.783 458 115.6 458 112.8V106.3C458 103.5 457.55 101.317 456.65 99.75C455.783 98.1833 454.233 97.4 452 97.4C449.767 97.4 448.2 98.1833 447.3 99.75C446.433 101.317 446 103.5 446 106.3V112.8C446 115.6 446.433 117.783 447.3 119.35C448.2 120.917 449.767 121.7 452 121.7ZM452 112.5C450.833 112.5 450.017 112.267 449.55 111.8C449.117 111.333 448.9 110.767 448.9 110.1V109C448.9 108.333 449.117 107.767 449.55 107.3C450.017 106.833 450.833 106.6 452 106.6C453.167 106.6 453.967 106.833 454.4 107.3C454.867 107.767 455.1 108.333 455.1 109V110.1C455.1 110.767 454.867 111.333 454.4 111.8C453.967 112.267 453.167 112.5 452 112.5Z" fill="#ED5D28"/>
<rect y="321" width="826" height="84" fill="#A9AE38"/>
</svg>
