<svg xmlns="http://www.w3.org/2000/svg" width="160" height="105" fill="none" viewBox="0 0 160 105"><path fill="#FAA21E" d="M13.7638 72.5C18.5134 72.5 22.3638 68.6497 22.3638 63.9C22.3638 59.1504 18.5134 55.2999 13.7638 55.2999C9.01411 55.2999 5.16376 59.1504 5.16376 63.9C5.16376 68.6497 9.01411 72.5 13.7638 72.5Z"/><path fill="#A9AE38" d="M28.2638 76.4H0.0637817V104.6H28.2638V76.4Z"/><path fill="#FFE8C9" d="M57.4638 72.5C62.2134 72.5 66.0638 68.6497 66.0638 63.9C66.0638 59.1504 62.2134 55.2999 57.4638 55.2999C52.7141 55.2999 48.8638 59.1504 48.8638 63.9C48.8638 68.6497 52.7141 72.5 57.4638 72.5Z"/><path fill="#ED5D28" d="M71.9638 76.4H43.7638V104.6H71.9638V76.4Z"/><path fill="#FAA21E" d="M101.164 72.5C105.913 72.5 109.764 68.6497 109.764 63.9C109.764 59.1504 105.913 55.2999 101.164 55.2999C96.4141 55.2999 92.5638 59.1504 92.5638 63.9C92.5638 68.6497 96.4141 72.5 101.164 72.5Z"/><path fill="#CF3339" d="M115.764 76.4H87.5638V104.6H115.764V76.4Z"/><path fill="#592B2B" d="M144.864 72.5C149.613 72.5 153.464 68.6497 153.464 63.9C153.464 59.1504 149.613 55.2999 144.864 55.2999C140.114 55.2999 136.264 59.1504 136.264 63.9C136.264 68.6497 140.114 72.5 144.864 72.5Z"/><path fill="#FAA21E" d="M159.464 76.4H131.264V104.6H159.464V76.4Z"/><path fill="#FFE8C9" d="M145.764 17.2C150.513 17.2 154.364 13.3496 154.364 8.59998C154.364 3.85033 150.513 0 145.764 0C141.014 0 137.164 3.85033 137.164 8.59998C137.164 13.3496 141.014 17.2 145.764 17.2Z"/><path fill="#A9AE38" d="M131.177 49.3771L159.377 49.3771L159.377 21.1771L131.177 21.1771L131.177 49.3771Z"/><path fill="#CF3339" d="M102.064 17.2C106.813 17.2 110.664 13.3496 110.664 8.59998C110.664 3.85033 106.813 0 102.064 0C97.3142 0 93.4638 3.85033 93.4638 8.59998C93.4638 13.3496 97.3142 17.2 102.064 17.2Z"/><path fill="#FAA21E" d="M87.4532 49.3771L115.653 49.3771L115.653 21.1771L87.4532 21.1771L87.4532 49.3771Z"/><path fill="#592B2B" d="M58.2638 17.2C63.0135 17.2 66.8638 13.3496 66.8638 8.59998C66.8638 3.85033 63.0135 0 58.2638 0C53.5142 0 49.6638 3.85033 49.6638 8.59998C49.6638 13.3496 53.5142 17.2 58.2638 17.2Z"/><path fill="#CF3339" d="M43.7241 49.3771L71.9241 49.3771L71.9241 21.1771L43.7241 21.1771L43.7241 49.3771Z"/><path fill="#CF3339" d="M14.5638 17.2C19.3135 17.2 23.1638 13.3496 23.1638 8.59998C23.1638 3.85033 19.3135 0 14.5638 0C9.81416 0 5.96381 3.85033 5.96381 8.59998C5.96381 13.3496 9.81416 17.2 14.5638 17.2Z"/><path fill="#FFE8C9" d="M1.52588e-05 49.3771L28.2 49.3771L28.2 21.1771L1.52601e-05 21.1771L1.52588e-05 49.3771Z"/></svg>