<svg xmlns="http://www.w3.org/2000/svg" width="104" height="92" fill="none" viewBox="0 0 104 92"><mask id="mask0" width="104" height="92" x="0" y="0" mask-type="alpha" maskUnits="userSpaceOnUse"><path fill="#FAA21E" d="M47.878 89.4774C50.3834 92.1041 54.4637 92.1041 57.0049 89.4774L95.9821 48.9411C107.292 37.1565 106.648 17.6338 93.9778 6.77204C82.9539 -2.70536 66.5255 -1.00156 56.4322 9.50522L52.4236 13.6582L48.4507 9.54071C38.3574 -1.00156 21.929 -2.70536 10.9051 6.77204C-1.72934 17.6338 -2.40939 37.1565 8.9008 48.9411L47.878 89.4774Z"/></mask><g mask="url(#mask0)"><path fill="#AB7029" d="M77.1863 -7.58716H23.6393C-6.13116 -7.58716 -30.3072 7.61222 -30.3072 26.3288H131.133C130.933 7.61222 106.957 -7.58716 77.1863 -7.58716Z"/><path fill="#AB7029" d="M21.7979 94.1551H78.4996C90.8206 94.1551 100.879 84.0971 100.879 71.7761H-0.581154C-0.581154 84.0971 9.47687 94.1551 21.7979 94.1551Z"/><path fill="#592B2B" d="M104.691 26.3287H-3.86538C-13.2206 26.3287 -20.8107 35.7475 -20.8107 47.3566C-20.8107 58.9658 -13.2206 68.3845 -3.86538 68.3845H104.691C114.046 68.3845 121.636 58.9658 121.636 47.3566C121.636 35.7475 114.046 26.3287 104.691 26.3287Z"/><path fill="#A9AE38" d="M103.016 63.0496H-2.59265C-2.59265 67.9528 1.30481 71.8503 6.20807 71.8503H94.2153C98.9928 71.7246 103.016 67.8271 103.016 63.0496Z"/><path fill="#FAA21E" d="M133.846 26.3287H-33.0205C-33.0205 31.6196 -26.5786 35.8252 -18.4742 35.8252H119.3C127.404 35.8252 133.846 31.484 133.846 26.3287Z"/><path fill="#CF3339" d="M-8.60088 54.8181H105.306V63.8703H-8.60088V54.8181Z"/></g></svg>