<svg xmlns="http://www.w3.org/2000/svg" width="97" height="114" fill="none" viewBox="0 0 97 114"><path fill="#CF3339" d="M48.1445 113.609L14.0784 80.2849C-4.69279 61.9224 -4.69279 32.1343 14.0784 13.7719C32.8495 -4.59062 63.3005 -4.59062 82.0716 13.7719C100.843 32.1343 100.843 61.9224 82.0716 80.2849L48.1445 113.609Z"/><g clip-path="url(#clip0)"><path fill="#FFE8C9" d="M63.5889 59.7272C63.8944 59.4283 76.4452 48.681 76.4452 48.681L74.3065 47.7844C73.0844 47.1986 73.4022 46.4096 73.6955 45.7043C73.9888 44.7957 76.1519 37.6587 76.1519 37.6587C76.1519 37.6587 70.3225 38.8542 69.1005 39.1531C68.1839 39.44 67.8784 38.8542 67.5729 38.2565C67.2673 37.6587 65.7397 34.3831 65.7397 34.3831C65.7397 34.3831 59.3116 41.544 59.0061 41.831C57.784 42.7276 56.5497 41.831 56.8552 40.6355C56.8552 39.44 60.2282 25.1421 60.2282 25.1421C60.2282 25.1421 56.5497 27.2223 55.3276 27.82C54.4111 28.4177 53.7878 28.4177 53.1768 27.2223C52.5535 26.3257 47.9585 17.6824 47.9585 17.6824C47.9585 17.6824 43.3757 26.3257 42.7646 27.2223C42.1536 28.4177 41.5426 28.4177 40.6138 27.82C39.3917 27.2223 35.7132 25.1421 35.7132 25.1421C35.7132 25.1421 39.0862 39.44 39.0862 40.6355C39.3917 41.831 38.1696 42.7276 36.9353 41.831C36.6298 41.5321 30.2017 34.3831 30.2017 34.3831C30.2017 34.3831 28.6741 37.6468 28.3685 38.2445C28.063 38.8423 27.7575 39.428 26.8409 39.1411C25.6066 38.8423 19.7895 37.6468 19.7895 37.6468C19.7895 37.6468 21.9404 44.7838 22.2459 45.6923C22.5392 46.4096 22.857 47.1867 21.6349 47.7725L19.4962 48.681C19.4962 48.681 32.0348 59.4283 32.3525 59.7272C32.9758 60.3249 33.5746 60.6238 32.9758 62.417C32.3525 64.2102 31.7415 66.6131 31.7415 66.6131C31.7415 66.6131 43.3757 64.2102 44.61 63.9114C45.6732 63.8038 46.8464 64.2102 46.8464 65.4057C46.8464 66.6012 46.1376 78.8907 46.1376 78.8907H49.8038C49.8038 78.8907 49.095 66.6131 49.095 65.4057C49.095 64.1983 50.256 63.8038 51.3436 63.9114C52.5657 64.2102 64.1999 66.6131 64.1999 66.6131C64.1999 66.6131 63.5889 64.2102 62.9778 62.417C62.3668 60.6238 62.9778 60.3249 63.5889 59.7272Z"/></g><defs><clipPath id="clip0"><rect width="62.571" height="61.208" fill="#fff" transform="translate(16.6855 17.6824)"/></clipPath></defs></svg>