<svg id="Layer_1" data-name="Layer 1" xmlns="http://www.w3.org/2000/svg" xmlns:xlink="http://www.w3.org/1999/xlink" viewBox="0 0 234.64 249.99"><defs><style>.cls-1{fill:none;}.cls-2{fill:#fff;}.cls-3{fill:#ab7029;}.cls-4{fill:#9c6226;}.cls-5{fill:#b32029;}.cls-6{fill:#faa21e;}.cls-7{fill:#a9ae38;}.cls-8,.cls-9{fill:#6d1f11;stroke:#fff;stroke-linecap:round;stroke-linejoin:round;}.cls-8{stroke-width:4.93px;}.cls-9{stroke-width:4.21px;}.cls-10{fill:#411f1f;}.cls-11{fill:#fda41b;}.cls-12{fill:#c7122e;}.cls-13{fill:#be2f2c;}.cls-14{fill:#ee1f36;}.cls-15{clip-path:url(#clip-path);}.cls-16{fill:#ee1f37;}.cls-17{fill:#f05528;}.cls-18{fill:#82cae8;}.cls-19{fill:#74bb44;}.cls-20{fill:#457bbf;}.cls-21{fill:#e1e440;}.cls-22{fill:#37ade3;}.cls-23{fill:#f05c5f;}.cls-24{fill:#f99c33;}.cls-25{fill:#fed535;}</style><clipPath id="clip-path"><rect class="cls-1" x="93.3" y="226.95" width="23.04" height="23.04" rx="5.84" ry="5.84"/></clipPath></defs><title>burgerweek-logo-branded-en</title><polygon class="cls-2" points="154 24.31 165.16 27.3 155.6 62.99 141.57 70.69 154 24.31"/><path class="cls-2" d="M69.62,219C56,219,43.11,219,33,215.07c-12.46-4.83-18.84-14.91-19-30l-3,.16h-.43a7.86,7.86,0,0,1-7.83-7.45l-.24-4.6a7.82,7.82,0,0,1,.59-3.42l-.12-2.29A7.86,7.86,0,0,1,7.63,160a7.85,7.85,0,0,1,.19-1.2L13,136.88C3.49,135.33,0,128.47,0,122c0-8.32,5.32-16.28,14.19-21.79.11-30.79,33.19-63.42,94.36-63.3,27.67.05,51.35,6.85,68.46,19.64,15.64,11.69,24.6,27.77,24.56,44.09V104q0,.31,0,.62l0,10.65h1.11A7.85,7.85,0,0,1,206,116a16.22,16.22,0,0,1,4.85-.73,13.46,13.46,0,0,1-.28,26.92,11.93,11.93,0,0,1-3.85-.64l-1.6,7.55,2.07-.11h.43a7.85,7.85,0,0,1,7.83,7.44l.12,2.28a7.83,7.83,0,0,1,.94,3.35l.24,4.6a7.85,7.85,0,0,1-7.44,8.26l-3,.15a4.45,4.45,0,0,0-.5,0c-.25.14-.84.57-1.28.89-.83.6-1.85,1.34-3.11,2.1v6.78c0,15.37-6.45,25.61-19.09,30.45-10.11,3.87-23,3.85-36.62,3.82Z"/><path class="cls-3" d="M193.66,100.47c0-26.39-28.86-55.69-85.29-55.69S22,74.08,22,100.47v4H193.66Z"/><path class="cls-4" d="M89.85,52.55H84.28a.69.69,0,0,0-.64.43,3.12,3.12,0,0,0-.21,1.18,3.15,3.15,0,0,0,.21,1.18.69.69,0,0,0,.64.42h5.57a.69.69,0,0,0,.64-.43,3.27,3.27,0,0,0,.2-1.17,3.22,3.22,0,0,0-.2-1.18A.69.69,0,0,0,89.85,52.55Z"/><path class="cls-4" d="M110.71,52.55h-5.58a.69.69,0,0,0-.64.43,3.47,3.47,0,0,0,0,2.36.69.69,0,0,0,.64.42h5.57a.69.69,0,0,0,.64-.43,3.2,3.2,0,0,0,.2-1.17,3.16,3.16,0,0,0-.2-1.18A.69.69,0,0,0,110.71,52.55Z"/><path class="cls-4" d="M131.57,52.55H126a.69.69,0,0,0-.64.43,3.12,3.12,0,0,0-.21,1.18,3.18,3.18,0,0,0,.21,1.18.69.69,0,0,0,.64.43h5.57a.69.69,0,0,0,.64-.43,3.52,3.52,0,0,0,0-2.35A.69.69,0,0,0,131.57,52.55Z"/><path class="cls-4" d="M79.37,65H73.8a.69.69,0,0,0-.64.43,3.51,3.51,0,0,0,0,2.35.69.69,0,0,0,.64.43h5.57a.69.69,0,0,0,.64-.42,3.45,3.45,0,0,0,0-2.36A.69.69,0,0,0,79.37,65Z"/><path class="cls-4" d="M100.24,65H94.66a.69.69,0,0,0-.64.43,3.44,3.44,0,0,0,0,2.35.69.69,0,0,0,.64.43h5.58a.69.69,0,0,0,.64-.43,3.49,3.49,0,0,0,0-2.35A.69.69,0,0,0,100.24,65Z"/><path class="cls-4" d="M58.6,65H53a.69.69,0,0,0-.64.43,3.46,3.46,0,0,0,0,2.35.69.69,0,0,0,.64.43H58.6a.69.69,0,0,0,.63-.42,3.39,3.39,0,0,0,0-2.37A.69.69,0,0,0,58.6,65Z"/><path class="cls-4" d="M121.1,65h-5.57a.69.69,0,0,0-.64.43,3.49,3.49,0,0,0,0,2.35.69.69,0,0,0,.64.43h5.57a.69.69,0,0,0,.64-.43,3.49,3.49,0,0,0,0-2.35A.69.69,0,0,0,121.1,65Z"/><path class="cls-4" d="M142,65h-5.58a.69.69,0,0,0-.64.43,3.49,3.49,0,0,0,0,2.34.69.69,0,0,0,.64.43H142a.69.69,0,0,0,.64-.43,3.1,3.1,0,0,0,.21-1.17,3.15,3.15,0,0,0-.2-1.18A.69.69,0,0,0,142,65Z"/><path class="cls-4" d="M162.82,65h-5.57a.69.69,0,0,0-.64.43,3.19,3.19,0,0,0-.2,1.17,3.14,3.14,0,0,0,.21,1.18.69.69,0,0,0,.64.42h5.57a.69.69,0,0,0,.64-.43,3.5,3.5,0,0,0,0-2.35A.7.7,0,0,0,162.82,65Z"/><path class="cls-4" d="M89.85,78H84.28a.69.69,0,0,0-.64.42,3.44,3.44,0,0,0,0,2.36.69.69,0,0,0,.64.42h5.57a.7.7,0,0,0,.64-.43,3.26,3.26,0,0,0,.2-1.17,3.11,3.11,0,0,0-.21-1.18A.69.69,0,0,0,89.85,78Z"/><path class="cls-4" d="M110.71,78h-5.58a.69.69,0,0,0-.64.42,3.47,3.47,0,0,0,0,2.36.69.69,0,0,0,.64.42h5.57a.69.69,0,0,0,.64-.43,3.19,3.19,0,0,0,.2-1.17,3.07,3.07,0,0,0-.2-1.18A.68.68,0,0,0,110.71,78Z"/><path class="cls-4" d="M131.57,78H126a.69.69,0,0,0-.64.43,3.14,3.14,0,0,0-.21,1.18,3.08,3.08,0,0,0,.21,1.18.69.69,0,0,0,.64.43h5.57a.69.69,0,0,0,.64-.43,3.52,3.52,0,0,0,0-2.35A.69.69,0,0,0,131.57,78Z"/><path class="cls-4" d="M100.24,90.43H94.66a.69.69,0,0,0-.64.43,3.44,3.44,0,0,0,0,2.35.69.69,0,0,0,.64.43h5.58a.69.69,0,0,0,.64-.43,3.15,3.15,0,0,0,.2-1.18,3.09,3.09,0,0,0-.21-1.18A.69.69,0,0,0,100.24,90.43Z"/><path class="cls-4" d="M121.1,90.43h-5.57a.69.69,0,0,0-.64.43,3.15,3.15,0,0,0-.2,1.18,3.09,3.09,0,0,0,.2,1.18.69.69,0,0,0,.64.43h5.57a.69.69,0,0,0,.64-.43,3.15,3.15,0,0,0,.2-1.18,3.07,3.07,0,0,0-.21-1.18A.69.69,0,0,0,121.1,90.43Z"/><path class="cls-4" d="M152.26,78h-5.4a.69.69,0,0,0-.64.43A3.15,3.15,0,0,0,146,79.6a3.19,3.19,0,0,0,.21,1.17.7.7,0,0,0,.64.43h5.4a.7.7,0,0,0,.64-.43,3.52,3.52,0,0,0,0-2.35A.69.69,0,0,0,152.26,78Z"/><path class="cls-4" d="M173.76,78.43a.69.69,0,0,0-.64-.43h-5.57a.69.69,0,0,0-.64.43,3.18,3.18,0,0,0-.2,1.17,3.22,3.22,0,0,0,.2,1.17.69.69,0,0,0,.64.43h5.57a.69.69,0,0,0,.64-.43,3.17,3.17,0,0,0,.2-1.17A3.13,3.13,0,0,0,173.76,78.43Z"/><path class="cls-4" d="M162.82,90.43h-5.75a.7.7,0,0,0-.64.43,3.51,3.51,0,0,0,0,2.35.69.69,0,0,0,.64.43h5.75a.69.69,0,0,0,.64-.43,3.5,3.5,0,0,0,0-2.35A.7.7,0,0,0,162.82,90.43Z"/><path class="cls-4" d="M141.88,90.43h-5.49a.7.7,0,0,0-.64.43,3.5,3.5,0,0,0,0,2.35.69.69,0,0,0,.64.43h5.49a.69.69,0,0,0,.64-.43,3.51,3.51,0,0,0,0-2.35A.7.7,0,0,0,141.88,90.43Z"/><path class="cls-4" d="M48.1,78H42.53a.69.69,0,0,0-.64.43,3.15,3.15,0,0,0-.2,1.17,3.19,3.19,0,0,0,.2,1.17.69.69,0,0,0,.64.43H48.1a.69.69,0,0,0,.64-.43,3.17,3.17,0,0,0,.2-1.17,3.07,3.07,0,0,0-.21-1.18A.69.69,0,0,0,48.1,78Z"/><path class="cls-4" d="M69,78H63.41a.69.69,0,0,0-.64.43,3.13,3.13,0,0,0-.21,1.17,3.07,3.07,0,0,0,.21,1.18.69.69,0,0,0,.64.43H69a.69.69,0,0,0,.64-.43,3.17,3.17,0,0,0,.2-1.17,3.07,3.07,0,0,0-.2-1.18A.69.69,0,0,0,69,78Z"/><path class="cls-4" d="M58.49,90.43H53a.69.69,0,0,0-.64.43A3.16,3.16,0,0,0,52.19,92a3.08,3.08,0,0,0,.21,1.18.69.69,0,0,0,.64.43h5.46a.69.69,0,0,0,.64-.43A3.13,3.13,0,0,0,59.33,92a3.08,3.08,0,0,0-.21-1.18A.69.69,0,0,0,58.49,90.43Z"/><path class="cls-4" d="M79.76,90.58a.68.68,0,0,0-.41-.14H73.8a.7.7,0,0,0-.64.43A3.18,3.18,0,0,0,73,92a3.1,3.1,0,0,0,.2,1.18.69.69,0,0,0,.64.43h5.57a.69.69,0,0,0,.64-.42,3.46,3.46,0,0,0,0-2.36A.62.62,0,0,0,79.76,90.58Z"/><path class="cls-5" d="M193.64,122.87c0,1.65,0,3-1.66,3H23.68c-1.65,0-1.66-1.34-1.66-3v-5.8c0-1.65,0-3,1.66-3H192c1.65,0,1.66,1.34,1.66,3Z"/><rect class="cls-6" x="21.98" y="106.99" width="171.69" height="4.52"/><polygon class="cls-6" points="133.09 108.55 108.29 123.48 82.56 108.55 133.09 108.55"/><path class="cls-3" d="M22,180.75v4c0,26.39,21.39,26.52,47.78,26.52h76.1c26.39,0,47.79-.13,47.79-26.52v-4Z"/><path class="cls-7" d="M30.5,185.65c0,4.15.32,7,6.06,4.15s12.76-6.7,27.44-6.38c-5.43,1.6-11.81,4.47-12.44,8.3s3.19,5.42,11.49,3.51c1,3.51,4.47,7.34,11.8,1s11.49-8.93,15-10.21,4.47.64.64,2.87-7.34,3.51-8,6.07,0,6.7,6.38,4.79c0,4.47,1.27,8.3,6.7,8.3s7.66-2.87,7.66-8.3c3.51,1.92,8.62,3.19,8.93-3.83s3.51-10.21,6.7-11.81,3.75,1.37,1.59,2.24c-2.86,1.14-4.1,3.19-4.15,5.42-.07,2.87,4.86,7.12,9.89,1.92.38,3.08,6.06,5.11,8-1.28s2.45-10.33,8.3-10.53c-4,1.45-6.38,7.34-1.28,9.25s7.66-2.87,8.29-4.47,2.24-5.1,7-4.79c-4.14,1.84-4.15,8.29,0,8.62s5.74-1,8.93-3.83A21.55,21.55,0,0,1,183,181.82c-1.6,4.15,1.29,5.82,3.87,5.32,3.14-.6,2.86-4.05,3.84-6.38H27.15v.11C24.6,182.46,22.84,189.15,30.5,185.65Z"/><path class="cls-5" d="M13.4,171.32c3.08-.16,4.42.61,6.65,1.89A21,21,0,0,0,33,176.52a21,21,0,0,0,12.48-4.68c2.07-1.51,3.32-2.43,6.41-2.59s4.42.61,6.65,1.88a21.06,21.06,0,0,0,12.91,3.31,21.07,21.07,0,0,0,12.48-4.68c2.08-1.51,3.33-2.43,6.41-2.59s4.43.61,6.65,1.89a22.2,22.2,0,0,0,25.4-1.38c2.07-1.51,3.32-2.42,6.41-2.59s4.43.61,6.65,1.89a22.2,22.2,0,0,0,25.4-1.37c2.08-1.51,3.32-2.43,6.41-2.59s4.43.6,6.65,1.89a22.2,22.2,0,0,0,25.4-1.37c2.08-1.51,3.33-2.42,6.41-2.59l2.2-.12-.23-4.14-2.2.12a21.73,21.73,0,0,0-12.89,4.83c-2,1.47-3.15,2.29-6,2.44s-4.05-.53-6.23-1.78a22.95,22.95,0,0,0-26.23,1.42c-2,1.47-3.14,2.29-6,2.44s-4-.53-6.23-1.78a23,23,0,0,0-26.23,1.42c-2,1.48-3.15,2.29-6,2.45s-4-.53-6.23-1.79a23,23,0,0,0-26.23,1.43c-2,1.47-3.14,2.29-6,2.44s-4.05-.53-6.22-1.78a21.72,21.72,0,0,0-13.34-3.42,21.72,21.72,0,0,0-12.89,4.84c-2,1.47-3.14,2.29-6,2.44s-4-.53-6.23-1.78a21.7,21.7,0,0,0-13.34-3.42l-2.2.12.22,4.13Z"/><path class="cls-5" d="M200.17,164.75a23.72,23.72,0,0,1-27.07,1.47c-2.12-1.22-3.18-1.83-5.81-1.69s-3.62.86-5.58,2.29a23.74,23.74,0,0,1-27.07,1.47c-2.11-1.22-3.17-1.83-5.81-1.69s-3.62.86-5.58,2.3a23.72,23.72,0,0,1-27.06,1.47c-2.12-1.22-3.18-1.83-5.81-1.69s-3.62.86-5.58,2.29a22.42,22.42,0,0,1-13.31,5,22.41,22.41,0,0,1-13.76-3.51c-2.12-1.22-3.18-1.83-5.81-1.69s-3.62.86-5.58,2.3a22.44,22.44,0,0,1-13.3,5,22.43,22.43,0,0,1-13.76-3.51c-2.11-1.22-3.17-1.83-5.8-1.69l-3,.16.25,4.6,3-.16c2.85-.15,4.05.53,6.23,1.78a21.73,21.73,0,0,0,13.34,3.41,21.73,21.73,0,0,0,12.89-4.83c2-1.48,3.14-2.29,6-2.44s4,.53,6.22,1.78a21.76,21.76,0,0,0,13.34,3.41,21.73,21.73,0,0,0,12.89-4.83c2-1.48,3.14-2.29,6-2.45s4.05.53,6.23,1.79a23,23,0,0,0,26.24-1.42c2-1.48,3.14-2.29,6-2.44s4.05.53,6.22,1.78a23,23,0,0,0,26.24-1.42c2-1.48,3.14-2.29,6-2.44s4.06.53,6.23,1.78A23,23,0,0,0,200,169.5c2-1.48,3.14-2.29,6-2.44l3-.16-.25-4.6-3,.16C203.13,162.6,202.14,163.32,200.17,164.75Z"/><path class="cls-8" d="M40.32,108.63l-4.1,17.64h.53c7,0,12.57-6.92,12.57-12.88,0-4.53-3.23-8.58-11.52-8.58C27.57,104.82,16,111,16,124.13c0,4.05,1.13,4.69,1.23,5.41-5.77,0-9.35-2-9.35-7.31,0-11,15.19-21.06,31.69-21.06,12.83,0,18.59,6.12,18.59,12.63,0,4.7-3.06,9.7-8.73,12.64,7.42,1.35,10.3,6.83,10.3,12.8,0,7.63-4.54,22.88-19.12,22.88-3.75,0-8.64-1-8.64-5.88a11.89,11.89,0,0,1,1.14-4.61c2.18,2.06,3.84,2.86,5.85,2.86,6.37,0,8.64-8.27,8.64-14.31,0-5.56-1.92-10.09-8.29-10.09-.7,0-2.45.08-4,.24L28.1,160.77H15.53L27.4,110.22Z"/><path class="cls-9" d="M94.66,123,89.2,148.71a10.62,10.62,0,0,0-.3,2.42c0,2.12,1,2.81,3.11,2.81,3,0,5-2.88,6.13-6.67h3.18c-4.32,12.34-11.13,14-15.22,14-4.32,0-7-2.5-7.5-7.2-3.79,6.21-8,7.2-11.21,7.2-4.54,0-8.1-2.73-8.1-9.09a24.83,24.83,0,0,1,.61-4.92L65,123H75.95L70.5,148.71a10.82,10.82,0,0,0-.23,2.12c0,1.75.6,3.11,2.27,3.11,3,0,4.92-2.88,6.06-6.67L83.75,123Z"/><path class="cls-9" d="M114.19,123l-1,4.7c2.65-2.27,5.53-4.7,9.17-4.7,3.4,0,5.22,2.8,5.22,5.68a5.29,5.29,0,0,1-5.45,5.53c-4.24,0-2.12-5-4.39-5s-3.64,1.13-5.53,2.88l-6.06,28.78H95.25l8-37.87Z"/><path class="cls-9" d="M159.9,123l-7.5,35.14c4.62-1.66,7.42-4.24,9.54-10.83h3.18c-3,10-8.71,12.87-13.41,14.16l-1.14,5.45c-2.27,10.83-8.63,12.88-13.63,12.88-4.62,0-8.48-2.42-8.48-7.35,0-6.36,6.67-9.54,12.34-11.28l.91-4a12.18,12.18,0,0,1-9.09,4.17c-5.15,0-10.07-3.18-10.07-12.2,0-10.22,6.29-26.51,19.46-26.51,4.32,0,6.14,1.67,6.14,3.86v.46L149,123Zm-24.69,50.89c1.59,0,3.41-2.27,4.39-6.74l.45-2.2c-3.86,1.44-7.42,3.41-7.42,6.44A2.58,2.58,0,0,0,135.21,173.85ZM133.77,148c0,5.83,2.42,5.91,3.79,5.91,2,0,5-2,6.06-5.91l3.86-17.95a3,3,0,0,0-3.1-2.8C137.93,127.28,133.77,140.91,133.77,148Z"/><path class="cls-9" d="M175.11,154.92c6,0,9.62-3.33,13.41-7.65h2.57c-4.32,7-10.75,14-20.83,14-7.12,0-11.81-3.48-11.81-12,0-8.71,4.92-27,20.45-27,6.74,0,8.33,3.49,8.33,7.27,0,8.71-8.33,15.45-17.42,16-.08,1.06-.15,2.12-.15,3C169.66,153.71,171.48,154.92,175.11,154.92Zm4.39-28.63c-3.86,0-7.57,8.1-9.09,15.6,5.83-.38,11-6.21,11-12.49C181.4,127.5,180.95,126.29,179.51,126.29Z"/><path class="cls-9" d="M202.65,123l-1,4.7c2.65-2.27,5.53-4.7,9.16-4.7,3.41,0,5.23,2.8,5.23,5.68a5.3,5.3,0,0,1-5.46,5.53c-4.24,0-2.12-5-4.39-5s-3.64,1.13-5.53,2.88l-6.06,28.78h-10.9l8-37.87Z"/><path class="cls-10" d="M40.32,108.63l-4.1,17.64h.53c7,0,12.57-6.92,12.57-12.88,0-4.53-3.23-8.58-11.52-8.58C27.57,104.82,16,111,16,124.13c0,4.05,1.13,4.69,1.23,5.41-5.77,0-9.35-2-9.35-7.31,0-11,15.19-21.06,31.69-21.06,12.83,0,18.59,6.12,18.59,12.63,0,4.7-3.06,9.7-8.73,12.64,7.42,1.35,10.3,6.83,10.3,12.8,0,7.63-4.54,22.88-19.12,22.88-3.75,0-8.64-1-8.64-5.88a11.89,11.89,0,0,1,1.14-4.61c2.18,2.06,3.84,2.86,5.85,2.86,6.37,0,8.64-8.27,8.64-14.31,0-5.56-1.92-10.09-8.29-10.09-.7,0-2.45.08-4,.24L28.1,160.77H15.53L27.4,110.22Z"/><path class="cls-10" d="M94.66,123,89.2,148.71a10.62,10.62,0,0,0-.3,2.42c0,2.12,1,2.81,3.11,2.81,3,0,5-2.88,6.13-6.67h3.18c-4.32,12.34-11.13,14-15.22,14-4.32,0-7-2.5-7.5-7.2-3.79,6.21-8,7.2-11.21,7.2-4.54,0-8.1-2.73-8.1-9.09a24.83,24.83,0,0,1,.61-4.92L65,123H75.95L70.5,148.71a10.82,10.82,0,0,0-.23,2.12c0,1.75.6,3.11,2.27,3.11,3,0,4.92-2.88,6.06-6.67L83.75,123Z"/><path class="cls-10" d="M114.19,123l-1,4.7c2.65-2.27,5.53-4.7,9.17-4.7,3.4,0,5.22,2.8,5.22,5.68a5.29,5.29,0,0,1-5.45,5.53c-4.24,0-2.12-5-4.39-5s-3.64,1.13-5.53,2.88l-6.06,28.78H95.25l8-37.87Z"/><path class="cls-10" d="M159.9,123l-7.5,35.14c4.62-1.66,7.42-4.24,9.54-10.83h3.18c-3,10-8.71,12.87-13.41,14.16l-1.14,5.45c-2.27,10.83-8.63,12.88-13.63,12.88-4.62,0-8.48-2.42-8.48-7.35,0-6.36,6.67-9.54,12.34-11.28l.91-4a12.18,12.18,0,0,1-9.09,4.17c-5.15,0-10.07-3.18-10.07-12.2,0-10.22,6.29-26.51,19.46-26.51,4.32,0,6.14,1.67,6.14,3.86v.46L149,123Zm-24.69,50.89c1.59,0,3.41-2.27,4.39-6.74l.45-2.2c-3.86,1.44-7.42,3.41-7.42,6.44A2.58,2.58,0,0,0,135.21,173.85ZM133.77,148c0,5.83,2.42,5.91,3.79,5.91,2,0,5-2,6.06-5.91l3.86-17.95a3,3,0,0,0-3.1-2.8C137.93,127.28,133.77,140.91,133.77,148Z"/><path class="cls-10" d="M175.11,154.92c6,0,9.62-3.33,13.41-7.65h2.57c-4.32,7-10.75,14-20.83,14-7.12,0-11.81-3.48-11.81-12,0-8.71,4.92-27,20.45-27,6.74,0,8.33,3.49,8.33,7.27,0,8.71-8.33,15.45-17.42,16-.08,1.06-.15,2.12-.15,3C169.66,153.71,171.48,154.92,175.11,154.92Zm4.39-28.63c-3.86,0-7.57,8.1-9.09,15.6,5.83-.38,11-6.21,11-12.49C181.4,127.5,180.95,126.29,179.51,126.29Z"/><path class="cls-10" d="M202.65,123l-1,4.7c2.65-2.27,5.53-4.7,9.16-4.7,3.41,0,5.23,2.8,5.23,5.68a5.3,5.3,0,0,1-5.46,5.53c-4.24,0-2.12-5-4.39-5s-3.64,1.13-5.53,2.88l-6.06,28.78h-10.9l8-37.87Z"/><path class="cls-9" d="M58.83,182.38l6.56-19.11h4.09v19.11l6.71-19.11h2.18L69.7,186.54H65.08v-15.9l-6.18,15.9H54.3V165.21a6.7,6.7,0,0,0-5.06,6.93,4.42,4.42,0,0,0,.44,2.12c-2.15,0-3.34-.78-3.34-3,0-4.15,5.75-8.12,11-8.12.43,0,.84,0,1.25.06Z"/><path class="cls-9" d="M80.48,184.1c2.47,0,4-1.37,5.53-3.15h1.06c-1.78,2.87-4.44,5.77-8.59,5.77-2.94,0-4.87-1.44-4.87-5s2-11.12,8.43-11.12c2.78,0,3.43,1.44,3.43,3,0,3.59-3.43,6.37-7.18,6.59,0,.44-.06.87-.06,1.25C78.24,183.6,79,184.1,80.48,184.1Zm1.81-11.8c-1.59,0-3.12,3.34-3.75,6.44a5.23,5.23,0,0,0,4.53-5.15C83.08,172.8,82.89,172.3,82.3,172.3Z"/><path class="cls-9" d="M92.47,184.1c2.47,0,4-1.37,5.53-3.15h1.06c-1.78,2.87-4.43,5.77-8.59,5.77-2.93,0-4.87-1.44-4.87-5s2-11.12,8.43-11.12c2.78,0,3.44,1.44,3.44,3,0,3.59-3.44,6.37-7.18,6.59,0,.44-.06.87-.06,1.25C90.22,183.6,91,184.1,92.47,184.1Zm1.81-11.8c-1.59,0-3.12,3.34-3.75,6.44a5.24,5.24,0,0,0,4.53-5.15C95.06,172.8,94.88,172.3,94.29,172.3Z"/><path class="cls-9" d="M112.73,170.93l-6.24,4.34a6.16,6.16,0,0,1,1-.12c2.31,0,3.43,1.65,3.43,3.65a5.27,5.27,0,0,1-.13,1.18l-.34,1.56a5.28,5.28,0,0,0-.16,1c0,.62.25,1.16,1.22,1.16a2.07,2.07,0,0,0,1.1-.19,3.44,3.44,0,0,1-2.91,3.21c-2.56,0-3.93-1.28-3.93-3.56a7.8,7.8,0,0,1,.19-1.62l.25-1.22a5.29,5.29,0,0,0,.12-1.16c0-.91-.31-1.5-1.12-1.5a3.93,3.93,0,0,0-2.31,1.16l-1.62,7.71H96.81l4.53-21.24,4.62-.63-2.34,11,6-4.75Z"/><path class="cls-10" d="M58.83,182.38l6.56-19.11h4.09v19.11l6.71-19.11h2.18L69.7,186.54H65.08v-15.9l-6.18,15.9H54.3V165.21a6.7,6.7,0,0,0-5.06,6.93,4.42,4.42,0,0,0,.44,2.12c-2.15,0-3.34-.78-3.34-3,0-4.15,5.75-8.12,11-8.12.43,0,.84,0,1.25.06Z"/><path class="cls-10" d="M80.48,184.1c2.47,0,4-1.37,5.53-3.15h1.06c-1.78,2.87-4.44,5.77-8.59,5.77-2.94,0-4.87-1.44-4.87-5s2-11.12,8.43-11.12c2.78,0,3.43,1.44,3.43,3,0,3.59-3.43,6.37-7.18,6.59,0,.44-.06.87-.06,1.25C78.24,183.6,79,184.1,80.48,184.1Zm1.81-11.8c-1.59,0-3.12,3.34-3.75,6.44a5.23,5.23,0,0,0,4.53-5.15C83.08,172.8,82.89,172.3,82.3,172.3Z"/><path class="cls-10" d="M92.47,184.1c2.47,0,4-1.37,5.53-3.15h1.06c-1.78,2.87-4.43,5.77-8.59,5.77-2.93,0-4.87-1.44-4.87-5s2-11.12,8.43-11.12c2.78,0,3.44,1.44,3.44,3,0,3.59-3.44,6.37-7.18,6.59,0,.44-.06.87-.06,1.25C90.22,183.6,91,184.1,92.47,184.1Zm1.81-11.8c-1.59,0-3.12,3.34-3.75,6.44a5.24,5.24,0,0,0,4.53-5.15C95.06,172.8,94.88,172.3,94.29,172.3Z"/><path class="cls-10" d="M112.73,170.93l-6.24,4.34a6.16,6.16,0,0,1,1-.12c2.31,0,3.43,1.65,3.43,3.65a5.27,5.27,0,0,1-.13,1.18l-.34,1.56a5.28,5.28,0,0,0-.16,1c0,.62.25,1.16,1.22,1.16a2.07,2.07,0,0,0,1.1-.19,3.44,3.44,0,0,1-2.91,3.21c-2.56,0-3.93-1.28-3.93-3.56a7.8,7.8,0,0,1,.19-1.62l.25-1.22a5.29,5.29,0,0,0,.12-1.16c0-.91-.31-1.5-1.12-1.5a3.93,3.93,0,0,0-2.31,1.16l-1.62,7.71H96.81l4.53-21.24,4.62-.63-2.34,11,6-4.75Z"/><rect class="cls-2" x="123.98" y="97.92" width="15.84" height="8.16"/><path class="cls-2" d="M60,106.41c-4.62,0-7.73-2.75-7.73-6.85a6.52,6.52,0,0,1,3.6-6A6.58,6.58,0,0,1,55,90.31c0-4,3.5-7,8.15-7,4,0,6.61,2.29,6.61,5.7a5.39,5.39,0,0,1-1.85,4.21,8.3,8.3,0,0,1,1.32,4.63C69.21,102.81,65.32,106.41,60,106.41Z"/><path class="cls-2" d="M64.87,91.23a1.26,1.26,0,0,1-1-.46,2.3,2.3,0,0,0,1-1.89c0-.77-.42-1.48-1.63-1.48a1.85,1.85,0,0,0-2,2c0,3.24,5,3.68,5,8.44,0,3.7-3,5.51-6.19,5.51-2.51,0-4.67-1.1-4.67-3.79a3.35,3.35,0,0,1,3.24-3.61c.77,0,1.87.31,1.94,1.45-1.19,0-2.58.55-2.58,2.07A2,2,0,0,0,60,101.59c1.48,0,2.56-1.08,2.56-2.93,0-3.77-4.52-5.11-4.52-8.35,0-2.29,2.25-3.94,5.09-3.94,1,0,3.55.22,3.55,2.64C66.68,90.29,66,91.23,64.87,91.23Z"/><path class="cls-2" d="M70.4,106.08c-3.95,0-6.5-2.58-6.5-6.56,0-4.53,2.79-10.9,9-10.9,3.33,0,5.48,2,5.48,5.17a7,7,0,0,1-.45,2.48,3.06,3.06,0,0,1,1.12,4.29C76.79,104.22,73.88,106.08,70.4,106.08Z"/><path class="cls-2" d="M71.81,101.17c1.74,0,2.8-1,3.9-2.23h.75c-1.26,2-3.13,4.08-6.06,4.08-2.07,0-3.44-1-3.44-3.5s1.43-7.84,5.95-7.84c2,0,2.42,1,2.42,2.11,0,2.53-2.42,4.49-5.07,4.65,0,.31,0,.62,0,.88C70.23,100.82,70.76,101.17,71.81,101.17Zm1.28-8.33c-1.12,0-2.2,2.36-2.64,4.54a3.69,3.69,0,0,0,3.19-3.64C73.64,93.2,73.51,92.84,73.09,92.84Z"/><path class="cls-2" d="M89.11,106.08a5.92,5.92,0,0,1-3.45-1,3.06,3.06,0,0,1-2.16.9H80.32a3.06,3.06,0,0,1-1.13-.22,3.05,3.05,0,0,1-1.13.22H74.88a3.06,3.06,0,0,1-3-3.69l2.34-11a3.06,3.06,0,0,1,3-2.42h3.17a3.06,3.06,0,0,1,.77.1,6.65,6.65,0,0,1,1.68-.21,5.65,5.65,0,0,1,2.64.61,6.25,6.25,0,0,1,2.69-.59,5.29,5.29,0,0,1,5.5,5.55,10.21,10.21,0,0,1-.15,1.63,3.06,3.06,0,0,1,2.58,4C94.36,105,91.34,106.08,89.11,106.08Z"/><path class="cls-2" d="M86.71,93.79c-.79,0-1.39.93-1.72,2l-1.5,7.07H80.32l1.61-7.6a2.21,2.21,0,0,0,.07-.55c0-.48-.18-1-.66-1-.86,0-1.45.95-1.78,2L78,102.89H74.88l2.34-11h3.17L80.14,93a3.39,3.39,0,0,1,2.69-1.26,2.08,2.08,0,0,1,2.27,1.89,3.49,3.49,0,0,1,3.06-1.87,2.23,2.23,0,0,1,2.45,2.49c0,1.78-1.06,4.45-1.06,5.68,0,.55.22.92.88.92,1,0,1.37-.79,1.85-1.94h.93C92,102.56,90.27,103,89.11,103a2.34,2.34,0,0,1-2.6-2.49c0-1.5,1-4.21,1-5.62C87.5,94.19,87.23,93.79,86.71,93.79Z"/><path class="cls-2" d="M100.36,106.08a5.38,5.38,0,0,1-2.62-.65,6.39,6.39,0,0,1-2.82.65c-3,0-6-2-6-6.61,0-4.34,2.77-10.77,8.72-10.77a6.5,6.5,0,0,1,1.47.16,3.09,3.09,0,0,1,.55-.05h3.17a3.06,3.06,0,0,1,3,3.69l-.72,3.4a3.06,3.06,0,0,1,2.55,4.05C105.82,105.28,102.3,106.08,100.36,106.08Z"/><path class="cls-2" d="M102.85,91.87l-1.59,7.49a3.06,3.06,0,0,0-.09.7c0,.62.29.95.9.95.86,0,1.45-1,1.78-2.07h.93c-1.26,3.59-3.24,4.08-4.43,4.08a2,2,0,0,1-2.16-2,4,4,0,0,1-3.28,2c-1.5,0-2.93-.93-2.93-3.55,0-3,1.83-7.71,5.66-7.71,1.26,0,1.78.48,1.78,1.12V93l.24-1.17Zm-7.6,7.29c0,1.7.7,1.72,1.1,1.72a2.22,2.22,0,0,0,1.83-1.94l1.06-5a.86.86,0,0,0-.9-.84C96.46,93.13,95.25,97.09,95.25,99.17Z"/><path class="cls-2" d="M106,106.08c-3.19,0-5.42-2.35-5.42-5.7a10.12,10.12,0,0,1,.24-2.05l1.5-7.08a3.06,3.06,0,0,1,.51-1.16,4.81,4.81,0,1,1,9.48-1.14,4.76,4.76,0,0,1-.79,2.62,3.06,3.06,0,0,1-.05.94l-.72,3.38a3.06,3.06,0,0,1,2.75,4.07C111.63,105.48,107.66,106.08,106,106.08Z"/><path class="cls-2" d="M108.54,91.87,107,99.36a3.06,3.06,0,0,0-.09.7c0,.62.29.81.9.81.86,0,1.65-.84,2-1.94h.93c-1.26,3.59-3.44,4.08-4.63,4.08s-2.36-.79-2.36-2.64a7.24,7.24,0,0,1,.18-1.43l1.5-7.07Zm-1-4.69a1.77,1.77,0,0,1,1.76,1.76,1.75,1.75,0,0,1-1.76,1.74,1.73,1.73,0,0,1-1.74-1.74A1.75,1.75,0,0,1,107.55,87.18Z"/><path class="cls-2" d="M117.7,106.08a5.92,5.92,0,0,1-3.45-1,3.06,3.06,0,0,1-2.16.9h-3.17a3.06,3.06,0,0,1-3-3.69l2.34-11a3.06,3.06,0,0,1,3-2.42h3.17a3.05,3.05,0,0,1,.78.1,6.39,6.39,0,0,1,1.56-.19,5.29,5.29,0,0,1,5.5,5.55,10.21,10.21,0,0,1-.15,1.63,3.06,3.06,0,0,1,2.58,4C123,105,119.93,106.08,117.7,106.08Z"/><path class="cls-2" d="M115.3,93.79c-.79,0-1.39.93-1.72,2l-1.5,7.07h-3.17l2.34-11h3.17L114.18,93a3.27,3.27,0,0,1,2.58-1.23,2.23,2.23,0,0,1,2.45,2.49c0,1.78-1.06,4.45-1.06,5.68,0,.55.22.92.88.92,1,0,1.37-.79,1.85-1.94h.93c-1.23,3.61-2.93,4.08-4.1,4.08a2.34,2.34,0,0,1-2.6-2.49c0-1.5,1-4.21,1-5.62C116.09,94.19,115.83,93.79,115.3,93.79Z"/><path class="cls-2" d="M124,106.08c-3.93,0-6.47-2.58-6.47-6.56,0-4.53,2.79-10.9,9-10.9,3.33,0,5.48,2,5.48,5.17a7.21,7.21,0,0,1-1.55,4.44,3.06,3.06,0,0,1,.36,2.08A6.58,6.58,0,0,1,124,106.08Z"/><path class="cls-2" d="M125.19,100.93a4.5,4.5,0,0,0,2.6-1.17A3.54,3.54,0,0,1,124,103c-2,0-3.41-1-3.41-3.5s1.43-7.84,5.95-7.84c2,0,2.42,1,2.42,2.11,0,2.56-2.42,4.49-5.07,4.65,0,.22,0,.46,0,.66C123.82,100.49,124.42,100.93,125.19,100.93Zm1.5-8.09c-1.1,0-2.2,2.45-2.67,4.54a3.66,3.66,0,0,0,3.22-3.64C127.24,93.2,127.11,92.84,126.69,92.84Z"/><path class="cls-2" d="M136.36,106.08c-3,0-6-2-6-6.61,0-4.24,2.64-10.45,8.28-10.76l.31-1.45a3.06,3.06,0,0,1,2.58-2.39l3.26-.44.41,0a3.06,3.06,0,0,1,3,3.7l-1.66,7.8a3.06,3.06,0,0,1,2.55,4.05c-1.73,5-4.93,6-7.32,6a5.41,5.41,0,0,1-2.48-.58A6.34,6.34,0,0,1,136.36,106.08Z"/><path class="cls-2" d="M145.22,87.47l-2.53,11.9a3.06,3.06,0,0,0-.09.7c0,.62.29.81.9.81.86,0,1.45-.84,1.78-1.94h.93c-1.26,3.59-3.24,3.94-4.43,3.94a2,2,0,0,1-2.16-1.89,3.92,3.92,0,0,1-3.26,2c-1.5,0-2.93-.93-2.93-3.55,0-3,1.83-7.71,5.66-7.71,1.26,0,1.78.48,1.78,1.12V93L142,87.91ZM139.6,98.94l1.08-5a.87.87,0,0,0-.9-.77c-1.87,0-3.08,4-3.08,6,0,1.7.7,1.72,1.1,1.72a2.17,2.17,0,0,0,1.81-1.83Z"/><path class="cls-2" d="M152.9,106.08a5.26,5.26,0,0,1-2.58-.65,6.39,6.39,0,0,1-2.86.65c-3.19,0-5.42-2.35-5.42-5.7a10.13,10.13,0,0,1,.24-2.06l1.5-7.08a3.06,3.06,0,0,1,3-2.43H150a3.06,3.06,0,0,1,1.13.22,3.05,3.05,0,0,1,1.13-.22h3.17a3.06,3.06,0,0,1,3,3.69l-1.22,5.78.06,0A3.06,3.06,0,0,1,158.4,101,5.33,5.33,0,0,1,152.9,106.08Z"/><path class="cls-2" d="M150,91.87l-1.59,7.49a2.36,2.36,0,0,0-.07.55c0,.51.15,1,.66,1,.86,0,1.43-.84,1.76-1.94l1.5-7.07h3.17l-1.59,7.49a3.06,3.06,0,0,0-.09.7c0,.62.29.81.9.81a1.69,1.69,0,0,0,.73-.13A2.31,2.31,0,0,1,152.9,103a2.12,2.12,0,0,1-2.16-2.09,3.66,3.66,0,0,1-3.28,2.09c-1.32,0-2.36-.79-2.36-2.64a7.24,7.24,0,0,1,.18-1.43l1.5-7.07Z"/><path class="cls-10" d="M64.87,91.24a1.26,1.26,0,0,1-1-.46,2.31,2.31,0,0,0,1-1.89c0-.77-.42-1.48-1.63-1.48a1.85,1.85,0,0,0-2,2c0,3.24,5,3.68,5,8.44,0,3.7-3,5.51-6.19,5.51-2.51,0-4.67-1.1-4.67-3.79A3.35,3.35,0,0,1,58.53,96c.77,0,1.87.31,1.94,1.45-1.19,0-2.58.55-2.58,2.07A2,2,0,0,0,60,101.59c1.48,0,2.56-1.08,2.56-2.93,0-3.77-4.52-5.11-4.52-8.35,0-2.29,2.25-3.94,5.09-3.94,1,0,3.55.22,3.55,2.64C66.68,90.29,66,91.24,64.87,91.24Z"/><path class="cls-10" d="M71.81,101.17c1.74,0,2.8-1,3.9-2.22h.75c-1.26,2-3.13,4.08-6.06,4.08-2.07,0-3.44-1-3.44-3.5s1.43-7.84,5.95-7.84c2,0,2.42,1,2.42,2.11,0,2.53-2.42,4.49-5.07,4.65,0,.31,0,.62,0,.88C70.23,100.82,70.76,101.17,71.81,101.17Zm1.28-8.33c-1.12,0-2.2,2.36-2.64,4.54a3.69,3.69,0,0,0,3.19-3.63C73.64,93.2,73.51,92.84,73.09,92.84Z"/><path class="cls-10" d="M86.7,93.79c-.79,0-1.39.93-1.72,2l-1.5,7.07H80.32l1.61-7.6a2.22,2.22,0,0,0,.07-.55c0-.48-.18-1-.66-1-.86,0-1.45.95-1.78,2L78,102.89H74.88l2.34-11h3.17L80.14,93a3.39,3.39,0,0,1,2.69-1.26,2.08,2.08,0,0,1,2.27,1.89,3.49,3.49,0,0,1,3.06-1.87,2.23,2.23,0,0,1,2.45,2.49c0,1.78-1.06,4.45-1.06,5.68,0,.55.22.93.88.93,1,0,1.37-.79,1.85-1.94h.93C92,102.56,90.27,103,89.11,103a2.34,2.34,0,0,1-2.6-2.49c0-1.5,1-4.21,1-5.62C87.5,94.19,87.23,93.79,86.7,93.79Z"/><path class="cls-10" d="M102.85,91.87l-1.59,7.49a3.06,3.06,0,0,0-.09.7c0,.62.29.95.9.95.86,0,1.45-1,1.78-2.07h.93c-1.26,3.59-3.24,4.08-4.43,4.08a2,2,0,0,1-2.16-2,4,4,0,0,1-3.28,2c-1.5,0-2.93-.93-2.93-3.55,0-3,1.83-7.71,5.66-7.71,1.26,0,1.78.48,1.78,1.12V93l.24-1.17Zm-7.6,7.29c0,1.7.7,1.72,1.1,1.72a2.22,2.22,0,0,0,1.83-1.94l1.06-5a.86.86,0,0,0-.9-.84C96.46,93.13,95.25,97.1,95.25,99.17Z"/><path class="cls-10" d="M108.54,91.87,107,99.36a3.06,3.06,0,0,0-.09.7c0,.62.29.81.9.81.86,0,1.65-.84,2-1.94h.93c-1.26,3.59-3.44,4.08-4.63,4.08s-2.36-.79-2.36-2.64a7.23,7.23,0,0,1,.18-1.43l1.5-7.07Zm-1-4.69a1.77,1.77,0,0,1,1.76,1.76,1.75,1.75,0,0,1-1.76,1.74,1.73,1.73,0,0,1-1.74-1.74A1.75,1.75,0,0,1,107.55,87.18Z"/><path class="cls-10" d="M115.3,93.79c-.79,0-1.39.93-1.72,2l-1.5,7.07h-3.17l2.33-11h3.17L114.18,93a3.27,3.27,0,0,1,2.58-1.23,2.23,2.23,0,0,1,2.44,2.49c0,1.78-1.06,4.45-1.06,5.68,0,.55.22.93.88.93,1,0,1.37-.79,1.85-1.94h.93c-1.23,3.61-2.93,4.08-4.1,4.08a2.34,2.34,0,0,1-2.6-2.49c0-1.5,1-4.21,1-5.62C116.09,94.19,115.83,93.79,115.3,93.79Z"/><path class="cls-10" d="M125.19,100.93a4.5,4.5,0,0,0,2.6-1.17A3.54,3.54,0,0,1,124,103c-2,0-3.41-1-3.41-3.5s1.43-7.84,5.95-7.84c2,0,2.42,1,2.42,2.11,0,2.56-2.42,4.49-5.07,4.65,0,.22,0,.46,0,.66C123.82,100.49,124.42,100.93,125.19,100.93Zm1.5-8.08c-1.1,0-2.2,2.44-2.67,4.54a3.66,3.66,0,0,0,3.22-3.63C127.24,93.2,127.11,92.84,126.69,92.84Z"/><path class="cls-10" d="M145.21,87.47l-2.53,11.89a3,3,0,0,0-.09.7c0,.62.29.81.9.81.86,0,1.45-.84,1.78-1.94h.93c-1.26,3.59-3.24,3.94-4.43,3.94a2,2,0,0,1-2.16-1.89,3.92,3.92,0,0,1-3.26,2c-1.5,0-2.93-.93-2.93-3.55,0-3,1.83-7.71,5.66-7.71,1.26,0,1.78.48,1.78,1.12V93L142,87.91ZM139.6,98.95l1.08-5a.87.87,0,0,0-.9-.77c-1.87,0-3.08,4-3.08,6,0,1.7.7,1.72,1.1,1.72a2.17,2.17,0,0,0,1.81-1.83Z"/><path class="cls-10" d="M150,91.87l-1.59,7.49a2.33,2.33,0,0,0-.07.55c0,.51.15,1,.66,1,.86,0,1.43-.84,1.76-1.94l1.5-7.07h3.17l-1.59,7.49a3.07,3.07,0,0,0-.09.7c0,.62.29.81.9.81a1.69,1.69,0,0,0,.73-.13A2.3,2.3,0,0,1,152.9,103a2.12,2.12,0,0,1-2.16-2.09,3.66,3.66,0,0,1-3.28,2.09c-1.32,0-2.36-.79-2.36-2.64a7.2,7.2,0,0,1,.18-1.43l1.5-7.07Z"/><polygon class="cls-11" points="153.13 61.05 146.1 64.92 156.03 27.83 161.63 29.33 153.13 61.05"/><polygon class="cls-2" points="156.92 36.13 105.29 44.24 133.26 1.04 165.3 13.37 234.64 0 205.26 45.46 156.92 36.13"/><polygon class="cls-2" points="111.23 40.38 134.41 4.58 165.03 16.36 228.53 4.12 203.9 42.26 156.97 33.19 111.23 40.38"/><path class="cls-12" d="M164.39,27c-.23,1.68.54,2.36,2.17,1.84a6.81,6.81,0,0,0,1.73-.94,15.43,15.43,0,0,0,1.41-1.25c-.23,2.15.91,3.08,2.77,2a35.32,35.32,0,0,0,4.65-3.84l1,.74c-.07.28-.15.57-.21.87C177.59,28,178.36,29,180,29a6.59,6.59,0,0,0,4.29-1.93c.38-.33.75-.68,1.16-1.06a1.25,1.25,0,0,1,0,.4c-.34.77-.76,1.74.11,2.21a3.55,3.55,0,0,0,2.4,0,8.36,8.36,0,0,0,2-1.22l.19.19c-.38,1.19.54,1.34,1.28,1.45a5.43,5.43,0,0,0,4.14-1.32c1-.76,1.9-1.6,3-2.5a4.55,4.55,0,0,0-.06.53c0,.89-.27,2.17.19,2.57a3.13,3.13,0,0,0,2.75.46,14.3,14.3,0,0,0,3.88-2.69,47.16,47.16,0,0,0,3.11-3.67,8.62,8.62,0,0,1,1.28-1l.44.36-4.21,7h1.89l5-6,.08.1c.17.66.18,1.75.55,1.9a7.34,7.34,0,0,0,2.58.09l.06-.38.51.94L214.5,26,204.13,42.26h-.24c-2.9-.62-5.79-1.28-8.7-1.86C183.13,38,171.08,35.5,159,33.28c-2.06-.38-4.33.28-6.49.62Q132.21,37.09,112,40.34c-.18,0-.37,0-.72,0l12.13-18.74-2.81-2,.22-.34c2.8,2.08,5.69,1.48,8.8.27-.26.44-.44.75-.63,1-1.53,2.33-3.08,4.64-4.58,7-.45.7-.92,1.66-.08,2.21a3,3,0,0,0,2.45.41A15.21,15.21,0,0,0,129.64,28c.48.61.93,1.64,1.7,2a5.7,5.7,0,0,0,3,.38A13.8,13.8,0,0,0,142,26.88c.51-.42,1-.87,1.79-1.55a6,6,0,0,0-.62,1.36c-.08.62-.27,1.52,0,1.82a2.13,2.13,0,0,0,1.89.31,21.62,21.62,0,0,0,3-1.76c.13.46.14,1.46.54,1.66a2.86,2.86,0,0,0,2.18-.1,17.55,17.55,0,0,0,2.64-1.82c.08,2.2,1.33,2.88,3.34,1.69a17.48,17.48,0,0,0,2.08-1.65c.2.6.26,1.7.69,1.87A3.43,3.43,0,0,0,162,28.5a11.45,11.45,0,0,0,2.21-1.72Z"/><path class="cls-12" d="M196.19,26.12l.34-4.66.83-1c-.68-1-1.19-.76-1.82-.08-2.12,2.29-4.25,4.57-6.44,6.79a6.69,6.69,0,0,1-1.73.93l-.44-.42,3.88-6.65h-2C186.6,23.64,185,26.8,181.47,28a5.82,5.82,0,0,1-1.55,0l.37-2.21a19.23,19.23,0,0,0,3.1-1.3,6.74,6.74,0,0,0,2-2c.64-1,.06-1.85-1.17-1.86a5.16,5.16,0,0,0-3.83,1.8c-.73.76-1.34,1.62-2.1,2.54l-1.09-.82,1.4-3.3c-1.38-.45-2,0-2.1,1.59-.16,2.22-1.5,3.65-3,5a6.42,6.42,0,0,1-1.7.74l-.44-.42L175.12,21h-2l.23.27c-2,2.18-4,4.36-6,6.51-.16.17-.56.13-.84.19l-.35-.31,4.11-6.64h-2c-2.14,2.55-3.81,5.49-6.83,7.06l-.41-.25a6.55,6.55,0,0,1,.45-1.45c2.31-4,4.65-7.9,7.16-12.13l.57,1.42L228.53,4.12c-.22.42-.33.69-.48.93-4,6.13-7.9,12.27-11.89,18.37a7.71,7.71,0,0,1-1.65,1.32c-.53-1.9.37-2.68,1.38-3.38-1-1.25-1.63-1-4.89,2.31a3.35,3.35,0,0,0,.28-.79c0-.62.17-1.67-.06-1.77a2.59,2.59,0,0,0-2,0,10,10,0,0,0-2.13,2c-1.28,1.37-2.47,2.84-3.83,4.13a2.38,2.38,0,0,1-3,.54l.29-1.76c1.59-.83,3-1.42,4.17-2.23.84-.56,1.69-1.49,1.06-2.57s-1.86-.69-2.76-.28a11.8,11.8,0,0,0-2.61,1.76c-1.38,1.15-2.69,2.4-4,3.6ZM191,18.54l.73.45a6.39,6.39,0,0,0,1.45-1.27,1.3,1.3,0,0,0-.42-1.22,1.36,1.36,0,0,0-1.3.31A5.21,5.21,0,0,0,191,18.54Z"/><path class="cls-12" d="M140.24,27.13a17.31,17.31,0,0,0,1-2.13c.53-1.73.15-2.76-1.32-4a22.78,22.78,0,0,0,2.73-1.39c1.88-1.29,2.66-3.8,1.72-5.2s-3.54-1.58-5.46-.29a27.1,27.1,0,0,0-2.48,2.14l-1.25-.65,1.15-1.79-3.29.46,0,.42c-.71-.21-1.41-.44-2.12-.62s-1.44-.3-2.35-.48l5.84-9L165,16.36l-3,5a2.88,2.88,0,0,0-3.8-.23A18.77,18.77,0,0,0,155,23.89c-1.08,1.07-2,2.28-3.11,3.36a6.28,6.28,0,0,1-1.52.84l-.45-.41,4-6.63h-2.14c-2,2.53-3.26,5.77-6.54,7l-.47-.33L148.92,21h-2.17l.21.31-6.55,6Z"/><path class="cls-12" d="M132.61,23.53l4.18-6.27,1.79,1.08.24-.34-1.61-1.39a11.8,11.8,0,0,1,2.27-1.9,6.67,6.67,0,0,1,2.39-.2,6.56,6.56,0,0,1,.06,2.32,5.09,5.09,0,0,1-5.29,3.49,6.38,6.38,0,0,0-1.49.36l.07.41h1.24c1.81,0,2.55.88,2.31,2.69a6.83,6.83,0,0,1-5.61,5.85c-2.06.23-3-1-2.32-3a4.31,4.31,0,0,1,3.44-2.71c.35-.08.7-.13,1.06-.19l-.09-.56-2.46.49Z"/><path class="cls-12" d="M132.58,15.33a8.29,8.29,0,0,1-8.11,4.61l3-4.7c-3-.65-5.45.83-5.65,3.36a2,2,0,0,1,.46-3,9,9,0,0,1,3.2-1.31A13.31,13.31,0,0,1,132.58,15.33Z"/><path class="cls-12" d="M134.82,16.21l1.34.67c-3.22,4.25-5.51,9.08-9.67,13C126.37,28.34,132.4,18.88,134.82,16.21Z"/><path class="cls-12" d="M155.7,27.83c0-2,2.58-5.84,4.34-6.37a4.21,4.21,0,0,1,1.46.12C160.77,24.3,157.35,27.93,155.7,27.83Z"/><path class="cls-12" d="M190,27.37l5.1-4.82a46.29,46.29,0,0,1-1.32,4.53c-.63,1.57-1.51,1.67-2.78.58-.17-.15-.53-.07-.81-.1Z"/><path class="cls-12" d="M204.86,21.14a4.16,4.16,0,0,1-3.74,3.66C202.2,23.34,202.78,21.61,204.86,21.14Z"/><path class="cls-12" d="M180.8,24.83c1.09-1.52,1.7-3.21,3.63-3.67C184.69,22.79,183.12,24.4,180.8,24.83Z"/><path class="cls-12" d="M164.18,26.78l.18-.41.25.2-.22.44Z"/><path class="cls-12" d="M212.84,22.69l.09-.17.08,0-.08.25Z"/><path class="cls-12" d="M132.79,23.69l-.35.25.17-.41Z"/><path class="cls-12" d="M196.39,26.27l-.07.32-.2-.17.07-.29Z"/><path class="cls-12" d="M140.41,27.34l-.5.26.33-.47Z"/><rect class="cls-13" x="122.12" y="226.95" width="74.35" height="23.04" rx="5.82" ry="5.82"/><path class="cls-2" d="M133.9,231.15l.46.11a3.55,3.55,0,0,1,2.89,2.92,5.36,5.36,0,0,1,.08.94.67.67,0,0,1-.74.73h-.93a.61.61,0,0,1-.67-.67,3.11,3.11,0,0,0-.14-.82,1.35,1.35,0,0,0-.94-.89,2.06,2.06,0,0,0-2,.29,1.84,1.84,0,0,0,.15,2.77,9.11,9.11,0,0,0,1.32.73c.71.35,1.46.62,2.15,1a3.73,3.73,0,0,1,1.91,3.3A4.09,4.09,0,0,1,137,244a3.58,3.58,0,0,1-2.25,1.61,5.45,5.45,0,0,1-3.25-.08A3.55,3.55,0,0,1,129,242.4a.65.65,0,0,0,0-.13v-.68a.26.26,0,0,0,0-.07.61.61,0,0,1,.57-.48,9.07,9.07,0,0,1,1.21,0,.54.54,0,0,1,.53.57c0,.08,0,.15,0,.23a1.58,1.58,0,0,0,.85,1.48,2.48,2.48,0,0,0,1.52.2,1.73,1.73,0,0,0,1.27-2.65,2.46,2.46,0,0,0-1.17-1c-.77-.35-1.57-.66-2.34-1a3.8,3.8,0,0,1-2.31-3.18,4.44,4.44,0,0,1,.4-2.58,3.59,3.59,0,0,1,2.53-1.85l.42-.11Z"/><path class="cls-2" d="M141.57,237.61l.63-.91,3.32-4.8a1.12,1.12,0,0,1,1-.53h1a.5.5,0,0,1,.52.27.6.6,0,0,1,0,.65l-1.11,1.49-2.63,3.52-.07.1,1.81,3.39,2.05,3.84a.59.59,0,0,1-.56.93c-.37,0-.73,0-1.1,0a.87.87,0,0,1-.8-.52l-1.76-3.48-1-2.06-.08-.12c-.31.42-.61.83-.93,1.23a1.14,1.14,0,0,0-.26.79c0,1.1,0,2.2,0,3.3,0,.08,0,.15,0,.23a.61.61,0,0,1-.61.62,10.62,10.62,0,0,1-1.1,0,.61.61,0,0,1-.6-.59,3.39,3.39,0,0,1,0-.36q0-6.12,0-12.24c0-.77.2-1,1-1h.66a.65.65,0,0,1,.71.73c0,.47,0,.94,0,1.4q0,1.95,0,3.89Z"/><path class="cls-2" d="M157,240.19c0,1,0,2.06,0,3.08,0,.52,0,1,0,1.57a.63.63,0,0,1-.67.7c-.33,0-.67,0-1,0a.63.63,0,0,1-.64-.64c0-.07,0-.14,0-.21q0-6.23,0-12.47a2.12,2.12,0,0,1,0-.26.63.63,0,0,1,.56-.58h.19c1.39,0,2.77,0,4.15,0a3.45,3.45,0,0,1,2.86,1.42,3.62,3.62,0,0,1,.64,1.82,10.18,10.18,0,0,1,0,2.59,3.33,3.33,0,0,1-3.25,2.93c-.82.07-1.64,0-2.46,0Zm0-2.25c.79,0,1.56,0,2.34,0a1.34,1.34,0,0,0,1.39-1.23,5,5,0,0,0,0-1.86,1.35,1.35,0,0,0-1.36-1.21c-.77,0-1.55,0-2.33,0l0,0Z"/><path class="cls-2" d="M152.36,238.47q0,3.06,0,6.13c0,.76-.19.95-1,.95-.25,0-.49,0-.74,0a.62.62,0,0,1-.63-.63c0-.08,0-.16,0-.25q0-6.21,0-12.41a2.44,2.44,0,0,1,0-.28.6.6,0,0,1,.59-.58,10.11,10.11,0,0,1,1.14,0,.61.61,0,0,1,.58.61c0,.11,0,.21,0,.32Q152.36,235.39,152.36,238.47Z"/><path class="cls-2" d="M165.1,242.37q0-1.39,0-2.77c0-.35.09-.44.44-.43.62,0,1.24,0,1.86,0A1.67,1.67,0,0,1,169,241c0,.9,0,1.81,0,2.71a1.75,1.75,0,0,1-1.89,1.91h-1.65c-.27,0-.38-.1-.38-.38Q165.1,243.8,165.1,242.37Zm1.08,2.22c.36,0,.7,0,1,0a.72.72,0,0,0,.71-.65,2,2,0,0,0,0-.34q0-1.2,0-2.41a1.86,1.86,0,0,0,0-.41.67.67,0,0,0-.43-.52,4.85,4.85,0,0,0-1.31-.08Z"/><path class="cls-2" d="M179.57,242.85h-1.86v.26q0,1,0,2.09c0,.33-.09.42-.42.42H177c-.26,0-.37-.1-.37-.37q0-2.86,0-5.71c0-.26.11-.36.37-.37h.32c.27,0,.38.11.38.38,0,.69,0,1.38,0,2.07v.2h1.86v-.63c0-.46,0-.91,0-1.37,0-.73.15-.68.84-.63.08,0,.17.14.23.24a.48.48,0,0,1,0,.22q0,2.75,0,5.5c0,.39-.08.47-.47.47-.58,0-.61,0-.61-.61S179.57,243.58,179.57,242.85Z"/><path class="cls-2" d="M175,241.21h-.17c-.24,0-.35-.1-.34-.33a.77.77,0,0,0-1-.78.68.68,0,0,0-.6.5.75.75,0,0,0,.23.88,7.78,7.78,0,0,0,.95.5c.23.12.47.21.69.34a1.84,1.84,0,0,1,.81,2,1.71,1.71,0,0,1-1.73,1.36,2,2,0,0,1-1.68-.57,1.68,1.68,0,0,1-.44-1.29.29.29,0,0,1,.31-.29h.46c.21,0,.29.09.3.3a.75.75,0,0,0,.39.73,1.06,1.06,0,0,0,1,0,.81.81,0,0,0,0-1.35,6,6,0,0,0-.78-.39l-.54-.24a1.81,1.81,0,0,1-1.09-1.87,1.61,1.61,0,0,1,1.23-1.58,2,2,0,0,1,2.21.62,1.74,1.74,0,0,1,.32,1.11c0,.23-.12.32-.35.33Z"/><path class="cls-2" d="M186.31,243.56h.19c.23,0,.33.09.33.32a.71.71,0,0,0,.41.73,1,1,0,0,0,1-.07.81.81,0,0,0-.09-1.32,10.51,10.51,0,0,0-1.11-.52,1.93,1.93,0,0,1-1.14-1.05,1.9,1.9,0,0,1,.58-2.26,2.18,2.18,0,0,1,2.61.25,1.7,1.7,0,0,1,.43,1.29.29.29,0,0,1-.32.29h-.42c-.23,0-.32-.09-.32-.32a.78.78,0,0,0-1-.8.69.69,0,0,0-.62.53.74.74,0,0,0,.24.85,10,10,0,0,0,.95.5,5.23,5.23,0,0,1,1,.58,1.82,1.82,0,0,1,.47,2,1.6,1.6,0,0,1-1.44,1.17,2.13,2.13,0,0,1-1.8-.42,1.64,1.64,0,0,1-.56-1.41.29.29,0,0,1,.32-.3Z"/><path class="cls-2" d="M182.79,244.6h2.07a.94.94,0,0,1,.24,0c.21.06.27.25.22.69a.29.29,0,0,1-.33.3h-3a.29.29,0,0,1-.32-.3,1.49,1.49,0,0,1,0-.15q0-2.77,0-5.54c0-.37.08-.46.46-.46h2.75c.32,0,.42.1.42.42,0,.56,0,.6-.58.6h-2v1.64h1.67c.25,0,.36.11.37.36,0,.52,0,.68-.62.66-.47,0-.93,0-1.41,0Z"/><path class="cls-2" d="M168.78,233.2a1.39,1.39,0,0,1,1.67-.12,1.42,1.42,0,0,1,.56,1.24c0,1,0,2.09,0,3.13,0,.26-.11.37-.37.37h-.27c-.29,0-.38-.1-.38-.39q0-1.41,0-2.83a1.46,1.46,0,0,0,0-.23c-.07-.43-.27-.6-.67-.58a.6.6,0,0,0-.53.67c0,1,0,2,0,3,0,.07,0,.17,0,.22a.6.6,0,0,1-.27.17,1.18,1.18,0,0,1-.32,0c-.29,0-.39-.09-.39-.39q0-2.88,0-5.77c0-.31.09-.39.4-.4.59,0,.61,0,.61.6S168.78,232.74,168.78,233.2Z"/><path class="cls-2" d="M172.68,235.62c0,.3,0,.58,0,.86a.59.59,0,0,0,.92.41.46.46,0,0,0,.22-.4c0-.23.1-.31.33-.32h.25c.36,0,.48.15.43.5a1.34,1.34,0,0,1-1.13,1.21,2,2,0,0,1-1,0,1.4,1.4,0,0,1-1-1.32c0-.75,0-1.5,0-2.26a1.43,1.43,0,0,1,1.48-1.39,2.52,2.52,0,0,1,.85.13,1.38,1.38,0,0,1,.88,1.3c0,.31,0,.62,0,.93s-.1.38-.39.39h-1.85Zm0-.76h1.26a6,6,0,0,0-.06-.64.5.5,0,0,0-.51-.4.51.51,0,0,0-.59.36A5.75,5.75,0,0,0,172.67,234.86Z"/><path class="cls-2" d="M166.11,233.91c0,.24,0,.45,0,.66,0,.61,0,1.23,0,1.84,0,.39.14.52.54.5h.13c.37,0,.45,0,.45.41s-.08.52-.51.55h-.42a1.13,1.13,0,0,1-1.2-1.2c0-.27,0-.53,0-.8q0-1.84,0-3.68c0-.32.08-.41.4-.41.58,0,.61,0,.61.6V233h.67c.17,0,.38,0,.41.18a1.79,1.79,0,0,1,0,.66c0,.06-.18.11-.28.11S166.38,233.91,166.11,233.91Z"/><path class="cls-2" d="M169.92,242.38q0-1.4,0-2.81c0-.33.09-.41.42-.41h.3a.3.3,0,0,1,.34.32c0,.07,0,.14,0,.21q0,2.7,0,5.4c0,.07,0,.14,0,.21a.29.29,0,0,1-.31.3h-.38c-.27,0-.37-.1-.37-.37Q169.92,243.81,169.92,242.38Z"/><rect class="cls-14" x="93.3" y="226.95" width="23.04" height="23.04" rx="5.84" ry="5.84"/><g class="cls-15"><path class="cls-16" d="M93.44,239.89l.66.45,7.33,4.8.06,0,0,0-.52.08-1.07.14-.63.08-1,.13-.72.08-1.23.17-.83.11-1.16.14-.87.11q0-3.11,0-6.21A1.09,1.09,0,0,1,93.44,239.89Z"/><path class="cls-17" d="M116.4,247.56v2.5h-.9a.39.39,0,0,0-.08-.06l-1.88-.65-2.82-1-2.72-.94-2.73-.94-2.92-1-.55-.21h.09l.85.11.66.11.8.13.77.11.84.14.51.08.8.13.75.11.8.13.76.11.84.14.51.08.8.13.54.08.81.13.51.08,1,.17.77.11Z"/><path class="cls-18" d="M101.8,245.29l.55.21,2.92,1,2.73.94,2.72.94,2.82,1,1.88.65a.39.39,0,0,1,.08.06H109l-.23-.17-2.23-1.45-2.14-1.38-2.65-1.7-.09,0-.09-.07a.07.07,0,0,1,0,0h.05l.12.06h.09Z"/><path class="cls-19" d="M96.44,250.06h-3v-1.91h.07l2.47-.9,2.58-.94,2.29-.83.66-.22-.15.17-2.15,2L96.53,250Z"/><path class="cls-20" d="M101.54,245.25l.09.07.09.12,1.33,1.54,1.81,2.1.82,1h-5.17l0-.08Z"/><path class="cls-21" d="M101.54,245.25l-1,4.72,0,.08H96.44l.08-.1,2.66-2.51,2.15-2,.15-.17,0,0h0A.07.07,0,0,0,101.54,245.25Z"/><path class="cls-22" d="M105.69,250.06l-.82-1-1.81-2.1-1.33-1.54-.09-.12.09,0,2.65,1.7,2.14,1.38,2.23,1.45.23.17Z"/><path class="cls-23" d="M101.52,245.22l0,0-.66.22-2.29.83-2.58.94-2.47.9h-.07v-1.91l.87-.11,1.16-.14.83-.11,1.23-.17.72-.08,1-.13.63-.08,1.07-.14.52-.08,0,0Z"/><path class="cls-24" d="M101.71,245.28l-.12-.06.13,0,.79-.11.41-.07.74-.13.48-.08.72-.13.49-.08.74-.13.48-.08.71-.13.68-.11.76-.14.46-.08.72-.13.69-.11.75-.13.47-.08.72-.13.49-.08.74-.13.48-.08.7-.13.69-.11.77-.14c0,.25,0,.5,0,.76q0,2,0,3.95c0,.07,0,.14,0,.21l-1.17-.18-.77-.11-1-.17-.51-.08-.81-.13-.54-.08-.8-.13-.51-.08-.84-.14-.76-.11-.8-.13-.75-.11-.8-.13-.51-.08-.84-.14-.77-.11-.8-.13-.66-.11-.85-.11h-.18Z"/><path class="cls-25" d="M116.4,242.64l-.77.14-.69.11-.7.13-.48.08-.74.13-.49.08-.72.13-.47.08-.75.13-.69.11-.72.13-.46.08-.76.14-.68.11-.71.13-.48.08-.74.13-.49.08-.72.13-.48.08-.74.13-.41.07-.79.11.51-.18,1.55-.48,1.78-.55,2-.62,1.89-.58,1.89-.58,1.79-.55,1.77-.55,1.41-.44h.05Z"/><path class="cls-17" d="M101.71,245.28h0Z"/></g><g id="z0FNnl.tif"><path class="cls-2" d="M104.18,241.59c-.18-.14-.19-.18-.09-.41.34-.73.69-1.46,1-2.18s.71-1.46,1.06-2.19a.61.61,0,0,1,.61-.4c.34,0,.68,0,1,0s.35.1.39.35c.12.66.24,1.32.36,2l.41,2.3s0,.07,0,.11c0,.28,0,.31-.22.42H108a1.61,1.61,0,0,1-.18-.25.85.85,0,0,1,0-.25l-.1-.71h-1.8s-.08,0-.1.09q-.19.39-.36.79a.59.59,0,0,1-.3.33Zm3.31-2.25c-.08-.57-.15-1.11-.23-1.66,0,0-.06-.11-.08-.11a.22.22,0,0,0-.15.08c-.13.27-.26.55-.38.82l-.4.87Z"/><path class="cls-2" d="M100.34,241.59c-.23-.12-.27-.17-.23-.44.07-.48.15-.95.23-1.42q.16-1,.33-1.92c.06-.36.13-.72.2-1.07s.14-.29.36-.32h2.92c.23,0,.28,0,.25.27s-.07.42-.11.63a.23.23,0,0,1-.26.19h-2a.15.15,0,0,0-.11.09c-.05.27-.09.55-.14.85h1.74c.25,0,.29.07.25.32s0,.3-.06.44-.09.27-.31.27h-1.79l-.16,1h2.1c.22,0,.26.06.23.27a4.9,4.9,0,0,1-.1.54,1.26,1.26,0,0,1-.17.28Z"/><path class="cls-2" d="M113.24,230.65a2.52,2.52,0,0,0-.08.3c0,.33-.11.39-.45.39h-1.08l-.26,1.5-.4,2.31a.27.27,0,0,1-.29.26H110c-.18,0-.24-.07-.22-.25s.09-.63.14-.94c.11-.65.22-1.3.33-1.94l.16-.94h-1.27c-.11,0-.17-.06-.16-.17s.07-.51.14-.76c0-.06.12-.12.19-.15a.65.65,0,0,1,.24,0h3.34c.12,0,.25,0,.34.1Z"/><path class="cls-2" d="M109.9,241.59a.38.38,0,0,1-.11-.41c.1-.62.21-1.23.32-1.85l.31-1.82h-1.23c-.17,0-.21,0-.19-.2s.07-.47.12-.7a.22.22,0,0,1,.21-.18h3.6c.11,0,.23,0,.31.11v.28l-.12.49a.25.25,0,0,1-.27.21h-1.23c-.05.29-.1.56-.15.83-.17,1-.34,2-.5,2.94a.37.37,0,0,1-.23.31Z"/><path class="cls-2" d="M100.94,230.23l.36,0c.13,0,.2.08.19.21s-.05.48-.09.72c-.11.65-.23,1.3-.33,2a2.64,2.64,0,0,0,0,.58.62.62,0,0,0,.56.59,2,2,0,0,0,.56,0,.69.69,0,0,0,.57-.5,9.4,9.4,0,0,0,.23-1c.14-.76.26-1.53.4-2.29,0-.21.1-.27.32-.28s.42,0,.63,0,.27.09.25.3-.07.48-.11.72l-.35,2.08a3.46,3.46,0,0,1-.41,1.25,1.86,1.86,0,0,1-1.45.87,2.61,2.61,0,0,1-1.27-.11,1.66,1.66,0,0,1-1.12-1.61,6.85,6.85,0,0,1,.12-1c.12-.72.25-1.44.37-2.16,0-.25.1-.3.34-.32h.29Z"/><path class="cls-2" d="M107.25,230.19l1.09.09c.16,0,.25.1.24.25a3.75,3.75,0,0,1-.11.66c0,.16-.16.2-.34.2-.49,0-1,0-1.47,0a.79.79,0,0,0-.35.09.32.32,0,0,0,0,.57,2.88,2.88,0,0,0,.54.23c.3.12.61.2.9.34a1.29,1.29,0,0,1,.83,1.29,1.46,1.46,0,0,1-.89,1.35,2.73,2.73,0,0,1-1.09.24,8.76,8.76,0,0,1-1.88-.13c-.11,0-.18-.09-.16-.2s.07-.47.11-.7.11-.2.28-.19c.4,0,.8.08,1.2.09a5.61,5.61,0,0,0,.81-.06.51.51,0,0,0,.22-.11.31.31,0,0,0,0-.55,6.38,6.38,0,0,0-.64-.24c-.27-.1-.54-.19-.8-.31a1.41,1.41,0,0,1-.22-2.42,2.39,2.39,0,0,1,1.34-.44h.46Z"/><path class="cls-2" d="M98.35,231.34h-1c-.22,0-.27-.07-.24-.28s.07-.39.11-.59a.24.24,0,0,1,.26-.22h2c.16,0,.22.07.2.24s-.09.58-.14.87q-.16,1-.33,1.93a7.37,7.37,0,0,1-.37,1.59A2.45,2.45,0,0,1,97,236.41c-.2,0-.27,0-.36-.18a4.38,4.38,0,0,1-.2-.51c-.06-.18,0-.27.17-.34l.38-.14a1.44,1.44,0,0,0,.92-1.2c.14-.86.29-1.71.44-2.56C98.34,231.44,98.34,231.4,98.35,231.34Z"/></g><path class="cls-2" d="M29.13,233.5v2.29H28.06v-6.15h2.35a2.86,2.86,0,0,1,1,.15,2,2,0,0,1,.7.41,1.74,1.74,0,0,1,.44.62,2,2,0,0,1,.15.78,2,2,0,0,1-.15.8,1.6,1.6,0,0,1-.44.6,2,2,0,0,1-.7.38,3.16,3.16,0,0,1-1,.13Zm0-.86h1.28a1.64,1.64,0,0,0,.53-.08,1,1,0,0,0,.37-.22.83.83,0,0,0,.21-.33,1.29,1.29,0,0,0,.07-.42,1.31,1.31,0,0,0-.07-.41,1,1,0,0,0-.21-.35,1,1,0,0,0-.37-.25,1.4,1.4,0,0,0-.53-.09H29.13Z"/><path class="cls-2" d="M35.86,233.42H34.67v2.37H33.6v-6.15h2.16a3.39,3.39,0,0,1,.94.12,1.92,1.92,0,0,1,.7.36,1.5,1.5,0,0,1,.43.58,2,2,0,0,1,.15.8,1.73,1.73,0,0,1-.3,1,1.9,1.9,0,0,1-.83.64l1.38,2.57v.05H37.09Zm-1.19-.86h1.1a1.51,1.51,0,0,0,.5-.08,1,1,0,0,0,.36-.21.86.86,0,0,0,.22-.32,1.13,1.13,0,0,0,.07-.41,1.3,1.3,0,0,0-.07-.43.86.86,0,0,0-.21-.33.93.93,0,0,0-.36-.21,1.65,1.65,0,0,0-.52-.07H34.67Z"/><path class="cls-2" d="M42.6,233H40.07v1.89h3v.85H39v-6.15h4v.86H40.07v1.7H42.6Z"/><path class="cls-2" d="M47.11,234.2a.94.94,0,0,0-.05-.33.66.66,0,0,0-.2-.27,1.66,1.66,0,0,0-.4-.23,5.93,5.93,0,0,0-.66-.23,6.34,6.34,0,0,1-.81-.3,2.79,2.79,0,0,1-.64-.39,1.69,1.69,0,0,1-.42-.52,1.42,1.42,0,0,1-.15-.67,1.49,1.49,0,0,1,.16-.68,1.61,1.61,0,0,1,.45-.54,2.11,2.11,0,0,1,.69-.36,2.93,2.93,0,0,1,.89-.13,2.71,2.71,0,0,1,.93.15,2.08,2.08,0,0,1,.7.41,1.78,1.78,0,0,1,.44.6,1.75,1.75,0,0,1,.15.72H47.11A1.17,1.17,0,0,0,47,231a.86.86,0,0,0-.21-.33,1,1,0,0,0-.36-.21,1.59,1.59,0,0,0-.52-.08,1.69,1.69,0,0,0-.49.06,1,1,0,0,0-.34.18.7.7,0,0,0-.2.27.86.86,0,0,0-.07.34.68.68,0,0,0,.32.57,3.44,3.44,0,0,0,1,.42,5.72,5.72,0,0,1,.9.34,2.55,2.55,0,0,1,.63.42,1.52,1.52,0,0,1,.37.53,1.7,1.7,0,0,1,.12.66,1.56,1.56,0,0,1-.15.7,1.5,1.5,0,0,1-.44.53,2.08,2.08,0,0,1-.69.33,3.3,3.3,0,0,1-.9.12,3.25,3.25,0,0,1-.87-.12,2.46,2.46,0,0,1-.77-.36,1.9,1.9,0,0,1-.55-.61,1.68,1.68,0,0,1-.21-.85h1.07a1.11,1.11,0,0,0,.1.5.94.94,0,0,0,.28.34,1.19,1.19,0,0,0,.42.19A2.17,2.17,0,0,0,46,235a1.32,1.32,0,0,0,.84-.23A.73.73,0,0,0,47.11,234.2Z"/><path class="cls-2" d="M52.72,233H50.19v1.89h3v.85h-4v-6.15h4v.86H50.19v1.7h2.53Z"/><path class="cls-2" d="M58.9,235.79H57.83l-2.74-4.37v4.37H54v-6.15h1.07L57.84,234v-4.38H58.9Z"/><path class="cls-2" d="M64.48,230.49H62.57v5.29H61.5v-5.29H59.6v-.86h4.88Z"/><path class="cls-2" d="M68.89,233H66.36v1.89h3v.85h-4v-6.15h4v.86H66.36v1.7h2.53Z"/><path class="cls-2" d="M70.19,235.79v-6.15H72a3,3,0,0,1,1.13.21,2.48,2.48,0,0,1,.88.59,2.68,2.68,0,0,1,.57.92,3.42,3.42,0,0,1,.2,1.21v.3a3.44,3.44,0,0,1-.2,1.21A2.6,2.6,0,0,1,74,235a2.52,2.52,0,0,1-.89.59,3.13,3.13,0,0,1-1.16.21Zm1.07-5.29v4.44H72a1.94,1.94,0,0,0,.77-.14,1.42,1.42,0,0,0,.55-.41,1.79,1.79,0,0,0,.33-.65,3.15,3.15,0,0,0,.11-.87v-.31a2.35,2.35,0,0,0-.44-1.53,1.54,1.54,0,0,0-1.26-.53Z"/><path class="cls-2" d="M78,235.79v-6.15h2.11a3.74,3.74,0,0,1,.9.1,1.88,1.88,0,0,1,.67.3,1.32,1.32,0,0,1,.42.52,1.76,1.76,0,0,1,.15.75,1.33,1.33,0,0,1-.23.76,1.47,1.47,0,0,1-.67.52,1.47,1.47,0,0,1,.46.21,1.3,1.3,0,0,1,.33.32,1.36,1.36,0,0,1,.19.41,1.69,1.69,0,0,1,.06.46,2,2,0,0,1-.15.78,1.48,1.48,0,0,1-.42.56,1.87,1.87,0,0,1-.67.34,3.22,3.22,0,0,1-.89.11Zm1.07-3.56h1a1.21,1.21,0,0,0,.78-.23.77.77,0,0,0,.28-.64.79.79,0,0,0-.26-.66,1.32,1.32,0,0,0-.81-.2h-1Zm0,.79v1.92h1.19a1.43,1.43,0,0,0,.46-.07.91.91,0,0,0,.34-.19.78.78,0,0,0,.2-.3,1.05,1.05,0,0,0,.07-.38.89.89,0,0,0-1-1Z"/><path class="cls-2" d="M85.24,232.55l1.42-2.92h1.18l-2.06,3.89v2.27H84.7v-2.27l-2.07-3.89h1.19Z"/><path class="cls-2" d="M29.13,243.24v2.29H28.06v-6.15h2.35a2.86,2.86,0,0,1,1,.15,2,2,0,0,1,.7.41,1.74,1.74,0,0,1,.44.62,2,2,0,0,1,.15.78,2,2,0,0,1-.15.8,1.6,1.6,0,0,1-.44.6,2,2,0,0,1-.7.38,3.16,3.16,0,0,1-1,.13Zm0-.86h1.28a1.64,1.64,0,0,0,.53-.08,1,1,0,0,0,.37-.22.83.83,0,0,0,.21-.33,1.29,1.29,0,0,0,.07-.42,1.31,1.31,0,0,0-.07-.41,1,1,0,0,0-.21-.35,1,1,0,0,0-.37-.25,1.4,1.4,0,0,0-.53-.09H29.13Z"/><path class="cls-2" d="M35.86,243.15H34.67v2.37H33.6v-6.15h2.16a3.39,3.39,0,0,1,.94.12,1.92,1.92,0,0,1,.7.36,1.5,1.5,0,0,1,.43.58,2,2,0,0,1,.15.8,1.73,1.73,0,0,1-.3,1,1.9,1.9,0,0,1-.83.64l1.38,2.57v.05H37.09Zm-1.19-.86h1.1a1.51,1.51,0,0,0,.5-.08,1,1,0,0,0,.36-.21.86.86,0,0,0,.22-.32,1.13,1.13,0,0,0,.07-.41,1.3,1.3,0,0,0-.07-.43.86.86,0,0,0-.21-.33.93.93,0,0,0-.36-.21,1.65,1.65,0,0,0-.52-.07H34.67Z"/><path class="cls-2" d="M42.6,242.78H40.07v1.89h3v.85H39v-6.15h4v.86H40.07v1.7H42.6Zm-1.27-5.08H42.5L41.32,239H40.5Z"/><path class="cls-2" d="M47.11,243.94a.94.94,0,0,0-.05-.33.66.66,0,0,0-.2-.27,1.66,1.66,0,0,0-.4-.23,5.93,5.93,0,0,0-.66-.23,6.34,6.34,0,0,1-.81-.3,2.79,2.79,0,0,1-.64-.39,1.69,1.69,0,0,1-.42-.52,1.42,1.42,0,0,1-.15-.67,1.49,1.49,0,0,1,.16-.68,1.61,1.61,0,0,1,.45-.54,2.11,2.11,0,0,1,.69-.36,2.93,2.93,0,0,1,.89-.13,2.71,2.71,0,0,1,.93.15,2.08,2.08,0,0,1,.7.41,1.78,1.78,0,0,1,.44.6,1.75,1.75,0,0,1,.15.72H47.11a1.17,1.17,0,0,0-.07-.41.86.86,0,0,0-.21-.33,1,1,0,0,0-.36-.21,1.59,1.59,0,0,0-.52-.08,1.69,1.69,0,0,0-.49.06,1,1,0,0,0-.34.18.7.7,0,0,0-.2.27.86.86,0,0,0-.07.34.68.68,0,0,0,.32.57,3.44,3.44,0,0,0,1,.42,5.72,5.72,0,0,1,.9.34,2.55,2.55,0,0,1,.63.42,1.52,1.52,0,0,1,.37.53,1.7,1.7,0,0,1,.12.66,1.56,1.56,0,0,1-.15.7,1.5,1.5,0,0,1-.44.53,2.08,2.08,0,0,1-.69.33,3.3,3.3,0,0,1-.9.12,3.25,3.25,0,0,1-.87-.12,2.46,2.46,0,0,1-.77-.36,1.9,1.9,0,0,1-.55-.61,1.68,1.68,0,0,1-.21-.85h1.07a1.11,1.11,0,0,0,.1.5.94.94,0,0,0,.28.34,1.19,1.19,0,0,0,.42.19,2.17,2.17,0,0,0,.53.06,1.32,1.32,0,0,0,.84-.23A.73.73,0,0,0,47.11,243.94Z"/><path class="cls-2" d="M52.72,242.78H50.19v1.89h3v.85h-4v-6.15h4v.86H50.19v1.7h2.53Z"/><path class="cls-2" d="M58.9,245.53H57.83l-2.74-4.37v4.37H54v-6.15h1.07l2.75,4.38v-4.38H58.9Z"/><path class="cls-2" d="M64.48,240.23H62.57v5.29H61.5v-5.29H59.6v-.86h4.88Z"/><path class="cls-2" d="M68.89,242.78H66.36v1.89h3v.85h-4v-6.15h4v.86H66.36v1.7h2.53Zm-1.27-5.08h1.17L67.62,239h-.82Z"/><path class="cls-2" d="M73.41,243.24v2.29H72.34v-6.15H74.7a2.86,2.86,0,0,1,1,.15,2,2,0,0,1,.7.41,1.74,1.74,0,0,1,.44.62,2,2,0,0,1,.15.78,2,2,0,0,1-.15.8,1.6,1.6,0,0,1-.44.6,2,2,0,0,1-.7.38,3.16,3.16,0,0,1-1,.13Zm0-.86H74.7a1.64,1.64,0,0,0,.53-.08,1,1,0,0,0,.37-.22.83.83,0,0,0,.21-.33,1.29,1.29,0,0,0,.07-.42,1.31,1.31,0,0,0-.07-.41,1,1,0,0,0-.21-.35,1,1,0,0,0-.37-.25,1.4,1.4,0,0,0-.53-.09H73.41Z"/><path class="cls-2" d="M80.57,244.09H78.18l-.5,1.43H76.57l2.32-6.15h1l2.33,6.15H81.07Zm-2.08-.86h1.78l-.89-2.55Z"/><path class="cls-2" d="M85.15,243.15H84v2.37H82.89v-6.15H85a3.39,3.39,0,0,1,.94.12,1.92,1.92,0,0,1,.7.36,1.5,1.5,0,0,1,.43.58,2,2,0,0,1,.15.8,1.73,1.73,0,0,1-.3,1,1.9,1.9,0,0,1-.83.64l1.38,2.57v.05H86.38ZM84,242.3h1.1a1.51,1.51,0,0,0,.5-.08,1,1,0,0,0,.36-.21.86.86,0,0,0,.22-.32,1.13,1.13,0,0,0,.07-.41,1.3,1.3,0,0,0-.07-.43.86.86,0,0,0-.21-.33.93.93,0,0,0-.36-.21,1.65,1.65,0,0,0-.52-.07H84Z"/></svg>