<svg xmlns="http://www.w3.org/2000/svg" xmlns:xlink="http://www.w3.org/1999/xlink" id="Layer_1" data-name="Layer 1" viewBox="0 0 800 1000"><defs><style>.cls-1{fill:none}.cls-2,.cls-24{fill:#fff}.cls-3{fill:#ab7029}.cls-4{fill:#9c6226}.cls-5{fill:#b32029}.cls-6{fill:#faa21e}.cls-7{fill:#a9ae38}.cls-8,.cls-9{fill:#6d1f11;stroke:#fff;stroke-linecap:round;stroke-linejoin:round}.cls-8{stroke-width:4.93px}.cls-9{stroke-width:4.21px}.cls-10{fill:#411f1f}.cls-11{fill:#be2f2c}.cls-12{fill:#ee1f36}.cls-13{clip-path:url(#clip-path)}.cls-14{fill:#ee1f37}.cls-15{fill:#f05528}.cls-16{fill:#82cae8}.cls-17{fill:#74bb44}.cls-18{fill:#457bbf}.cls-19{fill:#e1e440}.cls-20{fill:#37ade3}.cls-21{fill:#f05c5f}.cls-22{fill:#f99c33}.cls-23{fill:#fed535}.cls-24{font-size:40px;font-family:Roboto-Medium,Roboto}.cls-25{letter-spacing:-.01em}.cls-26{letter-spacing:-.03em}.cls-27{letter-spacing:-.09em}.cls-28{fill:#fda41b}.cls-29{fill:#c7122e}</style><clipPath id="clip-path"><rect width="152.55" height="152.55" x="58.46" y="822.8" class="cls-1" rx="38.69" ry="38.69"/></clipPath></defs><title>logo_tall</title><polygon points="463.48 110.29 508.23 122.28 469.89 265.37 413.65 296.27 463.48 110.29" class="cls-2"/><path d="M270.86,729c-41.6-.08-80.89-.16-111.67-12.09-38-14.73-57.47-45.48-57.85-91.4l-9.09.48q-.65,0-1.31,0a24,24,0,0,1-23.88-22.72l-.73-14a23.87,23.87,0,0,1,1.8-10.44l-.36-7a24,24,0,0,1,14-23,24,24,0,0,1,.57-3.65l15.82-66.76c-29-4.73-39.72-25.67-39.68-45.39,0-25.39,16.22-49.67,43.3-66.47C102.09,272.56,203,173,389.61,173.38c84.42.16,156.64,20.88,208.84,59.91,47.72,35.68,75,84.7,74.93,134.51l0,10.25q.07.94.07,1.9l-.06,32.49h3.38a23.93,23.93,0,0,1,10.16,2.28,49.5,49.5,0,0,1,14.79-2.23c22.38,0,39.88,18.21,39.83,41.37s-17.54,40.8-40.69,40.76a36.38,36.38,0,0,1-11.76-2l-4.9,23,6.32-.34c.44,0,.88,0,1.32,0A24,24,0,0,1,715.71,538l.37,7A23.88,23.88,0,0,1,719,555.19l.74,14A24,24,0,0,1,697,594.42l-9.07.46a13.59,13.59,0,0,0-1.53.15c-.76.44-2.57,1.75-3.91,2.72-2.53,1.83-5.66,4.1-9.48,6.42l0,20.68c-.09,46.87-19.68,78.13-58.22,92.89-30.83,11.81-70.12,11.74-111.72,11.65Z" class="cls-2"/><path d="M649.26,367.27c0-80.5-88.05-169.9-260.2-169.9s-263.51,89.4-263.51,169.9v12.15h523.7Z" class="cls-3"/><path d="M332.57,221.08h-17a2.1,2.1,0,0,0-1.95,1.3A9.52,9.52,0,0,0,313,226a9.62,9.62,0,0,0,.63,3.61,2.1,2.1,0,0,0,1.95,1.29h17a2.1,2.1,0,0,0,2-1.32,10,10,0,0,0,.62-3.58,9.81,9.81,0,0,0-.62-3.59A2.12,2.12,0,0,0,332.57,221.08Z" class="cls-4"/><path d="M396.21,221.08h-17a2.1,2.1,0,0,0-1.94,1.3,10.59,10.59,0,0,0,0,7.21,2.1,2.1,0,0,0,1.94,1.29h17a2.1,2.1,0,0,0,2-1.32,9.77,9.77,0,0,0,.62-3.58,9.63,9.63,0,0,0-.62-3.59A2.11,2.11,0,0,0,396.21,221.08Z" class="cls-4"/><path d="M459.85,221.08h-17a2.1,2.1,0,0,0-1.95,1.31,9.52,9.52,0,0,0-.63,3.59,9.72,9.72,0,0,0,.63,3.59,2.12,2.12,0,0,0,1.95,1.31h17a2.1,2.1,0,0,0,2-1.32,10.74,10.74,0,0,0,0-7.16A2.1,2.1,0,0,0,459.85,221.08Z" class="cls-4"/><path d="M300.6,259h-17a2.11,2.11,0,0,0-2,1.31,10.72,10.72,0,0,0,0,7.17,2.11,2.11,0,0,0,2,1.31h17a2.1,2.1,0,0,0,1.94-1.29,10.52,10.52,0,0,0,0-7.2A2.1,2.1,0,0,0,300.6,259Z" class="cls-4"/><path d="M364.25,259h-17a2.11,2.11,0,0,0-1.94,1.31,10.49,10.49,0,0,0,0,7.17,2.1,2.1,0,0,0,1.94,1.31h17a2.11,2.11,0,0,0,1.95-1.31,10.64,10.64,0,0,0,0-7.17A2.11,2.11,0,0,0,364.25,259Z" class="cls-4"/><path d="M237.23,259h-17a2.11,2.11,0,0,0-1.94,1.31,10.57,10.57,0,0,0,0,7.17,2.11,2.11,0,0,0,1.94,1.31h17a2.09,2.09,0,0,0,1.93-1.28,10.34,10.34,0,0,0,0-7.22A2.11,2.11,0,0,0,237.23,259Z" class="cls-4"/><path d="M427.89,259h-17a2.1,2.1,0,0,0-1.95,1.31,10.64,10.64,0,0,0,0,7.17,2.1,2.1,0,0,0,1.95,1.31h17a2.12,2.12,0,0,0,1.95-1.31,10.64,10.64,0,0,0,0-7.17A2.12,2.12,0,0,0,427.89,259Z" class="cls-4"/><path d="M491.54,259h-17a2.11,2.11,0,0,0-2,1.32,10.64,10.64,0,0,0,0,7.15,2.11,2.11,0,0,0,2,1.31h17a2.11,2.11,0,0,0,2-1.31,9.45,9.45,0,0,0,.63-3.58,9.6,9.6,0,0,0-.62-3.59A2.11,2.11,0,0,0,491.54,259Z" class="cls-4"/><path d="M555.18,259h-17a2.1,2.1,0,0,0-2,1.32,9.72,9.72,0,0,0-.62,3.57,9.56,9.56,0,0,0,.63,3.6,2.11,2.11,0,0,0,1.95,1.29h17a2.1,2.1,0,0,0,2-1.31,10.67,10.67,0,0,0,0-7.15A2.12,2.12,0,0,0,555.18,259Z" class="cls-4"/><path d="M332.57,298.7h-17a2.11,2.11,0,0,0-1.94,1.29,10.48,10.48,0,0,0,0,7.21,2.11,2.11,0,0,0,1.94,1.29h17a2.13,2.13,0,0,0,2-1.31,9.94,9.94,0,0,0,.62-3.58,9.47,9.47,0,0,0-.63-3.59A2.1,2.1,0,0,0,332.57,298.7Z" class="cls-4"/><path d="M396.21,298.7h-17a2.11,2.11,0,0,0-1.94,1.29,10.59,10.59,0,0,0,0,7.21,2.1,2.1,0,0,0,1.94,1.29h17a2.12,2.12,0,0,0,2-1.31,9.73,9.73,0,0,0,.62-3.58,9.38,9.38,0,0,0-.62-3.59A2.09,2.09,0,0,0,396.21,298.7Z" class="cls-4"/><path d="M459.85,298.7h-17a2.11,2.11,0,0,0-1.95,1.3,9.59,9.59,0,0,0-.63,3.59,9.41,9.41,0,0,0,.64,3.59,2.1,2.1,0,0,0,1.94,1.31h17a2.12,2.12,0,0,0,2-1.31,10.74,10.74,0,0,0,0-7.16A2.11,2.11,0,0,0,459.85,298.7Z" class="cls-4"/><path d="M364.25,336.65h-17a2.11,2.11,0,0,0-1.94,1.31,10.5,10.5,0,0,0,0,7.17,2.09,2.09,0,0,0,1.94,1.31h17a2.1,2.1,0,0,0,1.95-1.31,9.62,9.62,0,0,0,.62-3.59,9.43,9.43,0,0,0-.63-3.58A2.1,2.1,0,0,0,364.25,336.65Z" class="cls-4"/><path d="M427.89,336.65h-17a2.11,2.11,0,0,0-1.95,1.31,9.61,9.61,0,0,0-.62,3.58,9.43,9.43,0,0,0,.62,3.59,2.09,2.09,0,0,0,1.95,1.31h17a2.11,2.11,0,0,0,1.95-1.31,9.62,9.62,0,0,0,.62-3.59,9.37,9.37,0,0,0-.63-3.58A2.1,2.1,0,0,0,427.89,336.65Z" class="cls-4"/><path d="M523,298.7H506.49a2.11,2.11,0,0,0-2,1.32,9.62,9.62,0,0,0-.63,3.57,9.74,9.74,0,0,0,.63,3.58,2.12,2.12,0,0,0,2,1.31H523a2.12,2.12,0,0,0,2-1.31,10.75,10.75,0,0,0,0-7.16A2.11,2.11,0,0,0,523,298.7Z" class="cls-4"/><path d="M588.55,300a2.1,2.1,0,0,0-1.94-1.32h-17a2.11,2.11,0,0,0-2,1.32,9.7,9.7,0,0,0-.62,3.57,9.82,9.82,0,0,0,.62,3.58,2.12,2.12,0,0,0,2,1.31h17a2.11,2.11,0,0,0,1.94-1.31,9.67,9.67,0,0,0,.62-3.58A9.56,9.56,0,0,0,588.55,300Z" class="cls-4"/><path d="M555.18,336.65H537.63a2.12,2.12,0,0,0-2,1.32,10.7,10.7,0,0,0,0,7.15,2.1,2.1,0,0,0,2,1.31h17.54a2.1,2.1,0,0,0,2-1.31,10.67,10.67,0,0,0,0-7.15A2.13,2.13,0,0,0,555.18,336.65Z" class="cls-4"/><path d="M491.28,336.65H474.52a2.13,2.13,0,0,0-2,1.32,10.66,10.66,0,0,0,0,7.15,2.1,2.1,0,0,0,2,1.31h16.76a2.1,2.1,0,0,0,2-1.31,10.71,10.71,0,0,0,0-7.15A2.12,2.12,0,0,0,491.28,336.65Z" class="cls-4"/><path d="M205.21,298.7h-17a2.1,2.1,0,0,0-1.94,1.32,9.61,9.61,0,0,0-.62,3.57,9.72,9.72,0,0,0,.62,3.58,2.11,2.11,0,0,0,1.94,1.31h17a2.11,2.11,0,0,0,1.95-1.31,9.68,9.68,0,0,0,.62-3.58,9.37,9.37,0,0,0-.63-3.59A2.09,2.09,0,0,0,205.21,298.7Z" class="cls-4"/><path d="M268.86,298.7h-17A2.09,2.09,0,0,0,250,300a9.54,9.54,0,0,0-.63,3.57,9.37,9.37,0,0,0,.63,3.59,2.11,2.11,0,0,0,1.94,1.31h16.94a2.1,2.1,0,0,0,1.94-1.31,9.68,9.68,0,0,0,.62-3.58,9.37,9.37,0,0,0-.62-3.59A2.09,2.09,0,0,0,268.86,298.7Z" class="cls-4"/><path d="M236.9,336.65H220.23a2.12,2.12,0,0,0-1.94,1.31,9.64,9.64,0,0,0-.63,3.58,9.4,9.4,0,0,0,.63,3.59,2.1,2.1,0,0,0,1.94,1.31H236.9a2.1,2.1,0,0,0,1.94-1.31,9.54,9.54,0,0,0,.63-3.59,9.41,9.41,0,0,0-.63-3.58A2.1,2.1,0,0,0,236.9,336.65Z" class="cls-4"/><path d="M301.78,337.09a2.07,2.07,0,0,0-1.24-.44H283.6a2.12,2.12,0,0,0-2,1.31,9.69,9.69,0,0,0-.62,3.58,9.46,9.46,0,0,0,.62,3.59,2.1,2.1,0,0,0,2,1.31h17a2.1,2.1,0,0,0,1.94-1.29,10.54,10.54,0,0,0,0-7.2A1.89,1.89,0,0,0,301.78,337.09Z" class="cls-4"/><path d="M649.19,435.61c0,5,0,9.12-5.07,9.12H130.7c-5,0-5.07-4.09-5.07-9.12v-17.7c0-5,0-9.12,5.07-9.12H644.12c5,0,5.07,4.08,5.07,9.12Z" class="cls-5"/><rect width="523.77" height="13.79" x="125.52" y="387.16" class="cls-6"/><polygon points="464.47 391.93 388.81 437.47 310.34 391.93 464.47 391.93" class="cls-6"/><path d="M125.63,612.17v12.15c0,80.51,65.26,80.92,145.78,80.92H503.56c80.52,0,145.78-.41,145.78-80.92V612.17Z" class="cls-3"/><path d="M151.51,627.11c0,12.65,1,21.41,18.49,12.65s38.93-20.44,83.71-19.47c-16.55,4.87-36,13.63-38,25.31s9.73,16.55,35,10.71c2.92,10.71,13.62,22.39,36,2.92s35-27.25,45.75-31.15,13.63,1.95,1.95,8.76-22.39,10.71-24.33,18.5,0,20.44,19.47,14.6c0,13.63,3.89,25.31,20.44,25.31s23.35-8.76,23.35-25.31c10.72,5.84,26.29,9.74,27.25-11.68s10.72-31.15,20.45-36,11.45,4.19,4.86,6.82c-8.72,3.48-12.5,9.73-12.65,16.54-.2,8.74,14.83,21.71,30.18,5.84,1.17,9.39,18.49,15.57,24.33-3.9s7.49-31.52,25.31-32.12c-12.22,4.44-19.47,22.39-3.89,28.23s23.36-8.77,25.3-13.63,6.82-15.56,21.42-14.6c-12.62,5.62-12.66,25.3,0,26.28s17.52-2.92,27.25-11.69,29.2-18.49,53.54-14.6c-4.87,12.65,3.94,17.74,11.81,16.22,9.57-1.83,8.73-12.36,11.71-19.48h-499v.33C133.5,617.38,128.15,637.81,151.51,627.11Z" class="cls-7"/><path d="M99.33,583.4c9.4-.5,13.49,1.86,20.29,5.75,8.21,4.72,19.47,11.19,39.39,10.1s30.41-8.71,38.07-14.29c6.33-4.61,10.14-7.4,19.55-7.91s13.49,1.85,20.28,5.75c8.22,4.72,19.47,11.18,39.4,10.1s30.4-8.72,38.06-14.29c6.34-4.62,10.16-7.41,19.56-7.92s13.51,1.85,20.3,5.77c8.23,4.71,19.48,11.17,39.39,10.09s30.43-8.73,38.1-14.31c6.32-4.6,10.14-7.38,19.54-7.89s13.51,1.85,20.29,5.75c8.23,4.72,19.49,11.18,39.4,10.1s30.42-8.72,38.09-14.3c6.34-4.62,10.14-7.4,19.54-7.91s13.52,1.84,20.3,5.75c8.23,4.72,19.48,11.18,39.4,10.11s30.42-8.72,38.08-14.3c6.33-4.61,10.15-7.4,19.56-7.9l6.72-.36L692,538.7l-6.72.37c-20.61,1.11-31.43,9-39.34,14.75-6.19,4.49-9.6,7-18.3,7.45s-12.37-1.63-19-5.44c-8.48-4.87-20.08-11.54-40.7-10.42s-31.41,9-39.33,14.75c-6.18,4.5-9.58,7-18.3,7.45s-12.35-1.63-19-5.44c-8.47-4.86-20.07-11.53-40.68-10.41s-31.42,9-39.33,14.74c-6.19,4.5-9.6,7-18.31,7.46s-12.35-1.63-19-5.45c-8.48-4.86-20.07-11.52-40.69-10.41s-31.43,9-39.33,14.76c-6.18,4.49-9.59,7-18.29,7.44s-12.36-1.63-19-5.43c-8.48-4.87-20.07-11.54-40.7-10.42s-31.42,9-39.33,14.76c-6.18,4.5-9.58,7-18.29,7.44s-12.35-1.63-19-5.43c-8.47-4.88-20.07-11.54-40.68-10.42l-6.72.36.67,12.61Z" class="cls-5"/><path d="M669.13,563.36c-8.15,5.93-19.3,14-40.6,15.2s-33.25-5.7-42-10.71c-6.47-3.72-9.72-5.58-17.73-5.14s-11,2.63-17,7c-8.15,5.93-19.3,14-40.6,15.2s-33.25-5.7-42-10.7c-6.45-3.72-9.68-5.58-17.72-5.15s-11,2.63-17,7c-8.15,5.93-19.28,14-40.6,15.2s-33.23-5.7-42-10.71c-6.47-3.71-9.71-5.58-17.73-5.14s-11,2.63-17,7c-8.16,5.94-19.3,14-40.59,15.2s-33.25-5.71-42-10.71c-6.45-3.71-9.7-5.58-17.71-5.14s-11,2.63-17,7c-8.14,5.92-19.29,14-40.59,15.2s-33.25-5.72-42-10.72c-6.45-3.72-9.68-5.58-17.7-5.14l-9.05.49.76,14,9.06-.49c8.7-.47,12.36,1.62,19,5.44,8.47,4.87,20.07,11.53,40.69,10.42s31.42-9,39.33-14.75c6.18-4.51,9.58-7,18.29-7.45s12.35,1.62,19,5.44c8.48,4.86,20.08,11.53,40.69,10.41s31.44-9,39.33-14.75c6.18-4.51,9.59-7,18.29-7.46s12.36,1.63,19,5.46c8.48,4.85,20.07,11.52,40.68,10.4s31.45-9,39.36-14.75c6.18-4.5,9.58-7,18.29-7.45s12.36,1.62,19,5.44c8.47,4.86,20.06,11.54,40.69,10.42s31.43-9,39.36-14.76c6.17-4.5,9.58-7,18.28-7.44s12.37,1.63,19,5.44c8.47,4.86,20.08,11.52,40.7,10.41s31.44-9,39.36-14.75c6.18-4.5,9.58-7,18.28-7.45l9.07-.48-.77-14-9.06.48C678.14,556.79,675.14,559,669.13,563.36Z" class="cls-5"/><path d="M181.46,392.16,168.94,446h1.61c21.3,0,38.34-21.1,38.34-39.29,0-13.81-9.86-26.17-35.16-26.17-31.16,0-66.58,18.91-66.58,58.91,0,12.36,3.45,14.3,3.74,16.49-17.6,0-28.51-6.06-28.51-22.31,0-33.45,46.34-64.24,96.67-64.24,39.15,0,56.72,18.66,56.72,38.53,0,14.33-9.32,29.59-26.63,38.55,22.64,4.12,31.43,20.85,31.43,39,0,23.27-13.85,69.81-58.33,69.81-11.44,0-26.36-3.15-26.36-17.94,0-3.88,1.07-8.49,3.47-14.06,6.65,6.3,11.71,8.73,17.85,8.73,19.44,0,26.36-25.22,26.36-43.66,0-17-5.86-30.78-25.29-30.78-2.14,0-7.46.25-12.26.72l-21.83,92.86H105.83L142.05,397Z" class="cls-8"/><path d="M347.22,435.87l-16.64,78.56a32.39,32.39,0,0,0-.93,7.39c0,6.47,3,8.56,9.48,8.56,9,0,15.25-8.79,18.71-20.34h9.71c-13.17,37.66-34,42.75-46.44,42.75-13.17,0-21.49-7.63-22.87-22-11.55,18.95-24.49,22-34.2,22-13.86,0-24.72-8.31-24.72-27.73a75.76,75.76,0,0,1,1.85-15l15.71-74.17h33.27l-16.63,78.56a33,33,0,0,0-.69,6.47c0,5.33,1.84,9.49,6.93,9.49,9,0,15-8.79,18.49-20.34L314,435.87Z" class="cls-9"/><path d="M406.81,435.87l-3,14.33c8.08-6.94,16.86-14.33,28-14.33,10.38,0,15.93,8.55,15.93,17.33,0,8.09-5.31,16.87-16.63,16.87-12.94,0-6.47-15.25-13.4-15.25s-11.09,3.46-16.88,8.78l-18.48,87.8H349l24.49-115.53Z" class="cls-9"/><path d="M546.26,435.87l-22.88,107.2C537.47,538,546,530.13,552.5,510h9.71c-9,30.49-26.58,39.28-40.91,43.2l-3.47,16.64c-6.93,33-26.33,39.28-41.58,39.28-14.1,0-25.88-7.39-25.88-22.42,0-19.4,20.33-29.11,37.66-34.41l2.78-12.25c-6.7,7.16-15.71,12.71-27.73,12.71-15.7,0-30.73-9.72-30.73-37.21,0-31.18,19.18-80.87,59.38-80.87,13.17,0,18.72,5.09,18.72,11.78v1.4l2.54-12ZM470.93,591.13c4.86,0,10.4-6.93,13.41-20.56l1.38-6.71c-11.78,4.4-22.65,10.4-22.65,19.64A7.88,7.88,0,0,0,470.93,591.13Zm-4.39-78.8c0,17.79,7.39,18,11.55,18,6.25,0,15.25-6.24,18.49-18l11.78-54.75c-.23-2.54-2.08-8.55-9.47-8.55C479.25,449,466.55,490.63,466.55,512.34Z" class="cls-9"/><path d="M592.68,533.38c18.24,0,29.34-10.17,40.9-23.34h7.85c-13.17,21.25-32.8,42.75-63.54,42.75-21.73,0-36-10.63-36-36.74,0-26.57,15-82.25,62.39-82.25,20.55,0,25.4,10.63,25.4,22.18,0,26.56-25.4,47.13-53.13,48.75-.24,3.23-.47,6.46-.47,9.25C576,529.67,581.59,533.38,592.68,533.38ZM606.08,446c-11.78,0-23.09,24.72-27.73,47.58,17.79-1.15,33.5-18.94,33.5-38.11C611.85,449.73,610.47,446,606.08,446Z" class="cls-9"/><path d="M676.68,435.87l-3,14.33c8.09-6.94,16.86-14.33,28-14.33,10.4,0,15.95,8.55,15.95,17.33,0,8.09-5.32,16.87-16.65,16.87-12.93,0-6.46-15.25-13.39-15.25s-11.09,3.46-16.86,8.78l-18.49,87.8H618.92l24.49-115.53Z" class="cls-9"/><path d="M181.46,392.16,168.94,446h1.61c21.3,0,38.34-21.1,38.34-39.29,0-13.81-9.86-26.17-35.16-26.17-31.16,0-66.58,18.91-66.58,58.91,0,12.36,3.45,14.3,3.74,16.49-17.6,0-28.51-6.06-28.51-22.31,0-33.45,46.34-64.24,96.67-64.24,39.15,0,56.72,18.66,56.72,38.53,0,14.33-9.32,29.59-26.63,38.55,22.64,4.12,31.43,20.85,31.43,39,0,23.27-13.85,69.81-58.33,69.81-11.44,0-26.36-3.15-26.36-17.94,0-3.88,1.07-8.49,3.47-14.06,6.65,6.3,11.71,8.73,17.85,8.73,19.44,0,26.36-25.22,26.36-43.66,0-17-5.86-30.78-25.29-30.78-2.14,0-7.46.25-12.26.72l-21.83,92.86H105.83L142.05,397Z" class="cls-10"/><path d="M347.22,435.87l-16.64,78.56a32.39,32.39,0,0,0-.93,7.39c0,6.47,3,8.56,9.48,8.56,9,0,15.25-8.79,18.71-20.34h9.71c-13.17,37.66-34,42.75-46.44,42.75-13.17,0-21.49-7.63-22.87-22-11.55,18.95-24.49,22-34.2,22-13.86,0-24.72-8.31-24.72-27.73a75.76,75.76,0,0,1,1.85-15l15.71-74.17h33.27l-16.63,78.56a33,33,0,0,0-.69,6.47c0,5.33,1.84,9.49,6.93,9.49,9,0,15-8.79,18.49-20.34L314,435.87Z" class="cls-10"/><path d="M406.81,435.87l-3,14.33c8.08-6.94,16.86-14.33,28-14.33,10.38,0,15.93,8.55,15.93,17.33,0,8.09-5.31,16.87-16.63,16.87-12.94,0-6.47-15.25-13.4-15.25s-11.09,3.46-16.88,8.78l-18.48,87.8H349l24.49-115.53Z" class="cls-10"/><path d="M546.26,435.87l-22.88,107.2C537.47,538,546,530.13,552.5,510h9.71c-9,30.49-26.58,39.28-40.91,43.2l-3.47,16.64c-6.93,33-26.33,39.28-41.58,39.28-14.1,0-25.88-7.39-25.88-22.42,0-19.4,20.33-29.11,37.66-34.41l2.78-12.25c-6.7,7.16-15.71,12.71-27.73,12.71-15.7,0-30.73-9.72-30.73-37.21,0-31.18,19.18-80.87,59.38-80.87,13.17,0,18.72,5.09,18.72,11.78v1.4l2.54-12ZM470.93,591.13c4.86,0,10.4-6.93,13.41-20.56l1.38-6.71c-11.78,4.4-22.65,10.4-22.65,19.64A7.88,7.88,0,0,0,470.93,591.13Zm-4.39-78.8c0,17.79,7.39,18,11.55,18,6.25,0,15.25-6.24,18.49-18l11.78-54.75c-.23-2.54-2.08-8.55-9.47-8.55C479.25,449,466.55,490.63,466.55,512.34Z" class="cls-10"/><path d="M592.68,533.38c18.24,0,29.34-10.17,40.9-23.34h7.85c-13.17,21.25-32.8,42.75-63.54,42.75-21.73,0-36-10.63-36-36.74,0-26.57,15-82.25,62.39-82.25,20.55,0,25.4,10.63,25.4,22.18,0,26.56-25.4,47.13-53.13,48.75-.24,3.23-.47,6.46-.47,9.25C576,529.67,581.59,533.38,592.68,533.38ZM606.08,446c-11.78,0-23.09,24.72-27.73,47.58,17.79-1.15,33.5-18.94,33.5-38.11C611.85,449.73,610.47,446,606.08,446Z" class="cls-10"/><path d="M676.68,435.87l-3,14.33c8.09-6.94,16.86-14.33,28-14.33,10.4,0,15.95,8.55,15.95,17.33,0,8.09-5.32,16.87-16.65,16.87-12.93,0-6.46-15.25-13.39-15.25s-11.09,3.46-16.86,8.78l-18.49,87.8H618.92l24.49-115.53Z" class="cls-10"/><path d="M237.94,617.16l20-58.29h12.48v58.29l20.48-58.29h6.66l-26.48,71H257v-48.5l-18.85,48.5h-14V564.77c-10.38,3.25-15.44,10.67-15.44,21.16,0,4.85,1.26,5.62,1.34,6.47-6.57,0-10.2-2.38-10.2-9.24,0-12.66,17.54-24.76,33.45-24.76,1.32,0,2.57.09,3.81.18Z" class="cls-9"/><path d="M304,622.4c7.52,0,12.1-4.19,16.86-9.61h3.25c-5.43,8.75-13.53,17.61-26.2,17.61-9,0-14.86-4.38-14.86-15.14,0-11,6.18-33.92,25.72-33.92,8.48,0,10.47,4.38,10.47,9.15,0,11-10.47,19.43-21.91,20.1-.09,1.34-.18,2.67-.18,3.81C297.14,620.87,299.43,622.4,304,622.4Zm5.53-36c-4.86,0-9.52,10.19-11.43,19.63,7.34-.48,13.82-7.82,13.82-15.72C311.9,587.92,311.33,586.39,309.52,586.39Z" class="cls-9"/><path d="M340.56,622.4c7.52,0,12.09-4.19,16.87-9.61h3.23c-5.43,8.75-13.53,17.61-26.2,17.61-9,0-14.86-4.38-14.86-15.14,0-11,6.19-33.92,25.71-33.92,8.48,0,10.48,4.38,10.48,9.15,0,11-10.48,19.43-21.91,20.1-.09,1.34-.19,2.67-.19,3.81C333.7,620.87,336,622.4,340.56,622.4Zm5.53-36c-4.86,0-9.53,10.19-11.44,19.63,7.34-.48,13.82-7.82,13.82-15.72C348.47,587.92,347.9,586.39,346.09,586.39Z" class="cls-9"/><path d="M402.37,582.21l-19.05,13.24a18.81,18.81,0,0,1,3.14-.38c7.05,0,10.48,5,10.48,11.15a16.07,16.07,0,0,1-.39,3.61l-1,4.77a16.11,16.11,0,0,0-.48,3c0,1.9.77,3.52,3.72,3.52a6.32,6.32,0,0,0,3.34-.57c-.48,6.76-6.38,9.81-8.87,9.81-7.8,0-12-3.9-12-10.86a23.8,23.8,0,0,1,.58-4.94l.76-3.73a16.15,16.15,0,0,0,.37-3.52c0-2.77-1-4.57-3.43-4.57-2.18,0-4.38,1.33-7,3.52l-5,23.53H353.8l13.81-64.78,14.1-1.91-7.14,33.54,18.38-14.48Z" class="cls-9"/><path d="M237.94,617.16l20-58.29h12.48v58.29l20.48-58.29h6.66l-26.48,71H257v-48.5l-18.85,48.5h-14V564.77c-10.38,3.25-15.44,10.67-15.44,21.16,0,4.85,1.26,5.62,1.34,6.47-6.57,0-10.2-2.38-10.2-9.24,0-12.66,17.54-24.76,33.45-24.76,1.32,0,2.57.09,3.81.18Z" class="cls-10"/><path d="M304,622.4c7.52,0,12.1-4.19,16.86-9.61h3.25c-5.43,8.75-13.53,17.61-26.2,17.61-9,0-14.86-4.38-14.86-15.14,0-11,6.18-33.92,25.72-33.92,8.48,0,10.47,4.38,10.47,9.15,0,11-10.47,19.43-21.91,20.1-.09,1.34-.18,2.67-.18,3.81C297.14,620.87,299.43,622.4,304,622.4Zm5.53-36c-4.86,0-9.52,10.19-11.43,19.63,7.34-.48,13.82-7.82,13.82-15.72C311.9,587.92,311.33,586.39,309.52,586.39Z" class="cls-10"/><path d="M340.56,622.4c7.52,0,12.09-4.19,16.87-9.61h3.23c-5.43,8.75-13.53,17.61-26.2,17.61-9,0-14.86-4.38-14.86-15.14,0-11,6.19-33.92,25.71-33.92,8.48,0,10.48,4.38,10.48,9.15,0,11-10.48,19.43-21.91,20.1-.09,1.34-.19,2.67-.19,3.81C333.7,620.87,336,622.4,340.56,622.4Zm5.53-36c-4.86,0-9.53,10.19-11.44,19.63,7.34-.48,13.82-7.82,13.82-15.72C348.47,587.92,347.9,586.39,346.09,586.39Z" class="cls-10"/><path d="M402.37,582.21l-19.05,13.24a18.81,18.81,0,0,1,3.14-.38c7.05,0,10.48,5,10.48,11.15a16.07,16.07,0,0,1-.39,3.61l-1,4.77a16.11,16.11,0,0,0-.48,3c0,1.9.77,3.52,3.72,3.52a6.32,6.32,0,0,0,3.34-.57c-.48,6.76-6.38,9.81-8.87,9.81-7.8,0-12-3.9-12-10.86a23.8,23.8,0,0,1,.58-4.94l.76-3.73a16.15,16.15,0,0,0,.37-3.52c0-2.77-1-4.57-3.43-4.57-2.18,0-4.38,1.33-7,3.52l-5,23.53H353.8l13.81-64.78,14.1-1.91-7.14,33.54,18.38-14.48Z" class="cls-10"/><rect width="48.32" height="24.91" x="436.68" y="359.47" class="cls-2"/><path d="M241.39,385.39c-14.1,0-23.58-8.4-23.58-20.89,0-9,4.83-15.39,11-18.41a20.08,20.08,0,0,1-2.59-9.82c0-12.18,10.69-21.36,24.86-21.36,12.05,0,20.15,7,20.15,17.4a16.45,16.45,0,0,1-5.64,12.83,25.32,25.32,0,0,1,4,14.12C269.6,374.4,257.74,385.39,241.39,385.39Z" class="cls-2"/><path d="M256.37,339.09a3.84,3.84,0,0,1-3.09-1.41,7,7,0,0,0,3-5.78c0-2.35-1.28-4.5-5-4.5s-6.18,2.08-6.18,6.12c0,9.88,15.12,11.22,15.12,25.74,0,11.29-9.14,16.8-18.89,16.8-7.66,0-14.25-3.36-14.25-11.56,0-7.26,5.17-11,9.88-11,2.35,0,5.71.94,5.92,4.44-3.63,0-7.86,1.68-7.86,6.32a6.13,6.13,0,0,0,6.45,6.45c4.5,0,7.79-3.29,7.79-8.94,0-11.49-13.78-15.59-13.78-25.47,0-7,6.86-12,15.52-12,3.16,0,10.82.67,10.82,8.06C261.88,336.2,259.73,339.09,256.37,339.09Z" class="cls-2"/><path d="M273.24,384.38c-12,0-19.82-7.86-19.82-20,0-13.81,8.53-33.26,27.48-33.26,10.16,0,16.72,6.2,16.72,15.78a21.46,21.46,0,0,1-1.38,7.57,9.33,9.33,0,0,1,3.41,13.08C292.73,378.71,283.84,384.38,273.24,384.38Z" class="cls-2"/><path d="M277.54,369.4c5.31,0,8.54-3,11.9-6.79h2.28c-3.83,6.18-9.54,12.43-18.48,12.43-6.32,0-10.48-3.09-10.48-10.69s4.37-23.93,18.15-23.93c6,0,7.39,3.09,7.39,6.45,0,7.73-7.39,13.71-15.46,14.18-.07.94-.13,1.88-.13,2.69C272.7,368.32,274.32,369.4,277.54,369.4Zm3.9-25.4c-3.43,0-6.72,7.19-8.06,13.85,5.17-.34,9.74-5.51,9.74-11.09C283.12,345.07,282.72,344,281.44,344Z" class="cls-2"/><path d="M330.3,384.38a18.06,18.06,0,0,1-10.54-3.14,9.33,9.33,0,0,1-6.6,2.73h-9.68a9.34,9.34,0,0,1-3.46-.67,9.31,9.31,0,0,1-3.46.67h-9.68a9.33,9.33,0,0,1-9.13-11.27l7.12-33.6a9.33,9.33,0,0,1,9.13-7.4h9.68a9.33,9.33,0,0,1,2.35.3,20.3,20.3,0,0,1,5.11-.64,17.23,17.23,0,0,1,8,1.87,19.06,19.06,0,0,1,8.22-1.8c9.89,0,16.79,7,16.79,16.93a31.15,31.15,0,0,1-.45,5,9.33,9.33,0,0,1,7.87,12.3C346.34,381.13,337.11,384.38,330.3,384.38Z" class="cls-2"/><path d="M323,346.89c-2.42,0-4.23,2.82-5.24,6.18l-4.57,21.57h-9.68l4.9-23.19a6.73,6.73,0,0,0,.2-1.68c0-1.48-.54-3-2-3-2.62,0-4.44,2.89-5.44,6.25l-4.57,21.57h-9.68L294,341h9.68l-.74,3.49a10.34,10.34,0,0,1,8.2-3.83c3.56,0,6.18,1.61,6.92,5.78,3.23-5,6.86-5.71,9.34-5.71,4.3,0,7.46,2.22,7.46,7.59s-3.23,13.58-3.23,17.34c0,1.68.67,2.82,2.69,2.82,3,0,4.17-2.42,5.64-5.91h2.82c-3.76,11-8.94,12.43-12.5,12.43-5.85,0-7.93-3.76-7.93-7.59,0-4.57,3-12.84,3-17.14C325.39,348.1,324.59,346.89,323,346.89Z" class="cls-2"/><path d="M364.64,384.38a16.41,16.41,0,0,1-8-2,19.49,19.49,0,0,1-8.61,2c-9.09,0-18.27-6.23-18.27-20.15,0-13.25,8.46-32.85,26.6-32.85a19.83,19.83,0,0,1,4.49.49,9.42,9.42,0,0,1,1.69-.15h9.68A9.33,9.33,0,0,1,381.36,343l-2.19,10.36A9.34,9.34,0,0,1,387,365.69C381.27,382,370.53,384.38,364.64,384.38Z" class="cls-2"/><path d="M372.23,341l-4.84,22.85a9.34,9.34,0,0,0-.27,2.15c0,1.88.87,2.89,2.76,2.89,2.62,0,4.44-3,5.44-6.32h2.82c-3.83,11-9.88,12.43-13.51,12.43s-6.18-2.15-6.59-6.18C356,372,352.81,375,348,375c-4.57,0-8.94-2.82-8.94-10.82,0-9.07,5.58-23.52,17.27-23.52,3.83,0,5.44,1.48,5.44,3.43v.47l.74-3.56ZM349,363.28c0,5.17,2.15,5.24,3.36,5.24,1.95,0,4.77-2,5.58-5.91l3.23-15.19a2.61,2.61,0,0,0-2.76-2.55C352.74,344.87,349,357,349,363.28Z" class="cls-2"/><path d="M382,384.38c-9.73,0-16.52-7.15-16.52-17.4a30.88,30.88,0,0,1,.73-6.27l4.58-21.61a9.33,9.33,0,0,1,1.56-3.52,14.68,14.68,0,1,1,28.93-3.48,14.51,14.51,0,0,1-2.4,8,9.35,9.35,0,0,1-.16,2.87l-2.18,10.32a9.33,9.33,0,0,1,8.38,12.4C399,382.56,386.9,384.38,382,384.38Z" class="cls-2"/><path d="M389.57,341l-4.84,22.85a9.34,9.34,0,0,0-.27,2.15c0,1.88.87,2.49,2.76,2.49,2.62,0,5-2.55,6-5.91h2.82C392.26,373.57,385.61,375,382,375c-4,0-7.19-2.42-7.19-8.07a22.1,22.1,0,0,1,.54-4.37L379.89,341Zm-3-14.31a5.39,5.39,0,0,1,5.38,5.38,5.33,5.33,0,0,1-5.38,5.31,5.28,5.28,0,0,1-5.31-5.31A5.34,5.34,0,0,1,386.55,326.72Z" class="cls-2"/><path d="M417.53,384.38A18.06,18.06,0,0,1,407,381.24a9.33,9.33,0,0,1-6.6,2.73h-9.68a9.33,9.33,0,0,1-9.13-11.27l7.12-33.6a9.33,9.33,0,0,1,9.13-7.4h9.68a9.31,9.31,0,0,1,2.38.31,19.48,19.48,0,0,1,4.75-.58c9.89,0,16.79,7,16.79,16.93a31.15,31.15,0,0,1-.45,5,9.33,9.33,0,0,1,7.87,12.3C433.57,381.13,424.34,384.38,417.53,384.38Z" class="cls-2"/><path d="M410.2,346.89c-2.42,0-4.23,2.82-5.24,6.18l-4.57,21.57h-9.68l7.12-33.6h9.68l-.74,3.49a10,10,0,0,1,7.86-3.76c4.3,0,7.46,2.22,7.46,7.59s-3.23,13.58-3.23,17.34c0,1.68.67,2.82,2.69,2.82,3,0,4.17-2.42,5.65-5.91H430c-3.76,11-8.94,12.43-12.5,12.43-5.85,0-7.93-3.76-7.93-7.59,0-4.57,3-12.84,3-17.14C412.62,348.1,411.82,346.89,410.2,346.89Z" class="cls-2"/><path d="M436.68,384.38c-12,0-19.75-7.86-19.75-20,0-13.81,8.53-33.26,27.48-33.26,10.16,0,16.72,6.2,16.72,15.78a22,22,0,0,1-4.74,13.55,9.33,9.33,0,0,1,1.09,6.35C455.46,377.8,447.68,384.38,436.68,384.38Z" class="cls-2"/><path d="M440.38,368.66c2.55,0,5.78-1.68,7.93-3.56-1.41,7.66-6.25,9.95-11.63,9.95-6.25,0-10.42-3.09-10.42-10.69s4.37-23.93,18.15-23.93c6,0,7.39,3.09,7.39,6.45,0,7.8-7.39,13.71-15.46,14.18-.07.67-.13,1.41-.13,2C436.21,367.32,438,368.66,440.38,368.66ZM444.95,344c-3.36,0-6.72,7.46-8.13,13.85,5.24-.27,9.81-5.44,9.81-11.09C446.63,345.07,446.22,344,444.95,344Z" class="cls-2"/><path d="M474.45,384.38c-9.09,0-18.27-6.23-18.27-20.15,0-12.92,8-31.89,25.27-32.82l.94-4.41a9.33,9.33,0,0,1,7.88-7.3l9.95-1.34a9.23,9.23,0,0,1,1.25-.08,9.33,9.33,0,0,1,9.13,11.28l-5.07,23.8a9.33,9.33,0,0,1,7.77,12.36C508,380.8,498.25,384,491,384a16.5,16.5,0,0,1-7.58-1.77A19.34,19.34,0,0,1,474.45,384.38Z" class="cls-2"/><path d="M501.47,327.6l-7.73,36.29a9.34,9.34,0,0,0-.27,2.15c0,1.88.87,2.49,2.76,2.49,2.62,0,4.44-2.55,5.44-5.91h2.82c-3.83,11-9.88,12-13.51,12s-6-2-6.59-5.78c-2,3.09-5.17,6.18-9.95,6.18-4.57,0-8.94-2.82-8.94-10.82,0-9.07,5.58-23.52,17.27-23.52,3.83,0,5.44,1.48,5.44,3.43v.27l3.29-15.46Zm-17.14,35,3.29-15.39a2.67,2.67,0,0,0-2.76-2.35c-5.71,0-9.41,12.1-9.41,18.41,0,5.17,2.15,5.24,3.36,5.24,1.88,0,4.64-1.88,5.51-5.58Z" class="cls-2"/><path d="M524.92,384.38a16,16,0,0,1-7.88-2,19.51,19.51,0,0,1-8.72,2c-9.73,0-16.52-7.15-16.52-17.4a30.9,30.9,0,0,1,.73-6.27l4.58-21.61a9.33,9.33,0,0,1,9.13-7.4h9.68a9.34,9.34,0,0,1,3.46.67,9.31,9.31,0,0,1,3.46-.67h9.68A9.33,9.33,0,0,1,541.65,343l-3.73,17.63.19.14a9.33,9.33,0,0,1,3.59,8C541.05,378,534.16,384.38,524.92,384.38Z" class="cls-2"/><path d="M515.92,341l-4.84,22.85a7.19,7.19,0,0,0-.2,1.68c0,1.55.47,3,2,3,2.62,0,4.37-2.55,5.38-5.91L522.84,341h9.68l-4.84,22.85a9.34,9.34,0,0,0-.27,2.15c0,1.88.87,2.49,2.76,2.49a5.16,5.16,0,0,0,2.22-.4C532,373,528.55,375,524.92,375s-6.12-2.42-6.59-6.38c-3.36,5.51-7.19,6.38-10,6.38-4,0-7.19-2.42-7.19-8.07a22.1,22.1,0,0,1,.54-4.37L506.24,341Z" class="cls-2"/><path d="M256.37,339.1a3.84,3.84,0,0,1-3.09-1.41,7,7,0,0,0,3-5.78c0-2.35-1.28-4.5-5-4.5s-6.18,2.08-6.18,6.12c0,9.88,15.12,11.22,15.12,25.74,0,11.29-9.14,16.8-18.88,16.8-7.66,0-14.25-3.36-14.25-11.56,0-7.26,5.17-11,9.88-11,2.35,0,5.71.94,5.91,4.44-3.63,0-7.86,1.68-7.86,6.32a6.13,6.13,0,0,0,6.45,6.45c4.5,0,7.8-3.29,7.8-8.94,0-11.49-13.78-15.59-13.78-25.47,0-7,6.85-12,15.52-12,3.16,0,10.82.67,10.82,8.06C261.88,336.21,259.73,339.1,256.37,339.1Z" class="cls-10"/><path d="M277.54,369.4c5.31,0,8.53-3,11.89-6.79h2.28c-3.83,6.18-9.54,12.43-18.48,12.43-6.32,0-10.48-3.09-10.48-10.69s4.37-23.92,18.14-23.92c6,0,7.39,3.09,7.39,6.45,0,7.73-7.39,13.71-15.46,14.18-.07.94-.13,1.88-.13,2.69C272.7,368.33,274.32,369.4,277.54,369.4Zm3.9-25.4c-3.43,0-6.72,7.19-8.06,13.84,5.17-.34,9.74-5.51,9.74-11.09C283.12,345.08,282.72,344,281.44,344Z" class="cls-10"/><path d="M323,346.89c-2.42,0-4.23,2.82-5.24,6.18l-4.57,21.57h-9.68l4.91-23.18a6.76,6.76,0,0,0,.2-1.68c0-1.48-.54-3-2-3-2.62,0-4.44,2.89-5.44,6.25l-4.57,21.57h-9.68L294,341h9.68l-.74,3.49a10.33,10.33,0,0,1,8.2-3.83c3.56,0,6.18,1.61,6.92,5.78,3.23-5,6.85-5.71,9.34-5.71,4.3,0,7.46,2.22,7.46,7.59s-3.23,13.57-3.23,17.34c0,1.68.67,2.82,2.69,2.82,3,0,4.17-2.42,5.64-5.91h2.82c-3.76,11-8.94,12.43-12.5,12.43-5.85,0-7.93-3.76-7.93-7.59,0-4.57,3-12.83,3-17.14C325.39,348.1,324.58,346.89,323,346.89Z" class="cls-10"/><path d="M372.23,341l-4.84,22.85a9.34,9.34,0,0,0-.27,2.15c0,1.88.87,2.89,2.76,2.89,2.62,0,4.44-3,5.44-6.32h2.82c-3.83,11-9.88,12.43-13.51,12.43s-6.18-2.15-6.59-6.18C356,372,352.81,375,348,375c-4.57,0-8.94-2.82-8.94-10.82,0-9.07,5.58-23.52,17.27-23.52,3.83,0,5.44,1.48,5.44,3.43v.47l.74-3.56ZM349,363.29c0,5.17,2.15,5.24,3.36,5.24,1.95,0,4.77-2,5.58-5.91l3.23-15.19a2.61,2.61,0,0,0-2.76-2.55C352.74,344.87,349,357,349,363.29Z" class="cls-10"/><path d="M389.57,341l-4.84,22.85a9.34,9.34,0,0,0-.27,2.15c0,1.88.87,2.49,2.75,2.49,2.62,0,5-2.55,6-5.91h2.82C392.26,373.57,385.61,375,382,375c-4,0-7.19-2.42-7.19-8.06a22.06,22.06,0,0,1,.54-4.37L379.89,341Zm-3-14.31a5.39,5.39,0,0,1,5.38,5.38,5.34,5.34,0,0,1-5.38,5.31,5.28,5.28,0,0,1-5.31-5.31A5.34,5.34,0,0,1,386.55,326.73Z" class="cls-10"/><path d="M410.2,346.89c-2.42,0-4.23,2.82-5.24,6.18l-4.57,21.57h-9.68l7.12-33.6h9.68l-.74,3.49a10,10,0,0,1,7.86-3.76c4.3,0,7.46,2.22,7.46,7.59s-3.22,13.57-3.22,17.34c0,1.68.67,2.82,2.69,2.82,3,0,4.17-2.42,5.64-5.91H430c-3.76,11-8.94,12.43-12.5,12.43-5.85,0-7.93-3.76-7.93-7.59,0-4.57,3-12.83,3-17.14C412.62,348.1,411.82,346.89,410.2,346.89Z" class="cls-10"/><path d="M440.38,368.66c2.55,0,5.78-1.68,7.93-3.56-1.41,7.66-6.25,9.95-11.63,9.95-6.25,0-10.41-3.09-10.41-10.69s4.37-23.92,18.14-23.92c6,0,7.39,3.09,7.39,6.45,0,7.8-7.39,13.71-15.45,14.18-.07.67-.14,1.41-.14,2C436.21,367.32,438,368.66,440.38,368.66ZM444.95,344c-3.36,0-6.72,7.46-8.13,13.84,5.24-.27,9.81-5.44,9.81-11.09C446.63,345.08,446.22,344,444.95,344Z" class="cls-10"/><path d="M501.46,327.61l-7.73,36.29a9.22,9.22,0,0,0-.27,2.15c0,1.88.87,2.49,2.75,2.49,2.62,0,4.44-2.55,5.44-5.91h2.82c-3.83,11-9.88,12-13.51,12s-6-2-6.58-5.78c-2,3.09-5.18,6.18-9.95,6.18-4.57,0-8.94-2.82-8.94-10.82,0-9.07,5.58-23.52,17.27-23.52,3.83,0,5.44,1.48,5.44,3.43v.27l3.29-15.45Zm-17.14,35,3.29-15.39a2.66,2.66,0,0,0-2.75-2.35c-5.71,0-9.41,12.1-9.41,18.41,0,5.17,2.15,5.24,3.36,5.24,1.88,0,4.64-1.88,5.51-5.58Z" class="cls-10"/><path d="M515.91,341l-4.84,22.85a7.1,7.1,0,0,0-.2,1.68c0,1.55.47,3,2,3,2.62,0,4.37-2.55,5.38-5.91L522.83,341h9.68l-4.84,22.85a9.35,9.35,0,0,0-.27,2.15c0,1.88.88,2.49,2.76,2.49a5.15,5.15,0,0,0,2.22-.4C532,373,528.55,375,524.92,375s-6.12-2.42-6.59-6.38c-3.36,5.51-7.19,6.38-10,6.38-4,0-7.19-2.42-7.19-8.06a22,22,0,0,1,.54-4.37L506.24,341Z" class="cls-10"/><rect width="492.28" height="152.55" x="249.26" y="822.8" class="cls-11" rx="38.51" ry="38.51"/><path d="M327.24,850.64c1,.25,2,.54,3.07.76,10.19,2.12,17.38,9.31,19.14,19.32A35.48,35.48,0,0,1,350,877c0,3.12-1.76,4.77-4.87,4.82-2.05,0-4.1,0-6.15,0-2.91,0-4.29-1.56-4.44-4.45a20.58,20.58,0,0,0-.89-5.4,8.93,8.93,0,0,0-6.25-5.86c-4.58-1.33-9-1.15-13,1.95-4.54,3.56-5.58,13.63,1,18.31a60.34,60.34,0,0,0,8.75,4.81c4.72,2.3,9.7,4.14,14.26,6.71,8.39,4.74,12.24,12.37,12.67,21.85.25,5.58-.54,10.94-3.5,15.8-3.45,5.66-8.63,9-14.92,10.65a36.1,36.1,0,0,1-21.5-.52c-9.68-3.41-15.11-10.32-16.48-20.47a4.31,4.31,0,0,0-.31-.86v-4.52a1.74,1.74,0,0,0,.32-.46,4,4,0,0,1,3.76-3.19,60.07,60.07,0,0,1,8,0c2.19.16,3.29,1.56,3.48,3.77,0,.5,0,1,0,1.51.14,4.26,1.65,7.75,5.61,9.81a16.44,16.44,0,0,0,10,1.35c8.59-1.16,12.83-10,8.42-17.53-1.79-3.05-4.63-4.92-7.75-6.35-5.13-2.34-10.39-4.4-15.47-6.84-8.84-4.25-14.29-11.1-15.31-21.08-.61-5.92-.2-11.73,2.63-17.11,3.57-6.8,9.43-10.54,16.77-12.22.94-.22,1.87-.5,2.8-.76Z" class="cls-2"/><path d="M378,893.41c1.53-2.19,2.87-4.09,4.19-6q11-15.9,22-31.81a7.44,7.44,0,0,1,6.66-3.51c2.3,0,4.61,0,6.91,0,1.49,0,2.77.34,3.45,1.78a4,4,0,0,1-.33,4.29c-2.42,3.31-4.89,6.58-7.34,9.86l-17.44,23.32c-.15.2-.28.41-.44.65l12,22.44q6.79,12.72,13.6,25.43c1.58,2.94.18,6.36-3.69,6.14-2.42-.14-4.86,0-7.28-.08a5.74,5.74,0,0,1-5.28-3.43q-5.84-11.51-11.68-23l-6.91-13.64c-.13-.26-.31-.49-.52-.82-2.08,2.76-4,5.52-6.18,8.14a7.57,7.57,0,0,0-1.72,5.26c.11,7.29,0,14.58,0,21.86,0,.5,0,1,0,1.51a4.05,4.05,0,0,1-4.05,4.12,70.29,70.29,0,0,1-7.28,0,4.05,4.05,0,0,1-4-3.93,22.47,22.47,0,0,1-.11-2.38q0-40.52,0-81c0-5.12,1.29-6.42,6.35-6.42,1.47,0,2.93,0,4.4,0,3.11.11,4.68,1.7,4.72,4.82s0,6.2,0,9.3q0,12.88,0,25.76Z" class="cls-2"/><path d="M480.3,910.46c0,6.89,0,13.63,0,20.37,0,3.48,0,7,0,10.43,0,2.9-1.53,4.54-4.44,4.66-2.21.09-4.44.09-6.65,0a4.15,4.15,0,0,1-4.25-4.22c0-.46,0-.92,0-1.38q0-41.27,0-82.54A14,14,0,0,1,465,856a4.17,4.17,0,0,1,3.72-3.82,8.06,8.06,0,0,1,1.25-.08c9.17,0,18.35-.17,27.51.13,7.62.25,14.32,2.9,19,9.4a24,24,0,0,1,4.26,12,67.43,67.43,0,0,1-.28,17.15c-2,11.79-10,18.43-21.52,19.37-5.41.44-10.88.2-16.32.27Zm.06-14.87c5.2,0,10.36.28,15.47-.08,5.5-.38,8.26-3,9.21-8.12a33.14,33.14,0,0,0,0-12.35c-1-5-3.94-7.76-9-8s-10.28-.18-15.43-.23c-.06,0-.13.09-.2.14Z" class="cls-2"/><path d="M449.45,899.08q0,20.29,0,40.59c0,5.05-1.24,6.29-6.32,6.28-1.63,0-3.27,0-4.9-.07a4.13,4.13,0,0,1-4.19-4.14c0-.54-.06-1.09-.06-1.63q0-41.09,0-82.18a16.15,16.15,0,0,1,.08-1.88,4,4,0,0,1,3.92-3.86,67,67,0,0,1,7.53,0,4,4,0,0,1,3.87,4c.05.71.07,1.42.07,2.13Q449.45,878.73,449.45,899.08Z" class="cls-2"/><path d="M533.82,924.91q0-9.17,0-18.34c0-2.3.59-2.89,2.92-2.87,4.1,0,8.23-.15,12.3.2,6.76.58,10.69,5.09,10.73,11.89,0,6,0,12,0,18,0,7.93-4.6,12.58-12.53,12.65-3.64,0-7.29,0-10.93,0-1.81,0-2.49-.69-2.49-2.52Q533.81,934.39,533.82,924.91Zm7.13,14.71c2.37,0,4.63.1,6.88,0a4.8,4.8,0,0,0,4.68-4.28,13,13,0,0,0,.2-2.24q0-8,0-15.95a12.31,12.31,0,0,0-.29-2.74,4.43,4.43,0,0,0-2.82-3.43c-2.84-1-5.75-.34-8.64-.55Z" class="cls-2"/><path d="M629.64,928.07H617.34v1.75q0,6.91,0,13.82c0,2.16-.61,2.75-2.76,2.76h-1.88c-1.74,0-2.44-.68-2.44-2.45q0-18.91,0-37.81c0-1.75.71-2.41,2.46-2.45.71,0,1.42,0,2.14,0,1.8,0,2.48.71,2.49,2.54,0,4.56,0,9.13,0,13.69v1.29h12.31V917c0-3,.1-6,0-9-.2-4.82,1-4.48,5.53-4.16.55,0,1.14,1,1.51,1.58a3.17,3.17,0,0,1,.1,1.48q0,18.21,0,36.43c0,2.58-.51,3.08-3.09,3.08-3.87,0-4-.16-4-4C629.64,937.66,629.64,932.93,629.64,928.07Z" class="cls-2"/><path d="M599.62,917.24h-1.13c-1.57,0-2.31-.65-2.26-2.19.15-4-3.29-5.76-6.46-5.2a4.53,4.53,0,0,0-4,3.31c-.6,2.2-.43,4.42,1.54,5.8a51.54,51.54,0,0,0,6.27,3.33c1.52.78,3.13,1.41,4.6,2.27,5.15,3,6.38,8.69,5.37,13.5-1.14,5.45-5.42,8.73-11.45,9-4.2.2-8.09-.59-11.13-3.79a11.15,11.15,0,0,1-2.89-8.54,1.89,1.89,0,0,1,2-2c1,0,2,0,3,0,1.39,0,1.93.6,2,2,.08,2,.59,3.86,2.57,4.82a7,7,0,0,0,6.75-.09c3.19-1.77,3.16-6.78-.11-9a39.47,39.47,0,0,0-5.14-2.55c-1.17-.55-2.38-1-3.55-1.58-5.2-2.49-7.44-6.71-7.19-12.37a10.68,10.68,0,0,1,8.18-10.44c5.62-1.67,11.65,0,14.64,4.1a11.51,11.51,0,0,1,2.09,7.34c0,1.51-.79,2.15-2.33,2.19C600.54,917.25,600.08,917.24,599.62,917.24Z" class="cls-2"/><path d="M674.26,932.78h1.26c1.53,0,2.18.6,2.19,2.11,0,2.14.66,3.94,2.71,4.83a6.88,6.88,0,0,0,7-.45c2.86-2,2.58-6.83-.61-8.75a69.61,69.61,0,0,0-7.35-3.47c-3.29-1.49-6.21-3.4-7.52-7-1.78-4.84-1.33-11.56,3.85-15S689,902.47,693,906.76a11.26,11.26,0,0,1,2.85,8.57,2,2,0,0,1-2.1,1.9c-.92,0-1.84,0-2.76,0-1.55,0-2.09-.57-2.14-2.12-.14-3.78-2.75-5.89-6.46-5.27a4.58,4.58,0,0,0-4.12,3.49c-.57,2.2-.27,4.34,1.62,5.66a66.41,66.41,0,0,0,6.28,3.32c2.22,1.22,4.68,2.2,6.54,3.85,3.93,3.48,4.38,8.17,3.11,12.95s-4.9,7-9.53,7.74c-4.33.69-8.46.18-11.94-2.77a10.86,10.86,0,0,1-3.73-9.31,1.92,1.92,0,0,1,2.11-2C673.26,932.76,673.76,932.78,674.26,932.78Z" class="cls-2"/><path d="M650.94,939.66h1.29c4.15,0,8.29,0,12.44,0a6.21,6.21,0,0,1,1.61.18c1.39.38,1.77,1.64,1.44,4.58a2,2,0,0,1-2.16,2q-9.86,0-19.72,0a1.92,1.92,0,0,1-2.11-2,9.9,9.9,0,0,1,0-1q0-18.34,0-36.68c0-2.47.55-3,3-3H665c2.13,0,2.76.63,2.78,2.78,0,3.68-.23,4-3.86,4h-13v10.86h7.91c1,0,2.09,0,3.14,0,1.65,0,2.38.72,2.42,2.39.09,3.46.16,4.51-4.1,4.37-3.09-.11-6.18,0-9.35,0Z" class="cls-2"/><path d="M558.18,864.23c3.64-2.75,7.81-3,11-.81,2.88,2,3.67,5,3.71,8.24.09,6.91,0,13.81,0,20.72,0,1.75-.72,2.44-2.43,2.45h-1.76c-1.9,0-2.52-.64-2.52-2.58q0-9.36,0-18.71a9.66,9.66,0,0,0-.09-1.5c-.46-2.87-1.77-4-4.42-3.82-2.11.14-3.51,1.83-3.53,4.41,0,6.53,0,13.06,0,19.59,0,.49.06,1.14-.21,1.45a4,4,0,0,1-1.77,1.13,7.8,7.8,0,0,1-2.12,0c-1.9,0-2.58-.63-2.58-2.56q0-19.09,0-38.18c0-2,.62-2.61,2.64-2.64,3.88-.05,4.06.12,4.06,3.94C558.18,858.3,558.18,861.18,558.18,864.23Z" class="cls-2"/><path d="M584,880.26c.1,2,.05,3.86.31,5.67a3.9,3.9,0,0,0,6.11,2.72,3,3,0,0,0,1.44-2.62c.09-1.53.68-2.06,2.2-2.12.54,0,1.09,0,1.63,0,2.37,0,3.18,1,2.82,3.3-.66,4.4-3.12,7-7.48,8a13.15,13.15,0,0,1-6.81-.25,9.25,9.25,0,0,1-6.67-8.77c-.14-5-.17-10,0-14.94a9.46,9.46,0,0,1,9.8-9.21,16.65,16.65,0,0,1,5.63.89c3.84,1.47,5.52,4.68,5.81,8.62.15,2,.08,4.1.07,6.15,0,1.9-.66,2.55-2.59,2.56-3.56,0-7.11,0-10.67,0ZM584,875.2h7.51c.2,0,.4,0,.83-.09a39.52,39.52,0,0,0-.41-4.22,3.33,3.33,0,0,0-3.36-2.66c-2-.08-3.46.67-3.92,2.4A38,38,0,0,0,584,875.2Z" class="cls-2"/><path d="M540.5,868.93c0,1.57,0,3,0,4.4,0,4.06,0,8.12,0,12.18,0,2.59,1,3.45,3.56,3.31.29,0,.58-.06.87-.1,2.43-.29,3,.2,3,2.7,0,2.83-.54,3.46-3.36,3.63-.92.05-1.84,0-2.76,0-5-.19-7.78-2.93-8-7.94-.07-1.76,0-3.52,0-5.27q0-12.18,0-24.36c0-2.14.54-2.68,2.65-2.71,3.82-.06,4,.16,4,4v3.83h4.41c1.1,0,2.51-.1,2.74,1.18a11.88,11.88,0,0,1-.24,4.37c-.07.37-1.18.7-1.83.75C544,869,542.33,868.93,540.5,868.93Z" class="cls-2"/><path d="M565.74,925q0-9.29,0-18.58c0-2.16.58-2.72,2.78-2.73.67,0,1.34,0,2,0a2,2,0,0,1,2.25,2.14c0,.46,0,.92,0,1.38q0,17.89,0,35.78c0,.46,0,.92-.05,1.38a1.94,1.94,0,0,1-2.08,2c-.84,0-1.67,0-2.51,0-1.78,0-2.42-.67-2.42-2.44Q565.73,934.48,565.74,925Z" class="cls-2"/><rect width="152.55" height="152.55" x="58.46" y="822.8" class="cls-12" rx="38.69" ry="38.69"/><g class="cls-13"><path d="M59.35,908.49c1.46,1,2.91,2,4.37,3l48.5,31.8.41.28c-.09.07-.18.18-.28.19-1.14.18-2.28.35-3.43.5l-7.12.92c-1.39.18-2.78.31-4.17.5-2.17.29-4.33.62-6.5.89-1.6.2-3.2.3-4.79.51-2.72.35-5.44.76-8.15,1.13-1.84.25-3.68.47-5.52.7l-7.67.94-5.77.71q0-20.57,0-41.14A7.22,7.22,0,0,1,59.35,908.49Z" class="cls-14"/><path d="M211.4,959.26l0,16.56h-5.93a2.6,2.6,0,0,0-.55-.38l-12.43-4.28-18.68-6.41-18-6.22-18.08-6.22q-9.67-3.33-19.35-6.66c-1.22-.42-2.44-.92-3.66-1.38a3.9,3.9,0,0,1,.62,0c1.88.24,3.77.48,5.65.75,1.45.21,2.9.46,4.35.7,1.76.29,3.51.61,5.27.89s3.39.49,5.09.75c1.86.29,3.72.6,5.58.9,1.12.18,2.25.33,3.37.51,1.76.29,3.51.6,5.27.88s3.31.48,5,.75,3.55.61,5.33.89,3.35.48,5,.74c1.86.29,3.72.61,5.58.9,1.12.18,2.25.33,3.37.51,1.78.29,3.55.6,5.33.88,1.19.19,2.37.33,3.56.52,1.8.28,3.59.6,5.39.89,1.12.18,2.25.32,3.37.51,2.25.37,4.49.76,6.74,1.12,1.7.27,3.39.48,5.09.74Z" class="cls-15"/><path d="M114.72,944.27c1.22.46,2.44,1,3.66,1.38q9.67,3.34,19.35,6.66l18.08,6.22,18,6.22,18.68,6.41,12.43,4.28a2.6,2.6,0,0,1,.55.38H162.21c-.51-.39-1-.82-1.53-1.15q-7.39-4.8-14.79-9.57l-14.15-9.14-17.54-11.28a2.12,2.12,0,0,0-.57-.18L113,944a.44.44,0,0,1,0-.18l.36,0,.77.38.62.09Z" class="cls-16"/><path d="M79.25,975.81h-20V963.19a1.65,1.65,0,0,0,.49,0L76,957.22,93.1,951q7.59-2.76,15.18-5.52c1.45-.52,2.9-1,4.36-1.48-.33.38-.66.79-1,1.12-4.73,4.45-9.47,8.89-14.2,13.34q-8.81,8.3-17.62,16.63A7.26,7.26,0,0,0,79.25,975.81Z" class="cls-17"/><path d="M113,944l.61.48c.2.27.39.56.6.8l8.83,10.22q6,6.94,12,13.9c1.82,2.12,3.62,4.27,5.43,6.41H106.21c0-.18.09-.35.12-.53Z" class="cls-18"/><path d="M113,944l-6.69,31.28c0,.18-.08.35-.12.53h-27a7.26,7.26,0,0,1,.56-.68q8.81-8.32,17.62-16.63c4.73-4.46,9.47-8.89,14.2-13.34.35-.33.67-.74,1-1.12l.23-.22.13,0A.44.44,0,0,0,113,944Z" class="cls-19"/><path d="M140.45,975.81c-1.81-2.14-3.61-4.29-5.43-6.41q-6-7-12-13.9l-8.83-10.22c-.21-.24-.4-.53-.6-.8a2.12,2.12,0,0,1,.57.18l17.54,11.28,14.15,9.14q7.4,4.78,14.79,9.57c.52.34,1,.77,1.53,1.15Z" class="cls-20"/><path d="M112.86,943.81l-.23.22c-1.45.49-2.91,1-4.36,1.48q-7.59,2.74-15.18,5.52L76,957.22l-16.33,5.93a1.65,1.65,0,0,1-.49,0V950.57l5.77-.71,7.67-.94c1.84-.23,3.68-.45,5.52-.7,2.72-.37,5.43-.78,8.15-1.13,1.6-.21,3.2-.31,4.79-.51,2.17-.27,4.33-.6,6.5-.89,1.39-.18,2.78-.32,4.17-.5l7.12-.92c1.14-.15,2.29-.33,3.43-.5.09,0,.18-.13.28-.19Z" class="cls-21"/><path d="M114.12,944.18l-.77-.38.89-.24c1.74-.24,3.47-.47,5.21-.73.9-.13,1.79-.32,2.69-.48l4.89-.89c1.06-.19,2.12-.34,3.18-.52,1.59-.28,3.18-.6,4.76-.88,1.08-.19,2.16-.33,3.24-.52,1.63-.28,3.26-.6,4.89-.89,1.06-.19,2.12-.34,3.18-.53,1.57-.28,3.13-.6,4.7-.87s3-.49,4.53-.75c1.67-.29,3.34-.6,5-.89,1-.18,2-.33,3.06-.52,1.59-.29,3.18-.6,4.76-.88s3.06-.49,4.59-.75,3.3-.6,4.95-.89c1-.18,2.08-.33,3.12-.52,1.59-.28,3.18-.6,4.76-.88,1.08-.19,2.16-.33,3.24-.52,1.63-.28,3.26-.6,4.89-.89,1.06-.19,2.12-.33,3.18-.53,1.55-.28,3.09-.6,4.64-.87s3.06-.48,4.59-.75c1.69-.29,3.38-.6,5.07-.9,0,1.67,0,3.34,0,5q0,13.06,0,26.13c0,.47,0,.93,0,1.4l-7.73-1.18c-1.7-.25-3.4-.47-5.09-.74-2.25-.36-4.49-.75-6.74-1.12-1.12-.18-2.25-.33-3.37-.51-1.8-.29-3.59-.6-5.39-.89-1.19-.19-2.37-.33-3.56-.52-1.78-.28-3.55-.59-5.33-.88-1.12-.18-2.25-.33-3.37-.51-1.86-.3-3.72-.61-5.58-.9-1.68-.26-3.35-.48-5-.74s-3.55-.6-5.33-.89-3.31-.49-5-.75-3.51-.59-5.27-.88c-1.12-.18-2.25-.34-3.37-.51-1.86-.3-3.72-.61-5.58-.9-1.7-.26-3.4-.48-5.09-.75s-3.51-.59-5.27-.89c-1.45-.24-2.9-.49-4.35-.7-1.88-.27-3.77-.51-5.65-.75a3.9,3.9,0,0,0-.62,0h0Z" class="cls-22"/><path d="M211.39,926.72c-1.69.3-3.38.61-5.07.9-1.53.26-3.06.48-4.59.75s-3.09.59-4.64.87c-1.06.19-2.12.34-3.18.53-1.63.29-3.26.6-4.89.89-1.08.19-2.16.33-3.24.52-1.59.28-3.18.59-4.76.88-1,.19-2.08.34-3.12.52-1.65.29-3.3.61-4.95.89s-3.06.48-4.59.75-3.18.59-4.76.88c-1,.18-2,.34-3.06.52-1.67.29-3.34.61-5,.89-1.51.26-3,.48-4.53.75s-3.13.59-4.7.87c-1.06.19-2.12.34-3.18.53-1.63.29-3.26.6-4.89.89-1.08.19-2.16.33-3.24.52-1.59.28-3.18.59-4.76.88-1.06.19-2.12.34-3.18.52l-4.89.89c-.9.16-1.79.35-2.69.48-1.74.26-3.47.49-5.21.73,1.13-.39,2.25-.81,3.38-1.16,3.43-1.07,6.85-2.11,10.28-3.16l11.8-3.63,13.32-4.1,12.53-3.84,12.53-3.86,11.86-3.64,11.74-3.62,9.37-2.89a1.31,1.31,0,0,1,.35,0Z" class="cls-23"/><path d="M114.12,944.18l.62.09Z" class="cls-15"/></g><g id="z0FNnl.tif"><path d="M130.49,919.75c-1.16-.9-1.28-1.19-.57-2.7,2.28-4.83,4.59-9.64,6.91-14.46s4.73-9.65,7-14.52a4,4,0,0,1,4-2.63c2.26,0,4.52,0,6.77.11,1.68.08,2.3.67,2.61,2.35.82,4.37,1.61,8.74,2.39,13.12q1.36,7.61,2.7,15.22c0,.24.09.49.11.73.16,1.85.07,2-1.49,2.78h-5.39a10.67,10.67,0,0,1-1.21-1.64,5.61,5.61,0,0,1-.3-1.62c-.23-1.55-.45-3.1-.68-4.7-4,0-8,0-11.92,0-.23,0-.56.32-.67.56q-1.23,2.58-2.39,5.21a3.91,3.91,0,0,1-2,2.17Zm21.89-14.91c-.5-3.74-1-7.38-1.5-11,0-.27-.37-.73-.51-.71a1.43,1.43,0,0,0-1,.51c-.89,1.79-1.69,3.63-2.53,5.45l-2.64,5.76Z" class="cls-2"/><path d="M105,919.75c-1.53-.79-1.77-1.13-1.5-2.9.46-3.15,1-6.28,1.52-9.42q1.07-6.35,2.2-12.68c.42-2.37.83-4.74,1.32-7.1.31-1.47.91-1.94,2.41-2.12a11.73,11.73,0,0,1,1.39-.1q9,0,17.92,0c1.55,0,1.84.27,1.67,1.79s-.46,2.8-.75,4.19a1.55,1.55,0,0,1-1.71,1.25l-10.68.05c-.93,0-1.86,0-2.78,0a1,1,0,0,0-.71.58c-.34,1.82-.61,3.65-.93,5.62h10.68c.28,0,.56,0,.83,0,1.64.14,1.89.48,1.65,2.13-.14,1-.27,2-.42,2.93-.23,1.44-.63,1.8-2.07,1.81-3.9,0-7.8,0-11.83,0l-1.08,6.66h13.92c1.43,0,1.75.39,1.51,1.82a32.44,32.44,0,0,1-.63,3.55,8.34,8.34,0,0,1-1.12,1.89Z" class="cls-2"/><path d="M190.49,847.3a16.68,16.68,0,0,0-.54,2c-.33,2.2-.75,2.6-3,2.61H179.8c-.58,3.36-1.16,6.63-1.72,9.91q-1.32,7.66-2.64,15.32a1.78,1.78,0,0,1-1.94,1.73c-1.45.05-2.91.06-4.36,0-1.17,0-1.6-.49-1.47-1.65.23-2.08.57-4.16.91-6.23.72-4.29,1.48-8.57,2.22-12.86l1.07-6.23c-1.69,0-3.29,0-4.89,0q-1.76,0-3.52-.07c-.71,0-1.14-.39-1-1.12.25-1.67.49-3.36.9-5,.11-.42.77-.81,1.27-1a4.33,4.33,0,0,1,1.56-.13q11,0,22.09,0c.8,0,1.69-.14,2.26.68Z" class="cls-2"/><path d="M168.39,919.75a2.54,2.54,0,0,1-.7-2.69c.68-4.08,1.41-8.15,2.11-12.22s1.35-8,2-12.08c-.38,0-.71,0-1,0-2.38,0-4.76,0-7.14-.06-1.11,0-1.37-.28-1.24-1.35.19-1.56.48-3.11.8-4.65a1.44,1.44,0,0,1,1.39-1.17c.43,0,.86-.07,1.29-.07h22.54c.75,0,1.55-.09,2,.71V888c-.26,1.09-.53,2.18-.79,3.27a1.65,1.65,0,0,1-1.78,1.42c-2.38,0-4.77,0-7.15,0h-1c-.35,1.93-.68,3.72-1,5.51-1.12,6.48-2.25,13-3.33,19.44a2.46,2.46,0,0,1-1.53,2.08Z" class="cls-2"/><path d="M109,844.53c.8,0,1.61.08,2.41.15s1.34.52,1.25,1.39c-.17,1.6-.35,3.19-.61,4.78-.71,4.33-1.5,8.64-2.19,13a17.5,17.5,0,0,0-.21,3.85,4.11,4.11,0,0,0,3.68,3.93,13.07,13.07,0,0,0,3.68,0,4.55,4.55,0,0,0,3.76-3.33,62.25,62.25,0,0,0,1.51-6.57c.92-5,1.75-10.1,2.63-15.15.24-1.39.69-1.8,2.1-1.87s2.78-.06,4.17,0,1.81.62,1.62,2c-.21,1.59-.49,3.18-.76,4.76q-1.17,6.89-2.35,13.78a22.89,22.89,0,0,1-2.75,8.3c-2.2,3.58-5.56,5.22-9.59,5.73a17.26,17.26,0,0,1-8.42-.7,11,11,0,0,1-7.43-10.69,45.34,45.34,0,0,1,.77-6.79c.78-4.78,1.64-9.55,2.48-14.33.29-1.65.63-2,2.28-2.1.65,0,1.3,0,1.95,0Z" class="cls-2"/><path d="M150.79,844.3c2.4.19,4.81.37,7.21.58,1,.09,1.68.65,1.6,1.67a24.83,24.83,0,0,1-.73,4.36c-.29,1.08-1.07,1.35-2.26,1.31-3.24-.12-6.49-.24-9.73-.25a5.21,5.21,0,0,0-2.3.62,2.09,2.09,0,0,0-.27,3.76,19.09,19.09,0,0,0,3.55,1.53c2,.76,4,1.35,6,2.25,3.56,1.68,5.66,4.42,5.48,8.56a9.7,9.7,0,0,1-5.88,8.93,18.06,18.06,0,0,1-7.19,1.57,58,58,0,0,1-12.47-.85c-.76-.13-1.19-.56-1.09-1.34.21-1.56.43-3.11.75-4.65.22-1,.73-1.32,1.83-1.24,2.65.2,5.3.5,7.95.57a37.13,37.13,0,0,0,5.33-.41,3.4,3.4,0,0,0,1.48-.72,2,2,0,0,0-.19-3.62,42.27,42.27,0,0,0-4.23-1.59c-1.76-.66-3.55-1.25-5.27-2-7.79-3.48-6-12.72-1.44-16a15.86,15.86,0,0,1,8.84-2.9c1-.05,2,0,3.06,0Z" class="cls-2"/><path d="M91.86,851.9H87.3c-.62,0-1.24,0-1.86,0-1.45-.1-1.77-.44-1.57-1.86s.45-2.61.71-3.91a1.62,1.62,0,0,1,1.73-1.46c4.36,0,8.72,0,13.08,0,1.06,0,1.47.49,1.34,1.56-.23,1.93-.58,3.84-.91,5.76q-1.09,6.39-2.21,12.77c-.63,3.55-1,7.15-2.44,10.52a16.19,16.19,0,0,1-12.33,10.14c-1.3.27-1.82,0-2.39-1.17a29,29,0,0,1-1.34-3.35c-.38-1.16,0-1.78,1.12-2.25.83-.34,1.69-.6,2.52-.93,3.61-1.43,5.51-4.16,6.12-7.95.92-5.66,1.94-11.31,2.92-17C91.84,852.56,91.84,852.28,91.86,851.9Z" class="cls-2"/></g><text class="cls-24" transform="translate(103.37 792.42)">PRESE<tspan x="119.9" y="0" class="cls-25">N</tspan><tspan x="147.73" y="0">TED </tspan><tspan x="230.72" y="0" class="cls-26">B</tspan><tspan x="254.88" y="0">Y / PRÉSE</tspan><tspan x="434.9" y="0" class="cls-25">N</tspan><tspan x="462.73" y="0">TÉ </tspan><tspan x="519.59" y="0" class="cls-27">P</tspan><tspan x="541.68" y="0">AR</tspan></text><polygon points="460.01 257.62 431.8 273.12 471.64 124.43 494.09 130.45 460.01 257.62" class="cls-28"/><polygon points="475.2 157.68 268.17 190.2 380.33 17 508.79 66.43 786.8 12.83 669.03 195.12 475.2 157.68" class="cls-2"/><polygon points="291.99 174.73 384.95 31.19 507.73 78.43 762.34 29.35 663.55 182.26 475.4 145.93 291.99 174.73" class="cls-2"/><path d="M505.15,121.13c-.9,6.75,2.16,9.48,8.69,7.36a27.31,27.31,0,0,0,7-3.78,61.85,61.85,0,0,0,5.65-5c-.9,8.62,3.64,12.33,11.11,8,6.72-3.89,12.19-9.92,18.64-15.38l4.12,3c-.27,1.11-.59,2.29-.84,3.48-1.39,6.48,1.71,10.32,8.41,10.32,6.88,0,12.21-3.51,17.2-7.74,1.54-1.31,3-2.72,4.65-4.24a5,5,0,0,1,0,1.61c-1.36,3.1-3,7,.43,8.86,2.52,1.35,6.59.81,9.62-.07,2.87-.83,5.29-3.2,7.91-4.9l.76.77c-1.53,4.78,2.17,5.39,5.14,5.8,6.26.86,11.75-1.53,16.59-5.29,3.93-3.06,7.63-6.41,11.87-10a18.25,18.25,0,0,0-.23,2.12c.12,3.57-1.09,8.71.76,10.31,2.49,2.16,8,3.16,11,1.85a57.33,57.33,0,0,0,15.57-10.77c4.67-4.35,8.22-9.87,12.46-14.72,1.41-1.61,3.4-2.72,5.12-4.05l1.76,1.44-16.88,28h7.57l20.23-24.2.34.38c.69,2.66.71,7,2.22,7.62,3,1.21,6.86.36,10.36.36l.24-1.52,2,3.77L706.07,117l-41.58,65.22h-.94c-11.62-2.5-23.21-5.15-34.86-7.48-48.38-9.67-96.72-19.59-145.25-28.49-8.25-1.51-17.38,1.13-26,2.49q-81.29,12.76-162.54,25.8c-.74.12-1.5.08-2.9.15l48.64-75.14-11.26-8.08.88-1.36c11.21,8.33,22.8,5.94,35.29,1.08-1.06,1.76-1.75,3-2.52,4.18-6.13,9.33-12.35,18.6-18.37,28-1.79,2.8-3.71,6.64-.32,8.88,2.61,1.73,7.29,2.85,9.82,1.65,4.63-2.19,8.34-6.3,11.66-9,1.91,2.44,3.71,6.56,6.82,8.21,3.33,1.76,7.94,1.84,11.9,1.53,11.9-.92,21.76-6.72,30.8-14.11,2.06-1.69,4-3.48,7.18-6.2-1.24,2.64-2.3,4-2.48,5.46-.31,2.48-1.07,6.09.2,7.28,1.59,1.5,5.46,2.11,7.57,1.23,4.53-1.88,8.56-5,12-7.05.52,1.85.55,5.87,2.15,6.66,2.35,1.15,6.22.79,8.76-.39,3.86-1.8,7.14-4.86,10.57-7.31.33,8.82,5.33,11.56,13.38,6.77,3.3-2,6.09-4.8,8.33-6.61.81,2.42,1.06,6.81,2.78,7.49,2.74,1.09,6.81.47,9.68-.83,3.32-1.5,5.95-4.52,8.87-6.88Z" class="cls-29"/><path d="M632.63,117.57,634,98.87l3.34-3.94c-2.72-4-4.78-3-7.29-.33-8.49,9.19-17,18.33-25.82,27.24-1.76,1.79-4.59,2.52-6.93,3.74l-1.78-1.67,15.57-26.67h-8c-8.92,10.39-15.51,23-29.48,27.75-1.58.53-3.49.07-6.22.07l1.5-8.87c4.72-1.9,9-3,12.44-5.2a27,27,0,0,0,8.15-8.2c2.56-4.13.24-7.41-4.69-7.45-6.24-.05-11.22,2.91-15.35,7.23-2.91,3-5.38,6.49-8.41,10.19l-4.39-3.31,5.6-13.22c-5.52-1.8-7.93-.12-8.41,6.39-.65,8.89-6,14.62-12.18,19.85-1.81,1.53-4.51,2-6.8,3l-1.76-1.68,15.05-26.63H540l.91,1.07c-8,8.72-16,17.48-24.13,26.11-.66.7-2.23.52-3.38.75L512,123.85l16.49-26.61h-8.16c-8.6,10.21-15.28,22-27.37,28.3l-1.63-1c.58-1.95.79-4.11,1.79-5.82,9.27-15.87,18.66-31.66,28.71-48.63l2.27,5.67,238.21-46.4c-.87,1.7-1.32,2.78-1.94,3.74-15.85,24.58-31.67,49.18-47.67,73.66-1.27,1.95-3.79,3.09-6.61,5.3-2.11-7.61,1.47-10.74,5.53-13.56-4.05-5-6.53-3.87-19.61,9.28.55-1.52,1.09-2.34,1.11-3.18.07-2.48.69-6.7-.26-7.11-2.37-1-6-1.28-8.17-.07-3.29,1.86-5.86,5.11-8.53,8-5.15,5.49-9.9,11.38-15.34,16.56-2.86,2.73-6.72,4.76-11.84,2.16l1.15-7.06c6.36-3.33,11.83-5.69,16.71-8.94,3.35-2.23,6.76-6,4.24-10.32S663.64,95,660,96.65a47.32,47.32,0,0,0-10.47,7.06c-5.54,4.63-10.77,9.62-16.14,14.45ZM611.94,87.15l2.91,1.8c2-1.66,4.49-3,5.81-5.1.63-1-.52-4.34-1.7-4.91s-4.41.09-5.21,1.26C612.49,82.06,612.48,84.79,611.94,87.15Z" class="cls-29"/><path d="M408.32,121.6c1.32-2.84,3-5.57,3.89-8.53,2.14-6.93.62-11.07-5.31-16,3.67-1.83,7.61-3.28,11-5.57,7.55-5.16,10.68-15.23,6.9-20.85s-14.21-6.35-21.9-1.16c-3.47,2.34-6.4,5.49-9.95,8.6l-5-2.61,4.6-7.18L379.34,70.1l.16,1.68c-2.83-.84-5.64-1.78-8.51-2.49s-5.79-1.2-9.44-1.94l23.4-36.16L507.73,78.43,495.58,98.58c-4.94-4.78-10.5-3.87-15.24-.94s-8.75,7-12.73,11c-4.34,4.3-8.14,9.15-12.48,13.46-1.59,1.57-4,2.27-6.1,3.37l-1.82-1.66,16-26.6h-8.59c-8.08,10.15-13.07,23.13-26.24,28l-1.89-1.32,16.65-26.84h-8.7l.83,1.23L409,122.43Z" class="cls-29"/><path d="M377.74,107.17,394.5,82l7.17,4.33,1-1.35-6.48-5.59c3-2.64,5.68-5.94,9.12-7.62,2.68-1.31,6.35-.61,9.59-.8.14,3.12,1.22,6.59.23,9.31-3.5,9.69-11,14-21.19,14-2,0-4,.93-6,1.44l.29,1.66c1.66,0,3.31,0,5,0,7.28.09,10.24,3.55,9.27,10.79C400.89,120.12,391,130.4,380,131.62c-8.25.91-12.23-4.11-9.32-11.92,2.37-6.36,7.43-9.47,13.78-10.85,1.4-.31,2.83-.51,4.24-.77l-.37-2.26-9.87,2Z" class="cls-29"/><path d="M377.6,74.3c-7.13,12.71-17.5,19-32.52,18.49l12.13-18.85c-12.22-2.6-21.86,3.33-22.65,13.49a8.06,8.06,0,0,1,1.86-11.89,35.93,35.93,0,0,1,12.84-5.24C357.56,68.65,369.1,70.67,377.6,74.3Z" class="cls-29"/><path d="M386.6,77.81,392,80.49c-12.9,17-22.11,36.42-38.78,51.94C352.72,126.45,376.87,88.53,386.6,77.81Z" class="cls-29"/><path d="M470.3,124.42c-.1-8,10.34-23.42,17.4-25.54,1.69-.51,3.76.28,5.84.48C490.65,110.27,476.92,124.83,470.3,124.42Z" class="cls-29"/><path d="M607.67,122.59l20.43-19.35c-1.77,6.25-3,12.42-5.3,18.17-2.52,6.29-6,6.69-11.13,2.34-.69-.59-2.14-.28-3.24-.39Z" class="cls-29"/><path d="M667.42,97.59c-.45,7.4-6.69,13.37-15,14.66C656.74,106.42,659.05,99.49,667.42,97.59Z" class="cls-29"/><path d="M570.94,112.38c4.37-6.09,6.8-12.89,14.54-14.71C586.52,104.21,580.23,110.67,570.94,112.38Z" class="cls-29"/><path d="M504.31,120.22l.71-1.66,1,.81-.87,1.76Z" class="cls-29"/><path d="M699.41,103.83l.36-.69.31.08-.33,1Z" class="cls-29"/><path d="M378.45,107.8l-1.4,1,.68-1.62Z" class="cls-29"/><path d="M633.44,118.15l-.28,1.27-.82-.7.29-1.15Z" class="cls-29"/><path d="M409,122.43l-2,1.05,1.33-1.88Z" class="cls-29"/></svg>