<svg xmlns="http://www.w3.org/2000/svg" xmlns:xlink="http://www.w3.org/1999/xlink" id="Layer_1" x="0" y="0" version="1.1" viewBox="0 0 285.1 232.1" xml:space="preserve" style="enable-background:new 0 0 285.1 232.1"><style type="text/css">.st0{fill:#fff}.st1{fill:#ab7029}.st2{fill:#9c6226}.st3{fill:#b32029}.st4{fill:#faa21e}.st5{fill:#a9ae38}.st6,.st7{fill:#6d1d0e;stroke:#fff;stroke-width:5.9853;stroke-linecap:round;stroke-linejoin:round;stroke-miterlimit:10}.st7{stroke-width:5.114}.st8{fill:#411f1f}</style><title>logo</title><g><path d="M271,129.8c8.1,0,14.2-6.1,14.2-14.3c0-8.2-6-14.4-13.9-14.4c-2.2,0-4.2,0.4-6.1,1.1c-1.2-0.7-2.5-1.1-3.9-1.1 H258c0-1.4-0.2-2.6-0.5-3.7c0.3-0.8,0.5-1.7,0.5-2.7v-5.5c0-0.5-0.1-1.1-0.2-1.6c0.1-0.5,0.2-1,0.2-1.5v-4.8 c0-19.2-10.6-38.1-29.1-51.9c-20.5-15.2-48.8-23.3-82-23.3c-73,0-112.4,38.7-112.4,75.2v1c-10.7,6.3-17.1,15.6-17.2,25.2 C8.5,109.1,0,115.9,0,124.7c0,4.3,1.9,7.7,5.1,9.6l-1.8,8.2c-0.5,2.4,0.2,4.9,1.8,6.7c1.6,1.8,4,2.6,6.3,2.4h0.1 c0.9,0,3.4,1.9,4.8,3.1c1.7,1.3,3.6,2.8,5.7,3.9c-0.8,1.3-1.2,2.7-1.1,4.3l0.2,3.3c-0.5,1.1-0.8,2.4-0.7,3.7l0.3,5.6 c0.1,2,1,3.9,2.5,5.2c1.5,1.3,3.4,2,5.4,1.9l3.6-0.2c0.2,0,0.3,0,0.5,0c0.6,0,0.7,0,1.6,0.5v0.9c0,39.7,34.8,39.7,65.6,39.7h92.4 c30.7,0,65.6,0,65.6-39.7v-4.8c0-1.4-0.4-2.8-1.1-3.9c2.4-1.3,4.3-2.6,5.7-3.6c2-1.5,2-1.5,3.2-1.5l3.6-0.2c2-0.1,3.9-1,5.2-2.5 c1.3-1.5,2-3.4,1.9-5.4l-0.3-5.6c-0.1-1.3-0.5-2.5-1.1-3.6l-0.2-3.3c-0.1-2-1-3.9-2.5-5.2c-1.5-1.3-3.4-2-5.4-1.9l-2.7,0.1 c-0.8,0-1.7,0.1-2.5,0.2l3-14.3C267,129.5,269.4,129.8,271,129.8z" class="st0"/><path d="M250.5,81.3c0-32-35.1-67.6-103.6-67.6C78.4,13.7,42,49.3,42,81.3v4.8h208.5V81.3z" class="st1"/><g><path d="M124.4,23.1h-6.8c-0.3,0-0.6,0.2-0.8,0.5c-0.1,0.2-0.3,0.7-0.3,1.4c0,0.7,0.2,1.2,0.3,1.4 c0.1,0.3,0.4,0.5,0.8,0.5h6.8c0.3,0,0.7-0.2,0.8-0.5c0.1-0.2,0.2-0.7,0.2-1.4c0-0.7-0.2-1.2-0.2-1.4 C125,23.3,124.7,23.1,124.4,23.1z" class="st2"/><path d="M149.7,23.1H143c-0.3,0-0.6,0.2-0.8,0.5c-0.1,0.2-0.3,0.7-0.3,1.4c0,0.7,0.2,1.2,0.3,1.4 c0.1,0.3,0.4,0.5,0.8,0.5h6.8c0.3,0,0.7-0.2,0.8-0.5c0.1-0.2,0.2-0.7,0.2-1.4c0-0.7-0.2-1.2-0.2-1.4 C150.4,23.3,150.1,23.1,149.7,23.1z" class="st2"/><path d="M175.1,23.1h-6.8c-0.3,0-0.6,0.2-0.8,0.5c-0.1,0.2-0.2,0.7-0.2,1.4c0,0.7,0.2,1.2,0.2,1.4 c0.1,0.3,0.4,0.5,0.8,0.5h6.8c0.3,0,0.7-0.2,0.8-0.5c0.1-0.2,0.2-0.7,0.2-1.4c0-0.7-0.2-1.2-0.2-1.4 C175.7,23.3,175.4,23.1,175.1,23.1z" class="st2"/><path d="M111.7,38.2h-6.8c-0.3,0-0.6,0.2-0.8,0.5c-0.1,0.2-0.2,0.7-0.2,1.4c0,0.7,0.2,1.2,0.2,1.4 c0.1,0.3,0.4,0.5,0.8,0.5h6.8c0.3,0,0.6-0.2,0.8-0.5c0.1-0.2,0.3-0.7,0.3-1.4c0-0.7-0.2-1.2-0.3-1.4 C112.3,38.4,112,38.2,111.7,38.2z" class="st2"/><path d="M137,38.2h-6.8c-0.3,0-0.6,0.2-0.8,0.5c-0.1,0.2-0.3,0.7-0.3,1.4c0,0.7,0.2,1.2,0.3,1.4 c0.1,0.3,0.4,0.5,0.8,0.5h6.8c0.3,0,0.6-0.2,0.8-0.5c0.1-0.2,0.2-0.7,0.2-1.4c0-0.7-0.2-1.2-0.2-1.4 C137.7,38.4,137.4,38.2,137,38.2z" class="st2"/><path d="M86.4,38.2h-6.8c-0.3,0-0.6,0.2-0.8,0.5c-0.1,0.2-0.2,0.7-0.2,1.4c0,0.7,0.2,1.2,0.2,1.4 c0.1,0.3,0.4,0.5,0.8,0.5h6.8c0.3,0,0.6-0.2,0.8-0.5c0.1-0.2,0.3-0.7,0.3-1.4c0-0.7-0.2-1.2-0.3-1.4 C87.1,38.4,86.8,38.2,86.4,38.2z" class="st2"/><path d="M162.4,38.2h-6.8c-0.3,0-0.6,0.2-0.8,0.5c-0.1,0.2-0.2,0.7-0.2,1.4c0,0.7,0.2,1.2,0.2,1.4 c0.1,0.3,0.4,0.5,0.8,0.5h6.8c0.3,0,0.6-0.2,0.8-0.5c0.1-0.2,0.2-0.7,0.2-1.4c0-0.7-0.2-1.2-0.2-1.4 C163,38.4,162.7,38.2,162.4,38.2z" class="st2"/><path d="M187.7,38.2h-6.8c-0.3,0-0.7,0.2-0.8,0.5c-0.1,0.2-0.2,0.7-0.2,1.4c0,0.7,0.2,1.2,0.2,1.4 c0.1,0.3,0.4,0.5,0.8,0.5h6.8c0.3,0,0.6-0.2,0.8-0.5c0.1-0.2,0.3-0.7,0.3-1.4c0-0.7-0.2-1.2-0.2-1.4 C188.3,38.4,188,38.2,187.7,38.2z" class="st2"/><path d="M213,38.2h-6.8c-0.3,0-0.7,0.2-0.8,0.5c-0.1,0.2-0.2,0.7-0.2,1.4c0,0.7,0.2,1.2,0.3,1.4 c0.1,0.3,0.4,0.5,0.8,0.5h6.8c0.3,0,0.7-0.2,0.8-0.5c0.1-0.2,0.2-0.7,0.2-1.4c0-0.7-0.2-1.2-0.2-1.4 C213.7,38.5,213.4,38.2,213,38.2z" class="st2"/><path d="M124.4,54h-6.8c-0.3,0-0.6,0.2-0.8,0.5c-0.1,0.2-0.3,0.7-0.3,1.4c0,0.7,0.2,1.2,0.3,1.4 c0.1,0.3,0.4,0.5,0.8,0.5h6.8c0.3,0,0.6-0.2,0.8-0.5c0.1-0.2,0.2-0.7,0.2-1.4c0-0.7-0.2-1.2-0.3-1.4C125,54.2,124.7,54,124.4,54z" class="st2"/><path d="M149.7,54H143c-0.3,0-0.6,0.2-0.8,0.5c-0.1,0.2-0.3,0.7-0.3,1.4c0,0.7,0.2,1.2,0.3,1.4 c0.1,0.3,0.4,0.5,0.8,0.5h6.8c0.3,0,0.6-0.2,0.8-0.5c0.1-0.2,0.2-0.7,0.2-1.4c0-0.7-0.2-1.2-0.2-1.4C150.4,54.2,150.1,54,149.7,54 z" class="st2"/><path d="M175.1,54h-6.8c-0.3,0-0.6,0.2-0.8,0.5c-0.1,0.2-0.2,0.7-0.2,1.4c0,0.7,0.2,1.2,0.3,1.4 c0.1,0.3,0.4,0.5,0.8,0.5h6.8c0.3,0,0.6-0.2,0.8-0.5c0.1-0.2,0.2-0.7,0.2-1.4c0-0.7-0.2-1.2-0.2-1.4C175.7,54.2,175.4,54,175.1,54 z" class="st2"/><path d="M137,69.1h-6.8c-0.3,0-0.6,0.2-0.8,0.5c-0.1,0.2-0.3,0.7-0.3,1.4c0,0.7,0.2,1.2,0.3,1.4 c0.1,0.3,0.4,0.5,0.8,0.5h6.8c0.3,0,0.6-0.2,0.8-0.5c0.1-0.2,0.2-0.7,0.2-1.4c0-0.7-0.2-1.2-0.3-1.4 C137.7,69.3,137.4,69.1,137,69.1z" class="st2"/><path d="M162.4,69.1h-6.8c-0.3,0-0.6,0.2-0.8,0.5c-0.1,0.2-0.2,0.7-0.2,1.4c0,0.7,0.2,1.2,0.2,1.4 c0.1,0.3,0.4,0.5,0.8,0.5h6.8c0.3,0,0.6-0.2,0.8-0.5c0.1-0.2,0.2-0.7,0.2-1.4c0-0.7-0.2-1.2-0.3-1.4 C163,69.3,162.7,69.1,162.4,69.1z" class="st2"/><path d="M200.2,54h-6.6c-0.3,0-0.6,0.2-0.8,0.5c-0.1,0.2-0.2,0.7-0.2,1.4c0,0.7,0.2,1.2,0.2,1.4 c0.1,0.3,0.4,0.5,0.8,0.5h6.6c0.3,0,0.6-0.2,0.8-0.5c0.1-0.2,0.2-0.7,0.2-1.4c0-0.7-0.2-1.2-0.2-1.4C200.8,54.2,200.5,54,200.2,54 z" class="st2"/><path d="M226.3,54.6c-0.1-0.3-0.4-0.5-0.8-0.5h-6.8c-0.3,0-0.6,0.2-0.8,0.5c-0.1,0.2-0.2,0.7-0.2,1.4 c0,0.7,0.2,1.2,0.2,1.4c0.1,0.3,0.4,0.5,0.8,0.5h6.8c0.3,0,0.6-0.2,0.8-0.5c0.1-0.2,0.2-0.7,0.2-1.4 C226.6,55.3,226.4,54.8,226.3,54.6z" class="st2"/><path d="M213,69.1h-7c-0.3,0-0.6,0.2-0.8,0.5c-0.1,0.2-0.2,0.7-0.2,1.4c0,0.7,0.2,1.2,0.2,1.4 c0.1,0.3,0.4,0.5,0.8,0.5h7c0.3,0,0.7-0.2,0.8-0.5c0.1-0.2,0.2-0.7,0.2-1.4c0-0.7-0.2-1.2-0.2-1.4C213.7,69.4,213.4,69.1,213,69.1 z" class="st2"/><path d="M187.6,69.1h-6.7c-0.3,0-0.6,0.2-0.8,0.5c-0.1,0.2-0.2,0.7-0.2,1.4c0,0.7,0.2,1.2,0.2,1.4 c0.1,0.3,0.4,0.5,0.8,0.5h6.7c0.3,0,0.7-0.2,0.8-0.5c0.1-0.2,0.2-0.7,0.2-1.4c0-0.7-0.2-1.2-0.2-1.4 C188.2,69.4,187.9,69.1,187.6,69.1z" class="st2"/><path d="M73.7,54h-6.8c-0.3,0-0.6,0.2-0.8,0.5c-0.1,0.2-0.2,0.7-0.2,1.4c0,0.7,0.2,1.2,0.2,1.4 c0.1,0.3,0.4,0.5,0.8,0.5h6.8c0.3,0,0.6-0.2,0.8-0.5c0.1-0.2,0.2-0.7,0.2-1.4c0-0.7-0.2-1.2-0.3-1.4C74.3,54.2,74,54,73.7,54z" class="st2"/><path d="M99,54h-6.7c-0.3,0-0.6,0.2-0.8,0.5c-0.1,0.2-0.2,0.7-0.2,1.4c0,0.7,0.2,1.2,0.3,1.4c0.1,0.3,0.4,0.5,0.8,0.5 H99c0.3,0,0.6-0.2,0.8-0.5c0.1-0.2,0.2-0.7,0.2-1.4c0-0.7-0.2-1.2-0.2-1.4C99.7,54.2,99.4,54,99,54z" class="st2"/><path d="M86.3,69.1h-6.6c-0.3,0-0.6,0.2-0.8,0.5c-0.1,0.2-0.2,0.7-0.2,1.4c0,0.7,0.2,1.2,0.2,1.4 c0.1,0.3,0.4,0.5,0.8,0.5h6.6c0.3,0,0.6-0.2,0.8-0.5c0.1-0.2,0.2-0.7,0.2-1.4c0-0.7-0.2-1.2-0.3-1.4C87,69.3,86.7,69.1,86.3,69.1z" class="st2"/><path d="M112.1,69.3c-0.1-0.1-0.3-0.2-0.5-0.2h-6.7c-0.3,0-0.6,0.2-0.8,0.5c-0.1,0.2-0.2,0.7-0.2,1.4 c0,0.7,0.2,1.2,0.2,1.4c0.1,0.3,0.4,0.5,0.8,0.5h6.7h0c0.3,0,0.6-0.2,0.8-0.5c0.1-0.2,0.3-0.7,0.3-1.4c0-0.7-0.2-1.2-0.3-1.4 C112.4,69.5,112.3,69.4,112.1,69.3z" class="st2"/></g><path d="M250.4,108.5c0,2,0,3.6-2,3.6H44c-2,0-2-1.6-2-3.6v-7c0-2,0-3.6,2-3.6h204.4c2,0,2,1.6,2,3.6V108.5z" class="st3"/><rect width="208.5" height="5.5" x="42" y="89.2" class="st4"/><polygon points="176.9 91.1 146.8 109.3 115.6 91.1" class="st4"/><path d="M42,178.8v4.8c0,32.1,26,32.2,58,32.2h92.4c32.1,0,58-0.2,58-32.2v-4.8H42z" class="st1"/><g><path d="M52.3,184.8c0,5,0.4,8.5,7.4,5c7-3.5,15.5-8.1,33.3-7.8c-6.6,1.9-14.3,5.4-15.1,10.1 c-0.8,4.7,3.9,6.6,13.9,4.3c1.2,4.3,5.4,8.9,14.3,1.2c8.9-7.7,14-10.8,18.2-12.4c4.3-1.6,5.4,0.8,0.8,3.5 c-4.7,2.7-8.9,4.3-9.7,7.4c-0.8,3.1,0,8.1,7.8,5.8c0,5.4,1.5,10.1,8.1,10.1c6.6,0,9.3-3.5,9.3-10.1c4.3,2.3,10.5,3.9,10.8-4.7 c0.4-8.5,4.3-12.4,8.1-14.3c3.9-1.9,4.6,1.7,1.9,2.7c-3.5,1.4-5,3.9-5,6.6c-0.1,3.5,5.9,8.6,12,2.3c0.5,3.7,7.4,6.2,9.7-1.6 c2.3-7.8,3-12.5,10.1-12.8c-4.9,1.8-7.8,8.9-1.6,11.2c6.2,2.3,9.3-3.5,10.1-5.4c0.8-1.9,2.7-6.2,8.5-5.8c-5,2.2-5,10.1,0,10.5 c5,0.4,7-1.2,10.8-4.7c3.9-3.5,11.6-7.4,21.3-5.8c-1.9,5,1.6,7.1,4.7,6.5c3.8-0.7,3.5-4.9,4.7-7.8H48.3v0.1 C45.2,180.9,43,189,52.3,184.8z" class="st5"/></g><path d="M31.5,167.4c3.7-0.2,5.4,0.7,8.1,2.3c3.3,1.9,7.8,4.5,15.7,4c7.9-0.4,12.1-3.5,15.2-5.7c2.5-1.8,4-2.9,7.8-3.1 c3.7-0.2,5.4,0.7,8.1,2.3c3.3,1.9,7.8,4.5,15.7,4c7.9-0.4,12.1-3.5,15.2-5.7c2.5-1.8,4-2.9,7.8-3.2c3.7-0.2,5.4,0.7,8.1,2.3 c3.3,1.9,7.8,4.4,15.7,4c7.9-0.4,12.1-3.5,15.2-5.7c2.5-1.8,4-2.9,7.8-3.1c3.7-0.2,5.4,0.7,8.1,2.3c3.3,1.9,7.8,4.5,15.7,4 c7.9-0.4,12.1-3.5,15.2-5.7c2.5-1.8,4-2.9,7.8-3.1c3.7-0.2,5.4,0.7,8.1,2.3c3.3,1.9,7.8,4.5,15.7,4c7.9-0.4,12.1-3.5,15.2-5.7 c2.5-1.8,4-2.9,7.8-3.1l2.7-0.1l-0.3-5l-2.7,0.1c-8.2,0.4-12.5,3.6-15.7,5.9c-2.5,1.8-3.8,2.8-7.3,3c-3.5,0.2-4.9-0.6-7.6-2.2 c-3.4-1.9-8-4.6-16.2-4.1c-8.2,0.4-12.5,3.6-15.7,5.9c-2.5,1.8-3.8,2.8-7.3,3c-3.5,0.2-4.9-0.6-7.6-2.2c-3.4-1.9-8-4.6-16.2-4.1 c-8.2,0.4-12.5,3.6-15.7,5.9c-2.5,1.8-3.8,2.8-7.3,3c-3.5,0.2-4.9-0.6-7.6-2.2c-3.4-1.9-8-4.6-16.2-4.1c-8.2,0.4-12.5,3.6-15.7,5.9 c-2.5,1.8-3.8,2.8-7.3,3c-3.5,0.2-4.9-0.6-7.6-2.2c-3.4-1.9-8-4.6-16.2-4.1c-8.2,0.4-12.5,3.6-15.7,5.9c-2.5,1.8-3.8,2.8-7.3,3 c-3.5,0.2-4.9-0.6-7.6-2.2c-3.4-1.9-8-4.6-16.2-4.1l-2.7,0.1l0.3,5L31.5,167.4z" class="st3"/><path d="M258.4,159.4c-3.2,2.4-7.7,5.6-16.2,6.1c-8.5,0.5-13.2-2.3-16.7-4.3c-2.6-1.5-3.9-2.2-7.1-2 c-3.2,0.2-4.4,1-6.8,2.8c-3.2,2.4-7.7,5.6-16.2,6.1c-8.5,0.5-13.2-2.3-16.7-4.3c-2.6-1.5-3.9-2.2-7.1-2.1c-3.2,0.2-4.4,1-6.8,2.8 c-3.2,2.4-7.7,5.6-16.2,6.1c-8.5,0.5-13.2-2.3-16.7-4.3c-2.6-1.5-3.9-2.2-7.1-2c-3.2,0.2-4.4,1-6.8,2.8c-3.2,2.4-7.7,5.6-16.2,6.1 c-8.5,0.5-13.2-2.3-16.7-4.3c-2.6-1.5-3.9-2.2-7.1-2c-3.2,0.2-4.4,1-6.8,2.8c-3.2,2.4-7.7,5.6-16.2,6.1c-8.5,0.5-13.2-2.3-16.7-4.3 c-2.6-1.5-3.9-2.2-7-2l-3.6,0.2l0.3,5.6l3.6-0.2c3.5-0.2,4.9,0.6,7.6,2.2c3.4,1.9,8,4.6,16.2,4.1c8.2-0.4,12.5-3.6,15.7-5.9 c2.5-1.8,3.8-2.8,7.3-3c3.5-0.2,4.9,0.6,7.6,2.2c3.4,1.9,8,4.6,16.2,4.1c8.2-0.4,12.5-3.6,15.7-5.9c2.5-1.8,3.8-2.8,7.3-3 c3.5-0.2,4.9,0.6,7.6,2.2c3.4,1.9,8,4.6,16.2,4.1c8.2-0.4,12.5-3.6,15.7-5.9c2.5-1.8,3.8-2.8,7.3-3c3.5-0.2,4.9,0.6,7.6,2.2 c3.4,1.9,8,4.6,16.2,4.1c8.2-0.4,12.5-3.6,15.7-5.9c2.5-1.8,3.8-2.8,7.3-3c3.5-0.2,4.9,0.6,7.6,2.2c3.4,1.9,8,4.6,16.2,4.1 c8.2-0.4,12.5-3.6,15.7-5.9c2.5-1.8,3.8-2.8,7.3-3l3.6-0.2l-0.3-5.6l-3.6,0.2C262,156.8,260.8,157.7,258.4,159.4z" class="st3"/><path d="M64.2,91.2l-5,21.4h0.6c8.5,0,15.3-8.4,15.3-15.6c0-5.5-3.9-10.4-14-10.4c-12.4,0-26.5,7.5-26.5,23.5 c0,4.9,1.4,5.7,1.5,6.6c-7,0-11.3-2.4-11.3-8.9c0-13.3,18.4-25.6,38.5-25.6c15.6,0,22.6,7.4,22.6,15.3c0,5.7-3.7,11.8-10.6,15.3 c9,1.6,12.5,8.3,12.5,15.5c0,9.3-5.5,27.8-23.2,27.8c-4.6,0-10.5-1.3-10.5-7.1c0-1.5,0.4-3.4,1.4-5.6c2.6,2.5,4.7,3.5,7.1,3.5 c7.7,0,10.5-10,10.5-17.4c0-6.8-2.3-12.3-10.1-12.3c-0.9,0-3,0.1-4.9,0.3l-8.7,37H34.1l14.4-61.4L64.2,91.2z" class="st6"/><path d="M130.2,108.6l-6.6,31.3c-0.3,1.2-0.4,2.1-0.4,2.9c0,2.6,1.2,3.4,3.8,3.4c3.6,0,6.1-3.5,7.4-8.1h3.9 c-5.2,15-13.5,17-18.5,17c-5.2,0-8.6-3-9.1-8.7c-4.6,7.5-9.7,8.7-13.6,8.7c-5.5,0-9.8-3.3-9.8-11c0-1.7,0.3-3.8,0.7-6l6.3-29.5 h13.2l-6.6,31.3c-0.2,0.9-0.3,1.7-0.3,2.6c0,2.1,0.7,3.8,2.8,3.8c3.6,0,6-3.5,7.4-8.1l6.3-29.5H130.2z" class="st7"/><path d="M154,108.6l-1.2,5.7c3.2-2.8,6.7-5.7,11.1-5.7c4.1,0,6.3,3.4,6.3,6.9c0,3.2-2.1,6.7-6.6,6.7 c-5.2,0-2.6-6.1-5.3-6.1c-2.8,0-4.4,1.4-6.7,3.5l-7.4,35H131l9.8-46H154z" class="st7"/><path d="M209.5,108.6l-9.1,42.7c5.6-2,9-5.2,11.6-13.1h3.9c-3.6,12.1-10.6,15.6-16.3,17.2l-1.4,6.6 c-2.8,13.2-10.5,15.6-16.6,15.6c-5.6,0-10.3-2.9-10.3-8.9c0-7.7,8.1-11.6,15-13.7l1.1-4.9c-2.7,2.8-6.3,5.1-11,5.1 c-6.2,0-12.2-3.9-12.2-14.8c0-12.4,7.6-32.2,23.6-32.2c5.2,0,7.5,2,7.5,4.7v0.6l1-4.8H209.5z M179.5,170.5c1.9,0,4.1-2.8,5.3-8.2 l0.5-2.7c-4.7,1.8-9,4.1-9,7.8C176.4,168.7,177.5,170.5,179.5,170.5z M177.7,139.1c0,7.1,2.9,7.2,4.6,7.2c2.5,0,6.1-2.5,7.4-7.2 l4.7-21.8c-0.1-1-0.8-3.4-3.8-3.4C182.8,113.9,177.7,130.4,177.7,139.1z" class="st7"/><path d="M228,147.5c7.3,0,11.7-4,16.3-9.3h3.1c-5.2,8.5-13.1,17-25.3,17c-8.7,0-14.3-4.2-14.3-14.6 c0-10.6,6-32.7,24.8-32.7c8.2,0,10.1,4.2,10.1,8.8c0,10.6-10.1,18.8-21.2,19.4c-0.1,1.3-0.2,2.6-0.2,3.7 C221.3,146,223.5,147.5,228,147.5z M233.3,112.7c-4.7,0-9.2,9.8-11,18.9c7.1-0.5,13.3-7.5,13.3-15.2 C235.6,114.2,235,112.7,233.3,112.7z" class="st7"/><path d="M261.4,108.6l-1.2,5.7c3.2-2.8,6.7-5.7,11.1-5.7c4.1,0,6.3,3.4,6.3,6.9c0,3.2-2.1,6.7-6.6,6.7 c-5.1,0-2.6-6.1-5.3-6.1c-2.8,0-4.4,1.4-6.7,3.5l-7.4,35h-13.2l9.7-46H261.4z" class="st7"/><path d="M64.2,91.2l-5,21.4h0.6c8.5,0,15.3-8.4,15.3-15.6c0-5.5-3.9-10.4-14-10.4c-12.4,0-26.5,7.5-26.5,23.5 c0,4.9,1.4,5.7,1.5,6.6c-7,0-11.3-2.4-11.3-8.9c0-13.3,18.4-25.6,38.5-25.6c15.6,0,22.6,7.4,22.6,15.3c0,5.7-3.7,11.8-10.6,15.3 c9,1.6,12.5,8.3,12.5,15.5c0,9.3-5.5,27.8-23.2,27.8c-4.6,0-10.5-1.3-10.5-7.1c0-1.5,0.4-3.4,1.4-5.6c2.6,2.5,4.7,3.5,7.1,3.5 c7.7,0,10.5-10,10.5-17.4c0-6.8-2.3-12.3-10.1-12.3c-0.9,0-3,0.1-4.9,0.3l-8.7,37H34.1l14.4-61.4L64.2,91.2z" class="st8"/><path d="M130.2,108.6l-6.6,31.3c-0.3,1.2-0.4,2.1-0.4,2.9c0,2.6,1.2,3.4,3.8,3.4c3.6,0,6.1-3.5,7.4-8.1h3.9 c-5.2,15-13.5,17-18.5,17c-5.2,0-8.6-3-9.1-8.7c-4.6,7.5-9.7,8.7-13.6,8.7c-5.5,0-9.8-3.3-9.8-11c0-1.7,0.3-3.8,0.7-6l6.3-29.5 h13.2l-6.6,31.3c-0.2,0.9-0.3,1.7-0.3,2.6c0,2.1,0.7,3.8,2.8,3.8c3.6,0,6-3.5,7.4-8.1l6.3-29.5H130.2z" class="st8"/><path d="M154,108.6l-1.2,5.7c3.2-2.8,6.7-5.7,11.1-5.7c4.1,0,6.3,3.4,6.3,6.9c0,3.2-2.1,6.7-6.6,6.7 c-5.2,0-2.6-6.1-5.3-6.1c-2.8,0-4.4,1.4-6.7,3.5l-7.4,35H131l9.8-46H154z" class="st8"/><path d="M209.5,108.6l-9.1,42.7c5.6-2,9-5.2,11.6-13.1h3.9c-3.6,12.1-10.6,15.6-16.3,17.2l-1.4,6.6 c-2.8,13.2-10.5,15.6-16.6,15.6c-5.6,0-10.3-2.9-10.3-8.9c0-7.7,8.1-11.6,15-13.7l1.1-4.9c-2.7,2.8-6.3,5.1-11,5.1 c-6.2,0-12.2-3.9-12.2-14.8c0-12.4,7.6-32.2,23.6-32.2c5.2,0,7.5,2,7.5,4.7v0.6l1-4.8H209.5z M179.5,170.5c1.9,0,4.1-2.8,5.3-8.2 l0.5-2.7c-4.7,1.8-9,4.1-9,7.8C176.4,168.7,177.5,170.5,179.5,170.5z M177.7,139.1c0,7.1,2.9,7.2,4.6,7.2c2.5,0,6.1-2.5,7.4-7.2 l4.7-21.8c-0.1-1-0.8-3.4-3.8-3.4C182.8,113.9,177.7,130.4,177.7,139.1z" class="st8"/><path d="M228,147.5c7.3,0,11.7-4,16.3-9.3h3.1c-5.2,8.5-13.1,17-25.3,17c-8.7,0-14.3-4.2-14.3-14.6 c0-10.6,6-32.7,24.8-32.7c8.2,0,10.1,4.2,10.1,8.8c0,10.6-10.1,18.8-21.2,19.4c-0.1,1.3-0.2,2.6-0.2,3.7 C221.3,146,223.5,147.5,228,147.5z M233.3,112.7c-4.7,0-9.2,9.8-11,18.9c7.1-0.5,13.3-7.5,13.3-15.2 C235.6,114.2,235,112.7,233.3,112.7z" class="st8"/><path d="M261.4,108.6l-1.2,5.7c3.2-2.8,6.7-5.7,11.1-5.7c4.1,0,6.3,3.4,6.3,6.9c0,3.2-2.1,6.7-6.6,6.7 c-5.1,0-2.6-6.1-5.3-6.1c-2.8,0-4.4,1.4-6.7,3.5l-7.4,35h-13.2l9.7-46H261.4z" class="st8"/><path d="M86.7,180.8l8-23.2h5v23.2l8.2-23.2h2.7l-10.5,28.3h-5.6v-19.3l-7.5,19.3h-5.6V160c-4.1,1.3-6.1,4.2-6.1,8.4 c0,1.9,0.5,2.2,0.5,2.6c-2.6,0-4.1-0.9-4.1-3.7c0-5,7-9.9,13.3-9.9c0.5,0,1,0,1.5,0.1L86.7,180.8z" class="st7"/><path d="M113,182.9c3,0,4.8-1.7,6.7-3.8h1.3c-2.2,3.5-5.4,7-10.4,7c-3.6,0-5.9-1.7-5.9-6c0-4.4,2.5-13.5,10.2-13.5 c3.4,0,4.2,1.7,4.2,3.6c0,4.4-4.2,7.7-8.7,8c0,0.5-0.1,1.1-0.1,1.5C110.3,182.3,111.2,182.9,113,182.9z M115.2,168.6 c-1.9,0-3.8,4.1-4.6,7.8c2.9-0.2,5.5-3.1,5.5-6.3C116.2,169.2,115.9,168.6,115.2,168.6z" class="st7"/><path d="M127.6,182.9c3,0,4.8-1.7,6.7-3.8h1.3c-2.2,3.5-5.4,7-10.4,7c-3.6,0-5.9-1.7-5.9-6c0-4.4,2.5-13.5,10.2-13.5 c3.4,0,4.2,1.7,4.2,3.6c0,4.4-4.2,7.7-8.7,8c0,0.5-0.1,1.1-0.1,1.5C124.9,182.3,125.8,182.9,127.6,182.9z M129.8,168.6 c-1.9,0-3.8,4.1-4.6,7.8c2.9-0.2,5.5-3.1,5.5-6.3C130.7,169.2,130.5,168.6,129.8,168.6z" class="st7"/><path d="M152.2,166.9l-7.6,5.3c0.4-0.1,0.8-0.1,1.3-0.1c2.8,0,4.2,2,4.2,4.4c0,0.5,0,0.9-0.2,1.4l-0.4,1.9 c-0.1,0.4-0.2,0.8-0.2,1.2c0,0.8,0.3,1.4,1.5,1.4c0.9,0,1.1-0.1,1.3-0.2c-0.2,2.7-2.5,3.9-3.5,3.9c-3.1,0-4.8-1.6-4.8-4.3 c0-0.6,0.1-1.3,0.2-2l0.3-1.5c0.1-0.5,0.1-1,0.1-1.4c0-1.1-0.4-1.8-1.4-1.8c-0.9,0-1.7,0.5-2.8,1.4l-2,9.4h-5.5l5.5-25.8l5.6-0.8 l-2.8,13.4l7.3-5.8H152.2z" class="st7"/><path d="M86.7,180.8l8-23.2h5v23.2l8.2-23.2h2.7l-10.5,28.3h-5.6v-19.3l-7.5,19.3h-5.6V160c-4.1,1.3-6.1,4.2-6.1,8.4 c0,1.9,0.5,2.2,0.5,2.6c-2.6,0-4.1-0.9-4.1-3.7c0-5,7-9.9,13.3-9.9c0.5,0,1,0,1.5,0.1L86.7,180.8z" class="st8"/><path d="M113,182.9c3,0,4.8-1.7,6.7-3.8h1.3c-2.2,3.5-5.4,7-10.4,7c-3.6,0-5.9-1.7-5.9-6c0-4.4,2.5-13.5,10.2-13.5 c3.4,0,4.2,1.7,4.2,3.6c0,4.4-4.2,7.7-8.7,8c0,0.5-0.1,1.1-0.1,1.5C110.3,182.3,111.2,182.9,113,182.9z M115.2,168.6 c-1.9,0-3.8,4.1-4.6,7.8c2.9-0.2,5.5-3.1,5.5-6.3C116.2,169.2,115.9,168.6,115.2,168.6z" class="st8"/><path d="M127.6,182.9c3,0,4.8-1.7,6.7-3.8h1.3c-2.2,3.5-5.4,7-10.4,7c-3.6,0-5.9-1.7-5.9-6c0-4.4,2.5-13.5,10.2-13.5 c3.4,0,4.2,1.7,4.2,3.6c0,4.4-4.2,7.7-8.7,8c0,0.5-0.1,1.1-0.1,1.5C124.9,182.3,125.8,182.9,127.6,182.9z M129.8,168.6 c-1.9,0-3.8,4.1-4.6,7.8c2.9-0.2,5.5-3.1,5.5-6.3C130.7,169.2,130.5,168.6,129.8,168.6z" class="st8"/><path d="M152.2,166.9l-7.6,5.3c0.4-0.1,0.8-0.1,1.3-0.1c2.8,0,4.2,2,4.2,4.4c0,0.5,0,0.9-0.2,1.4l-0.4,1.9 c-0.1,0.4-0.2,0.8-0.2,1.2c0,0.8,0.3,1.4,1.5,1.4c0.9,0,1.1-0.1,1.3-0.2c-0.2,2.7-2.5,3.9-3.5,3.9c-3.1,0-4.8-1.6-4.8-4.3 c0-0.6,0.1-1.3,0.2-2l0.3-1.5c0.1-0.5,0.1-1,0.1-1.4c0-1.1-0.4-1.8-1.4-1.8c-0.9,0-1.7,0.5-2.8,1.4l-2,9.4h-5.5l5.5-25.8l5.6-0.8 l-2.8,13.4l7.3-5.8H152.2z" class="st8"/><g><path d="M16.6,142.4c4,0.9,8,5,12.9,5c1,0,2.1-0.2,3.2-0.6c-0.4,3.7-1.9,6-4,6c-5.5,0-10.3-8.7-17.1-8.7 c-0.3,0-0.6,0-0.9,0l5.7-26.6c-3.3,1.4-5.4,4.3-5.4,8.4c0,2,0.5,2.3,0.5,2.6c-2.6,0-4.1-1-4.1-3.7c0-5.1,7.1-10,13.5-10 c0.5,0,1,0,1.5,0.1L16.6,142.4z" class="st7"/><path d="M29.4,139.7c1.5,0,3.3-1,4.5-2c-0.8,4.4-3.6,5.7-6.6,5.7c-3.6,0-6-1.8-6-6.1c0-4.4,2.5-13.7,10.4-13.7 c3.4,0,4.2,1.8,4.2,3.7c0,4.5-4.2,7.8-8.8,8.1c0,0.4-0.1,0.8-0.1,1.2C27,139,28,139.7,29.4,139.7z M32,125.6 c-1.9,0-3.8,4.3-4.6,7.9c3-0.2,5.6-3.1,5.6-6.3C33,126.3,32.7,125.6,32,125.6z" class="st7"/></g><g><path d="M16.6,142.4c4,0.9,8,5,12.9,5c1,0,2.1-0.2,3.2-0.6c-0.4,3.7-1.9,6-4,6c-5.5,0-10.3-8.7-17.1-8.7 c-0.3,0-0.6,0-0.9,0l5.7-26.6c-3.3,1.4-5.4,4.3-5.4,8.4c0,2,0.5,2.3,0.5,2.6c-2.6,0-4.1-1-4.1-3.7c0-5.1,7.1-10,13.5-10 c0.5,0,1,0,1.5,0.1L16.6,142.4z" class="st8"/><path d="M29.4,139.7c1.5,0,3.3-1,4.5-2c-0.8,4.4-3.6,5.7-6.6,5.7c-3.6,0-6-1.8-6-6.1c0-4.4,2.5-13.7,10.4-13.7 c3.4,0,4.2,1.8,4.2,3.7c0,4.5-4.2,7.8-8.8,8.1c0,0.4-0.1,0.8-0.1,1.2C27,139,28,139.7,29.4,139.7z M32,125.6 c-1.9,0-3.8,4.3-4.6,7.9c3-0.2,5.6-3.1,5.6-6.3C33,126.3,32.7,125.6,32,125.6z" class="st8"/></g></g></svg>