<?xml version="1.0" encoding="utf-8"?>
<!-- Generator: Adobe Illustrator 21.1.0, SVG Export Plug-In . SVG Version: 6.00 Build 0)  -->
<svg version="1.1" id="Layer_1" xmlns="http://www.w3.org/2000/svg" xmlns:xlink="http://www.w3.org/1999/xlink" x="0px" y="0px"
	 viewBox="0 0 285.1 232.1" style="enable-background:new 0 0 285.1 232.1;" xml:space="preserve">
<style type="text/css">
	.st0{fill:#FFFFFF;}
	.st1{fill:#AB7029;}
	.st2{fill:#9C6226;}
	.st3{fill:#B32029;}
	.st4{fill:#FAA21E;}
	.st5{fill:#A9AE38;}
	.st6{fill:#6D1F11;stroke:#FFFFFF;stroke-width:5.6725;stroke-linecap:round;stroke-linejoin:round;stroke-miterlimit:10;}
	.st7{fill:#6D1F11;stroke:#FFFFFF;stroke-width:4.8468;stroke-linecap:round;stroke-linejoin:round;stroke-miterlimit:10;}
	.st8{fill:#411F1F;}
	.st9{fill:#FDA41B;}
	.st10{fill:#C7122E;}
	.st11{fill:#BE2F2C;}
	.st12{fill:#EE1F36;}
	.st13{clip-path:url(#SVGID_2_);}
	.st14{fill:#EE1F37;}
	.st15{fill:#F05528;}
	.st16{fill:#82CAE8;}
	.st17{fill:#74BB44;}
	.st18{fill:#457BBF;}
	.st19{fill:#E1E440;}
	.st20{fill:#37ADE3;}
	.st21{fill:#F05C5F;}
	.st22{fill:#F99C33;}
	.st23{fill:#FED535;}
</style>
<title>logo</title>
<g id="Layer_2">
	<g>
		<polygon class="st0" points="171.9,26.6 181.8,29.2 173.3,61.1 160.8,68 		"/>
		<g>
			<path class="st0" d="M92.7,213.5c-15.7,0-30.5-0.1-42.1-4.6c-14.3-5.6-21.7-17.2-21.8-34.5c0,0-3.4,0.2-3.4,0.2
				c-0.2,0-0.3,0-0.5,0c-2.2,0-4.4-0.8-6-2.3c-1.8-1.6-2.9-3.9-3-6.2l-0.3-5.3c-0.1-1.4,0.2-2.7,0.7-3.9l-0.1-2.6
				c-0.2-3.8,2-7.2,5.3-8.7c0-0.5,0.1-0.9,0.2-1.4l6-25.2c-11-1.8-15-9.7-15-17.1c0-9.6,6.1-18.7,16.3-25.1
				c0.1-35.4,38.2-73,108.6-72.9c31.9,0.1,59.1,7.9,78.8,22.6c18,13.5,28.3,32,28.3,50.7l0,3.9c0,0.2,0,0.5,0,0.7l0,12.3l1.3,0
				c1.3,0,2.6,0.3,3.8,0.9c1.7-0.5,3.6-0.8,5.6-0.8c8.4,0,15,6.9,15,15.6c0,8.8-6.6,15.4-15.4,15.4c-1.1,0-2.7-0.1-4.4-0.7l-1.8,8.7
				l2.4-0.1c0.2,0,0.3,0,0.5,0c2.2,0,4.4,0.8,6,2.3c1.8,1.6,2.9,3.9,3,6.2l0.1,2.6c0.6,1.2,1,2.5,1.1,3.9l0.3,5.3
				c0.1,2.4-0.7,4.7-2.3,6.5c-1.6,1.8-3.9,2.9-6.3,3l-3.4,0.2c-0.3,0-0.5,0-0.6,0.1c-0.3,0.2-1,0.7-1.5,1c-1,0.7-2.1,1.5-3.6,2.4
				l0,7.8c0,17.7-7.4,29.5-22,35c-11.6,4.5-26.5,4.4-42.2,4.4L92.7,213.5z"/>
			<path class="st1" d="M235.5,77c0-30.4-33.2-64.1-98.2-64.1c-64.9,0-99.4,33.7-99.4,64.1v4.6h197.6V77z"/>
			<g>
				<path class="st2" d="M116,21.8h-6.4c-0.3,0-0.6,0.2-0.7,0.5c-0.1,0.2-0.2,0.7-0.2,1.4c0,0.7,0.2,1.1,0.2,1.4
					c0.1,0.3,0.4,0.5,0.7,0.5h6.4c0.3,0,0.6-0.2,0.7-0.5c0.1-0.2,0.2-0.7,0.2-1.4c0-0.7-0.1-1.1-0.2-1.4
					C116.6,22,116.3,21.8,116,21.8z"/>
				<path class="st2" d="M140,21.8h-6.4c-0.3,0-0.6,0.2-0.7,0.5c-0.1,0.2-0.2,0.7-0.2,1.4c0,0.7,0.1,1.1,0.2,1.4
					c0.1,0.3,0.4,0.5,0.7,0.5h6.4c0.3,0,0.6-0.2,0.7-0.5c0.1-0.2,0.2-0.7,0.2-1.4c0-0.7-0.1-1.1-0.2-1.4
					C140.7,22,140.4,21.8,140,21.8z"/>
				<path class="st2" d="M164,21.8h-6.4c-0.3,0-0.6,0.2-0.7,0.5c-0.1,0.2-0.2,0.7-0.2,1.4c0,0.7,0.2,1.1,0.2,1.4
					c0.1,0.3,0.4,0.5,0.7,0.5h6.4c0.3,0,0.6-0.2,0.7-0.5c0.1-0.2,0.2-0.7,0.2-1.4c0-0.7-0.1-1.1-0.2-1.3
					C164.7,22,164.4,21.8,164,21.8z"/>
				<path class="st2" d="M104,36.2h-6.4c-0.3,0-0.6,0.2-0.7,0.5c-0.1,0.2-0.2,0.7-0.2,1.4c0,0.7,0.1,1.1,0.2,1.4
					c0.1,0.3,0.4,0.5,0.7,0.5h6.4c0.3,0,0.6-0.2,0.7-0.5c0.1-0.2,0.2-0.7,0.2-1.4c0-0.7-0.1-1.1-0.2-1.4
					C104.6,36.4,104.3,36.2,104,36.2z"/>
				<path class="st2" d="M128,36.2h-6.4c-0.3,0-0.6,0.2-0.7,0.5c-0.1,0.2-0.2,0.7-0.2,1.4c0,0.7,0.1,1.1,0.2,1.4
					c0.1,0.3,0.4,0.5,0.7,0.5h6.4c0.3,0,0.6-0.2,0.7-0.5c0.1-0.2,0.2-0.7,0.2-1.4c0-0.7-0.1-1.1-0.2-1.4
					C128.6,36.4,128.3,36.2,128,36.2z"/>
				<path class="st2" d="M80.1,36.2h-6.4c-0.3,0-0.6,0.2-0.7,0.5c-0.1,0.2-0.2,0.7-0.2,1.4c0,0.7,0.1,1.1,0.2,1.4
					c0.1,0.3,0.4,0.5,0.7,0.5h6.4c0.3,0,0.6-0.2,0.7-0.5c0.1-0.2,0.2-0.7,0.2-1.4c0-0.7-0.2-1.1-0.2-1.4
					C80.7,36.4,80.4,36.2,80.1,36.2z"/>
				<path class="st2" d="M152,36.2h-6.4c-0.3,0-0.6,0.2-0.7,0.5c-0.1,0.2-0.2,0.7-0.2,1.4c0,0.7,0.1,1.1,0.2,1.4
					c0.1,0.3,0.4,0.5,0.7,0.5h6.4c0.3,0,0.6-0.2,0.7-0.5c0.1-0.2,0.2-0.7,0.2-1.4c0-0.7-0.1-1.1-0.2-1.4
					C152.6,36.4,152.3,36.2,152,36.2z"/>
				<path class="st2" d="M176,36.2h-6.4c-0.3,0-0.6,0.2-0.7,0.5c-0.1,0.2-0.2,0.7-0.2,1.3c0,0.7,0.1,1.1,0.2,1.3
					c0.1,0.3,0.4,0.5,0.7,0.5h6.4c0.3,0,0.6-0.2,0.7-0.5c0.1-0.2,0.2-0.7,0.2-1.4c0-0.7-0.1-1.1-0.2-1.4
					C176.6,36.4,176.3,36.2,176,36.2z"/>
				<path class="st2" d="M200,36.2h-6.4c-0.3,0-0.6,0.2-0.7,0.5c-0.1,0.2-0.2,0.7-0.2,1.3c0,0.7,0.2,1.1,0.2,1.4
					c0.1,0.3,0.4,0.5,0.7,0.5h6.4c0.3,0,0.6-0.2,0.7-0.5c0.1-0.2,0.2-0.7,0.2-1.3c0-0.7-0.1-1.1-0.2-1.4
					C200.6,36.4,200.3,36.2,200,36.2z"/>
				<path class="st2" d="M116,51.1h-6.4c-0.3,0-0.6,0.2-0.7,0.5c-0.1,0.2-0.2,0.7-0.2,1.4c0,0.7,0.2,1.1,0.2,1.4
					c0.1,0.3,0.4,0.5,0.7,0.5h6.4c0.3,0,0.6-0.2,0.7-0.5c0.1-0.2,0.2-0.7,0.2-1.4c0-0.7-0.1-1.1-0.2-1.4
					C116.6,51.3,116.3,51.1,116,51.1z"/>
				<path class="st2" d="M140,51.1h-6.4c-0.3,0-0.6,0.2-0.7,0.5c-0.1,0.2-0.2,0.7-0.2,1.4c0,0.7,0.1,1.1,0.2,1.4
					c0.1,0.3,0.4,0.5,0.7,0.5h6.4c0.3,0,0.6-0.2,0.7-0.5c0.1-0.2,0.2-0.7,0.2-1.4c0-0.7-0.1-1.1-0.2-1.4
					C140.7,51.3,140.4,51.1,140,51.1z"/>
				<path class="st2" d="M164,51.1h-6.4c-0.3,0-0.6,0.2-0.7,0.5c-0.1,0.2-0.2,0.7-0.2,1.4c0,0.7,0.2,1.1,0.2,1.4
					c0.1,0.3,0.4,0.5,0.7,0.5h6.4c0.3,0,0.6-0.2,0.7-0.5c0.1-0.2,0.2-0.7,0.2-1.4c0-0.7-0.1-1.1-0.2-1.3
					C164.7,51.3,164.4,51.1,164,51.1z"/>
				<path class="st2" d="M128,65.4h-6.4c-0.3,0-0.6,0.2-0.7,0.5c-0.1,0.2-0.2,0.7-0.2,1.4c0,0.7,0.1,1.1,0.2,1.4
					c0.1,0.3,0.4,0.5,0.7,0.5h6.4c0.3,0,0.6-0.2,0.7-0.5c0.1-0.2,0.2-0.7,0.2-1.4c0-0.7-0.1-1.1-0.2-1.4
					C128.6,65.6,128.3,65.4,128,65.4z"/>
				<path class="st2" d="M152,65.4h-6.4c-0.3,0-0.6,0.2-0.7,0.5c-0.1,0.2-0.2,0.7-0.2,1.4c0,0.7,0.1,1.1,0.2,1.4
					c0.1,0.3,0.4,0.5,0.7,0.5h6.4c0.3,0,0.6-0.2,0.7-0.5c0.1-0.2,0.2-0.7,0.2-1.4c0-0.7-0.1-1.1-0.2-1.4
					C152.6,65.6,152.3,65.4,152,65.4z"/>
				<path class="st2" d="M187.9,51.1h-6.2c-0.3,0-0.6,0.2-0.7,0.5c-0.1,0.2-0.2,0.7-0.2,1.3c0,0.7,0.1,1.1,0.2,1.4
					c0.1,0.3,0.4,0.5,0.7,0.5h6.2c0.3,0,0.6-0.2,0.7-0.5c0.1-0.2,0.2-0.7,0.2-1.4c0-0.7-0.1-1.1-0.2-1.3
					C188.5,51.3,188.2,51.1,187.9,51.1z"/>
				<path class="st2" d="M212.6,51.6c-0.1-0.3-0.4-0.5-0.7-0.5h-6.4c-0.3,0-0.6,0.2-0.7,0.5c-0.1,0.2-0.2,0.7-0.2,1.3
					c0,0.7,0.1,1.1,0.2,1.4c0.1,0.3,0.4,0.5,0.7,0.5h6.4c0.3,0,0.6-0.2,0.7-0.5c0.1-0.2,0.2-0.7,0.2-1.4
					C212.8,52.3,212.7,51.8,212.6,51.6z"/>
				<path class="st2" d="M200,65.4h-6.6c-0.3,0-0.6,0.2-0.7,0.5c-0.1,0.2-0.2,0.7-0.2,1.3c0,0.7,0.1,1.1,0.2,1.4
					c0.1,0.3,0.4,0.5,0.7,0.5h6.6c0.3,0,0.6-0.2,0.7-0.5c0.1-0.2,0.2-0.7,0.2-1.4c0-0.7-0.1-1.1-0.2-1.3
					C200.6,65.6,200.3,65.4,200,65.4z"/>
				<path class="st2" d="M175.9,65.4h-6.3c-0.3,0-0.6,0.2-0.7,0.5c-0.1,0.2-0.2,0.7-0.2,1.3c0,0.7,0.1,1.1,0.2,1.4
					c0.1,0.3,0.4,0.5,0.7,0.5h6.3c0.3,0,0.6-0.2,0.7-0.5c0.1-0.2,0.2-0.7,0.2-1.4c0-0.7-0.1-1.1-0.2-1.3
					C176.5,65.6,176.2,65.4,175.9,65.4z"/>
				<path class="st2" d="M68,51.1h-6.4c-0.3,0-0.6,0.2-0.7,0.5c-0.1,0.2-0.2,0.7-0.2,1.3c0,0.7,0.1,1.1,0.2,1.4
					c0.1,0.3,0.4,0.5,0.7,0.5H68c0.3,0,0.6-0.2,0.7-0.5c0.1-0.2,0.2-0.7,0.2-1.4c0-0.7-0.1-1.1-0.2-1.4C68.6,51.3,68.3,51.1,68,51.1
					z"/>
				<path class="st2" d="M92,51.1h-6.4c-0.3,0-0.6,0.2-0.7,0.5c-0.1,0.2-0.2,0.7-0.2,1.3c0,0.7,0.1,1.1,0.2,1.4
					c0.1,0.3,0.4,0.5,0.7,0.5H92c0.3,0,0.6-0.2,0.7-0.5c0.1-0.2,0.2-0.7,0.2-1.4c0-0.7-0.1-1.1-0.2-1.4C92.6,51.3,92.3,51.1,92,51.1
					z"/>
				<path class="st2" d="M79.9,65.4h-6.3c-0.3,0-0.6,0.2-0.7,0.5c-0.1,0.2-0.2,0.7-0.2,1.4c0,0.7,0.1,1.1,0.2,1.4
					c0.1,0.3,0.4,0.5,0.7,0.5h6.3c0.3,0,0.6-0.2,0.7-0.5c0.1-0.2,0.2-0.7,0.2-1.4c0-0.7-0.1-1.1-0.2-1.4
					C80.5,65.6,80.2,65.4,79.9,65.4z"/>
				<path class="st2" d="M104.4,65.6c-0.1-0.1-0.3-0.2-0.5-0.2h-6.4c-0.3,0-0.6,0.2-0.7,0.5c-0.1,0.2-0.2,0.7-0.2,1.4
					c0,0.7,0.1,1.1,0.2,1.4c0.1,0.3,0.4,0.5,0.7,0.5h6.4h0c0.3,0,0.6-0.2,0.7-0.5c0.1-0.2,0.2-0.7,0.2-1.4c0-0.7-0.1-1.1-0.2-1.4
					C104.6,65.8,104.5,65.7,104.4,65.6z"/>
			</g>
			<path class="st3" d="M235.5,102.8c0,1.9,0,3.4-1.9,3.4H39.9c-1.9,0-1.9-1.5-1.9-3.4v-6.7c0-1.9,0-3.4,1.9-3.4h193.7
				c1.9,0,1.9,1.5,1.9,3.4V102.8z"/>
			<rect x="37.9" y="84.5" class="st4" width="197.6" height="5.2"/>
			<polygon class="st4" points="165.8,86.3 137.2,103.5 107.6,86.3 			"/>
			<path class="st1" d="M37.9,169.4v4.6c0,30.4,24.6,30.5,55,30.5h87.6c30.4,0,55-0.2,55-30.5v-4.6H37.9z"/>
			<g>
				<path class="st5" d="M47.7,175c0,4.8,0.4,8.1,7,4.8c6.6-3.3,14.7-7.7,31.6-7.3c-6.2,1.8-13.6,5.1-14.3,9.5
					c-0.7,4.4,3.7,6.2,13.2,4c1.1,4,5.1,8.4,13.6,1.1c8.4-7.3,13.2-10.3,17.3-11.8c4-1.5,5.1,0.7,0.7,3.3c-4.4,2.6-8.4,4-9.2,7
					c-0.7,2.9,0,7.7,7.3,5.5c0,5.1,1.5,9.5,7.7,9.5c6.2,0,8.8-3.3,8.8-9.5c4,2.2,9.9,3.7,10.3-4.4c0.4-8.1,4-11.8,7.7-13.6
					c3.7-1.8,4.3,1.6,1.8,2.6c-3.3,1.3-4.7,3.7-4.8,6.2c-0.1,3.3,5.6,8.2,11.4,2.2c0.4,3.5,7,5.9,9.2-1.5c2.2-7.3,2.8-11.9,9.5-12.1
					c-4.6,1.7-7.3,8.4-1.5,10.7c5.9,2.2,8.8-3.3,9.5-5.1c0.7-1.8,2.6-5.9,8.1-5.5c-4.8,2.1-4.8,9.5,0,9.9c4.8,0.4,6.6-1.1,10.3-4.4
					c3.7-3.3,11-7,20.2-5.5c-1.8,4.8,1.5,6.7,4.5,6.1c3.6-0.7,3.3-4.7,4.4-7.3H43.9v0.1C40.9,171.4,38.9,179.1,47.7,175z"/>
			</g>
			<path class="st3" d="M28,158.5c3.5-0.2,5.1,0.7,7.7,2.2c3.1,1.8,7.3,4.2,14.9,3.8c7.5-0.4,11.5-3.3,14.4-5.4
				c2.4-1.7,3.8-2.8,7.4-3c3.5-0.2,5.1,0.7,7.7,2.2c3.1,1.8,7.3,4.2,14.9,3.8c7.5-0.4,11.5-3.3,14.4-5.4c2.4-1.7,3.8-2.8,7.4-3
				c3.5-0.2,5.1,0.7,7.7,2.2c3.1,1.8,7.3,4.2,14.9,3.8c7.5-0.4,11.5-3.3,14.4-5.4c2.4-1.7,3.8-2.8,7.4-3c3.6-0.2,5.1,0.7,7.7,2.2
				c3.1,1.8,7.4,4.2,14.9,3.8c7.5-0.4,11.5-3.3,14.4-5.4c2.4-1.7,3.8-2.8,7.4-3c3.6-0.2,5.1,0.7,7.7,2.2c3.1,1.8,7.4,4.2,14.9,3.8
				c7.5-0.4,11.5-3.3,14.4-5.4c2.4-1.7,3.8-2.8,7.4-3l2.5-0.1l-0.3-4.8l-2.5,0.1c-7.8,0.4-11.9,3.4-14.8,5.6
				c-2.3,1.7-3.6,2.6-6.9,2.8c-3.3,0.2-4.7-0.6-7.2-2.1c-3.2-1.8-7.6-4.4-15.4-3.9c-7.8,0.4-11.9,3.4-14.8,5.6
				c-2.3,1.7-3.6,2.6-6.9,2.8c-3.3,0.2-4.7-0.6-7.2-2.1c-3.2-1.8-7.6-4.3-15.3-3.9c-7.8,0.4-11.9,3.4-14.8,5.6
				c-2.3,1.7-3.6,2.6-6.9,2.8c-3.3,0.2-4.7-0.6-7.2-2.1c-3.2-1.8-7.6-4.3-15.4-3.9c-7.8,0.4-11.9,3.4-14.8,5.6
				c-2.3,1.7-3.6,2.6-6.9,2.8c-3.3,0.2-4.7-0.6-7.2-2c-3.2-1.8-7.6-4.4-15.4-3.9c-7.8,0.4-11.9,3.4-14.8,5.6
				c-2.3,1.7-3.6,2.6-6.9,2.8c-3.3,0.2-4.7-0.6-7.2-2c-3.2-1.8-7.6-4.4-15.3-3.9l-2.5,0.1l0.3,4.8L28,158.5z"/>
			<path class="st3" d="M243,151c-3.1,2.2-7.3,5.3-15.3,5.7c-8,0.4-12.5-2.2-15.8-4c-2.4-1.4-3.7-2.1-6.7-1.9c-3,0.2-4.2,1-6.4,2.6
				c-3.1,2.2-7.3,5.3-15.3,5.7c-8,0.4-12.5-2.2-15.8-4c-2.4-1.4-3.7-2.1-6.7-1.9c-3,0.2-4.2,1-6.4,2.6c-3.1,2.2-7.3,5.3-15.3,5.7
				c-8,0.4-12.5-2.2-15.8-4c-2.4-1.4-3.7-2.1-6.7-1.9c-3,0.2-4.2,1-6.4,2.6c-3.1,2.2-7.3,5.3-15.3,5.7c-8,0.4-12.5-2.2-15.8-4
				c-2.4-1.4-3.7-2.1-6.7-1.9c-3,0.2-4.2,1-6.4,2.6c-3.1,2.2-7.3,5.3-15.3,5.7c-8,0.4-12.5-2.2-15.8-4c-2.4-1.4-3.7-2.1-6.7-1.9
				l-3.4,0.2l0.3,5.3l3.4-0.2c3.3-0.2,4.7,0.6,7.2,2.1c3.2,1.8,7.6,4.3,15.4,3.9c7.8-0.4,11.9-3.4,14.8-5.6c2.3-1.7,3.6-2.6,6.9-2.8
				c3.3-0.2,4.7,0.6,7.2,2.1c3.2,1.8,7.6,4.3,15.4,3.9c7.8-0.4,11.9-3.4,14.8-5.6c2.3-1.7,3.6-2.6,6.9-2.8c3.3-0.2,4.7,0.6,7.2,2.1
				c3.2,1.8,7.6,4.3,15.3,3.9c7.8-0.4,11.9-3.4,14.8-5.6c2.3-1.7,3.6-2.6,6.9-2.8c3.3-0.2,4.7,0.6,7.2,2.1c3.2,1.8,7.6,4.4,15.4,3.9
				c7.8-0.4,11.9-3.4,14.8-5.6c2.3-1.7,3.6-2.6,6.9-2.8c3.3-0.2,4.7,0.6,7.2,2.1c3.2,1.8,7.6,4.3,15.4,3.9
				c7.8-0.4,11.9-3.4,14.8-5.6c2.3-1.7,3.6-2.6,6.9-2.8l3.4-0.2l-0.3-5.3l-3.4,0.2C246.4,148.5,245.3,149.3,243,151z"/>
			<path class="st6" d="M59,86.4l-4.7,20.3h0.6c8,0,14.5-8,14.5-14.8c0-5.2-3.7-9.9-13.3-9.9C44.3,82,31,89.1,31,104.2
				c0,4.7,1.3,5.4,1.4,6.2c-6.6,0-10.8-2.3-10.8-8.4c0-12.6,17.5-24.2,36.5-24.2c14.8,0,21.4,7,21.4,14.5c0,5.4-3.5,11.2-10,14.5
				c8.5,1.6,11.9,7.9,11.9,14.7c0,8.8-5.2,26.3-22,26.3c-4.3,0-9.9-1.2-9.9-6.8c0-1.5,0.4-3.2,1.3-5.3c2.5,2.4,4.4,3.3,6.7,3.3
				c7.3,0,9.9-9.5,9.9-16.5c0-6.4-2.2-11.6-9.5-11.6c-0.8,0-2.8,0.1-4.6,0.3l-8.2,35H30.5l13.7-58.2L59,86.4z"/>
			<path class="st7" d="M121.6,102.9l-6.3,29.6c-0.3,1.1-0.4,2-0.4,2.8c0,2.4,1.1,3.2,3.6,3.2c3.4,0,5.8-3.3,7.1-7.7h3.7
				c-5,14.2-12.8,16.1-17.5,16.1c-5,0-8.1-2.9-8.6-8.3c-4.4,7.1-9.2,8.3-12.9,8.3c-5.2,0-9.3-3.1-9.3-10.5c0-1.7,0.3-3.6,0.7-5.7
				l5.9-28H100l-6.3,29.6c-0.2,0.9-0.3,1.7-0.3,2.4c0,2,0.7,3.6,2.6,3.6c3.4,0,5.7-3.3,7-7.7l5.9-28H121.6z"/>
			<path class="st7" d="M144,102.9l-1.1,5.4c3.1-2.6,6.4-5.4,10.6-5.4c3.9,0,6,3.2,6,6.5c0,3.1-2,6.4-6.3,6.4
				c-4.9,0-2.4-5.8-5.1-5.8c-2.6,0-4.2,1.3-6.4,3.3l-7,33.1h-12.6l9.2-43.6H144z"/>
			<path class="st7" d="M196.7,102.9l-8.6,40.4c5.3-1.9,8.5-4.9,11-12.5h3.7c-3.4,11.5-10,14.8-15.4,16.3l-1.3,6.3
				c-2.6,12.5-9.9,14.8-15.7,14.8c-5.3,0-9.8-2.8-9.8-8.5c0-7.3,7.7-11,14.2-13l1-4.6c-2.5,2.7-5.9,4.8-10.5,4.8
				c-5.9,0-11.6-3.7-11.6-14c0-11.8,7.2-30.5,22.4-30.5c5,0,7.1,1.9,7.1,4.4v0.5l1-4.5H196.7z M168.2,161.5c1.8,0,3.9-2.6,5.1-7.8
				l0.5-2.5c-4.4,1.7-8.5,3.9-8.5,7.4C165.3,159.8,166.3,161.5,168.2,161.5z M166.6,131.7c0,6.7,2.8,6.8,4.4,6.8
				c2.4,0,5.8-2.4,7-6.8l4.4-20.7c-0.1-1-0.8-3.2-3.6-3.2C171.4,107.9,166.6,123.5,166.6,131.7z"/>
			<path class="st7" d="M214.2,139.7c6.9,0,11.1-3.8,15.4-8.8h3c-5,8-12.4,16.1-24,16.1c-8.2,0-13.6-4-13.6-13.9
				c0-10,5.7-31,23.5-31c7.8,0,9.6,4,9.6,8.4c0,10-9.6,17.8-20,18.4c-0.1,1.2-0.2,2.4-0.2,3.5C207.9,138.3,210,139.7,214.2,139.7z
				 M219.2,106.7c-4.4,0-8.7,9.3-10.5,18c6.7-0.4,12.6-7.1,12.6-14.4C221.4,108.1,220.9,106.7,219.2,106.7z"/>
			<path class="st7" d="M245.9,102.9l-1.1,5.4c3.1-2.6,6.4-5.4,10.5-5.4c3.9,0,6,3.2,6,6.5c0,3.1-2,6.4-6.3,6.4
				c-4.9,0-2.4-5.8-5.1-5.8c-2.6,0-4.2,1.3-6.4,3.3l-7,33.1h-12.6l9.2-43.6H245.9z"/>
			<path class="st8" d="M59,86.4l-4.7,20.3h0.6c8,0,14.5-8,14.5-14.8c0-5.2-3.7-9.9-13.3-9.9C44.3,82,31,89.1,31,104.2
				c0,4.7,1.3,5.4,1.4,6.2c-6.6,0-10.8-2.3-10.8-8.4c0-12.6,17.5-24.2,36.5-24.2c14.8,0,21.4,7,21.4,14.5c0,5.4-3.5,11.2-10,14.5
				c8.5,1.6,11.9,7.9,11.9,14.7c0,8.8-5.2,26.3-22,26.3c-4.3,0-9.9-1.2-9.9-6.8c0-1.5,0.4-3.2,1.3-5.3c2.5,2.4,4.4,3.3,6.7,3.3
				c7.3,0,9.9-9.5,9.9-16.5c0-6.4-2.2-11.6-9.5-11.6c-0.8,0-2.8,0.1-4.6,0.3l-8.2,35H30.5l13.7-58.2L59,86.4z"/>
			<path class="st8" d="M121.6,102.9l-6.3,29.6c-0.3,1.1-0.4,2-0.4,2.8c0,2.4,1.1,3.2,3.6,3.2c3.4,0,5.8-3.3,7.1-7.7h3.7
				c-5,14.2-12.8,16.1-17.5,16.1c-5,0-8.1-2.9-8.6-8.3c-4.4,7.1-9.2,8.3-12.9,8.3c-5.2,0-9.3-3.1-9.3-10.5c0-1.7,0.3-3.6,0.7-5.7
				l5.9-28H100l-6.3,29.6c-0.2,0.9-0.3,1.7-0.3,2.4c0,2,0.7,3.6,2.6,3.6c3.4,0,5.7-3.3,7-7.7l5.9-28H121.6z"/>
			<path class="st8" d="M144,102.9l-1.1,5.4c3.1-2.6,6.4-5.4,10.6-5.4c3.9,0,6,3.2,6,6.5c0,3.1-2,6.4-6.3,6.4
				c-4.9,0-2.4-5.8-5.1-5.8c-2.6,0-4.2,1.3-6.4,3.3l-7,33.1h-12.6l9.2-43.6H144z"/>
			<path class="st8" d="M196.7,102.9l-8.6,40.4c5.3-1.9,8.5-4.9,11-12.5h3.7c-3.4,11.5-10,14.8-15.4,16.3l-1.3,6.3
				c-2.6,12.5-9.9,14.8-15.7,14.8c-5.3,0-9.8-2.8-9.8-8.5c0-7.3,7.7-11,14.2-13l1-4.6c-2.5,2.7-5.9,4.8-10.5,4.8
				c-5.9,0-11.6-3.7-11.6-14c0-11.8,7.2-30.5,22.4-30.5c5,0,7.1,1.9,7.1,4.4v0.5l1-4.5H196.7z M168.2,161.5c1.8,0,3.9-2.6,5.1-7.8
				l0.5-2.5c-4.4,1.7-8.5,3.9-8.5,7.4C165.3,159.8,166.3,161.5,168.2,161.5z M166.6,131.7c0,6.7,2.8,6.8,4.4,6.8
				c2.4,0,5.8-2.4,7-6.8l4.4-20.7c-0.1-1-0.8-3.2-3.6-3.2C171.4,107.9,166.6,123.5,166.6,131.7z"/>
			<path class="st8" d="M214.2,139.7c6.9,0,11.1-3.8,15.4-8.8h3c-5,8-12.4,16.1-24,16.1c-8.2,0-13.6-4-13.6-13.9
				c0-10,5.7-31,23.5-31c7.8,0,9.6,4,9.6,8.4c0,10-9.6,17.8-20,18.4c-0.1,1.2-0.2,2.4-0.2,3.5C207.9,138.3,210,139.7,214.2,139.7z
				 M219.2,106.7c-4.4,0-8.7,9.3-10.5,18c6.7-0.4,12.6-7.1,12.6-14.4C221.4,108.1,220.9,106.7,219.2,106.7z"/>
			<path class="st8" d="M245.9,102.9l-1.1,5.4c3.1-2.6,6.4-5.4,10.5-5.4c3.9,0,6,3.2,6,6.5c0,3.1-2,6.4-6.3,6.4
				c-4.9,0-2.4-5.8-5.1-5.8c-2.6,0-4.2,1.3-6.4,3.3l-7,33.1h-12.6l9.2-43.6H245.9z"/>
			<path class="st7" d="M80.3,171.3l7.5-22h4.7v22l7.7-22h2.5l-10,26.8h-5.3v-18.3l-7.1,18.3h-5.3v-24.6c-3.9,1.2-5.8,4-5.8,8
				c0,1.8,0.5,2.1,0.5,2.4c-2.5,0-3.8-0.9-3.8-3.5c0-4.8,6.6-9.3,12.6-9.3c0.5,0,1,0,1.4,0.1L80.3,171.3z"/>
			<path class="st7" d="M105.2,173.3c2.8,0,4.6-1.6,6.4-3.6h1.2c-2,3.3-5.1,6.6-9.9,6.6c-3.4,0-5.6-1.7-5.6-5.7
				c0-4.1,2.3-12.8,9.7-12.8c3.2,0,4,1.7,4,3.5c0,4.1-4,7.3-8.3,7.6c0,0.5-0.1,1-0.1,1.4C102.7,172.7,103.5,173.3,105.2,173.3z
				 M107.3,159.7c-1.8,0-3.6,3.8-4.3,7.4c2.8-0.2,5.2-2.9,5.2-5.9C108.2,160.3,108,159.7,107.3,159.7z"/>
			<path class="st7" d="M119,173.3c2.8,0,4.6-1.6,6.4-3.6h1.2c-2,3.3-5.1,6.6-9.9,6.6c-3.4,0-5.6-1.7-5.6-5.7
				c0-4.1,2.3-12.8,9.7-12.8c3.2,0,4,1.7,4,3.5c0,4.1-4,7.3-8.3,7.6c0,0.5-0.1,1-0.1,1.4C116.5,172.7,117.3,173.3,119,173.3z
				 M121.1,159.7c-1.8,0-3.6,3.8-4.3,7.4c2.8-0.2,5.2-2.9,5.2-5.9C122,160.3,121.8,159.7,121.1,159.7z"/>
			<path class="st7" d="M142.4,158.1l-7.2,5c0.4-0.1,0.8-0.1,1.2-0.1c2.7,0,4,1.9,4,4.2c0,0.4,0,0.9-0.1,1.4l-0.4,1.8
				c-0.1,0.4-0.2,0.8-0.2,1.1c0,0.7,0.3,1.3,1.4,1.3c0.9,0,1-0.1,1.3-0.2c-0.2,2.6-2.4,3.7-3.3,3.7c-2.9,0-4.5-1.5-4.5-4.1
				c0-0.6,0.1-1.2,0.2-1.9l0.3-1.4c0.1-0.5,0.1-0.9,0.1-1.3c0-1-0.4-1.7-1.3-1.7c-0.8,0-1.7,0.5-2.7,1.3l-1.9,8.9H124l5.2-24.4
				l5.3-0.7l-2.7,12.7l6.9-5.5H142.4z"/>
			<path class="st8" d="M80.3,171.3l7.5-22h4.7v22l7.7-22h2.5l-10,26.8h-5.3v-18.3l-7.1,18.3h-5.3v-24.6c-3.9,1.2-5.8,4-5.8,8
				c0,1.8,0.5,2.1,0.5,2.4c-2.5,0-3.8-0.9-3.8-3.5c0-4.8,6.6-9.3,12.6-9.3c0.5,0,1,0,1.4,0.1L80.3,171.3z"/>
			<path class="st8" d="M105.2,173.3c2.8,0,4.6-1.6,6.4-3.6h1.2c-2,3.3-5.1,6.6-9.9,6.6c-3.4,0-5.6-1.7-5.6-5.7
				c0-4.1,2.3-12.8,9.7-12.8c3.2,0,4,1.7,4,3.5c0,4.1-4,7.3-8.3,7.6c0,0.5-0.1,1-0.1,1.4C102.7,172.7,103.5,173.3,105.2,173.3z
				 M107.3,159.7c-1.8,0-3.6,3.8-4.3,7.4c2.8-0.2,5.2-2.9,5.2-5.9C108.2,160.3,108,159.7,107.3,159.7z"/>
			<path class="st8" d="M119,173.3c2.8,0,4.6-1.6,6.4-3.6h1.2c-2,3.3-5.1,6.6-9.9,6.6c-3.4,0-5.6-1.7-5.6-5.7
				c0-4.1,2.3-12.8,9.7-12.8c3.2,0,4,1.7,4,3.5c0,4.1-4,7.3-8.3,7.6c0,0.5-0.1,1-0.1,1.4C116.5,172.7,117.3,173.3,119,173.3z
				 M121.1,159.7c-1.8,0-3.6,3.8-4.3,7.4c2.8-0.2,5.2-2.9,5.2-5.9C122,160.3,121.8,159.7,121.1,159.7z"/>
			<path class="st8" d="M142.4,158.1l-7.2,5c0.4-0.1,0.8-0.1,1.2-0.1c2.7,0,4,1.9,4,4.2c0,0.4,0,0.9-0.1,1.4l-0.4,1.8
				c-0.1,0.4-0.2,0.8-0.2,1.1c0,0.7,0.3,1.3,1.4,1.3c0.9,0,1-0.1,1.3-0.2c-0.2,2.6-2.4,3.7-3.3,3.7c-2.9,0-4.5-1.5-4.5-4.1
				c0-0.6,0.1-1.2,0.2-1.9l0.3-1.4c0.1-0.5,0.1-0.9,0.1-1.3c0-1-0.4-1.7-1.3-1.7c-0.8,0-1.7,0.5-2.7,1.3l-1.9,8.9H124l5.2-24.4
				l5.3-0.7l-2.7,12.7l6.9-5.5H142.4z"/>
			<g>
				<rect x="155.3" y="74.1" class="st0" width="18.2" height="9.4"/>
				<g>
					<g>
						<path class="st0" d="M81.6,83.8c-5.3,0-8.9-3.2-8.9-7.9c0-3.4,1.8-5.8,4.1-6.9c-0.6-1-1-2.3-1-3.7c0-4.6,4-8.1,9.4-8.1
							c4.5,0,7.6,2.6,7.6,6.6c0,2-0.8,3.7-2.1,4.8c0.9,1.3,1.5,3.1,1.5,5.3C92.3,79.7,87.8,83.8,81.6,83.8z"/>
						<path class="st0" d="M87.3,66.4c-0.5,0-0.8-0.2-1.2-0.5c0.7-0.4,1.1-1.3,1.1-2.2c0-0.9-0.5-1.7-1.9-1.7C84,62,83,62.7,83,64.3
							c0,3.7,5.7,4.2,5.7,9.7c0,4.3-3.4,6.3-7.1,6.3c-2.9,0-5.4-1.3-5.4-4.4c0-2.7,2-4.2,3.7-4.2c0.9,0,2.2,0.4,2.2,1.7
							c-1.4,0-3,0.6-3,2.4c0,1.3,0.8,2.4,2.4,2.4c1.7,0,2.9-1.2,2.9-3.4c0-4.3-5.2-5.9-5.2-9.6c0-2.6,2.6-4.5,5.9-4.5
							c1.2,0,4.1,0.3,4.1,3C89.4,65.3,88.5,66.4,87.3,66.4z"/>
						<path class="st0" d="M93.6,83.5c-4.5,0-7.5-3-7.5-7.6c0-5.2,3.2-12.5,10.4-12.5c3.8,0,6.3,2.3,6.3,6c0,1-0.2,2-0.5,2.9
							c0.6,0.3,1,0.8,1.4,1.4c0.6,1.1,0.6,2.5-0.1,3.6C101,81.3,97.6,83.5,93.6,83.5z"/>
						<path class="st0" d="M95.3,77.8c2,0,3.2-1.1,4.5-2.6h0.9c-1.4,2.3-3.6,4.7-7,4.7c-2.4,0-4-1.2-4-4c0-2.9,1.6-9,6.8-9
							c2.3,0,2.8,1.2,2.8,2.4c0,2.9-2.8,5.2-5.8,5.4c0,0.4-0.1,0.7-0.1,1C93.4,77.4,94,77.8,95.3,77.8z M96.7,68.2
							c-1.3,0-2.5,2.7-3,5.2c2-0.1,3.7-2.1,3.7-4.2C97.4,68.6,97.2,68.2,96.7,68.2z"/>
						<path class="st0" d="M115.2,83.5c-1.5,0-2.9-0.4-4-1.2c-0.6,0.6-1.5,1-2.5,1h-3.7c-0.5,0-0.9-0.1-1.3-0.3
							c-0.4,0.2-0.8,0.3-1.3,0.3h-3.7c-1.1,0-2.1-0.5-2.7-1.3c-0.7-0.8-0.9-1.9-0.7-2.9L98,66.4c0.3-1.6,1.8-2.8,3.4-2.8h3.7
							c0.3,0,0.6,0,0.9,0.1c0.6-0.2,1.2-0.2,1.9-0.2c1.1,0,2.2,0.2,3,0.7c1-0.4,2-0.7,3.1-0.7c3.7,0,6.3,2.6,6.3,6.4
							c0,0.6-0.1,1.2-0.2,1.9c1,0.1,1.9,0.6,2.5,1.5c0.7,0.9,0.8,2.1,0.5,3.2C121.2,82.2,117.7,83.5,115.2,83.5z"/>
						<path class="st0" d="M112.4,69.3c-0.9,0-1.6,1.1-2,2.3l-1.7,8.1h-3.7l1.9-8.7c0.1-0.2,0.1-0.4,0.1-0.6c0-0.6-0.2-1.1-0.8-1.1
							c-1,0-1.7,1.1-2.1,2.4l-1.7,8.1h-3.7l2.7-12.7h3.7l-0.3,1.3c1.1-1.2,2.2-1.4,3.1-1.4c1.3,0,2.3,0.6,2.6,2.2
							c1.2-1.9,2.6-2.2,3.5-2.2c1.6,0,2.8,0.8,2.8,2.9c0,2.1-1.2,5.1-1.2,6.5c0,0.6,0.3,1.1,1,1.1c1.1,0,1.6-0.9,2.1-2.2h1.1
							c-1.4,4.2-3.4,4.7-4.7,4.7c-2.2,0-3-1.4-3-2.9c0-1.7,1.1-4.8,1.1-6.5C113.3,69.8,113,69.3,112.4,69.3z"/>
						<path class="st0" d="M128.1,83.5c-1.1,0-2.1-0.3-3-0.7c-1.2,0.6-2.3,0.7-3.2,0.7c-3.4,0-6.9-2.4-6.9-7.6c0-5,3.2-12.4,10-12.4
							c0.6,0,1.2,0.1,1.7,0.2c0.2,0,0.4-0.1,0.6-0.1h3.7c1.1,0,2.1,0.5,2.7,1.3c0.7,0.8,0.9,1.9,0.7,2.9l-0.8,3.9
							c1,0.1,1.9,0.6,2.5,1.5c0.7,0.9,0.8,2.1,0.5,3.2C134.4,82.5,130.4,83.5,128.1,83.5z"/>
						<path class="st0" d="M131,67.1l-1.8,8.6c-0.1,0.3-0.1,0.6-0.1,0.8c0,0.7,0.3,1.1,1,1.1c1,0,1.7-1.1,2.1-2.4h1.1
							c-1.4,4.1-3.7,4.7-5.1,4.7c-1.4,0-2.3-0.8-2.5-2.3c-0.8,1.2-2,2.3-3.8,2.3c-1.7,0-3.4-1.1-3.4-4.1c0-3.4,2.1-8.9,6.5-8.9
							c1.4,0,2.1,0.6,2.1,1.3v0.2l0.3-1.3H131z M122.2,75.5c0,2,0.8,2,1.3,2c0.7,0,1.8-0.8,2.1-2.2l1.2-5.7c0-0.3-0.2-1-1-1
							C123.6,68.5,122.2,73.1,122.2,75.5z"/>
						<path class="st0" d="M134.7,83.5c-3.7,0-6.2-2.7-6.2-6.6c0-0.7,0.1-1.5,0.3-2.4l1.7-8.2c0.1-0.5,0.3-0.9,0.6-1.3
							c-0.1-0.4-0.2-0.9-0.2-1.3c0-3.1,2.5-5.6,5.5-5.6c3.1,0,5.5,2.5,5.5,5.6c0,1.1-0.3,2.2-0.9,3c0,0.4,0,0.7-0.1,1.1l-0.8,3.9
							c1.1,0,2.1,0.6,2.7,1.5c0.7,0.9,0.8,2.1,0.5,3.2C141.1,82.8,136.5,83.5,134.7,83.5z"/>
						<path class="st0" d="M137.5,67.1l-1.8,8.6c-0.1,0.3-0.1,0.6-0.1,0.8c0,0.7,0.3,0.9,1,0.9c1,0,1.9-1,2.3-2.2h1.1
							c-1.4,4.1-4,4.7-5.3,4.7c-1.5,0-2.7-0.9-2.7-3c0-0.5,0.1-1,0.2-1.6l1.7-8.1H137.5z M136.4,61.7c1.1,0,2,0.9,2,2
							c0,1.1-0.9,2-2,2s-2-0.9-2-2C134.4,62.6,135.3,61.7,136.4,61.7z"/>
						<path class="st0" d="M148.1,83.5c-1.5,0-2.9-0.4-4-1.2c-0.6,0.6-1.5,1-2.5,1H138c-1.1,0-2.1-0.5-2.7-1.3
							c-0.7-0.8-0.9-1.9-0.7-2.9l2.7-12.7c0.3-1.6,1.8-2.8,3.4-2.8h3.7c0.3,0,0.6,0,0.9,0.1c0.6-0.1,1.2-0.2,1.8-0.2
							c3.7,0,6.3,2.6,6.3,6.4c0,0.6-0.1,1.2-0.2,1.9c1,0.1,1.9,0.6,2.5,1.5c0.7,0.9,0.8,2.1,0.5,3.2
							C154.1,82.2,150.7,83.5,148.1,83.5z"/>
						<path class="st0" d="M145.3,69.3c-0.9,0-1.6,1.1-2,2.3l-1.7,8.1H138l2.7-12.7h3.7l-0.3,1.3c1.1-1.2,2.2-1.4,3-1.4
							c1.6,0,2.8,0.8,2.8,2.9c0,2.1-1.2,5.1-1.2,6.5c0,0.6,0.3,1.1,1,1.1c1.1,0,1.6-0.9,2.1-2.2h1.1c-1.4,4.2-3.4,4.7-4.7,4.7
							c-2.2,0-3-1.4-3-2.9c0-1.7,1.1-4.8,1.1-6.5C146.2,69.8,145.9,69.3,145.3,69.3z"/>
						<path class="st0" d="M155.3,83.5c-4.5,0-7.5-3-7.5-7.6c0-5.2,3.2-12.5,10.4-12.5c3.8,0,6.3,2.3,6.3,6c0,1.9-0.7,3.7-1.8,5.1
							c0.4,0.7,0.6,1.6,0.4,2.4C162.4,81,159.5,83.5,155.3,83.5z"/>
						<path class="st0" d="M156.7,77.5c1,0,2.2-0.6,3-1.3c-0.5,2.9-2.4,3.8-4.4,3.8c-2.4,0-3.9-1.2-3.9-4c0-2.9,1.6-9,6.8-9
							c2.3,0,2.8,1.2,2.8,2.4c0,2.9-2.8,5.2-5.8,5.4c0,0.3-0.1,0.5-0.1,0.8C155.1,77,155.8,77.5,156.7,77.5z M158.4,68.2
							c-1.3,0-2.5,2.8-3.1,5.2c2-0.1,3.7-2.1,3.7-4.2C159.1,68.6,158.9,68.2,158.4,68.2z"/>
						<path class="st0" d="M169.6,83.5c-3.4,0-6.9-2.4-6.9-7.6c0-4.9,3-12,9.5-12.4l0.4-1.7c0.3-1.5,1.5-2.6,3-2.8l3.8-0.5
							c0.2,0,0.3,0,0.5,0c1,0,1.9,0.4,2.6,1.1c0.8,0.8,1.1,2,0.9,3.1l-1.9,9c1,0.1,1.9,0.6,2.5,1.5c0.7,0.9,0.8,2.1,0.5,3.2
							c-2,5.7-5.7,6.9-8.4,6.9c-1.1,0-2-0.2-2.9-0.7C171.9,83.2,170.8,83.5,169.6,83.5z"/>
						<path class="st0" d="M179.8,62l-2.9,13.7c-0.1,0.3-0.1,0.6-0.1,0.8c0,0.7,0.3,0.9,1,0.9c1,0,1.7-1,2.1-2.2h1.1
							c-1.4,4.1-3.7,4.5-5.1,4.5s-2.3-0.8-2.5-2.2c-0.8,1.2-2,2.3-3.8,2.3c-1.7,0-3.4-1.1-3.4-4.1c0-3.4,2.1-8.9,6.5-8.9
							c1.4,0,2.1,0.6,2.1,1.3v0.1l1.2-5.8L179.8,62z M173.3,75.2l1.2-5.8c-0.1-0.3-0.3-0.9-1-0.9c-2.2,0-3.5,4.6-3.5,6.9
							c0,2,0.8,2,1.3,2c0.7,0,1.7-0.7,2.1-2.1V75.2z"/>
						<path class="st0" d="M188.6,83.5c-1.1,0-2.1-0.3-3-0.7c-1,0.5-2.1,0.7-3.3,0.7c-3.7,0-6.2-2.7-6.2-6.6c0-0.7,0.1-1.5,0.3-2.4
							l1.7-8.2c0.3-1.6,1.8-2.8,3.4-2.8h3.7c0.5,0,0.9,0.1,1.3,0.3c0.4-0.2,0.8-0.3,1.3-0.3h3.7c1.1,0,2.1,0.5,2.7,1.3
							c0.7,0.8,0.9,1.9,0.7,2.9l-1.4,6.7c0,0,0,0,0.1,0.1c0.9,0.7,1.4,1.9,1.4,3C194.7,81,192.1,83.5,188.6,83.5z"/>
						<path class="st0" d="M185.2,67.1l-1.8,8.6c-0.1,0.2-0.1,0.4-0.1,0.6c0,0.6,0.2,1.1,0.8,1.1c1,0,1.6-1,2-2.2l1.7-8.1h3.7
							l-1.8,8.6c-0.1,0.3-0.1,0.6-0.1,0.8c0,0.7,0.3,0.9,1,0.9c0.5,0,0.6-0.1,0.8-0.2c-0.1,1.8-1.4,2.6-2.8,2.6
							c-1.4,0-2.3-0.9-2.5-2.4c-1.3,2.1-2.7,2.4-3.8,2.4c-1.5,0-2.7-0.9-2.7-3c0-0.5,0.1-1,0.2-1.6l1.7-8.1H185.2z"/>
					</g>
				</g>
				<g>
					<path class="st8" d="M87.3,66.4c-0.5,0-0.8-0.2-1.2-0.5c0.7-0.4,1.1-1.3,1.1-2.2c0-0.9-0.5-1.7-1.9-1.7S83,62.7,83,64.3
						c0,3.7,5.7,4.2,5.7,9.7c0,4.3-3.4,6.3-7.1,6.3c-2.9,0-5.4-1.3-5.4-4.4c0-2.7,2-4.2,3.7-4.2c0.9,0,2.2,0.4,2.2,1.7
						c-1.4,0-3,0.6-3,2.4c0,1.3,0.8,2.4,2.4,2.4c1.7,0,2.9-1.2,2.9-3.4c0-4.3-5.2-5.9-5.2-9.6c0-2.6,2.6-4.5,5.9-4.5
						c1.2,0,4.1,0.3,4.1,3C89.4,65.3,88.5,66.4,87.3,66.4z"/>
					<path class="st8" d="M95.3,77.8c2,0,3.2-1.1,4.5-2.6h0.9c-1.4,2.3-3.6,4.7-7,4.7c-2.4,0-4-1.2-4-4c0-2.9,1.6-9,6.8-9
						c2.3,0,2.8,1.2,2.8,2.4c0,2.9-2.8,5.2-5.8,5.4c0,0.4-0.1,0.7-0.1,1C93.4,77.4,94,77.8,95.3,77.8z M96.7,68.2
						c-1.3,0-2.5,2.7-3,5.2c2-0.1,3.7-2.1,3.7-4.2C97.4,68.6,97.2,68.2,96.7,68.2z"/>
					<path class="st8" d="M112.4,69.3c-0.9,0-1.6,1.1-2,2.3l-1.7,8.1h-3.7l1.9-8.7c0.1-0.2,0.1-0.4,0.1-0.6c0-0.6-0.2-1.1-0.8-1.1
						c-1,0-1.7,1.1-2.1,2.4l-1.7,8.1h-3.7l2.7-12.7h3.7l-0.3,1.3c1.1-1.2,2.2-1.4,3.1-1.4c1.3,0,2.3,0.6,2.6,2.2
						c1.2-1.9,2.6-2.2,3.5-2.2c1.6,0,2.8,0.8,2.8,2.9c0,2.1-1.2,5.1-1.2,6.5c0,0.6,0.3,1.1,1,1.1c1.1,0,1.6-0.9,2.1-2.2h1.1
						c-1.4,4.2-3.4,4.7-4.7,4.7c-2.2,0-3-1.4-3-2.9c0-1.7,1.1-4.8,1.1-6.5C113.3,69.8,113,69.3,112.4,69.3z"/>
					<path class="st8" d="M131,67.1l-1.8,8.6c-0.1,0.3-0.1,0.6-0.1,0.8c0,0.7,0.3,1.1,1,1.1c1,0,1.7-1.1,2.1-2.4h1.1
						c-1.4,4.1-3.7,4.7-5.1,4.7c-1.4,0-2.3-0.8-2.5-2.3c-0.8,1.2-2,2.3-3.8,2.3c-1.7,0-3.4-1.1-3.4-4.1c0-3.4,2.1-8.9,6.5-8.9
						c1.4,0,2.1,0.6,2.1,1.3v0.2l0.3-1.3H131z M122.2,75.5c0,2,0.8,2,1.3,2c0.7,0,1.8-0.8,2.1-2.2l1.2-5.7c0-0.3-0.2-1-1-1
						C123.6,68.5,122.2,73.1,122.2,75.5z"/>
					<path class="st8" d="M137.5,67.1l-1.8,8.6c-0.1,0.3-0.1,0.6-0.1,0.8c0,0.7,0.3,0.9,1,0.9c1,0,1.9-1,2.3-2.2h1.1
						c-1.4,4.1-4,4.7-5.3,4.7c-1.5,0-2.7-0.9-2.7-3c0-0.5,0.1-1,0.2-1.6l1.7-8.1H137.5z M136.4,61.7c1.1,0,2,0.9,2,2
						c0,1.1-0.9,2-2,2c-1.1,0-2-0.9-2-2C134.4,62.6,135.3,61.7,136.4,61.7z"/>
					<path class="st8" d="M145.3,69.3c-0.9,0-1.6,1.1-2,2.3l-1.7,8.1H138l2.7-12.7h3.7l-0.3,1.3c1.1-1.2,2.2-1.4,3-1.4
						c1.6,0,2.8,0.8,2.8,2.9c0,2.1-1.2,5.1-1.2,6.5c0,0.6,0.3,1.1,1,1.1c1.1,0,1.6-0.9,2.1-2.2h1.1c-1.4,4.2-3.4,4.7-4.7,4.7
						c-2.2,0-3-1.4-3-2.9c0-1.7,1.1-4.8,1.1-6.5C146.2,69.8,145.9,69.3,145.3,69.3z"/>
					<path class="st8" d="M156.7,77.5c1,0,2.2-0.6,3-1.3c-0.5,2.9-2.4,3.8-4.4,3.8c-2.4,0-3.9-1.2-3.9-4c0-2.9,1.6-9,6.8-9
						c2.3,0,2.8,1.2,2.8,2.4c0,2.9-2.8,5.2-5.8,5.4c0,0.3-0.1,0.5-0.1,0.8C155.1,77,155.8,77.5,156.7,77.5z M158.4,68.2
						c-1.3,0-2.5,2.8-3.1,5.2c2-0.1,3.7-2.1,3.7-4.2C159.1,68.6,158.9,68.2,158.4,68.2z"/>
					<path class="st8" d="M179.8,62l-2.9,13.7c-0.1,0.3-0.1,0.6-0.1,0.8c0,0.7,0.3,0.9,1,0.9c1,0,1.7-1,2.1-2.2h1.1
						c-1.4,4.1-3.7,4.5-5.1,4.5s-2.3-0.8-2.5-2.2c-0.8,1.2-2,2.3-3.8,2.3c-1.7,0-3.4-1.1-3.4-4.1c0-3.4,2.1-8.9,6.5-8.9
						c1.4,0,2.1,0.6,2.1,1.3v0.1l1.2-5.8L179.8,62z M173.3,75.2l1.2-5.8c-0.1-0.3-0.3-0.9-1-0.9c-2.2,0-3.5,4.6-3.5,6.9
						c0,2,0.8,2,1.3,2c0.7,0,1.7-0.7,2.1-2.1V75.2z"/>
					<path class="st8" d="M185.2,67.1l-1.8,8.6c-0.1,0.2-0.1,0.4-0.1,0.6c0,0.6,0.2,1.1,0.8,1.1c1,0,1.6-1,2-2.2l1.7-8.1h3.7
						l-1.8,8.6c-0.1,0.3-0.1,0.6-0.1,0.8c0,0.7,0.3,0.9,1,0.9c0.5,0,0.6-0.1,0.8-0.2c-0.1,1.8-1.4,2.6-2.8,2.6
						c-1.4,0-2.3-0.9-2.5-2.4c-1.3,2.1-2.7,2.4-3.8,2.4c-1.5,0-2.7-0.9-2.7-3c0-0.5,0.1-1,0.2-1.6l1.7-8.1H185.2z"/>
				</g>
			</g>
		</g>
		<g>
			<polygon class="st9" points="218,52.8 212.2,56 220.4,25.4 225,26.6 			"/>
			<g>
				<polygon class="st0" points="221.2,32.2 178.6,38.9 201.7,3.3 228.1,13.5 285.2,2.5 261,39.9 				"/>
				<polygon class="st0" points="183.5,35.7 202.6,6.2 227.9,15.9 280.2,5.8 259.9,37.3 221.2,29.8 				"/>
				<g>
					<path class="st10" d="M227.3,24.7c-0.2,1.4,0.4,1.9,1.8,1.5c0.5-0.2,1-0.5,1.4-0.8c0.4-0.3,0.8-0.7,1.2-1
						c-0.2,1.8,0.7,2.5,2.3,1.6c1.4-0.8,2.5-2,3.8-3.2c0.1,0.1,0.5,0.3,0.8,0.6c-0.1,0.2-0.1,0.5-0.2,0.7c-0.3,1.3,0.4,2.1,1.7,2.1
						c1.4,0,2.5-0.7,3.5-1.6c0.3-0.3,0.6-0.6,1-0.9c0,0.1,0,0.3,0,0.3c-0.3,0.6-0.6,1.4,0.1,1.8c0.5,0.3,1.4,0.2,2,0
						c0.6-0.2,1.1-0.7,1.6-1c0.1,0.1,0.1,0.1,0.2,0.2c-0.3,1,0.4,1.1,1.1,1.2c1.3,0.2,2.4-0.3,3.4-1.1c0.8-0.6,1.6-1.3,2.4-2.1
						c0,0.2-0.1,0.3,0,0.4c0,0.7-0.2,1.8,0.2,2.1c0.5,0.4,1.7,0.7,2.3,0.4c1.2-0.5,2.3-1.3,3.2-2.2c1-0.9,1.7-2,2.6-3
						c0.3-0.3,0.7-0.6,1.1-0.8c0.1,0.1,0.2,0.2,0.4,0.3c-1.1,1.9-2.3,3.8-3.5,5.8c0.6,0,1.2,0,1.6,0c1.4-1.7,2.8-3.4,4.2-5
						c0,0,0,0.1,0.1,0.1c0.1,0.5,0.1,1.4,0.5,1.6c0.6,0.2,1.4,0.1,2.1,0.1c0-0.1,0-0.2,0-0.3c0.1,0.2,0.2,0.4,0.4,0.8
						c-0.6,0.2-1.1,0.3-1.8,0.5c-2.8,4.4-5.7,8.9-8.6,13.4c-0.1,0-0.1,0-0.2,0c-2.4-0.5-4.8-1.1-7.2-1.5c-10-2-19.9-4-29.9-5.9
						c-1.7-0.3-3.6,0.2-5.3,0.5c-11.1,1.7-22.3,3.5-33.4,5.3c-0.2,0-0.3,0-0.6,0c3.4-5.2,6.7-10.4,10-15.5c-0.8-0.6-1.6-1.1-2.3-1.7
						c0.1-0.1,0.1-0.2,0.2-0.3c2.3,1.7,4.7,1.2,7.3,0.2c-0.2,0.4-0.4,0.6-0.5,0.9c-1.3,1.9-2.5,3.8-3.8,5.8
						c-0.4,0.6-0.8,1.4-0.1,1.8c0.5,0.4,1.5,0.6,2,0.3c1-0.5,1.7-1.3,2.4-1.8c0.4,0.5,0.8,1.3,1.4,1.7c0.7,0.4,1.6,0.4,2.4,0.3
						c2.4-0.2,4.5-1.4,6.3-2.9c0.4-0.3,0.8-0.7,1.5-1.3c-0.3,0.5-0.5,0.8-0.5,1.1c-0.1,0.5-0.2,1.3,0,1.5c0.3,0.3,1.1,0.4,1.6,0.3
						c0.9-0.4,1.8-1,2.5-1.5c0.1,0.4,0.1,1.2,0.4,1.4c0.5,0.2,1.3,0.2,1.8-0.1c0.8-0.4,1.5-1,2.2-1.5c0.1,1.8,1.1,2.4,2.8,1.4
						c0.7-0.4,1.3-1,1.7-1.4c0.2,0.5,0.2,1.4,0.6,1.5c0.6,0.2,1.4,0.1,2-0.2c0.7-0.3,1.2-0.9,1.8-1.4
						C227.2,24.6,227.3,24.7,227.3,24.7z"/>
					<path class="st10" d="M253.5,24c0.1-1.2,0.2-2.5,0.3-3.8c0.2-0.2,0.4-0.5,0.7-0.8c-0.6-0.8-1-0.6-1.5-0.1
						c-1.7,1.9-3.5,3.8-5.3,5.6c-0.4,0.4-0.9,0.5-1.4,0.8c-0.1-0.1-0.2-0.2-0.4-0.3c1.1-1.8,2.1-3.6,3.2-5.5c-0.6,0-1.1,0-1.6,0
						c-1.8,2.1-3.2,4.7-6.1,5.7c-0.3,0.1-0.7,0-1.3,0c0.1-0.8,0.2-1.4,0.3-1.8c1-0.4,1.8-0.6,2.6-1.1c0.7-0.4,1.3-1,1.7-1.7
						c0.5-0.8,0-1.5-1-1.5c-1.3,0-2.3,0.6-3.2,1.5c-0.6,0.6-1.1,1.3-1.7,2.1c-0.3-0.2-0.6-0.5-0.9-0.7c0.4-1,0.8-1.8,1.2-2.7
						c-1.1-0.4-1.6,0-1.7,1.3c-0.1,1.8-1.2,3-2.5,4.1c-0.4,0.3-0.9,0.4-1.4,0.6c-0.1-0.1-0.2-0.2-0.4-0.3c1-1.8,2.1-3.6,3.1-5.5
						c-0.6,0-1.1,0-1.7,0c0.1,0.1,0.1,0.1,0.2,0.2c-1.6,1.8-3.3,3.6-5,5.4c-0.1,0.1-0.5,0.1-0.7,0.2c-0.1-0.1-0.2-0.2-0.3-0.3
						c1.1-1.8,2.2-3.6,3.4-5.5c-0.6,0-1.2,0-1.7,0c-1.8,2.1-3.1,4.5-5.6,5.8c-0.1-0.1-0.2-0.1-0.3-0.2c0.1-0.4,0.2-0.8,0.4-1.2
						c1.9-3.3,3.8-6.5,5.9-10c0.2,0.5,0.3,0.8,0.5,1.2c16.2-3.2,32.5-6.3,49-9.5c-0.2,0.3-0.3,0.6-0.4,0.8
						c-3.3,5.1-6.5,10.1-9.8,15.2c-0.3,0.4-0.8,0.6-1.4,1.1c-0.4-1.6,0.3-2.2,1.1-2.8c-0.8-1-1.3-0.8-4,1.9c0.1-0.3,0.2-0.5,0.2-0.7
						c0-0.5,0.1-1.4-0.1-1.5c-0.5-0.2-1.2-0.3-1.7,0c-0.7,0.4-1.2,1.1-1.8,1.6c-1.1,1.1-2,2.3-3.2,3.4c-0.6,0.6-1.4,1-2.4,0.4
						c0.1-0.6,0.2-1.1,0.2-1.5c1.3-0.7,2.4-1.2,3.4-1.8c0.7-0.5,1.4-1.2,0.9-2.1c-0.5-0.9-1.5-0.6-2.3-0.2c-0.8,0.4-1.5,0.9-2.2,1.5
						c-1.1,1-2.2,2-3.3,3C253.7,24.1,253.6,24,253.5,24z M249.3,17.7c0.2,0.1,0.4,0.2,0.6,0.4c0.4-0.3,0.9-0.6,1.2-1
						c0.1-0.2-0.1-0.9-0.3-1c-0.3-0.1-0.9,0-1.1,0.3C249.4,16.7,249.4,17.3,249.3,17.7z"/>
					<path class="st10" d="M207.4,24.8c0.3-0.6,0.6-1.1,0.8-1.8c0.4-1.4,0.1-2.3-1.1-3.3c0.8-0.4,1.6-0.7,2.3-1.1
						c1.6-1.1,2.2-3.1,1.4-4.3c-0.8-1.2-2.9-1.3-4.5-0.2c-0.7,0.5-1.3,1.1-2,1.8c-0.3-0.1-0.6-0.3-1-0.5c0.3-0.5,0.5-0.8,0.9-1.5
						c-1.1,0.1-1.9,0.3-2.7,0.4c0,0.1,0,0.2,0,0.3c-0.6-0.2-1.2-0.4-1.8-0.5c-0.6-0.1-1.2-0.2-1.9-0.4c1.6-2.5,3.2-5,4.8-7.4
						c8.4,3.2,16.8,6.5,25.3,9.7c-0.9,1.4-1.7,2.7-2.5,4.1c-1-1-2.2-0.8-3.1-0.2c-1,0.6-1.8,1.4-2.6,2.3c-0.9,0.9-1.7,1.9-2.6,2.8
						c-0.3,0.3-0.8,0.5-1.3,0.7c-0.1-0.1-0.2-0.2-0.4-0.3c1.1-1.8,2.2-3.6,3.3-5.5c-0.6,0-1.2,0-1.8,0c-1.7,2.1-2.7,4.8-5.4,5.8
						c-0.1-0.1-0.3-0.2-0.4-0.3c1.1-1.8,2.3-3.6,3.4-5.5c-0.6,0-1.2,0-1.8,0c0.1,0.1,0.1,0.2,0.2,0.3c-1.8,1.7-3.6,3.3-5.4,5
						C207.5,24.9,207.5,24.9,207.4,24.8z"/>
					<path class="st10" d="M201.1,21.9c1.1-1.7,2.3-3.4,3.4-5.2c0.5,0.3,1,0.6,1.5,0.9c0.1-0.1,0.1-0.2,0.2-0.3
						c-0.4-0.3-0.8-0.7-1.3-1.1c0.6-0.5,1.2-1.2,1.9-1.6c0.6-0.3,1.3-0.1,2-0.2c0,0.6,0.3,1.4,0,1.9c-0.7,2-2.3,2.9-4.4,2.9
						c-0.4,0-0.8,0.2-1.2,0.3c0,0.1,0,0.2,0.1,0.3c0.3,0,0.7,0,1,0c1.5,0,2.1,0.7,1.9,2.2c-0.3,2.5-2.4,4.6-4.6,4.8
						c-1.7,0.2-2.5-0.8-1.9-2.5c0.5-1.3,1.5-1.9,2.8-2.2c0.3-0.1,0.6-0.1,0.9-0.2c0-0.2-0.1-0.3-0.1-0.5c-0.7,0.1-1.4,0.3-2,0.4
						C201.2,21.9,201.2,21.9,201.1,21.9z"/>
					<path class="st10" d="M201.1,15.1c-1.5,2.6-3.6,3.9-6.7,3.8c0.9-1.3,1.7-2.6,2.5-3.9c-2.5-0.5-4.5,0.7-4.7,2.8
						c-0.6-0.8-0.5-1.8,0.4-2.4c0.8-0.5,1.7-0.9,2.6-1.1C197,13.9,199.3,14.3,201.1,15.1z"/>
					<path class="st10" d="M202.9,15.8c0.3,0.2,0.7,0.3,1.1,0.6c-2.7,3.5-4.5,7.5-8,10.7C196,25.8,200.9,18,202.9,15.8z"/>
					<path class="st10" d="M220.2,25.4c0-1.6,2.1-4.8,3.6-5.3c0.3-0.1,0.8,0.1,1.2,0.1C224.3,22.5,221.5,25.5,220.2,25.4z"/>
					<path class="st10" d="M248.4,25c1.4-1.3,2.7-2.6,4.2-4c-0.4,1.3-0.6,2.6-1.1,3.7c-0.5,1.3-1.2,1.4-2.3,0.5
						c-0.1-0.1-0.4-0.1-0.7-0.1C248.5,25.1,248.5,25.1,248.4,25z"/>
					<path class="st10" d="M260.7,19.9c-0.1,1.5-1.4,2.7-3.1,3C258.5,21.7,259,20.3,260.7,19.9z"/>
					<path class="st10" d="M240.9,22.9c0.9-1.3,1.4-2.6,3-3C244.1,21.2,242.8,22.6,240.9,22.9z"/>
					<path class="st10" d="M227.1,24.5c0-0.1,0.1-0.2,0.1-0.3c0.1,0.1,0.1,0.1,0.2,0.2c-0.1,0.1-0.1,0.2-0.2,0.4
						C227.3,24.7,227.2,24.6,227.1,24.5z"/>
					<path class="st10" d="M267.3,21.2c0,0,0-0.1,0.1-0.1c0,0,0,0,0.1,0C267.4,21.1,267.4,21.2,267.3,21.2
						C267.3,21.2,267.3,21.2,267.3,21.2z"/>
					<path class="st10" d="M201.3,22c-0.1,0-0.1,0.1-0.3,0.2c0.1-0.2,0.1-0.3,0.1-0.3C201.2,21.9,201.2,21.9,201.3,22z"/>
					<path class="st10" d="M253.7,24.1c0,0.1,0,0.2-0.1,0.3c-0.1,0-0.1-0.1-0.2-0.1c0-0.1,0-0.2,0.1-0.2
						C253.6,24,253.7,24.1,253.7,24.1z"/>
					<path class="st10" d="M207.5,25c-0.1,0-0.1,0.1-0.4,0.2c0.2-0.2,0.2-0.3,0.3-0.4C207.5,24.9,207.5,24.9,207.5,25z"/>
				</g>
			</g>
		</g>
		<g>
			<g>
				<g>
					<path class="st11" d="M203.8,229.6h-56c-2.9,0-5.2-2.3-5.2-5.2v-10.2c0-2.9,2.3-5.2,5.2-5.2h56c2.9,0,5.2,2.3,5.2,5.2v10.2
						C209,227.3,206.7,229.6,203.8,229.6z"/>
					<g>
						<path class="st0" d="M153.1,212.8c0.1,0,0.3,0.1,0.4,0.1c1.4,0.3,2.3,1.3,2.6,2.6c0,0.3,0.1,0.6,0.1,0.8
							c0,0.4-0.2,0.6-0.7,0.6c-0.3,0-0.6,0-0.8,0c-0.4,0-0.6-0.2-0.6-0.6c0-0.2,0-0.5-0.1-0.7c-0.1-0.4-0.4-0.7-0.8-0.8
							c-0.6-0.2-1.2-0.2-1.7,0.3c-0.6,0.5-0.8,1.8,0.1,2.5c0.4,0.3,0.8,0.5,1.2,0.6c0.6,0.3,1.3,0.6,1.9,0.9
							c1.1,0.6,1.6,1.7,1.7,2.9c0,0.8-0.1,1.5-0.5,2.1c-0.5,0.8-1.2,1.2-2,1.4c-1,0.3-1.9,0.3-2.9-0.1c-1.3-0.5-2-1.4-2.2-2.8
							c0,0,0-0.1,0-0.1c0-0.2,0-0.4,0-0.6c0,0,0,0,0-0.1c0.1-0.3,0.2-0.4,0.5-0.4c0.4,0,0.7,0,1.1,0c0.3,0,0.4,0.2,0.5,0.5
							c0,0.1,0,0.1,0,0.2c0,0.6,0.2,1,0.8,1.3c0.4,0.2,0.9,0.2,1.4,0.2c1.2-0.2,1.7-1.3,1.1-2.4c-0.2-0.4-0.6-0.7-1-0.9
							c-0.7-0.3-1.4-0.6-2.1-0.9c-1.2-0.6-1.9-1.5-2.1-2.8c-0.1-0.8,0-1.6,0.4-2.3c0.5-0.9,1.3-1.4,2.3-1.6c0.1,0,0.3-0.1,0.4-0.1
							C152.3,212.8,152.7,212.8,153.1,212.8z"/>
						<path class="st0" d="M160,218.6c0.2-0.3,0.4-0.6,0.6-0.8c1-1.4,2-2.9,3-4.3c0.2-0.3,0.5-0.5,0.9-0.5c0.3,0,0.6,0,0.9,0
							c0.2,0,0.4,0,0.5,0.2c0.1,0.2,0.1,0.4,0,0.6c-0.3,0.4-0.7,0.9-1,1.3c-0.8,1-1.6,2.1-2.4,3.1c0,0,0,0.1-0.1,0.1
							c0.5,1,1.1,2,1.6,3c0.6,1.1,1.2,2.3,1.8,3.4c0.2,0.4,0,0.9-0.5,0.8c-0.3,0-0.7,0-1,0c-0.3,0-0.6-0.2-0.7-0.5
							c-0.5-1-1-2.1-1.6-3.1c-0.3-0.6-0.6-1.2-0.9-1.8c0,0,0-0.1-0.1-0.1c-0.3,0.4-0.5,0.7-0.8,1.1c-0.2,0.2-0.2,0.4-0.2,0.7
							c0,1,0,2,0,2.9c0,0.1,0,0.1,0,0.2c0,0.3-0.2,0.5-0.5,0.6c-0.3,0-0.7,0-1,0c-0.3,0-0.5-0.2-0.5-0.5c0-0.1,0-0.2,0-0.3
							c0-3.6,0-7.3,0-10.9c0-0.7,0.2-0.9,0.9-0.9c0.2,0,0.4,0,0.6,0c0.4,0,0.6,0.2,0.6,0.6c0,0.4,0,0.8,0,1.3c0,1.2,0,2.3,0,3.5
							C160,218.4,160,218.5,160,218.6z"/>
						<path class="st0" d="M173.8,220.9c0,0.9,0,1.8,0,2.7c0,0.5,0,0.9,0,1.4c0,0.4-0.2,0.6-0.6,0.6c-0.3,0-0.6,0-0.9,0
							c-0.3,0-0.5-0.2-0.6-0.6c0-0.1,0-0.1,0-0.2c0-3.7,0-7.4,0-11.1c0-0.1,0-0.2,0-0.2c0-0.3,0.2-0.5,0.5-0.5c0.1,0,0.1,0,0.2,0
							c1.2,0,2.5,0,3.7,0c1,0,1.9,0.4,2.6,1.3c0.3,0.5,0.5,1,0.6,1.6c0.1,0.8,0.1,1.5,0,2.3c-0.3,1.6-1.3,2.5-2.9,2.6
							c-0.7,0.1-1.5,0-2.2,0C174,220.9,173.9,220.9,173.8,220.9z M173.8,218.9c0.7,0,1.4,0,2.1,0c0.7-0.1,1.1-0.4,1.2-1.1
							c0.1-0.6,0.1-1.1,0-1.7c-0.1-0.7-0.5-1-1.2-1.1c-0.7,0-1.4,0-2.1,0c0,0,0,0,0,0C173.8,216.3,173.8,217.6,173.8,218.9z"/>
						<path class="st0" d="M169.6,219.3c0,1.8,0,3.6,0,5.5c0,0.7-0.2,0.8-0.9,0.8c-0.2,0-0.4,0-0.7,0c-0.3,0-0.5-0.2-0.6-0.6
							c0-0.1,0-0.1,0-0.2c0-3.7,0-7.4,0-11.1c0-0.1,0-0.2,0-0.3c0-0.3,0.2-0.5,0.5-0.5c0.3,0,0.7,0,1,0c0.3,0,0.5,0.2,0.5,0.5
							c0,0.1,0,0.2,0,0.3C169.6,215.7,169.6,217.5,169.6,219.3z"/>
						<path class="st0" d="M181,222.8c0-0.8,0-1.6,0-2.5c0-0.3,0.1-0.4,0.4-0.4c0.6,0,1.1,0,1.7,0c0.9,0.1,1.4,0.7,1.4,1.6
							c0,0.8,0,1.6,0,2.4c0,1.1-0.6,1.7-1.7,1.7c-0.5,0-1,0-1.5,0c-0.2,0-0.3-0.1-0.3-0.3C181,224.5,181,223.7,181,222.8z
							 M181.9,224.8c0.3,0,0.6,0,0.9,0c0.3,0,0.6-0.2,0.6-0.6c0-0.1,0-0.2,0-0.3c0-0.7,0-1.4,0-2.1c0-0.1,0-0.2,0-0.4
							c-0.1-0.2-0.2-0.4-0.4-0.5c-0.4-0.1-0.8,0-1.2-0.1C181.9,222.2,181.9,223.5,181.9,224.8z"/>
						<path class="st0" d="M193.9,223.2c-0.6,0-1.1,0-1.7,0c0,0.1,0,0.2,0,0.2c0,0.6,0,1.2,0,1.9c0,0.3-0.1,0.4-0.4,0.4
							c-0.1,0-0.2,0-0.3,0c-0.2,0-0.3-0.1-0.3-0.3c0-1.7,0-3.4,0-5.1c0-0.2,0.1-0.3,0.3-0.3c0.1,0,0.2,0,0.3,0
							c0.2,0,0.3,0.1,0.3,0.3c0,0.6,0,1.2,0,1.8c0,0.1,0,0.1,0,0.2c0.6,0,1.1,0,1.7,0c0-0.2,0-0.4,0-0.6c0-0.4,0-0.8,0-1.2
							c0-0.6,0.1-0.6,0.7-0.6c0.1,0,0.2,0.1,0.2,0.2c0,0.1,0,0.1,0,0.2c0,1.6,0,3.3,0,4.9c0,0.3-0.1,0.4-0.4,0.4
							c-0.5,0-0.5,0-0.5-0.5C193.9,224.5,193.9,223.9,193.9,223.2z"/>
						<path class="st0" d="M189.9,221.8c-0.1,0-0.1,0-0.2,0c-0.2,0-0.3-0.1-0.3-0.3c0-0.5-0.4-0.8-0.9-0.7c-0.3,0-0.5,0.2-0.5,0.4
							c-0.1,0.3-0.1,0.6,0.2,0.8c0.3,0.2,0.6,0.3,0.8,0.4c0.2,0.1,0.4,0.2,0.6,0.3c0.7,0.4,0.9,1.2,0.7,1.8
							c-0.2,0.7-0.7,1.2-1.5,1.2c-0.6,0-1.1-0.1-1.5-0.5c-0.3-0.3-0.4-0.7-0.4-1.2c0-0.2,0.1-0.3,0.3-0.3c0.1,0,0.3,0,0.4,0
							c0.2,0,0.3,0.1,0.3,0.3c0,0.3,0.1,0.5,0.3,0.6c0.3,0.1,0.6,0.1,0.9,0c0.4-0.2,0.4-0.9,0-1.2c-0.2-0.1-0.5-0.2-0.7-0.3
							c-0.2-0.1-0.3-0.1-0.5-0.2c-0.7-0.3-1-0.9-1-1.7c0-0.7,0.4-1.2,1.1-1.4c0.8-0.2,1.6,0,2,0.6c0.2,0.3,0.3,0.6,0.3,1
							c0,0.2-0.1,0.3-0.3,0.3C190,221.8,189.9,221.8,189.9,221.8z"/>
						<path class="st0" d="M199.9,223.9c0.1,0,0.1,0,0.2,0c0.2,0,0.3,0.1,0.3,0.3c0,0.3,0.1,0.5,0.4,0.7c0.3,0.1,0.6,0.1,0.9-0.1
							c0.4-0.3,0.3-0.9-0.1-1.2c-0.3-0.2-0.7-0.3-1-0.5c-0.4-0.2-0.8-0.5-1-0.9c-0.2-0.7-0.2-1.6,0.5-2c0.7-0.5,1.8-0.4,2.3,0.2
							c0.3,0.3,0.4,0.7,0.4,1.2c0,0.2-0.1,0.2-0.3,0.3c-0.1,0-0.2,0-0.4,0c-0.2,0-0.3-0.1-0.3-0.3c0-0.5-0.4-0.8-0.9-0.7
							c-0.3,0-0.5,0.2-0.6,0.5c-0.1,0.3,0,0.6,0.2,0.8c0.3,0.2,0.6,0.3,0.8,0.4c0.3,0.2,0.6,0.3,0.9,0.5c0.5,0.5,0.6,1.1,0.4,1.7
							c-0.2,0.6-0.7,0.9-1.3,1c-0.6,0.1-1.1,0-1.6-0.4c-0.4-0.3-0.5-0.8-0.5-1.3c0-0.2,0.1-0.3,0.3-0.3
							C199.8,223.9,199.8,223.9,199.9,223.9z"/>
						<path class="st0" d="M196.8,224.8c0.1,0,0.1,0,0.2,0c0.6,0,1.1,0,1.7,0c0.1,0,0.1,0,0.2,0c0.2,0.1,0.2,0.2,0.2,0.6
							c0,0.2-0.1,0.3-0.3,0.3c-0.9,0-1.8,0-2.7,0c-0.2,0-0.3-0.1-0.3-0.3c0,0,0-0.1,0-0.1c0-1.6,0-3.3,0-4.9c0-0.3,0.1-0.4,0.4-0.4
							c0.8,0,1.6,0,2.5,0c0.3,0,0.4,0.1,0.4,0.4c0,0.5,0,0.5-0.5,0.5c-0.5,0-1,0-1.6,0c-0.1,0-0.1,0-0.2,0c0,0.5,0,1,0,1.5
							c0.4,0,0.7,0,1.1,0c0.1,0,0.3,0,0.4,0c0.2,0,0.3,0.1,0.3,0.3c0,0.5,0,0.6-0.6,0.6c-0.4,0-0.8,0-1.3,0
							C196.8,223.8,196.8,224.3,196.8,224.8z"/>
						<path class="st0" d="M184.3,214.6c0.5-0.4,1.1-0.4,1.5-0.1c0.4,0.3,0.5,0.7,0.5,1.1c0,0.9,0,1.9,0,2.8c0,0.2-0.1,0.3-0.3,0.3
							c-0.1,0-0.2,0-0.2,0c-0.3,0-0.3-0.1-0.3-0.3c0-0.8,0-1.7,0-2.5c0-0.1,0-0.1,0-0.2c-0.1-0.4-0.2-0.5-0.6-0.5
							c-0.3,0-0.5,0.2-0.5,0.6c0,0.9,0,1.8,0,2.6c0,0.1,0,0.2,0,0.2c-0.1,0.1-0.2,0.1-0.2,0.2c-0.1,0-0.2,0-0.3,0
							c-0.3,0-0.3-0.1-0.3-0.3c0-1.7,0-3.4,0-5.1c0-0.3,0.1-0.4,0.4-0.4c0.5,0,0.5,0,0.5,0.5C184.3,213.8,184.3,214.2,184.3,214.6z"
							/>
						<path class="st0" d="M187.8,216.8c0,0.3,0,0.5,0,0.8c0.1,0.4,0.5,0.6,0.8,0.4c0.1-0.1,0.2-0.2,0.2-0.4c0-0.2,0.1-0.3,0.3-0.3
							c0.1,0,0.1,0,0.2,0c0.3,0,0.4,0.1,0.4,0.4c-0.1,0.6-0.4,0.9-1,1.1c-0.3,0.1-0.6,0.1-0.9,0c-0.5-0.2-0.9-0.6-0.9-1.2
							c0-0.7,0-1.3,0-2c0-0.7,0.6-1.3,1.3-1.2c0.3,0,0.5,0,0.8,0.1c0.5,0.2,0.7,0.6,0.8,1.2c0,0.3,0,0.6,0,0.8
							c0,0.3-0.1,0.3-0.3,0.3c-0.5,0-1,0-1.4,0C187.9,216.8,187.8,216.8,187.8,216.8z M187.7,216.1c0.4,0,0.7,0,1,0c0,0,0.1,0,0.1,0
							c0-0.2,0-0.4-0.1-0.6c0-0.2-0.2-0.4-0.5-0.4c-0.3,0-0.5,0.1-0.5,0.3C187.8,215.7,187.8,215.9,187.7,216.1z"/>
						<path class="st0" d="M181.9,215.3c0,0.2,0,0.4,0,0.6c0,0.5,0,1.1,0,1.6c0,0.3,0.1,0.5,0.5,0.4c0,0,0.1,0,0.1,0
							c0.3,0,0.4,0,0.4,0.4c0,0.4-0.1,0.5-0.5,0.5c-0.1,0-0.2,0-0.4,0c-0.7,0-1-0.4-1.1-1.1c0-0.2,0-0.5,0-0.7c0-1.1,0-2.2,0-3.3
							c0-0.3,0.1-0.4,0.4-0.4c0.5,0,0.5,0,0.5,0.5c0,0.2,0,0.3,0,0.5c0.2,0,0.4,0,0.6,0c0.1,0,0.3,0,0.4,0.2c0,0.2,0,0.4,0,0.6
							c0,0-0.2,0.1-0.2,0.1C182.3,215.3,182.1,215.3,181.9,215.3z"/>
						<path class="st0" d="M185.3,222.8c0-0.8,0-1.7,0-2.5c0-0.3,0.1-0.4,0.4-0.4c0.1,0,0.2,0,0.3,0c0.2,0,0.3,0.1,0.3,0.3
							c0,0.1,0,0.1,0,0.2c0,1.6,0,3.2,0,4.8c0,0.1,0,0.1,0,0.2c0,0.2-0.1,0.3-0.3,0.3c-0.1,0-0.2,0-0.3,0c-0.2,0-0.3-0.1-0.3-0.3
							C185.3,224.5,185.3,223.7,185.3,222.8z"/>
					</g>
				</g>
			</g>
			<g>
				<g>
					<path class="st12" d="M132.2,209.1h-10.1c-2.9,0-5.2,2.3-5.2,5.2v10.1c0,2.9,2.3,5.2,5.2,5.2h10.1c2.9,0,5.2-2.3,5.2-5.2v-10.1
						C137.5,211.4,135.1,209.1,132.2,209.1z"/>
					<g>
						<defs>
							<path id="SVGID_1_" d="M132.2,209.1h-10.1c-2.9,0-5.2,2.3-5.2,5.2v10.1c0,2.9,2.3,5.2,5.2,5.2h10.1c2.9,0,5.2-2.3,5.2-5.2
								v-10.1C137.5,211.4,135.1,209.1,132.2,209.1z"/>
						</defs>
						<clipPath id="SVGID_2_">
							<use xlink:href="#SVGID_1_"  style="overflow:visible;"/>
						</clipPath>
						<g class="st13">
							<path class="st14" d="M117,220.6c0.2,0.1,0.4,0.3,0.6,0.4c2.2,1.4,4.4,2.9,6.5,4.3c0,0,0,0,0.1,0c0,0,0,0,0,0
								c-0.2,0-0.3,0-0.5,0.1c-0.3,0-0.6,0.1-1,0.1c-0.2,0-0.4,0-0.6,0.1c-0.3,0-0.6,0.1-0.9,0.1c-0.2,0-0.4,0-0.6,0.1
								c-0.4,0-0.7,0.1-1.1,0.2c-0.2,0-0.5,0.1-0.7,0.1c-0.3,0-0.7,0.1-1,0.1c-0.3,0-0.5,0.1-0.8,0.1c0-1.8,0-3.7,0-5.5
								C117,220.7,117,220.6,117,220.6z"/>
							<path class="st15" d="M137.5,227.4c0,0.7,0,1.5,0,2.2c-0.3,0-0.5,0-0.8,0c0,0,0,0-0.1-0.1c-0.6-0.2-1.1-0.4-1.7-0.6
								c-0.8-0.3-1.7-0.6-2.5-0.9c-0.8-0.3-1.6-0.6-2.4-0.8c-0.8-0.3-1.6-0.6-2.4-0.8c-0.9-0.3-1.7-0.6-2.6-0.9
								c-0.2-0.1-0.3-0.1-0.5-0.2c0,0,0.1,0,0.1,0c0.3,0,0.5,0.1,0.8,0.1c0.2,0,0.4,0.1,0.6,0.1c0.2,0,0.5,0.1,0.7,0.1
								c0.2,0,0.5,0.1,0.7,0.1c0.3,0,0.5,0.1,0.8,0.1c0.2,0,0.3,0,0.5,0.1c0.2,0,0.5,0.1,0.7,0.1c0.2,0,0.4,0.1,0.7,0.1
								c0.2,0,0.5,0.1,0.7,0.1c0.2,0,0.5,0.1,0.7,0.1c0.3,0,0.5,0.1,0.8,0.1c0.2,0,0.3,0,0.5,0.1c0.2,0,0.5,0.1,0.7,0.1
								c0.2,0,0.3,0,0.5,0.1c0.2,0,0.5,0.1,0.7,0.1c0.2,0,0.3,0,0.5,0.1c0.3,0,0.6,0.1,0.9,0.2c0.2,0,0.5,0.1,0.7,0.1
								C136.8,227.3,137.2,227.4,137.5,227.4z"/>
							<path class="st16" d="M124.5,225.4c0.2,0.1,0.3,0.1,0.5,0.2c0.9,0.3,1.7,0.6,2.6,0.9c0.8,0.3,1.6,0.6,2.4,0.8
								c0.8,0.3,1.6,0.6,2.4,0.8c0.8,0.3,1.7,0.6,2.5,0.9c0.6,0.2,1.1,0.4,1.7,0.6c0,0,0,0,0.1,0.1c-1.9,0-3.9,0-5.8,0
								c-0.1-0.1-0.1-0.1-0.2-0.2c-0.7-0.4-1.3-0.9-2-1.3c-0.6-0.4-1.3-0.8-1.9-1.2C126,226.5,125.2,226,124.5,225.4
								c-0.1,0-0.1,0-0.1,0c0,0-0.1,0-0.1-0.1c0,0,0,0,0,0c0,0,0,0,0,0C124.3,225.4,124.4,225.4,124.5,225.4
								C124.4,225.4,124.5,225.4,124.5,225.4L124.5,225.4z"/>
							<path class="st17" d="M119.7,229.7c-0.9,0-1.8,0-2.7,0c0-0.6,0-1.1,0-1.7c0,0,0,0,0.1,0c0.7-0.3,1.5-0.5,2.2-0.8
								c0.8-0.3,1.5-0.6,2.3-0.8c0.7-0.2,1.4-0.5,2-0.7c0.2-0.1,0.4-0.1,0.6-0.2c0,0.1-0.1,0.1-0.1,0.2c-0.6,0.6-1.3,1.2-1.9,1.8
								C121.4,228.1,120.6,228.8,119.7,229.7C119.8,229.6,119.7,229.6,119.7,229.7z"/>
							<path class="st18" d="M124.3,225.4C124.3,225.4,124.3,225.4,124.3,225.4c0.1,0.1,0.1,0.1,0.2,0.2c0.4,0.5,0.8,0.9,1.2,1.4
								c0.5,0.6,1.1,1.2,1.6,1.9c0.2,0.3,0.5,0.6,0.7,0.9c-1.5,0-3.1,0-4.6,0c0,0,0,0,0-0.1C123.7,228.2,124,226.8,124.3,225.4z"/>
							<path class="st19" d="M124.3,225.4c-0.3,1.4-0.6,2.8-0.9,4.2c0,0,0,0,0,0.1c-1.2,0-2.4,0-3.6,0c0,0,0-0.1,0.1-0.1
								c0.8-0.7,1.6-1.5,2.4-2.2c0.6-0.6,1.3-1.2,1.9-1.8C124.1,225.5,124.2,225.4,124.3,225.4C124.2,225.4,124.2,225.4,124.3,225.4
								C124.2,225.4,124.2,225.4,124.3,225.4C124.2,225.4,124.3,225.4,124.3,225.4z"/>
							<path class="st20" d="M128,229.7c-0.2-0.3-0.5-0.6-0.7-0.9c-0.5-0.6-1.1-1.2-1.6-1.9c-0.4-0.5-0.8-0.9-1.2-1.4
								c0,0-0.1-0.1-0.1-0.1c0,0,0.1,0,0.1,0c0.8,0.5,1.6,1,2.4,1.5c0.6,0.4,1.3,0.8,1.9,1.2c0.7,0.4,1.3,0.9,2,1.3
								c0.1,0,0.1,0.1,0.2,0.2C129.9,229.7,128.9,229.7,128,229.7z"/>
							<path class="st21" d="M124.2,225.4C124.2,225.4,124.2,225.4,124.2,225.4c-0.2,0.1-0.4,0.2-0.6,0.2c-0.7,0.2-1.4,0.5-2,0.7
								c-0.8,0.3-1.5,0.6-2.3,0.8c-0.7,0.3-1.5,0.5-2.2,0.8c0,0,0,0-0.1,0c0-0.6,0-1.1,0-1.7c0.3,0,0.5-0.1,0.8-0.1
								c0.3,0,0.7-0.1,1-0.1c0.2,0,0.5-0.1,0.7-0.1c0.4,0,0.7-0.1,1.1-0.2c0.2,0,0.4,0,0.6-0.1c0.3,0,0.6-0.1,0.9-0.1
								c0.2,0,0.4,0,0.6-0.1c0.3,0,0.6-0.1,1-0.1C123.9,225.4,124,225.4,124.2,225.4C124.2,225.4,124.2,225.3,124.2,225.4
								C124.2,225.3,124.2,225.4,124.2,225.4z"/>
							<path class="st22" d="M124.4,225.4c0,0-0.1,0-0.1-0.1C124.3,225.4,124.4,225.3,124.4,225.4c0.3-0.1,0.5-0.1,0.7-0.2
								c0.1,0,0.2,0,0.4-0.1c0.2,0,0.4-0.1,0.7-0.1c0.1,0,0.3,0,0.4-0.1c0.2,0,0.4-0.1,0.6-0.1c0.1,0,0.3,0,0.4-0.1
								c0.2,0,0.4-0.1,0.7-0.1c0.1,0,0.3,0,0.4-0.1c0.2,0,0.4-0.1,0.6-0.1c0.2,0,0.4-0.1,0.6-0.1c0.2,0,0.5-0.1,0.7-0.1
								c0.1,0,0.3,0,0.4-0.1c0.2,0,0.4-0.1,0.6-0.1c0.2,0,0.4-0.1,0.6-0.1c0.2,0,0.4-0.1,0.7-0.1c0.1,0,0.3,0,0.4-0.1
								c0.2,0,0.4-0.1,0.6-0.1c0.1,0,0.3,0,0.4-0.1c0.2,0,0.4-0.1,0.7-0.1c0.1,0,0.3,0,0.4-0.1c0.2,0,0.4-0.1,0.6-0.1
								c0.2,0,0.4-0.1,0.6-0.1c0.2,0,0.5-0.1,0.7-0.1c0,0.2,0,0.5,0,0.7c0,1.2,0,2.3,0,3.5c0,0.1,0,0.1,0,0.2
								c-0.3-0.1-0.7-0.1-1-0.2c-0.2,0-0.5-0.1-0.7-0.1c-0.3,0-0.6-0.1-0.9-0.2c-0.2,0-0.3,0-0.5-0.1c-0.2,0-0.5-0.1-0.7-0.1
								c-0.2,0-0.3,0-0.5-0.1c-0.2,0-0.5-0.1-0.7-0.1c-0.2,0-0.3,0-0.5-0.1c-0.3,0-0.5-0.1-0.8-0.1c-0.2,0-0.5-0.1-0.7-0.1
								c-0.2,0-0.5-0.1-0.7-0.1c-0.2,0-0.4-0.1-0.7-0.1c-0.2,0-0.5-0.1-0.7-0.1c-0.2,0-0.3,0-0.5-0.1c-0.3,0-0.5-0.1-0.8-0.1
								c-0.2,0-0.5-0.1-0.7-0.1c-0.2,0-0.5-0.1-0.7-0.1c-0.2,0-0.4-0.1-0.6-0.1c-0.3,0-0.5-0.1-0.8-0.1
								C124.5,225.4,124.5,225.4,124.4,225.4L124.4,225.4C124.5,225.4,124.4,225.4,124.4,225.4z"/>
							<path class="st23" d="M137.5,223.1c-0.2,0-0.5,0.1-0.7,0.1c-0.2,0-0.4,0.1-0.6,0.1c-0.2,0-0.4,0.1-0.6,0.1
								c-0.1,0-0.3,0-0.4,0.1c-0.2,0-0.4,0.1-0.7,0.1c-0.1,0-0.3,0-0.4,0.1c-0.2,0-0.4,0.1-0.6,0.1c-0.1,0-0.3,0-0.4,0.1
								c-0.2,0-0.4,0.1-0.7,0.1c-0.2,0-0.4,0.1-0.6,0.1c-0.2,0-0.4,0.1-0.6,0.1c-0.1,0-0.3,0-0.4,0.1c-0.2,0-0.5,0.1-0.7,0.1
								c-0.2,0-0.4,0.1-0.6,0.1c-0.2,0-0.4,0.1-0.6,0.1c-0.1,0-0.3,0-0.4,0.1c-0.2,0-0.4,0.1-0.7,0.1c-0.1,0-0.3,0-0.4,0.1
								c-0.2,0-0.4,0.1-0.6,0.1c-0.1,0-0.3,0-0.4,0.1c-0.2,0-0.4,0.1-0.7,0.1c-0.1,0-0.2,0-0.4,0.1c-0.2,0-0.5,0.1-0.7,0.1
								c0.2-0.1,0.3-0.1,0.5-0.2c0.5-0.1,0.9-0.3,1.4-0.4c0.5-0.2,1.1-0.3,1.6-0.5c0.6-0.2,1.2-0.4,1.8-0.6c0.6-0.2,1.1-0.3,1.7-0.5
								c0.6-0.2,1.1-0.3,1.7-0.5c0.5-0.2,1.1-0.3,1.6-0.5c0.5-0.2,1.1-0.3,1.6-0.5c0.4-0.1,0.8-0.3,1.3-0.4c0,0,0,0,0,0
								C137.5,221.9,137.5,222.5,137.5,223.1z"/>
							<path class="st15" d="M124.4,225.4C124.4,225.4,124.5,225.4,124.4,225.4C124.5,225.4,124.4,225.4,124.4,225.4z"/>
						</g>
					</g>
				</g>
				<g id="z0FNnl.tif_1_">
					<g>
						<path class="st0" d="M126.6,222.1c-0.2-0.1-0.2-0.2-0.1-0.4c0.3-0.7,0.6-1.3,0.9-1.9c0.3-0.7,0.6-1.3,0.9-2
							c0.1-0.2,0.3-0.4,0.5-0.4c0.3,0,0.6,0,0.9,0c0.2,0,0.3,0.1,0.4,0.3c0.1,0.6,0.2,1.2,0.3,1.8c0.1,0.7,0.2,1.4,0.4,2.1
							c0,0,0,0.1,0,0.1c0,0.2,0,0.3-0.2,0.4c-0.2,0-0.5,0-0.7,0c-0.1-0.1-0.1-0.1-0.2-0.2c0-0.1,0-0.1,0-0.2c0-0.2-0.1-0.4-0.1-0.6
							c-0.5,0-1.1,0-1.6,0c0,0-0.1,0-0.1,0.1c-0.1,0.2-0.2,0.5-0.3,0.7c-0.1,0.1-0.1,0.2-0.3,0.3
							C127.1,222.1,126.9,222.1,126.6,222.1z M129.6,220.1c-0.1-0.5-0.1-1-0.2-1.5c0,0,0-0.1-0.1-0.1c0,0-0.1,0-0.1,0.1
							c-0.1,0.2-0.2,0.5-0.3,0.7c-0.1,0.3-0.2,0.5-0.4,0.8C128.8,220.1,129.2,220.1,129.6,220.1z"/>
						<path class="st0" d="M123.2,222.1c-0.2-0.1-0.2-0.2-0.2-0.4c0.1-0.4,0.1-0.8,0.2-1.3c0.1-0.6,0.2-1.1,0.3-1.7
							c0.1-0.3,0.1-0.6,0.2-1c0-0.2,0.1-0.3,0.3-0.3c0.1,0,0.1,0,0.2,0c0.8,0,1.6,0,2.4,0c0.2,0,0.2,0,0.2,0.2
							c0,0.2-0.1,0.4-0.1,0.6c0,0.1-0.1,0.2-0.2,0.2c-0.5,0-1,0-1.4,0c-0.1,0-0.3,0-0.4,0c0,0-0.1,0-0.1,0.1c0,0.2-0.1,0.5-0.1,0.8
							c0.1,0,0.1,0,0.1,0c0.4,0,0.9,0,1.3,0c0,0,0.1,0,0.1,0c0.2,0,0.3,0.1,0.2,0.3c0,0.1,0,0.3-0.1,0.4c0,0.2-0.1,0.2-0.3,0.2
							c-0.5,0-1.1,0-1.6,0c0,0.3-0.1,0.6-0.1,0.9c0.1,0,0.1,0,0.1,0c0.6,0,1.2,0,1.7,0c0.2,0,0.2,0.1,0.2,0.2c0,0.2,0,0.3-0.1,0.5
							c0,0.1-0.1,0.2-0.2,0.3C125,222.1,124.1,222.1,123.2,222.1z"/>
						<path class="st0" d="M134.7,212.4c0,0.1-0.1,0.2-0.1,0.3c0,0.3-0.1,0.4-0.4,0.4c-0.3,0-0.6,0-0.8,0c0,0-0.1,0-0.1,0
							c-0.1,0.5-0.2,0.9-0.2,1.3c-0.1,0.7-0.2,1.4-0.4,2.1c0,0.2-0.1,0.2-0.3,0.2c-0.2,0-0.4,0-0.6,0c-0.2,0-0.2-0.1-0.2-0.2
							c0-0.3,0.1-0.6,0.1-0.8c0.1-0.6,0.2-1.2,0.3-1.7c0-0.3,0.1-0.5,0.1-0.8c-0.2,0-0.4,0-0.7,0c-0.2,0-0.3,0-0.5,0
							c-0.1,0-0.2-0.1-0.1-0.2c0-0.2,0.1-0.5,0.1-0.7c0-0.1,0.1-0.1,0.2-0.1c0.1,0,0.1,0,0.2,0c1,0,2,0,3,0c0.1,0,0.2,0,0.3,0.1
							C134.7,212.2,134.7,212.3,134.7,212.4z"/>
						<path class="st0" d="M131.7,222.1c-0.1-0.1-0.1-0.2-0.1-0.4c0.1-0.5,0.2-1.1,0.3-1.6c0.1-0.5,0.2-1.1,0.3-1.6
							c-0.1,0-0.1,0-0.1,0c-0.3,0-0.6,0-1,0c-0.1,0-0.2,0-0.2-0.2c0-0.2,0.1-0.4,0.1-0.6c0-0.1,0.1-0.1,0.2-0.2c0.1,0,0.1,0,0.2,0
							c1,0,2,0,3,0c0.1,0,0.2,0,0.3,0.1c0,0.1,0,0.2,0,0.3c0,0.1-0.1,0.3-0.1,0.4c0,0.1-0.1,0.2-0.2,0.2c-0.3,0-0.6,0-1,0
							c0,0-0.1,0-0.1,0c0,0.3-0.1,0.5-0.1,0.7c-0.2,0.9-0.3,1.7-0.4,2.6c0,0.1-0.1,0.2-0.2,0.3C132.2,222.1,132,222.1,131.7,222.1z"
							/>
						<path class="st0" d="M123.7,212c0.1,0,0.2,0,0.3,0c0.1,0,0.2,0.1,0.2,0.2c0,0.2,0,0.4-0.1,0.6c-0.1,0.6-0.2,1.2-0.3,1.7
							c0,0.2,0,0.3,0,0.5c0,0.3,0.2,0.5,0.5,0.5c0.2,0,0.3,0,0.5,0c0.3,0,0.4-0.2,0.5-0.4c0.1-0.3,0.1-0.6,0.2-0.9
							c0.1-0.7,0.2-1.4,0.4-2c0-0.2,0.1-0.2,0.3-0.3c0.2,0,0.4,0,0.6,0c0.2,0,0.2,0.1,0.2,0.3c0,0.2-0.1,0.4-0.1,0.6
							c-0.1,0.6-0.2,1.2-0.3,1.9c-0.1,0.4-0.2,0.8-0.4,1.1c-0.3,0.5-0.7,0.7-1.3,0.8c-0.4,0-0.8,0-1.1-0.1c-0.6-0.2-1-0.8-1-1.4
							c0-0.3,0.1-0.6,0.1-0.9c0.1-0.6,0.2-1.3,0.3-1.9c0-0.2,0.1-0.3,0.3-0.3C123.5,212,123.6,212,123.7,212
							C123.7,212,123.7,212,123.7,212z"/>
						<path class="st0" d="M129.3,211.9c0.3,0,0.6,0.1,1,0.1c0.1,0,0.2,0.1,0.2,0.2c0,0.2,0,0.4-0.1,0.6c0,0.1-0.1,0.2-0.3,0.2
							c-0.4,0-0.9,0-1.3,0c-0.1,0-0.2,0-0.3,0.1c-0.2,0.1-0.2,0.4,0,0.5c0.1,0.1,0.3,0.1,0.5,0.2c0.3,0.1,0.5,0.2,0.8,0.3
							c0.5,0.2,0.8,0.6,0.7,1.2c0,0.6-0.3,1-0.8,1.2c-0.3,0.1-0.6,0.2-1,0.2c-0.6,0-1.1,0-1.7-0.1c-0.1,0-0.2-0.1-0.1-0.2
							c0-0.2,0.1-0.4,0.1-0.6c0-0.1,0.1-0.2,0.2-0.2c0.4,0,0.7,0.1,1.1,0.1c0.2,0,0.5,0,0.7-0.1c0.1,0,0.1-0.1,0.2-0.1
							c0.2-0.1,0.2-0.4,0-0.5c-0.2-0.1-0.4-0.1-0.6-0.2c-0.2-0.1-0.5-0.2-0.7-0.3c-1-0.5-0.8-1.7-0.2-2.2c0.4-0.3,0.8-0.4,1.2-0.4
							C129.1,212,129.2,212,129.3,211.9C129.3,212,129.3,212,129.3,211.9z"/>
						<path class="st0" d="M121.4,213c-0.2,0-0.4,0-0.6,0c-0.1,0-0.2,0-0.3,0c-0.2,0-0.2-0.1-0.2-0.3c0-0.2,0.1-0.4,0.1-0.5
							c0-0.1,0.1-0.2,0.2-0.2c0.6,0,1.2,0,1.8,0c0.1,0,0.2,0.1,0.2,0.2c0,0.3-0.1,0.5-0.1,0.8c-0.1,0.6-0.2,1.1-0.3,1.7
							c-0.1,0.5-0.1,1-0.3,1.4c-0.3,0.7-0.9,1.2-1.7,1.4c-0.2,0-0.2,0-0.3-0.2c-0.1-0.1-0.1-0.3-0.2-0.5c-0.1-0.2,0-0.2,0.2-0.3
							c0.1,0,0.2-0.1,0.3-0.1c0.5-0.2,0.7-0.6,0.8-1.1c0.1-0.8,0.3-1.5,0.4-2.3C121.4,213.1,121.4,213,121.4,213z"/>
					</g>
				</g>
			</g>
			<g>
				<path class="st8" d="M59.6,214.9v2h-1v-5.5h2.1c0.3,0,0.6,0,0.9,0.1s0.5,0.2,0.6,0.4c0.2,0.2,0.3,0.3,0.4,0.6
					c0.1,0.2,0.1,0.4,0.1,0.7c0,0.3,0,0.5-0.1,0.7c-0.1,0.2-0.2,0.4-0.4,0.5c-0.2,0.1-0.4,0.3-0.6,0.3s-0.5,0.1-0.9,0.1H59.6z
					 M59.6,214.1h1.1c0.2,0,0.3,0,0.5-0.1c0.1,0,0.2-0.1,0.3-0.2s0.1-0.2,0.2-0.3c0-0.1,0.1-0.2,0.1-0.4c0-0.1,0-0.3-0.1-0.4
					s-0.1-0.2-0.2-0.3s-0.2-0.2-0.3-0.2c-0.1-0.1-0.3-0.1-0.5-0.1h-1.1V214.1z"/>
				<path class="st8" d="M65.6,214.8h-1.1v2.1h-1v-5.5h1.9c0.3,0,0.6,0,0.8,0.1c0.2,0.1,0.5,0.2,0.6,0.3s0.3,0.3,0.4,0.5
					c0.1,0.2,0.1,0.4,0.1,0.7c0,0.4-0.1,0.7-0.3,0.9c-0.2,0.2-0.4,0.4-0.7,0.6l1.2,2.3v0h-1L65.6,214.8z M64.6,214.1h1
					c0.2,0,0.3,0,0.4-0.1c0.1,0,0.2-0.1,0.3-0.2c0.1-0.1,0.1-0.2,0.2-0.3s0.1-0.2,0.1-0.4c0-0.1,0-0.3-0.1-0.4
					c0-0.1-0.1-0.2-0.2-0.3c-0.1-0.1-0.2-0.1-0.3-0.2c-0.1,0-0.3-0.1-0.5-0.1h-1V214.1z"/>
				<path class="st8" d="M71.6,214.5h-2.3v1.7H72v0.8h-3.6v-5.5H72v0.8h-2.6v1.5h2.3V214.5z"/>
				<path class="st8" d="M75.7,215.5c0-0.1,0-0.2,0-0.3c0-0.1-0.1-0.2-0.2-0.2c-0.1-0.1-0.2-0.1-0.4-0.2c-0.2-0.1-0.3-0.1-0.6-0.2
					c-0.3-0.1-0.5-0.2-0.7-0.3s-0.4-0.2-0.6-0.4c-0.2-0.1-0.3-0.3-0.4-0.5c-0.1-0.2-0.1-0.4-0.1-0.6c0-0.2,0-0.4,0.1-0.6
					c0.1-0.2,0.2-0.3,0.4-0.5c0.2-0.1,0.4-0.2,0.6-0.3c0.2-0.1,0.5-0.1,0.8-0.1c0.3,0,0.6,0,0.8,0.1c0.2,0.1,0.5,0.2,0.6,0.4
					c0.2,0.2,0.3,0.3,0.4,0.5c0.1,0.2,0.1,0.4,0.1,0.6h-1c0-0.1,0-0.3-0.1-0.4s-0.1-0.2-0.2-0.3c-0.1-0.1-0.2-0.1-0.3-0.2
					c-0.1,0-0.3-0.1-0.5-0.1c-0.2,0-0.3,0-0.4,0.1c-0.1,0-0.2,0.1-0.3,0.2c-0.1,0.1-0.1,0.1-0.2,0.2c0,0.1-0.1,0.2-0.1,0.3
					c0,0.2,0.1,0.4,0.3,0.5s0.5,0.3,0.9,0.4c0.3,0.1,0.6,0.2,0.8,0.3c0.2,0.1,0.4,0.2,0.6,0.4c0.1,0.1,0.3,0.3,0.3,0.5
					c0.1,0.2,0.1,0.4,0.1,0.6c0,0.2,0,0.4-0.1,0.6s-0.2,0.3-0.4,0.5c-0.2,0.1-0.4,0.2-0.6,0.3c-0.2,0.1-0.5,0.1-0.8,0.1
					c-0.3,0-0.5,0-0.8-0.1c-0.3-0.1-0.5-0.2-0.7-0.3c-0.2-0.1-0.4-0.3-0.5-0.5c-0.1-0.2-0.2-0.5-0.2-0.8h1c0,0.2,0,0.3,0.1,0.4
					c0.1,0.1,0.1,0.2,0.3,0.3s0.2,0.1,0.4,0.2c0.1,0,0.3,0.1,0.5,0.1c0.3,0,0.6-0.1,0.7-0.2S75.7,215.7,75.7,215.5z"/>
				<path class="st8" d="M80.7,214.5h-2.3v1.7h2.6v0.8h-3.6v-5.5H81v0.8h-2.6v1.5h2.3V214.5z"/>
				<path class="st8" d="M86.2,216.9h-1l-2.4-3.9v3.9h-1v-5.5h1l2.5,3.9v-3.9h0.9V216.9z"/>
				<path class="st8" d="M91.2,212.2h-1.7v4.7h-0.9v-4.7h-1.7v-0.8h4.4V212.2z"/>
				<path class="st8" d="M95.1,214.5h-2.3v1.7h2.6v0.8h-3.6v-5.5h3.6v0.8h-2.6v1.5h2.3V214.5z"/>
				<path class="st8" d="M96.3,216.9v-5.5h1.6c0.4,0,0.7,0.1,1,0.2c0.3,0.1,0.6,0.3,0.8,0.5s0.4,0.5,0.5,0.8
					c0.1,0.3,0.2,0.7,0.2,1.1v0.3c0,0.4-0.1,0.8-0.2,1.1c-0.1,0.3-0.3,0.6-0.5,0.8c-0.2,0.2-0.5,0.4-0.8,0.5c-0.3,0.1-0.7,0.2-1,0.2
					H96.3z M97.2,212.2v4h0.6c0.3,0,0.5,0,0.7-0.1s0.4-0.2,0.5-0.4c0.1-0.2,0.2-0.4,0.3-0.6c0.1-0.2,0.1-0.5,0.1-0.8v-0.3
					c0-0.6-0.1-1.1-0.4-1.4c-0.3-0.3-0.6-0.5-1.1-0.5H97.2z"/>
				<path class="st8" d="M103.2,216.9v-5.5h1.9c0.3,0,0.6,0,0.8,0.1c0.2,0.1,0.4,0.1,0.6,0.3c0.2,0.1,0.3,0.3,0.4,0.5
					s0.1,0.4,0.1,0.7c0,0.3-0.1,0.5-0.2,0.7c-0.1,0.2-0.3,0.4-0.6,0.5c0.2,0,0.3,0.1,0.4,0.2c0.1,0.1,0.2,0.2,0.3,0.3
					c0.1,0.1,0.1,0.2,0.2,0.4c0,0.1,0.1,0.3,0.1,0.4c0,0.3,0,0.5-0.1,0.7c-0.1,0.2-0.2,0.4-0.4,0.5c-0.2,0.1-0.4,0.2-0.6,0.3
					c-0.2,0.1-0.5,0.1-0.8,0.1H103.2z M104.2,213.8h0.9c0.3,0,0.5-0.1,0.7-0.2c0.2-0.1,0.3-0.3,0.3-0.6c0-0.3-0.1-0.5-0.2-0.6
					c-0.2-0.1-0.4-0.2-0.7-0.2h-0.9V213.8z M104.2,214.5v1.7h1.1c0.2,0,0.3,0,0.4-0.1s0.2-0.1,0.3-0.2s0.1-0.2,0.2-0.3
					c0-0.1,0.1-0.2,0.1-0.3c0-0.3-0.1-0.5-0.2-0.6c-0.1-0.2-0.4-0.2-0.7-0.2H104.2z"/>
				<path class="st8" d="M109.7,214.1l1.3-2.6h1.1l-1.8,3.5v2h-1v-2l-1.8-3.5h1.1L109.7,214.1z"/>
				<path class="st8" d="M59.6,223.6v2h-1v-5.5h2.1c0.3,0,0.6,0,0.9,0.1s0.5,0.2,0.6,0.4c0.2,0.2,0.3,0.3,0.4,0.6
					c0.1,0.2,0.1,0.4,0.1,0.7c0,0.3,0,0.5-0.1,0.7c-0.1,0.2-0.2,0.4-0.4,0.5c-0.2,0.1-0.4,0.3-0.6,0.3s-0.5,0.1-0.9,0.1H59.6z
					 M59.6,222.8h1.1c0.2,0,0.3,0,0.5-0.1c0.1,0,0.2-0.1,0.3-0.2s0.1-0.2,0.2-0.3c0-0.1,0.1-0.2,0.1-0.4c0-0.1,0-0.3-0.1-0.4
					s-0.1-0.2-0.2-0.3s-0.2-0.2-0.3-0.2c-0.1-0.1-0.3-0.1-0.5-0.1h-1.1V222.8z"/>
				<path class="st8" d="M65.6,223.5h-1.1v2.1h-1v-5.5h1.9c0.3,0,0.6,0,0.8,0.1c0.2,0.1,0.5,0.2,0.6,0.3s0.3,0.3,0.4,0.5
					c0.1,0.2,0.1,0.4,0.1,0.7c0,0.4-0.1,0.7-0.3,0.9c-0.2,0.2-0.4,0.4-0.7,0.6l1.2,2.3v0h-1L65.6,223.5z M64.6,222.8h1
					c0.2,0,0.3,0,0.4-0.1c0.1,0,0.2-0.1,0.3-0.2c0.1-0.1,0.1-0.2,0.2-0.3s0.1-0.2,0.1-0.4c0-0.1,0-0.3-0.1-0.4
					c0-0.1-0.1-0.2-0.2-0.3c-0.1-0.1-0.2-0.1-0.3-0.2c-0.1,0-0.3-0.1-0.5-0.1h-1V222.8z"/>
				<path class="st8" d="M71.6,223.2h-2.3v1.7H72v0.8h-3.6v-5.5H72v0.8h-2.6v1.5h2.3V223.2z M70.5,218.6h1l-1,1.1h-0.7L70.5,218.6z"
					/>
				<path class="st8" d="M75.7,224.2c0-0.1,0-0.2,0-0.3c0-0.1-0.1-0.2-0.2-0.2c-0.1-0.1-0.2-0.1-0.4-0.2c-0.2-0.1-0.3-0.1-0.6-0.2
					c-0.3-0.1-0.5-0.2-0.7-0.3s-0.4-0.2-0.6-0.4c-0.2-0.1-0.3-0.3-0.4-0.5c-0.1-0.2-0.1-0.4-0.1-0.6c0-0.2,0-0.4,0.1-0.6
					c0.1-0.2,0.2-0.3,0.4-0.5c0.2-0.1,0.4-0.2,0.6-0.3c0.2-0.1,0.5-0.1,0.8-0.1c0.3,0,0.6,0,0.8,0.1c0.2,0.1,0.5,0.2,0.6,0.4
					c0.2,0.2,0.3,0.3,0.4,0.5c0.1,0.2,0.1,0.4,0.1,0.6h-1c0-0.1,0-0.3-0.1-0.4s-0.1-0.2-0.2-0.3c-0.1-0.1-0.2-0.1-0.3-0.2
					c-0.1,0-0.3-0.1-0.5-0.1c-0.2,0-0.3,0-0.4,0.1c-0.1,0-0.2,0.1-0.3,0.2c-0.1,0.1-0.1,0.1-0.2,0.2c0,0.1-0.1,0.2-0.1,0.3
					c0,0.2,0.1,0.4,0.3,0.5s0.5,0.3,0.9,0.4c0.3,0.1,0.6,0.2,0.8,0.3c0.2,0.1,0.4,0.2,0.6,0.4c0.1,0.1,0.3,0.3,0.3,0.5
					c0.1,0.2,0.1,0.4,0.1,0.6c0,0.2,0,0.4-0.1,0.6s-0.2,0.3-0.4,0.5c-0.2,0.1-0.4,0.2-0.6,0.3c-0.2,0.1-0.5,0.1-0.8,0.1
					c-0.3,0-0.5,0-0.8-0.1c-0.3-0.1-0.5-0.2-0.7-0.3c-0.2-0.1-0.4-0.3-0.5-0.5c-0.1-0.2-0.2-0.5-0.2-0.8h1c0,0.2,0,0.3,0.1,0.4
					c0.1,0.1,0.1,0.2,0.3,0.3s0.2,0.1,0.4,0.2c0.1,0,0.3,0.1,0.5,0.1c0.3,0,0.6-0.1,0.7-0.2S75.7,224.4,75.7,224.2z"/>
				<path class="st8" d="M80.7,223.2h-2.3v1.7h2.6v0.8h-3.6v-5.5H81v0.8h-2.6v1.5h2.3V223.2z"/>
				<path class="st8" d="M86.2,225.6h-1l-2.4-3.9v3.9h-1v-5.5h1l2.5,3.9v-3.9h0.9V225.6z"/>
				<path class="st8" d="M91.2,220.9h-1.7v4.7h-0.9v-4.7h-1.7v-0.8h4.4V220.9z"/>
				<path class="st8" d="M95.1,223.2h-2.3v1.7h2.6v0.8h-3.6v-5.5h3.6v0.8h-2.6v1.5h2.3V223.2z M94,218.6h1l-1,1.1h-0.7L94,218.6z"/>
				<path class="st8" d="M99.1,223.6v2h-1v-5.5h2.1c0.3,0,0.6,0,0.9,0.1s0.5,0.2,0.6,0.4c0.2,0.2,0.3,0.3,0.4,0.6
					c0.1,0.2,0.1,0.4,0.1,0.7c0,0.3,0,0.5-0.1,0.7c-0.1,0.2-0.2,0.4-0.4,0.5c-0.2,0.1-0.4,0.3-0.6,0.3s-0.5,0.1-0.9,0.1H99.1z
					 M99.1,222.8h1.1c0.2,0,0.3,0,0.5-0.1c0.1,0,0.2-0.1,0.3-0.2s0.1-0.2,0.2-0.3c0-0.1,0.1-0.2,0.1-0.4c0-0.1,0-0.3-0.1-0.4
					s-0.1-0.2-0.2-0.3s-0.2-0.2-0.3-0.2c-0.1-0.1-0.3-0.1-0.5-0.1h-1.1V222.8z"/>
				<path class="st8" d="M105.5,224.4h-2.1l-0.4,1.3h-1l2.1-5.5h0.9l2.1,5.5h-1L105.5,224.4z M103.7,223.6h1.6l-0.8-2.3L103.7,223.6
					z"/>
				<path class="st8" d="M109.6,223.5h-1.1v2.1h-1v-5.5h1.9c0.3,0,0.6,0,0.8,0.1c0.2,0.1,0.5,0.2,0.6,0.3s0.3,0.3,0.4,0.5
					c0.1,0.2,0.1,0.4,0.1,0.7c0,0.4-0.1,0.7-0.3,0.9c-0.2,0.2-0.4,0.4-0.7,0.6l1.2,2.3v0h-1L109.6,223.5z M108.6,222.8h1
					c0.2,0,0.3,0,0.4-0.1c0.1,0,0.2-0.1,0.3-0.2c0.1-0.1,0.1-0.2,0.2-0.3s0.1-0.2,0.1-0.4c0-0.1,0-0.3-0.1-0.4
					c0-0.1-0.1-0.2-0.2-0.3c-0.1-0.1-0.2-0.1-0.3-0.2c-0.1,0-0.3-0.1-0.5-0.1h-1V222.8z"/>
			</g>
		</g>
	</g>
</g>
</svg>
