<?xml version="1.0" encoding="utf-8"?>
<!-- Generator: Adobe Illustrator 21.1.0, SVG Export Plug-In . SVG Version: 6.00 Build 0)  -->
<svg version="1.1" id="Layer_1" xmlns="http://www.w3.org/2000/svg" xmlns:xlink="http://www.w3.org/1999/xlink" x="0px" y="0px"
	 viewBox="0 0 1128 232.1" style="enable-background:new 0 0 1128 232.1;" xml:space="preserve">
<style type="text/css">
	.st0{fill:#513939;}
	.st1{fill:#FFFFFF;}
	.st2{fill:#AB7029;}
	.st3{fill:#9C6226;}
	.st4{fill:#B32029;}
	.st5{fill:#FAA21E;}
	.st6{fill:#A9AE38;}
	.st7{fill:#6D1D0E;stroke:#FFFFFF;stroke-width:6.3219;stroke-linecap:round;stroke-linejoin:round;stroke-miterlimit:10;}
	.st8{fill:#6D1D0E;stroke:#FFFFFF;stroke-width:5.4016;stroke-linecap:round;stroke-linejoin:round;stroke-miterlimit:10;}
	.st9{fill:#411F1F;}
</style>
<title>loog-full</title>
<g id="Layer_2">
	<g id="Layer_8">
		<g id="text">
			<g id="Layer_8_1_">
				<g>
					<path class="st0" d="M329.8,144h34.3v15.1h-54V77.4h19.7V144L329.8,144z"/>
					<path class="st0" d="M400.9,160.2c-4.9,0-9.3-0.8-13.3-2.3c-3.9-1.6-7.2-3.7-9.8-6.4c-2.6-2.7-4.7-5.8-6.1-9.4
						c-1.4-3.6-2.1-7.4-2.1-11.3v-2.1c0-4.5,0.6-8.5,1.8-12.4c1.3-3.9,3-7.2,5.5-10c2.4-2.8,5.5-5,9.1-6.6c3.7-1.6,7.9-2.4,12.8-2.4
						c4.3,0,8.1,0.7,11.5,2c3.4,1.4,6.3,3.4,8.7,5.9c2.3,2.6,4.2,5.7,5.4,9.4c1.3,3.7,1.8,7.8,1.8,12.3v7.7h-37.6
						c0.7,3.4,2.1,6.1,4.5,8c2.3,1.9,5.2,2.9,8.8,2.9c2.6,0,5.1-0.5,7.6-1.5s4.7-2.6,6.4-4.8l8.6,10.2c-1,1.4-2.2,2.6-3.7,4
						c-1.6,1.3-3.3,2.4-5.3,3.4s-4.3,1.8-6.8,2.4C406.5,159.9,403.8,160.2,400.9,160.2z M398.8,111.9c-1.6,0-3,0.3-4.2,0.9
						s-2.1,1.4-2.9,2.3c-0.8,1-1.4,2.1-1.8,3.5c-0.5,1.4-0.8,2.8-1,4.4H408v-1.5c0.1-3-0.7-5.3-2.3-7.1
						C404,112.7,401.7,111.9,398.8,111.9z"/>
					<path class="st0" d="M463.5,159.1V77.4h29.4c5,0,9.6,0.5,13.6,1.4s7.4,2.3,10.1,4.2c2.8,1.8,4.8,4.3,6.3,7.1
						c1.5,2.8,2.2,6.1,2.2,10c0,1.8-0.2,3.7-0.6,5.4c-0.4,1.7-1.1,3.4-2,4.9c-0.9,1.6-2.1,2.9-3.6,4.2c-1.5,1.3-3.2,2.2-5.3,3
						c2.4,0.7,4.5,1.6,6.2,2.7c1.6,1.2,3,2.6,4.1,4.2s1.8,3.3,2.2,5c0.5,1.8,0.7,3.7,0.7,5.5c0,8-2.6,14.2-7.8,18.1
						c-5.1,4-12.8,6-23,6H463.5z M483.2,111.5h10.3c4.3,0,7.4-0.8,9.2-2.3s2.7-3.8,2.7-6.8c0-3.4-1-5.9-3-7.5s-5.1-2.2-9.6-2.2h-9.7
						L483.2,111.5L483.2,111.5z M483.2,124.4V144h12.9c1.9,0,3.7-0.3,5-0.8c1.4-0.5,2.5-1.2,3.4-2c0.9-0.9,1.6-1.8,1.9-2.9
						c0.4-1.2,0.6-2.3,0.6-3.7c0-1.6-0.2-3-0.6-4.3s-1-2.3-1.8-3.2c-0.8-0.9-1.8-1.6-3.2-2c-1.4-0.5-2.9-0.8-4.7-0.8L483.2,124.4
						L483.2,124.4L483.2,124.4z"/>
					<path class="st0" d="M572.9,152.5c-1.9,2.4-4.2,4.4-6.9,5.6c-2.7,1.3-5.8,2-9.3,2c-3,0-5.7-0.4-8.2-1.3c-2.5-0.9-4.7-2.1-6.4-4
						c-1.7-1.9-3.2-4.2-4.2-7c-1-2.9-1.5-6.3-1.5-10.3V98.4h18.9v39.4c0,2.7,0.7,4.7,1.9,5.9c1.3,1.3,3.2,1.9,5.6,1.9
						c2.3,0,4.3-0.4,5.7-1.3c1.5-0.8,2.6-1.9,3.5-3.4V98.4h19v60.7h-17.7L572.9,152.5z"/>
					<path class="st0" d="M638.3,115.5c-0.4,0-0.9-0.1-1.4-0.1c-0.6-0.1-1.1-0.1-1.6-0.1c-0.6,0-1.2-0.1-1.7-0.1
						c-0.6,0-1.1-0.1-1.5-0.1c-3,0-5.5,0.5-7.4,1.4c-1.8,0.9-3.2,2.3-4.1,4.3v38.4h-18.9V98.4h17.6l0.6,7.8c1.5-2.8,3.4-5,5.6-6.6
						c2.2-1.6,4.7-2.3,7.8-2.3c1,0,1.8,0.1,2.8,0.2c0.9,0.1,1.7,0.3,2.5,0.5L638.3,115.5z"/>
					<path class="st0" d="M641.8,128.3c0-4.6,0.6-8.8,1.7-12.6c1.2-3.8,2.8-7.1,4.9-9.8c2.1-2.7,4.7-4.8,7.9-6.3
						c3.1-1.5,6.6-2.2,10.4-2.2c3.4,0,6.3,0.6,8.7,1.6c2.3,1.2,4.4,2.7,6.1,4.7l0.7-5.2h17.2v58.4c0,4.3-0.8,7.9-2.2,11.2
						c-1.5,3.3-3.6,6-6.3,8.2c-2.7,2.2-6,3.9-9.8,5c-3.8,1.2-7.9,1.7-12.6,1.7c-2,0-4.1-0.2-6.3-0.6c-2.1-0.4-4.2-1-6.2-1.7
						c-1.9-0.8-3.9-1.7-5.6-2.8c-1.7-1.2-3.2-2.4-4.5-4l7.9-11.1c1.5,1.7,3.4,3.2,5.7,4.5c2.3,1.2,5,1.8,8.1,1.8
						c4.1,0,7.3-1.1,9.4-3.2c2.1-2.1,3.2-5.2,3.2-9.2v-2.4c-1.7,1.9-3.7,3.4-5.9,4.5c-2.2,1.1-4.8,1.6-7.8,1.6
						c-3.9,0-7.3-0.8-10.4-2.3c-3.1-1.6-5.6-3.7-7.8-6.4c-2.2-2.7-3.8-6-4.9-9.7c-1.2-3.8-1.7-7.9-1.7-12.2L641.8,128.3L641.8,128.3
						z M660.8,129.5c0,2.3,0.2,4.4,0.7,6.4c0.4,1.9,1.1,3.7,1.9,5.1c0.9,1.5,2,2.6,3.3,3.4c1.4,0.8,2.9,1.3,4.7,1.3
						c2.1,0,4-0.4,5.4-1.1c1.5-0.7,2.6-1.7,3.5-3v-25.5c-0.9-1.4-2-2.3-3.5-3.1c-1.5-0.7-3.2-1.1-5.3-1.1c-1.7,0-3.3,0.4-4.7,1.3
						c-1.4,0.8-2.4,1.9-3.4,3.5c-0.9,1.5-1.6,3.2-2,5.2c-0.5,2-0.7,4.2-0.7,6.5L660.8,129.5L660.8,129.5z"/>
					<path class="st0" d="M739.4,160.2c-4.9,0-9.3-0.8-13.3-2.3c-3.9-1.6-7.2-3.7-9.8-6.4s-4.7-5.8-6.1-9.4
						c-1.4-3.6-2.1-7.4-2.1-11.3v-2.1c0-4.5,0.6-8.5,1.8-12.4c1.3-3.9,3-7.2,5.5-10c2.4-2.8,5.5-5,9.1-6.6c3.7-1.6,7.9-2.4,12.8-2.4
						c4.3,0,8.1,0.7,11.5,2c3.4,1.4,6.3,3.4,8.7,5.9c2.3,2.6,4.2,5.7,5.4,9.4c1.3,3.7,1.8,7.8,1.8,12.3v7.7h-37.6
						c0.7,3.4,2.1,6.1,4.5,8c2.3,1.9,5.2,2.9,8.8,2.9c2.6,0,5.1-0.5,7.6-1.5s4.7-2.6,6.4-4.8l8.6,10.2c-1,1.4-2.2,2.6-3.7,4
						c-1.6,1.3-3.3,2.4-5.3,3.4s-4.3,1.8-6.8,2.4C745,159.9,742.4,160.2,739.4,160.2z M737.3,111.9c-1.6,0-3,0.3-4.2,0.9
						c-1.2,0.6-2.1,1.4-2.9,2.3c-0.8,1-1.4,2.1-1.8,3.5c-0.5,1.4-0.8,2.8-1,4.4h19.1v-1.5c0.1-3-0.7-5.3-2.3-7.1
						C742.6,112.7,740.3,111.9,737.3,111.9z"/>
					<path class="st0" d="M809.3,115.5c-0.4,0-0.9-0.1-1.4-0.1c-0.6-0.1-1.1-0.1-1.6-0.1s-1.2-0.1-1.7-0.1c-0.6,0-1.1-0.1-1.5-0.1
						c-3,0-5.5,0.5-7.4,1.4c-1.8,0.9-3.2,2.3-4.1,4.3v38.4h-18.9V98.4h17.7l0.6,7.8c1.5-2.8,3.4-5,5.6-6.6s4.7-2.3,7.8-2.3
						c1,0,1.8,0.1,2.8,0.2c0.9,0.1,1.7,0.3,2.5,0.5L809.3,115.5z"/>
					<path class="st0" d="M908.9,128.7l9.4-51.2h19.5l-17.4,81.7h-20.5l-11-46.5l-10.8,46.5h-20.4l-17.1-81.7h19.6l9.4,51.2
						l11.2-51.2h16.7L908.9,128.7z"/>
					<path class="st0" d="M972.2,160.2c-4.9,0-9.3-0.8-13.3-2.3c-3.9-1.6-7.2-3.7-9.8-6.4s-4.7-5.8-6.1-9.4
						c-1.4-3.6-2.1-7.4-2.1-11.3v-2.1c0-4.5,0.6-8.5,1.8-12.4c1.3-3.9,3-7.2,5.5-10c2.4-2.8,5.5-5,9.1-6.6c3.7-1.6,7.9-2.4,12.8-2.4
						c4.3,0,8.1,0.7,11.5,2c3.4,1.4,6.3,3.4,8.7,5.9c2.3,2.6,4.2,5.7,5.4,9.4c1.3,3.7,1.8,7.8,1.8,12.3v7.7h-37.6
						c0.7,3.4,2.1,6.1,4.5,8c2.3,1.9,5.2,2.9,8.8,2.9c2.6,0,5.1-0.5,7.6-1.5s4.7-2.6,6.4-4.8l8.6,10.2c-1,1.4-2.2,2.6-3.7,4
						c-1.6,1.3-3.3,2.4-5.3,3.4s-4.3,1.8-6.8,2.4C977.9,159.9,975.1,160.2,972.2,160.2z M970.1,111.9c-1.6,0-3,0.3-4.2,0.9
						c-1.2,0.6-2.1,1.4-2.9,2.3c-0.8,1-1.4,2.1-1.8,3.5c-0.5,1.4-0.8,2.8-1,4.4h19.1v-1.5c0.1-3-0.7-5.3-2.3-7.1
						C975.3,112.7,973.1,111.9,970.1,111.9z"/>
					<path class="st0" d="M1034.8,160.2c-4.9,0-9.3-0.8-13.3-2.3c-3.9-1.6-7.2-3.7-9.8-6.4s-4.7-5.8-6.1-9.4
						c-1.4-3.6-2.1-7.4-2.1-11.3v-2.1c0-4.5,0.6-8.5,1.8-12.4c1.3-3.9,3-7.2,5.5-10c2.4-2.8,5.5-5,9.1-6.6c3.7-1.6,7.9-2.4,12.8-2.4
						c4.3,0,8.1,0.7,11.5,2c3.4,1.4,6.3,3.4,8.7,5.9c2.3,2.6,4.2,5.7,5.4,9.4c1.3,3.7,1.8,7.8,1.8,12.3v7.7h-37.5
						c0.7,3.4,2.1,6.1,4.5,8c2.3,1.9,5.2,2.9,8.8,2.9c2.6,0,5.1-0.5,7.6-1.5s4.7-2.6,6.4-4.8l8.6,10.2c-1,1.4-2.2,2.6-3.7,4
						c-1.6,1.3-3.3,2.4-5.3,3.4s-4.3,1.8-6.8,2.4C1040.4,159.9,1037.7,160.2,1034.8,160.2z M1032.6,111.9c-1.6,0-3,0.3-4.2,0.9
						c-1.2,0.6-2.1,1.4-2.9,2.3c-0.8,1-1.4,2.1-1.8,3.5c-0.5,1.4-0.8,2.8-1,4.4h19.1v-1.5c0.1-3-0.7-5.3-2.3-7.1
						C1038,112.7,1035.6,111.9,1032.6,111.9z"/>
					<path class="st0" d="M1092.3,136.5l-5.3,5.3v17.3h-18.9V72.9h18.9v45.8l1.9-2.5l14.2-17.7h22.7l-21.2,25l22.7,35.8h-21.6
						L1092.3,136.5z"/>
				</g>
			</g>
		</g>
	</g>
</g>
<g>
	<path class="st1" d="M287.9,130.6c8.5,0,15-6.5,15-15.1c0-8.7-6.3-15.2-14.7-15.2c-2.3,0-4.4,0.4-6.4,1.1c-1.2-0.7-2.6-1.1-4.1-1.1
		h-3.6c0-1.5-0.2-2.8-0.5-3.9c0.3-0.9,0.5-1.8,0.5-2.8v-5.8c0-0.6-0.1-1.1-0.2-1.7c0.1-0.5,0.2-1.1,0.2-1.6v-5.1
		c0-20.3-11.2-40.2-30.8-54.8C221.8,8.5,191.8,0,156.8,0C79.6,0,38,40.9,38,79.4v1.1c-11.3,6.7-18,16.4-18.1,26.6
		c-9.3,1.7-18.2,8.9-18.2,18.2c0,4.6,2,8.2,5.4,10.2L5.2,144c-0.5,2.5,0.2,5.2,1.9,7.1c1.7,1.9,4.2,2.8,6.7,2.5h0.1
		c1,0,3.5,2,5.1,3.2c1.8,1.4,3.8,3,6.1,4.2c-0.8,1.3-1.3,2.9-1.2,4.6l0.2,3.4c-0.6,1.2-0.9,2.5-0.8,3.9l0.3,5.9
		c0.1,2.1,1.1,4.1,2.6,5.5c1.6,1.4,3.6,2.1,5.7,2l3.8-0.2c0.2,0,0.4,0,0.5,0c0.6,0,0.8,0,1.7,0.5v0.9c0,42,36.8,42,69.3,42h97.6
		c32.5,0,69.3,0,69.3-42v-5.1c0-1.5-0.4-2.9-1.2-4.2c2.5-1.3,4.5-2.7,6-3.8c2.1-1.5,2.1-1.5,3.4-1.6l3.8-0.2
		c2.1-0.1,4.1-1.1,5.5-2.6c1.4-1.6,2.1-3.6,2-5.7l-0.3-5.9c-0.1-1.4-0.5-2.7-1.2-3.8l-0.2-3.4c-0.1-2.1-1.1-4.1-2.6-5.5
		c-1.6-1.4-3.6-2.2-5.7-2l-2.8,0.2c-0.9,0-1.8,0.1-2.6,0.2l3.2-15.1C283.7,130.3,286.1,130.6,287.9,130.6z"/>
	<path class="st2" d="M266.2,79.4c0-33.9-37-71.4-109.4-71.4C84.4,8,46,45.6,46,79.4v5.1h220.2V79.4z"/>
	<g>
		<path class="st3" d="M133,17.9h-7.1c-0.4,0-0.7,0.2-0.8,0.5c-0.1,0.2-0.3,0.8-0.3,1.5c0,0.8,0.2,1.3,0.3,1.5
			c0.1,0.3,0.5,0.5,0.8,0.5h7.1c0.4,0,0.7-0.2,0.8-0.6c0.1-0.2,0.3-0.8,0.3-1.5c0-0.8-0.2-1.3-0.3-1.5
			C133.7,18.2,133.4,17.9,133,17.9z"/>
		<path class="st3" d="M159.8,17.9h-7.2c-0.4,0-0.7,0.2-0.8,0.5c-0.1,0.2-0.3,0.7-0.3,1.5c0,0.8,0.2,1.3,0.3,1.5
			c0.1,0.3,0.5,0.5,0.8,0.5h7.2c0.4,0,0.7-0.2,0.8-0.6c0.1-0.2,0.3-0.8,0.3-1.5c0-0.8-0.2-1.3-0.3-1.5
			C160.5,18.2,160.1,17.9,159.8,17.9z"/>
		<path class="st3" d="M186.5,17.9h-7.1c-0.4,0-0.7,0.2-0.8,0.5c-0.1,0.2-0.3,0.8-0.3,1.5c0,0.8,0.2,1.3,0.3,1.5
			c0.1,0.3,0.5,0.5,0.8,0.5h7.1c0.4,0,0.7-0.2,0.8-0.6c0.1-0.2,0.3-0.8,0.3-1.5c0-0.7-0.2-1.3-0.3-1.5
			C187.2,18.2,186.9,17.9,186.5,17.9z"/>
		<path class="st3" d="M119.6,33.9h-7.2c-0.4,0-0.7,0.2-0.8,0.6c-0.1,0.2-0.3,0.8-0.3,1.5c0,0.8,0.2,1.3,0.3,1.5
			c0.1,0.3,0.5,0.5,0.8,0.5h7.2c0.4,0,0.7-0.2,0.8-0.5c0.1-0.2,0.3-0.8,0.3-1.5c0-0.8-0.2-1.3-0.3-1.5
			C120.3,34.1,119.9,33.9,119.6,33.9z"/>
		<path class="st3" d="M146.3,33.9h-7.2c-0.4,0-0.7,0.2-0.8,0.6c-0.1,0.2-0.3,0.8-0.3,1.5c0,0.7,0.2,1.3,0.3,1.5
			c0.1,0.3,0.5,0.5,0.8,0.5h7.2c0.4,0,0.7-0.2,0.8-0.5c0.1-0.2,0.3-0.8,0.3-1.5c0-0.8-0.2-1.3-0.3-1.5
			C147,34.1,146.7,33.9,146.3,33.9z"/>
		<path class="st3" d="M92.9,33.9h-7.1c-0.4,0-0.7,0.2-0.8,0.6c-0.1,0.2-0.3,0.8-0.3,1.5c0,0.8,0.2,1.3,0.3,1.5
			c0.1,0.3,0.5,0.5,0.8,0.5h7.1c0.4,0,0.7-0.2,0.8-0.5c0.1-0.2,0.3-0.8,0.3-1.5c0-0.8-0.2-1.3-0.3-1.5
			C93.6,34.1,93.3,33.9,92.9,33.9z"/>
		<path class="st3" d="M173.1,33.9H166c-0.4,0-0.7,0.2-0.8,0.6c-0.1,0.2-0.3,0.8-0.3,1.5c0,0.8,0.2,1.3,0.3,1.5
			c0.1,0.3,0.5,0.5,0.8,0.5h7.2c0.4,0,0.7-0.2,0.8-0.5c0.1-0.2,0.3-0.8,0.3-1.5c0-0.8-0.2-1.3-0.3-1.5
			C173.8,34.1,173.5,33.9,173.1,33.9z"/>
		<path class="st3" d="M199.9,33.9h-7.2c-0.4,0-0.7,0.2-0.8,0.6c-0.1,0.2-0.3,0.8-0.3,1.5c0,0.7,0.2,1.3,0.3,1.5
			c0.1,0.3,0.5,0.6,0.8,0.6h7.2c0.4,0,0.7-0.2,0.8-0.5c0.1-0.2,0.3-0.8,0.3-1.5c0-0.8-0.2-1.3-0.3-1.5
			C200.6,34.1,200.2,33.9,199.9,33.9z"/>
		<path class="st3" d="M226.6,33.9h-7.2c-0.4,0-0.7,0.2-0.8,0.6c-0.1,0.2-0.3,0.8-0.3,1.5c0,0.8,0.2,1.3,0.3,1.5
			c0.1,0.3,0.5,0.5,0.8,0.5h7.1c0.4,0,0.7-0.2,0.8-0.6c0.1-0.2,0.3-0.8,0.3-1.5c0-0.7-0.2-1.3-0.3-1.5
			C227.3,34.1,227,33.9,226.6,33.9z"/>
		<path class="st3" d="M133,50.6h-7.1c-0.4,0-0.7,0.2-0.8,0.5c-0.1,0.2-0.3,0.7-0.3,1.5c0,0.8,0.2,1.3,0.3,1.5
			c0.1,0.3,0.5,0.5,0.8,0.5h7.1c0.4,0,0.7-0.2,0.8-0.6c0.1-0.2,0.3-0.8,0.3-1.5c0-0.8-0.2-1.3-0.3-1.5
			C133.7,50.8,133.4,50.6,133,50.6z"/>
		<path class="st3" d="M159.8,50.6h-7.2c-0.4,0-0.7,0.2-0.8,0.5c-0.1,0.2-0.3,0.7-0.3,1.5c0,0.8,0.2,1.3,0.3,1.5
			c0.1,0.3,0.5,0.5,0.8,0.5h7.2c0.4,0,0.7-0.2,0.8-0.6c0.1-0.2,0.3-0.8,0.3-1.5c0-0.8-0.2-1.3-0.3-1.5
			C160.5,50.8,160.1,50.6,159.8,50.6z"/>
		<path class="st3" d="M186.5,50.6h-7.1c-0.4,0-0.7,0.2-0.8,0.5c-0.1,0.2-0.3,0.8-0.3,1.5c0,0.8,0.2,1.3,0.3,1.5
			c0.1,0.3,0.5,0.5,0.8,0.5h7.1c0.4,0,0.7-0.2,0.8-0.6c0.1-0.2,0.3-0.8,0.3-1.5c0-0.7-0.2-1.3-0.3-1.5
			C187.2,50.8,186.9,50.6,186.5,50.6z"/>
		<path class="st3" d="M146.3,66.5h-7.2c-0.4,0-0.7,0.2-0.8,0.5c-0.1,0.2-0.3,0.8-0.3,1.5c0,0.7,0.2,1.3,0.3,1.5
			c0.1,0.3,0.5,0.5,0.8,0.5h7.2c0.4,0,0.7-0.2,0.8-0.5c0.1-0.2,0.3-0.8,0.3-1.5c0-0.8-0.2-1.3-0.3-1.5
			C147,66.7,146.7,66.5,146.3,66.5z"/>
		<path class="st3" d="M173.1,66.5H166c-0.4,0-0.7,0.2-0.8,0.5c-0.1,0.2-0.3,0.8-0.3,1.5c0,0.8,0.2,1.3,0.3,1.5
			c0.1,0.3,0.5,0.5,0.8,0.5h7.2c0.4,0,0.7-0.2,0.8-0.5c0.1-0.2,0.3-0.8,0.3-1.5c0-0.8-0.2-1.3-0.3-1.5
			C173.8,66.7,173.5,66.5,173.1,66.5z"/>
		<path class="st3" d="M213.1,50.6h-6.9c-0.4,0-0.7,0.2-0.8,0.6c-0.1,0.2-0.3,0.8-0.3,1.5c0,0.7,0.2,1.3,0.3,1.5
			c0.1,0.3,0.5,0.6,0.8,0.6h6.9c0.4,0,0.7-0.2,0.8-0.6c0.1-0.2,0.3-0.8,0.3-1.5c0-0.7-0.2-1.3-0.3-1.5
			C213.8,50.8,213.5,50.6,213.1,50.6z"/>
		<path class="st3" d="M240.7,51.1c-0.1-0.3-0.5-0.6-0.8-0.6h-7.2c-0.4,0-0.7,0.2-0.8,0.6c-0.1,0.2-0.3,0.8-0.3,1.5
			c0,0.7,0.2,1.3,0.3,1.5c0.1,0.3,0.5,0.6,0.8,0.6h7.2c0.4,0,0.7-0.2,0.8-0.6c0.1-0.2,0.3-0.8,0.3-1.5
			C240.9,51.9,240.8,51.4,240.7,51.1z"/>
		<path class="st3" d="M226.6,66.5h-7.4c-0.4,0-0.7,0.2-0.8,0.6c-0.1,0.2-0.3,0.8-0.3,1.5c0,0.7,0.2,1.3,0.3,1.5
			c0.1,0.3,0.5,0.6,0.8,0.6h7.4c0.4,0,0.7-0.2,0.8-0.6c0.1-0.2,0.3-0.8,0.3-1.5c0-0.7-0.2-1.3-0.3-1.5
			C227.3,66.7,227,66.5,226.6,66.5z"/>
		<path class="st3" d="M199.8,66.5h-7c-0.4,0-0.7,0.2-0.8,0.6c-0.1,0.2-0.3,0.8-0.3,1.5c0,0.7,0.2,1.3,0.3,1.5
			c0.1,0.3,0.5,0.6,0.8,0.6h7c0.4,0,0.7-0.2,0.8-0.6c0.1-0.2,0.3-0.8,0.3-1.5c0-0.7-0.2-1.3-0.3-1.5
			C200.5,66.7,200.1,66.5,199.8,66.5z"/>
		<path class="st3" d="M79.5,50.6h-7.2c-0.4,0-0.7,0.2-0.8,0.6c-0.1,0.2-0.3,0.8-0.3,1.5c0,0.8,0.2,1.3,0.3,1.5
			c0.1,0.3,0.5,0.6,0.8,0.6h7.2c0.4,0,0.7-0.2,0.8-0.6c0.1-0.2,0.3-0.8,0.3-1.5c0-0.8-0.2-1.3-0.3-1.5
			C80.2,50.8,79.8,50.6,79.5,50.6z"/>
		<path class="st3" d="M106.2,50.6h-7.1c-0.4,0-0.7,0.2-0.8,0.6c-0.1,0.2-0.3,0.8-0.3,1.5c0,0.8,0.2,1.3,0.3,1.5
			c0.1,0.3,0.5,0.5,0.8,0.5h7.1c0.4,0,0.7-0.2,0.8-0.6c0.1-0.2,0.3-0.8,0.3-1.5c0-0.8-0.2-1.3-0.3-1.5
			C106.9,50.8,106.6,50.6,106.2,50.6z"/>
		<path class="st3" d="M92.8,66.5h-7c-0.4,0-0.7,0.2-0.8,0.5c-0.1,0.2-0.3,0.8-0.3,1.5c0,0.8,0.2,1.3,0.3,1.5
			c0.1,0.3,0.5,0.5,0.8,0.5h7c0.4,0,0.7-0.2,0.8-0.5c0.1-0.2,0.3-0.8,0.3-1.5c0-0.8-0.2-1.3-0.3-1.5C93.5,66.7,93.2,66.5,92.8,66.5z
			"/>
		<path class="st3" d="M120.1,66.7c-0.1-0.1-0.3-0.2-0.5-0.2h-7.1c-0.4,0-0.7,0.2-0.8,0.5c-0.1,0.2-0.3,0.8-0.3,1.5
			c0,0.8,0.2,1.3,0.3,1.5c0.1,0.3,0.5,0.5,0.8,0.5h7.1h0c0.4,0,0.7-0.2,0.8-0.5c0.1-0.2,0.3-0.8,0.3-1.5c0-0.8-0.2-1.3-0.3-1.5
			C120.3,66.9,120.2,66.8,120.1,66.7z"/>
	</g>
	<path class="st4" d="M266.2,108.1c0,2.1,0,3.8-2.1,3.8H48.1c-2.1,0-2.1-1.7-2.1-3.8v-7.4c0-2.1,0-3.8,2.1-3.8H264
		c2.1,0,2.1,1.7,2.1,3.8V108.1z"/>
	<rect x="46" y="87.8" class="st5" width="220.2" height="5.8"/>
	<polygon class="st5" points="188.5,89.8 156.7,108.9 123.7,89.8 	"/>
	<path class="st2" d="M46,182.4v5.1c0,33.9,27.4,34,61.3,34h97.6c33.9,0,61.3-0.2,61.3-34v-5.1H46z"/>
	<g>
		<path class="st6" d="M56.9,188.7c0,5.3,0.4,9,7.8,5.3c7.4-3.7,16.4-8.6,35.2-8.2c-7,2-15.1,5.7-16,10.6c-0.8,4.9,4.1,7,14.7,4.5
			c1.2,4.5,5.7,9.4,15.1,1.2c9.4-8.2,14.7-11.5,19.2-13.1c4.5-1.6,5.7,0.8,0.8,3.7c-4.9,2.9-9.4,4.5-10.2,7.8
			c-0.8,3.3,0,8.6,8.2,6.1c0,5.7,1.6,10.6,8.6,10.6c7,0,9.8-3.7,9.8-10.6c4.5,2.5,11.1,4.1,11.5-4.9c0.4-9,4.5-13.1,8.6-15.1
			c4.1-2,4.8,1.8,2,2.9c-3.7,1.5-5.3,4.1-5.3,7c-0.1,3.7,6.2,9.1,12.7,2.5c0.5,3.9,7.8,6.5,10.2-1.6c2.5-8.2,3.1-13.3,10.6-13.5
			c-5.1,1.9-8.2,9.4-1.6,11.9c6.5,2.5,9.8-3.7,10.6-5.7c0.8-2,2.9-6.5,9-6.1c-5.3,2.4-5.3,10.6,0,11.1c5.3,0.4,7.4-1.2,11.5-4.9
			c4.1-3.7,12.3-7.8,22.5-6.1c-2,5.3,1.7,7.5,5,6.8c4-0.8,3.7-5.2,4.9-8.2H52.6v0.1C49.3,184.6,47.1,193.2,56.9,188.7z"/>
	</g>
	<path class="st4" d="M35,170.3c4-0.2,5.7,0.8,8.5,2.4c3.5,2,8.2,4.7,16.6,4.2c8.4-0.5,12.8-3.7,16-6c2.7-1.9,4.3-3.1,8.2-3.3
		c4-0.2,5.7,0.8,8.5,2.4c3.5,2,8.2,4.7,16.6,4.2c8.4-0.5,12.8-3.7,16-6c2.7-1.9,4.3-3.1,8.2-3.3c4-0.2,5.7,0.8,8.5,2.4
		c3.5,2,8.2,4.7,16.6,4.2c8.4-0.5,12.8-3.7,16-6c2.7-1.9,4.3-3.1,8.2-3.3c4-0.2,5.7,0.8,8.5,2.4c3.5,2,8.2,4.7,16.6,4.2
		c8.4-0.5,12.8-3.7,16-6c2.7-1.9,4.3-3.1,8.2-3.3c4-0.2,5.7,0.8,8.5,2.4c3.5,2,8.2,4.7,16.6,4.2c8.4-0.5,12.8-3.7,16-6
		c2.7-1.9,4.3-3.1,8.2-3.3l2.8-0.2l-0.3-5.3l-2.8,0.2c-8.7,0.5-13.2,3.8-16.5,6.2c-2.6,1.9-4,2.9-7.7,3.1c-3.7,0.2-5.2-0.7-8-2.3
		c-3.6-2-8.4-4.9-17.1-4.4c-8.7,0.5-13.2,3.8-16.5,6.2c-2.6,1.9-4,2.9-7.7,3.1c-3.7,0.2-5.2-0.7-8-2.3c-3.6-2-8.4-4.8-17.1-4.4
		c-8.7,0.5-13.2,3.8-16.5,6.2c-2.6,1.9-4,2.9-7.7,3.1c-3.7,0.2-5.2-0.7-8-2.3c-3.6-2-8.4-4.8-17.1-4.4c-8.7,0.5-13.2,3.8-16.5,6.2
		c-2.6,1.9-4,2.9-7.7,3.1c-3.7,0.2-5.2-0.7-8-2.3c-3.6-2-8.4-4.9-17.1-4.4c-8.7,0.5-13.2,3.8-16.5,6.2c-2.6,1.9-4,2.9-7.7,3.1
		c-3.7,0.2-5.2-0.7-8-2.3c-3.6-2.1-8.4-4.9-17.1-4.4l-2.8,0.2l0.3,5.3L35,170.3z"/>
	<path class="st4" d="M274.6,161.9c-3.4,2.5-8.1,5.9-17.1,6.4c-9,0.5-14-2.4-17.6-4.5c-2.7-1.6-4.1-2.3-7.5-2.2
		c-3.4,0.2-4.6,1.1-7.2,2.9c-3.4,2.5-8.1,5.9-17.1,6.4c-9,0.5-14-2.4-17.7-4.5c-2.7-1.6-4.1-2.3-7.5-2.2c-3.4,0.2-4.6,1.1-7.2,2.9
		c-3.4,2.5-8.1,5.9-17.1,6.4c-9,0.5-14-2.4-17.6-4.5c-2.7-1.6-4.1-2.3-7.5-2.2c-3.4,0.2-4.6,1.1-7.2,2.9c-3.4,2.5-8.1,5.9-17.1,6.4
		c-9,0.5-14-2.4-17.7-4.5c-2.7-1.6-4.1-2.3-7.4-2.2c-3.4,0.2-4.6,1.1-7.2,2.9c-3.4,2.5-8.1,5.9-17.1,6.4c-9,0.5-14-2.4-17.7-4.5
		c-2.7-1.6-4.1-2.3-7.4-2.2l-3.8,0.2l0.3,5.9l3.8-0.2c3.7-0.2,5.2,0.7,8,2.3c3.6,2,8.4,4.8,17.1,4.4c8.7-0.5,13.2-3.8,16.5-6.2
		c2.6-1.9,4-2.9,7.7-3.1c3.7-0.2,5.2,0.7,8,2.3c3.6,2,8.4,4.8,17.1,4.4c8.7-0.5,13.2-3.8,16.5-6.2c2.6-1.9,4-2.9,7.7-3.1
		c3.7-0.2,5.2,0.7,8,2.3c3.6,2,8.4,4.8,17.1,4.4c8.7-0.5,13.2-3.8,16.5-6.2c2.6-1.9,4-2.9,7.7-3.1c3.7-0.2,5.2,0.7,8,2.3
		c3.6,2,8.4,4.9,17.1,4.4c8.7-0.5,13.2-3.8,16.5-6.2c2.6-1.9,4-2.9,7.7-3.1c3.7-0.2,5.2,0.7,8,2.3c3.6,2,8.4,4.8,17.1,4.4
		c8.7-0.5,13.2-3.8,16.5-6.2c2.6-1.9,4-2.9,7.7-3.1l3.8-0.2l-0.3-5.9l-3.8,0.2C278.3,159.1,277.1,160,274.6,161.9z"/>
	<path class="st7" d="M69.5,89.9l-5.3,22.6h0.7c9,0,16.1-8.9,16.1-16.5c0-5.8-4.1-11-14.8-11c-13.1,0-28,7.9-28,24.8
		c0,5.2,1.5,6,1.6,6.9c-7.4,0-12-2.6-12-9.4c0-14.1,19.5-27,40.7-27c16.5,0,23.9,7.8,23.9,16.2c0,6-3.9,12.4-11.2,16.2
		c9.5,1.7,13.2,8.8,13.2,16.4c0,9.8-5.8,29.4-24.5,29.4c-4.8,0-11.1-1.3-11.1-7.5c0-1.6,0.5-3.6,1.5-5.9c2.8,2.6,4.9,3.7,7.5,3.7
		c8.2,0,11.1-10.6,11.1-18.4c0-7.1-2.5-12.9-10.6-12.9c-0.9,0-3.1,0.1-5.2,0.3l-9.2,39H37.7l15.2-64.8L69.5,89.9z"/>
	<path class="st8" d="M139.2,108.2l-7,33c-0.3,1.3-0.4,2.2-0.4,3.1c0,2.7,1.3,3.6,4,3.6c3.8,0,6.4-3.7,7.9-8.6h4.1
		c-5.5,15.8-14.3,18-19.5,18c-5.5,0-9-3.2-9.6-9.2c-4.9,8-10.3,9.2-14.4,9.2c-5.8,0-10.4-3.5-10.4-11.7c0-1.8,0.3-4,0.8-6.3
		l6.6-31.2h14l-7,33c-0.2,1-0.3,1.8-0.3,2.7c0,2.2,0.8,4,2.9,4c3.8,0,6.3-3.7,7.8-8.6l6.6-31.2H139.2z"/>
	<path class="st8" d="M164.2,108.2l-1.3,6c3.4-2.9,7.1-6,11.8-6c4.4,0,6.7,3.6,6.7,7.3c0,3.4-2.2,7.1-7,7.1c-5.4,0-2.7-6.4-5.6-6.4
		c-2.9,0-4.7,1.5-7.1,3.7l-7.8,36.9h-14l10.3-48.6H164.2z"/>
	<path class="st8" d="M222.9,108.2l-9.6,45.1c5.9-2.1,9.5-5.4,12.2-13.9h4.1c-3.8,12.8-11.2,16.5-17.2,18.2l-1.5,7
		c-2.9,13.9-11.1,16.5-17.5,16.5c-5.9,0-10.9-3.1-10.9-9.4c0-8.2,8.6-12.2,15.8-14.5l1.2-5.2c-2.8,3-6.6,5.3-11.7,5.3
		c-6.6,0-12.9-4.1-12.9-15.6c0-13.1,8.1-34,25-34c5.5,0,7.9,2.1,7.9,5v0.6l1.1-5.1H222.9z M191.2,173.5c2,0,4.4-2.9,5.6-8.6l0.6-2.8
		c-5,1.8-9.5,4.4-9.5,8.3C187.9,171.7,189.1,173.5,191.2,173.5z M189.4,140.4c0,7.5,3.1,7.6,4.9,7.6c2.6,0,6.4-2.6,7.8-7.6l5-23
		c-0.1-1.1-0.9-3.6-4-3.6C194.7,113.8,189.4,131.3,189.4,140.4z"/>
	<path class="st8" d="M242.4,149.3c7.7,0,12.3-4.3,17.2-9.8h3.3c-5.5,8.9-13.8,18-26.7,18c-9.1,0-15.2-4.5-15.2-15.5
		c0-11.2,6.3-34.6,26.2-34.6c8.6,0,10.7,4.5,10.7,9.3c0,11.2-10.7,19.8-22.3,20.5c-0.1,1.4-0.2,2.7-0.2,3.9
		C235.4,147.7,237.7,149.3,242.4,149.3z M248,112.5c-5,0-9.7,10.4-11.7,20c7.5-0.5,14.1-8,14.1-16
		C250.5,114.1,249.9,112.5,248,112.5z"/>
	<path class="st8" d="M277.7,108.2l-1.3,6c3.4-2.9,7.1-6,11.8-6c4.4,0,6.7,3.6,6.7,7.3c0,3.4-2.2,7.1-7,7.1c-5.4,0-2.7-6.4-5.6-6.4
		c-2.9,0-4.7,1.5-7.1,3.7l-7.8,36.9h-14l10.3-48.6H277.7z"/>
	<path class="st9" d="M69.5,89.9l-5.3,22.6h0.7c9,0,16.1-8.9,16.1-16.5c0-5.8-4.1-11-14.8-11c-13.1,0-28,7.9-28,24.8
		c0,5.2,1.5,6,1.6,6.9c-7.4,0-12-2.6-12-9.4c0-14.1,19.5-27,40.7-27c16.5,0,23.9,7.8,23.9,16.2c0,6-3.9,12.4-11.2,16.2
		c9.5,1.7,13.2,8.8,13.2,16.4c0,9.8-5.8,29.4-24.5,29.4c-4.8,0-11.1-1.3-11.1-7.5c0-1.6,0.5-3.6,1.5-5.9c2.8,2.6,4.9,3.7,7.5,3.7
		c8.2,0,11.1-10.6,11.1-18.4c0-7.1-2.5-12.9-10.6-12.9c-0.9,0-3.1,0.1-5.2,0.3l-9.2,39H37.7l15.2-64.8L69.5,89.9z"/>
	<path class="st9" d="M139.2,108.2l-7,33c-0.3,1.3-0.4,2.2-0.4,3.1c0,2.7,1.3,3.6,4,3.6c3.8,0,6.4-3.7,7.9-8.6h4.1
		c-5.5,15.8-14.3,18-19.5,18c-5.5,0-9-3.2-9.6-9.2c-4.9,8-10.3,9.2-14.4,9.2c-5.8,0-10.4-3.5-10.4-11.7c0-1.8,0.3-4,0.8-6.3
		l6.6-31.2h14l-7,33c-0.2,1-0.3,1.8-0.3,2.7c0,2.2,0.8,4,2.9,4c3.8,0,6.3-3.7,7.8-8.6l6.6-31.2H139.2z"/>
	<path class="st9" d="M164.2,108.2l-1.3,6c3.4-2.9,7.1-6,11.8-6c4.4,0,6.7,3.6,6.7,7.3c0,3.4-2.2,7.1-7,7.1c-5.4,0-2.7-6.4-5.6-6.4
		c-2.9,0-4.7,1.5-7.1,3.7l-7.8,36.9h-14l10.3-48.6H164.2z"/>
	<path class="st9" d="M222.9,108.2l-9.6,45.1c5.9-2.1,9.5-5.4,12.2-13.9h4.1c-3.8,12.8-11.2,16.5-17.2,18.2l-1.5,7
		c-2.9,13.9-11.1,16.5-17.5,16.5c-5.9,0-10.9-3.1-10.9-9.4c0-8.2,8.6-12.2,15.8-14.5l1.2-5.2c-2.8,3-6.6,5.3-11.7,5.3
		c-6.6,0-12.9-4.1-12.9-15.6c0-13.1,8.1-34,25-34c5.5,0,7.9,2.1,7.9,5v0.6l1.1-5.1H222.9z M191.2,173.5c2,0,4.4-2.9,5.6-8.6l0.6-2.8
		c-5,1.8-9.5,4.4-9.5,8.3C187.9,171.7,189.1,173.5,191.2,173.5z M189.4,140.4c0,7.5,3.1,7.6,4.9,7.6c2.6,0,6.4-2.6,7.8-7.6l5-23
		c-0.1-1.1-0.9-3.6-4-3.6C194.7,113.8,189.4,131.3,189.4,140.4z"/>
	<path class="st9" d="M242.4,149.3c7.7,0,12.3-4.3,17.2-9.8h3.3c-5.5,8.9-13.8,18-26.7,18c-9.1,0-15.2-4.5-15.2-15.5
		c0-11.2,6.3-34.6,26.2-34.6c8.6,0,10.7,4.5,10.7,9.3c0,11.2-10.7,19.8-22.3,20.5c-0.1,1.4-0.2,2.7-0.2,3.9
		C235.4,147.7,237.7,149.3,242.4,149.3z M248,112.5c-5,0-9.7,10.4-11.7,20c7.5-0.5,14.1-8,14.1-16
		C250.5,114.1,249.9,112.5,248,112.5z"/>
	<path class="st9" d="M277.7,108.2l-1.3,6c3.4-2.9,7.1-6,11.8-6c4.4,0,6.7,3.6,6.7,7.3c0,3.4-2.2,7.1-7,7.1c-5.4,0-2.7-6.4-5.6-6.4
		c-2.9,0-4.7,1.5-7.1,3.7l-7.8,36.9h-14l10.3-48.6H277.7z"/>
	<path class="st8" d="M93.2,184.5l8.4-24.5h5.2v24.5l8.6-24.5h2.8l-11.1,29.8h-5.9v-20.4l-7.9,20.4h-5.9v-27.4
		c-4.4,1.4-6.5,4.5-6.5,8.9c0,2,0.5,2.4,0.6,2.7c-2.8,0-4.3-1-4.3-3.9c0-5.3,7.4-10.4,14.1-10.4c0.6,0,1.1,0,1.6,0.1L93.2,184.5z"/>
	<path class="st8" d="M121,186.7c3.2,0,5.1-1.8,7.1-4h1.4c-2.3,3.7-5.7,7.4-11,7.4c-3.8,0-6.2-1.8-6.2-6.4c0-4.6,2.6-14.3,10.8-14.3
		c3.6,0,4.4,1.8,4.4,3.8c0,4.6-4.4,8.2-9.2,8.5c0,0.6-0.1,1.1-0.1,1.6C118.1,186,119.1,186.7,121,186.7z M123.3,171.5
		c-2,0-4,4.3-4.8,8.3c3.1-0.2,5.8-3.3,5.8-6.6C124.3,172.2,124.1,171.5,123.3,171.5z"/>
	<path class="st8" d="M136.4,186.7c3.2,0,5.1-1.8,7.1-4h1.4c-2.3,3.7-5.7,7.4-11,7.4c-3.8,0-6.2-1.8-6.2-6.4
		c0-4.6,2.6-14.3,10.8-14.3c3.6,0,4.4,1.8,4.4,3.8c0,4.6-4.4,8.2-9.2,8.5c0,0.6-0.1,1.1-0.1,1.6C133.5,186,134.5,186.7,136.4,186.7z
		 M138.7,171.5c-2,0-4,4.3-4.8,8.3c3.1-0.2,5.8-3.3,5.8-6.6C139.7,172.2,139.5,171.5,138.7,171.5z"/>
	<path class="st8" d="M162.4,169.8l-8,5.6c0.4-0.1,0.9-0.2,1.3-0.2c3,0,4.4,2.1,4.4,4.7c0,0.5,0,1-0.2,1.5l-0.4,2
		c-0.1,0.4-0.2,0.8-0.2,1.3c0,0.8,0.3,1.5,1.6,1.5c1,0,1.1-0.1,1.4-0.2c-0.2,2.8-2.7,4.1-3.7,4.1c-3.3,0-5-1.6-5-4.6
		c0-0.6,0.1-1.3,0.2-2.1l0.3-1.6c0.1-0.5,0.2-1,0.2-1.5c0-1.2-0.4-1.9-1.4-1.9c-0.9,0-1.8,0.6-3,1.5l-2.1,9.9H142l5.8-27.2l5.9-0.8
		l-3,14.1l7.7-6.1H162.4z"/>
	<path class="st9" d="M93.2,184.5l8.4-24.5h5.2v24.5l8.6-24.5h2.8l-11.1,29.8h-5.9v-20.4l-7.9,20.4h-5.9v-27.4
		c-4.4,1.4-6.5,4.5-6.5,8.9c0,2,0.5,2.4,0.6,2.7c-2.8,0-4.3-1-4.3-3.9c0-5.3,7.4-10.4,14.1-10.4c0.6,0,1.1,0,1.6,0.1L93.2,184.5z"/>
	<path class="st9" d="M121,186.7c3.2,0,5.1-1.8,7.1-4h1.4c-2.3,3.7-5.7,7.4-11,7.4c-3.8,0-6.2-1.8-6.2-6.4c0-4.6,2.6-14.3,10.8-14.3
		c3.6,0,4.4,1.8,4.4,3.8c0,4.6-4.4,8.2-9.2,8.5c0,0.6-0.1,1.1-0.1,1.6C118.1,186,119.1,186.7,121,186.7z M123.3,171.5
		c-2,0-4,4.3-4.8,8.3c3.1-0.2,5.8-3.3,5.8-6.6C124.3,172.2,124.1,171.5,123.3,171.5z"/>
	<path class="st9" d="M136.4,186.7c3.2,0,5.1-1.8,7.1-4h1.4c-2.3,3.7-5.7,7.4-11,7.4c-3.8,0-6.2-1.8-6.2-6.4
		c0-4.6,2.6-14.3,10.8-14.3c3.6,0,4.4,1.8,4.4,3.8c0,4.6-4.4,8.2-9.2,8.5c0,0.6-0.1,1.1-0.1,1.6C133.5,186,134.5,186.7,136.4,186.7z
		 M138.7,171.5c-2,0-4,4.3-4.8,8.3c3.1-0.2,5.8-3.3,5.8-6.6C139.7,172.2,139.5,171.5,138.7,171.5z"/>
	<path class="st9" d="M162.4,169.8l-8,5.6c0.4-0.1,0.9-0.2,1.3-0.2c3,0,4.4,2.1,4.4,4.7c0,0.5,0,1-0.2,1.5l-0.4,2
		c-0.1,0.4-0.2,0.8-0.2,1.3c0,0.8,0.3,1.5,1.6,1.5c1,0,1.1-0.1,1.4-0.2c-0.2,2.8-2.7,4.1-3.7,4.1c-3.3,0-5-1.6-5-4.6
		c0-0.6,0.1-1.3,0.2-2.1l0.3-1.6c0.1-0.5,0.2-1,0.2-1.5c0-1.2-0.4-1.9-1.4-1.9c-0.9,0-1.8,0.6-3,1.5l-2.1,9.9H142l5.8-27.2l5.9-0.8
		l-3,14.1l7.7-6.1H162.4z"/>
	<g>
		<path class="st8" d="M19.2,143.9c4.2,0.9,8.5,5.2,13.6,5.2c1.1,0,2.2-0.2,3.4-0.6c-0.4,3.9-2,6.4-4.2,6.4
			c-5.8,0-10.9-9.2-18.1-9.2c-0.3,0-0.6,0-0.9,0l6-28.1c-3.5,1.5-5.7,4.5-5.7,8.8c0,2.1,0.5,2.4,0.6,2.8c-2.8,0-4.3-1-4.3-3.9
			c0-5.4,7.5-10.6,14.2-10.6c0.6,0,1.1,0,1.6,0.1L19.2,143.9z"/>
		<path class="st8" d="M32.7,141.1c1.5,0,3.5-1,4.8-2.1c-0.9,4.6-3.8,6-7,6c-3.8,0-6.3-1.9-6.3-6.4c0-4.7,2.6-14.4,11-14.4
			c3.6,0,4.5,1.9,4.5,3.9c0,4.7-4.5,8.3-9.3,8.6c0,0.4-0.1,0.9-0.1,1.2C30.2,140.3,31.3,141.1,32.7,141.1z M35.4,126.2
			c-2,0-4.1,4.5-4.9,8.4c3.2-0.2,5.9-3.3,5.9-6.7C36.4,126.9,36.2,126.2,35.4,126.2z"/>
	</g>
	<g>
		<path class="st9" d="M19.2,143.9c4.2,0.9,8.5,5.2,13.6,5.2c1.1,0,2.2-0.2,3.4-0.6c-0.4,3.9-2,6.4-4.2,6.4
			c-5.8,0-10.9-9.2-18.1-9.2c-0.3,0-0.6,0-0.9,0l6-28.1c-3.5,1.5-5.7,4.5-5.7,8.8c0,2.1,0.5,2.4,0.6,2.8c-2.8,0-4.3-1-4.3-3.9
			c0-5.4,7.5-10.6,14.2-10.6c0.6,0,1.1,0,1.6,0.1L19.2,143.9z"/>
		<path class="st9" d="M32.7,141.1c1.5,0,3.5-1,4.8-2.1c-0.9,4.6-3.8,6-7,6c-3.8,0-6.3-1.9-6.3-6.4c0-4.7,2.6-14.4,11-14.4
			c3.6,0,4.5,1.9,4.5,3.9c0,4.7-4.5,8.3-9.3,8.6c0,0.4-0.1,0.9-0.1,1.2C30.2,140.3,31.3,141.1,32.7,141.1z M35.4,126.2
			c-2,0-4.1,4.5-4.9,8.4c3.2-0.2,5.9-3.3,5.9-6.7C36.4,126.9,36.2,126.2,35.4,126.2z"/>
	</g>
</g>
</svg>
