<svg xmlns="http://www.w3.org/2000/svg" viewBox="0 0 1008.32 232.07"><defs><style>.cls-1{fill:#fff;}.cls-2{fill:#ab7029;}.cls-3{fill:#9c6226;}.cls-4{fill:#b32029;}.cls-5{fill:#faa21e;}.cls-6{fill:#a9ae38;}.cls-7,.cls-8{fill:#6d1f11;stroke:#fff;stroke-linecap:round;stroke-linejoin:round;}.cls-7{stroke-width:6.27px;}.cls-8{stroke-width:5.36px;}.cls-9{fill:#411f1f;}.cls-10{fill:#4e2d2d;}.cls-11{fill:#f4752a;}</style></defs><title>loog-full</title><g id="Layer_2" data-name="Layer 2"><g id="Layer_8" data-name="Layer 8"><path class="cls-1" d="M88.64,231.87c-17.36,0-33.76-.07-46.61-5-15.86-6.15-24-19-24.15-38.14l-3.79.2h-.54a10,10,0,0,1-10-9.48l-.3-5.86A10,10,0,0,1,4,169.19l-.15-2.91a10,10,0,0,1,5.83-9.61,10,10,0,0,1,.24-1.52l6.6-27.86C4.44,125.3,0,116.56,0,108.33,0,97.74,6.77,87.6,18.07,80.59,18.21,41.39,60.33-.15,138.21,0c35.23.07,65.37,8.72,87.16,25,19.92,14.89,31.31,35.35,31.27,56.14v4.28q0,.39,0,.79l0,13.56H258a10,10,0,0,1,4.24,1,20.66,20.66,0,0,1,6.17-.93c9.34,0,16.64,7.6,16.62,17.26a16.62,16.62,0,0,1-17,17,15.18,15.18,0,0,1-4.91-.82l-2,9.61,2.64-.14h.55a10,10,0,0,1,10,9.48l.15,2.91a10,10,0,0,1,1.2,4.26l.31,5.86a10,10,0,0,1-9.48,10.51l-3.79.19a5.67,5.67,0,0,0-.64.06c-.32.18-1.07.73-1.63,1.14-1.06.76-2.36,1.71-4,2.68l0,8.63c0,19.56-8.21,32.61-24.3,38.77-12.87,4.93-29.27,4.9-46.63,4.86Z"/><path class="cls-2" d="M246.57,80.92C246.57,47.32,209.82,10,138,10S28,47.32,28,80.92V86H246.57Z"/><path class="cls-3" d="M114.4,19.91h-7.1a.88.88,0,0,0-.81.54,4,4,0,0,0-.26,1.5,4,4,0,0,0,.26,1.51.88.88,0,0,0,.81.54h7.09a.88.88,0,0,0,.82-.55,4.16,4.16,0,0,0,.26-1.5,4.09,4.09,0,0,0-.26-1.5A.88.88,0,0,0,114.4,19.91Z"/><path class="cls-3" d="M141,19.91h-7.1a.88.88,0,0,0-.81.54,4.42,4.42,0,0,0,0,3,.88.88,0,0,0,.81.54H141a.88.88,0,0,0,.82-.55A4.08,4.08,0,0,0,142,22a4,4,0,0,0-.26-1.5A.88.88,0,0,0,141,19.91Z"/><path class="cls-3" d="M167.52,19.91h-7.1a.88.88,0,0,0-.81.55,4,4,0,0,0-.26,1.5,4.05,4.05,0,0,0,.26,1.5.88.88,0,0,0,.81.54h7.1a.88.88,0,0,0,.82-.55,4.48,4.48,0,0,0,0-3A.88.88,0,0,0,167.52,19.91Z"/><path class="cls-3" d="M101.06,35.75H94a.88.88,0,0,0-.81.55,4.47,4.47,0,0,0,0,3,.88.88,0,0,0,.81.54h7.1a.88.88,0,0,0,.81-.54,4.39,4.39,0,0,0,0-3A.88.88,0,0,0,101.06,35.75Z"/><path class="cls-3" d="M127.62,35.75h-7.1a.88.88,0,0,0-.81.55,4.38,4.38,0,0,0,0,3,.88.88,0,0,0,.81.54h7.1a.88.88,0,0,0,.81-.54,4.44,4.44,0,0,0,0-3A.88.88,0,0,0,127.62,35.75Z"/><path class="cls-3" d="M74.61,35.75H67.52a.88.88,0,0,0-.81.55,4.41,4.41,0,0,0,0,3,.88.88,0,0,0,.81.54h7.09a.87.87,0,0,0,.81-.54,4.32,4.32,0,0,0,0-3A.88.88,0,0,0,74.61,35.75Z"/><path class="cls-3" d="M154.18,35.75h-7.1a.88.88,0,0,0-.81.55,4.44,4.44,0,0,0,0,3,.88.88,0,0,0,.81.54h7.1a.88.88,0,0,0,.81-.54,4.44,4.44,0,0,0,0-3A.88.88,0,0,0,154.18,35.75Z"/><path class="cls-3" d="M180.75,35.75h-7.1a.88.88,0,0,0-.82.55,4.44,4.44,0,0,0,0,3,.88.88,0,0,0,.82.55h7.1a.88.88,0,0,0,.81-.54,3.94,3.94,0,0,0,.26-1.5,4,4,0,0,0-.26-1.5A.88.88,0,0,0,180.75,35.75Z"/><path class="cls-3" d="M207.31,35.75h-7.1a.88.88,0,0,0-.82.55,4.06,4.06,0,0,0-.26,1.49,4,4,0,0,0,.26,1.5.88.88,0,0,0,.81.54h7.09a.88.88,0,0,0,.82-.55,4.45,4.45,0,0,0,0-3A.89.89,0,0,0,207.31,35.75Z"/><path class="cls-3" d="M114.4,52.3h-7.1a.88.88,0,0,0-.81.54,4.37,4.37,0,0,0,0,3,.88.88,0,0,0,.81.54h7.09a.89.89,0,0,0,.82-.55,4.15,4.15,0,0,0,.26-1.5,4,4,0,0,0-.26-1.5A.88.88,0,0,0,114.4,52.3Z"/><path class="cls-3" d="M141,52.3h-7.1a.88.88,0,0,0-.81.54,4.42,4.42,0,0,0,0,3,.88.88,0,0,0,.81.54H141a.88.88,0,0,0,.82-.55,4.06,4.06,0,0,0,.26-1.5,3.91,3.91,0,0,0-.26-1.5A.87.87,0,0,0,141,52.3Z"/><path class="cls-3" d="M167.52,52.3h-7.1a.88.88,0,0,0-.81.54,4,4,0,0,0-.26,1.5,3.93,3.93,0,0,0,.27,1.5.88.88,0,0,0,.81.55h7.1a.88.88,0,0,0,.82-.55,4.48,4.48,0,0,0,0-3A.88.88,0,0,0,167.52,52.3Z"/><path class="cls-3" d="M127.62,68.14h-7.1a.88.88,0,0,0-.81.54,4.38,4.38,0,0,0,0,3,.87.87,0,0,0,.81.54h7.1a.88.88,0,0,0,.81-.54,4,4,0,0,0,.26-1.5,3.93,3.93,0,0,0-.26-1.5A.88.88,0,0,0,127.62,68.14Z"/><path class="cls-3" d="M154.18,68.14h-7.1a.88.88,0,0,0-.81.54,4,4,0,0,0-.26,1.5,3.94,3.94,0,0,0,.26,1.5.87.87,0,0,0,.81.54h7.1a.88.88,0,0,0,.81-.54,4,4,0,0,0,.26-1.5,3.91,3.91,0,0,0-.26-1.5A.88.88,0,0,0,154.18,68.14Z"/><path class="cls-3" d="M193.86,52.3H187a.88.88,0,0,0-.82.55,4,4,0,0,0-.26,1.49,4.07,4.07,0,0,0,.26,1.5.89.89,0,0,0,.82.55h6.87a.89.89,0,0,0,.82-.55,4.49,4.49,0,0,0,0-3A.88.88,0,0,0,193.86,52.3Z"/><path class="cls-3" d="M221.24,52.85a.88.88,0,0,0-.81-.55h-7.1a.88.88,0,0,0-.82.55,4,4,0,0,0-.26,1.49,4.1,4.1,0,0,0,.26,1.5.88.88,0,0,0,.82.55h7.1a.88.88,0,0,0,.81-.55,4,4,0,0,0,.26-1.5A4,4,0,0,0,221.24,52.85Z"/><path class="cls-3" d="M207.31,68.14H200a.89.89,0,0,0-.82.55,4.47,4.47,0,0,0,0,3,.87.87,0,0,0,.82.55h7.32a.88.88,0,0,0,.82-.55,4.45,4.45,0,0,0,0-3A.89.89,0,0,0,207.31,68.14Z"/><path class="cls-3" d="M180.64,68.14h-7a.89.89,0,0,0-.82.55,4.45,4.45,0,0,0,0,3,.88.88,0,0,0,.82.55h7a.88.88,0,0,0,.82-.55,4.47,4.47,0,0,0,0-3A.89.89,0,0,0,180.64,68.14Z"/><path class="cls-3" d="M61.25,52.3h-7.1a.88.88,0,0,0-.81.55,4,4,0,0,0-.26,1.49,4.06,4.06,0,0,0,.26,1.5.88.88,0,0,0,.81.55h7.1a.88.88,0,0,0,.81-.55,4,4,0,0,0,.26-1.5,3.91,3.91,0,0,0-.26-1.5A.87.87,0,0,0,61.25,52.3Z"/><path class="cls-3" d="M87.81,52.3H80.74a.87.87,0,0,0-.81.55,4,4,0,0,0-.26,1.49,3.91,3.91,0,0,0,.26,1.5.88.88,0,0,0,.81.55h7.07a.88.88,0,0,0,.81-.55,4,4,0,0,0,.26-1.5,3.91,3.91,0,0,0-.26-1.5A.87.87,0,0,0,87.81,52.3Z"/><path class="cls-3" d="M74.47,68.14h-7a.88.88,0,0,0-.81.54,4,4,0,0,0-.26,1.5,3.92,3.92,0,0,0,.26,1.5.88.88,0,0,0,.81.54h7a.88.88,0,0,0,.81-.54,4,4,0,0,0,.26-1.5,3.93,3.93,0,0,0-.26-1.5A.88.88,0,0,0,74.47,68.14Z"/><path class="cls-3" d="M101.55,68.32a.86.86,0,0,0-.52-.18H94a.88.88,0,0,0-.81.54,4,4,0,0,0-.26,1.5,4,4,0,0,0,.26,1.5.88.88,0,0,0,.81.54h7.1a.88.88,0,0,0,.81-.54,4.4,4.4,0,0,0,0-3A.79.79,0,0,0,101.55,68.32Z"/><path class="cls-4" d="M246.54,109.44c0,2.1,0,3.8-2.12,3.8H30.15c-2.1,0-2.12-1.71-2.12-3.8v-7.39c0-2.1,0-3.81,2.12-3.81H244.43c2.1,0,2.12,1.7,2.12,3.81Z"/><rect class="cls-5" x="27.99" y="89.22" width="218.6" height="5.75"/><polygon class="cls-5" points="169.45 91.21 137.87 110.22 105.12 91.21 169.45 91.21"/><path class="cls-2" d="M28,183.13v5.07C28,221.8,55.27,222,88.87,222h96.89c33.61,0,60.84-.17,60.84-33.77v-5.07Z"/><path class="cls-6" d="M38.84,189.36c0,5.28.41,8.94,7.72,5.28s16.25-8.53,34.94-8.13c-6.91,2-15,5.69-15.84,10.56s4.06,6.91,14.62,4.47c1.22,4.47,5.69,9.34,15,1.22s14.63-11.37,19.09-13,5.69.81.81,3.65-9.34,4.47-10.16,7.72,0,8.53,8.13,6.09c0,5.69,1.62,10.56,8.53,10.56s9.75-3.66,9.75-10.56c4.47,2.44,11,4.06,11.37-4.88s4.47-13,8.54-15,4.78,1.75,2,2.85c-3.64,1.45-5.21,4.06-5.28,6.9-.08,3.65,6.19,9.06,12.59,2.44.49,3.92,7.72,6.5,10.16-1.63s3.12-13.15,10.56-13.41c-5.1,1.85-8.12,9.34-1.62,11.78s9.75-3.66,10.56-5.69,2.85-6.5,8.94-6.09c-5.27,2.35-5.28,10.56,0,11s7.31-1.22,11.37-4.88A27.44,27.44,0,0,1,233,184.49c-2,5.28,1.64,7.4,4.93,6.77,4-.76,3.64-5.16,4.89-8.13H34.57v.14C31.32,185.3,29.08,193.83,38.84,189.36Z"/><path class="cls-4" d="M17.06,171.12c3.92-.21,5.63.78,8.47,2.4A26.77,26.77,0,0,0,42,177.74a26.78,26.78,0,0,0,15.89-6c2.64-1.93,4.23-3.09,8.16-3.3s5.63.77,8.46,2.4a26.81,26.81,0,0,0,16.44,4.22,26.82,26.82,0,0,0,15.88-6c2.65-1.93,4.24-3.09,8.16-3.3s5.64.77,8.47,2.41a28.27,28.27,0,0,0,32.34-1.76c2.64-1.92,4.23-3.08,8.16-3.29s5.64.77,8.47,2.4a28.26,28.26,0,0,0,32.34-1.75c2.64-1.93,4.23-3.09,8.16-3.3s5.64.77,8.47,2.4a28.26,28.26,0,0,0,32.34-1.75c2.64-1.92,4.24-3.09,8.16-3.3l2.81-.15-.29-5.27-2.8.15a27.66,27.66,0,0,0-16.42,6.15c-2.58,1.88-4,2.91-7.64,3.11s-5.16-.68-7.93-2.27a29.22,29.22,0,0,0-33.4,1.81c-2.58,1.88-4,2.91-7.64,3.11s-5.15-.68-7.93-2.27a29.23,29.23,0,0,0-33.39,1.81c-2.58,1.88-4,2.92-7.64,3.12s-5.16-.68-7.93-2.28a29.22,29.22,0,0,0-33.4,1.82c-2.58,1.87-4,2.91-7.63,3.11s-5.16-.68-7.92-2.27a27.65,27.65,0,0,0-17-4.35,27.66,27.66,0,0,0-16.41,6.16c-2.58,1.88-4,2.91-7.63,3.11s-5.16-.68-7.93-2.26a27.63,27.63,0,0,0-17-4.35L14,166l.28,5.26Z"/><path class="cls-4" d="M254.87,162.76a30.2,30.2,0,0,1-34.46,1.87c-2.7-1.55-4.05-2.33-7.4-2.15s-4.61,1.1-7.11,2.92a30.22,30.22,0,0,1-34.46,1.88c-2.69-1.55-4-2.33-7.39-2.15s-4.6,1.1-7.11,2.92a30.2,30.2,0,0,1-34.46,1.87c-2.7-1.55-4.05-2.33-7.4-2.15s-4.61,1.1-7.11,2.92A28.55,28.55,0,0,1,91,177a28.53,28.53,0,0,1-17.52-4.47c-2.69-1.55-4-2.33-7.39-2.15s-4.61,1.1-7.11,2.92a28.57,28.57,0,0,1-16.94,6.34,28.56,28.56,0,0,1-17.52-4.47c-2.69-1.55-4-2.33-7.39-2.15l-3.78.21.32,5.86,3.78-.21c3.63-.2,5.16.68,7.93,2.27a27.66,27.66,0,0,0,17,4.35A27.67,27.67,0,0,0,58.8,179.4c2.58-1.88,4-2.91,7.63-3.11s5.15.68,7.92,2.27a27.7,27.7,0,0,0,17,4.35,27.67,27.67,0,0,0,16.42-6.15c2.58-1.88,4-2.91,7.63-3.11s5.16.68,7.93,2.28a29.25,29.25,0,0,0,33.4-1.81c2.58-1.88,4-2.91,7.63-3.11s5.16.67,7.93,2.27a29.23,29.23,0,0,0,33.41-1.81c2.58-1.88,4-2.91,7.63-3.11s5.16.68,7.93,2.27a29.25,29.25,0,0,0,33.41-1.81c2.58-1.88,4-2.91,7.63-3.11l3.79-.2-.32-5.86-3.78.2C258.62,160,257.37,160.94,254.87,162.76Z"/><path class="cls-7" d="M51.33,91.31l-5.22,22.46h.67c8.89,0,16-8.8,16-16.4,0-5.76-4.11-10.92-14.67-10.92-13,0-27.79,7.89-27.79,24.59,0,5.16,1.44,6,1.56,6.88-7.34,0-11.9-2.53-11.9-9.31,0-14,19.34-26.81,40.35-26.81C66.67,81.8,74,89.59,74,97.88c0,6-3.89,12.35-11.12,16.09,9.45,1.72,13.12,8.7,13.12,16.29,0,9.71-5.78,29.14-24.35,29.14-4.78,0-11-1.31-11-7.49a15.14,15.14,0,0,1,1.45-5.87c2.78,2.63,4.89,3.64,7.45,3.64,8.11,0,11-10.53,11-18.22,0-7.08-2.45-12.84-10.56-12.84-.89,0-3.11.1-5.12.3l-9.11,38.76h-16L34.89,93.33Z"/><path class="cls-8" d="M120.52,109.55l-6.94,32.79a13.52,13.52,0,0,0-.39,3.09c0,2.7,1.26,3.57,4,3.57,3.76,0,6.36-3.67,7.81-8.49H129c-5.5,15.72-14.17,17.84-19.38,17.84-5.5,0-9-3.19-9.55-9.16-4.82,7.91-10.22,9.16-14.27,9.16-5.78,0-10.32-3.47-10.32-11.57a31.62,31.62,0,0,1,.77-6.27l6.56-31H96.7l-6.94,32.79a13.78,13.78,0,0,0-.29,2.7c0,2.22.77,4,2.89,4,3.76,0,6.27-3.67,7.72-8.49l6.56-31Z"/><path class="cls-8" d="M145.38,109.55l-1.25,6c3.37-2.89,7-6,11.67-6,4.33,0,6.65,3.57,6.65,7.23a6.74,6.74,0,0,1-6.94,7c-5.4,0-2.7-6.36-5.59-6.36s-4.63,1.44-7,3.67l-7.71,36.64H121.28l10.22-48.22Z"/><path class="cls-8" d="M203.58,109.55,194,154.29c5.88-2.12,9.45-5.4,12.15-13.79h4.05c-3.76,12.73-11.09,16.39-17.07,18l-1.45,6.94c-2.89,13.79-11,16.39-17.35,16.39-5.88,0-10.8-3.09-10.8-9.36,0-8.1,8.49-12.15,15.72-14.36l1.16-5.11a15.5,15.5,0,0,1-11.57,5.3c-6.55,0-12.82-4.05-12.82-15.53,0-13,8-33.75,24.78-33.75,5.5,0,7.81,2.12,7.81,4.92v.58l1.06-5Zm-31.44,64.8c2,0,4.34-2.89,5.6-8.58l.58-2.8c-4.92,1.84-9.45,4.34-9.45,8.2A3.29,3.29,0,0,0,172.15,174.35Zm-1.83-32.89c0,7.43,3.09,7.53,4.82,7.53,2.61,0,6.36-2.61,7.72-7.53l4.92-22.85a3.8,3.8,0,0,0-4-3.57C175.62,115,170.32,132.41,170.32,141.46Z"/><path class="cls-8" d="M223,150.25c7.61,0,12.24-4.24,17.07-9.74h3.28c-5.5,8.87-13.69,17.84-26.52,17.84-9.07,0-15-4.44-15-15.33,0-11.09,6.27-34.33,26-34.33,8.58,0,10.6,4.44,10.6,9.26,0,11.08-10.6,19.67-22.17,20.35-.1,1.35-.19,2.7-.19,3.86C216,148.7,218.33,150.25,223,150.25Zm5.59-36.45c-4.92,0-9.64,10.32-11.57,19.86,7.43-.48,14-7.91,14-15.91C231,115.33,230.38,113.8,228.55,113.8Z"/><path class="cls-8" d="M258,109.55l-1.25,6c3.38-2.89,7-6,11.67-6,4.34,0,6.66,3.57,6.66,7.23a6.74,6.74,0,0,1-6.95,7c-5.39,0-2.7-6.36-5.59-6.36s-4.63,1.44-7,3.67l-7.72,36.64H233.91l10.22-48.22Z"/><path class="cls-9" d="M51.33,91.31l-5.22,22.46h.67c8.89,0,16-8.8,16-16.4,0-5.76-4.11-10.92-14.67-10.92-13,0-27.79,7.89-27.79,24.59,0,5.16,1.44,6,1.56,6.88-7.34,0-11.9-2.53-11.9-9.31,0-14,19.34-26.81,40.35-26.81C66.67,81.8,74,89.59,74,97.88c0,6-3.89,12.35-11.12,16.09,9.45,1.72,13.12,8.7,13.12,16.29,0,9.71-5.78,29.14-24.35,29.14-4.78,0-11-1.31-11-7.49a15.14,15.14,0,0,1,1.45-5.87c2.78,2.63,4.89,3.64,7.45,3.64,8.11,0,11-10.53,11-18.22,0-7.08-2.45-12.84-10.56-12.84-.89,0-3.11.1-5.12.3l-9.11,38.76h-16L34.89,93.33Z"/><path class="cls-9" d="M120.52,109.55l-6.94,32.79a13.52,13.52,0,0,0-.39,3.09c0,2.7,1.26,3.57,4,3.57,3.76,0,6.36-3.67,7.81-8.49H129c-5.5,15.72-14.17,17.84-19.38,17.84-5.5,0-9-3.19-9.55-9.16-4.82,7.91-10.22,9.16-14.27,9.16-5.78,0-10.32-3.47-10.32-11.57a31.62,31.62,0,0,1,.77-6.27l6.56-31H96.7l-6.94,32.79a13.78,13.78,0,0,0-.29,2.7c0,2.22.77,4,2.89,4,3.76,0,6.27-3.67,7.72-8.49l6.56-31Z"/><path class="cls-9" d="M145.38,109.55l-1.25,6c3.37-2.89,7-6,11.67-6,4.33,0,6.65,3.57,6.65,7.23a6.74,6.74,0,0,1-6.94,7c-5.4,0-2.7-6.36-5.59-6.36s-4.63,1.44-7,3.67l-7.71,36.64H121.28l10.22-48.22Z"/><path class="cls-9" d="M203.58,109.55,194,154.29c5.88-2.12,9.45-5.4,12.15-13.79h4.05c-3.76,12.73-11.09,16.39-17.07,18l-1.45,6.94c-2.89,13.79-11,16.39-17.35,16.39-5.88,0-10.8-3.09-10.8-9.36,0-8.1,8.49-12.15,15.72-14.36l1.16-5.11a15.5,15.5,0,0,1-11.57,5.3c-6.55,0-12.82-4.05-12.82-15.53,0-13,8-33.75,24.78-33.75,5.5,0,7.81,2.12,7.81,4.92v.58l1.06-5Zm-31.44,64.8c2,0,4.34-2.89,5.6-8.58l.58-2.8c-4.92,1.84-9.45,4.34-9.45,8.2A3.29,3.29,0,0,0,172.15,174.35Zm-1.83-32.89c0,7.43,3.09,7.53,4.82,7.53,2.61,0,6.36-2.61,7.72-7.53l4.92-22.85a3.8,3.8,0,0,0-4-3.57C175.62,115,170.32,132.41,170.32,141.46Z"/><path class="cls-9" d="M223,150.25c7.61,0,12.24-4.24,17.07-9.74h3.28c-5.5,8.87-13.69,17.84-26.52,17.84-9.07,0-15-4.44-15-15.33,0-11.09,6.27-34.33,26-34.33,8.58,0,10.6,4.44,10.6,9.26,0,11.08-10.6,19.67-22.17,20.35-.1,1.35-.19,2.7-.19,3.86C216,148.7,218.33,150.25,223,150.25Zm5.59-36.45c-4.92,0-9.64,10.32-11.57,19.86,7.43-.48,14-7.91,14-15.91C231,115.33,230.38,113.8,228.55,113.8Z"/><path class="cls-9" d="M258,109.55l-1.25,6c3.38-2.89,7-6,11.67-6,4.34,0,6.66,3.57,6.66,7.23a6.74,6.74,0,0,1-6.95,7c-5.39,0-2.7-6.36-5.59-6.36s-4.63,1.44-7,3.67l-7.72,36.64H233.91l10.22-48.22Z"/><path class="cls-8" d="M74.9,185.21l8.35-24.33h5.21v24.33L97,160.89h2.78L88.74,190.5H82.86V170.26L75,190.5H69.14V163.35c-4.33,1.36-6.45,4.45-6.45,8.83a5.63,5.63,0,0,0,.56,2.7c-2.74,0-4.26-1-4.26-3.86,0-5.29,7.32-10.33,14-10.33.55,0,1.07,0,1.59.08Z"/><path class="cls-8" d="M102.47,187.4c3.14,0,5.05-1.75,7-4h1.36c-2.27,3.65-5.65,7.35-10.93,7.35-3.74,0-6.2-1.83-6.2-6.32s2.58-14.16,10.73-14.16c3.54,0,4.37,1.83,4.37,3.82,0,4.57-4.37,8.11-9.14,8.39,0,.56-.08,1.11-.08,1.59C99.61,186.76,100.57,187.4,102.47,187.4Zm2.31-15c-2,0-4,4.25-4.77,8.19,3.06-.2,5.77-3.26,5.77-6.56C105.78,173,105.53,172.37,104.78,172.37Z"/><path class="cls-8" d="M117.74,187.4c3.14,0,5-1.75,7-4h1.35c-2.27,3.65-5.65,7.35-10.93,7.35-3.74,0-6.2-1.83-6.2-6.32s2.58-14.16,10.73-14.16c3.54,0,4.38,1.83,4.38,3.82,0,4.57-4.37,8.11-9.14,8.39,0,.56-.08,1.11-.08,1.59C114.87,186.76,115.83,187.4,117.74,187.4Zm2.31-15c-2,0-4,4.25-4.78,8.19,3.06-.2,5.77-3.26,5.77-6.56C121,173,120.8,172.37,120,172.37Z"/><path class="cls-8" d="M143.53,170.62l-8,5.53a7.85,7.85,0,0,1,1.31-.16c2.94,0,4.37,2.11,4.37,4.65a6.71,6.71,0,0,1-.16,1.51l-.44,2a6.72,6.72,0,0,0-.2,1.27c0,.79.32,1.47,1.55,1.47a2.64,2.64,0,0,0,1.39-.24,4.37,4.37,0,0,1-3.7,4.09c-3.25,0-5-1.63-5-4.53a9.93,9.93,0,0,1,.24-2.06l.32-1.55a6.74,6.74,0,0,0,.16-1.47c0-1.16-.4-1.91-1.43-1.91a5,5,0,0,0-2.94,1.47L129,190.5h-5.72l5.76-27,5.88-.8-3,14,7.67-6Z"/><path class="cls-9" d="M74.9,185.21l8.35-24.33h5.21v24.33L97,160.89h2.78L88.74,190.5H82.86V170.26L75,190.5H69.14V163.35c-4.33,1.36-6.45,4.45-6.45,8.83a5.63,5.63,0,0,0,.56,2.7c-2.74,0-4.26-1-4.26-3.86,0-5.29,7.32-10.33,14-10.33.55,0,1.07,0,1.59.08Z"/><path class="cls-9" d="M102.47,187.4c3.14,0,5.05-1.75,7-4h1.36c-2.27,3.65-5.65,7.35-10.93,7.35-3.74,0-6.2-1.83-6.2-6.32s2.58-14.16,10.73-14.16c3.54,0,4.37,1.83,4.37,3.82,0,4.57-4.37,8.11-9.14,8.39,0,.56-.08,1.11-.08,1.59C99.61,186.76,100.57,187.4,102.47,187.4Zm2.31-15c-2,0-4,4.25-4.77,8.19,3.06-.2,5.77-3.26,5.77-6.56C105.78,173,105.53,172.37,104.78,172.37Z"/><path class="cls-9" d="M117.74,187.4c3.14,0,5-1.75,7-4h1.35c-2.27,3.65-5.65,7.35-10.93,7.35-3.74,0-6.2-1.83-6.2-6.32s2.58-14.16,10.73-14.16c3.54,0,4.38,1.83,4.38,3.82,0,4.57-4.37,8.11-9.14,8.39,0,.56-.08,1.11-.08,1.59C114.87,186.76,115.83,187.4,117.74,187.4Zm2.31-15c-2,0-4,4.25-4.78,8.19,3.06-.2,5.77-3.26,5.77-6.56C121,173,120.8,172.37,120,172.37Z"/><path class="cls-9" d="M143.53,170.62l-8,5.53a7.85,7.85,0,0,1,1.31-.16c2.94,0,4.37,2.11,4.37,4.65a6.71,6.71,0,0,1-.16,1.51l-.44,2a6.72,6.72,0,0,0-.2,1.27c0,.79.32,1.47,1.55,1.47a2.64,2.64,0,0,0,1.39-.24,4.37,4.37,0,0,1-3.7,4.09c-3.25,0-5-1.63-5-4.53a9.93,9.93,0,0,1,.24-2.06l.32-1.55a6.74,6.74,0,0,0,.16-1.47c0-1.16-.4-1.91-1.43-1.91a5,5,0,0,0-2.94,1.47L129,190.5h-5.72l5.76-27,5.88-.8-3,14,7.67-6Z"/><rect class="cls-1" x="157.85" y="77.67" width="20.17" height="10.39"/><path class="cls-1" d="M76.34,88.48c-5.89,0-9.84-3.5-9.84-8.72a8.3,8.3,0,0,1,4.58-7.68A8.38,8.38,0,0,1,70,68c0-5.08,4.46-8.92,10.37-8.92,5,0,8.41,2.92,8.41,7.26a6.87,6.87,0,0,1-2.35,5.35,10.57,10.57,0,0,1,1.68,5.89C88.12,83.89,83.17,88.48,76.34,88.48Z"/><path class="cls-1" d="M82.6,69.16a1.6,1.6,0,0,1-1.29-.59,2.93,2.93,0,0,0,1.26-2.41c0-1-.53-1.88-2.08-1.88a2.35,2.35,0,0,0-2.58,2.55c0,4.12,6.31,4.68,6.31,10.74,0,4.71-3.81,7-7.88,7-3.2,0-5.95-1.4-5.95-4.82a4.27,4.27,0,0,1,4.12-4.6c1,0,2.38.39,2.47,1.85-1.51,0-3.28.7-3.28,2.64a2.56,2.56,0,0,0,2.69,2.69c1.88,0,3.25-1.37,3.25-3.73,0-4.8-5.75-6.51-5.75-10.63,0-2.92,2.86-5,6.48-5,1.32,0,4.52.28,4.52,3.37C84.9,68,84,69.16,82.6,69.16Z"/><path class="cls-1" d="M89.64,88.06c-5,0-8.27-3.28-8.27-8.35,0-5.76,3.56-13.88,11.47-13.88,4.24,0,7,2.59,7,6.59a9,9,0,0,1-.57,3.16A3.9,3.9,0,0,1,100.66,81C97.77,85.69,94.06,88.06,89.64,88.06Z"/><path class="cls-1" d="M91.43,81.81c2.22,0,3.56-1.23,5-2.83h1c-1.6,2.58-4,5.19-7.71,5.19-2.64,0-4.38-1.29-4.38-4.46s1.82-10,7.57-10c2.5,0,3.09,1.29,3.09,2.69,0,3.23-3.09,5.72-6.45,5.92,0,.39-.06.79-.06,1.12C89.42,81.36,90.09,81.81,91.43,81.81Zm1.63-10.6c-1.43,0-2.81,3-3.37,5.78a4.7,4.7,0,0,0,4.07-4.63C93.76,71.66,93.59,71.21,93.06,71.21Z"/><path class="cls-1" d="M113.45,88.06a7.54,7.54,0,0,1-4.4-1.31,3.89,3.89,0,0,1-2.75,1.14h-4a3.9,3.9,0,0,1-1.44-.28,3.88,3.88,0,0,1-1.44.28h-4a3.9,3.9,0,0,1-3.81-4.7l3-14a3.9,3.9,0,0,1,3.81-3.09h4a3.89,3.89,0,0,1,1,.13,8.47,8.47,0,0,1,2.13-.27,7.19,7.19,0,0,1,3.36.78,8,8,0,0,1,3.43-.75,6.73,6.73,0,0,1,7,7.06,13,13,0,0,1-.19,2.07,3.89,3.89,0,0,1,3.29,5.13C120.15,86.7,116.29,88.06,113.45,88.06Z"/><path class="cls-1" d="M110.4,72.41c-1,0-1.77,1.18-2.19,2.58l-1.91,9h-4l2-9.68a2.81,2.81,0,0,0,.08-.7c0-.62-.22-1.23-.84-1.23-1.09,0-1.85,1.21-2.27,2.61l-1.91,9h-4l3-14h4L102,71.43a4.31,4.31,0,0,1,3.42-1.6,2.65,2.65,0,0,1,2.89,2.41,4.44,4.44,0,0,1,3.9-2.38A2.84,2.84,0,0,1,115.36,73c0,2.27-1.35,5.67-1.35,7.24,0,.7.28,1.18,1.12,1.18,1.23,0,1.74-1,2.36-2.47h1.18c-1.57,4.6-3.73,5.19-5.22,5.19A3,3,0,0,1,110.14,81c0-1.91,1.26-5.36,1.26-7.15C111.4,72.92,111.07,72.41,110.4,72.41Z"/><path class="cls-1" d="M127.78,88.06a6.85,6.85,0,0,1-3.34-.82,8.13,8.13,0,0,1-3.59.82c-3.8,0-7.63-2.6-7.63-8.41,0-5.53,3.53-13.71,11.1-13.71a8.28,8.28,0,0,1,1.88.2,3.93,3.93,0,0,1,.7-.06h4a3.9,3.9,0,0,1,3.81,4.7l-.92,4.32a3.9,3.9,0,0,1,3.25,5.16C134.73,87,130.24,88.06,127.78,88.06Z"/><path class="cls-1" d="M131,70l-2,9.54a3.9,3.9,0,0,0-.11.9c0,.79.36,1.21,1.15,1.21,1.09,0,1.85-1.23,2.27-2.64h1.18c-1.6,4.57-4.12,5.19-5.64,5.19A2.58,2.58,0,0,1,125,81.58a5.08,5.08,0,0,1-4.18,2.58c-1.91,0-3.73-1.18-3.73-4.52,0-3.79,2.33-9.82,7.21-9.82,1.6,0,2.27.62,2.27,1.43v.2l.31-1.49Zm-9.68,9.28c0,2.16.9,2.19,1.4,2.19A2.82,2.82,0,0,0,125,79l1.35-6.34a1.09,1.09,0,0,0-1.15-1.07C122.82,71.57,121.28,76.62,121.28,79.26Z"/><path class="cls-1" d="M135,88.06c-4.06,0-6.9-3-6.9-7.26a12.89,12.89,0,0,1,.31-2.62l1.91-9a3.89,3.89,0,0,1,.65-1.47,6.13,6.13,0,1,1,12.08-1.45,6.05,6.05,0,0,1-1,3.34,3.9,3.9,0,0,1-.06,1.2l-.91,4.31a3.89,3.89,0,0,1,3.5,5.18C142.13,87.3,137.08,88.06,135,88.06Z"/><path class="cls-1" d="M138.19,70l-2,9.54a3.9,3.9,0,0,0-.11.9c0,.79.36,1,1.15,1,1.09,0,2.1-1.07,2.52-2.47h1.18c-1.6,4.57-4.38,5.19-5.89,5.19-1.68,0-3-1-3-3.37a9.22,9.22,0,0,1,.22-1.82l1.91-9Zm-1.26-6a2.25,2.25,0,0,1,2.24,2.24,2.23,2.23,0,0,1-2.24,2.22,2.2,2.2,0,0,1-2.22-2.22A2.23,2.23,0,0,1,136.93,64Z"/><path class="cls-1" d="M149.86,88.06a7.54,7.54,0,0,1-4.4-1.31,3.89,3.89,0,0,1-2.75,1.14h-4a3.9,3.9,0,0,1-3.81-4.7l3-14a3.9,3.9,0,0,1,3.81-3.09h4a3.89,3.89,0,0,1,1,.13,8.13,8.13,0,0,1,2-.24,6.73,6.73,0,0,1,7,7.06,13,13,0,0,1-.19,2.07,3.89,3.89,0,0,1,3.29,5.13C156.55,86.7,152.7,88.06,149.86,88.06Z"/><path class="cls-1" d="M146.8,72.41c-1,0-1.77,1.18-2.19,2.58l-1.91,9h-4l3-14h4l-.31,1.46a4.17,4.17,0,0,1,3.28-1.57A2.84,2.84,0,0,1,151.77,73c0,2.27-1.35,5.67-1.35,7.24,0,.7.28,1.18,1.12,1.18,1.23,0,1.74-1,2.36-2.47h1.18c-1.57,4.6-3.73,5.19-5.22,5.19A3,3,0,0,1,146.55,81c0-1.91,1.26-5.36,1.26-7.15C147.81,72.92,147.47,72.41,146.8,72.41Z"/><path class="cls-1" d="M157.85,88.06c-5,0-8.24-3.28-8.24-8.35,0-5.76,3.56-13.88,11.47-13.88,4.24,0,7,2.59,7,6.59a9.18,9.18,0,0,1-2,5.66,3.89,3.89,0,0,1,.46,2.65C165.69,85.32,162.44,88.06,157.85,88.06Z"/><path class="cls-1" d="M159.39,81.5A5.73,5.73,0,0,0,162.7,80c-.59,3.2-2.61,4.15-4.85,4.15-2.61,0-4.35-1.29-4.35-4.46s1.82-10,7.57-10c2.5,0,3.09,1.29,3.09,2.69,0,3.25-3.09,5.72-6.45,5.92,0,.28-.06.59-.06.84C157.66,80.94,158.41,81.5,159.39,81.5Zm1.91-10.29c-1.4,0-2.81,3.11-3.39,5.78a4.66,4.66,0,0,0,4.1-4.63C162,71.66,161.83,71.21,161.3,71.21Z"/><path class="cls-1" d="M173.61,88.06c-3.8,0-7.63-2.6-7.63-8.41,0-5.39,3.36-13.31,10.55-13.7l.39-1.84a3.89,3.89,0,0,1,3.29-3l4.15-.56a3.85,3.85,0,0,1,.52,0,3.9,3.9,0,0,1,3.81,4.71l-2.11,9.93a3.89,3.89,0,0,1,3.24,5.16c-2.21,6.31-6.28,7.63-9.31,7.63a6.88,6.88,0,0,1-3.16-.74A8.07,8.07,0,0,1,173.61,88.06Z"/><path class="cls-1" d="M184.89,64.36l-3.23,15.15a3.9,3.9,0,0,0-.11.9c0,.79.36,1,1.15,1,1.09,0,1.85-1.07,2.27-2.47h1.18c-1.6,4.57-4.12,5-5.64,5a2.58,2.58,0,0,1-2.75-2.41,5,5,0,0,1-4.15,2.58c-1.91,0-3.73-1.18-3.73-4.52,0-3.79,2.33-9.82,7.21-9.82,1.6,0,2.27.62,2.27,1.43v.11l1.37-6.45ZM177.74,79l1.37-6.42a1.11,1.11,0,0,0-1.15-1c-2.38,0-3.93,5-3.93,7.69,0,2.16.9,2.19,1.4,2.19a2.77,2.77,0,0,0,2.3-2.33Z"/><path class="cls-1" d="M194.68,88.06a6.69,6.69,0,0,1-3.29-.83,8.14,8.14,0,0,1-3.64.83c-4.06,0-6.9-3-6.9-7.26a12.9,12.9,0,0,1,.31-2.62l1.91-9a3.9,3.9,0,0,1,3.81-3.09h4a3.9,3.9,0,0,1,1.44.28,3.88,3.88,0,0,1,1.44-.28h4a3.89,3.89,0,0,1,3.81,4.7l-1.56,7.36.08.06a3.9,3.9,0,0,1,1.5,3.35A6.79,6.79,0,0,1,194.68,88.06Z"/><path class="cls-1" d="M190.92,70l-2,9.54a3,3,0,0,0-.08.7c0,.65.2,1.23.84,1.23,1.09,0,1.82-1.07,2.24-2.47l1.91-9h4l-2,9.54a3.9,3.9,0,0,0-.11.9c0,.79.36,1,1.15,1a2.15,2.15,0,0,0,.93-.17,2.94,2.94,0,0,1-3.11,2.89,2.7,2.7,0,0,1-2.75-2.66c-1.4,2.3-3,2.66-4.18,2.66-1.68,0-3-1-3-3.37A9.22,9.22,0,0,1,185,79l1.91-9Z"/><path class="cls-9" d="M82.6,69.16a1.6,1.6,0,0,1-1.29-.59,2.94,2.94,0,0,0,1.26-2.41c0-1-.53-1.88-2.08-1.88a2.35,2.35,0,0,0-2.58,2.55c0,4.12,6.31,4.68,6.31,10.74,0,4.71-3.81,7-7.88,7-3.2,0-5.95-1.4-5.95-4.82a4.27,4.27,0,0,1,4.12-4.6c1,0,2.38.39,2.47,1.85-1.51,0-3.28.7-3.28,2.64a2.56,2.56,0,0,0,2.69,2.69c1.88,0,3.25-1.37,3.25-3.73,0-4.8-5.75-6.51-5.75-10.63,0-2.92,2.86-5,6.48-5,1.32,0,4.52.28,4.52,3.37C84.9,68,84,69.16,82.6,69.16Z"/><path class="cls-9" d="M91.43,81.81c2.22,0,3.56-1.23,5-2.83h1c-1.6,2.58-4,5.19-7.71,5.19-2.64,0-4.38-1.29-4.38-4.46s1.82-10,7.57-10c2.5,0,3.09,1.29,3.09,2.69,0,3.23-3.09,5.72-6.45,5.92,0,.39-.06.79-.06,1.12C89.42,81.36,90.09,81.81,91.43,81.81Zm1.63-10.6c-1.43,0-2.8,3-3.37,5.78a4.7,4.7,0,0,0,4.07-4.63C93.76,71.66,93.59,71.21,93.06,71.21Z"/><path class="cls-9" d="M110.39,72.41c-1,0-1.77,1.18-2.19,2.58l-1.91,9h-4l2-9.68a2.82,2.82,0,0,0,.08-.7c0-.62-.22-1.23-.84-1.23-1.09,0-1.85,1.21-2.27,2.61l-1.91,9h-4l3-14h4L102,71.43a4.31,4.31,0,0,1,3.42-1.6,2.65,2.65,0,0,1,2.89,2.41,4.44,4.44,0,0,1,3.9-2.38A2.84,2.84,0,0,1,115.36,73c0,2.27-1.35,5.67-1.35,7.24,0,.7.28,1.18,1.12,1.18,1.23,0,1.74-1,2.36-2.47h1.18c-1.57,4.6-3.73,5.19-5.22,5.19A3,3,0,0,1,110.14,81c0-1.91,1.26-5.36,1.26-7.15C111.4,72.92,111.07,72.41,110.39,72.41Z"/><path class="cls-9" d="M131,70l-2,9.54a3.9,3.9,0,0,0-.11.9c0,.79.36,1.21,1.15,1.21,1.09,0,1.85-1.23,2.27-2.64h1.18c-1.6,4.57-4.12,5.19-5.64,5.19A2.58,2.58,0,0,1,125,81.59a5.07,5.07,0,0,1-4.18,2.58c-1.91,0-3.73-1.18-3.73-4.52,0-3.79,2.33-9.82,7.21-9.82,1.6,0,2.27.62,2.27,1.43v.2l.31-1.49Zm-9.68,9.28c0,2.16.9,2.19,1.4,2.19A2.82,2.82,0,0,0,125,79l1.35-6.34a1.09,1.09,0,0,0-1.15-1.07C122.82,71.57,121.28,76.62,121.28,79.26Z"/><path class="cls-9" d="M138.19,70l-2,9.54a3.9,3.9,0,0,0-.11.9c0,.79.36,1,1.15,1,1.09,0,2.1-1.07,2.52-2.47h1.18c-1.6,4.57-4.37,5.19-5.89,5.19-1.68,0-3-1-3-3.37a9.21,9.21,0,0,1,.22-1.82l1.91-9Zm-1.26-6a2.25,2.25,0,0,1,2.24,2.24,2.23,2.23,0,0,1-2.24,2.22,2.2,2.2,0,0,1-2.22-2.22A2.23,2.23,0,0,1,136.93,64Z"/><path class="cls-9" d="M146.8,72.41c-1,0-1.77,1.18-2.19,2.58l-1.91,9h-4l3-14h4l-.31,1.46a4.17,4.17,0,0,1,3.28-1.57A2.84,2.84,0,0,1,151.76,73c0,2.27-1.35,5.67-1.35,7.24,0,.7.28,1.18,1.12,1.18,1.23,0,1.74-1,2.36-2.47h1.18c-1.57,4.6-3.73,5.19-5.22,5.19A3,3,0,0,1,146.55,81c0-1.91,1.26-5.36,1.26-7.15C147.81,72.92,147.47,72.41,146.8,72.41Z"/><path class="cls-9" d="M159.39,81.5A5.73,5.73,0,0,0,162.7,80c-.59,3.2-2.61,4.15-4.85,4.15-2.61,0-4.35-1.29-4.35-4.46s1.82-10,7.57-10c2.5,0,3.08,1.29,3.08,2.69,0,3.25-3.08,5.72-6.45,5.92,0,.28-.06.59-.06.84C157.66,80.94,158.41,81.5,159.39,81.5Zm1.91-10.29c-1.4,0-2.8,3.11-3.39,5.78A4.66,4.66,0,0,0,162,72.36C162,71.66,161.83,71.21,161.3,71.21Z"/><path class="cls-9" d="M184.89,64.37l-3.22,15.14a3.85,3.85,0,0,0-.11.9c0,.79.36,1,1.15,1,1.09,0,1.85-1.07,2.27-2.47h1.18c-1.6,4.57-4.12,5-5.64,5a2.57,2.57,0,0,1-2.75-2.41,5,5,0,0,1-4.15,2.58c-1.91,0-3.73-1.18-3.73-4.52,0-3.79,2.33-9.82,7.21-9.82,1.6,0,2.27.62,2.27,1.43v.11l1.37-6.45ZM177.74,79l1.37-6.42a1.11,1.11,0,0,0-1.15-1c-2.38,0-3.93,5-3.93,7.68,0,2.16.9,2.19,1.4,2.19a2.77,2.77,0,0,0,2.3-2.33Z"/><path class="cls-9" d="M190.92,70l-2,9.54a3,3,0,0,0-.08.7c0,.65.2,1.23.84,1.23,1.09,0,1.82-1.07,2.24-2.47l1.91-9h4l-2,9.54a3.9,3.9,0,0,0-.11.9c0,.79.37,1,1.15,1a2.15,2.15,0,0,0,.92-.17,2.93,2.93,0,0,1-3.11,2.89,2.7,2.7,0,0,1-2.75-2.66c-1.4,2.3-3,2.66-4.18,2.66-1.68,0-3-1-3-3.37A9.17,9.17,0,0,1,185,79l1.91-9Z"/><path class="cls-10" d="M304.09,165.13V74.57h32.53a67.29,67.29,0,0,1,15,1.52,33.19,33.19,0,0,1,11.23,4.63,20.94,20.94,0,0,1,7,7.81,23.75,23.75,0,0,1,2.42,11,26,26,0,0,1-.68,6,19.17,19.17,0,0,1-2.21,5.44,17.86,17.86,0,0,1-4,4.57,20.23,20.23,0,0,1-5.91,3.33,20.8,20.8,0,0,1,6.84,3,17.72,17.72,0,0,1,4.54,4.6,18.35,18.35,0,0,1,2.52,5.63,24.49,24.49,0,0,1,.78,6.13q0,13.44-8.58,20.12t-25.44,6.69Zm21.83-52.81h11.38q7.15-.06,10.2-2.61t3-7.53q0-5.72-3.3-8.24t-10.64-2.52h-10.7Zm0,14.31v21.71h14.31a17.26,17.26,0,0,0,5.63-.81,10.23,10.23,0,0,0,3.79-2.21,8.56,8.56,0,0,0,2.15-3.27,11.65,11.65,0,0,0,.68-4,16.75,16.75,0,0,0-.62-4.73,8.77,8.77,0,0,0-2-3.58,9.12,9.12,0,0,0-3.55-2.27,15.26,15.26,0,0,0-5.29-.81Z"/><path class="cls-10" d="M425.38,157.85a22.31,22.31,0,0,1-7.65,6.28,22.8,22.8,0,0,1-10.33,2.24,28.29,28.29,0,0,1-9.11-1.4,17.7,17.7,0,0,1-7.09-4.42,20.48,20.48,0,0,1-4.6-7.77A35,35,0,0,1,385,141.37V97.83h21v43.66q0,4.48,2.15,6.59t6.25,2.11a13,13,0,0,0,6.38-1.37,10.2,10.2,0,0,0,3.89-3.79V97.83h21.08v67.3H426Z"/><path class="cls-10" d="M497.84,116.8l-1.52-.16q-.9-.09-1.87-.16l-1.9-.12c-.62,0-1.16-.06-1.62-.06a18.61,18.61,0,0,0-8.15,1.52,9.36,9.36,0,0,0-4.54,4.7v42.61h-21V97.83h19.66l.68,8.65a20.48,20.48,0,0,1,6.19-7.28,14.46,14.46,0,0,1,8.55-2.61,25.3,25.3,0,0,1,3.08.19,16.7,16.7,0,0,1,2.77.56Z"/><path class="cls-10" d="M501.76,131a48.68,48.68,0,0,1,1.9-14,32.33,32.33,0,0,1,5.47-10.88,24.64,24.64,0,0,1,8.71-7,26.11,26.11,0,0,1,11.54-2.49,22.54,22.54,0,0,1,9.67,1.87,19.56,19.56,0,0,1,6.75,5.22l.75-5.85h19v64.69A29.51,29.51,0,0,1,563.09,175a25.3,25.3,0,0,1-7,9.11,31.24,31.24,0,0,1-10.82,5.63,47.69,47.69,0,0,1-14,1.93,38.57,38.57,0,0,1-6.94-.65A37.85,37.85,0,0,1,517.5,189a34,34,0,0,1-6.19-3.14,21.37,21.37,0,0,1-4.95-4.35l8.77-12.32a20.61,20.61,0,0,0,6.34,4.91,19.55,19.55,0,0,0,9.08,2q6.84,0,10.39-3.58t3.55-10.17v-2.67a20.48,20.48,0,0,1-6.59,4.91,20.25,20.25,0,0,1-8.65,1.74,25.13,25.13,0,0,1-11.51-2.58,25.38,25.38,0,0,1-8.65-7.12,32.79,32.79,0,0,1-5.44-10.79,46.58,46.58,0,0,1-1.9-13.59Zm21,1.31a32.92,32.92,0,0,0,.72,7.06,18.67,18.67,0,0,0,2.18,5.69,11,11,0,0,0,3.7,3.79,9.82,9.82,0,0,0,5.23,1.37,13.55,13.55,0,0,0,6-1.18,9.93,9.93,0,0,0,3.92-3.36v-28.3a9.83,9.83,0,0,0-3.89-3.42,13.21,13.21,0,0,0-5.88-1.18,9.71,9.71,0,0,0-5.16,1.37,11.2,11.2,0,0,0-3.73,3.83,19.73,19.73,0,0,0-2.27,5.78,31.82,31.82,0,0,0-.78,7.25Z"/><path class="cls-10" d="M610.05,166.37a38.93,38.93,0,0,1-14.68-2.61,31.76,31.76,0,0,1-10.88-7.09,30.67,30.67,0,0,1-6.75-10.39,33.89,33.89,0,0,1-2.33-12.56v-2.36a45.14,45.14,0,0,1,2-13.71,30.63,30.63,0,0,1,6.1-11,28.52,28.52,0,0,1,10.14-7.34,34.82,34.82,0,0,1,14.15-2.67,34,34,0,0,1,12.84,2.3,26.3,26.3,0,0,1,9.64,6.59,29,29,0,0,1,6,10.39,42.16,42.16,0,0,1,2.08,13.68v8.52H596.74a15.11,15.11,0,0,0,4.91,8.89,14.62,14.62,0,0,0,9.83,3.23,23,23,0,0,0,8.43-1.62,17,17,0,0,0,7.12-5.35l9.58,11.32a24.4,24.4,0,0,1-4.14,4.35,28.84,28.84,0,0,1-5.88,3.76,37.48,37.48,0,0,1-16.54,3.7Zm-2.36-53.62a10.47,10.47,0,0,0-4.6.93,9,9,0,0,0-3.2,2.55,12.6,12.6,0,0,0-2,3.86,27.71,27.71,0,0,0-1.12,4.85h21.15v-1.62q.12-5-2.55-7.81T607.69,112.76Z"/><path class="cls-10" d="M687.55,116.8l-1.52-.16q-.9-.09-1.87-.16l-1.9-.12c-.62,0-1.16-.06-1.62-.06a18.61,18.61,0,0,0-8.15,1.52,9.36,9.36,0,0,0-4.54,4.7v42.61H647V97.83h19.66l.68,8.65a20.48,20.48,0,0,1,6.19-7.28,14.46,14.46,0,0,1,8.55-2.61,25.3,25.3,0,0,1,3.08.19,16.7,16.7,0,0,1,2.77.56Z"/><path class="cls-11" d="M766.24,131.36l10.39-56.79h21.64L779,165.13H756.41L744.28,113.5,732.4,165.13H709.82L690.54,74.57h21.71l10.39,56.79,12.44-56.79h18.54Z"/><path class="cls-11" d="M836.46,166.37a38.93,38.93,0,0,1-14.68-2.61,31.76,31.76,0,0,1-10.88-7.09,30.67,30.67,0,0,1-6.75-10.39,33.89,33.89,0,0,1-2.33-12.56v-2.36a45.14,45.14,0,0,1,2-13.71,30.63,30.63,0,0,1,6.1-11,28.52,28.52,0,0,1,10.14-7.34,34.82,34.82,0,0,1,14.15-2.67,34,34,0,0,1,12.84,2.3,26.3,26.3,0,0,1,9.64,6.59,29,29,0,0,1,6,10.39,42.16,42.16,0,0,1,2.08,13.68v8.52H823.15a15.11,15.11,0,0,0,4.91,8.89,14.62,14.62,0,0,0,9.83,3.23,23,23,0,0,0,8.43-1.62,17,17,0,0,0,7.12-5.35L863,154.56a24.4,24.4,0,0,1-4.14,4.35,28.84,28.84,0,0,1-5.88,3.76,37.48,37.48,0,0,1-16.54,3.7Zm-2.36-53.62a10.47,10.47,0,0,0-4.6.93,9,9,0,0,0-3.2,2.55,12.6,12.6,0,0,0-2,3.86,27.71,27.71,0,0,0-1.12,4.85H844.3v-1.62q.12-5-2.55-7.81T834.09,112.76Z"/><path class="cls-11" d="M905.81,166.37a38.93,38.93,0,0,1-14.68-2.61,31.76,31.76,0,0,1-10.88-7.09,30.67,30.67,0,0,1-6.75-10.39,33.89,33.89,0,0,1-2.33-12.56v-2.36a45.14,45.14,0,0,1,2-13.71,30.63,30.63,0,0,1,6.1-11,28.52,28.52,0,0,1,10.14-7.34,34.82,34.82,0,0,1,14.15-2.67,34,34,0,0,1,12.84,2.3,26.3,26.3,0,0,1,9.64,6.59,29,29,0,0,1,6,10.39,42.16,42.16,0,0,1,2.08,13.68v8.52H892.5a15.11,15.11,0,0,0,4.91,8.89,14.62,14.62,0,0,0,9.83,3.23,23,23,0,0,0,8.43-1.62,17,17,0,0,0,7.12-5.35l9.58,11.32a24.4,24.4,0,0,1-4.14,4.35,28.84,28.84,0,0,1-5.88,3.76,37.48,37.48,0,0,1-16.54,3.7Zm-2.36-53.62a10.47,10.47,0,0,0-4.6.93,9,9,0,0,0-3.2,2.55,12.6,12.6,0,0,0-2,3.86,27.71,27.71,0,0,0-1.12,4.85h21.15v-1.62q.12-5-2.55-7.81T903.45,112.76Z"/><path class="cls-11" d="M969.63,140.06,963.72,146v19.16h-21V69.53h21v50.75l2.12-2.8,15.8-19.66h25.13l-23.57,27.68,25.13,39.62h-24Z"/></g></g></svg>