<?xml version="1.0" encoding="utf-8"?>
<!-- Generator: Adobe Illustrator 21.1.0, SVG Export Plug-In . SVG Version: 6.00 Build 0)  -->
<svg version="1.1" xmlns="http://www.w3.org/2000/svg" xmlns:xlink="http://www.w3.org/1999/xlink" x="0px" y="0px"
	 viewBox="0 0 1150 232.1" style="enable-background:new 0 0 1150 232.1;" xml:space="preserve">
<style type="text/css">
	.st0{fill:#FFFFFF;}
	.st1{fill:#AB7029;}
	.st2{fill:#9C6226;}
	.st3{fill:#B32029;}
	.st4{fill:#FAA21E;}
	.st5{fill:#A9AE38;}
	.st6{fill:#6D1F11;stroke:#FFFFFF;stroke-width:5.6725;stroke-linecap:round;stroke-linejoin:round;stroke-miterlimit:10;}
	.st7{fill:#6D1F11;stroke:#FFFFFF;stroke-width:4.8468;stroke-linecap:round;stroke-linejoin:round;stroke-miterlimit:10;}
	.st8{fill:#411F1F;}
	.st9{fill:#FDA41B;}
	.st10{fill:#C7122E;}
	.st11{fill:#BE2F2C;}
	.st12{fill:#EE1F36;}
	.st13{clip-path:url(#SVGID_2_);}
	.st14{fill:#EE1F37;}
	.st15{fill:#F05528;}
	.st16{fill:#82CAE8;}
	.st17{fill:#74BB44;}
	.st18{fill:#457BBF;}
	.st19{fill:#E1E440;}
	.st20{fill:#37ADE3;}
	.st21{fill:#F05C5F;}
	.st22{fill:#F99C33;}
	.st23{fill:#FED535;}
	.st24{fill:#513939;}
</style>
<g id="logo">
	<title>loog-full</title>
	<g id="Layer_2">
		<g>
			<polygon class="st0" points="177.6,25.7 187.5,28.3 179,60.2 166.5,67.1 			"/>
			<g>
				<path class="st0" d="M98.4,212.6c-15.7,0-30.5-0.1-42.1-4.6c-14.3-5.6-21.7-17.2-21.8-34.5l-3.4,0.2c-0.2,0-0.3,0-0.5,0
					c-2.2,0-4.4-0.8-6-2.3c-1.8-1.6-2.9-3.9-3-6.2l-0.3-5.3c-0.1-1.4,0.2-2.7,0.7-3.9l-0.1-2.6c-0.2-3.8,2-7.2,5.3-8.7
					c0-0.5,0.1-0.9,0.2-1.4l6-25.2c-11-1.8-15-9.7-15-17.1c0-9.6,6.1-18.7,16.3-25.1C34.8,40.5,72.9,2.9,143.3,3
					c31.9,0.1,59.1,7.9,78.8,22.6c18,13.5,28.3,32,28.3,50.7v3.9c0,0.2,0,0.5,0,0.7v12.3h1.3c1.3,0,2.6,0.3,3.8,0.9
					c1.7-0.5,3.6-0.8,5.6-0.8c8.4,0,15,6.9,15,15.6c0,8.8-6.6,15.4-15.4,15.4c-1.1,0-2.7-0.1-4.4-0.7l-1.8,8.7l2.4-0.1
					c0.2,0,0.3,0,0.5,0c2.2,0,4.4,0.8,6,2.3c1.8,1.6,2.9,3.9,3,6.2l0.1,2.6c0.6,1.2,1,2.5,1.1,3.9l0.3,5.3c0.1,2.4-0.7,4.7-2.3,6.5
					s-3.9,2.9-6.3,3l-3.4,0.2c-0.3,0-0.5,0-0.6,0.1c-0.3,0.2-1,0.7-1.5,1c-1,0.7-2.1,1.5-3.6,2.4v7.8c0,17.7-7.4,29.5-22,35
					c-11.6,4.5-26.5,4.4-42.2,4.4L98.4,212.6z"/>
				<path class="st1" d="M241.2,76.1C241.2,45.7,208,12,143,12c-64.9,0-99.4,33.7-99.4,64.1v4.6h197.6L241.2,76.1L241.2,76.1z"/>
				<g>
					<path class="st2" d="M121.7,20.9h-6.4c-0.3,0-0.6,0.2-0.7,0.5c-0.1,0.2-0.2,0.7-0.2,1.4c0,0.7,0.2,1.1,0.2,1.4
						c0.1,0.3,0.4,0.5,0.7,0.5h6.4c0.3,0,0.6-0.2,0.7-0.5c0.1-0.2,0.2-0.7,0.2-1.4c0-0.7-0.1-1.1-0.2-1.4
						C122.3,21.1,122,20.9,121.7,20.9z"/>
					<path class="st2" d="M145.7,20.9h-6.4c-0.3,0-0.6,0.2-0.7,0.5c-0.1,0.2-0.2,0.7-0.2,1.4c0,0.7,0.1,1.1,0.2,1.4
						c0.1,0.3,0.4,0.5,0.7,0.5h6.4c0.3,0,0.6-0.2,0.7-0.5c0.1-0.2,0.2-0.7,0.2-1.4c0-0.7-0.1-1.1-0.2-1.4S146,20.9,145.7,20.9z"/>
					<path class="st2" d="M169.7,20.9h-6.4c-0.3,0-0.6,0.2-0.7,0.5c-0.1,0.2-0.2,0.7-0.2,1.4c0,0.7,0.2,1.1,0.2,1.4
						c0.1,0.3,0.4,0.5,0.7,0.5h6.4c0.3,0,0.6-0.2,0.7-0.5c0.1-0.2,0.2-0.7,0.2-1.4c0-0.7-0.1-1.1-0.2-1.3
						C170.4,21.1,170.1,20.9,169.7,20.9z"/>
					<path class="st2" d="M109.7,35.3h-6.4c-0.3,0-0.6,0.2-0.7,0.5c-0.1,0.2-0.2,0.7-0.2,1.4s0.1,1.1,0.2,1.4
						c0.1,0.3,0.4,0.5,0.7,0.5h6.4c0.3,0,0.6-0.2,0.7-0.5c0.1-0.2,0.2-0.7,0.2-1.4s-0.1-1.1-0.2-1.4C110.3,35.5,110,35.3,109.7,35.3
						z"/>
					<path class="st2" d="M133.7,35.3h-6.4c-0.3,0-0.6,0.2-0.7,0.5c-0.1,0.2-0.2,0.7-0.2,1.4s0.1,1.1,0.2,1.4
						c0.1,0.3,0.4,0.5,0.7,0.5h6.4c0.3,0,0.6-0.2,0.7-0.5c0.1-0.2,0.2-0.7,0.2-1.4s-0.1-1.1-0.2-1.4C134.3,35.5,134,35.3,133.7,35.3
						z"/>
					<path class="st2" d="M85.7,35.3h-6.4c-0.3,0-0.6,0.2-0.7,0.5c-0.1,0.2-0.2,0.7-0.2,1.4s0.1,1.1,0.2,1.4
						c0.1,0.3,0.4,0.5,0.7,0.5h6.4c0.3,0,0.6-0.2,0.7-0.5c0.1-0.2,0.2-0.7,0.2-1.4s-0.2-1.1-0.2-1.4C86.3,35.5,86.1,35.3,85.7,35.3z
						"/>
					<path class="st2" d="M157.7,35.3h-6.4c-0.3,0-0.6,0.2-0.7,0.5c-0.1,0.2-0.2,0.7-0.2,1.4s0.1,1.1,0.2,1.4
						c0.1,0.3,0.4,0.5,0.7,0.5h6.4c0.3,0,0.6-0.2,0.7-0.5c0.1-0.2,0.2-0.7,0.2-1.4s-0.1-1.1-0.2-1.4C158.3,35.5,158,35.3,157.7,35.3
						z"/>
					<path class="st2" d="M181.7,35.3h-6.4c-0.3,0-0.6,0.2-0.7,0.5c-0.1,0.2-0.2,0.7-0.2,1.3c0,0.7,0.1,1.1,0.2,1.3
						c0.1,0.3,0.4,0.5,0.7,0.5h6.4c0.3,0,0.6-0.2,0.7-0.5c0.1-0.2,0.2-0.7,0.2-1.4s-0.1-1.1-0.2-1.4C182.3,35.5,182,35.3,181.7,35.3
						z"/>
					<path class="st2" d="M205.7,35.3h-6.4c-0.3,0-0.6,0.2-0.7,0.5c-0.1,0.2-0.2,0.7-0.2,1.3c0,0.7,0.2,1.1,0.2,1.4
						c0.1,0.3,0.4,0.5,0.7,0.5h6.4c0.3,0,0.6-0.2,0.7-0.5c0.1-0.2,0.2-0.7,0.2-1.3c0-0.7-0.1-1.1-0.2-1.4
						C206.3,35.5,206,35.3,205.7,35.3z"/>
					<path class="st2" d="M121.7,50.2h-6.4c-0.3,0-0.6,0.2-0.7,0.5c-0.1,0.2-0.2,0.7-0.2,1.4s0.2,1.1,0.2,1.4
						c0.1,0.3,0.4,0.5,0.7,0.5h6.4c0.3,0,0.6-0.2,0.7-0.5c0.1-0.2,0.2-0.7,0.2-1.4s-0.1-1.1-0.2-1.4C122.3,50.4,122,50.2,121.7,50.2
						z"/>
					<path class="st2" d="M145.7,50.2h-6.4c-0.3,0-0.6,0.2-0.7,0.5c-0.1,0.2-0.2,0.7-0.2,1.4s0.1,1.1,0.2,1.4
						c0.1,0.3,0.4,0.5,0.7,0.5h6.4c0.3,0,0.6-0.2,0.7-0.5c0.1-0.2,0.2-0.7,0.2-1.4s-0.1-1.1-0.2-1.4C146.3,50.4,146,50.2,145.7,50.2
						z"/>
					<path class="st2" d="M169.7,50.2h-6.4c-0.3,0-0.6,0.2-0.7,0.5c-0.1,0.2-0.2,0.7-0.2,1.4s0.2,1.1,0.2,1.4
						c0.1,0.3,0.4,0.5,0.7,0.5h6.4c0.3,0,0.6-0.2,0.7-0.5c0.1-0.2,0.2-0.7,0.2-1.4s-0.1-1.1-0.2-1.3
						C170.4,50.4,170.1,50.2,169.7,50.2z"/>
					<path class="st2" d="M133.7,64.5h-6.4c-0.3,0-0.6,0.2-0.7,0.5c-0.1,0.2-0.2,0.7-0.2,1.4c0,0.7,0.1,1.1,0.2,1.4s0.4,0.5,0.7,0.5
						h6.4c0.3,0,0.6-0.2,0.7-0.5c0.1-0.2,0.2-0.7,0.2-1.4c0-0.7-0.1-1.1-0.2-1.4S134,64.5,133.7,64.5z"/>
					<path class="st2" d="M157.7,64.5h-6.4c-0.3,0-0.6,0.2-0.7,0.5c-0.1,0.2-0.2,0.7-0.2,1.4c0,0.7,0.1,1.1,0.2,1.4
						c0.1,0.3,0.4,0.5,0.7,0.5h6.4c0.3,0,0.6-0.2,0.7-0.5c0.1-0.2,0.2-0.7,0.2-1.4c0-0.7-0.1-1.1-0.2-1.4S158,64.5,157.7,64.5z"/>
					<path class="st2" d="M193.5,50.2h-6.2c-0.3,0-0.6,0.2-0.7,0.5c-0.1,0.2-0.2,0.7-0.2,1.3c0,0.7,0.1,1.1,0.2,1.4
						c0.1,0.3,0.4,0.5,0.7,0.5h6.2c0.3,0,0.6-0.2,0.7-0.5c0.1-0.2,0.2-0.7,0.2-1.4s-0.1-1.1-0.2-1.3
						C194.2,50.4,193.9,50.2,193.5,50.2z"/>
					<path class="st2" d="M218.3,50.7c-0.1-0.3-0.4-0.5-0.7-0.5h-6.4c-0.3,0-0.6,0.2-0.7,0.5c-0.1,0.2-0.2,0.7-0.2,1.3
						c0,0.7,0.1,1.1,0.2,1.4c0.1,0.3,0.4,0.5,0.7,0.5h6.4c0.3,0,0.6-0.2,0.7-0.5c0.1-0.2,0.2-0.7,0.2-1.4
						C218.5,51.4,218.4,50.9,218.3,50.7z"/>
					<path class="st2" d="M205.7,64.5h-6.6c-0.3,0-0.6,0.2-0.7,0.5c-0.1,0.2-0.2,0.7-0.2,1.3c0,0.7,0.1,1.1,0.2,1.4
						c0.1,0.3,0.4,0.5,0.7,0.5h6.6c0.3,0,0.6-0.2,0.7-0.5c0.1-0.2,0.2-0.7,0.2-1.4c0-0.7-0.1-1.1-0.2-1.3
						C206.3,64.7,206,64.5,205.7,64.5z"/>
					<path class="st2" d="M181.6,64.5h-6.3c-0.3,0-0.6,0.2-0.7,0.5c-0.1,0.2-0.2,0.7-0.2,1.3c0,0.7,0.1,1.1,0.2,1.4
						c0.1,0.3,0.4,0.5,0.7,0.5h6.3c0.3,0,0.6-0.2,0.7-0.5c0.1-0.2,0.2-0.7,0.2-1.4c0-0.7-0.1-1.1-0.2-1.3
						C182.2,64.7,181.9,64.5,181.6,64.5z"/>
					<path class="st2" d="M73.7,50.2h-6.4c-0.3,0-0.6,0.2-0.7,0.5c-0.1,0.2-0.2,0.7-0.2,1.3c0,0.7,0.1,1.1,0.2,1.4
						c0.1,0.3,0.4,0.5,0.7,0.5h6.4c0.3,0,0.6-0.2,0.7-0.5c0.1-0.2,0.2-0.7,0.2-1.4s-0.1-1.1-0.2-1.4C74.3,50.4,74,50.2,73.7,50.2z"
						/>
					<path class="st2" d="M97.7,50.2h-6.4c-0.3,0-0.6,0.2-0.7,0.5c-0.1,0.2-0.2,0.7-0.2,1.3c0,0.7,0.1,1.1,0.2,1.4
						c0.1,0.3,0.4,0.5,0.7,0.5h6.4c0.3,0,0.6-0.2,0.7-0.5c0.1-0.2,0.2-0.7,0.2-1.4s-0.1-1.1-0.2-1.4C98.3,50.4,98,50.2,97.7,50.2z"
						/>
					<path class="st2" d="M85.6,64.5h-6.3c-0.3,0-0.6,0.2-0.7,0.5c-0.1,0.2-0.2,0.7-0.2,1.4c0,0.7,0.1,1.1,0.2,1.4s0.4,0.5,0.7,0.5
						h6.3c0.3,0,0.6-0.2,0.7-0.5c0.1-0.2,0.2-0.7,0.2-1.4c0-0.7-0.1-1.1-0.2-1.4S85.9,64.5,85.6,64.5z"/>
					<path class="st2" d="M110.1,64.7c-0.1-0.1-0.3-0.2-0.5-0.2h-6.4c-0.3,0-0.6,0.2-0.7,0.5c-0.1,0.2-0.2,0.7-0.2,1.4
						c0,0.7,0.1,1.1,0.2,1.4s0.4,0.5,0.7,0.5h6.4l0,0c0.3,0,0.6-0.2,0.7-0.5c0.1-0.2,0.2-0.7,0.2-1.4c0-0.7-0.1-1.1-0.2-1.4
						C110.3,64.9,110.2,64.8,110.1,64.7z"/>
				</g>
				<path class="st3" d="M241.2,101.9c0,1.9,0,3.4-1.9,3.4H45.5c-1.9,0-1.9-1.5-1.9-3.4v-6.7c0-1.9,0-3.4,1.9-3.4h193.7
					c1.9,0,1.9,1.5,1.9,3.4v6.7H241.2z"/>
				<rect x="43.6" y="83.6" class="st4" width="197.6" height="5.2"/>
				<polygon class="st4" points="171.5,85.4 142.9,102.6 113.3,85.4 				"/>
				<path class="st1" d="M43.6,168.5v4.6c0,30.4,24.6,30.5,55,30.5h87.6c30.4,0,55-0.2,55-30.5v-4.6H43.6z"/>
				<g>
					<path class="st5" d="M53.4,174.1c0,4.8,0.4,8.1,7,4.8s14.7-7.7,31.6-7.3c-6.2,1.8-13.6,5.1-14.3,9.5c-0.7,4.4,3.7,6.2,13.2,4
						c1.1,4,5.1,8.4,13.6,1.1c8.4-7.3,13.2-10.3,17.3-11.8c4-1.5,5.1,0.7,0.7,3.3s-8.4,4-9.2,7c-0.7,2.9,0,7.7,7.3,5.5
						c0,5.1,1.5,9.5,7.7,9.5s8.8-3.3,8.8-9.5c4,2.2,9.9,3.7,10.3-4.4c0.4-8.1,4-11.8,7.7-13.6s4.3,1.6,1.8,2.6
						c-3.3,1.3-4.7,3.7-4.8,6.2c-0.1,3.3,5.6,8.2,11.4,2.2c0.4,3.5,7,5.9,9.2-1.5c2.2-7.3,2.8-11.9,9.5-12.1
						c-4.6,1.7-7.3,8.4-1.5,10.7c5.9,2.2,8.8-3.3,9.5-5.1s2.6-5.9,8.1-5.5c-4.8,2.1-4.8,9.5,0,9.9s6.6-1.1,10.3-4.4
						c3.7-3.3,11-7,20.2-5.5c-1.8,4.8,1.5,6.7,4.5,6.1c3.6-0.7,3.3-4.7,4.4-7.3H49.5v0.1C46.6,170.5,44.6,178.2,53.4,174.1z"/>
				</g>
				<path class="st3" d="M33.7,157.6c3.5-0.2,5.1,0.7,7.7,2.2c3.1,1.8,7.3,4.2,14.9,3.8c7.5-0.4,11.5-3.3,14.4-5.4
					c2.4-1.7,3.8-2.8,7.4-3c3.5-0.2,5.1,0.7,7.7,2.2c3.1,1.8,7.3,4.2,14.9,3.8c7.5-0.4,11.5-3.3,14.4-5.4c2.4-1.7,3.8-2.8,7.4-3
					c3.5-0.2,5.1,0.7,7.7,2.2c3.1,1.8,7.3,4.2,14.9,3.8c7.5-0.4,11.5-3.3,14.4-5.4c2.4-1.7,3.8-2.8,7.4-3c3.6-0.2,5.1,0.7,7.7,2.2
					c3.1,1.8,7.4,4.2,14.9,3.8s11.5-3.3,14.4-5.4c2.4-1.7,3.8-2.8,7.4-3c3.6-0.2,5.1,0.7,7.7,2.2c3.1,1.8,7.4,4.2,14.9,3.8
					s11.5-3.3,14.4-5.4c2.4-1.7,3.8-2.8,7.4-3l2.5-0.1l-0.3-4.8l-2.5,0.1c-7.8,0.4-11.9,3.4-14.8,5.6c-2.3,1.7-3.6,2.6-6.9,2.8
					c-3.3,0.2-4.7-0.6-7.2-2.1c-3.2-1.8-7.6-4.4-15.4-3.9c-7.8,0.4-11.9,3.4-14.8,5.6c-2.3,1.7-3.6,2.6-6.9,2.8
					c-3.3,0.2-4.7-0.6-7.2-2.1c-3.2-1.8-7.6-4.3-15.3-3.9c-7.8,0.4-11.9,3.4-14.8,5.6c-2.3,1.7-3.6,2.6-6.9,2.8
					c-3.3,0.2-4.7-0.6-7.2-2.1c-3.2-1.8-7.6-4.3-15.4-3.9c-7.8,0.4-11.9,3.4-14.8,5.6c-2.3,1.7-3.6,2.6-6.9,2.8s-4.7-0.6-7.2-2
					c-3.2-1.8-7.6-4.4-15.4-3.9c-7.8,0.4-11.9,3.4-14.8,5.6c-2.3,1.7-3.6,2.6-6.9,2.8c-3.3,0.2-4.7-0.6-7.2-2
					c-3.2-1.8-7.6-4.4-15.3-3.9l-2.5,0.1l0.3,4.8L33.7,157.6z"/>
				<path class="st3" d="M248.7,150.1c-3.1,2.2-7.3,5.3-15.3,5.7s-12.5-2.2-15.8-4c-2.4-1.4-3.7-2.1-6.7-1.9c-3,0.2-4.2,1-6.4,2.6
					c-3.1,2.2-7.3,5.3-15.3,5.7s-12.5-2.2-15.8-4c-2.4-1.4-3.7-2.1-6.7-1.9c-3,0.2-4.2,1-6.4,2.6c-3.1,2.2-7.3,5.3-15.3,5.7
					s-12.5-2.2-15.8-4c-2.4-1.4-3.7-2.1-6.7-1.9c-3,0.2-4.2,1-6.4,2.6c-3.1,2.2-7.3,5.3-15.3,5.7s-12.5-2.2-15.8-4
					c-2.4-1.4-3.7-2.1-6.7-1.9c-3,0.2-4.2,1-6.4,2.6c-3.1,2.2-7.3,5.3-15.3,5.7s-12.5-2.2-15.8-4c-2.4-1.4-3.7-2.1-6.7-1.9l-3.4,0.2
					L31,165l3.4-0.2c3.3-0.2,4.7,0.6,7.2,2.1c3.2,1.8,7.6,4.3,15.4,3.9c7.8-0.4,11.9-3.4,14.8-5.6c2.3-1.7,3.6-2.6,6.9-2.8
					s4.7,0.6,7.2,2.1c3.2,1.8,7.6,4.3,15.4,3.9c7.8-0.4,11.9-3.4,14.8-5.6c2.3-1.7,3.6-2.6,6.9-2.8s4.7,0.6,7.2,2.1
					c3.2,1.8,7.6,4.3,15.3,3.9c7.8-0.4,11.9-3.4,14.8-5.6c2.3-1.7,3.6-2.6,6.9-2.8c3.3-0.2,4.7,0.6,7.2,2.1
					c3.2,1.8,7.6,4.4,15.4,3.9c7.8-0.4,11.9-3.4,14.8-5.6c2.3-1.7,3.6-2.6,6.9-2.8c3.3-0.2,4.7,0.6,7.2,2.1
					c3.2,1.8,7.6,4.3,15.4,3.9c7.8-0.4,11.9-3.4,14.8-5.6c2.3-1.7,3.6-2.6,6.9-2.8l3.4-0.2l-0.3-5.3l-3.4,0.2
					C252.1,147.6,251,148.4,248.7,150.1z"/>
				<path class="st6" d="M64.7,85.5L60,105.8h0.6c8,0,14.5-8,14.5-14.8c0-5.2-3.7-9.9-13.3-9.9c-11.8,0-25.1,7.1-25.1,22.2
					c0,4.7,1.3,5.4,1.4,6.2c-6.6,0-10.8-2.3-10.8-8.4c0-12.6,17.5-24.2,36.5-24.2c14.8,0,21.4,7,21.4,14.5c0,5.4-3.5,11.2-10,14.5
					c8.5,1.6,11.9,7.9,11.9,14.7c0,8.8-5.2,26.3-22,26.3c-4.3,0-9.9-1.2-9.9-6.8c0-1.5,0.4-3.2,1.3-5.3c2.5,2.4,4.4,3.3,6.7,3.3
					c7.3,0,9.9-9.5,9.9-16.5c0-6.4-2.2-11.6-9.5-11.6c-0.8,0-2.8,0.1-4.6,0.3l-8.2,35H36.2l13.7-58.2L64.7,85.5z"/>
				<path class="st7" d="M127.2,102l-6.3,29.6c-0.3,1.1-0.4,2-0.4,2.8c0,2.4,1.1,3.2,3.6,3.2c3.4,0,5.8-3.3,7.1-7.7h3.7
					c-5,14.2-12.8,16.1-17.5,16.1c-5,0-8.1-2.9-8.6-8.3c-4.4,7.1-9.2,8.3-12.9,8.3c-5.2,0-9.3-3.1-9.3-10.5c0-1.7,0.3-3.6,0.7-5.7
					l5.9-28h12.6l-6.3,29.6c-0.2,0.9-0.3,1.7-0.3,2.4c0,2,0.7,3.6,2.6,3.6c3.4,0,5.7-3.3,7-7.7l5.9-28h12.5L127.2,102L127.2,102z"/>
				<path class="st7" d="M149.7,102l-1.1,5.4c3.1-2.6,6.4-5.4,10.6-5.4c3.9,0,6,3.2,6,6.5c0,3.1-2,6.4-6.3,6.4
					c-4.9,0-2.4-5.8-5.1-5.8c-2.6,0-4.2,1.3-6.4,3.3l-7,33.1h-12.6l9.2-43.6L149.7,102L149.7,102z"/>
				<path class="st7" d="M202.3,102l-8.6,40.4c5.3-1.9,8.5-4.9,11-12.5h3.7c-3.4,11.5-10,14.8-15.4,16.3l-1.3,6.3
					c-2.6,12.5-9.9,14.8-15.7,14.8c-5.3,0-9.8-2.8-9.8-8.5c0-7.3,7.7-11,14.2-13l1-4.6c-2.5,2.7-5.9,4.8-10.5,4.8
					c-5.9,0-11.6-3.7-11.6-14c0-11.8,7.2-30.5,22.4-30.5c5,0,7.1,1.9,7.1,4.4v0.5l1-4.5L202.3,102L202.3,102z M173.9,160.6
					c1.8,0,3.9-2.6,5.1-7.8l0.5-2.5c-4.4,1.7-8.5,3.9-8.5,7.4C171,158.9,172,160.6,173.9,160.6z M172.3,130.8c0,6.7,2.8,6.8,4.4,6.8
					c2.4,0,5.8-2.4,7-6.8l4.4-20.7c-0.1-1-0.8-3.2-3.6-3.2C177.1,106.9,172.3,122.6,172.3,130.8z"/>
				<path class="st7" d="M219.9,138.8c6.9,0,11.1-3.8,15.4-8.8h3c-5,8-12.4,16.1-24,16.1c-8.2,0-13.6-4-13.6-13.9
					c0-10,5.7-31,23.5-31c7.8,0,9.6,4,9.6,8.4c0,10-9.6,17.8-20,18.4c-0.1,1.2-0.2,2.4-0.2,3.5C213.6,137.4,215.7,138.8,219.9,138.8
					z M224.9,105.8c-4.4,0-8.7,9.3-10.5,18c6.7-0.4,12.6-7.1,12.6-14.4C227.1,107.2,226.6,105.8,224.9,105.8z"/>
				<path class="st7" d="M251.5,102l-1.1,5.4c3.1-2.6,6.4-5.4,10.5-5.4c3.9,0,6,3.2,6,6.5c0,3.1-2,6.4-6.3,6.4
					c-4.9,0-2.4-5.8-5.1-5.8c-2.6,0-4.2,1.3-6.4,3.3l-7,33.1h-12.6L239,102H251.5z"/>
				<path class="st8" d="M64.7,85.5L60,105.8h0.6c8,0,14.5-8,14.5-14.8c0-5.2-3.7-9.9-13.3-9.9c-11.8,0-25.1,7.1-25.1,22.2
					c0,4.7,1.3,5.4,1.4,6.2c-6.6,0-10.8-2.3-10.8-8.4c0-12.6,17.5-24.2,36.5-24.2c14.8,0,21.4,7,21.4,14.5c0,5.4-3.5,11.2-10,14.5
					c8.5,1.6,11.9,7.9,11.9,14.7c0,8.8-5.2,26.3-22,26.3c-4.3,0-9.9-1.2-9.9-6.8c0-1.5,0.4-3.2,1.3-5.3c2.5,2.4,4.4,3.3,6.7,3.3
					c7.3,0,9.9-9.5,9.9-16.5c0-6.4-2.2-11.6-9.5-11.6c-0.8,0-2.8,0.1-4.6,0.3l-8.2,35H36.2l13.7-58.2L64.7,85.5z"/>
				<path class="st8" d="M127.2,102l-6.3,29.6c-0.3,1.1-0.4,2-0.4,2.8c0,2.4,1.1,3.2,3.6,3.2c3.4,0,5.8-3.3,7.1-7.7h3.7
					c-5,14.2-12.8,16.1-17.5,16.1c-5,0-8.1-2.9-8.6-8.3c-4.4,7.1-9.2,8.3-12.9,8.3c-5.2,0-9.3-3.1-9.3-10.5c0-1.7,0.3-3.6,0.7-5.7
					l5.9-28h12.6l-6.3,29.6c-0.2,0.9-0.3,1.7-0.3,2.4c0,2,0.7,3.6,2.6,3.6c3.4,0,5.7-3.3,7-7.7l5.9-28h12.5L127.2,102L127.2,102z"/>
				<path class="st8" d="M149.7,102l-1.1,5.4c3.1-2.6,6.4-5.4,10.6-5.4c3.9,0,6,3.2,6,6.5c0,3.1-2,6.4-6.3,6.4
					c-4.9,0-2.4-5.8-5.1-5.8c-2.6,0-4.2,1.3-6.4,3.3l-7,33.1h-12.6l9.2-43.6L149.7,102L149.7,102z"/>
				<path class="st8" d="M202.3,102l-8.6,40.4c5.3-1.9,8.5-4.9,11-12.5h3.7c-3.4,11.5-10,14.8-15.4,16.3l-1.3,6.3
					c-2.6,12.5-9.9,14.8-15.7,14.8c-5.3,0-9.8-2.8-9.8-8.5c0-7.3,7.7-11,14.2-13l1-4.6c-2.5,2.7-5.9,4.8-10.5,4.8
					c-5.9,0-11.6-3.7-11.6-14c0-11.8,7.2-30.5,22.4-30.5c5,0,7.1,1.9,7.1,4.4v0.5l1-4.5L202.3,102L202.3,102z M173.9,160.6
					c1.8,0,3.9-2.6,5.1-7.8l0.5-2.5c-4.4,1.7-8.5,3.9-8.5,7.4C171,158.9,172,160.6,173.9,160.6z M172.3,130.8c0,6.7,2.8,6.8,4.4,6.8
					c2.4,0,5.8-2.4,7-6.8l4.4-20.7c-0.1-1-0.8-3.2-3.6-3.2C177.1,106.9,172.3,122.6,172.3,130.8z"/>
				<path class="st8" d="M219.9,138.8c6.9,0,11.1-3.8,15.4-8.8h3c-5,8-12.4,16.1-24,16.1c-8.2,0-13.6-4-13.6-13.9
					c0-10,5.7-31,23.5-31c7.8,0,9.6,4,9.6,8.4c0,10-9.6,17.8-20,18.4c-0.1,1.2-0.2,2.4-0.2,3.5C213.6,137.4,215.7,138.8,219.9,138.8
					z M224.9,105.8c-4.4,0-8.7,9.3-10.5,18c6.7-0.4,12.6-7.1,12.6-14.4C227.1,107.2,226.6,105.8,224.9,105.8z"/>
				<path class="st8" d="M251.5,102l-1.1,5.4c3.1-2.6,6.4-5.4,10.5-5.4c3.9,0,6,3.2,6,6.5c0,3.1-2,6.4-6.3,6.4
					c-4.9,0-2.4-5.8-5.1-5.8c-2.6,0-4.2,1.3-6.4,3.3l-7,33.1h-12.6L239,102H251.5z"/>
				<path class="st7" d="M86,170.4l7.5-22h4.7v22l7.7-22h2.5l-10,26.8h-5.3v-18.3L86,175.2h-5.3v-24.6c-3.9,1.2-5.8,4-5.8,8
					c0,1.8,0.5,2.1,0.5,2.4c-2.5,0-3.8-0.9-3.8-3.5c0-4.8,6.6-9.3,12.6-9.3c0.5,0,1,0,1.4,0.1L86,170.4z"/>
				<path class="st7" d="M110.9,172.4c2.8,0,4.6-1.6,6.4-3.6h1.2c-2,3.3-5.1,6.6-9.9,6.6c-3.4,0-5.6-1.7-5.6-5.7
					c0-4.1,2.3-12.8,9.7-12.8c3.2,0,4,1.7,4,3.5c0,4.1-4,7.3-8.3,7.6c0,0.5-0.1,1-0.1,1.4C108.3,171.8,109.2,172.4,110.9,172.4z
					 M113,158.8c-1.8,0-3.6,3.8-4.3,7.4c2.8-0.2,5.2-2.9,5.2-5.9C113.9,159.3,113.7,158.8,113,158.8z"/>
				<path class="st7" d="M124.7,172.4c2.8,0,4.6-1.6,6.4-3.6h1.2c-2,3.3-5.1,6.6-9.9,6.6c-3.4,0-5.6-1.7-5.6-5.7
					c0-4.1,2.3-12.8,9.7-12.8c3.2,0,4,1.7,4,3.5c0,4.1-4,7.3-8.3,7.6c0,0.5-0.1,1-0.1,1.4C122.1,171.8,123,172.4,124.7,172.4z
					 M126.8,158.8c-1.8,0-3.6,3.8-4.3,7.4c2.8-0.2,5.2-2.9,5.2-5.9C127.7,159.3,127.5,158.8,126.8,158.8z"/>
				<path class="st7" d="M148.1,157.2l-7.2,5c0.4-0.1,0.8-0.1,1.2-0.1c2.7,0,4,1.9,4,4.2c0,0.4,0,0.9-0.1,1.4l-0.4,1.8
					c-0.1,0.4-0.2,0.8-0.2,1.1c0,0.7,0.3,1.3,1.4,1.3c0.9,0,1-0.1,1.3-0.2c-0.2,2.6-2.4,3.7-3.3,3.7c-2.9,0-4.5-1.5-4.5-4.1
					c0-0.6,0.1-1.2,0.2-1.9l0.3-1.4c0.1-0.5,0.1-0.9,0.1-1.3c0-1-0.4-1.7-1.3-1.7c-0.8,0-1.7,0.5-2.7,1.3l-1.9,8.9h-5.2l5.2-24.4
					l5.3-0.7l-2.7,12.7l6.9-5.5h3.6L148.1,157.2L148.1,157.2z"/>
				<path class="st8" d="M86,170.4l7.5-22h4.7v22l7.7-22h2.5l-10,26.8h-5.3v-18.3L86,175.2h-5.3v-24.6c-3.9,1.2-5.8,4-5.8,8
					c0,1.8,0.5,2.1,0.5,2.4c-2.5,0-3.8-0.9-3.8-3.5c0-4.8,6.6-9.3,12.6-9.3c0.5,0,1,0,1.4,0.1L86,170.4z"/>
				<path class="st8" d="M110.9,172.4c2.8,0,4.6-1.6,6.4-3.6h1.2c-2,3.3-5.1,6.6-9.9,6.6c-3.4,0-5.6-1.7-5.6-5.7
					c0-4.1,2.3-12.8,9.7-12.8c3.2,0,4,1.7,4,3.5c0,4.1-4,7.3-8.3,7.6c0,0.5-0.1,1-0.1,1.4C108.3,171.8,109.2,172.4,110.9,172.4z
					 M113,158.8c-1.8,0-3.6,3.8-4.3,7.4c2.8-0.2,5.2-2.9,5.2-5.9C113.9,159.3,113.7,158.8,113,158.8z"/>
				<path class="st8" d="M124.7,172.4c2.8,0,4.6-1.6,6.4-3.6h1.2c-2,3.3-5.1,6.6-9.9,6.6c-3.4,0-5.6-1.7-5.6-5.7
					c0-4.1,2.3-12.8,9.7-12.8c3.2,0,4,1.7,4,3.5c0,4.1-4,7.3-8.3,7.6c0,0.5-0.1,1-0.1,1.4C122.1,171.8,123,172.4,124.7,172.4z
					 M126.8,158.8c-1.8,0-3.6,3.8-4.3,7.4c2.8-0.2,5.2-2.9,5.2-5.9C127.7,159.3,127.5,158.8,126.8,158.8z"/>
				<path class="st8" d="M148.1,157.2l-7.2,5c0.4-0.1,0.8-0.1,1.2-0.1c2.7,0,4,1.9,4,4.2c0,0.4,0,0.9-0.1,1.4l-0.4,1.8
					c-0.1,0.4-0.2,0.8-0.2,1.1c0,0.7,0.3,1.3,1.4,1.3c0.9,0,1-0.1,1.3-0.2c-0.2,2.6-2.4,3.7-3.3,3.7c-2.9,0-4.5-1.5-4.5-4.1
					c0-0.6,0.1-1.2,0.2-1.9l0.3-1.4c0.1-0.5,0.1-0.9,0.1-1.3c0-1-0.4-1.7-1.3-1.7c-0.8,0-1.7,0.5-2.7,1.3l-1.9,8.9h-5.2l5.2-24.4
					l5.3-0.7l-2.7,12.7l6.9-5.5h3.6L148.1,157.2L148.1,157.2z"/>
				<g>
					<rect x="161" y="73.2" class="st0" width="18.2" height="9.4"/>
					<g>
						<g>
							<path class="st0" d="M87.3,82.9c-5.3,0-8.9-3.2-8.9-7.9c0-3.4,1.8-5.8,4.1-6.9c-0.6-1-1-2.3-1-3.7c0-4.6,4-8.1,9.4-8.1
								c4.5,0,7.6,2.6,7.6,6.6c0,2-0.8,3.7-2.1,4.8c0.9,1.3,1.5,3.1,1.5,5.3C98,78.8,93.5,82.9,87.3,82.9z"/>
							<path class="st0" d="M93,65.5c-0.5,0-0.8-0.2-1.2-0.5c0.7-0.4,1.1-1.3,1.1-2.2s-0.5-1.7-1.9-1.7s-2.3,0.8-2.3,2.3
								c0,3.7,5.7,4.2,5.7,9.7c0,4.3-3.4,6.3-7.1,6.3c-2.9,0-5.4-1.3-5.4-4.4c0-2.7,2-4.2,3.7-4.2c0.9,0,2.2,0.4,2.2,1.7
								c-1.4,0-3,0.6-3,2.4c0,1.3,0.8,2.4,2.4,2.4c1.7,0,2.9-1.2,2.9-3.4c0-4.3-5.2-5.9-5.2-9.6c0-2.6,2.6-4.5,5.9-4.5
								c1.2,0,4.1,0.3,4.1,3C95,64.4,94.2,65.5,93,65.5z"/>
							<path class="st0" d="M99.3,82.5c-4.5,0-7.5-3-7.5-7.6c0-5.2,3.2-12.5,10.4-12.5c3.8,0,6.3,2.3,6.3,6c0,1-0.2,2-0.5,2.9
								c0.6,0.3,1,0.8,1.4,1.4c0.6,1.1,0.6,2.5-0.1,3.6C106.7,80.4,103.3,82.5,99.3,82.5z"/>
							<path class="st0" d="M101,76.9c2,0,3.2-1.1,4.5-2.6h0.9c-1.4,2.3-3.6,4.7-7,4.7c-2.4,0-4-1.2-4-4c0-2.9,1.6-9,6.8-9
								c2.3,0,2.8,1.2,2.8,2.4c0,2.9-2.8,5.2-5.8,5.4c0,0.4-0.1,0.7-0.1,1C99.1,76.5,99.7,76.9,101,76.9z M102.4,67.3
								c-1.3,0-2.5,2.7-3,5.2c2-0.1,3.7-2.1,3.7-4.2C103.1,67.7,102.9,67.3,102.4,67.3z"/>
							<path class="st0" d="M120.9,82.5c-1.5,0-2.9-0.4-4-1.2c-0.6,0.6-1.5,1-2.5,1h-3.7c-0.5,0-0.9-0.1-1.3-0.3
								c-0.4,0.2-0.8,0.3-1.3,0.3h-3.7c-1.1,0-2.1-0.5-2.7-1.3c-0.7-0.8-0.9-1.9-0.7-2.9l2.7-12.7c0.3-1.6,1.8-2.8,3.4-2.8h3.7
								c0.3,0,0.6,0,0.9,0.1c0.6-0.2,1.2-0.2,1.9-0.2c1.1,0,2.2,0.2,3,0.7c1-0.4,2-0.7,3.1-0.7c3.7,0,6.3,2.6,6.3,6.4
								c0,0.6-0.1,1.2-0.2,1.9c1,0.1,1.9,0.6,2.5,1.5c0.7,0.9,0.8,2.1,0.5,3.2C126.9,81.3,123.4,82.5,120.9,82.5z"/>
							<path class="st0" d="M118.1,68.4c-0.9,0-1.6,1.1-2,2.3l-1.7,8.1h-3.7l1.9-8.7c0.1-0.2,0.1-0.4,0.1-0.6c0-0.6-0.2-1.1-0.8-1.1
								c-1,0-1.7,1.1-2.1,2.4l-1.7,8.1h-3.7l2.7-12.7h3.7l-0.3,1.3c1.1-1.2,2.2-1.4,3.1-1.4c1.3,0,2.3,0.6,2.6,2.2
								c1.2-1.9,2.6-2.2,3.5-2.2c1.6,0,2.8,0.8,2.8,2.9s-1.2,5.1-1.2,6.5c0,0.6,0.3,1.1,1,1.1c1.1,0,1.6-0.9,2.1-2.2h1.1
								c-1.4,4.2-3.4,4.7-4.7,4.7c-2.2,0-3-1.4-3-2.9c0-1.7,1.1-4.8,1.1-6.5C119,68.9,118.7,68.4,118.1,68.4z"/>
							<path class="st0" d="M133.8,82.5c-1.1,0-2.1-0.3-3-0.7c-1.2,0.6-2.3,0.7-3.2,0.7c-3.4,0-6.9-2.4-6.9-7.6
								c0-5,3.2-12.4,10-12.4c0.6,0,1.2,0.1,1.7,0.2c0.2,0,0.4-0.1,0.6-0.1h3.7c1.1,0,2.1,0.5,2.7,1.3c0.7,0.8,0.9,1.9,0.7,2.9
								l-0.8,3.9c1,0.1,1.9,0.6,2.5,1.5c0.7,0.9,0.8,2.1,0.5,3.2C140.1,81.6,136,82.5,133.8,82.5z"/>
							<path class="st0" d="M136.7,66.2l-1.8,8.6c-0.1,0.3-0.1,0.6-0.1,0.8c0,0.7,0.3,1.1,1,1.1c1,0,1.7-1.1,2.1-2.4h1.1
								c-1.4,4.1-3.7,4.7-5.1,4.7c-1.4,0-2.3-0.8-2.5-2.3c-0.8,1.2-2,2.3-3.8,2.3c-1.7,0-3.4-1.1-3.4-4.1c0-3.4,2.1-8.9,6.5-8.9
								c1.4,0,2.1,0.6,2.1,1.3v0.2l0.3-1.3C133.1,66.2,136.7,66.2,136.7,66.2z M127.9,74.6c0,2,0.8,2,1.3,2c0.7,0,1.8-0.8,2.1-2.2
								l1.2-5.7c0-0.3-0.2-1-1-1C129.3,67.6,127.9,72.2,127.9,74.6z"/>
							<path class="st0" d="M140.4,82.5c-3.7,0-6.2-2.7-6.2-6.6c0-0.7,0.1-1.5,0.3-2.4l1.7-8.2c0.1-0.5,0.3-0.9,0.6-1.3
								c-0.1-0.4-0.2-0.9-0.2-1.3c0-3.1,2.5-5.6,5.5-5.6c3.1,0,5.5,2.5,5.5,5.6c0,1.1-0.3,2.2-0.9,3c0,0.4,0,0.7-0.1,1.1l-0.8,3.9
								c1.1,0,2.1,0.6,2.7,1.5c0.7,0.9,0.8,2.1,0.5,3.2C146.8,81.9,142.2,82.5,140.4,82.5z"/>
							<path class="st0" d="M143.2,66.2l-1.8,8.6c-0.1,0.3-0.1,0.6-0.1,0.8c0,0.7,0.3,0.9,1,0.9c1,0,1.9-1,2.3-2.2h1.1
								c-1.4,4.1-4,4.7-5.3,4.7c-1.5,0-2.7-0.9-2.7-3c0-0.5,0.1-1,0.2-1.6l1.7-8.1h3.6V66.2z M142.1,60.8c1.1,0,2,0.9,2,2
								s-0.9,2-2,2s-2-0.9-2-2S141,60.8,142.1,60.8z"/>
							<path class="st0" d="M153.8,82.5c-1.5,0-2.9-0.4-4-1.2c-0.6,0.6-1.5,1-2.5,1h-3.7c-1.1,0-2.1-0.5-2.7-1.3
								c-0.7-0.8-0.9-1.9-0.7-2.9l2.7-12.7c0.3-1.6,1.8-2.8,3.4-2.8h3.7c0.3,0,0.6,0,0.9,0.1c0.6-0.1,1.2-0.2,1.8-0.2
								c3.7,0,6.3,2.6,6.3,6.4c0,0.6-0.1,1.2-0.2,1.9c1,0.1,1.9,0.6,2.5,1.5c0.7,0.9,0.8,2.1,0.5,3.2
								C159.8,81.3,156.3,82.5,153.8,82.5z"/>
							<path class="st0" d="M151,68.4c-0.9,0-1.6,1.1-2,2.3l-1.7,8.1h-3.7l2.7-12.7h3.7l-0.3,1.3c1.1-1.2,2.2-1.4,3-1.4
								c1.6,0,2.8,0.8,2.8,2.9s-1.2,5.1-1.2,6.5c0,0.6,0.3,1.1,1,1.1c1.1,0,1.6-0.9,2.1-2.2h1.1c-1.4,4.2-3.4,4.7-4.7,4.7
								c-2.2,0-3-1.4-3-2.9c0-1.7,1.1-4.8,1.1-6.5C151.9,68.9,151.6,68.4,151,68.4z"/>
							<path class="st0" d="M161,82.5c-4.5,0-7.5-3-7.5-7.6c0-5.2,3.2-12.5,10.4-12.5c3.8,0,6.3,2.3,6.3,6c0,1.9-0.7,3.7-1.8,5.1
								c0.4,0.7,0.6,1.6,0.4,2.4C168.1,80.1,165.1,82.5,161,82.5z"/>
							<path class="st0" d="M162.4,76.6c1,0,2.2-0.6,3-1.3c-0.5,2.9-2.4,3.8-4.4,3.8c-2.4,0-3.9-1.2-3.9-4c0-2.9,1.6-9,6.8-9
								c2.3,0,2.8,1.2,2.8,2.4c0,2.9-2.8,5.2-5.8,5.4c0,0.3-0.1,0.5-0.1,0.8C160.8,76.1,161.5,76.6,162.4,76.6z M164.1,67.3
								c-1.3,0-2.5,2.8-3.1,5.2c2-0.1,3.7-2.1,3.7-4.2C164.7,67.7,164.6,67.3,164.1,67.3z"/>
							<path class="st0" d="M175.2,82.5c-3.4,0-6.9-2.4-6.9-7.6c0-4.9,3-12,9.5-12.4l0.4-1.7c0.3-1.5,1.5-2.6,3-2.8l3.8-0.5
								c0.2,0,0.3,0,0.5,0c1,0,1.9,0.4,2.6,1.1c0.8,0.8,1.1,2,0.9,3.1l-1.9,9c1,0.1,1.9,0.6,2.5,1.5c0.7,0.9,0.8,2.1,0.5,3.2
								c-2,5.7-5.7,6.9-8.4,6.9c-1.1,0-2-0.2-2.9-0.7C177.6,82.3,176.4,82.5,175.2,82.5z"/>
							<path class="st0" d="M185.4,61.1l-2.9,13.7c-0.1,0.3-0.1,0.6-0.1,0.8c0,0.7,0.3,0.9,1,0.9c1,0,1.7-1,2.1-2.2h1.1
								c-1.4,4.1-3.7,4.5-5.1,4.5c-1.4,0-2.3-0.8-2.5-2.2c-0.8,1.2-2,2.3-3.8,2.3c-1.7,0-3.4-1.1-3.4-4.1c0-3.4,2.1-8.9,6.5-8.9
								c1.4,0,2.1,0.6,2.1,1.3v0.1l1.2-5.8L185.4,61.1z M179,74.3l1.2-5.8c-0.1-0.3-0.3-0.9-1-0.9c-2.2,0-3.5,4.6-3.5,6.9
								c0,2,0.8,2,1.3,2c0.7,0,1.7-0.7,2.1-2.1v-0.1H179z"/>
							<path class="st0" d="M194.3,82.5c-1.1,0-2.1-0.3-3-0.7c-1,0.5-2.1,0.7-3.3,0.7c-3.7,0-6.2-2.7-6.2-6.6c0-0.7,0.1-1.5,0.3-2.4
								l1.7-8.2c0.3-1.6,1.8-2.8,3.4-2.8h3.7c0.5,0,0.9,0.1,1.3,0.3c0.4-0.2,0.8-0.3,1.3-0.3h3.7c1.1,0,2.1,0.5,2.7,1.3
								c0.7,0.8,0.9,1.9,0.7,2.9l-1.4,6.7c0,0,0,0,0.1,0.1c0.9,0.7,1.4,1.9,1.4,3C200.4,80.1,197.8,82.5,194.3,82.5z"/>
							<path class="st0" d="M190.9,66.2l-1.8,8.6c-0.1,0.2-0.1,0.4-0.1,0.6c0,0.6,0.2,1.1,0.8,1.1c1,0,1.6-1,2-2.2l1.7-8.1h3.7
								l-1.8,8.6c-0.1,0.3-0.1,0.6-0.1,0.8c0,0.7,0.3,0.9,1,0.9c0.5,0,0.6-0.1,0.8-0.2c-0.1,1.8-1.4,2.6-2.8,2.6
								c-1.4,0-2.3-0.9-2.5-2.4c-1.3,2.1-2.7,2.4-3.8,2.4c-1.5,0-2.7-0.9-2.7-3c0-0.5,0.1-1,0.2-1.6l1.7-8.1
								C187.2,66.2,190.9,66.2,190.9,66.2z"/>
						</g>
					</g>
					<g>
						<path class="st8" d="M93,65.5c-0.5,0-0.8-0.2-1.2-0.5c0.7-0.4,1.1-1.3,1.1-2.2s-0.5-1.7-1.9-1.7s-2.3,0.8-2.3,2.3
							c0,3.7,5.7,4.2,5.7,9.7c0,4.3-3.4,6.3-7.1,6.3c-2.9,0-5.4-1.3-5.4-4.4c0-2.7,2-4.2,3.7-4.2c0.9,0,2.2,0.4,2.2,1.7
							c-1.4,0-3,0.6-3,2.4c0,1.3,0.8,2.4,2.4,2.4c1.7,0,2.9-1.2,2.9-3.4c0-4.3-5.2-5.9-5.2-9.6c0-2.6,2.6-4.5,5.9-4.5
							c1.2,0,4.1,0.3,4.1,3C95,64.4,94.2,65.5,93,65.5z"/>
						<path class="st8" d="M101,76.9c2,0,3.2-1.1,4.5-2.6h0.9c-1.4,2.3-3.6,4.7-7,4.7c-2.4,0-4-1.2-4-4c0-2.9,1.6-9,6.8-9
							c2.3,0,2.8,1.2,2.8,2.4c0,2.9-2.8,5.2-5.8,5.4c0,0.4-0.1,0.7-0.1,1C99.1,76.5,99.7,76.9,101,76.9z M102.4,67.3
							c-1.3,0-2.5,2.7-3,5.2c2-0.1,3.7-2.1,3.7-4.2C103.1,67.7,102.9,67.3,102.4,67.3z"/>
						<path class="st8" d="M118.1,68.4c-0.9,0-1.6,1.1-2,2.3l-1.7,8.1h-3.7l1.9-8.7c0.1-0.2,0.1-0.4,0.1-0.6c0-0.6-0.2-1.1-0.8-1.1
							c-1,0-1.7,1.1-2.1,2.4l-1.7,8.1h-3.7l2.7-12.7h3.7l-0.3,1.3c1.1-1.2,2.2-1.4,3.1-1.4c1.3,0,2.3,0.6,2.6,2.2
							c1.2-1.9,2.6-2.2,3.5-2.2c1.6,0,2.8,0.8,2.8,2.9s-1.2,5.1-1.2,6.5c0,0.6,0.3,1.1,1,1.1c1.1,0,1.6-0.9,2.1-2.2h1.1
							c-1.4,4.2-3.4,4.7-4.7,4.7c-2.2,0-3-1.4-3-2.9c0-1.7,1.1-4.8,1.1-6.5C119,68.9,118.7,68.4,118.1,68.4z"/>
						<path class="st8" d="M136.7,66.2l-1.8,8.6c-0.1,0.3-0.1,0.6-0.1,0.8c0,0.7,0.3,1.1,1,1.1c1,0,1.7-1.1,2.1-2.4h1.1
							c-1.4,4.1-3.7,4.7-5.1,4.7c-1.4,0-2.3-0.8-2.5-2.3c-0.8,1.2-2,2.3-3.8,2.3c-1.7,0-3.4-1.1-3.4-4.1c0-3.4,2.1-8.9,6.5-8.9
							c1.4,0,2.1,0.6,2.1,1.3v0.2l0.3-1.3C133.1,66.2,136.7,66.2,136.7,66.2z M127.9,74.6c0,2,0.8,2,1.3,2c0.7,0,1.8-0.8,2.1-2.2
							l1.2-5.7c0-0.3-0.2-1-1-1C129.3,67.6,127.9,72.2,127.9,74.6z"/>
						<path class="st8" d="M143.2,66.2l-1.8,8.6c-0.1,0.3-0.1,0.6-0.1,0.8c0,0.7,0.3,0.9,1,0.9c1,0,1.9-1,2.3-2.2h1.1
							c-1.4,4.1-4,4.7-5.3,4.7c-1.5,0-2.7-0.9-2.7-3c0-0.5,0.1-1,0.2-1.6l1.7-8.1h3.6V66.2z M142.1,60.8c1.1,0,2,0.9,2,2s-0.9,2-2,2
							s-2-0.9-2-2C140.1,61.7,141,60.8,142.1,60.8z"/>
						<path class="st8" d="M151,68.4c-0.9,0-1.6,1.1-2,2.3l-1.7,8.1h-3.7l2.7-12.7h3.7l-0.3,1.3c1.1-1.2,2.2-1.4,3-1.4
							c1.6,0,2.8,0.8,2.8,2.9s-1.2,5.1-1.2,6.5c0,0.6,0.3,1.1,1,1.1c1.1,0,1.6-0.9,2.1-2.2h1.1c-1.4,4.2-3.4,4.7-4.7,4.7
							c-2.2,0-3-1.4-3-2.9c0-1.7,1.1-4.8,1.1-6.5C151.9,68.9,151.6,68.4,151,68.4z"/>
						<path class="st8" d="M162.4,76.6c1,0,2.2-0.6,3-1.3c-0.5,2.9-2.4,3.8-4.4,3.8c-2.4,0-3.9-1.2-3.9-4c0-2.9,1.6-9,6.8-9
							c2.3,0,2.8,1.2,2.8,2.4c0,2.9-2.8,5.2-5.8,5.4c0,0.3-0.1,0.5-0.1,0.8C160.8,76.1,161.5,76.6,162.4,76.6z M164.1,67.3
							c-1.3,0-2.5,2.8-3.1,5.2c2-0.1,3.7-2.1,3.7-4.2C164.7,67.7,164.6,67.3,164.1,67.3z"/>
						<path class="st8" d="M185.4,61.1l-2.9,13.7c-0.1,0.3-0.1,0.6-0.1,0.8c0,0.7,0.3,0.9,1,0.9c1,0,1.7-1,2.1-2.2h1.1
							c-1.4,4.1-3.7,4.5-5.1,4.5c-1.4,0-2.3-0.8-2.5-2.2c-0.8,1.2-2,2.3-3.8,2.3c-1.7,0-3.4-1.1-3.4-4.1c0-3.4,2.1-8.9,6.5-8.9
							c1.4,0,2.1,0.6,2.1,1.3v0.1l1.2-5.8L185.4,61.1z M179,74.3l1.2-5.8c-0.1-0.3-0.3-0.9-1-0.9c-2.2,0-3.5,4.6-3.5,6.9
							c0,2,0.8,2,1.3,2c0.7,0,1.7-0.7,2.1-2.1v-0.1H179z"/>
						<path class="st8" d="M190.9,66.2l-1.8,8.6c-0.1,0.2-0.1,0.4-0.1,0.6c0,0.6,0.2,1.1,0.8,1.1c1,0,1.6-1,2-2.2l1.7-8.1h3.7
							l-1.8,8.6c-0.1,0.3-0.1,0.6-0.1,0.8c0,0.7,0.3,0.9,1,0.9c0.5,0,0.6-0.1,0.8-0.2c-0.1,1.8-1.4,2.6-2.8,2.6
							c-1.4,0-2.3-0.9-2.5-2.4c-1.3,2.1-2.7,2.4-3.8,2.4c-1.5,0-2.7-0.9-2.7-3c0-0.5,0.1-1,0.2-1.6l1.7-8.1
							C187.2,66.2,190.9,66.2,190.9,66.2z"/>
					</g>
				</g>
			</g>
			<g>
				<polygon class="st9" points="223.7,51.9 217.9,55.1 226.1,24.5 230.7,25.7 				"/>
				<g>
					<polygon class="st0" points="226.8,31.3 184.3,38 207.3,2.4 233.8,12.6 290.9,1.5 266.7,39 					"/>
					<polygon class="st0" points="189.2,34.8 208.3,5.3 233.5,15 285.9,4.9 265.6,36.4 226.9,28.9 					"/>
					<g>
						<path class="st10" d="M233,23.8c-0.2,1.4,0.4,1.9,1.8,1.5c0.5-0.2,1-0.5,1.4-0.8s0.8-0.7,1.2-1c-0.2,1.8,0.7,2.5,2.3,1.6
							c1.4-0.8,2.5-2,3.8-3.2c0.1,0.1,0.5,0.3,0.8,0.6c-0.1,0.2-0.1,0.5-0.2,0.7c-0.3,1.3,0.4,2.1,1.7,2.1c1.4,0,2.5-0.7,3.5-1.6
							c0.3-0.3,0.6-0.6,1-0.9c0,0.1,0,0.3,0,0.3c-0.3,0.6-0.6,1.4,0.1,1.8c0.5,0.3,1.4,0.2,2,0s1.1-0.7,1.6-1
							c0.1,0.1,0.1,0.1,0.2,0.2c-0.3,1,0.4,1.1,1.1,1.2c1.3,0.2,2.4-0.3,3.4-1.1c0.8-0.6,1.6-1.3,2.4-2.1c0,0.2-0.1,0.3,0,0.4
							c0,0.7-0.2,1.8,0.2,2.1c0.5,0.4,1.7,0.7,2.3,0.4c1.2-0.5,2.3-1.3,3.2-2.2c1-0.9,1.7-2,2.6-3c0.3-0.3,0.7-0.6,1.1-0.8
							c0.1,0.1,0.2,0.2,0.4,0.3c-1.1,1.9-2.3,3.8-3.5,5.8c0.6,0,1.2,0,1.6,0c1.4-1.7,2.8-3.4,4.2-5c0,0,0,0.1,0.1,0.1
							c0.1,0.5,0.1,1.4,0.5,1.6c0.6,0.2,1.4,0.1,2.1,0.1c0-0.1,0-0.2,0-0.3c0.1,0.2,0.2,0.4,0.4,0.8c-0.6,0.2-1.1,0.3-1.8,0.5
							c-2.8,4.4-5.7,8.9-8.6,13.4c-0.1,0-0.1,0-0.2,0c-2.4-0.5-4.8-1.1-7.2-1.5c-10-2-19.9-4-29.9-5.9c-1.7-0.3-3.6,0.2-5.3,0.5
							c-11.1,1.7-22.3,3.5-33.4,5.3c-0.2,0-0.3,0-0.6,0c3.4-5.2,6.7-10.4,10-15.5c-0.8-0.6-1.6-1.1-2.3-1.7c0.1-0.1,0.1-0.2,0.2-0.3
							c2.3,1.7,4.7,1.2,7.3,0.2c-0.2,0.4-0.4,0.6-0.5,0.9c-1.3,1.9-2.5,3.8-3.8,5.8c-0.4,0.6-0.8,1.4-0.1,1.8c0.5,0.4,1.5,0.6,2,0.3
							c1-0.5,1.7-1.3,2.4-1.8c0.4,0.5,0.8,1.3,1.4,1.7c0.7,0.4,1.6,0.4,2.4,0.3c2.4-0.2,4.5-1.4,6.3-2.9c0.4-0.3,0.8-0.7,1.5-1.3
							c-0.3,0.5-0.5,0.8-0.5,1.1c-0.1,0.5-0.2,1.3,0,1.5c0.3,0.3,1.1,0.4,1.6,0.3c0.9-0.4,1.8-1,2.5-1.5c0.1,0.4,0.1,1.2,0.4,1.4
							c0.5,0.2,1.3,0.2,1.8-0.1c0.8-0.4,1.5-1,2.2-1.5c0.1,1.8,1.1,2.4,2.8,1.4c0.7-0.4,1.3-1,1.7-1.4c0.2,0.5,0.2,1.4,0.6,1.5
							c0.6,0.2,1.4,0.1,2-0.2c0.7-0.3,1.2-0.9,1.8-1.4C232.9,23.7,233,23.8,233,23.8z"/>
						<path class="st10" d="M259.2,23.1c0.1-1.2,0.2-2.5,0.3-3.8c0.2-0.2,0.4-0.5,0.7-0.8c-0.6-0.8-1-0.6-1.5-0.1
							c-1.7,1.9-3.5,3.8-5.3,5.6c-0.4,0.4-0.9,0.5-1.4,0.8c-0.1-0.1-0.2-0.2-0.4-0.3c1.1-1.8,2.1-3.6,3.2-5.5c-0.6,0-1.1,0-1.6,0
							c-1.8,2.1-3.2,4.7-6.1,5.7c-0.3,0.1-0.7,0-1.3,0c0.1-0.8,0.2-1.4,0.3-1.8c1-0.4,1.8-0.6,2.6-1.1c0.7-0.4,1.3-1,1.7-1.7
							c0.5-0.8,0-1.5-1-1.5c-1.3,0-2.3,0.6-3.2,1.5c-0.6,0.6-1.1,1.3-1.7,2.1c-0.3-0.2-0.6-0.5-0.9-0.7c0.4-1,0.8-1.8,1.2-2.7
							c-1.1-0.4-1.6,0-1.7,1.3c-0.1,1.8-1.2,3-2.5,4.1c-0.4,0.3-0.9,0.4-1.4,0.6c-0.1-0.1-0.2-0.2-0.4-0.3c1-1.8,2.1-3.6,3.1-5.5
							c-0.6,0-1.1,0-1.7,0c0.1,0.1,0.1,0.1,0.2,0.2c-1.6,1.8-3.3,3.6-5,5.4c-0.1,0.1-0.5,0.1-0.7,0.2c-0.1-0.1-0.2-0.2-0.3-0.3
							c1.1-1.8,2.2-3.6,3.4-5.5c-0.6,0-1.2,0-1.7,0c-1.8,2.1-3.1,4.5-5.6,5.8c-0.1-0.1-0.2-0.1-0.3-0.2c0.1-0.4,0.2-0.8,0.4-1.2
							c1.9-3.3,3.8-6.5,5.9-10c0.2,0.5,0.3,0.8,0.5,1.2c16.2-3.2,32.5-6.3,49-9.5c-0.2,0.3-0.3,0.6-0.4,0.8
							c-3.3,5.1-6.5,10.1-9.8,15.2c-0.3,0.4-0.8,0.6-1.4,1.1c-0.4-1.6,0.3-2.2,1.1-2.8c-0.8-1-1.3-0.8-4,1.9
							c0.1-0.3,0.2-0.5,0.2-0.7c0-0.5,0.1-1.4-0.1-1.5c-0.5-0.2-1.2-0.3-1.7,0c-0.7,0.4-1.2,1.1-1.8,1.6c-1.1,1.1-2,2.3-3.2,3.4
							c-0.6,0.6-1.4,1-2.4,0.4c0.1-0.6,0.2-1.1,0.2-1.5c1.3-0.7,2.4-1.2,3.4-1.8c0.7-0.5,1.4-1.2,0.9-2.1s-1.5-0.6-2.3-0.2
							s-1.5,0.9-2.2,1.5c-1.1,1-2.2,2-3.3,3C259.3,23.2,259.3,23.1,259.2,23.1z M255,16.8c0.2,0.1,0.4,0.2,0.6,0.4
							c0.4-0.3,0.9-0.6,1.2-1c0.1-0.2-0.1-0.9-0.3-1c-0.3-0.1-0.9,0-1.1,0.3C255.1,15.8,255.1,16.3,255,16.8z"/>
						<path class="st10" d="M213.1,23.9c0.3-0.6,0.6-1.1,0.8-1.8c0.4-1.4,0.1-2.3-1.1-3.3c0.8-0.4,1.6-0.7,2.3-1.1
							c1.6-1.1,2.2-3.1,1.4-4.3s-2.9-1.3-4.5-0.2c-0.7,0.5-1.3,1.1-2,1.8c-0.3-0.1-0.6-0.3-1-0.5c0.3-0.5,0.5-0.8,0.9-1.5
							c-1.1,0.1-1.9,0.3-2.7,0.4c0,0.1,0,0.2,0,0.3c-0.6-0.2-1.2-0.4-1.8-0.5s-1.2-0.2-1.9-0.4c1.6-2.5,3.2-5,4.8-7.4
							c8.4,3.2,16.8,6.5,25.3,9.7c-0.9,1.4-1.7,2.7-2.5,4.1c-1-1-2.2-0.8-3.1-0.2c-1,0.6-1.8,1.4-2.6,2.3c-0.9,0.9-1.7,1.9-2.6,2.8
							c-0.3,0.3-0.8,0.5-1.3,0.7c-0.1-0.1-0.2-0.2-0.4-0.3c1.1-1.8,2.2-3.6,3.3-5.5c-0.6,0-1.2,0-1.8,0c-1.7,2.1-2.7,4.8-5.4,5.8
							c-0.1-0.1-0.3-0.2-0.4-0.3c1.1-1.8,2.3-3.6,3.4-5.5c-0.6,0-1.2,0-1.8,0c0.1,0.1,0.1,0.2,0.2,0.3c-1.8,1.7-3.6,3.3-5.4,5
							C213.2,24,213.1,24,213.1,23.9z"/>
						<path class="st10" d="M206.8,20.9c1.1-1.7,2.3-3.4,3.4-5.2c0.5,0.3,1,0.6,1.5,0.9c0.1-0.1,0.1-0.2,0.2-0.3
							c-0.4-0.3-0.8-0.7-1.3-1.1c0.6-0.5,1.2-1.2,1.9-1.6c0.6-0.3,1.3-0.1,2-0.2c0,0.6,0.3,1.4,0,1.9c-0.7,2-2.3,2.9-4.4,2.9
							c-0.4,0-0.8,0.2-1.2,0.3c0,0.1,0,0.2,0.1,0.3c0.3,0,0.7,0,1,0c1.5,0,2.1,0.7,1.9,2.2c-0.3,2.5-2.4,4.6-4.6,4.8
							c-1.7,0.2-2.5-0.8-1.9-2.5c0.5-1.3,1.5-1.9,2.8-2.2c0.3-0.1,0.6-0.1,0.9-0.2c0-0.2-0.1-0.3-0.1-0.5c-0.7,0.1-1.4,0.3-2,0.4
							C206.9,21,206.9,21,206.8,20.9z"/>
						<path class="st10" d="M206.8,14.2c-1.5,2.6-3.6,3.9-6.7,3.8c0.9-1.3,1.7-2.6,2.5-3.9c-2.5-0.5-4.5,0.7-4.7,2.8
							c-0.6-0.8-0.5-1.8,0.4-2.4c0.8-0.5,1.7-0.9,2.6-1.1C202.7,13,205,13.4,206.8,14.2z"/>
						<path class="st10" d="M208.6,14.9c0.3,0.2,0.7,0.3,1.1,0.6c-2.7,3.5-4.5,7.5-8,10.7C201.7,24.9,206.6,17.1,208.6,14.9z"/>
						<path class="st10" d="M225.8,24.5c0-1.6,2.1-4.8,3.6-5.3c0.3-0.1,0.8,0.1,1.2,0.1C230,21.6,227.2,24.6,225.8,24.5z"/>
						<path class="st10" d="M254.1,24.1c1.4-1.3,2.7-2.6,4.2-4c-0.4,1.3-0.6,2.6-1.1,3.7c-0.5,1.3-1.2,1.4-2.3,0.5
							c-0.1-0.1-0.4-0.1-0.7-0.1C254.2,24.2,254.1,24.2,254.1,24.1z"/>
						<path class="st10" d="M266.4,19c-0.1,1.5-1.4,2.7-3.1,3C264.2,20.8,264.7,19.4,266.4,19z"/>
						<path class="st10" d="M246.5,22c0.9-1.3,1.4-2.6,3-3C249.7,20.3,248.5,21.7,246.5,22z"/>
						<path class="st10" d="M232.8,23.6c0-0.1,0.1-0.2,0.1-0.3c0.1,0.1,0.1,0.1,0.2,0.2c-0.1,0.1-0.1,0.2-0.2,0.4
							C233,23.8,232.9,23.7,232.8,23.6z"/>
						<path class="st10" d="M273,20.3c0,0,0-0.1,0.1-0.1c0,0,0,0,0.1,0C273.1,20.2,273.1,20.3,273,20.3L273,20.3z"/>
						<path class="st10" d="M207,21.1c-0.1,0-0.1,0.1-0.3,0.2c0.1-0.2,0.1-0.3,0.1-0.3C206.9,21,206.9,21,207,21.1z"/>
						<path class="st10" d="M259.4,23.2c0,0.1,0,0.2-0.1,0.3c-0.1,0-0.1-0.1-0.2-0.1c0-0.1,0-0.2,0.1-0.2
							C259.3,23.1,259.3,23.2,259.4,23.2z"/>
						<path class="st10" d="M213.2,24.1c-0.1,0-0.1,0.1-0.4,0.2c0.2-0.2,0.2-0.3,0.3-0.4C213.1,24,213.2,24,213.2,24.1z"/>
					</g>
				</g>
			</g>
			<g>
				<g>
					<g>
						<path class="st11" d="M209.5,228.7h-56c-2.9,0-5.2-2.3-5.2-5.2v-10.2c0-2.9,2.3-5.2,5.2-5.2h56c2.9,0,5.2,2.3,5.2,5.2v10.2
							C214.7,226.4,212.3,228.7,209.5,228.7z"/>
						<g>
							<path class="st0" d="M158.8,211.9c0.1,0,0.3,0.1,0.4,0.1c1.4,0.3,2.3,1.3,2.6,2.6c0,0.3,0.1,0.6,0.1,0.8
								c0,0.4-0.2,0.6-0.7,0.6c-0.3,0-0.6,0-0.8,0c-0.4,0-0.6-0.2-0.6-0.6c0-0.2,0-0.5-0.1-0.7c-0.1-0.4-0.4-0.7-0.8-0.8
								c-0.6-0.2-1.2-0.2-1.7,0.3c-0.6,0.5-0.8,1.8,0.1,2.5c0.4,0.3,0.8,0.5,1.2,0.6c0.6,0.3,1.3,0.6,1.9,0.9
								c1.1,0.6,1.6,1.7,1.7,2.9c0,0.8-0.1,1.5-0.5,2.1c-0.5,0.8-1.2,1.2-2,1.4c-1,0.3-1.9,0.3-2.9-0.1c-1.3-0.5-2-1.4-2.2-2.8v-0.1
								c0-0.2,0-0.4,0-0.6c0,0,0,0,0-0.1c0.1-0.3,0.2-0.4,0.5-0.4c0.4,0,0.7,0,1.1,0c0.3,0,0.4,0.2,0.5,0.5c0,0.1,0,0.1,0,0.2
								c0,0.6,0.2,1,0.8,1.3c0.4,0.2,0.9,0.2,1.4,0.2c1.2-0.2,1.7-1.3,1.1-2.4c-0.2-0.4-0.6-0.7-1-0.9c-0.7-0.3-1.4-0.6-2.1-0.9
								c-1.2-0.6-1.9-1.5-2.1-2.8c-0.1-0.8,0-1.6,0.4-2.3c0.5-0.9,1.3-1.4,2.3-1.6c0.1,0,0.3-0.1,0.4-0.1
								C158,211.9,158.4,211.9,158.8,211.9z"/>
							<path class="st0" d="M165.7,217.7c0.2-0.3,0.4-0.6,0.6-0.8c1-1.4,2-2.9,3-4.3c0.2-0.3,0.5-0.5,0.9-0.5c0.3,0,0.6,0,0.9,0
								c0.2,0,0.4,0,0.5,0.2s0.1,0.4,0,0.6c-0.3,0.4-0.7,0.9-1,1.3c-0.8,1-1.6,2.1-2.4,3.1c0,0,0,0.1-0.1,0.1c0.5,1,1.1,2,1.6,3
								c0.6,1.1,1.2,2.3,1.8,3.4c0.2,0.4,0,0.9-0.5,0.8c-0.3,0-0.7,0-1,0s-0.6-0.2-0.7-0.5c-0.5-1-1-2.1-1.6-3.1
								c-0.3-0.6-0.6-1.2-0.9-1.8c0,0,0-0.1-0.1-0.1c-0.3,0.4-0.5,0.7-0.8,1.1c-0.2,0.2-0.2,0.4-0.2,0.7c0,1,0,2,0,2.9
								c0,0.1,0,0.1,0,0.2c0,0.3-0.2,0.5-0.5,0.6c-0.3,0-0.7,0-1,0s-0.5-0.2-0.5-0.5c0-0.1,0-0.2,0-0.3c0-3.6,0-7.3,0-10.9
								c0-0.7,0.2-0.9,0.9-0.9c0.2,0,0.4,0,0.6,0c0.4,0,0.6,0.2,0.6,0.6c0,0.4,0,0.8,0,1.3c0,1.2,0,2.3,0,3.5
								C165.7,217.5,165.7,217.6,165.7,217.7z"/>
							<path class="st0" d="M179.5,220c0,0.9,0,1.8,0,2.7c0,0.5,0,0.9,0,1.4c0,0.4-0.2,0.6-0.6,0.6c-0.3,0-0.6,0-0.9,0
								c-0.3,0-0.5-0.2-0.6-0.6c0-0.1,0-0.1,0-0.2c0-3.7,0-7.4,0-11.1c0-0.1,0-0.2,0-0.2c0-0.3,0.2-0.5,0.5-0.5c0.1,0,0.1,0,0.2,0
								c1.2,0,2.5,0,3.7,0c1,0,1.9,0.4,2.6,1.3c0.3,0.5,0.5,1,0.6,1.6c0.1,0.8,0.1,1.5,0,2.3c-0.3,1.6-1.3,2.5-2.9,2.6
								c-0.7,0.1-1.5,0-2.2,0C179.7,220,179.6,220,179.5,220z M179.5,218c0.7,0,1.4,0,2.1,0c0.7-0.1,1.1-0.4,1.2-1.1
								c0.1-0.6,0.1-1.1,0-1.7c-0.1-0.7-0.5-1-1.2-1.1c-0.7,0-1.4,0-2.1,0l0,0C179.5,215.4,179.5,216.7,179.5,218z"/>
							<path class="st0" d="M175.3,218.4c0,1.8,0,3.6,0,5.5c0,0.7-0.2,0.8-0.9,0.8c-0.2,0-0.4,0-0.7,0s-0.5-0.2-0.6-0.6
								c0-0.1,0-0.1,0-0.2c0-3.7,0-7.4,0-11.1c0-0.1,0-0.2,0-0.3c0-0.3,0.2-0.5,0.5-0.5s0.7,0,1,0s0.5,0.2,0.5,0.5
								c0,0.1,0,0.2,0,0.3C175.3,214.8,175.3,216.6,175.3,218.4z"/>
							<path class="st0" d="M186.7,221.9c0-0.8,0-1.6,0-2.5c0-0.3,0.1-0.4,0.4-0.4c0.6,0,1.1,0,1.7,0c0.9,0.1,1.4,0.7,1.4,1.6
								c0,0.8,0,1.6,0,2.4c0,1.1-0.6,1.7-1.7,1.7c-0.5,0-1,0-1.5,0c-0.2,0-0.3-0.1-0.3-0.3C186.7,223.6,186.7,222.8,186.7,221.9z
								 M187.6,223.9c0.3,0,0.6,0,0.9,0c0.3,0,0.6-0.2,0.6-0.6c0-0.1,0-0.2,0-0.3c0-0.7,0-1.4,0-2.1c0-0.1,0-0.2,0-0.4
								c-0.1-0.2-0.2-0.4-0.4-0.5c-0.4-0.1-0.8,0-1.2-0.1C187.6,221.3,187.6,222.6,187.6,223.9z"/>
							<path class="st0" d="M199.6,222.3c-0.6,0-1.1,0-1.7,0c0,0.1,0,0.2,0,0.2c0,0.6,0,1.2,0,1.9c0,0.3-0.1,0.4-0.4,0.4
								c-0.1,0-0.2,0-0.3,0c-0.2,0-0.3-0.1-0.3-0.3c0-1.7,0-3.4,0-5.1c0-0.2,0.1-0.3,0.3-0.3c0.1,0,0.2,0,0.3,0
								c0.2,0,0.3,0.1,0.3,0.3c0,0.6,0,1.2,0,1.8c0,0.1,0,0.1,0,0.2c0.6,0,1.1,0,1.7,0c0-0.2,0-0.4,0-0.6c0-0.4,0-0.8,0-1.2
								c0-0.6,0.1-0.6,0.7-0.6c0.1,0,0.2,0.1,0.2,0.2c0,0.1,0,0.1,0,0.2c0,1.6,0,3.3,0,4.9c0,0.3-0.1,0.4-0.4,0.4
								c-0.5,0-0.5,0-0.5-0.5C199.6,223.6,199.6,223,199.6,222.3z"/>
							<path class="st0" d="M195.5,220.9c-0.1,0-0.1,0-0.2,0c-0.2,0-0.3-0.1-0.3-0.3c0-0.5-0.4-0.8-0.9-0.7c-0.3,0-0.5,0.2-0.5,0.4
								c-0.1,0.3-0.1,0.6,0.2,0.8s0.6,0.3,0.8,0.4c0.2,0.1,0.4,0.2,0.6,0.3c0.7,0.4,0.9,1.2,0.7,1.8c-0.2,0.7-0.7,1.2-1.5,1.2
								c-0.6,0-1.1-0.1-1.5-0.5c-0.3-0.3-0.4-0.7-0.4-1.2c0-0.2,0.1-0.3,0.3-0.3c0.1,0,0.3,0,0.4,0c0.2,0,0.3,0.1,0.3,0.3
								c0,0.3,0.1,0.5,0.3,0.6c0.3,0.1,0.6,0.1,0.9,0c0.4-0.2,0.4-0.9,0-1.2c-0.2-0.1-0.5-0.2-0.7-0.3s-0.3-0.1-0.5-0.2
								c-0.7-0.3-1-0.9-1-1.7c0-0.7,0.4-1.2,1.1-1.4c0.8-0.2,1.6,0,2,0.6c0.2,0.3,0.3,0.6,0.3,1c0,0.2-0.1,0.3-0.3,0.3
								C195.7,220.9,195.6,220.9,195.5,220.9z"/>
							<path class="st0" d="M205.6,223c0.1,0,0.1,0,0.2,0c0.2,0,0.3,0.1,0.3,0.3c0,0.3,0.1,0.5,0.4,0.7c0.3,0.1,0.6,0.1,0.9-0.1
								c0.4-0.3,0.3-0.9-0.1-1.2c-0.3-0.2-0.7-0.3-1-0.5c-0.4-0.2-0.8-0.5-1-0.9c-0.2-0.7-0.2-1.6,0.5-2c0.7-0.5,1.8-0.4,2.3,0.2
								c0.3,0.3,0.4,0.7,0.4,1.2c0,0.2-0.1,0.2-0.3,0.3c-0.1,0-0.2,0-0.4,0s-0.3-0.1-0.3-0.3c0-0.5-0.4-0.8-0.9-0.7
								c-0.3,0-0.5,0.2-0.6,0.5s0,0.6,0.2,0.8c0.3,0.2,0.6,0.3,0.8,0.4c0.3,0.2,0.6,0.3,0.9,0.5c0.5,0.5,0.6,1.1,0.4,1.7
								c-0.2,0.6-0.7,0.9-1.3,1s-1.1,0-1.6-0.4c-0.4-0.3-0.5-0.8-0.5-1.3c0-0.2,0.1-0.3,0.3-0.3C205.5,223,205.5,223,205.6,223z"/>
							<path class="st0" d="M202.5,223.9c0.1,0,0.1,0,0.2,0c0.6,0,1.1,0,1.7,0c0.1,0,0.1,0,0.2,0c0.2,0.1,0.2,0.2,0.2,0.6
								c0,0.2-0.1,0.3-0.3,0.3c-0.9,0-1.8,0-2.7,0c-0.2,0-0.3-0.1-0.3-0.3v-0.1c0-1.6,0-3.3,0-4.9c0-0.3,0.1-0.4,0.4-0.4
								c0.8,0,1.6,0,2.5,0c0.3,0,0.4,0.1,0.4,0.4c0,0.5,0,0.5-0.5,0.5s-1,0-1.6,0c-0.1,0-0.1,0-0.2,0c0,0.5,0,1,0,1.5
								c0.4,0,0.7,0,1.1,0c0.1,0,0.3,0,0.4,0c0.2,0,0.3,0.1,0.3,0.3c0,0.5,0,0.6-0.6,0.6c-0.4,0-0.8,0-1.3,0
								C202.5,222.9,202.5,223.4,202.5,223.9z"/>
							<path class="st0" d="M190,213.7c0.5-0.4,1.1-0.4,1.5-0.1c0.4,0.3,0.5,0.7,0.5,1.1c0,0.9,0,1.9,0,2.8c0,0.2-0.1,0.3-0.3,0.3
								c-0.1,0-0.2,0-0.2,0c-0.3,0-0.3-0.1-0.3-0.3c0-0.8,0-1.7,0-2.5c0-0.1,0-0.1,0-0.2c-0.1-0.4-0.2-0.5-0.6-0.5
								c-0.3,0-0.5,0.2-0.5,0.6c0,0.9,0,1.8,0,2.6c0,0.1,0,0.2,0,0.2c-0.1,0.1-0.2,0.1-0.2,0.2c-0.1,0-0.2,0-0.3,0
								c-0.3,0-0.3-0.1-0.3-0.3c0-1.7,0-3.4,0-5.1c0-0.3,0.1-0.4,0.4-0.4c0.5,0,0.5,0,0.5,0.5C190,212.9,190,213.3,190,213.7z"/>
							<path class="st0" d="M193.4,215.9c0,0.3,0,0.5,0,0.8c0.1,0.4,0.5,0.6,0.8,0.4c0.1-0.1,0.2-0.2,0.2-0.4s0.1-0.3,0.3-0.3
								c0.1,0,0.1,0,0.2,0c0.3,0,0.4,0.1,0.4,0.4c-0.1,0.6-0.4,0.9-1,1.1c-0.3,0.1-0.6,0.1-0.9,0c-0.5-0.2-0.9-0.6-0.9-1.2
								c0-0.7,0-1.3,0-2s0.6-1.3,1.3-1.2c0.3,0,0.5,0,0.8,0.1c0.5,0.2,0.7,0.6,0.8,1.2c0,0.3,0,0.6,0,0.8c0,0.3-0.1,0.3-0.3,0.3
								c-0.5,0-1,0-1.4,0C193.6,215.9,193.5,215.9,193.4,215.9z M193.4,215.2c0.4,0,0.7,0,1,0h0.1c0-0.2,0-0.4-0.1-0.6
								c0-0.2-0.2-0.4-0.5-0.4s-0.5,0.1-0.5,0.3C193.5,214.8,193.5,215,193.4,215.2z"/>
							<path class="st0" d="M187.6,214.4c0,0.2,0,0.4,0,0.6c0,0.5,0,1.1,0,1.6c0,0.3,0.1,0.5,0.5,0.4h0.1c0.3,0,0.4,0,0.4,0.4
								s-0.1,0.5-0.5,0.5c-0.1,0-0.2,0-0.4,0c-0.7,0-1-0.4-1.1-1.1c0-0.2,0-0.5,0-0.7c0-1.1,0-2.2,0-3.3c0-0.3,0.1-0.4,0.4-0.4
								c0.5,0,0.5,0,0.5,0.5c0,0.2,0,0.3,0,0.5c0.2,0,0.4,0,0.6,0c0.1,0,0.3,0,0.4,0.2c0,0.2,0,0.4,0,0.6l-0.2,0.1
								C188,214.4,187.8,214.4,187.6,214.4z"/>
							<path class="st0" d="M191,221.9c0-0.8,0-1.7,0-2.5c0-0.3,0.1-0.4,0.4-0.4c0.1,0,0.2,0,0.3,0c0.2,0,0.3,0.1,0.3,0.3
								c0,0.1,0,0.1,0,0.2c0,1.6,0,3.2,0,4.8c0,0.1,0,0.1,0,0.2c0,0.2-0.1,0.3-0.3,0.3c-0.1,0-0.2,0-0.3,0c-0.2,0-0.3-0.1-0.3-0.3
								C191,223.6,191,222.8,191,221.9z"/>
						</g>
					</g>
				</g>
				<g>
					<g>
						<path class="st12" d="M137.9,208.1h-10.1c-2.9,0-5.2,2.3-5.2,5.2v10.1c0,2.9,2.3,5.2,5.2,5.2h10.1c2.9,0,5.2-2.3,5.2-5.2
							v-10.1C143.2,210.5,140.8,208.1,137.9,208.1z"/>
						<g>
							<g>
								<g>
									<defs>
										<path id="SVGID_1_" d="M137.9,208.1h-10.1c-2.9,0-5.2,2.3-5.2,5.2v10.1c0,2.9,2.3,5.2,5.2,5.2h10.1c2.9,0,5.2-2.3,5.2-5.2
											v-10.1C143.2,210.5,140.8,208.1,137.9,208.1z"/>
									</defs>
									<clipPath id="SVGID_2_">
										<use xlink:href="#SVGID_1_"  style="overflow:visible;"/>
									</clipPath>
									<g class="st13">
										<path class="st14" d="M122.7,219.7c0.2,0.1,0.4,0.3,0.6,0.4c2.2,1.4,4.4,2.9,6.5,4.3c0,0,0,0,0.1,0l0,0
											c-0.2,0-0.3,0-0.5,0.1c-0.3,0-0.6,0.1-1,0.1c-0.2,0-0.4,0-0.6,0.1c-0.3,0-0.6,0.1-0.9,0.1c-0.2,0-0.4,0-0.6,0.1
											c-0.4,0-0.7,0.1-1.1,0.2c-0.2,0-0.5,0.1-0.7,0.1c-0.3,0-0.7,0.1-1,0.1s-0.5,0.1-0.8,0.1c0-1.8,0-3.7,0-5.5
											C122.7,219.8,122.7,219.7,122.7,219.7z"/>
										<path class="st15" d="M143.2,226.5c0,0.7,0,1.5,0,2.2c-0.3,0-0.5,0-0.8,0c0,0,0,0-0.1-0.1c-0.6-0.2-1.1-0.4-1.7-0.6
											c-0.8-0.3-1.7-0.6-2.5-0.9c-0.8-0.3-1.6-0.6-2.4-0.8c-0.8-0.3-1.6-0.6-2.4-0.8c-0.9-0.3-1.7-0.6-2.6-0.9
											c-0.2-0.1-0.3-0.1-0.5-0.2h0.1c0.3,0,0.5,0.1,0.8,0.1c0.2,0,0.4,0.1,0.6,0.1c0.2,0,0.5,0.1,0.7,0.1s0.5,0.1,0.7,0.1
											c0.3,0,0.5,0.1,0.8,0.1c0.2,0,0.3,0,0.5,0.1c0.2,0,0.5,0.1,0.7,0.1s0.4,0.1,0.7,0.1c0.2,0,0.5,0.1,0.7,0.1
											s0.5,0.1,0.7,0.1c0.3,0,0.5,0.1,0.8,0.1c0.2,0,0.3,0,0.5,0.1c0.2,0,0.5,0.1,0.7,0.1s0.3,0,0.5,0.1c0.2,0,0.5,0.1,0.7,0.1
											s0.3,0,0.5,0.1c0.3,0,0.6,0.1,0.9,0.2c0.2,0,0.5,0.1,0.7,0.1C142.5,226.4,142.9,226.5,143.2,226.5z"/>
										<path class="st16" d="M130.2,224.5c0.2,0.1,0.3,0.1,0.5,0.2c0.9,0.3,1.7,0.6,2.6,0.9c0.8,0.3,1.6,0.6,2.4,0.8
											c0.8,0.3,1.6,0.6,2.4,0.8c0.8,0.3,1.7,0.6,2.5,0.9c0.6,0.2,1.1,0.4,1.7,0.6c0,0,0,0,0.1,0.1c-1.9,0-3.9,0-5.8,0
											c-0.1-0.1-0.1-0.1-0.2-0.2c-0.7-0.4-1.3-0.9-2-1.3c-0.6-0.4-1.3-0.8-1.9-1.2C131.7,225.6,130.9,225.1,130.2,224.5
											c-0.1,0-0.1,0-0.1,0s-0.1,0-0.1-0.1l0,0l0,0C130,224.5,130.1,224.5,130.2,224.5C130.1,224.5,130.1,224.5,130.2,224.5
											L130.2,224.5z"/>
										<path class="st17" d="M125.4,228.8c-0.9,0-1.8,0-2.7,0c0-0.6,0-1.1,0-1.7c0,0,0,0,0.1,0c0.7-0.3,1.5-0.5,2.2-0.8
											c0.8-0.3,1.5-0.6,2.3-0.8c0.7-0.2,1.4-0.5,2-0.7c0.2-0.1,0.4-0.1,0.6-0.2c0,0.1-0.1,0.1-0.1,0.2c-0.6,0.6-1.3,1.2-1.9,1.8
											C127,227.2,126.3,227.9,125.4,228.8C125.4,228.7,125.4,228.7,125.4,228.8z"/>
										<path class="st18" d="M129.9,224.5C130,224.5,130,224.5,129.9,224.5c0.1,0.1,0.1,0.1,0.2,0.2c0.4,0.5,0.8,0.9,1.2,1.4
											c0.5,0.6,1.1,1.2,1.6,1.9c0.2,0.3,0.5,0.6,0.7,0.9c-1.5,0-3.1,0-4.6,0c0,0,0,0,0-0.1C129.3,227.3,129.6,225.9,129.9,224.5
											z"/>
										<path class="st19" d="M129.9,224.5c-0.3,1.4-0.6,2.8-0.9,4.2c0,0,0,0,0,0.1c-1.2,0-2.4,0-3.6,0c0,0,0-0.1,0.1-0.1
											c0.8-0.7,1.6-1.5,2.4-2.2c0.6-0.6,1.3-1.2,1.9-1.8C129.8,224.6,129.8,224.5,129.9,224.5L129.9,224.5L129.9,224.5
											L129.9,224.5z"/>
										<path class="st20" d="M133.6,228.8c-0.2-0.3-0.5-0.6-0.7-0.9c-0.5-0.6-1.1-1.2-1.6-1.9c-0.4-0.5-0.8-0.9-1.2-1.4l-0.1-0.1
											h0.1c0.8,0.5,1.6,1,2.4,1.5c0.6,0.4,1.3,0.8,1.9,1.2c0.7,0.4,1.3,0.9,2,1.3c0.1,0,0.1,0.1,0.2,0.2
											C135.6,228.8,134.6,228.8,133.6,228.8z"/>
										<path class="st21" d="M129.9,224.5L129.9,224.5c-0.2,0.1-0.4,0.2-0.6,0.2c-0.7,0.2-1.4,0.5-2,0.7
											c-0.8,0.3-1.5,0.6-2.3,0.8c-0.7,0.3-1.5,0.5-2.2,0.8c0,0,0,0-0.1,0c0-0.6,0-1.1,0-1.7c0.3,0,0.5-0.1,0.8-0.1
											s0.7-0.1,1-0.1c0.2,0,0.5-0.1,0.7-0.1c0.4,0,0.7-0.1,1.1-0.2c0.2,0,0.4,0,0.6-0.1c0.3,0,0.6-0.1,0.9-0.1
											c0.2,0,0.4,0,0.6-0.1c0.3,0,0.6-0.1,1-0.1C129.5,224.5,129.7,224.5,129.9,224.5C129.9,224.5,129.9,224.4,129.9,224.5
											C129.9,224.4,129.9,224.4,129.9,224.5z"/>
										<path class="st22" d="M130.1,224.5c0,0-0.1,0-0.1-0.1C130,224.4,130.1,224.4,130.1,224.5c0.3-0.1,0.5-0.1,0.7-0.2
											c0.1,0,0.2,0,0.4-0.1c0.2,0,0.4-0.1,0.7-0.1c0.1,0,0.3,0,0.4-0.1c0.2,0,0.4-0.1,0.6-0.1c0.1,0,0.3,0,0.4-0.1
											c0.2,0,0.4-0.1,0.7-0.1c0.1,0,0.3,0,0.4-0.1c0.2,0,0.4-0.1,0.6-0.1c0.2,0,0.4-0.1,0.6-0.1c0.2,0,0.5-0.1,0.7-0.1
											c0.1,0,0.3,0,0.4-0.1c0.2,0,0.4-0.1,0.6-0.1c0.2,0,0.4-0.1,0.6-0.1c0.2,0,0.4-0.1,0.7-0.1c0.1,0,0.3,0,0.4-0.1
											c0.2,0,0.4-0.1,0.6-0.1c0.1,0,0.3,0,0.4-0.1c0.2,0,0.4-0.1,0.7-0.1c0.1,0,0.3,0,0.4-0.1c0.2,0,0.4-0.1,0.6-0.1
											c0.2,0,0.4-0.1,0.6-0.1c0.2,0,0.5-0.1,0.7-0.1c0,0.2,0,0.5,0,0.7c0,1.2,0,2.3,0,3.5c0,0.1,0,0.1,0,0.2
											c-0.3-0.1-0.7-0.1-1-0.2c-0.2,0-0.5-0.1-0.7-0.1c-0.3,0-0.6-0.1-0.9-0.2c-0.2,0-0.3,0-0.5-0.1c-0.2,0-0.5-0.1-0.7-0.1
											s-0.3,0-0.5-0.1c-0.2,0-0.5-0.1-0.7-0.1s-0.3,0-0.5-0.1c-0.3,0-0.5-0.1-0.8-0.1c-0.2,0-0.5-0.1-0.7-0.1s-0.5-0.1-0.7-0.1
											s-0.4-0.1-0.7-0.1c-0.2,0-0.5-0.1-0.7-0.1s-0.3,0-0.5-0.1c-0.3,0-0.5-0.1-0.8-0.1c-0.2,0-0.5-0.1-0.7-0.1
											s-0.5-0.1-0.7-0.1s-0.4-0.1-0.6-0.1c-0.3,0-0.5-0.1-0.8-0.1C130.2,224.5,130.2,224.5,130.1,224.5L130.1,224.5L130.1,224.5
											z"/>
										<path class="st23" d="M143.2,222.2c-0.2,0-0.5,0.1-0.7,0.1s-0.4,0.1-0.6,0.1c-0.2,0-0.4,0.1-0.6,0.1c-0.1,0-0.3,0-0.4,0.1
											c-0.2,0-0.4,0.1-0.7,0.1c-0.1,0-0.3,0-0.4,0.1c-0.2,0-0.4,0.1-0.6,0.1c-0.1,0-0.3,0-0.4,0.1c-0.2,0-0.4,0.1-0.7,0.1
											c-0.2,0-0.4,0.1-0.6,0.1c-0.2,0-0.4,0.1-0.6,0.1c-0.1,0-0.3,0-0.4,0.1c-0.2,0-0.5,0.1-0.7,0.1s-0.4,0.1-0.6,0.1
											c-0.2,0-0.4,0.1-0.6,0.1c-0.1,0-0.3,0-0.4,0.1c-0.2,0-0.4,0.1-0.7,0.1c-0.1,0-0.3,0-0.4,0.1c-0.2,0-0.4,0.1-0.6,0.1
											c-0.1,0-0.3,0-0.4,0.1c-0.2,0-0.4,0.1-0.7,0.1c-0.1,0-0.2,0-0.4,0.1c-0.2,0-0.5,0.1-0.7,0.1c0.2-0.1,0.3-0.1,0.5-0.2
											c0.5-0.1,0.9-0.3,1.4-0.4c0.5-0.2,1.1-0.3,1.6-0.5c0.6-0.2,1.2-0.4,1.8-0.6c0.6-0.2,1.1-0.3,1.7-0.5
											c0.6-0.2,1.1-0.3,1.7-0.5c0.5-0.2,1.1-0.3,1.6-0.5s1.1-0.3,1.6-0.5c0.4-0.1,0.8-0.3,1.3-0.4l0,0
											C143.2,221,143.2,221.6,143.2,222.2z"/>
										<path class="st15" d="M130.1,224.5L130.1,224.5L130.1,224.5z"/>
									</g>
								</g>
							</g>
						</g>
					</g>
					<g id="z0FNnl.tif_4_">
						<g>
							<path class="st0" d="M132.3,221.2c-0.2-0.1-0.2-0.2-0.1-0.4c0.3-0.7,0.6-1.3,0.9-1.9c0.3-0.7,0.6-1.3,0.9-2
								c0.1-0.2,0.3-0.4,0.5-0.4c0.3,0,0.6,0,0.9,0c0.2,0,0.3,0.1,0.4,0.3c0.1,0.6,0.2,1.2,0.3,1.8c0.1,0.7,0.2,1.4,0.4,2.1v0.1
								c0,0.2,0,0.3-0.2,0.4c-0.2,0-0.5,0-0.7,0c-0.1-0.1-0.1-0.1-0.2-0.2c0-0.1,0-0.1,0-0.2c0-0.2-0.1-0.4-0.1-0.6
								c-0.5,0-1.1,0-1.6,0c0,0-0.1,0-0.1,0.1c-0.1,0.2-0.2,0.5-0.3,0.7c-0.1,0.1-0.1,0.2-0.3,0.3
								C132.8,221.2,132.6,221.2,132.3,221.2z M135.2,219.2c-0.1-0.5-0.1-1-0.2-1.5c0,0,0-0.1-0.1-0.1c0,0-0.1,0-0.1,0.1
								c-0.1,0.2-0.2,0.5-0.3,0.7c-0.1,0.3-0.2,0.5-0.4,0.8C134.5,219.2,134.9,219.2,135.2,219.2z"/>
							<path class="st0" d="M128.9,221.2c-0.2-0.1-0.2-0.2-0.2-0.4c0.1-0.4,0.1-0.8,0.2-1.3c0.1-0.6,0.2-1.1,0.3-1.7
								c0.1-0.3,0.1-0.6,0.2-1c0-0.2,0.1-0.3,0.3-0.3c0.1,0,0.1,0,0.2,0c0.8,0,1.6,0,2.4,0c0.2,0,0.2,0,0.2,0.2s-0.1,0.4-0.1,0.6
								c0,0.1-0.1,0.2-0.2,0.2c-0.5,0-1,0-1.4,0c-0.1,0-0.3,0-0.4,0c0,0-0.1,0-0.1,0.1c0,0.2-0.1,0.5-0.1,0.8c0.1,0,0.1,0,0.1,0
								c0.4,0,0.9,0,1.3,0h0.1c0.2,0,0.3,0.1,0.2,0.3c0,0.1,0,0.3-0.1,0.4c0,0.2-0.1,0.2-0.3,0.2c-0.5,0-1.1,0-1.6,0
								c0,0.3-0.1,0.6-0.1,0.9c0.1,0,0.1,0,0.1,0c0.6,0,1.2,0,1.7,0c0.2,0,0.2,0.1,0.2,0.2c0,0.2,0,0.3-0.1,0.5
								c0,0.1-0.1,0.2-0.2,0.3C130.7,221.2,129.8,221.2,128.9,221.2z"/>
							<path class="st0" d="M140.4,211.4c0,0.1-0.1,0.2-0.1,0.3c0,0.3-0.1,0.4-0.4,0.4c-0.3,0-0.6,0-0.8,0H139
								c-0.1,0.5-0.2,0.9-0.2,1.3c-0.1,0.7-0.2,1.4-0.4,2.1c0,0.2-0.1,0.2-0.3,0.2s-0.4,0-0.6,0c-0.2,0-0.2-0.1-0.2-0.2
								c0-0.3,0.1-0.6,0.1-0.8c0.1-0.6,0.2-1.2,0.3-1.7c0-0.3,0.1-0.5,0.1-0.8c-0.2,0-0.4,0-0.7,0c-0.2,0-0.3,0-0.5,0
								c-0.1,0-0.2-0.1-0.1-0.2c0-0.2,0.1-0.5,0.1-0.7c0-0.1,0.1-0.1,0.2-0.1c0.1,0,0.1,0,0.2,0c1,0,2,0,3,0
								C140.1,211.2,140.2,211.2,140.4,211.4C140.4,211.3,140.4,211.4,140.4,211.4z"/>
							<path class="st0" d="M137.4,221.2c-0.1-0.1-0.1-0.2-0.1-0.4c0.1-0.5,0.2-1.1,0.3-1.6s0.2-1.1,0.3-1.6c-0.1,0-0.1,0-0.1,0
								c-0.3,0-0.6,0-1,0c-0.1,0-0.2,0-0.2-0.2s0.1-0.4,0.1-0.6c0-0.1,0.1-0.1,0.2-0.2c0.1,0,0.1,0,0.2,0c1,0,2,0,3,0
								c0.1,0,0.2,0,0.3,0.1c0,0.1,0,0.2,0,0.3s-0.1,0.3-0.1,0.4c0,0.1-0.1,0.2-0.2,0.2c-0.3,0-0.6,0-1,0H139c0,0.3-0.1,0.5-0.1,0.7
								c-0.2,0.9-0.3,1.7-0.4,2.6c0,0.1-0.1,0.2-0.2,0.3C137.9,221.2,137.7,221.2,137.4,221.2z"/>
							<path class="st0" d="M129.4,211.1c0.1,0,0.2,0,0.3,0s0.2,0.1,0.2,0.2c0,0.2,0,0.4-0.1,0.6c-0.1,0.6-0.2,1.2-0.3,1.7
								c0,0.2,0,0.3,0,0.5c0,0.3,0.2,0.5,0.5,0.5c0.2,0,0.3,0,0.5,0c0.3,0,0.4-0.2,0.5-0.4c0.1-0.3,0.1-0.6,0.2-0.9
								c0.1-0.7,0.2-1.4,0.4-2c0-0.2,0.1-0.2,0.3-0.3c0.2,0,0.4,0,0.6,0c0.2,0,0.2,0.1,0.2,0.3s-0.1,0.4-0.1,0.6
								c-0.1,0.6-0.2,1.2-0.3,1.9c-0.1,0.4-0.2,0.8-0.4,1.1c-0.3,0.5-0.7,0.7-1.3,0.8c-0.4,0-0.8,0-1.1-0.1c-0.6-0.2-1-0.8-1-1.4
								c0-0.3,0.1-0.6,0.1-0.9c0.1-0.6,0.2-1.3,0.3-1.9c0-0.2,0.1-0.3,0.3-0.3C129.2,211.1,129.3,211.1,129.4,211.1L129.4,211.1z"/>
							<path class="st0" d="M135,211c0.3,0,0.6,0.1,1,0.1c0.1,0,0.2,0.1,0.2,0.2c0,0.2,0,0.4-0.1,0.6c0,0.1-0.1,0.2-0.3,0.2
								c-0.4,0-0.9,0-1.3,0c-0.1,0-0.2,0-0.3,0.1c-0.2,0.1-0.2,0.4,0,0.5c0.1,0.1,0.3,0.1,0.5,0.2c0.3,0.1,0.5,0.2,0.8,0.3
								c0.5,0.2,0.8,0.6,0.7,1.2c0,0.6-0.3,1-0.8,1.2c-0.3,0.1-0.6,0.2-1,0.2c-0.6,0-1.1,0-1.7-0.1c-0.1,0-0.2-0.1-0.1-0.2
								c0-0.2,0.1-0.4,0.1-0.6c0-0.1,0.1-0.2,0.2-0.2c0.4,0,0.7,0.1,1.1,0.1c0.2,0,0.5,0,0.7-0.1c0.1,0,0.1-0.1,0.2-0.1
								c0.2-0.1,0.2-0.4,0-0.5s-0.4-0.1-0.6-0.2c-0.2-0.1-0.5-0.2-0.7-0.3c-1-0.5-0.8-1.7-0.2-2.2c0.4-0.3,0.8-0.4,1.2-0.4
								C134.8,211,134.9,211.1,135,211L135,211z"/>
							<path class="st0" d="M127.1,212.1c-0.2,0-0.4,0-0.6,0c-0.1,0-0.2,0-0.3,0c-0.2,0-0.2-0.1-0.2-0.3s0.1-0.4,0.1-0.5
								s0.1-0.2,0.2-0.2c0.6,0,1.2,0,1.8,0c0.1,0,0.2,0.1,0.2,0.2c0,0.3-0.1,0.5-0.1,0.8c-0.1,0.6-0.2,1.1-0.3,1.7
								c-0.1,0.5-0.1,1-0.3,1.4c-0.3,0.7-0.9,1.2-1.7,1.4c-0.2,0-0.2,0-0.3-0.2c-0.1-0.1-0.1-0.3-0.2-0.5s0-0.2,0.2-0.3
								c0.1,0,0.2-0.1,0.3-0.1c0.5-0.2,0.7-0.6,0.8-1.1C126.8,213.6,127,212.9,127.1,212.1C127.1,212.2,127.1,212.1,127.1,212.1z"/>
						</g>
					</g>
				</g>
				<g>
					<path class="st8" d="M65.3,214v2h-1v-5.5h2.1c0.3,0,0.6,0,0.9,0.1s0.5,0.2,0.6,0.4c0.2,0.2,0.3,0.3,0.4,0.6
						c0.1,0.2,0.1,0.4,0.1,0.7s0,0.5-0.1,0.7s-0.2,0.4-0.4,0.5c-0.2,0.1-0.4,0.3-0.6,0.3s-0.5,0.1-0.9,0.1L65.3,214L65.3,214z
						 M65.3,213.2h1.1c0.2,0,0.3,0,0.5-0.1c0.1,0,0.2-0.1,0.3-0.2s0.1-0.2,0.2-0.3c0-0.1,0.1-0.2,0.1-0.4c0-0.1,0-0.3-0.1-0.4
						s-0.1-0.2-0.2-0.3s-0.2-0.2-0.3-0.2c-0.1-0.1-0.3-0.1-0.5-0.1h-1.1V213.2z"/>
					<path class="st8" d="M71.3,213.9h-1.1v2.1h-1v-5.5h1.9c0.3,0,0.6,0,0.8,0.1c0.2,0.1,0.5,0.2,0.6,0.3s0.3,0.3,0.4,0.5
						s0.1,0.4,0.1,0.7c0,0.4-0.1,0.7-0.3,0.9c-0.2,0.2-0.4,0.4-0.7,0.6l1.2,2.3l0,0h-1L71.3,213.9z M70.2,213.2h1
						c0.2,0,0.3,0,0.4-0.1c0.1,0,0.2-0.1,0.3-0.2c0.1-0.1,0.1-0.2,0.2-0.3s0.1-0.2,0.1-0.4c0-0.1,0-0.3-0.1-0.4
						c0-0.1-0.1-0.2-0.2-0.3s-0.2-0.1-0.3-0.2c-0.1,0-0.3-0.1-0.5-0.1h-1L70.2,213.2L70.2,213.2z"/>
					<path class="st8" d="M77.3,213.6H75v1.7h2.6v0.8H74v-5.5h3.6v0.8H75v1.5h2.3V213.6z"/>
					<path class="st8" d="M81.4,214.6c0-0.1,0-0.2,0-0.3s-0.1-0.2-0.2-0.2c-0.1-0.1-0.2-0.1-0.4-0.2c-0.2-0.1-0.3-0.1-0.6-0.2
						c-0.3-0.1-0.5-0.2-0.7-0.3s-0.4-0.2-0.6-0.4c-0.2-0.1-0.3-0.3-0.4-0.5s-0.1-0.4-0.1-0.6c0-0.2,0-0.4,0.1-0.6
						c0.1-0.2,0.2-0.3,0.4-0.5c0.2-0.1,0.4-0.2,0.6-0.3s0.5-0.1,0.8-0.1s0.6,0,0.8,0.1c0.2,0.1,0.5,0.2,0.6,0.4
						c0.2,0.2,0.3,0.3,0.4,0.5s0.1,0.4,0.1,0.6h-1c0-0.1,0-0.3-0.1-0.4s-0.1-0.2-0.2-0.3s-0.2-0.1-0.3-0.2c-0.1,0-0.3-0.1-0.5-0.1
						s-0.3,0-0.4,0.1c-0.1,0-0.2,0.1-0.3,0.2c-0.1,0.1-0.1,0.1-0.2,0.2c0,0.1-0.1,0.2-0.1,0.3c0,0.2,0.1,0.4,0.3,0.5
						s0.5,0.3,0.9,0.4c0.3,0.1,0.6,0.2,0.8,0.3c0.2,0.1,0.4,0.2,0.6,0.4c0.1,0.1,0.3,0.3,0.3,0.5c0.1,0.2,0.1,0.4,0.1,0.6
						c0,0.2,0,0.4-0.1,0.6s-0.2,0.3-0.4,0.5c-0.2,0.1-0.4,0.2-0.6,0.3s-0.5,0.1-0.8,0.1s-0.5,0-0.8-0.1s-0.5-0.2-0.7-0.3
						s-0.4-0.3-0.5-0.5s-0.2-0.5-0.2-0.8h1c0,0.2,0,0.3,0.1,0.4c0.1,0.1,0.1,0.2,0.3,0.3s0.2,0.1,0.4,0.2c0.1,0,0.3,0.1,0.5,0.1
						c0.3,0,0.6-0.1,0.7-0.2S81.4,214.8,81.4,214.6z"/>
					<path class="st8" d="M86.4,213.6h-2.3v1.7h2.6v0.8h-3.6v-5.5h3.6v0.8h-2.6v1.5h2.3V213.6z"/>
					<path class="st8" d="M91.9,216h-1l-2.4-3.9v3.9h-1v-5.5h1l2.5,3.9v-3.9h0.9V216z"/>
					<path class="st8" d="M96.9,211.3h-1.7v4.7h-0.9v-4.7h-1.7v-0.8H97L96.9,211.3L96.9,211.3z"/>
					<path class="st8" d="M100.8,213.6h-2.3v1.7h2.6v0.8h-3.6v-5.5h3.6v0.8h-2.6v1.5h2.3V213.6z"/>
					<path class="st8" d="M102,216v-5.5h1.6c0.4,0,0.7,0.1,1,0.2c0.3,0.1,0.6,0.3,0.8,0.5s0.4,0.5,0.5,0.8s0.2,0.7,0.2,1.1v0.3
						c0,0.4-0.1,0.8-0.2,1.1s-0.3,0.6-0.5,0.8s-0.5,0.4-0.8,0.5s-0.7,0.2-1,0.2L102,216L102,216z M102.9,211.3v4h0.6
						c0.3,0,0.5,0,0.7-0.1s0.4-0.2,0.5-0.4s0.2-0.4,0.3-0.6c0.1-0.2,0.1-0.5,0.1-0.8v-0.3c0-0.6-0.1-1.1-0.4-1.4
						c-0.3-0.3-0.6-0.5-1.1-0.5h-0.7V211.3z"/>
					<path class="st8" d="M108.9,216v-5.5h1.9c0.3,0,0.6,0,0.8,0.1c0.2,0.1,0.4,0.1,0.6,0.3c0.2,0.1,0.3,0.3,0.4,0.5
						s0.1,0.4,0.1,0.7s-0.1,0.5-0.2,0.7s-0.3,0.4-0.6,0.5c0.2,0,0.3,0.1,0.4,0.2c0.1,0.1,0.2,0.2,0.3,0.3c0.1,0.1,0.1,0.2,0.2,0.4
						c0,0.1,0.1,0.3,0.1,0.4c0,0.3,0,0.5-0.1,0.7s-0.2,0.4-0.4,0.5c-0.2,0.1-0.4,0.2-0.6,0.3s-0.5,0.1-0.8,0.1h-2.1
						C108.9,216.2,108.9,216,108.9,216z M109.9,212.9h0.9c0.3,0,0.5-0.1,0.7-0.2c0.2-0.1,0.3-0.3,0.3-0.6s-0.1-0.5-0.2-0.6
						c-0.2-0.1-0.4-0.2-0.7-0.2H110L109.9,212.9L109.9,212.9z M109.9,213.6v1.7h1.1c0.2,0,0.3,0,0.4-0.1s0.2-0.1,0.3-0.2
						s0.1-0.2,0.2-0.3c0-0.1,0.1-0.2,0.1-0.3c0-0.3-0.1-0.5-0.2-0.6c-0.1-0.2-0.4-0.2-0.7-0.2L109.9,213.6L109.9,213.6z"/>
					<path class="st8" d="M115.4,213.1l1.3-2.6h1.1L116,214v2h-1v-2l-1.8-3.5h1.1L115.4,213.1z"/>
					<path class="st8" d="M65.3,222.7v2h-1v-5.5h2.1c0.3,0,0.6,0,0.9,0.1s0.5,0.2,0.6,0.4c0.2,0.2,0.3,0.3,0.4,0.6
						c0.1,0.2,0.1,0.4,0.1,0.7s0,0.5-0.1,0.7s-0.2,0.4-0.4,0.5c-0.2,0.1-0.4,0.3-0.6,0.3s-0.5,0.1-0.9,0.1L65.3,222.7L65.3,222.7z
						 M65.3,221.9h1.1c0.2,0,0.3,0,0.5-0.1c0.1,0,0.2-0.1,0.3-0.2s0.1-0.2,0.2-0.3c0-0.1,0.1-0.2,0.1-0.4c0-0.1,0-0.3-0.1-0.4
						s-0.1-0.2-0.2-0.3S67,220,66.9,220c-0.1-0.1-0.3-0.1-0.5-0.1h-1.1V221.9z"/>
					<path class="st8" d="M71.3,222.6h-1.1v2.1h-1v-5.5h1.9c0.3,0,0.6,0,0.8,0.1c0.2,0.1,0.5,0.2,0.6,0.3s0.3,0.3,0.4,0.5
						s0.1,0.4,0.1,0.7c0,0.4-0.1,0.7-0.3,0.9c-0.2,0.2-0.4,0.4-0.7,0.6l1.2,2.3l0,0h-1L71.3,222.6z M70.2,221.8h1
						c0.2,0,0.3,0,0.4-0.1c0.1,0,0.2-0.1,0.3-0.2c0.1-0.1,0.1-0.2,0.2-0.3s0.1-0.2,0.1-0.4c0-0.1,0-0.3-0.1-0.4
						c0-0.1-0.1-0.2-0.2-0.3s-0.2-0.1-0.3-0.2c-0.1,0-0.3-0.1-0.5-0.1h-1L70.2,221.8L70.2,221.8z"/>
					<path class="st8" d="M77.3,222.3H75v1.7h2.6v0.8H74v-5.5h3.6v0.8H75v1.5h2.3V222.3z M76.2,217.7h1l-1,1.1h-0.7L76.2,217.7z"/>
					<path class="st8" d="M81.4,223.3c0-0.1,0-0.2,0-0.3s-0.1-0.2-0.2-0.2c-0.1-0.1-0.2-0.1-0.4-0.2c-0.2-0.1-0.3-0.1-0.6-0.2
						c-0.3-0.1-0.5-0.2-0.7-0.3s-0.4-0.2-0.6-0.4c-0.2-0.1-0.3-0.3-0.4-0.5s-0.1-0.4-0.1-0.6c0-0.2,0-0.4,0.1-0.6
						c0.1-0.2,0.2-0.3,0.4-0.5c0.2-0.1,0.4-0.2,0.6-0.3s0.5-0.1,0.8-0.1s0.6,0,0.8,0.1c0.2,0.1,0.5,0.2,0.6,0.4
						c0.2,0.2,0.3,0.3,0.4,0.5s0.1,0.4,0.1,0.6h-1c0-0.1,0-0.3-0.1-0.4s-0.1-0.2-0.2-0.3s-0.2-0.1-0.3-0.2c-0.1,0-0.3-0.1-0.5-0.1
						s-0.3,0-0.4,0.1c-0.1,0-0.2,0.1-0.3,0.2c-0.1,0.1-0.1,0.1-0.2,0.2c0,0.1-0.1,0.2-0.1,0.3c0,0.2,0.1,0.4,0.3,0.5
						s0.5,0.3,0.9,0.4c0.3,0.1,0.6,0.2,0.8,0.3c0.2,0.1,0.4,0.2,0.6,0.4c0.1,0.1,0.3,0.3,0.3,0.5c0.1,0.2,0.1,0.4,0.1,0.6
						c0,0.2,0,0.4-0.1,0.6s-0.2,0.3-0.4,0.5c-0.2,0.1-0.4,0.2-0.6,0.3s-0.5,0.1-0.8,0.1s-0.5,0-0.8-0.1s-0.5-0.2-0.7-0.3
						s-0.4-0.3-0.5-0.5S78,223.3,78,223h1c0,0.2,0,0.3,0.1,0.4c0.1,0.1,0.1,0.2,0.3,0.3s0.2,0.1,0.4,0.2c0.1,0,0.3,0.1,0.5,0.1
						c0.3,0,0.6-0.1,0.7-0.2S81.4,223.5,81.4,223.3z"/>
					<path class="st8" d="M86.4,222.3h-2.3v1.7h2.6v0.8h-3.6v-5.5h3.6v0.8h-2.6v1.5h2.3V222.3z"/>
					<path class="st8" d="M91.9,224.7h-1l-2.4-3.9v3.9h-1v-5.5h1l2.5,3.9v-3.9h0.9V224.7z"/>
					<path class="st8" d="M96.9,220h-1.7v4.7h-0.9V220h-1.7v-0.8H97L96.9,220L96.9,220z"/>
					<path class="st8" d="M100.8,222.3h-2.3v1.7h2.6v0.8h-3.6v-5.5h3.6v0.8h-2.6v1.5h2.3V222.3z M99.7,217.7h1l-1,1.1H99L99.7,217.7
						z"/>
					<path class="st8" d="M104.8,222.7v2h-1v-5.5h2.1c0.3,0,0.6,0,0.9,0.1s0.5,0.2,0.6,0.4c0.2,0.2,0.3,0.3,0.4,0.6
						c0.1,0.2,0.1,0.4,0.1,0.7s0,0.5-0.1,0.7s-0.2,0.4-0.4,0.5c-0.2,0.1-0.4,0.3-0.6,0.3s-0.5,0.1-0.9,0.1L104.8,222.7L104.8,222.7z
						 M104.8,221.9h1.1c0.2,0,0.3,0,0.5-0.1c0.1,0,0.2-0.1,0.3-0.2s0.1-0.2,0.2-0.3c0-0.1,0.1-0.2,0.1-0.4c0-0.1,0-0.3-0.1-0.4
						s-0.1-0.2-0.2-0.3s-0.2-0.2-0.3-0.2c-0.1-0.1-0.3-0.1-0.5-0.1h-1.1V221.9z"/>
					<path class="st8" d="M111.2,223.4h-2.1l-0.4,1.3h-1l2.1-5.5h0.9l2.1,5.5h-1L111.2,223.4z M109.4,222.7h1.6l-0.8-2.3
						L109.4,222.7z"/>
					<path class="st8" d="M115.3,222.6h-1.1v2.1h-1v-5.5h1.9c0.3,0,0.6,0,0.8,0.1c0.2,0.1,0.5,0.2,0.6,0.3s0.3,0.3,0.4,0.5
						s0.1,0.4,0.1,0.7c0,0.4-0.1,0.7-0.3,0.9c-0.2,0.2-0.4,0.4-0.7,0.6l1.2,2.3l0,0h-1L115.3,222.6z M114.2,221.8h1
						c0.2,0,0.3,0,0.4-0.1c0.1,0,0.2-0.1,0.3-0.2c0.1-0.1,0.1-0.2,0.2-0.3s0.1-0.2,0.1-0.4c0-0.1,0-0.3-0.1-0.4
						c0-0.1-0.1-0.2-0.2-0.3s-0.2-0.1-0.3-0.2c-0.1,0-0.3-0.1-0.5-0.1h-1L114.2,221.8L114.2,221.8z"/>
				</g>
			</g>
		</g>
	</g>
</g>
<g id="text">
	<g id="Layer_8">
		<g>
			<path class="st24" d="M314.2,144h34.3v15.1h-54V77.4h19.7L314.2,144L314.2,144z"/>
			<path class="st24" d="M385.3,160.2c-4.9,0-9.3-0.8-13.3-2.3c-3.9-1.6-7.2-3.7-9.8-6.4c-2.6-2.7-4.7-5.8-6.1-9.4
				c-1.4-3.6-2.1-7.4-2.1-11.3v-2.1c0-4.5,0.6-8.5,1.8-12.4c1.3-3.9,3-7.2,5.5-10c2.4-2.8,5.5-5,9.1-6.6c3.7-1.6,7.9-2.4,12.8-2.4
				c4.3,0,8.1,0.7,11.5,2c3.4,1.4,6.3,3.4,8.7,5.9c2.3,2.6,4.2,5.7,5.4,9.4c1.3,3.7,1.8,7.8,1.8,12.3v7.7h-37.6
				c0.7,3.4,2.1,6.1,4.5,8c2.3,1.9,5.2,2.9,8.8,2.9c2.6,0,5.1-0.5,7.6-1.5c2.5-1,4.7-2.6,6.4-4.8l8.6,10.2c-1,1.4-2.2,2.6-3.7,4
				c-1.6,1.3-3.3,2.4-5.3,3.4c-2,1-4.3,1.8-6.8,2.4C390.9,159.9,388.2,160.2,385.3,160.2z M383.2,111.9c-1.6,0-3,0.3-4.2,0.9
				c-1.2,0.6-2.1,1.4-2.9,2.3c-0.8,1-1.4,2.1-1.8,3.5c-0.5,1.4-0.8,2.8-1,4.4h19.1v-1.5c0.1-3-0.7-5.3-2.3-7.1
				C388.4,112.7,386.1,111.9,383.2,111.9z"/>
			<path class="st24" d="M447.9,159.1V77.4h29.4c5,0,9.6,0.5,13.6,1.4s7.4,2.3,10.1,4.2c2.8,1.8,4.8,4.3,6.3,7.1
				c1.5,2.8,2.2,6.1,2.2,10c0,1.8-0.2,3.7-0.6,5.4c-0.4,1.7-1.1,3.4-2,4.9c-0.9,1.6-2.1,2.9-3.6,4.2c-1.5,1.3-3.2,2.2-5.3,3
				c2.4,0.7,4.5,1.6,6.2,2.7c1.6,1.2,3,2.6,4.1,4.2c1.1,1.6,1.8,3.3,2.2,5c0.5,1.8,0.7,3.7,0.7,5.5c0,8-2.6,14.2-7.8,18.1
				c-5.1,4-12.8,6-23,6H447.9z M467.6,111.5h10.3c4.3,0,7.4-0.8,9.2-2.3s2.7-3.8,2.7-6.8c0-3.4-1-5.9-3-7.5s-5.1-2.2-9.6-2.2h-9.7
				L467.6,111.5L467.6,111.5z M467.6,124.4V144h12.9c1.9,0,3.7-0.3,5-0.8c1.4-0.5,2.5-1.2,3.4-2c0.9-0.9,1.6-1.8,1.9-2.9
				c0.4-1.2,0.6-2.3,0.6-3.7c0-1.6-0.2-3-0.6-4.3s-1-2.3-1.8-3.2c-0.8-0.9-1.8-1.6-3.2-2c-1.4-0.5-2.9-0.8-4.7-0.8L467.6,124.4
				L467.6,124.4L467.6,124.4z"/>
			<path class="st24" d="M557.3,152.5c-1.9,2.4-4.2,4.4-6.9,5.6c-2.7,1.3-5.8,2-9.3,2c-3,0-5.7-0.4-8.2-1.3c-2.5-0.9-4.7-2.1-6.4-4
				s-3.2-4.2-4.2-7c-1-2.9-1.5-6.3-1.5-10.3V98.4h18.9v39.4c0,2.7,0.7,4.7,1.9,5.9c1.3,1.3,3.2,1.9,5.6,1.9c2.3,0,4.3-0.4,5.7-1.3
				c1.5-0.8,2.6-1.9,3.5-3.4V98.4h19v60.7h-17.7L557.3,152.5z"/>
			<path class="st24" d="M622.7,115.5c-0.4,0-0.9-0.1-1.4-0.1c-0.6-0.1-1.1-0.1-1.6-0.1c-0.6,0-1.2-0.1-1.7-0.1
				c-0.6,0-1.1-0.1-1.5-0.1c-3,0-5.5,0.5-7.4,1.4c-1.8,0.9-3.2,2.3-4.1,4.3v38.4h-18.9V98.4h17.6l0.6,7.8c1.5-2.8,3.4-5,5.6-6.6
				c2.2-1.6,4.7-2.3,7.8-2.3c1,0,1.8,0.1,2.8,0.2c0.9,0.1,1.7,0.3,2.5,0.5L622.7,115.5z"/>
			<path class="st24" d="M626.2,128.3c0-4.6,0.6-8.8,1.7-12.6c1.2-3.8,2.8-7.1,4.9-9.8c2.1-2.7,4.7-4.8,7.9-6.3
				c3.1-1.5,6.6-2.2,10.4-2.2c3.4,0,6.3,0.6,8.7,1.6c2.3,1.2,4.4,2.7,6.1,4.7l0.7-5.2h17.2v58.4c0,4.3-0.8,7.9-2.2,11.2
				c-1.5,3.3-3.6,6-6.3,8.2s-6,3.9-9.8,5c-3.8,1.2-7.9,1.7-12.6,1.7c-2,0-4.1-0.2-6.3-0.6c-2.1-0.4-4.2-1-6.2-1.7
				c-1.9-0.8-3.9-1.7-5.6-2.8c-1.7-1.2-3.2-2.4-4.5-4l7.9-11.1c1.5,1.7,3.4,3.2,5.7,4.5c2.3,1.2,5,1.8,8.1,1.8
				c4.1,0,7.3-1.1,9.4-3.2s3.2-5.2,3.2-9.2v-2.4c-1.7,1.9-3.7,3.4-5.9,4.5c-2.2,1.1-4.8,1.6-7.8,1.6c-3.9,0-7.3-0.8-10.4-2.3
				c-3.1-1.6-5.6-3.7-7.8-6.4s-3.8-6-4.9-9.7c-1.2-3.8-1.7-7.9-1.7-12.2L626.2,128.3L626.2,128.3z M645.2,129.5
				c0,2.3,0.2,4.4,0.7,6.4c0.4,1.9,1.1,3.7,1.9,5.1c0.9,1.5,2,2.6,3.3,3.4c1.4,0.8,2.9,1.3,4.7,1.3c2.1,0,4-0.4,5.4-1.1
				c1.5-0.7,2.6-1.7,3.5-3v-25.5c-0.9-1.4-2-2.3-3.5-3.1c-1.5-0.7-3.2-1.1-5.3-1.1c-1.7,0-3.3,0.4-4.7,1.3c-1.4,0.8-2.4,1.9-3.4,3.5
				c-0.9,1.5-1.6,3.2-2,5.2c-0.5,2-0.7,4.2-0.7,6.5L645.2,129.5L645.2,129.5z"/>
			<path class="st24" d="M723.8,160.2c-4.9,0-9.3-0.8-13.3-2.3c-3.9-1.6-7.2-3.7-9.8-6.4c-2.6-2.7-4.7-5.8-6.1-9.4
				c-1.4-3.6-2.1-7.4-2.1-11.3v-2.1c0-4.5,0.6-8.5,1.8-12.4c1.3-3.9,3-7.2,5.5-10c2.4-2.8,5.5-5,9.1-6.6c3.7-1.6,7.9-2.4,12.8-2.4
				c4.3,0,8.1,0.7,11.5,2c3.4,1.4,6.3,3.4,8.7,5.9c2.3,2.6,4.2,5.7,5.4,9.4c1.3,3.7,1.8,7.8,1.8,12.3v7.7h-37.6
				c0.7,3.4,2.1,6.1,4.5,8c2.3,1.9,5.2,2.9,8.8,2.9c2.6,0,5.1-0.5,7.6-1.5c2.5-1,4.7-2.6,6.4-4.8l8.6,10.2c-1,1.4-2.2,2.6-3.7,4
				c-1.6,1.3-3.3,2.4-5.3,3.4c-2,1-4.3,1.8-6.8,2.4C729.4,159.9,726.8,160.2,723.8,160.2z M721.7,111.9c-1.6,0-3,0.3-4.2,0.9
				c-1.2,0.6-2.1,1.4-2.9,2.3c-0.8,1-1.4,2.1-1.8,3.5c-0.5,1.4-0.8,2.8-1,4.4h19.1v-1.5c0.1-3-0.7-5.3-2.3-7.1
				C727,112.7,724.7,111.9,721.7,111.9z"/>
			<path class="st24" d="M793.7,115.5c-0.4,0-0.9-0.1-1.4-0.1c-0.6-0.1-1.1-0.1-1.6-0.1s-1.2-0.1-1.7-0.1c-0.6,0-1.1-0.1-1.5-0.1
				c-3,0-5.5,0.5-7.4,1.4c-1.8,0.9-3.2,2.3-4.1,4.3v38.4h-18.9V98.4h17.7l0.6,7.8c1.5-2.8,3.4-5,5.6-6.6c2.2-1.6,4.7-2.3,7.8-2.3
				c1,0,1.8,0.1,2.8,0.2c0.9,0.1,1.7,0.3,2.5,0.5L793.7,115.5z"/>
			<path class="st24" d="M893.3,128.7l9.4-51.2h19.5l-17.4,81.7h-20.5l-11-46.5l-10.8,46.5h-20.4L825,77.5h19.6l9.4,51.2l11.2-51.2
				h16.7L893.3,128.7z"/>
			<path class="st24" d="M956.6,160.2c-4.9,0-9.3-0.8-13.3-2.3c-3.9-1.6-7.2-3.7-9.8-6.4c-2.6-2.7-4.7-5.8-6.1-9.4
				c-1.4-3.6-2.1-7.4-2.1-11.3v-2.1c0-4.5,0.6-8.5,1.8-12.4c1.3-3.9,3-7.2,5.5-10c2.4-2.8,5.5-5,9.1-6.6c3.7-1.6,7.9-2.4,12.8-2.4
				c4.3,0,8.1,0.7,11.5,2c3.4,1.4,6.3,3.4,8.7,5.9c2.3,2.6,4.2,5.7,5.4,9.4c1.3,3.7,1.8,7.8,1.8,12.3v7.7h-37.6
				c0.7,3.4,2.1,6.1,4.5,8c2.3,1.9,5.2,2.9,8.8,2.9c2.6,0,5.1-0.5,7.6-1.5c2.5-1,4.7-2.6,6.4-4.8l8.6,10.2c-1,1.4-2.2,2.6-3.7,4
				c-1.6,1.3-3.3,2.4-5.3,3.4c-2,1-4.3,1.8-6.8,2.4C962.3,159.9,959.5,160.2,956.6,160.2z M954.5,111.9c-1.6,0-3,0.3-4.2,0.9
				c-1.2,0.6-2.1,1.4-2.9,2.3c-0.8,1-1.4,2.1-1.8,3.5c-0.5,1.4-0.8,2.8-1,4.4h19.1v-1.5c0.1-3-0.7-5.3-2.3-7.1
				C959.7,112.7,957.5,111.9,954.5,111.9z"/>
			<path class="st24" d="M1019.2,160.2c-4.9,0-9.3-0.8-13.3-2.3c-3.9-1.6-7.2-3.7-9.8-6.4c-2.6-2.7-4.7-5.8-6.1-9.4
				c-1.4-3.6-2.1-7.4-2.1-11.3v-2.1c0-4.5,0.6-8.5,1.8-12.4c1.3-3.9,3-7.2,5.5-10c2.4-2.8,5.5-5,9.1-6.6c3.7-1.6,7.9-2.4,12.8-2.4
				c4.3,0,8.1,0.7,11.5,2c3.4,1.4,6.3,3.4,8.7,5.9c2.3,2.6,4.2,5.7,5.4,9.4c1.3,3.7,1.8,7.8,1.8,12.3v7.7H1007
				c0.7,3.4,2.1,6.1,4.5,8c2.3,1.9,5.2,2.9,8.8,2.9c2.6,0,5.1-0.5,7.6-1.5c2.5-1,4.7-2.6,6.4-4.8l8.6,10.2c-1,1.4-2.2,2.6-3.7,4
				c-1.6,1.3-3.3,2.4-5.3,3.4c-2,1-4.3,1.8-6.8,2.4C1024.8,159.9,1022.1,160.2,1019.2,160.2z M1017,111.9c-1.6,0-3,0.3-4.2,0.9
				c-1.2,0.6-2.1,1.4-2.9,2.3c-0.8,1-1.4,2.1-1.8,3.5c-0.5,1.4-0.8,2.8-1,4.4h19.1v-1.5c0.1-3-0.7-5.3-2.3-7.1
				C1022.4,112.7,1020,111.9,1017,111.9z"/>
			<path class="st24" d="M1076.7,136.5l-5.3,5.3v17.3h-18.9V72.9h18.9v45.8l1.9-2.5l14.2-17.7h22.7l-21.2,25l22.7,35.8h-21.6
				L1076.7,136.5z"/>
		</g>
	</g>
</g>
</svg>
