<svg xmlns="http://www.w3.org/2000/svg" width="71" height="78" fill="none" viewBox="0 0 71 78"><path fill="#FF3008" d="M26.259 74.1705V75.9951H26.741C27.2574 75.9951 27.6361 75.582 27.6361 75.0656C27.6361 74.5836 27.2574 74.1705 26.7754 74.1361H26.741L26.259 74.1705ZM26.741 73.6197C27.6016 73.6197 28.2902 74.2738 28.2902 75.1C28.2902 75.9262 27.6361 76.5803 26.741 76.5803H25.7082C25.6738 76.5803 25.6393 76.5459 25.6393 76.5115V73.6885C25.6393 73.6541 25.6738 73.6197 25.7082 73.6197H26.741Z"/><path fill="#FF3008" d="M30.5279 76.0639C31.0787 76.0639 31.4918 75.6164 31.4918 75.1C31.4918 74.5836 31.0443 74.1361 30.5279 74.1361C29.9771 74.1361 29.5639 74.5836 29.5639 75.1C29.5295 75.6508 29.9771 76.0639 30.5279 76.0639ZM30.5279 73.5508C31.4574 73.5508 32.1459 74.2393 32.1459 75.1C32.1459 75.9606 31.4574 76.6492 30.5279 76.6492C29.5984 76.6492 28.9099 75.9606 28.9099 75.1C28.9099 74.2393 29.5984 73.5508 30.5279 73.5508Z"/><path fill="#FF3008" d="M34.3836 76.0639C34.9344 76.0639 35.382 75.6164 35.382 75.1C35.382 74.5836 34.9344 74.1016 34.418 74.1016C33.8672 74.1016 33.4197 74.5492 33.4197 75.0656C33.3852 75.6508 33.8328 76.0639 34.3836 76.0639ZM34.3836 73.5508C35.3131 73.5508 36.0016 74.2393 36.0016 75.1C36.0016 75.9606 35.3131 76.6492 34.3836 76.6492C33.4541 76.6492 32.7656 75.9606 32.7656 75.1C32.7656 74.2393 33.4541 73.5508 34.3836 73.5508Z"/><path fill="#FF3008" d="M38.1361 74.1705H37.482V74.9623H38.1361C38.3426 74.9623 38.5148 74.7902 38.5492 74.5836C38.5492 74.3771 38.3771 74.2049 38.1361 74.1705C38.1705 74.1705 38.1361 74.1705 38.1361 74.1705ZM36.8279 73.6885C36.8279 73.6541 36.8623 73.6197 36.8967 73.6197H38.1361C38.7213 73.6197 39.1689 74.0672 39.1689 74.5836C39.1689 74.9623 38.9623 75.3066 38.6525 75.4443L39.2377 76.4426C39.2721 76.4771 39.2377 76.5115 39.2033 76.5459H39.1689H38.6525C38.618 76.5459 38.5836 76.5459 38.5836 76.5115L38.0328 75.5476H37.482V76.5115C37.482 76.5459 37.4476 76.5803 37.4131 76.5803H36.9312C36.8967 76.5803 36.8623 76.5459 36.8623 76.5115L36.8279 73.6885Z"/><path fill="#FF3008" d="M40.8558 74.2049V76.0295H41.3377C41.8541 76.0295 42.2328 75.6164 42.2328 75.1C42.2328 74.6181 41.8541 74.2049 41.3721 74.1705H41.3377H40.8558V74.2049ZM41.3377 73.6197C42.1984 73.6197 42.8869 74.2738 42.8869 75.1C42.8869 75.9262 42.2328 76.5803 41.3377 76.5803H40.3049C40.2705 76.5803 40.2361 76.5459 40.2361 76.5115V73.6885C40.2361 73.6541 40.2705 73.6197 40.3049 73.6197H41.3377Z"/><path fill="#FF3008" d="M44.8147 74.3426L44.436 75.3066H45.159L44.8147 74.3426ZM44.2295 75.8918L43.9885 76.5459C43.9885 76.5803 43.9541 76.6148 43.9197 76.5803H43.4033C43.3688 76.5803 43.3344 76.5459 43.3344 76.5115V76.4771L44.436 73.6541C44.436 73.6197 44.4705 73.6197 44.5049 73.6197H45.0901C45.1246 73.6197 45.159 73.6541 45.159 73.6541L46.2606 76.4771C46.2951 76.5115 46.2606 76.5459 46.2262 76.5803H46.1918H45.6754C45.641 76.5803 45.6065 76.5459 45.6065 76.5459L45.3656 75.8918H44.2295Z"/><path fill="#FF3008" d="M46.8803 74.4115C46.8803 73.9295 47.2934 73.5508 47.9131 73.5508C48.2574 73.5508 48.6016 73.6541 48.8426 73.8951C48.877 73.9295 48.877 73.9639 48.8426 73.9984L48.5672 74.2738C48.5328 74.3082 48.4983 74.3082 48.4639 74.2738C48.3262 74.1361 48.1541 74.0672 47.982 74.0672C47.741 74.0672 47.5344 74.2049 47.5344 74.377C47.5344 74.9279 49.0492 74.618 49.0492 75.6852C49.0492 76.2016 48.6361 76.6147 47.9131 76.6147C47.5 76.6147 47.1213 76.477 46.8459 76.1672C46.8115 76.1328 46.8115 76.0984 46.8459 76.0639L47.1213 75.7885C47.1557 75.7541 47.1901 75.7541 47.2246 75.7885C47.3967 75.9951 47.6033 76.0984 47.8442 76.0984C48.1541 76.0984 48.3606 75.9262 48.3606 75.7197C48.3951 75.1688 46.8803 75.4787 46.8803 74.4115Z"/><path fill="#FF3008" d="M51.7688 73.6885V74.7902H50.4951V73.6885C50.4951 73.6541 50.4606 73.6197 50.4262 73.6197H49.9442C49.9098 73.6197 49.8754 73.6541 49.8754 73.6885V76.5115C49.8754 76.5459 49.9098 76.5803 49.9442 76.5803H50.4262C50.4606 76.5803 50.4951 76.5459 50.4951 76.5115V75.3754H51.7688V76.5115C51.7688 76.5459 51.8033 76.5803 51.8377 76.5803H52.3197C52.3541 76.5803 52.3885 76.5459 52.3885 76.5115V73.6885C52.3885 73.6541 52.3541 73.6197 52.3197 73.6197H51.8377C51.8033 73.5852 51.7688 73.6197 51.7688 73.6885Z"/><path fill="#FF3008" d="M23.0918 73.9984C22.782 73.3787 22.1279 73 21.4393 73H16.1721C16.0689 73 16 73.0689 16 73.1721C16 73.2066 16.0344 73.2754 16.0689 73.3098L17.2049 74.4459C17.3082 74.5492 17.4459 74.618 17.5836 74.618H21.3016C21.577 74.618 21.7836 74.8246 21.7836 75.1C21.7836 75.3754 21.577 75.582 21.3016 75.582H18.7541C18.6508 75.582 18.5475 75.6508 18.5475 75.7541C18.5475 75.7885 18.582 75.8574 18.6164 75.8918L19.7525 77.0279C19.8557 77.1311 19.9934 77.2 20.1311 77.2H21.3016C22.782 77.2 23.9525 75.582 23.0918 73.9984Z"/><g clip-path="url(#clip0)"><path fill="#fff" d="M22.0932 68.9365C17.758 68.9365 13.6798 68.9048 10.4686 67.7015C6.51877 66.1815 4.4957 63.0465 4.46359 58.3282L3.53234 58.3915C3.50023 58.3915 3.436 58.3915 3.40389 58.3915C2.79376 58.3915 2.18363 58.1698 1.73406 57.7582C1.25237 57.3148 0.963365 56.7132 0.89914 56.0482L0.834916 54.6232C0.802804 54.2432 0.89914 53.8948 1.02759 53.5465L0.963365 52.8498C0.89914 51.8048 1.50927 50.8865 2.40841 50.4748C2.40841 50.3482 2.44052 50.2215 2.47264 50.0948L4.11036 43.2548C1.09181 42.7798 0 40.6265 0 38.5998C0 36.0032 1.66983 33.5015 4.4957 31.7915C4.52781 22.1648 15.0285 11.9682 34.4242 11.9998C43.1909 12.0315 50.7051 14.1532 56.1321 18.1432C61.0773 21.7848 63.9353 26.8198 63.9353 31.9182V32.9632C63.9353 33.0265 63.9353 33.0898 63.9353 33.1532V36.4782H64.2885C64.6739 36.4782 65.0271 36.5732 65.3482 36.6998C65.8299 36.5415 66.3437 36.4782 66.8896 36.4782C69.2017 36.4782 71.0321 38.3465 71.0321 40.7215C71.0321 43.0965 69.2017 44.9015 66.7933 44.9015C66.5043 44.9015 66.0547 44.8698 65.573 44.7115L65.0592 47.0865L65.7015 47.0548C65.7336 47.0548 65.7978 47.0548 65.8299 47.0548C66.4401 47.0548 67.0181 47.2765 67.4998 47.6882C67.9814 48.1315 68.2705 48.7332 68.3347 49.3982L68.3668 50.1265C68.5274 50.4432 68.6558 50.7915 68.6558 51.1715L68.72 52.5965C68.7521 53.2615 68.5274 53.8948 68.0778 54.3698C67.6282 54.8448 67.0181 55.1298 66.3437 55.1932L65.4125 55.2565C65.3161 55.2565 65.284 55.2565 65.2519 55.2565C65.1877 55.2882 64.995 55.4465 64.8344 55.5415C64.5776 55.7315 64.2564 55.9532 63.839 56.2065V58.3282C63.839 63.1415 61.7838 66.3398 57.8019 67.8598C54.5907 69.0632 50.5124 69.0632 46.1773 69.0632L22.0932 68.9365Z"/><path fill="#AB7029" d="M61.9765 31.6967C61.9765 23.2733 52.6319 13.9 34.36 13.9C16.0561 13.9 6.35822 23.2733 6.35822 31.6967V32.9633H61.9765V31.6967Z"/><path fill="#9C6226" d="M28.355 16.4017H26.5568C26.4604 16.4017 26.3962 16.465 26.3641 16.5283C26.332 16.5917 26.2999 16.7183 26.2999 16.9083C26.2999 17.0983 26.332 17.225 26.3641 17.2883C26.3962 17.3833 26.4925 17.415 26.5568 17.415H28.355C28.4514 17.415 28.5156 17.3517 28.5477 17.2883C28.5798 17.225 28.6119 17.0983 28.6119 16.9083C28.6119 16.7183 28.5798 16.5917 28.5477 16.5283C28.5156 16.4333 28.4514 16.4017 28.355 16.4017Z"/><path fill="#9C6226" d="M35.0986 16.4017H33.3003C33.204 16.4017 33.1398 16.465 33.1076 16.5283C33.0755 16.5917 33.0434 16.7183 33.0434 16.9083C33.0434 17.0983 33.0755 17.225 33.1076 17.2883C33.1398 17.3833 33.2361 17.415 33.3003 17.415H35.0986C35.1949 17.415 35.2592 17.3517 35.2913 17.2883C35.3234 17.225 35.3555 17.0983 35.3555 16.9083C35.3555 16.7183 35.3234 16.5917 35.2913 16.5283C35.2592 16.4333 35.1949 16.4017 35.0986 16.4017Z"/><path fill="#9C6226" d="M41.8422 16.4017H40.0439C39.9475 16.4017 39.8833 16.465 39.8512 16.5283C39.8191 16.5917 39.787 16.7183 39.787 16.9083C39.787 17.0983 39.8191 17.225 39.8512 17.2883C39.8833 17.3833 39.9797 17.415 40.0439 17.415H41.8422C41.9385 17.415 42.0027 17.3517 42.0348 17.2883C42.0669 17.225 42.0991 17.0983 42.0991 16.9083C42.0991 16.7183 42.0669 16.5917 42.0348 16.5283C42.0348 16.4333 41.9385 16.4017 41.8422 16.4017Z"/><path fill="#9C6226" d="M24.9511 20.36H23.1529C23.0565 20.36 22.9923 20.4233 22.9602 20.4867C22.9281 20.55 22.896 20.6767 22.896 20.8667C22.896 21.0567 22.9281 21.1833 22.9602 21.2467C22.9923 21.3417 23.0886 21.3733 23.1529 21.3733H24.9511C25.0475 21.3733 25.1117 21.31 25.1438 21.2467C25.1759 21.1833 25.208 21.0567 25.208 20.8667C25.208 20.6767 25.1759 20.55 25.1438 20.4867C25.1117 20.4233 25.0475 20.36 24.9511 20.36Z"/><path fill="#9C6226" d="M31.6947 20.36H29.8964C29.8001 20.36 29.7359 20.4233 29.7037 20.4867C29.6716 20.55 29.6395 20.6767 29.6395 20.8667C29.6395 21.0567 29.6716 21.1833 29.7037 21.2467C29.7359 21.3417 29.8322 21.3733 29.8964 21.3733H31.6947C31.791 21.3733 31.8553 21.31 31.8874 21.2467C31.9195 21.1833 31.9516 21.0567 31.9516 20.8667C31.9516 20.6767 31.9195 20.55 31.8874 20.4867C31.8874 20.4233 31.791 20.36 31.6947 20.36Z"/><path fill="#9C6226" d="M18.2397 20.36H16.4414C16.3451 20.36 16.2809 20.4233 16.2488 20.4867C16.2167 20.55 16.1845 20.6767 16.1845 20.8667C16.1845 21.0567 16.2167 21.1833 16.2488 21.2467C16.2809 21.3417 16.3772 21.3733 16.4414 21.3733H18.2397C18.3361 21.3733 18.4003 21.31 18.4324 21.2467C18.4645 21.1833 18.4966 21.0567 18.4966 20.8667C18.4966 20.6767 18.4645 20.55 18.4324 20.4867C18.4003 20.4233 18.3039 20.36 18.2397 20.36Z"/><path fill="#9C6226" d="M38.4704 20.36H36.6721C36.5758 20.36 36.5115 20.4233 36.4794 20.4867C36.4473 20.55 36.4152 20.6767 36.4152 20.8667C36.4152 21.0567 36.4473 21.1833 36.4794 21.2467C36.5115 21.3417 36.6079 21.3733 36.6721 21.3733H38.4704C38.5667 21.3733 38.6309 21.31 38.663 21.2467C38.6951 21.1833 38.7273 21.0567 38.7273 20.8667C38.7273 20.6767 38.6951 20.55 38.663 20.4867C38.6309 20.4233 38.5667 20.36 38.4704 20.36Z"/><path fill="#9C6226" d="M45.2139 20.36H43.4157C43.3193 20.36 43.2551 20.4233 43.223 20.4867C43.1909 20.55 43.1588 20.6767 43.1588 20.8667C43.1588 21.0567 43.1909 21.1833 43.223 21.2467C43.2551 21.3417 43.3514 21.3733 43.4157 21.3733H45.2139C45.3103 21.3733 45.3745 21.31 45.4066 21.2467C45.4387 21.1833 45.4708 21.0567 45.4708 20.8667C45.4708 20.6767 45.4387 20.55 45.4066 20.4867C45.4066 20.4233 45.3103 20.36 45.2139 20.36Z"/><path fill="#9C6226" d="M51.9896 20.36H50.1913C50.095 20.36 50.0308 20.4233 49.9986 20.4867C49.9665 20.55 49.9344 20.6767 49.9344 20.8667C49.9344 21.0567 49.9665 21.1833 49.9986 21.2467C50.0308 21.3417 50.1271 21.3733 50.1913 21.3733H51.9896C52.0859 21.3733 52.1502 21.31 52.1823 21.2467C52.2144 21.1833 52.2465 21.0567 52.2465 20.8667C52.2465 20.6767 52.2144 20.55 52.1823 20.4867C52.1502 20.4233 52.0538 20.36 51.9896 20.36Z"/><path fill="#9C6226" d="M28.355 24.5083H26.5568C26.4604 24.5083 26.3962 24.5717 26.3641 24.635C26.332 24.6983 26.2999 24.825 26.2999 25.015C26.2999 25.205 26.332 25.3317 26.3641 25.395C26.3962 25.49 26.4925 25.5217 26.5568 25.5217H28.355C28.4514 25.5217 28.5156 25.4583 28.5477 25.395C28.5798 25.3317 28.6119 25.205 28.6119 25.015C28.6119 24.825 28.5798 24.6983 28.5477 24.635C28.5156 24.5717 28.4193 24.5083 28.355 24.5083Z"/><path fill="#9C6226" d="M35.0986 24.5083H33.3003C33.204 24.5083 33.1398 24.5717 33.1076 24.635C33.0755 24.6983 33.0434 24.825 33.0434 25.015C33.0434 25.205 33.0755 25.3317 33.1076 25.395C33.1398 25.49 33.2361 25.5217 33.3003 25.5217H35.0986C35.1949 25.5217 35.2592 25.4583 35.2913 25.395C35.3234 25.3317 35.3555 25.205 35.3555 25.015C35.3555 24.825 35.3234 24.6983 35.2913 24.635C35.2592 24.5717 35.1949 24.5083 35.0986 24.5083Z"/><path fill="#9C6226" d="M41.8422 24.5083H40.0439C39.9475 24.5083 39.8833 24.5717 39.8512 24.635C39.8191 24.6983 39.787 24.825 39.787 25.015C39.787 25.205 39.8191 25.3317 39.8512 25.395C39.8833 25.49 39.9797 25.5217 40.0439 25.5217H41.8422C41.9385 25.5217 42.0027 25.4583 42.0348 25.395C42.0669 25.3317 42.0991 25.205 42.0991 25.015C42.0991 24.825 42.0669 24.6983 42.0348 24.635C42.0348 24.5717 41.9385 24.5083 41.8422 24.5083Z"/><path fill="#9C6226" d="M31.6947 28.4983H29.8964C29.8001 28.4983 29.7359 28.5617 29.7037 28.625C29.6716 28.6883 29.6395 28.815 29.6395 29.005C29.6395 29.195 29.6716 29.3217 29.7037 29.385C29.7359 29.48 29.8322 29.5117 29.8964 29.5117H31.6947C31.791 29.5117 31.8553 29.4483 31.8874 29.385C31.9195 29.3217 31.9516 29.195 31.9516 29.005C31.9516 28.815 31.9195 28.6883 31.8874 28.625C31.8874 28.53 31.791 28.4983 31.6947 28.4983Z"/><path fill="#9C6226" d="M38.4704 28.4983H36.6721C36.5758 28.4983 36.5115 28.5617 36.4794 28.625C36.4473 28.6883 36.4152 28.815 36.4152 29.005C36.4152 29.195 36.4473 29.3217 36.4794 29.385C36.5115 29.48 36.6079 29.5117 36.6721 29.5117H38.4704C38.5667 29.5117 38.6309 29.4483 38.663 29.385C38.6951 29.3217 38.7273 29.195 38.7273 29.005C38.7273 28.815 38.6951 28.6883 38.663 28.625C38.6309 28.53 38.5667 28.4983 38.4704 28.4983Z"/><path fill="#9C6226" d="M48.5536 24.5083H46.8195C46.7232 24.5083 46.659 24.5717 46.6268 24.635C46.5947 24.6983 46.5626 24.825 46.5626 25.015C46.5626 25.205 46.5947 25.3317 46.6268 25.395C46.659 25.49 46.7553 25.5217 46.8195 25.5217H48.5536C48.6499 25.5217 48.7141 25.4583 48.7462 25.395C48.7784 25.3317 48.8105 25.205 48.8105 25.015C48.8105 24.825 48.7784 24.6983 48.7462 24.635C48.7141 24.5717 48.6499 24.5083 48.5536 24.5083Z"/><path fill="#9C6226" d="M55.5219 24.6667C55.4898 24.5717 55.3935 24.54 55.3293 24.54H53.531C53.4346 24.54 53.3704 24.6033 53.3383 24.6667C53.3062 24.73 53.2741 24.8567 53.2741 25.0467C53.2741 25.2367 53.3062 25.3633 53.3383 25.4267C53.3704 25.5217 53.4668 25.5533 53.531 25.5533H55.3293C55.4256 25.5533 55.4898 25.49 55.5219 25.4267C55.554 25.3633 55.5862 25.2367 55.5862 25.0467C55.5862 24.825 55.554 24.6983 55.5219 24.6667Z"/><path fill="#9C6226" d="M51.9896 28.4983H50.1271C50.0307 28.4983 49.9665 28.5617 49.9344 28.625C49.9023 28.6883 49.8702 28.815 49.8702 29.005C49.8702 29.195 49.9023 29.3217 49.9344 29.385C49.9665 29.48 50.0629 29.5117 50.1271 29.5117H51.9896C52.0859 29.5117 52.1501 29.4483 52.1823 29.385C52.2144 29.3217 52.2465 29.195 52.2465 29.005C52.2465 28.815 52.2144 28.6883 52.1823 28.625C52.1501 28.53 52.0538 28.4983 51.9896 28.4983Z"/><path fill="#9C6226" d="M45.1818 28.4983H43.4157C43.3193 28.4983 43.2551 28.5617 43.223 28.625C43.1909 28.6883 43.1588 28.815 43.1588 29.005C43.1588 29.195 43.1909 29.3217 43.223 29.385C43.2551 29.48 43.3514 29.5117 43.4157 29.5117H45.1818C45.2782 29.5117 45.3424 29.4483 45.3745 29.385C45.4066 29.3217 45.4387 29.195 45.4387 29.005C45.4387 28.815 45.4066 28.6883 45.3745 28.625C45.3745 28.53 45.2782 28.4983 45.1818 28.4983Z"/><path fill="#9C6226" d="M14.8358 24.5083H13.0375C12.9412 24.5083 12.877 24.5717 12.8449 24.635C12.8128 24.6983 12.7806 24.825 12.7806 25.015C12.7806 25.205 12.8128 25.3317 12.8449 25.395C12.877 25.49 12.9733 25.5217 13.0375 25.5217H14.8358C14.9322 25.5217 14.9964 25.4583 15.0285 25.395C15.0606 25.3317 15.0927 25.205 15.0927 25.015C15.0927 24.825 15.0606 24.6983 15.0285 24.635C14.9964 24.5717 14.9 24.5083 14.8358 24.5083Z"/><path fill="#9C6226" d="M21.5794 24.5083H19.7811C19.6848 24.5083 19.6205 24.5717 19.5884 24.635C19.5563 24.6983 19.5242 24.825 19.5242 25.015C19.5242 25.205 19.5563 25.3317 19.5884 25.395C19.6205 25.49 19.7169 25.5217 19.7811 25.5217H21.5794C21.6757 25.5217 21.7399 25.4583 21.7721 25.395C21.8042 25.3317 21.8363 25.205 21.8363 25.015C21.8363 24.825 21.8042 24.6983 21.7721 24.635C21.7399 24.5717 21.6757 24.5083 21.5794 24.5083Z"/><path fill="#9C6226" d="M18.1755 28.4983H16.4093C16.313 28.4983 16.2487 28.5617 16.2166 28.625C16.1845 28.6883 16.1524 28.815 16.1524 29.005C16.1524 29.195 16.1845 29.3217 16.2166 29.385C16.2487 29.48 16.3451 29.5117 16.4093 29.5117H18.1755C18.2718 29.5117 18.336 29.4483 18.3681 29.385C18.4003 29.3217 18.4324 29.195 18.4324 29.005C18.4324 28.815 18.4003 28.6883 18.3681 28.625C18.3681 28.53 18.2718 28.4983 18.1755 28.4983Z"/><path fill="#9C6226" d="M25.0796 28.53C25.0475 28.4983 24.9833 28.4983 24.9511 28.4983H23.1529C23.0565 28.4983 22.9923 28.5617 22.9602 28.625C22.9281 28.6883 22.896 28.815 22.896 29.005C22.896 29.195 22.9281 29.3217 22.9602 29.385C22.9923 29.48 23.0886 29.5117 23.1529 29.5117H24.9511C25.0475 29.5117 25.1117 29.4483 25.1438 29.385C25.1759 29.3217 25.208 29.195 25.208 29.005C25.208 28.815 25.1759 28.6883 25.1438 28.625C25.1438 28.5933 25.1117 28.5617 25.0796 28.53Z"/><path fill="#B32029" d="M61.9444 38.8533C61.9444 39.3917 61.9444 39.8033 61.3985 39.8033H6.90412C6.35822 39.8033 6.35822 39.36 6.35822 38.8533V36.985C6.35822 36.4467 6.35822 36.035 6.90412 36.035H61.3985C61.9444 36.035 61.9444 36.4467 61.9444 36.985V38.8533Z"/><path fill="#FAA21E" d="M61.9765 33.7867H6.35822V35.2433H61.9765V33.7867Z"/><path fill="#FAA21E" d="M42.3559 34.2617L34.3279 39.0433L25.9787 34.2617H42.3559Z"/><path fill="#AB7029" d="M6.39032 57.3467V58.6133C6.39032 67.0367 13.3265 67.1 21.8684 67.1H46.4984C55.0403 67.1 61.9765 67.0683 61.9765 58.6133V57.3467H6.39032Z"/><path fill="#A9AE38" d="M9.11985 58.8983C9.11985 60.2283 9.21619 61.1467 11.0787 60.2283C12.9412 59.31 15.2212 58.075 19.9738 58.2017C18.2076 58.7083 16.1524 59.6267 15.9276 60.8617C15.735 62.0967 16.9552 62.6033 19.6526 61.97C19.9738 63.0783 21.0977 64.3133 23.474 62.2867C25.8503 60.26 27.199 59.4367 28.3229 59.025C29.4469 58.6133 29.768 59.215 28.5156 59.9433C27.2632 60.6717 26.1393 61.0517 25.9466 61.875C25.754 62.6983 25.9466 64.0283 28.0018 63.395C28.0018 64.82 28.4193 66.055 30.1854 66.055C31.9516 66.055 32.6581 65.1367 32.6581 63.395C33.782 63.9967 35.4518 64.4083 35.5482 62.16C35.6445 59.9117 36.6721 58.8983 37.7318 58.3917C38.7594 57.885 38.9521 58.835 38.2456 59.12C37.3143 59.5 36.929 60.1333 36.8969 60.8617C36.8648 61.78 38.4704 63.1417 40.1081 61.4633C40.2365 62.445 42.0669 63.0783 42.6771 61.0517C43.2872 59.025 43.4799 57.7583 45.3745 57.695C44.09 58.17 43.3193 60.0383 44.957 60.64C46.5948 61.2417 47.4297 59.7217 47.6545 59.215C47.8471 58.7083 48.393 57.6 49.9344 57.695C48.5857 58.2967 48.5857 60.355 49.9344 60.45C51.2831 60.545 51.7969 60.1333 52.8245 59.215C53.8521 58.2967 55.9394 57.2833 58.5084 57.695C57.9946 59.025 58.9258 59.5633 59.7607 59.405C60.7883 59.215 60.692 58.1067 61.0131 57.3783H8.02804V57.41C7.22524 57.885 6.64722 60.0067 9.11985 58.8983Z"/><path fill="#B32029" d="M3.59656 54.3067C4.59204 54.2433 5.04161 54.4967 5.74807 54.9083C6.6151 55.415 7.80325 56.08 9.92265 55.9533C12.0421 55.8267 13.166 55.035 13.9688 54.465C14.6431 53.99 15.0606 53.705 16.0561 53.6417C17.0516 53.5783 17.5011 53.8317 18.2076 54.2433C19.0746 54.75 20.2628 55.415 22.3822 55.2883C24.5016 55.1617 25.6255 54.37 26.4283 53.8C27.1027 53.325 27.5201 53.04 28.5156 52.9767C29.5111 52.9133 29.9606 53.1667 30.6671 53.5783C31.5341 54.085 32.7223 54.75 34.8417 54.6233C36.9611 54.4967 38.085 53.705 38.8878 53.135C39.5622 52.66 39.9796 52.375 40.9751 52.3117C41.9706 52.2483 42.4202 52.5017 43.1266 52.9133C43.9937 53.42 45.1818 54.085 47.3012 53.9583C49.4206 53.8317 50.5445 53.04 51.3473 52.47C52.0217 51.995 52.4392 51.71 53.4346 51.6467C54.4301 51.5833 54.8797 51.8367 55.5862 52.2483C56.4532 52.755 57.6413 53.42 59.7607 53.2933C61.8801 53.1667 63.0041 52.375 63.8069 51.805C64.4812 51.33 64.8987 51.045 65.8942 50.9817L66.6006 50.95L66.5364 49.62L65.8299 49.6517C63.6463 49.7783 62.4903 50.6017 61.6553 51.2033C61.0131 51.6783 60.6278 51.9317 59.7286 51.995C58.7974 52.0583 58.412 51.8367 57.7056 51.425C56.8064 50.9183 55.5861 50.2217 53.3704 50.3483C51.1868 50.475 50.0307 51.2983 49.1958 51.9C48.5536 52.375 48.1682 52.6283 47.237 52.6917C46.3057 52.755 45.9204 52.5333 45.2139 52.1217C44.3148 51.615 43.0945 50.9183 40.9109 51.045C38.7273 51.1717 37.5712 51.995 36.7363 52.5967C36.0941 53.0717 35.7087 53.325 34.7775 53.3883C33.8462 53.4517 33.4609 53.23 32.7544 52.8183C31.8553 52.3117 30.635 51.615 28.4193 51.7417C26.2356 51.8683 25.0796 52.6917 24.2447 53.2933C23.6024 53.7683 23.2171 54.0217 22.3179 54.085C21.3867 54.1483 21.0014 53.9267 20.2949 53.515C19.3957 53.0083 18.1755 52.3117 15.9597 52.4383C13.7761 52.565 12.6201 53.3883 11.7852 53.99C11.1429 54.465 10.7576 54.7183 9.85843 54.7817C8.92718 54.845 8.54183 54.6233 7.83536 54.2117C6.93622 53.705 5.71596 53.0083 3.53233 53.135L2.82587 53.1667L2.89009 54.4967L3.59656 54.3067Z"/><path fill="#B32029" d="M64.0638 52.2167C63.1967 52.85 62.0086 53.6733 59.7607 53.8C57.5129 53.9267 56.2284 53.1983 55.2971 52.6917C54.6228 52.3117 54.2696 52.1217 53.4025 52.1533C52.5355 52.185 52.2465 52.4383 51.6042 52.8817C50.7372 53.515 49.5491 54.3383 47.3012 54.465C45.0534 54.5917 43.7689 53.8633 42.8376 53.3567C42.1633 52.9767 41.81 52.7867 40.943 52.8183C40.076 52.85 39.787 53.1033 39.1447 53.5467C38.2777 54.18 37.0895 55.0033 34.8417 55.13C32.5938 55.2567 31.3094 54.5283 30.3781 54.0217C29.7037 53.6417 29.3505 53.4517 28.4835 53.4833C27.6165 53.515 27.3274 53.7683 26.6852 54.2117C25.8182 54.845 24.63 55.6683 22.3822 55.795C20.1343 55.9217 18.8498 55.1933 17.9186 54.6867C17.2442 54.3067 16.891 54.1167 16.024 54.1483C15.1569 54.18 14.8679 54.4333 14.2257 54.8767C13.3586 55.51 12.1705 56.3333 9.92265 56.46C7.6748 56.5867 6.39031 55.8583 5.45906 55.3517C4.7847 54.9717 4.43147 54.7817 3.56444 54.8133L2.60107 54.8767L2.6653 56.3333L3.62866 56.27C4.55992 56.2067 4.94526 56.4283 5.65173 56.84C6.55087 57.3467 7.77113 58.0433 9.98687 57.9167C12.1705 57.79 13.3265 56.9667 14.1615 56.365C14.8037 55.89 15.189 55.6367 16.0882 55.5733C17.0194 55.51 17.4048 55.7317 18.1113 56.1433C19.0104 56.65 20.2307 57.3467 22.4464 57.22C24.63 57.0933 25.7861 56.27 26.621 55.6683C27.2632 55.1933 27.6486 54.94 28.5477 54.8767C29.479 54.8133 29.8643 55.035 30.5708 55.4467C31.4699 55.9533 32.6902 56.65 34.8738 56.5233C37.0574 56.3967 38.2135 55.5733 39.0484 54.9717C39.6906 54.4967 40.076 54.2433 40.9751 54.18C41.9064 54.1167 42.2917 54.3383 42.9982 54.75C43.8973 55.2567 45.1176 55.9533 47.3333 55.8267C49.5169 55.7 50.673 54.8767 51.5079 54.275C52.1501 53.8 52.5355 53.5467 53.4346 53.4833C54.3659 53.42 54.7512 53.6417 55.4577 54.0533C56.3568 54.56 57.5771 55.2567 59.7928 55.13C61.9765 55.0033 63.1325 54.18 63.9674 53.5783C64.6097 53.1033 64.995 52.85 65.8941 52.7867L66.8575 52.7233L66.7612 51.2667L65.7978 51.33C65.0271 51.52 64.706 51.7733 64.0638 52.2167Z"/><path fill="#6D1F11" d="M12.299 34.2933L10.9824 39.93H11.1429C13.3908 39.93 15.2212 37.7133 15.2212 35.8133C15.2212 34.3567 14.1615 33.0583 11.4962 33.0583C8.1886 33.0583 4.43148 35.0217 4.43148 39.2333C4.43148 40.5317 4.78471 40.7217 4.81682 40.975C2.95432 40.975 1.79828 40.3417 1.79828 38.6317C1.79828 35.1167 6.71144 31.9183 12.0742 31.9183C16.2166 31.9183 18.1113 33.8817 18.1113 35.94C18.1113 37.4283 17.1158 39.0433 15.2854 39.9617C17.6938 40.405 18.6251 42.1467 18.6251 44.0467C18.6251 46.485 17.1479 51.3617 12.4274 51.3617C11.2071 51.3617 9.63365 51.045 9.63365 49.4933C9.63365 49.0817 9.7621 48.6067 9.98688 48.0367C10.6934 48.7017 11.2393 48.955 11.8815 48.955C13.9367 48.955 14.6753 46.3267 14.6753 44.395C14.6753 42.6217 14.0651 41.165 11.9778 41.165C11.7531 41.165 11.175 41.1967 10.6612 41.2283L8.34916 50.95H4.27092L8.12438 34.8L12.299 34.2933Z"/><path fill="#fff" d="M12.3953 52.4067C11.0145 52.4067 9.95478 52.0583 9.28042 51.3933C9.11986 51.7417 8.73452 51.9633 8.34917 51.9633H4.27093C3.9498 51.9633 3.62868 51.805 3.43601 51.5833C3.24334 51.33 3.147 51.0133 3.24334 50.6967L5.36274 41.8617C5.20218 41.9567 5.0095 42.02 4.81683 42.02C1.25238 42.02 0.738586 39.8983 0.738586 38.6317C0.738586 34.4833 6.03709 30.8733 12.0421 30.8733C15.5744 30.8733 19.1067 32.4567 19.1067 35.94C19.1067 37.3333 18.4966 38.6633 17.4048 39.7083C18.8177 40.595 19.6205 42.115 19.6205 44.0783C19.6205 45.4083 19.2352 47.4667 18.1434 49.2083C16.8268 51.2983 14.8358 52.4067 12.3953 52.4067ZM10.6934 49.7783C10.8539 50.1583 11.4319 50.3483 12.3953 50.3483C16.602 50.3483 17.5333 45.6933 17.5333 44.0783C17.5333 42.875 17.1158 41.3867 15.0606 41.0067C14.611 40.9117 14.2899 40.5633 14.1936 40.1517C14.1936 40.0567 14.1936 39.9617 14.1936 39.8667C13.9367 40.0567 13.6798 40.215 13.4229 40.3733C14.5468 40.785 15.7029 41.83 15.7029 44.395C15.7029 47.0867 14.4826 50 11.8494 50C11.4319 49.9683 11.0787 49.905 10.6934 49.7783ZM5.61964 49.905H7.51425L9.63366 40.975C9.69788 40.7217 9.82633 40.5317 10.019 40.3733C9.92267 40.1517 9.89055 39.8983 9.92267 39.6767L10.9181 35.4967L8.99141 35.75L5.61964 49.905ZM10.3401 47.055C10.4686 47.1183 10.5649 47.1817 10.6612 47.2767C11.2714 47.8467 11.5604 47.91 11.8173 47.91C13.1018 47.91 13.5513 45.7567 13.5513 44.3633C13.5513 42.3367 12.7164 42.1783 11.9136 42.1783C11.8173 42.1783 11.6567 42.1783 11.4641 42.1783L10.3401 47.055ZM6.77567 35.94C6.00498 36.7317 5.49119 37.8083 5.49119 39.265C5.49119 39.9617 5.61964 40.1517 5.68386 40.31C5.68386 40.3417 5.71597 40.3733 5.74808 40.405L6.77567 35.94ZM4.23881 35.7817C3.33967 36.6367 2.82588 37.6183 2.82588 38.6317C2.82588 38.98 2.82588 39.4233 3.37178 39.6767C3.37178 39.55 3.37178 39.3917 3.37178 39.2333C3.37178 37.9667 3.66079 36.795 4.23881 35.7817ZM15.6386 33.755C16.024 34.2933 16.2809 34.99 16.2809 35.8133C16.2809 36.9217 15.8955 37.935 15.2854 38.7583C16.3772 38.03 17.0195 36.985 17.0195 35.94C17.0195 35.0217 16.5057 34.2617 15.6386 33.755ZM13.3266 34.4833C13.3266 34.515 13.3266 34.515 13.3266 34.5467L12.3632 38.5683C13.3908 37.9983 14.1615 36.8267 14.1615 35.8133C14.1615 35.1483 13.8404 34.7367 13.3266 34.4833Z"/><path fill="#6D1F11" d="M29.8965 38.885L28.1303 47.1183C28.0661 47.435 28.0339 47.6883 28.0339 47.8783C28.0339 48.5433 28.3551 48.765 29.0294 48.765C29.9928 48.765 30.635 47.8467 31.0204 46.6433H32.048C30.635 50.6017 28.4514 51.1083 27.1027 51.1083C25.6898 51.1083 24.8227 50.3167 24.6622 48.7967C23.4419 50.7917 22.0611 51.1083 21.0335 51.1083C19.5563 51.1083 18.4003 50.2533 18.4003 48.195C18.4003 47.72 18.4645 47.2133 18.593 46.6117L20.2628 38.8533H23.7951L22.029 47.0867C21.9647 47.34 21.9648 47.53 21.9648 47.7517C21.9648 48.3217 22.1574 48.7333 22.7033 48.7333C23.6667 48.7333 24.3089 47.815 24.6622 46.6117L26.332 38.8533H29.8965V38.885Z"/><path fill="#fff" d="M27.1348 51.995C25.9145 51.995 24.9512 51.52 24.4053 50.6333C23.474 51.5517 22.3822 51.995 21.0977 51.995C19.3958 51.995 17.5654 51.0133 17.5654 48.195C17.5654 47.6883 17.6296 47.1183 17.7902 46.4533L19.46 38.695C19.5563 38.2833 19.9096 37.9983 20.327 37.9983H23.8594C24.1163 37.9983 24.3731 38.125 24.5658 38.315C24.7585 38.505 24.7906 38.79 24.7585 39.0433L22.9923 47.2767C22.9602 47.4667 22.9281 47.625 22.9281 47.7833C22.9281 47.815 22.9281 47.8467 22.9281 47.8467C23.4098 47.6567 23.7309 46.77 23.8594 46.4217L25.5292 38.695C25.6255 38.2833 25.9788 37.9983 26.3962 37.9983H29.9286C30.1854 37.9983 30.4423 38.125 30.635 38.315C30.8277 38.505 30.8598 38.79 30.8277 39.0433L29.0615 47.2767C28.9973 47.53 28.9973 47.6883 28.9973 47.8783C29.0294 47.8783 29.0615 47.8783 29.0936 47.8783C29.5753 47.8783 29.9928 47.1183 30.2176 46.39C30.346 46.01 30.6671 45.7567 31.0846 45.7567H32.1122C32.4012 45.7567 32.6902 45.8833 32.8508 46.1367C33.0113 46.3583 33.0755 46.675 32.9792 46.9283C31.4378 51.1083 28.9331 51.995 27.1348 51.995ZM25.1117 48.0367C25.3686 48.1633 25.5613 48.4483 25.5934 48.7333C25.7219 50.0633 26.5247 50.2217 27.1348 50.2217C27.8092 50.2217 28.4514 50.0317 28.9973 49.6517C27.3275 49.62 27.1348 48.385 27.1348 47.8783C27.1348 47.5617 27.1669 47.2767 27.2632 46.8967L28.8046 39.7717H27.1027L25.5934 46.8333C25.5934 46.865 25.5934 46.8967 25.5613 46.8967C25.4328 47.34 25.2723 47.72 25.1117 48.0367ZM21.0335 39.7717L19.5242 46.8333C19.3958 47.3717 19.3636 47.8467 19.3636 48.2267C19.3636 49.5883 19.9417 50.2533 21.0977 50.2533C21.6115 50.2533 22.1895 50.1583 22.8318 49.6833C22.7997 49.6833 22.7675 49.6833 22.7675 49.6833C22.029 49.6833 21.1298 49.1767 21.1298 47.815C21.1298 47.53 21.1619 47.2767 21.2262 46.96L22.7675 39.8033H21.0335V39.7717Z"/><path fill="#6D1F11" d="M36.2225 38.885L35.9014 40.3733C36.7684 39.645 37.6997 38.885 38.8557 38.885C39.9475 38.885 40.5576 39.7717 40.5576 40.69C40.5576 41.545 39.9796 42.4633 38.7915 42.4633C37.4107 42.4633 38.1171 40.88 37.3785 40.88C36.64 40.88 36.1904 41.2283 35.5803 41.7983L33.6214 50.9817H30.0891L32.6902 38.885H36.2225Z"/><path fill="#fff" d="M33.6214 51.8683H30.0891C29.8322 51.8683 29.5753 51.7417 29.3826 51.5517C29.19 51.3617 29.1578 51.0767 29.19 50.8233L31.791 38.7267C31.8874 38.315 32.2406 38.03 32.6581 38.03H36.1904C36.4473 38.03 36.7042 38.1567 36.8969 38.3467C36.929 38.41 36.9611 38.4417 36.9932 38.505C37.5391 38.22 38.1493 38.03 38.8557 38.03C40.3329 38.03 41.4568 39.2017 41.4568 40.7217C41.4568 42.02 40.5256 43.3817 38.7915 43.3817C37.4428 43.3817 37.0895 42.4317 36.9611 41.8617C36.8005 41.925 36.64 42.0517 36.4152 42.2733L34.5206 51.1717C34.4242 51.5517 34.0389 51.8683 33.6214 51.8683ZM31.213 50.095H32.915L34.7132 41.6083C34.7454 41.4183 34.8417 41.26 34.9701 41.1333C35.0344 41.07 35.1307 41.0067 35.1949 40.9433C35.0344 40.7533 34.9701 40.4683 35.0344 40.215L35.1307 39.7717H33.4288L31.213 50.095ZM38.7594 41.5767H38.7915C39.6264 41.5767 39.6585 40.8483 39.6585 40.69C39.6585 40.595 39.6264 39.7717 38.8557 39.7717C38.5025 39.7717 38.1493 39.8983 37.8281 40.0567C38.4704 40.31 38.6309 41.0383 38.663 41.3233C38.7273 41.3867 38.7273 41.4817 38.7594 41.5767Z"/><path fill="#6D1F11" d="M51.0262 38.885L48.5857 50.095C50.095 49.5567 50.9941 48.7333 51.6685 46.6433H52.6961C51.7327 49.8417 49.8702 50.76 48.3609 51.1717L48.0077 52.9133C47.2691 56.365 45.2139 57.03 43.6083 57.03C42.099 57.03 40.8467 56.27 40.8467 54.6867C40.8467 52.66 42.9982 51.6467 44.8286 51.0767L45.1176 49.81C44.4111 50.57 43.4477 51.14 42.1633 51.14C40.4934 51.14 38.8878 50.1267 38.8878 47.245C38.8878 43.9833 40.9109 38.79 45.1818 38.79C46.5947 38.79 47.1728 39.3283 47.1728 40.025V40.1833L47.4297 38.9167H51.0262V38.885ZM43.0303 55.13C43.5441 55.13 44.1221 54.4017 44.4432 52.9767L44.6038 52.28C43.3514 52.755 42.1954 53.3567 42.1954 54.3383C42.1954 54.655 42.4844 55.13 43.0303 55.13ZM42.5807 46.865C42.5807 48.7333 43.3514 48.765 43.801 48.765C44.4753 48.765 45.4066 48.1 45.7598 46.865L47.0122 41.1333C46.9801 40.88 46.7874 40.2467 46.0167 40.2467C43.9294 40.2467 42.5807 44.6167 42.5807 46.865Z"/><path fill="#fff" d="M43.6083 57.9167C41.4247 57.9167 39.9475 56.6183 39.9475 54.6867C39.9475 53.61 40.3971 52.6917 41.2641 51.9317C39.5943 51.5833 38.0529 50.2217 38.0529 47.245C38.0529 43.3183 40.5577 37.9033 45.246 37.9033C45.9525 37.9033 46.4984 38.03 46.948 38.22C47.1086 38.0933 47.3012 38.03 47.526 38.03H51.0584C51.3153 38.03 51.5721 38.1567 51.7648 38.3467C51.9254 38.5683 51.9896 38.8217 51.9575 39.075L49.9987 48.195C50.3519 47.7833 50.6409 47.2133 50.8978 46.39C51.0262 46.01 51.3795 45.7883 51.7648 45.7883H52.7924C53.0814 45.7883 53.3383 45.915 53.4989 46.1367C53.6594 46.3583 53.7237 46.6433 53.6273 46.9283C52.6319 50.2217 50.7372 51.3617 49.1958 51.9L48.9389 53.135C48.0398 57.0617 45.5351 57.9167 43.6083 57.9167ZM42.6771 55.985C43.0303 56.1117 43.3835 56.1433 43.6083 56.1433C44.8286 56.1433 46.4984 55.795 47.1407 52.7233L47.4939 50.9817C47.526 50.7917 47.6545 50.6017 47.7829 50.475C47.6866 50.285 47.6545 50.095 47.7187 49.905L49.9023 39.7717H48.2004L48.0719 40.31C48.0398 40.5 47.9435 40.6583 47.815 40.7533C47.8471 40.8483 47.8471 40.9433 47.8792 41.0383C47.8792 41.1333 47.8792 41.2283 47.8471 41.2917L46.5948 47.0233C46.5948 47.055 46.5948 47.055 46.5948 47.0867C46.37 47.8783 45.9525 48.5117 45.4387 48.9233C45.4708 48.9233 45.5029 48.955 45.5351 48.955C45.8883 49.145 46.081 49.5567 45.9846 49.9367L45.6956 51.2033C45.6314 51.425 45.5029 51.615 45.3424 51.7417C45.4708 51.9317 45.5029 52.185 45.4708 52.4067L45.3103 53.1033C44.8928 54.94 44.0579 55.9533 42.9982 55.9533C42.9019 56.0167 42.8055 56.0167 42.6771 55.985ZM44.8286 39.6767C41.3605 40.025 39.8512 44.775 39.8512 47.245C39.8512 49.2083 40.654 50.2533 42.2275 50.2533C42.8697 50.2533 43.4478 50.0633 43.9937 49.6833C43.9294 49.6833 43.8973 49.6833 43.8331 49.6833C42.4202 49.6833 41.7137 48.7333 41.7137 46.8967C41.6816 45.0283 42.6129 40.8167 44.8286 39.6767ZM46.0167 41.1333C44.8286 41.1333 43.4799 44.6167 43.4799 46.865C43.4799 47.6567 43.6404 47.8783 43.6404 47.8783C43.6404 47.8783 43.7368 47.8783 43.801 47.8783C44.0258 47.8783 44.6359 47.53 44.8928 46.675L46.081 41.165C46.081 41.1333 46.0489 41.1333 46.0167 41.1333Z"/><path fill="#6D1F11" d="M55.9715 49.0817C57.8982 49.0817 59.0864 48.005 60.3067 46.6433H61.1416C59.7286 48.86 57.6734 51.1083 54.398 51.1083C52.0859 51.1083 50.5767 50 50.5767 47.2767C50.5767 44.49 52.1823 38.6633 57.1918 38.6633C59.3754 38.6633 59.8892 39.7717 59.8892 40.975C59.8892 43.7617 57.1918 45.915 54.2374 46.0733C54.2053 46.4217 54.1732 46.7383 54.1732 47.055C54.2053 48.7017 54.7834 49.0817 55.9715 49.0817ZM57.3844 39.93C56.1321 39.93 54.9439 42.5267 54.4301 44.9017C56.3247 44.775 57.9946 42.9067 57.9946 40.9117C57.9946 40.31 57.834 39.93 57.3844 39.93Z"/><path fill="#fff" d="M54.398 51.995C51.3795 51.995 49.6775 50.2533 49.6775 47.245C49.6775 44.1417 51.5079 37.745 57.1918 37.745C59.5038 37.745 60.7883 38.885 60.7883 40.9433C60.7883 43.7933 58.3157 46.3267 55.1045 46.8333C55.1045 46.8967 55.1045 46.96 55.1045 46.9917C55.1045 48.1317 55.2972 48.1317 55.9715 48.1317C57.4487 48.1317 58.412 47.3717 59.6323 45.9783C59.7929 45.7883 60.0498 45.6617 60.3066 45.6617H61.1416C61.4627 45.6617 61.7838 45.8517 61.9444 46.105C62.1049 46.3583 62.1049 46.7383 61.9123 46.9917C59.825 50.4117 57.3844 51.995 54.398 51.995ZM55.8431 39.74C52.5676 40.69 51.4758 45.0283 51.4758 47.2767C51.4758 49.335 52.3749 50.2217 54.398 50.2217C54.976 50.2217 55.554 50.1267 56.1 49.9683C56.0678 49.9683 56.0357 49.9683 55.9715 49.9683C54.1411 49.9683 53.3062 49.05 53.3062 47.055C53.3062 46.7383 53.3383 46.3583 53.3704 46.01C53.4025 45.7567 53.4989 45.535 53.6915 45.3767C53.5631 45.1867 53.531 44.965 53.5631 44.7433C53.6594 44.3 54.3338 41.1333 55.8431 39.74ZM57.0954 41.0067C56.7101 41.355 56.1963 42.2417 55.7467 43.5083C56.5174 42.9383 57.0633 41.9883 57.0954 41.0067ZM58.7653 40.0567C58.8295 40.2783 58.8937 40.5633 58.8937 40.9433C58.8937 41.4817 58.7974 41.9883 58.6368 42.4633C58.8616 41.9883 58.99 41.4817 58.99 40.975C58.99 40.6267 58.9579 40.31 58.7653 40.0567Z"/><path fill="#6D1F11" d="M64.8666 38.885L64.5455 40.3733C65.4125 39.645 66.3437 38.885 67.4998 38.885C68.5916 38.885 69.2017 39.7717 69.2017 40.69C69.2017 41.545 68.6237 42.4633 67.4356 42.4633C66.0547 42.4633 66.7612 40.88 66.0226 40.88C65.284 40.88 64.8345 41.2283 64.2243 41.7983L62.2655 50.9817H58.7332L61.3342 38.885H64.8666Z"/><path fill="#fff" d="M62.2655 51.8683H58.7331C58.4762 51.8683 58.2193 51.7417 58.0267 51.5517C57.834 51.3617 57.8019 51.0767 57.834 50.8233L60.4351 38.7267C60.5314 38.315 60.8847 38.03 61.3021 38.03H64.8344C65.0913 38.03 65.3482 38.1567 65.5409 38.3467C65.573 38.41 65.6051 38.4417 65.6372 38.505C66.1832 38.22 66.7933 38.03 67.4998 38.03C68.9769 38.03 70.1008 39.2017 70.1008 40.7217C70.1008 42.02 69.1696 43.3817 67.4355 43.3817C66.0868 43.3817 65.7336 42.4317 65.6051 41.8617C65.4446 41.925 65.284 42.0517 65.0592 42.2733L63.1646 51.1717C63.0683 51.5517 62.715 51.8683 62.2655 51.8683ZM59.8571 50.095H61.559L63.3573 41.6083C63.3894 41.4183 63.4857 41.26 63.6142 41.1333C63.6784 41.07 63.7747 41.0067 63.839 40.9433C63.6784 40.7533 63.6142 40.4683 63.6784 40.215L63.7747 39.7717H62.0728L59.8571 50.095ZM67.4034 41.5767H67.4355C68.2704 41.5767 68.3026 40.8483 68.3026 40.69C68.3026 40.595 68.2704 39.7717 67.4998 39.7717C67.1465 39.7717 66.7933 39.8983 66.4722 40.0567C67.1144 40.31 67.275 41.0383 67.3071 41.3233C67.3713 41.3867 67.3713 41.4817 67.4034 41.5767Z"/><path fill="#411F1F" d="M12.299 34.2933L10.9824 39.93H11.1429C13.3908 39.93 15.2212 37.7133 15.2212 35.8133C15.2212 34.3567 14.1615 33.0583 11.4962 33.0583C8.1886 33.0583 4.43148 35.0217 4.43148 39.2333C4.43148 40.5317 4.78471 40.7217 4.81682 40.975C2.95432 40.975 1.79828 40.3417 1.79828 38.6317C1.79828 35.1167 6.71144 31.9183 12.0742 31.9183C16.2166 31.9183 18.1113 33.8817 18.1113 35.94C18.1113 37.4283 17.1158 39.0433 15.2854 39.9617C17.6938 40.405 18.6251 42.1467 18.6251 44.0467C18.6251 46.485 17.1479 51.3617 12.4274 51.3617C11.2071 51.3617 9.63365 51.045 9.63365 49.4933C9.63365 49.0817 9.7621 48.6067 9.98688 48.0367C10.6934 48.7017 11.2393 48.955 11.8815 48.955C13.9367 48.955 14.6753 46.3267 14.6753 44.395C14.6753 42.6217 14.0651 41.165 11.9778 41.165C11.7531 41.165 11.175 41.1967 10.6612 41.2283L8.34916 50.95H4.27092L8.12438 34.8L12.299 34.2933Z"/><path fill="#411F1F" d="M29.8964 38.885L28.1303 47.1183C28.066 47.435 28.0339 47.6883 28.0339 47.8783C28.0339 48.5433 28.355 48.765 29.0294 48.765C29.9928 48.765 30.635 47.8467 31.0203 46.6433H32.0479C30.635 50.6017 28.4514 51.1083 27.1027 51.1083C25.6897 51.1083 24.8227 50.3167 24.6621 48.7967C23.4419 50.7917 22.0611 51.1083 21.0335 51.1083C19.5563 51.1083 18.4003 50.2533 18.4003 48.195C18.4003 47.72 18.4645 47.2133 18.5929 46.6117L20.2628 38.8533H23.7951L22.0289 47.0867C21.9647 47.34 21.9647 47.53 21.9647 47.7517C21.9647 48.3217 22.1574 48.7333 22.7033 48.7333C23.6667 48.7333 24.3089 47.815 24.6621 46.6117L26.332 38.8533H29.8964V38.885Z"/><path fill="#411F1F" d="M36.2225 38.885L35.9014 40.3733C36.7684 39.645 37.6997 38.885 38.8557 38.885C39.9475 38.885 40.5577 39.7717 40.5577 40.69C40.5577 41.545 39.9797 42.4633 38.7915 42.4633C37.4107 42.4633 38.1171 40.88 37.3786 40.88C36.64 40.88 36.1904 41.2283 35.5803 41.7983L33.6214 50.9817H30.0891L32.6902 38.885H36.2225Z"/><path fill="#411F1F" d="M51.0262 38.885L48.5857 50.095C50.095 49.5567 50.9941 48.7333 51.6685 46.6433H52.6961C51.7327 49.8417 49.8702 50.76 48.3609 51.1717L48.0077 52.9133C47.2691 56.365 45.2139 57.03 43.6083 57.03C42.099 57.03 40.8467 56.27 40.8467 54.6867C40.8467 52.66 42.9982 51.6467 44.8286 51.0767L45.1176 49.81C44.4111 50.57 43.4477 51.14 42.1633 51.14C40.4934 51.14 38.8878 50.1267 38.8878 47.245C38.8878 43.9833 40.9109 38.79 45.1818 38.79C46.5947 38.79 47.1728 39.3283 47.1728 40.025V40.1833L47.4297 38.9167H51.0262V38.885ZM43.0303 55.13C43.5441 55.13 44.1221 54.4017 44.4432 52.9767L44.6038 52.28C43.3514 52.755 42.1954 53.3567 42.1954 54.3383C42.1954 54.655 42.4844 55.13 43.0303 55.13ZM42.5807 46.865C42.5807 48.7333 43.3514 48.765 43.801 48.765C44.4753 48.765 45.4066 48.1 45.7598 46.865L47.0122 41.1333C46.9801 40.88 46.7874 40.2467 46.0167 40.2467C43.9294 40.2467 42.5807 44.6167 42.5807 46.865Z"/><path fill="#411F1F" d="M55.9715 49.0817C57.8982 49.0817 59.0864 48.005 60.3067 46.6433H61.1416C59.7286 48.86 57.6734 51.1083 54.398 51.1083C52.0859 51.1083 50.5767 50 50.5767 47.2767C50.5767 44.49 52.1823 38.6633 57.1918 38.6633C59.3754 38.6633 59.8892 39.7717 59.8892 40.975C59.8892 43.7617 57.1918 45.915 54.2374 46.0733C54.2053 46.4217 54.1732 46.7383 54.1732 47.055C54.2053 48.7017 54.7834 49.0817 55.9715 49.0817ZM57.3844 39.93C56.1321 39.93 54.9439 42.5267 54.4301 44.9017C56.3247 44.775 57.9946 42.9067 57.9946 40.9117C57.9946 40.31 57.834 39.93 57.3844 39.93Z"/><path fill="#411F1F" d="M64.8666 38.885L64.5455 40.3733C65.4125 39.645 66.3437 38.885 67.4998 38.885C68.5916 38.885 69.2017 39.7717 69.2017 40.69C69.2017 41.545 68.6237 42.4633 67.4356 42.4633C66.0547 42.4633 66.7612 40.88 66.0226 40.88C65.284 40.88 64.8345 41.2283 64.2243 41.7983L62.2655 50.9817H58.7332L61.3342 38.885H64.8666Z"/><path fill="#6D1F11" d="M18.3039 57.8533L20.4233 51.7417H21.7399V57.8533L23.9236 51.7417H24.63L21.8041 59.1833H20.2949V54.1167L18.3039 59.1833H16.8268V52.375C15.7349 52.7233 15.189 53.4833 15.189 54.5917C15.189 55.0983 15.3175 55.1933 15.3175 55.2567C14.611 55.2567 14.2257 55.0033 14.2257 54.275C14.2257 52.945 16.0882 51.6783 17.7901 51.6783C17.9186 51.6783 18.0791 51.6783 18.2076 51.71L18.3039 57.8533Z"/><path fill="#fff" d="M21.8042 60.07H20.2949C19.8132 60.07 19.3957 59.6583 19.3957 59.1833V58.835L19.1388 59.5C19.0104 59.8483 18.6572 60.07 18.3039 60.07H16.8268C16.3451 60.07 15.9276 59.6583 15.9276 59.1833V55.9217C15.7671 56.08 15.5423 56.1433 15.3175 56.1433C14.0651 56.1433 13.3265 55.4467 13.3265 54.275C13.3265 52.3117 15.735 50.7917 17.7901 50.7917C17.9507 50.7917 18.1113 50.7917 18.2718 50.8233C18.7214 50.855 19.1067 51.235 19.1067 51.71V52.755L19.5563 51.4567C19.6847 51.1083 20.038 50.855 20.4233 50.855H21.7399C22.2216 50.855 22.6391 51.2667 22.6391 51.7417V52.6283L23.0565 51.425C23.185 51.0767 23.5382 50.8233 23.8914 50.8233H24.5979C24.8869 50.8233 25.1759 50.9817 25.3365 51.2033C25.4971 51.4567 25.5292 51.7417 25.4328 52.0267L22.6712 59.5C22.5427 59.8483 22.1895 60.07 21.8042 60.07ZM20.8087 53.3567C20.8087 53.3567 20.8408 53.3567 20.8408 53.3883V53.2617L20.8087 53.3567Z"/><path fill="#6D1F11" d="M25.3044 58.3917C26.1072 58.3917 26.5889 57.9483 27.1027 57.3783H27.4559C26.8779 58.2967 26.0109 59.215 24.6622 59.215C23.6988 59.215 23.0887 58.7717 23.0887 57.6317C23.0887 56.4917 23.7309 54.085 25.8182 54.085C26.7173 54.085 26.9421 54.5283 26.9421 55.035C26.9421 56.175 25.8182 57.0617 24.63 57.125C24.63 57.2517 24.5979 57.41 24.5979 57.5367C24.5979 58.2333 24.8227 58.3917 25.3044 58.3917ZM25.8824 54.6233C25.3686 54.6233 24.8869 55.7 24.6622 56.6817C25.4328 56.6183 26.1393 55.8583 26.1393 55.035C26.1393 54.7817 26.0751 54.6233 25.8824 54.6233Z"/><path fill="#fff" d="M24.6622 60.1333C23.1208 60.1333 22.1895 59.1833 22.1895 57.6633C22.1895 55.8267 23.3134 53.23 25.8182 53.23C27.0706 53.23 27.8413 53.9267 27.8413 55.0667C27.8413 55.605 27.6807 56.08 27.4238 56.5233H27.4559C27.777 56.5233 28.0982 56.7133 28.2587 56.9667C28.4193 57.2517 28.4193 57.6 28.2266 57.8533C27.2632 59.3733 26.0751 60.1333 24.6622 60.1333Z"/><path fill="#6D1F11" d="M29.19 58.3917C29.9928 58.3917 30.4744 57.9483 30.9882 57.3783H31.3415C30.7634 58.2967 29.8964 59.215 28.5477 59.215C27.5843 59.215 26.9742 58.7717 26.9742 57.6317C26.9742 56.4917 27.6165 54.085 29.7037 54.085C30.6029 54.085 30.8277 54.5283 30.8277 55.035C30.8277 56.175 29.7037 57.0617 28.5156 57.125C28.5156 57.2517 28.4835 57.41 28.4835 57.5367C28.4514 58.2333 28.7083 58.3917 29.19 58.3917ZM29.768 54.6233C29.2542 54.6233 28.7404 55.7 28.5477 56.6817C29.3184 56.6183 30.0249 55.8583 30.0249 55.035C30.0249 54.7817 29.9606 54.6233 29.768 54.6233Z"/><path fill="#fff" d="M28.5477 60.1333C27.0063 60.1333 26.0751 59.1833 26.0751 57.6633C26.0751 55.8267 27.199 53.23 29.7037 53.23C30.9561 53.23 31.7268 53.9267 31.7268 55.0667C31.7268 55.605 31.5663 56.08 31.3094 56.5233H31.3415C31.6626 56.5233 31.9837 56.7133 32.1443 56.9667C32.3048 57.2517 32.3048 57.6 32.1122 57.8533C31.1488 59.3733 29.9606 60.1333 28.5477 60.1333Z"/><path fill="#6D1F11" d="M35.7408 54.18L33.7178 55.5733C33.8141 55.5417 33.9426 55.5417 34.0389 55.5417C34.7775 55.5417 35.1628 56.08 35.1628 56.7133C35.1628 56.84 35.1628 56.9667 35.1307 57.0933L35.0344 57.6C35.0023 57.695 34.9701 57.8217 34.9701 57.9167C34.9701 58.1067 35.0665 58.2967 35.3555 58.2967C35.6124 58.2967 35.6445 58.265 35.7087 58.2333C35.6445 58.93 35.0344 59.2467 34.7775 59.2467C33.9426 59.2467 33.493 58.835 33.493 58.1067C33.493 57.9483 33.5251 57.79 33.5572 57.6L33.6535 57.22C33.6857 57.0933 33.6857 56.9667 33.6857 56.84C33.6857 56.555 33.5893 56.365 33.3324 56.365C33.1076 56.365 32.8829 56.4917 32.5938 56.745L32.0801 59.215H30.635L32.1122 52.4383L33.6214 52.2483L32.8507 55.7633L34.8096 54.2433H35.7408V54.18Z"/><path fill="#fff" d="M34.7775 60.1333C33.9426 60.1333 33.3003 59.8167 32.9471 59.2783L32.915 59.3417C32.8186 59.7533 32.4654 60.0383 32.048 60.0383H30.6029C30.346 60.0383 30.0891 59.9117 29.8964 59.7217C29.7359 59.5 29.6717 59.2467 29.7038 58.9933L31.1809 52.2167C31.2452 51.8367 31.5663 51.5833 31.9516 51.52L33.4609 51.33C33.7499 51.2983 34.0389 51.3933 34.2316 51.615C34.4243 51.8367 34.5206 52.1217 34.4564 52.4067L34.2316 53.515C34.3921 53.3883 34.5848 53.325 34.7775 53.325H35.773C36.1583 53.325 36.5115 53.5783 36.64 53.9583C36.7684 54.3383 36.6079 54.7183 36.2868 54.94L35.6445 55.3833C35.9335 55.7317 36.0941 56.2067 36.0941 56.745C36.0941 56.935 36.062 57.1567 36.0299 57.315L35.9978 57.41C36.0941 57.4417 36.1583 57.4733 36.2547 57.5367C36.5115 57.7267 36.64 58.0117 36.64 58.3283C36.5437 59.4683 35.484 60.1333 34.7775 60.1333Z"/><path fill="#411F1F" d="M18.3039 57.8533L20.4233 51.7417H21.7399V57.8533L23.9236 51.7417H24.63L21.8041 59.1833H20.2949V54.1167L18.3039 59.1833H16.8268V52.375C15.735 52.7233 15.189 53.4833 15.189 54.5917C15.189 55.0983 15.3175 55.1933 15.3175 55.2567C14.611 55.2567 14.2257 55.0033 14.2257 54.275C14.2257 52.945 16.0882 51.6783 17.7901 51.6783C17.9186 51.6783 18.0791 51.6783 18.2076 51.71L18.3039 57.8533Z"/><path fill="#411F1F" d="M25.3044 58.3917C26.1072 58.3917 26.5889 57.9483 27.1027 57.3783H27.4559C26.8779 58.2967 26.0109 59.215 24.6622 59.215C23.6988 59.215 23.0887 58.7717 23.0887 57.6317C23.0887 56.4917 23.7309 54.085 25.8182 54.085C26.7173 54.085 26.9421 54.5283 26.9421 55.035C26.9421 56.175 25.8182 57.0617 24.63 57.125C24.63 57.2517 24.5979 57.41 24.5979 57.5367C24.5979 58.2333 24.8227 58.3917 25.3044 58.3917ZM25.8824 54.6233C25.3686 54.6233 24.8869 55.7 24.6622 56.6817C25.4328 56.6183 26.1393 55.8583 26.1393 55.035C26.1393 54.7817 26.0751 54.6233 25.8824 54.6233Z"/><path fill="#411F1F" d="M29.19 58.3917C29.9928 58.3917 30.4744 57.9483 30.9882 57.3783H31.3415C30.7634 58.2967 29.8964 59.215 28.5477 59.215C27.5843 59.215 26.9742 58.7717 26.9742 57.6317C26.9742 56.4917 27.6165 54.085 29.7037 54.085C30.6029 54.085 30.8277 54.5283 30.8277 55.035C30.8277 56.175 29.7037 57.0617 28.5156 57.125C28.5156 57.2517 28.4835 57.41 28.4835 57.5367C28.4514 58.2333 28.7083 58.3917 29.19 58.3917ZM29.768 54.6233C29.2542 54.6233 28.7404 55.7 28.5477 56.6817C29.3184 56.6183 30.0249 55.8583 30.0249 55.035C30.0249 54.7817 29.9606 54.6233 29.768 54.6233Z"/><path fill="#411F1F" d="M35.7408 54.18L33.7178 55.5733C33.8141 55.5417 33.9426 55.5417 34.0389 55.5417C34.7775 55.5417 35.1628 56.08 35.1628 56.7133C35.1628 56.84 35.1628 56.9667 35.1307 57.0933L35.0344 57.6C35.0023 57.695 34.9701 57.8217 34.9701 57.9167C34.9701 58.1067 35.0665 58.2967 35.3555 58.2967C35.6124 58.2967 35.6445 58.265 35.7087 58.2333C35.6445 58.93 35.0344 59.2467 34.7775 59.2467C33.9426 59.2467 33.493 58.835 33.493 58.1067C33.493 57.9483 33.5251 57.79 33.5572 57.6L33.6535 57.22C33.6857 57.0933 33.6857 56.9667 33.6857 56.84C33.6857 56.555 33.5893 56.365 33.3324 56.365C33.1076 56.365 32.8829 56.4917 32.5938 56.745L32.0801 59.215H30.635L32.1122 52.4383L33.6214 52.2483L32.8507 55.7633L34.8096 54.2433H35.7408V54.18Z"/><path fill="#fff" d="M44.5396 30.8733H39.4016V33.47H44.5396V30.8733Z"/><path fill="#fff" d="M18.6572 33.5967C17.1479 33.5967 16.1524 32.71 16.1524 31.4117C16.1524 30.4617 16.6662 29.7967 17.3084 29.48C17.1479 29.195 17.0194 28.8467 17.0194 28.4667C17.0194 27.2 18.1434 26.2183 19.6526 26.2183C20.9371 26.2183 21.8041 26.9467 21.8041 28.055C21.8041 28.625 21.5794 29.1 21.194 29.385C21.4509 29.765 21.6115 30.24 21.6115 30.8733C21.6757 32.425 20.3912 33.5967 18.6572 33.5967Z"/><path fill="#fff" d="M20.2628 28.7517C20.1343 28.7517 20.038 28.72 19.9416 28.5933C20.1343 28.4667 20.2628 28.2133 20.2628 27.9917C20.2628 27.7383 20.1343 27.5167 19.749 27.5167C19.3636 27.5167 19.1067 27.7383 19.1067 28.15C19.1067 29.195 20.7123 29.3217 20.7123 30.8417C20.7123 32.0133 19.749 32.615 18.7214 32.615C17.9186 32.615 17.2121 32.2667 17.2121 31.4117C17.2121 30.6517 17.758 30.2717 18.2718 30.2717C18.5287 30.2717 18.8819 30.3667 18.914 30.7467C18.5287 30.7467 18.0791 30.9367 18.0791 31.4117C18.0791 31.76 18.3039 32.0767 18.7535 32.0767C19.2352 32.0767 19.5884 31.7283 19.5884 31.1267C19.5884 29.9233 18.1112 29.48 18.1112 28.4667C18.1112 27.7383 18.8498 27.2 19.749 27.2C20.0701 27.2 20.905 27.2633 20.905 28.055C20.8408 28.435 20.616 28.7517 20.2628 28.7517Z"/><path fill="#fff" d="M22.0611 33.47C20.7766 33.47 19.9417 32.6467 19.9417 31.38C19.9417 29.9233 20.8408 27.8967 22.8639 27.8967C23.9557 27.8967 24.63 28.53 24.63 29.5433C24.63 29.8283 24.5658 30.0817 24.4695 30.335C24.63 30.43 24.7585 30.5567 24.8548 30.715C25.0154 31.0317 25.0154 31.4117 24.8227 31.6967C24.1162 32.9 23.185 33.47 22.0611 33.47Z"/><path fill="#fff" d="M22.5106 31.9183C23.0886 31.9183 23.4098 31.6017 23.763 31.2217H24.0199C23.6024 31.855 22.9923 32.52 22.0611 32.52C21.3867 32.52 20.9371 32.2033 20.9371 31.4117C20.9371 30.5883 21.3867 28.91 22.8639 28.91C23.5061 28.91 23.6346 29.2267 23.6346 29.575C23.6346 30.3983 22.8639 31 21.9968 31.0633C21.9968 31.1583 21.9968 31.2533 21.9968 31.3483C21.9968 31.7917 22.1574 31.9183 22.5106 31.9183ZM22.9281 29.2583C22.5749 29.2583 22.2216 30.0183 22.0611 30.715C22.607 30.6833 23.0886 30.145 23.0886 29.5433C23.0886 29.3533 23.0565 29.2583 22.9281 29.2583Z"/><path fill="#fff" d="M28.0981 33.47C27.6486 33.47 27.2953 33.3433 26.9742 33.1533C26.7815 33.3433 26.5568 33.4383 26.2677 33.4383H25.2402C25.1117 33.4383 24.9833 33.4067 24.8869 33.375C24.7585 33.4067 24.6621 33.4383 24.5337 33.4383H23.5061C23.2171 33.4383 22.9281 33.3117 22.7354 33.09C22.5427 32.8683 22.4785 32.5517 22.5427 32.2667L23.3134 28.7517C23.4098 28.3083 23.8272 27.9917 24.2768 27.9917H25.3044C25.4007 27.9917 25.4649 27.9917 25.5613 28.0233C25.7218 27.9917 25.9145 27.96 26.1072 27.96C26.4283 27.96 26.7173 28.0233 26.9742 28.15C27.2311 28.0233 27.5201 27.96 27.8412 27.96C28.9009 27.96 29.6395 28.6883 29.6395 29.7333C29.6395 29.8917 29.6074 30.0817 29.6074 30.24C29.8964 30.2717 30.1533 30.43 30.3139 30.6517C30.5065 30.905 30.5387 31.2217 30.4423 31.5383C29.8001 33.1533 28.8367 33.47 28.0981 33.47Z"/><path fill="#fff" d="M27.3275 29.5433C27.0706 29.5433 26.8779 29.8283 26.7815 30.1767L26.2999 32.425H25.2723L25.7861 29.9867C25.7861 29.9233 25.8182 29.86 25.8182 29.7967C25.8182 29.6383 25.754 29.48 25.5934 29.48C25.3044 29.48 25.1117 29.7967 25.0154 30.145L24.5337 32.3933H23.5061L24.2768 28.8783H25.3044L25.2402 29.2583C25.5292 28.91 25.8503 28.8467 26.1072 28.8467C26.4925 28.8467 26.7494 29.005 26.8458 29.4483C27.199 28.9417 27.5843 28.8467 27.8412 28.8467C28.2908 28.8467 28.6441 29.0683 28.6441 29.6383C28.6441 30.2083 28.2908 31.0633 28.2908 31.4433C28.2908 31.6333 28.355 31.7283 28.5798 31.7283C28.9009 31.7283 29.0294 31.475 29.19 31.095H29.479C29.0936 32.235 28.5156 32.3933 28.1624 32.3933C27.5522 32.3933 27.3275 32.0133 27.3275 31.6017C27.3275 31.1267 27.6486 30.2717 27.6486 29.7967C27.5844 29.67 27.488 29.5433 27.3275 29.5433Z"/><path fill="#fff" d="M31.7589 33.47C31.4378 33.47 31.1488 33.4067 30.924 33.2483C30.6029 33.4067 30.2818 33.47 30.0249 33.47C29.0615 33.47 28.0981 32.805 28.0981 31.3483C28.0981 29.955 28.9973 27.8967 30.924 27.8967C31.0846 27.8967 31.2451 27.9283 31.4057 27.96C31.4699 27.96 31.5341 27.9283 31.5984 27.9283H32.626C32.915 27.9283 33.204 28.055 33.3967 28.2767C33.5893 28.4983 33.6535 28.815 33.5893 29.1L33.3645 30.1767C33.6535 30.2083 33.9104 30.3667 34.071 30.5883C34.2637 30.8417 34.2958 31.19 34.1995 31.475C33.5251 33.2167 32.3691 33.47 31.7589 33.47Z"/><path fill="#fff" d="M32.5617 28.9417L32.0479 31.3483C32.0158 31.4433 32.0158 31.5067 32.0158 31.57C32.0158 31.76 32.1122 31.8867 32.3048 31.8867C32.5938 31.8867 32.7865 31.57 32.8829 31.2217H33.1719C32.7544 32.3617 32.1122 32.52 31.7268 32.52C31.3415 32.52 31.0846 32.2983 31.0203 31.8867C30.7956 32.2033 30.4744 32.52 29.9606 32.52C29.479 32.52 28.9973 32.235 28.9973 31.38C28.9973 30.43 29.5753 28.91 30.8277 28.91C31.2451 28.91 31.4057 29.0683 31.4057 29.2583V29.3217L31.4699 28.9417H32.5617ZM30.0891 31.285C30.0891 31.8233 30.3139 31.8233 30.4423 31.8233C30.635 31.8233 30.9561 31.6017 31.0203 31.19L31.3736 29.6067C31.3736 29.5117 31.3094 29.3533 31.0846 29.3533C30.4744 29.3533 30.0891 30.62 30.0891 31.285Z"/><path fill="#fff" d="M33.5893 33.47C32.5617 33.47 31.8232 32.71 31.8232 31.6333C31.8232 31.4433 31.8553 31.2217 31.8874 30.9683L32.3691 28.72C32.4012 28.5933 32.4654 28.4667 32.5296 28.34C32.4975 28.2133 32.4975 28.0867 32.4975 27.96C32.4975 27.105 33.204 26.4083 34.0389 26.4083C34.9059 26.4083 35.6124 27.105 35.6124 27.96C35.6124 28.2767 35.5161 28.5617 35.3555 28.7833C35.3555 28.8783 35.3555 28.9733 35.3234 29.0683L35.0986 30.145C35.3876 30.145 35.6766 30.3033 35.8693 30.5567C36.062 30.81 36.0941 31.1583 35.9977 31.4433C35.3876 33.28 34.1031 33.47 33.5893 33.47Z"/><path fill="#fff" d="M34.3921 28.9417L33.8783 31.3483C33.8462 31.4433 33.8462 31.5067 33.8462 31.57C33.8462 31.76 33.9425 31.8233 34.1352 31.8233C34.4242 31.8233 34.6811 31.57 34.7775 31.19H35.0665C34.649 32.33 33.9425 32.4883 33.5572 32.4883C33.1397 32.4883 32.7865 32.235 32.7865 31.6333C32.7865 31.5067 32.8186 31.3483 32.8507 31.19L33.3324 28.9417H34.3921ZM34.071 27.4533C34.3921 27.4533 34.649 27.7067 34.649 28.0233C34.649 28.34 34.3921 28.5933 34.071 28.5933C33.7499 28.5933 33.493 28.34 33.493 28.0233C33.5251 27.7067 33.7499 27.4533 34.071 27.4533Z"/><path fill="#fff" d="M37.3785 33.47C36.929 33.47 36.5757 33.3433 36.2546 33.1533C36.0619 33.3433 35.8372 33.4383 35.5481 33.4383H34.5206C34.2316 33.4383 33.9425 33.3117 33.7499 33.09C33.5572 32.8683 33.493 32.5517 33.5572 32.2667L34.3279 28.7517C34.4242 28.3083 34.8417 27.9917 35.2913 27.9917H36.3188C36.4152 27.9917 36.4794 27.9917 36.5757 28.0233C36.7363 27.9917 36.8969 27.96 37.0895 27.96C38.1492 27.96 38.8878 28.6883 38.8878 29.7333C38.8878 29.8917 38.8557 30.0817 38.8557 30.24C39.1447 30.2717 39.4016 30.43 39.5622 30.6517C39.7548 30.905 39.787 31.2217 39.6906 31.5383C39.0805 33.1533 38.085 33.47 37.3785 33.47Z"/><path fill="#fff" d="M36.5758 29.5433C36.3189 29.5433 36.1262 29.8283 36.0298 30.1767L35.5482 32.425H34.5206L35.2913 28.91H36.3189L36.2546 29.29C36.5436 28.9417 36.8648 28.91 37.0895 28.91C37.5391 28.91 37.8924 29.1317 37.8924 29.7017C37.8924 30.2717 37.5391 31.1267 37.5391 31.5067C37.5391 31.6967 37.6033 31.7917 37.8281 31.7917C38.1493 31.7917 38.2777 31.5383 38.4383 31.1583H38.7273C38.3419 32.2983 37.7639 32.4567 37.4107 32.4567C36.8005 32.4567 36.5758 32.0767 36.5758 31.665C36.5758 31.19 36.8969 30.335 36.8969 29.86C36.8327 29.67 36.7684 29.5433 36.5758 29.5433Z"/><path fill="#fff" d="M39.4016 33.47C38.1171 33.47 37.3143 32.6467 37.3143 31.38C37.3143 29.9233 38.2135 27.8967 40.2365 27.8967C41.3284 27.8967 42.0027 28.53 42.0027 29.5433C42.0027 30.0817 41.81 30.5567 41.4889 30.9683C41.6174 31.1583 41.6495 31.4117 41.6174 31.6333C41.3926 32.805 40.5577 33.47 39.4016 33.47Z"/><path fill="#fff" d="M39.7869 31.8233C40.0438 31.8233 40.3971 31.6333 40.6219 31.4433C40.4613 32.235 39.9475 32.4883 39.4016 32.4883C38.7272 32.4883 38.3098 32.1717 38.3098 31.38C38.3098 30.5567 38.7594 28.8783 40.2365 28.8783C40.8788 28.8783 41.0072 29.195 41.0072 29.5433C41.0072 30.3667 40.2365 30.9683 39.3695 31.0317C39.3695 31.095 39.3695 31.19 39.3695 31.2533C39.3374 31.6967 39.53 31.8233 39.7869 31.8233ZM40.2686 29.2583C39.9154 29.2583 39.5622 30.05 39.4016 30.715C39.9475 30.6833 40.4292 30.145 40.4292 29.5433C40.4613 29.3533 40.3971 29.2583 40.2686 29.2583Z"/><path fill="#fff" d="M43.4156 33.47C42.4523 33.47 41.4889 32.805 41.4889 31.3483C41.4889 29.9867 42.3559 28.0233 44.1863 27.9283L44.2827 27.4533C44.379 27.0417 44.7001 26.7567 45.1176 26.6933L46.1773 26.5667C46.2094 26.5667 46.2736 26.5667 46.3057 26.5667C46.5947 26.5667 46.8516 26.6933 47.0443 26.8833C47.2691 27.105 47.3654 27.4533 47.3012 27.7383L46.7553 30.24C47.0443 30.2717 47.3012 30.43 47.4618 30.6517C47.6544 30.905 47.6865 31.2533 47.5902 31.5383C47.0443 33.1217 45.9846 33.4383 45.2139 33.4383C44.9249 33.4383 44.6359 33.375 44.4111 33.2483C44.0579 33.4067 43.7367 33.47 43.4156 33.47Z"/><path fill="#fff" d="M46.2736 27.5483L45.4387 31.3483C45.4066 31.4433 45.4066 31.5067 45.4066 31.57C45.4066 31.76 45.5029 31.8233 45.6956 31.8233C45.9846 31.8233 46.1773 31.57 46.2736 31.19H46.5626C46.1452 32.33 45.5029 32.4567 45.1176 32.4567C44.7322 32.4567 44.4753 32.235 44.4111 31.855C44.1863 32.1717 43.8652 32.4883 43.3514 32.4883C42.8697 32.4883 42.388 32.2033 42.388 31.3483C42.388 30.3983 42.966 28.8783 44.2184 28.8783C44.6359 28.8783 44.7964 29.0367 44.7964 29.2267V29.2583L45.1497 27.6433L46.2736 27.5483ZM44.4432 31.19L44.7964 29.575C44.7964 29.48 44.7322 29.3217 44.5074 29.3217C43.8973 29.3217 43.512 30.5883 43.512 31.2533C43.512 31.7917 43.7367 31.7917 43.8652 31.7917C44.0579 31.7917 44.3469 31.6017 44.4432 31.2217V31.19Z"/><path fill="#fff" d="M48.7784 33.47C48.4572 33.47 48.2004 33.4067 47.9435 33.2483C47.6544 33.375 47.3654 33.47 47.0122 33.47C45.9846 33.47 45.246 32.71 45.246 31.6333C45.246 31.4433 45.2781 31.2217 45.3103 30.9683L45.7919 28.72C45.8883 28.2767 46.3057 27.96 46.7553 27.96H47.7829C47.9113 27.96 48.0398 27.9917 48.1361 28.0233C48.2646 27.9917 48.3609 27.96 48.4894 27.96H49.5169C49.806 27.96 50.095 28.0867 50.2876 28.3083C50.4803 28.53 50.5445 28.8467 50.4803 29.1317L50.095 30.9683C50.095 30.9683 50.095 30.9683 50.1271 30.9683C50.384 31.1583 50.5445 31.475 50.5124 31.8233C50.4803 32.805 49.7417 33.47 48.7784 33.47Z"/><path fill="#fff" d="M47.815 28.9417L47.3012 31.3483C47.3012 31.4117 47.2691 31.475 47.2691 31.5383C47.2691 31.6967 47.3333 31.855 47.4939 31.855C47.7829 31.855 47.9434 31.6017 48.0719 31.2217L48.5536 28.9733H49.5812L49.0674 31.38C49.0353 31.475 49.0353 31.5383 49.0353 31.6017C49.0353 31.7917 49.1316 31.855 49.3243 31.855C49.4527 31.855 49.4848 31.8233 49.549 31.8233C49.5169 32.33 49.1316 32.5517 48.7462 32.5517C48.3609 32.5517 48.104 32.2983 48.0398 31.8867C47.6865 32.4567 47.2691 32.5517 46.9801 32.5517C46.5626 32.5517 46.2094 32.2983 46.2094 31.6967C46.2094 31.57 46.2415 31.4117 46.2736 31.2533L46.7553 29.005H47.815V28.9417Z"/><path fill="#411F1F" d="M20.2628 28.7517C20.1343 28.7517 20.038 28.72 19.9416 28.5933C20.1343 28.4667 20.2628 28.2133 20.2628 27.9917C20.2628 27.7383 20.1343 27.5167 19.749 27.5167C19.3636 27.5167 19.1067 27.7383 19.1067 28.15C19.1067 29.195 20.7123 29.3217 20.7123 30.8417C20.7123 32.0133 19.749 32.615 18.7214 32.615C17.9186 32.615 17.2121 32.2667 17.2121 31.4117C17.2121 30.6517 17.758 30.2717 18.2718 30.2717C18.5287 30.2717 18.8819 30.3667 18.914 30.7467C18.5287 30.7467 18.0791 30.9367 18.0791 31.4117C18.0791 31.76 18.3039 32.0767 18.7535 32.0767C19.2352 32.0767 19.5884 31.7283 19.5884 31.1267C19.5884 29.9233 18.1112 29.48 18.1112 28.4667C18.1112 27.7383 18.8498 27.2 19.749 27.2C20.0701 27.2 20.905 27.2633 20.905 28.055C20.8408 28.435 20.616 28.7517 20.2628 28.7517Z"/><path fill="#411F1F" d="M22.5106 31.9183C23.0886 31.9183 23.4097 31.6017 23.763 31.2217H24.0199C23.6024 31.855 22.9923 32.52 22.061 32.52C21.3867 32.52 20.9371 32.2033 20.9371 31.4117C20.9371 30.5883 21.3867 28.91 22.8638 28.91C23.5061 28.91 23.6345 29.2267 23.6345 29.575C23.6345 30.3983 22.8638 31 21.9968 31.0633C21.9968 31.1583 21.9968 31.2533 21.9968 31.3483C21.9968 31.7917 22.1574 31.9183 22.5106 31.9183ZM22.9281 29.2583C22.5748 29.2583 22.2216 30.0183 22.061 30.715C22.6069 30.6833 23.0886 30.145 23.0886 29.5433C23.0886 29.3533 23.0565 29.2583 22.9281 29.2583Z"/><path fill="#411F1F" d="M27.3274 29.5433C27.0705 29.5433 26.8779 29.8283 26.7815 30.1767L26.2998 32.425H25.2722L25.786 29.9867C25.786 29.9233 25.8182 29.86 25.8182 29.7967C25.8182 29.6383 25.7539 29.48 25.5934 29.48C25.3044 29.48 25.1117 29.7967 25.0153 30.145L24.5337 32.3933H23.5061L24.2768 28.8783H25.3044L25.2401 29.2583C25.5291 28.91 25.8503 28.8467 26.1072 28.8467C26.4925 28.8467 26.7494 29.005 26.8457 29.4483C27.199 28.9417 27.5843 28.8467 27.8412 28.8467C28.2908 28.8467 28.644 29.0683 28.644 29.6383C28.644 30.2083 28.2908 31.0633 28.2908 31.4433C28.2908 31.6333 28.355 31.7283 28.5798 31.7283C28.9009 31.7283 29.0294 31.475 29.1899 31.095H29.4789C29.0936 32.235 28.5156 32.3933 28.1623 32.3933C27.5522 32.3933 27.3274 32.0133 27.3274 31.6017C27.3274 31.1267 27.6485 30.2717 27.6485 29.7967C27.5843 29.67 27.488 29.5433 27.3274 29.5433Z"/><path fill="#411F1F" d="M32.5617 28.9417L32.0479 31.3483C32.0158 31.4433 32.0158 31.5067 32.0158 31.57C32.0158 31.76 32.1121 31.8867 32.3048 31.8867C32.5938 31.8867 32.7865 31.57 32.8828 31.2217H33.1718C32.7544 32.3617 32.1121 32.52 31.7268 32.52C31.3414 32.52 31.0845 32.2983 31.0203 31.8867C30.7955 32.2033 30.4744 32.52 29.9606 32.52C29.4789 32.52 28.9973 32.235 28.9973 31.38C28.9973 30.43 29.5753 28.91 30.8276 28.91C31.2451 28.91 31.4057 29.0683 31.4057 29.2583V29.3217L31.4699 28.9417H32.5617ZM30.0891 31.285C30.0891 31.8233 30.3139 31.8233 30.4423 31.8233C30.635 31.8233 30.9561 31.6017 31.0203 31.19L31.3736 29.6067C31.3736 29.5117 31.3093 29.3533 31.0845 29.3533C30.4744 29.3533 30.0891 30.62 30.0891 31.285Z"/><path fill="#411F1F" d="M34.3921 28.9417L33.8783 31.3483C33.8462 31.4433 33.8462 31.5067 33.8462 31.57C33.8462 31.76 33.9425 31.8233 34.1352 31.8233C34.4242 31.8233 34.6811 31.57 34.7775 31.19H35.0665C34.649 32.33 33.9425 32.4883 33.5572 32.4883C33.1397 32.4883 32.7865 32.235 32.7865 31.6333C32.7865 31.5067 32.8186 31.3483 32.8507 31.19L33.3324 28.9417H34.3921ZM34.071 27.4533C34.3921 27.4533 34.649 27.7067 34.649 28.0233C34.649 28.34 34.3921 28.5933 34.071 28.5933C33.7499 28.5933 33.493 28.34 33.493 28.0233C33.5251 27.7067 33.7499 27.4533 34.071 27.4533Z"/><path fill="#411F1F" d="M36.5758 29.5433C36.3189 29.5433 36.1262 29.8283 36.0298 30.1767L35.5482 32.425H34.5206L35.2913 28.91H36.3189L36.2546 29.29C36.5436 28.9417 36.8648 28.91 37.0895 28.91C37.5391 28.91 37.8924 29.1317 37.8924 29.7017C37.8924 30.2717 37.5391 31.1267 37.5391 31.5067C37.5391 31.6967 37.6033 31.7917 37.8281 31.7917C38.1493 31.7917 38.2777 31.5383 38.4383 31.1583H38.7273C38.3419 32.2983 37.7639 32.4567 37.4107 32.4567C36.8005 32.4567 36.5758 32.0767 36.5758 31.665C36.5758 31.19 36.8969 30.335 36.8969 29.86C36.8327 29.67 36.7684 29.5433 36.5758 29.5433Z"/><path fill="#411F1F" d="M39.7869 31.8233C40.0438 31.8233 40.3971 31.6333 40.6219 31.4433C40.4613 32.235 39.9475 32.4883 39.4016 32.4883C38.7272 32.4883 38.3098 32.1717 38.3098 31.38C38.3098 30.5567 38.7594 28.8783 40.2365 28.8783C40.8788 28.8783 41.0072 29.195 41.0072 29.5433C41.0072 30.3667 40.2365 30.9683 39.3695 31.0317C39.3695 31.095 39.3695 31.19 39.3695 31.2533C39.3374 31.6967 39.53 31.8233 39.7869 31.8233ZM40.2686 29.2583C39.9154 29.2583 39.5622 30.05 39.4016 30.715C39.9475 30.6833 40.4292 30.145 40.4292 29.5433C40.4613 29.3533 40.3971 29.2583 40.2686 29.2583Z"/><path fill="#411F1F" d="M46.2736 27.5483L45.4387 31.3483C45.4066 31.4433 45.4066 31.5067 45.4066 31.57C45.4066 31.76 45.5029 31.8233 45.6956 31.8233C45.9846 31.8233 46.1773 31.57 46.2736 31.19H46.5626C46.1452 32.33 45.5029 32.4567 45.1176 32.4567C44.7322 32.4567 44.4753 32.235 44.4111 31.855C44.1863 32.1717 43.8652 32.4883 43.3514 32.4883C42.8697 32.4883 42.388 32.2033 42.388 31.3483C42.388 30.3983 42.966 28.8783 44.2184 28.8783C44.6359 28.8783 44.7964 29.0367 44.7964 29.2267V29.2583L45.1497 27.6433L46.2736 27.5483ZM44.4432 31.19L44.7964 29.575C44.7964 29.48 44.7322 29.3217 44.5074 29.3217C43.8973 29.3217 43.512 30.5883 43.512 31.2533C43.512 31.7917 43.7367 31.7917 43.8652 31.7917C44.0579 31.7917 44.3469 31.6017 44.4432 31.2217V31.19Z"/><path fill="#411F1F" d="M47.815 28.9417L47.3012 31.3483C47.3012 31.4117 47.2691 31.475 47.2691 31.5383C47.2691 31.6967 47.3333 31.855 47.4939 31.855C47.7829 31.855 47.9434 31.6017 48.0719 31.2217L48.5536 28.9733H49.5812L49.0674 31.38C49.0353 31.475 49.0353 31.5383 49.0353 31.6017C49.0353 31.7917 49.1316 31.855 49.3243 31.855C49.4527 31.855 49.4848 31.8233 49.549 31.8233C49.5169 32.33 49.1316 32.5517 48.7462 32.5517C48.3609 32.5517 48.104 32.2983 48.0398 31.8867C47.6865 32.4567 47.2691 32.5517 46.9801 32.5517C46.5626 32.5517 46.2094 32.2983 46.2094 31.6967C46.2094 31.57 46.2415 31.4117 46.2736 31.2533L46.7553 29.005H47.815V28.9417Z"/></g><path fill="#fff" d="M36.1111 6.091H36.6661V5.887H36.1111V5.287H35.8891V5.887H35.3341V6.091H35.8891V6.712H36.1111V6.091Z"/><path fill="#0075BF" d="M42.25 3.13174C41.9167 2.96407 41.4167 2.88024 41.0417 2.88024C40.6667 2.88024 40.1667 3.0479 40.1667 3.63473C40.1667 4.5988 42.5833 4.17964 42.5833 6.02395C42.5833 7.23952 41.625 7.65868 40.5 7.65868C39.9167 7.65868 39.625 7.57485 39.0833 7.4491V6.44311C39.4583 6.65269 40 6.77844 40.4583 6.77844C40.875 6.77844 41.4583 6.56886 41.4583 6.06587C41.4167 5.05988 39 5.47904 39 3.67665C39 2.46108 39.9583 2 40.9167 2C41.375 2 41.8333 2.04192 42.25 2.20958V3.13174Z"/><path fill="#0075BF" d="M48.5833 4.47306C48.25 4.34731 48 4.30539 47.625 4.30539C47.3333 4.30539 47 4.38923 47 4.72456C47 5.3533 48.7917 4.93414 48.7917 6.35929C48.7917 7.28144 47.9583 7.65869 47.125 7.65869C46.75 7.65869 46.3333 7.57485 45.9583 7.49102L46 6.6527C46.3333 6.82036 46.6667 6.9042 47 6.9042C47.25 6.9042 47.6667 6.82036 47.6667 6.44312C47.6667 5.68863 45.875 6.19162 45.875 4.76647C45.875 3.92815 46.625 3.5509 47.4167 3.5509C47.9167 3.5509 48.2083 3.63474 48.5417 3.67665L48.5833 4.47306Z"/><path fill="#0075BF" d="M51.875 4.51497C51.7083 4.43114 51.5 4.38923 51.1667 4.38923C50.5417 4.38923 50.125 4.89222 50.125 5.64671C50.125 6.35929 50.4583 6.94611 51.2083 6.94611C51.5 6.94611 51.8333 6.82036 52 6.77845L52.0417 7.61677C51.75 7.7006 51.4167 7.74252 51 7.74252C49.7083 7.74252 49.0417 6.86228 49.0417 5.68863C49.0417 4.55689 49.7083 3.63474 50.9583 3.63474C51.375 3.63474 51.6667 3.67665 51.9583 3.76048L51.875 4.51497Z"/><path fill="#0075BF" d="M54.2083 3.59282C55.375 3.59282 56.2917 4.38923 56.2917 5.68863C56.2917 6.82036 55.5417 7.7006 54.2083 7.7006C52.9167 7.7006 52.125 6.82036 52.125 5.68863C52.125 4.34731 53.0417 3.59282 54.2083 3.59282ZM54.2083 6.9042C55 6.9042 55.2083 6.19162 55.2083 5.56288C55.2083 4.97605 54.875 4.38923 54.2083 4.38923C53.5417 4.38923 53.2083 4.97605 53.2083 5.56288C53.2083 6.19162 53.4167 6.9042 54.2083 6.9042Z"/><path fill="#0075BF" d="M46.0417 3.59282H45L43.0417 9H44L46.0417 3.59282Z"/><path fill="#5F9E43" d="M41.7917 3.50899C42.2083 3.97006 42.6667 4.51497 43 5.14372C43.2917 5.73054 43.4167 6.27545 43.5417 6.82036C43.5417 6.82036 43.5417 6.82036 43.5833 6.82036C43.9583 6.1497 44.2083 5.26947 43.8333 4.59881C43.4167 3.88623 42.5833 3.5509 41.7917 3.50899C41.75 3.46707 41.75 3.50899 41.7917 3.50899Z"/><path fill="#CF3339" d="M24 10.0771C28.9706 10.0771 33 7.82125 33 5.03854C33 2.25583 28.9706 0 24 0C19.0294 0 15 2.25583 15 5.03854C15 7.82125 19.0294 10.0771 24 10.0771Z"/><path fill="#fff" d="M16.643 5.29411C16.5152 5.76876 16.716 6.18864 17.3185 6.18864C17.6653 6.18864 17.9574 5.98783 18.0304 5.71399C18.1034 5.40365 17.9209 5.20284 17.7201 5.00203L17.5193 4.80121C17.2637 4.54564 17.0629 4.30831 17.1542 3.90669C17.2819 3.34077 17.8844 2.99391 18.5598 2.99391C18.9249 2.99391 19.1988 3.10344 19.4178 3.286C19.856 3.74239 19.3083 4.01622 19.1805 3.99797C19.144 3.99797 19.144 3.97971 19.144 3.97971C19.2535 3.6146 19.144 3.21298 18.6329 3.21298C18.3408 3.21298 17.9939 3.35902 17.9391 3.6146C17.8661 3.90669 18.0852 4.1075 18.2677 4.30831L18.4503 4.49087C18.7424 4.7647 18.9615 5.03854 18.8702 5.45841C18.7241 6.0791 18.1034 6.44422 17.3732 6.44422C16.9716 6.44422 16.57 6.31643 16.3509 6.0791C15.9128 5.54969 16.4057 5.29411 16.643 5.29411Z"/><path fill="#fff" d="M21.6816 7.61258L22.3935 6.0426H22.4118C22.5031 6.24341 22.7039 6.3712 22.9777 6.3712C23.8905 6.3712 24.5112 5.49493 24.6024 4.83773C24.6024 4.83773 24.6207 4.74645 24.6024 4.65517C24.5842 4.34483 24.3651 4.10751 23.9087 4.10751C23.5801 4.10751 23.288 4.2353 23.0872 4.43611L23.069 4.41785L23.142 4.2353C23.0507 4.05274 22.8864 3.9067 22.6856 3.85193L21.2069 7.15619C21.2982 7.39351 21.4807 7.55781 21.6816 7.61258ZM23.8905 4.7282C23.854 5.09331 23.3976 6.11562 22.8317 6.11562C22.6126 6.11562 22.5396 5.95132 22.5578 5.78702C22.5943 5.47668 23.0142 4.41785 23.5801 4.41785C23.8175 4.41785 23.9087 4.5639 23.8905 4.7282Z"/><path fill="#fff" d="M21.499 6.07911C21.4625 6.09737 21.426 6.11562 21.3894 6.11562C21.2982 6.11562 21.2799 6.00609 21.2982 5.93307C21.3164 5.86004 21.4077 5.64098 21.4442 5.5497L22.0832 4.18053C21.8823 4.10751 21.645 4.10751 21.426 4.18053L21.2799 4.47262C21.1886 4.25355 20.9878 4.14402 20.6957 4.14402C19.8012 4.14402 19.0527 5.00203 18.9797 5.65923C18.9249 6.06085 19.144 6.38945 19.6734 6.38945C20.0933 6.38945 20.4584 6.13388 20.6775 5.86004L20.6957 5.8783C20.6957 5.8783 20.6592 5.98783 20.6592 6.06085C20.641 6.24341 20.787 6.40771 21.0243 6.40771C21.1704 6.40771 21.3164 6.3712 21.4442 6.29818L21.499 6.07911ZM21.0974 4.70994C21.0608 5.07505 20.5497 6.09737 19.9838 6.09737C19.7647 6.09737 19.7099 5.91481 19.7282 5.76877C19.7647 5.40365 20.2576 4.43611 20.8053 4.43611C21.0243 4.41785 21.1156 4.54564 21.0974 4.70994Z"/><path fill="#fff" d="M27.0487 5.0933L27.4321 4.36308C27.4321 4.36308 27.213 4.34482 27.0852 4.34482C26.9939 4.34482 26.7749 4.30831 26.7749 4.30831L26.5923 4.63691C26.428 4.96551 25.8621 6.06085 25.3509 6.06085C25.2414 6.06085 25.1684 6.02434 25.1866 5.93306C25.2049 5.82353 25.6248 5.05679 25.6248 5.05679C25.716 4.89249 25.8438 4.63691 25.8621 4.47261C25.8803 4.2718 25.716 4.14401 25.4787 4.14401C25.2779 4.14401 25.0223 4.23529 24.8215 4.36308C24.8398 4.39959 24.858 4.4361 24.8763 4.49087C24.9493 4.47261 25.0041 4.45436 25.0406 4.45436C25.1136 4.45436 25.1501 4.50912 25.1319 4.56389C25.1136 4.61866 24.7485 5.38539 24.7485 5.38539C24.6572 5.54969 24.5112 5.82353 24.4929 5.98783C24.4564 6.2434 24.6755 6.38945 24.9493 6.38945C25.4422 6.38945 25.8438 6.06085 26.1359 5.67748L26.1542 5.69574C26.1177 5.80527 26.0811 5.89655 26.0629 6.02434C26.0446 6.22515 26.1724 6.38945 26.428 6.38945C26.6653 6.38945 26.8661 6.29817 27.0487 6.15213C27.0304 6.09736 27.0304 6.06085 27.0304 6.00608V5.98783C26.9757 6.02434 26.9026 6.06085 26.8479 6.06085C26.7566 6.06085 26.7383 5.96957 26.7566 5.89655C26.7749 5.69574 26.9574 5.29411 27.0487 5.0933Z"/><path fill="#fff" d="M30.8641 4.16227C30.5355 3.92494 29.933 3.74239 28.9107 3.72413L29.1481 3.19472C28.9472 3.1217 28.7099 3.1217 28.5091 3.19472L28.2535 3.72413C27.5781 3.76064 26.7566 3.9432 25.2779 3.63285L25.2414 3.70588C26.0629 4.05273 27.3225 4.12576 28.0527 4.12576L27.5233 5.23935C27.4685 5.34888 27.4138 5.47667 27.359 5.62271C27.2677 5.80527 27.2495 5.93306 27.2495 6.00608C27.2312 6.22515 27.432 6.4077 27.7059 6.4077C28.0345 6.4077 28.3083 6.22515 28.5091 6.02433C28.4909 5.98782 28.4543 5.93306 28.4543 5.87829C28.4178 5.9148 28.3448 5.96957 28.3083 6.00608C28.2353 6.06085 28.144 6.09736 28.071 6.09736C27.9614 6.09736 27.9432 6.00608 27.9432 5.93306C27.9614 5.78701 28.1075 5.49492 28.1805 5.34888L28.7464 4.08924C29.3124 4.03448 30.0061 3.96145 30.3894 4.18052C29.86 4.21703 29.3124 4.38133 28.9838 4.78296C28.7829 5.00202 28.6734 5.27586 28.6369 5.54969C28.6186 5.65922 28.6369 5.76876 28.6369 5.80527C28.7099 6.17038 29.0385 6.4077 29.5679 6.4077C30.4442 6.4077 31.2109 5.71399 31.284 5.03853C31.284 5.02028 31.357 4.72819 31.1379 4.41784C31.43 4.52738 31.6491 4.70993 31.7038 4.80121C31.8499 4.74644 31.9959 4.61866 32.0689 4.45436C31.9229 4.32657 31.43 4.18052 30.8641 4.16227ZM30.1339 5.80527C29.714 6.38945 29.0568 6.38945 29.2941 5.56795C29.3306 5.44016 29.6227 4.38133 30.5172 4.30831C30.5537 4.36308 30.5902 4.4361 30.5902 4.50912C30.6815 4.83772 30.4259 5.4219 30.1339 5.80527Z"/><defs><clipPath id="clip0"><rect width="71" height="57" fill="#fff" transform="translate(0 12)"/></clipPath></defs></svg>