<svg xmlns="http://www.w3.org/2000/svg" width="70" height="81" fill="none" viewBox="0 0 70 81"><path fill="#411F1F" d="M27.2563 13.552V12.799C27.3733 12.955 27.5383 13.036 27.7213 13.036C28.0963 13.036 28.3633 12.751 28.3633 12.274C28.3633 11.797 28.0963 11.515 27.7213 11.515C27.5323 11.515 27.3643 11.605 27.2563 11.749V11.551H26.9413V13.552H27.2563ZM28.0363 12.274C28.0363 12.556 27.8773 12.757 27.6283 12.757C27.4813 12.757 27.3253 12.667 27.2563 12.562V11.989C27.3253 11.881 27.4813 11.794 27.6283 11.794C27.8773 11.794 28.0363 11.995 28.0363 12.274ZM28.6815 13H28.9965V12.013C29.0595 11.911 29.2365 11.821 29.3685 11.821C29.4075 11.821 29.4405 11.824 29.4675 11.83V11.518C29.2785 11.518 29.1045 11.626 28.9965 11.764V11.551H28.6815V13ZM30.4686 11.332L30.9636 10.9H30.6636L30.2436 11.332H30.4686ZM29.6316 12.274C29.6316 12.733 29.9556 13.036 30.3906 13.036C30.6216 13.036 30.8346 12.964 30.9786 12.826L30.8346 12.619C30.7326 12.721 30.5646 12.778 30.4236 12.778C30.1506 12.778 29.9856 12.598 29.9616 12.379H31.0806V12.304C31.0806 11.848 30.8016 11.515 30.3666 11.515C29.9376 11.515 29.6316 11.854 29.6316 12.274ZM30.3666 11.773C30.6516 11.773 30.7686 11.986 30.7746 12.157H29.9586C29.9736 11.98 30.0966 11.773 30.3666 11.773ZM31.2655 12.811C31.4155 12.958 31.6405 13.036 31.8865 13.036C32.2765 13.036 32.4895 12.841 32.4895 12.586C32.4895 12.244 32.1805 12.172 31.9285 12.118C31.7575 12.079 31.6135 12.04 31.6135 11.929C31.6135 11.827 31.7185 11.767 31.8835 11.767C32.0635 11.767 32.2255 11.842 32.3125 11.941L32.4445 11.719C32.3125 11.602 32.1265 11.515 31.8805 11.515C31.5145 11.515 31.3105 11.719 31.3105 11.956C31.3105 12.28 31.6075 12.346 31.8565 12.4C32.0335 12.439 32.1865 12.484 32.1865 12.61C32.1865 12.718 32.0905 12.787 31.9015 12.787C31.7125 12.787 31.5115 12.688 31.4095 12.583L31.2655 12.811ZM32.7165 12.274C32.7165 12.733 33.0405 13.036 33.4755 13.036C33.7065 13.036 33.9195 12.964 34.0635 12.826L33.9195 12.619C33.8175 12.721 33.6495 12.778 33.5085 12.778C33.2355 12.778 33.0705 12.598 33.0465 12.379H34.1655V12.304C34.1655 11.848 33.8865 11.515 33.4515 11.515C33.0225 11.515 32.7165 11.854 32.7165 12.274ZM33.4515 11.773C33.7365 11.773 33.8535 11.986 33.8595 12.157H33.0435C33.0585 11.98 33.1815 11.773 33.4515 11.773ZM35.4545 13H35.7695V11.98C35.7695 11.683 35.6135 11.515 35.3015 11.515C35.0735 11.515 34.8875 11.635 34.7915 11.749V11.551H34.4765V13H34.7915V11.989C34.8635 11.89 35.0015 11.794 35.1635 11.794C35.3405 11.794 35.4545 11.869 35.4545 12.094V13ZM36.6136 13.036C36.7606 13.036 36.8536 12.997 36.9106 12.943L36.8356 12.706C36.8116 12.733 36.7546 12.757 36.6946 12.757C36.6046 12.757 36.5566 12.685 36.5566 12.586V11.827H36.8506V11.551H36.5566V11.155H36.2416V11.551H36.0016V11.827H36.2416V12.664C36.2416 12.904 36.3706 13.036 36.6136 13.036ZM37.0466 12.274C37.0466 12.733 37.3706 13.036 37.8056 13.036C38.0366 13.036 38.2496 12.964 38.3936 12.826L38.2496 12.619C38.1476 12.721 37.9796 12.778 37.8386 12.778C37.5656 12.778 37.4006 12.598 37.3766 12.379H38.4956V12.304C38.4956 11.848 38.2166 11.515 37.7816 11.515C37.3526 11.515 37.0466 11.854 37.0466 12.274ZM37.7816 11.773C38.0666 11.773 38.1836 11.986 38.1896 12.157H37.3736C37.3886 11.98 37.5116 11.773 37.7816 11.773ZM39.7845 13H40.0995V11.98C40.0995 11.683 39.9435 11.515 39.6315 11.515C39.4035 11.515 39.2175 11.635 39.1215 11.749V11.551H38.8065V13H39.1215V11.989C39.1935 11.89 39.3315 11.794 39.4935 11.794C39.6705 11.794 39.7845 11.869 39.7845 12.094V13ZM40.9437 13.036C41.0907 13.036 41.1837 12.997 41.2407 12.943L41.1657 12.706C41.1417 12.733 41.0847 12.757 41.0247 12.757C40.9347 12.757 40.8867 12.685 40.8867 12.586V11.827H41.1807V11.551H40.8867V11.155H40.5717V11.551H40.3317V11.827H40.5717V12.664C40.5717 12.904 40.7007 13.036 40.9437 13.036Z"/><path fill="#0075BF" d="M41.25 3.13174C40.9167 2.96407 40.4167 2.88024 40.0417 2.88024C39.6667 2.88024 39.1667 3.0479 39.1667 3.63473C39.1667 4.5988 41.5833 4.17964 41.5833 6.02395C41.5833 7.23952 40.625 7.65868 39.5 7.65868C38.9167 7.65868 38.625 7.57485 38.0833 7.4491V6.44311C38.4583 6.65269 39 6.77844 39.4583 6.77844C39.875 6.77844 40.4583 6.56886 40.4583 6.06587C40.4167 5.05988 38 5.47904 38 3.67665C38 2.46108 38.9583 2 39.9167 2C40.375 2 40.8333 2.04192 41.25 2.20958V3.13174Z"/><path fill="#0075BF" d="M47.5833 4.47306C47.25 4.34731 47 4.30539 46.625 4.30539C46.3333 4.30539 46 4.38922 46 4.72455C46 5.35329 47.7917 4.93413 47.7917 6.35928C47.7917 7.28144 46.9583 7.65868 46.125 7.65868C45.75 7.65868 45.3333 7.57485 44.9583 7.49102L45 6.6527C45.3333 6.82036 45.6667 6.90419 46 6.90419C46.25 6.90419 46.6667 6.82036 46.6667 6.44312C46.6667 5.68862 44.875 6.19162 44.875 4.76647C44.875 3.92815 45.625 3.5509 46.4167 3.5509C46.9167 3.5509 47.2083 3.63473 47.5417 3.67665L47.5833 4.47306Z"/><path fill="#0075BF" d="M50.875 4.51497C50.7083 4.43114 50.5 4.38922 50.1667 4.38922C49.5417 4.38922 49.125 4.89221 49.125 5.64671C49.125 6.35928 49.4583 6.94611 50.2083 6.94611C50.5 6.94611 50.8333 6.82036 51 6.77844L51.0417 7.61677C50.75 7.7006 50.4167 7.74251 50 7.74251C48.7083 7.74251 48.0417 6.86227 48.0417 5.68862C48.0417 4.55689 48.7083 3.63473 49.9583 3.63473C50.375 3.63473 50.6667 3.67665 50.9583 3.76048L50.875 4.51497Z"/><path fill="#0075BF" d="M53.2083 3.59282C54.375 3.59282 55.2917 4.38922 55.2917 5.68862C55.2917 6.82036 54.5417 7.7006 53.2083 7.7006C51.9167 7.7006 51.125 6.82036 51.125 5.68862C51.125 4.34731 52.0417 3.59282 53.2083 3.59282ZM53.2083 6.90419C54 6.90419 54.2083 6.19162 54.2083 5.56287C54.2083 4.97605 53.875 4.38922 53.2083 4.38922C52.5417 4.38922 52.2083 4.97605 52.2083 5.56287C52.2083 6.19162 52.4167 6.90419 53.2083 6.90419Z"/><path fill="#0075BF" d="M45.0417 3.59282H44L42.0417 9H43L45.0417 3.59282Z"/><path fill="#5F9E43" d="M40.7917 3.50898C41.2083 3.97006 41.6667 4.51497 42 5.14371C42.2917 5.73054 42.4167 6.27545 42.5417 6.82036C42.5417 6.82036 42.5417 6.82036 42.5833 6.82036C42.9583 6.1497 43.2083 5.26946 42.8333 4.5988C42.4167 3.88623 41.5833 3.5509 40.7917 3.50898C40.75 3.46707 40.75 3.50898 40.7917 3.50898Z"/><path fill="#CF3339" d="M22 10.0771C26.9706 10.0771 31 7.82125 31 5.03854C31 2.25583 26.9706 0 22 0C17.0294 0 13 2.25583 13 5.03854C13 7.82125 17.0294 10.0771 22 10.0771Z"/><path fill="#fff" d="M14.643 5.29412C14.5152 5.76877 14.716 6.18865 15.3185 6.18865C15.6653 6.18865 15.9574 5.98783 16.0304 5.714C16.1034 5.40366 15.9209 5.20284 15.7201 5.00203L15.5193 4.80122C15.2637 4.54564 15.0629 4.30832 15.1542 3.9067C15.2819 3.34078 15.8844 2.99392 16.5598 2.99392C16.9249 2.99392 17.1988 3.10345 17.4178 3.28601C17.856 3.7424 17.3083 4.01623 17.1805 3.99798C17.144 3.99798 17.144 3.97972 17.144 3.97972C17.2535 3.61461 17.144 3.21299 16.6329 3.21299C16.3408 3.21299 15.9939 3.35903 15.9391 3.61461C15.8661 3.9067 16.0852 4.10751 16.2677 4.30832L16.4503 4.49088C16.7424 4.76471 16.9615 5.03854 16.8702 5.45842C16.7241 6.07911 16.1034 6.44422 15.3732 6.44422C14.9716 6.44422 14.57 6.31643 14.3509 6.07911C13.9128 5.5497 14.4057 5.29412 14.643 5.29412Z"/><path fill="#fff" d="M19.6815 7.61258L20.3935 6.0426H20.4118C20.503 6.24341 20.7039 6.3712 20.9777 6.3712C21.8905 6.3712 22.5112 5.49493 22.6024 4.83773C22.6024 4.83773 22.6207 4.74645 22.6024 4.65518C22.5842 4.34483 22.3651 4.10751 21.9087 4.10751C21.5801 4.10751 21.288 4.2353 21.0872 4.43611L21.069 4.41785L21.142 4.2353C21.0507 4.05274 20.8864 3.9067 20.6856 3.85193L19.2069 7.15619C19.2982 7.39351 19.4807 7.55781 19.6815 7.61258ZM21.8905 4.7282C21.854 5.09331 21.3976 6.11562 20.8316 6.11562C20.6126 6.11562 20.5396 5.95132 20.5578 5.78702C20.5943 5.47668 21.0142 4.41785 21.5801 4.41785C21.8174 4.41785 21.9087 4.5639 21.8905 4.7282Z"/><path fill="#fff" d="M19.499 6.07911C19.4625 6.09737 19.426 6.11562 19.3895 6.11562C19.2982 6.11562 19.2799 6.00609 19.2982 5.93307C19.3164 5.86004 19.4077 5.64098 19.4442 5.5497L20.0832 4.18053C19.8824 4.10751 19.645 4.10751 19.426 4.18053L19.2799 4.47262C19.1886 4.25355 18.9878 4.14402 18.6957 4.14402C17.8012 4.14402 17.0527 5.00203 16.9797 5.65923C16.925 6.06086 17.144 6.38946 17.6734 6.38946C18.0933 6.38946 18.4584 6.13388 18.6775 5.86005L18.6957 5.8783C18.6957 5.8783 18.6592 5.98783 18.6592 6.06086C18.641 6.24341 18.787 6.40771 19.0243 6.40771C19.1704 6.40771 19.3164 6.3712 19.4442 6.29818L19.499 6.07911ZM19.0974 4.70994C19.0609 5.07505 18.5497 6.09737 17.9838 6.09737C17.7647 6.09737 17.7099 5.91481 17.7282 5.76877C17.7647 5.40366 18.2576 4.43611 18.8053 4.43611C19.0243 4.41785 19.1156 4.54564 19.0974 4.70994Z"/><path fill="#fff" d="M25.0487 5.09331L25.432 4.36309C25.432 4.36309 25.213 4.34483 25.0852 4.34483C24.9939 4.34483 24.7748 4.30832 24.7748 4.30832L24.5923 4.63692C24.428 4.96552 23.8621 6.06086 23.3509 6.06086C23.2414 6.06086 23.1684 6.02434 23.1866 5.93307C23.2049 5.82353 23.6247 5.0568 23.6247 5.0568C23.716 4.8925 23.8438 4.63692 23.8621 4.47262C23.8803 4.27181 23.716 4.14402 23.4787 4.14402C23.2779 4.14402 23.0223 4.2353 22.8215 4.36309C22.8398 4.3996 22.858 4.43611 22.8763 4.49088C22.9493 4.47262 23.0041 4.45437 23.0406 4.45437C23.1136 4.45437 23.1501 4.50913 23.1318 4.5639C23.1136 4.61867 22.7485 5.3854 22.7485 5.3854C22.6572 5.5497 22.5112 5.82353 22.4929 5.98783C22.4564 6.24341 22.6755 6.38946 22.9493 6.38946C23.4422 6.38946 23.8438 6.06086 24.1359 5.67749L24.1542 5.69574C24.1176 5.80528 24.0811 5.89656 24.0629 6.02434C24.0446 6.22516 24.1724 6.38946 24.428 6.38946C24.6653 6.38946 24.8661 6.29818 25.0487 6.15213C25.0304 6.09737 25.0304 6.06086 25.0304 6.00609V5.98783C24.9757 6.02434 24.9026 6.06086 24.8479 6.06086C24.7566 6.06086 24.7383 5.96958 24.7566 5.89656C24.7748 5.69574 24.9574 5.29412 25.0487 5.09331Z"/><path fill="#fff" d="M28.8641 4.16228C28.5355 3.92495 27.9331 3.7424 26.9108 3.72414L27.1481 3.19473C26.9473 3.12171 26.7099 3.12171 26.5091 3.19473L26.2535 3.72414C25.5781 3.76065 24.7566 3.94321 23.2779 3.63286L23.2414 3.70589C24.0629 4.05274 25.3225 4.12577 26.0527 4.12577L25.5233 5.23936C25.4686 5.34889 25.4138 5.47668 25.359 5.62272C25.2677 5.80528 25.2495 5.93307 25.2495 6.00609C25.2312 6.22516 25.432 6.40771 25.7059 6.40771C26.0345 6.40771 26.3083 6.22516 26.5091 6.02434C26.4909 5.98783 26.4544 5.93307 26.4544 5.8783C26.4179 5.91481 26.3448 5.96958 26.3083 6.00609C26.2353 6.06086 26.144 6.09737 26.071 6.09737C25.9615 6.09737 25.9432 6.00609 25.9432 5.93307C25.9615 5.78702 26.1075 5.49493 26.1805 5.34889L26.7465 4.08925C27.3124 4.03449 28.0061 3.96146 28.3895 4.18053C27.86 4.21704 27.3124 4.38134 26.9838 4.78297C26.783 5.00203 26.6734 5.27587 26.6369 5.5497C26.6187 5.65923 26.6369 5.76877 26.6369 5.80528C26.7099 6.17039 27.0385 6.40771 27.568 6.40771C28.4442 6.40771 29.211 5.714 29.284 5.03854C29.284 5.02029 29.357 4.7282 29.1379 4.41785C29.43 4.52739 29.6491 4.70994 29.7039 4.80122C29.8499 4.74645 29.9959 4.61867 30.069 4.45437C29.9229 4.32658 29.43 4.18053 28.8641 4.16228ZM28.1339 5.80528C27.714 6.38946 27.0568 6.38946 27.2941 5.56796C27.3306 5.44017 27.6227 4.38134 28.5172 4.30832C28.5538 4.36309 28.5903 4.43611 28.5903 4.50913C28.6815 4.83773 28.426 5.42191 28.1339 5.80528Z"/><path fill="#FF3008" d="M35.259 77.1705V78.9951H35.741C36.2574 78.9951 36.6361 78.582 36.6361 78.0656C36.6361 77.5836 36.2574 77.1705 35.7754 77.1361H35.741L35.259 77.1705ZM35.741 76.6197C36.6016 76.6197 37.2902 77.2738 37.2902 78.1C37.2902 78.9262 36.6361 79.5803 35.741 79.5803H34.7082C34.6738 79.5803 34.6393 79.5459 34.6393 79.5115V76.6885C34.6393 76.6541 34.6738 76.6197 34.7082 76.6197H35.741Z"/><path fill="#FF3008" d="M39.5279 79.0639C40.0787 79.0639 40.4918 78.6164 40.4918 78.1C40.4918 77.5836 40.0443 77.1361 39.5279 77.1361C38.977 77.1361 38.5639 77.5836 38.5639 78.1C38.5295 78.6508 38.977 79.0639 39.5279 79.0639ZM39.5279 76.5508C40.4574 76.5508 41.1459 77.2393 41.1459 78.1C41.1459 78.9606 40.4574 79.6492 39.5279 79.6492C38.5984 79.6492 37.9098 78.9606 37.9098 78.1C37.9098 77.2393 38.5984 76.5508 39.5279 76.5508Z"/><path fill="#FF3008" d="M43.3836 79.0639C43.9344 79.0639 44.382 78.6164 44.382 78.1C44.382 77.5836 43.9344 77.1016 43.418 77.1016C42.8672 77.1016 42.4197 77.5492 42.4197 78.0656C42.3852 78.6508 42.8328 79.0639 43.3836 79.0639ZM43.3836 76.5508C44.3131 76.5508 45.0016 77.2393 45.0016 78.1C45.0016 78.9606 44.3131 79.6492 43.3836 79.6492C42.4541 79.6492 41.7656 78.9606 41.7656 78.1C41.7656 77.2393 42.4541 76.5508 43.3836 76.5508Z"/><path fill="#FF3008" d="M47.1361 77.1705H46.482V77.9623H47.1361C47.3426 77.9623 47.5148 77.7902 47.5492 77.5836C47.5492 77.3771 47.377 77.2049 47.1361 77.1705C47.1361 77.1705 47.1705 77.1705 47.1361 77.1705ZM45.8279 76.6885C45.8279 76.6541 45.8623 76.6197 45.8967 76.6197H47.1361C47.7213 76.6197 48.1689 77.0672 48.1689 77.5836C48.1689 77.9623 47.9623 78.3066 47.6525 78.4443L48.2377 79.4426C48.2721 79.4771 48.2377 79.5115 48.2033 79.5459H48.1689H47.6525C47.618 79.5459 47.5836 79.5459 47.5836 79.5115L47.0328 78.5475H46.482V79.5115C46.482 79.5459 46.4475 79.5803 46.4131 79.5803H45.9311C45.8967 79.5803 45.8623 79.5459 45.8623 79.5115L45.8279 76.6885Z"/><path fill="#FF3008" d="M49.8557 77.2049V79.0295H50.3377C50.8541 79.0295 51.2328 78.6164 51.2328 78.1C51.2328 77.618 50.8541 77.2049 50.3721 77.1705H50.3377H49.8557V77.2049ZM50.3377 76.6197C51.1984 76.6197 51.8869 77.2738 51.8869 78.1C51.8869 78.9262 51.2328 79.5803 50.3377 79.5803H49.3049C49.2705 79.5803 49.2361 79.5459 49.2361 79.5115V76.6885C49.2361 76.6541 49.2705 76.6197 49.3049 76.6197H50.3377Z"/><path fill="#FF3008" d="M53.8148 77.3426L53.4361 78.3066H54.159L53.8148 77.3426ZM53.2295 78.8918L52.9885 79.5459C52.9885 79.5803 52.9541 79.6148 52.9197 79.5803H52.4033C52.3689 79.5803 52.3344 79.5459 52.3344 79.5115V79.4771L53.4361 76.6541C53.4361 76.6197 53.4705 76.6197 53.5049 76.6197H54.0902C54.1246 76.6197 54.159 76.6541 54.159 76.6541L55.2607 79.4771C55.2951 79.5115 55.2607 79.5459 55.2262 79.5803H55.1918H54.6754C54.641 79.5803 54.6066 79.5459 54.6066 79.5459L54.3656 78.8918H53.2295Z"/><path fill="#FF3008" d="M55.8803 77.4115C55.8803 76.9295 56.2934 76.5508 56.9131 76.5508C57.2574 76.5508 57.6016 76.6541 57.8426 76.8951C57.877 76.9295 57.877 76.9639 57.8426 76.9984L57.5672 77.2738C57.5328 77.3082 57.4983 77.3082 57.4639 77.2738C57.3262 77.1361 57.1541 77.0672 56.982 77.0672C56.741 77.0672 56.5344 77.2049 56.5344 77.377C56.5344 77.9279 58.0492 77.618 58.0492 78.6852C58.0492 79.2016 57.6361 79.6147 56.9131 79.6147C56.5 79.6147 56.1213 79.477 55.8459 79.1672C55.8115 79.1328 55.8115 79.0984 55.8459 79.0639L56.1213 78.7885C56.1557 78.7541 56.1901 78.7541 56.2246 78.7885C56.3967 78.9951 56.6033 79.0984 56.8442 79.0984C57.1541 79.0984 57.3606 78.9262 57.3606 78.7197C57.3951 78.1688 55.8803 78.4787 55.8803 77.4115Z"/><path fill="#FF3008" d="M60.7688 76.6885V77.7902H59.4951V76.6885C59.4951 76.6541 59.4606 76.6197 59.4262 76.6197H58.9442C58.9098 76.6197 58.8754 76.6541 58.8754 76.6885V79.5115C58.8754 79.5459 58.9098 79.5803 58.9442 79.5803H59.4262C59.4606 79.5803 59.4951 79.5459 59.4951 79.5115V78.3754H60.7688V79.5115C60.7688 79.5459 60.8033 79.5803 60.8377 79.5803H61.3197C61.3541 79.5803 61.3885 79.5459 61.3885 79.5115V76.6885C61.3885 76.6541 61.3541 76.6197 61.3197 76.6197H60.8377C60.8033 76.5852 60.7688 76.6197 60.7688 76.6885Z"/><path fill="#FF3008" d="M32.0918 76.9984C31.782 76.3787 31.1279 76 30.4393 76H25.1721C25.0689 76 25 76.0689 25 76.1721C25 76.2066 25.0344 76.2754 25.0689 76.3098L26.2049 77.4459C26.3082 77.5492 26.4459 77.618 26.5836 77.618H30.3016C30.577 77.618 30.7836 77.8246 30.7836 78.1C30.7836 78.3754 30.577 78.582 30.3016 78.582H27.7541C27.6508 78.582 27.5475 78.6508 27.5475 78.7541C27.5475 78.7885 27.582 78.8574 27.6164 78.8918L28.7525 80.0279C28.8557 80.1311 28.9934 80.2 29.1311 80.2H30.3016C31.782 80.2 32.9525 78.582 32.0918 76.9984Z"/><path fill="#411F1F" d="M8.00206 79H9.23506V78.691H8.35306V76.999H8.00206V79ZM9.69887 77.311C9.80687 77.311 9.89387 77.224 9.89387 77.116C9.89387 77.008 9.80687 76.921 9.69887 76.921C9.59387 76.921 9.50387 77.008 9.50387 77.116C9.50387 77.224 9.59387 77.311 9.69887 77.311ZM9.54287 79H9.85787V77.551H9.54287V79ZM10.6475 79H10.9865L11.5775 77.551H11.2385L10.8155 78.637L10.3925 77.551H10.0565L10.6475 79ZM11.7753 79H12.0903V78.013C12.1533 77.911 12.3303 77.821 12.4623 77.821C12.5013 77.821 12.5343 77.824 12.5613 77.83V77.518C12.3723 77.518 12.1983 77.626 12.0903 77.764V77.551H11.7753V79ZM13.5623 77.332L14.0573 76.9H13.7573L13.3373 77.332H13.5623ZM12.7253 78.274C12.7253 78.733 13.0493 79.036 13.4843 79.036C13.7153 79.036 13.9283 78.964 14.0723 78.826L13.9283 78.619C13.8263 78.721 13.6583 78.778 13.5173 78.778C13.2443 78.778 13.0793 78.598 13.0553 78.379H14.1743V78.304C14.1743 77.848 13.8953 77.515 13.4603 77.515C13.0313 77.515 12.7253 77.854 12.7253 78.274ZM13.4603 77.773C13.7453 77.773 13.8623 77.986 13.8683 78.157H13.0523C13.0673 77.98 13.1903 77.773 13.4603 77.773ZM14.3953 78.274C14.3953 78.733 14.7193 79.036 15.1543 79.036C15.3853 79.036 15.5983 78.964 15.7423 78.826L15.5983 78.619C15.4963 78.721 15.3283 78.778 15.1873 78.778C14.9143 78.778 14.7493 78.598 14.7253 78.379H15.8443V78.304C15.8443 77.848 15.5653 77.515 15.1303 77.515C14.7013 77.515 14.3953 77.854 14.3953 78.274ZM15.1303 77.773C15.4153 77.773 15.5323 77.986 15.5383 78.157H14.7222C14.7373 77.98 14.8603 77.773 15.1303 77.773ZM17.8107 79H18.1257V78.04C18.1257 77.65 17.8437 77.515 17.5227 77.515C17.2917 77.515 17.0817 77.59 16.9137 77.749L17.0427 77.968C17.1687 77.845 17.3097 77.785 17.4717 77.785C17.6727 77.785 17.8107 77.887 17.8107 78.055V78.271C17.7057 78.148 17.5377 78.085 17.3427 78.085C17.1057 78.085 16.8387 78.223 16.8387 78.556C16.8387 78.877 17.1057 79.036 17.3427 79.036C17.5347 79.036 17.7027 78.967 17.8107 78.844V79ZM17.8107 78.67C17.7387 78.769 17.6037 78.82 17.4657 78.82C17.2887 78.82 17.1567 78.718 17.1567 78.562C17.1567 78.403 17.2887 78.301 17.4657 78.301C17.6037 78.301 17.7387 78.352 17.8107 78.451V78.67ZM18.9151 79H19.2541L19.8451 77.551H19.5061L19.0831 78.637L18.6601 77.551H18.3241L18.9151 79ZM19.9529 78.274C19.9529 78.733 20.2769 79.036 20.7119 79.036C20.9429 79.036 21.1559 78.964 21.2999 78.826L21.1559 78.619C21.0539 78.721 20.8859 78.778 20.7449 78.778C20.4719 78.778 20.3069 78.598 20.2829 78.379H21.4019V78.304C21.4019 77.848 21.1229 77.515 20.6879 77.515C20.2589 77.515 19.9529 77.854 19.9529 78.274ZM20.6879 77.773C20.9729 77.773 21.0899 77.986 21.0959 78.157H20.2799C20.2949 77.98 20.4179 77.773 20.6879 77.773ZM21.6228 78.274C21.6228 78.715 21.9318 79.036 22.3728 79.036C22.6548 79.036 22.8258 78.916 22.9278 78.778L22.7208 78.586C22.6398 78.697 22.5288 78.757 22.3878 78.757C22.1238 78.757 21.9498 78.556 21.9498 78.274C21.9498 77.992 22.1238 77.794 22.3878 77.794C22.5288 77.794 22.6398 77.851 22.7208 77.965L22.9278 77.773C22.8258 77.635 22.6548 77.515 22.3728 77.515C21.9318 77.515 21.6228 77.836 21.6228 78.274Z"/><path fill="#411F1F" d="M33.3 6.274C33.3 6.733 33.624 7.036 34.059 7.036C34.29 7.036 34.503 6.964 34.647 6.826L34.503 6.619C34.401 6.721 34.233 6.778 34.092 6.778C33.819 6.778 33.654 6.598 33.63 6.379H34.749V6.304C34.749 5.848 34.47 5.515 34.035 5.515C33.606 5.515 33.3 5.854 33.3 6.274ZM34.035 5.773C34.32 5.773 34.437 5.986 34.443 6.157H33.627C33.642 5.98 33.765 5.773 34.035 5.773ZM35.495 7.036C35.642 7.036 35.735 6.997 35.792 6.943L35.717 6.706C35.693 6.733 35.636 6.757 35.576 6.757C35.486 6.757 35.438 6.685 35.438 6.586V5.827H35.732V5.551H35.438V5.155H35.123V5.551H34.883V5.827H35.123V6.664C35.123 6.904 35.252 7.036 35.495 7.036Z"/><line x1="43" x2="55" y1="12.875" y2="12.875" stroke="#411F1F" stroke-width=".25"/><line x1="13" x2="25" y1="12.875" y2="12.875" stroke="#411F1F" stroke-width=".25"/><g clip-path="url(#clip0)"><path fill="#fff" d="M21.7559 70.9681C17.5 70.9681 13.4664 70.9363 10.3221 69.7289C6.41561 68.2039 4.44646 65.0584 4.38294 60.356L3.46189 60.4196C3.43013 60.4196 3.36661 60.4196 3.33485 60.4196C2.7314 60.4196 2.15971 60.1972 1.6833 59.7841C1.2069 59.3393 0.921053 58.7356 0.889292 58.1002L0.825771 56.6704C0.794011 56.2891 0.857532 55.9396 1.01633 55.5901L0.952813 54.8276C0.889292 53.7791 1.49274 52.8577 2.38203 52.4764C2.38203 52.3493 2.41379 52.2223 2.44555 52.0952L4.06534 45.2641C1.07986 44.7875 0 42.6269 0 40.5935C0 37.9881 1.65154 35.5099 4.44646 33.7942C4.47822 24.1671 14.8004 13.9681 33.9202 13.9998C42.559 14.0316 49.9592 16.1286 55.3267 20.1319C60.2178 23.7858 63.0127 28.8059 63.0127 33.9212V34.9697C63.0127 35.0333 63.0127 35.0968 63.0127 35.1604V38.4965H63.3621C63.7114 38.4965 64.0926 38.5918 64.4102 38.7189C64.8866 38.56 65.363 38.4965 65.9347 38.4965C68.2214 38.4965 70.0318 40.3711 70.0318 42.7223C70.0318 45.1052 68.2214 46.9162 65.8711 46.8845C65.5853 46.8845 65.1407 46.8527 64.6643 46.6938L64.1561 49.045L64.7913 49.0132C64.8231 49.0132 64.8866 49.0132 64.9183 49.0132C65.5218 49.0132 66.0935 49.2356 66.5699 49.6487C67.0463 50.0935 67.3321 50.6972 67.3639 51.3326L67.3957 52.0316C67.5545 52.3493 67.6815 52.6988 67.6815 53.0801L67.745 54.5099C67.7768 55.1453 67.5545 55.8126 67.1098 56.2891C66.6652 56.7657 66.0617 57.0517 65.4265 57.0835L64.5055 57.1152C64.4102 57.1152 64.3784 57.1152 64.3466 57.1152C64.2831 57.147 64.0926 57.3059 63.9338 57.4012C63.6797 57.5918 63.3621 57.8142 62.9492 58.0684V60.1972C62.9492 64.9948 60.9165 68.2039 56.9782 69.7289C53.8339 70.9363 49.8004 70.9363 45.5445 70.9363L21.7559 70.9681Z"/><path fill="#AB7029" d="M61.0753 33.699C61.0753 25.2793 51.8648 15.9064 33.8566 15.9064C15.8484 15.9064 6.28856 25.2793 6.28856 33.699V34.9699H61.1071V33.699H61.0753Z"/><path fill="#9C6226" d="M27.9492 18.3846H26.1706C26.0753 18.3846 26.0118 18.4482 25.98 18.5117C25.9483 18.5753 25.9165 18.7023 25.9165 18.893C25.9165 19.0836 25.9483 19.2107 25.98 19.2743C26.0118 19.3696 26.1071 19.4013 26.1706 19.4013H27.9492C28.0445 19.4013 28.108 19.3378 28.1397 19.2743C28.1715 19.2107 28.2033 19.0836 28.2033 18.893C28.2033 18.7023 28.1715 18.5753 28.1397 18.5117C28.108 18.4482 28.0445 18.3846 27.9492 18.3846Z"/><path fill="#9C6226" d="M34.5871 18.3846H32.8085C32.7132 18.3846 32.6497 18.4482 32.618 18.5117C32.5862 18.5753 32.5544 18.7023 32.5544 18.893C32.5544 19.0836 32.5862 19.2107 32.618 19.2743C32.6497 19.3696 32.745 19.4013 32.8085 19.4013H34.5871C34.6824 19.4013 34.7459 19.3378 34.7777 19.2743C34.8094 19.2107 34.8412 19.0836 34.8412 18.893C34.8412 18.7023 34.8094 18.5753 34.7777 18.5117C34.7777 18.4482 34.6824 18.3846 34.5871 18.3846Z"/><path fill="#9C6226" d="M41.2568 18.3846H39.4782C39.383 18.3846 39.3194 18.4482 39.2877 18.5117C39.2559 18.5753 39.2242 18.7023 39.2242 18.893C39.2242 19.0836 39.2559 19.2107 39.2877 19.2743C39.3194 19.3696 39.4147 19.4013 39.4782 19.4013H41.2568C41.3521 19.4013 41.4156 19.3378 41.4474 19.2743C41.4791 19.2107 41.5109 19.0836 41.5109 18.893C41.5109 18.7023 41.4791 18.5753 41.4474 18.5117C41.4474 18.4482 41.3521 18.3846 41.2568 18.3846Z"/><path fill="#9C6226" d="M24.5826 22.3562H22.804C22.7087 22.3562 22.6452 22.4197 22.6134 22.4833C22.5817 22.5468 22.5499 22.6739 22.5499 22.8646C22.5499 23.0552 22.5817 23.1823 22.6134 23.2458C22.6452 23.3411 22.7405 23.3729 22.804 23.3729H24.5826C24.6779 23.3729 24.7414 23.3094 24.7731 23.2458C24.8049 23.1823 24.8367 23.0552 24.8367 22.8646C24.8367 22.6739 24.8049 22.5468 24.7731 22.4833C24.7731 22.4197 24.6779 22.3562 24.5826 22.3562Z"/><path fill="#9C6226" d="M31.2523 22.3562H29.4737C29.3784 22.3562 29.3149 22.4197 29.2831 22.4833C29.2514 22.5468 29.2196 22.6739 29.2196 22.8646C29.2196 23.0552 29.2514 23.1823 29.2831 23.2458C29.3149 23.3411 29.4102 23.3729 29.4737 23.3729H31.2523C31.3476 23.3729 31.4111 23.3094 31.4428 23.2458C31.4746 23.1823 31.5064 23.0552 31.5064 22.8646C31.5064 22.6739 31.4746 22.5468 31.4428 22.4833C31.4428 22.4197 31.3476 22.3562 31.2523 22.3562Z"/><path fill="#9C6226" d="M17.9764 22.3562H16.1978C16.1025 22.3562 16.039 22.4197 16.0073 22.4833C15.9755 22.5468 15.9437 22.6739 15.9437 22.8646C15.9437 23.0552 15.9755 23.1823 16.0073 23.2458C16.039 23.3411 16.1343 23.3729 16.1978 23.3729H17.9764C18.0717 23.3729 18.1352 23.3094 18.167 23.2458C18.1987 23.1823 18.2305 23.0552 18.2305 22.8646C18.2305 22.6739 18.1987 22.5468 18.167 22.4833C18.1352 22.4197 18.0399 22.3562 17.9764 22.3562Z"/><path fill="#9C6226" d="M37.922 22.3562H36.1434C36.0481 22.3562 35.9846 22.4197 35.9528 22.4833C35.9211 22.5468 35.8893 22.6739 35.8893 22.8646C35.8893 23.0552 35.9211 23.1823 35.9528 23.2458C35.9846 23.3411 36.0799 23.3729 36.1434 23.3729H37.922C38.0172 23.3729 38.0808 23.3094 38.1125 23.2458C38.1443 23.1823 38.176 23.0552 38.176 22.8646C38.176 22.6739 38.1443 22.5468 38.1125 22.4833C38.0808 22.4197 38.0172 22.3562 37.922 22.3562Z"/><path fill="#9C6226" d="M44.5917 22.3562H42.8131C42.7178 22.3562 42.6543 22.4197 42.6225 22.4833C42.5908 22.5468 42.559 22.6739 42.559 22.8646C42.559 23.0552 42.5908 23.1823 42.6225 23.2458C42.6543 23.3411 42.7496 23.3729 42.8131 23.3729H44.5917C44.6869 23.3729 44.7505 23.3094 44.7822 23.2458C44.814 23.1823 44.8457 23.0552 44.8457 22.8646C44.8457 22.6739 44.814 22.5468 44.7822 22.4833C44.7505 22.4197 44.6552 22.3562 44.5917 22.3562Z"/><path fill="#9C6226" d="M51.2296 22.3562H49.451C49.3557 22.3562 49.2922 22.4197 49.2604 22.4833C49.2287 22.5468 49.1969 22.6739 49.1969 22.8646C49.1969 23.0552 49.2287 23.1823 49.2604 23.2458C49.2922 23.3411 49.3875 23.3729 49.451 23.3729H51.2296C51.3249 23.3729 51.3884 23.3094 51.4201 23.2458C51.4519 23.1823 51.4837 23.0552 51.4837 22.8646C51.4837 22.6739 51.4519 22.5468 51.4201 22.4833C51.4201 22.4197 51.3249 22.3562 51.2296 22.3562Z"/><path fill="#9C6226" d="M27.9492 26.5184H26.1706C26.0753 26.5184 26.0118 26.5819 25.98 26.6455C25.9483 26.709 25.9165 26.8361 25.9165 27.0268C25.9165 27.2174 25.9483 27.3445 25.98 27.408C26.0118 27.5033 26.1071 27.5351 26.1706 27.5351H27.9492C28.0445 27.5351 28.108 27.4716 28.1397 27.408C28.1715 27.3445 28.2033 27.2174 28.2033 27.0268C28.2033 26.8361 28.1715 26.709 28.1397 26.6455C28.108 26.5819 28.0445 26.5184 27.9492 26.5184Z"/><path fill="#9C6226" d="M34.5871 26.5184H32.8085C32.7132 26.5184 32.6497 26.5819 32.618 26.6455C32.5862 26.709 32.5544 26.8361 32.5544 27.0268C32.5544 27.2174 32.5862 27.3445 32.618 27.408C32.6497 27.5033 32.745 27.5351 32.8085 27.5351H34.5871C34.6824 27.5351 34.7459 27.4716 34.7777 27.408C34.8094 27.3445 34.8412 27.2174 34.8412 27.0268C34.8412 26.8361 34.8094 26.709 34.7777 26.6455C34.7777 26.5819 34.6824 26.5184 34.5871 26.5184Z"/><path fill="#9C6226" d="M41.2568 26.5184H39.4782C39.383 26.5184 39.3194 26.5819 39.2877 26.6455C39.2559 26.709 39.2242 26.8361 39.2242 27.0268C39.2242 27.2174 39.2559 27.3445 39.2877 27.408C39.3194 27.5033 39.4147 27.5351 39.4782 27.5351H41.2568C41.3521 27.5351 41.4156 27.4716 41.4474 27.408C41.4791 27.3445 41.5109 27.2174 41.5109 27.0268C41.5109 26.8361 41.4791 26.709 41.4474 26.6455C41.4474 26.5819 41.3521 26.5184 41.2568 26.5184Z"/><path fill="#9C6226" d="M31.2523 30.49H29.4737C29.3784 30.49 29.3149 30.5535 29.2831 30.6171C29.2514 30.6806 29.2196 30.8077 29.2196 30.9983C29.2196 31.189 29.2514 31.3161 29.2831 31.3796C29.3149 31.4749 29.4102 31.5067 29.4737 31.5067H31.2523C31.3476 31.5067 31.4111 31.4431 31.4428 31.3796C31.4746 31.3161 31.5064 31.189 31.5064 30.9983C31.5064 30.8077 31.4746 30.6806 31.4428 30.6171C31.4428 30.5535 31.3476 30.49 31.2523 30.49Z"/><path fill="#9C6226" d="M37.922 30.49H36.1434C36.0481 30.49 35.9846 30.5535 35.9528 30.6171C35.9211 30.6806 35.8893 30.8077 35.8893 30.9983C35.8893 31.189 35.9211 31.3161 35.9528 31.3796C35.9846 31.4749 36.0799 31.5067 36.1434 31.5067H37.922C38.0172 31.5067 38.0808 31.4431 38.1125 31.3796C38.1443 31.3161 38.176 31.189 38.176 30.9983C38.176 30.8077 38.1443 30.6806 38.1125 30.6171C38.0808 30.5535 38.0172 30.49 37.922 30.49Z"/><path fill="#9C6226" d="M47.863 26.5184H46.1479C46.0526 26.5184 45.9891 26.5819 45.9573 26.6455C45.9256 26.709 45.8938 26.8361 45.8938 27.0268C45.8938 27.2174 45.9256 27.3445 45.9573 27.408C45.9891 27.5033 46.0844 27.5351 46.1479 27.5351H47.863C47.9583 27.5351 48.0218 27.4716 48.0535 27.408C48.0853 27.3445 48.1171 27.2174 48.1171 27.0268C48.1171 26.8361 48.0853 26.709 48.0535 26.6455C48.0218 26.5819 47.9583 26.5184 47.863 26.5184Z"/><path fill="#9C6226" d="M54.7232 26.6455C54.6915 26.5502 54.5962 26.5184 54.5327 26.5184H52.7541C52.6588 26.5184 52.5953 26.5819 52.5635 26.6455C52.5318 26.709 52.5 26.8361 52.5 27.0268C52.5 27.2174 52.5318 27.3445 52.5635 27.408C52.5953 27.5033 52.6906 27.5351 52.7541 27.5351H54.5327C54.6279 27.5351 54.6915 27.4716 54.7232 27.408C54.755 27.3445 54.7867 27.2174 54.7867 27.0268C54.7867 26.8361 54.755 26.709 54.7232 26.6455Z"/><path fill="#9C6226" d="M51.2296 30.49H49.3875C49.2922 30.49 49.2287 30.5535 49.1969 30.6171C49.1652 30.6806 49.1334 30.8077 49.1334 30.9983C49.1334 31.189 49.1652 31.3161 49.1969 31.3796C49.2287 31.4749 49.324 31.5067 49.3875 31.5067H51.2296C51.3249 31.5067 51.3884 31.4431 51.4201 31.3796C51.4519 31.3161 51.4837 31.189 51.4837 30.9983C51.4837 30.8077 51.4519 30.6806 51.4201 30.6171C51.4201 30.5535 51.3249 30.49 51.2296 30.49Z"/><path fill="#9C6226" d="M44.5599 30.49H42.8131C42.7178 30.49 42.6543 30.5535 42.6225 30.6171C42.5907 30.6806 42.559 30.8077 42.559 30.9983C42.559 31.189 42.5907 31.3161 42.6225 31.3796C42.6543 31.4749 42.7496 31.5067 42.8131 31.5067H44.5599C44.6552 31.5067 44.7187 31.4431 44.7505 31.3796C44.7822 31.3161 44.814 31.189 44.814 30.9983C44.814 30.8077 44.7822 30.6806 44.7505 30.6171C44.7187 30.5535 44.6552 30.49 44.5599 30.49Z"/><path fill="#9C6226" d="M14.6098 26.5184H12.8312C12.7359 26.5184 12.6724 26.5819 12.6407 26.6455C12.6089 26.709 12.5771 26.8361 12.5771 27.0268C12.5771 27.2174 12.6089 27.3445 12.6407 27.408C12.6724 27.5033 12.7677 27.5351 12.8312 27.5351H14.6098C14.7051 27.5351 14.7686 27.4716 14.8004 27.408C14.8321 27.3445 14.8639 27.2174 14.8639 27.0268C14.8639 26.8361 14.8321 26.709 14.8004 26.6455C14.7686 26.5819 14.7051 26.5184 14.6098 26.5184Z"/><path fill="#9C6226" d="M21.2795 26.5184H19.5009C19.4056 26.5184 19.3421 26.5819 19.3103 26.6455C19.2786 26.709 19.2468 26.8361 19.2468 27.0268C19.2468 27.2174 19.2786 27.3445 19.3103 27.408C19.3421 27.5033 19.4374 27.5351 19.5009 27.5351H21.2795C21.3748 27.5351 21.4383 27.4716 21.4701 27.408C21.5018 27.3445 21.5336 27.2174 21.5336 27.0268C21.5336 26.8361 21.5018 26.709 21.4701 26.6455C21.4383 26.5819 21.3748 26.5184 21.2795 26.5184Z"/><path fill="#9C6226" d="M17.9447 30.49H16.1978C16.1025 30.49 16.039 30.5535 16.0073 30.6171C15.9755 30.6806 15.9437 30.8077 15.9437 30.9983C15.9437 31.189 15.9755 31.3161 16.0073 31.3796C16.039 31.4749 16.1343 31.5067 16.1978 31.5067H17.9447C18.0399 31.5067 18.1035 31.4431 18.1352 31.3796C18.167 31.3161 18.1987 31.189 18.1987 30.9983C18.1987 30.8077 18.167 30.6806 18.1352 30.6171C18.1035 30.5535 18.0082 30.49 17.9447 30.49Z"/><path fill="#9C6226" d="M24.7096 30.5217C24.6779 30.49 24.6143 30.49 24.5826 30.49H22.804C22.7087 30.49 22.6452 30.5535 22.6134 30.6171C22.5817 30.6806 22.5499 30.8077 22.5499 30.9983C22.5499 31.189 22.5817 31.3161 22.6134 31.3796C22.6452 31.4749 22.7405 31.5067 22.804 31.5067H24.5826C24.6779 31.5067 24.7414 31.4431 24.7731 31.3796C24.8049 31.3161 24.8367 31.189 24.8367 30.9983C24.8367 30.8077 24.8049 30.6806 24.7731 30.6171C24.7731 30.5853 24.7414 30.5535 24.7096 30.5217Z"/><path fill="#B32029" d="M61.0753 40.8478C61.0753 41.388 61.0753 41.801 60.5354 41.801H6.82849C6.28856 41.801 6.28856 41.388 6.28856 40.8478V39.005C6.28856 38.4649 6.28856 38.0518 6.82849 38.0518H60.5671C61.1071 38.0518 61.1071 38.4649 61.1071 39.005V40.8478H61.0753Z"/><path fill="#FAA21E" d="M61.1071 35.7642H6.28856V37.194H61.1071V35.7642Z"/><path fill="#FAA21E" d="M41.7332 36.2726L33.8249 41.0385L25.6307 36.2726H41.7332Z"/><path fill="#AB7029" d="M6.28856 59.3395V60.6104C6.28856 69.0301 13.1171 69.0937 21.5336 69.0937H45.8303C54.2468 69.0937 61.0753 69.0619 61.0753 60.6104V59.3395H6.28856Z"/><path fill="#A9AE38" d="M8.98821 60.8963C8.98821 62.2308 9.08349 63.1522 10.9256 62.2308C12.7677 61.3094 14.9909 60.102 19.6915 60.1973C17.9447 60.7057 15.912 61.6271 15.7214 62.8345C15.5309 64.0736 16.7378 64.5819 19.3739 63.9465C19.6915 65.0585 20.8031 66.2977 23.1534 64.2642C25.5036 62.2308 26.8058 61.4047 27.9492 60.9916C29.0608 60.5786 29.3784 61.1823 28.1398 61.9131C26.9329 62.6121 25.7895 63.0251 25.5989 63.8512C25.4084 64.6773 25.5989 65.9799 27.6316 65.3763C27.6316 66.806 28.0445 68.0134 29.7595 68.0134C31.5064 68.0134 32.2051 67.092 32.2051 65.3763C33.3167 65.9799 34.9683 66.393 35.0635 64.1689C35.1588 61.9131 36.1751 60.8963 37.1915 60.388C38.2078 59.8796 38.3984 60.8328 37.6996 61.087C36.7786 61.4365 36.3975 62.1037 36.3657 62.8345C36.334 63.7559 37.922 65.1221 39.51 63.4381C39.637 64.4231 41.4474 65.0585 42.0508 63.0251C42.6543 60.9917 42.8448 59.7207 44.6869 59.6572C43.4165 60.1338 42.6543 62.0084 44.2741 62.6121C45.8938 63.2157 46.7196 61.6906 46.9102 61.1823C47.1007 60.6739 47.6089 59.5619 49.1652 59.6572C47.8312 60.2609 47.8312 62.2943 49.1652 62.4214C50.4991 62.5167 51.0073 62.1037 52.0236 61.1823C53.0399 60.2609 55.0726 59.2442 57.6134 59.6572C57.1053 60.9916 58.0263 61.5 58.8521 61.3411C59.8684 61.1505 59.7732 60.0385 60.0908 59.3077H7.94012V59.3395C7.11435 59.8796 6.54266 62.0084 8.98821 60.8963Z"/><path fill="#B32029" d="M3.52541 56.3211C4.50998 56.2575 4.92287 56.5117 5.65336 56.9248C6.51089 57.4331 7.68603 58.1003 9.78221 57.9733C11.8784 57.8462 12.9583 57.0519 13.7523 56.4799C14.4192 56.0034 14.8004 55.7174 15.7849 55.6539C16.7695 55.5903 17.1824 55.8445 17.9129 56.2575C18.7704 56.7659 19.9456 57.4331 22.0417 57.306C24.1379 57.1789 25.2178 56.3846 26.0118 55.8127C26.6788 55.3361 27.0599 55.0502 28.0445 54.9866C29.029 54.9231 29.4737 55.1773 30.1724 55.5903C31.0299 56.0987 32.2051 56.7659 34.3013 56.6388C36.3975 56.5117 37.4773 55.7174 38.3031 55.1455C38.97 54.6689 39.3512 54.383 40.3357 54.3194C41.3203 54.2559 41.765 54.51 42.4637 54.9231C43.3212 55.4315 44.4964 56.0987 46.5926 55.9716C48.6887 55.8445 49.7686 55.0502 50.5944 54.4783C51.2613 54.0017 51.6425 53.7157 52.627 53.6522C53.6116 53.5886 54.0563 53.8428 54.755 54.2559C55.6125 54.7642 56.7877 55.4315 58.8838 55.3044C60.98 55.1773 62.0599 54.383 62.8539 53.811C63.5209 53.3345 63.902 53.0485 64.8866 52.985L65.5853 52.9532L65.5218 51.6187L64.823 51.6505C62.6633 51.7776 61.52 52.6037 60.6942 53.2074C60.059 53.684 59.6779 53.9381 58.7886 54.0017C57.8675 54.0652 57.4864 53.8428 56.7877 53.4298C55.8984 52.9214 54.6915 52.2224 52.5318 52.3495C50.372 52.4766 49.2604 53.3027 48.4029 53.9064C47.7677 54.383 47.3866 54.6371 46.4973 54.7007C45.5762 54.7642 45.1951 54.5418 44.4964 54.1288C43.6071 53.6204 42.4002 52.9214 40.2405 53.0485C38.0808 53.1756 36.9374 54.0017 36.1116 54.6054C35.4764 55.082 35.0953 55.3361 34.206 55.3997C33.2849 55.4632 32.9038 55.2408 32.2051 54.8278C31.3158 54.3194 30.1089 53.6204 27.9492 53.7475C25.7895 53.8746 24.6461 54.7007 23.8203 55.3044C23.1851 55.7809 22.804 56.0351 21.9147 56.0987C20.9936 56.1622 20.6125 55.9398 19.9138 55.5268C19.0245 55.0184 17.8176 54.3194 15.6579 54.4465C13.4982 54.5736 12.3548 55.3997 11.529 56.0034C10.8938 56.4799 10.5127 56.7341 9.62341 56.7977C8.70236 56.8612 8.32123 56.6388 7.6225 56.2258C6.73321 55.7174 5.52632 55.0184 3.36661 55.1455L2.66788 55.1773L2.7314 56.5117L3.52541 56.3211Z"/><path fill="#B32029" d="M63.1715 54.2241C62.314 54.8595 61.1388 55.6856 58.9156 55.8127C56.6924 55.9398 55.422 55.209 54.5327 54.7007C53.8657 54.3194 53.5163 54.1288 52.6906 54.1605C51.8648 54.1923 51.5472 54.4465 50.912 54.8913C50.0544 55.5268 48.8793 56.3528 46.6561 56.4799C44.4328 56.607 43.1624 55.8763 42.2731 55.3679C41.6062 54.9866 41.2568 54.796 40.431 54.8278C39.6053 54.8595 39.2877 55.1137 38.6524 55.5585C37.7949 56.194 36.6198 57.0201 34.3965 57.1472C32.1733 57.2742 30.9347 56.5435 30.0136 56.0351C29.3466 55.6538 28.9973 55.4632 28.1715 55.495C27.3457 55.5268 27.0281 55.7809 26.3929 56.2258C25.5354 56.8612 24.3602 57.6873 22.137 57.8144C19.9138 57.9415 18.6434 57.2107 17.7541 56.7023C17.0871 56.3211 16.7377 56.1304 15.912 56.1622C15.0862 56.194 14.7686 56.4482 14.1334 56.893C13.2759 57.5284 12.1007 58.3545 9.87749 58.4816C7.65426 58.6087 6.38384 57.8779 5.49455 57.3696C4.82758 56.9883 4.47822 56.7977 3.65244 56.8294L2.69963 56.893L2.76315 58.3545L3.71596 58.291C4.63702 58.2274 5.01814 58.4498 5.71687 58.8629C6.60616 59.3712 7.81306 60.0702 9.97277 59.9431C12.1325 59.8161 13.2759 58.99 14.1016 58.3863C14.7368 57.9097 15.118 57.6555 16.0073 57.592C16.9283 57.5284 17.3094 57.7508 18.0082 58.1639C18.8975 58.6722 20.1043 59.3712 22.2641 59.2441C24.4238 59.1171 25.5671 58.291 26.3929 57.6873C27.0281 57.2107 27.4093 56.9565 28.2985 56.893C29.2196 56.8294 29.6007 57.0518 30.2994 57.4649C31.1887 57.9732 32.3956 58.6722 34.5553 58.5451C36.7151 58.4181 37.8584 57.592 38.6842 56.9883C39.3194 56.5117 39.7005 56.2575 40.5898 56.194C41.5109 56.1304 41.892 56.3528 42.5907 56.7659C43.48 57.2742 44.6869 57.9732 46.8466 57.8462C49.0063 57.7191 50.1497 56.893 50.9755 56.2893C51.6107 55.8127 51.9918 55.5585 52.8811 55.495C53.8022 55.4314 54.1833 55.6538 54.882 56.0669C55.7713 56.5753 56.9782 57.2742 59.1379 57.1472C61.2976 57.0201 62.441 56.194 63.2668 55.5903C63.902 55.1137 64.2831 54.8595 65.1724 54.796L66.1252 54.7324L66.0299 53.2709L65.0771 53.3345C64.0926 53.5251 63.8067 53.7793 63.1715 54.2241Z"/><path fill="#6D1F11" d="M12.1325 36.3043L10.8303 41.9281H10.9891C13.2123 41.9281 14.9909 39.704 14.9909 37.8294C14.9909 36.3679 13.9746 35.097 11.3067 35.097C8.03539 35.097 4.35118 37.0669 4.35118 41.2609C4.35118 42.5635 4.70055 42.7542 4.73231 42.9766C2.8902 42.9766 1.74683 42.3411 1.74683 40.6254C1.74683 37.1304 6.60617 33.8896 11.8784 33.8896C15.9755 33.8896 17.8176 35.8278 17.8176 37.9248C17.8176 39.4181 16.833 41.0067 15.0227 41.9599C17.4047 42.4047 18.3258 44.1522 18.3258 46.0585C18.3258 48.505 16.8648 53.3662 12.2278 53.3662C11.0209 53.3662 9.46461 53.0485 9.46461 51.4916C9.46461 51.0786 9.59165 50.602 9.81398 50.0301C10.5127 50.6973 11.0526 50.9515 11.6878 50.9515C13.7205 50.9515 14.451 48.3144 14.451 46.3763C14.451 44.597 13.8476 43.1672 11.8149 43.1672C11.5926 43.1672 11.0209 43.199 10.5445 43.2308L8.25772 52.9532H4.22414L8.00363 36.8127L12.1325 36.3043Z"/><path fill="#fff" d="M12.196 54.4147C10.8303 54.4147 9.78221 54.0652 9.14701 53.398C8.9882 53.7475 8.60708 53.9699 8.22595 53.9699H4.22414C3.90653 53.9699 3.62069 53.811 3.39837 53.5886C3.2078 53.3344 3.14428 53.0167 3.2078 52.699L5.27223 43.8662C5.11343 43.9615 4.92287 44.0251 4.73231 44.0251C1.23866 44.0251 0.69873 41.8963 0.69873 40.6572C0.69873 36.5268 5.90744 32.9047 11.8466 32.9047C15.3085 32.9047 18.8339 34.4615 18.8339 37.9883C18.8339 39.3545 18.2305 40.689 17.1506 41.7375C18.5481 42.6271 19.3421 44.1522 19.3421 46.0903C19.3421 47.4247 18.961 49.4582 17.8811 51.2057C16.5789 53.3027 14.6098 54.4147 12.196 54.4147ZM10.5445 51.7776C10.7033 52.1589 11.275 52.3495 12.196 52.3495C16.3249 52.3495 17.2777 47.7107 17.2777 46.0903C17.2777 44.8829 16.8648 43.3896 14.8321 43.0401C14.3875 42.9448 14.0699 42.6271 14.0064 42.1823C14.0064 42.087 14.0064 41.9916 14.0064 41.8963C13.7523 42.087 13.4982 42.2458 13.2441 42.4047C14.324 42.8177 15.4991 43.8344 15.4991 46.408C15.4991 49.1087 14.324 52.0318 11.6878 52.0318C11.275 52 10.9256 51.9047 10.5445 51.7776ZM5.52632 51.9047H7.40018L9.49637 42.9766C9.55989 42.7224 9.68693 42.5318 9.8775 42.3729C9.78221 42.1505 9.75045 41.9281 9.78221 41.6739L10.7668 37.5117L8.8294 37.7341L5.52632 51.9047ZM10.1951 49.0769C10.3221 49.1405 10.4174 49.204 10.5127 49.2993C11.1162 49.8712 11.402 49.9348 11.6561 49.9348C12.8947 49.9348 13.3711 47.7742 13.3711 46.408C13.3711 44.4064 12.5454 44.2157 11.7514 44.2157C11.6561 44.2157 11.4973 44.2157 11.3067 44.2157L10.1951 49.0769ZM6.66969 37.9248C5.90744 38.7191 5.39927 39.7993 5.39927 41.2291C5.39927 41.9281 5.52632 42.1187 5.58984 42.2776C5.58984 42.3094 5.6216 42.3411 5.65336 42.3729L6.66969 37.9248ZM4.19238 37.7977C3.33485 38.6555 2.79492 39.6405 2.79492 40.6572C2.79492 41.0067 2.79492 41.4515 3.33485 41.7057C3.33485 41.5786 3.33485 41.4197 3.33485 41.2609C3.30309 39.9582 3.62069 38.8144 4.19238 37.7977ZM15.4038 35.7642C15.7849 36.3044 16.039 36.9716 16.039 37.8294C16.039 38.9415 15.6579 39.9582 15.0544 40.7525C16.1343 40.0217 16.7695 39.005 16.7695 37.9565C16.7695 37.0351 16.2931 36.2726 15.4038 35.7642ZM13.1488 36.4632C13.1488 36.495 13.1488 36.495 13.1488 36.5268L12.196 40.5619C13.2123 39.99 13.9428 38.8144 13.9428 37.8294C13.9746 37.1622 13.6252 36.7174 13.1488 36.4632Z"/><path fill="#6D1F11" d="M29.4737 40.8796L27.7269 49.1087C27.6633 49.4264 27.6316 49.6806 27.6316 49.8712C27.6316 50.5385 27.9492 50.7609 28.6162 50.7609C29.569 50.7609 30.2042 49.8395 30.5853 48.6321H31.6016C30.2359 52.5719 28.0445 53.112 26.7423 53.112C25.3766 53.112 24.4873 52.3177 24.3603 50.8244C23.1534 52.7943 21.7877 53.112 20.7713 53.112C19.3103 53.112 18.1987 52.2542 18.1987 50.2207C18.1987 49.7759 18.2623 49.2358 18.3893 48.6639L20.0091 40.8796H23.5027L21.7559 49.1087C21.7241 49.3629 21.6924 49.5535 21.6924 49.7759C21.6924 50.3478 21.8829 50.7609 22.4229 50.7609C23.3757 50.7609 23.9791 49.8395 24.3603 48.6321L26.0118 40.8796H29.4737Z"/><path fill="#fff" d="M26.7423 54.0017C25.5354 54.0017 24.6143 53.5251 24.0426 52.6672C23.1216 53.5569 22.0417 54.0017 20.7713 54.0017C19.088 54.0017 17.3094 53.0167 17.3094 50.2207C17.3094 49.7124 17.373 49.1405 17.5318 48.4733L19.1515 40.689C19.2468 40.2759 19.5962 39.99 20.0091 39.99H23.5027C23.7568 39.99 24.0109 40.1171 24.2014 40.3077C24.3602 40.5301 24.4238 40.7843 24.392 41.0385L22.6452 49.2676C22.6134 49.4582 22.5817 49.6171 22.5817 49.7759C22.5817 49.8077 22.5817 49.8395 22.5817 49.8395C23.0581 49.6488 23.3757 48.7592 23.5027 48.4097L25.1225 40.689C25.2178 40.2759 25.5671 39.99 25.98 39.99H29.4737C29.7278 39.99 29.9818 40.1171 30.1724 40.3077C30.3312 40.5301 30.3947 40.7843 30.363 41.0385L28.6161 49.2676C28.5526 49.49 28.5526 49.6806 28.5526 49.8712C28.5844 49.8712 28.6161 49.8712 28.6479 49.8712C29.1243 49.8712 29.5372 49.1087 29.7595 48.3779C29.8866 47.9967 30.2042 47.7425 30.6171 47.7425H31.6334C31.9192 47.7425 32.2051 47.8696 32.3639 48.1238C32.5227 48.3462 32.5862 48.6639 32.4909 48.9181C30.9664 53.112 28.5209 54.0017 26.7423 54.0017ZM24.7414 50.0301C24.9955 50.1572 25.186 50.4432 25.2178 50.7291C25.3448 52.0636 26.1388 52.2224 26.7423 52.2224C27.4092 52.2224 28.0445 52.0318 28.5844 51.6505C26.9328 51.6187 26.7423 50.4114 26.7423 49.8712C26.7423 49.5535 26.774 49.2676 26.8693 48.8863L28.3938 41.7375H26.7423L25.2495 48.791C25.2495 48.8228 25.2495 48.8545 25.2178 48.8545C25.059 49.3311 24.9002 49.7124 24.7414 50.0301ZM20.7396 41.7692L19.2468 48.8227C19.1198 49.3629 19.088 49.8395 19.088 50.2207C19.088 51.587 19.6279 52.2224 20.7713 52.2224C21.2795 52.2224 21.8512 52.1271 22.4864 51.6505C22.4546 51.6505 22.4229 51.6505 22.4229 51.6505C21.6924 51.6505 20.8031 51.1421 20.8031 49.7759C20.8031 49.49 20.8348 49.2358 20.8984 48.9181L22.4229 41.7692H20.7396Z"/><path fill="#6D1F11" d="M35.6987 40.8796L35.3811 42.3729C36.2387 41.6422 37.1597 40.8796 38.3031 40.8796C39.3829 40.8796 39.9546 41.7692 39.9546 42.6906C39.9546 43.5485 39.4147 44.4699 38.2078 44.4699C36.8421 44.4699 37.5408 42.8813 36.8103 42.8813C36.0799 42.8813 35.6352 43.2308 35.0318 43.8027L33.0944 52.985H29.6007L32.1733 40.8796H35.6987Z"/><path fill="#fff" d="M33.1579 53.8428H29.6642C29.4102 53.8428 29.1561 53.7157 28.9655 53.5251C28.775 53.3345 28.7432 53.0485 28.775 52.7943L31.3475 40.689C31.4428 40.2759 31.7922 39.99 32.2051 39.99H35.6987C35.9528 39.99 36.2069 40.1171 36.3975 40.3077C36.4292 40.3712 36.461 40.403 36.4927 40.4666C37.0327 40.1806 37.6361 39.99 38.3031 39.99C39.7641 39.99 40.8439 41.1656 40.8439 42.6906C40.8439 43.9933 39.9229 45.3595 38.2078 45.3595C36.8739 45.3595 36.5245 44.4064 36.3975 43.8662C36.2387 43.9298 36.0799 44.0569 35.8575 44.2793L33.9837 53.1756C33.9201 53.5569 33.5708 53.8428 33.1579 53.8428ZM30.7759 52.0953H32.4274L34.206 43.612C34.2377 43.4214 34.333 43.2625 34.4601 43.1355C34.5236 43.0719 34.6189 43.0084 34.6824 42.9448C34.5236 42.7542 34.4601 42.4682 34.5236 42.2141L34.6189 41.7692H32.9356L30.7759 52.0953ZM38.2078 43.5803H38.2396C39.0653 43.5803 39.0971 42.8495 39.0971 42.6906C39.0971 42.5953 39.0653 41.7692 38.3031 41.7692C37.9537 41.7692 37.6044 41.8963 37.2867 42.0552C37.922 42.3094 38.0808 43.0401 38.1125 43.2943C38.176 43.3896 38.176 43.485 38.2078 43.5803Z"/><path fill="#6D1F11" d="M50.3085 40.8796L47.9265 52.0953C49.3875 51.5552 50.3085 50.7291 50.9755 48.6321H51.9918C51.039 51.8094 49.1969 52.7308 47.7042 53.1438L47.3548 54.8913C46.6243 58.3545 44.5916 58.99 43.0036 58.99C41.5426 58.99 40.304 58.2274 40.304 56.6388C40.304 54.6054 42.4319 53.5886 44.2423 53.0485L44.5281 51.7776C43.8294 52.5401 42.8766 53.112 41.6379 53.112C39.9864 53.112 38.4301 52.0953 38.4301 49.204C38.4301 45.9314 40.431 40.7525 44.6552 40.7525C46.0209 40.7525 46.6243 41.2926 46.6243 41.9916V42.1505L46.8784 40.8796H50.3085ZM42.4319 57.1154C42.9401 57.1154 43.5118 56.3846 43.8294 54.9549L43.9882 54.2559C42.7495 54.7007 41.6062 55.3361 41.6062 56.3211C41.6062 56.6706 41.892 57.1154 42.4319 57.1154ZM41.9555 48.8863C41.9555 50.7609 42.7178 50.7609 43.1624 50.7609C43.8294 50.7609 44.7504 50.0937 45.0998 48.8863L46.3385 43.1672C46.3067 42.9131 46.1161 42.2776 45.3539 42.2776C43.2895 42.2458 41.9555 46.5987 41.9555 48.8863Z"/><path fill="#fff" d="M42.9719 59.9114C40.8122 59.9114 39.3829 58.6087 39.3829 56.6706C39.3829 55.5903 39.8276 54.6689 40.6534 53.9064C39.0018 53.5569 37.4773 52.1906 37.4773 49.204C37.4773 45.296 39.9546 39.8629 44.5916 39.8629C45.2904 39.8629 45.8303 39.99 46.2432 40.1806C46.402 40.0535 46.5926 39.99 46.8149 39.99H50.3085C50.5626 39.99 50.8167 40.1171 51.0073 40.3077C51.1661 40.5301 51.2296 40.7843 51.1978 41.0385L49.2604 50.1572C49.6098 49.7442 49.8956 49.1722 50.1497 48.3462C50.2768 47.9649 50.5944 47.7425 51.0073 47.7425H52.0236C52.3094 47.7425 52.5635 47.8696 52.7223 48.092C52.8811 48.3144 52.9446 48.6003 52.8494 48.8863C51.8648 52.1906 49.9909 53.3345 48.4664 53.8428L48.2123 55.0819C47.3548 59.0535 44.9093 59.9114 42.9719 59.9114ZM42.0826 57.9732C42.4002 58.1003 42.7495 58.1321 43.0036 58.1321C44.1788 58.1321 45.8303 57.7826 46.4973 54.7324L46.8466 52.985C46.8784 52.7943 47.0054 52.6037 47.1325 52.4766C47.0372 52.286 47.0054 52.0953 47.069 51.9047L49.2287 41.7692H47.5771L47.4501 42.3094C47.4183 42.5 47.323 42.6589 47.196 42.7542C47.2278 42.8495 47.2278 42.9448 47.2595 43.0401C47.2595 43.1355 47.2595 43.2308 47.2278 43.2943L45.9891 49.0134C45.9891 49.0452 45.9891 49.0452 45.9891 49.0769C45.7668 49.8712 45.3539 50.5067 44.8457 50.9197C44.8775 50.9197 44.9093 50.9515 44.941 50.9515C45.2904 51.1421 45.4809 51.5552 45.3857 51.9365L45.0998 53.2074C45.0363 53.4298 44.9092 53.6204 44.7504 53.7475C44.8775 53.9381 44.9093 54.1605 44.8775 54.4147L44.7187 55.1137C44.3058 56.9248 43.48 57.9732 42.4319 57.9732C42.3049 58.005 42.1779 58.005 42.0826 57.9732ZM44.1788 41.6739C40.7486 42.0234 39.2877 46.7575 39.2877 49.2358C39.2877 51.2057 40.0817 52.2542 41.6062 52.2542C42.2414 52.2542 42.8131 52.0635 43.3212 51.6823C43.2577 51.6823 43.2259 51.6823 43.1624 51.6823C41.765 51.6823 41.0662 50.7609 41.0662 48.9181C41.0662 47.0435 42.0191 42.8177 44.1788 41.6739ZM45.3539 43.1355C44.2105 43.1355 42.8448 46.5987 42.8448 48.8863C42.8448 49.6806 43.0036 49.903 43.0036 49.903C43.0036 49.903 43.0989 49.903 43.1624 49.903C43.3847 49.903 43.9882 49.5535 44.2423 48.6957L45.4174 43.199C45.4174 43.1355 45.3857 43.1355 45.3539 43.1355Z"/><path fill="#6D1F11" d="M55.1679 51.0786C57.0735 51.0786 58.2486 49.9983 59.4555 48.6321H60.2813C58.9156 50.8562 56.8512 53.112 53.6434 53.112C51.3566 53.112 49.8639 52 49.8639 49.2676C49.8639 46.4716 51.4202 40.6572 56.4065 40.6572C58.5663 40.6572 59.0744 41.7692 59.0744 42.9766C59.0744 45.7726 56.4065 47.9013 53.5163 48.092C53.4846 48.4415 53.4528 48.7592 53.4528 49.0452C53.4211 50.6973 53.9927 51.0786 55.1679 51.0786ZM56.5653 41.9281C55.3267 41.9281 54.1516 44.5017 53.6751 46.9164C55.549 46.7893 57.1688 44.9465 57.1688 42.913C57.1688 42.3411 57.01 41.9281 56.5653 41.9281Z"/><path fill="#fff" d="M53.6116 54.0017C50.6579 54.0017 48.9428 52.286 48.9428 49.2676C48.9428 46.1539 50.7532 39.7676 56.3748 39.7676C58.6615 39.7676 59.9319 40.9114 59.9319 42.9766C59.9319 45.8361 57.4864 48.3462 54.3104 48.8863C54.3104 48.9498 54.3104 49.0134 54.3104 49.0452C54.3104 50.189 54.5009 50.189 55.1679 50.189C56.6289 50.189 57.5499 49.4264 58.7886 48.0602C58.9474 47.8696 59.2015 47.7425 59.4555 47.7425H60.2813C60.5989 47.7425 60.8848 47.9013 61.0436 48.1873C61.2024 48.4732 61.2024 48.8227 61.0118 49.0769C58.9791 52.413 56.5653 54.0017 53.6116 54.0017ZM55.0408 41.7375C51.8013 42.6906 50.7214 47.0435 50.7214 49.2676C50.7214 51.301 51.6107 52.2224 53.6116 52.2224C54.1833 52.2224 54.755 52.1271 55.2632 51.9682C55.2314 51.9682 55.1996 51.9682 55.1361 51.9682C53.3575 51.9682 52.5 51.0468 52.5 49.0452C52.5 48.7274 52.5318 48.3462 52.5635 47.9967C52.5953 47.7425 52.6906 47.5201 52.8811 47.3612C52.7541 47.1706 52.7223 46.9482 52.7541 46.7258C52.8811 46.2809 53.5799 43.1355 55.0408 41.7375ZM56.2795 43.0084C55.8984 43.3579 55.3902 44.2475 54.9456 45.5184C55.7078 44.9465 56.2477 43.9933 56.2795 43.0084ZM57.931 42.0552C57.9946 42.2776 58.0581 42.5635 58.0581 42.9448C58.0581 43.485 57.9628 43.9933 57.804 44.4699C58.0263 43.9933 58.1534 43.5167 58.1534 42.9766C58.1534 42.6271 58.1216 42.3094 57.931 42.0552Z"/><path fill="#6D1F11" d="M63.9655 40.8796L63.6479 42.3729C64.5054 41.6422 65.4265 40.8796 66.5699 40.8796C67.6497 40.8796 68.2532 41.7692 68.2532 42.6906C68.2532 43.5485 67.6815 44.4699 66.5064 44.4699C65.1407 44.4699 65.8394 42.8813 65.1089 42.8813C64.3784 42.8813 63.9338 43.2308 63.3303 43.8027L61.3929 52.985H57.8993L60.4719 40.8796H63.9655Z"/><path fill="#fff" d="M61.3929 53.8428H57.8993C57.6452 53.8428 57.3911 53.7157 57.2005 53.5251C57.01 53.3345 56.9782 53.0485 57.01 52.7943L59.5826 40.689C59.6779 40.2759 60.0272 39.99 60.4401 39.99H63.9338C64.1878 39.99 64.4419 40.1171 64.6325 40.3077C64.6642 40.3712 64.696 40.403 64.7278 40.4666C65.2677 40.1806 65.8711 39.99 66.5381 39.99C67.9991 39.99 69.1107 41.1656 69.1107 42.6906C69.1107 43.9933 68.1897 45.3595 66.4746 45.3595C65.1407 45.3595 64.7913 44.4064 64.6642 43.8662C64.5054 43.9298 64.3466 44.0569 64.1243 44.2793L62.2505 53.1756C62.1869 53.5569 61.8058 53.8428 61.3929 53.8428ZM59.0109 52.0953H60.6624L62.441 43.612C62.4728 43.4214 62.5681 43.2625 62.6951 43.1355C62.7586 43.0719 62.8539 43.0084 62.9174 42.9448C62.7586 42.7542 62.6951 42.4682 62.7586 42.2141L62.8539 41.7692H61.1706L59.0109 52.0953ZM66.4428 43.5803H66.4746C67.3004 43.5803 67.3321 42.8495 67.3321 42.6906C67.3321 42.5953 67.3004 41.7692 66.5381 41.7692C66.1887 41.7692 65.8394 41.8963 65.5218 42.0552C66.157 42.3094 66.3158 43.0401 66.3475 43.2943C66.4111 43.3896 66.4111 43.485 66.4428 43.5803Z"/><path fill="#411F1F" d="M12.1325 36.3043L10.8303 41.9281H10.9891C13.2123 41.9281 14.9909 39.704 14.9909 37.8294C14.9909 36.3679 13.9746 35.097 11.3067 35.097C8.03539 35.097 4.35118 37.0669 4.35118 41.2609C4.35118 42.5635 4.70055 42.7542 4.73231 42.9766C2.8902 42.9766 1.74683 42.3411 1.74683 40.6254C1.74683 37.1304 6.60617 33.8896 11.8784 33.8896C15.9755 33.8896 17.8176 35.8278 17.8176 37.9248C17.8176 39.4181 16.833 41.0067 15.0227 41.9599C17.4047 42.4047 18.3258 44.1522 18.3258 46.0585C18.3258 48.505 16.8648 53.3662 12.2278 53.3662C11.0209 53.3662 9.46461 53.0485 9.46461 51.4916C9.46461 51.0786 9.59165 50.602 9.81398 50.0301C10.5127 50.6973 11.0526 50.9515 11.6878 50.9515C13.7205 50.9515 14.451 48.3144 14.451 46.3763C14.451 44.597 13.8476 43.1672 11.8149 43.1672C11.5926 43.1672 11.0209 43.199 10.5445 43.2308L8.25772 52.9532H4.22414L8.00363 36.8127L12.1325 36.3043Z"/><path fill="#411F1F" d="M29.4737 40.8796L27.7269 49.1087C27.6633 49.4264 27.6316 49.6806 27.6316 49.8712C27.6316 50.5385 27.9492 50.7609 28.6162 50.7609C29.569 50.7609 30.2042 49.8395 30.5853 48.6321H31.6016C30.2359 52.5719 28.0445 53.112 26.7423 53.112C25.3766 53.112 24.4873 52.3177 24.3603 50.8244C23.1534 52.7943 21.7877 53.112 20.7713 53.112C19.3103 53.112 18.1987 52.2542 18.1987 50.2207C18.1987 49.7759 18.2623 49.2358 18.3893 48.6639L20.0091 40.8796H23.5027L21.7559 49.1087C21.7241 49.3629 21.6924 49.5535 21.6924 49.7759C21.6924 50.3478 21.8829 50.7609 22.4229 50.7609C23.3757 50.7609 23.9791 49.8395 24.3603 48.6321L26.0118 40.8796H29.4737Z"/><path fill="#411F1F" d="M35.6987 40.8796L35.3811 42.3729C36.2387 41.6421 37.1597 40.8796 38.3031 40.8796C39.3829 40.8796 39.9546 41.7692 39.9546 42.6906C39.9546 43.5485 39.4147 44.4699 38.2078 44.4699C36.8421 44.4699 37.5408 42.8813 36.8103 42.8813C36.0799 42.8813 35.6352 43.2308 35.0318 43.8027L33.0944 52.985H29.6007L32.1733 40.8796H35.6987Z"/><path fill="#411F1F" d="M50.3085 40.8796L47.9265 52.0953C49.3875 51.5552 50.3085 50.7291 50.9755 48.6321H51.9918C51.039 51.8094 49.1969 52.7308 47.7042 53.1438L47.3548 54.8913C46.6243 58.3545 44.5917 58.99 43.0036 58.99C41.5427 58.99 40.304 58.2274 40.304 56.6388C40.304 54.6054 42.4319 53.5886 44.2423 53.0485L44.5281 51.7776C43.8294 52.5401 42.8766 53.112 41.6379 53.112C39.9864 53.112 38.4301 52.0953 38.4301 49.204C38.4301 45.9314 40.431 40.7525 44.6552 40.7525C46.0209 40.7525 46.6243 41.2926 46.6243 41.9916V42.1505L46.8784 40.8796H50.3085ZM42.4319 57.1154C42.9401 57.1154 43.5118 56.3846 43.8294 54.9548L43.9882 54.2559C42.7495 54.7007 41.6062 55.3361 41.6062 56.3211C41.6062 56.6706 41.892 57.1154 42.4319 57.1154ZM41.9555 48.8863C41.9555 50.7609 42.7178 50.7609 43.1624 50.7609C43.8294 50.7609 44.7505 50.0936 45.0998 48.8863L46.3385 43.1672C46.3067 42.913 46.1162 42.2776 45.3539 42.2776C43.2895 42.2458 41.9555 46.5987 41.9555 48.8863Z"/><path fill="#411F1F" d="M55.1679 51.0786C57.0735 51.0786 58.2486 49.9983 59.4555 48.6321H60.2813C58.9156 50.8562 56.8512 53.112 53.6434 53.112C51.3566 53.112 49.8639 52 49.8639 49.2676C49.8639 46.4716 51.4202 40.6572 56.4065 40.6572C58.5663 40.6572 59.0744 41.7692 59.0744 42.9766C59.0744 45.7726 56.4065 47.9013 53.5163 48.092C53.4846 48.4415 53.4528 48.7592 53.4528 49.0452C53.4211 50.6973 53.9927 51.0786 55.1679 51.0786ZM56.5653 41.9281C55.3267 41.9281 54.1516 44.5017 53.6751 46.9164C55.549 46.7893 57.1688 44.9465 57.1688 42.913C57.1688 42.3411 57.01 41.9281 56.5653 41.9281Z"/><path fill="#411F1F" d="M63.9655 40.8796L63.6479 42.3729C64.5054 41.6421 65.4265 40.8796 66.5699 40.8796C67.6497 40.8796 68.2532 41.7692 68.2532 42.6906C68.2532 43.5485 67.6815 44.4699 66.5064 44.4699C65.1407 44.4699 65.8394 42.8813 65.1089 42.8813C64.3784 42.8813 63.9338 43.2308 63.3303 43.8027L61.3929 52.985H57.8993L60.4719 40.8796H63.9655Z"/><path fill="#fff" d="M18.961 35.3512C20.1538 35.3512 21.1207 34.3839 21.1207 33.1906C21.1207 31.9974 20.1538 31.0301 18.961 31.0301C17.7682 31.0301 16.8013 31.9974 16.8013 33.1906C16.8013 34.3839 17.7682 35.3512 18.961 35.3512Z"/><path fill="#fff" d="M46.6878 32.9047H41.4791V35.5736H46.6878V32.9047Z"/><path fill="#fff" d="M20.4537 35.7007C18.9292 35.7007 17.9129 34.811 17.9129 33.4448C17.9129 32.4916 18.4211 31.7926 19.088 31.4749C18.9292 31.189 18.8022 30.8395 18.8022 30.4264C18.8022 29.1237 19.9456 28.1388 21.4701 28.1388C22.7722 28.1388 23.6298 28.9013 23.6298 30.0134C23.6298 30.5853 23.4074 31.0936 23.0263 31.4114C23.2804 31.7926 23.471 32.301 23.471 32.9365C23.5027 34.5251 22.2323 35.7007 20.4537 35.7007Z"/><path fill="#fff" d="M22.0735 30.7124C21.9465 30.7124 21.8194 30.6806 21.7559 30.5535C21.9465 30.4264 22.0735 30.1722 22.0735 29.9181C22.0735 29.6639 21.9465 29.4415 21.5336 29.4415C21.1207 29.4415 20.8666 29.6639 20.8666 30.1087C20.8666 31.189 22.4864 31.3161 22.4864 32.8729C22.4864 34.0803 21.5018 34.684 20.4537 34.684C19.6279 34.684 18.9292 34.3345 18.9292 33.4448C18.9292 32.6505 19.5009 32.2692 20.0091 32.2692C20.2632 32.2692 20.6125 32.3646 20.6443 32.7458C20.2632 32.7458 19.7867 32.9365 19.7867 33.4131C19.7867 33.7625 20.0091 34.112 20.4855 34.112C20.9619 34.112 21.3112 33.7625 21.3112 33.1589C21.3112 31.9197 19.8185 31.4749 19.8185 30.4264C19.8185 29.6639 20.549 29.1237 21.5018 29.1237C21.8512 29.1237 22.6769 29.1873 22.6769 29.9816C22.6769 30.3947 22.4229 30.7124 22.0735 30.7124Z"/><path fill="#fff" d="M23.8839 35.5736C22.5817 35.5736 21.7559 34.7157 21.7559 33.413C21.7559 31.9197 22.677 29.8227 24.7096 29.8227C25.7895 29.8227 26.52 30.49 26.52 31.5385C26.52 31.8244 26.4564 32.1104 26.3612 32.3646C26.52 32.4599 26.647 32.587 26.7423 32.7458C26.9329 33.0636 26.9011 33.4448 26.7105 33.7625C25.98 34.9699 25.0272 35.5736 23.8839 35.5736Z"/><path fill="#fff" d="M24.3603 33.985C24.9319 33.985 25.2813 33.6672 25.6307 33.2542H25.8848C25.4719 33.9214 24.8684 34.5886 23.8839 34.5886C23.2169 34.5886 22.7405 34.2709 22.7405 33.4448C22.7405 32.6187 23.2169 30.8712 24.7096 30.8712C25.3448 30.8712 25.5036 31.189 25.5036 31.5702C25.5036 32.3963 24.7096 33.0318 23.8521 33.0953C23.8521 33.1906 23.8521 33.286 23.8521 33.3813C23.8203 33.8579 24.0109 33.985 24.3603 33.985ZM24.7731 31.2525C24.392 31.2525 24.0427 32.0151 23.9156 32.7458C24.4873 32.714 24.9637 32.1421 24.9637 31.5385C24.9637 31.3478 24.9002 31.2525 24.7731 31.2525Z"/><path fill="#fff" d="M30.0454 35.5736C29.6007 35.5736 29.2196 35.4465 28.902 35.2241C28.7114 35.4147 28.4573 35.51 28.2033 35.51H27.1552C27.0281 35.51 26.9011 35.4783 26.774 35.4465C26.647 35.4783 26.52 35.51 26.3929 35.51H25.3448C25.0272 35.51 24.7414 35.3829 24.5508 35.1288C24.3602 34.9064 24.2967 34.5886 24.3602 34.3027L25.1225 30.6806C25.2178 30.204 25.6307 29.8863 26.1071 29.8863H27.1552C27.2504 29.8863 27.314 29.8863 27.4092 29.9181C27.5681 29.8863 27.7586 29.8545 27.9492 29.8545C28.2668 29.8545 28.5526 29.9181 28.8067 30.0452C29.0925 29.9181 29.3784 29.8545 29.696 29.8545C30.7759 29.8545 31.5063 30.6171 31.5063 31.6656C31.5063 31.8562 31.4746 32.0151 31.4428 32.2057C31.7287 32.2375 31.9827 32.3963 32.1415 32.6187C32.3321 32.8729 32.3956 33.2224 32.2686 33.5401C31.7604 35.2241 30.7759 35.5736 30.0454 35.5736Z"/><path fill="#fff" d="M29.2514 31.5385C28.9973 31.5385 28.8067 31.8562 28.6797 32.2057L28.2033 34.5251H27.1552L27.6951 32.0151C27.6951 31.9515 27.7269 31.888 27.7269 31.8244C27.7269 31.6656 27.6633 31.5067 27.5045 31.5067C27.2187 31.5067 27.0281 31.8244 26.9329 32.1739L26.4565 34.4933H25.4084L26.1706 30.8712H27.2187L27.1234 31.2525C27.441 30.903 27.7586 30.8395 28.0127 30.8395C28.3938 30.8395 28.6797 30.9983 28.7432 31.4749C29.0926 30.9348 29.4737 30.8712 29.7595 30.8712C30.2359 30.8712 30.5535 31.1254 30.5535 31.6973C30.5535 32.2692 30.2042 33.1589 30.2042 33.5719C30.2042 33.7625 30.2677 33.8896 30.49 33.8896C30.8076 33.8896 30.9347 33.6355 31.0935 33.2542H31.4111C30.9982 34.4298 30.4583 34.5886 30.0771 34.5886C29.4419 34.5886 29.2196 34.1756 29.2196 33.7625C29.2196 33.286 29.5372 32.3645 29.5372 31.9197C29.5055 31.6656 29.4102 31.5385 29.2514 31.5385Z"/><path fill="#fff" d="M33.7296 35.5736C33.412 35.5736 33.1261 35.51 32.8721 35.3512C32.5227 35.51 32.2051 35.5736 31.951 35.5736C30.9664 35.5736 29.9819 34.9064 29.9819 33.413C29.9819 31.9833 30.9029 29.8863 32.8403 29.8863C33.0309 29.8863 33.1897 29.9181 33.3167 29.9498C33.3802 29.9498 33.4437 29.9181 33.5073 29.9181H34.5554C34.873 29.9181 35.1588 30.0452 35.3494 30.2993C35.5399 30.5217 35.6035 30.8395 35.5399 31.1254L35.3176 32.2375C35.6035 32.2692 35.8575 32.4281 36.0163 32.6505C36.2069 32.9047 36.2387 33.2542 36.1434 33.5719C35.5082 35.3194 34.3648 35.5736 33.7296 35.5736Z"/><path fill="#fff" d="M34.5554 30.9348L34.0472 33.3813C34.0154 33.4766 34.0154 33.5401 34.0154 33.6037C34.0154 33.7943 34.1107 33.9214 34.3013 33.9214C34.5871 33.9214 34.7777 33.6037 34.873 33.2542H35.1906C34.7777 34.4298 34.1107 34.5886 33.7296 34.5886C33.3167 34.5886 33.0626 34.3662 33.0309 33.9214C32.8085 34.2391 32.4592 34.5886 31.951 34.5886C31.4746 34.5886 30.9982 34.2709 30.9982 33.413C30.9982 32.4281 31.6016 30.8712 32.8721 30.8712C33.2849 30.8712 33.4437 31.0301 33.4437 31.2525V31.3161L33.539 30.9348H34.5554ZM32.0463 33.3177C32.0463 33.8896 32.2686 33.8896 32.3956 33.8896C32.618 33.8896 32.9038 33.6672 32.9991 33.2542L33.3485 31.602C33.3485 31.5067 33.2849 31.3161 33.0626 31.3161C32.4592 31.3161 32.0463 32.6505 32.0463 33.3177Z"/><path fill="#fff" d="M35.6034 35.5736C34.5553 35.5736 33.8249 34.811 33.8249 33.699C33.8249 33.5084 33.8566 33.286 33.8884 33.0318L34.3965 30.7124C34.4283 30.5853 34.4918 30.4582 34.5554 30.3311C34.5236 30.204 34.5236 30.0769 34.5236 29.9498C34.5236 29.0602 35.2223 28.3612 36.1116 28.3612C37.0009 28.3612 37.6996 29.0602 37.6996 29.9498C37.6996 30.2676 37.6044 30.5535 37.4456 30.8077C37.4456 30.903 37.4456 30.9983 37.4138 31.1254L37.1915 32.2375C37.5091 32.2375 37.7949 32.3963 37.9537 32.6505C38.1443 32.9047 38.176 33.2542 38.0808 33.5719C37.4456 35.3829 36.1434 35.5736 35.6034 35.5736Z"/><path fill="#fff" d="M36.4292 30.9348L35.8893 33.3813C35.8575 33.4766 35.8575 33.5401 35.8575 33.6037C35.8575 33.7943 35.9528 33.8579 36.1434 33.8579C36.4292 33.8579 36.6833 33.5719 36.8103 33.2224H37.1279C36.7151 34.398 35.9846 34.5569 35.6034 34.5569C35.1588 34.5569 34.8412 34.3027 34.8412 33.699C34.8412 33.5719 34.8729 33.413 34.9047 33.2224L35.3811 30.903H36.4292V30.9348ZM36.0798 29.3779C36.3974 29.3779 36.6515 29.6321 36.6515 29.9498C36.6515 30.2676 36.3974 30.5217 36.0798 30.5217C35.7622 30.5217 35.5082 30.2676 35.5082 29.9498C35.5082 29.6321 35.7622 29.3779 36.0798 29.3779Z"/><path fill="#fff" d="M39.4147 35.5736C38.9701 35.5736 38.5889 35.4465 38.2713 35.2241C38.0808 35.4147 37.8267 35.51 37.5726 35.51H36.5245C36.2069 35.51 35.9211 35.3829 35.7305 35.1288C35.5399 34.9064 35.4764 34.5886 35.5399 34.3027L36.3022 30.6806C36.3975 30.204 36.8103 29.8863 37.2868 29.8863H38.3348C38.4301 29.8863 38.4936 29.8863 38.5889 29.9181C38.7477 29.8863 38.9383 29.8545 39.0971 29.8545C40.1769 29.8545 40.9074 30.6171 40.9074 31.6656C40.9074 31.8562 40.8757 32.0151 40.8439 32.2057C41.1298 32.2375 41.3838 32.3963 41.5426 32.6187C41.7332 32.8729 41.7967 33.2224 41.6697 33.5401C41.1615 35.2241 40.1769 35.5736 39.4147 35.5736Z"/><path fill="#fff" d="M38.6525 31.5385C38.3984 31.5385 38.2078 31.8562 38.0808 32.2057L37.6044 34.5251H36.5563L37.3185 30.903H38.3666L38.2713 31.2843C38.5889 30.9348 38.9065 30.8712 39.1289 30.8712C39.6053 30.8712 39.9229 31.1254 39.9229 31.6973C39.9229 32.2692 39.5735 33.1589 39.5735 33.5719C39.5735 33.7625 39.637 33.8896 39.8594 33.8896C40.177 33.8896 40.304 33.6355 40.4628 33.2542H40.7804C40.3675 34.4298 39.8276 34.5886 39.4465 34.5886C38.8113 34.5886 38.5889 34.1756 38.5889 33.7625C38.5889 33.286 38.9065 32.3646 38.9065 31.9197C38.9065 31.6656 38.8113 31.5385 38.6525 31.5385Z"/><path fill="#fff" d="M41.4791 35.5736C40.177 35.5736 39.3512 34.7157 39.3512 33.413C39.3512 31.9197 40.2722 29.8227 42.3049 29.8227C43.3848 29.8227 44.1152 30.49 44.1152 31.5385C44.1152 32.0786 43.9247 32.587 43.6071 33C43.7341 33.1906 43.7659 33.4448 43.7341 33.699C43.5118 34.8746 42.686 35.5736 41.4791 35.5736Z"/><path fill="#fff" d="M41.892 33.8896C42.1779 33.8896 42.5272 33.699 42.7495 33.5084C42.5907 34.3344 42.0826 34.5886 41.5109 34.5886C40.8439 34.5886 40.3993 34.2709 40.3993 33.4448C40.3993 32.6187 40.8757 30.8712 42.3684 30.8712C43.0036 30.8712 43.1624 31.189 43.1624 31.5702C43.1624 32.3963 42.3684 33.0318 41.5109 33.0953C41.5109 33.1589 41.5109 33.2542 41.5109 33.3177C41.4474 33.7625 41.6379 33.8896 41.892 33.8896ZM42.3684 31.2525C42.0191 31.2525 41.6379 32.0468 41.4791 32.7458C42.0508 32.714 42.5272 32.1739 42.5272 31.5385C42.559 31.3478 42.5272 31.2525 42.3684 31.2525Z"/><path fill="#fff" d="M45.5762 35.5736C44.5917 35.5736 43.6071 34.9064 43.6071 33.413C43.6071 32.0151 44.4646 29.9816 46.3385 29.8863L46.4338 29.4097C46.529 28.9967 46.8466 28.6789 47.2913 28.6154L48.3712 28.4565C48.4029 28.4565 48.4664 28.4565 48.4982 28.4565C48.784 28.4565 49.0381 28.5836 49.2287 28.7742C49.451 29.0284 49.5463 29.3462 49.4828 29.6639L48.9428 32.2375C49.2287 32.2692 49.4828 32.4281 49.6416 32.6505C49.8321 32.9047 49.8639 33.2542 49.7686 33.5719C49.1969 35.1923 48.1488 35.5418 47.3548 35.5418C47.069 35.5418 46.7831 35.4783 46.529 35.3512C46.2432 35.51 45.8938 35.5736 45.5762 35.5736Z"/><path fill="#fff" d="M48.4664 29.4732L47.6406 33.3813C47.6089 33.4766 47.6089 33.5401 47.6089 33.6037C47.6089 33.7943 47.7042 33.8579 47.8947 33.8579C48.1806 33.8579 48.3711 33.5719 48.4664 33.2224H48.784C48.3711 34.398 47.7042 34.5251 47.323 34.5251C46.9419 34.5251 46.6561 34.3027 46.6243 33.8896C46.402 34.2074 46.0526 34.5569 45.5445 34.5569C45.0681 34.5569 44.5916 34.2391 44.5916 33.3813C44.5916 32.3963 45.1951 30.8395 46.4655 30.8395C46.8784 30.8395 47.0372 30.9983 47.0372 31.2207V31.2525L47.3866 29.6003L48.4664 29.4732ZM46.6243 33.2542L46.9737 31.602C46.9737 31.5067 46.8784 31.3478 46.6878 31.3478C46.0844 31.3478 45.6715 32.6505 45.6715 33.3177C45.6715 33.8896 45.8938 33.8896 46.0209 33.8896C46.2114 33.8896 46.529 33.699 46.6243 33.286V33.2542Z"/><path fill="#fff" d="M51.0073 35.5736C50.6897 35.5736 50.4038 35.51 50.1497 35.3512C49.8639 35.4783 49.5463 35.5736 49.1969 35.5736C48.1488 35.5736 47.4183 34.811 47.4183 33.699C47.4183 33.5084 47.4501 33.286 47.4819 33.0318L47.99 30.7124C48.0853 30.2358 48.4982 29.9181 48.9746 29.9181H50.0227C50.1497 29.9181 50.2768 29.9498 50.4038 29.9816C50.5309 29.9498 50.6579 29.9181 50.7849 29.9181H51.833C52.1506 29.9181 52.4365 30.0452 52.627 30.2993C52.8176 30.5217 52.8811 30.8395 52.8176 31.1254L52.4047 33.0318C52.4047 33.0318 52.4047 33.0318 52.4365 33.0318C52.6906 33.2224 52.8494 33.5719 52.8176 33.8896C52.7223 34.9064 51.9918 35.5736 51.0073 35.5736Z"/><path fill="#fff" d="M50.0227 30.9348L49.5145 33.3813C49.5145 33.4448 49.4828 33.5084 49.4828 33.5719C49.4828 33.7308 49.5463 33.8896 49.7051 33.8896C49.9909 33.8896 50.1815 33.6037 50.2768 33.2542L50.7849 30.9348H51.833L51.3249 33.3813C51.2931 33.4766 51.2931 33.5401 51.2931 33.6037C51.2931 33.7943 51.3884 33.8579 51.5789 33.8579C51.706 33.8579 51.7378 33.8261 51.833 33.8261C51.8013 34.3345 51.4201 34.5569 51.039 34.5569C50.6261 34.5569 50.3721 34.3027 50.3403 33.8579C49.9909 34.4615 49.578 34.5569 49.2604 34.5569C48.8158 34.5569 48.4982 34.3027 48.4982 33.699C48.4982 33.5719 48.5299 33.413 48.5617 33.2224L49.0381 30.903H50.0227V30.9348Z"/><path fill="#411F1F" d="M22.0735 30.7124C21.9465 30.7124 21.8194 30.6806 21.7559 30.5535C21.9465 30.4264 22.0735 30.1722 22.0735 29.9181C22.0735 29.6639 21.9465 29.4415 21.5336 29.4415C21.1207 29.4415 20.8666 29.6639 20.8666 30.1087C20.8666 31.189 22.4864 31.3161 22.4864 32.8729C22.4864 34.0803 21.5018 34.684 20.4537 34.684C19.6279 34.684 18.9292 34.3345 18.9292 33.4448C18.9292 32.6505 19.5009 32.2692 20.0091 32.2692C20.2632 32.2692 20.6125 32.3646 20.6443 32.7458C20.2632 32.7458 19.7867 32.9365 19.7867 33.4131C19.7867 33.7625 20.0091 34.112 20.4855 34.112C20.9619 34.112 21.3112 33.7625 21.3112 33.1589C21.3112 31.9197 19.8185 31.4749 19.8185 30.4264C19.8185 29.6639 20.549 29.1237 21.5018 29.1237C21.8512 29.1237 22.6769 29.1873 22.6769 29.9816C22.6769 30.3947 22.4229 30.7124 22.0735 30.7124Z"/><path fill="#411F1F" d="M24.3602 33.9849C24.9319 33.9849 25.2813 33.6672 25.6307 33.2542H25.8847C25.4719 33.9214 24.8684 34.5886 23.8838 34.5886C23.2169 34.5886 22.7405 34.2709 22.7405 33.4448C22.7405 32.6187 23.2169 30.8712 24.7096 30.8712C25.3448 30.8712 25.5036 31.189 25.5036 31.5702C25.5036 32.3963 24.7096 33.0318 23.8521 33.0953C23.8521 33.1906 23.8521 33.286 23.8521 33.3813C23.8203 33.8579 24.0109 33.9849 24.3602 33.9849ZM24.7731 31.2525C24.392 31.2525 24.0426 32.0151 23.9156 32.7458C24.4873 32.714 24.9637 32.1421 24.9637 31.5385C24.9637 31.3478 24.9002 31.2525 24.7731 31.2525Z"/><path fill="#411F1F" d="M29.2514 31.5385C28.9973 31.5385 28.8067 31.8562 28.6797 32.2057L28.2033 34.5251H27.1552L27.6951 32.0151C27.6951 31.9515 27.7269 31.888 27.7269 31.8244C27.7269 31.6656 27.6633 31.5067 27.5045 31.5067C27.2187 31.5067 27.0281 31.8244 26.9328 32.1739L26.4564 34.4933H25.4083L26.1706 30.8712H27.2187L27.1234 31.2525C27.441 30.903 27.7586 30.8395 28.0127 30.8395C28.3938 30.8395 28.6797 30.9983 28.7432 31.4749C29.0926 30.9348 29.4737 30.8712 29.7595 30.8712C30.2359 30.8712 30.5535 31.1254 30.5535 31.6973C30.5535 32.2692 30.2042 33.1589 30.2042 33.5719C30.2042 33.7625 30.2677 33.8896 30.49 33.8896C30.8076 33.8896 30.9347 33.6355 31.0935 33.2542H31.4111C30.9982 34.4298 30.4582 34.5886 30.0771 34.5886C29.4419 34.5886 29.2196 34.1756 29.2196 33.7625C29.2196 33.286 29.5372 32.3645 29.5372 31.9197C29.5054 31.6656 29.4102 31.5385 29.2514 31.5385Z"/><path fill="#411F1F" d="M34.5554 30.9348L34.0472 33.3813C34.0154 33.4766 34.0154 33.5401 34.0154 33.6037C34.0154 33.7943 34.1107 33.9214 34.3013 33.9214C34.5871 33.9214 34.7777 33.6037 34.873 33.2542H35.1906C34.7777 34.4298 34.1107 34.5886 33.7296 34.5886C33.3167 34.5886 33.0626 34.3662 33.0309 33.9214C32.8085 34.2391 32.4592 34.5886 31.951 34.5886C31.4746 34.5886 30.9982 34.2709 30.9982 33.413C30.9982 32.4281 31.6016 30.8712 32.8721 30.8712C33.2849 30.8712 33.4437 31.0301 33.4437 31.2525V31.3161L33.539 30.9348H34.5554ZM32.0463 33.3177C32.0463 33.8896 32.2686 33.8896 32.3956 33.8896C32.618 33.8896 32.9038 33.6672 32.9991 33.2542L33.3485 31.602C33.3485 31.5067 33.2849 31.3161 33.0626 31.3161C32.4592 31.3478 32.0463 32.6505 32.0463 33.3177Z"/><path fill="#411F1F" d="M36.4292 30.9348L35.8893 33.3813C35.8575 33.4766 35.8575 33.5401 35.8575 33.6037C35.8575 33.7943 35.9528 33.8579 36.1434 33.8579C36.4292 33.8579 36.6833 33.5719 36.8103 33.2224H37.1279C36.7151 34.398 35.9846 34.5569 35.6034 34.5569C35.1588 34.5569 34.8412 34.3027 34.8412 33.699C34.8412 33.5719 34.8729 33.413 34.9047 33.2224L35.3811 30.903H36.4292V30.9348ZM36.0798 29.3779C36.3974 29.3779 36.6515 29.6321 36.6515 29.9498C36.6515 30.2676 36.3974 30.5217 36.0798 30.5217C35.7622 30.5217 35.5082 30.2676 35.5082 29.9498C35.5082 29.6321 35.7622 29.3779 36.0798 29.3779Z"/><path fill="#411F1F" d="M38.6524 31.5385C38.3984 31.5385 38.2078 31.8562 38.0808 32.2057L37.6044 34.5251H36.5563L37.3185 30.903H38.3666L38.2713 31.2843C38.5889 30.9348 38.9065 30.8712 39.1288 30.8712C39.6053 30.8712 39.9229 31.1254 39.9229 31.6973C39.9229 32.2692 39.5735 33.1589 39.5735 33.5719C39.5735 33.7625 39.637 33.8896 39.8593 33.8896C40.1769 33.8896 40.304 33.6355 40.4628 33.2542H40.7804C40.3675 34.4298 39.8276 34.5886 39.4465 34.5886C38.8112 34.5886 38.5889 34.1756 38.5889 33.7625C38.5889 33.286 38.9065 32.3645 38.9065 31.9197C38.9065 31.6656 38.8112 31.5385 38.6524 31.5385Z"/><path fill="#411F1F" d="M41.892 33.8896C42.1779 33.8896 42.5272 33.699 42.7495 33.5084C42.5907 34.3344 42.0826 34.5886 41.5109 34.5886C40.8439 34.5886 40.3993 34.2709 40.3993 33.4448C40.3993 32.6187 40.8757 30.8712 42.3684 30.8712C43.0036 30.8712 43.1624 31.189 43.1624 31.5702C43.1624 32.3963 42.3684 33.0318 41.5109 33.0953C41.5109 33.1589 41.5109 33.2542 41.5109 33.3177C41.4474 33.7625 41.6379 33.8896 41.892 33.8896ZM42.3684 31.2525C42.0191 31.2525 41.6379 32.0468 41.4791 32.7458C42.0508 32.714 42.5272 32.1739 42.5272 31.5385C42.559 31.3478 42.5272 31.2525 42.3684 31.2525Z"/><path fill="#411F1F" d="M48.4664 29.4732L47.6406 33.3813C47.6089 33.4766 47.6089 33.5401 47.6089 33.6037C47.6089 33.7943 47.7042 33.8579 47.8947 33.8579C48.1806 33.8579 48.3711 33.5719 48.4664 33.2224H48.784C48.3711 34.398 47.7042 34.5251 47.323 34.5251C46.9419 34.5251 46.6561 34.3027 46.6243 33.8896C46.402 34.2074 46.0526 34.5569 45.5445 34.5569C45.0681 34.5569 44.5916 34.2391 44.5916 33.3813C44.5916 32.3963 45.1951 30.8395 46.4655 30.8395C46.8784 30.8395 47.0372 30.9983 47.0372 31.2207V31.2525L47.3866 29.6003L48.4664 29.4732ZM46.6243 33.2542L46.9737 31.602C46.9737 31.5067 46.8784 31.3478 46.6878 31.3478C46.0844 31.3478 45.6715 32.6505 45.6715 33.3177C45.6715 33.8896 45.8938 33.8896 46.0209 33.8896C46.2114 33.8896 46.529 33.699 46.6243 33.286V33.2542Z"/><path fill="#411F1F" d="M50.0227 30.9348L49.5145 33.3813C49.5145 33.4448 49.4828 33.5084 49.4828 33.5719C49.4828 33.7308 49.5463 33.8896 49.7051 33.8896C49.9909 33.8896 50.1815 33.6037 50.2768 33.2542L50.7532 30.9348H51.8013L51.2931 33.3813C51.2613 33.4766 51.2613 33.5401 51.2613 33.6037C51.2613 33.7943 51.3566 33.8579 51.5472 33.8579C51.6742 33.8579 51.706 33.8261 51.8013 33.8261C51.7695 34.3345 51.3884 34.5569 51.0073 34.5569C50.5944 34.5569 50.3403 34.3027 50.3085 33.8579C49.9592 34.4615 49.5463 34.5569 49.2287 34.5569C48.784 34.5569 48.4664 34.3027 48.4664 33.699C48.4664 33.5719 48.4982 33.413 48.53 33.2224L49.0064 30.903H50.0227V30.9348Z"/><path fill="#411F1F" d="M16.8966 34.811C16.4201 34.811 15.9755 34.4615 15.5309 34.112C15.118 33.7625 14.6733 33.413 14.1652 33.413C14.1652 33.413 14.1652 33.413 14.1334 33.413C14.1016 33.413 14.0699 33.413 14.0381 33.413H14.0064C13.9428 33.413 13.8793 33.3813 13.8476 33.3495C13.784 33.286 13.784 33.2224 13.784 33.1589L14.2604 30.9348C14.2287 30.9666 14.1969 30.9666 14.1652 30.9666C13.4347 30.9666 13.2759 30.5217 13.2759 30.1405C13.2759 29.1237 14.578 28.3294 15.6261 28.3294C15.7214 28.3294 15.8167 28.3294 15.8802 28.3294C15.9437 28.3294 16.0073 28.3612 16.039 28.4247C16.0708 28.4883 16.1025 28.5518 16.0708 28.6154L15.245 32.7776C15.4673 32.8411 15.6579 32.9682 15.8802 33.0953C16.2296 33.286 16.6107 33.5084 17.0236 33.5084C17.1824 33.5084 17.3094 33.4766 17.4365 33.4448C17.4682 33.4448 17.5 33.413 17.5318 33.413C17.5953 33.413 17.627 33.413 17.6588 33.4448C17.7223 33.5084 17.7541 33.5719 17.7541 33.6672C17.6588 34.3662 17.3412 34.811 16.8966 34.811ZM14.6098 29.505C14.4192 29.6957 14.3557 29.9816 14.3557 30.2993C14.3557 30.4582 14.3875 30.5217 14.3875 30.5535L14.6098 29.505Z"/><path fill="#fff" d="M15.6579 28.5518C15.7532 28.5518 15.8167 28.5518 15.912 28.5518L14.9909 32.9047C15.6261 33.0318 16.2613 33.699 17.0236 33.699C17.1824 33.699 17.3412 33.6672 17.5318 33.6037C17.4682 34.1756 17.2142 34.5569 16.8966 34.5569C16.039 34.5569 15.2768 33.1906 14.1969 33.1906C14.1334 33.1906 14.1016 33.1906 14.0699 33.1906L14.9592 28.9967C14.4192 29.2191 14.1016 29.6639 14.1016 30.3311C14.1016 30.6488 14.1652 30.6806 14.1969 30.7442C13.784 30.7442 13.5617 30.5853 13.5617 30.1405C13.53 29.3462 14.6416 28.5518 15.6579 28.5518ZM15.6579 28.107C14.1969 28.107 13.0535 29.2191 13.0535 30.1405C13.0535 30.4264 13.1488 31.0936 13.9746 31.189L13.5617 33.0953C13.53 33.2542 13.5617 33.3813 13.6888 33.5084C13.784 33.6037 13.9111 33.6672 14.0381 33.6672C14.0699 33.6672 14.0699 33.6672 14.1016 33.6672C14.1334 33.6672 14.1334 33.6672 14.1652 33.6672H14.1969C14.6098 33.6672 14.9909 33.985 15.4038 34.3027C15.8485 34.6522 16.3249 35.0335 16.8966 35.0335C17.3412 35.0335 17.8811 34.684 17.9764 33.6672C18.0082 33.5084 17.9129 33.3495 17.7859 33.2542C17.6906 33.1906 17.5953 33.1589 17.5 33.1589C17.4365 33.1589 17.373 33.1589 17.3094 33.1906C17.2142 33.2224 17.0871 33.2542 16.9918 33.2542C16.6425 33.2542 16.3249 33.0636 15.9755 32.8729C15.8167 32.7776 15.6579 32.7141 15.4991 32.6187L16.3566 28.6472C16.3884 28.5201 16.3566 28.393 16.2613 28.2659C16.1661 28.1706 16.0708 28.107 15.912 28.0753C15.8485 28.107 15.7532 28.107 15.6579 28.107Z"/><path fill="#411F1F" d="M18.0082 33.3177C17.7223 33.3177 17.4682 33.1906 17.3412 32.9682C17.0871 33.1906 16.833 33.3177 16.5154 33.3177C16.0073 33.3177 15.4673 33 15.4673 32.1104C15.4673 31.1254 16.1025 29.7592 17.2459 29.7592C17.4047 29.7592 17.5635 29.791 17.6588 29.8227C17.6906 29.791 17.7541 29.7592 17.7858 29.7592H18.6751C18.7387 29.7592 18.8022 29.791 18.8657 29.8545C18.8975 29.9181 18.9292 29.9816 18.8975 30.0452L18.4528 32.1104C18.4528 32.1739 18.4211 32.2057 18.4211 32.2375C18.4211 32.2375 18.4211 32.2375 18.4528 32.2375C18.4846 32.2375 18.4846 32.2375 18.4846 32.2375C18.5163 32.2375 18.5481 32.2057 18.5799 32.2057C18.6434 32.2057 18.7069 32.2375 18.7387 32.2692C18.8022 32.3328 18.8339 32.4281 18.8022 32.5234C18.6751 33 18.5163 33.3177 18.0082 33.3177ZM17.4682 30.5853C17.1824 30.5853 16.8648 31.4431 16.8648 32.0151C16.8648 32.2057 16.8966 32.2692 16.8966 32.2692H16.9283C16.9918 32.2692 17.1506 32.1739 17.2142 31.9197L17.4682 30.5853Z"/><path fill="#fff" d="M17.2777 29.9816C17.627 29.9816 17.7541 30.1087 17.7541 30.2993V30.3311L17.8176 30.0134H18.7069L18.2623 32.0786C18.2305 32.1421 18.2305 32.2057 18.2305 32.2692C18.2305 32.4281 18.294 32.4916 18.4846 32.4916C18.5481 32.4916 18.5799 32.4916 18.6116 32.4599C18.4528 32.8729 18.3258 33.0635 18.0082 33.0635C17.6906 33.0635 17.4682 32.8411 17.4047 32.4916C17.2142 32.7776 16.9283 33.0635 16.5154 33.0635C16.1025 33.0635 15.7214 32.8094 15.7214 32.0786C15.7214 31.2843 16.2296 29.9816 17.2777 29.9816ZM16.9283 32.4916C17.1189 32.4916 17.373 32.301 17.4365 31.9515L17.7223 30.5853C17.7223 30.5217 17.6588 30.3629 17.4682 30.3629C16.9601 30.3629 16.6107 31.4431 16.6107 32.0151C16.6107 32.4916 16.8013 32.4916 16.9283 32.4916ZM17.2777 29.5368C16.6425 29.5368 16.0708 29.8863 15.6897 30.5217C15.4356 30.9666 15.245 31.5702 15.245 32.1104C15.245 33.1589 15.9437 33.5401 16.5154 33.5401C16.8013 33.5401 17.0871 33.4448 17.3094 33.286C17.5 33.4448 17.7223 33.5401 18.0082 33.5401C18.7069 33.5401 18.8975 33 19.0563 32.6187C19.1198 32.4599 19.088 32.2375 18.961 32.1104C18.8975 32.0468 18.8339 32.0151 18.7704 31.9833L19.1833 30.0769C19.2151 29.9498 19.1833 29.791 19.088 29.6957C18.9927 29.6003 18.8657 29.5368 18.7387 29.5368H17.8494C17.7858 29.5368 17.7541 29.5368 17.6906 29.5686C17.5635 29.5368 17.4365 29.5368 17.2777 29.5368Z"/></g><defs><clipPath id="clip0"><rect width="70" height="57" fill="#fff" transform="translate(0 14)"/></clipPath></defs></svg>