<svg xmlns="http://www.w3.org/2000/svg" width="76" height="81" fill="none" viewBox="0 0 76 81"><path fill="#411F1F" d="M33.4213 13.552V12.799C33.5383 12.955 33.7033 13.036 33.8863 13.036C34.2613 13.036 34.5283 12.751 34.5283 12.274C34.5283 11.797 34.2613 11.515 33.8863 11.515C33.6973 11.515 33.5293 11.605 33.4213 11.749V11.551H33.1063V13.552H33.4213ZM34.2013 12.274C34.2013 12.556 34.0423 12.757 33.7933 12.757C33.6463 12.757 33.4903 12.667 33.4213 12.562V11.989C33.4903 11.881 33.6463 11.794 33.7933 11.794C34.0423 11.794 34.2013 11.995 34.2013 12.274ZM34.8466 13H35.1616V12.013C35.2246 11.911 35.4016 11.821 35.5336 11.821C35.5726 11.821 35.6056 11.824 35.6326 11.83V11.518C35.4436 11.518 35.2696 11.626 35.1616 11.764V11.551H34.8466V13ZM35.7966 12.274C35.7966 12.733 36.1206 13.036 36.5556 13.036C36.7866 13.036 36.9996 12.964 37.1436 12.826L36.9996 12.619C36.8976 12.721 36.7296 12.778 36.5886 12.778C36.3156 12.778 36.1506 12.598 36.1266 12.379H37.2456V12.304C37.2456 11.848 36.9666 11.515 36.5316 11.515C36.1026 11.515 35.7966 11.854 35.7966 12.274ZM36.5316 11.773C36.8166 11.773 36.9336 11.986 36.9396 12.157H36.1236C36.1386 11.98 36.2616 11.773 36.5316 11.773ZM37.4305 12.811C37.5805 12.958 37.8055 13.036 38.0515 13.036C38.4415 13.036 38.6545 12.841 38.6545 12.586C38.6545 12.244 38.3455 12.172 38.0935 12.118C37.9225 12.079 37.7785 12.04 37.7785 11.929C37.7785 11.827 37.8835 11.767 38.0485 11.767C38.2285 11.767 38.3905 11.842 38.4775 11.941L38.6095 11.719C38.4775 11.602 38.2915 11.515 38.0455 11.515C37.6795 11.515 37.4755 11.719 37.4755 11.956C37.4755 12.28 37.7725 12.346 38.0215 12.4C38.1985 12.439 38.3515 12.484 38.3515 12.61C38.3515 12.718 38.2555 12.787 38.0665 12.787C37.8775 12.787 37.6765 12.688 37.5745 12.583L37.4305 12.811ZM38.8816 12.274C38.8816 12.733 39.2056 13.036 39.6406 13.036C39.8716 13.036 40.0846 12.964 40.2286 12.826L40.0846 12.619C39.9826 12.721 39.8146 12.778 39.6736 12.778C39.4006 12.778 39.2356 12.598 39.2116 12.379H40.3306V12.304C40.3306 11.848 40.0516 11.515 39.6166 11.515C39.1876 11.515 38.8816 11.854 38.8816 12.274ZM39.6166 11.773C39.9016 11.773 40.0186 11.986 40.0246 12.157H39.2086C39.2236 11.98 39.3466 11.773 39.6166 11.773ZM41.6195 13H41.9345V11.98C41.9345 11.683 41.7785 11.515 41.4665 11.515C41.2385 11.515 41.0525 11.635 40.9565 11.749V11.551H40.6415V13H40.9565V11.989C41.0285 11.89 41.1665 11.794 41.3285 11.794C41.5055 11.794 41.6195 11.869 41.6195 12.094V13ZM42.7786 13.036C42.9256 13.036 43.0186 12.997 43.0756 12.943L43.0006 12.706C42.9766 12.733 42.9196 12.757 42.8596 12.757C42.7696 12.757 42.7216 12.685 42.7216 12.586V11.827H43.0156V11.551H42.7216V11.155H42.4066V11.551H42.1666V11.827H42.4066V12.664C42.4066 12.904 42.5356 13.036 42.7786 13.036Z"/><path fill="#FF3008" d="M39.259 77.1705V78.9951H39.741C40.2574 78.9951 40.6361 78.582 40.6361 78.0656C40.6361 77.5836 40.2574 77.1705 39.7754 77.1361H39.741L39.259 77.1705ZM39.741 76.6197C40.6016 76.6197 41.2902 77.2738 41.2902 78.1C41.2902 78.9262 40.6361 79.5803 39.741 79.5803H38.7082C38.6738 79.5803 38.6393 79.5459 38.6393 79.5115V76.6885C38.6393 76.6541 38.6738 76.6197 38.7082 76.6197H39.741Z"/><path fill="#FF3008" d="M43.5279 79.0639C44.0787 79.0639 44.4918 78.6164 44.4918 78.1C44.4918 77.5836 44.0443 77.1361 43.5279 77.1361C42.977 77.1361 42.5639 77.5836 42.5639 78.1C42.5295 78.6508 42.977 79.0639 43.5279 79.0639ZM43.5279 76.5508C44.4574 76.5508 45.1459 77.2393 45.1459 78.1C45.1459 78.9606 44.4574 79.6492 43.5279 79.6492C42.5984 79.6492 41.9098 78.9606 41.9098 78.1C41.9098 77.2393 42.5984 76.5508 43.5279 76.5508Z"/><path fill="#FF3008" d="M47.3836 79.0639C47.9344 79.0639 48.382 78.6164 48.382 78.1C48.382 77.5836 47.9344 77.1016 47.418 77.1016C46.8672 77.1016 46.4197 77.5492 46.4197 78.0656C46.3852 78.6508 46.8328 79.0639 47.3836 79.0639ZM47.3836 76.5508C48.3131 76.5508 49.0016 77.2393 49.0016 78.1C49.0016 78.9606 48.3131 79.6492 47.3836 79.6492C46.4541 79.6492 45.7656 78.9606 45.7656 78.1C45.7656 77.2393 46.4541 76.5508 47.3836 76.5508Z"/><path fill="#FF3008" d="M51.1361 77.1705H50.482V77.9623H51.1361C51.3426 77.9623 51.5148 77.7902 51.5492 77.5836C51.5492 77.3771 51.377 77.2049 51.1361 77.1705C51.1705 77.1705 51.1361 77.1705 51.1361 77.1705ZM49.8279 76.6885C49.8279 76.6541 49.8623 76.6197 49.8967 76.6197H51.1361C51.7213 76.6197 52.1689 77.0672 52.1689 77.5836C52.1689 77.9623 51.9623 78.3066 51.6525 78.4443L52.2377 79.4426C52.2721 79.4771 52.2377 79.5115 52.2033 79.5459H52.1689H51.6525C51.618 79.5459 51.5836 79.5459 51.5836 79.5115L51.0328 78.5475H50.482V79.5115C50.482 79.5459 50.4475 79.5803 50.4131 79.5803H49.9311C49.8967 79.5803 49.8623 79.5459 49.8623 79.5115L49.8279 76.6885Z"/><path fill="#FF3008" d="M53.8557 77.2049V79.0295H54.3377C54.8541 79.0295 55.2328 78.6164 55.2328 78.1C55.2328 77.618 54.8541 77.2049 54.3721 77.1705H54.3377H53.8557V77.2049ZM54.3377 76.6197C55.1984 76.6197 55.8869 77.2738 55.8869 78.1C55.8869 78.9262 55.2328 79.5803 54.3377 79.5803H53.3049C53.2705 79.5803 53.2361 79.5459 53.2361 79.5115V76.6885C53.2361 76.6541 53.2705 76.6197 53.3049 76.6197H54.3377Z"/><path fill="#FF3008" d="M57.8148 77.3426L57.4361 78.3066H58.159L57.8148 77.3426ZM57.2295 78.8918L56.9885 79.5459C56.9885 79.5803 56.9541 79.6148 56.9197 79.5803H56.4033C56.3689 79.5803 56.3344 79.5459 56.3344 79.5115V79.4771L57.4361 76.6541C57.4361 76.6197 57.4705 76.6197 57.5049 76.6197H58.0902C58.1246 76.6197 58.159 76.6541 58.159 76.6541L59.2607 79.4771C59.2951 79.5115 59.2607 79.5459 59.2262 79.5803H59.1918H58.6754C58.641 79.5803 58.6066 79.5459 58.6066 79.5459L58.3656 78.8918H57.2295Z"/><path fill="#FF3008" d="M59.8803 77.4115C59.8803 76.9295 60.2934 76.5508 60.9131 76.5508C61.2574 76.5508 61.6016 76.6541 61.8426 76.8951C61.877 76.9295 61.877 76.9639 61.8426 76.9984L61.5672 77.2738C61.5328 77.3082 61.4984 77.3082 61.4639 77.2738C61.3262 77.1361 61.1541 77.0672 60.982 77.0672C60.741 77.0672 60.5344 77.2049 60.5344 77.377C60.5344 77.9279 62.0492 77.618 62.0492 78.6852C62.0492 79.2016 61.6361 79.6147 60.9131 79.6147C60.5 79.6147 60.1213 79.477 59.8459 79.1672C59.8115 79.1328 59.8115 79.0984 59.8459 79.0639L60.1213 78.7885C60.1557 78.7541 60.1902 78.7541 60.2246 78.7885C60.3967 78.9951 60.6033 79.0984 60.8443 79.0984C61.1541 79.0984 61.3607 78.9262 61.3607 78.7197C61.3951 78.1688 59.8803 78.4787 59.8803 77.4115Z"/><path fill="#FF3008" d="M64.7688 76.6885V77.7902H63.4951V76.6885C63.4951 76.6541 63.4606 76.6197 63.4262 76.6197H62.9442C62.9098 76.6197 62.8754 76.6541 62.8754 76.6885V79.5115C62.8754 79.5459 62.9098 79.5803 62.9442 79.5803H63.4262C63.4606 79.5803 63.4951 79.5459 63.4951 79.5115V78.3754H64.7688V79.5115C64.7688 79.5459 64.8033 79.5803 64.8377 79.5803H65.3197C65.3541 79.5803 65.3885 79.5459 65.3885 79.5115V76.6885C65.3885 76.6541 65.3541 76.6197 65.3197 76.6197H64.8377C64.8033 76.5852 64.7688 76.6197 64.7688 76.6885Z"/><path fill="#FF3008" d="M36.0918 76.9984C35.782 76.3787 35.1279 76 34.4393 76H29.1721C29.0689 76 29 76.0689 29 76.1721C29 76.2066 29.0344 76.2754 29.0689 76.3098L30.2049 77.4459C30.3082 77.5492 30.4459 77.618 30.5836 77.618H34.3016C34.577 77.618 34.7836 77.8246 34.7836 78.1C34.7836 78.3754 34.577 78.582 34.3016 78.582H31.7541C31.6508 78.582 31.5475 78.6508 31.5475 78.7541C31.5475 78.7885 31.582 78.8574 31.6164 78.8918L32.7525 80.0279C32.8557 80.1311 32.9934 80.2 33.1311 80.2H34.3016C35.782 80.2 36.9525 78.582 36.0918 76.9984Z"/><path fill="#411F1F" d="M7.91515 79H8.65915C9.28315 79 9.70615 78.589 9.70615 78.001C9.70615 77.413 9.28315 76.999 8.65915 76.999H7.91515V79ZM8.26615 78.691V77.308H8.65915C9.10615 77.308 9.34615 77.614 9.34615 78.001C9.34615 78.379 9.09415 78.691 8.65915 78.691H8.26615ZM9.94603 78.274C9.94603 78.733 10.27 79.036 10.705 79.036C10.936 79.036 11.149 78.964 11.293 78.826L11.149 78.619C11.047 78.721 10.879 78.778 10.738 78.778C10.465 78.778 10.3 78.598 10.276 78.379H11.395V78.304C11.395 77.848 11.116 77.515 10.681 77.515C10.252 77.515 9.94603 77.854 9.94603 78.274ZM10.681 77.773C10.966 77.773 11.083 77.986 11.089 78.157H10.273C10.288 77.98 10.411 77.773 10.681 77.773ZM11.706 79H12.021V76.999H11.706V79ZM12.5856 77.311C12.6936 77.311 12.7806 77.224 12.7806 77.116C12.7806 77.008 12.6936 76.921 12.5856 76.921C12.4806 76.921 12.3906 77.008 12.3906 77.116C12.3906 77.224 12.4806 77.311 12.5856 77.311ZM12.4296 79H12.7446V77.551H12.4296V79ZM13.5342 79H13.8732L14.4642 77.551H14.1252L13.7022 78.637L13.2792 77.551H12.9432L13.5342 79ZM14.572 78.274C14.572 78.733 14.896 79.036 15.331 79.036C15.562 79.036 15.775 78.964 15.919 78.826L15.775 78.619C15.673 78.721 15.505 78.778 15.364 78.778C15.091 78.778 14.926 78.598 14.902 78.379H16.021V78.304C16.021 77.848 15.742 77.515 15.307 77.515C14.878 77.515 14.572 77.854 14.572 78.274ZM15.307 77.773C15.592 77.773 15.709 77.986 15.715 78.157H14.899C14.914 77.98 15.037 77.773 15.307 77.773ZM16.3319 79H16.6469V78.013C16.7099 77.911 16.8869 77.821 17.0189 77.821C17.0579 77.821 17.0909 77.824 17.1179 77.83V77.518C16.9289 77.518 16.7549 77.626 16.6469 77.764V77.551H16.3319V79ZM17.282 78.274C17.282 78.733 17.606 79.036 18.041 79.036C18.272 79.036 18.485 78.964 18.629 78.826L18.485 78.619C18.383 78.721 18.215 78.778 18.074 78.778C17.801 78.778 17.636 78.598 17.612 78.379H18.731V78.304C18.731 77.848 18.452 77.515 18.017 77.515C17.588 77.515 17.282 77.854 17.282 78.274ZM18.017 77.773C18.302 77.773 18.419 77.986 18.425 78.157H17.609C17.624 77.98 17.747 77.773 18.017 77.773ZM20.0619 79H20.3769V76.999H20.0619V77.752C19.9449 77.599 19.7769 77.515 19.5969 77.515C19.2219 77.515 18.9519 77.809 18.9519 78.277C18.9519 78.754 19.2249 79.036 19.5969 79.036C19.7829 79.036 19.9509 78.946 20.0619 78.802V79ZM20.0619 78.565C19.9899 78.673 19.8369 78.757 19.6869 78.757C19.4379 78.757 19.2789 78.556 19.2789 78.277C19.2789 77.995 19.4379 77.794 19.6869 77.794C19.8369 77.794 19.9899 77.881 20.0619 77.989V78.565ZM22.8186 79H23.1486L23.5986 77.551H23.2716L22.9656 78.604L22.6206 77.551H22.3446L21.9996 78.604L21.6936 77.551H21.3666L21.8166 79H22.1466L22.4826 77.938L22.8186 79ZM23.9733 77.311C24.0813 77.311 24.1683 77.224 24.1683 77.116C24.1683 77.008 24.0813 76.921 23.9733 76.921C23.8683 76.921 23.7783 77.008 23.7783 77.116C23.7783 77.224 23.8683 77.311 23.9733 77.311ZM23.8173 79H24.1323V77.551H23.8173V79ZM24.9759 79.036C25.1229 79.036 25.2159 78.997 25.2729 78.943L25.1979 78.706C25.1739 78.733 25.1169 78.757 25.0569 78.757C24.9669 78.757 24.9189 78.685 24.9189 78.586V77.827H25.2129V77.551H24.9189V77.155H24.6039V77.551H24.3639V77.827H24.6039V78.664C24.6039 78.904 24.7329 79.036 24.9759 79.036ZM26.4799 79H26.7949V77.974C26.7949 77.677 26.6389 77.515 26.3269 77.515C26.0989 77.515 25.9099 77.635 25.8139 77.749V76.999H25.4989V79H25.8139V77.989C25.8889 77.89 26.0269 77.794 26.1859 77.794C26.3629 77.794 26.4799 77.863 26.4799 78.088V79Z"/><line x1="46" x2="59" y1="12.884" y2="12.884" stroke="#411F1F" stroke-width=".233"/><line x1="16" x2="30" y1="12.887" y2="12.887" stroke="#411F1F" stroke-width=".227"/><path fill="#fff" d="M72.237 45.9956C74.3919 45.9956 76 44.3522 76 42.1933C76 40.0022 74.424 38.3267 72.3013 38.3267C71.7224 38.3267 71.1756 38.4233 70.6932 38.6167C70.3716 38.4233 70.0178 38.3267 69.664 38.3267H68.7634C68.7634 37.94 68.6991 37.6178 68.6348 37.36C68.7313 37.1344 68.7634 36.9089 68.7634 36.6511V35.2011C68.7634 35.0722 68.7634 34.9111 68.7313 34.7822C68.7634 34.6533 68.7634 34.5244 68.7634 34.3633V33.0744C68.7634 27.9511 65.9331 22.8922 61.0123 19.2189C55.5446 15.1589 47.9865 13 39.1418 13C19.6835 13 9.16631 23.3433 9.16631 33.0744V33.3644C6.33601 35.04 4.6314 37.4889 4.59924 40.0667C2.25138 40.4856 0 42.3222 0 44.6422C0 45.8022 0.5146 46.7044 1.38299 47.22L0.90055 49.4111C0.7719 50.0556 0.932713 50.7 1.38299 51.1833C1.8011 51.6667 2.44435 51.8922 3.05544 51.8278H3.0876C3.3449 51.8278 3.98815 52.3433 4.3741 52.6333C4.82438 52.9878 5.33898 53.3744 5.9179 53.6967C5.72493 54.0189 5.59628 54.4378 5.62844 54.8567L5.6606 55.7267C5.53195 56.0167 5.43546 56.3711 5.46763 56.6933L5.53195 58.1756C5.56411 58.7233 5.78925 59.2067 6.20736 59.5611C6.59331 59.9156 7.10791 60.1089 7.65468 60.0767L8.61955 60.0122C8.65171 60.0122 8.71604 60.0122 8.7482 60.0122C8.90901 60.0122 8.94118 60.0122 9.16631 60.1411V60.3667C9.16631 70.9678 18.4613 70.9678 26.6306 70.9678H51.267C59.4685 70.9678 68.7313 70.9678 68.7313 60.3667V59.0778C68.7313 58.6911 68.6348 58.3367 68.4418 58.0144C69.0851 57.6922 69.5675 57.3378 69.9534 57.0478C70.5002 56.6611 70.5002 56.6611 70.8218 56.6289L71.7867 56.5644C72.3335 56.5322 72.8159 56.3067 73.1697 55.8878C73.5235 55.5011 73.7165 54.9533 73.6843 54.4378L73.62 52.9556C73.5878 52.6011 73.4913 52.2789 73.3305 51.9889L73.2983 51.1189C73.2662 50.5711 73.0411 50.0878 72.6229 49.7333C72.237 49.3789 71.6902 49.1856 71.1756 49.2178L70.468 49.25C70.2429 49.25 70.0178 49.2822 69.7926 49.3144L70.5967 45.5122C71.1435 45.9311 71.7867 45.9956 72.237 45.9956Z"/><path fill="#AB7029" d="M66.7372 33.0744C66.7372 24.5033 57.4101 15.03 39.1418 15.03C20.8735 15.03 11.1926 24.5356 11.1926 33.0744V34.3633H66.7372V33.0744Z"/><path fill="#9C6226" d="M33.1595 17.5433H31.3584C31.262 17.5433 31.1976 17.6078 31.1655 17.6722C31.1333 17.7367 31.1011 17.8656 31.1011 18.0589C31.1011 18.2522 31.1333 18.3811 31.1655 18.4456C31.1976 18.5422 31.2941 18.5744 31.3584 18.5744H33.1595C33.256 18.5744 33.3204 18.51 33.3525 18.4456C33.3847 18.3811 33.4168 18.2522 33.4168 18.0589C33.4168 17.8656 33.3847 17.7367 33.3525 17.6722C33.3204 17.5756 33.2239 17.5433 33.1595 17.5433Z"/><path fill="#9C6226" d="M39.9137 17.5433H38.1126C38.0161 17.5433 37.9518 17.6078 37.9196 17.6722C37.8874 17.7367 37.8553 17.8656 37.8553 18.0589C37.8553 18.2522 37.8874 18.3811 37.9196 18.4456C37.9518 18.5422 38.0482 18.5744 38.1126 18.5744H39.9137C40.0102 18.5744 40.0745 18.51 40.1066 18.4456C40.1388 18.3811 40.171 18.2522 40.171 18.0589C40.171 17.8656 40.1388 17.7367 40.1066 17.6722C40.0745 17.5756 39.978 17.5433 39.9137 17.5433Z"/><path fill="#9C6226" d="M46.6356 17.5433H44.8345C44.738 17.5433 44.6737 17.6078 44.6416 17.6722C44.6094 17.7367 44.5772 17.8656 44.5772 18.0589C44.5772 18.2522 44.6094 18.3811 44.6416 18.4456C44.6737 18.5422 44.7702 18.5744 44.8345 18.5744H46.6356C46.7321 18.5744 46.7964 18.51 46.8286 18.4456C46.8608 18.3811 46.8929 18.2522 46.8929 18.0589C46.8929 17.8656 46.8608 17.7367 46.8286 17.6722C46.8286 17.5756 46.7321 17.5433 46.6356 17.5433Z"/><path fill="#9C6226" d="M29.7503 21.5711H27.9492C27.8527 21.5711 27.7884 21.6356 27.7563 21.7C27.7241 21.7644 27.6919 21.8933 27.6919 22.0867C27.6919 22.28 27.7241 22.4089 27.7563 22.4733C27.7884 22.57 27.8849 22.6022 27.9492 22.6022H29.7503C29.8468 22.6022 29.9111 22.5378 29.9433 22.4733C29.9755 22.4089 30.0076 22.28 30.0076 22.0867C30.0076 21.8933 29.9755 21.7644 29.9433 21.7C29.9433 21.6356 29.8468 21.5711 29.7503 21.5711Z"/><path fill="#9C6226" d="M36.5044 21.5711H34.7034C34.6069 21.5711 34.5425 21.6356 34.5104 21.7C34.4782 21.7644 34.4461 21.8933 34.4461 22.0867C34.4461 22.28 34.4782 22.4089 34.5104 22.4733C34.5425 22.57 34.639 22.6022 34.7034 22.6022H36.5044C36.6009 22.6022 36.6653 22.5378 36.6974 22.4733C36.7296 22.4089 36.7617 22.28 36.7617 22.0867C36.7617 21.8933 36.7296 21.7644 36.6974 21.7C36.6653 21.6356 36.6009 21.5711 36.5044 21.5711Z"/><path fill="#9C6226" d="M23.0284 21.5711H21.2273C21.1308 21.5711 21.0664 21.6356 21.0343 21.7C21.0021 21.7644 20.97 21.8933 20.97 22.0867C20.97 22.28 21.0021 22.4089 21.0343 22.4733C21.0664 22.57 21.1629 22.6022 21.2273 22.6022H23.0284C23.1248 22.6022 23.1892 22.5378 23.2213 22.4733C23.2535 22.4089 23.2857 22.28 23.2857 22.0867C23.2857 21.8933 23.2535 21.7644 23.2213 21.7C23.2213 21.6356 23.1248 21.5711 23.0284 21.5711Z"/><path fill="#9C6226" d="M43.2586 21.5711H41.4575C41.361 21.5711 41.2967 21.6356 41.2645 21.7C41.2323 21.7644 41.2002 21.8933 41.2002 22.0867C41.2002 22.28 41.2323 22.4089 41.2645 22.4733C41.2967 22.57 41.3932 22.6022 41.4575 22.6022H43.2586C43.3551 22.6022 43.4194 22.5378 43.4515 22.4733C43.4837 22.4089 43.5159 22.28 43.5159 22.0867C43.5159 21.8933 43.4837 21.7644 43.4515 21.7C43.4194 21.6356 43.3551 21.5711 43.2586 21.5711Z"/><path fill="#9C6226" d="M50.0127 21.5711H48.2116C48.1151 21.5711 48.0508 21.6356 48.0186 21.7C47.9865 21.7644 47.9543 21.8933 47.9543 22.0867C47.9543 22.28 47.9865 22.4089 48.0186 22.4733C48.0508 22.57 48.1473 22.6022 48.2116 22.6022H50.0127C50.1092 22.6022 50.1735 22.5378 50.2057 22.4733C50.2378 22.4089 50.27 22.28 50.27 22.0867C50.27 21.8933 50.2378 21.7644 50.2057 21.7C50.1735 21.6356 50.1092 21.5711 50.0127 21.5711Z"/><path fill="#9C6226" d="M56.7668 21.5711H54.9657C54.8692 21.5711 54.8049 21.6356 54.7728 21.7C54.7406 21.7644 54.7084 21.8933 54.7084 22.0867C54.7084 22.28 54.7406 22.4089 54.7728 22.4733C54.8049 22.57 54.9014 22.6022 54.9657 22.6022H56.7668C56.8633 22.6022 56.9276 22.5378 56.9598 22.4733C56.992 22.4089 57.0241 22.28 57.0241 22.0867C57.0241 21.8933 56.992 21.7644 56.9598 21.7C56.9276 21.6356 56.8633 21.5711 56.7668 21.5711Z"/><path fill="#9C6226" d="M33.1595 25.7922H31.3584C31.262 25.7922 31.1976 25.8567 31.1655 25.9211C31.1333 25.9856 31.1011 26.1144 31.1011 26.3078C31.1011 26.5011 31.1333 26.63 31.1655 26.6944C31.1976 26.7911 31.2941 26.8233 31.3584 26.8233H33.1595C33.256 26.8233 33.3204 26.7589 33.3525 26.6944C33.3847 26.63 33.4168 26.5011 33.4168 26.3078C33.4168 26.1144 33.3847 25.9856 33.3525 25.9211C33.3204 25.8244 33.2239 25.7922 33.1595 25.7922Z"/><path fill="#9C6226" d="M39.9137 25.7922H38.1126C38.0161 25.7922 37.9518 25.8567 37.9196 25.9211C37.8874 25.9856 37.8553 26.1144 37.8553 26.3078C37.8553 26.5011 37.8874 26.63 37.9196 26.6944C37.9518 26.7911 38.0482 26.8233 38.1126 26.8233H39.9137C40.0102 26.8233 40.0745 26.7589 40.1066 26.6944C40.1388 26.63 40.171 26.5011 40.171 26.3078C40.171 26.1144 40.1388 25.9856 40.1066 25.9211C40.0745 25.8244 39.978 25.7922 39.9137 25.7922Z"/><path fill="#9C6226" d="M46.6356 25.7922H44.8345C44.738 25.7922 44.6737 25.8567 44.6416 25.9211C44.6094 25.9856 44.5772 26.1144 44.5772 26.3078C44.5772 26.5011 44.6094 26.63 44.6416 26.6944C44.6737 26.7911 44.7702 26.8233 44.8345 26.8233H46.6356C46.7321 26.8233 46.7964 26.7589 46.8286 26.6944C46.8608 26.63 46.8929 26.5011 46.8929 26.3078C46.8929 26.1144 46.8608 25.9856 46.8286 25.9211C46.8286 25.8244 46.7321 25.7922 46.6356 25.7922Z"/><path fill="#9C6226" d="M36.5044 29.82H34.7034C34.6069 29.82 34.5425 29.8844 34.5104 29.9489C34.4782 30.0133 34.4461 30.1422 34.4461 30.3356C34.4461 30.5289 34.4782 30.6578 34.5104 30.7222C34.5425 30.8189 34.639 30.8511 34.7034 30.8511H36.5044C36.6009 30.8511 36.6653 30.7867 36.6974 30.7222C36.7296 30.6578 36.7617 30.5289 36.7617 30.3356C36.7617 30.1422 36.7296 30.0133 36.6974 29.9489C36.6653 29.8844 36.6009 29.82 36.5044 29.82Z"/><path fill="#9C6226" d="M43.2586 29.82H41.4575C41.361 29.82 41.2967 29.8844 41.2645 29.9489C41.2323 30.0133 41.2002 30.1422 41.2002 30.3356C41.2002 30.5289 41.2323 30.6578 41.2645 30.7222C41.2967 30.8189 41.3932 30.8511 41.4575 30.8511H43.2586C43.3551 30.8511 43.4194 30.7867 43.4515 30.7222C43.4837 30.6578 43.5159 30.5289 43.5159 30.3356C43.5159 30.1422 43.4837 30.0133 43.4515 29.9489C43.4194 29.8844 43.3551 29.82 43.2586 29.82Z"/><path fill="#9C6226" d="M53.3576 25.7922H51.6208C51.5243 25.7922 51.46 25.8567 51.4278 25.9211C51.3957 25.9856 51.3635 26.1144 51.3635 26.3078C51.3635 26.5011 51.3957 26.63 51.4278 26.6944C51.46 26.7911 51.5565 26.8233 51.6208 26.8233H53.3576C53.4541 26.8233 53.5184 26.7589 53.5506 26.6944C53.5827 26.63 53.6149 26.5011 53.6149 26.3078C53.6149 26.1144 53.5827 25.9856 53.5506 25.9211C53.5184 25.8244 53.4219 25.7922 53.3576 25.7922Z"/><path fill="#9C6226" d="M60.3047 25.9211C60.2725 25.8244 60.176 25.7922 60.1117 25.7922H58.3106C58.2141 25.7922 58.1498 25.8567 58.1176 25.9211C58.0855 25.9856 58.0533 26.1144 58.0533 26.3078C58.0533 26.5011 58.0855 26.63 58.1176 26.6944C58.1498 26.7911 58.2463 26.8233 58.3106 26.8233H60.1117C60.2082 26.8233 60.2725 26.7589 60.3047 26.6944C60.3369 26.63 60.369 26.5011 60.369 26.3078C60.369 26.1144 60.3369 25.9856 60.3047 25.9211Z"/><path fill="#9C6226" d="M56.7668 29.82H54.9014C54.8049 29.82 54.7406 29.8844 54.7084 29.9489C54.6763 30.0133 54.6441 30.1422 54.6441 30.3356C54.6441 30.5289 54.6763 30.6578 54.7084 30.7222C54.7406 30.8189 54.8371 30.8511 54.9014 30.8511H56.7668C56.8633 30.8511 56.9276 30.7867 56.9598 30.7222C56.992 30.6578 57.0241 30.5289 57.0241 30.3356C57.0241 30.1422 56.992 30.0133 56.9598 29.9489C56.9276 29.8844 56.8633 29.82 56.7668 29.82Z"/><path fill="#9C6226" d="M49.9805 29.82H48.2116C48.1151 29.82 48.0508 29.8844 48.0186 29.9489C47.9865 30.0133 47.9543 30.1422 47.9543 30.3356C47.9543 30.5289 47.9865 30.6578 48.0186 30.7222C48.0508 30.8189 48.1473 30.8511 48.2116 30.8511H49.9805C50.077 30.8511 50.1414 30.7867 50.1735 30.7222C50.2057 30.6578 50.2378 30.5289 50.2378 30.3356C50.2378 30.1422 50.2057 30.0133 50.1735 29.9489C50.1735 29.8844 50.077 29.82 49.9805 29.82Z"/><path fill="#9C6226" d="M19.6513 25.7922H17.8502C17.7537 25.7922 17.6894 25.8567 17.6572 25.9211C17.6251 25.9856 17.5929 26.1144 17.5929 26.3078C17.5929 26.5011 17.6251 26.63 17.6572 26.6944C17.6894 26.7911 17.7859 26.8233 17.8502 26.8233H19.6513C19.7478 26.8233 19.8121 26.7589 19.8443 26.6944C19.8764 26.63 19.9086 26.5011 19.9086 26.3078C19.9086 26.1144 19.8764 25.9856 19.8443 25.9211C19.8121 25.8244 19.7156 25.7922 19.6513 25.7922Z"/><path fill="#9C6226" d="M26.4054 25.7922H24.6043C24.5078 25.7922 24.4435 25.8567 24.4113 25.9211C24.3792 25.9856 24.347 26.1144 24.347 26.3078C24.347 26.5011 24.3792 26.63 24.4113 26.6944C24.4435 26.7911 24.54 26.8233 24.6043 26.8233H26.4054C26.5019 26.8233 26.5662 26.7589 26.5984 26.6944C26.6306 26.63 26.6627 26.5011 26.6627 26.3078C26.6627 26.1144 26.6306 25.9856 26.5984 25.9211C26.5662 25.8244 26.4697 25.7922 26.4054 25.7922Z"/><path fill="#9C6226" d="M22.9962 29.82H21.2273C21.1308 29.82 21.0664 29.8844 21.0343 29.9489C21.0021 30.0133 20.97 30.1422 20.97 30.3356C20.97 30.5289 21.0021 30.6578 21.0343 30.7222C21.0664 30.8189 21.1629 30.8511 21.2273 30.8511H22.9962C23.0927 30.8511 23.157 30.7867 23.1892 30.7222C23.2213 30.6578 23.2535 30.5289 23.2535 30.3356C23.2535 30.1422 23.2213 30.0133 23.1892 29.9489C23.157 29.8844 23.0927 29.82 22.9962 29.82Z"/><path fill="#9C6226" d="M29.879 29.8522C29.8468 29.82 29.7825 29.82 29.7503 29.82H27.9492C27.8527 29.82 27.7884 29.8844 27.7563 29.9489C27.7241 30.0133 27.6919 30.1422 27.6919 30.3356C27.6919 30.5289 27.7241 30.6578 27.7563 30.7222C27.7884 30.8189 27.8849 30.8511 27.9492 30.8511H29.7503C29.8468 30.8511 29.9111 30.7867 29.9433 30.7222C29.9755 30.6578 30.0076 30.5289 30.0076 30.3356C30.0076 30.1422 29.9755 30.0133 29.9433 29.9489C29.9433 29.9167 29.9111 29.8844 29.879 29.8522Z"/><path fill="#B32029" d="M66.7372 40.3244C66.7372 40.8722 66.7372 41.2911 66.1904 41.2911H11.7393C11.1926 41.2911 11.1926 40.8722 11.1926 40.3244V38.4556C11.1926 37.9078 11.1926 37.4889 11.7393 37.4889H66.1904C66.7372 37.4889 66.7372 37.9078 66.7372 38.4556V40.3244Z"/><path fill="#FAA21E" d="M66.7694 35.1689H11.1926V36.6189H66.7694V35.1689Z"/><path fill="#FAA21E" d="M47.1502 35.6844L39.1096 40.5178L30.7795 35.6844H47.1502Z"/><path fill="#AB7029" d="M11.1926 59.11V60.3989C11.1926 68.97 18.1075 69.0022 26.6627 69.0022H51.2992C59.8544 69.0022 66.7694 68.97 66.7694 60.3989V59.11H11.1926Z"/><path fill="#A9AE38" d="M13.9585 60.6889C13.9585 62.0422 14.055 62.9767 15.9204 62.0422C17.7859 61.1078 20.0372 59.8833 24.7973 59.98C23.0284 60.4956 20.97 61.43 20.777 62.6544C20.584 63.9111 21.8062 64.4267 24.5078 63.7822C24.8295 64.91 25.9551 66.1667 28.3352 64.1044C30.7152 62.0422 32.066 61.2044 33.1917 60.7856C34.3174 60.3667 34.639 60.9789 33.3847 61.72C32.1303 62.4289 31.0047 62.8478 30.8117 63.6856C30.6187 64.5233 30.8117 65.8444 32.8701 65.2322C32.8701 66.6822 33.2882 67.9067 35.025 67.9067C36.7939 67.9067 37.5015 66.9722 37.5015 65.2322C38.6272 65.8444 40.2996 66.2633 40.3961 63.9756C40.4926 61.6878 41.5218 60.6567 42.551 60.1411C43.5802 59.6256 43.7732 60.5922 43.0656 60.85C42.1329 61.2044 41.7469 61.8811 41.7148 62.6222C41.6826 63.5567 43.2907 64.9422 44.931 63.2344C45.0597 64.2333 46.8929 64.8778 47.504 62.8156C48.1151 60.7533 48.3081 59.4644 50.1735 59.4C48.887 59.8833 48.1151 61.7844 49.7554 62.3967C51.3957 63.0089 52.2319 61.4622 52.4249 60.9467C52.6179 60.4311 53.1325 59.3033 54.7084 59.4C53.3576 60.0122 53.3576 62.0744 54.7084 62.2033C56.0593 62.3 56.5739 61.8811 57.6031 60.9467C58.6323 60.0122 60.6907 58.9811 63.2958 59.4C62.7812 60.7533 63.7139 61.3011 64.5502 61.14C65.5794 60.9467 65.4829 59.8189 65.8045 59.0778H12.865V59.11C12.0288 59.6578 11.4499 61.8167 13.9585 60.6889Z"/><path fill="#B32029" d="M8.39441 56.0489C9.39145 55.9844 9.80956 56.2422 10.5493 56.6611C11.4177 57.1767 12.6077 57.8533 14.7304 57.7244C16.8532 57.5956 17.9467 56.79 18.7829 56.21C19.4583 55.7267 19.8443 55.4367 20.8413 55.3722C21.8383 55.3078 22.2565 55.5656 22.9962 55.9844C23.8646 56.5 25.0546 57.1767 27.1773 57.0478C29.3 56.9189 30.3936 56.1133 31.2298 55.5333C31.9052 55.05 32.2912 54.76 33.3204 54.6956C34.3174 54.6311 34.7677 54.8889 35.4752 55.3078C36.3436 55.8233 37.5336 56.5 39.6564 56.3711C41.7791 56.2422 42.8726 55.4367 43.7088 54.8567C44.3843 54.3733 44.7702 54.0833 45.7673 54.0189C46.7643 53.9544 47.2146 54.2122 47.9221 54.6311C48.7905 55.1467 49.9805 55.8233 52.1033 55.6944C54.226 55.5656 55.3195 54.76 56.1557 54.18C56.8312 53.6967 57.2171 53.4067 58.2141 53.3422C59.2112 53.2778 59.6615 53.5356 60.369 53.9544C61.2374 54.47 62.4274 55.1467 64.5502 55.0178C66.6729 54.8889 67.7664 54.0833 68.6026 53.5033C69.278 53.02 69.664 52.73 70.6932 52.6656L71.4008 52.6333L71.3364 51.28L70.6289 51.3122C68.4418 51.4411 67.284 52.2789 66.4478 52.8911C65.8045 53.3744 65.4185 53.6322 64.518 53.6967C63.5853 53.7611 63.1993 53.5356 62.4918 53.1167C61.5912 52.6011 60.369 51.8922 58.182 52.0211C55.9949 52.15 54.8371 52.9878 54.0009 53.6C53.3576 54.0833 52.9717 54.3411 52.0711 54.4056C51.1384 54.47 50.7524 54.2444 50.0449 53.8256C49.1443 53.31 47.9221 52.6011 45.7351 52.73C43.548 52.8589 42.3902 53.6967 41.554 54.3089C40.9107 54.7922 40.5248 55.05 39.6242 55.1144C38.6915 55.1789 38.3055 54.9533 37.598 54.5344C36.6974 54.0189 35.4752 53.31 33.2882 53.4389C31.1011 53.5678 29.9433 54.4056 29.1071 55.0178C28.4638 55.5011 28.0779 55.7589 27.1773 55.8233C26.2446 55.8878 25.8587 55.6622 25.1511 55.2433C24.2505 54.7278 23.0284 54.0189 20.8413 54.1478C18.6543 54.2767 17.4964 55.1144 16.6602 55.7267C16.0169 56.21 15.631 56.4678 14.7304 56.5322C13.7977 56.5967 13.4118 56.3711 12.7042 55.9522C11.8036 55.4367 10.5815 54.7278 8.39441 54.8567L7.68684 54.8889L7.75116 56.2422L8.39441 56.0489Z"/><path fill="#B32029" d="M68.8599 53.9222C67.9915 54.5667 66.8015 55.4044 64.5501 55.5333C62.2988 55.6622 61.0123 54.9211 60.1117 54.4056C59.4363 54.0189 59.0825 53.8256 58.2463 53.8578C57.4101 53.89 57.0884 54.1478 56.4452 54.5989C55.5768 55.2433 54.3868 56.0811 52.1354 56.21C49.884 56.3389 48.5975 55.5978 47.697 55.0822C47.0216 54.6956 46.6678 54.5022 45.8316 54.5344C44.9953 54.5667 44.6737 54.8244 44.0305 55.2756C43.1621 55.92 41.9721 56.7578 39.7207 56.8867C37.4693 57.0156 36.1828 56.2744 35.2823 55.7589C34.6069 55.3722 34.2531 55.1789 33.4168 55.2111C32.5806 55.2433 32.259 55.5011 31.6157 55.9522C30.7474 56.5967 29.5573 57.4344 27.306 57.5633C25.0546 57.6922 23.7681 56.9511 22.8675 56.4356C22.1921 56.0489 21.8383 55.8556 21.0021 55.8878C20.1659 55.92 19.8443 56.1778 19.201 56.6289C18.3326 57.2733 17.1426 58.1111 14.8912 58.24C12.6399 58.3689 11.3534 57.6278 10.4528 57.1122C9.7774 56.7256 9.42361 56.5322 8.58739 56.5644L7.62251 56.6289L7.68684 58.1111L8.65171 58.0467C9.58443 57.9822 9.97038 58.2078 10.678 58.6267C11.5785 59.1422 12.8007 59.8511 14.9877 59.7222C17.1748 59.5933 18.3326 58.7556 19.1689 58.1433C19.8121 57.66 20.1981 57.4022 21.0986 57.3378C22.0313 57.2733 22.4173 57.4989 23.1248 57.9178C24.0254 58.4333 25.2476 59.1422 27.4346 59.0133C29.6217 58.8844 30.7795 58.0467 31.6157 57.4344C32.259 56.9511 32.6449 56.6933 33.5455 56.6289C34.4782 56.5644 34.8642 56.79 35.5717 57.2089C36.4723 57.7244 37.6945 58.4333 39.8815 58.3044C42.0686 58.1756 43.2264 57.3378 44.0626 56.7256C44.7059 56.2422 45.0918 55.9844 45.9924 55.92C46.9251 55.8556 47.311 56.0811 48.0186 56.5C48.9192 57.0156 50.1413 57.7244 52.3284 57.5956C54.5154 57.4667 55.6733 56.6289 56.5095 56.0167C57.1528 55.5333 57.5387 55.2756 58.4393 55.2111C59.372 55.1467 59.7579 55.3722 60.4655 55.7911C61.3661 56.3067 62.5882 57.0156 64.7753 56.8867C66.9623 56.7578 68.1202 55.92 68.9564 55.3078C69.5997 54.8244 69.9856 54.5667 70.8862 54.5022L71.851 54.4378L71.7546 52.9556L70.7897 53.02C69.7926 53.2133 69.5032 53.4389 68.8599 53.9222Z"/><path fill="#6D1D0E" d="M23.1248 59.6256L25.2476 53.4389H26.5662V59.6256L28.7533 53.4389H29.4609L26.6627 60.9789H25.1832V55.8233L23.1892 60.9789H21.7097V54.0511C20.6162 54.4056 20.0694 55.1789 20.0694 56.3067C20.0694 56.8222 20.198 56.9189 20.198 56.9833C19.4905 56.9833 19.1045 56.7256 19.1045 56.0167C19.1045 54.6633 20.9699 53.3744 22.6424 53.3744C22.771 53.3744 22.8997 53.3744 23.0605 53.4067L23.1248 59.6256Z"/><path fill="#fff" d="M26.6306 61.8167H25.1511C24.7008 61.8167 24.3149 61.43 24.3149 60.9789V60.2378L23.9289 61.2689C23.8003 61.5911 23.5108 61.7844 23.157 61.7844H21.6775C21.2273 61.7844 20.8413 61.3978 20.8413 60.9467V57.4667C20.8091 57.4989 20.8091 57.4989 20.777 57.5311C20.6162 57.6922 20.391 57.7889 20.1659 57.7889C18.4291 57.7889 18.2683 56.5322 18.2683 55.9844C18.2683 54.0511 20.6162 52.5367 22.6424 52.5367C22.8032 52.5367 22.964 52.5367 23.1248 52.5689C23.543 52.6011 23.8967 52.9556 23.8967 53.3744L23.9289 54.8567L24.5078 53.1489C24.6365 52.8267 24.9259 52.6011 25.2797 52.6011H26.5984C27.0487 52.6011 27.4346 52.9878 27.4346 53.4389V54.76L28.0135 53.1489C28.1422 52.8267 28.4317 52.6011 28.7854 52.6011H29.493C29.7503 52.6011 30.0076 52.73 30.1684 52.9555C30.3292 53.1811 30.3614 53.4711 30.2649 53.7289L27.4668 61.2689C27.2738 61.5911 26.9843 61.8167 26.6306 61.8167ZM25.537 55.0822C25.6014 55.1144 25.6657 55.1789 25.73 55.2433V54.5344L25.537 55.0822Z"/><path fill="#6D1D0E" d="M30.1041 60.1733C30.9082 60.1733 31.3906 59.7222 31.9052 59.1422H32.259C31.6801 60.0767 30.8117 61.0111 29.493 61.0111C28.5281 61.0111 27.917 60.56 27.917 59.4C27.917 58.24 28.5603 55.7911 30.6509 55.7911C31.5514 55.7911 31.7765 56.2422 31.7765 56.7578C31.7765 57.9178 30.6509 58.82 29.4608 58.8844C29.4608 59.0133 29.4287 59.1744 29.4287 59.3033C29.3965 60.0122 29.6217 60.1733 30.1041 60.1733ZM30.7152 56.3711C30.2006 56.3711 29.7181 57.4667 29.493 58.4656C30.2649 58.4011 30.9725 57.6278 30.9725 56.79C30.9725 56.5322 30.9082 56.3711 30.7152 56.3711Z"/><path fill="#fff" d="M29.4608 61.8489C27.9492 61.8489 27.0487 60.9467 27.0487 59.4C27.0487 57.5633 28.1422 54.9533 30.6187 54.9533C31.8087 54.9533 32.5485 55.63 32.5485 56.7578C32.5485 57.3056 32.3876 57.8533 32.066 58.3044H32.2268C32.5163 58.3044 32.8058 58.4656 32.9344 58.7233C33.0952 58.9811 33.0631 59.3033 32.9022 59.5611C32.0339 61.1078 30.8438 61.8489 29.4608 61.8489Z"/><path fill="#6D1D0E" d="M33.9958 60.1733C34.7998 60.1733 35.2823 59.7222 35.7969 59.1422H36.1507C35.5717 60.0767 34.7034 61.0111 33.3847 61.0111C32.4198 61.0111 31.8087 60.56 31.8087 59.4C31.8087 58.24 32.452 55.7911 34.5425 55.7911C35.4431 55.7911 35.6682 56.2422 35.6682 56.7578C35.6682 57.9178 34.5425 58.82 33.3525 58.8844C33.3525 59.0133 33.3204 59.1744 33.3204 59.3033C33.256 60.0122 33.5133 60.1733 33.9958 60.1733ZM34.5747 56.3711C34.0601 56.3711 33.5777 57.4667 33.3525 58.4656C34.1244 58.4011 34.832 57.6278 34.832 56.79C34.832 56.5322 34.7677 56.3711 34.5747 56.3711Z"/><path fill="#fff" d="M33.3525 61.8489C31.8409 61.8489 30.9403 60.9467 30.9403 59.4C30.9403 57.5633 32.0339 54.9533 34.5104 54.9533C35.7004 54.9533 36.4401 55.63 36.4401 56.7578C36.4401 57.3056 36.2471 57.8533 35.9255 58.3044H36.1185C36.408 58.3044 36.6974 58.4656 36.8261 58.7233C36.9869 58.9811 36.9547 59.3033 36.7939 59.5611C35.8934 61.1078 34.7355 61.8489 33.3525 61.8489Z"/><path fill="#6D1D0E" d="M40.5569 55.92L38.5307 57.3378C38.6272 57.3056 38.7558 57.3056 38.8523 57.3056C39.592 57.3056 39.978 57.8533 39.978 58.4978C39.978 58.6267 39.978 58.7556 39.9458 58.8844L39.8493 59.4C39.8172 59.4967 39.785 59.6256 39.785 59.7222C39.785 59.9156 39.8815 60.1089 40.171 60.1089C40.4283 60.1089 40.4604 60.0767 40.5248 60.0444C40.4604 60.7533 39.8493 61.0756 39.592 61.0756C38.7558 61.0756 38.3055 60.6567 38.3055 59.9156C38.3055 59.7544 38.3377 59.5933 38.3699 59.4L38.4664 59.0133C38.4985 58.8844 38.4985 58.7556 38.4985 58.6267C38.4985 58.3367 38.402 58.1433 38.1447 58.1433C37.9196 58.1433 37.6945 58.2722 37.405 58.53L36.8904 61.0433H35.4431L36.9226 54.1478L38.4342 53.9545L37.6623 57.5311L39.6242 55.9844H40.5569V55.92Z"/><path fill="#fff" d="M39.592 61.8489C38.7237 61.8489 38.0482 61.4944 37.7266 60.8822L37.6623 61.14C37.5658 61.5267 37.2442 61.7844 36.8582 61.7844H35.4109C35.1536 61.7844 34.9285 61.6556 34.7677 61.4622C34.6069 61.2689 34.5425 61.0111 34.6069 60.7533L36.0863 53.8578C36.1507 53.5033 36.4401 53.2456 36.7939 53.2133L38.3055 53.02C38.5628 52.9878 38.8523 53.0844 39.0131 53.2778C39.2061 53.4711 39.2704 53.7611 39.2061 54.0189L38.9166 55.34L39.0774 55.2111C39.2383 55.0822 39.3991 55.0178 39.592 55.0178H40.5891C40.9429 55.0178 41.2645 55.2433 41.3931 55.5978C41.4896 55.9522 41.361 56.3067 41.0715 56.5322L40.3639 57.0156C40.6534 57.37 40.8464 57.8533 40.8464 58.4011C40.8464 58.5944 40.8142 58.7878 40.7821 58.9811L40.7499 59.1422C40.8464 59.1744 40.9429 59.2067 41.0394 59.2711C41.2645 59.4322 41.3931 59.7222 41.3931 60.0122C41.2645 61.2044 40.2675 61.8489 39.592 61.8489Z"/><path fill="#411F1F" d="M23.1248 59.6256L25.2476 53.4389H26.5662V59.6256L28.7533 53.4389H29.4609L26.6627 60.9789H25.1832V55.8233L23.1892 60.9789H21.7097V54.0511C20.6162 54.4056 20.0694 55.1789 20.0694 56.3067C20.0694 56.8222 20.1981 56.9189 20.1981 56.9833C19.4905 56.9833 19.1045 56.7256 19.1045 56.0167C19.1045 54.6633 20.97 53.3744 22.6424 53.3744C22.7711 53.3744 22.8997 53.3744 23.0605 53.4067L23.1248 59.6256Z"/><path fill="#411F1F" d="M30.1041 60.1733C30.9082 60.1733 31.3906 59.7222 31.9052 59.1422H32.259C31.6801 60.0767 30.8117 61.0111 29.493 61.0111C28.5281 61.0111 27.9171 60.56 27.9171 59.4C27.9171 58.24 28.5603 55.7911 30.6509 55.7911C31.5514 55.7911 31.7766 56.2422 31.7766 56.7578C31.7766 57.9178 30.6509 58.82 29.4609 58.8844C29.4609 59.0133 29.4287 59.1744 29.4287 59.3033C29.3965 60.0122 29.6217 60.1733 30.1041 60.1733ZM30.7152 56.3711C30.2006 56.3711 29.7182 57.4667 29.493 58.4656C30.2649 58.4011 30.9725 57.6278 30.9725 56.79C30.9725 56.5322 30.9082 56.3711 30.7152 56.3711Z"/><path fill="#411F1F" d="M33.9958 60.1733C34.7998 60.1733 35.2823 59.7222 35.7969 59.1422H36.1507C35.5717 60.0767 34.7034 61.0111 33.3847 61.0111C32.4198 61.0111 31.8087 60.56 31.8087 59.4C31.8087 58.24 32.452 55.7911 34.5425 55.7911C35.4431 55.7911 35.6682 56.2422 35.6682 56.7578C35.6682 57.9178 34.5425 58.82 33.3525 58.8844C33.3525 59.0133 33.3204 59.1744 33.3204 59.3033C33.256 60.0122 33.5133 60.1733 33.9958 60.1733ZM34.5747 56.3711C34.0601 56.3711 33.5777 57.4667 33.3525 58.4656C34.1244 58.4011 34.832 57.6278 34.832 56.79C34.832 56.5322 34.7677 56.3711 34.5747 56.3711Z"/><path fill="#411F1F" d="M40.5569 55.92L38.5307 57.3378C38.6272 57.3056 38.7558 57.3056 38.8523 57.3056C39.592 57.3056 39.978 57.8533 39.978 58.4978C39.978 58.6267 39.978 58.7556 39.9458 58.8844L39.8493 59.4C39.8172 59.4967 39.785 59.6256 39.785 59.7222C39.785 59.9156 39.8815 60.1089 40.171 60.1089C40.4283 60.1089 40.4604 60.0767 40.5247 60.0444C40.4604 60.7533 39.8493 61.0756 39.592 61.0756C38.7558 61.0756 38.3055 60.6567 38.3055 59.9156C38.3055 59.7544 38.3377 59.5933 38.3699 59.4L38.4664 59.0133C38.4985 58.8844 38.4985 58.7556 38.4985 58.6267C38.4985 58.3367 38.402 58.1433 38.1447 58.1433C37.9196 58.1433 37.6945 58.2722 37.405 58.53L36.8904 61.0433H35.4431L36.9226 54.1478L38.4342 53.9545L37.6623 57.5311L39.6242 55.9844H40.5569V55.92Z"/><path fill="#6D1D0E" d="M17.1105 35.7167L15.7918 41.4522H15.9526C18.204 41.4522 20.0051 39.1967 20.0051 37.2633C20.0051 35.7811 18.9437 34.4922 16.2742 34.4922C12.9615 34.4922 9.19848 36.49 9.19848 40.7433C9.19848 42.0644 9.55226 42.2578 9.58442 42.4833C7.719 42.4833 6.56115 41.8389 6.56115 40.0989C6.56115 36.5544 11.482 33.2678 16.821 33.2678C20.97 33.2678 22.8354 35.2656 22.8354 37.36C22.8354 38.8744 21.8383 40.5178 20.0051 41.4522C22.4173 41.9033 23.35 43.6756 23.35 45.6089C23.35 48.09 21.8705 53.02 17.1748 53.02C15.9526 53.02 14.3766 52.6978 14.3766 51.1189C14.3766 50.7 14.5053 50.2167 14.7304 49.6367C15.438 50.3133 15.9848 50.5711 16.628 50.5711C18.6864 50.5711 19.4262 47.8967 19.4262 45.9311C19.4262 44.1267 18.8151 42.6444 16.7567 42.6444C16.5315 42.6444 15.9526 42.6767 15.4702 42.7089L13.1545 52.6333H9.10199L12.9293 36.2322L17.1105 35.7167Z"/><path fill="#fff" d="M17.2069 54.0189C15.7918 54.0189 14.7304 53.6322 14.0872 52.9233C13.9585 53.31 13.5726 53.5678 13.1866 53.5678H9.10199C8.81253 53.5678 8.52307 53.4389 8.33009 53.2133C8.13712 52.9878 8.07279 52.6656 8.13712 52.3756L10.292 43.16C10.099 43.3533 9.87389 43.45 9.61659 43.45C6.14304 43.45 5.62844 41.3556 5.62844 40.0989C5.62844 36.0389 10.9996 32.3333 16.8532 32.3333C20.3267 32.3333 23.8324 33.9122 23.8324 37.3922C23.8324 38.81 23.1892 40.1633 22.0635 41.2267C23.5108 42.0967 24.3149 43.6433 24.3149 45.6411C24.3149 46.9944 23.9289 49.0244 22.8354 50.7967C21.581 52.8911 19.6191 54.0189 17.2069 54.0189ZM15.3737 51.28C15.438 51.8278 16.0491 52.0856 17.2069 52.0856C21.4524 52.0856 22.4173 47.3167 22.4173 45.6411C22.4173 44.3844 21.967 42.8378 19.8764 42.4511C19.4583 42.3867 19.1689 42.0644 19.1045 41.6456C19.0724 41.4522 19.1045 41.2911 19.1689 41.13C18.8472 41.42 18.4613 41.71 18.0432 41.9033C20.1659 42.5478 20.4232 44.8678 20.4232 45.9633C20.4232 48.67 19.2332 51.57 16.6602 51.57C16.2099 51.5378 15.7918 51.4733 15.3737 51.28ZM10.3242 51.6344H12.4147L14.5696 42.5156C14.6339 42.2578 14.7948 42.0644 14.9877 41.9356C14.8591 41.71 14.8269 41.4522 14.8912 41.2267L15.8561 36.8444L13.7334 37.1022L10.3242 51.6344ZM15.0842 48.7344C15.2129 48.7667 15.3415 48.8633 15.438 48.96C16.0813 49.5722 16.3707 49.6367 16.6602 49.6367C17.9788 49.6367 18.4934 47.3811 18.4934 45.9633C18.4934 43.9333 17.6572 43.6756 16.7888 43.6756C16.6923 43.6756 16.4994 43.6756 16.2742 43.7078L15.0842 48.7344ZM11.7393 37.1022C10.8388 37.94 10.1955 39.1322 10.1955 40.7111C10.1955 41.42 10.3242 41.6456 10.3885 41.8067C10.4207 41.9033 10.485 42 10.5493 42.1289L11.7393 37.1022ZM9.45578 36.7478C8.29793 37.7144 7.55819 38.9067 7.55819 40.0989C7.55819 40.4856 7.55819 41.0333 8.26577 41.2911C8.26577 41.13 8.2336 40.9044 8.2336 40.7111C8.26577 39.2289 8.68388 37.8756 9.45578 36.7478ZM20.1337 34.8789C20.7448 35.5556 21.0021 36.4256 21.0021 37.2633C21.0021 38.3911 20.4875 39.6478 19.6513 40.6144C21.0343 39.8733 21.9027 38.6489 21.9027 37.3922C21.9027 36.2967 21.2594 35.4267 20.1337 34.8789ZM18.0753 35.7811C18.0753 35.8456 18.0753 35.8778 18.0432 35.9422L17.0461 40.2278C18.204 39.68 19.0402 38.3911 19.0402 37.2956C19.0724 36.49 18.6221 36.0389 18.0753 35.7811Z"/><path fill="#6D1D0E" d="M34.7033 40.3567L32.9344 48.7022C32.8701 49.0244 32.8379 49.2822 32.8379 49.4756C32.8379 50.1522 33.1595 50.3778 33.835 50.3778C34.7998 50.3778 35.4431 49.4433 35.829 48.2189H36.8582C35.4752 52.2144 33.256 52.7622 31.9374 52.7622C30.5544 52.7622 29.6538 51.9567 29.5252 50.4422C28.303 52.44 26.92 52.7622 25.8908 52.7622C24.4113 52.7622 23.2535 51.8922 23.2535 49.83C23.2535 49.3789 23.3178 48.8311 23.4465 48.2189L25.1189 40.3244H28.6568L26.8879 48.67C26.8557 48.9278 26.8235 49.1211 26.8235 49.3467C26.8235 49.9267 27.0165 50.3456 27.5633 50.3456C28.5281 50.3456 29.1714 49.4111 29.5252 48.1867L31.1976 40.2922H34.7033V40.3567Z"/><path fill="#fff" d="M31.9374 53.6C30.7152 53.6 29.7503 53.0844 29.2036 52.1822C28.2708 53.1167 27.1773 53.6 25.8908 53.6C24.2184 53.6 22.4494 52.6011 22.4494 49.83C22.4494 49.3467 22.5138 48.7667 22.6746 48.0578L24.347 40.1633C24.4435 39.7767 24.7651 39.5189 25.1511 39.5189H28.689C28.9463 39.5189 29.1714 39.6478 29.3322 39.8411C29.493 40.0344 29.5573 40.2922 29.493 40.55L27.7241 48.8956C27.6919 49.0889 27.6598 49.25 27.6598 49.4111C27.6598 49.4756 27.6598 49.54 27.6598 49.5722C28.2387 49.4433 28.5925 48.4122 28.7211 48.0578L30.3936 40.1956C30.4901 39.8089 30.8117 39.5511 31.1976 39.5511H34.7355C34.9928 39.5511 35.218 39.68 35.3788 39.8733C35.5396 40.0667 35.6039 40.3244 35.5396 40.5822L33.7706 48.9278C33.7063 49.1856 33.6742 49.3789 33.6742 49.54C33.6742 49.5722 33.6742 49.6044 33.6742 49.6044C33.7063 49.6044 33.7706 49.6044 33.835 49.6044C34.5104 49.6044 34.9285 48.4122 35.025 48.0256C35.1215 47.6711 35.4431 47.4456 35.829 47.4456H36.8582C37.1155 47.4456 37.3728 47.5744 37.5337 47.8C37.6945 48.0256 37.7266 48.3156 37.6301 48.5411C36.1828 52.73 33.7385 53.6 31.9374 53.6ZM29.8146 49.6689C30.1041 49.7978 30.2971 50.0556 30.3292 50.3456C30.4257 51.4411 30.9403 51.9245 31.9374 51.9245C32.7093 51.9245 33.4169 51.6667 34.0279 51.1833C33.9636 51.1833 33.8993 51.1833 33.835 51.1833C32.2268 51.1833 32.0017 50.0878 32.0017 49.4433C32.0017 49.1533 32.0339 48.8311 32.1304 48.4767L33.6742 41.13H31.8409L30.3292 48.3478C30.3292 48.38 30.3292 48.38 30.2971 48.4122C30.1684 48.96 30.0076 49.3467 29.8146 49.6689ZM25.7943 41.1944L24.2827 48.4122C24.154 48.9922 24.0897 49.4433 24.0897 49.83C24.0897 51.2478 24.7008 51.9567 25.8908 51.9567C26.4376 51.9567 27.1452 51.86 27.8527 51.2156C27.7562 51.2156 27.6598 51.2478 27.5633 51.2478C26.8557 51.2478 25.9873 50.7644 25.9873 49.4111C25.9873 49.1533 26.0195 48.8633 26.0838 48.5733L27.6276 41.2267H25.7943V41.1944Z"/><path fill="#6D1D0E" d="M41.0394 40.3567L40.7177 41.8711C41.5861 41.13 42.5188 40.3567 43.6767 40.3567C44.7702 40.3567 45.3813 41.2589 45.3813 42.1933C45.3813 43.0633 44.8024 43.9978 43.6124 43.9978C42.2294 43.9978 42.9369 42.3867 42.1972 42.3867C41.4575 42.3867 41.0072 42.7411 40.3961 43.3211L38.4342 52.6656H34.8963L37.5015 40.3889H41.0394V40.3567Z"/><path fill="#fff" d="M38.4342 53.4711H34.8963C34.639 53.4711 34.4139 53.3422 34.2531 53.1489C34.0922 52.9556 34.0279 52.6978 34.0922 52.44L36.6974 40.1633C36.7939 39.7767 37.1155 39.5189 37.5015 39.5189H41.0393C41.2966 39.5189 41.5218 39.6156 41.6826 39.8411C41.7469 39.9056 41.7791 39.97 41.8112 40.0667C42.358 39.7767 42.9691 39.5511 43.6767 39.5511C45.124 39.5511 46.1853 40.7111 46.1853 42.2256C46.1853 43.4822 45.2848 44.8356 43.5802 44.8356C42.1972 44.8356 41.9077 43.8044 41.8112 43.2889C41.6183 43.3533 41.4253 43.5144 41.1358 43.7722L39.2382 52.8267C39.1418 53.1811 38.8201 53.4711 38.4342 53.4711ZM35.9255 51.7956H37.7588L39.592 43.1278C39.6242 42.9667 39.7207 42.8056 39.8493 42.6767C39.9458 42.58 40.0423 42.5156 40.1388 42.4189C39.9458 42.2256 39.8815 41.9356 39.9458 41.6778L40.0423 41.1622H38.209L35.9255 51.7956ZM43.5159 43.16C43.548 43.16 43.5802 43.16 43.6123 43.16C44.5129 43.16 44.5451 42.3544 44.5451 42.1933C44.5451 42.0967 44.5129 41.1944 43.6767 41.1944C43.2586 41.1944 42.8404 41.3556 42.4545 41.5811C43.1942 41.7422 43.355 42.5478 43.4194 42.8378C43.4515 42.9344 43.4837 43.0956 43.5159 43.16Z"/><path fill="#6D1D0E" d="M55.802 40.3567L53.3898 51.7633C54.8692 51.2156 55.802 50.3778 56.4774 48.2511H57.5066C56.5417 51.5056 54.6763 52.44 53.1646 52.8267L52.8108 54.5989C52.0711 58.1111 50.0127 58.7878 48.4046 58.7878C46.8929 58.7878 45.6708 58.0144 45.6708 56.4033C45.6708 54.3411 47.8257 53.31 49.6589 52.73L49.9484 51.4411C49.2408 52.2144 48.2759 52.7944 47.0216 52.7944C45.3491 52.7944 43.7732 51.7633 43.7732 48.8311C43.7732 45.5122 45.7994 40.2278 50.077 40.2278C51.46 40.2278 52.0711 40.7756 52.0711 41.4845V41.6456L52.3284 40.3567H55.802ZM47.8257 56.8545C48.3403 56.8545 48.9192 56.1133 49.2408 54.6633L49.4016 53.9544C48.1473 54.4378 46.9894 55.05 46.9894 56.0489C46.9894 56.4033 47.2789 56.8545 47.8257 56.8545ZM47.3754 48.4767C47.3754 50.3778 48.1473 50.41 48.5976 50.41C49.273 50.41 50.2057 49.7333 50.5595 48.4767L51.8138 42.6444C51.7816 42.3867 51.5887 41.7422 50.8168 41.7422C48.694 41.7744 47.3754 46.1889 47.3754 48.4767Z"/><path fill="#fff" d="M48.4046 59.5933C46.2819 59.5933 44.8345 58.3044 44.8345 56.3711C44.8345 55.2756 45.2848 54.3089 46.2175 53.5356C44.5129 53.2456 42.9048 51.8922 42.9048 48.8311C42.9048 44.8678 45.3813 39.4222 50.0449 39.4222C50.7524 39.4222 51.3314 39.5511 51.7495 39.7767C51.9103 39.6478 52.1033 39.5511 52.2962 39.5511H55.8341C56.0914 39.5511 56.3166 39.68 56.4774 39.8733C56.6382 40.0667 56.7025 40.3244 56.6382 40.5822L54.6119 50.12C55.0301 49.6689 55.3838 49.0244 55.7055 48.0256C55.802 47.6711 56.1236 47.4456 56.5095 47.4456H57.5387C57.796 47.4456 58.0533 47.5744 58.2141 47.7678C58.375 47.9933 58.4071 48.2511 58.3428 48.5089C57.3458 51.86 55.4482 52.9878 53.9044 53.5033L53.6471 54.7922C52.7787 58.7556 50.3022 59.5933 48.4046 59.5933ZM46.7 57.2411C47.1181 57.8533 47.9543 57.95 48.3724 57.95C50.9454 57.95 51.653 55.9522 51.9746 54.4378L52.3284 52.6656C52.3606 52.4722 52.4892 52.2789 52.65 52.1822C52.5535 52.0211 52.5214 51.7956 52.5535 51.6022L54.7728 41.2267H52.9395L52.8108 41.8389C52.7787 42.0322 52.6822 42.1933 52.5535 42.29C52.5857 42.3867 52.6179 42.5156 52.6179 42.6122C52.6179 42.7089 52.6179 42.7733 52.6179 42.87L51.3635 48.7022V48.7344C51.1384 49.5722 50.656 50.2167 50.1414 50.6678C50.2057 50.6678 50.27 50.7 50.3343 50.7322C50.656 50.8933 50.8489 51.28 50.7524 51.6344L50.463 52.9233C50.3987 53.1489 50.27 53.3422 50.077 53.4711C50.2378 53.6644 50.27 53.89 50.2378 54.1478L50.077 54.8567C49.6911 56.6611 48.8549 57.6922 47.8578 57.6922C47.3754 57.6922 46.9894 57.5311 46.7 57.2411ZM47.8257 56.0167C47.8257 56.0489 47.8257 56.0489 47.8257 56.0167V56.0167ZM48.0508 55.5978C47.89 55.7589 47.8257 55.8556 47.8257 55.9522C47.89 55.8878 47.9865 55.7911 48.0508 55.5978ZM50.0127 41.0656C46.2175 41.0978 44.5772 46.2211 44.5772 48.8311C44.5772 50.8611 45.4135 51.9567 47.0216 51.9567C47.7613 51.9567 48.4367 51.6989 49.0157 51.1833C48.887 51.2156 48.7262 51.2156 48.5976 51.2156C47.2467 51.2156 46.5391 50.2811 46.5391 48.4767C46.5391 47.1233 46.9251 45.3511 47.5362 43.9333C48.2116 42.3867 49.0478 41.42 50.0127 41.0656ZM50.7846 42.58C49.5624 42.58 48.1794 46.0922 48.1794 48.4767C48.1794 49.3467 48.3724 49.54 48.3724 49.54C48.4046 49.54 48.5332 49.54 48.5654 49.54C48.8227 49.54 49.4659 49.1533 49.7232 48.2511L50.9454 42.6122C50.9133 42.58 50.8489 42.58 50.7846 42.58Z"/><path fill="#6D1D0E" d="M60.755 50.7322C62.6847 50.7322 63.8747 49.6367 65.0969 48.2511H65.9331C64.5501 50.5067 62.4596 52.7944 59.179 52.7944C56.8633 52.7944 55.3517 51.6667 55.3517 48.8956C55.3517 46.06 56.9598 40.1633 61.9771 40.1633C64.1642 40.1633 64.6788 41.2911 64.6788 42.5156C64.6788 45.3511 61.9771 47.51 59.0504 47.7033C59.0182 48.0578 58.986 48.38 58.986 48.7022C58.986 50.3133 59.565 50.7322 60.755 50.7322ZM62.1701 41.4522C60.9158 41.4522 59.7258 44.0944 59.2433 46.5111C61.1409 46.3822 62.8134 44.5133 62.8134 42.4511C62.7812 41.8389 62.6204 41.4522 62.1701 41.4522Z"/><path fill="#fff" d="M59.179 53.6C56.2201 53.6 54.5154 51.86 54.5154 48.8633C54.5154 45.7378 56.3487 39.2933 61.9771 39.2933C64.2607 39.2933 65.515 40.4211 65.515 42.4833C65.515 45.3833 63.0385 47.8967 59.8223 48.4122C59.8223 48.5089 59.8223 48.5733 59.8223 48.6378C59.8223 49.83 60.0474 49.8622 60.755 49.8622C62.2666 49.8622 63.2315 49.0889 64.4858 47.6711C64.6466 47.4778 64.8718 47.3811 65.0969 47.3811H65.9331C66.2226 47.3811 66.5121 47.5422 66.6407 47.8C66.8015 48.0578 66.7694 48.38 66.6086 48.6378C64.5502 51.9889 62.138 53.6 59.179 53.6ZM60.9479 41.0656C59.5328 41.3556 58.3749 42.29 57.5066 43.8367C56.5417 45.5767 56.1879 47.6389 56.1879 48.8633C56.1879 50.9578 57.1528 51.9244 59.179 51.9244C59.9509 51.9244 60.6585 51.7956 61.3339 51.5056C61.1409 51.5378 60.9479 51.5378 60.7228 51.5378C58.9539 51.5378 58.1176 50.6033 58.1176 48.6378C58.1176 48.3156 58.1498 47.9611 58.182 47.6067C58.2141 47.3489 58.3428 47.1233 58.5358 46.9944C58.4071 46.8011 58.3428 46.5756 58.3749 46.35C58.7609 44.6744 59.5971 42.0967 60.9479 41.0656ZM61.945 42.3544C61.5269 42.6444 60.8836 43.6756 60.4012 45.2222C61.3017 44.6422 61.945 43.5467 61.945 42.4189C61.945 42.4189 61.945 42.3867 61.945 42.3544ZM63.328 41.2589C63.4888 41.5167 63.5853 41.9033 63.5853 42.4511C63.5853 43.3211 63.328 44.1589 62.9099 44.9C63.4888 44.1911 63.8104 43.3856 63.8104 42.4833C63.8426 42.0322 63.7782 41.5489 63.328 41.2589ZM62.1701 42.2578V41.42V42.2578Z"/><path fill="#6D1D0E" d="M69.664 40.3567L69.3424 41.8711C70.2107 41.13 71.1435 40.3567 72.3013 40.3567C73.3948 40.3567 74.0059 41.2589 74.0059 42.1933C74.0059 43.0633 73.427 43.9978 72.237 43.9978C70.854 43.9978 71.5616 42.3867 70.8218 42.3867C70.0821 42.3867 69.6318 42.7411 69.0207 43.3211L67.0588 52.6656H63.521L66.1261 40.3889H69.664V40.3567Z"/><path fill="#fff" d="M67.0588 53.4711H63.521C63.2637 53.4711 63.0385 53.3422 62.8777 53.1489C62.7169 52.9556 62.6526 52.6978 62.7169 52.44L65.3221 40.1633C65.4185 39.7767 65.7402 39.5189 66.1261 39.5189H69.664C69.9213 39.5189 70.1464 39.6156 70.3072 39.8411C70.3716 39.9056 70.4037 39.97 70.4359 40.0667C70.9826 39.7767 71.5937 39.5511 72.3013 39.5511C73.7486 39.5511 74.81 40.7111 74.81 42.2256C74.81 43.4822 73.9094 44.8356 72.2048 44.8356C70.8218 44.8356 70.5324 43.8044 70.4359 43.2889C70.2429 43.3533 70.0499 43.5144 69.7605 43.7722L67.8629 52.8267C67.7986 53.1811 67.4448 53.4711 67.0588 53.4711ZM64.5502 51.7956H66.3834L68.2167 43.1278C68.2488 42.9667 68.3453 42.8056 68.474 42.6767C68.5705 42.58 68.667 42.5156 68.7634 42.4189C68.5705 42.2256 68.5061 41.9356 68.5705 41.6778L68.667 41.1622H66.8337L64.5502 51.7956ZM72.1405 43.16C72.1727 43.16 72.2048 43.16 72.237 43.16C73.1375 43.16 73.1697 42.29 73.1697 42.1933C73.1697 42.0967 73.1375 41.1944 72.3013 41.1944C71.8832 41.1944 71.4651 41.3556 71.0791 41.5811C71.8189 41.7422 71.9797 42.5478 72.044 42.8378C72.0762 42.9344 72.1083 43.0956 72.1405 43.16Z"/><path fill="#411F1F" d="M17.1105 35.7167L15.7918 41.4522H15.9526C18.204 41.4522 20.0051 39.1967 20.0051 37.2633C20.0051 35.7811 18.9437 34.4922 16.2742 34.4922C12.9615 34.4922 9.19848 36.49 9.19848 40.7433C9.19848 42.0644 9.55226 42.2578 9.58442 42.4833C7.719 42.4833 6.56115 41.8389 6.56115 40.0989C6.56115 36.5544 11.482 33.2678 16.821 33.2678C20.97 33.2678 22.8354 35.2656 22.8354 37.36C22.8354 38.8744 21.8383 40.5178 20.0051 41.4522C22.4173 41.9033 23.35 43.6756 23.35 45.6089C23.35 48.09 21.8705 53.02 17.1748 53.02C15.9526 53.02 14.3766 52.6978 14.3766 51.1189C14.3766 50.7 14.5053 50.2167 14.7304 49.6367C15.438 50.3133 15.9848 50.5711 16.628 50.5711C18.6864 50.5711 19.4262 47.8967 19.4262 45.9311C19.4262 44.1267 18.8151 42.6444 16.7567 42.6444C16.5315 42.6444 15.9526 42.6767 15.4702 42.7089L13.1545 52.6333H9.10199L12.9293 36.2322L17.1105 35.7167Z"/><path fill="#411F1F" d="M34.7033 40.3567L32.9344 48.7022C32.8701 49.0244 32.8379 49.2822 32.8379 49.4756C32.8379 50.1522 33.1595 50.3778 33.835 50.3778C34.7998 50.3778 35.4431 49.4433 35.829 48.2189H36.8582C35.4752 52.2144 33.256 52.7622 31.9374 52.7622C30.5544 52.7622 29.6538 51.9567 29.5252 50.4422C28.303 52.44 26.92 52.7622 25.8908 52.7622C24.4113 52.7622 23.2535 51.8922 23.2535 49.83C23.2535 49.3789 23.3178 48.8311 23.4465 48.2189L25.1189 40.3244H28.6568L26.8879 48.67C26.8557 48.9278 26.8235 49.1211 26.8235 49.3467C26.8235 49.9267 27.0165 50.3456 27.5633 50.3456C28.5281 50.3456 29.1714 49.4111 29.5252 48.1867L31.1976 40.2922H34.7033V40.3567Z"/><path fill="#411F1F" d="M41.0394 40.3567L40.7177 41.8711C41.5861 41.13 42.5188 40.3567 43.6767 40.3567C44.7702 40.3567 45.3813 41.2589 45.3813 42.1933C45.3813 43.0633 44.8024 43.9978 43.6124 43.9978C42.2294 43.9978 42.9369 42.3867 42.1972 42.3867C41.4575 42.3867 41.0072 42.7411 40.3961 43.3211L38.4342 52.6656H34.8963L37.5015 40.3889H41.0394V40.3567Z"/><path fill="#411F1F" d="M55.8019 40.3567L53.3898 51.7633C54.8692 51.2156 55.8019 50.3778 56.4774 48.2511H57.5066C56.5417 51.5056 54.6763 52.44 53.1646 52.8267L52.8108 54.5989C52.0711 58.1111 50.0127 58.7878 48.4046 58.7878C46.8929 58.7878 45.6708 58.0144 45.6708 56.4033C45.6708 54.3411 47.8256 53.31 49.6589 52.73L49.9484 51.4411C49.2408 52.2144 48.2759 52.7944 47.0216 52.7944C45.3491 52.7944 43.7732 51.7633 43.7732 48.8311C43.7732 45.5122 45.7994 40.2278 50.077 40.2278C51.46 40.2278 52.0711 40.7756 52.0711 41.4844V41.6456L52.3284 40.3567H55.8019ZM47.8256 56.8544C48.3402 56.8544 48.9192 56.1133 49.2408 54.6633L49.4016 53.9544C48.1473 54.4378 46.9894 55.05 46.9894 56.0489C46.9894 56.4033 47.2789 56.8544 47.8256 56.8544ZM47.3754 48.4767C47.3754 50.3778 48.1473 50.41 48.5975 50.41C49.273 50.41 50.2057 49.7333 50.5595 48.4767L51.8138 42.6444C51.7816 42.3867 51.5887 41.7422 50.8168 41.7422C48.694 41.7744 47.3754 46.1889 47.3754 48.4767Z"/><path fill="#411F1F" d="M60.755 50.7322C62.6847 50.7322 63.8747 49.6367 65.0969 48.2511H65.9331C64.5501 50.5067 62.4596 52.7944 59.179 52.7944C56.8633 52.7944 55.3517 51.6667 55.3517 48.8956C55.3517 46.06 56.9598 40.1633 61.9771 40.1633C64.1642 40.1633 64.6788 41.2911 64.6788 42.5156C64.6788 45.3511 61.9771 47.51 59.0504 47.7033C59.0182 48.0578 58.986 48.38 58.986 48.7022C58.986 50.3133 59.565 50.7322 60.755 50.7322ZM62.1701 41.4522C60.9158 41.4522 59.7258 44.0944 59.2433 46.5111C61.1409 46.3822 62.8134 44.5133 62.8134 42.4511C62.7812 41.8389 62.6204 41.4522 62.1701 41.4522Z"/><path fill="#411F1F" d="M69.664 40.3567L69.3424 41.8711C70.2107 41.13 71.1435 40.3567 72.3013 40.3567C73.3948 40.3567 74.0059 41.2589 74.0059 42.1933C74.0059 43.0633 73.427 43.9978 72.237 43.9978C70.854 43.9978 71.5616 42.3867 70.8218 42.3867C70.0821 42.3867 69.6318 42.7411 69.0207 43.3211L67.0588 52.6656H63.521L66.1261 40.3889H69.664V40.3567Z"/><path fill="#6D1D0E" d="M4.43843 49.3789C5.49979 49.6044 6.59332 50.7 7.87982 50.7C8.16928 50.7 8.42658 50.6678 8.74821 50.5389C8.65172 51.5378 8.23361 52.15 7.68684 52.15C6.20737 52.15 4.92087 49.83 3.11977 49.83C3.02328 49.83 2.95895 49.83 2.89463 49.83L4.40627 42.7089C3.50572 43.0633 2.95895 43.8367 2.95895 44.9322C2.95895 45.4478 3.0876 45.5444 3.0876 45.6411C2.38003 45.6411 1.99408 45.3833 1.99408 44.6422C1.99408 43.2889 3.89167 41.9678 5.59628 41.9678C5.72493 41.9678 5.88574 41.9678 6.01439 42L4.43843 49.3789Z"/><path fill="#fff" d="M7.65468 52.9556C6.65764 52.9556 5.88574 52.3111 5.11384 51.6989C4.40626 51.1511 3.76302 50.6356 3.0876 50.6356C3.05544 50.6356 2.99111 50.6356 2.95895 50.6356C2.70165 50.6678 2.41219 50.5711 2.25138 50.3778C2.0584 50.1844 1.99408 49.8944 2.0584 49.6367L2.73381 46.4467C1.31866 46.2856 1.15785 45.1578 1.15785 44.6422C1.15785 43.0311 3.0876 41.13 5.56411 41.13C5.72493 41.13 5.88574 41.13 6.01439 41.1622C6.23953 41.1944 6.46466 41.2911 6.62548 41.4844C6.78629 41.6778 6.81845 41.9356 6.78629 42.1611L5.37114 48.7989C5.62844 48.9278 5.88574 49.0567 6.14304 49.1856C6.72196 49.5078 7.30089 49.83 7.84765 49.83C8.04063 49.83 8.2336 49.7978 8.39442 49.7333C8.65172 49.6367 8.97334 49.6689 9.19848 49.83C9.42362 49.9911 9.55227 50.2811 9.5201 50.5711C9.39145 52.3433 8.45874 52.9556 7.65468 52.9556Z"/><path fill="#6D1D0E" d="M7.81549 48.67C8.20144 48.67 8.68388 48.4122 9.03766 48.1222C8.81253 49.2822 8.07279 49.6367 7.26873 49.6367C6.30385 49.6367 5.69276 49.1533 5.69276 47.9933C5.69276 46.8011 6.36818 44.3522 8.45874 44.3522C9.35929 44.3522 9.58443 44.8356 9.58443 45.3511C9.58443 46.5433 8.45874 47.4456 7.23656 47.51C7.23656 47.6067 7.2044 47.7356 7.2044 47.8322C7.2044 48.4444 7.4617 48.67 7.81549 48.67ZM8.52306 44.9C8.00846 44.9 7.49386 46.0278 7.30089 47.0267C8.10495 46.9944 8.78036 46.1889 8.78036 45.3511C8.78036 45.0611 8.71604 44.9 8.52306 44.9Z"/><path fill="#fff" d="M7.26872 50.4744C5.78925 50.4744 4.85654 49.54 4.85654 48.0256C4.85654 46.1567 5.98222 43.5467 8.45874 43.5467C9.64875 43.5467 10.4206 44.2556 10.4206 45.3511C10.4206 46.1567 10.0669 46.8656 9.48794 47.4133C9.7774 47.6067 9.93821 47.9289 9.87389 48.2833C9.58442 49.6689 8.65171 50.4744 7.26872 50.4744Z"/><path fill="#411F1F" d="M4.43843 49.3789C5.49979 49.6044 6.59332 50.7 7.87982 50.7C8.16928 50.7 8.42658 50.6678 8.74821 50.5389C8.65172 51.5378 8.23361 52.15 7.68684 52.15C6.20737 52.15 4.92087 49.83 3.11977 49.83C3.02328 49.83 2.95895 49.83 2.89463 49.83L4.40627 42.7089C3.50572 43.0633 2.95895 43.8367 2.95895 44.9322C2.95895 45.4478 3.0876 45.5444 3.0876 45.6411C2.38003 45.6411 1.99408 45.3833 1.99408 44.6422C1.99408 43.2889 3.89167 41.9678 5.59628 41.9678C5.72493 41.9678 5.88574 41.9678 6.01439 42L4.43843 49.3789Z"/><path fill="#411F1F" d="M7.81549 48.67C8.20144 48.67 8.68388 48.4122 9.03766 48.1222C8.81253 49.2822 8.07279 49.6367 7.26873 49.6367C6.30385 49.6367 5.69276 49.1533 5.69276 47.9933C5.69276 46.8011 6.36818 44.3522 8.45874 44.3522C9.35929 44.3522 9.58443 44.8356 9.58443 45.3511C9.58443 46.5433 8.45874 47.4456 7.23656 47.51C7.23656 47.6067 7.2044 47.7356 7.2044 47.8322C7.2044 48.4444 7.4617 48.67 7.81549 48.67ZM8.52306 44.9C8.00846 44.9 7.49386 46.0278 7.30089 47.0267C8.10495 46.9944 8.78036 46.1889 8.78036 45.3511C8.78036 45.0611 8.71604 44.9 8.52306 44.9Z"/><path fill="#0075BF" d="M45.25 3.13174C44.9167 2.96407 44.4167 2.88024 44.0417 2.88024C43.6667 2.88024 43.1667 3.0479 43.1667 3.63473C43.1667 4.5988 45.5833 4.17964 45.5833 6.02395C45.5833 7.23952 44.625 7.65868 43.5 7.65868C42.9167 7.65868 42.625 7.57485 42.0833 7.4491V6.44311C42.4583 6.65269 43 6.77844 43.4583 6.77844C43.875 6.77844 44.4583 6.56886 44.4583 6.06587C44.4167 5.05988 42 5.47904 42 3.67665C42 2.46108 42.9583 2 43.9167 2C44.375 2 44.8333 2.04192 45.25 2.20958V3.13174Z"/><path fill="#0075BF" d="M51.5833 4.47306C51.25 4.34731 51 4.30539 50.625 4.30539C50.3333 4.30539 50 4.38922 50 4.72455C50 5.35329 51.7917 4.93413 51.7917 6.35928C51.7917 7.28144 50.9583 7.65868 50.125 7.65868C49.75 7.65868 49.3333 7.57485 48.9583 7.49102L49 6.6527C49.3333 6.82036 49.6667 6.90419 50 6.90419C50.25 6.90419 50.6667 6.82036 50.6667 6.44312C50.6667 5.68862 48.875 6.19162 48.875 4.76647C48.875 3.92815 49.625 3.5509 50.4167 3.5509C50.9167 3.5509 51.2083 3.63473 51.5417 3.67665L51.5833 4.47306Z"/><path fill="#0075BF" d="M54.875 4.51497C54.7083 4.43114 54.5 4.38922 54.1667 4.38922C53.5417 4.38922 53.125 4.89221 53.125 5.64671C53.125 6.35928 53.4583 6.94611 54.2083 6.94611C54.5 6.94611 54.8333 6.82036 55 6.77844L55.0417 7.61677C54.75 7.7006 54.4167 7.74251 54 7.74251C52.7083 7.74251 52.0417 6.86227 52.0417 5.68862C52.0417 4.55689 52.7083 3.63473 53.9583 3.63473C54.375 3.63473 54.6667 3.67665 54.9583 3.76048L54.875 4.51497Z"/><path fill="#0075BF" d="M57.2083 3.59282C58.375 3.59282 59.2917 4.38922 59.2917 5.68862C59.2917 6.82036 58.5417 7.7006 57.2083 7.7006C55.9167 7.7006 55.125 6.82036 55.125 5.68862C55.125 4.34731 56.0417 3.59282 57.2083 3.59282ZM57.2083 6.90419C58 6.90419 58.2083 6.19162 58.2083 5.56287C58.2083 4.97605 57.875 4.38922 57.2083 4.38922C56.5417 4.38922 56.2083 4.97605 56.2083 5.56287C56.2083 6.19162 56.4167 6.90419 57.2083 6.90419Z"/><path fill="#0075BF" d="M49.0417 3.59282H48L46.0417 9H47L49.0417 3.59282Z"/><path fill="#5F9E43" d="M44.7917 3.50898C45.2083 3.97006 45.6667 4.51497 46 5.14371C46.2917 5.73054 46.4167 6.27545 46.5417 6.82036C46.5417 6.82036 46.5417 6.82036 46.5833 6.82036C46.9583 6.1497 47.2083 5.26946 46.8333 4.5988C46.4167 3.88623 45.5833 3.5509 44.7917 3.50898C44.75 3.46707 44.75 3.50898 44.7917 3.50898Z"/><path fill="#CF3339" d="M25 10.0771C29.9706 10.0771 34 7.82125 34 5.03854C34 2.25583 29.9706 0 25 0C20.0294 0 16 2.25583 16 5.03854C16 7.82125 20.0294 10.0771 25 10.0771Z"/><path fill="#fff" d="M17.643 5.29412C17.5152 5.76877 17.716 6.18865 18.3185 6.18865C18.6653 6.18865 18.9574 5.98783 19.0304 5.714C19.1034 5.40366 18.9209 5.20284 18.7201 5.00203L18.5193 4.80122C18.2637 4.54564 18.0629 4.30832 18.1542 3.9067C18.2819 3.34078 18.8844 2.99392 19.5598 2.99392C19.9249 2.99392 20.1988 3.10345 20.4178 3.28601C20.856 3.7424 20.3083 4.01623 20.1805 3.99798C20.144 3.99798 20.144 3.97972 20.144 3.97972C20.2535 3.61461 20.144 3.21299 19.6329 3.21299C19.3408 3.21299 18.9939 3.35903 18.9391 3.61461C18.8661 3.9067 19.0852 4.10751 19.2677 4.30832L19.4503 4.49088C19.7424 4.76471 19.9615 5.03854 19.8702 5.45842C19.7241 6.07911 19.1034 6.44422 18.3732 6.44422C17.9716 6.44422 17.57 6.31643 17.3509 6.07911C16.9128 5.5497 17.4057 5.29412 17.643 5.29412Z"/><path fill="#fff" d="M22.6815 7.61258L23.3935 6.0426H23.4118C23.503 6.24341 23.7039 6.3712 23.9777 6.3712C24.8905 6.3712 25.5112 5.49493 25.6024 4.83773C25.6024 4.83773 25.6207 4.74645 25.6024 4.65518C25.5842 4.34483 25.3651 4.10751 24.9087 4.10751C24.5801 4.10751 24.288 4.2353 24.0872 4.43611L24.069 4.41785L24.142 4.2353C24.0507 4.05274 23.8864 3.9067 23.6856 3.85193L22.2069 7.15619C22.2982 7.39351 22.4807 7.55781 22.6815 7.61258ZM24.8905 4.7282C24.854 5.09331 24.3976 6.11562 23.8316 6.11562C23.6126 6.11562 23.5396 5.95132 23.5578 5.78702C23.5943 5.47668 24.0142 4.41785 24.5801 4.41785C24.8174 4.41785 24.9087 4.5639 24.8905 4.7282Z"/><path fill="#fff" d="M22.499 6.07911C22.4625 6.09737 22.426 6.11562 22.3894 6.11562C22.2982 6.11562 22.2799 6.00609 22.2982 5.93307C22.3164 5.86004 22.4077 5.64098 22.4442 5.5497L23.0832 4.18053C22.8824 4.10751 22.645 4.10751 22.426 4.18053L22.2799 4.47262C22.1886 4.25355 21.9878 4.14402 21.6957 4.14402C20.8012 4.14402 20.0527 5.00203 19.9797 5.65923C19.9249 6.06086 20.144 6.38946 20.6734 6.38946C21.0933 6.38946 21.4584 6.13388 21.6775 5.86005L21.6957 5.8783C21.6957 5.8783 21.6592 5.98783 21.6592 6.06086C21.641 6.24341 21.787 6.40771 22.0243 6.40771C22.1704 6.40771 22.3164 6.3712 22.4442 6.29818L22.499 6.07911ZM22.0974 4.70994C22.0608 5.07505 21.5497 6.09737 20.9838 6.09737C20.7647 6.09737 20.7099 5.91481 20.7282 5.76877C20.7647 5.40366 21.2576 4.43611 21.8053 4.43611C22.0243 4.41785 22.1156 4.54564 22.0974 4.70994Z"/><path fill="#fff" d="M28.0487 5.09331L28.4321 4.36309C28.4321 4.36309 28.213 4.34483 28.0852 4.34483C27.9939 4.34483 27.7749 4.30832 27.7749 4.30832L27.5923 4.63692C27.428 4.96552 26.8621 6.06086 26.3509 6.06086C26.2414 6.06086 26.1684 6.02434 26.1866 5.93307C26.2049 5.82353 26.6247 5.0568 26.6247 5.0568C26.716 4.8925 26.8438 4.63692 26.8621 4.47262C26.8803 4.27181 26.716 4.14402 26.4787 4.14402C26.2779 4.14402 26.0223 4.2353 25.8215 4.36309C25.8398 4.3996 25.858 4.43611 25.8763 4.49088C25.9493 4.47262 26.0041 4.45437 26.0406 4.45437C26.1136 4.45437 26.1501 4.50913 26.1318 4.5639C26.1136 4.61867 25.7485 5.3854 25.7485 5.3854C25.6572 5.5497 25.5112 5.82353 25.4929 5.98783C25.4564 6.24341 25.6755 6.38946 25.9493 6.38946C26.4422 6.38946 26.8438 6.06086 27.1359 5.67749L27.1542 5.69574C27.1176 5.80528 27.0811 5.89656 27.0629 6.02434C27.0446 6.22516 27.1724 6.38946 27.428 6.38946C27.6653 6.38946 27.8661 6.29818 28.0487 6.15213C28.0304 6.09737 28.0304 6.06086 28.0304 6.00609V5.98783C27.9757 6.02434 27.9026 6.06086 27.8479 6.06086C27.7566 6.06086 27.7383 5.96958 27.7566 5.89656C27.7749 5.69574 27.9574 5.29412 28.0487 5.09331Z"/><path fill="#fff" d="M31.8641 4.16228C31.5355 3.92495 30.9331 3.7424 29.9108 3.72414L30.1481 3.19473C29.9473 3.12171 29.7099 3.12171 29.5091 3.19473L29.2535 3.72414C28.5781 3.76065 27.7566 3.94321 26.2779 3.63286L26.2414 3.70589C27.0629 4.05274 28.3225 4.12577 29.0527 4.12577L28.5233 5.23936C28.4686 5.34889 28.4138 5.47668 28.359 5.62272C28.2677 5.80528 28.2495 5.93307 28.2495 6.00609C28.2312 6.22516 28.432 6.40771 28.7059 6.40771C29.0345 6.40771 29.3083 6.22516 29.5091 6.02434C29.4909 5.98783 29.4544 5.93307 29.4544 5.8783C29.4179 5.91481 29.3448 5.96958 29.3083 6.00609C29.2353 6.06086 29.144 6.09737 29.071 6.09737C28.9615 6.09737 28.9432 6.00609 28.9432 5.93307C28.9615 5.78702 29.1075 5.49493 29.1805 5.34889L29.7465 4.08925C30.3124 4.03449 31.0061 3.96146 31.3895 4.18053C30.86 4.21704 30.3124 4.38134 29.9838 4.78297C29.783 5.00203 29.6734 5.27587 29.6369 5.5497C29.6187 5.65923 29.6369 5.76877 29.6369 5.80528C29.7099 6.17039 30.0385 6.40771 30.568 6.40771C31.4442 6.40771 32.211 5.714 32.284 5.03854C32.284 5.02029 32.357 4.7282 32.1379 4.41785C32.43 4.52739 32.6491 4.70994 32.7039 4.80122C32.8499 4.74645 32.9959 4.61867 33.069 4.45437C32.9229 4.32658 32.43 4.18053 31.8641 4.16228ZM31.1339 5.80528C30.714 6.38946 30.0568 6.38946 30.2941 5.56796C30.3306 5.44017 30.6227 4.38134 31.5172 4.30832C31.5538 4.36309 31.5903 4.43611 31.5903 4.50913C31.6815 4.83773 31.426 5.42191 31.1339 5.80528Z"/><path fill="#411F1F" d="M38.5271 6.607C38.6441 6.448 38.7341 6.271 38.8031 6.112L38.5451 5.995C38.5091 6.109 38.4431 6.268 38.3471 6.412C38.2811 6.337 38.2151 6.262 38.1491 6.181C38.0921 6.115 38.0201 6.028 37.9541 5.935C38.2031 5.812 38.4521 5.683 38.4521 5.38C38.4521 5.119 38.2301 4.969 37.9571 4.969C37.6451 4.969 37.4141 5.173 37.4141 5.443C37.4141 5.581 37.4711 5.731 37.5551 5.881C37.3271 6.001 37.1201 6.157 37.1201 6.466C37.1201 6.847 37.4081 7.036 37.7651 7.036C37.9931 7.036 38.1761 6.952 38.3261 6.826C38.3921 6.892 38.4551 6.955 38.5031 7H38.9141C38.7731 6.862 38.6471 6.733 38.5271 6.607ZM37.7321 5.449C37.7321 5.305 37.8371 5.203 37.9721 5.203C38.0861 5.203 38.1731 5.272 38.1731 5.395C38.1731 5.563 38.0201 5.659 37.8311 5.749C37.7741 5.644 37.7321 5.539 37.7321 5.449ZM37.8041 6.784C37.6211 6.784 37.4561 6.658 37.4561 6.439C37.4561 6.271 37.5521 6.166 37.6811 6.079C37.7531 6.181 37.8311 6.28 37.9031 6.367C37.9571 6.43 38.0501 6.535 38.1491 6.643C38.0501 6.727 37.9331 6.784 37.8041 6.784Z"/></svg>