<svg width="27" height="21" viewBox="0 0 27 21" fill="none" xmlns="http://www.w3.org/2000/svg">
<path d="M24.9412 11.3923C25.6852 11.3923 26.2404 10.8249 26.2404 10.0795C26.2404 9.32302 25.6963 8.7445 24.9634 8.7445C24.7635 8.7445 24.5747 8.77788 24.4081 8.84463C24.2971 8.77788 24.1749 8.7445 24.0528 8.7445H23.7419C23.7419 8.611 23.7196 8.49974 23.6974 8.41074C23.7307 8.33286 23.7419 8.25499 23.7419 8.16599V7.66535C23.7419 7.62084 23.7419 7.56522 23.7307 7.52072C23.7419 7.47621 23.7419 7.43171 23.7419 7.37609V6.93107C23.7419 5.16215 22.7646 3.41547 21.0656 2.14719C19.1778 0.745396 16.5682 0 13.5144 0C6.79608 0 3.16484 3.57123 3.16484 6.93107V7.0312C2.18763 7.60972 1.59908 8.45524 1.58797 9.34527C0.777329 9.4899 0 10.124 0 10.9251C0 11.3256 0.177675 11.6371 0.477502 11.8151L0.310932 12.5716C0.266513 12.7941 0.322036 13.0166 0.477502 13.1835C0.621863 13.3504 0.843957 13.4283 1.05495 13.406H1.06605C1.15489 13.406 1.37698 13.584 1.51024 13.6841C1.66571 13.8065 1.84338 13.94 2.04327 14.0513C1.97664 14.1625 1.93222 14.3072 1.94332 14.4518L1.95443 14.7522C1.91001 14.8523 1.87669 14.9747 1.8878 15.0859L1.91001 15.5977C1.92111 15.7868 1.99885 15.9537 2.14321 16.0761C2.27646 16.1985 2.45414 16.2652 2.64292 16.2541L2.97606 16.2318C2.98716 16.2318 3.00937 16.2318 3.02048 16.2318C3.076 16.2318 3.08711 16.2318 3.16484 16.2763V16.3542C3.16484 20.0145 6.3741 20.0145 9.19469 20.0145H17.7009C20.5326 20.0145 23.7307 20.0145 23.7307 16.3542V15.9092C23.7307 15.7757 23.6974 15.6533 23.6308 15.5421C23.8529 15.4308 24.0195 15.3084 24.1527 15.2083C24.3415 15.0748 24.3415 15.0748 24.4526 15.0637L24.7857 15.0414C24.9745 15.0303 25.141 14.9524 25.2632 14.8078C25.3853 14.6743 25.452 14.4852 25.4409 14.3072L25.4187 13.7954C25.4076 13.673 25.3742 13.5618 25.3187 13.4616L25.3076 13.1613C25.2965 12.9721 25.2188 12.8052 25.0744 12.6829C24.9412 12.5605 24.7524 12.4937 24.5747 12.5049L24.3304 12.516C24.2527 12.516 24.1749 12.5271 24.0972 12.5382L24.3748 11.2254C24.5636 11.3701 24.7857 11.3923 24.9412 11.3923Z" fill="white"/>
<path d="M23.0423 6.93108C23.0423 3.97174 19.8219 0.700897 13.5144 0.700897C7.20695 0.700897 3.86444 3.98287 3.86444 6.93108V7.37609H23.0423V6.93108Z" fill="#AB7029"/>
<path d="M11.4489 1.56866H10.8271C10.7938 1.56866 10.7716 1.59092 10.7604 1.61317C10.7493 1.63542 10.7382 1.67992 10.7382 1.74667C10.7382 1.81342 10.7493 1.85792 10.7604 1.88017C10.7716 1.91355 10.8049 1.92467 10.8271 1.92467H11.4489C11.4823 1.92467 11.5045 1.90242 11.5156 1.88017C11.5267 1.85792 11.5378 1.81342 11.5378 1.74667C11.5378 1.67992 11.5267 1.63542 11.5156 1.61317C11.5045 1.57979 11.4711 1.56866 11.4489 1.56866Z" fill="#9C6226"/>
<path d="M13.7809 1.56866H13.1591C13.1258 1.56866 13.1035 1.59092 13.0924 1.61317C13.0813 1.63542 13.0702 1.67992 13.0702 1.74667C13.0702 1.81342 13.0813 1.85792 13.0924 1.88017C13.1035 1.91355 13.1369 1.92467 13.1591 1.92467H13.7809C13.8142 1.92467 13.8365 1.90242 13.8476 1.88017C13.8587 1.85792 13.8698 1.81342 13.8698 1.74667C13.8698 1.67992 13.8587 1.63542 13.8476 1.61317C13.8365 1.57979 13.8031 1.56866 13.7809 1.56866Z" fill="#9C6226"/>
<path d="M16.1018 1.56866H15.4799C15.4466 1.56866 15.4244 1.59092 15.4133 1.61317C15.4022 1.63542 15.3911 1.67992 15.3911 1.74667C15.3911 1.81342 15.4022 1.85792 15.4133 1.88017C15.4244 1.91355 15.4577 1.92467 15.4799 1.92467H16.1018C16.1351 1.92467 16.1573 1.90242 16.1684 1.88017C16.1795 1.85792 16.1906 1.81342 16.1906 1.74667C16.1906 1.67992 16.1795 1.63542 16.1684 1.61317C16.1684 1.57979 16.1351 1.56866 16.1018 1.56866Z" fill="#9C6226"/>
<path d="M10.2718 2.95934H9.64998C9.61667 2.95934 9.59446 2.98159 9.58336 3.00384C9.57225 3.02609 9.56115 3.07059 9.56115 3.13734C9.56115 3.20409 9.57225 3.24859 9.58336 3.27084C9.59446 3.30422 9.62777 3.31535 9.64998 3.31535H10.2718C10.3052 3.31535 10.3274 3.2931 10.3385 3.27084C10.3496 3.24859 10.3607 3.20409 10.3607 3.13734C10.3607 3.07059 10.3496 3.02609 10.3385 3.00384C10.3385 2.98159 10.3052 2.95934 10.2718 2.95934Z" fill="#9C6226"/>
<path d="M12.6038 2.95934H11.982C11.9487 2.95934 11.9264 2.98159 11.9153 3.00384C11.9042 3.02609 11.8931 3.07059 11.8931 3.13734C11.8931 3.20409 11.9042 3.24859 11.9153 3.27084C11.9264 3.30422 11.9598 3.31535 11.982 3.31535H12.6038C12.6371 3.31535 12.6594 3.2931 12.6705 3.27084C12.6816 3.24859 12.6927 3.20409 12.6927 3.13734C12.6927 3.07059 12.6816 3.02609 12.6705 3.00384C12.6594 2.98159 12.6371 2.95934 12.6038 2.95934Z" fill="#9C6226"/>
<path d="M7.95096 2.95934H7.3291C7.29578 2.95934 7.27358 2.98159 7.26247 3.00384C7.25137 3.02609 7.24026 3.07059 7.24026 3.13734C7.24026 3.20409 7.25137 3.24859 7.26247 3.27084C7.27358 3.30422 7.30689 3.31535 7.3291 3.31535H7.95096C7.98428 3.31535 8.00649 3.2931 8.01759 3.27084C8.02869 3.24859 8.0398 3.20409 8.0398 3.13734C8.0398 3.07059 8.02869 3.02609 8.01759 3.00384C8.01759 2.98159 7.98428 2.95934 7.95096 2.95934Z" fill="#9C6226"/>
<path d="M14.9358 2.95934H14.314C14.2806 2.95934 14.2584 2.98159 14.2473 3.00384C14.2362 3.02609 14.2251 3.07059 14.2251 3.13734C14.2251 3.20409 14.2362 3.24859 14.2473 3.27084C14.2584 3.30422 14.2917 3.31535 14.314 3.31535H14.9358C14.9691 3.31535 14.9913 3.2931 15.0024 3.27084C15.0136 3.24859 15.0247 3.20409 15.0247 3.13734C15.0247 3.07059 15.0136 3.02609 15.0024 3.00384C14.9913 2.98159 14.9691 2.95934 14.9358 2.95934Z" fill="#9C6226"/>
<path d="M17.2678 2.95934H16.6459C16.6126 2.95934 16.5904 2.98159 16.5793 3.00384C16.5682 3.02609 16.5571 3.07059 16.5571 3.13734C16.5571 3.20409 16.5682 3.24859 16.5793 3.27084C16.5904 3.30422 16.6237 3.31535 16.6459 3.31535H17.2678C17.3011 3.31535 17.3233 3.2931 17.3344 3.27084C17.3455 3.24859 17.3566 3.20409 17.3566 3.13734C17.3566 3.07059 17.3455 3.02609 17.3344 3.00384C17.3233 2.98159 17.3011 2.95934 17.2678 2.95934Z" fill="#9C6226"/>
<path d="M19.5998 2.95934H18.9779C18.9446 2.95934 18.9224 2.98159 18.9113 3.00384C18.9002 3.02609 18.8891 3.07059 18.8891 3.13734C18.8891 3.20409 18.9002 3.24859 18.9113 3.27084C18.9224 3.30422 18.9557 3.31535 18.9779 3.31535H19.5998C19.6331 3.31535 19.6553 3.2931 19.6664 3.27084C19.6775 3.24859 19.6886 3.20409 19.6886 3.13734C19.6886 3.07059 19.6775 3.02609 19.6664 3.00384C19.6553 2.98159 19.6331 2.95934 19.5998 2.95934Z" fill="#9C6226"/>
<path d="M11.4489 4.41675H10.8271C10.7938 4.41675 10.7716 4.439 10.7604 4.46125C10.7493 4.4835 10.7382 4.528 10.7382 4.59475C10.7382 4.66151 10.7493 4.70601 10.7604 4.72826C10.7716 4.76163 10.8049 4.77276 10.8271 4.77276H11.4489C11.4823 4.77276 11.5045 4.75051 11.5156 4.72826C11.5267 4.70601 11.5378 4.66151 11.5378 4.59475C11.5378 4.528 11.5267 4.4835 11.5156 4.46125C11.5045 4.42787 11.4711 4.41675 11.4489 4.41675Z" fill="#9C6226"/>
<path d="M13.7809 4.41675H13.1591C13.1258 4.41675 13.1035 4.439 13.0924 4.46125C13.0813 4.4835 13.0702 4.528 13.0702 4.59475C13.0702 4.66151 13.0813 4.70601 13.0924 4.72826C13.1035 4.76163 13.1369 4.77276 13.1591 4.77276H13.7809C13.8142 4.77276 13.8365 4.75051 13.8476 4.72826C13.8587 4.70601 13.8698 4.66151 13.8698 4.59475C13.8698 4.528 13.8587 4.4835 13.8476 4.46125C13.8365 4.42787 13.8031 4.41675 13.7809 4.41675Z" fill="#9C6226"/>
<path d="M16.1018 4.41675H15.4799C15.4466 4.41675 15.4244 4.439 15.4133 4.46125C15.4022 4.4835 15.3911 4.528 15.3911 4.59475C15.3911 4.66151 15.4022 4.70601 15.4133 4.72826C15.4244 4.76163 15.4577 4.77276 15.4799 4.77276H16.1018C16.1351 4.77276 16.1573 4.75051 16.1684 4.72826C16.1795 4.70601 16.1906 4.66151 16.1906 4.59475C16.1906 4.528 16.1795 4.4835 16.1684 4.46125C16.1684 4.42787 16.1351 4.41675 16.1018 4.41675Z" fill="#9C6226"/>
<path d="M12.6038 5.80742H11.982C11.9487 5.80742 11.9264 5.82967 11.9153 5.85192C11.9042 5.87417 11.8931 5.91867 11.8931 5.98542C11.8931 6.05218 11.9042 6.09668 11.9153 6.11893C11.9264 6.1523 11.9598 6.16343 11.982 6.16343H12.6038C12.6371 6.16343 12.6594 6.14118 12.6705 6.11893C12.6816 6.09668 12.6927 6.05218 12.6927 5.98542C12.6927 5.91867 12.6816 5.87417 12.6705 5.85192C12.6594 5.82967 12.6371 5.80742 12.6038 5.80742Z" fill="#9C6226"/>
<path d="M14.9358 5.80742H14.314C14.2806 5.80742 14.2584 5.82967 14.2473 5.85192C14.2362 5.87417 14.2251 5.91867 14.2251 5.98542C14.2251 6.05218 14.2362 6.09668 14.2473 6.11893C14.2584 6.1523 14.2917 6.16343 14.314 6.16343H14.9358C14.9691 6.16343 14.9913 6.14118 15.0024 6.11893C15.0136 6.09668 15.0247 6.05218 15.0247 5.98542C15.0247 5.91867 15.0136 5.87417 15.0024 5.85192C14.9913 5.82967 14.9691 5.80742 14.9358 5.80742Z" fill="#9C6226"/>
<path d="M18.4227 4.41675H17.823C17.7897 4.41675 17.7675 4.439 17.7564 4.46125C17.7453 4.4835 17.7342 4.528 17.7342 4.59475C17.7342 4.66151 17.7453 4.70601 17.7564 4.72826C17.7675 4.76163 17.8008 4.77276 17.823 4.77276H18.4227C18.456 4.77276 18.4782 4.75051 18.4893 4.72826C18.5004 4.70601 18.5115 4.66151 18.5115 4.59475C18.5115 4.528 18.5004 4.4835 18.4893 4.46125C18.4782 4.42787 18.4449 4.41675 18.4227 4.41675Z" fill="#9C6226"/>
<path d="M20.8213 4.46125C20.8102 4.42787 20.7769 4.41675 20.7547 4.41675H20.1328C20.0995 4.41675 20.0773 4.439 20.0662 4.46125C20.0551 4.4835 20.044 4.528 20.044 4.59475C20.044 4.66151 20.0551 4.70601 20.0662 4.72826C20.0773 4.76163 20.1106 4.77276 20.1328 4.77276H20.7547C20.788 4.77276 20.8102 4.75051 20.8213 4.72826C20.8324 4.70601 20.8435 4.66151 20.8435 4.59475C20.8435 4.528 20.8324 4.4835 20.8213 4.46125Z" fill="#9C6226"/>
<path d="M19.5998 5.80742H18.9557C18.9224 5.80742 18.9002 5.82967 18.8891 5.85192C18.878 5.87417 18.8669 5.91867 18.8669 5.98542C18.8669 6.05218 18.878 6.09668 18.8891 6.11893C18.9002 6.1523 18.9335 6.16343 18.9557 6.16343H19.5998C19.6331 6.16343 19.6553 6.14118 19.6664 6.11893C19.6775 6.09668 19.6886 6.05218 19.6886 5.98542C19.6886 5.91867 19.6775 5.87417 19.6664 5.85192C19.6553 5.82967 19.6331 5.80742 19.5998 5.80742Z" fill="#9C6226"/>
<path d="M17.2567 5.80742H16.6459C16.6126 5.80742 16.5904 5.82967 16.5793 5.85192C16.5682 5.87417 16.5571 5.91867 16.5571 5.98542C16.5571 6.05218 16.5682 6.09668 16.5793 6.11893C16.5904 6.1523 16.6237 6.16343 16.6459 6.16343H17.2567C17.29 6.16343 17.3122 6.14118 17.3233 6.11893C17.3344 6.09668 17.3455 6.05218 17.3455 5.98542C17.3455 5.91867 17.3344 5.87417 17.3233 5.85192C17.3233 5.82967 17.29 5.80742 17.2567 5.80742Z" fill="#9C6226"/>
<path d="M6.78497 4.41675H6.16311C6.12979 4.41675 6.10758 4.439 6.09648 4.46125C6.08537 4.4835 6.07427 4.528 6.07427 4.59475C6.07427 4.66151 6.08537 4.70601 6.09648 4.72826C6.10758 4.76163 6.1409 4.77276 6.16311 4.77276H6.78497C6.81828 4.77276 6.84049 4.75051 6.8516 4.72826C6.8627 4.70601 6.87381 4.66151 6.87381 4.59475C6.87381 4.528 6.8627 4.4835 6.8516 4.46125C6.84049 4.42787 6.80718 4.41675 6.78497 4.41675Z" fill="#9C6226"/>
<path d="M9.11696 4.41675H8.49509C8.46178 4.41675 8.43957 4.439 8.42846 4.46125C8.41736 4.4835 8.40625 4.528 8.40625 4.59475C8.40625 4.66151 8.41736 4.70601 8.42846 4.72826C8.43957 4.76163 8.47288 4.77276 8.49509 4.77276H9.11696C9.15027 4.77276 9.17248 4.75051 9.18358 4.72826C9.19469 4.70601 9.20579 4.66151 9.20579 4.59475C9.20579 4.528 9.19469 4.4835 9.18358 4.46125C9.17248 4.42787 9.13916 4.41675 9.11696 4.41675Z" fill="#9C6226"/>
<path d="M7.93986 5.80742H7.3291C7.29578 5.80742 7.27358 5.82967 7.26247 5.85192C7.25137 5.87417 7.24026 5.91867 7.24026 5.98542C7.24026 6.05218 7.25137 6.09668 7.26247 6.11893C7.27358 6.1523 7.30689 6.16343 7.3291 6.16343H7.93986C7.97317 6.16343 7.99538 6.14118 8.00649 6.11893C8.01759 6.09668 8.0287 6.05218 8.0287 5.98542C8.0287 5.91867 8.01759 5.87417 8.00649 5.85192C7.99538 5.82967 7.97317 5.80742 7.93986 5.80742Z" fill="#9C6226"/>
<path d="M10.3163 5.81854C10.3052 5.80742 10.283 5.80742 10.2718 5.80742H9.64998C9.61667 5.80742 9.59446 5.82967 9.58336 5.85192C9.57225 5.87417 9.56115 5.91867 9.56115 5.98542C9.56115 6.05218 9.57225 6.09668 9.58336 6.11893C9.59446 6.1523 9.62777 6.16343 9.64998 6.16343H10.2718C10.3052 6.16343 10.3274 6.14118 10.3385 6.11893C10.3496 6.09668 10.3607 6.05218 10.3607 5.98542C10.3607 5.91867 10.3496 5.87417 10.3385 5.85192C10.3385 5.84079 10.3274 5.82967 10.3163 5.81854Z" fill="#9C6226"/>
<path d="M23.0423 9.43427C23.0423 9.6234 23.0423 9.76803 22.8535 9.76803H4.05322C3.86444 9.76803 3.86444 9.6234 3.86444 9.43427V8.78901C3.86444 8.59988 3.86444 8.45525 4.05322 8.45525H22.8535C23.0423 8.45525 23.0423 8.59988 23.0423 8.78901V9.43427Z" fill="#B32029"/>
<path d="M23.0534 7.65422H3.86444V8.15486H23.0534V7.65422Z" fill="#FAA21E"/>
<path d="M16.2795 7.83223L13.5033 9.50103L10.6272 7.83223H16.2795Z" fill="#FAA21E"/>
<path d="M3.86444 15.9203V16.3653C3.86444 19.3247 6.25195 19.3358 9.2058 19.3358H17.712C20.6658 19.3358 23.0534 19.3247 23.0534 16.3653V15.9203H3.86444Z" fill="#AB7029"/>
<path d="M4.81944 16.4655C4.81944 16.9327 4.85276 17.2554 5.49683 16.9327C6.1409 16.6101 6.91823 16.1873 8.56173 16.2207C7.95097 16.3987 7.24027 16.7214 7.17364 17.1441C7.10701 17.578 7.52899 17.756 8.46178 17.5335C8.57283 17.9229 8.9615 18.3568 9.78325 17.6448C10.605 16.9327 11.0714 16.6435 11.4601 16.4989C11.8487 16.3542 11.9598 16.5656 11.5267 16.8215C11.0936 17.0662 10.7049 17.2109 10.6383 17.5001C10.5717 17.7894 10.6383 18.2455 11.349 18.0341C11.349 18.5348 11.4934 18.9575 12.093 18.9575C12.7038 18.9575 12.9481 18.6349 12.9481 18.0341C13.3368 18.2455 13.9142 18.3902 13.9475 17.6003C13.9808 16.8104 14.3362 16.4544 14.6915 16.2763C15.0469 16.0983 15.1135 16.4321 14.8692 16.5211C14.5472 16.6435 14.4139 16.8771 14.4028 17.133C14.3917 17.4556 14.9469 17.934 15.5133 17.3444C15.5577 17.6893 16.1907 17.9118 16.4016 17.1997C16.6126 16.4877 16.6793 16.0427 17.3233 16.0205C16.8792 16.1873 16.6126 16.8437 17.179 17.0551C17.7453 17.2665 18.034 16.7325 18.1007 16.5545C18.1673 16.3765 18.345 15.9871 18.8891 16.0205C18.4227 16.2318 18.4227 16.9439 18.8891 16.9884C19.3555 17.0217 19.5332 16.8771 19.8885 16.5545C20.2439 16.2318 20.9546 15.8758 21.8541 16.0205C21.6764 16.4877 21.9984 16.6769 22.2871 16.6212C22.6425 16.5545 22.6092 16.1651 22.7202 15.9092H4.44188V15.9203C4.15316 16.1095 3.95328 16.8549 4.81944 16.4655Z" fill="#A9AE38"/>
<path d="M2.89833 14.8634C3.24258 14.8412 3.38694 14.9302 3.64234 15.0748C3.94217 15.2528 4.35305 15.4865 5.08596 15.442C5.81887 15.3975 6.19643 15.1193 6.48515 14.9191C6.71835 14.7522 6.8516 14.6521 7.19585 14.6298C7.5401 14.6076 7.68446 14.6966 7.93986 14.8412C8.23969 15.0192 8.65057 15.2528 9.38348 15.2083C10.1164 15.1638 10.4939 14.8857 10.7827 14.6854C11.0159 14.5186 11.1491 14.4184 11.5045 14.3962C11.8487 14.3739 12.0042 14.4629 12.2485 14.6076C12.5483 14.7856 12.9592 15.0192 13.6921 14.9747C14.425 14.9302 14.8026 14.6521 15.0913 14.4518C15.3245 14.2849 15.4577 14.1848 15.802 14.1625C16.1462 14.1403 16.3017 14.2293 16.546 14.3739C16.8458 14.5519 17.2567 14.7856 17.9896 14.7411C18.7225 14.6966 19.1001 14.4184 19.3888 14.2182C19.622 14.0513 19.7553 13.9512 20.0995 13.9289C20.4438 13.9067 20.5992 13.9957 20.8435 14.1403C21.1434 14.3183 21.5542 14.5519 22.2871 14.5074C23.0201 14.4629 23.3976 14.1848 23.6863 13.9845C23.9195 13.8177 24.0528 13.7175 24.4081 13.6953L24.6524 13.6842L24.6302 13.2169L24.3859 13.228C23.6308 13.2725 23.231 13.5618 22.9423 13.7732C22.7202 13.94 22.587 14.029 22.276 14.0513C21.954 14.0735 21.8207 13.9957 21.5764 13.851C21.2655 13.673 20.8435 13.4283 20.0884 13.4728C19.3333 13.5173 18.9335 13.8065 18.6448 14.0179C18.4227 14.1848 18.2894 14.2738 17.9785 14.296C17.6565 14.3183 17.5232 14.2404 17.2789 14.0958C16.968 13.9178 16.546 13.673 15.7909 13.7175C15.0358 13.762 14.636 14.0513 14.3473 14.2627C14.1252 14.4295 13.9919 14.5186 13.681 14.5408C13.359 14.5631 13.2257 14.4852 12.9814 14.3405C12.6705 14.1625 12.2485 13.9178 11.4934 13.9623C10.7382 14.0068 10.3385 14.296 10.0498 14.5074C9.82766 14.6743 9.69441 14.7633 9.38348 14.7856C9.06144 14.8078 8.92818 14.7299 8.68388 14.5853C8.37295 14.4073 7.95097 14.1625 7.19585 14.207C6.44073 14.2515 6.04096 14.5408 5.75224 14.7522C5.53014 14.9191 5.39689 15.0081 5.08596 15.0303C4.76392 15.0526 4.63066 14.9747 4.38636 14.8301C4.07543 14.6521 3.65345 14.4073 2.89833 14.4518L2.65403 14.4629L2.67624 14.9302L2.89833 14.8634Z" fill="#B32029"/>
<path d="M23.7752 14.1292C23.4753 14.3517 23.0645 14.6409 22.2871 14.6854C21.5098 14.7299 21.0656 14.474 20.7547 14.296C20.5215 14.1625 20.3993 14.0958 20.1106 14.1069C19.8219 14.118 19.7108 14.207 19.4888 14.3628C19.1889 14.5853 18.7781 14.8746 18.0007 14.9191C17.2234 14.9636 16.7792 14.7077 16.4683 14.5297C16.2351 14.3962 16.1129 14.3294 15.8242 14.3405C15.5355 14.3517 15.4244 14.4407 15.2023 14.5964C14.9025 14.8189 14.4916 15.1082 13.7143 15.1527C12.937 15.1972 12.4928 14.9413 12.1819 14.7633C11.9487 14.6298 11.8265 14.563 11.5378 14.5742C11.2491 14.5853 11.138 14.6743 10.9159 14.83C10.6161 15.0526 10.2052 15.3418 9.42789 15.3863C8.65056 15.4308 8.20637 15.1749 7.89544 14.9969C7.66224 14.8634 7.54009 14.7967 7.25137 14.8078C6.96265 14.8189 6.8516 14.9079 6.62951 15.0637C6.32968 15.2862 5.9188 15.5754 5.14148 15.6199C4.36415 15.6644 3.91996 15.4086 3.60903 15.2306C3.37583 15.0971 3.25368 15.0303 2.96495 15.0414L2.63181 15.0637L2.65402 15.5754L2.98716 15.5532C3.3092 15.5309 3.44246 15.6088 3.68676 15.7535C3.99769 15.9315 4.41967 16.1762 5.17479 16.1317C5.92991 16.0872 6.32968 15.798 6.6184 15.5866C6.8405 15.4197 6.97375 15.3307 7.28468 15.3084C7.60672 15.2862 7.73998 15.3641 7.98428 15.5087C8.29521 15.6867 8.71719 15.9315 9.47231 15.887C10.2274 15.8425 10.6272 15.5532 10.9159 15.3418C11.138 15.1749 11.2713 15.0859 11.5822 15.0637C11.9042 15.0414 12.0375 15.1193 12.2818 15.2639C12.5927 15.4419 13.0147 15.6867 13.7698 15.6422C14.5249 15.5977 14.9247 15.3084 15.2134 15.0971C15.4355 14.9302 15.5688 14.8412 15.8797 14.8189C16.2018 14.7967 16.335 14.8746 16.5793 15.0192C16.8903 15.1972 17.3122 15.4419 18.0673 15.3974C18.8225 15.3529 19.2222 15.0637 19.511 14.8523C19.7331 14.6854 19.8663 14.5964 20.1772 14.5742C20.4993 14.5519 20.6325 14.6298 20.8768 14.7744C21.1878 14.9524 21.6097 15.1972 22.3649 15.1527C23.12 15.1082 23.5198 14.8189 23.8085 14.6075C24.0306 14.4407 24.1638 14.3517 24.4748 14.3294L24.8079 14.3072L24.7746 13.7954L24.4415 13.8176C24.0972 13.8844 23.9973 13.9623 23.7752 14.1292Z" fill="#B32029"/>
<path d="M7.98428 16.0983L8.71719 13.9623H9.17249V16.0983L9.92761 13.9623H10.1719L9.2058 16.5656H8.69498V14.7856L8.00649 16.5656H7.49568V14.1737C7.11812 14.296 6.92934 14.563 6.92934 14.9524C6.92934 15.1304 6.97376 15.1638 6.97376 15.1861C6.72945 15.1861 6.5962 15.0971 6.5962 14.8523C6.5962 14.385 7.24027 13.94 7.81771 13.94C7.86213 13.94 7.90655 13.94 7.96207 13.9512L7.98428 16.0983Z" fill="#6D1D0E"/>
<path d="M9.19469 16.8549H8.68387C8.52841 16.8549 8.39515 16.7214 8.39515 16.5656V16.3097L8.2619 16.6657C8.21748 16.777 8.11753 16.8437 7.99538 16.8437H7.48457C7.3291 16.8437 7.19584 16.7102 7.19584 16.5545V15.3529C7.18474 15.3641 7.18474 15.3641 7.17364 15.3752C7.11811 15.4308 7.04038 15.4642 6.96265 15.4642C6.36299 15.4642 6.30747 15.0303 6.30747 14.8412C6.30747 14.1737 7.11811 13.6508 7.81771 13.6508C7.87323 13.6508 7.92876 13.6508 7.98428 13.6619C8.12864 13.673 8.25079 13.7954 8.25079 13.94L8.2619 14.4518L8.46178 13.8622C8.5062 13.7509 8.60614 13.673 8.72829 13.673H9.18359C9.33905 13.673 9.47231 13.8065 9.47231 13.9623V14.4184L9.67219 13.8622C9.71661 13.7509 9.81655 13.673 9.93871 13.673H10.183C10.2718 13.673 10.3607 13.7175 10.4162 13.7954C10.4717 13.8733 10.4828 13.9734 10.4495 14.0624L9.48341 16.6657C9.41679 16.777 9.31684 16.8549 9.19469 16.8549ZM8.81713 14.5297C8.83934 14.5408 8.86155 14.563 8.88376 14.5853V14.3405L8.81713 14.5297Z" fill="white"/>
<path d="M10.394 16.2875C10.6716 16.2875 10.8382 16.1317 11.0159 15.9315H11.138C10.9381 16.2541 10.6383 16.5767 10.183 16.5767C9.84987 16.5767 9.63888 16.421 9.63888 16.0205C9.63888 15.62 9.86098 14.7744 10.5828 14.7744C10.8937 14.7744 10.9714 14.9302 10.9714 15.1082C10.9714 15.5087 10.5828 15.8202 10.1719 15.8425C10.1719 15.887 10.1608 15.9426 10.1608 15.9871C10.1497 16.2318 10.2274 16.2875 10.394 16.2875ZM10.605 14.9747C10.4273 14.9747 10.2607 15.3529 10.183 15.6978C10.4495 15.6756 10.6938 15.4086 10.6938 15.1193C10.6938 15.0303 10.6716 14.9747 10.605 14.9747Z" fill="#6D1D0E"/>
<path d="M10.1719 16.866C9.64998 16.866 9.33905 16.5545 9.33905 16.0205C9.33905 15.3863 9.71661 14.4852 10.5717 14.4852C10.9825 14.4852 11.238 14.7188 11.238 15.1082C11.238 15.2973 11.1824 15.4864 11.0714 15.6422H11.1269C11.2269 15.6422 11.3268 15.6978 11.3712 15.7868C11.4267 15.8758 11.4156 15.9871 11.3601 16.0761C11.0603 16.6101 10.6494 16.866 10.1719 16.866Z" fill="white"/>
<path d="M11.7377 16.2875C12.0153 16.2875 12.1819 16.1317 12.3595 15.9315H12.4817C12.2818 16.2541 11.982 16.5767 11.5267 16.5767C11.1935 16.5767 10.9825 16.421 10.9825 16.0205C10.9825 15.62 11.2046 14.7744 11.9264 14.7744C12.2374 14.7744 12.3151 14.9302 12.3151 15.1082C12.3151 15.5087 11.9264 15.8202 11.5156 15.8425C11.5156 15.887 11.5045 15.9426 11.5045 15.9871C11.4823 16.2318 11.5711 16.2875 11.7377 16.2875ZM11.9376 14.9747C11.7599 14.9747 11.5933 15.3529 11.5156 15.6978C11.7821 15.6756 12.0264 15.4086 12.0264 15.1193C12.0264 15.0303 12.0042 14.9747 11.9376 14.9747Z" fill="#6D1D0E"/>
<path d="M11.5156 16.866C10.9937 16.866 10.6827 16.5545 10.6827 16.0205C10.6827 15.3863 11.0603 14.4852 11.9153 14.4852C12.3262 14.4852 12.5816 14.7188 12.5816 15.1082C12.5816 15.2973 12.515 15.4864 12.4039 15.6422H12.4706C12.5705 15.6422 12.6705 15.6978 12.7149 15.7868C12.7704 15.8758 12.7593 15.9871 12.7038 16.0761C12.3928 16.6101 11.9931 16.866 11.5156 16.866Z" fill="white"/>
<path d="M14.003 14.8189L13.3034 15.3084C13.3367 15.2973 13.3812 15.2973 13.4145 15.2973C13.6699 15.2973 13.8031 15.4865 13.8031 15.709C13.8031 15.7535 13.8031 15.798 13.792 15.8425L13.7587 16.0205C13.7476 16.0538 13.7365 16.0983 13.7365 16.1317C13.7365 16.1985 13.7698 16.2652 13.8698 16.2652C13.9586 16.2652 13.9697 16.2541 13.9919 16.243C13.9697 16.4877 13.7587 16.599 13.6699 16.599C13.3812 16.599 13.2257 16.4544 13.2257 16.1985C13.2257 16.1428 13.2368 16.0872 13.2479 16.0205L13.2812 15.887C13.2923 15.8425 13.2923 15.798 13.2923 15.7535C13.2923 15.6533 13.259 15.5866 13.1702 15.5866C13.0924 15.5866 13.0147 15.6311 12.9148 15.7201L12.7371 16.5879H12.2374L12.7482 14.207L13.2701 14.1403L13.0036 15.3752L13.681 14.8412H14.003V14.8189Z" fill="#6D1D0E"/>
<path d="M13.6699 16.866C13.3701 16.866 13.1369 16.7436 13.0258 16.5322L13.0036 16.6212C12.9703 16.7547 12.8592 16.8437 12.726 16.8437H12.2263C12.1374 16.8437 12.0597 16.7992 12.0042 16.7325C11.9487 16.6657 11.9265 16.5767 11.9487 16.4877L12.4595 14.1069C12.4817 13.9845 12.5816 13.8955 12.7038 13.8844L13.2257 13.8176C13.3145 13.8065 13.4145 13.8399 13.47 13.9066C13.5366 13.9734 13.5588 14.0735 13.5366 14.1625L13.4367 14.6187L13.4922 14.5742C13.5477 14.5297 13.6033 14.5074 13.6699 14.5074H14.0141C14.1363 14.5074 14.2473 14.5853 14.2918 14.7077C14.3251 14.83 14.2806 14.9524 14.1807 15.0303L13.9364 15.1972C14.0363 15.3196 14.103 15.4864 14.103 15.6756C14.103 15.7423 14.0919 15.8091 14.0808 15.8758L14.0697 15.9315C14.103 15.9426 14.1363 15.9537 14.1696 15.976C14.2473 16.0316 14.2918 16.1317 14.2918 16.2318C14.2473 16.6435 13.9031 16.866 13.6699 16.866Z" fill="white"/>
<path d="M7.98428 16.0983L8.71719 13.9623H9.17248V16.0983L9.9276 13.9623H10.1719L9.2058 16.5656H8.69498V14.7856L8.00649 16.5656H7.49567V14.1737C7.11811 14.296 6.92933 14.563 6.92933 14.9524C6.92933 15.1304 6.97375 15.1638 6.97375 15.1861C6.72945 15.1861 6.59619 15.0971 6.59619 14.8523C6.59619 14.385 7.24026 13.94 7.81771 13.94C7.86213 13.94 7.90655 13.94 7.96207 13.9512L7.98428 16.0983Z" fill="#411F1F"/>
<path d="M10.394 16.2875C10.6716 16.2875 10.8382 16.1317 11.0159 15.9315H11.138C10.9381 16.2541 10.6383 16.5767 10.183 16.5767C9.84987 16.5767 9.63888 16.421 9.63888 16.0205C9.63888 15.62 9.86098 14.7744 10.5828 14.7744C10.8937 14.7744 10.9714 14.9302 10.9714 15.1082C10.9714 15.5087 10.5828 15.8202 10.1719 15.8425C10.1719 15.887 10.1608 15.9426 10.1608 15.9871C10.1497 16.2318 10.2274 16.2875 10.394 16.2875ZM10.605 14.9747C10.4273 14.9747 10.2607 15.3529 10.183 15.6978C10.4495 15.6756 10.6938 15.4086 10.6938 15.1193C10.6938 15.0303 10.6716 14.9747 10.605 14.9747Z" fill="#411F1F"/>
<path d="M11.7377 16.2875C12.0153 16.2875 12.1819 16.1317 12.3595 15.9315H12.4817C12.2818 16.2541 11.982 16.5767 11.5267 16.5767C11.1935 16.5767 10.9825 16.421 10.9825 16.0205C10.9825 15.62 11.2046 14.7744 11.9264 14.7744C12.2374 14.7744 12.3151 14.9302 12.3151 15.1082C12.3151 15.5087 11.9264 15.8202 11.5156 15.8425C11.5156 15.887 11.5045 15.9426 11.5045 15.9871C11.4823 16.2318 11.5711 16.2875 11.7377 16.2875ZM11.9376 14.9747C11.7599 14.9747 11.5933 15.3529 11.5156 15.6978C11.7821 15.6756 12.0264 15.4086 12.0264 15.1193C12.0264 15.0303 12.0042 14.9747 11.9376 14.9747Z" fill="#411F1F"/>
<path d="M14.003 14.8189L13.3034 15.3084C13.3367 15.2973 13.3812 15.2973 13.4145 15.2973C13.6699 15.2973 13.8031 15.4865 13.8031 15.709C13.8031 15.7535 13.8031 15.798 13.792 15.8425L13.7587 16.0205C13.7476 16.0538 13.7365 16.0983 13.7365 16.1317C13.7365 16.1985 13.7698 16.2652 13.8698 16.2652C13.9586 16.2652 13.9697 16.2541 13.9919 16.243C13.9697 16.4877 13.7587 16.599 13.6699 16.599C13.3812 16.599 13.2257 16.4544 13.2257 16.1985C13.2257 16.1428 13.2368 16.0872 13.2479 16.0205L13.2812 15.887C13.2923 15.8425 13.2923 15.798 13.2923 15.7535C13.2923 15.6533 13.259 15.5866 13.1702 15.5866C13.0924 15.5866 13.0147 15.6311 12.9148 15.7201L12.7371 16.5879H12.2374L12.7482 14.207L13.2701 14.1403L13.0036 15.3752L13.681 14.8412H14.003V14.8189Z" fill="#411F1F"/>
<path d="M5.90771 7.84334L5.45241 9.82365H5.50794C6.28527 9.82365 6.90713 9.04488 6.90713 8.37736C6.90713 7.86559 6.54067 7.42058 5.61898 7.42058C4.4752 7.42058 3.17595 8.11035 3.17595 9.57889C3.17595 10.035 3.2981 10.1018 3.30921 10.1797C2.66513 10.1797 2.26536 9.95715 2.26536 9.35639C2.26536 8.1326 3.96438 6.99782 5.80776 6.99782C7.24027 6.99782 7.88434 7.68759 7.88434 8.41073C7.88434 8.93362 7.5401 9.50101 6.90713 9.82365C7.73998 9.9794 8.06202 10.5913 8.06202 11.2588C8.06202 12.1155 7.5512 13.8176 5.92992 13.8176C5.50794 13.8176 4.96381 13.7064 4.96381 13.1612C4.96381 13.0166 5.00822 12.8497 5.08596 12.6495C5.33026 12.8831 5.51904 12.9721 5.74114 12.9721C6.45184 12.9721 6.70724 12.0487 6.70724 11.3701C6.70724 10.747 6.49625 10.2353 5.78555 10.2353C5.70782 10.2353 5.50794 10.2464 5.34137 10.2575L4.54183 13.6841H3.14264L4.46409 8.02135L5.90771 7.84334Z" fill="#6D1D0E"/>
<path d="M5.94101 14.1625C5.45241 14.1625 5.08595 14.029 4.86386 13.7843C4.81944 13.9178 4.68618 14.0068 4.55293 14.0068H3.14263C3.04269 14.0068 2.94274 13.9623 2.87612 13.8844C2.80949 13.8065 2.78728 13.6953 2.80949 13.5951L3.5535 10.4133C3.48687 10.48 3.40914 10.5134 3.3203 10.5134C2.121 10.5134 1.94332 9.79028 1.94332 9.35639C1.94332 7.9546 3.79781 6.67519 5.81886 6.67519C7.01817 6.67519 8.22858 7.22033 8.22858 8.42186C8.22858 8.91138 8.00649 9.37864 7.61782 9.74577C8.11754 10.0462 8.39515 10.5802 8.39515 11.2699C8.39515 11.7372 8.2619 12.4381 7.88434 13.05C7.45125 13.7731 6.77387 14.1625 5.94101 14.1625ZM5.30805 13.2169C5.33026 13.406 5.54124 13.495 5.94101 13.495C7.40683 13.495 7.73997 11.8485 7.73997 11.2699C7.73997 10.8361 7.58451 10.302 6.8627 10.1685C6.71834 10.1463 6.6184 10.035 6.59619 9.8904C6.58509 9.82365 6.59619 9.76803 6.6184 9.7124C6.50735 9.81253 6.3741 9.91265 6.22974 9.97941C6.96265 10.2019 7.05148 11.0029 7.05148 11.3812C7.05148 12.3157 6.64061 13.317 5.75223 13.317C5.59677 13.3059 5.45241 13.2836 5.30805 13.2169ZM3.56461 13.3393H4.28641L5.03043 10.1908C5.05264 10.1018 5.10816 10.035 5.17479 9.99053C5.13037 9.91266 5.11927 9.82365 5.14148 9.74577L5.47462 8.23273L4.74171 8.32173L3.56461 13.3393ZM5.2081 12.338C5.25252 12.3491 5.29694 12.3825 5.33026 12.4159C5.55235 12.6272 5.65229 12.6495 5.75223 12.6495C6.20753 12.6495 6.3852 11.8707 6.3852 11.3812C6.3852 10.6803 6.09648 10.5913 5.79665 10.5913C5.76334 10.5913 5.69671 10.5913 5.61898 10.6024L5.2081 12.338ZM4.05321 8.32173C3.74228 8.61099 3.52019 9.02263 3.52019 9.56777C3.52019 9.81253 3.56461 9.8904 3.58682 9.94603C3.59792 9.97941 3.62013 10.0128 3.64234 10.0573L4.05321 8.32173ZM3.26478 8.19935C2.86501 8.53311 2.6096 8.94475 2.6096 9.35639C2.6096 9.48989 2.6096 9.67902 2.85391 9.76803C2.85391 9.7124 2.8428 9.63452 2.8428 9.56777C2.85391 9.05601 2.99827 8.58874 3.26478 8.19935ZM6.95154 7.55409C7.16253 7.78772 7.25137 8.0881 7.25137 8.37736C7.25137 8.76675 7.07369 9.20063 6.78497 9.53439C7.26247 9.27851 7.5623 8.85575 7.5623 8.42186C7.5623 8.0436 7.34021 7.74322 6.95154 7.55409ZM6.24084 7.8656C6.24084 7.88785 6.24084 7.89897 6.22974 7.92122L5.88549 9.40089C6.28526 9.21176 6.57398 8.76675 6.57398 8.38849C6.58509 8.11035 6.42962 7.9546 6.24084 7.8656Z" fill="white"/>
<path d="M11.982 9.44541L11.3712 12.3269C11.349 12.4381 11.3379 12.5271 11.3379 12.5939C11.3379 12.8275 11.4489 12.9054 11.6821 12.9054C12.0153 12.9054 12.2374 12.5827 12.3706 12.16H12.726C12.2485 13.5395 11.4823 13.7287 11.027 13.7287C10.5495 13.7287 10.2385 13.4505 10.1941 12.9276C9.77214 13.6174 9.29464 13.7287 8.93929 13.7287C8.42847 13.7287 8.0287 13.4283 8.0287 12.7163C8.0287 12.5605 8.05091 12.3714 8.09533 12.16L8.67277 9.43428H9.89429L9.28353 12.3157C9.27243 12.4047 9.26132 12.4715 9.26132 12.5494C9.26132 12.7496 9.32795 12.8943 9.51673 12.8943C9.84987 12.8943 10.072 12.5716 10.1941 12.1489L10.7716 9.42316H11.982V9.44541Z" fill="#6D1D0E"/>
<path d="M11.027 14.0179C10.605 14.0179 10.2719 13.8399 10.0831 13.5284C9.76104 13.851 9.38348 14.0179 8.93929 14.0179C8.36184 14.0179 7.75108 13.673 7.75108 12.7162C7.75108 12.5494 7.77329 12.3491 7.82882 12.1044L8.40626 9.37865C8.43957 9.24515 8.55062 9.15614 8.68388 9.15614H9.9054C9.99423 9.15614 10.072 9.20064 10.1275 9.2674C10.183 9.33415 10.2052 9.42315 10.183 9.51215L9.57225 12.3936C9.56115 12.4604 9.55005 12.516 9.55005 12.5716C9.55005 12.5939 9.55005 12.6161 9.55005 12.6272C9.74993 12.5827 9.87208 12.2267 9.9165 12.1044L10.4939 9.38977C10.5273 9.25627 10.6383 9.16727 10.7716 9.16727H11.9931C12.0819 9.16727 12.1597 9.21177 12.2152 9.27852C12.2707 9.34527 12.2929 9.43428 12.2707 9.52328L11.6599 12.4047C11.6377 12.4937 11.6266 12.5605 11.6266 12.6161C11.6266 12.6272 11.6266 12.6384 11.6266 12.6384C11.6377 12.6384 11.6599 12.6384 11.6821 12.6384C11.9153 12.6384 12.0597 12.2267 12.093 12.0932C12.1263 11.9708 12.2374 11.893 12.3706 11.893H12.726C12.8148 11.893 12.9037 11.9375 12.9592 12.0154C13.0147 12.0932 13.0258 12.1934 12.9925 12.2712C12.4928 13.7175 11.6488 14.0179 11.027 14.0179ZM10.2941 12.6606C10.394 12.7051 10.4606 12.7941 10.4717 12.8943C10.5051 13.2725 10.6827 13.4394 11.027 13.4394C11.2935 13.4394 11.5378 13.3504 11.7488 13.1835C11.7266 13.1835 11.7044 13.1835 11.6821 13.1835C11.1269 13.1835 11.0492 12.8052 11.0492 12.5827C11.0492 12.4826 11.0603 12.3714 11.0936 12.249L11.6266 9.71241H10.9937L10.4717 12.2045C10.4717 12.2156 10.4717 12.2156 10.4606 12.2267C10.4162 12.4159 10.3607 12.5494 10.2941 12.6606ZM8.90597 9.73466L8.38405 12.2267C8.33963 12.427 8.31742 12.5827 8.31742 12.7162C8.31742 13.2058 8.52841 13.4505 8.93929 13.4505C9.12807 13.4505 9.37237 13.4171 9.61667 13.1946C9.58336 13.1946 9.55005 13.2058 9.51673 13.2058C9.27243 13.2058 8.9726 13.0389 8.9726 12.5716C8.9726 12.4826 8.98371 12.3825 9.00591 12.2824L9.53894 9.74578H8.90597V9.73466Z" fill="white"/>
<path d="M14.1696 9.4454L14.0586 9.96829C14.3584 9.71241 14.6804 9.4454 15.0802 9.4454C15.4577 9.4454 15.6687 9.75691 15.6687 10.0795C15.6687 10.3799 15.4689 10.7026 15.058 10.7026C14.5805 10.7026 14.8248 10.1463 14.5694 10.1463C14.314 10.1463 14.1585 10.2687 13.9475 10.4689L13.2701 13.6953H12.0486L12.9481 9.45653H14.1696V9.4454Z" fill="#6D1D0E"/>
<path d="M13.2701 13.9734H12.0486C11.9598 13.9734 11.882 13.9289 11.8265 13.8622C11.771 13.7954 11.7488 13.7064 11.771 13.6174L12.6705 9.37865C12.7038 9.24515 12.8148 9.15614 12.9481 9.15614H14.1696C14.2584 9.15614 14.3362 9.18952 14.3917 9.2674C14.4139 9.28965 14.425 9.3119 14.4361 9.34527C14.6249 9.24515 14.8359 9.16727 15.0802 9.16727C15.5799 9.16727 15.9463 9.56778 15.9463 10.0907C15.9463 10.5246 15.6354 10.9918 15.0469 10.9918C14.5694 10.9918 14.4694 10.6358 14.4361 10.4578C14.3695 10.4801 14.3029 10.5357 14.2029 10.6247L13.5477 13.7509C13.5144 13.8733 13.4034 13.9734 13.2701 13.9734ZM12.4039 13.3949H13.0369L13.6699 10.4022C13.681 10.3466 13.7143 10.2909 13.7587 10.2464C13.792 10.213 13.8254 10.1908 13.8587 10.1574C13.792 10.0907 13.7698 9.99054 13.792 9.90154L13.8254 9.72353H13.1924L12.4039 13.3949ZM15.0247 10.4133C15.0358 10.4133 15.0469 10.4133 15.058 10.4133C15.3689 10.4133 15.38 10.1352 15.38 10.0795C15.38 10.0462 15.3689 9.73466 15.0802 9.73466C14.9358 9.73466 14.7915 9.79029 14.6582 9.86816C14.9136 9.92379 14.9691 10.2019 14.9913 10.3021C15.0024 10.3354 15.0136 10.3911 15.0247 10.4133Z" fill="white"/>
<path d="M19.2667 9.4454L18.4338 13.3838C18.9446 13.1946 19.2667 12.9054 19.4999 12.1711H19.8552C19.5221 13.2948 18.878 13.6174 18.3561 13.7509L18.2339 14.3628C17.9785 15.5754 17.2678 15.8091 16.7126 15.8091C16.1907 15.8091 15.7687 15.5421 15.7687 14.9858C15.7687 14.2738 16.5127 13.9178 17.1457 13.7175L17.2456 13.2725C17.0013 13.5395 16.6682 13.7398 16.2351 13.7398C15.6576 13.7398 15.1135 13.3838 15.1135 12.3714C15.1135 11.2254 15.8131 9.40089 17.29 9.40089C17.7675 9.40089 17.9785 9.59002 17.9785 9.83478V9.89041L18.0674 9.4454H19.2667ZM16.5127 15.1416C16.6904 15.1416 16.8903 14.8857 17.0013 14.385L17.0568 14.1403C16.6237 14.3072 16.224 14.5185 16.224 14.8634C16.224 14.9858 16.3239 15.1416 16.5127 15.1416ZM16.3572 12.249C16.3572 12.9054 16.6237 12.9165 16.7792 12.9165C17.0124 12.9165 17.3344 12.6829 17.4566 12.249L17.8897 10.2353C17.8786 10.1463 17.8119 9.92378 17.5454 9.92378C16.8125 9.93491 16.3572 11.4591 16.3572 12.249Z" fill="#6D1D0E"/>
<path d="M16.7126 16.0872C15.9797 16.0872 15.48 15.6422 15.48 14.9747C15.48 14.5964 15.6354 14.2627 15.9575 13.9956C15.3689 13.8955 14.8137 13.4283 14.8137 12.3713C14.8137 11.0029 15.6687 9.12276 17.2789 9.12276C17.5232 9.12276 17.7231 9.16726 17.8675 9.24514C17.923 9.20063 17.9896 9.16726 18.0562 9.16726H19.2778C19.3666 9.16726 19.4443 9.21176 19.4999 9.27851C19.5554 9.34526 19.5776 9.43427 19.5554 9.52327L18.8558 12.8164C19.0001 12.6606 19.1223 12.4381 19.2333 12.0932C19.2667 11.9708 19.3777 11.893 19.511 11.893H19.8663C19.9552 11.893 20.044 11.9375 20.0995 12.0042C20.155 12.0821 20.1661 12.1711 20.1439 12.2601C19.7997 13.4171 19.1445 13.8065 18.6115 13.9845L18.5226 14.4295C18.2228 15.7979 17.3678 16.0872 16.7126 16.0872ZM16.124 15.2751C16.2684 15.4864 16.5571 15.5198 16.7015 15.5198C17.5898 15.5198 17.8342 14.83 17.9452 14.3072L18.0674 13.6953C18.0785 13.6285 18.1229 13.5618 18.1784 13.5284C18.1451 13.4728 18.134 13.3949 18.1451 13.3281L18.9113 9.74577H18.2783L18.2339 9.95716C18.2228 10.0239 18.1895 10.0795 18.1451 10.1129C18.1562 10.1463 18.1673 10.1908 18.1673 10.2242C18.1673 10.2575 18.1673 10.2798 18.1673 10.3132L17.7342 12.3268V12.338C17.6565 12.6272 17.4899 12.8497 17.3122 13.0055C17.3344 13.0055 17.3567 13.0166 17.3789 13.0277C17.4899 13.0834 17.5565 13.2169 17.5232 13.3393L17.4233 13.7843C17.4011 13.8621 17.3567 13.9289 17.29 13.9734C17.3455 14.0401 17.3567 14.118 17.3455 14.207L17.29 14.4518C17.1568 15.0748 16.868 15.4308 16.5238 15.4308C16.3572 15.4308 16.224 15.3752 16.124 15.2751ZM16.5127 14.8523C16.5127 14.8634 16.5127 14.8634 16.5127 14.8523V14.8523ZM16.5904 14.7077C16.5349 14.7633 16.5127 14.7967 16.5127 14.83C16.5349 14.8078 16.5682 14.7744 16.5904 14.7077ZM17.2678 9.69015C15.9575 9.70127 15.3911 11.4702 15.3911 12.3713C15.3911 13.0722 15.6798 13.4505 16.2351 13.4505C16.4905 13.4505 16.7237 13.3615 16.9236 13.1835C16.8791 13.1946 16.8236 13.1946 16.7792 13.1946C16.3128 13.1946 16.0685 12.872 16.0685 12.249C16.0685 11.7817 16.2018 11.1698 16.4128 10.6803C16.646 10.1463 16.9347 9.81253 17.2678 9.69015ZM17.5343 10.213C17.1123 10.213 16.6348 11.4257 16.6348 12.249C16.6348 12.5494 16.7015 12.6161 16.7015 12.6161C16.7126 12.6161 16.757 12.6161 16.7681 12.6161C16.8569 12.6161 17.079 12.4826 17.1679 12.1711L17.5898 10.2242C17.5787 10.213 17.5565 10.213 17.5343 10.213Z" fill="white"/>
<path d="M20.9768 13.0277C21.6431 13.0277 22.0539 12.6495 22.4759 12.1711H22.7646C22.2871 12.9499 21.5653 13.7398 20.4327 13.7398C19.6331 13.7398 19.1112 13.3504 19.1112 12.3936C19.1112 11.4146 19.6664 9.37865 21.3988 9.37865C22.1539 9.37865 22.3316 9.76803 22.3316 10.1908C22.3316 11.1698 21.3988 11.9152 20.3882 11.982C20.3771 12.1043 20.366 12.2156 20.366 12.3269C20.366 12.8831 20.5659 13.0277 20.9768 13.0277ZM21.4654 9.82366C21.0323 9.82366 20.6214 10.7359 20.4549 11.5703C21.11 11.5258 21.6875 10.8806 21.6875 10.1685C21.6764 9.95716 21.6209 9.82366 21.4654 9.82366Z" fill="#6D1D0E"/>
<path d="M20.4327 14.0179C19.411 14.0179 18.8225 13.4171 18.8225 12.3825C18.8225 11.3033 19.4554 9.07826 21.3988 9.07826C22.1872 9.07826 22.6203 9.46765 22.6203 10.1797C22.6203 11.1809 21.7652 12.0487 20.6547 12.2267C20.6547 12.2601 20.6547 12.2824 20.6547 12.3046C20.6547 12.7162 20.7325 12.7274 20.9768 12.7274C21.4987 12.7274 21.8318 12.4604 22.2649 11.9708C22.3205 11.9041 22.3982 11.8707 22.4759 11.8707H22.7646C22.8646 11.8707 22.9645 11.9263 23.0089 12.0153C23.0645 12.1043 23.0534 12.2156 22.9978 12.3046C22.2871 13.4616 21.4543 14.0179 20.4327 14.0179ZM21.0434 9.69015C20.5548 9.79028 20.155 10.1129 19.8552 10.6469C19.5221 11.2477 19.3999 11.9597 19.3999 12.3825C19.3999 13.1056 19.7331 13.4394 20.4327 13.4394C20.6992 13.4394 20.9435 13.3949 21.1767 13.2948C21.11 13.3059 21.0434 13.3059 20.9657 13.3059C20.3549 13.3059 20.0662 12.9832 20.0662 12.3046C20.0662 12.1934 20.0773 12.071 20.0884 11.9486C20.0995 11.8596 20.1439 11.7817 20.2106 11.7372C20.1661 11.6705 20.1439 11.5926 20.155 11.5147C20.2883 10.9362 20.577 10.0462 21.0434 9.69015ZM21.3877 10.1352C21.2433 10.2353 21.0212 10.5913 20.8546 11.1253C21.1656 10.9251 21.3877 10.5468 21.3877 10.1574C21.3877 10.1574 21.3877 10.1463 21.3877 10.1352ZM21.8652 9.75691C21.9207 9.84591 21.954 9.97941 21.954 10.1685C21.954 10.4689 21.8652 10.7582 21.7208 11.0141C21.9207 10.7693 22.0317 10.4912 22.0317 10.1797C22.0428 10.0239 22.0206 9.85703 21.8652 9.75691ZM21.4654 10.1018V9.81253V10.1018Z" fill="white"/>
<path d="M24.0528 9.4454L23.9417 9.96829C24.2416 9.71241 24.5636 9.4454 24.9634 9.4454C25.3409 9.4454 25.5519 9.75691 25.5519 10.0795C25.5519 10.3799 25.352 10.7026 24.9412 10.7026C24.4637 10.7026 24.708 10.1463 24.4525 10.1463C24.1971 10.1463 24.0417 10.2687 23.8307 10.4689L23.1533 13.6953H21.9318L22.8313 9.45653H24.0528V9.4454Z" fill="#6D1D0E"/>
<path d="M23.1533 13.9734H21.9318C21.843 13.9734 21.7652 13.9289 21.7097 13.8622C21.6542 13.7954 21.632 13.7064 21.6542 13.6174L22.5537 9.37865C22.587 9.24515 22.698 9.15614 22.8313 9.15614H24.0528C24.1416 9.15614 24.2194 9.18952 24.2749 9.2674C24.2971 9.28965 24.3082 9.3119 24.3193 9.34527C24.5081 9.24515 24.7191 9.16727 24.9634 9.16727C25.4631 9.16727 25.8295 9.56778 25.8295 10.0907C25.8295 10.5246 25.5186 10.9918 24.9301 10.9918C24.4526 10.9918 24.3526 10.6358 24.3193 10.4578C24.2527 10.4801 24.186 10.5357 24.0861 10.6247L23.4309 13.7509C23.4087 13.8733 23.2866 13.9734 23.1533 13.9734ZM22.2871 13.3949H22.9201L23.5531 10.4022C23.5642 10.3466 23.5975 10.2909 23.6419 10.2464C23.6752 10.213 23.7085 10.1908 23.7419 10.1574C23.6752 10.0907 23.653 9.99054 23.6752 9.90154L23.7085 9.72353H23.0756L22.2871 13.3949ZM24.9078 10.4133C24.9189 10.4133 24.9301 10.4133 24.9412 10.4133C25.2521 10.4133 25.2632 10.1129 25.2632 10.0795C25.2632 10.0462 25.2521 9.73466 24.9634 9.73466C24.819 9.73466 24.6746 9.79029 24.5414 9.86816C24.7968 9.92379 24.8523 10.2019 24.8745 10.3021C24.8856 10.3354 24.8967 10.3911 24.9078 10.4133Z" fill="white"/>
<path d="M5.9077 7.84336L5.45241 9.82366H5.50793C6.28526 9.82366 6.90712 9.04489 6.90712 8.37737C6.90712 7.86561 6.54067 7.42059 5.61898 7.42059C4.47519 7.42059 3.17594 8.11036 3.17594 9.57891C3.17594 10.035 3.29809 10.1018 3.3092 10.1797C2.66513 10.1797 2.26536 9.95717 2.26536 9.3564C2.26536 8.13262 3.96438 6.99783 5.80776 6.99783C7.24026 6.99783 7.88434 7.6876 7.88434 8.41075C7.88434 8.93364 7.54009 9.50103 6.90712 9.82366C7.73997 9.97942 8.06201 10.5913 8.06201 11.2588C8.06201 12.1155 7.55119 13.8177 5.92991 13.8177C5.50793 13.8177 4.9638 13.7064 4.9638 13.1613C4.9638 13.0166 5.00822 12.8498 5.08595 12.6495C5.33025 12.8831 5.51903 12.9721 5.74113 12.9721C6.45183 12.9721 6.70724 12.0487 6.70724 11.3701C6.70724 10.7471 6.49625 10.2353 5.78555 10.2353C5.70781 10.2353 5.50793 10.2464 5.34136 10.2576L4.54182 13.6841H3.14263L4.46409 8.02136L5.9077 7.84336Z" fill="#411F1F"/>
<path d="M11.982 9.44539L11.3712 12.3269C11.349 12.4381 11.3379 12.5271 11.3379 12.5939C11.3379 12.8275 11.449 12.9054 11.6821 12.9054C12.0153 12.9054 12.2374 12.5827 12.3706 12.16H12.726C12.2485 13.5395 11.4823 13.7286 11.027 13.7286C10.5495 13.7286 10.2385 13.4505 10.1941 12.9276C9.77214 13.6174 9.29464 13.7286 8.93929 13.7286C8.42847 13.7286 8.0287 13.4283 8.0287 12.7162C8.0287 12.5605 8.05091 12.3714 8.09533 12.16L8.67277 9.43427H9.89429L9.28353 12.3157C9.27243 12.4047 9.26132 12.4715 9.26132 12.5494C9.26132 12.7496 9.32795 12.8942 9.51673 12.8942C9.84987 12.8942 10.072 12.5716 10.1941 12.1488L10.7716 9.42314H11.982V9.44539Z" fill="#411F1F"/>
<path d="M14.1696 9.4454L14.0586 9.96829C14.3584 9.71241 14.6804 9.4454 15.0802 9.4454C15.4577 9.4454 15.6687 9.75691 15.6687 10.0795C15.6687 10.3799 15.4689 10.7026 15.058 10.7026C14.5805 10.7026 14.8248 10.1463 14.5694 10.1463C14.314 10.1463 14.1585 10.2687 13.9475 10.4689L13.2701 13.6953H12.0486L12.9481 9.45653H14.1696V9.4454Z" fill="#411F1F"/>
<path d="M19.2667 9.4454L18.4338 13.3838C18.9446 13.1946 19.2667 12.9054 19.4999 12.1711H19.8552C19.5221 13.2948 18.878 13.6174 18.3561 13.7509L18.2339 14.3628C17.9785 15.5754 17.2678 15.8091 16.7126 15.8091C16.1907 15.8091 15.7687 15.5421 15.7687 14.9858C15.7687 14.2738 16.5127 13.9178 17.1457 13.7175L17.2456 13.2725C17.0013 13.5395 16.6682 13.7398 16.2351 13.7398C15.6576 13.7398 15.1135 13.3838 15.1135 12.3714C15.1135 11.2254 15.8131 9.40089 17.29 9.40089C17.7675 9.40089 17.9785 9.59002 17.9785 9.83478V9.89041L18.0673 9.4454H19.2667ZM16.5127 15.1416C16.6904 15.1416 16.8902 14.8857 17.0013 14.385L17.0568 14.1403C16.6237 14.3072 16.224 14.5185 16.224 14.8634C16.224 14.9858 16.3239 15.1416 16.5127 15.1416ZM16.3572 12.249C16.3572 12.9054 16.6237 12.9165 16.7792 12.9165C17.0124 12.9165 17.3344 12.6829 17.4566 12.249L17.8897 10.2353C17.8786 10.1463 17.8119 9.92378 17.5454 9.92378C16.8125 9.93491 16.3572 11.4591 16.3572 12.249Z" fill="#411F1F"/>
<path d="M20.9768 13.0277C21.6431 13.0277 22.0539 12.6495 22.4759 12.1711H22.7646C22.2871 12.9499 21.5653 13.7398 20.4326 13.7398C19.6331 13.7398 19.1112 13.3504 19.1112 12.3936C19.1112 11.4146 19.6664 9.37865 21.3988 9.37865C22.1539 9.37865 22.3316 9.76803 22.3316 10.1908C22.3316 11.1698 21.3988 11.9152 20.3882 11.982C20.3771 12.1043 20.366 12.2156 20.366 12.3269C20.366 12.8831 20.5659 13.0277 20.9768 13.0277ZM21.4654 9.82366C21.0323 9.82366 20.6214 10.7359 20.4549 11.5703C21.11 11.5258 21.6875 10.8806 21.6875 10.1685C21.6764 9.95716 21.6209 9.82366 21.4654 9.82366Z" fill="#411F1F"/>
<path d="M24.0528 9.4454L23.9417 9.96829C24.2416 9.71241 24.5636 9.4454 24.9634 9.4454C25.3409 9.4454 25.5519 9.75691 25.5519 10.0795C25.5519 10.3799 25.352 10.7026 24.9412 10.7026C24.4637 10.7026 24.708 10.1463 24.4525 10.1463C24.1971 10.1463 24.0417 10.2687 23.8307 10.4689L23.1533 13.6953H21.9318L22.8313 9.45653H24.0528V9.4454Z" fill="#411F1F"/>
<path d="M1.53245 12.5605C1.89891 12.6384 2.27647 13.0166 2.72066 13.0166C2.8206 13.0166 2.90944 13.0055 3.02048 12.961C2.98717 13.3059 2.84281 13.5173 2.65403 13.5173C2.14321 13.5173 1.69903 12.7162 1.07716 12.7162C1.04385 12.7162 1.02164 12.7162 0.999429 12.7162L1.52135 10.2575C1.21042 10.3799 1.02164 10.6469 1.02164 11.0252C1.02164 11.2032 1.06606 11.2366 1.06606 11.2699C0.821754 11.2699 0.688498 11.1809 0.688498 10.9251C0.688498 10.4578 1.34367 10.0017 1.93222 10.0017C1.97664 10.0017 2.03217 10.0017 2.07659 10.0128L1.53245 12.5605Z" fill="#6D1D0E"/>
<path d="M2.64292 13.7954C2.29867 13.7954 2.03216 13.5729 1.76565 13.3615C1.52134 13.1724 1.29925 12.9944 1.06605 12.9944C1.05495 12.9944 1.03274 12.9944 1.02163 12.9944C0.932795 13.0055 0.832853 12.9721 0.77733 12.9054C0.710701 12.8386 0.688492 12.7385 0.710701 12.6495L0.9439 11.5481C0.455293 11.4925 0.39977 11.1031 0.39977 10.9251C0.39977 10.3688 1.06605 9.7124 1.92111 9.7124C1.97664 9.7124 2.03216 9.7124 2.07658 9.72353C2.15431 9.73465 2.23205 9.76803 2.28757 9.83478C2.34309 9.90153 2.3542 9.99054 2.34309 10.0684L1.85449 12.3602C1.94332 12.4047 2.03216 12.4492 2.121 12.4937C2.32088 12.605 2.52077 12.7162 2.70955 12.7162C2.77618 12.7162 2.8428 12.7051 2.89833 12.6829C2.98717 12.6495 3.09821 12.6606 3.17595 12.7162C3.25368 12.7719 3.2981 12.872 3.28699 12.9721C3.24257 13.584 2.92054 13.7954 2.64292 13.7954Z" fill="white"/>
<path d="M2.69845 12.3157C2.83171 12.3157 2.99828 12.2267 3.12043 12.1266C3.0427 12.5271 2.78729 12.6495 2.50967 12.6495C2.17653 12.6495 1.96554 12.4826 1.96554 12.0821C1.96554 11.6705 2.19874 10.8249 2.92055 10.8249C3.23148 10.8249 3.30921 10.9918 3.30921 11.1698C3.30921 11.5815 2.92055 11.893 2.49857 11.9152C2.49857 11.9486 2.48746 11.9931 2.48746 12.0265C2.48746 12.2379 2.5763 12.3157 2.69845 12.3157ZM2.94276 11.0141C2.76508 11.0141 2.58741 11.4035 2.52078 11.7483C2.7984 11.7372 3.03159 11.4591 3.03159 11.1698C3.03159 11.0697 3.00938 11.0141 2.94276 11.0141Z" fill="#6D1D0E"/>
<path d="M2.50967 12.9387C1.99885 12.9387 1.67681 12.6161 1.67681 12.0932C1.67681 11.4479 2.06548 10.5468 2.92054 10.5468C3.33141 10.5468 3.59793 10.7916 3.59793 11.1698C3.59793 11.4479 3.47578 11.6927 3.27589 11.8818C3.37583 11.9486 3.43136 12.0598 3.40915 12.1822C3.3092 12.6606 2.98717 12.9387 2.50967 12.9387Z" fill="white"/>
<path d="M1.53245 12.5605C1.89891 12.6384 2.27647 13.0166 2.72065 13.0166C2.8206 13.0166 2.90943 13.0055 3.02048 12.961C2.98717 13.3059 2.84281 13.5173 2.65403 13.5173C2.14321 13.5173 1.69902 12.7162 1.07716 12.7162C1.04384 12.7162 1.02163 12.7162 0.999424 12.7162L1.52135 10.2575C1.21041 10.3799 1.02163 10.6469 1.02163 11.0252C1.02163 11.2032 1.06605 11.2366 1.06605 11.2699C0.821749 11.2699 0.688493 11.1809 0.688493 10.9251C0.688493 10.4578 1.34367 10.0017 1.93222 10.0017C1.97664 10.0017 2.03216 10.0017 2.07658 10.0128L1.53245 12.5605Z" fill="#411F1F"/>
<path d="M2.69844 12.3157C2.8317 12.3157 2.99827 12.2267 3.12042 12.1266C3.04269 12.5271 2.78728 12.6495 2.50966 12.6495C2.17652 12.6495 1.96553 12.4826 1.96553 12.0821C1.96553 11.6705 2.19873 10.8249 2.92054 10.8249C3.23147 10.8249 3.3092 10.9918 3.3092 11.1698C3.3092 11.5815 2.92054 11.893 2.49856 11.9152C2.49856 11.9486 2.48745 11.9931 2.48745 12.0265C2.48745 12.2379 2.57629 12.3157 2.69844 12.3157ZM2.94275 11.0141C2.76507 11.0141 2.5874 11.4035 2.52077 11.7483C2.79839 11.7372 3.03158 11.4591 3.03158 11.1698C3.03158 11.0697 3.00938 11.0141 2.94275 11.0141Z" fill="#411F1F"/>
</svg>
