<svg width="25" height="20" viewBox="0 0 25 20" fill="none" xmlns="http://www.w3.org/2000/svg">
<path d="M7.6379 20C6.14377 20 4.72769 19.9888 3.62382 19.565C2.25234 19.0296 1.56103 17.9253 1.53873 16.2744L1.21537 16.2967C1.20422 16.2967 1.18192 16.2967 1.17077 16.2967C0.958918 16.2967 0.758215 16.2186 0.590961 16.0736C0.423708 15.9175 0.323356 15.7055 0.312206 15.4824L0.289906 14.9805C0.278755 14.8466 0.301056 14.7239 0.356807 14.6012L0.334506 14.3335C0.312206 13.9654 0.52406 13.6419 0.836266 13.5081C0.836266 13.4635 0.847416 13.4189 0.858566 13.3742L1.42723 10.976C0.379107 10.8087 0 10.0502 0 9.33632C0 8.42165 0.579811 7.55161 1.56103 6.94926C1.57218 3.56946 5.196 -0.0111285 11.9084 2.59951e-05C14.9413 0.0111805 17.5393 0.747376 19.4237 2.15284C21.1408 3.4356 22.122 5.19801 22.122 6.99388V7.36198C22.122 7.38429 22.122 7.4066 22.122 7.42891V8.60013H22.2447C22.3673 8.60013 22.5011 8.63359 22.6126 8.67821C22.7799 8.62244 22.9471 8.60013 23.1478 8.60013C23.9507 8.60013 24.5862 9.25824 24.5862 10.0837C24.5862 10.9203 23.9507 11.5561 23.1255 11.5449C23.0252 11.5449 22.8691 11.5338 22.7018 11.478L22.5234 12.3034L22.7464 12.2923C22.7576 12.2923 22.7799 12.2923 22.791 12.2923C23.0029 12.2923 23.2036 12.3703 23.3708 12.5153C23.5381 12.6715 23.6385 12.8834 23.6496 13.1065L23.6608 13.3519C23.7165 13.4635 23.7611 13.5862 23.7611 13.72L23.7834 14.222C23.7946 14.4451 23.7165 14.6793 23.5604 14.8466C23.4043 15.0139 23.1924 15.1143 22.9694 15.1255L22.6461 15.1366C22.6126 15.1366 22.6015 15.1366 22.5903 15.1366C22.568 15.1478 22.5011 15.2036 22.4454 15.237C22.3562 15.304 22.2447 15.382 22.0997 15.4713V16.2186C22.0997 17.903 21.3861 19.0296 20.0035 19.565C18.8996 19.9888 17.4835 19.9888 15.9894 19.9888L7.6379 20Z" fill="white"/>
<path d="M21.4419 6.91585C21.4419 3.95991 18.2083 0.669342 11.8861 0.669342C5.56395 0.669342 2.20774 3.95991 2.20774 6.91585V7.36203H21.453V6.91585H21.4419Z" fill="#AB7029"/>
<path d="M9.81219 1.5394H9.18778C9.15433 1.5394 9.13203 1.56171 9.12088 1.58402C9.10973 1.60633 9.09858 1.65094 9.09858 1.71787C9.09858 1.7848 9.10973 1.82941 9.12088 1.85172C9.13203 1.88519 9.16548 1.89634 9.18778 1.89634H9.81219C9.84564 1.89634 9.86794 1.87403 9.87909 1.85172C9.89024 1.82941 9.90139 1.7848 9.90139 1.71787C9.90139 1.65094 9.89024 1.60633 9.87909 1.58402C9.86794 1.56171 9.84564 1.5394 9.81219 1.5394Z" fill="#9C6226"/>
<path d="M12.1426 1.5394H11.5182C11.4847 1.5394 11.4624 1.56171 11.4513 1.58402C11.4401 1.60633 11.429 1.65094 11.429 1.71787C11.429 1.7848 11.4401 1.82941 11.4513 1.85172C11.4624 1.88519 11.4959 1.89634 11.5182 1.89634H12.1426C12.176 1.89634 12.1983 1.87403 12.2095 1.85172C12.2206 1.82941 12.2318 1.7848 12.2318 1.71787C12.2318 1.65094 12.2206 1.60633 12.2095 1.58402C12.2095 1.56171 12.176 1.5394 12.1426 1.5394Z" fill="#9C6226"/>
<path d="M14.4841 1.5394H13.8597C13.8263 1.5394 13.804 1.56171 13.7928 1.58402C13.7817 1.60633 13.7705 1.65094 13.7705 1.71787C13.7705 1.7848 13.7817 1.82941 13.7928 1.85172C13.804 1.88519 13.8374 1.89634 13.8597 1.89634H14.4841C14.5176 1.89634 14.5399 1.87403 14.551 1.85172C14.5622 1.82941 14.5733 1.7848 14.5733 1.71787C14.5733 1.65094 14.5622 1.60633 14.551 1.58402C14.551 1.56171 14.5176 1.5394 14.4841 1.5394Z" fill="#9C6226"/>
<path d="M8.63027 2.93372H8.00585C7.9724 2.93372 7.9501 2.95602 7.93895 2.97833C7.9278 3.00064 7.91665 3.04526 7.91665 3.11219C7.91665 3.17911 7.9278 3.22373 7.93895 3.24604C7.9501 3.2795 7.98355 3.29066 8.00585 3.29066H8.63027C8.66372 3.29066 8.68602 3.26835 8.69717 3.24604C8.70832 3.22373 8.71947 3.17911 8.71947 3.11219C8.71947 3.04526 8.70832 3.00064 8.69717 2.97833C8.69717 2.95602 8.66372 2.93372 8.63027 2.93372Z" fill="#9C6226"/>
<path d="M10.9718 2.93372H10.3474C10.3139 2.93372 10.2916 2.95602 10.2805 2.97833C10.2693 3.00064 10.2582 3.04526 10.2582 3.11219C10.2582 3.17911 10.2693 3.22373 10.2805 3.24604C10.2916 3.2795 10.3251 3.29066 10.3474 3.29066H10.9718C11.0053 3.29066 11.0276 3.26835 11.0387 3.24604C11.0499 3.22373 11.061 3.17911 11.061 3.11219C11.061 3.04526 11.0499 3.00064 11.0387 2.97833C11.0387 2.95602 11.0053 2.93372 10.9718 2.93372Z" fill="#9C6226"/>
<path d="M6.31102 2.93372H5.68661C5.65316 2.93372 5.63086 2.95602 5.61971 2.97833C5.60856 3.00064 5.59741 3.04526 5.59741 3.11219C5.59741 3.17911 5.60856 3.22373 5.61971 3.24604C5.63086 3.2795 5.66431 3.29066 5.68661 3.29066H6.31102C6.34447 3.29066 6.36677 3.26835 6.37792 3.24604C6.38907 3.22373 6.40022 3.17911 6.40022 3.11219C6.40022 3.04526 6.38907 3.00064 6.37792 2.97833C6.36677 2.95602 6.33332 2.93372 6.31102 2.93372Z" fill="#9C6226"/>
<path d="M13.3134 2.93372H12.6889C12.6555 2.93372 12.6332 2.95602 12.622 2.97833C12.6109 3.00064 12.5997 3.04526 12.5997 3.11219C12.5997 3.17911 12.6109 3.22373 12.622 3.24604C12.6332 3.2795 12.6666 3.29066 12.6889 3.29066H13.3134C13.3468 3.29066 13.3691 3.26835 13.3803 3.24604C13.3914 3.22373 13.4026 3.17911 13.4026 3.11219C13.4026 3.04526 13.3914 3.00064 13.3803 2.97833C13.3691 2.95602 13.3468 2.93372 13.3134 2.93372Z" fill="#9C6226"/>
<path d="M15.6549 2.93372H15.0305C14.997 2.93372 14.9747 2.95602 14.9636 2.97833C14.9524 3.00064 14.9413 3.04526 14.9413 3.11219C14.9413 3.17911 14.9524 3.22373 14.9636 3.24604C14.9747 3.2795 15.0082 3.29066 15.0305 3.29066H15.6549C15.6883 3.29066 15.7107 3.26835 15.7218 3.24604C15.733 3.22373 15.7441 3.17911 15.7441 3.11219C15.7441 3.04526 15.733 3.00064 15.7218 2.97833C15.7107 2.95602 15.6772 2.93372 15.6549 2.93372Z" fill="#9C6226"/>
<path d="M17.9853 2.93372H17.3609C17.3274 2.93372 17.3051 2.95602 17.294 2.97833C17.2828 3.00064 17.2717 3.04526 17.2717 3.11219C17.2717 3.17911 17.2828 3.22373 17.294 3.24604C17.3051 3.2795 17.3386 3.29066 17.3609 3.29066H17.9853C18.0187 3.29066 18.041 3.26835 18.0522 3.24604C18.0633 3.22373 18.0745 3.17911 18.0745 3.11219C18.0745 3.04526 18.0633 3.00064 18.0522 2.97833C18.0522 2.95602 18.0187 2.93372 17.9853 2.93372Z" fill="#9C6226"/>
<path d="M9.81219 4.39496H9.18778C9.15433 4.39496 9.13203 4.41727 9.12088 4.43958C9.10973 4.46189 9.09858 4.5065 9.09858 4.57343C9.09858 4.64036 9.10973 4.68497 9.12088 4.70728C9.13203 4.74075 9.16548 4.7519 9.18778 4.7519H9.81219C9.84564 4.7519 9.86794 4.72959 9.87909 4.70728C9.89024 4.68497 9.90139 4.64036 9.90139 4.57343C9.90139 4.5065 9.89024 4.46189 9.87909 4.43958C9.86794 4.41727 9.84564 4.39496 9.81219 4.39496Z" fill="#9C6226"/>
<path d="M12.1426 4.39496H11.5182C11.4847 4.39496 11.4624 4.41727 11.4513 4.43958C11.4401 4.46189 11.429 4.5065 11.429 4.57343C11.429 4.64036 11.4401 4.68497 11.4513 4.70728C11.4624 4.74075 11.4959 4.7519 11.5182 4.7519H12.1426C12.176 4.7519 12.1983 4.72959 12.2095 4.70728C12.2206 4.68497 12.2318 4.64036 12.2318 4.57343C12.2318 4.5065 12.2206 4.46189 12.2095 4.43958C12.2095 4.41727 12.176 4.39496 12.1426 4.39496Z" fill="#9C6226"/>
<path d="M14.4841 4.39496H13.8597C13.8263 4.39496 13.804 4.41727 13.7928 4.43958C13.7817 4.46189 13.7705 4.5065 13.7705 4.57343C13.7705 4.64036 13.7817 4.68497 13.7928 4.70728C13.804 4.74075 13.8374 4.7519 13.8597 4.7519H14.4841C14.5176 4.7519 14.5399 4.72959 14.551 4.70728C14.5622 4.68497 14.5733 4.64036 14.5733 4.57343C14.5733 4.5065 14.5622 4.46189 14.551 4.43958C14.551 4.41727 14.5176 4.39496 14.4841 4.39496Z" fill="#9C6226"/>
<path d="M10.9718 5.78926H10.3474C10.3139 5.78926 10.2916 5.81157 10.2805 5.83388C10.2693 5.85619 10.2582 5.90081 10.2582 5.96773C10.2582 6.03466 10.2693 6.07928 10.2805 6.10159C10.2916 6.13505 10.3251 6.1462 10.3474 6.1462H10.9718C11.0053 6.1462 11.0276 6.1239 11.0387 6.10159C11.0499 6.07928 11.061 6.03466 11.061 5.96773C11.061 5.90081 11.0499 5.85619 11.0387 5.83388C11.0387 5.81157 11.0053 5.78926 10.9718 5.78926Z" fill="#9C6226"/>
<path d="M13.3134 5.78926H12.6889C12.6555 5.78926 12.6332 5.81157 12.622 5.83388C12.6109 5.85619 12.5997 5.90081 12.5997 5.96773C12.5997 6.03466 12.6109 6.07928 12.622 6.10159C12.6332 6.13505 12.6666 6.1462 12.6889 6.1462H13.3134C13.3468 6.1462 13.3691 6.1239 13.3803 6.10159C13.3914 6.07928 13.4026 6.03466 13.4026 5.96773C13.4026 5.90081 13.3914 5.85619 13.3803 5.83388C13.3691 5.81157 13.3468 5.78926 13.3134 5.78926Z" fill="#9C6226"/>
<path d="M16.8034 4.39496H16.2013C16.1678 4.39496 16.1455 4.41727 16.1344 4.43958C16.1232 4.46189 16.1121 4.5065 16.1121 4.57343C16.1121 4.64036 16.1232 4.68497 16.1344 4.70728C16.1455 4.74075 16.179 4.7519 16.2013 4.7519H16.8034C16.8368 4.7519 16.8591 4.72959 16.8703 4.70728C16.8814 4.68497 16.8926 4.64036 16.8926 4.57343C16.8926 4.5065 16.8814 4.46189 16.8703 4.43958C16.8591 4.41727 16.8368 4.39496 16.8034 4.39496Z" fill="#9C6226"/>
<path d="M19.2118 4.43958C19.2007 4.40611 19.1672 4.39496 19.1449 4.39496H18.5205C18.4871 4.39496 18.4648 4.41727 18.4536 4.43958C18.4425 4.46189 18.4313 4.5065 18.4313 4.57343C18.4313 4.64036 18.4425 4.68497 18.4536 4.70728C18.4648 4.74075 18.4982 4.7519 18.5205 4.7519H19.1449C19.1784 4.7519 19.2007 4.72959 19.2118 4.70728C19.223 4.68497 19.2341 4.64036 19.2341 4.57343C19.2341 4.5065 19.223 4.46189 19.2118 4.43958Z" fill="#9C6226"/>
<path d="M17.9853 5.78926H17.3386C17.3051 5.78926 17.2828 5.81157 17.2717 5.83388C17.2605 5.85619 17.2494 5.90081 17.2494 5.96773C17.2494 6.03466 17.2605 6.07928 17.2717 6.10159C17.2828 6.13505 17.3163 6.1462 17.3386 6.1462H17.9853C18.0187 6.1462 18.041 6.1239 18.0522 6.10159C18.0633 6.07928 18.0745 6.03466 18.0745 5.96773C18.0745 5.90081 18.0633 5.85619 18.0522 5.83388C18.0522 5.81157 18.0187 5.78926 17.9853 5.78926Z" fill="#9C6226"/>
<path d="M15.6437 5.78926H15.0305C14.997 5.78926 14.9747 5.81157 14.9636 5.83388C14.9524 5.85619 14.9413 5.90081 14.9413 5.96773C14.9413 6.03466 14.9524 6.07928 14.9636 6.10159C14.9747 6.13505 15.0082 6.1462 15.0305 6.1462H15.6437C15.6772 6.1462 15.6995 6.1239 15.7106 6.10159C15.7218 6.07928 15.733 6.03466 15.733 5.96773C15.733 5.90081 15.7218 5.85619 15.7106 5.83388C15.6995 5.81157 15.6772 5.78926 15.6437 5.78926Z" fill="#9C6226"/>
<path d="M5.1291 4.39496H4.50469C4.47124 4.39496 4.44894 4.41727 4.43779 4.43958C4.42664 4.46189 4.41549 4.5065 4.41549 4.57343C4.41549 4.64036 4.42664 4.68497 4.43779 4.70728C4.44894 4.74075 4.48239 4.7519 4.50469 4.7519H5.1291C5.16255 4.7519 5.18485 4.72959 5.196 4.70728C5.20715 4.68497 5.2183 4.64036 5.2183 4.57343C5.2183 4.5065 5.20715 4.46189 5.196 4.43958C5.18485 4.41727 5.16255 4.39496 5.1291 4.39496Z" fill="#9C6226"/>
<path d="M7.47064 4.39496H6.84623C6.81278 4.39496 6.79048 4.41727 6.77933 4.43958C6.76818 4.46189 6.75703 4.5065 6.75703 4.57343C6.75703 4.64036 6.76818 4.68497 6.77933 4.70728C6.79048 4.74075 6.82393 4.7519 6.84623 4.7519H7.47064C7.50409 4.7519 7.52639 4.72959 7.53754 4.70728C7.54869 4.68497 7.55984 4.64036 7.55984 4.57343C7.55984 4.5065 7.54869 4.46189 7.53754 4.43958C7.52639 4.41727 7.50409 4.39496 7.47064 4.39496Z" fill="#9C6226"/>
<path d="M6.29987 5.78926H5.68661C5.65316 5.78926 5.63086 5.81157 5.61971 5.83388C5.60856 5.85619 5.59741 5.90081 5.59741 5.96773C5.59741 6.03466 5.60856 6.07928 5.61971 6.10159C5.63086 6.13505 5.66431 6.1462 5.68661 6.1462H6.29987C6.33332 6.1462 6.35562 6.1239 6.36677 6.10159C6.37792 6.07928 6.38907 6.03466 6.38907 5.96773C6.38907 5.90081 6.37792 5.85619 6.36677 5.83388C6.35562 5.81157 6.32217 5.78926 6.29987 5.78926Z" fill="#9C6226"/>
<path d="M8.67487 5.80042C8.66372 5.78926 8.64142 5.78926 8.63027 5.78926H8.00585C7.9724 5.78926 7.9501 5.81157 7.93895 5.83388C7.9278 5.85619 7.91665 5.90081 7.91665 5.96773C7.91665 6.03466 7.9278 6.07928 7.93895 6.10159C7.9501 6.13505 7.98355 6.1462 8.00585 6.1462H8.63027C8.66372 6.1462 8.68602 6.1239 8.69717 6.10159C8.70832 6.07928 8.71947 6.03466 8.71947 5.96773C8.71947 5.90081 8.70832 5.85619 8.69717 5.83388C8.69717 5.82272 8.68602 5.81157 8.67487 5.80042Z" fill="#9C6226"/>
<path d="M21.4419 9.42561C21.4419 9.61524 21.4419 9.76024 21.2523 9.76024H2.39729C2.20774 9.76024 2.20774 9.61524 2.20774 9.42561V8.77865C2.20774 8.58902 2.20774 8.44402 2.39729 8.44402H21.2635C21.453 8.44402 21.453 8.58902 21.453 8.77865V9.42561H21.4419Z" fill="#B32029"/>
<path d="M21.453 7.6409H2.20774V8.14285H21.453V7.6409Z" fill="#FAA21E"/>
<path d="M14.6514 7.81937L11.875 9.49254L8.99822 7.81937H14.6514Z" fill="#FAA21E"/>
<path d="M2.20774 15.9175V16.3637C2.20774 19.3196 4.60504 19.3419 7.55984 19.3419H16.0898C19.0446 19.3419 21.4419 19.3308 21.4419 16.3637V15.9175H2.20774Z" fill="#AB7029"/>
<path d="M3.15551 16.4641C3.15551 16.9326 3.18896 17.2561 3.83567 16.9326C4.48238 16.6091 5.2629 16.1852 6.91313 16.2187C6.29987 16.3972 5.58626 16.7206 5.51935 17.1445C5.45245 17.5795 5.87616 17.758 6.80163 17.5349C6.91313 17.9253 7.30339 18.3604 8.1285 17.6465C8.95362 16.9326 9.41078 16.6426 9.81219 16.4976C10.2024 16.3525 10.3139 16.5645 9.87909 16.821C9.45538 17.0664 9.05397 17.2114 8.98707 17.5015C8.92017 17.7915 8.98707 18.2488 9.70068 18.0369C9.70068 18.5388 9.84564 18.9627 10.4477 18.9627C11.061 18.9627 11.3063 18.6392 11.3063 18.0369C11.6966 18.2488 12.2764 18.3938 12.3098 17.613C12.3433 16.821 12.7001 16.4641 13.0569 16.2856C13.4137 16.1072 13.4806 16.4418 13.2353 16.531C12.9119 16.6537 12.7781 16.888 12.767 17.1445C12.7558 17.468 13.3134 17.9476 13.8709 17.3565C13.9155 17.7022 14.551 17.9253 14.7629 17.2114C14.9747 16.4976 15.0416 16.0514 15.6883 16.0291C15.2423 16.1964 14.9747 16.8545 15.5434 17.0664C16.1121 17.2784 16.402 16.743 16.4689 16.5645C16.5358 16.386 16.7142 15.9956 17.2605 16.0291C16.7922 16.241 16.7922 16.9549 17.2605 16.9995C17.7288 17.033 17.9072 16.888 18.264 16.5645C18.6209 16.241 19.3345 15.8841 20.2265 16.0291C20.0481 16.4976 20.3714 16.676 20.6613 16.6203C21.0182 16.5533 20.9847 16.1629 21.0962 15.9064H2.78755V15.9175C2.49765 16.1072 2.29694 16.8545 3.15551 16.4641Z" fill="#A9AE38"/>
<path d="M1.23767 14.8578C1.58333 14.8355 1.72828 14.9248 1.98474 15.0698C2.28579 15.2483 2.69835 15.4825 3.43427 15.4379C4.17018 15.3933 4.54929 15.1144 4.82804 14.9136C5.0622 14.7463 5.196 14.6459 5.54166 14.6236C5.88731 14.6013 6.03226 14.6905 6.28872 14.8355C6.58978 15.014 7.00233 15.2483 7.73825 15.2036C8.47416 15.159 8.85327 14.8802 9.13202 14.6794C9.36618 14.5121 9.49998 14.4117 9.84564 14.3894C10.1913 14.3671 10.3474 14.4563 10.5927 14.6013C10.8938 14.7798 11.3063 15.014 12.0422 14.9694C12.7781 14.9248 13.1572 14.6459 13.4472 14.4451C13.6813 14.2778 13.8151 14.1774 14.1608 14.1551C14.5064 14.1328 14.6625 14.222 14.9078 14.3671C15.2089 14.5455 15.6214 14.7798 16.3574 14.7352C17.0933 14.6905 17.4724 14.4117 17.7623 14.2109C17.9964 14.0436 18.1302 13.9432 18.4759 13.9209C18.8216 13.8986 18.9777 13.9878 19.223 14.1328C19.524 14.3113 19.9366 14.5455 20.6725 14.5009C21.4084 14.4563 21.7875 14.1774 22.0663 13.9766C22.3004 13.8093 22.4342 13.7089 22.7799 13.6866L23.0252 13.6755L23.0029 13.207L22.7576 13.2181C21.9994 13.2628 21.598 13.5528 21.3081 13.7647C21.085 13.932 20.9512 14.0213 20.639 14.0436C20.3157 14.0659 20.1819 13.9878 19.9366 13.8428C19.6244 13.6643 19.2007 13.4189 18.4424 13.4635C17.6842 13.5082 17.294 13.7982 16.9929 14.0101C16.7699 14.1774 16.6361 14.2667 16.3239 14.289C16.0006 14.3113 15.8668 14.2332 15.6214 14.0882C15.3092 13.9097 14.8855 13.6643 14.1273 13.7089C13.3691 13.7536 12.9677 14.0436 12.6778 14.2555C12.4548 14.4228 12.321 14.5121 12.0088 14.5344C11.6854 14.5567 11.5516 14.4786 11.3063 14.3336C10.9941 14.1551 10.5704 13.9097 9.81219 13.9543C9.05397 13.999 8.65256 14.289 8.36266 14.5009C8.13965 14.6682 8.00585 14.7575 7.69365 14.7798C7.37029 14.8021 7.23649 14.724 6.99118 14.579C6.67898 14.4005 6.25527 14.1551 5.49705 14.1997C4.73884 14.2444 4.33743 14.5344 4.04753 14.7463C3.82452 14.9136 3.69072 15.0029 3.37851 15.0252C3.05516 15.0475 2.92136 14.9694 2.67605 14.8244C2.36385 14.6459 1.94014 14.4005 1.18192 14.4451L0.936619 14.4563L0.958919 14.9248L1.23767 14.8578Z" fill="#B32029"/>
<path d="M22.1778 14.1217C21.8767 14.3447 21.4642 14.6348 20.6836 14.6794C19.9031 14.724 19.4571 14.4674 19.1449 14.289C18.9108 14.1551 18.7881 14.0882 18.4982 14.0993C18.2083 14.1105 18.0968 14.1997 17.8738 14.3559C17.5727 14.579 17.1602 14.869 16.3797 14.9136C15.5991 14.9582 15.1531 14.7017 14.8409 14.5232C14.6068 14.3894 14.4841 14.3224 14.1942 14.3336C13.9043 14.3447 13.7928 14.434 13.5698 14.5901C13.2688 14.8132 12.8562 15.1032 12.0757 15.1479C11.2952 15.1925 10.8603 14.9359 10.537 14.7575C10.3028 14.6236 10.1801 14.5567 9.89024 14.5678C9.60033 14.579 9.48883 14.6682 9.26583 14.8244C8.96477 15.0475 8.55221 15.3375 7.7717 15.3821C6.99118 15.4267 6.54518 15.1702 6.23297 14.9917C5.99882 14.8578 5.87616 14.7909 5.58626 14.8021C5.29635 14.8132 5.18485 14.9025 4.96185 15.0586C4.66079 15.2817 4.24823 15.5717 3.46772 15.6163C2.6872 15.661 2.24119 15.4044 1.92899 15.2259C1.69483 15.0921 1.57218 15.0252 1.28228 15.0363L0.947769 15.0586L0.97007 15.5717L1.30458 15.5494C1.62793 15.5271 1.76173 15.6052 2.00704 15.7502C2.31925 15.9287 2.74295 16.1741 3.50117 16.1295C4.25938 16.0848 4.66079 15.7948 4.9507 15.5829C5.1737 15.4156 5.3075 15.3263 5.61971 15.304C5.94306 15.2817 6.07687 15.3598 6.32217 15.5048C6.63438 15.6833 7.05809 15.9287 7.8163 15.8841C8.57451 15.8394 8.97592 15.5494 9.26583 15.3375C9.48883 15.1702 9.62263 15.0809 9.93484 15.0586C10.2582 15.0363 10.392 15.1144 10.6373 15.2594C10.9495 15.4379 11.3732 15.6833 12.1314 15.6387C12.8896 15.594 13.2911 15.304 13.581 15.0921C13.804 14.9248 13.9378 14.8355 14.25 14.8132C14.5733 14.7909 14.7071 14.869 14.9524 15.014C15.2646 15.1925 15.6884 15.4379 16.4466 15.3933C17.2048 15.3486 17.6062 15.0586 17.8961 14.8467C18.1191 14.6794 18.2529 14.5901 18.5651 14.5678C18.8885 14.5455 19.0223 14.6236 19.2676 14.7686C19.5798 14.9471 20.0035 15.1925 20.7617 15.1479C21.5199 15.1032 21.9213 14.8132 22.2112 14.6013C22.4342 14.434 22.568 14.3447 22.8802 14.3224L23.2147 14.3001L23.1813 13.787L22.8468 13.8093C22.5011 13.8763 22.4008 13.9655 22.1778 14.1217Z" fill="#B32029"/>
<path d="M4.25938 7.83053L3.80222 9.80487H3.85797C4.63849 9.80487 5.2629 9.02406 5.2629 8.36594C5.2629 7.85284 4.90609 7.40666 3.96948 7.40666C2.821 7.40666 1.52758 8.09824 1.52758 9.57063C1.52758 10.028 1.65023 10.0949 1.66138 10.173C1.01467 10.173 0.613262 9.94988 0.613262 9.34754C0.613262 8.12055 2.31924 6.98279 4.17018 6.98279C5.60856 6.98279 6.25527 7.66321 6.25527 8.39941C6.25527 8.92367 5.90961 9.48139 5.27405 9.81603C6.11032 9.97219 6.43367 10.5857 6.43367 11.255C6.43367 12.1138 5.92076 13.8205 4.29283 13.8205C3.86912 13.8205 3.32276 13.7089 3.32276 13.1624C3.32276 13.0174 3.36736 12.85 3.44542 12.6493C3.69072 12.8835 3.88027 12.9727 4.10328 12.9727C4.81689 12.9727 5.07335 12.0469 5.07335 11.3665C5.07335 10.7418 4.86149 10.2399 4.14788 10.2399C4.06983 10.2399 3.86912 10.251 3.70187 10.2622L2.89906 13.6755H1.48298L2.80985 8.009L4.25938 7.83053Z" fill="#6D1F11"/>
<path d="M4.28168 14.1886C3.80222 14.1886 3.43426 14.0659 3.21126 13.8316C3.15551 13.9543 3.02171 14.0324 2.8879 14.0324H1.48298C1.37148 14.0324 1.27112 13.9766 1.19307 13.8986C1.12617 13.8093 1.10387 13.6978 1.12617 13.5862L1.85093 10.4853C1.79518 10.5187 1.72828 10.5411 1.66138 10.5411C0.434858 10.5411 0.245304 9.79371 0.245304 9.35868C0.245304 7.9086 2.07394 6.63699 4.15903 6.63699C5.3744 6.63699 6.61207 7.18356 6.61207 8.42171C6.61207 8.90135 6.40022 9.36984 6.02111 9.73794C6.51172 10.0503 6.79048 10.5857 6.79048 11.2661C6.79048 11.7346 6.65668 12.4485 6.27757 13.062C5.82041 13.7982 5.1291 14.1886 4.28168 14.1886ZM3.70187 13.2627C3.75762 13.3966 3.95832 13.4635 4.28168 13.4635C5.73121 13.4635 6.06571 11.835 6.06571 11.2661C6.06571 10.8422 5.92076 10.318 5.20715 10.1953C5.05105 10.1618 4.93954 10.0503 4.91724 9.8941C4.91724 9.86064 4.91724 9.82717 4.91724 9.79371C4.82804 9.86064 4.73884 9.91641 4.64964 9.97218C5.02874 10.1172 5.4413 10.4741 5.4413 11.3776C5.4413 12.3258 5.02874 13.352 4.10328 13.352C3.95832 13.3408 3.83567 13.3074 3.70187 13.2627ZM1.94014 13.3074H2.598L3.33391 10.173C3.35621 10.0837 3.40081 10.0168 3.46772 9.96103C3.43426 9.88294 3.42311 9.80486 3.43426 9.71563L3.77992 8.25439L3.09976 8.33247L1.94014 13.3074ZM3.57922 12.3146C3.62382 12.3369 3.65727 12.3592 3.69072 12.3927C3.90257 12.5935 4.00293 12.6158 4.09213 12.6158C4.52699 12.6158 4.69424 11.8573 4.69424 11.3776C4.69424 10.6749 4.40433 10.608 4.12558 10.608C4.09213 10.608 4.03638 10.608 3.96947 10.608L3.57922 12.3146ZM2.34154 8.3994C2.07394 8.67826 1.89554 9.05751 1.89554 9.55946C1.89554 9.80486 1.94014 9.87179 1.96244 9.92756C1.96244 9.93872 1.97359 9.94987 1.98474 9.96103L2.34154 8.3994ZM1.47183 8.35478C1.17077 8.65595 0.981218 9.00174 0.981218 9.35868C0.981218 9.48138 0.981218 9.63755 1.17077 9.72678C1.17077 9.68216 1.17077 9.62639 1.17077 9.57062C1.15962 9.11329 1.27112 8.71173 1.47183 8.35478ZM5.40785 7.6409C5.54165 7.83052 5.63086 8.06477 5.63086 8.36594C5.63086 8.75634 5.49705 9.11329 5.2852 9.39215C5.66431 9.13559 5.88731 8.77865 5.88731 8.41055C5.88731 8.08707 5.72006 7.81937 5.40785 7.6409ZM4.61619 7.88629C4.61619 7.89745 4.61619 7.89745 4.61619 7.9086L4.28168 9.32522C4.63849 9.12444 4.89494 8.71172 4.89494 8.36594C4.90609 8.13169 4.78344 7.97553 4.61619 7.88629Z" fill="white"/>
<path d="M10.3474 9.43677L9.73414 12.3258C9.71184 12.4373 9.70069 12.5266 9.70069 12.5935C9.70069 12.8277 9.81219 12.9058 10.0463 12.9058C10.3808 12.9058 10.6039 12.5823 10.7377 12.1585H11.0945C10.615 13.5416 9.84564 13.7312 9.38848 13.7312C8.90902 13.7312 8.59681 13.4524 8.55221 12.9281C8.12851 13.6197 7.64905 13.7312 7.29224 13.7312C6.77933 13.7312 6.38907 13.4301 6.38907 12.7162C6.38907 12.56 6.41137 12.3704 6.45597 12.1696L7.02463 9.43677H8.25116L7.6379 12.3258C7.62675 12.415 7.6156 12.4819 7.6156 12.56C7.6156 12.7608 7.6825 12.9058 7.87205 12.9058C8.20656 12.9058 8.41841 12.5823 8.55221 12.1585L9.13202 9.43677H10.3474Z" fill="#6D1F11"/>
<path d="M9.38848 14.0436C8.96477 14.0436 8.64141 13.8763 8.44071 13.5751C8.11735 13.8874 7.73825 14.0436 7.29224 14.0436C6.70128 14.0436 6.07687 13.6978 6.07687 12.7162C6.07687 12.5377 6.09917 12.3369 6.15492 12.1027L6.72358 9.36985C6.75703 9.22484 6.87968 9.12445 7.02463 9.12445H8.25116C8.34036 9.12445 8.42956 9.16907 8.49646 9.236C8.55221 9.31408 8.57451 9.40331 8.56336 9.49255L7.9501 12.3816C7.93895 12.4485 7.9278 12.5043 7.9278 12.56C7.9278 12.5712 7.9278 12.5823 7.9278 12.5823C8.09505 12.5154 8.20656 12.2031 8.25116 12.0804L8.81982 9.36985C8.85327 9.22484 8.97592 9.12445 9.12087 9.12445H10.3474C10.4366 9.12445 10.5258 9.16907 10.5927 9.236C10.6485 9.31408 10.6708 9.40331 10.6596 9.49255L10.0463 12.3816C10.024 12.4596 10.024 12.5266 10.024 12.5935C10.0352 12.5935 10.0463 12.5935 10.0575 12.5935C10.2247 12.5935 10.3697 12.3258 10.4477 12.0692C10.4923 11.9354 10.6039 11.8461 10.7488 11.8461H11.1056C11.206 11.8461 11.3063 11.8908 11.3621 11.98C11.4178 12.0581 11.4401 12.1696 11.4067 12.2589C10.8715 13.7312 10.0129 14.0436 9.38848 14.0436ZM8.68602 12.6493C8.77522 12.6939 8.84212 12.7943 8.85327 12.8947C8.89787 13.3632 9.17662 13.4189 9.38848 13.4189C9.62263 13.4189 9.84564 13.352 10.0352 13.2181C9.45538 13.207 9.38848 12.7831 9.38848 12.5935C9.38848 12.4819 9.39963 12.3816 9.43308 12.2477L9.96829 9.73795H9.38848L8.86442 12.2142C8.86442 12.2254 8.86442 12.2365 8.85327 12.2365C8.79752 12.4039 8.74177 12.5377 8.68602 12.6493ZM7.28109 9.7491L6.75703 12.2254C6.71243 12.415 6.70128 12.5823 6.70128 12.7162C6.70128 13.1958 6.89083 13.4189 7.29224 13.4189C7.47064 13.4189 7.67135 13.3855 7.89435 13.2181C7.8832 13.2181 7.87205 13.2181 7.87205 13.2181C7.6156 13.2181 7.30339 13.0397 7.30339 12.56C7.30339 12.4596 7.31454 12.3704 7.33684 12.2589L7.87205 9.7491H7.28109Z" fill="white"/>
<path d="M12.5328 9.43677L12.4213 9.96103C12.7224 9.70448 13.0457 9.43677 13.4472 9.43677C13.8263 9.43677 14.027 9.74909 14.027 10.0726C14.027 10.3737 13.8374 10.6972 13.4137 10.6972C12.9342 10.6972 13.1796 10.1395 12.9231 10.1395C12.6666 10.1395 12.5105 10.2622 12.2987 10.463L11.6185 13.6866H10.392L11.2952 9.43677H12.5328Z" fill="#6D1F11"/>
<path d="M11.6408 13.9878H10.4143C10.3251 13.9878 10.2359 13.9432 10.169 13.8763C10.1021 13.8093 10.0909 13.7089 10.1021 13.6197L11.0053 9.36985C11.0387 9.22484 11.1614 9.12445 11.3063 9.12445H12.5328C12.622 9.12445 12.7112 9.16907 12.7781 9.236C12.7893 9.2583 12.8004 9.26946 12.8116 9.29177C13.0011 9.19138 13.213 9.12445 13.4472 9.12445C13.9601 9.12445 14.3392 9.53717 14.3392 10.0726C14.3392 10.5299 14.0158 11.0096 13.4137 11.0096C12.9454 11.0096 12.8227 10.6749 12.7781 10.4853C12.7224 10.5076 12.6666 10.5522 12.5886 10.6303L11.9307 13.7536C11.9084 13.8874 11.7858 13.9878 11.6408 13.9878ZM10.8046 13.3743H11.3844L12.0088 10.3961C12.0199 10.3291 12.0534 10.2734 12.098 10.2287C12.1203 10.2064 12.1537 10.1841 12.176 10.1618C12.1203 10.0949 12.098 9.9945 12.1203 9.90526L12.1537 9.7491H11.5628L10.8046 13.3743ZM13.4137 10.3849H13.4249C13.7148 10.3849 13.7259 10.1284 13.7259 10.0726C13.7259 10.0391 13.7148 9.7491 13.4472 9.7491C13.3245 9.7491 13.2018 9.79372 13.0903 9.84949C13.3134 9.93873 13.3691 10.1953 13.3803 10.2845C13.4026 10.318 13.4026 10.3514 13.4137 10.3849Z" fill="white"/>
<path d="M17.6619 9.43677L16.8257 13.3743C17.3386 13.1847 17.6619 12.8947 17.8961 12.1585H18.2529C17.9184 13.2739 17.2717 13.5974 16.7476 13.7424L16.625 14.3559C16.3685 15.5717 15.6549 15.7948 15.0974 15.7948C14.5845 15.7948 14.1496 15.5271 14.1496 14.9694C14.1496 14.2555 14.8967 13.8986 15.5322 13.7089L15.6326 13.2628C15.3873 13.5305 15.0528 13.7312 14.6179 13.7312C14.0381 13.7312 13.4918 13.3743 13.4918 12.3592C13.4918 11.2103 14.1942 9.39215 15.6772 9.39215C16.1567 9.39215 16.3685 9.58178 16.3685 9.82718V9.88295L16.4577 9.43677H17.6619ZM14.8967 15.1367C15.0751 15.1367 15.2758 14.8802 15.3873 14.3782L15.443 14.1328C15.0082 14.289 14.6068 14.5121 14.6068 14.8578C14.6068 14.9805 14.7071 15.1367 14.8967 15.1367ZM14.7294 12.2477C14.7294 12.9058 14.997 12.9058 15.1531 12.9058C15.3873 12.9058 15.7106 12.6716 15.8333 12.2477L16.2682 10.2399C16.257 10.1507 16.1901 9.92757 15.9225 9.92757C15.1977 9.91641 14.7294 11.4446 14.7294 12.2477Z" fill="#6D1F11"/>
<path d="M15.0862 16.1183C14.328 16.1183 13.8263 15.661 13.8263 14.9805C13.8263 14.6013 13.9824 14.2778 14.2723 14.0101C13.6925 13.8874 13.1572 13.4078 13.1572 12.3592C13.1572 10.9872 14.027 9.07982 15.6549 9.07982C15.9002 9.07982 16.0898 9.12444 16.2347 9.19136C16.2905 9.14675 16.3574 9.12444 16.4354 9.12444H17.6619C17.7511 9.12444 17.8403 9.16905 17.9072 9.23598C17.963 9.31406 17.9853 9.4033 17.9741 9.49253L17.294 12.6939C17.4166 12.5489 17.517 12.3481 17.6062 12.0581C17.6508 11.9242 17.7623 11.8461 17.9072 11.8461H18.264C18.3644 11.8461 18.4536 11.8907 18.5094 11.9688C18.5651 12.0469 18.5874 12.1473 18.554 12.2477C18.2083 13.4078 17.5504 13.8093 17.0152 13.9878L16.926 14.4228C16.625 15.8171 15.7664 16.1183 15.0862 16.1183ZM14.774 15.4379C14.8855 15.4825 15.0082 15.4936 15.0974 15.4936C15.5099 15.4936 16.0898 15.3709 16.3239 14.3001L16.4466 13.6866C16.4577 13.6197 16.5023 13.5528 16.5469 13.5081C16.5135 13.4412 16.5023 13.3743 16.5246 13.3074L17.2828 9.74909H16.703L16.6584 9.93871C16.6473 10.0056 16.6138 10.0614 16.5692 10.0949C16.5804 10.1283 16.5804 10.1618 16.5915 10.1953C16.5915 10.2287 16.5915 10.2622 16.5804 10.2845L16.1455 12.2923C16.1455 12.3035 16.1455 12.3035 16.1455 12.3146C16.0675 12.5935 15.9225 12.8166 15.7441 12.9616C15.7552 12.9616 15.7664 12.9727 15.7775 12.9727C15.9002 13.0397 15.9671 13.1847 15.9337 13.3185L15.8333 13.7647C15.811 13.8428 15.7664 13.9097 15.7106 13.9543C15.7552 14.0212 15.7664 14.0993 15.7552 14.1886L15.6995 14.434C15.5545 15.0698 15.2646 15.4379 14.8967 15.4379C14.8521 15.449 14.8075 15.449 14.774 15.4379ZM15.5099 9.71562C14.3057 9.83832 13.7928 11.5003 13.7928 12.3704C13.7928 13.062 14.0716 13.4301 14.6068 13.4301C14.8298 13.4301 15.0305 13.3631 15.2089 13.2293C15.1866 13.2293 15.1754 13.2293 15.1531 13.2293C14.6625 13.2293 14.4172 12.9058 14.4172 12.2588C14.4172 11.6007 14.7517 10.1172 15.5099 9.71562ZM15.9225 10.2287C15.5211 10.2287 15.0416 11.4446 15.0416 12.2477C15.0416 12.5266 15.0974 12.6046 15.0974 12.6046C15.0974 12.6046 15.1308 12.6046 15.1531 12.6046C15.2312 12.6046 15.443 12.4819 15.5322 12.1808L15.9448 10.251C15.9448 10.2287 15.9337 10.2287 15.9225 10.2287Z" fill="white"/>
<path d="M19.3679 13.0174C20.0369 13.0174 20.4495 12.6381 20.8732 12.1585H21.1631C20.6836 12.9393 19.9589 13.7312 18.8327 13.7312C18.0299 13.7312 17.5058 13.3408 17.5058 12.3815C17.5058 11.4 18.0522 9.35869 19.8028 9.35869C20.561 9.35869 20.7394 9.74909 20.7394 10.173C20.7394 11.1546 19.8028 11.9019 18.7881 11.9688C18.777 12.0915 18.7658 12.2031 18.7658 12.3035C18.7547 12.8835 18.9554 13.0174 19.3679 13.0174ZM19.8585 9.80487C19.4237 9.80487 19.0111 10.7084 18.8439 11.5561C19.5017 11.5115 20.0704 10.8645 20.0704 10.1507C20.0704 9.94988 20.0146 9.80487 19.8585 9.80487Z" fill="#6D1F11"/>
<path d="M18.8216 14.0436C17.7846 14.0436 17.1825 13.4412 17.1825 12.3815C17.1825 11.2884 17.818 9.04636 19.7916 9.04636C20.5944 9.04636 21.0405 9.44792 21.0405 10.173C21.0405 11.1769 20.1819 12.0581 19.0669 12.2477C19.0669 12.27 19.0669 12.2923 19.0669 12.3035C19.0669 12.705 19.1338 12.705 19.3679 12.705C19.8808 12.705 20.2042 12.4373 20.639 11.9577C20.6948 11.8907 20.784 11.8461 20.8732 11.8461H21.1631C21.2746 11.8461 21.375 11.9019 21.4307 12.0023C21.4865 12.1027 21.4865 12.2254 21.4196 12.3146C20.7059 13.4858 19.8585 14.0436 18.8216 14.0436ZM19.3233 9.73793C18.186 10.0726 17.8069 11.6007 17.8069 12.3815C17.8069 13.0954 18.1191 13.4189 18.8216 13.4189C19.0223 13.4189 19.223 13.3854 19.4014 13.3297C19.3902 13.3297 19.3791 13.3297 19.3568 13.3297C18.7324 13.3297 18.4313 13.0062 18.4313 12.3035C18.4313 12.1919 18.4425 12.0581 18.4536 11.9354C18.4648 11.8461 18.4982 11.768 18.5651 11.7123C18.5205 11.6453 18.5094 11.5673 18.5205 11.4892C18.5651 11.333 18.8104 10.2287 19.3233 9.73793ZM19.7582 10.1841C19.6244 10.3068 19.446 10.6191 19.2899 11.0653C19.5575 10.8645 19.747 10.5299 19.7582 10.1841ZM20.338 9.84948C20.3603 9.92756 20.3826 10.0279 20.3826 10.1618C20.3826 10.3514 20.3491 10.5299 20.2934 10.6972C20.3714 10.5299 20.416 10.3626 20.416 10.173C20.416 10.0503 20.4049 9.93871 20.338 9.84948Z" fill="white"/>
<path d="M22.4565 9.43677L22.345 9.96103C22.6461 9.70448 22.9694 9.43677 23.3708 9.43677C23.75 9.43677 23.9618 9.74909 23.9618 10.0726C23.9618 10.3737 23.7611 10.6972 23.3485 10.6972C22.8691 10.6972 23.1144 10.1395 22.8579 10.1395C22.6015 10.1395 22.4454 10.2622 22.2335 10.463L21.5534 13.6866H20.3268L21.23 9.43677H22.4565Z" fill="#6D1F11"/>
<path d="M21.5534 13.9878H20.3268C20.2376 13.9878 20.1484 13.9432 20.0815 13.8763C20.0146 13.8093 20.0035 13.7089 20.0146 13.6197L20.9178 9.36985C20.9512 9.22484 21.0739 9.12445 21.2189 9.12445H22.4454C22.5346 9.12445 22.6238 9.16907 22.6907 9.236C22.7018 9.2583 22.713 9.26946 22.7241 9.29177C22.9137 9.19138 23.1255 9.12445 23.3597 9.12445C23.8726 9.12445 24.2629 9.53717 24.2629 10.0726C24.2629 10.5299 23.9395 11.0096 23.3374 11.0096C22.8691 11.0096 22.7464 10.6749 22.7018 10.4853C22.6461 10.5076 22.5903 10.5522 22.5123 10.6303L21.8544 13.7536C21.8321 13.8874 21.6983 13.9878 21.5534 13.9878ZM20.7171 13.3743H21.2969L21.9213 10.3961C21.9325 10.3291 21.9659 10.2734 22.0105 10.2287C22.0328 10.2064 22.0663 10.1841 22.0886 10.1618C22.0328 10.0949 22.0105 9.9945 22.0328 9.90526L22.0663 9.7491H21.4753L20.7171 13.3743ZM23.3262 10.3849H23.3374C23.6273 10.3849 23.6385 10.1284 23.6385 10.0726C23.6385 10.0391 23.6273 9.7491 23.3597 9.7491C23.237 9.7491 23.1144 9.79372 23.0029 9.84949C23.2259 9.93873 23.2816 10.1953 23.2928 10.2845C23.3151 10.318 23.3151 10.3514 23.3262 10.3849Z" fill="white"/>
<path d="M4.25938 7.83053L3.80222 9.80487H3.85797C4.63849 9.80487 5.2629 9.02406 5.2629 8.36594C5.2629 7.85284 4.90609 7.40666 3.96948 7.40666C2.821 7.40666 1.52758 8.09824 1.52758 9.57063C1.52758 10.028 1.65023 10.0949 1.66138 10.173C1.01467 10.173 0.613262 9.94988 0.613262 9.34754C0.613262 8.12055 2.31924 6.98279 4.17018 6.98279C5.60856 6.98279 6.25527 7.66321 6.25527 8.39941C6.25527 8.92367 5.90961 9.48139 5.27405 9.81603C6.11032 9.97219 6.43367 10.5857 6.43367 11.255C6.43367 12.1138 5.92076 13.8205 4.29283 13.8205C3.86912 13.8205 3.32276 13.7089 3.32276 13.1624C3.32276 13.0174 3.36736 12.85 3.44542 12.6493C3.69072 12.8835 3.88027 12.9727 4.10328 12.9727C4.81689 12.9727 5.07335 12.0469 5.07335 11.3665C5.07335 10.7418 4.86149 10.2399 4.14788 10.2399C4.06983 10.2399 3.86912 10.2511 3.70187 10.2622L2.89906 13.6755H1.48298L2.80985 8.009L4.25938 7.83053Z" fill="#411F1F"/>
<path d="M10.3474 9.43677L9.73414 12.3258C9.71184 12.4373 9.70069 12.5266 9.70069 12.5935C9.70069 12.8277 9.81219 12.9058 10.0463 12.9058C10.3808 12.9058 10.6039 12.5823 10.7377 12.1585H11.0945C10.615 13.5416 9.84564 13.7312 9.38848 13.7312C8.90902 13.7312 8.59681 13.4524 8.55221 12.9281C8.12851 13.6197 7.64905 13.7312 7.29224 13.7312C6.77933 13.7312 6.38907 13.4301 6.38907 12.7162C6.38907 12.56 6.41137 12.3704 6.45597 12.1696L7.02463 9.43677H8.25116L7.6379 12.3258C7.62675 12.415 7.6156 12.4819 7.6156 12.56C7.6156 12.7608 7.6825 12.9058 7.87205 12.9058C8.20656 12.9058 8.41841 12.5823 8.55221 12.1585L9.13202 9.43677H10.3474Z" fill="#411F1F"/>
<path d="M12.5328 9.43677L12.4213 9.96103C12.7224 9.70448 13.0457 9.43677 13.4472 9.43677C13.8263 9.43677 14.027 9.74909 14.027 10.0726C14.027 10.3737 13.8374 10.6972 13.4137 10.6972C12.9342 10.6972 13.1796 10.1395 12.9231 10.1395C12.6666 10.1395 12.5105 10.2622 12.2987 10.463L11.6185 13.6866H10.392L11.2952 9.43677H12.5328Z" fill="#411F1F"/>
<path d="M17.6619 9.43677L16.8257 13.3743C17.3386 13.1847 17.6619 12.8947 17.8961 12.1585H18.2529C17.9184 13.2739 17.2717 13.5974 16.7476 13.7424L16.625 14.3559C16.3685 15.5717 15.6549 15.7948 15.0974 15.7948C14.5845 15.7948 14.1496 15.5271 14.1496 14.9694C14.1496 14.2555 14.8967 13.8986 15.5322 13.7089L15.6326 13.2628C15.3873 13.5305 15.0528 13.7312 14.6179 13.7312C14.0381 13.7312 13.4918 13.3743 13.4918 12.3592C13.4918 11.2103 14.1942 9.39215 15.6772 9.39215C16.1567 9.39215 16.3685 9.58178 16.3685 9.82718V9.88295L16.4577 9.43677H17.6619ZM14.8967 15.1367C15.0751 15.1367 15.2758 14.8802 15.3873 14.3782L15.443 14.1328C15.0082 14.289 14.6068 14.5121 14.6068 14.8578C14.6068 14.9805 14.7071 15.1367 14.8967 15.1367ZM14.7294 12.2477C14.7294 12.9058 14.997 12.9058 15.1531 12.9058C15.3873 12.9058 15.7106 12.6716 15.8333 12.2477L16.2682 10.2399C16.257 10.1507 16.1901 9.92757 15.9225 9.92757C15.1977 9.91641 14.7294 11.4446 14.7294 12.2477Z" fill="#411F1F"/>
<path d="M19.3679 13.0174C20.0369 13.0174 20.4495 12.6381 20.8732 12.1585H21.1631C20.6836 12.9393 19.9589 13.7312 18.8327 13.7312C18.0299 13.7312 17.5058 13.3408 17.5058 12.3815C17.5058 11.4 18.0522 9.35869 19.8028 9.35869C20.561 9.35869 20.7394 9.74909 20.7394 10.173C20.7394 11.1546 19.8028 11.9019 18.7881 11.9688C18.777 12.0915 18.7658 12.2031 18.7658 12.3035C18.7547 12.8835 18.9554 13.0174 19.3679 13.0174ZM19.8585 9.80487C19.4237 9.80487 19.0111 10.7084 18.8439 11.5561C19.5017 11.5115 20.0704 10.8645 20.0704 10.1507C20.0704 9.94987 20.0146 9.80487 19.8585 9.80487Z" fill="#411F1F"/>
<path d="M22.4565 9.43677L22.345 9.96103C22.6461 9.70448 22.9694 9.43677 23.3708 9.43677C23.75 9.43677 23.9618 9.74909 23.9618 10.0726C23.9618 10.3737 23.7611 10.6972 23.3485 10.6972C22.8691 10.6972 23.1144 10.1395 22.8579 10.1395C22.6015 10.1395 22.4454 10.2622 22.2335 10.463L21.5534 13.6866H20.3268L21.23 9.43677H22.4565Z" fill="#411F1F"/>
<path d="M6.65668 7.49589C7.07543 7.49589 7.41489 7.1563 7.41489 6.73739C7.41489 6.31848 7.07543 5.97888 6.65668 5.97888C6.23793 5.97888 5.89846 6.31848 5.89846 6.73739C5.89846 7.1563 6.23793 7.49589 6.65668 7.49589Z" fill="white"/>
<path d="M16.3908 6.63699H14.5622V7.57397H16.3908V6.63699Z" fill="white"/>
<path d="M7.18074 7.61859C6.64553 7.61859 6.28872 7.30626 6.28872 6.82662C6.28872 6.49199 6.46712 6.24659 6.70128 6.13504C6.64553 6.03465 6.60092 5.91195 6.60092 5.76694C6.60092 5.30961 7.00233 4.96382 7.53754 4.96382C7.9947 4.96382 8.29576 5.23153 8.29576 5.62194C8.29576 5.82272 8.21771 6.00119 8.0839 6.11273C8.1731 6.24659 8.24001 6.42506 8.24001 6.64815C8.25116 7.20587 7.80515 7.61859 7.18074 7.61859Z" fill="white"/>
<path d="M7.7494 5.86734C7.7048 5.86734 7.6602 5.85619 7.6379 5.81157C7.7048 5.76695 7.7494 5.67771 7.7494 5.58848C7.7494 5.49924 7.7048 5.42116 7.55984 5.42116C7.41489 5.42116 7.32569 5.49924 7.32569 5.65541C7.32569 6.03466 7.89435 6.07928 7.89435 6.62585C7.89435 7.04972 7.54869 7.26165 7.18074 7.26165C6.89083 7.26165 6.64553 7.13895 6.64553 6.82663C6.64553 6.54776 6.84623 6.41391 7.02463 6.41391C7.11384 6.41391 7.23649 6.44737 7.24764 6.58123C7.11384 6.58123 6.94658 6.64815 6.94658 6.81547C6.94658 6.93817 7.02463 7.06087 7.19189 7.06087C7.35914 7.06087 7.48179 6.93817 7.48179 6.72624C7.48179 6.29121 6.95773 6.13505 6.95773 5.76695C6.95773 5.49924 7.21419 5.30962 7.54869 5.30962C7.67135 5.30962 7.96125 5.33193 7.96125 5.61079C7.96125 5.7558 7.87205 5.86734 7.7494 5.86734Z" fill="white"/>
<path d="M8.38496 7.57397C7.9278 7.57397 7.63789 7.2728 7.63789 6.81546C7.63789 6.2912 7.96125 5.55501 8.67486 5.55501C9.05397 5.55501 9.31042 5.78925 9.31042 6.15735C9.31042 6.25774 9.28812 6.35813 9.25467 6.44737C9.31042 6.48083 9.35502 6.52545 9.38848 6.58122C9.45538 6.69276 9.44423 6.82662 9.37733 6.93816C9.12087 7.36203 8.78636 7.57397 8.38496 7.57397Z" fill="white"/>
<path d="M8.55221 7.01625C8.75292 7.01625 8.87557 6.9047 8.99822 6.7597H9.08742C8.94247 6.99394 8.73062 7.22818 8.38496 7.22818C8.1508 7.22818 7.98355 7.11664 7.98355 6.82662C7.98355 6.53661 8.1508 5.92311 8.67487 5.92311C8.89787 5.92311 8.95362 6.03466 8.95362 6.16851C8.95362 6.45853 8.67486 6.68162 8.37381 6.70392C8.37381 6.73739 8.37381 6.77085 8.37381 6.80431C8.36266 6.97163 8.42956 7.01625 8.55221 7.01625ZM8.69717 6.05696C8.56336 6.05696 8.44071 6.32467 8.39611 6.58122C8.59681 6.57007 8.76407 6.36929 8.76407 6.15736C8.76407 6.09043 8.74177 6.05696 8.69717 6.05696Z" fill="white"/>
<path d="M10.5481 7.57397C10.392 7.57397 10.2582 7.52935 10.1467 7.45127C10.0798 7.5182 9.99059 7.55166 9.90139 7.55166H9.53343C9.48883 7.55166 9.44423 7.54051 9.39963 7.52935C9.35503 7.54051 9.31043 7.55166 9.26583 7.55166H8.89787C8.78637 7.55166 8.68602 7.50704 8.61911 7.41781C8.55221 7.33973 8.52991 7.22818 8.55221 7.12779L8.81982 5.85618C8.85327 5.68886 8.99822 5.57732 9.16547 5.57732H9.53343C9.56688 5.57732 9.58918 5.57732 9.62263 5.58847C9.67838 5.57732 9.74529 5.56616 9.81219 5.56616C9.92369 5.56616 10.024 5.58847 10.1132 5.63309C10.2136 5.58847 10.3139 5.56616 10.4254 5.56616C10.8046 5.56616 11.061 5.83387 11.061 6.20197C11.061 6.26889 11.0499 6.32467 11.0387 6.39159C11.1391 6.40275 11.2283 6.45852 11.284 6.5366C11.3509 6.62584 11.3732 6.74854 11.3286 6.86008C11.1502 7.45127 10.8046 7.57397 10.5481 7.57397Z" fill="white"/>
<path d="M10.2693 6.15736C10.1801 6.15736 10.1132 6.2689 10.0686 6.3916L9.90139 7.20588H9.53343L9.72298 6.32467C9.72298 6.30236 9.73414 6.28005 9.73414 6.25775C9.73414 6.20197 9.71183 6.1462 9.65608 6.1462C9.55573 6.1462 9.48883 6.25775 9.45538 6.38044L9.28813 7.19472H8.92017L9.18778 5.92311H9.55573L9.52228 6.05696C9.63378 5.93427 9.74529 5.91196 9.83449 5.91196C9.96829 5.91196 10.0686 5.96773 10.0909 6.13505C10.2136 5.94542 10.3474 5.92311 10.4477 5.92311C10.615 5.92311 10.7265 6.01235 10.7265 6.21313C10.7265 6.41391 10.6039 6.72623 10.6039 6.87124C10.6039 6.93817 10.6262 6.98279 10.7042 6.98279C10.8157 6.98279 10.8603 6.89355 10.9161 6.7597H11.0276C10.8826 7.17241 10.6931 7.22818 10.5593 7.22818C10.3362 7.22818 10.2582 7.08318 10.2582 6.93817C10.2582 6.77085 10.3697 6.44737 10.3697 6.29121C10.3585 6.20197 10.3251 6.15736 10.2693 6.15736Z" fill="white"/>
<path d="M11.8415 7.57398C11.73 7.57398 11.6297 7.55167 11.5405 7.4959C11.4178 7.55167 11.3063 7.57398 11.2171 7.57398C10.8715 7.57398 10.5258 7.33974 10.5258 6.81548C10.5258 6.31353 10.8492 5.57733 11.5293 5.57733C11.5962 5.57733 11.652 5.58849 11.6966 5.59964C11.7189 5.59964 11.7412 5.58849 11.7635 5.58849H12.1314C12.2429 5.58849 12.3433 5.6331 12.4102 5.72234C12.4771 5.80042 12.4994 5.91197 12.4771 6.01236L12.399 6.40276C12.4994 6.41392 12.5886 6.46969 12.6443 6.54777C12.7112 6.63701 12.7224 6.75971 12.6889 6.87125C12.4659 7.48475 12.0645 7.57398 11.8415 7.57398Z" fill="white"/>
<path d="M12.1314 5.94542L11.953 6.80431C11.9419 6.83778 11.9419 6.86009 11.9419 6.8824C11.9419 6.94932 11.9753 6.99394 12.0422 6.99394C12.1426 6.99394 12.2095 6.8824 12.2429 6.7597H12.3544C12.2095 7.17241 11.9753 7.22818 11.8415 7.22818C11.6966 7.22818 11.6074 7.1501 11.5962 6.99394C11.5182 7.10549 11.3955 7.22818 11.2171 7.22818C11.0499 7.22818 10.8826 7.11664 10.8826 6.81547C10.8826 6.46968 11.0945 5.92311 11.5405 5.92311C11.6854 5.92311 11.7412 5.97888 11.7412 6.05696V6.07927L11.7746 5.94542H12.1314ZM11.2506 6.78201C11.2506 6.98279 11.3286 6.98279 11.3732 6.98279C11.4513 6.98279 11.5516 6.9047 11.5851 6.7597L11.7077 6.17966C11.7077 6.1462 11.6854 6.07927 11.6074 6.07927C11.3955 6.07927 11.2506 6.54776 11.2506 6.78201Z" fill="white"/>
<path d="M12.4994 7.57398C12.1314 7.57398 11.875 7.30627 11.875 6.91587C11.875 6.84894 11.8861 6.77086 11.8973 6.68162L12.0757 5.86735C12.0868 5.82273 12.1091 5.77811 12.1314 5.73349C12.1203 5.68888 12.1203 5.64426 12.1203 5.59964C12.1203 5.28731 12.3656 5.04192 12.6778 5.04192C12.99 5.04192 13.2353 5.28731 13.2353 5.59964C13.2353 5.71118 13.2018 5.81157 13.1461 5.90081C13.1461 5.93427 13.1461 5.96774 13.1349 6.01236L13.0569 6.40276C13.1684 6.40276 13.2688 6.45853 13.3245 6.54777C13.3914 6.63701 13.4026 6.75971 13.3691 6.87125C13.1461 7.50706 12.6889 7.57398 12.4994 7.57398Z" fill="white"/>
<path d="M12.7893 5.94542L12.5997 6.80431C12.5886 6.83778 12.5886 6.86008 12.5886 6.88239C12.5886 6.94932 12.622 6.97163 12.6889 6.97163C12.7893 6.97163 12.8785 6.87124 12.9231 6.74854H13.0346C12.8896 7.16125 12.6332 7.21703 12.4994 7.21703C12.3433 7.21703 12.2318 7.12779 12.2318 6.91586C12.2318 6.87124 12.2429 6.81547 12.2541 6.74854L12.4213 5.93426H12.7893V5.94542ZM12.6666 5.39885C12.7781 5.39885 12.8673 5.48809 12.8673 5.59963C12.8673 5.71117 12.7781 5.80041 12.6666 5.80041C12.5551 5.80041 12.4659 5.71117 12.4659 5.59963C12.4659 5.48809 12.5551 5.39885 12.6666 5.39885Z" fill="white"/>
<path d="M13.8374 7.57397C13.6813 7.57397 13.5475 7.52935 13.436 7.45127C13.3691 7.5182 13.2799 7.55166 13.1907 7.55166H12.8227C12.7112 7.55166 12.6109 7.50704 12.544 7.41781C12.4771 7.33973 12.4548 7.22818 12.4771 7.12779L12.7447 5.85618C12.7781 5.68886 12.9231 5.57732 13.0904 5.57732H13.4583C13.4918 5.57732 13.5141 5.57732 13.5475 5.58847C13.6033 5.57732 13.6702 5.56616 13.7259 5.56616C14.105 5.56616 14.3615 5.83387 14.3615 6.20197C14.3615 6.26889 14.3503 6.32467 14.3392 6.39159C14.4395 6.40275 14.5287 6.45852 14.5845 6.5366C14.6514 6.62584 14.6737 6.74854 14.6291 6.86008C14.4507 7.45127 14.105 7.57397 13.8374 7.57397Z" fill="white"/>
<path d="M13.5698 6.15736C13.4806 6.15736 13.4137 6.2689 13.3691 6.3916L13.2019 7.20588H12.8339L13.1015 5.93427H13.4695L13.436 6.06812C13.5475 5.94542 13.659 5.92311 13.7371 5.92311C13.9043 5.92311 14.0158 6.01235 14.0158 6.21313C14.0158 6.41391 13.8932 6.72623 13.8932 6.87124C13.8932 6.93817 13.9155 6.98279 13.9935 6.98279C14.105 6.98279 14.1496 6.89355 14.2054 6.7597H14.3169C14.1719 7.17241 13.9824 7.22818 13.8486 7.22818C13.6256 7.22818 13.5475 7.08318 13.5475 6.93817C13.5475 6.77085 13.659 6.44737 13.659 6.29121C13.659 6.20197 13.6256 6.15736 13.5698 6.15736Z" fill="white"/>
<path d="M14.5622 7.57397C14.105 7.57397 13.8151 7.2728 13.8151 6.81546C13.8151 6.2912 14.1385 5.55501 14.8521 5.55501C15.2312 5.55501 15.4876 5.78925 15.4876 6.15735C15.4876 6.34698 15.4207 6.52545 15.3092 6.67046C15.3538 6.73738 15.365 6.82662 15.3538 6.91585C15.2758 7.32857 14.9859 7.57397 14.5622 7.57397Z" fill="white"/>
<path d="M14.7071 6.98279C14.8075 6.98279 14.9301 6.91586 15.0082 6.84893C14.9524 7.13895 14.774 7.22818 14.5733 7.22818C14.3392 7.22818 14.1831 7.11664 14.1831 6.82662C14.1831 6.53661 14.3503 5.92311 14.8744 5.92311C15.0974 5.92311 15.1531 6.03466 15.1531 6.16851C15.1531 6.45853 14.8744 6.68162 14.5733 6.70392C14.5733 6.72623 14.5733 6.7597 14.5733 6.78201C14.551 6.93817 14.6179 6.98279 14.7071 6.98279ZM14.8744 6.05696C14.7517 6.05696 14.6179 6.33583 14.5622 6.58122C14.7629 6.57007 14.9301 6.38044 14.9301 6.15736C14.9413 6.09043 14.9301 6.05696 14.8744 6.05696Z" fill="white"/>
<path d="M16.0006 7.57397C15.6549 7.57397 15.3092 7.33972 15.3092 6.81546C15.3092 6.32467 15.6103 5.61078 16.2682 5.57731L16.3016 5.41C16.3351 5.26499 16.4466 5.15344 16.6027 5.13114L16.9818 5.07536C16.9929 5.07536 17.0152 5.07536 17.0264 5.07536C17.1267 5.07536 17.2159 5.11998 17.2828 5.18691C17.3609 5.27614 17.3943 5.38769 17.372 5.49923L17.1825 6.40275C17.2828 6.4139 17.372 6.46967 17.4278 6.54776C17.4947 6.63699 17.5058 6.75969 17.4724 6.87124C17.2717 7.44011 16.9037 7.56281 16.625 7.56281C16.5246 7.56281 16.4243 7.5405 16.3351 7.49589C16.2347 7.55166 16.1121 7.57397 16.0006 7.57397Z" fill="white"/>
<path d="M17.0152 5.43231L16.7253 6.80431C16.7142 6.83777 16.7142 6.86008 16.7142 6.88239C16.7142 6.94932 16.7476 6.97163 16.8145 6.97163C16.9149 6.97163 16.9818 6.87124 17.0152 6.74854H17.1267C16.9818 7.16125 16.7476 7.20587 16.6138 7.20587C16.48 7.20587 16.3797 7.12779 16.3685 6.98278C16.2905 7.09433 16.1678 7.21703 15.9894 7.21703C15.8221 7.21703 15.6549 7.10548 15.6549 6.80431C15.6549 6.45852 15.8668 5.91195 16.3128 5.91195C16.4577 5.91195 16.5135 5.96773 16.5135 6.04581V6.05696L16.6361 5.47693L17.0152 5.43231ZM16.3685 6.75969L16.4912 6.17966C16.4912 6.1462 16.4577 6.09043 16.3908 6.09043C16.179 6.09043 16.034 6.54776 16.034 6.782C16.034 6.98278 16.1121 6.98278 16.1567 6.98278C16.2236 6.98278 16.3351 6.91586 16.3685 6.77085V6.75969Z" fill="white"/>
<path d="M17.9072 7.57397C17.7957 7.57397 17.6954 7.55166 17.6062 7.49589C17.5058 7.5405 17.3943 7.57397 17.2717 7.57397C16.9037 7.57397 16.6473 7.30626 16.6473 6.91585C16.6473 6.84893 16.6584 6.77085 16.6696 6.68161L16.848 5.86733C16.8814 5.70002 17.0264 5.58847 17.1936 5.58847H17.5616C17.6062 5.58847 17.6508 5.59963 17.6954 5.61078C17.74 5.59963 17.7846 5.58847 17.8292 5.58847H18.1971C18.3087 5.58847 18.409 5.63309 18.4759 5.72232C18.5428 5.80041 18.5651 5.91195 18.5428 6.01234L18.3979 6.68161C18.3979 6.68161 18.3979 6.68161 18.409 6.68161C18.4982 6.74854 18.554 6.87124 18.5428 6.98278C18.5094 7.33972 18.2529 7.57397 17.9072 7.57397Z" fill="white"/>
<path d="M17.5616 5.94542L17.3832 6.80431C17.3832 6.82662 17.372 6.84893 17.372 6.87124C17.372 6.92701 17.3943 6.98278 17.4501 6.98278C17.5504 6.98278 17.6173 6.88239 17.6508 6.75969L17.8292 5.94542H18.1971L18.0187 6.80431C18.0076 6.83778 18.0076 6.86008 18.0076 6.88239C18.0076 6.94932 18.041 6.97163 18.1079 6.97163C18.1525 6.97163 18.1637 6.96047 18.1971 6.96047C18.186 7.13895 18.0522 7.21703 17.9184 7.21703C17.7734 7.21703 17.6842 7.12779 17.6731 6.97163C17.5504 7.18356 17.4055 7.21703 17.294 7.21703C17.1379 7.21703 17.0264 7.12779 17.0264 6.91586C17.0264 6.87124 17.0375 6.81547 17.0487 6.74854L17.2159 5.93427H17.5616V5.94542Z" fill="white"/>
<path d="M7.7494 5.86734C7.7048 5.86734 7.6602 5.85619 7.6379 5.81157C7.7048 5.76695 7.7494 5.67771 7.7494 5.58848C7.7494 5.49924 7.7048 5.42116 7.55984 5.42116C7.41489 5.42116 7.32569 5.49924 7.32569 5.65541C7.32569 6.03466 7.89435 6.07928 7.89435 6.62585C7.89435 7.04972 7.54869 7.26165 7.18074 7.26165C6.89083 7.26165 6.64553 7.13895 6.64553 6.82663C6.64553 6.54776 6.84623 6.41391 7.02463 6.41391C7.11384 6.41391 7.23649 6.44737 7.24764 6.58123C7.11384 6.58123 6.94658 6.64815 6.94658 6.81547C6.94658 6.93817 7.02463 7.06087 7.19189 7.06087C7.35914 7.06087 7.48179 6.93817 7.48179 6.72624C7.48179 6.29121 6.95773 6.13505 6.95773 5.76695C6.95773 5.49924 7.21419 5.30962 7.54869 5.30962C7.67135 5.30962 7.96125 5.33193 7.96125 5.61079C7.96125 5.7558 7.87205 5.86734 7.7494 5.86734Z" fill="#411F1F"/>
<path d="M8.55221 7.01625C8.75292 7.01625 8.87557 6.9047 8.99822 6.7597H9.08742C8.94247 6.99394 8.73062 7.22818 8.38496 7.22818C8.1508 7.22818 7.98355 7.11664 7.98355 6.82662C7.98355 6.53661 8.1508 5.92311 8.67487 5.92311C8.89787 5.92311 8.95362 6.03466 8.95362 6.16851C8.95362 6.45853 8.67486 6.68161 8.37381 6.70392C8.37381 6.73739 8.37381 6.77085 8.37381 6.80431C8.36266 6.97163 8.42956 7.01625 8.55221 7.01625ZM8.69717 6.05696C8.56336 6.05696 8.44071 6.32467 8.39611 6.58122C8.59681 6.57007 8.76407 6.36929 8.76407 6.15736C8.76407 6.09043 8.74177 6.05696 8.69717 6.05696Z" fill="#411F1F"/>
<path d="M10.2693 6.15736C10.1801 6.15736 10.1132 6.2689 10.0686 6.3916L9.90139 7.20588H9.53343L9.72298 6.32467C9.72298 6.30236 9.73414 6.28005 9.73414 6.25775C9.73414 6.20197 9.71183 6.1462 9.65608 6.1462C9.55573 6.1462 9.48883 6.25775 9.45538 6.38044L9.28813 7.19472H8.92017L9.18778 5.92311H9.55573L9.52228 6.05696C9.63378 5.93427 9.74529 5.91196 9.83449 5.91196C9.96829 5.91196 10.0686 5.96773 10.0909 6.13505C10.2136 5.94542 10.3474 5.92311 10.4477 5.92311C10.615 5.92311 10.7265 6.01235 10.7265 6.21313C10.7265 6.41391 10.6039 6.72623 10.6039 6.87124C10.6039 6.93817 10.6262 6.98279 10.7042 6.98279C10.8157 6.98279 10.8603 6.89355 10.9161 6.7597H11.0276C10.8826 7.17241 10.6931 7.22818 10.5593 7.22818C10.3362 7.22818 10.2582 7.08318 10.2582 6.93817C10.2582 6.77085 10.3697 6.44737 10.3697 6.29121C10.3585 6.20197 10.3251 6.15736 10.2693 6.15736Z" fill="#411F1F"/>
<path d="M12.1314 5.94542L11.953 6.80431C11.9419 6.83778 11.9419 6.86009 11.9419 6.8824C11.9419 6.94932 11.9753 6.99394 12.0422 6.99394C12.1426 6.99394 12.2095 6.8824 12.2429 6.7597H12.3544C12.2095 7.17241 11.9753 7.22818 11.8415 7.22818C11.6966 7.22818 11.6074 7.1501 11.5962 6.99394C11.5182 7.10548 11.3955 7.22818 11.2171 7.22818C11.0499 7.22818 10.8826 7.11664 10.8826 6.81547C10.8826 6.46968 11.0945 5.92311 11.5405 5.92311C11.6854 5.92311 11.7412 5.97888 11.7412 6.05696V6.07927L11.7746 5.94542H12.1314ZM11.2506 6.782C11.2506 6.98279 11.3286 6.98279 11.3732 6.98279C11.4513 6.98279 11.5516 6.9047 11.5851 6.7597L11.7077 6.17966C11.7077 6.1462 11.6854 6.07927 11.6074 6.07927C11.3955 6.09043 11.2506 6.54776 11.2506 6.782Z" fill="#411F1F"/>
<path d="M12.7893 5.94542L12.5997 6.80431C12.5886 6.83778 12.5886 6.86008 12.5886 6.88239C12.5886 6.94932 12.622 6.97163 12.6889 6.97163C12.7893 6.97163 12.8785 6.87124 12.9231 6.74854H13.0346C12.8896 7.16125 12.6332 7.21703 12.4994 7.21703C12.3433 7.21703 12.2318 7.12779 12.2318 6.91586C12.2318 6.87124 12.2429 6.81547 12.2541 6.74854L12.4213 5.93426H12.7893V5.94542ZM12.6666 5.39885C12.7781 5.39885 12.8673 5.48809 12.8673 5.59963C12.8673 5.71117 12.7781 5.80041 12.6666 5.80041C12.5551 5.80041 12.4659 5.71117 12.4659 5.59963C12.4659 5.48809 12.5551 5.39885 12.6666 5.39885Z" fill="#411F1F"/>
<path d="M13.5698 6.15736C13.4806 6.15736 13.4137 6.2689 13.3691 6.3916L13.2019 7.20587H12.8339L13.1015 5.93427H13.4695L13.436 6.06812C13.5475 5.94542 13.659 5.92311 13.7371 5.92311C13.9043 5.92311 14.0158 6.01235 14.0158 6.21313C14.0158 6.41391 13.8932 6.72623 13.8932 6.87124C13.8932 6.93817 13.9155 6.98279 13.9935 6.98279C14.105 6.98279 14.1496 6.89355 14.2054 6.7597H14.3169C14.1719 7.17241 13.9824 7.22818 13.8486 7.22818C13.6256 7.22818 13.5475 7.08318 13.5475 6.93817C13.5475 6.77085 13.659 6.44737 13.659 6.29121C13.659 6.20197 13.6256 6.15736 13.5698 6.15736Z" fill="#411F1F"/>
<path d="M14.7071 6.98279C14.8075 6.98279 14.9301 6.91586 15.0082 6.84893C14.9524 7.13895 14.774 7.22818 14.5733 7.22818C14.3392 7.22818 14.1831 7.11664 14.1831 6.82662C14.1831 6.53661 14.3503 5.92311 14.8744 5.92311C15.0974 5.92311 15.1531 6.03466 15.1531 6.16851C15.1531 6.45853 14.8744 6.68161 14.5733 6.70392C14.5733 6.72623 14.5733 6.7597 14.5733 6.782C14.551 6.93817 14.6179 6.98279 14.7071 6.98279ZM14.8744 6.05696C14.7517 6.05696 14.6179 6.33583 14.5622 6.58122C14.7629 6.57007 14.9301 6.38044 14.9301 6.15736C14.9413 6.09043 14.9301 6.05696 14.8744 6.05696Z" fill="#411F1F"/>
<path d="M17.0152 5.43231L16.7253 6.80431C16.7142 6.83777 16.7142 6.86008 16.7142 6.88239C16.7142 6.94932 16.7476 6.97163 16.8145 6.97163C16.9149 6.97163 16.9818 6.87124 17.0152 6.74854H17.1267C16.9818 7.16125 16.7476 7.20587 16.6138 7.20587C16.48 7.20587 16.3797 7.12779 16.3685 6.98278C16.2905 7.09433 16.1678 7.21703 15.9894 7.21703C15.8222 7.21703 15.6549 7.10548 15.6549 6.80431C15.6549 6.45852 15.8668 5.91195 16.3128 5.91195C16.4577 5.91195 16.5135 5.96773 16.5135 6.04581V6.05696L16.6361 5.47693L17.0152 5.43231ZM16.3685 6.75969L16.4912 6.17966C16.4912 6.1462 16.4577 6.09043 16.3908 6.09043C16.179 6.09043 16.034 6.54776 16.034 6.782C16.034 6.98278 16.1121 6.98278 16.1567 6.98278C16.2236 6.98278 16.3351 6.91586 16.3685 6.77085V6.75969Z" fill="#411F1F"/>
<path d="M17.5616 5.94542L17.3832 6.80431C17.3832 6.82662 17.372 6.84893 17.372 6.87124C17.372 6.92701 17.3943 6.98278 17.4501 6.98278C17.5504 6.98278 17.6173 6.88239 17.6508 6.75969L17.818 5.94542H18.186L18.0076 6.80431C17.9964 6.83778 17.9964 6.86009 17.9964 6.88239C17.9964 6.94932 18.0299 6.97163 18.0968 6.97163C18.1414 6.97163 18.1525 6.96048 18.186 6.96048C18.1748 7.13895 18.041 7.21703 17.9072 7.21703C17.7623 7.21703 17.6731 7.12779 17.6619 6.97163C17.5393 7.18356 17.3943 7.21703 17.2828 7.21703C17.1267 7.21703 17.0152 7.12779 17.0152 6.91586C17.0152 6.87124 17.0264 6.81547 17.0375 6.74854L17.2048 5.93427H17.5616V5.94542Z" fill="#411F1F"/>
<path d="M5.93191 7.30626C5.76466 7.30626 5.60856 7.18356 5.45245 7.06086C5.3075 6.93816 5.1514 6.81546 4.973 6.81546C4.973 6.81546 4.973 6.81546 4.96185 6.81546C4.9507 6.81546 4.93954 6.81546 4.92839 6.81546H4.91724C4.89494 6.81546 4.87264 6.80431 4.86149 6.79316C4.83919 6.77085 4.83919 6.74854 4.83919 6.72623L5.00645 5.94541C4.9953 5.95657 4.98415 5.95657 4.973 5.95657C4.71654 5.95657 4.66079 5.80041 4.66079 5.66655C4.66079 5.30961 5.11795 5.03075 5.48591 5.03075C5.51936 5.03075 5.55281 5.03075 5.57511 5.03075C5.59741 5.03075 5.61971 5.0419 5.63086 5.06421C5.64201 5.08652 5.65316 5.10883 5.64201 5.13114L5.3521 6.59237C5.43015 6.61468 5.49706 6.6593 5.57511 6.70392C5.69776 6.77085 5.83156 6.84893 5.97651 6.84893C6.03227 6.84893 6.07687 6.83777 6.12147 6.82662C6.13262 6.82662 6.14377 6.81546 6.15492 6.81546C6.17722 6.81546 6.18837 6.81546 6.19952 6.82662C6.22182 6.84893 6.23297 6.87124 6.23297 6.9047C6.19952 7.1501 6.08802 7.30626 5.93191 7.30626ZM5.1291 5.44346C5.0622 5.51039 5.0399 5.61078 5.0399 5.72232C5.0399 5.7781 5.05105 5.80041 5.05105 5.81156L5.1291 5.44346Z" fill="#411F1F"/>
<path d="M5.49705 5.10883C5.53051 5.10883 5.55281 5.10883 5.58626 5.10883L5.2629 6.63699C5.4859 6.68161 5.70891 6.91586 5.97651 6.91586C6.03226 6.91586 6.08802 6.9047 6.15492 6.88239C6.13262 7.08317 6.04342 7.21703 5.93191 7.21703C5.63086 7.21703 5.36325 6.73738 4.98414 6.73738C4.96184 6.73738 4.95069 6.73738 4.93954 6.73738L5.25175 5.26499C5.0622 5.34307 4.95069 5.49924 4.95069 5.73348C4.95069 5.84503 4.97299 5.85618 4.98414 5.87849C4.83919 5.87849 4.76114 5.82272 4.76114 5.66655C4.74999 5.38769 5.14025 5.10883 5.49705 5.10883ZM5.49705 4.95267C4.98414 4.95267 4.58274 5.34307 4.58274 5.66655C4.58274 5.76694 4.61619 6.00119 4.90609 6.03465L4.76114 6.70392C4.74999 6.75969 4.76114 6.80431 4.80574 6.84893C4.83919 6.88239 4.88379 6.9047 4.92839 6.9047C4.93954 6.9047 4.93954 6.9047 4.95069 6.9047C4.96184 6.9047 4.96184 6.9047 4.97299 6.9047H4.98414C5.1291 6.9047 5.2629 7.01625 5.40785 7.12779C5.56396 7.25049 5.73121 7.38434 5.93191 7.38434C6.08802 7.38434 6.27757 7.26165 6.31102 6.9047C6.32217 6.84893 6.28872 6.79316 6.24412 6.75969C6.21067 6.73738 6.17722 6.72623 6.14377 6.72623C6.12147 6.72623 6.09917 6.72623 6.07687 6.73738C6.04342 6.74854 5.99881 6.75969 5.96536 6.75969C5.84271 6.75969 5.73121 6.69277 5.60856 6.62584C5.55281 6.59238 5.49705 6.57007 5.4413 6.5366L5.74236 5.14229C5.75351 5.09768 5.74236 5.05306 5.70891 5.00844C5.67546 4.97498 5.64201 4.95267 5.58626 4.94151C5.56396 4.95267 5.53051 4.95267 5.49705 4.95267Z" fill="white"/>
<path d="M6.32217 6.782C6.22182 6.782 6.13262 6.73738 6.08802 6.6593C5.99881 6.73738 5.90961 6.782 5.79811 6.782C5.61971 6.782 5.43015 6.67046 5.43015 6.35813C5.43015 6.01234 5.65316 5.5327 6.05457 5.5327C6.11032 5.5327 6.16607 5.54385 6.19952 5.55501C6.21067 5.54385 6.23297 5.5327 6.24412 5.5327H6.55632C6.57863 5.5327 6.60093 5.54385 6.62323 5.56616C6.63438 5.58847 6.64553 5.61078 6.63438 5.63309L6.47827 6.35813C6.47827 6.38044 6.46712 6.39159 6.46712 6.40275C6.46712 6.40275 6.46712 6.40275 6.47827 6.40275C6.48942 6.40275 6.48942 6.40275 6.48942 6.40275C6.50057 6.40275 6.51172 6.39159 6.52287 6.39159C6.54517 6.39159 6.56748 6.40275 6.57863 6.4139C6.60093 6.43621 6.61208 6.46968 6.60093 6.50314C6.55633 6.67046 6.50057 6.782 6.32217 6.782ZM6.13262 5.82272C6.03226 5.82272 5.92076 6.12389 5.92076 6.32467C5.92076 6.39159 5.93191 6.4139 5.93191 6.4139H5.94306C5.96536 6.4139 6.02111 6.38044 6.04341 6.2912L6.13262 5.82272Z" fill="#411F1F"/>
<path d="M6.06572 5.61078C6.18837 5.61078 6.23297 5.6554 6.23297 5.72233V5.73348L6.25527 5.62194H6.56748L6.41137 6.34698C6.40022 6.36929 6.40022 6.3916 6.40022 6.41391C6.40022 6.46968 6.42252 6.49199 6.48943 6.49199C6.51173 6.49199 6.52288 6.49199 6.53403 6.48083C6.47828 6.62584 6.43367 6.69277 6.32217 6.69277C6.21067 6.69277 6.13262 6.61469 6.11032 6.49199C6.04342 6.59238 5.94307 6.69277 5.79811 6.69277C5.65316 6.69277 5.51936 6.60353 5.51936 6.34698C5.51936 6.06812 5.69776 5.61078 6.06572 5.61078ZM5.94307 6.49199C6.00997 6.49199 6.09917 6.42506 6.12147 6.30236L6.22182 5.82272C6.22182 5.80041 6.19952 5.74464 6.13262 5.74464C5.95422 5.74464 5.83156 6.12389 5.83156 6.32467C5.83156 6.49199 5.89846 6.49199 5.94307 6.49199ZM6.06572 5.45462C5.84271 5.45462 5.64201 5.57732 5.50821 5.80041C5.41901 5.95657 5.3521 6.16851 5.3521 6.35813C5.3521 6.72623 5.59741 6.86009 5.79811 6.86009C5.89846 6.86009 5.99882 6.82662 6.07687 6.77085C6.14377 6.82662 6.22182 6.86009 6.32217 6.86009C6.56748 6.86009 6.63438 6.67046 6.69013 6.53661C6.71243 6.48083 6.70128 6.40275 6.65668 6.35813C6.63438 6.33582 6.61208 6.32467 6.58978 6.31352L6.73473 5.64425C6.74588 5.59963 6.73473 5.54386 6.70128 5.51039C6.66783 5.47693 6.62323 5.45462 6.57863 5.45462H6.26642C6.24412 5.45462 6.23297 5.45462 6.21067 5.46577C6.16607 5.45462 6.12147 5.45462 6.06572 5.45462Z" fill="white"/>
</svg>
