<svg xmlns="http://www.w3.org/2000/svg" width="364" height="379" fill="none" viewBox="0 0 364 379"><path fill="#ED5D28" d="M76.2174 59.5C135.173 0.681801 230.761 0.681801 289.717 59.5C348.673 118.319 348.673 213.682 289.717 272.501L182.967 379.001L76.2174 272.501C17.261 213.682 17.261 118.319 76.2174 59.5Z"/><path fill="#fff" d="M345.977 158.031C356.298 158.031 364 150.161 364 139.821C364 129.326 356.452 121.301 346.285 121.301C343.512 121.301 340.894 121.764 338.583 122.69C337.043 121.764 335.348 121.301 333.654 121.301H329.341C329.341 119.449 329.033 117.906 328.724 116.672C329.187 115.591 329.341 114.511 329.341 113.276V106.332C329.341 105.714 329.341 104.943 329.187 104.325C329.341 103.708 329.341 103.091 329.341 102.319V96.146C329.341 71.6079 315.785 47.3785 292.217 29.7852C266.03 10.3399 229.83 0 187.468 0C94.2734 0 43.9018 49.5391 43.9018 96.146V97.535C30.3462 105.56 22.182 117.289 22.0279 129.635C10.7829 131.641 0 140.438 0 151.55C0 157.105 2.46466 161.427 6.62378 163.896L4.31316 174.39C3.69699 177.477 4.4672 180.563 6.62378 182.878C8.62632 185.193 11.7071 186.273 14.6339 185.965H14.788C16.0203 185.965 19.1011 188.434 20.9496 189.823C23.1062 191.52 25.5709 193.372 28.3436 194.916C27.4194 196.459 26.8032 198.465 26.9573 200.471L27.1113 204.638C26.4951 206.027 26.033 207.725 26.187 209.268L26.4951 216.367C26.6492 218.991 27.7275 221.306 29.73 223.003C31.5785 224.701 34.0432 225.627 36.6619 225.472L41.2831 225.164C41.4371 225.164 41.7452 225.164 41.8993 225.164C42.6695 225.164 42.8235 225.164 43.9018 225.781V226.861C43.9018 277.635 88.4198 277.635 127.546 277.635H245.542C284.823 277.635 329.187 277.635 329.187 226.861V220.688C329.187 218.836 328.724 217.139 327.8 215.595C330.881 214.052 333.192 212.355 335.04 210.966C337.659 209.114 337.659 209.114 339.199 208.959L343.821 208.651C346.439 208.496 348.75 207.416 350.444 205.41C352.139 203.558 353.063 200.934 352.909 198.465L352.601 191.366C352.447 189.668 351.985 188.125 351.214 186.736L351.06 182.569C350.906 179.946 349.828 177.631 347.826 175.933C345.977 174.236 343.358 173.31 340.894 173.464L337.505 173.618C336.427 173.618 335.348 173.773 334.27 173.927L338.121 155.716C340.74 157.723 343.821 158.031 345.977 158.031Z"/><path fill="#AB7029" d="M319.635 96.1456C319.635 55.0945 274.963 9.72223 187.468 9.72223C99.9721 9.72223 53.6056 55.2488 53.6056 96.1456V102.319H319.635V96.1456Z"/><path fill="#9C6226" d="M158.816 21.7601H150.189C149.727 21.7601 149.419 22.0687 149.265 22.3774C149.111 22.686 148.957 23.3033 148.957 24.2293C148.957 25.1553 149.111 25.7726 149.265 26.0812C149.419 26.5442 149.881 26.6986 150.189 26.6986H158.816C159.278 26.6986 159.586 26.3899 159.74 26.0812C159.894 25.7726 160.048 25.1553 160.048 24.2293C160.048 23.3033 159.894 22.686 159.74 22.3774C159.586 21.9144 159.124 21.7601 158.816 21.7601Z"/><path fill="#9C6226" d="M191.165 21.7601H182.538C182.076 21.7601 181.768 22.0687 181.614 22.3774C181.46 22.686 181.306 23.3033 181.306 24.2293C181.306 25.1553 181.46 25.7726 181.614 26.0812C181.768 26.5442 182.23 26.6986 182.538 26.6986H191.165C191.627 26.6986 191.935 26.3899 192.089 26.0812C192.243 25.7726 192.397 25.1553 192.397 24.2293C192.397 23.3033 192.243 22.686 192.089 22.3774C191.935 21.9144 191.473 21.7601 191.165 21.7601Z"/><path fill="#9C6226" d="M223.36 21.7601H214.734C214.272 21.7601 213.964 22.0687 213.81 22.3774C213.656 22.686 213.501 23.3033 213.501 24.2293C213.501 25.1553 213.656 25.7726 213.81 26.0812C213.964 26.5442 214.426 26.6986 214.734 26.6986H223.36C223.822 26.6986 224.13 26.3899 224.284 26.0812C224.438 25.7726 224.592 25.1553 224.592 24.2293C224.592 23.3033 224.438 22.686 224.284 22.3774C224.284 21.9144 223.822 21.7601 223.36 21.7601Z"/><path fill="#9C6226" d="M142.487 41.0513H133.861C133.398 41.0513 133.09 41.36 132.936 41.6686C132.782 41.9773 132.628 42.5946 132.628 43.5206C132.628 44.4465 132.782 45.0638 132.936 45.3725C133.09 45.8355 133.552 45.9898 133.861 45.9898H142.487C142.949 45.9898 143.257 45.6812 143.411 45.3725C143.565 45.0638 143.719 44.4465 143.719 43.5206C143.719 42.5946 143.565 41.9773 143.411 41.6686C143.411 41.36 142.949 41.0513 142.487 41.0513Z"/><path fill="#9C6226" d="M174.836 41.0513H166.21C165.748 41.0513 165.44 41.36 165.286 41.6686C165.131 41.9773 164.977 42.5946 164.977 43.5206C164.977 44.4465 165.131 45.0638 165.286 45.3725C165.44 45.8355 165.902 45.9898 166.21 45.9898H174.836C175.298 45.9898 175.606 45.6812 175.76 45.3725C175.914 45.0638 176.068 44.4465 176.068 43.5206C176.068 42.5946 175.914 41.9773 175.76 41.6686C175.606 41.36 175.298 41.0513 174.836 41.0513Z"/><path fill="#9C6226" d="M110.293 41.0513H101.667C101.205 41.0513 100.897 41.36 100.743 41.6686C100.589 41.9773 100.435 42.5946 100.435 43.5206C100.435 44.4465 100.589 45.0638 100.743 45.3725C100.897 45.8355 101.359 45.9898 101.667 45.9898H110.293C110.755 45.9898 111.063 45.6812 111.217 45.3725C111.372 45.0638 111.526 44.4465 111.526 43.5206C111.526 42.5946 111.372 41.9773 111.217 41.6686C111.217 41.36 110.755 41.0513 110.293 41.0513Z"/><path fill="#9C6226" d="M207.185 41.0513H198.559C198.097 41.0513 197.789 41.36 197.635 41.6686C197.481 41.9773 197.327 42.5946 197.327 43.5206C197.327 44.4465 197.481 45.0638 197.635 45.3725C197.789 45.8355 198.251 45.9898 198.559 45.9898H207.185C207.648 45.9898 207.956 45.6812 208.11 45.3725C208.264 45.0638 208.418 44.4465 208.418 43.5206C208.418 42.5946 208.264 41.9773 208.11 41.6686C207.956 41.36 207.648 41.0513 207.185 41.0513Z"/><path fill="#9C6226" d="M239.533 41.0513H230.907C230.445 41.0513 230.136 41.36 229.982 41.6686C229.828 41.9773 229.674 42.5946 229.674 43.5206C229.674 44.4465 229.828 45.0638 229.982 45.3725C230.136 45.8355 230.599 45.9898 230.907 45.9898H239.533C239.995 45.9898 240.303 45.6812 240.457 45.3725C240.611 45.0638 240.765 44.4465 240.765 43.5206C240.765 42.5946 240.611 41.9773 240.457 41.6686C240.303 41.36 239.995 41.0513 239.533 41.0513Z"/><path fill="#9C6226" d="M271.882 41.0513H263.256C262.794 41.0513 262.486 41.36 262.332 41.6686C262.178 41.9773 262.024 42.5946 262.024 43.5206C262.024 44.4465 262.178 45.0638 262.332 45.3725C262.486 45.8355 262.948 45.9898 263.256 45.9898H271.882C272.344 45.9898 272.652 45.6812 272.807 45.3725C272.961 45.0638 273.115 44.4465 273.115 43.5206C273.115 42.5946 272.961 41.9773 272.807 41.6686C272.652 41.36 272.344 41.0513 271.882 41.0513Z"/><path fill="#9C6226" d="M158.816 61.2679H150.189C149.727 61.2679 149.419 61.5766 149.265 61.8853C149.111 62.1939 148.957 62.8112 148.957 63.7372C148.957 64.6632 149.111 65.2805 149.265 65.5891C149.419 66.0521 149.881 66.2064 150.189 66.2064H158.816C159.278 66.2064 159.586 65.8978 159.74 65.5891C159.894 65.2805 160.048 64.6632 160.048 63.7372C160.048 62.8112 159.894 62.1939 159.74 61.8853C159.586 61.4223 159.124 61.2679 158.816 61.2679Z"/><path fill="#9C6226" d="M191.165 61.2679H182.538C182.076 61.2679 181.768 61.5766 181.614 61.8853C181.46 62.1939 181.306 62.8112 181.306 63.7372C181.306 64.6632 181.46 65.2805 181.614 65.5891C181.768 66.0521 182.23 66.2064 182.538 66.2064H191.165C191.627 66.2064 191.935 65.8978 192.089 65.5891C192.243 65.2805 192.397 64.6632 192.397 63.7372C192.397 62.8112 192.243 62.1939 192.089 61.8853C191.935 61.4223 191.473 61.2679 191.165 61.2679Z"/><path fill="#9C6226" d="M223.36 61.2679H214.734C214.272 61.2679 213.964 61.5766 213.81 61.8853C213.656 62.1939 213.501 62.8112 213.501 63.7372C213.501 64.6632 213.656 65.2805 213.81 65.5891C213.964 66.0521 214.426 66.2064 214.734 66.2064H223.36C223.822 66.2064 224.13 65.8978 224.284 65.5891C224.438 65.2805 224.592 64.6632 224.592 63.7372C224.592 62.8112 224.438 62.1939 224.284 61.8853C224.284 61.4223 223.822 61.2679 223.36 61.2679Z"/><path fill="#9C6226" d="M174.836 80.5592H166.21C165.748 80.5592 165.44 80.8679 165.286 81.1765C165.131 81.4852 164.977 82.1025 164.977 83.0284C164.977 83.9544 165.131 84.5717 165.286 84.8804C165.44 85.3434 165.902 85.4977 166.21 85.4977H174.836C175.298 85.4977 175.606 85.189 175.76 84.8804C175.914 84.5717 176.068 83.9544 176.068 83.0284C176.068 82.1025 175.914 81.4852 175.76 81.1765C175.606 80.8679 175.298 80.5592 174.836 80.5592Z"/><path fill="#9C6226" d="M207.185 80.5592H198.559C198.097 80.5592 197.789 80.8679 197.635 81.1765C197.481 81.4852 197.327 82.1025 197.327 83.0284C197.327 83.9544 197.481 84.5717 197.635 84.8804C197.789 85.3434 198.251 85.4977 198.559 85.4977H207.185C207.648 85.4977 207.956 85.189 208.11 84.8804C208.264 84.5717 208.418 83.9544 208.418 83.0284C208.418 82.1025 208.264 81.4852 208.11 81.1765C207.956 80.8679 207.648 80.5592 207.185 80.5592Z"/><path fill="#9C6226" d="M255.554 61.2679H247.236C246.773 61.2679 246.465 61.5766 246.311 61.8853C246.157 62.1939 246.003 62.8112 246.003 63.7372C246.003 64.6632 246.157 65.2805 246.311 65.5891C246.465 66.0521 246.927 66.2064 247.236 66.2064H255.554C256.016 66.2064 256.324 65.8978 256.478 65.5891C256.632 65.2805 256.786 64.6632 256.786 63.7372C256.786 62.8112 256.632 62.1939 256.478 61.8853C256.324 61.4223 255.862 61.2679 255.554 61.2679Z"/><path fill="#9C6226" d="M288.827 61.8853C288.673 61.4223 288.211 61.2679 287.903 61.2679H279.277C278.814 61.2679 278.506 61.5766 278.352 61.8853C278.198 62.1939 278.044 62.8112 278.044 63.7372C278.044 64.6632 278.198 65.2805 278.352 65.5891C278.506 66.0521 278.968 66.2064 279.277 66.2064H287.903C288.365 66.2064 288.673 65.8978 288.827 65.5891C288.981 65.2805 289.135 64.6632 289.135 63.7372C289.135 62.8112 288.981 62.1939 288.827 61.8853Z"/><path fill="#9C6226" d="M271.882 80.5592H262.948C262.486 80.5592 262.178 80.8679 262.024 81.1765C261.87 81.4852 261.715 82.1025 261.715 83.0284C261.715 83.9544 261.87 84.5717 262.024 84.8804C262.178 85.3434 262.64 85.4977 262.948 85.4977H271.882C272.344 85.4977 272.652 85.189 272.806 84.8804C272.961 84.5717 273.115 83.9544 273.115 83.0284C273.115 82.1025 272.961 81.4852 272.806 81.1765C272.652 80.8679 272.344 80.5592 271.882 80.5592Z"/><path fill="#9C6226" d="M239.379 80.5592H230.907C230.445 80.5592 230.136 80.8679 229.982 81.1765C229.828 81.4852 229.674 82.1025 229.674 83.0284C229.674 83.9544 229.828 84.5717 229.982 84.8804C230.136 85.3434 230.599 85.4977 230.907 85.4977H239.379C239.841 85.4977 240.149 85.189 240.303 84.8804C240.457 84.5717 240.611 83.9544 240.611 83.0284C240.611 82.1025 240.457 81.4852 240.303 81.1765C240.303 80.8679 239.841 80.5592 239.379 80.5592Z"/><path fill="#9C6226" d="M94.1185 61.2679H85.4922C85.0301 61.2679 84.722 61.5766 84.568 61.8853C84.4139 62.1939 84.2599 62.8112 84.2599 63.7372C84.2599 64.6632 84.4139 65.2805 84.568 65.5891C84.722 66.0521 85.1841 66.2064 85.4922 66.2064H94.1185C94.5807 66.2064 94.8887 65.8978 95.0428 65.5891C95.1968 65.2805 95.3509 64.6632 95.3509 63.7372C95.3509 62.8112 95.1968 62.1939 95.0428 61.8853C94.8887 61.4223 94.4266 61.2679 94.1185 61.2679Z"/><path fill="#9C6226" d="M126.468 61.2679H117.842C117.379 61.2679 117.071 61.5766 116.917 61.8853C116.763 62.1939 116.609 62.8112 116.609 63.7372C116.609 64.6632 116.763 65.2805 116.917 65.5891C117.071 66.0521 117.534 66.2064 117.842 66.2064H126.468C126.93 66.2064 127.238 65.8978 127.392 65.5891C127.546 65.2805 127.7 64.6632 127.7 63.7372C127.7 62.8112 127.546 62.1939 127.392 61.8853C127.238 61.4223 126.776 61.2679 126.468 61.2679Z"/><path fill="#9C6226" d="M110.139 80.5592H101.667C101.205 80.5592 100.897 80.8679 100.743 81.1765C100.589 81.4852 100.435 82.1025 100.435 83.0284C100.435 83.9544 100.589 84.5717 100.743 84.8804C100.897 85.3434 101.359 85.4977 101.667 85.4977H110.139C110.601 85.4977 110.909 85.189 111.063 84.8804C111.217 84.5717 111.372 83.9544 111.372 83.0284C111.372 82.1025 111.217 81.4852 111.063 81.1765C110.909 80.8679 110.601 80.5592 110.139 80.5592Z"/><path fill="#9C6226" d="M143.103 80.7135C142.949 80.5592 142.641 80.5592 142.487 80.5592H133.861C133.398 80.5592 133.09 80.8679 132.936 81.1765C132.782 81.4852 132.628 82.1025 132.628 83.0284C132.628 83.9544 132.782 84.5717 132.936 84.8804C133.09 85.3434 133.552 85.4977 133.861 85.4977H142.487C142.949 85.4977 143.257 85.189 143.411 84.8804C143.565 84.5717 143.719 83.9544 143.719 83.0284C143.719 82.1025 143.565 81.4852 143.411 81.1765C143.411 81.0222 143.257 80.8679 143.103 80.7135Z"/><path fill="#B32029" d="M319.635 130.87C319.635 133.494 319.635 135.5 317.016 135.5H56.2243C53.6056 135.5 53.6056 133.494 53.6056 130.87V121.919C53.6056 119.295 53.6056 117.289 56.2243 117.289H317.016C319.635 117.289 319.635 119.295 319.635 121.919V130.87Z"/><path fill="#FAA21E" d="M319.789 106.177H53.6056V113.122H319.789V106.177Z"/><path fill="#FAA21E" d="M225.825 108.646L187.314 131.795L147.418 108.646H225.825Z"/><path fill="#AB7029" d="M53.6056 220.843V227.016C53.6056 268.067 86.7245 268.221 127.7 268.221H245.695C286.67 268.221 319.789 268.067 319.789 227.016V220.843H53.6056Z"/><path fill="#A9AE38" d="M66.8538 228.404C66.8538 234.886 67.316 239.361 76.2504 234.886C85.1848 230.41 95.9677 224.546 118.766 225.009C110.294 227.478 100.435 231.954 99.5106 237.818C98.5864 243.837 104.44 246.306 117.379 243.22C118.92 248.621 124.311 254.64 135.71 244.763C147.109 234.886 153.579 230.873 158.971 228.867C164.362 226.861 165.903 229.793 159.895 233.343C153.887 236.738 148.496 238.744 147.572 242.757C146.647 246.769 147.572 253.097 157.43 250.164C157.43 257.109 159.433 262.974 167.751 262.974C176.223 262.974 179.612 258.498 179.612 250.164C185.004 253.097 193.014 255.103 193.476 244.146C193.938 233.188 198.867 228.25 203.797 225.781C208.726 223.311 209.65 227.941 206.261 229.176C201.794 230.873 199.946 234.114 199.792 237.664C199.638 242.139 207.34 248.775 215.196 240.596C215.812 245.38 224.592 248.467 227.519 238.59C230.446 228.713 231.37 222.54 240.305 222.231C234.143 224.546 230.446 233.651 238.302 236.584C246.158 239.516 250.163 232.108 251.087 229.639C252.012 227.17 254.476 221.768 262.024 222.231C255.555 225.163 255.555 235.04 262.024 235.658C268.494 236.121 270.959 234.114 275.888 229.639C280.817 225.163 290.676 220.225 303.153 222.231C300.689 228.713 305.156 231.336 309.161 230.565C314.09 229.639 313.628 224.237 315.169 220.688H61.6164V220.842C57.6114 223.466 54.8386 233.806 66.8538 228.404Z"/><path fill="#B32029" d="M40.2052 206.181C44.9805 205.873 46.983 207.107 50.526 209.113C54.6851 211.583 60.3846 214.824 70.5514 214.206C80.7181 213.589 85.9555 209.731 89.9606 206.953C93.1955 204.638 95.044 203.249 99.8193 202.94C104.595 202.632 106.597 203.866 110.14 205.872C114.299 208.342 119.999 211.583 130.165 210.965C140.332 210.348 145.57 206.49 149.575 203.712C152.81 201.397 154.658 200.008 159.587 199.699C164.363 199.391 166.519 200.625 169.908 202.632C174.067 205.101 179.767 208.342 189.934 207.724C200.1 207.107 205.338 203.249 209.343 200.471C212.578 198.156 214.426 196.767 219.201 196.459C223.977 196.15 226.133 197.384 229.522 199.391C233.681 201.86 239.381 205.101 249.548 204.484C259.714 203.866 264.952 200.008 268.957 197.23C272.192 194.915 274.04 193.526 278.815 193.218C283.591 192.909 285.747 194.144 289.136 196.15C293.295 198.619 298.995 201.86 309.162 201.243C319.328 200.625 324.566 196.767 328.571 193.989C331.806 191.674 333.654 190.285 338.584 189.977L341.972 189.822L341.664 183.341L338.275 183.495C327.801 184.112 322.255 188.125 318.25 191.057C315.169 193.372 313.321 194.607 309.008 194.915C304.54 195.224 302.692 194.144 299.303 192.137C294.99 189.668 289.136 186.273 278.661 186.89C268.187 187.508 262.641 191.52 258.636 194.452C255.555 196.767 253.707 198.002 249.394 198.31C244.926 198.619 243.078 197.539 239.689 195.533C235.376 193.063 229.522 189.668 219.047 190.285C208.573 190.903 203.027 194.915 199.022 197.847C195.941 200.162 194.093 201.397 189.779 201.706C185.312 202.014 183.464 200.934 180.075 198.928C175.762 196.459 169.908 193.063 159.433 193.681C148.958 194.298 143.413 198.31 139.408 201.243C136.327 203.558 134.479 204.792 130.165 205.101C125.698 205.41 123.85 204.329 120.461 202.323C116.148 199.854 110.294 196.459 99.8193 197.076C89.3444 197.693 83.7989 201.706 79.7939 204.638C76.713 206.953 74.8645 208.187 70.5514 208.496C66.0842 208.805 64.2357 207.724 60.8468 205.718C56.5336 203.249 50.68 199.854 40.2052 200.471L36.8163 200.625L37.1244 207.107L40.2052 206.181Z"/><path fill="#B32029" d="M329.803 195.996C325.644 199.083 319.944 203.095 309.162 203.712C298.379 204.33 292.217 200.78 287.904 198.311C284.669 196.459 282.975 195.533 278.969 195.687C274.964 195.842 273.424 197.076 270.343 199.237C266.184 202.323 260.484 206.336 249.702 206.953C238.919 207.571 232.757 204.021 228.444 201.552C225.209 199.7 223.515 198.774 219.509 198.928C215.504 199.083 213.964 200.317 210.883 202.478C206.724 205.564 201.024 209.577 190.242 210.194C179.459 210.811 173.297 207.262 168.984 204.793C165.749 202.941 164.055 202.015 160.049 202.169C156.044 202.323 154.504 203.558 151.423 205.719C147.264 208.805 141.564 212.818 130.782 213.435C119.999 214.052 113.837 210.503 109.524 208.034C106.289 206.182 104.595 205.256 100.589 205.41C96.5844 205.564 95.0439 206.799 91.9631 208.96C87.804 212.046 82.1044 216.059 71.3215 216.676C60.5386 217.293 54.377 213.744 50.0638 211.274C46.829 209.423 45.1345 208.497 41.1294 208.651L36.5082 208.96L36.8163 216.059L41.4375 215.75C45.9047 215.441 47.7532 216.522 51.1421 218.528C55.4553 220.997 61.3088 224.392 71.7837 223.775C82.2585 223.158 87.804 219.145 91.8091 216.213C94.8899 213.898 96.7384 212.663 101.052 212.355C105.519 212.046 107.367 213.126 110.756 215.133C115.069 217.602 120.923 220.997 131.398 220.38C141.873 219.762 147.418 215.75 151.423 212.818C154.504 210.503 156.352 209.268 160.666 208.96C165.133 208.651 166.981 209.731 170.37 211.737C174.683 214.207 180.537 217.602 191.012 216.985C201.487 216.367 207.032 212.355 211.037 209.423C214.118 207.108 215.966 205.873 220.28 205.564C224.747 205.256 226.595 206.336 229.984 208.342C234.297 210.811 240.151 214.207 250.626 213.589C261.101 212.972 266.646 208.96 270.651 206.027C273.732 203.712 275.581 202.478 279.894 202.169C284.361 201.86 286.209 202.941 289.598 204.947C293.911 207.416 299.765 210.811 310.24 210.194C320.715 209.577 326.26 205.564 330.265 202.632C333.346 200.317 335.195 199.083 339.508 198.774L344.129 198.465L343.667 191.366L339.046 191.675C334.27 192.601 332.884 193.681 329.803 195.996Z"/><path fill="#6D1D0E" d="M110.756 223.311L120.923 193.681H127.238V223.311L137.713 193.681H141.102L127.7 229.793H120.614V205.101L111.064 229.793H103.978V196.613C98.7406 198.31 96.1219 202.014 96.1219 207.416C96.1219 209.885 96.738 210.348 96.738 210.657C93.3491 210.657 91.5006 209.422 91.5006 206.027C91.5006 199.545 100.435 193.372 108.445 193.372C109.061 193.372 109.678 193.372 110.448 193.526L110.756 223.311Z"/><path fill="#fff" d="M127.547 233.806H120.461C118.304 233.806 116.456 231.954 116.456 229.793V226.244L114.607 231.182C113.991 232.726 112.605 233.652 110.91 233.652H103.824C101.668 233.652 99.8192 231.8 99.8192 229.639V212.972C99.6651 213.126 99.6651 213.126 99.5111 213.28C98.7409 214.052 97.6626 214.515 96.5843 214.515C88.2661 214.515 87.4958 208.496 87.4958 205.873C87.4958 196.613 98.7409 189.36 108.445 189.36C109.216 189.36 109.986 189.36 110.756 189.514C112.759 189.668 114.453 191.366 114.453 193.372L114.607 200.471L117.38 192.292C117.996 190.749 119.382 189.668 121.077 189.668H127.393C129.549 189.668 131.398 191.52 131.398 193.681V200.008L134.17 192.292C134.787 190.749 136.173 189.668 137.867 189.668H141.256C142.489 189.668 143.721 190.286 144.491 191.366C145.261 192.446 145.415 193.835 144.953 195.07L131.552 231.182C130.627 232.726 129.241 233.806 127.547 233.806ZM122.309 201.552C122.617 201.706 122.925 202.014 123.233 202.323V198.928L122.309 201.552Z"/><path fill="#6D1D0E" d="M144.183 225.935C148.034 225.935 150.345 223.775 152.81 220.997H154.504C151.731 225.472 147.572 229.948 141.257 229.948C136.635 229.948 133.708 227.787 133.708 222.231C133.708 216.676 136.789 204.947 146.802 204.947C151.115 204.947 152.193 207.107 152.193 209.577C152.193 215.132 146.802 219.454 141.102 219.762C141.102 220.38 140.948 221.151 140.948 221.768C140.794 225.164 141.873 225.935 144.183 225.935ZM147.11 207.725C144.645 207.725 142.335 212.972 141.257 217.756C144.954 217.447 148.342 213.743 148.342 209.731C148.342 208.496 148.034 207.725 147.11 207.725Z"/><path fill="#fff" d="M141.103 233.96C133.863 233.96 129.55 229.639 129.55 222.232C129.55 213.435 134.787 200.934 146.648 200.934C152.348 200.934 155.891 204.175 155.891 209.577C155.891 212.2 155.121 214.824 153.58 216.984H154.35C155.737 216.984 157.123 217.756 157.739 218.991C158.509 220.225 158.355 221.769 157.585 223.003C153.426 230.411 147.727 233.96 141.103 233.96Z"/><path fill="#6D1D0E" d="M162.822 225.935C166.673 225.935 168.983 223.775 171.448 220.997H173.143C170.37 225.472 166.211 229.948 159.895 229.948C155.274 229.948 152.347 227.787 152.347 222.231C152.347 216.676 155.428 204.947 165.44 204.947C169.754 204.947 170.832 207.107 170.832 209.577C170.832 215.132 165.44 219.454 159.741 219.762C159.741 220.38 159.587 221.151 159.587 221.768C159.279 225.164 160.511 225.935 162.822 225.935ZM165.594 207.725C163.13 207.725 160.819 212.972 159.741 217.756C163.438 217.447 166.827 213.743 166.827 209.731C166.827 208.496 166.519 207.725 165.594 207.725Z"/><path fill="#fff" d="M159.741 233.96C152.501 233.96 148.188 229.639 148.188 222.232C148.188 213.435 153.426 200.934 165.287 200.934C170.986 200.934 174.529 204.175 174.529 209.577C174.529 212.2 173.605 214.824 172.065 216.984H172.989C174.375 216.984 175.762 217.756 176.378 218.991C177.148 220.225 176.994 221.769 176.224 223.003C171.91 230.411 166.365 233.96 159.741 233.96Z"/><path fill="#6D1D0E" d="M194.247 205.565L184.542 212.355C185.004 212.201 185.621 212.201 186.083 212.201C189.626 212.201 191.474 214.824 191.474 217.911C191.474 218.528 191.474 219.146 191.32 219.763L190.858 222.232C190.704 222.695 190.55 223.312 190.55 223.775C190.55 224.701 191.012 225.627 192.398 225.627C193.631 225.627 193.785 225.473 194.093 225.319C193.785 228.714 190.858 230.257 189.626 230.257C185.621 230.257 183.464 228.251 183.464 224.701C183.464 223.93 183.618 223.158 183.772 222.232L184.234 220.38C184.388 219.763 184.388 219.146 184.388 218.528C184.388 217.139 183.926 216.213 182.694 216.213C181.615 216.213 180.537 216.831 179.151 218.065L176.686 230.103H169.754L176.84 197.077L184.08 196.151L180.383 213.281L189.78 205.873H194.247V205.565Z"/><path fill="#fff" d="M189.626 233.961C185.466 233.961 182.232 232.263 180.691 229.331L180.383 230.565C179.921 232.417 178.381 233.652 176.532 233.652H169.6C168.368 233.652 167.29 233.035 166.519 232.109C165.749 231.183 165.441 229.948 165.749 228.713L172.835 195.687C173.143 193.99 174.53 192.755 176.224 192.601L183.464 191.675C184.696 191.521 186.083 191.984 186.853 192.909C187.777 193.835 188.085 195.224 187.777 196.459L186.391 202.786L187.161 202.169C187.931 201.552 188.701 201.243 189.626 201.243H194.401C196.095 201.243 197.636 202.323 198.252 204.021C198.714 205.719 198.098 207.416 196.711 208.497L193.323 210.811C194.709 212.509 195.633 214.824 195.633 217.448C195.633 218.374 195.479 219.299 195.325 220.225L195.171 220.997C195.633 221.151 196.095 221.306 196.557 221.614C197.636 222.386 198.252 223.775 198.252 225.164C197.636 230.874 192.86 233.961 189.626 233.961Z"/><path fill="#411F1F" d="M110.756 223.311L120.923 193.681H127.238V223.311L137.713 193.681H141.102L127.7 229.793H120.614V205.101L111.064 229.793H103.978V196.613C98.7406 198.31 96.1219 202.014 96.1219 207.416C96.1219 209.885 96.738 210.348 96.738 210.657C93.3491 210.657 91.5006 209.422 91.5006 206.027C91.5006 199.545 100.435 193.372 108.445 193.372C109.061 193.372 109.677 193.372 110.448 193.526L110.756 223.311Z"/><path fill="#411F1F" d="M144.183 225.935C148.034 225.935 150.345 223.775 152.81 220.997H154.504C151.731 225.472 147.572 229.948 141.257 229.948C136.635 229.948 133.708 227.787 133.708 222.231C133.708 216.676 136.789 204.947 146.802 204.947C151.115 204.947 152.193 207.107 152.193 209.577C152.193 215.132 146.802 219.454 141.102 219.762C141.102 220.38 140.948 221.151 140.948 221.768C140.794 225.164 141.873 225.935 144.183 225.935ZM147.11 207.725C144.645 207.725 142.335 212.972 141.257 217.756C144.954 217.447 148.342 213.743 148.342 209.731C148.342 208.496 148.034 207.725 147.11 207.725Z"/><path fill="#411F1F" d="M162.822 225.935C166.673 225.935 168.983 223.775 171.448 220.997H173.143C170.37 225.472 166.211 229.948 159.895 229.948C155.274 229.948 152.347 227.787 152.347 222.231C152.347 216.676 155.428 204.947 165.44 204.947C169.754 204.947 170.832 207.107 170.832 209.577C170.832 215.132 165.44 219.454 159.741 219.762C159.741 220.38 159.587 221.151 159.587 221.768C159.279 225.164 160.511 225.935 162.822 225.935ZM165.594 207.725C163.13 207.725 160.819 212.972 159.741 217.756C163.438 217.447 166.827 213.743 166.827 209.731C166.827 208.496 166.519 207.725 165.594 207.725Z"/><path fill="#411F1F" d="M194.247 205.564L184.542 212.354C185.004 212.2 185.621 212.2 186.083 212.2C189.626 212.2 191.474 214.823 191.474 217.91C191.474 218.527 191.474 219.145 191.32 219.762L190.858 222.231C190.704 222.694 190.55 223.312 190.55 223.774C190.55 224.7 191.012 225.626 192.398 225.626C193.631 225.626 193.785 225.472 194.093 225.318C193.785 228.713 190.858 230.256 189.626 230.256C185.621 230.256 183.464 228.25 183.464 224.7C183.464 223.929 183.618 223.157 183.772 222.231L184.234 220.379C184.388 219.762 184.388 219.145 184.388 218.527C184.388 217.138 183.926 216.212 182.694 216.212C181.615 216.212 180.537 216.83 179.151 218.064L176.686 230.102H169.754L176.84 197.076L184.08 196.15L180.383 213.28L189.78 205.873H194.247V205.564Z"/><path fill="#6D1D0E" d="M81.9504 108.801L75.6347 136.271H76.4049C87.1878 136.271 95.8141 125.468 95.8141 116.208C95.8141 109.109 90.7308 102.936 77.9453 102.936C62.0791 102.936 44.0562 112.504 44.0562 132.876C44.0562 139.203 45.7507 140.129 45.9047 141.209C36.9703 141.209 31.4248 138.123 31.4248 129.789C31.4248 112.813 54.9931 97.0717 80.564 97.0717C100.435 97.0717 109.37 106.64 109.37 116.671C109.37 123.925 104.594 131.795 95.8141 136.271C107.367 138.431 111.834 146.919 111.834 156.179C111.834 168.062 104.749 191.674 82.2585 191.674C76.4049 191.674 68.8569 190.131 68.8569 182.569C68.8569 180.563 69.473 178.248 70.5513 175.47C73.9402 178.711 76.5589 179.945 79.6398 179.945C89.4984 179.945 93.0414 167.136 93.0414 157.722C93.0414 149.08 90.1146 141.981 80.2559 141.981C79.1777 141.981 76.4049 142.135 74.0943 142.29L63.0033 189.822H43.5941L61.925 111.27L81.9504 108.801Z"/><path fill="#fff" d="M82.4127 196.459C75.6349 196.459 70.5515 194.607 67.4707 191.211C66.8545 193.063 65.006 194.298 63.1575 194.298H43.5942C42.2079 194.298 40.8215 193.681 39.8972 192.6C38.973 191.52 38.6649 189.977 38.973 188.588L49.2938 144.45C48.3695 145.376 47.2912 145.839 46.0589 145.839C29.4224 145.839 26.9578 135.808 26.9578 129.789C26.9578 110.344 52.6827 92.5962 80.7182 92.5962C97.3547 92.5962 114.145 100.158 114.145 116.826C114.145 123.616 111.064 130.098 105.673 135.191C112.605 139.357 116.456 146.765 116.456 156.333C116.456 162.815 114.607 172.538 109.37 181.026C103.362 191.057 93.9658 196.459 82.4127 196.459ZM73.6323 183.341C73.9404 185.964 76.8672 187.199 82.4127 187.199C102.746 187.199 107.367 164.358 107.367 156.333C107.367 150.315 105.211 142.907 95.1981 141.055C93.1956 140.746 91.8092 139.203 91.5011 137.197C91.3471 136.271 91.5011 135.499 91.8092 134.728C90.2688 136.117 88.4203 137.505 86.4178 138.431C96.5845 141.518 97.8168 152.63 97.8168 157.877C97.8168 170.84 92.1173 184.73 79.794 184.73C77.6374 184.575 75.6349 184.267 73.6323 183.341ZM49.4478 185.038H59.4605L69.7813 141.364C70.0894 140.129 70.8596 139.203 71.7838 138.586C71.1677 137.505 71.0136 136.271 71.3217 135.191L75.9429 114.202L65.7762 115.437L49.4478 185.038ZM72.246 171.149C72.8621 171.303 73.4783 171.766 73.9404 172.229C77.0212 175.161 78.4076 175.47 79.794 175.47C86.1097 175.47 88.5743 164.667 88.5743 157.877C88.5743 148.154 84.5693 146.919 80.4101 146.919C79.948 146.919 79.0238 146.919 77.9455 147.074L72.246 171.149ZM56.2256 115.437C51.9125 119.449 48.8317 125.159 48.8317 132.721C48.8317 136.117 49.4478 137.197 49.7559 137.968C49.9099 138.431 50.218 138.894 50.5261 139.512L56.2256 115.437ZM45.2887 113.739C39.7432 118.369 36.2003 124.079 36.2003 129.789C36.2003 131.641 36.2003 134.265 39.5892 135.499C39.5892 134.728 39.4351 133.647 39.4351 132.721C39.5892 125.622 41.5917 119.141 45.2887 113.739ZM96.4305 104.788C99.3572 108.029 100.59 112.196 100.59 116.208C100.59 121.61 98.1249 127.629 94.1198 132.258C100.744 128.709 104.903 122.844 104.903 116.826C104.903 111.578 101.822 107.412 96.4305 104.788ZM86.5718 109.109C86.5718 109.418 86.5718 109.572 86.4178 109.881L81.6425 130.406C87.188 127.783 91.193 121.61 91.193 116.363C91.3471 112.504 89.1905 110.344 86.5718 109.109Z"/><path fill="#6D1D0E" d="M166.211 131.024L157.738 170.995C157.43 172.538 157.276 173.773 157.276 174.699C157.276 177.94 158.817 179.02 162.051 179.02C166.673 179.02 169.754 174.545 171.602 168.68H176.531C169.908 187.817 159.279 190.44 152.963 190.44C146.339 190.44 142.026 186.582 141.41 179.329C135.556 188.897 128.933 190.44 124.003 190.44C116.917 190.44 111.372 186.273 111.372 176.396C111.372 174.236 111.68 171.612 112.296 168.68L120.306 130.87H137.251L128.779 170.841C128.624 172.075 128.47 173.001 128.47 174.082C128.47 176.859 129.395 178.866 132.013 178.866C136.635 178.866 139.715 174.39 141.41 168.526L149.42 130.716H166.211V131.024Z"/><path fill="#fff" d="M152.963 194.452C147.11 194.452 142.489 191.983 139.87 187.662C135.403 192.138 130.165 194.452 124.004 194.452C115.993 194.452 107.521 189.668 107.521 176.396C107.521 174.081 107.829 171.303 108.599 167.908L116.61 130.098C117.072 128.246 118.612 127.011 120.461 127.011H137.405C138.637 127.011 139.716 127.629 140.486 128.555C141.256 129.481 141.564 130.715 141.256 131.95L132.784 171.921C132.63 172.847 132.476 173.618 132.476 174.39C132.476 174.699 132.476 175.007 132.476 175.162C135.249 174.544 136.943 169.606 137.559 167.908L145.569 130.252C146.031 128.4 147.572 127.166 149.42 127.166H166.365C167.597 127.166 168.676 127.783 169.446 128.709C170.216 129.635 170.524 130.87 170.216 132.104L161.744 172.075C161.436 173.31 161.282 174.236 161.282 175.007C161.282 175.162 161.282 175.316 161.282 175.316C161.436 175.316 161.744 175.316 162.052 175.316C165.287 175.316 167.289 169.606 167.751 167.754C168.213 166.056 169.754 164.976 171.602 164.976H176.532C177.764 164.976 178.996 165.593 179.767 166.674C180.537 167.754 180.691 169.143 180.229 170.223C173.297 190.286 161.59 194.452 152.963 194.452ZM142.797 175.625C144.183 176.242 145.107 177.476 145.261 178.865C145.723 184.113 148.188 186.427 152.963 186.427C156.66 186.427 160.049 185.193 162.976 182.878C162.668 182.878 162.36 182.878 162.052 182.878C154.35 182.878 153.271 177.631 153.271 174.544C153.271 173.155 153.425 171.612 153.888 169.914L161.282 134.728H152.501L145.261 169.297C145.261 169.451 145.261 169.451 145.107 169.606C144.491 172.229 143.721 174.081 142.797 175.625ZM123.541 135.036L116.301 169.606C115.685 172.384 115.377 174.544 115.377 176.396C115.377 183.187 118.304 186.582 124.004 186.582C126.622 186.582 130.011 186.119 133.4 183.032C132.938 183.032 132.476 183.187 132.014 183.187C128.625 183.187 124.466 180.872 124.466 174.39C124.466 173.155 124.62 171.766 124.928 170.377L132.322 135.191H123.541V135.036Z"/><path fill="#6D1D0E" d="M196.557 131.024L195.016 138.277C199.175 134.728 203.643 131.024 209.188 131.024C214.425 131.024 217.352 135.345 217.352 139.82C217.352 143.987 214.58 148.463 208.88 148.463C202.256 148.463 205.645 140.746 202.102 140.746C198.559 140.746 196.403 142.444 193.476 145.222L184.079 189.977H167.135L179.612 131.178H196.557V131.024Z"/><path fill="#fff" d="M184.079 193.835H167.135C165.902 193.835 164.824 193.218 164.054 192.292C163.284 191.366 162.976 190.131 163.284 188.897L175.761 130.098C176.223 128.246 177.763 127.011 179.612 127.011H196.557C197.789 127.011 198.867 127.474 199.637 128.555C199.945 128.863 200.099 129.172 200.254 129.635C202.872 128.246 205.799 127.166 209.188 127.166C216.12 127.166 221.203 132.721 221.203 139.975C221.203 145.994 216.89 152.475 208.726 152.475C202.102 152.475 200.716 147.537 200.254 145.068C199.329 145.376 198.405 146.148 197.019 147.383L187.93 190.749C187.468 192.446 185.928 193.835 184.079 193.835ZM172.064 185.81H180.844L189.625 144.296C189.779 143.524 190.241 142.753 190.857 142.135C191.319 141.672 191.781 141.364 192.243 140.901C191.319 139.975 191.011 138.586 191.319 137.351L191.781 134.882H183.001L172.064 185.81ZM208.418 144.45C208.572 144.45 208.726 144.45 208.88 144.45C213.193 144.45 213.347 140.592 213.347 139.821C213.347 139.358 213.193 135.036 209.188 135.036C207.185 135.036 205.183 135.808 203.334 136.888C206.877 137.66 207.648 141.518 207.956 142.907C208.11 143.37 208.264 144.142 208.418 144.45Z"/><path fill="#6D1D0E" d="M267.262 131.024L255.709 185.656C262.795 183.032 267.262 179.02 270.497 168.834H275.426C270.805 184.421 261.871 188.897 254.631 190.749L252.936 199.237C249.393 216.058 239.535 219.299 231.833 219.299C224.593 219.299 218.739 215.595 218.739 207.879C218.739 198.002 229.06 193.063 237.84 190.286L239.227 184.112C235.838 187.816 231.217 190.594 225.209 190.594C217.199 190.594 209.651 185.656 209.651 171.612C209.651 155.716 219.355 130.406 239.843 130.406C246.467 130.406 249.393 133.03 249.393 136.425V137.197L250.626 131.024H267.262V131.024ZM229.06 210.039C231.525 210.039 234.297 206.49 235.838 199.545L236.608 196.15C230.6 198.465 225.055 201.397 225.055 206.181C225.055 207.879 226.441 210.039 229.06 210.039ZM226.903 169.914C226.903 179.02 230.6 179.174 232.757 179.174C235.992 179.174 240.459 175.933 242.153 169.914L248.161 141.981C248.007 140.746 247.083 137.66 243.386 137.66C233.219 137.814 226.903 158.957 226.903 169.914Z"/><path fill="#fff" d="M231.833 223.157C221.666 223.157 214.734 216.984 214.734 207.724C214.734 202.477 216.891 197.848 221.358 194.144C213.194 192.755 205.492 186.273 205.492 171.612C205.492 152.63 217.353 126.548 239.689 126.548C243.078 126.548 245.851 127.166 247.853 128.246C248.624 127.629 249.548 127.166 250.472 127.166H267.417C268.649 127.166 269.727 127.783 270.497 128.709C271.268 129.635 271.576 130.869 271.268 132.104L261.563 177.785C263.566 175.624 265.26 172.538 266.8 167.754C267.263 166.056 268.803 164.976 270.651 164.976H275.581C276.813 164.976 278.045 165.593 278.816 166.519C279.586 167.599 279.74 168.834 279.432 170.069C274.657 186.119 265.568 191.52 258.174 193.989L256.942 200.162C252.783 219.145 240.921 223.157 231.833 223.157ZM223.669 211.891C225.671 214.824 229.676 215.286 231.679 215.286C244.002 215.286 247.391 205.718 248.932 198.465L250.626 189.977C250.78 189.051 251.396 188.125 252.167 187.662C251.704 186.89 251.55 185.81 251.704 184.884L262.333 135.191H253.553L252.937 138.123C252.783 139.049 252.321 139.82 251.704 140.283C251.858 140.746 252.012 141.364 252.012 141.827C252.012 142.29 252.012 142.598 252.012 143.061L246.005 170.995V171.149C244.927 175.161 242.616 178.248 240.151 180.408C240.459 180.408 240.767 180.563 241.076 180.717C242.616 181.489 243.54 183.341 243.078 185.038L241.692 191.211C241.384 192.292 240.767 193.218 239.843 193.835C240.613 194.761 240.767 195.841 240.613 197.076L239.843 200.471C237.995 209.113 233.99 214.052 229.214 214.052C226.904 214.052 225.055 213.28 223.669 211.891ZM229.06 206.027C229.06 206.181 229.06 206.181 229.06 206.027V206.027ZM230.139 204.021C229.368 204.792 229.06 205.255 229.06 205.718C229.368 205.41 229.83 204.947 230.139 204.021ZM239.535 134.419C221.358 134.573 213.502 159.111 213.502 171.612C213.502 181.334 217.507 186.582 225.209 186.582C228.752 186.582 231.987 185.347 234.76 182.878C234.144 183.032 233.373 183.032 232.757 183.032C226.288 183.032 222.899 178.557 222.899 169.914C222.899 163.432 224.747 154.944 227.674 148.154C230.909 140.746 234.914 136.117 239.535 134.419ZM243.232 141.672C237.379 141.672 230.755 158.494 230.755 169.914C230.755 174.081 231.679 175.007 231.679 175.007C231.833 175.007 232.449 175.007 232.603 175.007C233.836 175.007 236.916 173.155 238.149 168.834L244.002 141.827C243.848 141.672 243.54 141.672 243.232 141.672Z"/><path fill="#6D1D0E" d="M290.985 180.718C300.227 180.718 305.927 175.471 311.78 168.834H315.785C309.161 179.637 299.149 190.595 283.437 190.595C272.346 190.595 265.106 185.193 265.106 171.921C265.106 158.34 272.808 130.098 296.838 130.098C307.313 130.098 309.778 135.5 309.778 141.364C309.778 154.945 296.838 165.285 282.82 166.211C282.666 167.908 282.512 169.452 282.512 170.995C282.512 178.711 285.285 180.718 290.985 180.718ZM297.762 136.271C291.755 136.271 286.055 148.926 283.745 160.501C292.833 159.883 300.843 150.932 300.843 141.056C300.689 138.123 299.919 136.271 297.762 136.271Z"/><path fill="#fff" d="M283.437 194.452C269.265 194.452 261.101 186.119 261.101 171.766C261.101 156.797 269.881 125.931 296.838 125.931C307.775 125.931 313.783 131.332 313.783 141.209C313.783 155.099 301.922 167.136 286.518 169.606C286.518 170.069 286.518 170.377 286.518 170.686C286.518 176.396 287.596 176.55 290.985 176.55C298.225 176.55 302.846 172.847 308.854 166.056C309.624 165.13 310.702 164.667 311.78 164.667H315.786C317.172 164.667 318.558 165.439 319.174 166.673C319.945 167.908 319.791 169.451 319.02 170.686C309.162 186.736 297.609 194.452 283.437 194.452ZM291.909 134.419C285.131 135.808 279.586 140.283 275.427 147.691C270.805 156.025 269.111 165.902 269.111 171.766C269.111 181.798 273.732 186.427 283.437 186.427C287.134 186.427 290.523 185.81 293.758 184.421C292.833 184.575 291.909 184.575 290.831 184.575C282.359 184.575 278.353 180.1 278.353 170.686C278.353 169.143 278.508 167.445 278.662 165.748C278.816 164.513 279.432 163.433 280.356 162.815C279.74 161.889 279.432 160.809 279.586 159.729C281.434 151.704 285.439 139.358 291.909 134.419ZM296.684 140.592C294.682 141.981 291.601 146.92 289.29 154.327C293.604 151.549 296.684 146.302 296.684 140.901C296.684 140.901 296.684 140.746 296.684 140.592ZM303.308 135.345C304.078 136.58 304.541 138.432 304.541 141.055C304.541 145.222 303.308 149.234 301.306 152.784C304.078 149.389 305.619 145.531 305.619 141.209C305.773 139.049 305.465 136.734 303.308 135.345ZM297.763 140.129V136.117V140.129Z"/><path fill="#6D1D0E" d="M333.653 131.024L332.113 138.277C336.272 134.728 340.739 131.024 346.285 131.024C351.522 131.024 354.449 135.345 354.449 139.82C354.449 143.987 351.676 148.463 345.977 148.463C339.353 148.463 342.742 140.746 339.199 140.746C335.656 140.746 333.499 142.444 330.573 145.222L321.176 189.977H304.232L316.709 131.178H333.653V131.024Z"/><path fill="#fff" d="M321.176 193.835H304.232C302.999 193.835 301.921 193.218 301.151 192.292C300.381 191.366 300.072 190.131 300.381 188.897L312.858 130.098C313.32 128.246 314.86 127.011 316.709 127.011H333.653C334.886 127.011 335.964 127.474 336.734 128.555C337.042 128.863 337.196 129.172 337.35 129.635C339.969 128.246 342.896 127.166 346.285 127.166C353.217 127.166 358.3 132.721 358.3 139.975C358.3 145.994 353.987 152.475 345.823 152.475C339.199 152.475 337.813 147.537 337.35 145.068C336.426 145.376 335.502 146.148 334.116 147.383L325.027 190.749C324.719 192.446 323.025 193.835 321.176 193.835ZM309.161 185.81H317.941L326.722 144.296C326.876 143.524 327.338 142.753 327.954 142.135C328.416 141.672 328.878 141.364 329.34 140.901C328.416 139.975 328.108 138.586 328.416 137.351L328.878 134.882H320.098L309.161 185.81ZM345.515 144.45C345.669 144.45 345.823 144.45 345.977 144.45C350.29 144.45 350.444 140.284 350.444 139.821C350.444 139.358 350.29 135.036 346.285 135.036C344.282 135.036 342.28 135.808 340.431 136.888C343.974 137.66 344.744 141.518 345.052 142.907C345.207 143.37 345.361 144.142 345.515 144.45Z"/><path fill="#411F1F" d="M81.9504 108.801L75.6347 136.271H76.4049C87.1878 136.271 95.8141 125.468 95.8141 116.208C95.8141 109.109 90.7308 102.936 77.9453 102.936C62.0791 102.936 44.0562 112.504 44.0562 132.876C44.0562 139.203 45.7507 140.129 45.9047 141.209C36.9703 141.209 31.4248 138.123 31.4248 129.789C31.4248 112.813 54.9931 97.0717 80.564 97.0717C100.435 97.0717 109.37 106.64 109.37 116.671C109.37 123.925 104.594 131.795 95.8141 136.271C107.367 138.431 111.834 146.919 111.834 156.179C111.834 168.062 104.749 191.674 82.2585 191.674C76.4049 191.674 68.8569 190.131 68.8569 182.569C68.8569 180.563 69.473 178.248 70.5513 175.47C73.9402 178.711 76.5589 179.945 79.6398 179.945C89.4984 179.945 93.0414 167.136 93.0414 157.722C93.0414 149.08 90.1146 141.981 80.2559 141.981C79.1777 141.981 76.4049 142.135 74.0943 142.29L63.0033 189.822H43.5941L61.925 111.27L81.9504 108.801Z"/><path fill="#411F1F" d="M166.211 131.024L157.738 170.995C157.43 172.538 157.276 173.773 157.276 174.699C157.276 177.94 158.817 179.02 162.051 179.02C166.673 179.02 169.754 174.545 171.602 168.68H176.531C169.908 187.817 159.279 190.44 152.963 190.44C146.339 190.44 142.026 186.582 141.41 179.329C135.556 188.897 128.933 190.44 124.003 190.44C116.917 190.44 111.372 186.273 111.372 176.396C111.372 174.236 111.68 171.612 112.296 168.68L120.306 130.87H137.251L128.779 170.841C128.624 172.075 128.47 173.001 128.47 174.082C128.47 176.859 129.395 178.866 132.013 178.866C136.635 178.866 139.715 174.39 141.41 168.526L149.42 130.716H166.211V131.024Z"/><path fill="#411F1F" d="M196.557 131.024L195.016 138.277C199.175 134.728 203.643 131.024 209.188 131.024C214.426 131.024 217.352 135.345 217.352 139.82C217.352 143.987 214.58 148.463 208.88 148.463C202.256 148.463 205.645 140.746 202.102 140.746C198.559 140.746 196.403 142.444 193.476 145.222L184.079 189.977H167.135L179.612 131.178H196.557V131.024Z"/><path fill="#411F1F" d="M267.262 131.024L255.709 185.656C262.795 183.032 267.262 179.02 270.497 168.834H275.426C270.805 184.421 261.871 188.897 254.631 190.749L252.936 199.237C249.393 216.058 239.535 219.299 231.833 219.299C224.593 219.299 218.739 215.595 218.739 207.879C218.739 198.002 229.06 193.063 237.84 190.286L239.227 184.112C235.838 187.816 231.217 190.594 225.209 190.594C217.199 190.594 209.651 185.656 209.651 171.612C209.651 155.716 219.355 130.406 239.843 130.406C246.467 130.406 249.393 133.03 249.393 136.425V137.197L250.626 131.024H267.262V131.024ZM229.06 210.039C231.525 210.039 234.297 206.49 235.838 199.545L236.608 196.15C230.6 198.465 225.055 201.397 225.055 206.181C225.055 207.879 226.441 210.039 229.06 210.039ZM226.903 169.914C226.903 179.02 230.6 179.174 232.757 179.174C235.992 179.174 240.459 175.933 242.153 169.914L248.161 141.981C248.007 140.746 247.083 137.66 243.386 137.66C233.219 137.814 226.903 158.957 226.903 169.914Z"/><path fill="#411F1F" d="M290.984 180.718C300.227 180.718 305.926 175.471 311.78 168.834H315.785C309.161 179.637 299.149 190.595 283.436 190.595C272.345 190.595 265.105 185.193 265.105 171.921C265.105 158.34 272.808 130.098 296.838 130.098C307.313 130.098 309.777 135.5 309.777 141.364C309.777 154.945 296.838 165.285 282.82 166.211C282.666 167.908 282.512 169.452 282.512 170.995C282.512 178.711 285.285 180.718 290.984 180.718ZM297.762 136.271C291.755 136.271 286.055 148.926 283.744 160.501C292.833 159.883 300.843 150.932 300.843 141.056C300.689 138.123 299.919 136.271 297.762 136.271Z"/><path fill="#411F1F" d="M333.653 131.024L332.113 138.277C336.272 134.728 340.739 131.024 346.285 131.024C351.522 131.024 354.449 135.345 354.449 139.82C354.449 143.987 351.676 148.463 345.977 148.463C339.353 148.463 342.742 140.746 339.199 140.746C335.656 140.746 333.499 142.444 330.573 145.222L321.176 189.977H304.232L316.709 131.178H333.653V131.024Z"/><path fill="#6D1D0E" d="M21.2576 174.236C26.3409 175.316 31.5783 180.563 37.74 180.563C39.1264 180.563 40.3587 180.409 41.8991 179.791C41.437 184.575 39.4345 187.508 36.8157 187.508C29.7298 187.508 23.5682 176.396 14.9419 176.396C14.4797 176.396 14.1717 176.396 13.8636 176.396L21.1035 142.29C16.7904 143.987 14.1717 147.691 14.1717 152.938C14.1717 155.408 14.7878 155.871 14.7878 156.334C11.3989 156.334 9.55042 155.099 9.55042 151.549C9.55042 145.068 18.6389 138.74 26.8031 138.74C27.4192 138.74 28.1894 138.74 28.8056 138.895L21.2576 174.236Z"/><path fill="#fff" d="M36.662 191.366C31.8867 191.366 28.1897 188.279 24.4927 185.347C21.1038 182.724 18.023 180.254 14.7881 180.254C14.6341 180.254 14.326 180.254 14.172 180.254C12.9396 180.409 11.5533 179.946 10.7831 179.02C9.85881 178.094 9.55073 176.705 9.85881 175.47L13.0937 160.192C6.31586 159.42 5.54565 154.019 5.54565 151.549C5.54565 143.833 14.7881 134.728 26.6493 134.728C27.4195 134.728 28.1897 134.728 28.8059 134.882C29.8842 135.036 30.9625 135.499 31.7327 136.425C32.5029 137.351 32.6569 138.586 32.5029 139.666L25.7251 171.458C26.9574 172.075 28.1897 172.692 29.4221 173.31C32.1948 174.853 34.9676 176.396 37.5863 176.396C38.5105 176.396 39.4348 176.242 40.205 175.933C41.4373 175.47 42.9777 175.625 44.056 176.396C45.1343 177.168 45.7505 178.557 45.5964 179.946C44.9803 188.434 40.5131 191.366 36.662 191.366Z"/><path fill="#6D1D0E" d="M37.4327 170.841C39.2812 170.841 41.5918 169.606 43.2863 168.217C42.208 173.773 38.6651 175.471 34.814 175.471C30.1928 175.471 27.266 173.156 27.266 167.6C27.266 161.89 30.5009 150.161 40.5136 150.161C44.8267 150.161 45.905 152.476 45.905 154.945C45.905 160.655 40.5136 164.976 34.66 165.285C34.66 165.748 34.5059 166.365 34.5059 166.828C34.5059 169.76 35.7383 170.841 37.4327 170.841ZM40.8216 152.784C38.357 152.784 35.8923 158.186 34.9681 162.97C38.8191 162.816 42.054 158.958 42.054 154.945C42.054 153.556 41.7459 152.784 40.8216 152.784Z"/><path fill="#fff" d="M34.8143 179.483C27.7284 179.483 23.2612 175.008 23.2612 167.754C23.2612 158.803 28.6527 146.303 40.5139 146.303C46.2134 146.303 49.9104 149.698 49.9104 154.945C49.9104 158.803 48.2159 162.198 45.4432 164.822C46.8296 165.748 47.5998 167.291 47.2917 168.989C45.9053 175.625 41.4381 179.483 34.8143 179.483Z"/><path fill="#411F1F" d="M21.2576 174.236C26.3409 175.316 31.5783 180.563 37.74 180.563C39.1264 180.563 40.3587 180.409 41.8991 179.791C41.437 184.575 39.4345 187.508 36.8158 187.508C29.7298 187.508 23.5682 176.396 14.9419 176.396C14.4797 176.396 14.1717 176.396 13.8636 176.396L21.1035 142.29C16.7904 143.987 14.1717 147.691 14.1717 152.938C14.1717 155.408 14.7878 155.871 14.7878 156.334C11.3989 156.334 9.55042 155.099 9.55042 151.549C9.55042 145.068 18.6389 138.74 26.8031 138.74C27.4192 138.74 28.1894 138.74 28.8056 138.895L21.2576 174.236Z"/><path fill="#411F1F" d="M37.4327 170.84C39.2812 170.84 41.5918 169.605 43.2863 168.216C42.208 173.772 38.6651 175.47 34.814 175.47C30.1928 175.47 27.266 173.155 27.266 167.599C27.266 161.889 30.5009 150.16 40.5136 150.16C44.8267 150.16 45.905 152.475 45.905 154.944C45.905 160.654 40.5136 164.975 34.66 165.284C34.66 165.747 34.5059 166.364 34.5059 166.827C34.5059 169.76 35.7383 170.84 37.4327 170.84ZM40.8216 152.784C38.357 152.784 35.8923 158.185 34.9681 162.969C38.8191 162.815 42.054 158.957 42.054 154.944C42.054 153.555 41.7459 152.784 40.8216 152.784Z"/></svg>