<svg xmlns="http://www.w3.org/2000/svg" viewBox="0 0 175.51 175.47"><defs><style>.cls-1{fill:#ee1f36}.cls-2{fill:#f99c33}.cls-3{fill:#f05c5f}.cls-4{fill:#f05527}.cls-5{fill:#e2e440}.cls-6{fill:#22a94b}.cls-7{fill:#81c9e6}.cls-8{fill:#99ca3d}.cls-9{fill:#c6222a}.cls-10{fill:#c62229}.cls-11{fill:#2e8cb6}.cls-12{fill:#2d67b1}.cls-13{fill:#ccab2d}.cls-14{fill:#b8ba37}.cls-15{fill:#fcd533}.cls-16{fill:#39ace1}.cls-17{fill:#467bbf}.cls-18{fill:#ed2a3d}</style></defs><title>logo-just-eat</title><g id="Layer_2" data-name="Layer 2"><g id="logos_brands" data-name="logos brands"><path d="M132.28.28c2.16,0,4.75-.75,6.37.18,2.17,1.25,4.49-.09,6.07,1,1.86,1.26,3.93,1,5.81,1.64,3,1,5.27,3.28,8.24,4.2,5.4,5.63,11.85,10.45,13.78,18.71.64,2.74,1.8,5.34,1.73,8.24-.07,3.05,1.74,5.91,1,9.05-1.94.6-.94,2.2-.95,3.28-.07,20.57-.05,41.15-.05,61.72-1.55.67-3.16,1.23-4.65,2-4.5,2.38-9.47,3.62-14.09,5.79s-9.39,3.84-14.16,5.55c-4.06,1.45-7.94,3.32-12,4.7a134.91,134.91,0,0,0-12.8,5.23c-4.62,2.12-9.47,3.67-14.1,5.73S93,141,88.26,142.87s-9.55,4.25-14.38,6.27c-2.13.89-4.4,1.44-6.6,2.14l-6,2h-2c-.47-.64-.89-1.78-1.42-1.83-2.62-.25-4.52-2.15-6.84-2.82-6.89-2-12.44-6.91-19.44-8.55C28,136.58,22.89,136,19,133.26c-1.67-1.17-4.1-.95-5.26-3-4.53-.69-8-3.89-12.41-5V48.06c0-1.33.06-2.66,0-4,0-.29-.62-.53-1-.79,0-2.16-.75-4.75.18-6.37,1.25-2.17-.09-4.49,1-6.07C2.7,29,2.46,26.91,3.08,25c1-3,3.28-5.27,4.2-8.24C12.92,11.39,17.73,4.93,26,3c2.58-.6,5-1.62,7.74-1.77,1.54-.08,3-.76,4.57-.92a49.28,49.28,0,0,1,5,0c.79,2.14,2.58.93,3.79.93q40.71.14,81.42.07a24.37,24.37,0,0,0,3,0C131.79,1.2,132,.62,132.28.28Zm-16.71,117c5.43,0,5.42,0,4-5.26-.21-.76-.12-1.61-.27-2.39-.52-2.65-.81-5.36-1.35-8-.25-1.2-.4-2.46-.66-3.69s-.79-2.37-1-3.59c-.42-3-.39-6.12-1.15-9-.4-1.53-.64-3.06-1-4.58-.58-2.6-2-3.45-4.9-3.48a43.28,43.28,0,0,0-5,0c-2.62.28-5.08.94-6,3.92a14.11,14.11,0,0,1-1,1.59c-5.2,10.83-10.36,21.68-15.6,32.49-.41.85-.72,1.83.25,1.88,3,.18,6,0,8.94,0,.82-1.82,1.63-3.65,2.48-5.47.26-.56.65-1.06.91-1.62a2.89,2.89,0,0,1,3.07-1.84c3.16.1,6.33,0,9.49,0a3.39,3.39,0,0,1,3.43,2.92,22.59,22.59,0,0,1,0,2.49c.11,3.16.49,3.51,3.79,3.58Zm-50.67,0c3.67,0,7.33,0,11,0a3.37,3.37,0,0,0,3.35-3,18.46,18.46,0,0,0,0-4,1.63,1.63,0,0,0-1.23-1c-4.16-.07-8.33,0-12.5-.07a36,36,0,0,1-4.21-.55c.33-1.19.74-2.38,1-3.59s-.11-3.11.6-3.65,2.54-.18,3.87-.18c3,0,6,0,9,0,2,0,3.22-.89,3.51-2.83.17-1.14,0-2.33.05-3.49s-.3-1.73-1.64-1.7c-4,.08-8,0-12,0-1.08,0-1.47-.38-1.39-1.43s-.11-2,0-3a3.55,3.55,0,0,1,3.26-2.59c4.33,0,8.66,0,13,0,2.53,0,3.5-1,3.7-3.66.1-1.33,0-2.67,0-4,.05-1.12-.45-1.36-1.47-1.36-5.83,0-11.66,0-17.5,0a21.8,21.8,0,0,0-4.48.07c-1.26.27-2.9.86-3.44,1.83-.8,1.43-.85,3.31-1.1,5-.19,1.28,0,2.67-.36,3.86a65.76,65.76,0,0,0-1.62,7.82c-.55,2.64-.25,5.59-1.32,8-.91,2,.1,4.13-.83,5.64-1.29,2.08-.6,4.12-.89,6.15-.18,1.27.3,1.72,1.63,1.69C56.91,117.23,60.91,117.28,64.91,117.28Zm-.74-46.82,0-.18c1,0,2,0,3,0C71,70.43,77.12,67.14,79.1,63a38.15,38.15,0,0,0,3.21-12.15c.31-2.49.47-5.12,1.42-7.39.83-2-.3-4.23.7-5.66,1.48-2.1.48-4.15.84-6.17.19-1.06-.33-1.48-1.39-1.4-.83.06-1.66,0-2.49,0-1.63.07-3.4-.17-4.8.44-.54.23-.22,2.42-.31,3.72a1.4,1.4,0,0,1-.12.45c-1.88,4.4-1.67,9.23-2.83,13.79-.62,2.45-.5,5.09-1.13,7.53a9.4,9.4,0,0,1-2.42,3.94,5.36,5.36,0,0,1-3,1.08,19.59,19.59,0,0,1-4,0,5.06,5.06,0,0,1-4.5-4.42c-.27-3.55.77-7,1.51-10.38.43-2-.35-4.17.65-5.65s.57-2.8.83-4.18c.29-1.53.71-3,1-4.58.18-1.07.05-1.92-1.49-1.81-2,.14-4,.07-6,0-1,0-1.47.15-1.56,1.29-.07.88-.79,1.7-.92,2.59-.42,3-.28,6.17-1.17,9-.65,2.08-.23,4.29-1,6.06-1.52,3.55-.61,7.09-.81,10.62a5.94,5.94,0,0,0,1,3.54c2.05,2.88,4.28,5.72,8,6.46C60.28,70.21,62.24,70.27,64.17,70.47Zm30.61-9.18c-2.33,0-4.66,0-7,0-1,0-1.5.13-1.56,1.29,0,.72-.75,1.4-.8,2.13A10.19,10.19,0,0,0,85.66,69c.26.65,1.88.85,2.93,1.08a14.25,14.25,0,0,0,2.9.22c3.49,0,7,0,10.48,0a15.25,15.25,0,0,0,11.91-5c3.09-3.28,2.84-7.07,1.93-10.82a9.26,9.26,0,0,0-3.17-5c-2.06-1.49-4.73-2.14-7.15-3.12-1.71-.69-3.48-1.24-5.14-2-2.11-1-2.24-1.62-2.11-3.79.11-1.91,2.11-2,2.73-2a68.93,68.93,0,0,1,10.91,0c2.3.18,4.17-.45,4.36-2.37a32.59,32.59,0,0,0,0-5,1.25,1.25,0,0,0-.93-.79c-2.66-.06-5.57.65-7.92-.21-2.83-1-5.1-.27-7.73.07C94.54,30.85,91,33.09,89,38A11,11,0,0,0,91,49.53a11.34,11.34,0,0,0,4.38,2.72c2.87,1.11,5.81,2,8.72,3,2,.68,2.24,1.39,2.26,3.65,0,2-2.1,1.1-2.65,2.31-.11.25-1.25,0-1.92,0Zm42.88,16c-4.15,0-8.31,0-12.46,0-3.16,0-4.63,1.38-4.91,4.51-.07.82.06,1.67,0,2.49-.15,1.39.14,2.12,1.81,2,2.65-.14,5.31,0,8,0,1.17,0,1.69.93,1.14,1.49-1.93,2,.21,4.93-1.9,6.72.72,2.66-.77,5-1.08,7.55a51.23,51.23,0,0,1-1.74,9.71c-.52,1.59,0,3.53.1,5.31l4.39.23c.33,0,.66,0,1,0,1,0,2.25.29,2.86-.21s.18-1.84.51-2.71c1.79-4.75,1.48-9.9,2.89-14.74.79-2.72.26-5.87,1.27-8.46.61-1.56.07-3.68,1.11-4.41s3.13-.4,4.75-.46,3,0,4.49,0a2.29,2.29,0,0,0,2.45-2.39c.1-1.66-.06-3.33,0-5,.09-1.33-.42-1.67-1.69-1.65C146.31,77.33,142,77.28,137.67,77.28Zm-99-47c-2.66,0-5.33,0-8,0-1.09,0-1.33.42-1.42,1.44s-.77,1.7-.92,2.59c-.61,3.49-.19,4,3.26,4,1.5,0,3-.08,4.49.05a1.65,1.65,0,0,1,1.17,1c.17,1,.44,2.26,0,2.93-1,1.49-.77,3.06-1,4.63s-.66,3.38-1,5.08a56,56,0,0,0-1,6.08,11.86,11.86,0,0,1-6.53,10.19A21.41,21.41,0,0,1,24,70c-2.1.57-2.13,1.22-.81,2.88.8,1,.39,3.29,1.25,3.83,1.22.76,3.11.56,4.72.53.7,0,1.39-.62,2.08-.95,5.22-2.46,7.63-4.74,10-9.84,2.63-5.63,2.73-11.86,4-17.81.56-2.63.35-5.52,1.35-7.93.62-1.5.39-2.83.69-4.21s.78-2.7,1-4.08c.27-2,.13-2.09-2.13-2.11C43.63,30.26,41.13,30.28,38.64,30.28Zm98.35,0c-4.66,0-9.32,0-14,0a2.73,2.73,0,0,0-1.7.57c-.79.72-1.57,6.63-.89,6.91a11.23,11.23,0,0,0,3.79.47c2,.07,4,0,6,0,1.24,0,1.25.79.92,1.64-.17.43-.82.79-.79,1.15.42,5.21-2.37,10-2.1,15.15.06,1.17-.65,2.37-.93,3.58a28.86,28.86,0,0,1-.61,3.74c-1.83,5.18-.41,6.86,5.05,6.74h1c1.61,0,2.15-1,2.56-2.33a47.48,47.48,0,0,0,1.75-9.68c.42-5,2.33-9.62,2.34-14.63,0-1.6,1.11-3.24,1-5,1.62-.12,3.23-.28,4.85-.34s3,0,4.49,0,2.3-1,2.49-2.37c.16-1.12-.24-2.61.36-3.31,1.23-1.46-.29-1.81-.76-2.11a5,5,0,0,0-2.39-.2C145.31,30.28,141.15,30.28,137,30.28Z" class="cls-1"/><path d="M61.28,153.28l6-2c.18,1.67,1.91,1.21,2.22.93,2-1.81,4.57-.84,6.82-1.69a41.8,41.8,0,0,1,7.45-1.46c2.8-.47,6-.3,8.53-2.2a3.76,3.76,0,0,1,2.73-.51c2.38.52,4.48-.6,6.54-1.22,1.2-.36,2.37-1,3.62-.8,2.51.37,4.63-.93,6.93-1.4.6-.12,1.18-.66,1.73-.6,4.57.44,8.5-2.88,13.09-2.19,3.56-1.76,7.58-1.7,11.31-2.82a14.56,14.56,0,0,1,4.57-.94,13.65,13.65,0,0,0,5.08-1.08,18.57,18.57,0,0,1,5.07-1.09c2.47-.14,4.9-1,7.36-1.44,4.64-.87,9.07-3,14-2.47h1c.68,4.75-.32,9.47-1.19,14C173,150.15,171,156,166.55,160.54c-.83.84-1.52,1.83-2.27,2.75a2.24,2.24,0,0,0,0-.48c-2.78-.53-5.42-1.55-8.35-1.6-4.35-.07-8.68.44-13.1-.76-3.32-.9-7-.3-10.54-1s-7.57.71-10.86-.39c-3.59-1.19-7.46.41-10.72-1.77-6.56.69-13-1.1-19.53-1-5.21.09-10.29-1.69-15.55-1.06-.51.06-1.11-.73-1.65-.72-1.92,0-4.06-1.38-5.7.76-2.05,0-3.83-1.7-6-1h-1Z" class="cls-2"/><path d="M1.28,125.28c4.36,1.11,7.88,4.31,12.41,5,1.16,2,3.6,1.8,5.26,3,3.94,2.77,9.09,3.32,12.64,6.83,7,1.64,12.54,6.57,19.44,8.55,2.32.66,4.22,2.57,6.84,2.82.53,0,.95,1.19,1.42,1.83-1.33,0-2.94.48-3.94-.1-2.19-1.25-4.44-1-6.63-.83s-4.41-1.07-6.59-1c-5.41.18-10.65-1.84-16.08-1.08-.33,0-.79.15-1,0-2.17-1.85-4.74-.62-7.1-1s-4.71-.74-7.09-1c-1.49-.15-3,.1-4.49-.06a33.3,33.3,0,0,1-4.09-1c.17-1.94-1.38-3.46-1.11-5.56.21-1.61-.71-3.34-.85-5-.17-2,0-4,0-6v-5.46Z" class="cls-3"/><path d="M68.28,155.28c1.63-2.14,3.78-.73,5.7-.76.55,0,1.14.78,1.65.72,5.26-.64,10.34,1.14,15.55,1.06,6.53-.11,13,1.68,19.53,1,3.26,2.18,7.12.57,10.72,1.77,3.29,1.09,7.35-.32,10.86.39s7.23.11,10.54,1c4.41,1.2,8.74.69,13.1.76,2.93,0,5.57,1.06,8.35,1.6a2.24,2.24,0,0,1,0,.48c-3.22,2.79-6.32,5.74-10.19,7.66a6.77,6.77,0,0,1-1.81.34,29.5,29.5,0,0,1-6.1-.85c-4.86-1.13-9.81-1.91-14.71-3-6.88-1.47-13.81-2.83-20.74-4.11-5.72-1.06-11.45-2.07-17.18-3.08-2.18-2.16-5.24-.22-7.76-1.78-1.74-1.07-4.26-.88-6.44-1.22-2.35-.36-4.71-.67-7.06-1A5.35,5.35,0,0,0,68.28,155.28Z" class="cls-4"/><path d="M61.28,153.28v1c-1.18,3.68-2.56,7.3-3.46,11-.73,3-3.36,5.51-2.54,9h-1c-3.92,0-7.83,0-11.75,0-.42,0-.83.62-1.25,1-1.65,0-3.49.48-4.9-.1C33,173.81,29.4,174,26,172.7a63.78,63.78,0,0,1-5.9-2.46c-.76-.39-1.25-1.29-1.87-2,1.76-.53,3.2-1.67,5.09-2.12,4-.95,7.77-2.87,11.77-3.81,7-1.66,13.35-5.76,20.75-6.18.44-1.86,3.1.25,3.39-1.89l1-1Z" class="cls-5"/><path d="M60.28,153.28l-1,1a30.41,30.41,0,0,0-8.55.88c-2.68.8-5.64-.2-8.53,1-1.84.75-4.25,0-6.39.18s-4,.72-6,.94c-2.2.23-4.53-.51-6.53,1-5.06-.7-9.93,1.27-15,1-3.3-3.35-4.94-7.53-6-12a33.3,33.3,0,0,0,4.09,1c1.48.17,3-.08,4.49.06,2.37.23,4.73.63,7.09,1s4.93-.88,7.1,1c.19.16.65.06,1,0,5.43-.76,10.67,1.26,16.08,1.08,2.18-.07,4.24,1.19,6.59,1s4.45-.42,6.63.83c1,.57,2.61.1,3.94.1Z" class="cls-6"/><path d="M72.28,156.28c2.35.33,4.71.65,7.06,1,2.18.33,4.7.15,6.44,1.22,2.53,1.55,5.58-.39,7.76,1.78,5.73,1,11.46,2,17.18,3.08,6.93,1.28,13.86,2.64,20.74,4.11,4.9,1,9.85,1.82,14.71,3a29.5,29.5,0,0,0,6.1.85c-.65,1.9-3.06.4-3.87,2-5.38.65-10.59,2.64-16.13,2-.4-.33-.77-.91-1.2-1a37.31,37.31,0,0,0-3.8,0c-1.76-1.78-4.26-1.38-6.25-2.17-2.16-.86-4.6-1.18-6.47-2.29-2.26-1.34-4.68-.9-6.77-1.7a149.44,149.44,0,0,0-16.62-5.39c-4-1-7.65-3.51-12-3.45C77.26,157.43,73.77,159.16,72.28,156.28Z" class="cls-7"/><path d="M8.28,159.28c5,.27,9.91-1.7,15-1,2-1.53,4.33-.79,6.53-1,2-.22,4-.78,6-.94s4.54.57,6.39-.18c2.89-1.18,5.85-.18,8.53-1a30.41,30.41,0,0,1,8.55-.88c-.29,2.14-2.94,0-3.39,1.89-7.4.42-13.7,4.53-20.75,6.18-4,.94-7.77,2.86-11.77,3.81-1.9.45-3.33,1.59-5.09,2.12a4.77,4.77,0,0,1-1.79-.35,30.81,30.81,0,0,1-4.41-3.43,40.78,40.78,0,0,1-3.45-4.39A3.53,3.53,0,0,1,8.28,159.28Z" class="cls-8"/><path d="M132.28.28c-.26.33-.5.92-.8,1a24.37,24.37,0,0,1-3,0q-40.71,0-81.42-.07c-1.21,0-3,1.21-3.79-.93Z" class="cls-9"/><path d="M1.28,125.28h-1q0-41,0-82c.33.26.93.5,1,.79.1,1.32,0,2.65,0,4Z" class="cls-9"/><path d="M174.28,108.28c0-20.57,0-41.15.05-61.72,0-1.07-1-2.67.95-3.28v65Z" class="cls-10"/><path d="M127.28,174.28a37.31,37.31,0,0,1,3.8,0c.43,0,.8.62,1.2,1h-50v-1Z" class="cls-11"/><path d="M82.28,174.28v1h-28v-1h28Z" class="cls-12"/><path d="M174.28,108.28h1v22h-1Z" class="cls-13"/><path d="M54.28,174.28v1h-13c.42-.33.83-.95,1.25-1C46.45,174.25,50.37,174.28,54.28,174.28Z" class="cls-14"/><path d="M174.28,108.28v22c-4.89-.53-9.31,1.6-14,2.47-2.46.46-4.89,1.3-7.36,1.44a18.57,18.57,0,0,0-5.07,1.09,13.65,13.65,0,0,1-5.08,1.08,14.56,14.56,0,0,0-4.57.94c-3.73,1.13-7.74,1.07-11.31,2.82-4.59-.69-8.52,2.64-13.09,2.19-.55-.05-1.13.48-1.73.6-2.31.46-4.42,1.76-6.93,1.4-1.25-.18-2.42.44-3.62.8-2.06.62-4.16,1.74-6.54,1.22a3.76,3.76,0,0,0-2.73.51c-2.56,1.9-5.73,1.73-8.53,2.2a41.8,41.8,0,0,0-7.45,1.46c-2.25.85-4.85-.12-6.82,1.69-.31.28-2,.75-2.22-.93,2.2-.7,4.47-1.26,6.6-2.14,4.82-2,9.51-4.37,14.38-6.27s9.52-3.51,14.17-5.57,9.48-3.61,14.1-5.73a134.91,134.91,0,0,1,12.8-5.23c4.09-1.39,8-3.25,12-4.7,4.78-1.71,9.63-3.41,14.16-5.55s9.58-3.41,14.09-5.79C171.12,109.52,172.73,109,174.28,108.28Z" class="cls-15"/><path d="M82.28,174.28h-1c-5-5.15-10-10.32-15-15.44a10.79,10.79,0,0,0-1.92-1c.81-2.12-1.8-2.16-2.1-3.54,2.17-.7,3.95,1,6,1a5.35,5.35,0,0,1,4,1c1.49,2.87,5,1.14,6.9,3,4.34-.06,7.94,2.43,12,3.45a149.44,149.44,0,0,1,16.62,5.39c2.09.8,4.51.36,6.77,1.7,1.87,1.11,4.31,1.43,6.47,2.29,2,.8,4.5.39,6.25,2.17Z" class="cls-16"/><path d="M62.28,154.28c.3,1.38,2.91,1.42,2.1,3.54a10.79,10.79,0,0,1,1.92,1c5,5.12,10,10.28,15,15.44h-26c-.82-3.44,1.81-5.93,2.54-9,.9-3.74,2.29-7.37,3.46-11Z" class="cls-17"/><path d="M103.55,100.28h-1c-3.87,0-3.86,0-2.25-3.53,1.34-2.92,2.61-5.86,4-8.74.31-.64,1-1.09,1.57-1.62.35.68.73,1.35,1,2.05a3.81,3.81,0,0,1,.35,1.34c.1,2.7-.07,5.36.91,8,.76,2.07.18,2.42-2.15,2.46C105.21,100.3,104.38,100.28,103.55,100.28Z" class="cls-18"/></g></g></svg>