<svg xmlns="http://www.w3.org/2000/svg" viewBox="0 0 377.78 91"><defs><style>.cls-1{fill:#be2f2c}.cls-2{fill:#be2e2c}.cls-3{fill:#bf302d}.cls-4{fill:#bf332e}.cls-5{fill:#bf312d}.cls-6{fill:#595858}.cls-7{fill:#585757}.cls-8{fill:#585858}</style></defs><title>logo-skip-the-dishes</title><g id="Layer_2" data-name="Layer 2"><g id="logos_brands" data-name="logos brands"><path d="M30.93,0c1,.24,1.92.51,2.88.71,9.57,2,16.32,8.75,18,18.15a33.33,33.33,0,0,1,.48,5.86c0,2.93-1.66,4.48-4.58,4.53-1.93,0-3.85,0-5.78,0-2.73,0-4-1.46-4.17-4.18A19.33,19.33,0,0,0,36.9,20,8.39,8.39,0,0,0,31,14.48c-4.3-1.25-8.47-1.08-12.18,1.83-4.27,3.34-5.24,12.8.92,17.2A56.69,56.69,0,0,0,28,38c4.44,2.16,9.11,3.89,13.39,6.31,7.88,4.45,11.5,11.62,11.9,20.52.24,5.24-.51,10.28-3.29,14.84a22.28,22.28,0,0,1-14,10,33.91,33.91,0,0,1-20.2-.49C6.68,86,1.57,79.51.29,70A4,4,0,0,0,0,69.17V64.92a1.63,1.63,0,0,0,.3-.43,3.78,3.78,0,0,1,3.54-3,56.43,56.43,0,0,1,7.54,0c2.06.15,3.09,1.46,3.27,3.54,0,.47,0,.94,0,1.41.13,4,1.55,7.28,5.27,9.21a15.44,15.44,0,0,0,9.43,1.27c8.07-1.09,12-9.4,7.91-16.46a15.29,15.29,0,0,0-7.28-6c-4.82-2.2-9.76-4.13-14.53-6.43-8.3-4-13.42-10.43-14.39-19.8-.57-5.56-.19-11,2.47-16.07C6.93,5.8,12.43,2.29,19.33.71,20.21.51,21.08.24,22,0Z" class="cls-1"/><path d="M78.66,40.17c1.44-2.06,2.69-3.85,3.93-5.64Q92.91,19.59,103.21,4.65a7,7,0,0,1,6.26-3.3c2.16,0,4.33,0,6.49,0A3.13,3.13,0,0,1,119.21,3a3.75,3.75,0,0,1-.31,4c-2.27,3.11-4.59,6.18-6.9,9.26L95.62,38.21c-.14.19-.26.39-.41.61L106.47,59.9q6.38,11.95,12.77,23.89c1.48,2.76.17,6-3.46,5.77-2.27-.13-4.56,0-6.84-.08a5.39,5.39,0,0,1-5-3.22Q98.48,75.44,93,64.62L86.52,51.81c-.12-.24-.29-.46-.49-.77-2,2.6-3.79,5.19-5.8,7.65a7.11,7.11,0,0,0-1.61,4.94c.1,6.84,0,13.69,0,20.54,0,.47,0,.95,0,1.42a3.8,3.8,0,0,1-3.81,3.87,66,66,0,0,1-6.84,0,3.81,3.81,0,0,1-3.75-3.69,21.11,21.11,0,0,1-.11-2.24q0-38.07,0-76.13c0-4.81,1.21-6,6-6,1.38,0,2.76,0,4.13,0,2.92.1,4.39,1.6,4.43,4.52s0,5.82,0,8.73q0,12.1,0,24.2Z" class="cls-1"/><path d="M174.71,56.19c0,6.48,0,12.8,0,19.13,0,3.27,0,6.53,0,9.8,0,2.72-1.44,4.27-4.17,4.38-2.08.08-4.17.08-6.25,0a3.9,3.9,0,0,1-4-4c0-.43,0-.86,0-1.3q0-38.77,0-77.54A13.18,13.18,0,0,1,160.32,5a3.91,3.91,0,0,1,3.49-3.59A7.57,7.57,0,0,1,165,1.36c8.61,0,17.23-.16,25.84.12,7.16.23,13.46,2.72,17.81,8.83a22.53,22.53,0,0,1,4,11.31,63.35,63.35,0,0,1-.27,16.11C210.49,48.81,203,55,192.15,55.93c-5.08.41-10.22.19-15.33.26Zm.06-14c4.88,0,9.73.26,14.53-.07,5.17-.36,7.76-2.8,8.65-7.62a31.13,31.13,0,0,0,0-11.6c-.92-4.72-3.71-7.29-8.48-7.55s-9.66-.17-14.49-.22c-.06,0-.12.09-.18.13Z" class="cls-1"/><path d="M145.73,45.5q0,19.06,0,38.13c0,4.75-1.16,5.91-5.94,5.9-1.53,0-3.07,0-4.6-.06a3.88,3.88,0,0,1-3.93-3.89c0-.51-.05-1-.05-1.53q0-38.6,0-77.2a15.17,15.17,0,0,1,.07-1.77A3.76,3.76,0,0,1,135,1.45a62.9,62.9,0,0,1,7.07,0,3.79,3.79,0,0,1,3.63,3.8c0,.67.07,1.34.07,2Q145.73,26.38,145.73,45.5Z" class="cls-2"/><path d="M225,69.76q0-8.62,0-17.23c0-2.16.55-2.71,2.74-2.69,3.85,0,7.73-.14,11.56.19,6.35.55,10,4.78,10.08,11.17,0,5.63,0,11.25,0,16.88,0,7.45-4.32,11.81-11.77,11.88-3.42,0-6.85,0-10.27,0-1.7,0-2.34-.65-2.34-2.37Q225,78.67,225,69.76Zm6.69,13.82c2.23,0,4.35.1,6.46,0a4.51,4.51,0,0,0,4.4-4,12.25,12.25,0,0,0,.19-2.11q0-7.49,0-15a11.56,11.56,0,0,0-.27-2.57,4.16,4.16,0,0,0-2.65-3.22c-2.66-.94-5.4-.31-8.12-.52Z" class="cls-3"/><path d="M315,72.74H303.44v1.65q0,6.49,0,13c0,2-.57,2.59-2.6,2.59h-1.77c-1.63,0-2.29-.64-2.29-2.3q0-17.76,0-35.52c0-1.65.67-2.27,2.31-2.3.67,0,1.34,0,2,0,1.69,0,2.33.66,2.34,2.39,0,4.29,0,8.57,0,12.86V66.3H315V62.37c0-2.83.09-5.67,0-8.5-.19-4.53.94-4.21,5.2-3.91.52,0,1.07.89,1.42,1.48a3,3,0,0,1,.09,1.39q0,17.11,0,34.22c0,2.42-.48,2.9-2.9,2.9-3.63,0-3.79-.15-3.79-3.77C315,81.74,315,77.3,315,72.74Z" class="cls-4"/><path d="M286.8,62.56h-1.06c-1.48,0-2.17-.61-2.12-2.06.14-3.77-3.09-5.41-6.07-4.88a4.25,4.25,0,0,0-3.75,3.11c-.57,2.07-.4,4.16,1.45,5.44a48.42,48.42,0,0,0,5.89,3.13c1.43.73,2.94,1.32,4.32,2.13,4.84,2.84,6,8.16,5,12.69-1.07,5.12-5.09,8.2-10.76,8.47-3.95.19-7.6-.55-10.46-3.56a10.47,10.47,0,0,1-2.72-8,1.78,1.78,0,0,1,1.9-1.83c.94,0,1.89,0,2.83,0,1.3,0,1.81.56,1.86,1.89.07,1.9.56,3.62,2.41,4.53a6.62,6.62,0,0,0,6.34-.09c3-1.66,3-6.37-.1-8.42a37.07,37.07,0,0,0-4.83-2.4c-1.1-.52-2.24-1-3.33-1.49-4.89-2.34-7-6.3-6.75-11.62a10,10,0,0,1,7.68-9.81c5.28-1.57,10.94,0,13.75,3.85a10.81,10.81,0,0,1,2,6.89c0,1.42-.74,2-2.19,2.06C287.66,62.57,287.23,62.56,286.8,62.56Z" class="cls-5"/><path d="M356.91,77.15h1.18c1.44,0,2,.56,2.06,2,0,2,.62,3.7,2.55,4.53a6.47,6.47,0,0,0,6.53-.43c2.69-1.86,2.42-6.42-.58-8.22a65.39,65.39,0,0,0-6.9-3.26c-3.09-1.4-5.84-3.2-7.06-6.54-1.67-4.55-1.25-10.86,3.62-14.07s12.47-2.47,16.23,1.56a10.58,10.58,0,0,1,2.67,8.05,1.83,1.83,0,0,1-2,1.78c-.86,0-1.73,0-2.6,0-1.45,0-2-.53-2-2-.13-3.55-2.59-5.53-6.07-5a4.3,4.3,0,0,0-3.87,3.28c-.54,2.07-.26,4.08,1.52,5.31a62.38,62.38,0,0,0,5.9,3.12c2.09,1.14,4.4,2.07,6.14,3.61,3.7,3.27,4.12,7.67,2.93,12.16s-4.61,6.58-9,7.28c-4.07.65-7.95.16-11.22-2.61a10.2,10.2,0,0,1-3.5-8.74,1.8,1.8,0,0,1,2-1.87C356,77.14,356.44,77.16,356.91,77.15Z" class="cls-5"/><path d="M335,83.62h1.21c3.89,0,7.79,0,11.68,0a5.83,5.83,0,0,1,1.51.17c1.3.36,1.66,1.54,1.36,4.3a1.83,1.83,0,0,1-2,1.84q-9.26,0-18.53,0a1.8,1.8,0,0,1-2-1.88,9.3,9.3,0,0,1,0-.94q0-17.23,0-34.46c0-2.32.52-2.83,2.86-2.83h17.11c2,0,2.59.59,2.61,2.61,0,3.46-.22,3.72-3.63,3.72H335v10.2h7.44c1,0,2,0,2.95,0,1.55,0,2.23.68,2.27,2.24.08,3.25.15,4.24-3.85,4.1-2.9-.1-5.81,0-8.78,0Z" class="cls-4"/><path d="M247.87,12.77c3.42-2.59,7.34-2.86,10.38-.76,2.7,1.87,3.44,4.72,3.48,7.74.09,6.49,0,13,0,19.46,0,1.64-.68,2.29-2.29,2.31h-1.65c-1.78,0-2.37-.6-2.37-2.42q0-8.79,0-17.58a9.08,9.08,0,0,0-.09-1.41c-.43-2.7-1.66-3.76-4.15-3.59-2,.13-3.3,1.72-3.31,4.14,0,6.13,0,12.27,0,18.4,0,.46.06,1.07-.2,1.36A3.75,3.75,0,0,1,246,41.48a7.33,7.33,0,0,1-2,0c-1.79,0-2.42-.59-2.42-2.41q0-17.93,0-35.86c0-1.91.59-2.45,2.48-2.48,3.65,0,3.81.11,3.81,3.71C247.87,7.19,247.87,9.9,247.87,12.77Z" class="cls-6"/><path d="M272.17,27.82c.09,1.89,0,3.63.29,5.32a3.66,3.66,0,0,0,5.74,2.56,2.86,2.86,0,0,0,1.36-2.46c.08-1.43.64-1.94,2.07-2,.51,0,1,0,1.53,0,2.22,0,3,.9,2.65,3.1-.62,4.13-2.93,6.57-7,7.5a12.35,12.35,0,0,1-6.39-.24,8.69,8.69,0,0,1-6.27-8.24c-.13-4.67-.16-9.36,0-14a8.89,8.89,0,0,1,9.2-8.65,15.64,15.64,0,0,1,5.29.84c3.61,1.38,5.18,4.39,5.46,8.1.14,1.92.07,3.85.06,5.78s-.62,2.39-2.43,2.41c-3.34,0-6.68,0-10,0Zm-.09-4.75h7.06c.19,0,.38,0,.78-.09a37.12,37.12,0,0,0-.39-4,3.12,3.12,0,0,0-3.15-2.5c-1.92-.07-3.25.63-3.68,2.26A35.73,35.73,0,0,0,272.08,23.07Z" class="cls-7"/><path d="M231.26,17.17c0,1.47,0,2.8,0,4.13,0,3.81,0,7.63,0,11.44,0,2.43.89,3.24,3.34,3.11.27,0,.55-.06.82-.09,2.28-.27,2.79.19,2.82,2.54,0,2.65-.51,3.25-3.16,3.41-.86.05-1.73,0-2.59,0-4.72-.18-7.31-2.75-7.49-7.46-.06-1.65,0-3.3,0-5q0-11.44,0-22.89c0-2,.5-2.52,2.49-2.55,3.59-.05,3.79.15,3.79,3.75v3.6h4.14c1,0,2.35-.09,2.58,1.11a11.16,11.16,0,0,1-.23,4.11c-.07.35-1.11.66-1.72.7C234.51,17.24,233,17.17,231.26,17.17Z" class="cls-8"/><path d="M255,69.85q0-8.73,0-17.45c0-2,.54-2.56,2.61-2.57.63,0,1.26,0,1.89,0a1.9,1.9,0,0,1,2.11,2c0,.43,0,.86,0,1.3q0,16.81,0,33.61c0,.43,0,.87,0,1.29a1.82,1.82,0,0,1-2,1.9c-.78,0-1.57,0-2.36,0-1.67,0-2.27-.62-2.28-2.29Q255,78.76,255,69.85Z" class="cls-3"/></g></g></svg>