<svg xmlns="http://www.w3.org/2000/svg" viewBox="0 0 316.52 102.9"><defs><style>.cls-1{fill:#fff;}.cls-2{fill:#c7122e;}</style></defs><title>logo-budweiser</title><g id="Layer_2" data-name="Layer 2"><g id="logos"><polygon class="cls-1" points="0 97.84 62.56 1.24 145.18 33.03 316.52 0 250.04 102.9 123.43 78.45 0 97.84"/><path class="cls-2" d="M143.45,61.76c-.61,4.55,1.45,6.38,5.85,5A18.38,18.38,0,0,0,154,64.17a41.62,41.62,0,0,0,3.8-3.38c-.61,5.8,2.45,8.3,7.47,5.39,4.52-2.62,8.2-6.68,12.55-10.35l2.77,2c-.18.75-.4,1.54-.57,2.34-.94,4.36,1.15,6.94,5.66,6.95s8.22-2.36,11.57-5.21c1-.88,2-1.83,3.13-2.85a3.36,3.36,0,0,1,0,1.08c-.91,2.09-2,4.71.29,6,1.69.91,4.43.54,6.47,0s3.56-2.16,5.33-3.29l.51.52c-1,3.22,1.46,3.62,3.46,3.9,4.21.58,7.91-1,11.16-3.56,2.64-2.06,5.13-4.32,8-6.74a12.28,12.28,0,0,0-.15,1.43c.08,2.4-.73,5.86.51,6.94,1.67,1.45,5.4,2.13,7.42,1.24a38.58,38.58,0,0,0,10.48-7.25c3.14-2.93,5.53-6.64,8.38-9.9a23.26,23.26,0,0,1,3.45-2.73l1.18,1L255.47,66.41h5.09l13.62-16.28.23.26c.47,1.79.47,4.72,1.49,5.13,2,.81,4.62.24,7,.24l.16-1,1.37,2.54L278.66,59l-28,43.89H250c-7.82-1.68-15.62-3.46-23.46-5-32.56-6.5-65.09-13.18-97.75-19.18-5.55-1-11.7.76-17.5,1.67Q56.63,89,2,97.73c-.5.08-1,.06-2,.1L32.73,47.27l-7.57-5.44.59-.91c7.55,5.61,15.35,4,23.75.73-.71,1.19-1.18,2-1.7,2.81C43.68,50.73,39.5,57,35.44,63.3c-1.21,1.88-2.5,4.47-.22,6,1.76,1.17,4.91,1.92,6.61,1.11,3.11-1.47,5.61-4.24,7.84-6,1.29,1.64,2.5,4.41,4.59,5.53s5.34,1.24,8,1c8-.62,14.65-4.52,20.72-9.49,1.39-1.13,2.72-2.34,4.83-4.17C87,59,86.29,59.93,86.16,60.91c-.21,1.67-.72,4.1.13,4.9a5.74,5.74,0,0,0,5.1.83c3-1.27,5.76-3.34,8.06-4.75.35,1.24.37,4,1.45,4.48a7.71,7.71,0,0,0,5.89-.26c2.6-1.21,4.81-3.27,7.11-4.92.22,5.94,3.59,7.78,9,4.55a47.16,47.16,0,0,0,5.61-4.45c.54,1.63.71,4.58,1.87,5,1.85.73,4.58.32,6.51-.56,2.23-1,4-3,6-4.63Z"/><path class="cls-2" d="M229.24,59.37l.92-12.59,2.24-2.65c-1.83-2.66-3.22-2-4.9-.22-5.72,6.18-11.47,12.33-17.38,18.33-1.18,1.2-3.09,1.7-4.66,2.52l-1.2-1.12,10.47-17.95h-5.37c-6,7-10.44,15.51-19.84,18.67-1.06.36-2.35,0-4.18,0l1-6c3.17-1.28,6-2,8.37-3.5a18.18,18.18,0,0,0,5.48-5.52c1.73-2.78.16-5-3.16-5-4.2,0-7.55,2-10.33,4.87-2,2-3.62,4.37-5.66,6.86l-3-2.22L181.88,45c-3.72-1.21-5.34-.08-5.66,4.3-.44,6-4,9.84-8.19,13.36-1.22,1-3,1.36-4.58,2l-1.18-1.13,10.13-17.92h-5.47l.61.72c-5.4,5.87-10.77,11.76-16.24,17.57-.44.47-1.5.35-2.28.51l-.95-.83,11.1-17.91h-5.49c-5.79,6.87-10.28,14.82-18.42,19l-1.1-.68a17.68,17.68,0,0,1,1.2-3.91c6.24-10.68,12.56-21.31,19.32-32.73l1.53,3.82L316.52,0c-.59,1.14-.88,1.87-1.3,2.52-10.67,16.54-21.31,33.1-32.08,49.57-.86,1.31-2.55,2.08-4.45,3.57-1.42-5.12,1-7.23,3.72-9.13-2.73-3.38-4.39-2.6-13.2,6.25a9,9,0,0,0,.75-2.14c0-1.67.46-4.51-.17-4.79a7,7,0,0,0-5.5,0c-2.22,1.25-3.94,3.44-5.74,5.35-3.47,3.69-6.66,7.66-10.32,11.15-1.92,1.83-4.52,3.21-8,1.45L241,59c4.28-2.24,8-3.83,11.25-6,2.26-1.5,4.55-4,2.85-6.94s-5-1.85-7.44-.75a31.84,31.84,0,0,0-7,4.75c-3.72,3.12-7.25,6.47-10.86,9.73ZM215.31,38.9l2,1.21c1.35-1.12,3-2,3.91-3.43.42-.67-.35-2.92-1.14-3.3a3.67,3.67,0,0,0-3.51.85C215.68,35.48,215.68,37.31,215.31,38.9Z"/><path class="cls-2" d="M78.28,62.09a46.7,46.7,0,0,0,2.62-5.74c1.44-4.66.42-7.45-3.57-10.8a61.46,61.46,0,0,0,7.38-3.75c5.08-3.47,7.19-10.25,4.65-14S79.8,23.5,74.62,27a73.12,73.12,0,0,0-6.69,5.79L64.56,31l3.09-4.83-8.87,1.23.11,1.13c-1.91-.57-3.8-1.2-5.73-1.68s-3.9-.81-6.35-1.3L62.56,1.24,145.18,33,137,46.59c-3.32-3.21-7.07-2.6-10.26-.63a50.63,50.63,0,0,0-8.57,7.38c-2.92,2.89-5.48,6.16-8.4,9.06-1.07,1.06-2.72,1.53-4.11,2.27l-1.22-1.12,10.75-17.9h-5.78c-5.44,6.83-8.8,15.56-17.66,18.87l-1.27-.89L101.7,45.58H95.85l.56.83L78.74,62.64Z"/><path class="cls-2" d="M57.7,52.37,69,35.44l4.83,2.92.66-.91-4.36-3.76c2-1.77,3.82-4,6.14-5.13,1.81-.88,4.28-.41,6.45-.54.09,2.1.82,4.43.16,6.26-2.35,6.52-7.38,9.43-14.26,9.42a17.21,17.21,0,0,0-4,1l.2,1.12c1.11,0,2.23,0,3.34,0C73,45.85,75,48.18,74.37,53c-1.08,8-7.73,15-15.15,15.77-5.55.61-8.23-2.76-6.27-8,1.59-4.28,5-6.37,9.27-7.3.94-.21,1.9-.35,2.85-.52l-.25-1.52-6.64,1.33Z"/><path class="cls-2" d="M57.61,30.25C52.81,38.81,45.83,43,35.73,42.7L43.89,30c-8.22-1.75-14.71,2.24-15.24,9.08a5.43,5.43,0,0,1,1.25-8,24.18,24.18,0,0,1,8.64-3.53C44.13,26.45,51.89,27.81,57.61,30.25Z"/><path class="cls-2" d="M63.67,32.62l3.62,1.8c-8.68,11.47-14.88,24.51-26.1,35C40.87,65.34,57.12,39.83,63.67,32.62Z"/><path class="cls-2" d="M120,64c-.07-5.37,7-15.76,11.71-17.19,1.14-.34,2.53.19,3.93.33C133.69,54.46,124.45,64.25,120,64Z"/><path class="cls-2" d="M212.44,62.75l13.75-13c-1.19,4.21-2,8.36-3.56,12.22-1.69,4.23-4.07,4.5-7.49,1.57-.46-.4-1.44-.19-2.18-.26Z"/><path class="cls-2" d="M252.65,45.92c-.31,5-4.5,9-10.09,9.86C245.46,51.87,247,47.2,252.65,45.92Z"/><path class="cls-2" d="M187.72,55.88c2.94-4.1,4.58-8.67,9.79-9.9C198.21,50.38,194,54.72,187.72,55.88Z"/><path class="cls-2" d="M142.88,61.16l.48-1.12.67.54-.59,1.18Z"/><path class="cls-2" d="M274.17,50.12l.24-.47.21.06-.22.67Z"/><path class="cls-2" d="M58.19,52.79l-.94.67.46-1.09Z"/><path class="cls-2" d="M229.78,59.76l-.19.85-.55-.47.2-.77Z"/><path class="cls-2" d="M78.74,62.64l-1.35.71.89-1.26Z"/></g></g></svg>