<svg xmlns="http://www.w3.org/2000/svg" viewBox="0 0 223.81 231.54"><defs><style>.cls-1{fill:none;}</style></defs><title>LBW2019-bnw</title><g id="Layer_2" data-name="Layer 2"><g id="Layer_6" data-name="Layer 6"><path class="cls-1" d="M101.66,98h5.61a.7.7,0,0,0,.65-.43,3.29,3.29,0,0,0,.2-1.18,3,3,0,0,0-.21-1.18.69.69,0,0,0-.64-.43h-5.61a.7.7,0,0,0-.64.43,3.42,3.42,0,0,0,0,2.36A.7.7,0,0,0,101.66,98Z"/><path class="cls-1" d="M122.66,98h5.61a.7.7,0,0,0,.64-.43,3.29,3.29,0,0,0,.2-1.18,3,3,0,0,0-.21-1.18.68.68,0,0,0-.63-.43h-5.61a.7.7,0,0,0-.65.43,3.24,3.24,0,0,0-.2,1.18,3.29,3.29,0,0,0,.2,1.18A.7.7,0,0,0,122.66,98Z"/><path class="cls-1" d="M80.67,72.4h5.61a.69.69,0,0,0,.64-.42,3.09,3.09,0,0,0,.21-1.19,3,3,0,0,0-.21-1.18.7.7,0,0,0-.64-.43H80.67a.69.69,0,0,0-.64.43,3.07,3.07,0,0,0-.21,1.18A3,3,0,0,0,80,72,.69.69,0,0,0,80.67,72.4Z"/><path class="cls-1" d="M91.22,85.49h5.6a.71.71,0,0,0,.65-.44,3.39,3.39,0,0,0,.2-1.18,3.07,3.07,0,0,0-.21-1.18.69.69,0,0,0-.64-.43h-5.6a.69.69,0,0,0-.64.43,2.93,2.93,0,0,0-.22,1.18,3,3,0,0,0,.22,1.19A.69.69,0,0,0,91.22,85.49Z"/><path class="cls-1" d="M112.2,85.49h5.61a.71.71,0,0,0,.65-.44,3.58,3.58,0,0,0,0-2.36.7.7,0,0,0-.64-.43H112.2a.7.7,0,0,0-.64.43,3.24,3.24,0,0,0-.2,1.18,3.31,3.31,0,0,0,.2,1.19A.7.7,0,0,0,112.2,85.49Z"/><path class="cls-1" d="M101.66,72.4h5.61a.7.7,0,0,0,.65-.43,3.29,3.29,0,0,0,.2-1.18,3.34,3.34,0,0,0-.2-1.18.7.7,0,0,0-.65-.43h-5.61a.7.7,0,0,0-.64.43A3.42,3.42,0,0,0,101,72,.7.7,0,0,0,101.66,72.4Z"/><path class="cls-1" d="M122.66,72.4h5.61a.7.7,0,0,0,.64-.43,3.29,3.29,0,0,0,.2-1.18,3.34,3.34,0,0,0-.2-1.18.7.7,0,0,0-.64-.43h-5.61a.7.7,0,0,0-.65.43,3.34,3.34,0,0,0-.2,1.18A3.29,3.29,0,0,0,122,72,.7.7,0,0,0,122.66,72.4Z"/><path class="cls-1" d="M64.64,22.43l1.76-1.76-.07-.07a1.34,1.34,0,0,0-.91-.45,1.2,1.2,0,0,0-.89.4,1.24,1.24,0,0,0-.4.9,1.29,1.29,0,0,0,.44.91Z"/><path class="cls-1" d="M49.21,85.49h5.61a.71.71,0,0,0,.64-.44,3.42,3.42,0,0,0,0-2.36.7.7,0,0,0-.64-.43H49.21a.71.71,0,0,0-.65.43,3.58,3.58,0,0,0,0,2.36A.72.72,0,0,0,49.21,85.49Z"/><path class="cls-1" d="M59.77,98h5.5a.7.7,0,0,0,.64-.43,3.42,3.42,0,0,0,0-2.36.7.7,0,0,0-.64-.43h-5.5a.7.7,0,0,0-.64.43,3.23,3.23,0,0,0-.21,1.18,3,3,0,0,0,.21,1.18A.7.7,0,0,0,59.77,98Z"/><path class="cls-1" d="M117.87,46.83c-.17,1.36,1,2.2,2.54,2.19,2.74,0,4.93-1.79,6.48-3.92l.06.06a7.71,7.71,0,0,0-.5,1.83,1.81,1.81,0,0,0,2,2,5.86,5.86,0,0,0,3.44-1.27h0a1.69,1.69,0,0,1-.1-.84s0-.07,0-.11a2.11,2.11,0,0,1-1,.43c-.54,0-.55-.54-.51-.87a22.15,22.15,0,0,1,1.64-4.43l2.08-4-1.85-.12c-.51,0-1.73-.15-1.73-.15l-1,1.8c-.94,1.81-4,7.8-6.82,7.8-.59,0-1-.23-.91-.73A48,48,0,0,1,124,41.66a12,12,0,0,0,1.33-3.22c.13-1.09-.82-1.78-2.12-1.78a7.3,7.3,0,0,0-3.58,1.2,2.53,2.53,0,0,1,.29.7,4,4,0,0,1,.89-.24.47.47,0,0,1,.51.59c0,.44-2.11,4.57-2.11,4.57A12.4,12.4,0,0,0,117.87,46.83Z"/><path class="cls-1" d="M70.22,85.49h5.59a.7.7,0,0,0,.64-.44,3.42,3.42,0,0,0,0-2.36.7.7,0,0,0-.64-.43H70.22a.69.69,0,0,0-.64.43,3.45,3.45,0,0,0,0,2.37A.7.7,0,0,0,70.22,85.49Z"/><path class="cls-1" d="M80.67,98h5.61a.69.69,0,0,0,.64-.42,3.48,3.48,0,0,0,0-2.38.62.62,0,0,0-.25-.28.68.68,0,0,0-.41-.14H80.67a.7.7,0,0,0-.64.43,3,3,0,0,0-.21,1.18A3,3,0,0,0,80,97.57.69.69,0,0,0,80.67,98Z"/><path class="cls-1" d="M133.2,85.49h5.6a.71.71,0,0,0,.65-.44,3.12,3.12,0,0,0,.2-1.18,3.17,3.17,0,0,0-.2-1.18.7.7,0,0,0-.65-.43h-5.6a.71.71,0,0,0-.65.43,3.34,3.34,0,0,0-.2,1.18,3.13,3.13,0,0,0,.21,1.19A.69.69,0,0,0,133.2,85.49Z"/><path class="cls-1" d="M134.45,42.73c-.26.58-.61,1.33-.9,2.07a6,6,0,0,0-.64,2.1c-.15,1.25,1,2.16,2.51,2.16a6.71,6.71,0,0,0,4.42-2.1v0a4.21,4.21,0,0,1-.35-.81c-.23.22-.58.53-.78.68a2.29,2.29,0,0,1-1.26.51c-.65,0-.72-.46-.67-.88A15.76,15.76,0,0,1,138,43.21l3.09-6.87c3.09-.31,6.95-.74,9,.49-2.94.23-5.88,1.14-7.72,3.27a7.83,7.83,0,0,0-1.89,4.2,6,6,0,0,0,0,1.43c.39,2,2.21,3.34,5.06,3.34,4.79,0,9-3.78,9.43-7.52a4.22,4.22,0,0,0-.83-3.38,7.17,7.17,0,0,1,3.11,2.1,3.75,3.75,0,0,0,1.95-1.87c-.67-.66-3.37-1.44-6.51-1.6-1.85-1.26-5.08-2.31-10.73-2.45l1.29-2.86a4.83,4.83,0,0,0-3.49,0l-1.39,2.91c-3.74.17-8.17,1.18-16.26-.45l-.21.35c4.5,1.87,11.39,2.27,15.45,2.27Zm17-4c.35,1.77-1,5-2.6,7.13-2.27,3.15-5.87,3.23-4.59-1.26.2-.71,1.84-6.48,6.75-6.92A2.82,2.82,0,0,1,151.43,38.71Z"/><path class="cls-1" d="M84.67,38.51l-1-1c-1-1.06-2.19-2.16-1.81-3.77.34-1.41,2.26-2.24,3.81-2.24,2.77,0,3.46,2.21,2.82,4.21a.67.67,0,0,0,.23.07A2.14,2.14,0,0,0,90,31.93a6.81,6.81,0,0,0-4.68-1.6c-3.69,0-7,1.93-7.69,5-.52,2.15.56,3.46,2,4.9l1.08,1.12c1.14,1.16,2.11,2.19,1.7,3.94A3.81,3.81,0,0,1,78.52,48c-3.31,0-4.35-2.3-3.67-4.91-1.31,0-4,1.39-1.65,4.11a7.53,7.53,0,0,0,5.59,2c4,0,7.36-2,8.16-5.37C87.51,41.47,86.24,40,84.67,38.51Z"/><path class="cls-1" d="M55,51.42l2.31-.77L57,49.73a1.24,1.24,0,0,0-.5-.76,1.08,1.08,0,0,0-.83,0l-.35.12a1.05,1.05,0,0,0-.67.48,1.27,1.27,0,0,0,0,.91Z"/><path class="cls-1" d="M57.14,35.53l.09,0,.71-2.39-.09,0a1.38,1.38,0,0,0-1,0,1.15,1.15,0,0,0-.59.77,1.22,1.22,0,0,0,.07,1A1.3,1.3,0,0,0,57.14,35.53Z"/><path class="cls-1" d="M101.51,47.35h0a1.29,1.29,0,0,1-.6.16c-.48,0-.57-.64-.53-1a10.16,10.16,0,0,1,.8-2.06L104.7,37a5,5,0,0,0-3.57,0l-.86,1.52a3.1,3.1,0,0,0-3.18-1.82c-4.94,0-9,4.74-9.42,8.33-.27,2.17.87,4,3.75,4a7.18,7.18,0,0,0,5.51-2.92l.06,0a7.72,7.72,0,0,0-.23,1c-.13,1,.67,1.86,2,1.86a5.42,5.42,0,0,0,2.28-.55Zm-2.23-7.56c-.25,2-3,7.56-6.14,7.56a1.45,1.45,0,0,1-1.42-1.81c.23-2,2.92-7.34,5.94-7.34C98.86,38.2,99.39,38.9,99.28,39.79Z"/><path class="cls-1" d="M175,85.49h5.61a.72.72,0,0,0,.65-.44,3.58,3.58,0,0,0,0-2.36.71.71,0,0,0-.65-.43H175a.7.7,0,0,0-.64.43,3.42,3.42,0,0,0,0,2.36A.71.71,0,0,0,175,85.49Z"/><path class="cls-1" d="M143.64,72.4h5.61a.7.7,0,0,0,.65-.43,3.42,3.42,0,0,0,0-2.36.7.7,0,0,0-.64-.43h-5.62a.7.7,0,0,0-.64.43,3.17,3.17,0,0,0-.2,1.18A3.12,3.12,0,0,0,143,72,.7.7,0,0,0,143.64,72.4Z"/><path class="cls-1" d="M143.64,98h5.53a.7.7,0,0,0,.65-.43,3.58,3.58,0,0,0,0-2.36.7.7,0,0,0-.65-.43h-5.53a.7.7,0,0,0-.64.43,3.58,3.58,0,0,0,0,2.36A.7.7,0,0,0,143.64,98Z"/><path class="cls-1" d="M154.19,85.49h5.43a.71.71,0,0,0,.65-.44,3.34,3.34,0,0,0,.2-1.18,3.39,3.39,0,0,0-.2-1.18.7.7,0,0,0-.65-.43h-5.43a.7.7,0,0,0-.65.43,3.58,3.58,0,0,0,0,2.36A.71.71,0,0,0,154.19,85.49Z"/><path class="cls-1" d="M164.64,72.4h5.61a.69.69,0,0,0,.64-.43,3.58,3.58,0,0,0,0-2.36.7.7,0,0,0-.64-.43h-5.61a.7.7,0,0,0-.65.43,3.39,3.39,0,0,0-.2,1.18A3.09,3.09,0,0,0,164,72,.69.69,0,0,0,164.64,72.4Z"/><path class="cls-1" d="M164.46,98h5.79a.69.69,0,0,0,.64-.43,3.58,3.58,0,0,0,0-2.36.7.7,0,0,0-.64-.43h-5.79a.69.69,0,0,0-.64.43,3.42,3.42,0,0,0,0,2.36A.69.69,0,0,0,164.46,98Z"/><path class="cls-1" d="M59.77,72.4h5.61A.69.69,0,0,0,66,72a3.48,3.48,0,0,0,0-2.38.7.7,0,0,0-.64-.42H59.77a.7.7,0,0,0-.64.43,3.07,3.07,0,0,0-.21,1.18A3,3,0,0,0,59.13,72,.7.7,0,0,0,59.77,72.4Z"/><path class="cls-1" d="M209.12,210.73c0-1.2-.29-2-1.2-2-2.42,0-4.83,5.36-5.84,9.95C205.84,218.5,209.12,214.79,209.12,210.73Z"/><path class="cls-1" d="M153.67,210.73c0-1.2-.29-2-1.21-2-2.46,0-4.83,5.17-5.79,9.95C150.38,218.46,153.67,214.74,153.67,210.73Z"/><path class="cls-1" d="M90,178.43a1.42,1.42,0,0,0-.35-1.15.68.68,0,0,0-.44-.14c-.66,0-1.31.57-1.89,1.47a15.38,15.38,0,0,0-1.88,5A5.27,5.27,0,0,0,90,178.43Z"/><path class="cls-1" d="M172.2,210.73c0-1.2-.29-2-1.21-2-2.46,0-4.82,5.17-5.79,9.95C168.92,218.46,172.2,214.74,172.2,210.73Z"/><path class="cls-1" d="M85.45,212.16a1.95,1.95,0,1,0,1.94,2A1.94,1.94,0,0,0,85.45,212.16Z"/><path class="cls-1" d="M162.54,25a.86.86,0,0,0,.15-.32,2.58,2.58,0,0,0,0-.4,2.35,2.35,0,0,0,0-.4.91.91,0,0,0-.15-.33.64.64,0,0,0-.29-.21,1.24,1.24,0,0,0-.47-.08h-.49v2h.49a1.07,1.07,0,0,0,.47-.08A.64.64,0,0,0,162.54,25Z"/><path class="cls-1" d="M102.05,179c0-.17,0-.35,0-.52,0-.78-.19-1.29-.78-1.29a2.25,2.25,0,0,0-1.62,1.07,14.39,14.39,0,0,0-2.16,5.41A5.28,5.28,0,0,0,102.05,179Z"/><path class="cls-1" d="M31.77,190.73c.53,1,2.1,1.34,5.34-.15h0C33.87,192.06,32.3,191.73,31.77,190.73Z"/><path class="cls-1" d="M164.42,183.53a1.94,1.94,0,0,0-2.42,1.28l-.23.95c-.09.39-.2.88-.32,1.44-.91,4.07-2.68,12.29-3.7,17.05l.51.39c1.25-3.1,2.67-6.63,3.93-9.78,2.21-5.52,3.4-8.52,3.52-8.91h0a2.33,2.33,0,0,0,.06-.35A1.92,1.92,0,0,0,164.42,183.53Z"/><path class="cls-1" d="M90.38,9A1.5,1.5,0,0,0,91,9.9,1.15,1.15,0,0,0,92,10a1.39,1.39,0,0,0,.72-.43.78.78,0,0,0,.14-.78l-.47-1.75a.8.8,0,0,0-.52-.6,1.41,1.41,0,0,0-.84,0,1.16,1.16,0,0,0-.79.6,1.38,1.38,0,0,0,0,1Z"/><path class="cls-1" d="M146.18,192.16a2.79,2.79,0,0,0-.58.18,2.85,2.85,0,0,0-1.74,3.13c.28,1.55,3.92,5.83,3.92,5.83a42.77,42.77,0,0,0,1.54-5,5.45,5.45,0,0,0,.17-1.8A2.86,2.86,0,0,0,146.18,192.16Z"/><path class="cls-1" d="M180.07,220.43a1.82,1.82,0,0,1,1.11,1.69,2.3,2.3,0,0,1-2.13,2.37,1.4,1.4,0,0,1-1.3-.63c0,2.27.82,3.38,2.95,3.38s4.19-1.11,4.19-4.49c0-2.51-.43-4-.91-11.44A55.4,55.4,0,0,1,180.07,220.43Z"/><path class="cls-1" d="M88.05,197.56a2.91,2.91,0,0,0-4.11,4.12c.93.92,4.8,2,6.18,2.43l.5.13s-.56-2.14-1.25-4A8.61,8.61,0,0,0,88.05,197.56Z"/><path class="cls-1" d="M165.52,25.11a1.07,1.07,0,0,0,.36.27,1.21,1.21,0,0,0,.48.1,1.13,1.13,0,0,0,.45-.09,1.27,1.27,0,0,0,.36-.26,1.12,1.12,0,0,0,.24-.38,1.43,1.43,0,0,0,0-1,1.28,1.28,0,0,0-.24-.39,1.23,1.23,0,0,0-.36-.25,1.17,1.17,0,0,0-.9,0,1.15,1.15,0,0,0-.37.25,1.28,1.28,0,0,0-.24.39,1.35,1.35,0,0,0-.09.5,1.4,1.4,0,0,0,.08.47A1.26,1.26,0,0,0,165.52,25.11Zm.27-1.66h.63a.78.78,0,0,1,.45.11.43.43,0,0,1,.15.36.42.42,0,0,1-.12.33.54.54,0,0,1-.31.12l.46.73h-.3l-.43-.71h-.25v.71h-.28Z"/><path class="cls-1" d="M32.6,186.86l-.1,0,.1,0a6.48,6.48,0,0,0-.51.84A6.48,6.48,0,0,1,32.6,186.86Z"/><path class="cls-1" d="M21.06,142.89c0-.8-.19-1.3-.79-1.3-1.59,0-3.18,3.53-3.85,6.55A5.28,5.28,0,0,0,21.06,142.89Z"/><path class="cls-1" d="M105.21,7.34a1.44,1.44,0,0,0,.83.15,1.19,1.19,0,0,0,.89-.45,1.5,1.5,0,0,0,.22-1l-.09-1a1.44,1.44,0,0,0-.42-1,1.15,1.15,0,0,0-1-.27,1.49,1.49,0,0,0-.79.3.81.81,0,0,0-.27.75l.18,1.8A.8.8,0,0,0,105.21,7.34Z"/><path class="cls-1" d="M110.15,38.51l-.06-.06.41-1a4.26,4.26,0,0,0-2.5-2.11L99.88,53.5a4.57,4.57,0,0,0,2.63,2.27l3.87-8.55h.06A3.13,3.13,0,0,0,109.58,49c5,0,8.45-4.82,8.88-8.36a4.82,4.82,0,0,0,0-1c-.15-1.71-1.31-3-3.78-3A6.55,6.55,0,0,0,110.15,38.51Zm4.46,1.42c-.25,2-2.68,7.57-5.77,7.57a1.46,1.46,0,0,1-1.49-1.81c.21-1.7,2.53-7.49,5.59-7.49A1.49,1.49,0,0,1,114.61,39.93Z"/><path class="cls-1" d="M83.18,10.38l2.33-.89,0-.09a1.36,1.36,0,0,0-.65-.78,1.17,1.17,0,0,0-1,0,1.21,1.21,0,0,0-.74.65,1.34,1.34,0,0,0,0,1Z"/><path class="cls-1" d="M151.68,131.84c-6.48,0-10.67,13.72-10.67,20.88,0,5.87,2.44,5.95,3.81,5.95,2.06,0,5-2.06,6.1-5.95l3.89-18.06A3,3,0,0,0,151.68,131.84Z"/><path class="cls-1" d="M141.5,172.89a4.47,4.47,0,0,0-1.63,3.3c0,.1,0,.2,0,.3a2.6,2.6,0,0,0,2.57,2.22,2.1,2.1,0,0,0,1.06-.32,6.76,6.76,0,0,0,2.37-3.25,14.53,14.53,0,0,0,.52-1.46,17.65,17.65,0,0,0,.47-1.75l.46-2.22a23.12,23.12,0,0,0-4.52,2.17A10,10,0,0,0,141.5,172.89Z"/><path class="cls-1" d="M166.51,24.16l.13,0a.27.27,0,0,0,.08-.07.31.31,0,0,0,0-.15.21.21,0,0,0,0-.12s-.05-.05-.09-.06a.2.2,0,0,0-.11,0h-.45v.48h.44Z"/><path class="cls-1" d="M188.94,134c0-1.91-.45-3.13-1.9-3.13-3.89,0-7.62,8.15-9.15,15.7C183.76,146.17,188.94,140.3,188.94,134Z"/><path d="M101.35,193.51a5.61,5.61,0,0,1-.65.23,10.25,10.25,0,0,1-3.25.5c-.24,0-.47,0-.7-.05a8.55,8.55,0,0,1-2-.31,6.8,6.8,0,0,1-2.94-1.76,10.8,10.8,0,0,1-6.47,2.12,7.12,7.12,0,0,1-6.11-2.75l-.33.88a2.56,2.56,0,0,1-2.41,1.68H71.9a2.57,2.57,0,0,1-2.57-2.58V189.2l-1.25,3.21a2.58,2.58,0,0,1-2.4,1.64H61.06a2.59,2.59,0,0,1-2.57-2.58V189.2c-7,1.25-11.41,3.62-15.28,5.55-.41.21-.79.37-1.15.52.36-.15.74-.31,1.15-.52,3.87-1.93,8.33-4.3,15.28-5.55v-3.55H48.09a27,27,0,0,0,4.8-3c.64-.46,1.19-.86,1.73-1.19a5,5,0,0,1-3.39-2.3,21.89,21.89,0,0,1-11.57,3.73,22.52,22.52,0,0,1-13.84-3.54c-2.13-1.22-3.2-1.84-5.84-1.69l-3,.16.25,4.63,3-.16c2.87-.16,4.07.53,6.26,1.79.84.48,1.78,1,2.85,1.52h-.77v4c0,26.55,21.52,26.69,48.08,26.69H89.38A40.58,40.58,0,0,1,92,205.12C94,200.27,97,195.91,101.35,193.51ZM32.5,186.83l.1,0a6.48,6.48,0,0,0-.51.84,6.48,6.48,0,0,1,.51-.84Zm4.61,3.75c-3.24,1.49-4.81,1.15-5.34.15.53,1,2.1,1.33,5.34-.15Zm48.34,25.47a1.95,1.95,0,1,1,1.94-1.94A1.94,1.94,0,0,1,85.45,216.05Zm4.67-11.94c-1.38-.38-5.25-1.51-6.18-2.43a2.91,2.91,0,0,1,4.11-4.12,8.61,8.61,0,0,1,1.32,2.64c.69,1.9,1.25,4,1.25,4Z"/><polygon points="157.72 23.47 157.72 23.47 158.51 25.67 158.92 25.67 159.71 23.47 159.72 23.47 159.72 25.67 160.19 25.67 160.19 22.82 159.5 22.82 158.74 25.05 158.73 25.05 157.94 22.82 157.24 22.82 157.24 25.67 157.72 25.67 157.72 23.47"/><polygon points="164.85 22.76 164.42 22.76 163.27 25.74 163.71 25.74 164.85 22.76"/><path d="M216.69,215.84a2.26,2.26,0,1,0,2.26,2.25A2.25,2.25,0,0,0,216.69,215.84Z"/><path d="M194.16,208.89c.23-.19.44-.4.66-.61,4.88-4.55,10.33-9.66,12.19-11.46.33-.32.56-.54.64-.63a2.46,2.46,0,0,0-.18-3.46h0a2.44,2.44,0,0,0-3.45.18c-.24.26-1.6,2-3.45,4.45s-4.35,5.7-6.68,8.78c.05,1,.1,2,.15,2.88Z"/><path d="M176.24,204.83a6.75,6.75,0,0,1,2.55,4.41l.61.21c.53-1.48,1-2.91,1.43-4.25a3,3,0,0,1,2.46-2.07l7.14-1a3,3,0,0,1,3.34,2.47c2.12-2.79,4.27-5.63,6-7.88l1.16-1.51a38.74,38.74,0,0,0,.38-5.58v-4H166.77a2.93,2.93,0,0,0-5.72-1.13c0,.12-.13.48-.25,1l0,.11h-9.3a16.18,16.18,0,0,1-7.26,1.58,12.67,12.67,0,0,1-6.42-1.58H120.4l-.06.27a2.49,2.49,0,0,1,.91.41,2.58,2.58,0,0,1,1.08,2.28,6.11,6.11,0,0,1-5.07,5.6,8,8,0,0,1,1.28,1.44,3,3,0,0,1,1.52-.68l.45-.06,3.47-.47,3.22-.43a3,3,0,0,1,2.6.93,3,3,0,0,1,.74,2.67l-.7,3.27-.57,2.65a10.39,10.39,0,0,1,1.37-.09,8.83,8.83,0,0,1,5,1.4c-.8-1.88-1.69-3.94-2.53-5.93-2-4.61-3.74-8.8-3.89-9.26a2,2,0,0,1,3.77-1.24c.19.55,1.73,7,3.15,13,.42,1.77.82,3.5,1.18,5a8.72,8.72,0,0,1,1.68,5.27c2.57-4.76,6.86-8.49,13.08-8.49a9.87,9.87,0,0,1,4.66,1.05l0,.13-.07.34.3.19a5.89,5.89,0,0,1,1.16.94l.54.56.19-.47a6.52,6.52,0,0,1,1.16,2.18,13.74,13.74,0,0,1,10.63-4.92,10.32,10.32,0,0,1,4.22.8c2.39-5.92,5.15-12.73,5.42-13.28a2,2,0,0,1,3.55,1.8C183.52,193.07,179.62,199.38,176.24,204.83Zm-26.92-8.55a42.77,42.77,0,0,1-1.54,5s-3.64-4.28-3.92-5.83a2.85,2.85,0,0,1,1.74-3.13,2.79,2.79,0,0,1,.58-.18,2.86,2.86,0,0,1,3.31,2.32A5.45,5.45,0,0,1,149.32,196.28Zm16.45-10.68a2.33,2.33,0,0,1-.06.35h0c-.12.39-1.31,3.39-3.52,8.91-1.26,3.15-2.68,6.68-3.93,9.78l-.51-.39c1-4.76,2.79-13,3.7-17.05.12-.56.23-1,.32-1.44l.23-.95a1.94,1.94,0,0,1,2.42-1.28A1.92,1.92,0,0,1,165.77,185.6Z"/><path d="M219.9,200.67c-.33.19-3.22,2.14-6.49,4.37a6.33,6.33,0,0,1,1.4,1.65c3.45-1.57,6.4-2.94,6.72-3.12a1.66,1.66,0,1,0-1.63-2.9Z"/><path d="M46.19,102.56c6.16,0,11.23,1.28,15,3.81a17,17,0,0,1,3,2.51H201.28v-4c0-18.86-14.68-39.2-43.55-49.4-8.54,8.21-24.41,13.73-42.59,13.73S81.23,63.73,72.66,55.58c-29,10.23-44.11,30.49-44.11,49.29v1.32l.17-.08A45,45,0,0,1,46.19,102.56ZM174.36,82.69a.7.7,0,0,1,.64-.43h5.61a.71.71,0,0,1,.65.43,3.58,3.58,0,0,1,0,2.36.72.72,0,0,1-.65.44H175a.71.71,0,0,1-.64-.44,3.42,3.42,0,0,1,0-2.36ZM164,69.61a.7.7,0,0,1,.65-.43h5.61a.7.7,0,0,1,.64.43,3.58,3.58,0,0,1,0,2.36.69.69,0,0,1-.64.43h-5.61A.69.69,0,0,1,164,72a3.09,3.09,0,0,1-.21-1.19A3.39,3.39,0,0,1,164,69.61Zm-.17,25.6a.69.69,0,0,1,.64-.43h5.79a.7.7,0,0,1,.64.43,3.58,3.58,0,0,1,0,2.36.69.69,0,0,1-.64.43h-5.79a.69.69,0,0,1-.64-.43,3.42,3.42,0,0,1,0-2.36ZM153.54,82.69a.7.7,0,0,1,.65-.43h5.43a.7.7,0,0,1,.65.43,3.39,3.39,0,0,1,.2,1.18,3.34,3.34,0,0,1-.2,1.18.71.71,0,0,1-.65.44h-5.43a.71.71,0,0,1-.65-.44,3.58,3.58,0,0,1,0-2.36ZM143,69.61a.7.7,0,0,1,.64-.43h5.62a.7.7,0,0,1,.64.43,3.42,3.42,0,0,1,0,2.36.7.7,0,0,1-.65.43h-5.61A.7.7,0,0,1,143,72a3.12,3.12,0,0,1-.2-1.18A3.17,3.17,0,0,1,143,69.61Zm0,25.6a.7.7,0,0,1,.64-.43h5.53a.7.7,0,0,1,.65.43,3.58,3.58,0,0,1,0,2.36.7.7,0,0,1-.65.43h-5.53a.7.7,0,0,1-.64-.43,3.58,3.58,0,0,1,0-2.36ZM132.55,82.69a.71.71,0,0,1,.65-.43h5.6a.7.7,0,0,1,.65.43,3.17,3.17,0,0,1,.2,1.18,3.12,3.12,0,0,1-.2,1.18.71.71,0,0,1-.65.44h-5.6a.69.69,0,0,1-.64-.43,3.13,3.13,0,0,1-.21-1.19A3.34,3.34,0,0,1,132.55,82.69ZM122,69.61a.7.7,0,0,1,.65-.43h5.61a.7.7,0,0,1,.64.43,3.34,3.34,0,0,1,.2,1.18,3.29,3.29,0,0,1-.2,1.18.7.7,0,0,1-.64.43h-5.61A.7.7,0,0,1,122,72a3.29,3.29,0,0,1-.2-1.18A3.34,3.34,0,0,1,122,69.61Zm0,25.6a.7.7,0,0,1,.65-.43h5.61a.68.68,0,0,1,.63.43,3,3,0,0,1,.21,1.18,3.29,3.29,0,0,1-.2,1.18.7.7,0,0,1-.64.43h-5.61a.7.7,0,0,1-.65-.43,3.29,3.29,0,0,1-.2-1.18A3.24,3.24,0,0,1,122,95.21ZM111.56,82.69a.7.7,0,0,1,.64-.43h5.62a.7.7,0,0,1,.64.43,3.58,3.58,0,0,1,0,2.36.71.71,0,0,1-.65.44H112.2a.7.7,0,0,1-.64-.43,3.31,3.31,0,0,1-.2-1.19A3.24,3.24,0,0,1,111.56,82.69ZM101,69.61a.7.7,0,0,1,.64-.43h5.61a.7.7,0,0,1,.65.43,3.34,3.34,0,0,1,.2,1.18,3.29,3.29,0,0,1-.2,1.18.7.7,0,0,1-.65.43h-5.61A.7.7,0,0,1,101,72a3.42,3.42,0,0,1,0-2.36Zm0,25.6a.7.7,0,0,1,.64-.43h5.61a.69.69,0,0,1,.64.43,3,3,0,0,1,.21,1.18,3.29,3.29,0,0,1-.2,1.18.7.7,0,0,1-.65.43h-5.61a.7.7,0,0,1-.64-.43,3.42,3.42,0,0,1,0-2.36ZM90.58,82.69a.69.69,0,0,1,.64-.43h5.6a.69.69,0,0,1,.64.43,3.07,3.07,0,0,1,.21,1.18,3.39,3.39,0,0,1-.2,1.18.71.71,0,0,1-.65.44h-5.6a.69.69,0,0,1-.64-.43,3,3,0,0,1-.22-1.19A2.93,2.93,0,0,1,90.58,82.69ZM80,69.61a.69.69,0,0,1,.64-.43h5.61a.7.7,0,0,1,.64.43,3,3,0,0,1,.21,1.18A3.09,3.09,0,0,1,86.92,72a.69.69,0,0,1-.64.42H80.67A.69.69,0,0,1,80,72a3,3,0,0,1-.21-1.18A3.07,3.07,0,0,1,80,69.61Zm0,25.6a.7.7,0,0,1,.64-.43h5.59a.68.68,0,0,1,.41.14.62.62,0,0,1,.25.28,3.48,3.48,0,0,1,0,2.38.69.69,0,0,1-.64.42H80.67a.69.69,0,0,1-.64-.43,3,3,0,0,1-.21-1.18A3,3,0,0,1,80,95.21ZM69.58,82.69a.69.69,0,0,1,.64-.43h5.59a.7.7,0,0,1,.64.43,3.42,3.42,0,0,1,0,2.36.7.7,0,0,1-.64.44H70.22a.7.7,0,0,1-.64-.43,3.45,3.45,0,0,1,0-2.37ZM59.13,69.61a.7.7,0,0,1,.64-.43h5.61a.7.7,0,0,1,.64.42A3.48,3.48,0,0,1,66,72a.69.69,0,0,1-.64.42H59.77a.7.7,0,0,1-.64-.43,3,3,0,0,1-.21-1.18A3.07,3.07,0,0,1,59.13,69.61Zm0,25.6a.7.7,0,0,1,.64-.43h5.5a.7.7,0,0,1,.64.43,3.42,3.42,0,0,1,0,2.36.7.7,0,0,1-.64.43h-5.5a.7.7,0,0,1-.64-.43,3,3,0,0,1-.21-1.18A3.23,3.23,0,0,1,59.13,95.21ZM48.56,82.69a.71.71,0,0,1,.65-.43h5.61a.7.7,0,0,1,.64.43,3.42,3.42,0,0,1,0,2.36.71.71,0,0,1-.64.44H49.21a.72.72,0,0,1-.65-.44,3.58,3.58,0,0,1,0-2.36Z"/><path d="M199.35,127.5l-.62,2.92-5.14,24.23c-3,3-6.28,5-11,5-3.66,0-5.49-1.22-5.49-6.4,0-.92.08-2,.15-3,9.15-.54,17.53-7.32,17.53-16.08a8.46,8.46,0,0,0-.73-3.71c-1-2.11-3.21-3.61-7.65-3.61a16.73,16.73,0,0,0-10.62,3.61c-7.37,5.8-10,17.17-10,23.52a18.23,18.23,0,0,0,.48,4.32,13.11,13.11,0,0,1-6.57,4.59l6.93-32.43.62-2.92h-11l-.62,2.92-.22,1V131a2.78,2.78,0,0,0-.05-.58c-.3-1.92-2.17-3.31-6.12-3.31a15.07,15.07,0,0,0-9.45,3.31c-6.84,5.31-10.14,15.93-10.14,23.37S133,164.62,137,165.68a11,11,0,0,0,2.92.38q.65,0,1.26-.06a12.47,12.47,0,0,0,7.88-4.13l-.91,4c-1,.32-2.14.69-3.21,1.13a21.28,21.28,0,0,0-5.58,3.15,10.94,10.94,0,0,0-1.34,1.29,8.49,8.49,0,0,0-2.21,4.61,9,9,0,0,0-.08,1.17c0,5,3.88,7.39,8.53,7.39a12.54,12.54,0,0,0,9-3.36,14.47,14.47,0,0,0,3.16-4.69A15.68,15.68,0,0,0,157,175a26.11,26.11,0,0,0,.91-3.3l.26-1.24.88-4.25a17.62,17.62,0,0,0,8.5-4.9,8.75,8.75,0,0,0,2.76,2.88,13.37,13.37,0,0,0,7.41,1.87,20,20,0,0,0,6.23-1,22.38,22.38,0,0,0,8.53-5.27l-1.23,5.78h11l.16-.75,5.94-28.2c1.91-1.76,3.28-2.9,5.56-2.9s.16,5,4.42,5a5.33,5.33,0,0,0,5.49-5.57c0-2.89-1.83-5.71-5.26-5.71-3.66,0-6.55,2.43-9.22,4.72l1-4.72ZM187,130.85c1.45,0,1.9,1.22,1.9,3.13,0,6.32-5.18,12.19-11.05,12.57C179.42,139,183.15,130.85,187,130.85Zm-40.16,41.08a17.65,17.65,0,0,1-.47,1.75,14.53,14.53,0,0,1-.52,1.46,6.76,6.76,0,0,1-2.37,3.25,2.1,2.1,0,0,1-1.06.32,2.6,2.6,0,0,1-2.57-2.22c0-.1,0-.2,0-.3a4.47,4.47,0,0,1,1.63-3.3,10,10,0,0,1,1.32-1,23.12,23.12,0,0,1,4.52-2.17Zm4-19.21c-1.07,3.89-4,5.95-6.1,5.95-1.37,0-3.81-.08-3.81-5.95,0-7.16,4.19-20.88,10.67-20.88a3,3,0,0,1,3.13,2.82Z"/><path d="M162.53,25.56a1.1,1.1,0,0,0,.39-.31,1.2,1.2,0,0,0,.23-.45,2,2,0,0,0,.07-.55,2,2,0,0,0-.07-.56,1.2,1.2,0,0,0-.23-.45,1,1,0,0,0-.39-.3,1.22,1.22,0,0,0-.56-.11h-1.18v2.84H162A1.36,1.36,0,0,0,162.53,25.56Zm-1.24-.3v-2h.49a1.24,1.24,0,0,1,.47.08.64.64,0,0,1,.29.21.91.91,0,0,1,.15.33,2.35,2.35,0,0,1,0,.4,2.58,2.58,0,0,1,0,.4.86.86,0,0,1-.15.32.64.64,0,0,1-.29.21,1.07,1.07,0,0,1-.47.08Z"/><path d="M166.07,24.39h.25l.43.71h.3l-.46-.73a.54.54,0,0,0,.31-.12.42.42,0,0,0,.12-.33.43.43,0,0,0-.15-.36.78.78,0,0,0-.45-.11h-.63V25.1h.28Zm0-.71h.45a.2.2,0,0,1,.11,0s.06,0,.09.06a.21.21,0,0,1,0,.12.31.31,0,0,1,0,.15.27.27,0,0,1-.08.07l-.13,0h-.44Z"/><path d="M23.51,143c0-1.59-.67-3-3.5-3-6.52,0-8.59,7.67-8.59,11.33s2,5.05,4.93,5.05c2.55,0,4.84-1.07,5.51-4.7a6.51,6.51,0,0,1-3.76,1.68c-1.11,0-2-.63-2-2.64,0-.28,0-.64.06-1C20,149.45,23.51,146.64,23.51,143Zm-3.24-1.36c.6,0,.79.5.79,1.3a5.28,5.28,0,0,1-4.64,5.25C17.09,145.12,18.68,141.59,20.27,141.59Z"/><path d="M212.84,210.83c0-2.41-1-4.63-5.31-4.63-9.48,0-12.75,10.67-13,16.45a32.09,32.09,0,0,1-2.82,1.89,7.65,7.65,0,0,0,.19-1.84c0-3.18-.48-5.06-1.06-17.56l-7.14,1a73.47,73.47,0,0,1-5.94,14.29,4.73,4.73,0,0,0-2.4,3.22c-2,2-4.07,3.39-7.16,3.39-2.31,0-3.47-.77-3.47-4.06,0-.57.05-1.25.1-1.93,5.79-.33,11.1-4.63,11.1-10.18,0-2.41-1-4.63-5.31-4.63-9.57,0-12.82,10.87-13,16.6-2.21,2.41-4.44,4.2-7.93,4.2-2.32,0-3.48-.77-3.48-4.06,0-.57,0-1.25.1-1.93,5.79-.33,11.1-4.63,11.1-10.18,0-2.41-1-4.63-5.31-4.63-9.89,0-13,11.63-13,17.18,0,0,0,.08,0,.13-.84,1.73-1.73,2.86-3.44,2.86-1.44,0-1.93-.82-1.93-2,0-2.7,2.32-8.54,2.32-12.45s-2.27-5.45-5.36-5.45a7.14,7.14,0,0,0-5.64,2.7L127.6,197l-7.14,1-5.19,24.34A11.7,11.7,0,0,1,106,226.9c-4.64,0-5.8-3.09-5.8-7.53,0-9.84,4.73-22.54,10-22.54a2.69,2.69,0,0,1,3,2.95c0,1.83-1.06,3.86-2.22,4.44a3.46,3.46,0,0,0,2.75,1.25c2.46,0,3.38-1.88,3.38-4.44,0-4.68-3.53-6.46-8.06-6.46-12.65,0-16.85,16.36-16.85,25.09s3.43,11.88,10.57,11.88a15.83,15.83,0,0,0,11.67-5.47l-1,4.69h7l3.33-15.68c.29-1.31,1.79-4.25,3.67-4.25,1.21,0,1.79.87,1.79,2.46,0,3.09-2.18,9-2.18,12.31,0,2.75,1.5,5.45,5.7,5.45,1.93,0,4.52-.58,6.83-4.26,1,3,3.58,4.26,7,4.26,4.93,0,8.5-2.65,11.13-5.89.6,4.16,3.4,5.89,7.4,5.89a13.6,13.6,0,0,0,10.24-4.86c.55,2.52,2.71,4.86,6.9,4.86a10.67,10.67,0,0,0,7.58-2.89,31.7,31.7,0,0,0,4.76-3.41c.47,4.45,3.31,6.3,7.4,6.3,3.86,0,7.34-1.64,8.35-7.14a9.85,9.85,0,0,1-5.69,2.56c-1.69,0-3-1-3-4,0-.43.05-1,.1-1.45C207.53,220.68,212.84,216.43,212.84,210.83Zm-4.92-2.08c.91,0,1.2.78,1.2,2,0,4.06-3.28,7.77-7,8C203.09,214.11,205.5,208.75,207.92,208.75Zm-36.93,0c.92,0,1.21.78,1.21,2,0,4-3.28,7.73-7,8C166.17,213.92,168.53,208.75,171,208.75Zm-18.53,0c.92,0,1.21.78,1.21,2,0,4-3.29,7.73-7,8C147.63,213.92,150,208.75,152.46,208.75Zm28.24,18.49c-2.13,0-2.95-1.11-2.95-3.38a1.4,1.4,0,0,0,1.3.63,2.3,2.3,0,0,0,2.13-2.37,1.82,1.82,0,0,0-1.11-1.69,55.4,55.4,0,0,0,3.91-9.12c.48,7.44.91,8.93.91,11.44C184.89,226.13,182.82,227.24,180.7,227.24Z"/><path d="M54.1,40.31a1.67,1.67,0,0,0,.4.56,1.85,1.85,0,0,0,.58.37,3,3,0,0,0,.66.22v.08L54,41.59l.08,3.2,1.39,0,0-1.43,3.41-.09,0,1.43,1.39,0-.14-5.24-1.39,0,.06,2-1.83,0a1.37,1.37,0,0,1-1-.31,1.25,1.25,0,0,1-.42-1l0-1.32-1.63,0v.59A2,2,0,0,0,54.1,40.31Z"/><path d="M58.83,29.38a1.93,1.93,0,0,0,.73.27,1.53,1.53,0,0,0,.67-.08,2,2,0,0,0,.62-.34,4.29,4.29,0,0,0,.57-.56l.67-.76a2.08,2.08,0,0,1,.44-.39.36.36,0,0,1,.41,0,.55.55,0,0,1,.27.52,1.81,1.81,0,0,1-.31.79,2.57,2.57,0,0,1-.78.82,2.45,2.45,0,0,1-1,.38l.25,1.34a2.52,2.52,0,0,0,1.34-.51A4.9,4.9,0,0,0,64,29.53a3.51,3.51,0,0,0,.66-2.1,1.82,1.82,0,0,0-.9-1.46A1.61,1.61,0,0,0,63,25.7a1.51,1.51,0,0,0-.67.08,2,2,0,0,0-.63.35,3.75,3.75,0,0,0-.57.56l-.66.74a1.63,1.63,0,0,1-.44.39.38.38,0,0,1-.43,0q-.53-.33,0-1.2a2.31,2.31,0,0,1,1.53-1.1l-.38-1.29a2.48,2.48,0,0,0-1.14.49,4.38,4.38,0,0,0-1,1.18,3.5,3.5,0,0,0-.65,2.06A1.83,1.83,0,0,0,58.83,29.38Z"/><path d="M72.5,20.35,70.15,17a1,1,0,0,1-.15-.38.78.78,0,0,1,0-.37,1,1,0,0,1,.19-.34,1.58,1.58,0,0,1,.3-.28c.57-.4,1.08-.27,1.54.38l2.17,3.08,1.45-1-2.3-3.28a3.07,3.07,0,0,0-.7-.73,2.51,2.51,0,0,0-.76-.36,1.71,1.71,0,0,0-.78,0,2.13,2.13,0,0,0-.75.35,1.84,1.84,0,0,0-.49.47,1.79,1.79,0,0,0-.34,1.07,2.59,2.59,0,0,0,.07.55l-.06,0-.65-.92-1.45,1,3.57,5.07Z"/><path d="M74.65,11.6l-1,.5.64,1.24,1.49-.77,1.38,2.68a1.81,1.81,0,0,0,1,.92A1.86,1.86,0,0,0,79.7,16l2-1.05-.64-1.24L79,14.78l-1.56-3,2.14-1.11-.64-1.23-2.14,1.1-1-1.94-1.45.75L75,10.61a.79.79,0,0,1,.12.59A.85.85,0,0,1,74.65,11.6Z"/><path d="M105,8.84l-.11-1.13H105a2.33,2.33,0,0,0,.75.86,1.82,1.82,0,0,0,1.2.24,2.3,2.3,0,0,0,.92-.28,2,2,0,0,0,.67-.66,2.77,2.77,0,0,0,.38-1.05,5.3,5.3,0,0,0,0-1.46,5.85,5.85,0,0,0-.31-1.43,3.18,3.18,0,0,0-.58-1,2,2,0,0,0-.78-.51,2.35,2.35,0,0,0-1-.1,1.81,1.81,0,0,0-1.14.47,2.33,2.33,0,0,0-.56,1h-.09L104.17,0,102.4.17,103.25,9Zm-.12-4.73a1.49,1.49,0,0,1,.79-.3,1.15,1.15,0,0,1,1,.27,1.44,1.44,0,0,1,.42,1l.09,1a1.5,1.5,0,0,1-.22,1,1.19,1.19,0,0,1-.89.45,1.44,1.44,0,0,1-.83-.15.8.8,0,0,1-.4-.68l-.18-1.8A.81.81,0,0,1,104.9,4.11Z"/><path d="M111.92,9.36l-1.48,0,0,1.39,1.22,0a1.93,1.93,0,0,0,1.24-.38,2.45,2.45,0,0,0,.71-1.06l2.77-7.25-1.81,0-.87,2.62-.51,1.82h-.09l-.6-1.79-1-2.59-1.9,0,2.62,6.11Z"/><path d="M54.18,53.59l8-2.63-.57-1.72-2.89,1-.45-1.36a3.15,3.15,0,0,0-.52-1,2.4,2.4,0,0,0-.76-.6,2.5,2.5,0,0,0-1-.21,3.44,3.44,0,0,0-1.1.19,3.48,3.48,0,0,0-1,.51,2.46,2.46,0,0,0-.64.73,2.3,2.3,0,0,0-.25.94,3,3,0,0,0,.17,1.1Zm.46-4a1.05,1.05,0,0,1,.67-.48l.35-.12a1.08,1.08,0,0,1,.83,0,1.24,1.24,0,0,1,.5.76l.31.92L55,51.42l-.3-.93A1.27,1.27,0,0,1,54.64,49.58Z"/><path d="M56.05,36.83a4,4,0,0,0,1.24.59,3.32,3.32,0,0,0,2.48-.1,3.07,3.07,0,0,0,1.51-2,3.72,3.72,0,0,0,.16-1.67A3.16,3.16,0,0,0,61,32.45l-1.28.62a2.22,2.22,0,0,1,.34.81,1.93,1.93,0,0,1-.07,1,1.42,1.42,0,0,1-.66.94,1.3,1.3,0,0,1-1,.09l-.1,0,1.2-4.06-.5-.16a4.11,4.11,0,0,0-1.31-.17,2.94,2.94,0,0,0-1.12.29,2.7,2.7,0,0,0-.87.72A3.43,3.43,0,0,0,55,33.6a3.35,3.35,0,0,0-.14,1.27A2.42,2.42,0,0,0,55.23,36,2.93,2.93,0,0,0,56.05,36.83Zm.2-2.88a1.15,1.15,0,0,1,.59-.77,1.38,1.38,0,0,1,1,0l.09,0-.71,2.39-.09,0a1.3,1.3,0,0,1-.82-.6A1.22,1.22,0,0,1,56.25,34Z"/><path d="M63.81,24.1A3.31,3.31,0,0,0,66,25.19a3.07,3.07,0,0,0,2.28-1.07,3.53,3.53,0,0,0,.93-1.39,3,3,0,0,0,.17-1.25L68,21.42a2.19,2.19,0,0,1-.09.88,2,2,0,0,1-.52.82,1.47,1.47,0,0,1-1,.51,1.31,1.31,0,0,1-.94-.42l-.08-.08,3-3L68,19.76A4,4,0,0,0,66.89,19a2.89,2.89,0,0,0-1.12-.28,2.72,2.72,0,0,0-1.11.22,3.46,3.46,0,0,0-1,.73,3.35,3.35,0,0,0-.73,1,2.8,2.8,0,0,0-.21,1.13A2.87,2.87,0,0,0,63,23,4.17,4.17,0,0,0,63.81,24.1Zm.72-3.55a1.2,1.2,0,0,1,.89-.4,1.34,1.34,0,0,1,.91.45l.07.07-1.76,1.76-.07-.07a1.29,1.29,0,0,1-.44-.91A1.24,1.24,0,0,1,64.53,20.55Z"/><path d="M83.32,13.46a3.07,3.07,0,0,0,2.52,0,3.68,3.68,0,0,0,1.42-.88,3,3,0,0,0,.67-1.08l-1.27-.63a2.23,2.23,0,0,1-.44.76,2,2,0,0,1-.81.53,1.5,1.5,0,0,1-1.15,0,1.29,1.29,0,0,1-.69-.77l0-.1,4-1.51-.19-.49a3.71,3.71,0,0,0-.66-1.14,2.78,2.78,0,0,0-.9-.72,2.54,2.54,0,0,0-1.1-.25,3.59,3.59,0,0,0-2.34.88,2.77,2.77,0,0,0-.66.94,3,3,0,0,0-.19,1.18,4.29,4.29,0,0,0,.28,1.35A3.33,3.33,0,0,0,83.32,13.46Zm-.2-4.19a1.21,1.21,0,0,1,.74-.65,1.17,1.17,0,0,1,1,0,1.36,1.36,0,0,1,.65.78l0,.09-2.33.89,0-.09A1.34,1.34,0,0,1,83.12,9.27Z"/><path d="M89,10.39a3,3,0,0,0,.73.85,1.9,1.9,0,0,0,.86.38,2.26,2.26,0,0,0,1-.07,1.7,1.7,0,0,0,1-.64A2.4,2.4,0,0,0,93,9.84l.08,0,.29,1.1,1.72-.47L92.78,1.88l-1.71.46,1,3.7-.08,0a2.72,2.72,0,0,0-.41-.42,2,2,0,0,0-.48-.3,1.69,1.69,0,0,0-.56-.12,2,2,0,0,0-.66.08,2.25,2.25,0,0,0-.86.43,1.84,1.84,0,0,0-.55.76,2.81,2.81,0,0,0-.2,1.1A5,5,0,0,0,88.48,9,5.07,5.07,0,0,0,89,10.39ZM90.19,7a1.16,1.16,0,0,1,.79-.6,1.41,1.41,0,0,1,.84,0,.8.8,0,0,1,.52.6l.47,1.75a.78.78,0,0,1-.14.78A1.39,1.39,0,0,1,92,10a1.15,1.15,0,0,1-1-.11A1.5,1.5,0,0,1,90.38,9l-.24-.92A1.38,1.38,0,0,1,90.19,7Z"/><path d="M165.31,25.31a1.33,1.33,0,0,0,.46.31,1.45,1.45,0,0,0,.59.12,1.55,1.55,0,0,0,.56-.11,1.42,1.42,0,0,0,.78-.77,1.54,1.54,0,0,0,.12-.61,1.48,1.48,0,0,0-.12-.61,1.31,1.31,0,0,0-.32-.47,1.62,1.62,0,0,0-.46-.31,1.54,1.54,0,0,0-.56-.1,1.5,1.5,0,0,0-.56.1,1.67,1.67,0,0,0-.47.31,1.45,1.45,0,0,0-.32.47,1.48,1.48,0,0,0-.11.61,1.63,1.63,0,0,0,.1.59A1.54,1.54,0,0,0,165.31,25.31Zm0-1.56a1.28,1.28,0,0,1,.24-.39,1.15,1.15,0,0,1,.37-.25,1.17,1.17,0,0,1,.9,0,1.23,1.23,0,0,1,.36.25,1.28,1.28,0,0,1,.24.39,1.43,1.43,0,0,1,0,1,1.12,1.12,0,0,1-.24.38,1.27,1.27,0,0,1-.36.26,1.13,1.13,0,0,1-.45.09,1.21,1.21,0,0,1-.48-.1,1.07,1.07,0,0,1-.36-.27,1.26,1.26,0,0,1-.23-.39,1.4,1.4,0,0,1-.08-.47A1.35,1.35,0,0,1,165.3,23.75Z"/><path d="M45.39,174.78c-2,1.48-3.16,2.3-6,2.45s-4.07-.53-6.26-1.79A21.81,21.81,0,0,0,19.67,172l-2.22.11.23,4.16,2.22-.12c3.1-.16,4.45.61,6.69,1.9a21.12,21.12,0,0,0,13,3.33,20.5,20.5,0,0,0,11.07-3.66,7.13,7.13,0,0,1-.18-1.65A8.53,8.53,0,0,1,52.35,171,23.49,23.49,0,0,0,45.39,174.78Z"/><path d="M23.71,134.11c-.09-.72-1.23-1.36-1.23-5.43a17.73,17.73,0,0,1,6.05-13.78A21.08,21.08,0,0,1,34,111.43a26,26,0,0,1,10.45-2.19c3.79,0,6.53.84,8.38,2.19a7.47,7.47,0,0,1,3,4.55,9.21,9.21,0,0,1,.2,1.9q0,.34,0,.69a14,14,0,0,1-9.69,11.85,10.46,10.46,0,0,1-2.92.41h-.53l.1-.41,2.75-11.85.6-2.59.67-2.9-13,1.6-.31,1.3-.6,2.59-2.79,11.85-6.86,29.22a12.63,12.63,0,0,1-.66,2.81L22,165.54H34.69l7.2-30.63c1.58-.16,3.34-.24,4-.24,6.41,0,8.35,4.56,8.35,10.15,0,6.08-2.29,14.4-8.7,14.4-2,0-3.69-.8-5.88-2.88A12,12,0,0,0,38.55,161c0,4.88,4.92,5.92,8.7,5.92,14.67,0,19.24-15.36,19.24-23,0-6-2.9-11.52-10.37-12.88q.52-.27,1-.57c5-2.93,7.64-7.51,7.75-11.85a2.81,2.81,0,0,0,0-.29,10.61,10.61,0,0,0-2.46-6.85,13.23,13.23,0,0,0-2.87-2.55c-3-2-7.47-3.31-13.38-3.31a41.9,41.9,0,0,0-16.29,3.31c-9.11,3.87-15.59,10.69-15.59,17.87C14.31,132.11,17.91,134.11,23.71,134.11Z"/><path d="M20.91,159.05a6.93,6.93,0,0,1-2.67.51c-4,0-7.39-3.37-10.7-4.1l4.9-22.85c-.41,0-.82-.06-1.27-.06-5.31,0-11.17,4-11.17,8.27,0,2.29,1.21,3.09,3.41,3.09A4.3,4.3,0,0,1,3,141.75a7,7,0,0,1,4.45-6.94L2.67,156.86a6.11,6.11,0,0,1,.74,0c5.63,0,9.64,7.22,14.19,7.22C19.31,164.05,20.59,162.11,20.91,159.05Z"/><path d="M194.36,173a21.17,21.17,0,0,0,12.56-4.71c2.09-1.52,3.35-2.44,6.45-2.61l2.22-.12-.23-4.16-2.22.12a22.23,22.23,0,0,0-7.78,1.74l-.6,2.86a2.59,2.59,0,0,1-2.52,2h-4.9a8.77,8.77,0,0,1-3.21.68c-2.87.16-4.08-.53-6.26-1.79l-.78-.44a21.87,21.87,0,0,1-2.32.91,22.24,22.24,0,0,1-5.48,1c.66.3,1.31.67,2.07,1.11A21.18,21.18,0,0,0,194.36,173Z"/><path d="M67.6,115.33c.05.22.07.44.1.65H94.62l4.46,2.59,11,6.38.26,0h10.18l10.57-6.36,4.3-2.59h65.9v-4.54H66.06A13.45,13.45,0,0,1,67.6,115.33Z"/><path d="M102.44,173a6,6,0,0,1,2.48,1l.94-4.44a2.21,2.21,0,0,1,.18-.51,19.55,19.55,0,0,0-3.19-.89h-.59a2.48,2.48,0,0,1-1.11-.26,24.53,24.53,0,0,0-2.92-.14,15.6,15.6,0,0,1-5.18.86c-.33,0-.65,0-1,0a20.12,20.12,0,0,0-5,2.09l-1,2.67a10,10,0,0,1,2.91-.44,6.8,6.8,0,0,1,.8,0,6.41,6.41,0,0,1,2.45.65,9,9,0,0,1,5-1.62A8.93,8.93,0,0,1,102.44,173Z"/><path d="M74.23,166.06c3.2,0,7.46-1,11.27-7.24.46,4.72,3.2,7.24,7.55,7.24a13.12,13.12,0,0,0,10.1-4.67l-.89,4.21h11l6.1-28.95c1.91-1.76,3.28-2.9,5.56-2.9s.16,5,4.42,5a7,7,0,0,0,1.24-.11,30.23,30.23,0,0,1,4.12-6.71,6.15,6.15,0,0,0-.49-1.54,4.93,4.93,0,0,0-4.64-2.92c-2.69,0-5,1.31-7,2.92-.75.58-1.47,1.2-2.18,1.8l.38-1.8.61-2.92h-11l-.62,2.92L105.14,152c-1.15,3.78-3.2,6.64-6.15,6.64-2.13,0-3.13-.69-3.13-2.82a10.53,10.53,0,0,1,.31-2.44l4.87-23,.62-2.92h-11l-.62,2.92L85.5,152c-1.14,3.81-3.12,6.71-6.09,6.71-1.68,0-2.29-1.37-2.29-3.13a10.82,10.82,0,0,1,.23-2.13l4.86-23,.62-2.92h-11l-.62,2.92L66.68,152a25,25,0,0,0-.61,4.95C66.07,163.32,69.65,166.06,74.23,166.06Z"/><path d="M103.67,130.42h3.42l.73-3.45a2.59,2.59,0,0,1,.34-.82L98.07,120.3l-3-1.73H67.9v.17a16.54,16.54,0,0,1-5.44,11.43l.39.25h5.76l.73-3.45a2.57,2.57,0,0,1,2.52-2h11A2.57,2.57,0,0,1,85.35,128l-.51,2.38h2.6l.73-3.45a2.57,2.57,0,0,1,2.52-2h11a2.57,2.57,0,0,1,2.52,3.11Z"/><polygon points="58.39 227.81 58.24 227.81 57.31 221.33 55.29 221.33 54.35 227.81 54.19 227.81 53.62 221.33 51.71 221.33 52.66 229.33 55.39 229.33 56.18 223.81 56.33 223.81 57.12 229.33 59.85 229.33 60.8 221.33 58.98 221.33 58.39 227.81"/><path d="M136.26,168.17a11.55,11.55,0,0,1-4-2,22.19,22.19,0,0,0-9.44,4.43l-2.92,2.6a2.58,2.58,0,0,1,2.46,1.8,2.66,2.66,0,0,1,0,1.31,22.66,22.66,0,0,0,7.16-3.81c2.08-1.52,3.34-2.43,6.43-2.6l.11-.13a12.18,12.18,0,0,1,1.35-1.33C137,168.36,136.64,168.27,136.26,168.17Z"/><polygon points="67.2 221.33 62.36 221.33 62.36 223.13 64.9 223.13 64.9 227.53 62.36 227.53 62.36 229.33 69.55 229.33 69.55 227.53 67.2 227.53 67.2 221.33"/><path d="M169.32,130.42H172a22.23,22.23,0,0,1,2.2-2,19.29,19.29,0,0,1,12.21-4.16c5,0,8.31,1.68,9.92,5l.48-2.26a2.57,2.57,0,0,1,2.52-2h1.9v-3.35c0-1.66,0-3-1.67-3H135l-2.85,1.71-9,5.42c.06.06.13.11.19.18a2.51,2.51,0,0,1,.38.65,12,12,0,0,1,5.85-1.6,7.52,7.52,0,0,1,7,4.39,3.71,3.71,0,0,1,.19.46,21,21,0,0,1,1.6-1.39,17.61,17.61,0,0,1,11-3.85,11.9,11.9,0,0,1,5.3,1,2.54,2.54,0,0,1,1.71-.65h11a2.57,2.57,0,0,1,2.52,3.11Z"/><path d="M216.69,171.71l-.25-4.63-3,.16c-2.65.15-3.64.87-5.62,2.31A23.83,23.83,0,0,1,180.6,171c-2.13-1.22-3.21-1.84-5.85-1.69s-3.64.86-5.62,2.31a22.86,22.86,0,0,1-9.82,4.58,15.11,15.11,0,0,1-.58,1.45,18.24,18.24,0,0,1-2.07,3.56A21.82,21.82,0,0,0,169,176.42c2-1.48,3.16-2.3,6-2.45s4.08.53,6.27,1.79a23.13,23.13,0,0,0,26.4-1.43c2-1.48,3.16-2.3,6-2.46Z"/><path d="M113.22,185.65l-.16.8a8.25,8.25,0,0,0-.19,1.63c0,2.29,1.39,3.58,4,3.58a3.47,3.47,0,0,0,2.93-3.24,2,2,0,0,1-1.11.19c-1,0-1.22-.53-1.22-1.16a5.35,5.35,0,0,1,.16-1l.17-.8.17-.78a5.49,5.49,0,0,0,.13-1.19c0-.12,0-.24,0-.36A3.28,3.28,0,0,0,114.6,180a6.26,6.26,0,0,0-1,.12l1.93-1.34h0l2.38-1.66,2-1.37h-3.11l-1.86,1.47-1.83,1.44-2.37,1.87.45-2.14.33-1.52,1-4.58.6-2.83-4.64.64h0l-1.16,5.46-.33,1.54-.86,4-1,4.52,0,.2h0c-1.57,1.79-3.08,3.17-5.56,3.17-1.51,0-2.26-.5-2.26-2.64,0-.23,0-.47,0-.73l0-.53a7.72,7.72,0,0,0,7-5,5.7,5.7,0,0,0,.25-1.66c0-1.58-.66-3-3.46-3a7.11,7.11,0,0,0-5.9,3.08,14.45,14.45,0,0,0-2.53,7.09c0,.22,0,.44,0,.65-1.44,1.57-2.89,2.72-5.16,2.72-1.51,0-2.26-.5-2.26-2.64,0-.23,0-.47,0-.73l0-.53c3.16-.18,6.11-2.18,7-5a5.45,5.45,0,0,0,.26-1.67,2.75,2.75,0,0,0-1-2.41,3.59,3.59,0,0,0-1.86-.58,4.86,4.86,0,0,0-.56,0,7.11,7.11,0,0,0-5.9,3.08A10.8,10.8,0,0,0,82,180.41a15.25,15.25,0,0,0-1.38,4.87c0,.13,0,.25,0,.37,0,.36-.05.71-.05,1,0,3.55,1.94,5,4.9,5a9.22,9.22,0,0,0,7.24-3.82,4,4,0,0,0,2.91,3.57,6.69,6.69,0,0,0,1.91.25,7.93,7.93,0,0,0,2.49-.38,10,10,0,0,0,4.63-3.29l-.74,3.48h4.52l1.22-5.82.41-1.94a7.3,7.3,0,0,1,1.1-.78,2.54,2.54,0,0,1,1.23-.38,1,1,0,0,1,1,.74,2.27,2.27,0,0,1,.11.77,5,5,0,0,1-.13,1.16Zm-13.55-7.44a2.25,2.25,0,0,1,1.62-1.07c.59,0,.78.51.78,1.29,0,.17,0,.35,0,.52a5.28,5.28,0,0,1-4.54,4.67A14.39,14.39,0,0,1,99.67,178.21Zm-12.34.4c.58-.9,1.23-1.47,1.89-1.47a.68.68,0,0,1,.44.14,1.42,1.42,0,0,1,.35,1.15,5.27,5.27,0,0,1-4.56,5.19A15.38,15.38,0,0,1,87.33,178.61Z"/><path d="M168.92,166.35a11.25,11.25,0,0,1-1.57-1.26l-.27.11a19.93,19.93,0,0,1-4.65,2.61c-.34.23-.66.47-1,.69l-.29.2-.73,3.53c-.16.79-.37,1.55-.59,2.3a21.83,21.83,0,0,0,8.36-4.13,11.14,11.14,0,0,1,4.55-2.37A13.15,13.15,0,0,1,168.92,166.35Z"/><path d="M119.14,179.39a6.25,6.25,0,0,1,1.46,3.6,22.07,22.07,0,0,0,9.67-4.47,14.71,14.71,0,0,1,2.87-1.79c0-.32,0-.63.07-1a10.77,10.77,0,0,1,1.49-4.18,9.55,9.55,0,0,0-4.26,2.16,22.88,22.88,0,0,1-9.74,4.57Z"/><path d="M67.13,220a1.08,1.08,0,0,0,.3-.77v-.45a1,1,0,0,0-.3-.77A2,2,0,0,0,65,218a1,1,0,0,0-.3.77v.45a1.08,1.08,0,0,0,.3.77,2,2,0,0,0,2.16,0Z"/><path d="M75.32,218.51H73.21v1.87a1,1,0,0,1-.22.75,1.08,1.08,0,0,1-.73.2H70.85v1.8H73V227a2.38,2.38,0,0,0,.61,1.66,2.41,2.41,0,0,0,1.84.65h3v-1.8H75.32v-4.4h3.11v-1.8H75.32Z"/><path d="M76.54,191.47l2.17-5.82.08-.2,1.8-4.82.62-1.67,2.16-5.77,1.91-5.12h-2.2l-2.31,6.58-1.61,4.58-.56,1.59L77,185.51l0,.14-.58,1.64V168.48a14.41,14.41,0,0,1-2.1.16,12.92,12.92,0,0,1-2.15-.19l-1.46,4.24-1.75,5.11-.51,1.48-1.3,3.8-.89,2.57-.56,1.64,0-1.64,0-3.41-.07-4.38,0-1.8-.08-5.52,0-2.57c-.41,0-.82-.06-1.26-.06A13.09,13.09,0,0,0,57.25,170c-2.44,1.53-4.18,3.75-4.21,6v.06a3.83,3.83,0,0,0,.3,1.63c.49,1,1.54,1.41,3.06,1.41A4.49,4.49,0,0,1,56,177a8.38,8.38,0,0,1,0-.88,7.71,7.71,0,0,1,.34-1.72A6.65,6.65,0,0,1,61.06,170v21.46h4.62l.61-1.56.61-1.58,1-2.68.71-1.81,1.52-3.91.57-1.46,1.16-3v16Z"/><path d="M109.55,201.59a3,3,0,0,0,.67-1.75,1.94,1.94,0,0,0-1,.62,9.22,9.22,0,0,0-1.29,1.62,23.06,23.06,0,0,0-1.82,3.48c-.3.7-.59,1.44-.86,2.23s-.52,1.62-.75,2.48-.44,1.78-.61,2.72q-.15.81-.27,1.65c-.07.56-.14,1.13-.19,1.71h10.09l1.71-8a6.88,6.88,0,0,1-1.43.15,6.47,6.47,0,0,1-3.67-1.1,6.59,6.59,0,0,1-1.35-1.19,3,3,0,0,1,.82-4.59Z"/><path d="M87.13,221.92a2.16,2.16,0,0,0-.82-.58,2.78,2.78,0,0,0-1.06-.2,2.88,2.88,0,0,0-.86.13,2.33,2.33,0,0,0-.66.36,2,2,0,0,0-.49.52,3,3,0,0,0-.34.64h-.1v-4.93H80.51v11.47H82.8v-5.26a1.07,1.07,0,0,1,.12-.51,1,1,0,0,1,.32-.36,1.35,1.35,0,0,1,.45-.22,1.91,1.91,0,0,1,.52-.07c.9,0,1.35.52,1.35,1.55v4.87h2.3v-5.18a3.93,3.93,0,0,0-.2-1.29A3,3,0,0,0,87.13,221.92Z"/><path d="M81.28,23.82C72.63,28.66,67.87,35,67.87,41.59a15,15,0,0,0,2.3,7.8A23,23,0,0,0,74,54.13c8.47,8.06,24.22,13.07,41.1,13.07s32.75-5.05,41.2-13.17a22.65,22.65,0,0,0,3.83-4.74,14.93,14.93,0,0,0,2.24-7.7c0-6.61-4.76-12.93-13.41-17.77C140,18.77,128,16,115.14,16S90.29,18.77,81.28,23.82Zm5.67,20c-.8,3.38-4.18,5.37-8.16,5.37a7.53,7.53,0,0,1-5.59-2c-2.35-2.72.34-4.13,1.65-4.11-.68,2.61.36,4.91,3.67,4.91a3.81,3.81,0,0,0,3.86-2.64c.41-1.75-.56-2.78-1.7-3.94L79.6,40.26c-1.42-1.44-2.5-2.75-2-4.9.74-3.1,4-5,7.69-5A6.81,6.81,0,0,1,90,31.93a2.14,2.14,0,0,1-1.25,3.89.67.67,0,0,1-.23-.07c.64-2-.05-4.21-2.82-4.21-1.55,0-3.47.83-3.81,2.24-.38,1.61.77,2.71,1.81,3.77l1,1C86.24,40,87.51,41.47,87,43.82Zm9.81,3.34a7.72,7.72,0,0,1,.23-1l-.06,0A7.18,7.18,0,0,1,91.42,49c-2.88,0-4-1.86-3.75-4,.43-3.59,4.48-8.33,9.42-8.33a3.1,3.1,0,0,1,3.18,1.82l.86-1.52a5,5,0,0,1,3.57,0l-3.53,7.5a10.16,10.16,0,0,0-.8,2.06c0,.33,0,1,.53,1a1.29,1.29,0,0,0,.6-.16h0l-.5,1.12a5.42,5.42,0,0,1-2.28.55C97.43,49,96.63,48.18,96.76,47.16Zm25.4-13.23c8.09,1.63,12.52.62,16.26.45l1.39-2.91a4.83,4.83,0,0,1,3.49,0L142,34.35c5.65.14,8.88,1.19,10.73,2.45,3.14.16,5.84.94,6.51,1.6a3.75,3.75,0,0,1-1.95,1.87,7.17,7.17,0,0,0-3.11-2.1,4.22,4.22,0,0,1,.83,3.38c-.45,3.74-4.64,7.52-9.43,7.52-2.85,0-4.67-1.33-5.06-3.34a6,6,0,0,1,0-1.43,7.83,7.83,0,0,1,1.89-4.2c1.84-2.13,4.78-3,7.72-3.27-2-1.23-5.9-.8-9-.49L138,43.21a15.76,15.76,0,0,0-1.25,3.21c-.05.42,0,.88.67.88a2.29,2.29,0,0,0,1.26-.51c.2-.15.55-.46.78-.68a4.21,4.21,0,0,0,.35.81v0a6.71,6.71,0,0,1-4.42,2.1c-1.54,0-2.66-.91-2.51-2.16a6,6,0,0,1,.64-2.1c.29-.74.64-1.49.9-2.07l3-6.18c-4.06,0-11-.4-15.45-2.27Zm-1.32,4.39a4,4,0,0,0-.89.24,2.53,2.53,0,0,0-.29-.7,7.3,7.3,0,0,1,3.58-1.2c1.3,0,2.25.69,2.12,1.78A12,12,0,0,1,124,41.66a48,48,0,0,0-2.35,4.83c-.06.5.32.73.91.73,2.81,0,5.88-6,6.82-7.8l1-1.8s1.22.12,1.73.15l1.85.12-2.08,4a22.15,22.15,0,0,0-1.64,4.43c0,.33,0,.87.51.87a2.11,2.11,0,0,0,1-.43s0,.07,0,.11a1.69,1.69,0,0,0,.1.84h0A5.86,5.86,0,0,1,128.44,49a1.81,1.81,0,0,1-2-2,7.71,7.71,0,0,1,.5-1.83l-.06-.06c-1.55,2.13-3.74,3.91-6.48,3.92-1.57,0-2.71-.83-2.54-2.19a12.4,12.4,0,0,1,1.37-3.35s2.06-4.13,2.11-4.57A.47.47,0,0,0,120.84,38.32Zm-2.36,1.32a4.82,4.82,0,0,1,0,1c-.43,3.54-3.9,8.36-8.88,8.36a3.13,3.13,0,0,1-3.14-1.81h-.06l-3.87,8.55a4.57,4.57,0,0,1-2.63-2.27L108,35.38a4.26,4.26,0,0,1,2.5,2.11l-.41,1,.06.06a6.55,6.55,0,0,1,4.55-1.84C117.17,36.67,118.33,37.93,118.48,39.64Z"/><path d="M144.24,44.58c-1.28,4.49,2.32,4.41,4.59,1.26,1.59-2.15,2.95-5.36,2.6-7.13a2.82,2.82,0,0,0-.44-1.05C146.08,38.1,144.44,43.87,144.24,44.58Z"/><path d="M112.94,38.2c-3.06,0-5.38,5.79-5.59,7.49a1.46,1.46,0,0,0,1.49,1.81c3.09,0,5.52-5.57,5.77-7.57A1.49,1.49,0,0,0,112.94,38.2Z"/><path d="M97.66,38.2c-3,0-5.71,5.37-5.94,7.34a1.45,1.45,0,0,0,1.42,1.81c3.12,0,5.89-5.56,6.14-7.56C99.39,38.9,98.86,38.2,97.66,38.2Z"/></g></g></svg>