<svg xmlns="http://www.w3.org/2000/svg" viewBox="0 0 284.65 95.91"><defs><style>.cls-1{fill:#533636}.cls-2{fill:#fff}.cls-3{fill:#ab7029}.cls-4{fill:#9c6226}.cls-5{fill:#b32029}.cls-6{fill:#faa21e}.cls-7{fill:#a9ae38}.cls-8{fill:#6d1f11}.cls-9{fill:#411f1f}.cls-10{fill:#4a2b2b}.cls-11{fill:#ea6433}</style></defs><title>logo-registration-page-fr</title><g id="Layer_2" data-name="Layer 2"><g id="Layer_1-2" data-name="Layer 1"><rect width="4" height="87.22" x="130.82" y="4.78" class="cls-1"/><path d="M36.64,95.83c-7.18,0-14,0-19.27-2.08C10.82,91.21,7.46,85.9,7.39,78l-1.56.08H5.6a4.13,4.13,0,0,1-4.12-3.92l-.12-2.42a4,4,0,0,1,.31-1.8l-.06-1.21a4.12,4.12,0,0,1,2.41-4,3.44,3.44,0,0,1,.1-.63L6.84,52.6C1.84,51.79,0,48.18,0,44.77c0-4.38,2.8-8.56,7.47-11.46C7.53,17.11,24.94-.06,57.12,0c14.56,0,27,3.6,36,10.33,8.23,6.16,13,14.62,12.93,23.21V35.3c0,.11,0,.22,0,.33v5.61h.58a4.18,4.18,0,0,1,1.75.39,8.31,8.31,0,0,1,2.55-.38,7.08,7.08,0,0,1-.14,14.16,6.14,6.14,0,0,1-2-.34l-.85,4L109,59h.23a4.13,4.13,0,0,1,4.12,3.92l.06,1.2a4,4,0,0,1,.5,1.76l.13,2.42a4.14,4.14,0,0,1-3.92,4.35l-1.56.08c-.15,0-.23,0-.27,0s-.44.3-.67.47c-.44.32-1,.71-1.64,1.11v3.57c0,8.08-3.4,13.47-10,16-5.31,2-12.09,2-19.27,2Z" class="cls-2"/><path d="M101.91,33.44c0-13.88-15.19-29.3-44.88-29.3S11.57,19.56,11.57,33.44v2.1h90.34Z" class="cls-3"/><path d="M47.28,8.23H44.35a.38.38,0,0,0-.34.22,1.66,1.66,0,0,0-.11.62A1.72,1.72,0,0,0,44,9.7a.38.38,0,0,0,.34.22h2.93a.37.37,0,0,0,.34-.23,2,2,0,0,0,0-1.24A.38.38,0,0,0,47.28,8.23Z" class="cls-4"/><path d="M58.26,8.23H55.32a.37.37,0,0,0-.33.22,1.66,1.66,0,0,0-.11.62A1.67,1.67,0,0,0,55,9.7a.37.37,0,0,0,.33.22h2.94a.37.37,0,0,0,.34-.23,2,2,0,0,0,0-1.24A.38.38,0,0,0,58.26,8.23Z" class="cls-4"/><path d="M69.24,8.23H66.3a.36.36,0,0,0-.33.22,1.8,1.8,0,0,0,0,1.24.36.36,0,0,0,.33.23h2.94a.35.35,0,0,0,.33-.23,1.66,1.66,0,0,0,.11-.62,1.64,1.64,0,0,0-.11-.61A.35.35,0,0,0,69.24,8.23Z" class="cls-4"/><path d="M41.77,14.77H38.83a.36.36,0,0,0-.33.23,1.8,1.8,0,0,0,0,1.24.36.36,0,0,0,.33.22h2.94a.35.35,0,0,0,.33-.22,1.8,1.8,0,0,0,0-1.24A.36.36,0,0,0,41.77,14.77Z" class="cls-4"/><path d="M52.75,14.77H49.81a.35.35,0,0,0-.33.23,1.8,1.8,0,0,0,0,1.24.35.35,0,0,0,.33.22h2.94a.37.37,0,0,0,.33-.22,1.8,1.8,0,0,0,0-1.24A.37.37,0,0,0,52.75,14.77Z" class="cls-4"/><path d="M30.84,14.77H27.9a.36.36,0,0,0-.33.23,1.8,1.8,0,0,0,0,1.24.36.36,0,0,0,.33.22h2.94a.36.36,0,0,0,.33-.22,1.66,1.66,0,0,0,.11-.62,1.61,1.61,0,0,0-.11-.62A.37.37,0,0,0,30.84,14.77Z" class="cls-4"/><path d="M63.72,14.77H60.79a.37.37,0,0,0-.34.23,2,2,0,0,0,0,1.24.38.38,0,0,0,.34.22h2.93a.38.38,0,0,0,.34-.22,1.8,1.8,0,0,0,0-1.24A.37.37,0,0,0,63.72,14.77Z" class="cls-4"/><path d="M74.7,14.77H71.77a.38.38,0,0,0-.34.23,1.8,1.8,0,0,0,0,1.24.38.38,0,0,0,.34.22H74.7a.38.38,0,0,0,.34-.22A1.8,1.8,0,0,0,75,15,.37.37,0,0,0,74.7,14.77Z" class="cls-4"/><path d="M85.68,14.77H82.75a.37.37,0,0,0-.34.23,1.7,1.7,0,0,0-.11.62,1.66,1.66,0,0,0,.11.62.36.36,0,0,0,.34.22h2.93a.38.38,0,0,0,.34-.22A2,2,0,0,0,86,15,.38.38,0,0,0,85.68,14.77Z" class="cls-4"/><path d="M47.28,21.62H44.35a.36.36,0,0,0-.34.22,1.8,1.8,0,0,0,0,1.24.36.36,0,0,0,.34.22h2.93a.38.38,0,0,0,.34-.22,1.76,1.76,0,0,0,.1-.62,1.71,1.71,0,0,0-.1-.62A.36.36,0,0,0,47.28,21.62Z" class="cls-4"/><path d="M58.26,21.62H55.32a.36.36,0,0,0-.33.22,1.8,1.8,0,0,0,0,1.24.36.36,0,0,0,.33.22h2.94a.38.38,0,0,0,.34-.22,1.71,1.71,0,0,0,.1-.62,1.47,1.47,0,0,0-.11-.62A.34.34,0,0,0,58.26,21.62Z" class="cls-4"/><path d="M69.24,21.62H66.3a.35.35,0,0,0-.33.22,1.8,1.8,0,0,0,0,1.24.35.35,0,0,0,.33.22h2.94a.35.35,0,0,0,.33-.22,1.8,1.8,0,0,0,0-1.24A.35.35,0,0,0,69.24,21.62Z" class="cls-4"/><path d="M52.75,28.16H49.81a.35.35,0,0,0-.33.23,1.66,1.66,0,0,0-.11.62,1.59,1.59,0,0,0,.11.61.35.35,0,0,0,.33.23h2.94a.37.37,0,0,0,.33-.23,1.55,1.55,0,0,0,.11-.61,1.66,1.66,0,0,0-.11-.62A.37.37,0,0,0,52.75,28.16Z" class="cls-4"/><path d="M63.72,28.16H60.79a.37.37,0,0,0-.34.23,2,2,0,0,0-.1.62,1.6,1.6,0,0,0,.1.61.37.37,0,0,0,.34.23h2.93a.37.37,0,0,0,.34-.23,1.55,1.55,0,0,0,.11-.61,1.66,1.66,0,0,0-.11-.62A.37.37,0,0,0,63.72,28.16Z" class="cls-4"/><path d="M80.12,21.62H77.28a.38.38,0,0,0-.34.22,2,2,0,0,0,0,1.24.38.38,0,0,0,.34.22h2.84a.38.38,0,0,0,.34-.22,1.8,1.8,0,0,0,0-1.24A.38.38,0,0,0,80.12,21.62Z" class="cls-4"/><path d="M91.44,21.84a.38.38,0,0,0-.34-.22H88.17a.38.38,0,0,0-.34.22,1.8,1.8,0,0,0,0,1.24.38.38,0,0,0,.34.22H91.1a.38.38,0,0,0,.34-.22,2,2,0,0,0,0-1.24Z" class="cls-4"/><path d="M85.68,28.16h-3a.35.35,0,0,0-.33.23,1.66,1.66,0,0,0-.11.62,1.64,1.64,0,0,0,.11.61.35.35,0,0,0,.33.23h3a.37.37,0,0,0,.34-.23,1.69,1.69,0,0,0,.1-.61,1.71,1.71,0,0,0-.1-.62A.37.37,0,0,0,85.68,28.16Z" class="cls-4"/><path d="M74.66,28.16H71.77a.37.37,0,0,0-.34.23,1.66,1.66,0,0,0-.11.62,1.64,1.64,0,0,0,.11.61.37.37,0,0,0,.34.23h2.89a.37.37,0,0,0,.34-.23,1.69,1.69,0,0,0,.1-.61,1.71,1.71,0,0,0-.1-.62A.37.37,0,0,0,74.66,28.16Z" class="cls-4"/><path d="M25.31,21.62H22.38a.38.38,0,0,0-.34.22,2,2,0,0,0,0,1.24.38.38,0,0,0,.34.22h2.93a.38.38,0,0,0,.34-.22,1.8,1.8,0,0,0,0-1.24A.36.36,0,0,0,25.31,21.62Z" class="cls-4"/><path d="M36.29,21.62H33.37a.38.38,0,0,0-.34.22,1.8,1.8,0,0,0,0,1.24.36.36,0,0,0,.34.22h2.92a.38.38,0,0,0,.34-.22,2,2,0,0,0,0-1.24A.36.36,0,0,0,36.29,21.62Z" class="cls-4"/><path d="M30.78,28.16H27.9a.37.37,0,0,0-.33.23,1.66,1.66,0,0,0-.11.62,1.55,1.55,0,0,0,.11.61.36.36,0,0,0,.33.23h2.88a.35.35,0,0,0,.33-.23,1.55,1.55,0,0,0,.11-.61,1.66,1.66,0,0,0-.11-.62A.36.36,0,0,0,30.78,28.16Z" class="cls-4"/><path d="M42,28.24a.32.32,0,0,0-.21-.08H38.83a.36.36,0,0,0-.33.23,1.66,1.66,0,0,0-.11.62,1.55,1.55,0,0,0,.11.61.36.36,0,0,0,.33.23h2.94a.36.36,0,0,0,.33-.22,1.66,1.66,0,0,0,.11-.62,1.56,1.56,0,0,0-.11-.62A.28.28,0,0,0,42,28.24Z" class="cls-4"/><path d="M101.9,45.23c0,.87,0,1.57-.88,1.57H12.46c-.87,0-.87-.7-.87-1.57v-3c0-.87,0-1.57.87-1.57H101c.87,0,.88.7.88,1.57Z" class="cls-5"/><rect width="90.35" height="2.38" x="11.57" y="36.87" class="cls-6"/><polygon points="70.03 37.7 56.98 45.55 43.45 37.7 70.03 37.7" class="cls-6"/><path d="M11.59,75.69v2.09c0,13.89,11.25,14,25.14,14H76.78c13.88,0,25.14-.07,25.14-14V75.69Z" class="cls-3"/><path d="M16.05,78.26c0,2.19.17,3.7,3.19,2.19a26.45,26.45,0,0,1,14.44-3.36c-2.85.84-6.21,2.35-6.55,4.36s1.68,2.86,6.05,1.85c.5,1.85,2.35,3.86,6.21.5s6-4.7,7.89-5.37,2.35.34.34,1.51-3.87,1.85-4.2,3.19,0,3.53,3.36,2.52c0,2.35.67,4.37,3.52,4.37s4-1.51,4-4.37c1.85,1,4.54,1.68,4.7-2s1.85-5.38,3.53-6.22,2,.73.84,1.18a3.07,3.07,0,0,0-2.18,2.85c0,1.51,2.55,3.75,5.2,1,.2,1.62,3.19,2.69,4.2-.67s1.29-5.44,4.36-5.54c-2.1.76-3.35,3.86-.67,4.87s4-1.51,4.37-2.35a3.5,3.5,0,0,1,3.69-2.52c-2.17,1-2.18,4.36,0,4.53s3-.5,4.7-2a11.36,11.36,0,0,1,9.24-2.52c-.84,2.18.68,3.06,2,2.8,1.66-.32,1.51-2.13,2-3.36H14.29v0C12.94,76.59,12,80.11,16.05,78.26Z" class="cls-7"/><path d="M7.05,70.73a5.31,5.31,0,0,1,3.5,1,11.08,11.08,0,0,0,6.79,1.74A11.12,11.12,0,0,0,23.91,71a5.6,5.6,0,0,1,6.87-.38,11.64,11.64,0,0,0,13.36-.72A5.63,5.63,0,0,1,51,69.53a11.67,11.67,0,0,0,13.36-.73,5.6,5.6,0,0,1,6.87-.36,11.68,11.68,0,0,0,13.37-.73,5.62,5.62,0,0,1,6.87-.37,11.71,11.71,0,0,0,13.37-.72,5.3,5.3,0,0,1,3.37-1.37l1.16-.06L109.27,63l-1.16.07a11.43,11.43,0,0,0-6.78,2.54,5.21,5.21,0,0,1-6.44.35,12,12,0,0,0-13.8.75,5.23,5.23,0,0,1-6.44.34,12.1,12.1,0,0,0-13.8.75,5.2,5.2,0,0,1-6.43.35,12.07,12.07,0,0,0-13.81.75,5.22,5.22,0,0,1-6.43.34,11.38,11.38,0,0,0-7-1.79A11.43,11.43,0,0,0,20.38,70a5.2,5.2,0,0,1-6.43.35,11.44,11.44,0,0,0-7-1.8l-1.16.06.12,2.18Z" class="cls-5"/><path d="M105.34,67.27A12.49,12.49,0,0,1,91.09,68a4.84,4.84,0,0,0-6,.32,12.52,12.52,0,0,1-14.25.78,4.58,4.58,0,0,0-3-.89,4.49,4.49,0,0,0-2.94,1.21,11.85,11.85,0,0,1-7,2.62,11.72,11.72,0,0,1-7.24-1.85,4.82,4.82,0,0,0-6,.32,11.69,11.69,0,0,1-7,2.62,11.82,11.82,0,0,1-7.24-1.84,4.8,4.8,0,0,0-6,.32,11.85,11.85,0,0,1-7,2.62,11.79,11.79,0,0,1-7.24-1.85,4.61,4.61,0,0,0-3.06-.89l-1.56.09L5.66,74,7.22,74a5,5,0,0,1,3.28.94,11.44,11.44,0,0,0,7,1.8,11.43,11.43,0,0,0,6.78-2.54,5.2,5.2,0,0,1,6.43-.35,12.07,12.07,0,0,0,13.81-.75A5.18,5.18,0,0,1,51,72.71,12.1,12.1,0,0,0,64.77,72a5.2,5.2,0,0,1,6.43-.35A12.07,12.07,0,0,0,85,70.86a4.93,4.93,0,0,1,3.15-1.28,4.87,4.87,0,0,1,3.28.94,12.11,12.11,0,0,0,13.81-.75,4.92,4.92,0,0,1,3.16-1.29L110,68.4,109.84,66l-1.57.08A4.59,4.59,0,0,0,105.34,67.27Z" class="cls-5"/><path d="M21.22,37.74,19.06,47h.27C23,47,26,43.38,26,40.25c0-2.39-1.7-4.52-6.07-4.52C14.51,35.73,8.4,39,8.4,45.89A5.53,5.53,0,0,0,9,48.74c-3,0-4.91-1.05-4.91-3.85,0-5.77,8-11.08,16.67-11.08,6.76,0,9.79,3.22,9.79,6.65,0,2.47-1.61,5.1-4.6,6.65,3.91.71,5.43,3.59,5.43,6.73,0,4-2.39,12-10.07,12-2,0-4.54-.54-4.54-3.09a6.3,6.3,0,0,1,.59-2.43,4.31,4.31,0,0,0,3.08,1.51c3.36,0,4.55-4.35,4.55-7.53C25,51.41,24,49,20.67,49c-.37,0-1.29,0-2.12.12l-3.76,16H8.17l6.25-26.6Z" class="cls-8"/><path d="M21.35,67.76a7,7,0,0,1-5-1.59,1.87,1.87,0,0,1-1.58.88H8.17a1.91,1.91,0,0,1-1.47-.71,1.87,1.87,0,0,1-.35-1.6L9.69,50.5a2,2,0,0,1-.65.11c-6.13,0-6.79-4-6.79-5.72,0-6.9,8.67-13,18.55-13,8.06,0,11.66,4.28,11.66,8.53a8.88,8.88,0,0,1-2.67,6.16,8.31,8.31,0,0,1,3.5,7.22C33.29,59.22,30.05,67.76,21.35,67.76Zm-2.23-4.19a4.17,4.17,0,0,0,2.23.44c6.69,0,8.19-7.53,8.19-10.17,0-1.91-.67-4.31-3.88-4.89a1.87,1.87,0,0,1-1.52-1.57.49.49,0,0,1,0-.12,8,8,0,0,1-.68.45c1.74.78,3.45,2.57,3.45,6.63,0,4.53-2,9.4-6.42,9.4A5.12,5.12,0,0,1,19.12,63.57Zm-8.58-.27H13.3l3.43-14.58a1.84,1.84,0,0,1,.59-1,1.93,1.93,0,0,1-.09-1.14l1.55-6.67-2.84.35Zm7.7-4.62a1.76,1.76,0,0,1,.45.32c1,.92,1.4,1,1.79,1,1.85,0,2.67-3.3,2.67-5.65,0-3.44-1.49-3.44-2.48-3.44l-.61,0ZM11.92,41a7.49,7.49,0,0,0-1.65,4.86,3.93,3.93,0,0,0,.18,1.39Zm-4.41.14A6,6,0,0,0,6,44.89a1.6,1.6,0,0,0,.53,1.45c0-.14,0-.29,0-.45A11.93,11.93,0,0,1,7.51,41.17ZM23,38.28l-1.43,6.16a5.38,5.38,0,0,0,2.49-4.19A2.17,2.17,0,0,0,23,38.28Zm4.1-.92a6.17,6.17,0,0,1,.71,2.89,8.42,8.42,0,0,1-1.2,4.19,5.4,5.4,0,0,0,2.09-4A3.83,3.83,0,0,0,27.11,37.36Z" class="cls-2"/><path d="M49.81,45.28,46.94,58.83a5.48,5.48,0,0,0-.16,1.27c0,1.12.52,1.48,1.63,1.48,1.56,0,2.63-1.52,3.23-3.51h1.68c-2.28,6.5-5.86,7.37-8,7.37s-3.71-1.31-4-3.78c-2,3.26-4.22,3.78-5.9,3.78-2.39,0-4.26-1.43-4.26-4.78a13,13,0,0,1,.32-2.59l2.71-12.79H40L37.1,58.83A5.53,5.53,0,0,0,37,59.94c0,.92.31,1.64,1.19,1.64,1.56,0,2.59-1.52,3.19-3.51l2.71-12.79Z" class="cls-8"/><path d="M45.31,67.05a5.2,5.2,0,0,1-4.48-2.15,7.51,7.51,0,0,1-5.37,2.15c-3.56,0-5.86-2.51-5.86-6.39A14.25,14.25,0,0,1,30,57.74L32.66,45a1.6,1.6,0,0,1,1.57-1.27H40a1.59,1.59,0,0,1,1.25.59,1.61,1.61,0,0,1,.32,1.34L38.66,59.16a4.45,4.45,0,0,0-.08.68,4.39,4.39,0,0,0,1.23-2.17L42.5,45a1.6,1.6,0,0,1,1.57-1.27h5.74a1.61,1.61,0,0,1,1.57,1.93L48.51,59.16a4.79,4.79,0,0,0-.13.82h0c.6,0,1.27-.93,1.7-2.37a1.6,1.6,0,0,1,1.53-1.14h1.68a1.59,1.59,0,0,1,1.3.67,1.62,1.62,0,0,1,.21,1.46C52.39,65.58,48.3,67.05,45.31,67.05ZM42.2,60.29A1.57,1.57,0,0,1,43,61.5c.21,2.08,1.37,2.34,2.36,2.34a5.16,5.16,0,0,0,2.59-.68,2.83,2.83,0,0,1-2.72-3.06,6.91,6.91,0,0,1,.2-1.63l2.45-11.59H45.37L42.93,58.4l0,.13A10.57,10.57,0,0,1,42.2,60.29ZM35.52,46.88,33.08,58.4a12.09,12.09,0,0,0-.28,2.26c0,2.14.87,3.18,2.66,3.18a4.28,4.28,0,0,0,2.41-.67c-1.21-.13-2.49-1-2.49-3.23a7.33,7.33,0,0,1,.14-1.42L38,46.88Z" class="cls-2"/><path d="M60.09,45.28l-.52,2.47c1.39-1.2,2.91-2.47,4.82-2.47a3,3,0,0,1-.12,5.9c-2.23,0-1.11-2.63-2.31-2.63s-1.91.59-2.91,1.51L55.86,65.21H50.12l4.23-19.93Z" class="cls-8"/><path d="M55.86,66.81H50.12a1.61,1.61,0,0,1-1.56-1.94L52.78,45a1.6,1.6,0,0,1,1.57-1.27h5.74a1.57,1.57,0,0,1,1.24.59l.11.15a6.47,6.47,0,0,1,3-.74,4.55,4.55,0,0,1-.12,9.1,3,3,0,0,1-3.07-2.42,7.26,7.26,0,0,0-.69.54L57.43,65.54A1.61,1.61,0,0,1,55.86,66.81ZM52.1,63.6h2.46l2.92-13.87a1.63,1.63,0,0,1,.49-.85l.27-.24A1.58,1.58,0,0,1,58,47.42l.11-.54H55.65ZM63,47.21a2.84,2.84,0,0,1,1.2,2c0,.1,0,.22.07.32a1.19,1.19,0,0,0,1.23-1.3c0-.15,0-1.39-1.15-1.39A3.12,3.12,0,0,0,63,47.21Z" class="cls-2"/><path d="M84.14,45.28,80.2,63.77c2.42-.88,3.9-2.23,5-5.7h1.67c-1.55,5.26-4.58,6.78-7,7.45l-.6,2.87c-1.2,5.7-4.55,6.78-7.18,6.78-2.43,0-4.46-1.28-4.46-3.87,0-3.35,3.51-5,6.5-5.94l.48-2.11a6.41,6.41,0,0,1-4.79,2.19c-2.71,0-5.3-1.67-5.3-6.41,0-5.38,3.31-14,10.24-14,2.28,0,3.23.87,3.23,2v.24l.44-2.07Zm-13,26.78c.84,0,1.79-1.2,2.31-3.55l.24-1.15c-2,.75-3.91,1.79-3.91,3.38A1.36,1.36,0,0,0,71.15,72.06Zm-.76-13.59c0,3.07,1.28,3.11,2,3.11a3.89,3.89,0,0,0,3.19-3.11l2-9.45A1.57,1.57,0,0,0,76,47.55C72.58,47.55,70.39,54.72,70.39,58.47Z" class="cls-8"/><path d="M72.06,76.77c-3.62,0-6.06-2.2-6.06-5.47a6.05,6.05,0,0,1,2-4.48c-2.69-.67-5.07-3-5.07-7.79,0-6.52,4.12-15.55,11.84-15.55a6.56,6.56,0,0,1,2.73.5,1.64,1.64,0,0,1,.94-.3h5.74a1.59,1.59,0,0,1,1.57,1.93L82.64,60a10.92,10.92,0,0,0,1-2.41,1.61,1.61,0,0,1,1.53-1.11h1.67a1.61,1.61,0,0,1,1.54,2.05c-1.61,5.44-4.7,7.38-7.22,8.25l-.4,2C79.41,75.37,75.28,76.77,72.06,76.77Zm-.2-3.21h.2c1.92,0,4.57-.57,5.61-5.51l.6-2.86a1.57,1.57,0,0,1,.44-.82,1.61,1.61,0,0,1-.08-.95l3.53-16.55H79.7l-.17.8a1.55,1.55,0,0,1-.4.77,3,3,0,0,1,.07.43,1.94,1.94,0,0,1,0,.48l-2,9.44a6.48,6.48,0,0,1-1.78,3.05,1.61,1.61,0,0,1,.78,1.76l-.48,2.11a1.6,1.6,0,0,1-.55.88,1.62,1.62,0,0,1,.16,1.08L75,68.84C74.44,71.49,73.31,73.15,71.86,73.56Zm1.55-26.74c-5.09,1.09-7.32,8.35-7.32,12.21,0,3.15,1.28,4.81,3.7,4.81a4.55,4.55,0,0,0,2.39-.66c-1.6-.07-3.39-1-3.39-4.71C68.79,55.58,70.19,49.15,73.41,46.82ZM72.21,60h.17A2.5,2.5,0,0,0,74,58l1.9-8.87c-1.6.13-3.94,5-3.94,9.3A3.44,3.44,0,0,0,72.21,60Z" class="cls-2"/><path d="M92.15,62.1c3.15,0,5.06-1.76,7-4h1.36c-2.27,3.67-5.66,7.37-11,7.37-3.75,0-6.22-1.83-6.22-6.33S86,44.92,94.14,44.92c3.55,0,4.38,1.83,4.38,3.82,0,4.59-4.38,8.13-9.16,8.41,0,.56-.08,1.12-.08,1.6C89.28,61.46,90.23,62.1,92.15,62.1ZM94.46,47c-2,0-4,4.27-4.78,8.21,3.07-.2,5.78-3.27,5.78-6.58C95.46,47.67,95.22,47,94.46,47Z" class="cls-8"/><path d="M89.6,67.05c-5,0-7.82-2.9-7.82-7.94s3-15.79,12.36-15.79c3.8,0,6,2,6,5.42,0,4.75-4,8.93-9.25,9.85v.16c0,1.74.19,1.74,1.27,1.74C94.51,60.49,96,59.32,98,57a1.61,1.61,0,0,1,1.2-.54h1.36a1.6,1.6,0,0,1,1.36,2.44C98.53,64.39,94.5,67.05,89.6,67.05ZM91.49,47C86.16,49,85,56.79,85,59.11c0,3.27,1.43,4.73,4.62,4.73a9.23,9.23,0,0,0,1.83-.18c-2.53-.24-3.75-1.86-3.75-4.91,0-.52,0-1.12.08-1.72a1.58,1.58,0,0,1,.5-1,1.58,1.58,0,0,1-.15-1.07C88.25,54.21,89.27,49.48,91.49,47Zm2.34,2.19a11.67,11.67,0,0,0-1.73,3.32A5.41,5.41,0,0,0,93.83,49.17Z" class="cls-2"/><path d="M106.64,45.28l-.52,2.47c1.4-1.2,2.91-2.47,4.82-2.47a3,3,0,0,1-.12,5.9c-2.23,0-1.11-2.63-2.31-2.63s-1.91.59-2.91,1.51l-3.19,15.15H96.67l4.23-19.93Z" class="cls-8"/><path d="M102.41,66.81H96.67a1.58,1.58,0,0,1-1.24-.6,1.6,1.6,0,0,1-.32-1.34L99.33,45a1.6,1.6,0,0,1,1.57-1.27h5.74a1.57,1.57,0,0,1,1.24.59l.11.15a6.47,6.47,0,0,1,3-.74,4.55,4.55,0,0,1-.12,9.1,3,3,0,0,1-3.06-2.42,6.12,6.12,0,0,0-.7.54L104,65.54A1.61,1.61,0,0,1,102.41,66.81ZM98.65,63.6h2.46L104,49.73a1.55,1.55,0,0,1,.48-.85l.27-.24a1.58,1.58,0,0,1-.24-1.22l.12-.54H102.2Zm10.94-16.39a2.84,2.84,0,0,1,1.2,2c0,.1,0,.22.07.32a1.2,1.2,0,0,0,1.23-1.3c0-.15,0-1.39-1.15-1.39A3.12,3.12,0,0,0,109.59,47.21Z" class="cls-2"/><path d="M21.22,37.74,19.06,47h.27C23,47,26,43.38,26,40.25c0-2.39-1.7-4.52-6.07-4.52C14.51,35.73,8.4,39,8.4,45.89A5.53,5.53,0,0,0,9,48.74c-3,0-4.91-1.05-4.91-3.85,0-5.77,8-11.08,16.67-11.08,6.76,0,9.79,3.22,9.79,6.65,0,2.47-1.61,5.1-4.6,6.65,3.91.71,5.43,3.59,5.43,6.73,0,4-2.39,12-10.07,12-2,0-4.54-.54-4.54-3.09a6.3,6.3,0,0,1,.59-2.43,4.31,4.31,0,0,0,3.08,1.51c3.36,0,4.55-4.35,4.55-7.53C25,51.41,24,49,20.67,49c-.37,0-1.29,0-2.12.12l-3.76,16H8.17l6.25-26.6Z" class="cls-9"/><path d="M49.81,45.28,46.94,58.83a5.48,5.48,0,0,0-.16,1.27c0,1.12.52,1.48,1.63,1.48,1.56,0,2.63-1.52,3.23-3.51h1.68c-2.28,6.5-5.86,7.37-8,7.37s-3.71-1.31-4-3.78c-2,3.26-4.22,3.78-5.9,3.78-2.39,0-4.26-1.43-4.26-4.78a13,13,0,0,1,.32-2.59l2.71-12.79H40L37.1,58.83A5.53,5.53,0,0,0,37,59.94c0,.92.31,1.64,1.19,1.64,1.56,0,2.59-1.52,3.19-3.51l2.71-12.79Z" class="cls-9"/><path d="M60.09,45.28l-.52,2.47c1.39-1.2,2.91-2.47,4.82-2.47a3,3,0,0,1-.12,5.9c-2.23,0-1.11-2.63-2.31-2.63s-1.91.59-2.91,1.51L55.86,65.21H50.12l4.23-19.93Z" class="cls-9"/><path d="M84.14,45.28,80.2,63.77c2.42-.88,3.9-2.23,5-5.7h1.67c-1.55,5.26-4.58,6.78-7,7.45l-.6,2.87c-1.2,5.7-4.55,6.78-7.18,6.78-2.43,0-4.46-1.28-4.46-3.87,0-3.35,3.51-5,6.5-5.94l.48-2.11a6.41,6.41,0,0,1-4.79,2.19c-2.71,0-5.3-1.67-5.3-6.41,0-5.38,3.31-14,10.24-14,2.28,0,3.23.87,3.23,2v.24l.44-2.07Zm-13,26.78c.84,0,1.79-1.2,2.31-3.55l.24-1.15c-2,.75-3.91,1.79-3.91,3.38A1.36,1.36,0,0,0,71.15,72.06Zm-.76-13.59c0,3.07,1.28,3.11,2,3.11a3.89,3.89,0,0,0,3.19-3.11l2-9.45A1.57,1.57,0,0,0,76,47.55C72.58,47.55,70.39,54.72,70.39,58.47Z" class="cls-9"/><path d="M92.15,62.1c3.15,0,5.06-1.76,7-4h1.36c-2.27,3.67-5.66,7.37-11,7.37-3.75,0-6.22-1.83-6.22-6.33S86,44.92,94.14,44.92c3.55,0,4.38,1.83,4.38,3.82,0,4.59-4.38,8.13-9.16,8.41,0,.56-.08,1.12-.08,1.6C89.28,61.46,90.23,62.1,92.15,62.1ZM94.46,47c-2,0-4,4.27-4.78,8.21,3.07-.2,5.78-3.27,5.78-6.58C95.46,47.67,95.22,47,94.46,47Z" class="cls-9"/><path d="M106.64,45.28l-.52,2.47c1.4-1.2,2.91-2.47,4.82-2.47a3,3,0,0,1-.12,5.9c-2.23,0-1.11-2.63-2.31-2.63s-1.91.59-2.91,1.51l-3.19,15.15H96.67l4.23-19.93Z" class="cls-9"/><path d="M31,76.55l3.45-10.06h2.15V76.55l3.53-10.06h1.15L36.68,78.74H34.24V70.37L31,78.74H28.58V67.51a3.52,3.52,0,0,0-2.67,3.65,2.4,2.4,0,0,0,.23,1.12c-1.13,0-1.76-.41-1.76-1.6,0-2.18,3-4.27,5.77-4.27.23,0,.45,0,.66,0Z" class="cls-8"/><path d="M36.68,80.34H34.24a1.61,1.61,0,0,1-1.59-1.45l-.17.43a1.6,1.6,0,0,1-1.49,1H28.58A1.61,1.61,0,0,1,27,78.74V73.65a1.57,1.57,0,0,1-.83.23,3,3,0,0,1-3.36-3.2c0-3.3,4-5.87,7.37-5.87.27,0,.53,0,.78,0a1.59,1.59,0,0,1,1.48,1.57l0,.92L32.89,66a1.61,1.61,0,0,1,1.52-1.08h2.15a1.6,1.6,0,0,1,1.6,1.6v.67l.42-1.2a1.61,1.61,0,0,1,1.51-1.07h1.15a1.61,1.61,0,0,1,1.32.69,1.57,1.57,0,0,1,.18,1.47L38.18,79.3A1.62,1.62,0,0,1,36.68,80.34Z" class="cls-2"/><path d="M42.35,77.45a3.75,3.75,0,0,0,2.91-1.66h.56c-.94,1.51-2.33,3-4.52,3a2.3,2.3,0,0,1-2.56-2.61c0-1.89,1.06-5.85,4.43-5.85,1.47,0,1.81.76,1.81,1.58,0,1.89-1.81,3.35-3.78,3.46,0,.24,0,.46,0,.66C41.17,77.19,41.56,77.45,42.35,77.45Zm1-6.21c-.84,0-1.65,1.76-2,3.39a2.76,2.76,0,0,0,2.39-2.71C43.72,71.5,43.62,71.24,43.31,71.24Z" class="cls-8"/><path d="M41.3,80.43a3.88,3.88,0,0,1-4.16-4.21c0-3.09,1.87-7.45,6-7.45,2.11,0,3.41,1.22,3.41,3.18A4.61,4.61,0,0,1,46,74.2a1.61,1.61,0,0,1,1.19,2.44C45.62,79.16,43.64,80.43,41.3,80.43Z" class="cls-2"/><path d="M48.66,77.45a3.75,3.75,0,0,0,2.91-1.66h.56c-.94,1.51-2.34,3-4.52,3a2.3,2.3,0,0,1-2.56-2.61c0-1.89,1.06-5.85,4.43-5.85,1.46,0,1.81.76,1.81,1.58,0,1.89-1.81,3.35-3.78,3.46q0,.36,0,.66C47.48,77.19,47.87,77.45,48.66,77.45Zm1-6.21c-.83,0-1.64,1.76-2,3.39A2.75,2.75,0,0,0,50,71.92C50,71.5,49.93,71.24,49.61,71.24Z" class="cls-8"/><path d="M47.61,80.43a3.89,3.89,0,0,1-4.17-4.21c0-3.09,1.88-7.45,6-7.45,2.1,0,3.41,1.22,3.41,3.18a4.61,4.61,0,0,1-.59,2.25,1.63,1.63,0,0,1,1.23.82,1.59,1.59,0,0,1,0,1.62C51.93,79.16,50,80.43,47.61,80.43Z" class="cls-2"/><path d="M59.32,70.52,56,72.8a3.31,3.31,0,0,1,.54-.06,1.74,1.74,0,0,1,1.81,1.92,2.68,2.68,0,0,1-.07.62l-.18.83a2.83,2.83,0,0,0-.08.52c0,.33.13.61.64.61a1,1,0,0,0,.57-.1,1.8,1.8,0,0,1-1.53,1.69c-1.34,0-2.07-.67-2.07-1.87a4.54,4.54,0,0,1,.1-.85l.14-.65a3.29,3.29,0,0,0,.06-.6c0-.48-.16-.79-.59-.79a2.06,2.06,0,0,0-1.22.61l-.85,4.06H50.94l2.39-11.18,2.43-.33L54.53,73l3.17-2.5Z" class="cls-8"/><path d="M57.74,80.43a3.65,3.65,0,0,1-2.91-1.2,1.59,1.59,0,0,1-1.52,1.11H50.94a1.61,1.61,0,0,1-1.56-1.94l2.38-11.17A1.61,1.61,0,0,1,53.11,66l2.43-.33a1.6,1.6,0,0,1,1.39.5,1.57,1.57,0,0,1,.39,1.42L57,69.08a1.53,1.53,0,0,1,.7-.16h1.62a1.6,1.6,0,0,1,.92,2.91l-.91.64A3.69,3.69,0,0,1,60,74.66a4.48,4.48,0,0,1-.11,1v0a1.46,1.46,0,0,1,.3.17,1.59,1.59,0,0,1,.7,1.4A3.37,3.37,0,0,1,57.74,80.43Zm.84-4.74Z" class="cls-2"/><path d="M31,76.55l3.45-10.06h2.15V76.55l3.53-10.06h1.15L36.68,78.74H34.24V70.37L31,78.74H28.58V67.51a3.52,3.52,0,0,0-2.67,3.65,2.4,2.4,0,0,0,.23,1.12c-1.13,0-1.76-.41-1.76-1.6,0-2.18,3-4.27,5.77-4.27.23,0,.45,0,.66,0Z" class="cls-9"/><path d="M42.35,77.45a3.75,3.75,0,0,0,2.91-1.66h.56c-.94,1.51-2.33,3-4.52,3a2.3,2.3,0,0,1-2.56-2.61c0-1.89,1.06-5.85,4.43-5.85,1.47,0,1.81.76,1.81,1.58,0,1.89-1.81,3.35-3.78,3.46,0,.24,0,.46,0,.66C41.17,77.19,41.56,77.45,42.35,77.45Zm1-6.21c-.84,0-1.65,1.76-2,3.39a2.76,2.76,0,0,0,2.39-2.71C43.72,71.5,43.62,71.24,43.31,71.24Z" class="cls-9"/><path d="M48.66,77.45a3.75,3.75,0,0,0,2.91-1.66h.56c-.94,1.51-2.34,3-4.52,3a2.3,2.3,0,0,1-2.56-2.61c0-1.89,1.06-5.85,4.43-5.85,1.46,0,1.81.76,1.81,1.58,0,1.89-1.81,3.35-3.78,3.46q0,.36,0,.66C47.48,77.19,47.87,77.45,48.66,77.45Zm1-6.21c-.83,0-1.64,1.76-2,3.39A2.75,2.75,0,0,0,50,71.92C50,71.5,49.93,71.24,49.61,71.24Z" class="cls-9"/><path d="M59.32,70.52,56,72.8a3.31,3.31,0,0,1,.54-.06,1.74,1.74,0,0,1,1.81,1.92,2.68,2.68,0,0,1-.07.62l-.18.83a2.83,2.83,0,0,0-.08.52c0,.33.13.61.64.61a1,1,0,0,0,.57-.1,1.8,1.8,0,0,1-1.53,1.69c-1.34,0-2.07-.67-2.07-1.87a4.54,4.54,0,0,1,.1-.85l.14-.65a3.29,3.29,0,0,0,.06-.6c0-.48-.16-.79-.59-.79a2.06,2.06,0,0,0-1.22.61l-.85,4.06H50.94l2.39-11.18,2.43-.33L54.53,73l3.17-2.5Z" class="cls-9"/><rect width="8.33" height="4.3" x="65.24" y="32.1" class="cls-2"/><path d="M31.55,36.57c-2.43,0-4.06-1.45-4.06-3.6a3.43,3.43,0,0,1,1.89-3.18,3.51,3.51,0,0,1-.45-1.69c0-2.1,1.85-3.69,4.29-3.69,2.08,0,3.48,1.21,3.48,3a2.84,2.84,0,0,1-1,2.22,4.4,4.4,0,0,1,.69,2.43A4.55,4.55,0,0,1,31.55,36.57Z" class="cls-2"/><path d="M34.14,28.58a.7.7,0,0,1-.54-.24,1.2,1.2,0,0,0,.53-1c0-.4-.22-.77-.86-.77a1,1,0,0,0-1.07,1.05c0,1.71,2.61,1.94,2.61,4.44,0,1.95-1.58,2.9-3.26,2.9-1.32,0-2.45-.58-2.45-2a1.77,1.77,0,0,1,1.7-1.91.91.91,0,0,1,1,.77c-.63,0-1.36.29-1.36,1.09A1.06,1.06,0,0,0,31.58,34a1.36,1.36,0,0,0,1.34-1.54c0-2-2.38-2.69-2.38-4.39,0-1.21,1.19-2.08,2.68-2.08.55,0,1.87.12,1.87,1.39C35.09,28.08,34.72,28.58,34.14,28.58Z" class="cls-2"/><path d="M37.05,36.4a3.22,3.22,0,0,1-3.42-3.46c0-2.38,1.47-5.73,4.74-5.73a2.62,2.62,0,0,1,2.88,2.72,3.78,3.78,0,0,1-.23,1.3,1.7,1.7,0,0,1,.62.63,1.59,1.59,0,0,1,0,1.63A5.28,5.28,0,0,1,37.05,36.4Z" class="cls-2"/><path d="M37.79,33.81a2.64,2.64,0,0,0,2.05-1.17h.4a3.83,3.83,0,0,1-3.19,2.15,1.63,1.63,0,0,1-1.81-1.85c0-1.33.75-4.12,3.13-4.12,1,0,1.27.53,1.27,1.11A2.68,2.68,0,0,1,37,32.37c0,.17,0,.33,0,.47C37,33.63,37.23,33.81,37.79,33.81Zm.67-4.38c-.59,0-1.16,1.24-1.39,2.39a2,2,0,0,0,1.68-1.92C38.75,29.62,38.68,29.43,38.46,29.43Z" class="cls-2"/><path d="M46.89,36.4a3.09,3.09,0,0,1-1.82-.55,1.59,1.59,0,0,1-1.14.48H42.26a1.52,1.52,0,0,1-.59-.12,1.73,1.73,0,0,1-.6.12H39.4a1.62,1.62,0,0,1-1.25-.6,1.6,1.6,0,0,1-.32-1.35l1.22-5.79a1.62,1.62,0,0,1,1.58-1.28H42.3a1.75,1.75,0,0,1,.4.05,3.5,3.5,0,0,1,.89-.11,3,3,0,0,1,1.38.32,3.39,3.39,0,0,1,1.42-.31,2.78,2.78,0,0,1,2.9,2.92,5.1,5.1,0,0,1-.08.86,1.67,1.67,0,0,1,1.15.66,1.62,1.62,0,0,1,.21,1.46C49.66,35.83,48.06,36.4,46.89,36.4Z" class="cls-2"/><path d="M45.63,29.93c-.42,0-.73.48-.91,1.06l-.79,3.73H42.26l.85-4a1.45,1.45,0,0,0,0-.29c0-.26-.1-.51-.35-.51-.45,0-.77.49-.94,1.07l-.79,3.73H39.4l1.23-5.8H42.3l-.13.6a1.81,1.81,0,0,1,1.42-.66,1.1,1.1,0,0,1,1.19,1,1.84,1.84,0,0,1,1.61-1,1.18,1.18,0,0,1,1.29,1.31c0,.94-.56,2.34-.56,3,0,.29.12.49.47.49.51,0,.71-.42,1-1h.49c-.65,1.9-1.55,2.15-2.16,2.15a1.23,1.23,0,0,1-1.37-1.31c0-.79.52-2.22.52-3C46,30.14,45.9,29.93,45.63,29.93Z" class="cls-2"/><path d="M52.81,36.4a2.85,2.85,0,0,1-1.38-.35A3.24,3.24,0,0,1,50,36.4a3.14,3.14,0,0,1-3.15-3.48c0-2.29,1.46-5.67,4.59-5.67a3.07,3.07,0,0,1,.77.09,1.43,1.43,0,0,1,.29,0h1.67a1.62,1.62,0,0,1,1.58,1.94L55.32,31a1.6,1.6,0,0,1,1.34,2.13C55.68,36,53.83,36.4,52.81,36.4Z" class="cls-2"/><path d="M54.12,28.92l-.83,3.94a1.4,1.4,0,0,0,0,.37c0,.33.15.5.48.5s.76-.51.94-1.09h.48c-.66,1.89-1.7,2.15-2.33,2.15a1.07,1.07,0,0,1-1.13-1.07A2.12,2.12,0,0,1,50,34.79c-.79,0-1.54-.49-1.54-1.87,0-1.57,1-4.06,3-4.06.66,0,.94.26.94.59v.08l.12-.61Zm-4,3.84c0,.89.37.9.58.9a1.17,1.17,0,0,0,1-1L52.22,30a.44.44,0,0,0-.47-.44C50.76,29.58,50.12,31.67,50.12,32.76Z" class="cls-2"/><path d="M55.8,36.4a2.81,2.81,0,0,1-2.85-3,5.83,5.83,0,0,1,.13-1.08l.79-3.72a1.61,1.61,0,0,1,.27-.61,2.4,2.4,0,0,1-.07-.6,2.53,2.53,0,1,1,4.65,1.38,2,2,0,0,1,0,.49L58.31,31a1.62,1.62,0,0,1,1.45,2.14C58.74,36.08,56.65,36.4,55.8,36.4Z" class="cls-2"/><path d="M57.11,28.92l-.83,3.94a1.4,1.4,0,0,0-.05.37c0,.33.15.43.48.43s.87-.44,1-1h.49c-.66,1.89-1.81,2.15-2.44,2.15s-1.24-.42-1.24-1.4a3.7,3.7,0,0,1,.1-.75l.78-3.72Zm-.52-2.47a.93.93,0,0,1,.93.93.92.92,0,0,1-.93.91.9.9,0,0,1-.91-.91A.92.92,0,0,1,56.59,26.45Z" class="cls-2"/><path d="M61.94,36.4a3.09,3.09,0,0,1-1.82-.55,1.6,1.6,0,0,1-1.14.48H57.31a1.62,1.62,0,0,1-1.25-.6,1.6,1.6,0,0,1-.32-1.35L57,28.59a1.62,1.62,0,0,1,1.58-1.28h1.67a1.84,1.84,0,0,1,.41.05,3.68,3.68,0,0,1,.82-.1,2.78,2.78,0,0,1,2.89,2.92,6.36,6.36,0,0,1-.07.86,1.61,1.61,0,0,1,1.36,2.12C64.7,35.83,63.11,36.4,61.94,36.4Z" class="cls-2"/><path d="M60.67,29.93c-.41,0-.73.48-.9,1.06L59,34.72H57.31l1.23-5.8h1.67l-.13.6a1.75,1.75,0,0,1,1.36-.65,1.17,1.17,0,0,1,1.28,1.31c0,.94-.55,2.34-.55,3,0,.29.11.49.46.49.51,0,.72-.42,1-1h.48c-.65,1.9-1.54,2.15-2.15,2.15a1.23,1.23,0,0,1-1.37-1.31c0-.79.52-2.22.52-3C61.09,30.14,61,29.93,60.67,29.93Z" class="cls-2"/><path d="M65.24,36.4a3.22,3.22,0,0,1-3.41-3.46c0-2.38,1.47-5.73,4.74-5.73a2.63,2.63,0,0,1,2.89,2.72,3.81,3.81,0,0,1-.82,2.34,1.58,1.58,0,0,1,.19,1.09A3.47,3.47,0,0,1,65.24,36.4Z" class="cls-2"/><path d="M65.88,33.68a2.42,2.42,0,0,0,1.37-.61,1.87,1.87,0,0,1-2,1.72,1.63,1.63,0,0,1-1.8-1.85c0-1.33.76-4.12,3.13-4.12,1,0,1.28.53,1.28,1.11a2.68,2.68,0,0,1-2.67,2.44c0,.12,0,.25,0,.35C65.16,33.45,65.47,33.68,65.88,33.68Zm.79-4.25c-.58,0-1.16,1.29-1.41,2.39A1.93,1.93,0,0,0,67,29.9C67,29.62,66.89,29.43,66.67,29.43Z" class="cls-2"/><path d="M71.75,36.4a3.15,3.15,0,0,1-3.15-3.48c0-2.23,1.39-5.5,4.36-5.66l.16-.76a1.62,1.62,0,0,1,1.36-1.26L76.2,25l.21,0a1.64,1.64,0,0,1,1.19.52A1.61,1.61,0,0,1,78,26.94L77.12,31a1.62,1.62,0,0,1,1.34,2.13c-.92,2.61-2.6,3.16-3.85,3.16A2.81,2.81,0,0,1,73.3,36,3.32,3.32,0,0,1,71.75,36.4Z" class="cls-2"/><path d="M76.41,26.6l-1.33,6.26a1.87,1.87,0,0,0,0,.37c0,.33.15.43.47.43s.77-.44.94-1h.49c-.66,1.89-1.71,2.08-2.33,2.08a1.07,1.07,0,0,1-1.14-1,2.07,2.07,0,0,1-1.72,1.07c-.78,0-1.54-.49-1.54-1.87,0-1.57,1-4.06,3-4.06.66,0,.94.26.94.59v.05l.57-2.67Zm-3,6L74,30a.47.47,0,0,0-.48-.41c-1,0-1.62,2.09-1.62,3.18,0,.89.37.9.58.9a1.14,1.14,0,0,0,.95-1Z" class="cls-2"/><path d="M80.46,36.4a2.81,2.81,0,0,1-1.36-.35,3.31,3.31,0,0,1-1.5.35,2.81,2.81,0,0,1-2.85-3,5.73,5.73,0,0,1,.12-1.08l.79-3.72a1.62,1.62,0,0,1,1.58-1.28h1.67a1.67,1.67,0,0,1,.59.11,1.73,1.73,0,0,1,.6-.11h1.67a1.62,1.62,0,0,1,1.58,1.94l-.65,3,0,0a1.59,1.59,0,0,1,.62,1.38A2.81,2.81,0,0,1,80.46,36.4Z" class="cls-2"/><path d="M78.91,28.92l-.84,3.94a1.43,1.43,0,0,0,0,.29c0,.27.08.51.35.51.45,0,.75-.44.92-1l.79-3.72h1.67l-.83,3.94a1.4,1.4,0,0,0,0,.37c0,.33.15.43.47.43a.84.84,0,0,0,.39-.07,1.22,1.22,0,0,1-1.29,1.2,1.12,1.12,0,0,1-1.14-1.11,1.94,1.94,0,0,1-1.72,1.11c-.7,0-1.24-.42-1.24-1.4a3.62,3.62,0,0,1,.09-.75l.79-3.72Z" class="cls-2"/><path d="M34.14,28.58a.66.66,0,0,1-.53-.24,1.24,1.24,0,0,0,.52-1c0-.41-.22-.78-.86-.78a1,1,0,0,0-1.07,1.06c0,1.7,2.61,1.93,2.61,4.44,0,1.95-1.57,2.9-3.26,2.9-1.32,0-2.45-.58-2.45-2a1.76,1.76,0,0,1,1.7-1.9c.41,0,1,.16,1,.77-.63,0-1.36.29-1.36,1.09A1.06,1.06,0,0,0,31.58,34a1.36,1.36,0,0,0,1.34-1.54c0-2-2.37-2.69-2.37-4.4,0-1.2,1.18-2.07,2.67-2.07.55,0,1.87.11,1.87,1.39C35.09,28.08,34.72,28.58,34.14,28.58Z" class="cls-9"/><path d="M37.79,33.81a2.64,2.64,0,0,0,2.05-1.17h.4a3.82,3.82,0,0,1-3.19,2.14,1.63,1.63,0,0,1-1.81-1.84c0-1.33.75-4.13,3.13-4.13,1,0,1.28.54,1.28,1.12A2.69,2.69,0,0,1,37,32.37c0,.16,0,.33,0,.47C37,33.62,37.23,33.81,37.79,33.81Zm.67-4.38c-.59,0-1.16,1.24-1.39,2.39a2,2,0,0,0,1.68-1.92C38.75,29.61,38.68,29.43,38.46,29.43Z" class="cls-9"/><path d="M45.63,29.93c-.42,0-.73.48-.91,1.06l-.78,3.72H42.27l.84-4a.88.88,0,0,0,0-.29c0-.25-.1-.51-.35-.51-.45,0-.77.5-.94,1.08l-.79,3.72H39.4l1.23-5.79H42.3l-.13.6a1.78,1.78,0,0,1,1.42-.66,1.1,1.1,0,0,1,1.19,1,1.84,1.84,0,0,1,1.61-1,1.17,1.17,0,0,1,1.29,1.31c0,.94-.56,2.34-.56,3,0,.29.12.49.47.49.51,0,.72-.42,1-1h.49c-.65,1.9-1.54,2.14-2.16,2.14a1.23,1.23,0,0,1-1.37-1.31c0-.78.53-2.21.53-2.95C46.05,30.13,45.91,29.93,45.63,29.93Z" class="cls-9"/><path d="M54.13,28.92l-.84,3.94a2,2,0,0,0,0,.37.44.44,0,0,0,.48.5c.45,0,.76-.51.94-1.09h.49c-.67,1.89-1.71,2.14-2.34,2.14a1.06,1.06,0,0,1-1.13-1.06A2.11,2.11,0,0,1,50,34.78c-.79,0-1.54-.48-1.54-1.86,0-1.57,1-4.06,3-4.06.66,0,.94.25.94.59v.08l.13-.61Zm-4,3.83c0,.9.38.91.58.91a1.17,1.17,0,0,0,1-1L52.22,30a.44.44,0,0,0-.47-.44C50.76,29.58,50.12,31.66,50.12,32.75Z" class="cls-9"/><path d="M57.11,28.92l-.83,3.94a2,2,0,0,0-.05.37c0,.32.15.43.48.43s.87-.44,1-1h.49c-.66,1.89-1.81,2.14-2.44,2.14s-1.24-.41-1.24-1.39a3.7,3.7,0,0,1,.1-.75l.78-3.72Zm-.52-2.47a.92.92,0,1,1,0,1.84.92.92,0,0,1,0-1.84Z" class="cls-9"/><path d="M60.67,29.93c-.41,0-.73.48-.9,1.06L59,34.71H57.31l1.23-5.79h1.67l-.13.6a1.72,1.72,0,0,1,1.36-.65,1.17,1.17,0,0,1,1.29,1.31c0,.94-.56,2.34-.56,3,0,.29.12.49.46.49.51,0,.72-.42,1-1h.49c-.65,1.9-1.55,2.14-2.16,2.14a1.23,1.23,0,0,1-1.37-1.31c0-.78.52-2.21.52-2.95C61.09,30.13,61,29.93,60.67,29.93Z" class="cls-9"/><path d="M65.88,33.68a2.39,2.39,0,0,0,1.37-.61,1.87,1.87,0,0,1-2,1.71,1.62,1.62,0,0,1-1.8-1.84c0-1.33.76-4.13,3.13-4.13,1,0,1.28.54,1.28,1.12a2.68,2.68,0,0,1-2.67,2.44c0,.12,0,.25,0,.35C65.16,33.45,65.47,33.68,65.88,33.68Zm.79-4.25c-.58,0-1.16,1.28-1.41,2.39A1.93,1.93,0,0,0,67,29.9C67,29.61,66.89,29.43,66.67,29.43Z" class="cls-9"/><path d="M76.42,26.6l-1.34,6.26a1.87,1.87,0,0,0,0,.37c0,.32.15.43.47.43s.77-.44.94-1h.49c-.66,1.89-1.71,2.07-2.33,2.07a1.06,1.06,0,0,1-1.14-1,2.06,2.06,0,0,1-1.71,1.06c-.79,0-1.55-.48-1.55-1.86,0-1.57,1-4.06,3-4.06.67,0,.94.25.94.59v.05l.57-2.67Zm-3,6L74,30a.46.46,0,0,0-.48-.4c-1,0-1.62,2.08-1.62,3.17,0,.9.37.91.58.91a1.15,1.15,0,0,0,.95-1Z" class="cls-9"/><path d="M78.91,28.92l-.84,3.94a1.43,1.43,0,0,0,0,.29c0,.27.08.51.35.51.45,0,.75-.44.92-1l.79-3.72h1.67l-.83,3.94a1.4,1.4,0,0,0,0,.37c0,.32.15.43.48.43a.94.94,0,0,0,.38-.07,1.21,1.21,0,0,1-1.29,1.19,1.1,1.1,0,0,1-1.13-1.1,1.93,1.93,0,0,1-1.73,1.1c-.7,0-1.24-.41-1.24-1.39a3.62,3.62,0,0,1,.09-.75l.79-3.72Z" class="cls-9"/><path d="M169.72,26.2a11.16,11.16,0,0,1-4.55-.85A8.12,8.12,0,0,1,162,23l2.59-2.85A7.45,7.45,0,0,0,167.12,22a6.87,6.87,0,0,0,2.75.59,3.64,3.64,0,0,0,2.44-.72,2.57,2.57,0,0,0,.83-2.07,2.12,2.12,0,0,0-.64-1.68,4.23,4.23,0,0,0-2.15-.81L168.17,17a6.25,6.25,0,0,1-4-2.07A6,6,0,0,1,162.87,11a5.74,5.74,0,0,1,2-4.65,8.31,8.31,0,0,1,5.51-1.65,11,11,0,0,1,4.19.74,7.5,7.5,0,0,1,2.89,2l-2.53,2.82a6.06,6.06,0,0,0-2-1.45,6.19,6.19,0,0,0-2.56-.52c-2,0-3,.83-3,2.5a2,2,0,0,0,.67,1.62,5,5,0,0,0,2.19.81l2.17.39a6.73,6.73,0,0,1,3.9,1.9,5.51,5.51,0,0,1,1.37,3.92,7,7,0,0,1-.51,2.69,5.67,5.67,0,0,1-1.52,2.14,7.07,7.07,0,0,1-2.48,1.42A10.8,10.8,0,0,1,169.72,26.2Z" class="cls-10"/><path d="M188.32,26.2a7.61,7.61,0,0,1-5.86-2.14,8.22,8.22,0,0,1-2-5.84,10.15,10.15,0,0,1,.52-3.37,7,7,0,0,1,1.49-2.56,6.17,6.17,0,0,1,2.35-1.61,8.29,8.29,0,0,1,3.11-.55,8.14,8.14,0,0,1,3.09.55,6.54,6.54,0,0,1,2.33,1.56,7.2,7.2,0,0,1,1.47,2.46,9.39,9.39,0,0,1,.52,3.23v1.31H184.84v.26a3.19,3.19,0,0,0,.93,2.4,3.66,3.66,0,0,0,2.7.91,4.89,4.89,0,0,0,2.35-.52,5.44,5.44,0,0,0,1.7-1.39l2.38,2.59a7.38,7.38,0,0,1-2.5,1.91A9.18,9.18,0,0,1,188.32,26.2ZM188,13.28a3.06,3.06,0,0,0-2.28.88,3.26,3.26,0,0,0-.85,2.37v.24H191v-.24a3.29,3.29,0,0,0-.82-2.38A2.92,2.92,0,0,0,188,13.28Z" class="cls-10"/><path d="M197.73,25.85V10.49h3.54v2.26h.21a5.37,5.37,0,0,1,1-1.85,2.36,2.36,0,0,1,1.89-.77c1.49,0,2.4.87,2.74,2.62h.17a5.44,5.44,0,0,1,.45-1,3.41,3.41,0,0,1,.66-.84,2.74,2.74,0,0,1,.92-.56,3.41,3.41,0,0,1,1.25-.21q3.21,0,3.21,4.73v11h-3.54V15.31a2.33,2.33,0,0,0-.37-1.51,1.24,1.24,0,0,0-1-.43,1.43,1.43,0,0,0-1,.37,1.54,1.54,0,0,0-.4,1.15v11H204V15.31a2.49,2.49,0,0,0-.34-1.51,1.15,1.15,0,0,0-.94-.43,1.5,1.5,0,0,0-1,.37,1.47,1.47,0,0,0-.42,1.15v11Z" class="cls-10"/><path d="M229.19,25.85a3.35,3.35,0,0,1-2.2-.7,2.93,2.93,0,0,1-1-2h-.15a3.8,3.8,0,0,1-1.65,2.29,5.65,5.65,0,0,1-3,.77A5.21,5.21,0,0,1,217.6,25a4.31,4.31,0,0,1-1.36-3.38A4,4,0,0,1,218,18.05a9.33,9.33,0,0,1,5.15-1.16h2.47v-.78A3,3,0,0,0,225,14a2.86,2.86,0,0,0-2.16-.7,4.22,4.22,0,0,0-2.26.54,5.21,5.21,0,0,0-1.49,1.4l-2.41-2.14A5.75,5.75,0,0,1,219.09,11a9.19,9.19,0,0,1,4.24-.85,7.64,7.64,0,0,1,4.93,1.44A5.3,5.3,0,0,1,230,15.93v6.73h1.69v3.19Zm-6.34-2.54a3.32,3.32,0,0,0,2-.56,1.89,1.89,0,0,0,.8-1.64V19.27h-2.35c-1.81,0-2.71.6-2.71,1.81v.6a1.38,1.38,0,0,0,.63,1.22A2.92,2.92,0,0,0,222.85,23.31Z" class="cls-10"/><path d="M235.35,22.39h4.89V13.94h-4.89V10.49h9.29v11.9h4.53v3.46H235.35Zm7.09-13.87a2.8,2.8,0,0,1-2.07-.61,2.05,2.05,0,0,1-.58-1.47V5.57a2,2,0,0,1,.58-1.48,3.87,3.87,0,0,1,4.14,0,2.05,2.05,0,0,1,.58,1.48v.87a2.1,2.1,0,0,1-.58,1.47A2.8,2.8,0,0,1,242.44,8.52Z" class="cls-10"/><path d="M252.35,25.85V10.49h4.41v2.79h.17a6.83,6.83,0,0,1,.66-1.22,4.41,4.41,0,0,1,.94-1,4.24,4.24,0,0,1,1.28-.69,4.93,4.93,0,0,1,1.65-.25,5.3,5.3,0,0,1,2,.37,4.12,4.12,0,0,1,1.58,1.12,5.32,5.32,0,0,1,1,1.81,7.5,7.5,0,0,1,.37,2.47v10h-4.41V16.5c0-2-.86-3-2.59-3a3.7,3.7,0,0,0-1,.14,2.45,2.45,0,0,0-.88.41,2,2,0,0,0-.83,1.68v10.1Z" class="cls-10"/><path d="M277.62,26.2a7.61,7.61,0,0,1-5.86-2.14,8.23,8.23,0,0,1-2-5.84,10.41,10.41,0,0,1,.52-3.37,7.26,7.26,0,0,1,1.49-2.56,6.33,6.33,0,0,1,2.35-1.61,8.32,8.32,0,0,1,3.11-.55,8.16,8.16,0,0,1,3.1.55,6.5,6.5,0,0,1,2.32,1.56,7.06,7.06,0,0,1,1.48,2.46,9.64,9.64,0,0,1,.52,3.23v1.31H274.14v.26a3.22,3.22,0,0,0,.92,2.4,3.7,3.7,0,0,0,2.71.91,4.91,4.91,0,0,0,2.35-.52,5.56,5.56,0,0,0,1.7-1.39l2.38,2.59a7.48,7.48,0,0,1-2.5,1.91A9.18,9.18,0,0,1,277.62,26.2Zm-.36-12.92a3,3,0,0,0-2.27.88,3.26,3.26,0,0,0-.85,2.37v.24h6.19v-.24a3.29,3.29,0,0,0-.82-2.38A2.92,2.92,0,0,0,277.26,13.28Z" class="cls-10"/><path d="M172.82,54.74h-.21A6,6,0,0,1,171,57a4.42,4.42,0,0,1-2.91.88,5.7,5.7,0,0,1-2.33-.47A4.81,4.81,0,0,1,163.9,56a7.55,7.55,0,0,1-1.19-2.5,15.33,15.33,0,0,1,0-7.21,7.55,7.55,0,0,1,1.19-2.5,4.81,4.81,0,0,1,1.82-1.46,5.7,5.7,0,0,1,2.33-.47,5.1,5.1,0,0,1,1.64.24,4.37,4.37,0,0,1,1.27.66,4.52,4.52,0,0,1,.95,1,7.48,7.48,0,0,1,.7,1.28h.21V35.54h4.4v22h-4.4ZM170,54.47a3.61,3.61,0,0,0,2-.56,2,2,0,0,0,.85-1.78V47.64a2,2,0,0,0-.85-1.78,3.61,3.61,0,0,0-2-.56,2.9,2.9,0,0,0-2.29.9,3.62,3.62,0,0,0-.81,2.5v2.37a3.62,3.62,0,0,0,.81,2.5A2.9,2.9,0,0,0,170,54.47Z" class="cls-10"/><path d="M190.5,54.77h-.18A5.59,5.59,0,0,1,188.73,57a4.44,4.44,0,0,1-2.94.92,5.34,5.34,0,0,1-2-.37,4.12,4.12,0,0,1-1.58-1.12,5.3,5.3,0,0,1-1-1.81,7.49,7.49,0,0,1-.38-2.47V42.2h4.41v9.35c0,2,.86,3,2.59,3a3.77,3.77,0,0,0,1-.14,2.54,2.54,0,0,0,.86-.41,2.29,2.29,0,0,0,.61-.7,2,2,0,0,0,.24-1V42.2h4.4V57.56h-4.4Z" class="cls-10"/><path d="M163.41,68.51h7.29A6.7,6.7,0,0,1,175.39,70,5.25,5.25,0,0,1,177,74a4.37,4.37,0,0,1-.87,2.85,5.05,5.05,0,0,1-2.52,1.53v.18a5.7,5.7,0,0,1,3,1.66,4.8,4.8,0,0,1,1.06,3.31A5.47,5.47,0,0,1,176,87.74a6.52,6.52,0,0,1-4.63,1.54h-8Zm6,8.81a4,4,0,0,0,2.29-.52,2.19,2.19,0,0,0,.72-1.89V74a2.14,2.14,0,0,0-.72-1.87,4,4,0,0,0-2.29-.51h-1.69v5.69Zm.57,8.84a4.06,4.06,0,0,0,2.35-.54,2.26,2.26,0,0,0,.74-2v-.87a2.26,2.26,0,0,0-.74-2,4.06,4.06,0,0,0-2.35-.54h-2.26v5.87Z" class="cls-11"/><path d="M190.5,86.49h-.18a5.59,5.59,0,0,1-1.59,2.23,4.44,4.44,0,0,1-2.94.92,5.34,5.34,0,0,1-2-.37,4.12,4.12,0,0,1-1.58-1.12,5.3,5.3,0,0,1-1-1.81,7.49,7.49,0,0,1-.38-2.47v-10h4.41v9.35c0,2,.86,3,2.59,3a3.77,3.77,0,0,0,1-.14,2.54,2.54,0,0,0,.86-.41,2.29,2.29,0,0,0,.61-.7,2,2,0,0,0,.24-1V73.92h4.4V89.28h-4.4Z" class="cls-11"/><path d="M199,85.83h3.54V77.38H199V73.92h8v4.35h.21a7.83,7.83,0,0,1,.58-1.62,5,5,0,0,1,.95-1.4,4.27,4.27,0,0,1,1.41-1,5,5,0,0,1,2-.36h1.46v4h-3.28a3.07,3.07,0,0,0-2.47,1,3.48,3.48,0,0,0-.83,2.35v4.54h5.06v3.45H199Z" class="cls-11"/><path d="M232.05,90.83a3.84,3.84,0,0,1-2.05,3.6c-1.37.78-3.53,1.16-6.46,1.16a21.3,21.3,0,0,1-3.63-.25,7.19,7.19,0,0,1-2.28-.73,2.84,2.84,0,0,1-1.19-1.13,3,3,0,0,1-.34-1.43,2.47,2.47,0,0,1,.77-2,5.29,5.29,0,0,1,2.17-1v-.18a3.88,3.88,0,0,1-1.56-.85,2,2,0,0,1-.58-1.56,1.89,1.89,0,0,1,.76-1.67,5.51,5.51,0,0,1,2-.83v-.18a5,5,0,0,1-2.13-1.85,5.21,5.21,0,0,1-.76-2.89,5.5,5.5,0,0,1,.48-2.36A4.45,4.45,0,0,1,218.61,75a6.27,6.27,0,0,1,2.1-1,10.06,10.06,0,0,1,2.74-.35,11.12,11.12,0,0,1,2.71.32v-.83a2,2,0,0,1,.62-1.49,2.43,2.43,0,0,1,1.73-.59h2.71v3.21h-3.69v.27a5,5,0,0,1,1.95,1.8,5.31,5.31,0,0,1,.7,2.78,5.46,5.46,0,0,1-.48,2.36,4.72,4.72,0,0,1-1.37,1.71,6.24,6.24,0,0,1-2.13,1,9.79,9.79,0,0,1-2.75.36,11,11,0,0,1-1.31-.07,8.36,8.36,0,0,1-1.19-.23,1.87,1.87,0,0,0-.55.45,1,1,0,0,0-.23.68.85.85,0,0,0,.18.57,1.12,1.12,0,0,0,.49.31,3,3,0,0,0,.73.14q.42,0,.87,0H226a10.84,10.84,0,0,1,2.8.32,5.36,5.36,0,0,1,1.9.93,3.36,3.36,0,0,1,1.07,1.4A4.63,4.63,0,0,1,232.05,90.83Zm-4.17.33a1.11,1.11,0,0,0-.47-.94,3.37,3.37,0,0,0-1.82-.34h-5.27a1.59,1.59,0,0,0-.59,1.25,1.38,1.38,0,0,0,.61,1.17,3.47,3.47,0,0,0,2.07.47H225a4.38,4.38,0,0,0,2.2-.42A1.33,1.33,0,0,0,227.88,91.16Zm-4.43-9.44a2.59,2.59,0,0,0,2-.65A2.38,2.38,0,0,0,226,79.4v-.71A2.38,2.38,0,0,0,225.4,77a2.55,2.55,0,0,0-2-.65,2.45,2.45,0,0,0-1.91.65,2.42,2.42,0,0,0-.59,1.67v.71a2.42,2.42,0,0,0,.59,1.67A2.49,2.49,0,0,0,223.45,81.72Z" class="cls-11"/><path d="M241.9,89.64A7.61,7.61,0,0,1,236,87.5a8.24,8.24,0,0,1-2-5.84,10.52,10.52,0,0,1,.52-3.38,7.44,7.44,0,0,1,1.49-2.56,6.42,6.42,0,0,1,2.35-1.6,8.34,8.34,0,0,1,3.12-.55,8.14,8.14,0,0,1,3.09.55,6.5,6.5,0,0,1,2.32,1.56,7,7,0,0,1,1.48,2.46,9.64,9.64,0,0,1,.52,3.23v1.31H238.42v.26a3.23,3.23,0,0,0,.92,2.4,3.7,3.7,0,0,0,2.71.91,5,5,0,0,0,2.35-.52,5.56,5.56,0,0,0,1.7-1.39l2.38,2.59a7.38,7.38,0,0,1-2.5,1.91A9.18,9.18,0,0,1,241.9,89.64Zm-.35-12.92a3,3,0,0,0-2.28.88,3.25,3.25,0,0,0-.85,2.37v.23h6.19V80a3.28,3.28,0,0,0-.82-2.38A2.92,2.92,0,0,0,241.55,76.72Z" class="cls-11"/><path d="M252.62,85.83h3.54V77.38h-3.54V73.92h7.95v4.35h.2a8.49,8.49,0,0,1,.59-1.62,5,5,0,0,1,.95-1.4,4.17,4.17,0,0,1,1.41-1,5,5,0,0,1,2-.36h1.45v4h-3.27a3.06,3.06,0,0,0-2.47,1,3.43,3.43,0,0,0-.83,2.35v4.54h5.06v3.45h-13Z" class="cls-11"/></g></g></svg>