<svg xmlns="http://www.w3.org/2000/svg" viewBox="0 0 243 37.85"><defs><style>.cls-1{fill:#4a2b2b;}.cls-2{fill:#ed5d28;}.cls-3{fill:#fff;}.cls-4{fill:#ab7029;}.cls-5{fill:#9c6226;}.cls-6{fill:#b32029;}.cls-7{fill:#faa21e;}.cls-8{fill:#a9ae38;}.cls-9{fill:#6d1d0e;}.cls-10{fill:#411f1f;}</style></defs><title>logo-main</title><g id="Layer_2" data-name="Layer 2"><g id="Layer_1-2" data-name="Layer 1"><path class="cls-1" d="M57.94,29.79V12.86H61.6v14h7.28v3Z"/><path class="cls-1" d="M77.87,30.08a6.2,6.2,0,0,1-4.77-1.74,6.69,6.69,0,0,1-1.63-4.76,8.45,8.45,0,0,1,.42-2.75,6,6,0,0,1,1.22-2.09A5.13,5.13,0,0,1,75,17.43,6.84,6.84,0,0,1,77.56,17a6.66,6.66,0,0,1,2.52.44A5.23,5.23,0,0,1,82,18.71a5.56,5.56,0,0,1,1.2,2,7.52,7.52,0,0,1,.43,2.63v1.07H75v.22a2.62,2.62,0,0,0,.75,1.95,3,3,0,0,0,2.21.74,3.93,3.93,0,0,0,1.91-.43,4.54,4.54,0,0,0,1.38-1.12l1.94,2.11a6.15,6.15,0,0,1-2,1.55A7.54,7.54,0,0,1,77.87,30.08Zm-.29-10.52a2.48,2.48,0,0,0-1.85.71A2.67,2.67,0,0,0,75,22.2v.19h5V22.2a2.69,2.69,0,0,0-.67-1.94A2.38,2.38,0,0,0,77.58,19.56Z"/><path class="cls-1" d="M93.92,12.73h5.94A5.44,5.44,0,0,1,103.68,14a4.26,4.26,0,0,1,1.32,3.3,3.52,3.52,0,0,1-.71,2.31,4,4,0,0,1-2.05,1.25V21a4.66,4.66,0,0,1,2.44,1.36,3.91,3.91,0,0,1,.86,2.69,4.41,4.41,0,0,1-1.35,3.39,5.3,5.3,0,0,1-3.77,1.26h-6.5Zm4.92,7.18a3.25,3.25,0,0,0,1.87-.42,1.78,1.78,0,0,0,.58-1.54v-.73a1.76,1.76,0,0,0-.58-1.53,3.34,3.34,0,0,0-1.87-.41H97.46v4.63Zm.46,7.21a3.34,3.34,0,0,0,1.92-.44,1.86,1.86,0,0,0,.61-1.6v-.7a1.86,1.86,0,0,0-.61-1.6,3.34,3.34,0,0,0-1.92-.44H97.46v4.78Z"/><path class="cls-1" d="M116,27.39h-.15a4.38,4.38,0,0,1-1.29,1.81,3.59,3.59,0,0,1-2.39.76,4.41,4.41,0,0,1-1.65-.31,3.34,3.34,0,0,1-1.29-.91,4.32,4.32,0,0,1-.83-1.48,5.89,5.89,0,0,1-.31-2v-8.1h3.59v7.62c0,1.61.71,2.42,2.11,2.42a3.24,3.24,0,0,0,.82-.11,1.9,1.9,0,0,0,.7-.34,1.84,1.84,0,0,0,.5-.57,1.55,1.55,0,0,0,.19-.8V17.15h3.59V29.66H116Z"/><path class="cls-1" d="M123,26.85h2.89V20H123V17.15h6.48v3.54h.17a7.17,7.17,0,0,1,.47-1.32,4.12,4.12,0,0,1,.78-1.14,3.37,3.37,0,0,1,1.15-.79,4.08,4.08,0,0,1,1.6-.29h1.19v3.3h-2.67a2.51,2.51,0,0,0-2,.78,2.82,2.82,0,0,0-.68,1.92v3.7h4.12v2.81H123Z"/><path class="cls-1" d="M149.85,30.93a3.15,3.15,0,0,1-1.67,2.93,11.16,11.16,0,0,1-5.27,1,17.26,17.26,0,0,1-3-.21A6,6,0,0,1,138.1,34a2.34,2.34,0,0,1-1-.92,2.46,2.46,0,0,1-.28-1.17,2,2,0,0,1,.63-1.61,4.18,4.18,0,0,1,1.77-.84v-.14a3.21,3.21,0,0,1-1.27-.7,1.64,1.64,0,0,1-.48-1.27,1.56,1.56,0,0,1,.62-1.36,5,5,0,0,1,1.64-.68v-.14A4.12,4.12,0,0,1,138,23.67a4.2,4.2,0,0,1-.62-2.35,4.52,4.52,0,0,1,.39-1.93A3.57,3.57,0,0,1,138.9,18a5.08,5.08,0,0,1,1.71-.85,8.09,8.09,0,0,1,2.23-.29,9.11,9.11,0,0,1,2.21.26v-.67a1.62,1.62,0,0,1,.51-1.22,2,2,0,0,1,1.4-.48h2.21v2.62h-3v.22a3.94,3.94,0,0,1,1.59,1.46,4.3,4.3,0,0,1,.57,2.27,4.45,4.45,0,0,1-.39,1.92,3.74,3.74,0,0,1-1.11,1.39,5,5,0,0,1-1.74.86,7.8,7.8,0,0,1-2.24.29,9.2,9.2,0,0,1-1.07-.06,7.25,7.25,0,0,1-1-.18,1.78,1.78,0,0,0-.45.37.83.83,0,0,0-.18.55.65.65,0,0,0,.15.46.87.87,0,0,0,.4.26,2.48,2.48,0,0,0,.59.11l.71,0h2.86a8.38,8.38,0,0,1,2.28.27,4.39,4.39,0,0,1,1.55.75,2.73,2.73,0,0,1,.87,1.14A3.8,3.8,0,0,1,149.85,30.93Zm-3.39.26a.88.88,0,0,0-.39-.76,2.71,2.71,0,0,0-1.48-.28h-4.3a1.29,1.29,0,0,0-.48,1,1.13,1.13,0,0,0,.5,1,2.86,2.86,0,0,0,1.68.37h2.11a3.55,3.55,0,0,0,1.8-.34A1.07,1.07,0,0,0,146.46,31.19Zm-3.62-7.69a2.06,2.06,0,0,0,1.59-.53,1.92,1.92,0,0,0,.5-1.36V21a1.93,1.93,0,0,0-.5-1.36,2.1,2.1,0,0,0-1.59-.53,2,2,0,0,0-1.55.53A1.93,1.93,0,0,0,140.8,21v.58a1.91,1.91,0,0,0,.49,1.36A2,2,0,0,0,142.84,23.5Z"/><path class="cls-1" d="M157.88,30a6.23,6.23,0,0,1-4.78-1.75,6.71,6.71,0,0,1-1.62-4.75,8.51,8.51,0,0,1,.42-2.76,5.94,5.94,0,0,1,1.21-2.08A5.14,5.14,0,0,1,155,17.31a7.34,7.34,0,0,1,5.06,0A5.29,5.29,0,0,1,162,18.58a5.65,5.65,0,0,1,1.2,2,7.8,7.8,0,0,1,.42,2.63v1.07H155v.22a2.61,2.61,0,0,0,.75,1.95,3,3,0,0,0,2.21.74,4.12,4.12,0,0,0,1.92-.42,4.69,4.69,0,0,0,1.38-1.13l1.94,2.11a6.07,6.07,0,0,1-2,1.55A7.35,7.35,0,0,1,157.88,30Zm-.29-10.53a2.49,2.49,0,0,0-1.86.71,2.67,2.67,0,0,0-.69,1.93v.2h5.05v-.2a2.74,2.74,0,0,0-.67-1.94A2.41,2.41,0,0,0,157.59,19.43Z"/><path class="cls-1" d="M166.61,26.85h2.89V20h-2.89V17.15h6.48v3.54h.17a7.17,7.17,0,0,1,.47-1.32,4.12,4.12,0,0,1,.78-1.14,3.27,3.27,0,0,1,1.15-.79,4.08,4.08,0,0,1,1.6-.29h1.19v3.3h-2.67a2.51,2.51,0,0,0-2,.78,2.82,2.82,0,0,0-.68,1.92v3.7h4.12v2.81h-10.6Z"/><path class="cls-2" d="M186.39,29.68l-1-16.93h3.13L189,22.89l.15,3.2h.21l1.46-9.66h3.27l1.46,9.66h.22l.14-3.11.49-10.23h3l-1.05,16.93h-4.61l-1.23-9.34h-.24L191,29.68Z"/><path class="cls-2" d="M207.25,30a6.19,6.19,0,0,1-4.78-1.75,6.71,6.71,0,0,1-1.62-4.75,8.51,8.51,0,0,1,.42-2.76,5.94,5.94,0,0,1,1.21-2.08,5.14,5.14,0,0,1,1.92-1.31,7.34,7.34,0,0,1,5.06,0,5.29,5.29,0,0,1,1.89,1.27,5.8,5.8,0,0,1,1.2,2,7.82,7.82,0,0,1,.42,2.64v1.06h-8.56v.22a2.61,2.61,0,0,0,.75,1.95,3,3,0,0,0,2.21.74,4.12,4.12,0,0,0,1.92-.42,4.54,4.54,0,0,0,1.38-1.13l1.94,2.11a6,6,0,0,1-2,1.55A7.35,7.35,0,0,1,207.25,30ZM207,19.44a2.46,2.46,0,0,0-1.86.72,2.64,2.64,0,0,0-.69,1.92v.2h5.05v-.2a2.74,2.74,0,0,0-.67-1.94A2.45,2.45,0,0,0,207,19.44Z"/><path class="cls-2" d="M221.8,30A6.21,6.21,0,0,1,217,28.22a6.71,6.71,0,0,1-1.62-4.75,8.51,8.51,0,0,1,.42-2.76A6,6,0,0,1,217,18.63,5,5,0,0,1,219,17.32a6.8,6.8,0,0,1,2.54-.45,6.73,6.73,0,0,1,2.52.45,5.29,5.29,0,0,1,1.89,1.27,5.65,5.65,0,0,1,1.2,2,7.82,7.82,0,0,1,.43,2.64v1.06H219v.22a2.58,2.58,0,0,0,.76,1.95,3,3,0,0,0,2.2.74,4.06,4.06,0,0,0,1.92-.42,4.54,4.54,0,0,0,1.38-1.13l1.94,2.11a5.85,5.85,0,0,1-2,1.55A7.35,7.35,0,0,1,221.8,30Zm-.29-10.53a2.43,2.43,0,0,0-1.85.72,2.61,2.61,0,0,0-.7,1.92v.2h5v-.2a2.69,2.69,0,0,0-.67-1.94A2.42,2.42,0,0,0,221.51,19.44Z"/><path class="cls-2" d="M230.32,11.73h3.59V21.92h.17l1.67-2,2.62-2.79h4.12l-4.85,4.95L243,29.68h-4.27l-3.64-5.53-1.18,1.19v4.34h-3.59Z"/><g id="lbw_logo" data-name="lbw logo"><path class="cls-3" d="M47.21,21.53a2.42,2.42,0,0,0,2.47-2.37v-.11a2.41,2.41,0,0,0-2.42-2.51,2.87,2.87,0,0,0-1,.19,1.27,1.27,0,0,0-.68-.19h-.59a3.19,3.19,0,0,0-.08-.63,1.61,1.61,0,0,0,.08-.48v-.95a1.24,1.24,0,0,0,0-.27,1.22,1.22,0,0,0,0-.26v-.86c0-3.34-1.85-6.64-5.07-9C36.3,1.4,31.36,0,25.59,0,12.86,0,6,6.75,6,13.09v.19a5.4,5.4,0,0,0-3,4.38c-1.54.27-3,1.47-3,3a1.87,1.87,0,0,0,.9,1.68L.59,23.75a1.31,1.31,0,0,0,1,1.56,1.14,1.14,0,0,0,.41,0H2c.17,0,.59.34.84.54a6.34,6.34,0,0,0,1,.69,1.3,1.3,0,0,0-.2.75l0,.57a1.41,1.41,0,0,0-.13.64l.06,1A1.3,1.3,0,0,0,5,30.73H5l.63,0h.09a.4.4,0,0,1,.28.08v.15c0,6.92,6.07,6.92,11.42,6.92h16.1c5.35,0,11.42,0,11.42-6.92v-.84a1.29,1.29,0,0,0-.2-.69,7,7,0,0,0,1-.63c.35-.26.35-.26.56-.27l.63,0a1.31,1.31,0,0,0,1.24-1.38l0-1a1.26,1.26,0,0,0-.2-.62l0-.57a1.32,1.32,0,0,0-1.38-1.24l-.47,0-.43,0,.53-2.49A2,2,0,0,0,47.21,21.53Z"/><path class="cls-4" d="M43.63,13.09c0-5.58-6.11-11.78-18-11.78S7.31,7.51,7.31,13.09v.85H43.63Z"/><path class="cls-5" d="M21.67,3H20.49a.15.15,0,0,0-.14.09.69.69,0,0,0,0,.25.73.73,0,0,0,0,.25.17.17,0,0,0,.14.09h1.18a.14.14,0,0,0,.13-.09.74.74,0,0,0,.05-.25.7.7,0,0,0-.05-.25A.13.13,0,0,0,21.67,3Z"/><path class="cls-5" d="M26.08,3H24.9a.13.13,0,0,0-.13.09.7.7,0,0,0-.05.25.74.74,0,0,0,.05.25.15.15,0,0,0,.13.09h1.18a.16.16,0,0,0,.14-.09.73.73,0,0,0,0-.25.69.69,0,0,0,0-.25A.14.14,0,0,0,26.08,3Z"/><path class="cls-5" d="M30.49,3H29.32a.14.14,0,0,0-.14.09.72.72,0,0,0,0,.5.16.16,0,0,0,.14.09h1.17a.16.16,0,0,0,.14-.09.73.73,0,0,0,0-.25.69.69,0,0,0,0-.25A.14.14,0,0,0,30.49,3Z"/><path class="cls-5" d="M19.45,5.59H18.27a.13.13,0,0,0-.13.09.72.72,0,0,0,0,.5.14.14,0,0,0,.13.09h1.18a.17.17,0,0,0,.14-.09.85.85,0,0,0,0-.5A.15.15,0,0,0,19.45,5.59Z"/><path class="cls-5" d="M23.87,5.59H22.69a.13.13,0,0,0-.13.09.53.53,0,0,0,0,.25.74.74,0,0,0,0,.25.14.14,0,0,0,.13.09h1.18A.17.17,0,0,0,24,6.18a.85.85,0,0,0,0-.5A.17.17,0,0,0,23.87,5.59Z"/><path class="cls-5" d="M15.06,5.59H13.88a.15.15,0,0,0-.14.09.85.85,0,0,0,0,.5.17.17,0,0,0,.14.09h1.18a.14.14,0,0,0,.13-.09.74.74,0,0,0,.05-.25.7.7,0,0,0-.05-.25A.13.13,0,0,0,15.06,5.59Z"/><path class="cls-5" d="M28.28,5.59H27.1a.15.15,0,0,0-.14.09.85.85,0,0,0,0,.5.17.17,0,0,0,.14.09h1.18a.14.14,0,0,0,.13-.09.72.72,0,0,0,0-.5A.13.13,0,0,0,28.28,5.59Z"/><path class="cls-5" d="M32.69,5.59H31.51a.14.14,0,0,0-.13.09.72.72,0,0,0,0,.5.14.14,0,0,0,.13.09h1.18a.17.17,0,0,0,.14-.09.73.73,0,0,0,0-.25.69.69,0,0,0,0-.25A.15.15,0,0,0,32.69,5.59Z"/><path class="cls-5" d="M37.1,5.59H35.93a.16.16,0,0,0-.14.09.72.72,0,0,0,0,.5.16.16,0,0,0,.14.09H37.1a.16.16,0,0,0,.14-.09.73.73,0,0,0,0-.25.69.69,0,0,0,0-.25A.16.16,0,0,0,37.1,5.59Z"/><path class="cls-5" d="M21.67,8.34H20.49a.15.15,0,0,0-.14.09.85.85,0,0,0,0,.5.17.17,0,0,0,.14.09h1.18a.14.14,0,0,0,.13-.09.74.74,0,0,0,.05-.25.7.7,0,0,0-.05-.25A.14.14,0,0,0,21.67,8.34Z"/><path class="cls-5" d="M26.08,8.34H24.9a.14.14,0,0,0-.13.09.72.72,0,0,0,0,.5A.14.14,0,0,0,24.9,9h1.18a.16.16,0,0,0,.14-.09.73.73,0,0,0,0-.25.69.69,0,0,0,0-.25A.16.16,0,0,0,26.08,8.34Z"/><path class="cls-5" d="M30.49,8.34H29.32a.16.16,0,0,0-.14.09.53.53,0,0,0,0,.25.55.55,0,0,0,0,.25.16.16,0,0,0,.14.09h1.17a.16.16,0,0,0,.14-.09.73.73,0,0,0,0-.25.7.7,0,0,0-.05-.25A.14.14,0,0,0,30.49,8.34Z"/><path class="cls-5" d="M23.87,11H22.69a.14.14,0,0,0-.13.09.74.74,0,0,0,0,.25.53.53,0,0,0,0,.25.14.14,0,0,0,.13.09h1.18a.17.17,0,0,0,.14-.09.69.69,0,0,0,0-.25.56.56,0,0,0-.05-.25A.14.14,0,0,0,23.87,11Z"/><path class="cls-5" d="M28.28,11H27.1a.17.17,0,0,0-.14.09.73.73,0,0,0,0,.25.69.69,0,0,0,0,.25.17.17,0,0,0,.14.09h1.18a.14.14,0,0,0,.13-.09.7.7,0,0,0,.05-.25.74.74,0,0,0-.05-.25A.14.14,0,0,0,28.28,11Z"/><path class="cls-5" d="M34.87,8.34H33.73a.17.17,0,0,0-.14.09.69.69,0,0,0,0,.25.73.73,0,0,0,0,.25.17.17,0,0,0,.14.09h1.14A.17.17,0,0,0,35,8.93a.73.73,0,0,0,0-.25.69.69,0,0,0,0-.25A.17.17,0,0,0,34.87,8.34Z"/><path class="cls-5" d="M39.42,8.43a.16.16,0,0,0-.14-.09H38.1a.15.15,0,0,0-.13.09.53.53,0,0,0,0,.25.55.55,0,0,0,0,.25A.14.14,0,0,0,38.1,9h1.18a.16.16,0,0,0,.14-.09A.72.72,0,0,0,39.42,8.43Z"/><path class="cls-5" d="M37.1,11H35.88a.14.14,0,0,0-.13.09.55.55,0,0,0,0,.25.53.53,0,0,0,0,.25.14.14,0,0,0,.13.09H37.1a.17.17,0,0,0,.14-.09,1,1,0,0,0,0-.25.73.73,0,0,0,0-.25A.17.17,0,0,0,37.1,11Z"/><path class="cls-5" d="M32.67,11H31.51a.14.14,0,0,0-.13.09.74.74,0,0,0-.05.25.7.7,0,0,0,.05.25.14.14,0,0,0,.13.09h1.16a.16.16,0,0,0,.14-.09.69.69,0,0,0,0-.25.73.73,0,0,0,0-.25A.16.16,0,0,0,32.67,11Z"/><path class="cls-5" d="M12.84,8.34H11.66a.16.16,0,0,0-.14.09.85.85,0,0,0,0,.5.16.16,0,0,0,.14.09h1.18A.14.14,0,0,0,13,8.93a.74.74,0,0,0,0-.25.7.7,0,0,0,0-.25A.14.14,0,0,0,12.84,8.34Z"/><path class="cls-5" d="M17.25,8.34H16.07a.15.15,0,0,0-.13.09.72.72,0,0,0,0,.5.16.16,0,0,0,.14.09h1.17a.17.17,0,0,0,.14-.09.73.73,0,0,0,0-.25.69.69,0,0,0,0-.25A.17.17,0,0,0,17.25,8.34Z"/><path class="cls-5" d="M15,11H13.88a.14.14,0,0,0-.13.1.69.69,0,0,0,0,.25.67.67,0,0,0,0,.24.16.16,0,0,0,.14.09H15a.17.17,0,0,0,.14-.09.69.69,0,0,0,0-.25.64.64,0,0,0,0-.24A.16.16,0,0,0,15,11Z"/><path class="cls-5" d="M19.53,11a.11.11,0,0,0-.08,0H18.27a.14.14,0,0,0-.13.09.55.55,0,0,0,0,.25.53.53,0,0,0,0,.25.14.14,0,0,0,.13.09h1.18a.17.17,0,0,0,.14-.09.69.69,0,0,0,0-.25.64.64,0,0,0,0-.24A.13.13,0,0,0,19.53,11Z"/><path class="cls-6" d="M43.63,17.83c0,.35,0,.64-.35.64H7.67c-.35,0-.35-.29-.35-.64V16.61c0-.35,0-.64.35-.64h35.6c.35,0,.35.29.35.64Z"/><rect class="cls-7" x="7.31" y="14.47" width="36.32" height="0.96"/><polygon class="cls-7" points="30.82 14.8 25.57 17.96 20.13 14.8 30.82 14.8"/><path class="cls-4" d="M7.32,30.08v.84c0,5.58,4.52,5.61,10.11,5.61h16.1c5.58,0,10.1,0,10.1-5.61v-.84Z"/><path class="cls-8" d="M9.11,31.11c0,.88.07,1.49,1.29.88a10.57,10.57,0,0,1,5.8-1.35c-1.15.34-2.5.95-2.63,1.75s.67,1.15,2.43.75c.2.74.95,1.55,2.5.2a10.31,10.31,0,0,1,3.17-2.16c.74-.26.95.13.13.61s-1.55.74-1.68,1.28,0,1.42,1.35,1c0,1,.27,1.76,1.42,1.76s1.61-.61,1.61-1.76c.75.41,1.83.68,1.9-.81a2.66,2.66,0,0,1,1.42-2.5c.68-.33.79.3.34.48a1.23,1.23,0,0,0-.88,1.15c0,.6,1,1.5,2.09.4.08.65,1.29,1.08,1.69-.27s.52-2.18,1.76-2.23c-.85.31-1.35,1.56-.27,2a1.37,1.37,0,0,0,1.75-.95,1.42,1.42,0,0,1,1.49-1c-.88.39-.88,1.76,0,1.82a2.14,2.14,0,0,0,1.89-.81,4.55,4.55,0,0,1,3.71-1c-.33.88.28,1.23.82,1.13s.61-.86.82-1.36H8.4v0C7.86,30.44,7.49,31.85,9.11,31.11Z"/><path class="cls-6" d="M5.49,28.08a2.16,2.16,0,0,1,1.41.4,4.46,4.46,0,0,0,2.73.7,4.39,4.39,0,0,0,2.64-1A2.26,2.26,0,0,1,15,28a4.46,4.46,0,0,0,2.73.7,4.4,4.4,0,0,0,2.64-1,2.15,2.15,0,0,1,1.35-.55,2.18,2.18,0,0,1,1.41.4,4.4,4.4,0,0,0,2.73.7,4.47,4.47,0,0,0,2.64-1,2.26,2.26,0,0,1,2.77-.15,4.67,4.67,0,0,0,5.36-.29A2.24,2.24,0,0,1,38,26.32a2.18,2.18,0,0,1,1.41.4,4.7,4.7,0,0,0,5.37-.29,2.15,2.15,0,0,1,1.36-.54l.46,0L46.58,25l-.46,0a4.65,4.65,0,0,0-2.73,1,2.08,2.08,0,0,1-2.58.14A4.56,4.56,0,0,0,38,25.45a4.62,4.62,0,0,0-2.73,1A1.93,1.93,0,0,1,34,27a2,2,0,0,1-1.31-.38,4.63,4.63,0,0,0-2.82-.72,4.69,4.69,0,0,0-2.73,1,2,2,0,0,1-1.27.52,2,2,0,0,1-1.31-.38,4.64,4.64,0,0,0-2.83-.72,4.59,4.59,0,0,0-2.72,1,2.08,2.08,0,0,1-2.58.14,4.58,4.58,0,0,0-2.83-.72,4.56,4.56,0,0,0-2.72,1,2,2,0,0,1-1.27.52,2,2,0,0,1-1.32-.38,4.61,4.61,0,0,0-2.82-.72l-.46,0,0,.87Z"/><path class="cls-6" d="M45,26.69a4.77,4.77,0,0,1-2.82,1.06A4.72,4.72,0,0,1,39.28,27a1.88,1.88,0,0,0-1.23-.35,1.84,1.84,0,0,0-1.18.48,4.74,4.74,0,0,1-2.82,1.06,4.81,4.81,0,0,1-2.91-.75,1.79,1.79,0,0,0-1.22-.35,1.82,1.82,0,0,0-1.18.48,4.77,4.77,0,0,1-2.82,1.06A4.72,4.72,0,0,1,23,27.88a1.88,1.88,0,0,0-1.23-.35A1.82,1.82,0,0,0,20.6,28a5,5,0,0,1-5.72.31A1.89,1.89,0,0,0,13.65,28a1.82,1.82,0,0,0-1.18.48,4.77,4.77,0,0,1-2.82,1.06,4.8,4.8,0,0,1-2.91-.74,1.83,1.83,0,0,0-1.23-.36l-.63,0,0,1,.63,0a2,2,0,0,1,1.32.37,4.55,4.55,0,0,0,2.82.73,4.62,4.62,0,0,0,2.73-1A2,2,0,0,1,13.69,29a1.93,1.93,0,0,1,1.32.38,4.7,4.7,0,0,0,2.82.72,4.62,4.62,0,0,0,2.73-1,2,2,0,0,1,1.26-.51,1.93,1.93,0,0,1,1.32.38,4.7,4.7,0,0,0,2.82.72,4.62,4.62,0,0,0,2.73-1A2,2,0,0,1,30,28.07a2,2,0,0,1,1.31.37,4.84,4.84,0,0,0,5.56-.3A2.08,2.08,0,0,1,39.41,28,4.88,4.88,0,0,0,45,27.7a1.9,1.9,0,0,1,1.26-.52l.63,0,0-1-.63,0A1.82,1.82,0,0,0,45,26.69Z"/><path class="cls-9" d="M11.19,14.82l-.87,3.73h.11a2.85,2.85,0,0,0,2.66-2.72c0-1-.68-1.82-2.44-1.82C8.49,14,6,15.32,6,18.1a2.12,2.12,0,0,0,.26,1.14c-1.22,0-2-.42-2-1.54,0-2.33,3.21-4.46,6.7-4.46,2.72,0,3.94,1.29,3.94,2.67a3.14,3.14,0,0,1-1.85,2.68,2.53,2.53,0,0,1,2.18,2.7c0,1.62-1,4.84-4,4.84-.79,0-1.83-.21-1.83-1.24a2.31,2.31,0,0,1,.24-1,1.74,1.74,0,0,0,1.24.6c1.34,0,1.82-1.75,1.82-3s-.4-2.13-1.75-2.13c-.15,0-.52,0-.85.05L8.61,25.85H6L8.46,15.16Z"/><path class="cls-3" d="M11.25,26.77a2.73,2.73,0,0,1-2.05-.71.62.62,0,0,1-.59.42H6a.64.64,0,0,1-.5-.24.62.62,0,0,1-.12-.54l1.41-6a.67.67,0,0,1-.44.18c-2.27,0-2.61-1.37-2.61-2.18,0-2.67,3.49-5.09,7.33-5.09a5.48,5.48,0,0,1,3.37,1,2.91,2.91,0,0,1,1.2,2.35,3.46,3.46,0,0,1-1.15,2.5,3.2,3.2,0,0,1,1.48,2.88,6.72,6.72,0,0,1-1,3.36A4.2,4.2,0,0,1,11.25,26.77ZM10.06,25c0,.35.45.53,1.19.53A3,3,0,0,0,13.89,24a5.45,5.45,0,0,0,.77-2.69A1.91,1.91,0,0,0,13,19.21a.64.64,0,0,1-.52-.53.7.7,0,0,1,0-.35,3.09,3.09,0,0,1-.73.51,2.58,2.58,0,0,1,1.56,2.65c0,1.77-.77,3.66-2.46,3.66A1.87,1.87,0,0,1,10.06,25Zm-3.32.25H8.1l1.4-5.95a.6.6,0,0,1,.28-.39.64.64,0,0,1-.07-.47l.66-2.85L9,15.73Zm3.11-1.91a.61.61,0,0,1,.24.15c.42.39.62.43.81.43.87,0,1.19-1.47,1.19-2.4,0-1.32-.54-1.5-1.12-1.5l-.34,0ZM7.67,15.73a3.11,3.11,0,0,0-1,2.37,1.29,1.29,0,0,0,.13.71,1.56,1.56,0,0,1,.1.22ZM6.19,15.5A3,3,0,0,0,5,17.7a.7.7,0,0,0,.47.78c0-.11,0-.24,0-.38A4.44,4.44,0,0,1,6.19,15.5Zm7-1.22a2.31,2.31,0,0,1,.57,1.55A3.5,3.5,0,0,1,12.85,18a2.53,2.53,0,0,0,1.47-2.1A1.8,1.8,0,0,0,13.16,14.28Zm-1.34.58a.34.34,0,0,1,0,.1l-.65,2.79a2.32,2.32,0,0,0,1.3-1.92A1,1,0,0,0,11.82,14.86Z"/><path class="cls-9" d="M22.68,17.85,21.53,23.3a2.22,2.22,0,0,0-.06.51c0,.45.21.59.65.59.63,0,1.06-.6,1.3-1.41h.67c-.91,2.62-2.35,3-3.21,3a1.5,1.5,0,0,1-1.59-1.52A2.64,2.64,0,0,1,16.92,26c-1,0-1.71-.58-1.71-1.92A5.38,5.38,0,0,1,15.34,23l1.09-5.14h2.3L17.58,23.3a2.3,2.3,0,0,0,0,.45c0,.37.13.65.48.65.63,0,1-.6,1.28-1.41l1.09-5.14Z"/><path class="cls-3" d="M20.88,26.5a2,2,0,0,1-1.79-.92,2.9,2.9,0,0,1-2.17.92A2.19,2.19,0,0,1,14.67,24a5.67,5.67,0,0,1,.14-1.17l1.09-5.13a.54.54,0,0,1,.53-.43h2.3a.52.52,0,0,1,.42.2.5.5,0,0,1,.11.45l-1.15,5.45a2,2,0,0,0,0,.34s0,.08,0,.1c.36-.07.59-.69.68-1l1.09-5.12a.54.54,0,0,1,.53-.43h2.3a.52.52,0,0,1,.42.2.5.5,0,0,1,.11.45l-1.15,5.45v0a1.74,1.74,0,0,0,0,.39v0h.11c.44,0,.71-.78.78-1a.55.55,0,0,1,.52-.39h.67a.54.54,0,0,1,.52.72C23.64,25.92,22.05,26.5,20.88,26.5Zm-1.39-2.57a.52.52,0,0,1,.34.46c.07.7.4,1,1.05,1a2.16,2.16,0,0,0,1.37-.48h-.13a1.05,1.05,0,0,1-1.19-1.14,2.59,2.59,0,0,1,.07-.63l1-4.79h-1.2l-1,4.72s0,0,0,0A4.18,4.18,0,0,1,19.49,23.93Zm-2.62-5.54-1,4.72a4.94,4.94,0,0,0-.12.94c0,.9.4,1.37,1.17,1.37a1.82,1.82,0,0,0,1.29-.49L18,25c-.47,0-1-.32-1-1.2a2.6,2.6,0,0,1,.06-.56l1-4.8Z"/><path class="cls-9" d="M26.82,17.85l-.21,1a3.17,3.17,0,0,1,1.94-1,1.19,1.19,0,0,1-.05,2.37c-.9,0-.45-1-.93-1a1.68,1.68,0,0,0-1.17.6l-1.28,6.09H22.81l1.7-8Z"/><path class="cls-3" d="M25.12,26.4H22.81a.53.53,0,0,1-.42-.2.55.55,0,0,1-.11-.45l1.7-8a.54.54,0,0,1,.53-.43h2.31a.55.55,0,0,1,.42.2.64.64,0,0,1,.08.14,2.51,2.51,0,0,1,1.23-.34,1.73,1.73,0,0,1-.05,3.45,1.11,1.11,0,0,1-1.16-1,1.23,1.23,0,0,0-.44.31L25.65,26A.53.53,0,0,1,25.12,26.4Zm-1.64-1.08h1.2l1.19-5.66a.51.51,0,0,1,.17-.28,1.49,1.49,0,0,1,.18-.17.52.52,0,0,1-.14-.48l.07-.34H25Zm5-5.64h.06a.58.58,0,0,0,.61-.63c0-.06,0-.66-.56-.66a1.53,1.53,0,0,0-.79.25c.49.11.59.64.63.83A1.29,1.29,0,0,0,28.44,19.68Z"/><path class="cls-9" d="M36.49,17.85l-1.58,7.43a3,3,0,0,0,2-2.29h.68a3.9,3.9,0,0,1-2.84,3l-.24,1.15c-.47,2.29-1.83,2.72-2.88,2.72s-1.8-.51-1.8-1.55c0-1.35,1.41-2,2.61-2.39l.2-.85a2.56,2.56,0,0,1-1.93.88c-1.09,0-2.13-.67-2.13-2.58,0-2.16,1.33-5.6,4.11-5.6.92,0,1.3.35,1.3.82v.09l.18-.83ZM31.27,28.62c.34,0,.72-.48.93-1.43l.1-.46c-.82.3-1.58.72-1.58,1.36a.55.55,0,0,0,.54.52ZM31,23.15c0,1.24.51,1.25.8,1.25a1.57,1.57,0,0,0,1.28-1.25l.82-3.79a.64.64,0,0,0-.67-.6h0c-1.36,0-2.24,2.9-2.24,4.39Z"/><path class="cls-3" d="M31.64,30.41a2.11,2.11,0,0,1-2.34-2.1,2.35,2.35,0,0,1,.91-1.86c-1.12-.2-2.16-1.08-2.16-3.08,0-2.57,1.62-6.14,4.65-6.14a2.43,2.43,0,0,1,1.11.22.55.55,0,0,1,.37-.14h2.31a.55.55,0,0,1,.42.2A.56.56,0,0,1,37,18l-1.33,6.22a3.41,3.41,0,0,0,.72-1.36.54.54,0,0,1,.51-.37h.68a.53.53,0,0,1,.43.22.58.58,0,0,1,.09.48,4.41,4.41,0,0,1-2.9,3.26l-.17.84C34.51,29.86,32.9,30.41,31.64,30.41Zm-1.1-1.54a1.31,1.31,0,0,0,1.1.45c1.26,0,2-.75,2.35-2.29l.24-1.15a.53.53,0,0,1,.21-.33.5.5,0,0,1-.06-.38l1.44-6.78H34.61l-.08.4a.5.5,0,0,1-.17.29,1,1,0,0,1,0,.25.59.59,0,0,1,0,.14l-.81,3.8v0a2.39,2.39,0,0,1-.8,1.25l.12,0a.53.53,0,0,1,.28.6L33,26a.52.52,0,0,1-.26.35.56.56,0,0,1,.11.45l-.1.46c-.26,1.18-.79,1.86-1.46,1.86h-.1A1.1,1.1,0,0,1,30.54,28.87Zm.88-1.06a.59.59,0,0,0-.15.23A1,1,0,0,0,31.42,27.81Zm1.27-9.5c-2.29,0-3.56,3-3.56,5.06,0,1.69.87,2,1.59,2a2,2,0,0,0,1.32-.5,1.36,1.36,0,0,1-.27,0c-.87,0-1.32-.58-1.34-1.71a.28.28,0,0,1,0-.09,8.21,8.21,0,0,1,.65-3A3.15,3.15,0,0,1,32.69,18.31ZM31.5,23.08a.17.17,0,0,1,0,.07c0,.58.12.7.12.7h.14a1.06,1.06,0,0,0,.75-.84l.79-3.67a.09.09,0,0,0-.08-.05h0C32.52,19.31,31.53,21.28,31.5,23.08Z"/><path class="cls-9" d="M39.71,24.61A3.64,3.64,0,0,0,42.54,23h.55c-.92,1.48-2.28,3-4.41,3a2.25,2.25,0,0,1-2.5-2.55c0-1.84,1-5.7,4.33-5.7,1.42,0,1.76.73,1.76,1.53,0,1.85-1.76,3.27-3.69,3.39,0,.22,0,.44,0,.64C38.55,24.36,38.94,24.61,39.71,24.61Zm.92-6.05c-.81,0-1.6,1.71-1.92,3.3A2.69,2.69,0,0,0,41,19.21C41,18.81,40.94,18.56,40.63,18.56Z"/><path class="cls-3" d="M38.68,26.5a2.79,2.79,0,0,1-3-3.09c0-2,1.19-6.25,4.87-6.25,1.48,0,2.3.74,2.3,2.08a4.19,4.19,0,0,1-3.71,3.87.92.92,0,0,0,0,.16c0,.8.16.8.62.8a3.15,3.15,0,0,0,2.43-1.43.53.53,0,0,1,.4-.19h.55a.56.56,0,0,1,.47.28.57.57,0,0,1,0,.55C42.2,25.45,40.61,26.5,38.68,26.5Zm1.15-8.18c-2.33.5-3.11,3.55-3.11,5.09,0,1.37.62,2,2,2a3.61,3.61,0,0,0,1.42-.29,2.55,2.55,0,0,1-.39,0c-1.16,0-1.7-.6-1.7-1.88,0-.21,0-.45,0-.67a.58.58,0,0,1,.24-.42.55.55,0,0,1-.1-.43A6.5,6.5,0,0,1,39.83,18.32Zm.66.84a4.22,4.22,0,0,0-1,1.88,2.25,2.25,0,0,0,1-1.83Zm.92-.72a1.57,1.57,0,0,1,.17.77,3.27,3.27,0,0,1-.43,1.6,2.55,2.55,0,0,0,.58-1.57A.88.88,0,0,0,41.41,18.44Zm-.78.66h0v0Z"/><path class="cls-9" d="M45.53,17.85l-.21,1a3.17,3.17,0,0,1,1.94-1,1.19,1.19,0,0,1,0,2.37c-.9,0-.45-1-.93-1a1.68,1.68,0,0,0-1.17.6l-1.28,6.09h-2.3l1.69-8Z"/><path class="cls-3" d="M43.83,26.4h-2.3a.55.55,0,0,1-.43-.2.51.51,0,0,1-.1-.45l1.69-8a.55.55,0,0,1,.53-.43h2.31a.55.55,0,0,1,.42.2.64.64,0,0,1,.08.14,2.51,2.51,0,0,1,1.23-.34,1.73,1.73,0,0,1,0,3.45,1.11,1.11,0,0,1-1.16-1,1.34,1.34,0,0,0-.45.31L44.36,26A.53.53,0,0,1,43.83,26.4Zm-1.64-1.08h1.2l1.19-5.66a.5.5,0,0,1,.16-.28l.18-.17a.54.54,0,0,1-.13-.48l.07-.34h-1.2Zm5-5.64h.06a.59.59,0,0,0,.61-.63c0-.06,0-.66-.56-.66a1.53,1.53,0,0,0-.79.25c.48.11.59.64.62.83S47.13,19.63,47.15,19.68Z"/><path class="cls-10" d="M11.19,14.82l-.87,3.73h.11a2.85,2.85,0,0,0,2.66-2.72c0-1-.68-1.82-2.44-1.82C8.49,14,6,15.32,6,18.1a2.12,2.12,0,0,0,.26,1.14c-1.22,0-2-.42-2-1.54,0-2.33,3.21-4.46,6.7-4.46,2.72,0,3.94,1.29,3.94,2.67a3.14,3.14,0,0,1-1.85,2.68,2.53,2.53,0,0,1,2.18,2.7c0,1.62-1,4.84-4,4.84-.79,0-1.83-.21-1.83-1.24a2.31,2.31,0,0,1,.24-1,1.74,1.74,0,0,0,1.24.6c1.34,0,1.82-1.75,1.82-3s-.4-2.13-1.75-2.13c-.15,0-.52,0-.85.05L8.61,25.85H6L8.46,15.16Z"/><path class="cls-10" d="M22.68,17.85,21.53,23.3a2.22,2.22,0,0,0-.06.51c0,.45.21.59.65.59.63,0,1.06-.6,1.3-1.41h.67c-.91,2.62-2.35,3-3.21,3a1.5,1.5,0,0,1-1.59-1.52A2.64,2.64,0,0,1,16.92,26c-1,0-1.71-.58-1.71-1.92A5.38,5.38,0,0,1,15.34,23l1.09-5.14h2.3L17.58,23.3a2.3,2.3,0,0,0,0,.45c0,.37.13.65.48.65.63,0,1-.6,1.28-1.41l1.09-5.14Z"/><path class="cls-10" d="M26.82,17.85l-.21,1a3.17,3.17,0,0,1,1.94-1,1.19,1.19,0,0,1-.05,2.37c-.9,0-.45-1-.93-1a1.68,1.68,0,0,0-1.17.6l-1.28,6.09H22.81l1.7-8Z"/><path class="cls-10" d="M36.49,17.85l-1.58,7.43a3,3,0,0,0,2-2.29h.68a3.9,3.9,0,0,1-2.84,3l-.24,1.15c-.47,2.29-1.83,2.72-2.88,2.72s-1.8-.51-1.8-1.55c0-1.35,1.41-2,2.61-2.39l.2-.85a2.56,2.56,0,0,1-1.93.88c-1.09,0-2.13-.67-2.13-2.58,0-2.16,1.33-5.6,4.11-5.6.92,0,1.3.35,1.3.82v.09l.18-.83ZM31.27,28.62c.34,0,.72-.48.93-1.43l.1-.46c-.82.3-1.58.72-1.58,1.36a.55.55,0,0,0,.54.52ZM31,23.15c0,1.24.51,1.25.8,1.25a1.57,1.57,0,0,0,1.28-1.25l.82-3.79a.64.64,0,0,0-.67-.6h0c-1.36,0-2.24,2.9-2.24,4.39Z"/><path class="cls-10" d="M39.71,24.61A3.64,3.64,0,0,0,42.54,23h.55c-.92,1.48-2.28,3-4.41,3a2.25,2.25,0,0,1-2.5-2.55c0-1.84,1-5.7,4.33-5.7,1.42,0,1.76.73,1.76,1.53,0,1.85-1.76,3.27-3.69,3.39,0,.22,0,.44,0,.64C38.55,24.36,38.94,24.61,39.71,24.61Zm.92-6.05c-.81,0-1.6,1.71-1.92,3.3A2.69,2.69,0,0,0,41,19.21C41,18.81,40.94,18.56,40.63,18.56Z"/><path class="cls-10" d="M45.53,17.85l-.21,1a3.17,3.17,0,0,1,1.94-1,1.19,1.19,0,0,1,0,2.37c-.9,0-.45-1-.93-1a1.68,1.68,0,0,0-1.17.6l-1.28,6.09h-2.3l1.69-8Z"/><path class="cls-9" d="M15.11,30.42l1.38-4h.87v4l1.42-4h.46L17.4,31.3h-1V27.94L15.12,31.3h-1V26.79a1.41,1.41,0,0,0-1.07,1.47.89.89,0,0,0,.09.45c-.46,0-.71-.17-.71-.65,0-.87,1.22-1.71,2.32-1.71h.27Z"/><path class="cls-3" d="M17.4,31.84h-1a.54.54,0,0,1-.54-.54v-.48l-.27.68a.54.54,0,0,1-.5.34h-1a.54.54,0,0,1-.54-.54V29a.59.59,0,0,1-.44.22,1.11,1.11,0,0,1-1.25-1.19,2.74,2.74,0,0,1,2.86-2.25h.35a.56.56,0,0,1,.46.53v1L16,26.2a.55.55,0,0,1,.51-.36h.87a.54.54,0,0,1,.54.54v.87l.37-1.05a.54.54,0,0,1,.51-.36h.46a.54.54,0,0,1,.51.73l-1.84,4.92A.54.54,0,0,1,17.4,31.84Zm-.71-4.37a.6.6,0,0,1,.13.09v-.45Z"/><path class="cls-9" d="M19.69,30.79a1.54,1.54,0,0,0,1.17-.67h.22a2.17,2.17,0,0,1-1.82,1.22.93.93,0,0,1-1-1.05c0-.75.43-2.35,1.79-2.35.59,0,.72.3.72.63A1.54,1.54,0,0,1,19.22,30c0,.09,0,.18,0,.26C19.21,30.68,19.37,30.79,19.69,30.79Zm.39-2.49c-.34,0-.66.7-.79,1.36a1.1,1.1,0,0,0,.95-1.09C20.23,28.4,20.2,28.3,20.08,28.3Z"/><path class="cls-3" d="M19.26,31.88a1.45,1.45,0,0,1-1.57-1.59c0-1.2.72-2.89,2.33-2.89a1.14,1.14,0,0,1,1.27,1.17,1.77,1.77,0,0,1-.33,1h.12a.51.51,0,0,1,.47.28.52.52,0,0,1,0,.54A2.67,2.67,0,0,1,19.26,31.88Z"/><path class="cls-9" d="M22.22,30.79a1.54,1.54,0,0,0,1.17-.67h.23a2.18,2.18,0,0,1-1.82,1.22.93.93,0,0,1-1-1.05c0-.75.43-2.35,1.78-2.35.59,0,.73.3.73.63A1.54,1.54,0,0,1,21.76,30c0,.09,0,.18,0,.26C21.75,30.68,21.91,30.79,22.22,30.79Zm.39-2.49c-.34,0-.67.7-.8,1.36a1.1,1.1,0,0,0,1-1.09C22.77,28.4,22.73,28.3,22.61,28.3Z"/><path class="cls-3" d="M21.8,31.88a1.45,1.45,0,0,1-1.57-1.59c0-1.2.72-2.89,2.32-2.89a1.13,1.13,0,0,1,1.27,1.17,1.83,1.83,0,0,1-.32,1h.12a.53.53,0,0,1,.47.28.52.52,0,0,1,0,.54A2.68,2.68,0,0,1,21.8,31.88Z"/><path class="cls-9" d="M26.51,28l-1.32.92a.78.78,0,0,1,.22,0,.7.7,0,0,1,.72.77,1,1,0,0,1,0,.25l-.07.34a1.18,1.18,0,0,0,0,.21c0,.13.05.24.26.24a.45.45,0,0,0,.23,0,.73.73,0,0,1-.62.68c-.54,0-.83-.27-.83-.75a1.86,1.86,0,0,1,0-.34l.06-.26a2.11,2.11,0,0,0,0-.25c0-.19-.07-.31-.24-.31a.82.82,0,0,0-.48.24l-.35,1.63h-.95l1-4.49,1-.13L24.58,29l1.28-1Z"/><path class="cls-3" d="M25.87,31.88a1.27,1.27,0,0,1-1.21-.64l0,.17a.54.54,0,0,1-.53.43h-.95a.53.53,0,0,1-.42-.2.56.56,0,0,1-.11-.45l1-4.5a.54.54,0,0,1,.46-.42l1-.13a.54.54,0,0,1,.46.17.57.57,0,0,1,.14.48l-.19.86.1-.08a.6.6,0,0,1,.34-.11h.65a.54.54,0,0,1,.31,1l-.46.32a1.35,1.35,0,0,1,.31.9,1.23,1.23,0,0,1,0,.38l0,.09a.58.58,0,0,1,.18.08.55.55,0,0,1,.24.48A1.28,1.28,0,0,1,26,31.88Z"/><path class="cls-10" d="M15.11,30.42l1.38-4h.87v4l1.42-4h.46L17.4,31.3h-1V27.94L15.12,31.3h-1V26.79a1.41,1.41,0,0,0-1.07,1.47.89.89,0,0,0,.09.45c-.46,0-.71-.17-.71-.65,0-.87,1.22-1.71,2.32-1.71h.27Z"/><path class="cls-10" d="M19.69,30.79a1.54,1.54,0,0,0,1.17-.67h.22a2.17,2.17,0,0,1-1.82,1.22.93.93,0,0,1-1-1.05c0-.75.43-2.35,1.79-2.35.59,0,.72.3.72.63A1.54,1.54,0,0,1,19.22,30c0,.09,0,.18,0,.26C19.21,30.68,19.37,30.79,19.69,30.79Zm.39-2.49c-.34,0-.66.7-.79,1.36a1.1,1.1,0,0,0,.95-1.09C20.23,28.4,20.2,28.3,20.08,28.3Z"/><path class="cls-10" d="M22.22,30.79a1.54,1.54,0,0,0,1.17-.67h.23a2.18,2.18,0,0,1-1.82,1.22.93.93,0,0,1-1-1.05c0-.75.43-2.35,1.78-2.35.59,0,.73.3.73.63A1.54,1.54,0,0,1,21.76,30c0,.09,0,.18,0,.26C21.75,30.68,21.91,30.79,22.22,30.79Zm.39-2.49c-.34,0-.67.7-.8,1.36a1.1,1.1,0,0,0,1-1.09C22.77,28.4,22.73,28.3,22.61,28.3Z"/><path class="cls-10" d="M26.51,28l-1.32.92a.78.78,0,0,1,.22,0,.7.7,0,0,1,.72.77,1,1,0,0,1,0,.25l-.07.34a1.18,1.18,0,0,0,0,.21c0,.13.05.24.26.24a.45.45,0,0,0,.23,0,.73.73,0,0,1-.62.68c-.54,0-.83-.27-.83-.75a1.86,1.86,0,0,1,0-.34l.06-.26a2.11,2.11,0,0,0,0-.25c0-.19-.07-.31-.24-.31a.82.82,0,0,0-.48.24l-.35,1.63h-.95l1-4.49,1-.13L24.58,29l1.28-1Z"/><path class="cls-9" d="M2.9,23.73c.69.16,1.4.86,2.25.86a1.54,1.54,0,0,0,.56-.1c-.07.64-.34,1.05-.7,1.05-1,0-1.8-1.52-3-1.52H1.87l1-4.64a1.47,1.47,0,0,0-.94,1.46.87.87,0,0,0,.09.45c-.46,0-.71-.16-.71-.65,0-.89,1.23-1.73,2.35-1.73h.26Z"/><path class="cls-3" d="M5,26.08a2.85,2.85,0,0,1-1.67-.82A2.42,2.42,0,0,0,2,24.56H1.91a.56.56,0,0,1-.45-.19.53.53,0,0,1-.12-.47l.45-2.08a1.09,1.09,0,0,1-1-1.18,2.78,2.78,0,0,1,2.89-2.28,1.5,1.5,0,0,1,.35,0,.51.51,0,0,1,.36.22.57.57,0,0,1,.08.42l-.92,4.35.5.26a2.56,2.56,0,0,0,1.13.41A.84.84,0,0,0,5.51,24a.54.54,0,0,1,.52.07.53.53,0,0,1,.22.49C6.13,25.67,5.53,26.08,5,26.08Z"/><path class="cls-9" d="M5.12,23.27a1.4,1.4,0,0,0,.79-.36,1.07,1.07,0,0,1-1.16,1,.94.94,0,0,1-1-1.06c0-.75.44-2.38,1.81-2.38.6,0,.74.31.74.64a1.54,1.54,0,0,1-1.54,1.41c0,.07,0,.14,0,.2C4.7,23.13,4.88,23.27,5.12,23.27Zm.45-2.46c-.33,0-.66.75-.81,1.38a1.11,1.11,0,0,0,1-1.11C5.74,20.92,5.7,20.81,5.57,20.81Z"/><path class="cls-3" d="M4.75,24.44a1.48,1.48,0,0,1-1.58-1.6c0-1.21.73-2.92,2.35-2.92A1.14,1.14,0,0,1,6.8,21.1a1.84,1.84,0,0,1-.61,1.35.55.55,0,0,1,.25.56A1.61,1.61,0,0,1,4.75,24.44Zm.37-1.17Z"/><path class="cls-10" d="M2.9,23.73c.69.16,1.4.86,2.25.86a1.54,1.54,0,0,0,.56-.1c-.07.64-.34,1.05-.7,1.05-1,0-1.8-1.52-3-1.52H1.87l1-4.64a1.47,1.47,0,0,0-.94,1.46.87.87,0,0,0,.09.45c-.46,0-.71-.16-.71-.65,0-.89,1.23-1.73,2.35-1.73h.26Z"/><path class="cls-10" d="M5.12,23.27a1.4,1.4,0,0,0,.79-.36,1.07,1.07,0,0,1-1.16,1,.94.94,0,0,1-1-1.06c0-.75.44-2.38,1.81-2.38.6,0,.74.31.74.64a1.54,1.54,0,0,1-1.54,1.41c0,.07,0,.14,0,.2C4.7,23.13,4.88,23.27,5.12,23.27Zm.45-2.46c-.33,0-.66.75-.81,1.38a1.11,1.11,0,0,0,1-1.11C5.74,20.92,5.7,20.81,5.57,20.81Z"/></g></g></g></svg>