<svg xmlns="http://www.w3.org/2000/svg" viewBox="0 0 270.04 37.9"><defs><style>.cls-1{fill:#4a2b2b;}.cls-2{fill:#ea6433;}.cls-3{fill:#fff;}.cls-4{fill:#ab7029;}.cls-5{fill:#9c6226;}.cls-6{fill:#b32029;}.cls-7{fill:#faa21e;}.cls-8{fill:#a9ae38;}.cls-9{fill:#6d1f11;}.cls-10{fill:#411f1f;}</style></defs><title>logo-main-fr</title><g id="Layer_2" data-name="Layer 2"><g id="Layer_1-2" data-name="Layer 1"><path class="cls-1" d="M60.61,30A8.8,8.8,0,0,1,57,29.35a6.45,6.45,0,0,1-2.45-1.83l2-2.25a5.77,5.77,0,0,0,2,1.45,5.16,5.16,0,0,0,2.16.47,2.91,2.91,0,0,0,1.92-.56A2.06,2.06,0,0,0,63.3,25a1.7,1.7,0,0,0-.5-1.32A3.41,3.41,0,0,0,61.1,23l-1.7-.28a4.9,4.9,0,0,1-3.18-1.62,4.77,4.77,0,0,1-1-3.05,4.52,4.52,0,0,1,1.55-3.66,6.55,6.55,0,0,1,4.32-1.29,8.5,8.5,0,0,1,3.3.58,5.91,5.91,0,0,1,2.27,1.57l-2,2.22a4.83,4.83,0,0,0-1.54-1.14,4.78,4.78,0,0,0-2-.4c-1.58,0-2.36.65-2.36,2a1.54,1.54,0,0,0,.52,1.28,4,4,0,0,0,1.72.64l1.71.3a5.29,5.29,0,0,1,3.06,1.5,4.3,4.3,0,0,1,1.08,3.08,5.58,5.58,0,0,1-.4,2.11,4.65,4.65,0,0,1-1.19,1.69,5.56,5.56,0,0,1-2,1.1A8.17,8.17,0,0,1,60.61,30Z"/><path class="cls-1" d="M74.76,30a6,6,0,0,1-4.61-1.68,6.48,6.48,0,0,1-1.56-4.59A7.88,7.88,0,0,1,69,21.1a5.55,5.55,0,0,1,1.17-2A4.86,4.86,0,0,1,72,17.82a6.77,6.77,0,0,1,2.45-.43,6.66,6.66,0,0,1,2.43.43,5.09,5.09,0,0,1,1.83,1.23A5.63,5.63,0,0,1,79.87,21a7.28,7.28,0,0,1,.41,2.54v1H72v.21a2.52,2.52,0,0,0,.72,1.88,2.89,2.89,0,0,0,2.13.72A4,4,0,0,0,76.73,27a4.52,4.52,0,0,0,1.33-1.09l1.87,2a5.82,5.82,0,0,1-2,1.5A7.2,7.2,0,0,1,74.76,30Zm-.28-10.15a2.38,2.38,0,0,0-1.79.69A2.58,2.58,0,0,0,72,22.42v.19h4.86v-.19a2.6,2.6,0,0,0-.64-1.87A2.34,2.34,0,0,0,74.48,19.87Z"/><path class="cls-1" d="M81.69,29.74V17.67h2.78v1.78h.16A4.36,4.36,0,0,1,85.44,18a1.83,1.83,0,0,1,1.48-.61c1.17,0,1.89.69,2.16,2.06h.14a4.41,4.41,0,0,1,.35-.8,2.93,2.93,0,0,1,.51-.65,2.22,2.22,0,0,1,.73-.44,2.68,2.68,0,0,1,1-.17c1.68,0,2.53,1.24,2.53,3.72v8.63H91.53V21.46a1.87,1.87,0,0,0-.29-1.18,1,1,0,0,0-.76-.34,1.09,1.09,0,0,0-.76.29,1.19,1.19,0,0,0-.32.9v8.61H86.6V21.46a2,2,0,0,0-.27-1.18.89.89,0,0,0-.74-.34,1.07,1.07,0,0,0-1.12,1.19v8.61Z"/><path class="cls-1" d="M105.94,29.74a2.57,2.57,0,0,1-1.73-.55,2.28,2.28,0,0,1-.77-1.58h-.12a2.93,2.93,0,0,1-1.3,1.8,4.35,4.35,0,0,1-2.37.61,4,4,0,0,1-2.82-.95,3.35,3.35,0,0,1-1.06-2.65,3.13,3.13,0,0,1,1.37-2.81,7.45,7.45,0,0,1,4-.91h1.94v-.61a2.3,2.3,0,0,0-.5-1.62,2.21,2.21,0,0,0-1.7-.55,3.31,3.31,0,0,0-1.77.42A4,4,0,0,0,98,21.44l-1.9-1.69A4.55,4.55,0,0,1,98,18.06a7.17,7.17,0,0,1,3.33-.67,6,6,0,0,1,3.87,1.14A4.13,4.13,0,0,1,106.59,22v5.29h1.34v2.5Zm-5-2a2.57,2.57,0,0,0,1.54-.44,1.49,1.49,0,0,0,.63-1.29V24.57h-1.84c-1.42,0-2.13.48-2.13,1.43v.47a1.08,1.08,0,0,0,.49,1A2.37,2.37,0,0,0,101,27.75Z"/><path class="cls-1" d="M110.31,27h3.84V20.39h-3.84V17.67h7.3V27h3.55v2.71H110.31Zm5.57-10.9a2.22,2.22,0,0,1-1.63-.48,1.64,1.64,0,0,1-.45-1.16v-.68a1.65,1.65,0,0,1,.45-1.17,2.27,2.27,0,0,1,1.63-.46,2.22,2.22,0,0,1,1.62.46,1.61,1.61,0,0,1,.46,1.17v.68a1.61,1.61,0,0,1-.46,1.16A2.18,2.18,0,0,1,115.88,16.13Z"/><path class="cls-1" d="M123.2,29.74V17.67h3.46v2.2h.14a4.94,4.94,0,0,1,.52-1,3.58,3.58,0,0,1,.73-.78,3.37,3.37,0,0,1,1-.54,4,4,0,0,1,1.3-.2,4.36,4.36,0,0,1,1.59.29,3.39,3.39,0,0,1,1.24.88A4.22,4.22,0,0,1,134,20a5.77,5.77,0,0,1,.3,1.94v7.81h-3.47V22.4c0-1.56-.67-2.34-2-2.34a2.88,2.88,0,0,0-.78.1,2,2,0,0,0-.69.33,1.49,1.49,0,0,0-.48.55,1.59,1.59,0,0,0-.18.77v7.93Z"/><path class="cls-1" d="M142.59,30A6,6,0,0,1,138,28.34a6.49,6.49,0,0,1-1.57-4.59,8.14,8.14,0,0,1,.41-2.65,5.85,5.85,0,0,1,1.17-2,5,5,0,0,1,1.85-1.27,6.75,6.75,0,0,1,2.44-.43,6.67,6.67,0,0,1,2.44.43,5.14,5.14,0,0,1,1.82,1.23A5.5,5.5,0,0,1,147.7,21a7.52,7.52,0,0,1,.41,2.54v1h-8.26v.21a2.49,2.49,0,0,0,.73,1.88,2.89,2.89,0,0,0,2.13.72,3.9,3.9,0,0,0,1.84-.41,4.56,4.56,0,0,0,1.34-1.09l1.87,2a5.76,5.76,0,0,1-2,1.5A7.15,7.15,0,0,1,142.59,30Zm-.28-10.15a2.37,2.37,0,0,0-1.79.69,2.54,2.54,0,0,0-.67,1.86v.19h4.87v-.19a2.61,2.61,0,0,0-.65-1.87A2.31,2.31,0,0,0,142.31,19.87Z"/><path class="cls-1" d="M164.57,27.52h-.17a4.74,4.74,0,0,1-1.29,1.81,3.5,3.5,0,0,1-2.29.69,4.37,4.37,0,0,1-1.83-.37,3.67,3.67,0,0,1-1.43-1.15,5.58,5.58,0,0,1-.93-2,10.3,10.3,0,0,1-.34-2.83,10.25,10.25,0,0,1,.34-2.83,5.64,5.64,0,0,1,.93-2A3.73,3.73,0,0,1,159,17.77a4.37,4.37,0,0,1,1.83-.38,4.17,4.17,0,0,1,1.29.19,3.28,3.28,0,0,1,1.74,1.31,5.68,5.68,0,0,1,.55,1h.17V12.43H168V29.74h-3.46Zm-2.25-.21a2.82,2.82,0,0,0,1.58-.44,1.55,1.55,0,0,0,.67-1.4V21.94a1.54,1.54,0,0,0-.67-1.39,2.74,2.74,0,0,0-1.58-.44,2.29,2.29,0,0,0-1.8.7,2.88,2.88,0,0,0-.63,2v1.86a2.85,2.85,0,0,0,.63,2A2.29,2.29,0,0,0,162.32,27.31Z"/><path class="cls-1" d="M178,27.54h-.14a4.28,4.28,0,0,1-1.25,1.76,3.46,3.46,0,0,1-2.3.72,4.29,4.29,0,0,1-1.59-.29,3.23,3.23,0,0,1-1.24-.88,4,4,0,0,1-.81-1.42,6.11,6.11,0,0,1-.29-1.95V17.67h3.46V25c0,1.56.68,2.34,2,2.34a3,3,0,0,0,.79-.11,2,2,0,0,0,.68-.33,1.83,1.83,0,0,0,.48-.55,1.54,1.54,0,0,0,.18-.77V17.67h3.46V29.74H178Z"/><path class="cls-2" d="M190.87,13.42h5.73a5.27,5.27,0,0,1,3.69,1.17,4.1,4.1,0,0,1,1.27,3.18,3.38,3.38,0,0,1-.69,2.23,3.86,3.86,0,0,1-2,1.2v.14a4.53,4.53,0,0,1,2.36,1.31,3.81,3.81,0,0,1,.83,2.6,4.32,4.32,0,0,1-1.3,3.28,5.13,5.13,0,0,1-3.64,1.21h-6.27Zm4.75,6.92a3.1,3.1,0,0,0,1.8-.41,1.71,1.71,0,0,0,.56-1.49v-.7a1.67,1.67,0,0,0-.56-1.47,3.11,3.11,0,0,0-1.8-.4h-1.33v4.47Zm.44,7a3.12,3.12,0,0,0,1.85-.43,1.77,1.77,0,0,0,.59-1.54v-.68a1.77,1.77,0,0,0-.59-1.54,3.2,3.2,0,0,0-1.85-.42h-1.77v4.61Z"/><path class="cls-2" d="M211.69,27.54h-.14a4.48,4.48,0,0,1-1.25,1.76A3.47,3.47,0,0,1,208,30a4.36,4.36,0,0,1-1.59-.29,3.39,3.39,0,0,1-1.24-.88,4.36,4.36,0,0,1-.81-1.42,6.11,6.11,0,0,1-.29-1.95V17.67h3.46V25q0,2.34,2,2.34a2.94,2.94,0,0,0,.78-.11,1.88,1.88,0,0,0,.68-.33,1.59,1.59,0,0,0,.48-.55,1.44,1.44,0,0,0,.19-.77V17.67h3.46V29.74h-3.46Z"/><path class="cls-2" d="M217.93,27h2.79V20.39h-2.79V17.67h6.25v3.42h.16a6.76,6.76,0,0,1,.46-1.28,4,4,0,0,1,.75-1.1,3.27,3.27,0,0,1,1.11-.76,4,4,0,0,1,1.54-.28h1.15v3.18h-2.58a2.46,2.46,0,0,0-1.94.76,2.72,2.72,0,0,0-.65,1.85V27h4v2.71H217.93Z"/><path class="cls-2" d="M243.4,31a3,3,0,0,1-1.61,2.83,10.74,10.74,0,0,1-5.08.91,17.1,17.1,0,0,1-2.85-.2,5.71,5.71,0,0,1-1.79-.57,2.23,2.23,0,0,1-.93-.89,2.38,2.38,0,0,1-.27-1.12,2,2,0,0,1,.6-1.56,4.26,4.26,0,0,1,1.71-.81v-.14a3,3,0,0,1-1.23-.66,1.63,1.63,0,0,1-.45-1.23,1.51,1.51,0,0,1,.59-1.31,4.73,4.73,0,0,1,1.58-.66v-.14A3.94,3.94,0,0,1,232,24a4.1,4.1,0,0,1-.6-2.26,4.32,4.32,0,0,1,.38-1.86,3.61,3.61,0,0,1,1.06-1.35,4.91,4.91,0,0,1,1.65-.82,7.94,7.94,0,0,1,2.15-.28,8.4,8.4,0,0,1,2.13.26V17a1.56,1.56,0,0,1,.49-1.17,1.9,1.9,0,0,1,1.36-.46h2.13v2.52h-2.9v.21a4,4,0,0,1,1.53,1.42,4.09,4.09,0,0,1,.55,2.19,4.41,4.41,0,0,1-.37,1.84,3.72,3.72,0,0,1-1.08,1.35,5.12,5.12,0,0,1-1.67.83,7.71,7.71,0,0,1-2.17.28,8.07,8.07,0,0,1-2-.23,1.35,1.35,0,0,0-.43.35.79.79,0,0,0-.18.53.69.69,0,0,0,.14.45.77.77,0,0,0,.39.24,2.22,2.22,0,0,0,.57.11l.68,0h2.76a8.24,8.24,0,0,1,2.2.26,4.23,4.23,0,0,1,1.49.72,2.75,2.75,0,0,1,.84,1.1A3.58,3.58,0,0,1,243.4,31Zm-3.27.25a.85.85,0,0,0-.38-.73,2.6,2.6,0,0,0-1.42-.27h-4.14a1.24,1.24,0,0,0-.47,1,1.13,1.13,0,0,0,.48.93,2.77,2.77,0,0,0,1.62.36h2a3.45,3.45,0,0,0,1.73-.33A1,1,0,0,0,240.13,31.21Zm-3.49-7.41a2,2,0,0,0,1.54-.51,1.9,1.9,0,0,0,.47-1.31v-.57a1.85,1.85,0,0,0-.47-1.3,2,2,0,0,0-1.54-.52,1.9,1.9,0,0,0-1.49.52,1.81,1.81,0,0,0-.47,1.3V22a1.85,1.85,0,0,0,.47,1.31A1.93,1.93,0,0,0,236.64,23.8Z"/><path class="cls-2" d="M250.68,30a6,6,0,0,1-4.61-1.68,6.44,6.44,0,0,1-1.57-4.59,8.14,8.14,0,0,1,.41-2.65,5.55,5.55,0,0,1,1.17-2,4.9,4.9,0,0,1,1.85-1.27,7.14,7.14,0,0,1,4.88,0,5.14,5.14,0,0,1,1.82,1.23A5.65,5.65,0,0,1,255.79,21a7.52,7.52,0,0,1,.41,2.54v1h-8.26v.21a2.49,2.49,0,0,0,.73,1.88,2.88,2.88,0,0,0,2.12.72,3.92,3.92,0,0,0,1.85-.41A4.39,4.39,0,0,0,254,25.86l1.88,2a5.86,5.86,0,0,1-2,1.5A7.15,7.15,0,0,1,250.68,30Zm-.28-10.15a2.37,2.37,0,0,0-1.79.69,2.54,2.54,0,0,0-.67,1.86v.19h4.87v-.19a2.61,2.61,0,0,0-.65-1.87A2.33,2.33,0,0,0,250.4,19.87Z"/><path class="cls-2" d="M258.63,27h2.78V20.39h-2.78V17.67h6.24v3.42H265a7.49,7.49,0,0,1,.45-1.28,4.46,4.46,0,0,1,.75-1.1,3.48,3.48,0,0,1,1.11-.76,4,4,0,0,1,1.55-.28H270v3.18h-2.57a2.43,2.43,0,0,0-1.94.76,2.72,2.72,0,0,0-.66,1.85V27h4v2.71H258.63Z"/><path class="cls-3" d="M14.48,37.87c-2.84,0-5.52,0-7.61-.83-2.6-1-3.92-3.1-3.95-6.23l-.62,0H2.21A1.62,1.62,0,0,1,.59,29.3l0-1a1.54,1.54,0,0,1,.12-.71l0-.48a1.66,1.66,0,0,1,1-1.57,1,1,0,0,1,0-.24L2.7,20.79A3,3,0,0,1,0,17.69a5.57,5.57,0,0,1,3-4.53C3,6.76,9.85,0,22.57,0,28.32,0,33.25,1.42,36.8,4.08c3.26,2.44,5.12,5.78,5.11,9.17V14s0,.09,0,.13v2.21h.23a1.62,1.62,0,0,1,.69.16,3.29,3.29,0,0,1,1-.15,2.8,2.8,0,0,1-.06,5.59,2.43,2.43,0,0,1-.8-.13l-.33,1.57.43,0h.09a1.64,1.64,0,0,1,1.63,1.55l0,.48A1.78,1.78,0,0,1,45,26l0,1a1.64,1.64,0,0,1-1.55,1.72l-.62,0h-.1l-.27.18a7.6,7.6,0,0,1-.64.44v1.41c0,3.2-1.34,5.33-4,6.33-2.1.81-4.78.8-7.61.8Z"/><path class="cls-4" d="M40.27,13.21c0-5.48-6-11.58-17.74-11.58s-18,6.1-18,11.58V14h35.7Z"/><path class="cls-5" d="M18.68,3.25H17.52a.15.15,0,0,0-.13.09.81.81,0,0,0,0,.24.83.83,0,0,0,0,.25.15.15,0,0,0,.13.09h1.16a.17.17,0,0,0,.14-.09.9.9,0,0,0,0-.25.81.81,0,0,0,0-.24A.17.17,0,0,0,18.68,3.25Z"/><path class="cls-5" d="M23,3.25H21.86a.14.14,0,0,0-.13.09.57.57,0,0,0,0,.24.6.6,0,0,0,0,.25.14.14,0,0,0,.13.09H23a.14.14,0,0,0,.13-.09.6.6,0,0,0,0-.25.57.57,0,0,0,0-.24A.14.14,0,0,0,23,3.25Z"/><path class="cls-5" d="M27.36,3.25H26.2a.14.14,0,0,0-.13.09.54.54,0,0,0-.05.24.55.55,0,0,0,.05.25.14.14,0,0,0,.13.09h1.16a.14.14,0,0,0,.13-.09.6.6,0,0,0,0-.25.57.57,0,0,0,0-.24A.14.14,0,0,0,27.36,3.25Z"/><path class="cls-5" d="M16.5,5.84H15.34a.14.14,0,0,0-.13.09.81.81,0,0,0,0,.24.9.9,0,0,0,0,.25.15.15,0,0,0,.13.09H16.5a.17.17,0,0,0,.14-.09.83.83,0,0,0,0-.25.81.81,0,0,0,0-.24A.15.15,0,0,0,16.5,5.84Z"/><path class="cls-5" d="M20.84,5.84H19.68a.13.13,0,0,0-.13.09.57.57,0,0,0,0,.24.63.63,0,0,0,0,.25.14.14,0,0,0,.13.09h1.16A.14.14,0,0,0,21,6.42.59.59,0,0,0,21,6.17.54.54,0,0,0,21,5.93.13.13,0,0,0,20.84,5.84Z"/><path class="cls-5" d="M12.18,5.84H11a.15.15,0,0,0-.14.09.81.81,0,0,0,0,.24.9.9,0,0,0,0,.25.17.17,0,0,0,.14.09h1.15a.17.17,0,0,0,.14-.09.83.83,0,0,0,0-.25.75.75,0,0,0,0-.24A.15.15,0,0,0,12.18,5.84Z"/><path class="cls-5" d="M25.18,5.84H24a.13.13,0,0,0-.13.09.57.57,0,0,0,0,.24.63.63,0,0,0,0,.25.14.14,0,0,0,.13.09h1.16a.14.14,0,0,0,.13-.09.63.63,0,0,0,0-.25.57.57,0,0,0,0-.24A.13.13,0,0,0,25.18,5.84Z"/><path class="cls-5" d="M29.52,5.84H28.36a.15.15,0,0,0-.14.09.81.81,0,0,0,0,.24.9.9,0,0,0,0,.25.17.17,0,0,0,.14.09h1.16a.14.14,0,0,0,.13-.09.63.63,0,0,0,0-.25.57.57,0,0,0,0-.24A.13.13,0,0,0,29.52,5.84Z"/><path class="cls-5" d="M33.85,5.84H32.7a.14.14,0,0,0-.14.09.81.81,0,0,0,0,.24.9.9,0,0,0,0,.25.17.17,0,0,0,.14.09h1.15A.16.16,0,0,0,34,6.42a.9.9,0,0,0,0-.25.81.81,0,0,0,0-.24A.14.14,0,0,0,33.85,5.84Z"/><path class="cls-5" d="M18.68,8.54H17.52a.15.15,0,0,0-.13.09.81.81,0,0,0,0,.24.83.83,0,0,0,0,.25.15.15,0,0,0,.13.09h1.16a.17.17,0,0,0,.14-.09.83.83,0,0,0,0-.25.54.54,0,0,0-.05-.24A.14.14,0,0,0,18.68,8.54Z"/><path class="cls-5" d="M23,8.54H21.86a.14.14,0,0,0-.13.09.57.57,0,0,0,0,.24.6.6,0,0,0,0,.25.14.14,0,0,0,.13.09H23a.14.14,0,0,0,.13-.09.6.6,0,0,0,0-.25.57.57,0,0,0,0-.24A.14.14,0,0,0,23,8.54Z"/><path class="cls-5" d="M27.36,8.54H26.2a.14.14,0,0,0-.13.09.54.54,0,0,0-.05.24.55.55,0,0,0,.05.25.14.14,0,0,0,.13.09h1.16a.14.14,0,0,0,.13-.09.6.6,0,0,0,0-.25.57.57,0,0,0,0-.24A.14.14,0,0,0,27.36,8.54Z"/><path class="cls-5" d="M20.84,11.13H19.68a.13.13,0,0,0-.13.09.57.57,0,0,0,0,.24.63.63,0,0,0,0,.25.13.13,0,0,0,.13.08h1.16a.13.13,0,0,0,.13-.08.59.59,0,0,0,.05-.25.54.54,0,0,0-.05-.24A.13.13,0,0,0,20.84,11.13Z"/><path class="cls-5" d="M25.18,11.13H24a.13.13,0,0,0-.13.09.57.57,0,0,0,0,.24.63.63,0,0,0,0,.25.13.13,0,0,0,.13.08h1.16a.13.13,0,0,0,.13-.08.63.63,0,0,0,0-.25.57.57,0,0,0,0-.24A.13.13,0,0,0,25.18,11.13Z"/><path class="cls-5" d="M31.66,8.54H30.54a.17.17,0,0,0-.14.09.81.81,0,0,0,0,.24.83.83,0,0,0,0,.25.17.17,0,0,0,.14.09h1.12a.14.14,0,0,0,.13-.09.6.6,0,0,0,0-.25.57.57,0,0,0,0-.24A.14.14,0,0,0,31.66,8.54Z"/><path class="cls-5" d="M36.13,8.63A.14.14,0,0,0,36,8.54H34.84a.17.17,0,0,0-.14.09.81.81,0,0,0,0,.24.83.83,0,0,0,0,.25.17.17,0,0,0,.14.09H36a.14.14,0,0,0,.13-.09.6.6,0,0,0,0-.25A.57.57,0,0,0,36.13,8.63Z"/><path class="cls-5" d="M33.85,11.13H32.66a.13.13,0,0,0-.13.09.54.54,0,0,0-.05.24.59.59,0,0,0,.05.25.13.13,0,0,0,.13.08h1.19a.15.15,0,0,0,.14-.08.9.9,0,0,0,0-.25.81.81,0,0,0,0-.24A.14.14,0,0,0,33.85,11.13Z"/><path class="cls-5" d="M29.5,11.13H28.36a.15.15,0,0,0-.14.09.81.81,0,0,0,0,.24.9.9,0,0,0,0,.25.16.16,0,0,0,.14.08H29.5a.13.13,0,0,0,.13-.08.59.59,0,0,0,.05-.25.54.54,0,0,0-.05-.24A.13.13,0,0,0,29.5,11.13Z"/><path class="cls-5" d="M10,8.54H8.84a.14.14,0,0,0-.13.09.57.57,0,0,0,0,.24.6.6,0,0,0,0,.25.14.14,0,0,0,.13.09H10a.14.14,0,0,0,.13-.09.55.55,0,0,0,0-.25.54.54,0,0,0,0-.24A.14.14,0,0,0,10,8.54Z"/><path class="cls-5" d="M14.34,8.54H13.18a.15.15,0,0,0-.13.09.81.81,0,0,0,0,.24.83.83,0,0,0,0,.25.16.16,0,0,0,.14.09h1.15a.14.14,0,0,0,.13-.09.6.6,0,0,0,0-.25.57.57,0,0,0,0-.24A.14.14,0,0,0,14.34,8.54Z"/><path class="cls-5" d="M12.16,11.13H11a.15.15,0,0,0-.14.09.81.81,0,0,0,0,.24.9.9,0,0,0,0,.25.16.16,0,0,0,.14.08h1.13a.13.13,0,0,0,.13-.08.59.59,0,0,0,.05-.25.54.54,0,0,0-.05-.24A.13.13,0,0,0,12.16,11.13Z"/><path class="cls-5" d="M16.58,11.16a.11.11,0,0,0-.08,0H15.34a.14.14,0,0,0-.13.09.81.81,0,0,0,0,.24.9.9,0,0,0,0,.25.14.14,0,0,0,.13.08H16.5a.16.16,0,0,0,.14-.08.9.9,0,0,0,0-.25.75.75,0,0,0,0-.24A.09.09,0,0,0,16.58,11.16Z"/><path class="cls-6" d="M40.26,17.87c0,.35,0,.62-.34.62h-35c-.34,0-.34-.27-.34-.62v-1.2c0-.35,0-.63.34-.63h35c.34,0,.34.28.34.63Z"/><rect class="cls-7" x="4.57" y="14.57" width="35.7" height="0.94"/><polygon class="cls-7" points="27.67 14.89 22.52 18 17.17 14.89 27.67 14.89"/><path class="cls-4" d="M4.58,29.91v.83c0,5.48,4.45,5.51,9.93,5.51H30.34c5.48,0,9.93,0,9.93-5.51v-.83Z"/><path class="cls-8" d="M6.34,30.92c0,.87.07,1.46,1.26.87a10.43,10.43,0,0,1,5.71-1.33c-1.13.33-2.46.93-2.59,1.73s.66,1.12,2.39.73c.2.73.93,1.52,2.45.19A10.71,10.71,0,0,1,18.68,31c.73-.26.93.13.13.6s-1.52.73-1.65,1.26,0,1.39,1.32,1c0,.93.27,1.73,1.4,1.73s1.59-.6,1.59-1.73c.73.4,1.79.67,1.86-.79a2.6,2.6,0,0,1,1.39-2.46c.66-.33.78.29.33.47a1.22,1.22,0,0,0-.86,1.13c0,.59,1,1.48,2.06.39.07.64,1.26,1.07,1.65-.26s.51-2.15,1.73-2.19c-.83.3-1.33,1.52-.27,1.92a1.36,1.36,0,0,0,1.73-.93,1.38,1.38,0,0,1,1.46-1c-.86.38-.86,1.72,0,1.79a2.11,2.11,0,0,0,1.86-.8,4.47,4.47,0,0,1,3.64-1c-.33.86.27,1.21.81,1.1s.59-.84.8-1.32h-34v0C5.11,30.26,4.75,31.65,6.34,30.92Z"/><path class="cls-6" d="M2.79,28a2,2,0,0,1,1.38.39A4.41,4.41,0,0,0,6.85,29a4.43,4.43,0,0,0,2.6-1,2.14,2.14,0,0,1,1.33-.54,2.09,2.09,0,0,1,1.38.4,4.36,4.36,0,0,0,2.69.68,4.36,4.36,0,0,0,2.59-1,2.23,2.23,0,0,1,2.72-.15,4.28,4.28,0,0,0,2.68.69,4.36,4.36,0,0,0,2.6-1,2,2,0,0,1,1.33-.54,2.09,2.09,0,0,1,1.38.39,4.45,4.45,0,0,0,2.69.69,4.39,4.39,0,0,0,2.6-1,2.21,2.21,0,0,1,2.71-.15,4.6,4.6,0,0,0,5.28-.29,2.15,2.15,0,0,1,1.34-.54l.45,0,0-.86-.46,0a4.54,4.54,0,0,0-2.68,1,2,2,0,0,1-1.25.51,2,2,0,0,1-1.29-.37,4.45,4.45,0,0,0-2.78-.71,4.51,4.51,0,0,0-2.68,1,1.92,1.92,0,0,1-1.25.51,2,2,0,0,1-1.29-.37,4.51,4.51,0,0,0-2.77-.71,4.58,4.58,0,0,0-2.69,1,1.91,1.91,0,0,1-1.24.51,2,2,0,0,1-1.3-.37,4.58,4.58,0,0,0-2.77-.71,4.48,4.48,0,0,0-2.68,1,2,2,0,0,1-1.25.5,1.9,1.9,0,0,1-1.29-.37,4.59,4.59,0,0,0-2.78-.71,4.57,4.57,0,0,0-2.68,1,1.91,1.91,0,0,1-1.24.51,2,2,0,0,1-1.3-.37,4.51,4.51,0,0,0-2.77-.71l-.46,0,.05.86Z"/><path class="cls-6" d="M41.62,26.58a4.93,4.93,0,0,1-5.63.31,1.76,1.76,0,0,0-1.2-.35,1.81,1.81,0,0,0-1.17.47,4.6,4.6,0,0,1-2.76,1A4.65,4.65,0,0,1,28,27.32,1.82,1.82,0,0,0,26.79,27a1.79,1.79,0,0,0-1.16.48,4.73,4.73,0,0,1-2.77,1A4.67,4.67,0,0,1,20,27.75a1.9,1.9,0,0,0-2.37.13,4.6,4.6,0,0,1-2.76,1A4.68,4.68,0,0,1,12,28.18a1.81,1.81,0,0,0-1.2-.35,1.79,1.79,0,0,0-1.16.48,4.73,4.73,0,0,1-2.77,1A4.72,4.72,0,0,1,4,28.62a1.77,1.77,0,0,0-1.21-.35l-.61,0,.05,1,.61,0a2,2,0,0,1,1.3.37,4.51,4.51,0,0,0,2.77.71,4.48,4.48,0,0,0,2.68-1,2.06,2.06,0,0,1,2.54-.14,4.52,4.52,0,0,0,2.78.71,4.58,4.58,0,0,0,2.68-1,1.91,1.91,0,0,1,1.24-.51,2,2,0,0,1,1.3.37,4.58,4.58,0,0,0,2.77.71,4.45,4.45,0,0,0,2.68-1,2.07,2.07,0,0,1,1.25-.51,2,2,0,0,1,1.3.38,4.75,4.75,0,0,0,5.45-.3,1.92,1.92,0,0,1,1.25-.51,2,2,0,0,1,1.29.37,4.79,4.79,0,0,0,5.46-.29,1.91,1.91,0,0,1,1.24-.51l.62,0-.05-1-.62,0A1.81,1.81,0,0,0,41.62,26.58Z"/><path class="cls-9" d="M8.38,14.91l-.85,3.67h.11a2.81,2.81,0,0,0,2.61-2.68c0-.94-.67-1.78-2.39-1.78-2.13,0-4.54,1.29-4.54,4a2.16,2.16,0,0,0,.25,1.13c-1.2,0-1.94-.42-1.94-1.52,0-2.28,3.16-4.38,6.59-4.38,2.67,0,3.87,1.27,3.87,2.63a3.09,3.09,0,0,1-1.82,2.62,2.49,2.49,0,0,1,2.14,2.66c0,1.59-.94,4.76-4,4.76-.78,0-1.8-.21-1.8-1.22a2.36,2.36,0,0,1,.24-1,1.7,1.7,0,0,0,1.21.6c1.33,0,1.8-1.72,1.8-3s-.4-2.1-1.72-2.1c-.15,0-.51,0-.84.05L5.84,25.75H3.23L5.7,15.24Z"/><path class="cls-3" d="M8.44,26.77a2.8,2.8,0,0,1-2-.62.74.74,0,0,1-.63.34H3.23a.72.72,0,0,1-.58-.28.75.75,0,0,1-.14-.63L3.83,20a.75.75,0,0,1-.26.05C1.15,20,.89,18.42.89,17.74c0-2.73,3.43-5.12,7.33-5.12,3.18,0,4.61,1.69,4.61,3.37a3.5,3.5,0,0,1-1.06,2.43,3.29,3.29,0,0,1,1.38,2.85C13.15,23.4,11.87,26.77,8.44,26.77Zm-.89-1.65a1.74,1.74,0,0,0,.89.17c2.64,0,3.23-3,3.23-4a1.77,1.77,0,0,0-1.53-1.93.74.74,0,0,1-.6-.62.43.43,0,0,1,0,0,1.51,1.51,0,0,1-.26.18,2.56,2.56,0,0,1,1.36,2.62c0,1.79-.79,3.72-2.54,3.72A2,2,0,0,1,7.55,25.12ZM4.16,25h1.1l1.35-5.76a.76.76,0,0,1,.24-.39.7.7,0,0,1,0-.45l.61-2.63-1.12.13Zm3.05-1.82a.94.94,0,0,1,.18.12c.38.37.55.4.7.4.73,0,1.06-1.31,1.06-2.24,0-1.36-.59-1.36-1-1.36H7.93Zm-2.5-7a2.94,2.94,0,0,0-.65,1.92,1.45,1.45,0,0,0,.07.55ZM3,16.27a2.33,2.33,0,0,0-.6,1.47.63.63,0,0,0,.21.57v-.18A4.63,4.63,0,0,1,3,16.27Zm6.12-1.14-.56,2.43a2.12,2.12,0,0,0,1-1.66A.86.86,0,0,0,9.09,15.13Zm1.62-.37A2.37,2.37,0,0,1,11,15.9a3.37,3.37,0,0,1-.47,1.66A2.13,2.13,0,0,0,11.35,16,1.52,1.52,0,0,0,10.71,14.76Z"/><path class="cls-9" d="M19.68,17.89l-1.13,5.35a2.19,2.19,0,0,0-.07.51c0,.44.21.58.65.58.61,0,1-.6,1.28-1.38h.66c-.9,2.56-2.32,2.91-3.17,2.91a1.47,1.47,0,0,1-1.56-1.5A2.6,2.6,0,0,1,14,25.86c-.94,0-1.68-.57-1.68-1.89a4.93,4.93,0,0,1,.12-1l1.07-5.06h2.27l-1.13,5.35a2.38,2.38,0,0,0-.05.45c0,.36.13.64.47.64.62,0,1-.6,1.26-1.38l1.07-5.06Z"/><path class="cls-3" d="M17.9,26.49a2.06,2.06,0,0,1-1.77-.84,3,3,0,0,1-2.12.84A2.27,2.27,0,0,1,11.69,24a6,6,0,0,1,.14-1.15l1.07-5.06a.64.64,0,0,1,.62-.5h2.27a.62.62,0,0,1,.49.23.64.64,0,0,1,.13.53l-1.13,5.36c0,.09,0,.18,0,.26a1.65,1.65,0,0,0,.49-.85l1.06-5a.64.64,0,0,1,.62-.5h2.27a.62.62,0,0,1,.49.23.64.64,0,0,1,.13.53l-1.13,5.36a1.24,1.24,0,0,0-.05.32h0c.24,0,.5-.37.67-.94a.65.65,0,0,1,.61-.45h.66a.63.63,0,0,1,.51.27.61.61,0,0,1,.08.57C20.7,25.91,19.09,26.49,17.9,26.49Zm-1.22-2.67a.66.66,0,0,1,.29.48c.08.82.54.93.93.93a2.06,2.06,0,0,0,1-.27,1.13,1.13,0,0,1-1.08-1.21,3.11,3.11,0,0,1,.08-.65l1-4.58h-1l-1,4.56a.43.43,0,0,0,0,.05A3.82,3.82,0,0,1,16.68,23.82ZM14,18.52l-1,4.56A4.75,4.75,0,0,0,13,24c0,.85.34,1.26,1,1.26A1.69,1.69,0,0,0,15,25a1.13,1.13,0,0,1-1-1.27,3,3,0,0,1,.06-.57l1-4.6Z"/><path class="cls-9" d="M23.74,17.89l-.2,1a3,3,0,0,1,1.9-1,1.17,1.17,0,0,1,0,2.33c-.89,0-.45-1-.92-1a1.66,1.66,0,0,0-1.15.6l-1.26,6H19.81l1.67-7.88Z"/><path class="cls-3" d="M22.07,26.4H19.81a.64.64,0,0,1-.5-.24.62.62,0,0,1-.12-.53l1.67-7.87a.63.63,0,0,1,.62-.5h2.26a.62.62,0,0,1,.49.23l.05.06a2.58,2.58,0,0,1,1.16-.29,1.8,1.8,0,0,1,0,3.59,1.17,1.17,0,0,1-1.22-1,2.57,2.57,0,0,0-.27.21L22.69,25.9A.63.63,0,0,1,22.07,26.4Zm-1.48-1.27h1l1.15-5.48a.64.64,0,0,1,.19-.33l.11-.1a.62.62,0,0,1-.09-.48l0-.22H22Zm4.32-6.48a1.16,1.16,0,0,1,.47.81l0,.13a.48.48,0,0,0,.49-.52c0-.05,0-.55-.46-.55A1.25,1.25,0,0,0,24.91,18.65Z"/><path class="cls-9" d="M33.25,17.89,31.69,25.2a3,3,0,0,0,2-2.25h.66a3.8,3.8,0,0,1-2.78,2.94L31.31,27c-.47,2.26-1.8,2.68-2.83,2.68s-1.77-.5-1.77-1.53c0-1.32,1.39-2,2.57-2.34l.19-.84a2.53,2.53,0,0,1-1.89.87c-1.07,0-2.1-.66-2.1-2.54,0-2.12,1.31-5.51,4.05-5.51.9,0,1.28.35,1.28.8v.1l.17-.82ZM28.11,28.47c.33,0,.71-.47.92-1.4l.09-.46c-.8.3-1.54.71-1.54,1.34A.54.54,0,0,0,28.11,28.47Zm-.3-5.37c0,1.22.51,1.23.79,1.23a1.52,1.52,0,0,0,1.26-1.23l.8-3.73a.61.61,0,0,0-.64-.58C28.68,18.79,27.81,21.62,27.81,23.1Z"/><path class="cls-3" d="M28.48,30.33a2.16,2.16,0,0,1-2.4-2.16,2.4,2.4,0,0,1,.77-1.77c-1.06-.26-2-1.17-2-3.08,0-2.57,1.63-6.14,4.68-6.14a2.54,2.54,0,0,1,1.08.2.59.59,0,0,1,.37-.12h2.27a.62.62,0,0,1,.49.23.64.64,0,0,1,.13.53L32.65,23.7a4.31,4.31,0,0,0,.42-.95.63.63,0,0,1,.6-.44h.66a.64.64,0,0,1,.51.26.62.62,0,0,1,.1.56,4.41,4.41,0,0,1-2.85,3.25l-.16.77C31.38,29.78,29.75,30.33,28.48,30.33Zm-.08-1.26h.08c.75,0,1.8-.23,2.21-2.18l.24-1.13a.56.56,0,0,1,.17-.32.7.7,0,0,1,0-.38l1.39-6.54h-1l-.06.32a.72.72,0,0,1-.16.3,1.11,1.11,0,0,1,0,.17.4.4,0,0,1,0,.19l-.8,3.74a2.62,2.62,0,0,1-.7,1.2.62.62,0,0,1,.3.69L29.9,26a.68.68,0,0,1-.22.35.62.62,0,0,1,.06.42l-.09.46C29.42,28.25,29,28.91,28.4,29.07ZM29,18.5c-2,.43-2.89,3.3-2.89,4.82,0,1.25.5,1.91,1.46,1.91a1.74,1.74,0,0,0,.94-.27c-.63,0-1.34-.38-1.34-1.86C27.18,22,27.74,19.42,29,18.5Zm-.48,5.2h.07a1,1,0,0,0,.65-.77l.75-3.5c-.63.05-1.55,2-1.55,3.67A1.46,1.46,0,0,0,28.53,23.7Z"/><path class="cls-9" d="M36.41,24.54A3.64,3.64,0,0,0,39.2,23h.53c-.89,1.44-2.23,2.91-4.33,2.91A2.21,2.21,0,0,1,33,23.35c0-1.81,1-5.6,4.25-5.6,1.4,0,1.73.72,1.73,1.51a3.65,3.65,0,0,1-3.62,3.32c0,.22,0,.44,0,.63C35.28,24.28,35.65,24.54,36.41,24.54Zm.91-6c-.8,0-1.57,1.69-1.89,3.25a2.64,2.64,0,0,0,2.29-2.6C37.72,18.84,37.62,18.58,37.32,18.58Z"/><path class="cls-3" d="M35.4,26.49a2.84,2.84,0,0,1-3.09-3.14c0-2,1.2-6.23,4.89-6.23,1.5,0,2.36.78,2.36,2.14a4.2,4.2,0,0,1-3.65,3.89v.06c0,.69.08.69.5.69.93,0,1.51-.46,2.31-1.37a.64.64,0,0,1,.48-.22h.53a.65.65,0,0,1,.56.33.64.64,0,0,1,0,.64C38.93,25.44,37.34,26.49,35.4,26.49Zm.75-7.93c-2.1.79-2.57,3.88-2.57,4.79,0,1.3.56,1.88,1.82,1.88a4.4,4.4,0,0,0,.73-.07c-1-.1-1.49-.74-1.49-1.95,0-.2,0-.44,0-.67a.6.6,0,0,1,.2-.42.6.6,0,0,1-.07-.42A8,8,0,0,1,36.15,18.56Zm.92.87a4.77,4.77,0,0,0-.68,1.31A2.07,2.07,0,0,0,37.07,19.43Z"/><path class="cls-9" d="M42.14,17.89l-.21,1a3,3,0,0,1,1.91-1,1.17,1.17,0,0,1-.05,2.33c-.88,0-.44-1-.91-1a1.62,1.62,0,0,0-1.15.6l-1.26,6H38.2l1.67-7.88Z"/><path class="cls-3" d="M40.47,26.4H38.2a.64.64,0,0,1-.62-.77l1.67-7.87a.63.63,0,0,1,.62-.5h2.27a.62.62,0,0,1,.49.23l0,.06a2.63,2.63,0,0,1,1.17-.29,1.8,1.8,0,0,1-.05,3.59,1.16,1.16,0,0,1-1.21-1l-.28.21L41.09,25.9A.64.64,0,0,1,40.47,26.4ZM39,25.13h1l1.16-5.48a.58.58,0,0,1,.19-.33l.1-.1a.67.67,0,0,1-.09-.48l0-.22h-1Zm4.32-6.48a1.13,1.13,0,0,1,.48.81.59.59,0,0,0,0,.13.47.47,0,0,0,.49-.52c0-.05,0-.55-.45-.55A1.3,1.3,0,0,0,43.3,18.65Z"/><path class="cls-10" d="M8.38,14.91l-.85,3.67h.11a2.81,2.81,0,0,0,2.61-2.68c0-.94-.67-1.78-2.39-1.78-2.13,0-4.54,1.29-4.54,4a2.16,2.16,0,0,0,.25,1.13c-1.2,0-1.94-.42-1.94-1.52,0-2.28,3.16-4.38,6.59-4.38,2.67,0,3.87,1.27,3.87,2.63a3.09,3.09,0,0,1-1.82,2.62,2.49,2.49,0,0,1,2.14,2.66c0,1.59-.94,4.76-4,4.76-.78,0-1.8-.21-1.8-1.22a2.36,2.36,0,0,1,.24-1,1.7,1.7,0,0,0,1.21.6c1.33,0,1.8-1.72,1.8-3s-.4-2.1-1.72-2.1c-.15,0-.51,0-.84.05L5.84,25.75H3.23L5.7,15.24Z"/><path class="cls-10" d="M19.68,17.89l-1.13,5.35a2.19,2.19,0,0,0-.07.51c0,.44.21.58.65.58.61,0,1-.6,1.28-1.38h.66c-.9,2.56-2.32,2.91-3.17,2.91a1.47,1.47,0,0,1-1.56-1.5A2.6,2.6,0,0,1,14,25.86c-.94,0-1.68-.57-1.68-1.89a4.93,4.93,0,0,1,.12-1l1.07-5.06h2.27l-1.13,5.35a2.38,2.38,0,0,0-.05.45c0,.36.13.64.47.64.62,0,1-.6,1.26-1.38l1.07-5.06Z"/><path class="cls-10" d="M23.74,17.89l-.2,1a3,3,0,0,1,1.9-1,1.17,1.17,0,0,1,0,2.33c-.89,0-.45-1-.92-1a1.66,1.66,0,0,0-1.15.6l-1.26,6H19.81l1.67-7.88Z"/><path class="cls-10" d="M33.25,17.89,31.69,25.2a3,3,0,0,0,2-2.25h.66a3.8,3.8,0,0,1-2.78,2.94L31.31,27c-.47,2.26-1.8,2.68-2.83,2.68s-1.77-.5-1.77-1.53c0-1.32,1.39-2,2.57-2.34l.19-.84a2.53,2.53,0,0,1-1.89.87c-1.07,0-2.1-.66-2.1-2.54,0-2.12,1.31-5.51,4.05-5.51.9,0,1.28.35,1.28.8v.1l.17-.82ZM28.11,28.47c.33,0,.71-.47.92-1.4l.09-.46c-.8.3-1.54.71-1.54,1.34A.54.54,0,0,0,28.11,28.47Zm-.3-5.37c0,1.22.51,1.23.79,1.23a1.52,1.52,0,0,0,1.26-1.23l.8-3.73a.61.61,0,0,0-.64-.58C28.68,18.79,27.81,21.62,27.81,23.1Z"/><path class="cls-10" d="M36.41,24.54A3.64,3.64,0,0,0,39.2,23h.53c-.89,1.44-2.23,2.91-4.33,2.91A2.21,2.21,0,0,1,33,23.35c0-1.81,1-5.6,4.25-5.6,1.4,0,1.73.72,1.73,1.51a3.65,3.65,0,0,1-3.62,3.32c0,.22,0,.44,0,.63C35.28,24.28,35.65,24.54,36.41,24.54Zm.91-6c-.8,0-1.57,1.69-1.89,3.25a2.64,2.64,0,0,0,2.29-2.6C37.72,18.84,37.62,18.58,37.32,18.58Z"/><path class="cls-10" d="M42.14,17.89l-.21,1a3,3,0,0,1,1.91-1,1.17,1.17,0,0,1-.05,2.33c-.88,0-.44-1-.91-1a1.62,1.62,0,0,0-1.15.6l-1.26,6H38.2l1.67-7.88Z"/><path class="cls-9" d="M12.23,30.25l1.37-4h.85v4l1.39-4h.46l-1.81,4.84h-1v-3.3l-1.28,3.3h-1V26.68a1.38,1.38,0,0,0-1,1.44.87.87,0,0,0,.09.44c-.45,0-.7-.16-.7-.63,0-.86,1.2-1.69,2.28-1.69h.26Z"/><path class="cls-3" d="M14.49,31.74h-1a.63.63,0,0,1-.63-.57l-.06.17a.64.64,0,0,1-.59.4h-1a.63.63,0,0,1-.63-.63v-2a.63.63,0,0,1-.33.09A1.19,1.19,0,0,1,9,27.93c0-1.31,1.57-2.32,2.91-2.32h.31a.65.65,0,0,1,.59.62v.37l.19-.54a.62.62,0,0,1,.6-.43h.85a.63.63,0,0,1,.63.63v.27l.17-.48a.62.62,0,0,1,.59-.42h.46a.64.64,0,0,1,.52.27.68.68,0,0,1,.07.59l-1.81,4.83A.62.62,0,0,1,14.49,31.74Z"/><path class="cls-9" d="M16.73,30.6A1.46,1.46,0,0,0,17.88,30h.23a2.16,2.16,0,0,1-1.79,1.2.91.91,0,0,1-1-1c0-.75.42-2.31,1.75-2.31.58,0,.71.29.71.62a1.5,1.5,0,0,1-1.49,1.37,2.35,2.35,0,0,0,0,.26C16.27,30.5,16.42,30.6,16.73,30.6Zm.38-2.45c-.33,0-.65.69-.78,1.34a1.08,1.08,0,0,0,.94-1.07C17.27,28.25,17.23,28.15,17.11,28.15Z"/><path class="cls-3" d="M16.32,31.78a1.54,1.54,0,0,1-1.65-1.66c0-1.23.74-2.95,2.39-2.95a1.21,1.21,0,0,1,1.35,1.26,1.82,1.82,0,0,1-.24.89.62.62,0,0,1,.49.32.64.64,0,0,1,0,.64A2.7,2.7,0,0,1,16.32,31.78Z"/><path class="cls-9" d="M19.23,30.6A1.49,1.49,0,0,0,20.38,30h.22a2.14,2.14,0,0,1-1.79,1.2.91.91,0,0,1-1-1c0-.75.42-2.31,1.75-2.31.58,0,.72.29.72.62a1.51,1.51,0,0,1-1.5,1.37c0,.09,0,.18,0,.26C18.76,30.5,18.92,30.6,19.23,30.6Zm.37-2.45c-.33,0-.65.69-.78,1.34a1.09,1.09,0,0,0,.95-1.07C19.77,28.25,19.73,28.15,19.6,28.15Z"/><path class="cls-3" d="M18.81,31.78a1.53,1.53,0,0,1-1.64-1.66c0-1.23.74-2.95,2.38-2.95a1.21,1.21,0,0,1,1.35,1.26,1.82,1.82,0,0,1-.23.89.62.62,0,0,1,.48.32.64.64,0,0,1,0,.64A2.71,2.71,0,0,1,18.81,31.78Z"/><path class="cls-9" d="M23.44,27.86l-1.3.91a.78.78,0,0,1,.22,0,.69.69,0,0,1,.71.76,1.13,1.13,0,0,1,0,.25l-.07.32a1.52,1.52,0,0,0,0,.21c0,.13,0,.24.25.24a.4.4,0,0,0,.23,0,.71.71,0,0,1-.6.67c-.54,0-.82-.27-.82-.74a1.42,1.42,0,0,1,0-.34l.05-.25a1.12,1.12,0,0,0,0-.24c0-.19-.07-.31-.24-.31a.8.8,0,0,0-.48.24l-.34,1.6h-.93l.94-4.41,1-.13-.49,2.28,1.26-1Z"/><path class="cls-3" d="M22.82,31.78a1.45,1.45,0,0,1-1.15-.47.64.64,0,0,1-.61.43h-.93a.62.62,0,0,1-.49-.23.63.63,0,0,1-.13-.53l.94-4.42a.63.63,0,0,1,.54-.49l1-.13a.63.63,0,0,1,.55.19.66.66,0,0,1,.15.57l-.13.59a.67.67,0,0,1,.28-.06h.64a.62.62,0,0,1,.6.45.6.6,0,0,1-.24.7l-.36.25a1.47,1.47,0,0,1,.26.87,1.61,1.61,0,0,1,0,.39h0l.12.07a.63.63,0,0,1,.27.56A1.32,1.32,0,0,1,22.82,31.78Zm.33-1.87Z"/><path class="cls-10" d="M12.23,30.25l1.37-4h.85v4l1.39-4h.46l-1.81,4.84h-1v-3.3l-1.28,3.3h-1V26.68a1.38,1.38,0,0,0-1,1.44.87.87,0,0,0,.09.44c-.45,0-.7-.16-.7-.63,0-.86,1.2-1.69,2.28-1.69h.26Z"/><path class="cls-10" d="M16.73,30.6A1.46,1.46,0,0,0,17.88,30h.23a2.16,2.16,0,0,1-1.79,1.2.91.91,0,0,1-1-1c0-.75.42-2.31,1.75-2.31.58,0,.71.29.71.62a1.5,1.5,0,0,1-1.49,1.37,2.35,2.35,0,0,0,0,.26C16.27,30.5,16.42,30.6,16.73,30.6Zm.38-2.45c-.33,0-.65.69-.78,1.34a1.08,1.08,0,0,0,.94-1.07C17.27,28.25,17.23,28.15,17.11,28.15Z"/><path class="cls-10" d="M19.23,30.6A1.49,1.49,0,0,0,20.38,30h.22a2.14,2.14,0,0,1-1.79,1.2.91.91,0,0,1-1-1c0-.75.42-2.31,1.75-2.31.58,0,.72.29.72.62a1.51,1.51,0,0,1-1.5,1.37c0,.09,0,.18,0,.26C18.76,30.5,18.92,30.6,19.23,30.6Zm.37-2.45c-.33,0-.65.69-.78,1.34a1.09,1.09,0,0,0,.95-1.07C19.77,28.25,19.73,28.15,19.6,28.15Z"/><path class="cls-10" d="M23.44,27.86l-1.3.91a.78.78,0,0,1,.22,0,.69.69,0,0,1,.71.76,1.13,1.13,0,0,1,0,.25l-.07.32a1.52,1.52,0,0,0,0,.21c0,.13,0,.24.25.24a.4.4,0,0,0,.23,0,.71.71,0,0,1-.6.67c-.54,0-.82-.27-.82-.74a1.42,1.42,0,0,1,0-.34l.05-.25a1.12,1.12,0,0,0,0-.24c0-.19-.07-.31-.24-.31a.8.8,0,0,0-.48.24l-.34,1.6h-.93l.94-4.41,1-.13-.49,2.28,1.26-1Z"/><rect class="cls-3" x="25.78" y="12.68" width="3.29" height="1.7"/><path class="cls-3" d="M12.47,14.45A1.44,1.44,0,0,1,10.86,13a1.36,1.36,0,0,1,.75-1.26,1.42,1.42,0,0,1-.18-.67,1.55,1.55,0,0,1,1.7-1.45,1.21,1.21,0,0,1,1.37,1.18,1.15,1.15,0,0,1-.38.88,1.76,1.76,0,0,1,.27,1A1.8,1.8,0,0,1,12.47,14.45Z"/><path class="cls-3" d="M13.49,11.29a.25.25,0,0,1-.21-.09.49.49,0,0,0,.2-.4c0-.16-.08-.3-.33-.3a.38.38,0,0,0-.43.41c0,.68,1,.77,1,1.76a1.16,1.16,0,0,1-1.28,1.14c-.52,0-1-.23-1-.78a.7.7,0,0,1,.67-.76.36.36,0,0,1,.4.31c-.24,0-.53.11-.53.43a.41.41,0,0,0,.44.44.54.54,0,0,0,.53-.61c0-.79-.94-1.06-.94-1.74,0-.47.47-.82,1.06-.82.21,0,.73.05.73.55C13.86,11.1,13.72,11.29,13.49,11.29Z"/><path class="cls-3" d="M14.64,14.38A1.27,1.27,0,0,1,13.29,13c0-.94.58-2.27,1.87-2.27a1,1,0,0,1,1.14,1.08,1.44,1.44,0,0,1-.09.51.58.58,0,0,1,.24.25.61.61,0,0,1,0,.64A2.1,2.1,0,0,1,14.64,14.38Z"/><path class="cls-3" d="M14.93,13.36a1.05,1.05,0,0,0,.81-.46h.16a1.51,1.51,0,0,1-1.26.84.64.64,0,0,1-.72-.72c0-.53.3-1.63,1.24-1.63.41,0,.5.21.5.44a1.06,1.06,0,0,1-1.05,1c0,.07,0,.13,0,.19C14.6,13.29,14.71,13.36,14.93,13.36Zm.27-1.73c-.24,0-.46.49-.55.94a.76.76,0,0,0,.66-.75C15.31,11.7,15.28,11.63,15.2,11.63Z"/><path class="cls-3" d="M18.53,14.38a1.28,1.28,0,0,1-.72-.21.67.67,0,0,1-.45.18H16.7a.67.67,0,0,1-.24,0,.59.59,0,0,1-.23,0h-.66a.66.66,0,0,1-.5-.23.64.64,0,0,1-.12-.53l.48-2.29a.63.63,0,0,1,.62-.51h.66l.16,0a1.34,1.34,0,0,1,.35,0,1.09,1.09,0,0,1,.55.13,1.18,1.18,0,0,1,.56-.13,1.11,1.11,0,0,1,1.15,1.16,1.86,1.86,0,0,1,0,.33.65.65,0,0,1,.46.27.61.61,0,0,1,.08.57C19.62,14.16,19,14.38,18.53,14.38Z"/><path class="cls-3" d="M18,11.83c-.17,0-.29.19-.36.42l-.31,1.47H16.7L17,12.14a.5.5,0,0,0,0-.12c0-.1,0-.2-.14-.2s-.3.2-.37.43l-.31,1.47h-.66l.48-2.29h.66l-.05.24a.73.73,0,0,1,.56-.27.43.43,0,0,1,.47.4.73.73,0,0,1,.64-.39.47.47,0,0,1,.51.52c0,.37-.22.92-.22,1.18a.17.17,0,0,0,.18.19c.2,0,.29-.16.39-.4h.19c-.26.75-.61.84-.85.84a.48.48,0,0,1-.54-.51c0-.31.2-.88.2-1.17S18.14,11.83,18,11.83Z"/><path class="cls-3" d="M20.87,14.38a1.24,1.24,0,0,1-.55-.13,1.33,1.33,0,0,1-.58.13A1.24,1.24,0,0,1,18.49,13c0-.91.58-2.24,1.81-2.24a1.42,1.42,0,0,1,.31,0h.78a.64.64,0,0,1,.62.77l-.15.71a.61.61,0,0,1,.45.26.63.63,0,0,1,.08.58A1.6,1.6,0,0,1,20.87,14.38Z"/><path class="cls-3" d="M21.39,11.43,21.06,13a.44.44,0,0,0,0,.15c0,.13.06.2.19.2s.3-.2.37-.43h.19c-.26.74-.67.84-.92.84a.42.42,0,0,1-.45-.42.83.83,0,0,1-.68.42c-.31,0-.61-.19-.61-.73s.38-1.61,1.17-1.61c.27,0,.38.11.38.24v0l.05-.24Zm-1.58,1.51c0,.36.14.36.22.36a.45.45,0,0,0,.38-.4l.22-1a.17.17,0,0,0-.18-.17C20.06,11.69,19.81,12.51,19.81,12.94Z"/><path class="cls-3" d="M22.05,14.38a1.11,1.11,0,0,1-1.13-1.18,2.37,2.37,0,0,1,0-.43l.32-1.47a.51.51,0,0,1,.1-.24,1,1,0,0,1,0-.24,1,1,0,0,1,2,0,1,1,0,0,1-.16.54.67.67,0,0,1,0,.2l-.15.7a.64.64,0,0,1,.57.85A1.63,1.63,0,0,1,22.05,14.38Z"/><path class="cls-3" d="M22.57,11.43,22.24,13a.44.44,0,0,0,0,.15c0,.13.06.17.19.17s.34-.17.41-.4H23c-.26.74-.71.84-1,.84a.47.47,0,0,1-.49-.54,1.13,1.13,0,0,1,0-.3l.31-1.47Zm-.21-1a.38.38,0,0,1,.37.37.37.37,0,0,1-.37.36.36.36,0,0,1-.36-.36A.37.37,0,0,1,22.36,10.45Z"/><path class="cls-3" d="M24.47,14.38a1.3,1.3,0,0,1-.72-.21.63.63,0,0,1-.44.18h-.66a.63.63,0,0,1-.5-.23.64.64,0,0,1-.13-.53l.49-2.29a.63.63,0,0,1,.62-.51h.66l.16,0a1.75,1.75,0,0,1,.33,0,1.1,1.1,0,0,1,1.14,1.16,1.84,1.84,0,0,1,0,.33.63.63,0,0,1,.45.27.64.64,0,0,1,.09.57C25.57,14.16,24.94,14.38,24.47,14.38Z"/><path class="cls-3" d="M24,11.83c-.16,0-.28.19-.35.42l-.31,1.47h-.66l.48-2.29h.66l-.05.24a.68.68,0,0,1,.54-.26.46.46,0,0,1,.5.52c0,.37-.22.92-.22,1.18a.17.17,0,0,0,.19.19c.2,0,.28-.16.38-.4h.2c-.26.75-.61.84-.86.84a.48.48,0,0,1-.54-.51c0-.31.21-.88.21-1.17S24.08,11.83,24,11.83Z"/><path class="cls-3" d="M25.78,14.38A1.27,1.27,0,0,1,24.43,13c0-.94.58-2.27,1.88-2.27a1,1,0,0,1,1.14,1.08,1.46,1.46,0,0,1-.33.92.64.64,0,0,1,.08.43A1.37,1.37,0,0,1,25.78,14.38Z"/><path class="cls-3" d="M26,13.31a.94.94,0,0,0,.54-.24.73.73,0,0,1-.79.67.64.64,0,0,1-.71-.72c0-.53.3-1.63,1.24-1.63.4,0,.5.21.5.44a1,1,0,0,1-1,1,.71.71,0,0,0,0,.14C25.75,13.22,25.87,13.31,26,13.31Zm.31-1.68c-.23,0-.46.51-.55.94a.76.76,0,0,0,.67-.75C26.46,11.7,26.43,11.63,26.34,11.63Z"/><path class="cls-3" d="M28.35,14.38A1.23,1.23,0,0,1,27.11,13c0-.88.55-2.18,1.72-2.24l.06-.3a.65.65,0,0,1,.54-.5l.68-.09h.08a.65.65,0,0,1,.63.77l-.35,1.63a.64.64,0,0,1,.45.26.63.63,0,0,1,.08.58,1.57,1.57,0,0,1-1.52,1.24,1.11,1.11,0,0,1-.52-.12A1.28,1.28,0,0,1,28.35,14.38Z"/><path class="cls-3" d="M30.19,10.51,29.67,13a.44.44,0,0,0,0,.15c0,.13.06.17.19.17s.3-.17.37-.4h.19c-.26.74-.67.82-.92.82a.42.42,0,0,1-.45-.4.82.82,0,0,1-.68.42c-.31,0-.61-.19-.61-.73s.38-1.61,1.18-1.61c.26,0,.37.11.37.24v0l.23-1.06ZM29,12.9l.22-1.05a.18.18,0,0,0-.19-.16c-.39,0-.64.82-.64,1.25s.15.36.23.36a.46.46,0,0,0,.38-.38Z"/><path class="cls-3" d="M31.79,14.38a1.12,1.12,0,0,1-.53-.13,1.35,1.35,0,0,1-.6.13,1.1,1.1,0,0,1-1.12-1.18,1.72,1.72,0,0,1,.05-.43l.31-1.47a.63.63,0,0,1,.62-.51h.66a.59.59,0,0,1,.23.05.69.69,0,0,1,.24-.05h.66a.63.63,0,0,1,.49.24.6.6,0,0,1,.13.53l-.25,1.2h0a.65.65,0,0,1,.25.55A1.12,1.12,0,0,1,31.79,14.38Z"/><path class="cls-3" d="M31.18,11.43,30.85,13a.49.49,0,0,0,0,.12c0,.1,0,.2.13.2s.3-.17.37-.4l.31-1.47h.66L32,13a1,1,0,0,0,0,.15c0,.13.06.17.19.17a.26.26,0,0,0,.15,0,.48.48,0,0,1-.51.47.44.44,0,0,1-.45-.43.75.75,0,0,1-.68.43.47.47,0,0,1-.49-.54,1.77,1.77,0,0,1,0-.3l.31-1.47Z"/><path class="cls-10" d="M13.49,11.29a.25.25,0,0,1-.21-.09.52.52,0,0,0,.21-.4c0-.16-.09-.3-.34-.3a.38.38,0,0,0-.43.41c0,.68,1,.77,1,1.76a1.16,1.16,0,0,1-1.29,1.14c-.52,0-1-.23-1-.78a.7.7,0,0,1,.67-.76.36.36,0,0,1,.4.31c-.24,0-.53.11-.53.43a.41.41,0,0,0,.44.44.54.54,0,0,0,.53-.61c0-.79-.94-1.07-.94-1.74,0-.48.47-.82,1.06-.82.21,0,.74.05.74.55C13.87,11.1,13.72,11.29,13.49,11.29Z"/><path class="cls-10" d="M14.93,13.36a1.05,1.05,0,0,0,.81-.46h.16a1.51,1.51,0,0,1-1.26.84.64.64,0,0,1-.72-.72c0-.53.3-1.64,1.24-1.64.41,0,.51.22.51.44a1.07,1.07,0,0,1-1.06,1c0,.07,0,.13,0,.18C14.6,13.29,14.71,13.36,14.93,13.36Zm.27-1.73c-.24,0-.46.49-.55.94a.76.76,0,0,0,.66-.75C15.31,11.7,15.29,11.63,15.2,11.63Z"/><path class="cls-10" d="M18,11.82c-.17,0-.29.2-.36.43l-.31,1.47H16.7L17,12.14s0-.08,0-.12,0-.2-.14-.2-.3.2-.37.43l-.31,1.47h-.66l.48-2.29h.66l-.05.23a.71.71,0,0,1,.56-.26.43.43,0,0,1,.47.4.73.73,0,0,1,.64-.39.46.46,0,0,1,.51.52c0,.37-.22.92-.22,1.18a.17.17,0,0,0,.18.19c.21,0,.29-.16.39-.4h.19c-.26.75-.61.84-.85.84a.48.48,0,0,1-.54-.51c0-.31.2-.88.2-1.17S18.14,11.82,18,11.82Z"/><path class="cls-10" d="M21.39,11.43,21.06,13a.44.44,0,0,0,0,.15c0,.13.06.2.19.2s.3-.2.37-.43h.19c-.26.74-.67.84-.92.84a.42.42,0,0,1-.45-.42.83.83,0,0,1-.68.42c-.31,0-.61-.19-.61-.73s.38-1.61,1.18-1.61c.26,0,.37.1.37.24v0l.05-.24Zm-1.58,1.51c0,.36.14.36.23.36a.47.47,0,0,0,.38-.4l.22-1a.19.19,0,0,0-.19-.17C20.06,11.69,19.81,12.51,19.81,12.94Z"/><path class="cls-10" d="M22.57,11.43,22.24,13a.44.44,0,0,0,0,.15c0,.13.06.17.19.17s.34-.17.41-.4H23c-.26.74-.71.84-1,.84s-.49-.16-.49-.55a1.11,1.11,0,0,1,0-.29l.31-1.47Zm-.21-1a.37.37,0,1,1,0,.73.37.37,0,0,1,0-.73Z"/><path class="cls-10" d="M24,11.82c-.16,0-.28.2-.35.43l-.31,1.47h-.66l.48-2.29h.66l-.05.23a.66.66,0,0,1,.54-.25.47.47,0,0,1,.51.52c0,.37-.22.92-.22,1.18s0,.19.18.19.28-.16.38-.4h.2c-.26.75-.61.84-.86.84a.49.49,0,0,1-.54-.51c0-.31.21-.88.21-1.17S24.08,11.82,24,11.82Z"/><path class="cls-10" d="M26,13.31a1,1,0,0,0,.54-.24.72.72,0,0,1-.79.67.64.64,0,0,1-.71-.72c0-.53.3-1.64,1.24-1.64.4,0,.5.22.5.44a1.05,1.05,0,0,1-1,1,.71.71,0,0,0,0,.14C25.75,13.22,25.87,13.31,26,13.31Zm.31-1.68c-.23,0-.46.51-.55.94a.76.76,0,0,0,.67-.75C26.46,11.7,26.43,11.63,26.34,11.63Z"/><path class="cls-10" d="M30.2,10.51,29.67,13a.44.44,0,0,0,0,.15c0,.13.06.17.19.17s.3-.17.37-.4h.19c-.26.74-.67.82-.92.82a.42.42,0,0,1-.45-.4.82.82,0,0,1-.68.42c-.31,0-.61-.19-.61-.73s.38-1.61,1.18-1.61c.26,0,.37.1.37.24h0l.23-1.05ZM29,12.9l.22-1.05a.18.18,0,0,0-.19-.16c-.39,0-.64.82-.64,1.25s.15.36.23.36a.46.46,0,0,0,.38-.38Z"/><path class="cls-10" d="M31.18,11.43,30.85,13a.49.49,0,0,0,0,.12c0,.1,0,.2.13.2s.3-.17.37-.4l.31-1.47h.66L32,13a1,1,0,0,0,0,.15c0,.13.06.17.19.17a.26.26,0,0,0,.15,0,.48.48,0,0,1-.51.47.44.44,0,0,1-.45-.43.76.76,0,0,1-.68.43c-.27,0-.49-.16-.49-.55a1.81,1.81,0,0,1,0-.29l.31-1.47Z"/></g></g></svg>