<svg xmlns="http://www.w3.org/2000/svg" viewBox="0 0 276.21 93.74"><defs><style>.cls-1{fill:#4a2b2b;}.cls-2{fill:#ed5d28;}.cls-3{fill:#fff;}.cls-4{fill:#ab7029;}.cls-5{fill:#9c6226;}.cls-6{fill:#b32029;}.cls-7{fill:#faa21e;}.cls-8{fill:#a9ae38;}.cls-9{fill:#6d1d0e;}.cls-10{fill:#411f1f;}.cls-11{fill:#533636;}</style></defs><title>logo-registration-page</title><g id="Layer_2" data-name="Layer 2"><g id="Layer_1-2" data-name="Layer 1"><path class="cls-1" d="M167.23,24.32V2.39H172V20.45h9.42v3.87Z"/><path class="cls-1" d="M193,24.69q-4.08,0-6.18-2.26a8.66,8.66,0,0,1-2.11-6.16,10.77,10.77,0,0,1,.55-3.56,7.66,7.66,0,0,1,1.57-2.7,6.74,6.74,0,0,1,2.48-1.7,9,9,0,0,1,3.29-.58,8.81,8.81,0,0,1,3.26.58A6.88,6.88,0,0,1,198.35,10a7.47,7.47,0,0,1,1.56,2.59,10.16,10.16,0,0,1,.55,3.41v1.38H189.37v.29a3.36,3.36,0,0,0,1,2.52,3.91,3.91,0,0,0,2.86,1,5.19,5.19,0,0,0,2.48-.55,5.73,5.73,0,0,0,1.79-1.46L200,21.83a7.6,7.6,0,0,1-2.63,2A9.56,9.56,0,0,1,193,24.69Zm-.37-13.63a3.19,3.19,0,0,0-2.41.93,3.47,3.47,0,0,0-.89,2.49v.26h6.53v-.26A3.54,3.54,0,0,0,195,12,3.11,3.11,0,0,0,192.67,11.06Z"/><path class="cls-1" d="M166.76,34.08h7.69a7.1,7.1,0,0,1,5,1.57,5.52,5.52,0,0,1,1.71,4.28,4.51,4.51,0,0,1-.93,3,5.17,5.17,0,0,1-2.65,1.62v.19a6,6,0,0,1,3.15,1.76A5,5,0,0,1,181.8,50a5.73,5.73,0,0,1-1.74,4.39A6.88,6.88,0,0,1,175.17,56h-8.41Zm6.37,9.3a4.14,4.14,0,0,0,2.42-.55,2.32,2.32,0,0,0,.75-2v-1a2.29,2.29,0,0,0-.75-2,4.32,4.32,0,0,0-2.42-.53h-1.79v6Zm.6,9.33a4.28,4.28,0,0,0,2.48-.57,2.4,2.4,0,0,0,.78-2.07v-.91a2.38,2.38,0,0,0-.78-2.07,4.28,4.28,0,0,0-2.48-.57h-2.39v6.19Z"/><path class="cls-1" d="M195.34,53.05h-.19a5.89,5.89,0,0,1-1.68,2.36,4.64,4.64,0,0,1-3.1,1,5.68,5.68,0,0,1-2.13-.39,4.28,4.28,0,0,1-1.67-1.18,5.63,5.63,0,0,1-1.08-1.91,8,8,0,0,1-.39-2.61V39.8h4.65v9.86c0,2.1.91,3.14,2.73,3.14a3.79,3.79,0,0,0,1.05-.14,2.49,2.49,0,0,0,.91-.44,2.44,2.44,0,0,0,.65-.74,2.09,2.09,0,0,0,.25-1V39.8H200V56h-4.64Z"/><path class="cls-1" d="M204.35,52.36h3.74V43.44h-3.74V39.8h8.39v4.59H213a9,9,0,0,1,.61-1.72,5.78,5.78,0,0,1,1-1.47,4.43,4.43,0,0,1,1.5-1,5.2,5.2,0,0,1,2.07-.38h1.54v4.27h-3.46a3.23,3.23,0,0,0-2.6,1,3.66,3.66,0,0,0-.88,2.49v4.78h5.34V56H204.35Z"/><path class="cls-1" d="M239.18,57.64a4.07,4.07,0,0,1-2.16,3.8c-1.45.82-3.72,1.22-6.82,1.22a22.45,22.45,0,0,1-3.83-.26,7.78,7.78,0,0,1-2.4-.77,3.06,3.06,0,0,1-1.26-1.2,3.19,3.19,0,0,1-.36-1.5,2.63,2.63,0,0,1,.81-2.09,5.6,5.6,0,0,1,2.3-1.08v-.19a4.07,4.07,0,0,1-1.65-.9A2.17,2.17,0,0,1,223.2,53a2,2,0,0,1,.8-1.76,6.24,6.24,0,0,1,2.12-.88V50.2a5.24,5.24,0,0,1-2.25-2,5.59,5.59,0,0,1-.8-3,6,6,0,0,1,.5-2.5A4.85,4.85,0,0,1,225,40.9a6.6,6.6,0,0,1,2.22-1.1,10.27,10.27,0,0,1,2.89-.38,11.24,11.24,0,0,1,2.85.35v-.88a2.08,2.08,0,0,1,.66-1.57,2.53,2.53,0,0,1,1.82-.63h2.86v3.39h-3.89v.28a5.28,5.28,0,0,1,2.06,1.91,5.52,5.52,0,0,1,.73,2.93,5.69,5.69,0,0,1-.5,2.48,4.87,4.87,0,0,1-1.44,1.81A6.58,6.58,0,0,1,233,50.6a10.13,10.13,0,0,1-2.9.38,10.3,10.3,0,0,1-1.39-.08,9.25,9.25,0,0,1-1.25-.23,1.79,1.79,0,0,0-.58.47,1.08,1.08,0,0,0-.24.72.88.88,0,0,0,.19.6,1.29,1.29,0,0,0,.52.33,3.21,3.21,0,0,0,.77.14c.29,0,.59,0,.91,0h3.7a10.68,10.68,0,0,1,3,.35,5.71,5.71,0,0,1,2,1,3.65,3.65,0,0,1,1.13,1.48A4.92,4.92,0,0,1,239.18,57.64Zm-4.39.34a1.14,1.14,0,0,0-.51-1,3.41,3.41,0,0,0-1.91-.37h-5.56a1.68,1.68,0,0,0-.63,1.32,1.47,1.47,0,0,0,.64,1.24,3.69,3.69,0,0,0,2.19.49h2.73a4.65,4.65,0,0,0,2.32-.44A1.4,1.4,0,0,0,234.79,58ZM230.11,48a2.68,2.68,0,0,0,2-.69,2.48,2.48,0,0,0,.65-1.76v-.76a2.46,2.46,0,0,0-.65-1.75,2.69,2.69,0,0,0-2-.7,2.61,2.61,0,0,0-2,.7,2.53,2.53,0,0,0-.62,1.75v.76a2.56,2.56,0,0,0,.62,1.76A2.61,2.61,0,0,0,230.11,48Z"/><path class="cls-1" d="M249.58,56.38c-2.72,0-4.79-.75-6.19-2.26a8.69,8.69,0,0,1-2.1-6.15,10.79,10.79,0,0,1,.55-3.57,7.51,7.51,0,0,1,1.57-2.7,6.66,6.66,0,0,1,2.48-1.7,9.54,9.54,0,0,1,6.55,0,6.88,6.88,0,0,1,2.45,1.65,7.45,7.45,0,0,1,1.55,2.59,10,10,0,0,1,.55,3.41V49H245.9v.29a3.37,3.37,0,0,0,1,2.52,3.91,3.91,0,0,0,2.86,1,5.19,5.19,0,0,0,2.48-.55A5.84,5.84,0,0,0,254,50.79l2.51,2.73a7.89,7.89,0,0,1-2.64,2A9.66,9.66,0,0,1,249.58,56.38Zm-.38-13.63a3.19,3.19,0,0,0-2.4.93,3.44,3.44,0,0,0-.9,2.5v.25h6.54v-.25a3.51,3.51,0,0,0-.87-2.52A3.12,3.12,0,0,0,249.2,42.75Z"/><path class="cls-1" d="M260.89,52.36h3.73V43.44h-3.73V39.8h8.38v4.59h.22a9.79,9.79,0,0,1,.61-1.72,5.82,5.82,0,0,1,1-1.47,4.39,4.39,0,0,1,1.49-1,5.27,5.27,0,0,1,2.07-.38h1.54v4.27h-3.45a3.27,3.27,0,0,0-2.61,1,3.66,3.66,0,0,0-.88,2.49v4.78h5.34V56H260.89Z"/><path class="cls-2" d="M166,87.7l-1.35-21.93h4l.63,13.13.19,4.15h.28l1.89-12.5H176l1.88,12.5h.28l.19-4,.63-13.26h3.9L181.49,87.7h-6l-1.6-12.1h-.32L172,87.7Z"/><path class="cls-2" d="M193,88.07q-4.08,0-6.18-2.26a8.65,8.65,0,0,1-2.11-6.15,10.79,10.79,0,0,1,.55-3.57,7.66,7.66,0,0,1,1.57-2.7,6.74,6.74,0,0,1,2.48-1.7,9,9,0,0,1,3.29-.58,8.81,8.81,0,0,1,3.26.58,6.88,6.88,0,0,1,2.45,1.65,7.57,7.57,0,0,1,1.56,2.59,10.2,10.2,0,0,1,.55,3.41v1.38H189.37V81a3.36,3.36,0,0,0,1,2.52,3.91,3.91,0,0,0,2.86,1,5.19,5.19,0,0,0,2.48-.55,5.73,5.73,0,0,0,1.79-1.46L200,85.22a7.85,7.85,0,0,1-2.63,2A9.7,9.7,0,0,1,193,88.07Zm-.37-13.63a3.19,3.19,0,0,0-2.41.93,3.47,3.47,0,0,0-.89,2.5v.25h6.53v-.25a3.55,3.55,0,0,0-.86-2.52A3.15,3.15,0,0,0,192.67,74.44Z"/><path class="cls-2" d="M211.89,88.07c-2.72,0-4.79-.75-6.19-2.26a8.69,8.69,0,0,1-2.1-6.15,10.79,10.79,0,0,1,.55-3.57,7.51,7.51,0,0,1,1.57-2.7,6.66,6.66,0,0,1,2.48-1.7,9.54,9.54,0,0,1,6.55,0,6.88,6.88,0,0,1,2.45,1.65,7.55,7.55,0,0,1,1.55,2.59,10,10,0,0,1,.55,3.41v1.38H208.21V81a3.37,3.37,0,0,0,1,2.52,3.91,3.91,0,0,0,2.86,1,5.19,5.19,0,0,0,2.48-.55,5.84,5.84,0,0,0,1.79-1.46l2.51,2.74a8,8,0,0,1-2.64,2A9.66,9.66,0,0,1,211.89,88.07Zm-.38-13.63a3.19,3.19,0,0,0-2.4.93,3.44,3.44,0,0,0-.9,2.5v.25h6.54v-.25a3.51,3.51,0,0,0-.87-2.52A3.12,3.12,0,0,0,211.51,74.44Z"/><path class="cls-2" d="M222.91,64.45h4.65v13.2h.22L230,75.1l3.39-3.61h5.34L232.4,77.9l6.94,9.8h-5.53l-4.71-7.16-1.54,1.53V87.7h-4.65Z"/><g id="lbw_logo" data-name="lbw logo"><path class="cls-3" d="M116.92,53.33A6,6,0,0,0,123,47.46v-.28A6,6,0,0,0,117,41a7.71,7.71,0,0,0-2.61.46,3.32,3.32,0,0,0-1.68-.46h-1.47a6.37,6.37,0,0,0-.2-1.57,3.12,3.12,0,0,0,.22-1.17V35.87a3.08,3.08,0,0,0-.07-.68,3.59,3.59,0,0,0,.07-.65V32.43c0-8.28-4.58-16.45-12.57-22.38C89.9,3.48,77.67,0,63.36,0,31.86,0,14.88,16.71,14.88,32.43v.45c-4.61,2.74-7.37,6.71-7.41,10.86C3.67,44.41,0,47.37,0,51.15A4.62,4.62,0,0,0,2.22,55.3l-.76,3.52A3.26,3.26,0,0,0,4,62.68a3.17,3.17,0,0,0,1,0H5a6.51,6.51,0,0,1,2.07,1.33,15.45,15.45,0,0,0,2.46,1.71,3.3,3.3,0,0,0-.48,1.86L9.17,69a3.18,3.18,0,0,0-.32,1.58L9,73a3.24,3.24,0,0,0,3.41,3.07h0L14,76h.22a1.12,1.12,0,0,1,.69.2v.38c0,17.14,15,17.14,28.28,17.14H83c13.26,0,28.29,0,28.29-17.14V74.51a3.28,3.28,0,0,0-.48-1.7,18.63,18.63,0,0,0,2.46-1.57c.86-.63.86-.63,1.4-.65l1.56-.09a3.23,3.23,0,0,0,3.07-3.42l-.13-2.41a3.21,3.21,0,0,0-.48-1.54l-.08-1.41a3.27,3.27,0,0,0-3.43-3.07l-1.15.07c-.36,0-.72,0-1.07.09l1.3-6.16A4.89,4.89,0,0,0,116.92,53.33Z"/><path class="cls-4" d="M108.05,32.43c0-13.83-15.13-29.18-44.69-29.18S18.11,18.6,18.11,32.43v2.08h89.94Z"/><path class="cls-5" d="M53.66,7.32H50.74a.36.36,0,0,0-.33.23,1.41,1.41,0,0,0-.11.61,1.45,1.45,0,0,0,.11.62.35.35,0,0,0,.33.22h2.92A.35.35,0,0,0,54,8.78a1.87,1.87,0,0,0,.1-.62,1.57,1.57,0,0,0-.1-.61A.37.37,0,0,0,53.66,7.32Z"/><path class="cls-5" d="M64.59,7.32H61.67a.36.36,0,0,0-.33.23,1.57,1.57,0,0,0-.11.61,1.45,1.45,0,0,0,.11.62.36.36,0,0,0,.33.22h2.92a.35.35,0,0,0,.34-.22A1.88,1.88,0,0,0,65,8.16a1.78,1.78,0,0,0-.11-.61A.37.37,0,0,0,64.59,7.32Z"/><path class="cls-5" d="M75.52,7.32H72.6a.35.35,0,0,0-.33.23,1.74,1.74,0,0,0,0,1.23A.34.34,0,0,0,72.6,9h2.92a.35.35,0,0,0,.34-.22,1.87,1.87,0,0,0,.1-.62,1.81,1.81,0,0,0-.1-.61A.37.37,0,0,0,75.52,7.32Z"/><path class="cls-5" d="M48.17,13.84H45.25a.35.35,0,0,0-.33.23,1.85,1.85,0,0,0,0,1.23.35.35,0,0,0,.33.22h2.92a.35.35,0,0,0,.33-.22,1.74,1.74,0,0,0,0-1.23A.35.35,0,0,0,48.17,13.84Z"/><path class="cls-5" d="M59.11,13.84H56.19a.36.36,0,0,0-.33.23,1.41,1.41,0,0,0-.11.61,1.66,1.66,0,0,0,.11.62.37.37,0,0,0,.33.22h2.92a.38.38,0,0,0,.34-.22,1.85,1.85,0,0,0,0-1.23A.37.37,0,0,0,59.11,13.84Z"/><path class="cls-5" d="M37.29,13.84H34.37a.36.36,0,0,0-.33.23,1.74,1.74,0,0,0,0,1.23.36.36,0,0,0,.33.22h2.92a.34.34,0,0,0,.33-.22,1.45,1.45,0,0,0,.11-.62,1.48,1.48,0,0,0-.11-.62A.35.35,0,0,0,37.29,13.84Z"/><path class="cls-5" d="M70,13.84H67.11a.35.35,0,0,0-.33.23,1.74,1.74,0,0,0,0,1.23.35.35,0,0,0,.33.22H70a.35.35,0,0,0,.33-.22,1.74,1.74,0,0,0,0-1.23A.35.35,0,0,0,70,13.84Z"/><path class="cls-5" d="M81,13.84H78a.37.37,0,0,0-.34.23,1.82,1.82,0,0,0,0,1.22.37.37,0,0,0,.34.23H81a.35.35,0,0,0,.33-.22,1.48,1.48,0,0,0,.11-.62,1.41,1.41,0,0,0-.11-.61A.35.35,0,0,0,81,13.84Z"/><path class="cls-5" d="M91.89,13.84H89a.37.37,0,0,0-.34.23,1.85,1.85,0,0,0,0,1.23.38.38,0,0,0,.34.22h2.92a.36.36,0,0,0,.33-.23,1.75,1.75,0,0,0,0-1.22A.36.36,0,0,0,91.89,13.84Z"/><path class="cls-5" d="M53.66,20.65H50.74a.36.36,0,0,0-.33.22,1.76,1.76,0,0,0,0,1.24.35.35,0,0,0,.33.22h2.92a.38.38,0,0,0,.34-.22,1.65,1.65,0,0,0,.1-.62,1.57,1.57,0,0,0-.1-.61A.37.37,0,0,0,53.66,20.65Z"/><path class="cls-5" d="M64.59,20.65H61.67a.37.37,0,0,0-.33.22,1.76,1.76,0,0,0,0,1.24.35.35,0,0,0,.33.22h2.92a.38.38,0,0,0,.34-.22,1.88,1.88,0,0,0,.11-.62,1.78,1.78,0,0,0-.11-.61A.37.37,0,0,0,64.59,20.65Z"/><path class="cls-5" d="M75.52,20.65H72.6a.35.35,0,0,0-.33.23,1.41,1.41,0,0,0-.11.61,1.48,1.48,0,0,0,.11.62.35.35,0,0,0,.33.22h2.92a.38.38,0,0,0,.34-.22,2.16,2.16,0,0,0,.09-.62,1.78,1.78,0,0,0-.11-.61A.37.37,0,0,0,75.52,20.65Z"/><path class="cls-5" d="M59.11,27.17H56.19a.37.37,0,0,0-.33.22,1.66,1.66,0,0,0-.11.62,1.41,1.41,0,0,0,.11.61.36.36,0,0,0,.33.23h2.92a.37.37,0,0,0,.34-.23,1.57,1.57,0,0,0,.1-.61,1.65,1.65,0,0,0-.1-.62A.38.38,0,0,0,59.11,27.17Z"/><path class="cls-5" d="M70,27.17H67.11a.35.35,0,0,0-.33.22,1.48,1.48,0,0,0-.11.62,1.41,1.41,0,0,0,.11.61.35.35,0,0,0,.33.23H70a.35.35,0,0,0,.33-.23,1.41,1.41,0,0,0,.11-.61,1.48,1.48,0,0,0-.11-.62A.35.35,0,0,0,70,27.17Z"/><path class="cls-5" d="M86.36,20.65H83.53a.37.37,0,0,0-.34.23,1.78,1.78,0,0,0-.11.61,1.88,1.88,0,0,0,.11.62.38.38,0,0,0,.34.22h2.83a.36.36,0,0,0,.33-.22,1.66,1.66,0,0,0,.11-.62,1.78,1.78,0,0,0-.11-.61A.36.36,0,0,0,86.36,20.65Z"/><path class="cls-5" d="M97.62,20.88a.36.36,0,0,0-.33-.23H94.36a.36.36,0,0,0-.33.23,1.78,1.78,0,0,0-.11.61,1.66,1.66,0,0,0,.11.62.36.36,0,0,0,.33.22h2.93a.36.36,0,0,0,.33-.22A1.85,1.85,0,0,0,97.62,20.88Z"/><path class="cls-5" d="M91.89,27.17h-3a.36.36,0,0,0-.33.23,1.75,1.75,0,0,0,0,1.22.36.36,0,0,0,.33.23h3a.36.36,0,0,0,.34-.23,1.78,1.78,0,0,0,.11-.61,1.57,1.57,0,0,0-.11-.61A.34.34,0,0,0,91.89,27.17Z"/><path class="cls-5" d="M80.92,27.17H78a.37.37,0,0,0-.34.23,1.91,1.91,0,0,0,0,1.22.37.37,0,0,0,.34.23h2.88a.36.36,0,0,0,.33-.23,1.75,1.75,0,0,0,0-1.22A.35.35,0,0,0,80.92,27.17Z"/><path class="cls-5" d="M31.79,20.65H28.87a.37.37,0,0,0-.34.23,1.85,1.85,0,0,0,0,1.23.38.38,0,0,0,.34.22h2.92a.35.35,0,0,0,.33-.22,1.48,1.48,0,0,0,.11-.62,1.41,1.41,0,0,0-.11-.61A.35.35,0,0,0,31.79,20.65Z"/><path class="cls-5" d="M42.72,20.65H39.81a.35.35,0,0,0-.33.23,1.74,1.74,0,0,0,0,1.23.35.35,0,0,0,.33.22h2.91a.35.35,0,0,0,.33-.22,1.66,1.66,0,0,0,.11-.62,1.57,1.57,0,0,0-.11-.61A.35.35,0,0,0,42.72,20.65Z"/><path class="cls-5" d="M37.23,27.17H34.37a.36.36,0,0,0-.31.23A1.66,1.66,0,0,0,34,28a1.52,1.52,0,0,0,.11.6.35.35,0,0,0,.33.23h2.86a.37.37,0,0,0,.34-.23,1.57,1.57,0,0,0,.1-.61,1.43,1.43,0,0,0-.11-.61A.35.35,0,0,0,37.23,27.17Z"/><path class="cls-5" d="M48.37,27.24a.38.38,0,0,0-.21-.07H45.25a.35.35,0,0,0-.33.22,1.66,1.66,0,0,0-.11.62,1.57,1.57,0,0,0,.11.61.35.35,0,0,0,.33.23h2.92a.35.35,0,0,0,.33-.22,1.48,1.48,0,0,0,.11-.62,1.43,1.43,0,0,0-.11-.61A.33.33,0,0,0,48.37,27.24Z"/><path class="cls-6" d="M108.05,44.16c0,.87,0,1.57-.87,1.57H19c-.86,0-.86-.7-.86-1.57v-3c0-.86,0-1.56.86-1.56h88.17c.87,0,.87.7.87,1.56Z"/><rect class="cls-7" x="18.11" y="35.84" width="89.94" height="2.37"/><polygon class="cls-7" points="76.31 36.66 63.32 44.48 49.84 36.66 76.31 36.66"/><path class="cls-4" d="M18.13,74.48v2.09c0,13.83,11.2,13.9,25,13.9H83c13.83,0,25-.07,25-13.9V74.48Z"/><path class="cls-8" d="M22.57,77.05c0,2.17.17,3.68,3.18,2.17a26.25,26.25,0,0,1,14.37-3.34c-2.84.83-6.18,2.34-6.52,4.34s1.67,2.85,6,1.84c.5,1.84,2.35,3.84,6.18.5s6-4.7,7.86-5.35,2.35.34.34,1.51-3.85,1.84-4.19,3.18,0,3.52,3.35,2.5c0,2.35.67,4.35,3.52,4.35s4-1.51,4-4.35c1.84,1,4.52,1.67,4.7-2s1.84-5.35,3.52-6.19,2,.72.83,1.18a3.08,3.08,0,0,0-2.17,2.84c0,1.5,2.55,3.73,5.18,1,.2,1.61,3.18,2.67,4.18-.67s1.29-5.41,4.35-5.51c-2.1.76-3.34,3.84-.67,4.84s4-1.5,4.35-2.35A3.48,3.48,0,0,1,88.62,75c-2.16,1-2.17,4.34,0,4.51s3-.5,4.7-2a11.29,11.29,0,0,1,9.19-2.5c-.83,2.17.68,3,2,2.78,1.64-.31,1.5-2.12,2-3.34H20.81v.06C19.48,75.38,18.56,78.89,22.57,77.05Z"/><path class="cls-6" d="M13.61,69.54a5.31,5.31,0,0,1,3.48,1,11,11,0,0,0,6.77,1.74,11,11,0,0,0,6.53-2.46,5.59,5.59,0,0,1,6.85-.37,11.6,11.6,0,0,0,13.3-.72,5.34,5.34,0,0,1,3.35-1.36,5.27,5.27,0,0,1,3.49,1,11.64,11.64,0,0,0,13.31-.73,5.61,5.61,0,0,1,6.84-.37,11.61,11.61,0,0,0,13.29-.71,5.37,5.37,0,0,1,3.36-1.36,5.26,5.26,0,0,1,3.48,1A11.61,11.61,0,0,0,111,65.46a5.37,5.37,0,0,1,3.36-1.36l1.15-.06-.12-2.17-1.15.07a11.39,11.39,0,0,0-6.75,2.53,5.19,5.19,0,0,1-6.4.35,12,12,0,0,0-13.74.74,5.16,5.16,0,0,1-6.39.34,11.39,11.39,0,0,0-7-1.78,11.53,11.53,0,0,0-6.76,2.53,4.85,4.85,0,0,1-3.13,1.28A4.91,4.91,0,0,1,60.79,67a12,12,0,0,0-13.74.75A4.87,4.87,0,0,1,43.92,69a5,5,0,0,1-3.27-.93,11.26,11.26,0,0,0-7-1.79,11.36,11.36,0,0,0-6.76,2.53,4.85,4.85,0,0,1-3.13,1.28,5,5,0,0,1-3.26-.93,11.44,11.44,0,0,0-7-1.8l-1.15.07.11,2.17Z"/><path class="cls-6" d="M111.46,66.1a12.43,12.43,0,0,1-14.18.77,4.81,4.81,0,0,0-6,.32A12.43,12.43,0,0,1,77.13,68a4.81,4.81,0,0,0-6,.32A12.43,12.43,0,0,1,57,69.05a4.8,4.8,0,0,0-6,.32,12.43,12.43,0,0,1-14.18.77,4.51,4.51,0,0,0-3-.88,4.58,4.58,0,0,0-2.93,1.2,11.74,11.74,0,0,1-7,2.61,11.89,11.89,0,0,1-7.21-1.82,4.5,4.5,0,0,0-3-.88l-1.57.08.13,2.41,1.57-.08a5,5,0,0,1,3.26.93,11.35,11.35,0,0,0,7,1.79A11.42,11.42,0,0,0,30.78,73a5.18,5.18,0,0,1,6.39-.35,12,12,0,0,0,13.75-.74,4.85,4.85,0,0,1,3.13-1.28,5,5,0,0,1,3.26.93,11.5,11.5,0,0,0,7,1.79,11.26,11.26,0,0,0,6.75-2.53,4.87,4.87,0,0,1,3.13-1.28,5,5,0,0,1,3.27.93,12,12,0,0,0,13.76-.76,5.17,5.17,0,0,1,6.4-.34,11.53,11.53,0,0,0,7,1.79,11.36,11.36,0,0,0,6.76-2.54,5,5,0,0,1,3.14-1.28l1.56-.08-.13-2.41-1.57.08A4.54,4.54,0,0,0,111.46,66.1Z"/><path class="cls-9" d="M27.71,36.7,25.56,46h.28c3.66,0,6.58-3.63,6.58-6.75,0-2.37-1.69-4.5-6-4.5C21,34.7,15,38,15,44.82a5.24,5.24,0,0,0,.65,2.83c-3,0-4.9-1-4.9-3.83,0-5.75,8-11,16.6-11C34,32.79,37,36,37,39.41c0,2.46-1.6,5.08-4.57,6.62,3.89.7,5.4,3.58,5.4,6.7,0,4-2.38,12-10,12-2,0-4.53-.54-4.53-3.08a6.25,6.25,0,0,1,.6-2.41A4.28,4.28,0,0,0,27,60.73c3.34,0,4.53-4.33,4.53-7.5,0-2.91-1-5.29-4.35-5.29-.36,0-1.28.05-2.1.13L21.31,64H14.72l6.22-26.48Z"/><path class="cls-3" d="M27.85,66.29c-2.3,0-4-.63-5.06-1.77a1.55,1.55,0,0,1-1.48,1.06H14.72A1.58,1.58,0,0,1,13.49,65a1.61,1.61,0,0,1-.29-1.34l3.49-14.88a1.54,1.54,0,0,1-1.09.45c-5.63,0-6.47-3.38-6.47-5.4,0-6.59,8.66-12.6,18.17-12.6a13.62,13.62,0,0,1,8.35,2.36,7.24,7.24,0,0,1,3,5.83,8.6,8.6,0,0,1-2.84,6.19,7.92,7.92,0,0,1,3.67,7.13,16.68,16.68,0,0,1-2.39,8.32A10.4,10.4,0,0,1,27.85,66.29Zm-2.94-4.45c.12.87,1.11,1.31,2.94,1.31a7.34,7.34,0,0,0,6.54-3.75,13.59,13.59,0,0,0,1.91-6.67c0-2-.71-4.54-4.11-5.16A1.57,1.57,0,0,1,31,45.4a8.69,8.69,0,0,1-1.8,1.26c3.43,1.07,3.85,4.81,3.85,6.57,0,4.36-1.91,9.06-6.1,9.06A4.77,4.77,0,0,1,24.91,61.84Zm-8.21.61h3.37l3.46-14.74a1.58,1.58,0,0,1,.68-1A1.56,1.56,0,0,1,24,45.59l1.64-7.06L22.22,39Zm7.7-4.72a1.55,1.55,0,0,1,.6.36c1,1,1.53,1.07,2,1.07,2.16,0,3-3.64,3-5.93,0-3.27-1.33-3.72-2.78-3.72l-.84,0ZM19,39a7.65,7.65,0,0,0-2.48,5.86,3.35,3.35,0,0,0,.32,1.77,2.32,2.32,0,0,1,.24.54Zm-3.67-.57c-1.89,1.58-3.06,3.49-3.06,5.43a1.75,1.75,0,0,0,1.16,2,9.13,9.13,0,0,1,0-1A11,11,0,0,1,15.33,38.39Zm17.25-3A5.67,5.67,0,0,1,34,39.2a8.55,8.55,0,0,1-2.18,5.4,6.26,6.26,0,0,0,3.66-5.19A4.45,4.45,0,0,0,32.58,35.37Zm-3.3,1.43c0,.08,0,.17,0,.26L27.63,44a5.75,5.75,0,0,0,3.22-4.76A2.49,2.49,0,0,0,29.28,36.8Z"/><path class="cls-9" d="M56.18,44.21,53.32,57.7A6,6,0,0,0,53.16,59c0,1.11.52,1.47,1.63,1.47,1.55,0,2.62-1.51,3.21-3.5h1.67c-2.26,6.47-5.83,7.34-8,7.34S48,63,47.78,60.51c-2,3.26-4.2,3.77-5.87,3.77-2.38,0-4.24-1.42-4.24-4.76A13.27,13.27,0,0,1,38,56.94l2.7-12.73h5.71L43.54,57.7a5.1,5.1,0,0,0-.12,1.11c0,.91.32,1.63,1.17,1.63,1.57,0,2.58-1.51,3.18-3.5l2.69-12.73Z"/><path class="cls-3" d="M51.7,65.62a4.88,4.88,0,0,1-4.41-2.27,7.24,7.24,0,0,1-5.38,2.27c-2.7,0-5.58-1.6-5.58-6.1a14.35,14.35,0,0,1,.35-2.87l2.69-12.72a1.34,1.34,0,0,1,1.31-1.06h5.71a1.34,1.34,0,0,1,1,.5,1.36,1.36,0,0,1,.27,1.12L44.85,58a3.86,3.86,0,0,0-.09.84,1.57,1.57,0,0,0,0,.25c.89-.19,1.46-1.72,1.69-2.46l2.68-12.68a1.34,1.34,0,0,1,1.31-1.06h5.72a1.36,1.36,0,0,1,1,.49,1.39,1.39,0,0,1,.27,1.13L54.63,58v0a5.14,5.14,0,0,0-.12,1,.31.31,0,0,0,0,.1h.28c1.09,0,1.75-1.94,1.93-2.53a1.34,1.34,0,0,1,1.28-1h1.67a1.35,1.35,0,0,1,1.26,1.79C58.56,64.2,54.6,65.62,51.7,65.62Zm-3.44-6.36a1.34,1.34,0,0,1,.86,1.13c.16,1.74,1,2.55,2.58,2.55a5.32,5.32,0,0,0,3.39-1.18l-.3,0c-2.58,0-3-1.76-3-2.81A6.82,6.82,0,0,1,52,57.4l2.5-11.85h-3L49.08,57.22l0,.11A9.88,9.88,0,0,1,48.26,59.26ZM41.77,45.55,39.3,57.22A11,11,0,0,0,39,59.55c0,2.24,1,3.39,2.9,3.39a4.49,4.49,0,0,0,3.18-1.2,3,3,0,0,1-.5,0c-1.16,0-2.51-.78-2.51-3a7,7,0,0,1,.14-1.38l2.52-11.88Z"/><path class="cls-9" d="M66.41,44.21l-.52,2.46c1.39-1.18,2.9-2.46,4.81-2.46a2.94,2.94,0,0,1-.12,5.87c-2.22,0-1.11-2.62-2.3-2.62s-1.91.6-2.9,1.51L62.21,64.05H56.49L60.7,44.21Z"/><path class="cls-3" d="M62.21,65.39H56.49a1.32,1.32,0,0,1-1-.5,1.29,1.29,0,0,1-.27-1.12l4.21-19.84a1.33,1.33,0,0,1,1.31-1.06h5.71a1.34,1.34,0,0,1,1,.49,1.13,1.13,0,0,1,.2.35,6.24,6.24,0,0,1,3-.84,4.28,4.28,0,0,1-.12,8.55A2.77,2.77,0,0,1,67.7,48.9a3.67,3.67,0,0,0-1.09.77L63.52,64.33A1.34,1.34,0,0,1,62.21,65.39Zm-4.07-2.68h3l2.95-14a1.35,1.35,0,0,1,.41-.71l.45-.41a1.31,1.31,0,0,1-.35-1.18l.18-.84h-3Zm12.28-14h.16a1.46,1.46,0,0,0,1.52-1.56c0-.16,0-1.63-1.4-1.63a3.71,3.71,0,0,0-2,.62c1.2.27,1.46,1.58,1.55,2A5.06,5.06,0,0,0,70.42,48.73Z"/><path class="cls-9" d="M90.36,44.21l-3.92,18.4c2.42-.87,3.89-2.22,5-5.67h1.67c-1.57,5.23-4.57,6.74-7,7.41l-.59,2.86C84.31,72.88,81,74,78.35,74c-2.42,0-4.45-1.27-4.45-3.85,0-3.34,3.49-5,6.47-5.91l.48-2.1a6.45,6.45,0,0,1-4.77,2.18c-2.69,0-5.27-1.67-5.27-6.39C70.81,52.53,74.1,44,81,44c2.27,0,3.22.87,3.22,2v.23l.44-2.06ZM77.44,70.87c.83,0,1.78-1.18,2.3-3.52L80,66.19C78,67,76.09,68,76.09,69.57a1.36,1.36,0,0,0,1.33,1.29Zm-.75-13.53c0,3.06,1.26,3.1,2,3.1a3.86,3.86,0,0,0,3.17-3.1l2-9.4a1.57,1.57,0,0,0-1.66-1.47h0c-3.36,0-5.54,7.16-5.54,10.87Z"/><path class="cls-3" d="M78.35,75.3c-3.46,0-5.79-2.09-5.79-5.19a5.84,5.84,0,0,1,2.25-4.6c-2.78-.5-5.34-2.68-5.34-7.62,0-6.39,4-15.23,11.51-15.23a6.11,6.11,0,0,1,2.75.55,1.36,1.36,0,0,1,.91-.35h5.72a1.34,1.34,0,0,1,1,.5,1.36,1.36,0,0,1,.27,1.12l-3.28,15.4a8.52,8.52,0,0,0,1.77-3.37,1.35,1.35,0,0,1,1.28-.92h1.67a1.35,1.35,0,0,1,1.07.53,1.33,1.33,0,0,1,.21,1.19c-1.61,5.4-4.69,7.26-7.16,8.09l-.43,2.08C85.46,73.94,81.46,75.3,78.35,75.3Zm-2.73-3.81a3.28,3.28,0,0,0,2.73,1.13c3.13,0,5-1.86,5.82-5.68l.6-2.86a1.32,1.32,0,0,1,.51-.8,1.36,1.36,0,0,1-.15-1L88.7,45.55h-3l-.21,1a1.3,1.3,0,0,1-.41.71,2.59,2.59,0,0,1,.1.62,1.45,1.45,0,0,1,0,.36l-2,9.39a.14.14,0,0,1,0,.07,5.9,5.9,0,0,1-2,3.1,1.82,1.82,0,0,1,.3.11,1.34,1.34,0,0,1,.69,1.49l-.47,2.1a1.35,1.35,0,0,1-.65.87,1.37,1.37,0,0,1,.26,1.11l-.24,1.15c-.64,2.92-2,4.59-3.61,4.59l-.25,0A2.7,2.7,0,0,1,75.62,71.49Zm2.2-2.62a1.17,1.17,0,0,0-.37.56A2.67,2.67,0,0,0,77.82,68.87ZM81,45.34c-5.67,0-8.8,7.43-8.8,12.55,0,4.17,2.14,5,3.93,5a5.07,5.07,0,0,0,3.27-1.24,3.23,3.23,0,0,1-.68.08c-2.15,0-3.27-1.42-3.32-4.22a1.64,1.64,0,0,1,0-.22A20.22,20.22,0,0,1,77,50C78,47.47,79.39,45.89,81,45.34ZM78,57.15a1.11,1.11,0,0,1,0,.19c0,1.42.31,1.73.31,1.73a1.67,1.67,0,0,0,.33,0A2.63,2.63,0,0,0,80.54,57l2-9.1a.24.24,0,0,0-.21-.11h-.08C80.54,47.81,78.08,52.69,78,57.15Z"/><path class="cls-9" d="M98.33,61c3.13,0,5-1.74,7-4h1.35c-2.26,3.65-5.63,7.34-10.91,7.34-3.73,0-6.19-1.82-6.19-6.31s2.58-14.12,10.72-14.12c3.52,0,4.36,1.83,4.36,3.81,0,4.56-4.36,8.09-9.13,8.37,0,.56-.08,1.11-.08,1.59C95.47,60.31,96.42,61,98.33,61Zm2.3-15c-2,0-4,4.24-4.76,8.17,3.06-.2,5.75-3.26,5.75-6.55C101.62,46.59,101.39,46,100.63,46Z"/><path class="cls-3" d="M95.79,65.62c-4.79,0-7.53-2.78-7.53-7.65,0-5,2.95-15.46,12.06-15.46,3.67,0,5.7,1.83,5.7,5.15,0,4.67-4,8.76-9.2,9.58,0,.13,0,.26,0,.38,0,2,.39,2,1.52,2,2.43,0,4-1.25,6-3.55a1.33,1.33,0,0,1,1-.46h1.35a1.35,1.35,0,0,1,1.17.69,1.33,1.33,0,0,1,0,1.36C104.51,63,100.57,65.62,95.79,65.62Zm2.84-20.26c-5.77,1.25-7.69,8.79-7.69,12.61,0,3.39,1.54,5,4.85,5a8.86,8.86,0,0,0,3.5-.7,7.52,7.52,0,0,1-1,0c-2.86,0-4.2-1.48-4.2-4.67,0-.52,0-1.1.08-1.66a1.37,1.37,0,0,1,.59-1,1.36,1.36,0,0,1-.25-1.07C95.1,51.18,96.47,47.05,98.63,45.36Zm1.65,2.08c-.66.49-1.71,2.14-2.51,4.66a5.59,5.59,0,0,0,2.51-4.52Zm2.26-1.77a3.81,3.81,0,0,1,.42,1.91,8,8,0,0,1-1.06,4,6.19,6.19,0,0,0,1.44-3.87A2.16,2.16,0,0,0,102.54,45.67Zm-1.91,1.63h0v0Z"/><path class="cls-9" d="M112.74,44.21l-.51,2.46c1.39-1.18,2.89-2.46,4.8-2.46a2.94,2.94,0,0,1-.12,5.87c-2.22,0-1.11-2.62-2.3-2.62s-1.9.6-2.9,1.51l-3.17,15.08h-5.7L107,44.21Z"/><path class="cls-3" d="M108.54,65.39h-5.7a1.34,1.34,0,0,1-1-.5,1.36,1.36,0,0,1-.27-1.12l4.21-19.84A1.34,1.34,0,0,1,107,42.87h5.7a1.33,1.33,0,0,1,1,.49,1.41,1.41,0,0,1,.21.35,6.28,6.28,0,0,1,3-.84,4.28,4.28,0,0,1-.12,8.55A2.78,2.78,0,0,1,114,48.9a3.67,3.67,0,0,0-1.09.77l-3.09,14.66A1.34,1.34,0,0,1,108.54,65.39Zm-4.05-2.68h3l3-14a1.35,1.35,0,0,1,.41-.71l.44-.4a1.34,1.34,0,0,1-.33-1.19l.18-.84h-3Zm12.26-14h.16a1.48,1.48,0,0,0,1.52-1.56c0-.16,0-1.63-1.4-1.63a3.77,3.77,0,0,0-2,.62c1.2.28,1.46,1.58,1.55,2A5.06,5.06,0,0,0,116.75,48.73Z"/><path class="cls-10" d="M27.71,36.7,25.56,46h.28c3.66,0,6.58-3.63,6.58-6.75,0-2.37-1.69-4.5-6-4.5C21,34.7,15,38,15,44.82a5.24,5.24,0,0,0,.65,2.83c-3,0-4.9-1-4.9-3.83,0-5.75,8-11,16.6-11C34,32.79,37,36,37,39.41c0,2.46-1.6,5.08-4.57,6.62,3.89.7,5.4,3.58,5.4,6.7,0,4-2.38,12-10,12-2,0-4.53-.54-4.53-3.08a6.25,6.25,0,0,1,.6-2.41A4.28,4.28,0,0,0,27,60.73c3.34,0,4.53-4.33,4.53-7.5,0-2.91-1-5.29-4.35-5.29-.36,0-1.28.05-2.1.13L21.31,64H14.72l6.22-26.48Z"/><path class="cls-10" d="M56.18,44.21,53.32,57.7A6,6,0,0,0,53.16,59c0,1.11.52,1.47,1.63,1.47,1.55,0,2.62-1.51,3.21-3.5h1.67c-2.26,6.47-5.83,7.34-8,7.34S48,63,47.78,60.51c-2,3.26-4.2,3.77-5.87,3.77-2.38,0-4.24-1.42-4.24-4.76A13.27,13.27,0,0,1,38,56.94l2.7-12.73h5.71L43.54,57.7a5.1,5.1,0,0,0-.12,1.11c0,.91.32,1.63,1.17,1.63,1.57,0,2.58-1.51,3.18-3.5l2.69-12.73Z"/><path class="cls-10" d="M66.41,44.21l-.52,2.46c1.39-1.18,2.9-2.46,4.81-2.46a2.94,2.94,0,0,1-.12,5.87c-2.22,0-1.11-2.62-2.3-2.62s-1.91.6-2.9,1.51L62.21,64.05H56.49L60.7,44.21Z"/><path class="cls-10" d="M90.36,44.21l-3.92,18.4c2.42-.87,3.89-2.22,5-5.67h1.67c-1.57,5.23-4.57,6.74-7,7.41l-.59,2.86C84.31,72.88,81,74,78.35,74c-2.42,0-4.45-1.27-4.45-3.85,0-3.34,3.49-5,6.47-5.91l.48-2.1a6.45,6.45,0,0,1-4.77,2.18c-2.69,0-5.27-1.67-5.27-6.39C70.81,52.53,74.1,44,81,44c2.27,0,3.22.87,3.22,2v.23l.44-2.06ZM77.44,70.87c.83,0,1.78-1.18,2.3-3.52L80,66.19C78,67,76.09,68,76.09,69.57a1.36,1.36,0,0,0,1.33,1.29Zm-.75-13.53c0,3.06,1.26,3.1,2,3.1a3.86,3.86,0,0,0,3.17-3.1l2-9.4a1.57,1.57,0,0,0-1.66-1.47h0c-3.36,0-5.54,7.16-5.54,10.87Z"/><path class="cls-10" d="M98.33,61c3.13,0,5-1.74,7-4h1.35c-2.26,3.65-5.63,7.34-10.91,7.34-3.73,0-6.19-1.82-6.19-6.31s2.58-14.12,10.72-14.12c3.52,0,4.36,1.83,4.36,3.81,0,4.56-4.36,8.09-9.13,8.37,0,.56-.08,1.11-.08,1.59C95.47,60.31,96.42,61,98.33,61Zm2.3-15c-2,0-4,4.24-4.76,8.17,3.06-.2,5.75-3.26,5.75-6.55C101.62,46.59,101.39,46,100.63,46Z"/><path class="cls-10" d="M112.74,44.21l-.51,2.46c1.39-1.18,2.89-2.46,4.8-2.46a2.94,2.94,0,0,1-.12,5.87c-2.22,0-1.11-2.62-2.3-2.62s-1.9.6-2.9,1.51l-3.17,15.08h-5.7L107,44.21Z"/><path class="cls-9" d="M37.41,75.34l3.44-10H43v10l3.52-10h1.14L43.1,77.51H40.68V69.19l-3.24,8.32H35V66.34A3.52,3.52,0,0,0,32.39,70a2.27,2.27,0,0,0,.23,1.11c-1.13,0-1.76-.41-1.76-1.59,0-2.17,3-4.25,5.75-4.25a4.57,4.57,0,0,1,.65,0Z"/><path class="cls-3" d="M43.1,78.85H40.68a1.34,1.34,0,0,1-1.34-1.34V76.33L38.69,78a1.34,1.34,0,0,1-1.25.85H35a1.34,1.34,0,0,1-1.34-1.34V71.88a1.36,1.36,0,0,1-1.08.55c-2.8,0-3.1-2.05-3.1-2.93,0-2.59,3.1-5.59,7.09-5.59a6.49,6.49,0,0,1,.85,0,1.35,1.35,0,0,1,1.15,1.31l0,2.37.94-2.74a1.33,1.33,0,0,1,1.27-.9H43a1.34,1.34,0,0,1,1.34,1.34v2.16l.92-2.61A1.34,1.34,0,0,1,46.51,64h1.14a1.35,1.35,0,0,1,1.11.57,1.37,1.37,0,0,1,.15,1.24L44.36,78A1.34,1.34,0,0,1,43.1,78.85ZM41.34,68a1.83,1.83,0,0,1,.31.24V67.13Z"/><path class="cls-9" d="M48.75,76.24a3.74,3.74,0,0,0,2.9-1.65h.56c-.93,1.5-2.33,3-4.5,3A2.29,2.29,0,0,1,45.16,75c0-1.84,1.06-5.82,4.41-5.82,1.46,0,1.8.75,1.8,1.56,0,1.89-1.8,3.34-3.76,3.46,0,.23,0,.46,0,.65C47.58,76,48,76.24,48.75,76.24Zm1-6.17c-.84,0-1.64,1.76-2,3.38a2.74,2.74,0,0,0,2.37-2.7C50.11,70.32,50,70.07,49.72,70.07Z"/><path class="cls-3" d="M47.71,79A3.59,3.59,0,0,1,43.82,75c0-3,1.78-7.16,5.75-7.16,1.94,0,3.14,1.11,3.14,2.9a4.37,4.37,0,0,1-.8,2.5h.3a1.34,1.34,0,0,1,1.14,2C51.84,77.72,49.94,79,47.71,79Z"/><path class="cls-9" d="M55,76.24a3.74,3.74,0,0,0,2.9-1.65h.56c-.94,1.5-2.33,3-4.5,3A2.29,2.29,0,0,1,51.44,75c0-1.84,1.06-5.82,4.41-5.82,1.46,0,1.8.75,1.8,1.56,0,1.89-1.8,3.34-3.76,3.46,0,.23,0,.46,0,.65C53.85,76,54.25,76.24,55,76.24ZM56,70.07c-.83,0-1.64,1.76-2,3.38a2.74,2.74,0,0,0,2.38-2.7C56.39,70.32,56.29,70.07,56,70.07Z"/><path class="cls-3" d="M54,79A3.59,3.59,0,0,1,50.1,75c0-3,1.78-7.16,5.75-7.16,1.94,0,3.14,1.11,3.14,2.9a4.37,4.37,0,0,1-.8,2.5h.3a1.34,1.34,0,0,1,1.17.69,1.36,1.36,0,0,1,0,1.35C58.12,77.72,56.22,79,54,79Z"/><path class="cls-9" d="M65.65,69.34l-3.27,2.27a2.48,2.48,0,0,1,.54-.06,1.73,1.73,0,0,1,1.8,1.91,2.56,2.56,0,0,1-.07.62l-.18.82a3.12,3.12,0,0,0-.08.52c0,.33.13.61.64.61a1.13,1.13,0,0,0,.57-.1,1.8,1.8,0,0,1-1.52,1.68c-1.34,0-2.06-.67-2.06-1.86a3.47,3.47,0,0,1,.1-.85l.13-.64a3.05,3.05,0,0,0,.06-.6c0-.48-.16-.79-.59-.79a2.1,2.1,0,0,0-1.21.61l-.85,4H57.31l2.37-11.12,2.42-.33-1.22,5.76L64,69.33Z"/><path class="cls-3" d="M64.08,79a3.25,3.25,0,0,1-3-1.57l-.09.41a1.34,1.34,0,0,1-1.31,1.06H57.31A1.33,1.33,0,0,1,56,77.23l2.37-11.12a1.33,1.33,0,0,1,1.14-1l2.41-.33a1.35,1.35,0,0,1,1.17.42,1.33,1.33,0,0,1,.32,1.19L63,68.47l.24-.19A1.4,1.4,0,0,1,64,68h1.61a1.33,1.33,0,0,1,1.28.94,1.35,1.35,0,0,1-.51,1.5l-1.14.79a3.29,3.29,0,0,1,.78,2.23,4.22,4.22,0,0,1-.11.93l0,.23a1.3,1.3,0,0,1,.45.2A1.35,1.35,0,0,1,66.94,76a3.16,3.16,0,0,1-2.66,2.94Z"/><path class="cls-10" d="M37.41,75.34l3.44-10H43v10l3.52-10h1.14L43.1,77.51H40.68V69.19l-3.24,8.32H35V66.34A3.52,3.52,0,0,0,32.39,70a2.27,2.27,0,0,0,.23,1.11c-1.13,0-1.76-.41-1.76-1.59,0-2.17,3-4.25,5.75-4.25a4.57,4.57,0,0,1,.65,0Z"/><path class="cls-10" d="M48.75,76.24a3.74,3.74,0,0,0,2.9-1.65h.56c-.93,1.5-2.33,3-4.5,3A2.29,2.29,0,0,1,45.16,75c0-1.84,1.06-5.82,4.41-5.82,1.46,0,1.8.75,1.8,1.56,0,1.89-1.8,3.34-3.76,3.46,0,.23,0,.46,0,.65C47.58,76,48,76.24,48.75,76.24Zm1-6.17c-.84,0-1.64,1.76-2,3.38a2.74,2.74,0,0,0,2.37-2.7C50.11,70.32,50,70.07,49.72,70.07Z"/><path class="cls-10" d="M55,76.24a3.74,3.74,0,0,0,2.9-1.65h.56c-.94,1.5-2.33,3-4.5,3A2.29,2.29,0,0,1,51.44,75c0-1.84,1.06-5.82,4.41-5.82,1.46,0,1.8.75,1.8,1.56,0,1.89-1.8,3.34-3.76,3.46,0,.23,0,.46,0,.65C53.85,76,54.25,76.24,55,76.24ZM56,70.07c-.83,0-1.64,1.76-2,3.38a2.74,2.74,0,0,0,2.38-2.7C56.39,70.32,56.29,70.07,56,70.07Z"/><path class="cls-10" d="M65.65,69.34l-3.27,2.27a2.48,2.48,0,0,1,.54-.06,1.73,1.73,0,0,1,1.8,1.91,2.56,2.56,0,0,1-.07.62l-.18.82a3.12,3.12,0,0,0-.08.52c0,.33.13.61.64.61a1.13,1.13,0,0,0,.57-.1,1.8,1.8,0,0,1-1.52,1.68c-1.34,0-2.06-.67-2.06-1.86a3.47,3.47,0,0,1,.1-.85l.13-.64a3.05,3.05,0,0,0,.06-.6c0-.48-.16-.79-.59-.79a2.1,2.1,0,0,0-1.21.61l-.85,4H57.31l2.37-11.12,2.42-.33-1.22,5.76L64,69.33Z"/><path class="cls-9" d="M7.18,58.76c1.72.4,3.46,2.14,5.56,2.14a3.55,3.55,0,0,0,1.4-.26c-.17,1.59-.83,2.6-1.73,2.6C10.05,63.24,8,59.48,5,59.48H4.63L7.1,48a3.68,3.68,0,0,0-2.32,3.62A2.28,2.28,0,0,0,5,52.73c-1.14,0-1.77-.41-1.77-1.6,0-2.21,3.05-4.31,5.81-4.31a3.66,3.66,0,0,1,.67,0Z"/><path class="cls-3" d="M12.41,64.58c-1.59,0-2.88-1-4.13-2S6.1,60.82,5,60.82H4.74A1.33,1.33,0,0,1,3.32,59.2L4.43,54A2.7,2.7,0,0,1,1.9,51.13c0-2.62,3.12-5.65,7.15-5.65a5.56,5.56,0,0,1,.88.05,1.35,1.35,0,0,1,.89.57,1.36,1.36,0,0,1,.21,1L8.73,57.9c.43.19.84.42,1.24.64a6.19,6.19,0,0,0,2.8,1,2.32,2.32,0,0,0,.87-.16,1.34,1.34,0,0,1,1.83,1.38C15.17,63.58,13.7,64.58,12.41,64.58Z"/><path class="cls-9" d="M12.68,57.62a3.33,3.33,0,0,0,2-.88,2.65,2.65,0,0,1-2.86,2.45A2.32,2.32,0,0,1,9.2,56.56c0-1.87,1.08-5.9,4.47-5.9,1.48,0,1.82.79,1.82,1.59a3.82,3.82,0,0,1-3.8,3.5c0,.16,0,.35,0,.5C11.65,57.29,12.1,57.62,12.68,57.62Zm1.12-6.07c-.83,0-1.65,1.83-2,3.41a2.77,2.77,0,0,0,2.42-2.75C14.22,51.81,14.12,51.55,13.8,51.55Z"/><path class="cls-3" d="M11.77,60.54a3.66,3.66,0,0,1-3.91-4c0-3,1.8-7.24,5.81-7.24a2.84,2.84,0,0,1,3.17,2.93,4.6,4.6,0,0,1-1.51,3.35A1.34,1.34,0,0,1,16,57,4,4,0,0,1,11.77,60.54Zm.91-2.92Z"/><path class="cls-10" d="M7.18,58.76c1.72.4,3.46,2.14,5.56,2.14a3.55,3.55,0,0,0,1.4-.26c-.17,1.59-.83,2.6-1.73,2.6C10.05,63.24,8,59.48,5,59.48H4.63L7.1,48a3.68,3.68,0,0,0-2.32,3.62A2.28,2.28,0,0,0,5,52.73c-1.14,0-1.77-.41-1.77-1.6,0-2.21,3.05-4.31,5.81-4.31a3.66,3.66,0,0,1,.67,0Z"/><path class="cls-10" d="M12.68,57.62a3.33,3.33,0,0,0,2-.88,2.65,2.65,0,0,1-2.86,2.45A2.32,2.32,0,0,1,9.2,56.56c0-1.87,1.08-5.9,4.47-5.9,1.48,0,1.82.79,1.82,1.59a3.82,3.82,0,0,1-3.8,3.5c0,.16,0,.35,0,.5C11.65,57.29,12.1,57.62,12.68,57.62Zm1.12-6.07c-.83,0-1.65,1.83-2,3.41a2.77,2.77,0,0,0,2.42-2.75C14.22,51.81,14.12,51.55,13.8,51.55Z"/></g><rect class="cls-11" x="136.93" y="3.25" width="4" height="87.22"/></g></g></svg>