<svg xmlns="http://www.w3.org/2000/svg" xmlns:xlink="http://www.w3.org/1999/xlink" viewBox="0 0 2093.74 1259.88"><defs><style>.cls-1,.cls-11,.cls-3{fill:none;}.cls-2{clip-path:url(#clip-path);}.cls-11,.cls-3{stroke:#673d3d;stroke-linecap:round;stroke-linejoin:round;}.cls-3{stroke-width:4px;}.cls-4{clip-path:url(#clip-path-2);}.cls-5{clip-path:url(#clip-path-3);}.cls-6{clip-path:url(#clip-path-4);}.cls-7{clip-path:url(#clip-path-5);}.cls-8{clip-path:url(#clip-path-6);}.cls-9{clip-path:url(#clip-path-7);}.cls-10{clip-path:url(#clip-path-8);}.cls-11{stroke-width:8px;}</style><clipPath id="clip-path"><path class="cls-1" d="M703.88,458.63a35.75,35.75,0,0,0,0,71.5H843.12a35.75,35.75,0,0,0,0-71.5c-.94,0-1.86,0-2.78.1A44.1,44.1,0,0,0,759.69,429a35.76,35.76,0,0,0-55.81,29.6Z"/></clipPath><clipPath id="clip-path-2"><path class="cls-1" d="M626,887.2H833.5a0,0,0,0,1,0,0v162a0,0,0,0,1,0,0H787.94a162,162,0,0,1-162-162v0A0,0,0,0,1,626,887.2Z"/></clipPath><clipPath id="clip-path-3"><rect class="cls-1" x="1327.33" y="1092.44" width="398" height="39.51"/></clipPath><clipPath id="clip-path-4"><path class="cls-1" d="M1422.39,197.18h128.34a0,0,0,0,1,0,0v73a0,0,0,0,1,0,0H1495.4a73,73,0,0,1-73-73v0A0,0,0,0,1,1422.39,197.18Z"/></clipPath><clipPath id="clip-path-5"><path class="cls-1" d="M831.55,314.24c0,57,28.89,77.12,62,77.12V237.12C860.44,237.12,831.55,255.16,831.55,314.24Z"/></clipPath><clipPath id="clip-path-6"><rect class="cls-1" x="1398.99" y="405.97" width="55.21" height="89.69" transform="translate(975.78 1877.41) rotate(-90)"/></clipPath><clipPath id="clip-path-7"><path class="cls-1" d="M579.3,560C538,560,523.46,581,523.46,604.94H635.14C635.14,581,622.07,560,579.3,560Z"/></clipPath><clipPath id="clip-path-8"><path class="cls-1" d="M523.46,834H635.14a0,0,0,0,1,0,0v12.27a5.41,5.41,0,0,1-5.41,5.41H528.87a5.41,5.41,0,0,1-5.41-5.41V834A0,0,0,0,1,523.46,834Z"/></clipPath></defs><title>illo-footer</title><g id="Layer_2" data-name="Layer 2"><g id="Layer_8" data-name="Layer 8"><g class="cls-2"><line class="cls-3" x1="679.82" y1="538.6" x2="605.23" y2="400.61"/><line class="cls-3" x1="754.42" y1="538.6" x2="679.82" y2="400.61"/><line class="cls-3" x1="717.12" y1="538.6" x2="642.52" y2="400.61"/><line class="cls-3" x1="829.01" y1="538.6" x2="754.42" y2="400.61"/><line class="cls-3" x1="791.71" y1="538.6" x2="717.12" y2="400.61"/><line class="cls-3" x1="903.61" y1="538.6" x2="829.01" y2="400.61"/><line class="cls-3" x1="940.91" y1="538.6" x2="866.31" y2="400.61"/><line class="cls-3" x1="866.31" y1="538.6" x2="791.71" y2="400.61"/></g><g class="cls-4"><circle class="cls-3" cx="628.82" cy="895.15" r="5"/><circle class="cls-3" cx="683.02" cy="895.15" r="5"/><circle class="cls-3" cx="642.37" cy="922.25" r="5"/><circle class="cls-3" cx="696.57" cy="922.25" r="5"/><circle class="cls-3" cx="669.47" cy="922.25" r="5"/><circle class="cls-3" cx="655.92" cy="895.15" r="5"/><circle class="cls-3" cx="628.82" cy="1003.55" r="5"/><circle class="cls-3" cx="683.02" cy="1003.55" r="5"/><circle class="cls-3" cx="642.37" cy="976.45" r="5"/><circle class="cls-3" cx="696.57" cy="976.45" r="5"/><circle class="cls-3" cx="669.47" cy="976.45" r="5"/><circle class="cls-3" cx="655.92" cy="1003.55" r="5"/><circle class="cls-3" cx="628.82" cy="949.35" r="5"/><circle class="cls-3" cx="683.02" cy="949.35" r="5"/><circle class="cls-3" cx="655.92" cy="949.35" r="5"/><circle class="cls-3" cx="764.32" cy="895.15" r="5"/><circle class="cls-3" cx="710.12" cy="895.15" r="5"/><circle class="cls-3" cx="750.77" cy="922.25" r="5"/><circle class="cls-3" cx="723.67" cy="922.25" r="5"/><circle class="cls-3" cx="737.22" cy="895.15" r="5"/><circle class="cls-3" cx="764.32" cy="1003.55" r="5"/><circle class="cls-3" cx="710.12" cy="1003.55" r="5"/><circle class="cls-3" cx="750.77" cy="976.45" r="5"/><circle class="cls-3" cx="723.67" cy="976.45" r="5"/><circle class="cls-3" cx="737.22" cy="1003.55" r="5"/><circle class="cls-3" cx="764.32" cy="949.35" r="5"/><circle class="cls-3" cx="710.12" cy="949.35" r="5"/><circle class="cls-3" cx="737.22" cy="949.35" r="5"/><circle class="cls-3" cx="777.87" cy="922.25" r="5"/><circle class="cls-3" cx="777.87" cy="976.45" r="5"/><circle class="cls-3" cx="642.37" cy="1030.65" r="5"/><circle class="cls-3" cx="696.57" cy="1030.65" r="5"/><circle class="cls-3" cx="669.47" cy="1030.65" r="5"/><circle class="cls-3" cx="628.82" cy="1057.75" r="5"/><circle class="cls-3" cx="683.02" cy="1057.75" r="5"/><circle class="cls-3" cx="655.92" cy="1057.75" r="5"/><circle class="cls-3" cx="750.77" cy="1030.65" r="5"/><circle class="cls-3" cx="723.67" cy="1030.65" r="5"/><circle class="cls-3" cx="764.32" cy="1057.75" r="5"/><circle class="cls-3" cx="710.12" cy="1057.75" r="5"/><circle class="cls-3" cx="737.22" cy="1057.75" r="5"/><circle class="cls-3" cx="859.17" cy="922.25" r="5"/><circle class="cls-3" cx="859.17" cy="976.45" r="5"/><circle class="cls-3" cx="791.42" cy="895.15" r="5"/><circle class="cls-3" cx="845.62" cy="895.15" r="5"/><circle class="cls-3" cx="804.97" cy="922.25" r="5"/><circle class="cls-3" cx="832.07" cy="922.25" r="5"/><circle class="cls-3" cx="818.52" cy="895.15" r="5"/><circle class="cls-3" cx="791.42" cy="1003.55" r="5"/><circle class="cls-3" cx="845.62" cy="1003.55" r="5"/><circle class="cls-3" cx="804.97" cy="976.45" r="5"/><circle class="cls-3" cx="832.07" cy="976.45" r="5"/><circle class="cls-3" cx="818.52" cy="1003.55" r="5"/><circle class="cls-3" cx="791.42" cy="949.35" r="5"/><circle class="cls-3" cx="845.62" cy="949.35" r="5"/><circle class="cls-3" cx="818.52" cy="949.35" r="5"/><circle class="cls-3" cx="859.17" cy="1030.65" r="5"/><circle class="cls-3" cx="804.97" cy="1030.65" r="5"/><circle class="cls-3" cx="832.07" cy="1030.65" r="5"/><circle class="cls-3" cx="791.42" cy="1057.75" r="5"/><circle class="cls-3" cx="845.62" cy="1057.75" r="5"/><circle class="cls-3" cx="818.52" cy="1057.75" r="5"/><circle class="cls-3" cx="777.87" cy="1030.65" r="5"/></g><g class="cls-5"><line class="cls-3" x1="1184.59" y1="1062.14" x2="1259.18" y2="1200.13"/><line class="cls-3" x1="1259.18" y1="1062.14" x2="1333.78" y2="1200.13"/><line class="cls-3" x1="1221.88" y1="1062.14" x2="1296.48" y2="1200.13"/><line class="cls-3" x1="1333.78" y1="1062.14" x2="1408.37" y2="1200.13"/><line class="cls-3" x1="1296.48" y1="1062.14" x2="1371.08" y2="1200.13"/><line class="cls-3" x1="1482.97" y1="1062.14" x2="1557.56" y2="1200.13"/><line class="cls-3" x1="1408.37" y1="1062.14" x2="1482.97" y2="1200.13"/><line class="cls-3" x1="1445.67" y1="1062.14" x2="1520.27" y2="1200.13"/><line class="cls-3" x1="1371.08" y1="1062.14" x2="1445.67" y2="1200.13"/><line class="cls-3" x1="1781.35" y1="1062.14" x2="1855.95" y2="1200.13"/><line class="cls-3" x1="1706.76" y1="1062.14" x2="1781.35" y2="1200.13"/><line class="cls-3" x1="1744.05" y1="1062.14" x2="1818.65" y2="1200.13"/><line class="cls-3" x1="1632.16" y1="1062.14" x2="1706.76" y2="1200.13"/><line class="cls-3" x1="1669.46" y1="1062.14" x2="1744.05" y2="1200.13"/><line class="cls-3" x1="1557.56" y1="1062.14" x2="1632.16" y2="1200.13"/><line class="cls-3" x1="1520.27" y1="1062.14" x2="1594.86" y2="1200.13"/><line class="cls-3" x1="1594.86" y1="1062.14" x2="1669.46" y2="1200.13"/></g><g class="cls-6"><line class="cls-3" x1="1737.23" y1="185.6" x2="1681.53" y2="288.64"/><line class="cls-3" x1="1681.53" y1="185.6" x2="1625.82" y2="288.64"/><line class="cls-3" x1="1709.38" y1="185.6" x2="1653.67" y2="288.64"/><line class="cls-3" x1="1625.82" y1="185.6" x2="1570.11" y2="288.64"/><line class="cls-3" x1="1653.67" y1="185.6" x2="1597.97" y2="288.64"/><line class="cls-3" x1="1514.41" y1="185.6" x2="1458.7" y2="288.64"/><line class="cls-3" x1="1570.11" y1="185.6" x2="1514.41" y2="288.64"/><line class="cls-3" x1="1542.26" y1="185.6" x2="1486.56" y2="288.64"/><line class="cls-3" x1="1597.97" y1="185.6" x2="1542.26" y2="288.64"/><line class="cls-3" x1="1291.59" y1="185.6" x2="1235.88" y2="288.64"/><line class="cls-3" x1="1347.29" y1="185.6" x2="1291.59" y2="288.64"/><line class="cls-3" x1="1319.44" y1="185.6" x2="1263.73" y2="288.64"/><line class="cls-3" x1="1403" y1="185.6" x2="1347.29" y2="288.64"/><line class="cls-3" x1="1375.15" y1="185.6" x2="1319.44" y2="288.64"/><line class="cls-3" x1="1458.7" y1="185.6" x2="1403" y2="288.64"/><line class="cls-3" x1="1486.56" y1="185.6" x2="1430.85" y2="288.64"/><line class="cls-3" x1="1430.85" y1="185.6" x2="1375.15" y2="288.64"/></g><g class="cls-7"><circle class="cls-3" cx="778.53" cy="261.63" r="4.94"/><circle class="cls-3" cx="832.06" cy="261.63" r="4.94"/><circle class="cls-3" cx="791.91" cy="288.4" r="4.94"/><circle class="cls-3" cx="845.44" cy="288.4" r="4.94"/><circle class="cls-3" cx="818.68" cy="288.4" r="4.94"/><circle class="cls-3" cx="805.3" cy="261.63" r="4.94"/><circle class="cls-3" cx="778.53" cy="368.69" r="4.94"/><circle class="cls-3" cx="832.06" cy="368.69" r="4.94"/><circle class="cls-3" cx="791.91" cy="341.93" r="4.94"/><circle class="cls-3" cx="845.44" cy="341.93" r="4.94"/><circle class="cls-3" cx="818.68" cy="341.93" r="4.94"/><circle class="cls-3" cx="805.3" cy="368.69" r="4.94"/><circle class="cls-3" cx="778.53" cy="315.16" r="4.94"/><circle class="cls-3" cx="832.06" cy="315.16" r="4.94"/><circle class="cls-3" cx="805.3" cy="315.16" r="4.94"/><circle class="cls-3" cx="912.36" cy="261.63" r="4.94"/><circle class="cls-3" cx="858.83" cy="261.63" r="4.94"/><circle class="cls-3" cx="898.98" cy="288.4" r="4.94"/><circle class="cls-3" cx="872.21" cy="288.4" r="4.94"/><circle class="cls-3" cx="885.59" cy="261.63" r="4.94"/><circle class="cls-3" cx="912.36" cy="368.69" r="4.94"/><circle class="cls-3" cx="858.83" cy="368.69" r="4.94"/><circle class="cls-3" cx="898.98" cy="341.93" r="4.94"/><circle class="cls-3" cx="872.21" cy="341.93" r="4.94"/><circle class="cls-3" cx="885.59" cy="368.69" r="4.94"/><circle class="cls-3" cx="912.36" cy="315.16" r="4.94"/><circle class="cls-3" cx="858.83" cy="315.16" r="4.94"/><circle class="cls-3" cx="885.59" cy="315.16" r="4.94"/><circle class="cls-3" cx="925.74" cy="288.4" r="4.94"/><circle class="cls-3" cx="925.74" cy="341.93" r="4.94"/></g><g class="cls-8"><circle class="cls-3" cx="1395.96" cy="509.93" r="3.63"/><circle class="cls-3" cx="1395.96" cy="470.57" r="3.63"/><circle class="cls-3" cx="1415.64" cy="500.09" r="3.63"/><circle class="cls-3" cx="1415.64" cy="460.73" r="3.63"/><circle class="cls-3" cx="1415.64" cy="480.41" r="3.63"/><circle class="cls-3" cx="1395.96" cy="490.25" r="3.63"/><circle class="cls-3" cx="1474.68" cy="509.93" r="3.63"/><circle class="cls-3" cx="1474.68" cy="470.57" r="3.63"/><circle class="cls-3" cx="1455" cy="500.09" r="3.63"/><circle class="cls-3" cx="1455" cy="460.73" r="3.63"/><circle class="cls-3" cx="1455" cy="480.41" r="3.63"/><circle class="cls-3" cx="1474.68" cy="490.25" r="3.63"/><circle class="cls-3" cx="1435.32" cy="509.93" r="3.63"/><circle class="cls-3" cx="1435.32" cy="470.57" r="3.63"/><circle class="cls-3" cx="1435.32" cy="490.25" r="3.63"/><circle class="cls-3" cx="1395.96" cy="411.53" r="3.63"/><circle class="cls-3" cx="1395.96" cy="450.89" r="3.63"/><circle class="cls-3" cx="1415.64" cy="421.37" r="3.63"/><circle class="cls-3" cx="1415.64" cy="441.05" r="3.63"/><circle class="cls-3" cx="1395.96" cy="431.21" r="3.63"/><circle class="cls-3" cx="1474.68" cy="411.53" r="3.63"/><circle class="cls-3" cx="1474.68" cy="450.89" r="3.63"/><circle class="cls-3" cx="1455" cy="421.37" r="3.63"/><circle class="cls-3" cx="1455" cy="441.05" r="3.63"/><circle class="cls-3" cx="1474.68" cy="431.21" r="3.63"/><circle class="cls-3" cx="1435.32" cy="411.53" r="3.63"/><circle class="cls-3" cx="1435.32" cy="450.89" r="3.63"/><circle class="cls-3" cx="1435.32" cy="431.21" r="3.63"/><circle class="cls-3" cx="1415.64" cy="401.69" r="3.63"/><circle class="cls-3" cx="1455" cy="401.69" r="3.63"/></g><circle class="cls-3" cx="832.89" cy="573.26" r="6.77"/><circle class="cls-3" cx="832.89" cy="646.71" r="6.77"/><circle class="cls-3" cx="832.89" cy="609.99" r="6.77"/><circle class="cls-3" cx="722.73" cy="554.9" r="6.77"/><circle class="cls-3" cx="759.45" cy="573.26" r="6.77"/><circle class="cls-3" cx="759.45" cy="609.99" r="6.77"/><circle class="cls-3" cx="722.73" cy="591.62" r="6.77"/><circle class="cls-3" cx="796.17" cy="554.9" r="6.77"/><circle class="cls-3" cx="796.17" cy="628.35" r="6.77"/><circle class="cls-3" cx="796.17" cy="591.62" r="6.77"/><g class="cls-9"><line class="cls-3" x1="435.19" y1="539.83" x2="435.19" y2="621.57"/><line class="cls-3" x1="471.13" y1="539.83" x2="471.13" y2="621.57"/><line class="cls-3" x1="453.16" y1="539.83" x2="453.16" y2="621.57"/><line class="cls-3" x1="507.07" y1="539.83" x2="507.07" y2="621.57"/><line class="cls-3" x1="489.1" y1="539.83" x2="489.1" y2="621.57"/><line class="cls-3" x1="578.96" y1="539.83" x2="578.96" y2="621.57"/><line class="cls-3" x1="543.02" y1="539.83" x2="543.02" y2="621.57"/><line class="cls-3" x1="560.99" y1="539.83" x2="560.99" y2="621.57"/><line class="cls-3" x1="525.05" y1="539.83" x2="525.05" y2="621.57"/><line class="cls-3" x1="722.73" y1="539.83" x2="722.73" y2="621.57"/><line class="cls-3" x1="686.79" y1="539.83" x2="686.79" y2="621.57"/><line class="cls-3" x1="704.76" y1="539.83" x2="704.76" y2="621.57"/><line class="cls-3" x1="650.84" y1="539.83" x2="650.84" y2="621.57"/><line class="cls-3" x1="668.81" y1="539.83" x2="668.81" y2="621.57"/><line class="cls-3" x1="614.9" y1="539.83" x2="614.9" y2="621.57"/><line class="cls-3" x1="596.93" y1="539.83" x2="596.93" y2="621.57"/><line class="cls-3" x1="632.87" y1="539.83" x2="632.87" y2="621.57"/></g><g class="cls-10"><line class="cls-3" x1="435.19" y1="801.95" x2="435.19" y2="883.7"/><line class="cls-3" x1="471.13" y1="801.95" x2="471.13" y2="883.7"/><line class="cls-3" x1="453.16" y1="801.95" x2="453.16" y2="883.7"/><line class="cls-3" x1="507.07" y1="801.95" x2="507.07" y2="883.7"/><line class="cls-3" x1="489.1" y1="801.95" x2="489.1" y2="883.7"/><line class="cls-3" x1="578.96" y1="801.95" x2="578.96" y2="883.7"/><line class="cls-3" x1="543.02" y1="801.95" x2="543.02" y2="883.7"/><line class="cls-3" x1="560.99" y1="801.95" x2="560.99" y2="883.7"/><line class="cls-3" x1="525.05" y1="801.95" x2="525.05" y2="883.7"/><line class="cls-3" x1="722.73" y1="801.95" x2="722.73" y2="883.7"/><line class="cls-3" x1="686.79" y1="801.95" x2="686.79" y2="883.7"/><line class="cls-3" x1="704.76" y1="801.95" x2="704.76" y2="883.7"/><line class="cls-3" x1="650.84" y1="801.95" x2="650.84" y2="883.7"/><line class="cls-3" x1="668.81" y1="801.95" x2="668.81" y2="883.7"/><line class="cls-3" x1="614.9" y1="801.95" x2="614.9" y2="883.7"/><line class="cls-3" x1="596.93" y1="801.95" x2="596.93" y2="883.7"/><line class="cls-3" x1="632.87" y1="801.95" x2="632.87" y2="883.7"/></g><polyline class="cls-11" points="781.35 245.38 642.95 245.38 642.95 383.77 781.35 383.77 781.35 297.08"/><polyline class="cls-11" points="1327.33 1037.16 1327.33 988.28 1349.76 988.28"/><polyline class="cls-11" points="1725.33 978.28 1725.33 1092.44 1327.33 1092.44 1327.33 1070.63"/><rect class="cls-11" x="1327.33" y="1092.44" width="398" height="39.51"/><path class="cls-11" d="M1651.46,570.38a105,105,0,0,0,53.87-188.12"/><path class="cls-11" d="M1537.1,474A105,105,0,0,0,1628,569.93"/><path class="cls-11" d="M1577.35,382.94a104.9,104.9,0,0,0-39.49,67.88"/><path class="cls-11" d="M1433.32,799.36c-61.74,0-83.55,31.3-83.55,67.17h167.11C1516.87,830.65,1497.32,799.36,1433.32,799.36Z"/><path class="cls-11" d="M1342.26,882c14.83,0,14.83,16.18,29.66,16.18S1386.76,882,1401.59,882s14.83,16.18,29.67,16.18S1446.09,882,1460.93,882s14.83,16.18,29.67,16.18S1505.43,882,1520.27,882"/><path class="cls-11" d="M1349.76,978.28h167.11a0,0,0,0,1,0,0v18.36a8.09,8.09,0,0,1-8.09,8.09H1357.86a8.09,8.09,0,0,1-8.09-8.09V978.28A0,0,0,0,1,1349.76,978.28Z"/><line class="cls-11" x1="1339.63" y1="918.16" x2="1735.47" y2="918.16"/><line class="cls-11" x1="1430.94" y1="839.34" x2="1435.69" y2="839.34"/><line class="cls-11" x1="1478.27" y1="839.34" x2="1473.52" y2="839.34"/><line class="cls-11" x1="1451.13" y1="822.32" x2="1455.88" y2="822.32"/><line class="cls-11" x1="1388.36" y1="839.34" x2="1393.12" y2="839.34"/><line class="cls-11" x1="1415.5" y1="822.32" x2="1410.75" y2="822.32"/><path class="cls-11" d="M1641.78,724.82c-61.74,0-83.55,31.3-83.55,67.17h167.11C1725.33,756.12,1705.78,724.82,1641.78,724.82Z"/><path class="cls-11" d="M1550.72,839.74c14.83,0,14.83,16.18,29.66,16.18s14.83-16.18,29.67-16.18,14.83,16.18,29.67,16.18,14.83-16.18,29.67-16.18,14.83,16.18,29.67,16.18"/><path class="cls-11" d="M1550.72,808.84c14.83,0,14.83,16.18,29.66,16.18s14.83-16.18,29.67-16.18S1624.89,825,1639.72,825s14.83-16.18,29.67-16.18S1684.22,825,1699.06,825s14.83-16.18,29.67-16.18"/><rect class="cls-11" x="1543.98" y="874.04" width="191.49" height="24.02" rx="8.09" ry="8.09"/><path class="cls-11" d="M1558.23,978.28h167.11a0,0,0,0,1,0,0v18.36a8.09,8.09,0,0,1-8.09,8.09H1566.32a8.09,8.09,0,0,1-8.09-8.09V978.28A0,0,0,0,1,1558.23,978.28Z"/><line class="cls-11" x1="1641.78" y1="767.18" x2="1641.78" y2="762.43"/><line class="cls-11" x1="1684.36" y1="762.43" x2="1684.36" y2="767.18"/><line class="cls-11" x1="1661.97" y1="750.16" x2="1661.97" y2="745.41"/><line class="cls-11" x1="1599.2" y1="767.18" x2="1599.2" y2="762.43"/><line class="cls-11" x1="1621.59" y1="745.41" x2="1621.59" y2="750.16"/><rect class="cls-11" x="1335.52" y="938.26" width="401.3" height="24.02" rx="8.09" ry="8.09"/><line class="cls-11" x1="963.75" y1="1039.51" x2="963.75" y2="907.07"/><path class="cls-11" d="M942.32,871.34v14.29a21.44,21.44,0,0,0,42.88,0V871.34Z"/><line class="cls-11" x1="942.32" y1="871.34" x2="942.32" y2="805.58"/><line class="cls-11" x1="963.76" y1="871.34" x2="963.76" y2="805.58"/><line class="cls-11" x1="985.2" y1="871.34" x2="985.2" y2="805.58"/><line class="cls-11" x1="1808.2" y1="1049.19" x2="1700.7" y2="1049.19"/><path class="cls-11" d="M1665,1070.63h14.29a21.44,21.44,0,0,0,0-42.88H1665Z"/><line class="cls-11" x1="1664.97" y1="1070.63" x2="1599.2" y2="1070.63"/><line class="cls-11" x1="1664.97" y1="1049.19" x2="1599.2" y2="1049.19"/><line class="cls-11" x1="1664.97" y1="1027.75" x2="1599.2" y2="1027.75"/><path class="cls-11" d="M1022.67,803.71h0a30,30,0,0,1,30,30v192.64a15,15,0,0,1-15,15h0a15,15,0,0,1-15-15V803.71a0,0,0,0,1,0,0Z"/><line class="cls-11" x1="1022.67" y1="946.75" x2="1052.69" y2="946.75"/><path class="cls-11" d="M1382.68,936.79h0a30,30,0,0,1,30,30v192.64a15,15,0,0,1-15,15h0a15,15,0,0,1-15-15V936.79a0,0,0,0,1,0,0Z" transform="translate(2453.31 -342.07) rotate(90)"/><line class="cls-11" x1="1373.48" y1="1040.61" x2="1373.48" y2="1070.63"/><rect class="cls-11" x="1580.36" y="163.65" width="118.74" height="156.54" rx="12" ry="12" transform="translate(3279.45 483.83) rotate(180)"/><rect class="cls-11" x="1609.14" y="194.41" width="61.18" height="71.25" transform="translate(3279.45 460.08) rotate(180)"/><line class="cls-11" x1="1651.42" y1="243.51" x2="1628.03" y2="243.51"/><line class="cls-11" x1="1651.42" y1="222.57" x2="1628.03" y2="222.57"/><rect class="cls-11" x="1596.53" y="321.15" width="86.39" height="30.04" transform="translate(3279.45 672.33) rotate(180)"/><line class="cls-11" x1="1639.73" y1="351.18" x2="1639.73" y2="325.03"/><line class="cls-11" x1="1619.15" y1="351.18" x2="1619.15" y2="325.03"/><line class="cls-11" x1="1660.3" y1="351.18" x2="1660.3" y2="325.03"/><polygon class="cls-11" points="1632.42 403.18 1639.73 403.18 1647.03 403.18 1660.3 353.68 1639.73 353.68 1619.15 353.68 1632.42 403.18"/><path class="cls-11" d="M1346.59,490.43l-92.89-12.07V451.61l92.89-12.07a39.7,39.7,0,0,1,32-16.12h131.24v83.14H1378.57A39.7,39.7,0,0,1,1346.59,490.43Z"/><rect class="cls-11" x="1398.99" y="405.97" width="55.21" height="89.69" transform="translate(975.78 1877.41) rotate(-90)"/><path class="cls-11" d="M1229.49,483a9,9,0,1,0,0-18"/><path class="cls-11" d="M1229.49,465a9,9,0,1,0,0-18"/><line class="cls-11" x1="1211.45" y1="479.16" x2="1211.45" y2="450.81"/><line class="cls-11" x1="997.22" y1="537.58" x2="997.22" y2="391.36"/><line class="cls-11" x1="1031.8" y1="550.61" x2="1031.8" y2="491.29"/><line class="cls-11" x1="970.64" y1="554.02" x2="970.64" y2="434.94"/><line class="cls-11" x1="909.48" y1="558.92" x2="909.48" y2="520.74"/><line class="cls-11" x1="895.32" y1="747.79" x2="895.32" y2="1020.21"/><ellipse class="cls-11" cx="895.32" cy="1070.96" rx="30.46" ry="50.75"/><path class="cls-11" d="M905.35,1044.9a10.2,10.2,0,1,0-20.41,0"/><line class="cls-11" x1="1318.36" y1="314.57" x2="1318.36" y2="337.96"/><line class="cls-11" x1="1297.42" y1="314.57" x2="1297.42" y2="337.96"/><line class="cls-11" x1="1339.3" y1="314.57" x2="1339.3" y2="337.96"/><path class="cls-11" d="M1521.22,346.4H1553V306.14h-31.81c-40,0-79.65-9.93-113.84-30.67a59.08,59.08,0,0,0-30.74-8.57H1250.5a12,12,0,0,0-12,12v94.74a12,12,0,0,0,12,12h126.15a59.08,59.08,0,0,0,30.74-8.57C1441.57,356.33,1481.24,346.4,1521.22,346.4Z"/><rect class="cls-11" x="1519.96" y="313.33" width="40.26" height="25.88" transform="translate(1866.36 -1213.83) rotate(90)"/><path class="cls-11" d="M1387.57,295.68H1269.27v61.17h118.31a30.58,30.58,0,0,0,0-61.17Z"/><circle class="cls-11" cx="1378.93" cy="326.27" r="11.7"/><polyline class="cls-11" points="1235.89 870.62 1160.39 870.62 1160.39 1000.73 1290.5 1000.73 1290.5 870.62 1254.6 870.62"/><path class="cls-11" d="M1108.63,843.79h40.57A11.19,11.19,0,0,1,1160.39,855v81.1a11.19,11.19,0,0,1-11.19,11.19h-40.57a0,0,0,0,1,0,0V843.79a0,0,0,0,1,0,0Z" transform="translate(2269.02 1791.07) rotate(180)"/><rect class="cls-11" x="1128.34" y="870.8" width="32.05" height="51.74" transform="translate(2288.73 1793.34) rotate(180)"/><path class="cls-11" d="M1256,783.7a34.28,34.28,0,1,1-2.6,62.58V903.6a8.74,8.74,0,0,1-17.49,0V835.43a34.36,34.36,0,0,1-27.41-4.42,34.28,34.28,0,1,1-7.51-50.81,34.25,34.25,0,0,1,55,3.51Z"/><line class="cls-11" x1="1290.5" y1="870.62" x2="1290.5" y2="844.69"/><line class="cls-11" x1="1225.45" y1="1019.4" x2="1225.45" y2="972.67"/><line class="cls-11" x1="1196.3" y1="1019.4" x2="1196.3" y2="972.67"/><line class="cls-11" x1="1254.6" y1="1019.4" x2="1254.6" y2="972.67"/><line class="cls-11" x1="1641.78" y1="724.82" x2="1641.78" y2="655"/><circle class="cls-11" cx="1641.78" cy="617.15" r="34.5"/><circle class="cls-11" cx="1134.66" cy="675.89" r="14.3"/><circle class="cls-11" cx="1094.72" cy="615.32" r="14.3"/><circle class="cls-11" cx="1109.02" cy="752.88" r="14.3"/><circle class="cls-11" cx="1099.3" cy="1007.62" r="14.3"/><circle class="cls-11" cx="1196.3" cy="927.79" r="14.3"/><circle class="cls-11" cx="1254.6" cy="927.79" r="14.3"/><path class="cls-11" d="M1890.67,811.4c1.19-7.4,8.59-15.74,18.12-15.74s16.17,9.07,16.17,19.08c0,19-17.14,32.71-34.29,43.21-17.14-10.5-34.29-24.22-34.29-43.21,0-10,6.64-19.08,16.17-19.08S1889.48,804,1890.67,811.4Z"/><path class="cls-11" d="M1433.32,587.85c1.49-9.28,10.77-19.74,22.71-19.74s20.28,11.37,20.28,23.93c0,23.8-21.5,41-43,54.17-21.5-13.16-43-30.37-43-54.17,0-12.56,8.33-23.93,20.28-23.93S1431.83,578.57,1433.32,587.85Z"/><path class="cls-11" d="M1530.25,677.23c-9.28-1.49-19.74-10.77-19.74-22.71s11.37-20.28,23.93-20.28c23.8,0,41,21.5,54.17,43-13.16,21.5-30.37,43-54.17,43-12.56,0-23.93-8.33-23.93-20.28S1521,678.72,1530.25,677.23Z"/><line class="cls-11" x1="1433.32" y1="799.36" x2="1433.32" y2="646.21"/><line class="cls-11" x1="1468.94" y1="803.17" x2="1468.94" y2="615.32"/><line class="cls-11" x1="1451.13" y1="799.36" x2="1451.13" y2="638"/><line class="cls-11" x1="1397.69" y1="803.17" x2="1397.69" y2="615.32"/><line class="cls-11" x1="1415.5" y1="799.36" x2="1415.5" y2="638"/><path class="cls-11" d="M1269,522.41h29.15a0,0,0,0,1,0,0V736.5a13.67,13.67,0,0,1-13.67,13.67h-1.81A13.67,13.67,0,0,1,1269,736.5V522.41A0,0,0,0,1,1269,522.41Z"/><path class="cls-11" d="M1242.46,536.38h23.44a2.85,2.85,0,0,1,2.85,2.85V689.32a14.57,14.57,0,0,1-14.57,14.57h0a14.57,14.57,0,0,1-14.57-14.57V539.23a2.85,2.85,0,0,1,2.85-2.85Z"/><path class="cls-11" d="M1184.58,556.18H1208a2.85,2.85,0,0,1,2.85,2.85V709.11a14.57,14.57,0,0,1-14.57,14.57h0a14.57,14.57,0,0,1-14.57-14.57V559A2.85,2.85,0,0,1,1184.58,556.18Z"/><path class="cls-11" d="M1211,522.41h29.15a0,0,0,0,1,0,0v90.24a14.57,14.57,0,0,1-14.57,14.57h0A14.57,14.57,0,0,1,1211,612.64V522.41A0,0,0,0,1,1211,522.41Z"/><path class="cls-11" d="M1298.18,548.62h29.15a0,0,0,0,1,0,0v90.24a14.57,14.57,0,0,1-14.57,14.57h0a14.57,14.57,0,0,1-14.57-14.57V548.62A0,0,0,0,1,1298.18,548.62Z"/><path class="cls-11" d="M1150.51,522.41h29.15a0,0,0,0,1,0,0v90.24a14.57,14.57,0,0,1-14.57,14.57h0a14.57,14.57,0,0,1-14.57-14.57V522.41A0,0,0,0,1,1150.51,522.41Z"/><rect class="cls-11" x="1120.58" y="485.17" width="29.15" height="104.81" rx="14.57" ry="14.57"/><path class="cls-11" d="M1641.78,516.89a54.58,54.58,0,0,0-54.58-54.58"/><line class="cls-11" x1="1589.31" y1="462.31" x2="1509.81" y2="462.31"/><line class="cls-11" x1="1641.78" y1="516.89" x2="1641.78" y2="582.65"/><circle class="cls-11" cx="1660.3" cy="460.66" r="11.2"/><circle class="cls-11" cx="1687.48" cy="510.55" r="11.2"/><circle class="cls-11" cx="1698.69" cy="582.65" r="11.2"/><circle class="cls-11" cx="1641.78" cy="627.22" r="10.38"/><line class="cls-11" x1="1217.1" y1="952.41" x2="1209.4" y2="960.12"/><line class="cls-11" x1="1233.79" y1="952.41" x2="1241.49" y2="960.12"/><path class="cls-11" d="M1808.2,1049.19a23,23,0,1,0,0-46"/><path class="cls-11" d="M1785.19,874a23,23,0,0,0-23-23"/><path class="cls-11" d="M1785.19,980.18a23,23,0,0,0,23,23"/><line class="cls-11" x1="1785.19" y1="980.18" x2="1785.19" y2="874.04"/><path class="cls-11" d="M1762.19,815.73a17.65,17.65,0,1,0,0,35.3"/><path class="cls-11" d="M1762.19,815.73a17.65,17.65,0,0,0,17.65-17.65V709.23a32,32,0,0,0-32-32H1658"/><polygon class="cls-11" points="1722.7 834.51 1710.95 854.88 1734.45 854.88 1722.7 834.51"/><path class="cls-11" d="M972.83,574.81c-57,0-77.12,28.89-77.12,62H1050C1050,603.7,1031.91,574.81,972.83,574.81Z"/><path class="cls-11" d="M888.79,651.06c13.69,0,13.69,14.94,27.38,14.94s13.69-14.94,27.38-14.94S957.24,666,970.93,666s13.69-14.94,27.38-14.94S1012,666,1025.7,666s13.69-14.94,27.39-14.94"/><rect class="cls-11" x="882.56" y="703.02" width="176.75" height="22.17" rx="7.47" ry="7.47"/><path class="cls-11" d="M895.71,740H1050a0,0,0,0,1,0,0v17a7.47,7.47,0,0,1-7.47,7.47H903.18a7.47,7.47,0,0,1-7.47-7.47V740A0,0,0,0,1,895.71,740Z"/><line class="cls-11" x1="886.35" y1="684.47" x2="1059.31" y2="684.47"/><line class="cls-11" x1="970.64" y1="611.72" x2="975.03" y2="611.72"/><line class="cls-11" x1="1014.33" y1="611.72" x2="1009.94" y2="611.72"/><line class="cls-11" x1="989.28" y1="596.01" x2="993.66" y2="596.01"/><line class="cls-11" x1="931.34" y1="611.72" x2="935.72" y2="611.72"/><line class="cls-11" x1="956.39" y1="596.01" x2="952" y2="596.01"/><path class="cls-11" d="M497.4,915.4c-73.52,0-99.49,37.26-99.49,80h199C596.89,952.67,573.61,915.4,497.4,915.4Z"/><path class="cls-11" d="M389,1013.76c17.66,0,17.66,19.27,35.32,19.27s17.66-19.27,35.32-19.27S477.29,1033,494.95,1033s17.66-19.27,35.32-19.27S547.94,1033,565.6,1033s17.66-19.27,35.33-19.27"/><rect class="cls-11" x="380.95" y="1080.79" width="228.01" height="28.6" rx="9.63" ry="9.63"/><path class="cls-11" d="M397.91,1128.46h199a0,0,0,0,1,0,0v21.87a9.63,9.63,0,0,1-9.63,9.63H407.54a9.63,9.63,0,0,1-9.63-9.63v-21.87A0,0,0,0,1,397.91,1128.46Z"/><line class="cls-11" x1="385.84" y1="1056.86" x2="608.96" y2="1056.86"/><line class="cls-11" x1="494.57" y1="963.01" x2="500.23" y2="963.01"/><line class="cls-11" x1="550.92" y1="963.01" x2="545.27" y2="963.01"/><line class="cls-11" x1="518.61" y1="942.75" x2="524.27" y2="942.75"/><line class="cls-11" x1="443.87" y1="963.01" x2="449.53" y2="963.01"/><line class="cls-11" x1="476.19" y1="942.75" x2="470.53" y2="942.75"/><path class="cls-11" d="M1156.89,1053.68c-75.25,0-101.82,38.14-101.82,81.86h203.64C1258.71,1091.82,1234.89,1053.68,1156.89,1053.68Z"/><path class="cls-11" d="M1045.93,1154.34c18.08,0,18.08,19.72,36.15,19.72s18.08-19.72,36.15-19.72,18.08,19.72,36.15,19.72,18.08-19.72,36.15-19.72,18.08,19.72,36.16,19.72,18.08-19.72,36.16-19.72"/><line class="cls-11" x1="1042.71" y1="1198.46" x2="1271.07" y2="1198.46"/><path class="cls-11" d="M1975.56,930.47c-75.25,0-101.82,38.14-101.82,81.86h203.64C2077.39,968.61,2053.56,930.47,1975.56,930.47Z"/><path class="cls-11" d="M1864.6,1106.25c18.08,0,18.08,19.72,36.15,19.72s18.08-19.72,36.15-19.72S1955,1126,1973.06,1126s18.08-19.72,36.15-19.72,18.08,19.72,36.16,19.72,18.08-19.72,36.16-19.72"/><rect class="cls-11" x="1856.38" y="1174.86" width="233.36" height="29.27" rx="9.86" ry="9.86"/><rect class="cls-11" x="1856.38" y="1037.16" width="233.36" height="29.27" rx="9.86" ry="9.86"/><path class="cls-11" d="M1873.74,1223.64h203.64a0,0,0,0,1,0,0V1246a9.86,9.86,0,0,1-9.86,9.86H1883.6a9.86,9.86,0,0,1-9.86-9.86v-22.38A0,0,0,0,1,1873.74,1223.64Z"/><line class="cls-11" x1="1861.38" y1="1150.36" x2="2089.74" y2="1150.36"/><line class="cls-11" x1="1861.38" y1="1085.73" x2="2089.74" y2="1085.73"/><path class="cls-11" d="M579.3,560C538,560,523.46,581,523.46,604.94H635.14C635.14,581,622.07,560,579.3,560Z"/><path class="cls-11" d="M518.44,625.25c9.91,0,9.91,10.81,19.83,10.81s9.91-10.81,19.83-10.81,9.91,10.81,19.83,10.81,9.91-10.81,19.83-10.81,9.91,10.81,19.83,10.81,9.91-10.81,19.83-10.81"/><path class="cls-11" d="M637.41,684.72c-9.91,0-9.91-10.81-19.83-10.81s-9.91,10.81-19.83,10.81-9.91-10.81-19.83-10.81S568,684.72,558.1,684.72s-9.91-10.81-19.83-10.81-9.91,10.81-19.83,10.81"/><path class="cls-11" d="M637.41,817.65c-9.91,0-9.91-10.81-19.83-10.81s-9.91,10.81-19.83,10.81-9.91-10.81-19.83-10.81S568,817.65,558.1,817.65s-9.91-10.81-19.83-10.81-9.91,10.81-19.83,10.81"/><rect class="cls-11" x="513.94" y="723.43" width="127.97" height="16.05" rx="5.41" ry="5.41"/><rect class="cls-11" x="513.94" y="755.06" width="127.97" height="16.05" rx="5.41" ry="5.41"/><path class="cls-11" d="M523.46,834H635.14a0,0,0,0,1,0,0v12.27a5.41,5.41,0,0,1-5.41,5.41H528.87a5.41,5.41,0,0,1-5.41-5.41V834A0,0,0,0,1,523.46,834Z"/><line class="cls-11" x1="516.68" y1="653.52" x2="641.91" y2="653.52"/><line class="cls-11" x1="454.05" y1="701.49" x2="641.91" y2="701.49"/><line class="cls-11" x1="516.68" y1="792.02" x2="641.91" y2="792.02"/><polygon class="cls-11" points="579.3 414.21 588.86 443.65 619.82 443.65 594.78 461.85 604.34 491.29 579.3 473.1 554.25 491.29 563.82 461.85 538.77 443.65 569.73 443.65 579.3 414.21"/><line class="cls-11" x1="579.3" y1="560.04" x2="579.3" y2="473.1"/><path class="cls-11" d="M831.55,314.24c0,57,28.89,77.12,62,77.12V237.12C860.44,237.12,831.55,255.16,831.55,314.24Z"/><path class="cls-11" d="M907.8,398.29c0-13.69,14.94-13.69,14.94-27.38s-14.94-13.69-14.94-27.38,14.94-13.69,14.94-27.38-14.94-13.69-14.94-27.38,14.94-13.69,14.94-27.39S907.8,247.68,907.8,234"/><rect class="cls-11" x="882.47" y="305.05" width="176.75" height="22.17" rx="7.47" ry="7.47" transform="translate(654.71 1286.98) rotate(-90)"/><path class="cls-11" d="M931.8,302H1086a0,0,0,0,1,0,0v17a7.47,7.47,0,0,1-7.47,7.47H939.26A7.47,7.47,0,0,1,931.8,319V302A0,0,0,0,1,931.8,302Z" transform="translate(694.68 1323.16) rotate(-90)"/><line class="cls-11" x1="941.21" y1="539.83" x2="941.21" y2="227.76"/><line class="cls-11" x1="1588.61" y1="677.23" x2="1624.89" y2="677.23"/><rect class="cls-11" x="1058.73" y="233.78" width="151.86" height="151.86"/><rect class="cls-11" x="1108.63" y="283.67" width="101.97" height="101.97"/><line class="cls-11" x1="1108.63" y1="283.67" x2="1058.73" y2="233.78"/><polygon class="cls-11" points="1159.61 283.42 1171.64 320.46 1210.59 320.46 1179.08 343.35 1191.12 380.39 1159.61 357.5 1128.1 380.39 1140.13 343.35 1108.63 320.46 1147.57 320.46 1159.61 283.42"/><rect class="cls-11" x="1058.73" y="197.18" width="35.99" height="35.99"/><rect class="cls-11" x="1094.72" y="197.18" width="35.99" height="35.99"/><rect class="cls-11" x="1094.72" y="160.58" width="35.99" height="35.99"/><rect class="cls-11" x="1130.7" y="160.58" width="35.99" height="35.99"/><rect class="cls-11" x="1166.69" y="124.59" width="35.99" height="35.99"/><rect class="cls-11" x="1132.52" y="91.45" width="35.99" height="35.99"/><rect class="cls-11" x="645.08" y="302.81" width="93" height="36.56" transform="translate(429.6 -394.98) rotate(45)"/><rect class="cls-11" x="678.79" y="287.86" width="135.29" height="36.56" transform="translate(1490.72 -5.2) rotate(135)"/><polyline class="cls-11" points="1840.85 191.08 1732.26 191.08 1732.26 299.67 1840.85 299.67 1840.85 231.65"/><rect class="cls-11" x="1733.93" y="236.15" width="72.97" height="28.69" transform="translate(695.67 -1178.5) rotate(45)"/><rect class="cls-11" x="1760.38" y="224.41" width="106.16" height="28.69" transform="translate(3264.59 -874.72) rotate(135)"/><polyline class="cls-11" points="1911.24 792.55 1911.24 782.55 1807.32 782.55 1807.32 886.47 1911.24 886.47 1911.24 842.62"/><rect class="cls-11" x="713.23" y="746.65" width="70.27" height="70.27"/><rect class="cls-11" x="783.5" y="746.65" width="70.27" height="70.27"/><rect class="cls-11" x="665.89" y="699.32" width="45.06" height="45.06"/><rect class="cls-11" x="713.23" y="816.93" width="70.27" height="70.27"/><line class="cls-11" x1="713.23" y1="746.65" x2="783.5" y2="816.93"/><line class="cls-11" x1="783.5" y1="746.65" x2="713.23" y2="816.93"/><rect class="cls-11" x="713.23" y="650.64" width="50.49" height="50.49"/><line class="cls-11" x1="713.23" y1="650.64" x2="763.72" y2="701.13"/><rect class="cls-11" x="783.5" y="816.93" width="70.27" height="70.27"/><line class="cls-11" x1="783.5" y1="816.93" x2="853.78" y2="887.2"/><line class="cls-11" x1="853.78" y1="816.93" x2="783.5" y2="887.2"/><path class="cls-11" d="M626,887.2H833.5a0,0,0,0,1,0,0v162a0,0,0,0,1,0,0H787.94a162,162,0,0,1-162-162v0A0,0,0,0,1,626,887.2Z"/><path class="cls-11" d="M626,923.75h0a162,162,0,0,0,162,162H833.5v-36.55"/><path class="cls-11" d="M1797.39,467.1a19.54,19.54,0,0,0,0,39.08h76.1a19.54,19.54,0,1,0,0-39.08c-.51,0-1,0-1.52.05a24.1,24.1,0,0,0-44.08-16.23,19.54,19.54,0,0,0-30.5,16.18Z"/><path class="cls-11" d="M1357.12,190.51a22.78,22.78,0,1,1,0,45.57h-88.74a22.78,22.78,0,1,1,0-45.57c.6,0,1.19,0,1.77.06a28.1,28.1,0,0,1,51.4-18.93,22.79,22.79,0,0,1,35.57,18.86Z"/><path class="cls-11" d="M1058.73,385.64h0a62.81,62.81,0,0,0,62.81,62.81h63.14"/><path class="cls-11" d="M1786.55,299.67v30.84a64,64,0,0,1-64,64h-3.83"/><path class="cls-11" d="M645.77,301.14H609.93a32,32,0,0,1-32-32v-40a32,32,0,0,1,32-32h79.9A21.13,21.13,0,0,0,711,176.05h0a21.13,21.13,0,0,1,21.13-21.13h37.29"/><circle class="cls-11" cx="789.4" cy="154.92" r="20.02"/><circle class="cls-11" cx="877.55" cy="154.92" r="20.02"/><circle class="cls-11" cx="990.92" cy="154.92" r="20.02"/><circle class="cls-11" cx="877.55" cy="154.92" r="36.59"/><circle class="cls-11" cx="990.92" cy="154.92" r="48.65"/><path class="cls-11" d="M1422.39,197.18h128.34a0,0,0,0,1,0,0v73a0,0,0,0,1,0,0H1495.4a73,73,0,0,1-73-73v0A0,0,0,0,1,1422.39,197.18Z"/><circle class="cls-11" cx="1838.94" cy="613.68" r="78.53"/><line class="cls-11" x1="1838.94" y1="692.21" x2="1838.94" y2="535.16"/><line class="cls-11" x1="1838.94" y1="585.2" x2="1895.44" y2="559.15"/><line class="cls-11" x1="1838.94" y1="629.96" x2="1913.19" y2="595.72"/><line class="cls-11" x1="1838.94" y1="666.57" x2="1913.26" y2="632.3"/><line class="cls-11" x1="1838.94" y1="585.2" x2="1782.44" y2="559.15"/><line class="cls-11" x1="1838.94" y1="629.96" x2="1764.69" y2="595.72"/><line class="cls-11" x1="1838.94" y1="666.57" x2="1764.61" y2="632.3"/><rect class="cls-11" x="1828.13" y="691.47" width="21.62" height="90.43"/><path class="cls-11" d="M454,701.58a20.36,20.36,0,0,0-20.36,20.36"/><path class="cls-11" d="M433.68,721.94v28.66A41.39,41.39,0,0,1,392.29,792h0a41.39,41.39,0,0,0-41.39,41.39v196.18A41.39,41.39,0,0,1,309.51,1071H4"/><rect class="cls-11" x="210.98" y="886.05" width="139.92" height="41.74"/><polyline class="cls-11" points="210.98 906.92 129.63 906.92 159.28 927.78 129.63 948.65 269.55 948.65 269.55 930.49"/><path class="cls-11" d="M703.88,458.63a35.75,35.75,0,0,0,0,71.5H843.12a35.75,35.75,0,0,0,0-71.5c-.94,0-1.86,0-2.78.1A44.1,44.1,0,0,0,759.69,429a35.76,35.76,0,0,0-55.81,29.6Z"/><path class="cls-11" d="M879.61,490.87h0a29.87,29.87,0,0,1,29.87,29.87h0"/><line class="cls-11" x1="895.32" y1="1121.71" x2="895.32" y2="1239.7"/><rect class="cls-11" x="1349.76" y="1131.95" width="29.17" height="107.75"/><rect class="cls-11" x="1673.73" y="1131.95" width="29.17" height="107.75" transform="translate(3376.63 2371.65) rotate(-180)"/><line class="cls-11" x1="1516.87" y1="988.28" x2="1557.6" y2="988.28"/><path class="cls-11" d="M1700.7,4V24.49a29.58,29.58,0,0,1-29.58,29.58h0a29.58,29.58,0,0,0-29.58,29.58V162"/></g></g></svg>