<svg xmlns="http://www.w3.org/2000/svg" xmlns:xlink="http://www.w3.org/1999/xlink" viewBox="0 0 1857.84 1245.04"><defs><style>.cls-1,.cls-13,.cls-14,.cls-17,.cls-18,.cls-19,.cls-2,.cls-3,.cls-4,.cls-5,.cls-7{fill:none}.cls-2{stroke:#faa21e}.cls-13,.cls-14,.cls-17,.cls-18,.cls-19,.cls-2,.cls-3,.cls-4,.cls-5,.cls-7{stroke-linecap:round;stroke-linejoin:round}.cls-17,.cls-19,.cls-2,.cls-3,.cls-4,.cls-5{stroke-width:5.91px}.cls-3,.cls-7{stroke:#f4752a}.cls-4{stroke:#f0492a}.cls-5{stroke:#f8f8f8}.cls-6{clip-path:url(#clip-path)}.cls-13,.cls-14,.cls-7{stroke-width:2.96px}.cls-8{clip-path:url(#clip-path-2)}.cls-9{clip-path:url(#clip-path-3)}.cls-10{clip-path:url(#clip-path-4)}.cls-11{clip-path:url(#clip-path-5)}.cls-12{clip-path:url(#clip-path-6)}.cls-13,.cls-17{stroke:#a9ae38}.cls-14,.cls-18,.cls-19{stroke:#7f5050}.cls-15{clip-path:url(#clip-path-7)}.cls-16{clip-path:url(#clip-path-8)}.cls-18{stroke-width:6.33px}</style><clipPath id="clip-path"><path d="M830.55,465.73a26.42,26.42,0,0,0,0,52.84h102.9a26.42,26.42,0,0,0,0-52.84c-.69,0-1.37,0-2.05.07a32.59,32.59,0,0,0-59.6-21.95,26.43,26.43,0,0,0-41.24,21.87Z" class="cls-1"/></clipPath><clipPath id="clip-path-2"><path d="M773,782.43H926.34a0,0,0,0,1,0,0v119.7a0,0,0,0,1,0,0H892.67A119.7,119.7,0,0,1,773,782.43v0A0,0,0,0,1,773,782.43Z" class="cls-1"/></clipPath><clipPath id="clip-path-3"><rect width="294.11" height="29.2" x="1291.27" y="934.1" class="cls-1"/></clipPath><clipPath id="clip-path-4"><path d="M1361.51,272.52h94.84a0,0,0,0,1,0,0v54a0,0,0,0,1,0,0h-40.89a54,54,0,0,1-54-54v0a0,0,0,0,1,0,0Z" class="cls-1"/></clipPath><clipPath id="clip-path-5"><path d="M924.9,359c0,42.12,21.35,57,45.82,57V302C946.25,302,924.9,315.37,924.9,359Z" class="cls-1"/></clipPath><clipPath id="clip-path-6"><rect width="40.8" height="66.28" x="1344.23" y="426.81" class="cls-1" transform="translate(904.67 1824.57) rotate(-90)"/></clipPath><clipPath id="clip-path-7"><path d="M738.49,540.67c-30.49,0-41.26,15.46-41.26,33.18h82.53C779.75,556.12,770.1,540.67,738.49,540.67Z" class="cls-1"/></clipPath><clipPath id="clip-path-8"><path d="M697.23,743.1h82.53a0,0,0,0,1,0,0v9.07a4,4,0,0,1-4,4H701.22a4,4,0,0,1-4-4V743.1A0,0,0,0,1,697.23,743.1Z" class="cls-1"/></clipPath></defs><title>illo-colors</title><g id="Layer_2" data-name="Layer 2"><g id="illo_colors" data-name="illo colors"><line x1="1369.59" x2="1369.59" y1="717.51" y2="604.34" class="cls-2"/><line x1="1395.92" x2="1395.92" y1="720.33" y2="581.51" class="cls-2"/><line x1="1382.76" x2="1382.76" y1="717.51" y2="598.28" class="cls-2"/><line x1="1343.26" x2="1343.26" y1="720.33" y2="581.51" class="cls-2"/><line x1="1356.43" x2="1356.43" y1="717.51" y2="598.28" class="cls-2"/><line x1="837.46" x2="889.39" y1="678.57" y2="730.5" class="cls-3"/><line x1="889.39" x2="837.46" y1="678.57" y2="730.5" class="cls-3"/><line x1="889.39" x2="941.32" y1="730.5" y2="782.43" class="cls-3"/><line x1="941.32" x2="889.39" y1="730.5" y2="782.43" class="cls-3"/><rect width="103.4" height="30.84" x="466.31" y="781.58" class="cls-4"/><polyline points="466.31 797 406.19 797 428.11 812.42 406.19 827.84 509.59 827.84 509.59 814.42" class="cls-4"/><line x1="972.02" x2="972.02" y1="955.72" y2="1242.08" class="cls-5"/><g class="cls-6"><line x1="812.77" x2="757.65" y1="524.82" y2="422.85" class="cls-7"/><line x1="867.9" x2="812.77" y1="524.82" y2="422.85" class="cls-7"/><line x1="840.34" x2="785.21" y1="524.82" y2="422.85" class="cls-7"/><line x1="923.02" x2="867.9" y1="524.82" y2="422.85" class="cls-7"/><line x1="895.46" x2="840.34" y1="524.82" y2="422.85" class="cls-7"/><line x1="978.15" x2="923.02" y1="524.82" y2="422.85" class="cls-7"/><line x1="1005.71" x2="950.59" y1="524.82" y2="422.85" class="cls-7"/><line x1="950.59" x2="895.46" y1="524.82" y2="422.85" class="cls-7"/></g><g class="cls-8"><circle cx="775.09" cy="788.3" r="3.69" class="cls-7"/><circle cx="815.14" cy="788.3" r="3.69" class="cls-7"/><circle cx="785.1" cy="808.33" r="3.69" class="cls-7"/><circle cx="825.15" cy="808.33" r="3.69" class="cls-7"/><circle cx="805.13" cy="808.33" r="3.69" class="cls-7"/><circle cx="795.11" cy="788.3" r="3.69" class="cls-7"/><circle cx="775.09" cy="868.41" r="3.69" class="cls-7"/><circle cx="815.14" cy="868.41" r="3.69" class="cls-7"/><circle cx="785.1" cy="848.38" r="3.69" class="cls-7"/><circle cx="825.15" cy="848.38" r="3.69" class="cls-7"/><circle cx="805.13" cy="848.38" r="3.69" class="cls-7"/><circle cx="795.11" cy="868.41" r="3.69" class="cls-7"/><circle cx="775.09" cy="828.36" r="3.69" class="cls-7"/><circle cx="815.14" cy="828.36" r="3.69" class="cls-7"/><circle cx="795.11" cy="828.36" r="3.69" class="cls-7"/><circle cx="875.22" cy="788.3" r="3.69" class="cls-7"/><circle cx="835.17" cy="788.3" r="3.69" class="cls-7"/><circle cx="865.2" cy="808.33" r="3.69" class="cls-7"/><circle cx="845.18" cy="808.33" r="3.69" class="cls-7"/><circle cx="855.19" cy="788.3" r="3.69" class="cls-7"/><circle cx="875.22" cy="868.41" r="3.69" class="cls-7"/><circle cx="835.17" cy="868.41" r="3.69" class="cls-7"/><circle cx="865.2" cy="848.38" r="3.69" class="cls-7"/><circle cx="845.18" cy="848.38" r="3.69" class="cls-7"/><circle cx="855.19" cy="868.41" r="3.69" class="cls-7"/><circle cx="875.22" cy="828.36" r="3.69" class="cls-7"/><circle cx="835.17" cy="828.36" r="3.69" class="cls-7"/><circle cx="855.19" cy="828.36" r="3.69" class="cls-7"/><circle cx="885.23" cy="808.33" r="3.69" class="cls-7"/><circle cx="885.23" cy="848.38" r="3.69" class="cls-7"/><circle cx="785.1" cy="888.43" r="3.69" class="cls-7"/><circle cx="825.15" cy="888.43" r="3.69" class="cls-7"/><circle cx="805.13" cy="888.43" r="3.69" class="cls-7"/><circle cx="775.09" cy="908.46" r="3.69" class="cls-7"/><circle cx="815.14" cy="908.46" r="3.69" class="cls-7"/><circle cx="795.11" cy="908.46" r="3.69" class="cls-7"/><circle cx="865.2" cy="888.43" r="3.69" class="cls-7"/><circle cx="845.18" cy="888.43" r="3.69" class="cls-7"/><circle cx="875.22" cy="908.46" r="3.69" class="cls-7"/><circle cx="835.17" cy="908.46" r="3.69" class="cls-7"/><circle cx="855.19" cy="908.46" r="3.69" class="cls-7"/><circle cx="945.31" cy="808.33" r="3.69" class="cls-7"/><circle cx="945.31" cy="848.38" r="3.69" class="cls-7"/><circle cx="895.24" cy="788.3" r="3.69" class="cls-7"/><circle cx="935.3" cy="788.3" r="3.69" class="cls-7"/><circle cx="905.26" cy="808.33" r="3.69" class="cls-7"/><circle cx="925.28" cy="808.33" r="3.69" class="cls-7"/><circle cx="915.27" cy="788.3" r="3.69" class="cls-7"/><circle cx="895.24" cy="868.41" r="3.69" class="cls-7"/><circle cx="935.3" cy="868.41" r="3.69" class="cls-7"/><circle cx="905.26" cy="848.38" r="3.69" class="cls-7"/><circle cx="925.28" cy="848.38" r="3.69" class="cls-7"/><circle cx="915.27" cy="868.41" r="3.69" class="cls-7"/><circle cx="895.24" cy="828.36" r="3.69" class="cls-7"/><circle cx="935.3" cy="828.36" r="3.69" class="cls-7"/><circle cx="915.27" cy="828.36" r="3.69" class="cls-7"/><circle cx="945.31" cy="888.43" r="3.69" class="cls-7"/><circle cx="905.26" cy="888.43" r="3.69" class="cls-7"/><circle cx="925.28" cy="888.43" r="3.69" class="cls-7"/><circle cx="895.24" cy="908.46" r="3.69" class="cls-7"/><circle cx="935.3" cy="908.46" r="3.69" class="cls-7"/><circle cx="915.27" cy="908.46" r="3.69" class="cls-7"/><circle cx="885.23" cy="888.43" r="3.69" class="cls-7"/></g><g class="cls-9"><line x1="1185.78" x2="1240.91" y1="911.71" y2="1013.68" class="cls-7"/><line x1="1240.91" x2="1296.03" y1="911.71" y2="1013.68" class="cls-7"/><line x1="1213.35" x2="1268.47" y1="911.71" y2="1013.68" class="cls-7"/><line x1="1296.03" x2="1351.16" y1="911.71" y2="1013.68" class="cls-7"/><line x1="1268.47" x2="1323.6" y1="911.71" y2="1013.68" class="cls-7"/><line x1="1406.28" x2="1461.41" y1="911.71" y2="1013.68" class="cls-7"/><line x1="1351.16" x2="1406.28" y1="911.71" y2="1013.68" class="cls-7"/><line x1="1378.72" x2="1433.84" y1="911.71" y2="1013.68" class="cls-7"/><line x1="1323.6" x2="1378.72" y1="911.71" y2="1013.68" class="cls-7"/><line x1="1626.78" x2="1681.91" y1="911.71" y2="1013.68" class="cls-7"/><line x1="1571.66" x2="1626.78" y1="911.71" y2="1013.68" class="cls-7"/><line x1="1599.22" x2="1654.34" y1="911.71" y2="1013.68" class="cls-7"/><line x1="1516.53" x2="1571.66" y1="911.71" y2="1013.68" class="cls-7"/><line x1="1544.09" x2="1599.22" y1="911.71" y2="1013.68" class="cls-7"/><line x1="1461.41" x2="1516.53" y1="911.71" y2="1013.68" class="cls-7"/><line x1="1433.84" x2="1488.97" y1="911.71" y2="1013.68" class="cls-7"/><line x1="1488.97" x2="1544.09" y1="911.71" y2="1013.68" class="cls-7"/></g><g class="cls-10"><line x1="1594.18" x2="1553.01" y1="263.96" y2="340.11" class="cls-7"/><line x1="1553.01" x2="1511.85" y1="263.96" y2="340.11" class="cls-7"/><line x1="1573.59" x2="1532.43" y1="263.96" y2="340.11" class="cls-7"/><line x1="1511.85" x2="1470.68" y1="263.96" y2="340.11" class="cls-7"/><line x1="1532.43" x2="1491.26" y1="263.96" y2="340.11" class="cls-7"/><line x1="1429.52" x2="1388.35" y1="263.96" y2="340.11" class="cls-7"/><line x1="1470.68" x2="1429.52" y1="263.96" y2="340.11" class="cls-7"/><line x1="1450.1" x2="1408.93" y1="263.96" y2="340.11" class="cls-7"/><line x1="1491.26" x2="1450.1" y1="263.96" y2="340.11" class="cls-7"/><line x1="1264.86" x2="1223.69" y1="263.96" y2="340.11" class="cls-7"/><line x1="1306.02" x2="1264.86" y1="263.96" y2="340.11" class="cls-7"/><line x1="1285.44" x2="1244.27" y1="263.96" y2="340.11" class="cls-7"/><line x1="1347.19" x2="1306.02" y1="263.96" y2="340.11" class="cls-7"/><line x1="1326.6" x2="1285.44" y1="263.96" y2="340.11" class="cls-7"/><line x1="1388.35" x2="1347.19" y1="263.96" y2="340.11" class="cls-7"/><line x1="1408.93" x2="1367.77" y1="263.96" y2="340.11" class="cls-7"/><line x1="1367.77" x2="1326.6" y1="263.96" y2="340.11" class="cls-7"/></g><g class="cls-11"><circle cx="885.72" cy="320.15" r="3.65" class="cls-7"/><circle cx="925.28" cy="320.15" r="3.65" class="cls-7"/><circle cx="895.61" cy="339.93" r="3.65" class="cls-7"/><circle cx="935.17" cy="339.93" r="3.65" class="cls-7"/><circle cx="915.39" cy="339.93" r="3.65" class="cls-7"/><circle cx="905.5" cy="320.15" r="3.65" class="cls-7"/><circle cx="885.72" cy="399.27" r="3.65" class="cls-7"/><circle cx="925.28" cy="399.27" r="3.65" class="cls-7"/><circle cx="895.61" cy="379.49" r="3.65" class="cls-7"/><circle cx="935.17" cy="379.49" r="3.65" class="cls-7"/><circle cx="915.39" cy="379.49" r="3.65" class="cls-7"/><circle cx="905.5" cy="399.27" r="3.65" class="cls-7"/><circle cx="885.72" cy="359.71" r="3.65" class="cls-7"/><circle cx="925.28" cy="359.71" r="3.65" class="cls-7"/><circle cx="905.5" cy="359.71" r="3.65" class="cls-7"/><circle cx="984.62" cy="320.15" r="3.65" class="cls-7"/><circle cx="945.06" cy="320.15" r="3.65" class="cls-7"/><circle cx="974.73" cy="339.93" r="3.65" class="cls-7"/><circle cx="954.95" cy="339.93" r="3.65" class="cls-7"/><circle cx="964.84" cy="320.15" r="3.65" class="cls-7"/><circle cx="984.62" cy="399.27" r="3.65" class="cls-7"/><circle cx="945.06" cy="399.27" r="3.65" class="cls-7"/><circle cx="974.73" cy="379.49" r="3.65" class="cls-7"/><circle cx="954.95" cy="379.49" r="3.65" class="cls-7"/><circle cx="964.84" cy="399.27" r="3.65" class="cls-7"/><circle cx="984.62" cy="359.71" r="3.65" class="cls-7"/><circle cx="945.06" cy="359.71" r="3.65" class="cls-7"/><circle cx="964.84" cy="359.71" r="3.65" class="cls-7"/><circle cx="994.5" cy="339.93" r="3.65" class="cls-7"/><circle cx="994.5" cy="379.49" r="3.65" class="cls-7"/></g><g class="cls-12"><circle cx="1341.98" cy="503.64" r="2.68" class="cls-13"/><circle cx="1341.98" cy="474.55" r="2.68" class="cls-13"/><circle cx="1356.53" cy="496.37" r="2.68" class="cls-13"/><circle cx="1356.53" cy="467.28" r="2.68" class="cls-13"/><circle cx="1356.53" cy="481.82" r="2.68" class="cls-13"/><circle cx="1341.98" cy="489.09" r="2.68" class="cls-13"/><circle cx="1400.16" cy="503.64" r="2.68" class="cls-13"/><circle cx="1400.16" cy="474.55" r="2.68" class="cls-13"/><circle cx="1385.61" cy="496.37" r="2.68" class="cls-13"/><circle cx="1385.61" cy="467.28" r="2.68" class="cls-13"/><circle cx="1385.61" cy="481.82" r="2.68" class="cls-13"/><circle cx="1400.16" cy="489.09" r="2.68" class="cls-13"/><circle cx="1371.07" cy="503.64" r="2.68" class="cls-13"/><circle cx="1371.07" cy="474.55" r="2.68" class="cls-13"/><circle cx="1371.07" cy="489.09" r="2.68" class="cls-13"/><circle cx="1341.98" cy="430.92" r="2.68" class="cls-13"/><circle cx="1341.98" cy="460.01" r="2.68" class="cls-13"/><circle cx="1356.53" cy="438.19" r="2.68" class="cls-13"/><circle cx="1356.53" cy="452.74" r="2.68" class="cls-13"/><circle cx="1341.98" cy="445.46" r="2.68" class="cls-13"/><circle cx="1400.16" cy="430.92" r="2.68" class="cls-13"/><circle cx="1400.16" cy="460.01" r="2.68" class="cls-13"/><circle cx="1385.61" cy="438.19" r="2.68" class="cls-13"/><circle cx="1385.61" cy="452.74" r="2.68" class="cls-13"/><circle cx="1400.16" cy="445.46" r="2.68" class="cls-13"/><circle cx="1371.07" cy="430.92" r="2.68" class="cls-13"/><circle cx="1371.07" cy="460.01" r="2.68" class="cls-13"/><circle cx="1371.07" cy="445.46" r="2.68" class="cls-13"/><circle cx="1356.53" cy="423.65" r="2.68" class="cls-13"/><circle cx="1385.61" cy="423.65" r="2.68" class="cls-13"/></g><circle cx="925.89" cy="550.44" r="5.01" class="cls-14"/><circle cx="925.89" cy="604.71" r="5.01" class="cls-14"/><circle cx="925.89" cy="577.57" r="5.01" class="cls-14"/><circle cx="844.48" cy="536.87" r="5.01" class="cls-14"/><circle cx="871.62" cy="550.44" r="5.01" class="cls-14"/><circle cx="871.62" cy="577.57" r="5.01" class="cls-14"/><circle cx="844.48" cy="564.01" r="5.01" class="cls-14"/><circle cx="898.75" cy="536.87" r="5.01" class="cls-14"/><circle cx="898.75" cy="591.14" r="5.01" class="cls-14"/><circle cx="898.75" cy="564.01" r="5.01" class="cls-14"/><g class="cls-15"><line x1="632" x2="632" y1="525.73" y2="586.14" class="cls-7"/><line x1="658.56" x2="658.56" y1="525.73" y2="586.14" class="cls-7"/><line x1="645.28" x2="645.28" y1="525.73" y2="586.14" class="cls-7"/><line x1="685.12" x2="685.12" y1="525.73" y2="586.14" class="cls-7"/><line x1="671.84" x2="671.84" y1="525.73" y2="586.14" class="cls-7"/><line x1="738.24" x2="738.24" y1="525.73" y2="586.14" class="cls-7"/><line x1="711.68" x2="711.68" y1="525.73" y2="586.14" class="cls-7"/><line x1="724.96" x2="724.96" y1="525.73" y2="586.14" class="cls-7"/><line x1="698.4" x2="698.4" y1="525.73" y2="586.14" class="cls-7"/><line x1="844.48" x2="844.48" y1="525.73" y2="586.14" class="cls-7"/><line x1="817.92" x2="817.92" y1="525.73" y2="586.14" class="cls-7"/><line x1="831.2" x2="831.2" y1="525.73" y2="586.14" class="cls-7"/><line x1="791.36" x2="791.36" y1="525.73" y2="586.14" class="cls-7"/><line x1="804.64" x2="804.64" y1="525.73" y2="586.14" class="cls-7"/><line x1="764.8" x2="764.8" y1="525.73" y2="586.14" class="cls-7"/><line x1="751.52" x2="751.52" y1="525.73" y2="586.14" class="cls-7"/><line x1="778.08" x2="778.08" y1="525.73" y2="586.14" class="cls-7"/></g><g class="cls-16"><line x1="632" x2="632" y1="719.43" y2="779.84" class="cls-7"/><line x1="658.56" x2="658.56" y1="719.43" y2="779.84" class="cls-7"/><line x1="645.28" x2="645.28" y1="719.43" y2="779.84" class="cls-7"/><line x1="685.12" x2="685.12" y1="719.43" y2="779.84" class="cls-7"/><line x1="671.84" x2="671.84" y1="719.43" y2="779.84" class="cls-7"/><line x1="738.24" x2="738.24" y1="719.43" y2="779.84" class="cls-7"/><line x1="711.68" x2="711.68" y1="719.43" y2="779.84" class="cls-7"/><line x1="724.96" x2="724.96" y1="719.43" y2="779.84" class="cls-7"/><line x1="698.4" x2="698.4" y1="719.43" y2="779.84" class="cls-7"/><line x1="844.48" x2="844.48" y1="719.43" y2="779.84" class="cls-7"/><line x1="817.92" x2="817.92" y1="719.43" y2="779.84" class="cls-7"/><line x1="831.2" x2="831.2" y1="719.43" y2="779.84" class="cls-7"/><line x1="791.36" x2="791.36" y1="719.43" y2="779.84" class="cls-7"/><line x1="804.64" x2="804.64" y1="719.43" y2="779.84" class="cls-7"/><line x1="764.8" x2="764.8" y1="719.43" y2="779.84" class="cls-7"/><line x1="751.52" x2="751.52" y1="719.43" y2="779.84" class="cls-7"/><line x1="778.08" x2="778.08" y1="719.43" y2="779.84" class="cls-7"/></g><polyline points="887.8 308.13 785.53 308.13 785.53 410.4 887.8 410.4 887.8 346.35" class="cls-3"/><polyline points="1291.27 893.25 1291.27 857.13 1307.85 857.13" class="cls-3"/><polyline points="1585.38 849.74 1585.38 934.1 1291.27 934.1 1291.27 917.98" class="cls-3"/><rect width="294.11" height="29.2" x="1291.27" y="934.1" class="cls-3"/><path d="M1530.8,548.31a77.59,77.59,0,0,0,39.81-139" class="cls-3"/><path d="M1446.29,477.08a77.61,77.61,0,0,0,67.19,70.9" class="cls-3"/><path d="M1476,409.79a77.52,77.52,0,0,0-29.18,50.16" class="cls-3"/><path d="M1369.59,717.51c-45.63,0-61.74,23.13-61.74,49.64h123.49C1431.33,740.64,1416.89,717.51,1369.59,717.51Z" class="cls-3"/><path d="M1302.3,778.56c11,0,11,12,21.92,12s11-12,21.92-12,11,12,21.92,12,11-12,21.92-12,11,12,21.93,12,11-12,21.93-12" class="cls-4"/><path d="M1307.85,849.74h123.49a0,0,0,0,1,0,0v13.57a6,6,0,0,1-6,6H1313.83a6,6,0,0,1-6-6V849.74A0,0,0,0,1,1307.85,849.74Z" class="cls-3"/><line x1="1300.36" x2="1592.88" y1="805.3" y2="805.3" class="cls-2"/><line x1="1367.84" x2="1371.35" y1="747.06" y2="747.06" class="cls-3"/><line x1="1402.81" x2="1399.3" y1="747.06" y2="747.06" class="cls-3"/><line x1="1382.76" x2="1386.27" y1="734.48" y2="734.48" class="cls-3"/><line x1="1336.37" x2="1339.88" y1="747.06" y2="747.06" class="cls-3"/><line x1="1356.43" x2="1352.92" y1="734.48" y2="734.48" class="cls-3"/><path d="M1523.64,662.44c-45.63,0-61.74,23.13-61.74,49.64h123.49C1585.38,685.56,1570.94,662.44,1523.64,662.44Z" class="cls-3"/><path d="M1456.35,747.35c11,0,11,12,21.92,12s11-12,21.92-12,11,12,21.92,12,11-12,21.92-12,11,12,21.93,12" class="cls-4"/><path d="M1456.35,724.52c11,0,11,12,21.92,12s11-12,21.92-12,11,12,21.92,12,11-12,21.92-12,11,12,21.93,12,11-12,21.93-12" class="cls-17"/><rect width="141.51" height="17.75" x="1451.37" y="772.7" class="cls-18" rx="5.98" ry="5.98"/><path d="M1461.9,849.74h123.49a0,0,0,0,1,0,0v13.57a6,6,0,0,1-6,6H1467.87a6,6,0,0,1-6-6V849.74A0,0,0,0,1,1461.9,849.74Z" class="cls-3"/><line x1="1523.64" x2="1523.64" y1="693.74" y2="690.23" class="cls-3"/><line x1="1555.1" x2="1555.1" y1="690.23" y2="693.74" class="cls-3"/><line x1="1538.56" x2="1538.56" y1="681.16" y2="677.65" class="cls-3"/><line x1="1492.18" x2="1492.18" y1="693.74" y2="690.23" class="cls-3"/><line x1="1508.72" x2="1508.72" y1="677.65" y2="681.16" class="cls-3"/><rect width="296.55" height="17.75" x="1297.32" y="820.16" class="cls-18" rx="5.98" ry="5.98"/><line x1="1022.59" x2="1022.59" y1="894.98" y2="797.12" class="cls-5"/><path d="M1006.75,770.71v10.56a15.84,15.84,0,0,0,31.69,0V770.71Z" class="cls-5"/><line x1="1006.75" x2="1006.75" y1="770.71" y2="722.11" class="cls-5"/><line x1="1022.6" x2="1022.6" y1="770.71" y2="722.11" class="cls-5"/><line x1="1038.44" x2="1038.44" y1="770.71" y2="722.11" class="cls-5"/><line x1="1646.62" x2="1567.18" y1="902.14" y2="902.14" class="cls-3"/><path d="M1540.77,918h10.56a15.84,15.84,0,0,0,0-31.69h-10.56Z" class="cls-3"/><line x1="1540.77" x2="1492.18" y1="917.98" y2="917.98" class="cls-3"/><line x1="1540.77" x2="1492.18" y1="902.13" y2="902.13" class="cls-3"/><line x1="1540.77" x2="1492.18" y1="886.29" y2="886.29" class="cls-3"/><path d="M1066.13,720.73h0a22.18,22.18,0,0,1,22.18,22.18V885.27a11.09,11.09,0,0,1-11.09,11.09h0a11.09,11.09,0,0,1-11.09-11.09V720.73A0,0,0,0,1,1066.13,720.73Z" class="cls-3"/><line x1="1066.13" x2="1088.32" y1="826.43" y2="826.43" class="cls-3"/><path d="M1332.17,819.07h0a22.18,22.18,0,0,1,22.18,22.18V983.61a11.09,11.09,0,0,1-11.09,11.09h0a11.09,11.09,0,0,1-11.09-11.09V819.07A0,0,0,0,1,1332.17,819.07Z" class="cls-5" transform="translate(2250.15 -436.38) rotate(90)"/><line x1="1325.37" x2="1325.37" y1="895.8" y2="917.98" class="cls-5"/><rect width="87.74" height="115.68" x="1478.25" y="247.74" class="cls-2" rx="8.87" ry="8.87" transform="translate(3044.25 611.15) rotate(180)"/><rect width="45.21" height="52.66" x="1499.52" y="270.48" class="cls-2" transform="translate(3044.25 593.61) rotate(180)"/><line x1="1530.77" x2="1513.48" y1="306.76" y2="306.76" class="cls-2"/><line x1="1530.77" x2="1513.48" y1="291.28" y2="291.28" class="cls-2"/><rect width="63.84" height="22.2" x="1490.2" y="364.13" class="cls-2" transform="translate(3044.25 750.45) rotate(180)"/><line x1="1522.12" x2="1522.12" y1="386.32" y2="367" class="cls-2"/><line x1="1506.92" x2="1506.92" y1="386.32" y2="367" class="cls-2"/><line x1="1537.33" x2="1537.33" y1="386.32" y2="367" class="cls-2"/><polygon points="1516.72 424.75 1522.12 424.75 1527.52 424.75 1537.33 388.17 1522.12 388.17 1506.92 388.17 1516.72 424.75" class="cls-2"/><path d="M1305.5,489.22l-68.65-8.91V460.53l68.65-8.91a29.33,29.33,0,0,1,23.63-11.93h97v61.44h-97A29.34,29.34,0,0,1,1305.5,489.22Z" class="cls-3"/><rect width="40.8" height="66.28" x="1344.23" y="426.81" class="cls-3" transform="translate(904.67 1824.57) rotate(-90)"/><path d="M1219,483.73a6.66,6.66,0,0,0,0-13.31" class="cls-3"/><path d="M1219,470.42a6.66,6.66,0,0,0,0-13.31" class="cls-3"/><line x1="1205.63" x2="1205.63" y1="480.89" y2="459.95" class="cls-3"/><line x1="1047.33" x2="1047.33" y1="524.07" y2="416.02" class="cls-3"/><line x1="1072.88" x2="1072.88" y1="533.69" y2="489.86" class="cls-3"/><line x1="1027.68" x2="1027.68" y1="536.22" y2="448.22" class="cls-3"/><line x1="982.49" x2="982.49" y1="539.84" y2="511.62" class="cls-3"/><line x1="972.02" x2="972.02" y1="679.41" y2="880.72" class="cls-5"/><ellipse cx="972.02" cy="918.22" class="cls-5" rx="22.51" ry="37.5"/><path d="M979.43,899a7.54,7.54,0,1,0-15.08,0" class="cls-5"/><line x1="1284.64" x2="1284.64" y1="359.27" y2="376.55" class="cls-4"/><line x1="1269.17" x2="1269.17" y1="359.27" y2="376.55" class="cls-4"/><line x1="1300.12" x2="1300.12" y1="359.27" y2="376.55" class="cls-4"/><path d="M1434.55,382.79h23.51V353h-23.51c-29.55,0-58.86-7.34-84.13-22.66a43.66,43.66,0,0,0-22.72-6.33h-93.22a8.87,8.87,0,0,0-8.87,8.87v70a8.87,8.87,0,0,0,8.87,8.87h93.22a43.66,43.66,0,0,0,22.72-6.33C1375.69,390.13,1405,382.79,1434.55,382.79Z" class="cls-4"/><rect width="29.75" height="19.12" x="1433.62" y="358.35" class="cls-4" transform="translate(1816.41 -1080.58) rotate(90)"/><path d="M1335.79,390.52a22.61,22.61,0,0,0,0-45.21h-87.42v45.21Z" class="cls-4"/><circle cx="1329.4" cy="367.91" r="8.64" class="cls-4"/><polyline points="1223.7 770.17 1167.9 770.17 1167.9 866.32 1264.05 866.32 1264.05 770.17 1237.52 770.17" class="cls-3"/><path d="M1129.65,750.35h30a8.27,8.27,0,0,1,8.27,8.27v59.93a8.27,8.27,0,0,1-8.27,8.27h-30a0,0,0,0,1,0,0V750.35A0,0,0,0,1,1129.65,750.35Z" class="cls-3" transform="translate(2297.55 1577.18) rotate(180)"/><rect width="23.68" height="38.24" x="1144.22" y="770.31" class="cls-3" transform="translate(2312.12 1578.85) rotate(180)"/><line x1="1264.05" x2="1264.05" y1="770.17" y2="751.02" class="cls-3"/><line x1="1215.98" x2="1215.98" y1="880.12" y2="845.59" class="cls-3"/><line x1="1194.44" x2="1194.44" y1="880.12" y2="845.59" class="cls-3"/><line x1="1237.52" x2="1237.52" y1="880.12" y2="845.59" class="cls-3"/><line x1="1523.64" x2="1523.64" y1="662.44" y2="610.84" class="cls-3"/><circle cx="1523.64" cy="582.87" r="25.49" class="cls-3"/><circle cx="1148.89" cy="626.27" r="10.56" class="cls-2"/><circle cx="1119.38" cy="581.51" r="10.56" class="cls-3"/><circle cx="1129.94" cy="683.17" r="10.56" class="cls-2"/><circle cx="1122.76" cy="871.41" r="10.56" class="cls-3"/><circle cx="1194.44" cy="812.42" r="10.56" class="cls-3"/><circle cx="1237.52" cy="812.42" r="10.56" class="cls-3"/><path d="M1369.59,561.22c1.1-6.86,8-14.59,16.79-14.59s15,8.4,15,17.68c0,17.59-15.88,30.31-31.77,40-15.88-9.73-31.77-22.44-31.77-40,0-9.28,6.16-17.68,15-17.68S1368.49,554.36,1369.59,561.22Z" class="cls-4"/><path d="M1441.22,627.26c-6.86-1.1-14.59-8-14.59-16.79s8.4-15,17.68-15c17.59,0,30.31,15.88,40,31.77-9.73,15.88-22.44,31.77-40,31.77-9.28,0-17.68-6.16-17.68-15S1434.36,628.36,1441.22,627.26Z" class="cls-3"/><path d="M1248.19,512.86h21.54a0,0,0,0,1,0,0V671.06a10.1,10.1,0,0,1-10.1,10.1h-1.34a10.1,10.1,0,0,1-10.1-10.1V512.86A0,0,0,0,1,1248.19,512.86Z" class="cls-2"/><path d="M1228.55,523.18h17.32a2.11,2.11,0,0,1,2.11,2.11V636.2A10.77,10.77,0,0,1,1237.21,647h0a10.77,10.77,0,0,1-10.77-10.77V525.29a2.11,2.11,0,0,1,2.11-2.11Z" class="cls-2"/><path d="M1185.78,537.81h17.32a2.11,2.11,0,0,1,2.11,2.11V650.83a10.77,10.77,0,0,1-10.77,10.77h0a10.77,10.77,0,0,1-10.77-10.77V539.92a2.11,2.11,0,0,1,2.11-2.11Z" class="cls-2"/><path d="M1205.31,512.86h21.54a0,0,0,0,1,0,0v66.68a10.77,10.77,0,0,1-10.77,10.77h0a10.77,10.77,0,0,1-10.77-10.77V512.86A0,0,0,0,1,1205.31,512.86Z" class="cls-2"/><path d="M1269.73,532.22h21.54a0,0,0,0,1,0,0V598.9a10.77,10.77,0,0,1-10.77,10.77h0a10.77,10.77,0,0,1-10.77-10.77V532.22A0,0,0,0,1,1269.73,532.22Z" class="cls-2"/><path d="M1160.6,512.86h21.54a0,0,0,0,1,0,0v66.68a10.77,10.77,0,0,1-10.77,10.77h0a10.77,10.77,0,0,1-10.77-10.77V512.86A0,0,0,0,1,1160.6,512.86Z" class="cls-2"/><rect width="21.54" height="77.45" x="1138.48" y="485.34" class="cls-2" rx="10.77" ry="10.77"/><path d="M1523.64,508.78a40.33,40.33,0,0,0-40.33-40.33" class="cls-3"/><line x1="1484.87" x2="1426.12" y1="468.45" y2="468.45" class="cls-3"/><line x1="1523.64" x2="1523.64" y1="508.78" y2="557.37" class="cls-3"/><circle cx="1537.33" cy="467.23" r="8.28" class="cls-3"/><circle cx="1557.41" cy="504.1" r="8.28" class="cls-3"/><circle cx="1565.69" cy="557.37" r="8.28" class="cls-3"/><circle cx="1523.64" cy="590.31" r="7.67" class="cls-3"/><line x1="1209.81" x2="1204.12" y1="830.62" y2="836.31" class="cls-3"/><line x1="1222.14" x2="1227.84" y1="830.62" y2="836.31" class="cls-3"/><path d="M1646.62,902.14a17,17,0,1,0,0-34" class="cls-3"/><path d="M1629.62,772.7a17,17,0,0,0-17-17" class="cls-3"/><path d="M1629.62,851.14a17,17,0,0,0,17,17" class="cls-3"/><line x1="1629.62" x2="1629.62" y1="851.14" y2="772.7" class="cls-3"/><path d="M1612.62,729.61a13,13,0,0,0,0,26.09" class="cls-3"/><path d="M1612.62,729.61a13,13,0,0,0,13-13V650.91A23.65,23.65,0,0,0,1602,627.26H1535.6" class="cls-3"/><polygon points="1583.44 743.49 1574.76 758.54 1592.13 758.54 1583.44 743.49" class="cls-3"/><path d="M1029.3,551.58c-42.12,0-57,21.35-57,45.82h114C1086.3,572.93,1073,551.58,1029.3,551.58Z" class="cls-3"/><path d="M967.19,607.93c10.12,0,10.12,11,20.23,11s10.12-11,20.23-11,10.12,11,20.24,11,10.12-11,20.24-11,10.12,11,20.24,11,10.12-11,20.24-11" class="cls-4"/><rect width="130.62" height="16.38" x="962.6" y="646.33" class="cls-18" rx="5.52" ry="5.52"/><path d="M972.31,673.63h114a0,0,0,0,1,0,0v12.53a5.52,5.52,0,0,1-5.52,5.52H977.83a5.52,5.52,0,0,1-5.52-5.52V673.63A0,0,0,0,1,972.31,673.63Z" class="cls-3"/><line x1="965.4" x2="1093.21" y1="632.62" y2="632.62" class="cls-2"/><line x1="1027.68" x2="1030.92" y1="578.85" y2="578.85" class="cls-3"/><line x1="1059.97" x2="1056.73" y1="578.85" y2="578.85" class="cls-3"/><line x1="1041.45" x2="1044.69" y1="567.25" y2="567.25" class="cls-3"/><line x1="998.64" x2="1001.88" y1="578.85" y2="578.85" class="cls-3"/><line x1="1017.15" x2="1013.91" y1="567.25" y2="567.25" class="cls-3"/><path d="M678,803.27c-54.33,0-73.52,27.54-73.52,59.11h147C751.49,830.81,734.29,803.27,678,803.27Z" class="cls-3"/><path d="M597.85,876c13.05,0,13.05,14.24,26.1,14.24S637,876,650.05,876s13.05,14.24,26.1,14.24S689.21,876,702.26,876s13.05,14.24,26.11,14.24S741.42,876,754.48,876" class="cls-4"/><rect width="168.49" height="21.13" x="591.91" y="925.49" class="cls-19" rx="7.12" ry="7.12"/><path d="M604.45,960.71h147a0,0,0,0,1,0,0v16.16a7.12,7.12,0,0,1-7.12,7.12H611.57a7.12,7.12,0,0,1-7.12-7.12V960.71A0,0,0,0,1,604.45,960.71Z" class="cls-3"/><line x1="595.53" x2="760.41" y1="907.8" y2="907.8" class="cls-2"/><line x1="675.88" x2="680.06" y1="838.45" y2="838.45" class="cls-3"/><line x1="717.52" x2="713.34" y1="838.45" y2="838.45" class="cls-3"/><line x1="693.64" x2="697.82" y1="823.48" y2="823.48" class="cls-3"/><line x1="638.41" x2="642.59" y1="838.45" y2="838.45" class="cls-3"/><line x1="662.29" x2="658.11" y1="823.48" y2="823.48" class="cls-3"/><path d="M1165.32,905.45c-55.6,0-75.24,28.18-75.24,60.49h150.49C1240.56,933.64,1223,905.45,1165.32,905.45Z" class="cls-3"/><path d="M1083.32,979.84c13.36,0,13.36,14.57,26.72,14.57s13.36-14.57,26.72-14.57,13.36,14.57,26.72,14.57,13.36-14.57,26.72-14.57,13.36,14.57,26.72,14.57,13.36-14.57,26.72-14.57" class="cls-4"/><polyline points="1080.94 1007.39 1102.03 1019.39 1123.12 1007.39 1144.22 1019.39 1165.31 1007.39 1186.4 1019.39 1207.5 1007.39 1228.6 1019.39 1249.69 1007.39" class="cls-17"/><line x1="1080.94" x2="1249.69" y1="1034.06" y2="1034.06" class="cls-2"/><path d="M1085.81,1050.2h155.32a8.56,8.56,0,0,1,8.56,8.56v7.46a7.8,7.8,0,0,1-7.8,7.8H1085a7.8,7.8,0,0,1-7.8-7.8v-7.46A8.56,8.56,0,0,1,1085.81,1050.2Z" class="cls-18"/><path d="M1088.23,1086.14h150.49a0,0,0,0,1,0,0v16.54a7.29,7.29,0,0,1-7.29,7.29H1095.51a7.29,7.29,0,0,1-7.29-7.29v-16.54A0,0,0,0,1,1088.23,1086.14Z" class="cls-3"/><path d="M1770.3,814.41c-55.6,0-75.24,28.18-75.24,60.49h150.49C1845.54,842.59,1827.94,814.41,1770.3,814.41Z" class="cls-3"/><path d="M1688.3,944.3c13.36,0,13.36,14.57,26.72,14.57s13.36-14.57,26.72-14.57,13.36,14.57,26.72,14.57,13.36-14.57,26.72-14.57,13.36,14.57,26.72,14.57,13.36-14.57,26.72-14.57" class="cls-4"/><rect width="172.45" height="21.63" x="1682.23" y="995" class="cls-18" rx="7.29" ry="7.29"/><rect width="172.45" height="21.63" x="1682.23" y="893.25" class="cls-18" rx="7.29" ry="7.29"/><path d="M1695.05,1031h150.49a0,0,0,0,1,0,0v16.54a7.29,7.29,0,0,1-7.29,7.29H1702.34a7.29,7.29,0,0,1-7.29-7.29V1031A0,0,0,0,1,1695.05,1031Z" class="cls-3"/><line x1="1685.92" x2="1854.67" y1="976.9" y2="976.9" class="cls-2"/><line x1="1685.92" x2="1854.67" y1="929.14" y2="929.14" class="cls-17"/><path d="M738.49,540.67c-30.49,0-41.26,15.46-41.26,33.18h82.53C779.75,556.12,770.1,540.67,738.49,540.67Z" class="cls-3"/><path d="M693.52,588.85c7.33,0,7.33,8,14.65,8s7.33-8,14.65-8,7.33,8,14.65,8,7.33-8,14.65-8,7.33,8,14.65,8,7.33-8,14.65-8" class="cls-17"/><path d="M781.43,632.8c-7.33,0-7.33-8-14.65-8s-7.33,8-14.65,8-7.33-8-14.65-8-7.33,8-14.65,8-7.33-8-14.65-8-7.33,8-14.65,8" class="cls-4"/><path d="M781.43,731c-7.33,0-7.33-8-14.65-8s-7.33,8-14.65,8-7.33-8-14.65-8-7.33,8-14.65,8-7.33-8-14.65-8-7.33,8-14.65,8" class="cls-4"/><rect width="94.57" height="11.86" x="690.19" y="661.41" class="cls-18" rx="4" ry="4"/><rect width="94.57" height="11.86" x="690.19" y="684.78" class="cls-18" rx="4" ry="4"/><path d="M697.23,743.1h82.53a0,0,0,0,1,0,0v9.07a4,4,0,0,1-4,4H701.22a4,4,0,0,1-4-4V743.1A0,0,0,0,1,697.23,743.1Z" class="cls-3"/><line x1="692.22" x2="784.76" y1="609.75" y2="609.75" class="cls-2"/><line x1="645.93" x2="784.76" y1="645.19" y2="645.19" class="cls-3"/><line x1="692.22" x2="784.76" y1="712.09" y2="712.09" class="cls-2"/><line x1="738.49" x2="738.49" y1="540.67" y2="476.41" class="cls-3"/><polygon points="738.49 432.9 745.56 454.66 768.44 454.66 749.93 468.1 757 489.86 738.49 476.42 719.98 489.86 727.05 468.1 708.54 454.66 731.42 454.66 738.49 432.9" class="cls-2"/><path d="M924.9,359c0,42.12,21.35,57,45.82,57V302C946.25,302,924.9,315.37,924.9,359Z" class="cls-3"/><path d="M981.24,421.13c0-10.12,11-10.12,11-20.23s-11-10.12-11-20.24,11-10.12,11-20.24-11-10.12-11-20.24,11-10.12,11-20.24-11-10.12-11-20.24" class="cls-17"/><rect width="130.62" height="16.38" x="962.53" y="352.23" class="cls-18" rx="5.52" ry="5.52" transform="translate(667.41 1388.26) rotate(-90)"/><path d="M999,350h114a0,0,0,0,1,0,0v12.53a5.52,5.52,0,0,1-5.52,5.52H1004.5a5.52,5.52,0,0,1-5.52-5.52V350A0,0,0,0,1,999,350Z" class="cls-3" transform="translate(696.94 1415) rotate(-90)"/><line x1="1005.93" x2="1005.93" y1="525.73" y2="295.12" class="cls-2"/><line x1="1484.35" x2="1511.16" y1="627.26" y2="627.26" class="cls-3"/><rect width="112.22" height="112.22" x="1092.78" y="299.57" class="cls-3"/><rect width="75.35" height="75.35" x="1129.65" y="336.43" class="cls-3"/><line x1="1129.65" x2="1092.78" y1="336.43" y2="299.57" class="cls-3"/><polygon points="1167.33 336.25 1176.22 363.62 1205 363.62 1181.72 380.54 1190.61 407.91 1167.33 390.99 1144.04 407.91 1152.94 380.54 1129.65 363.62 1158.43 363.62 1167.33 336.25" class="cls-5"/><rect width="26.59" height="26.59" x="1092.78" y="272.52" class="cls-3"/><rect width="26.59" height="26.59" x="1119.38" y="272.52" class="cls-3"/><rect width="26.59" height="26.59" x="1119.38" y="245.47" class="cls-3"/><rect width="26.59" height="26.59" x="1145.97" y="245.47" class="cls-3"/><rect width="26.59" height="26.59" x="1172.56" y="218.88" class="cls-3"/><rect width="26.59" height="26.59" x="1147.31" y="194.39" class="cls-3"/><rect width="68.72" height="27.02" x="787.1" y="350.58" class="cls-17" transform="translate(498.05 -474.22) rotate(45)"/><rect width="99.98" height="27.02" x="812.01" y="339.53" class="cls-17" transform="translate(1721.17 -6.86) rotate(135)"/><polyline points="1670.75 268.01 1590.5 268.01 1590.5 348.26 1670.75 348.26 1670.75 297.99" class="cls-3"/><rect width="53.92" height="21.2" x="1591.73" y="301.31" class="cls-5" transform="translate(694.66 -1053.23) rotate(45)"/><rect width="78.45" height="21.2" x="1611.28" y="292.64" class="cls-5" transform="translate(3032.02 -649.41) rotate(135)"/><rect width="51.93" height="51.93" x="837.46" y="678.57" class="cls-3"/><rect width="51.93" height="51.93" x="889.39" y="678.57" class="cls-3"/><rect width="33.3" height="33.3" x="802.48" y="643.59" class="cls-3"/><rect width="51.93" height="51.93" x="837.46" y="730.5" class="cls-3"/><rect width="37.31" height="37.31" x="837.46" y="607.62" class="cls-3"/><line x1="837.46" x2="874.77" y1="607.62" y2="644.93" class="cls-3"/><rect width="51.93" height="51.93" x="889.39" y="730.5" class="cls-3"/><path d="M773,782.43H926.34a0,0,0,0,1,0,0v119.7a0,0,0,0,1,0,0H892.67A119.7,119.7,0,0,1,773,782.43v0A0,0,0,0,1,773,782.43Z" class="cls-3"/><path d="M773,809.44h0a119.7,119.7,0,0,0,119.7,119.7h33.67v-27" class="cls-3"/><path d="M1638.63,472a14.44,14.44,0,0,0,0,28.88h56.24a14.44,14.44,0,0,0,0-28.88c-.38,0-.75,0-1.12,0a18.8,18.8,0,0,0,.14-2.25,17.81,17.81,0,0,0-32.71-9.75,14.44,14.44,0,0,0-22.54,12Z" class="cls-3"/><path d="M1313.29,267.59a16.84,16.84,0,1,1,0,33.67h-65.57a16.84,16.84,0,0,1,0-33.67c.44,0,.88,0,1.31,0a20.77,20.77,0,0,1,38-14,16.84,16.84,0,0,1,26.28,13.94Z" class="cls-5"/><path d="M1092.78,411.78h0a46.42,46.42,0,0,0,46.42,46.42h46.66" class="cls-3"/><path d="M1630.62,348.26V371a47.29,47.29,0,0,1-47.29,47.29h-2.83" class="cls-3"/><path d="M787.61,349.34H761.12a23.65,23.65,0,0,1-23.65-23.65V296.17a23.65,23.65,0,0,1,23.65-23.65h59a15.61,15.61,0,0,0,15.61-15.61h0a15.61,15.61,0,0,1,15.61-15.61H879" class="cls-3"/><circle cx="893.75" cy="241.29" r="14.8" class="cls-4"/><circle cx="958.89" cy="241.29" r="14.8" class="cls-2"/><circle cx="1042.67" cy="241.29" r="14.8" class="cls-17"/><circle cx="958.89" cy="241.29" r="27.04" class="cls-3"/><circle cx="1042.67" cy="241.29" r="35.95" class="cls-3"/><path d="M1361.51,272.52h94.84a0,0,0,0,1,0,0v54a0,0,0,0,1,0,0h-40.89a54,54,0,0,1-54-54v0a0,0,0,0,1,0,0Z" class="cls-3"/><rect width="15.98" height="66.83" x="1661.35" y="637.79" class="cls-18"/><circle cx="1669.34" cy="580.31" r="58.03" class="cls-17"/><line x1="1669.34" x2="1669.34" y1="638.34" y2="522.28" class="cls-17"/><line x1="1669.34" x2="1711.09" y1="559.26" y2="540.01" class="cls-17"/><line x1="1669.34" x2="1724.2" y1="592.33" y2="567.03" class="cls-17"/><line x1="1669.34" x2="1724.26" y1="619.39" y2="594.06" class="cls-17"/><line x1="1669.34" x2="1627.59" y1="559.26" y2="540.01" class="cls-17"/><line x1="1669.34" x2="1614.47" y1="592.33" y2="567.03" class="cls-17"/><line x1="1669.34" x2="1614.41" y1="619.39" y2="594.06" class="cls-17"/><path d="M645.93,645.26a15,15,0,0,0-15,15" class="cls-3"/><path d="M630.88,660.31v21.18a30.59,30.59,0,0,1-30.59,30.59h0a30.59,30.59,0,0,0-30.59,30.59v145a30.59,30.59,0,0,1-30.59,30.59H30A27.07,27.07,0,0,0,3,945.29H3A27.07,27.07,0,0,0,30,972.35h85.55a27.07,27.07,0,0,1,27.07,27.07v242.66" class="cls-3"/><path d="M830.55,465.73a26.42,26.42,0,0,0,0,52.84h102.9a26.42,26.42,0,0,0,0-52.84c-.69,0-1.37,0-2,.07a34.39,34.39,0,0,0,.25-4.12,32.59,32.59,0,0,0-59.86-17.83,26.43,26.43,0,0,0-41.24,21.87Z" class="cls-3"/><path d="M960.41,489.55h0a22.07,22.07,0,0,1,22.07,22.07h0" class="cls-3"/><rect width="21.55" height="79.62" x="1307.85" y="963.3" class="cls-3"/><rect width="21.55" height="79.62" x="1547.25" y="963.3" class="cls-3" transform="translate(3116.05 2006.21) rotate(-180)"/><line x1="1431.33" x2="1461.44" y1="857.13" y2="857.13" class="cls-3"/><path d="M1567.18,3V144.9a21.86,21.86,0,0,1-21.86,21.86h0a21.86,21.86,0,0,0-21.86,21.86v57.89" class="cls-2"/><polyline points="1722.77 712.49 1722.77 705.09 1645.97 705.09 1645.97 781.89 1722.77 781.89 1722.77 749.49" class="cls-3"/><path d="M1707.57,726.41c.88-5.47,6.35-11.64,13.39-11.64s12,6.7,12,14.1c0,14-12.67,24.17-25.34,31.93-12.67-7.76-25.34-17.9-25.34-31.93,0-7.4,4.91-14.1,12-14.1S1706.69,720.94,1707.57,726.41Z" class="cls-4"/><path d="M1238.54,705.95a25.33,25.33,0,1,1-1.92,46.25v42.36a6.46,6.46,0,0,1-12.92,0V744.17a25.4,25.4,0,0,1-6.44.83,25,25,0,0,1-13.8-4.1,25.32,25.32,0,1,1-5.56-37.54,25.31,25.31,0,0,1,40.65,2.6Z" class="cls-5"/></g></g></svg>