<svg xmlns="http://www.w3.org/2000/svg" xmlns:xlink="http://www.w3.org/1999/xlink" viewBox="0 0 2093.74 1259.88"><defs><style>.cls-1,.cls-11,.cls-3{fill:none;}.cls-2{clip-path:url(#clip-path);}.cls-11,.cls-3{stroke:#e5e5e5;stroke-linecap:round;stroke-linejoin:round;}.cls-3{stroke-width:4px;}.cls-4{clip-path:url(#clip-path-2);}.cls-5{clip-path:url(#clip-path-3);}.cls-6{clip-path:url(#clip-path-4);}.cls-7{clip-path:url(#clip-path-5);}.cls-8{clip-path:url(#clip-path-6);}.cls-9{clip-path:url(#clip-path-7);}.cls-10{clip-path:url(#clip-path-8);}.cls-11{stroke-width:8px;}</style><clipPath id="clip-path"><path class="cls-1" d="M1389.86,458.63a35.75,35.75,0,0,1,0,71.5H1250.62a35.75,35.75,0,0,1,0-71.5c.94,0,1.86,0,2.78.1A44.1,44.1,0,0,1,1334,429a35.76,35.76,0,0,1,55.81,29.6Z"/></clipPath><clipPath id="clip-path-2"><path class="cls-1" d="M1422.22,887.2h45.56a0,0,0,0,1,0,0v162a0,0,0,0,1,0,0H1260.24a0,0,0,0,1,0,0v0A162,162,0,0,1,1422.22,887.2Z" transform="translate(2728.02 1936.39) rotate(-180)"/></clipPath><clipPath id="clip-path-3"><rect class="cls-1" x="368.41" y="1092.44" width="398" height="39.51" transform="translate(1134.82 2224.39) rotate(-180)"/></clipPath><clipPath id="clip-path-4"><path class="cls-1" d="M616,197.18h55.33a0,0,0,0,1,0,0v73a0,0,0,0,1,0,0H543a0,0,0,0,1,0,0v0A73,73,0,0,1,616,197.18Z" transform="translate(1214.37 467.36) rotate(-180)"/></clipPath><clipPath id="clip-path-5"><path class="cls-1" d="M1262.19,314.24c0,57-28.89,77.12-62,77.12V237.12C1233.3,237.12,1262.19,255.16,1262.19,314.24Z"/></clipPath><clipPath id="clip-path-6"><rect class="cls-1" x="639.54" y="405.97" width="55.21" height="89.69" transform="translate(216.33 1117.96) rotate(-90)"/></clipPath><clipPath id="clip-path-7"><path class="cls-1" d="M1514.44,560c41.26,0,55.84,20.92,55.84,44.89H1458.6C1458.6,581,1471.67,560,1514.44,560Z"/></clipPath><clipPath id="clip-path-8"><path class="cls-1" d="M1464,834h100.86a5.41,5.41,0,0,1,5.41,5.41v12.27a0,0,0,0,1,0,0H1458.6a0,0,0,0,1,0,0V839.39A5.41,5.41,0,0,1,1464,834Z" transform="translate(3028.89 1685.65) rotate(-180)"/></clipPath></defs><title>illo-partners</title><g id="Layer_2" data-name="Layer 2"><g id="Layer_8" data-name="Layer 8"><g class="cls-2"><line class="cls-3" x1="1413.92" y1="538.6" x2="1488.52" y2="400.61"/><line class="cls-3" x1="1339.32" y1="538.6" x2="1413.92" y2="400.61"/><line class="cls-3" x1="1376.62" y1="538.6" x2="1451.22" y2="400.61"/><line class="cls-3" x1="1264.73" y1="538.6" x2="1339.32" y2="400.61"/><line class="cls-3" x1="1302.03" y1="538.6" x2="1376.62" y2="400.61"/><line class="cls-3" x1="1190.13" y1="538.6" x2="1264.73" y2="400.61"/><line class="cls-3" x1="1152.83" y1="538.6" x2="1227.43" y2="400.61"/><line class="cls-3" x1="1227.43" y1="538.6" x2="1302.03" y2="400.61"/></g><g class="cls-4"><circle class="cls-3" cx="1464.92" cy="895.15" r="5"/><circle class="cls-3" cx="1410.72" cy="895.15" r="5"/><circle class="cls-3" cx="1451.37" cy="922.25" r="5"/><circle class="cls-3" cx="1397.17" cy="922.25" r="5"/><circle class="cls-3" cx="1424.27" cy="922.25" r="5"/><circle class="cls-3" cx="1437.82" cy="895.15" r="5"/><circle class="cls-3" cx="1464.92" cy="1003.55" r="5"/><circle class="cls-3" cx="1410.72" cy="1003.55" r="5"/><circle class="cls-3" cx="1451.37" cy="976.45" r="5"/><circle class="cls-3" cx="1397.17" cy="976.45" r="5"/><circle class="cls-3" cx="1424.27" cy="976.45" r="5"/><circle class="cls-3" cx="1437.82" cy="1003.55" r="5"/><circle class="cls-3" cx="1464.92" cy="949.35" r="5"/><circle class="cls-3" cx="1410.72" cy="949.35" r="5"/><circle class="cls-3" cx="1437.82" cy="949.35" r="5"/><circle class="cls-3" cx="1329.42" cy="895.15" r="5"/><circle class="cls-3" cx="1383.62" cy="895.15" r="5"/><circle class="cls-3" cx="1342.97" cy="922.25" r="5"/><circle class="cls-3" cx="1370.07" cy="922.25" r="5"/><circle class="cls-3" cx="1356.52" cy="895.15" r="5"/><circle class="cls-3" cx="1329.42" cy="1003.55" r="5"/><circle class="cls-3" cx="1383.62" cy="1003.55" r="5"/><circle class="cls-3" cx="1342.97" cy="976.45" r="5"/><circle class="cls-3" cx="1370.07" cy="976.45" r="5"/><circle class="cls-3" cx="1356.52" cy="1003.55" r="5"/><circle class="cls-3" cx="1329.42" cy="949.35" r="5"/><circle class="cls-3" cx="1383.62" cy="949.35" r="5"/><circle class="cls-3" cx="1356.52" cy="949.35" r="5"/><circle class="cls-3" cx="1315.87" cy="922.25" r="5"/><circle class="cls-3" cx="1315.87" cy="976.45" r="5"/><circle class="cls-3" cx="1451.37" cy="1030.65" r="5"/><circle class="cls-3" cx="1397.17" cy="1030.65" r="5"/><circle class="cls-3" cx="1424.27" cy="1030.65" r="5"/><circle class="cls-3" cx="1464.92" cy="1057.75" r="5"/><circle class="cls-3" cx="1410.72" cy="1057.75" r="5"/><circle class="cls-3" cx="1437.82" cy="1057.75" r="5"/><circle class="cls-3" cx="1342.97" cy="1030.65" r="5"/><circle class="cls-3" cx="1370.07" cy="1030.65" r="5"/><circle class="cls-3" cx="1329.42" cy="1057.75" r="5"/><circle class="cls-3" cx="1383.62" cy="1057.75" r="5"/><circle class="cls-3" cx="1356.52" cy="1057.75" r="5"/><circle class="cls-3" cx="1234.57" cy="922.25" r="5"/><circle class="cls-3" cx="1234.57" cy="976.45" r="5"/><circle class="cls-3" cx="1302.32" cy="895.15" r="5"/><circle class="cls-3" cx="1248.12" cy="895.15" r="5"/><circle class="cls-3" cx="1288.77" cy="922.25" r="5"/><circle class="cls-3" cx="1261.67" cy="922.25" r="5"/><circle class="cls-3" cx="1275.22" cy="895.15" r="5"/><circle class="cls-3" cx="1302.32" cy="1003.55" r="5"/><circle class="cls-3" cx="1248.12" cy="1003.55" r="5"/><circle class="cls-3" cx="1288.77" cy="976.45" r="5"/><circle class="cls-3" cx="1261.67" cy="976.45" r="5"/><circle class="cls-3" cx="1275.22" cy="1003.55" r="5"/><circle class="cls-3" cx="1302.32" cy="949.35" r="5"/><circle class="cls-3" cx="1248.12" cy="949.35" r="5"/><circle class="cls-3" cx="1275.22" cy="949.35" r="5"/><circle class="cls-3" cx="1234.57" cy="1030.65" r="5"/><circle class="cls-3" cx="1288.77" cy="1030.65" r="5"/><circle class="cls-3" cx="1261.67" cy="1030.65" r="5"/><circle class="cls-3" cx="1302.32" cy="1057.75" r="5"/><circle class="cls-3" cx="1248.12" cy="1057.75" r="5"/><circle class="cls-3" cx="1275.22" cy="1057.75" r="5"/><circle class="cls-3" cx="1315.87" cy="1030.65" r="5"/></g><g class="cls-5"><line class="cls-3" x1="909.15" y1="1062.14" x2="834.56" y2="1200.13"/><line class="cls-3" x1="834.56" y1="1062.14" x2="759.96" y2="1200.13"/><line class="cls-3" x1="871.86" y1="1062.14" x2="797.26" y2="1200.13"/><line class="cls-3" x1="759.96" y1="1062.14" x2="685.37" y2="1200.13"/><line class="cls-3" x1="797.26" y1="1062.14" x2="722.67" y2="1200.13"/><line class="cls-3" x1="610.77" y1="1062.14" x2="536.18" y2="1200.13"/><line class="cls-3" x1="685.37" y1="1062.14" x2="610.77" y2="1200.13"/><line class="cls-3" x1="648.07" y1="1062.14" x2="573.47" y2="1200.13"/><line class="cls-3" x1="722.67" y1="1062.14" x2="648.07" y2="1200.13"/><line class="cls-3" x1="312.39" y1="1062.14" x2="237.79" y2="1200.13"/><line class="cls-3" x1="386.98" y1="1062.14" x2="312.39" y2="1200.13"/><line class="cls-3" x1="349.69" y1="1062.14" x2="275.09" y2="1200.13"/><line class="cls-3" x1="461.58" y1="1062.14" x2="386.98" y2="1200.13"/><line class="cls-3" x1="424.28" y1="1062.14" x2="349.69" y2="1200.13"/><line class="cls-3" x1="536.18" y1="1062.14" x2="461.58" y2="1200.13"/><line class="cls-3" x1="573.47" y1="1062.14" x2="498.88" y2="1200.13"/><line class="cls-3" x1="498.88" y1="1062.14" x2="424.28" y2="1200.13"/></g><g class="cls-6"><line class="cls-3" x1="356.51" y1="185.6" x2="412.22" y2="288.64"/><line class="cls-3" x1="412.22" y1="185.6" x2="467.92" y2="288.64"/><line class="cls-3" x1="384.36" y1="185.6" x2="440.07" y2="288.64"/><line class="cls-3" x1="467.92" y1="185.6" x2="523.63" y2="288.64"/><line class="cls-3" x1="440.07" y1="185.6" x2="495.77" y2="288.64"/><line class="cls-3" x1="579.33" y1="185.6" x2="635.04" y2="288.64"/><line class="cls-3" x1="523.63" y1="185.6" x2="579.33" y2="288.64"/><line class="cls-3" x1="551.48" y1="185.6" x2="607.18" y2="288.64"/><line class="cls-3" x1="495.77" y1="185.6" x2="551.48" y2="288.64"/><line class="cls-3" x1="802.15" y1="185.6" x2="857.86" y2="288.64"/><line class="cls-3" x1="746.45" y1="185.6" x2="802.15" y2="288.64"/><line class="cls-3" x1="774.3" y1="185.6" x2="830.01" y2="288.64"/><line class="cls-3" x1="690.74" y1="185.6" x2="746.45" y2="288.64"/><line class="cls-3" x1="718.6" y1="185.6" x2="774.3" y2="288.64"/><line class="cls-3" x1="635.04" y1="185.6" x2="690.74" y2="288.64"/><line class="cls-3" x1="607.18" y1="185.6" x2="662.89" y2="288.64"/><line class="cls-3" x1="662.89" y1="185.6" x2="718.6" y2="288.64"/></g><g class="cls-7"><circle class="cls-3" cx="1315.21" cy="261.63" r="4.94"/><circle class="cls-3" cx="1261.68" cy="261.63" r="4.94"/><circle class="cls-3" cx="1301.83" cy="288.4" r="4.94"/><circle class="cls-3" cx="1248.3" cy="288.4" r="4.94"/><circle class="cls-3" cx="1275.06" cy="288.4" r="4.94"/><circle class="cls-3" cx="1288.45" cy="261.63" r="4.94"/><circle class="cls-3" cx="1315.21" cy="368.69" r="4.94"/><circle class="cls-3" cx="1261.68" cy="368.69" r="4.94"/><circle class="cls-3" cx="1301.83" cy="341.93" r="4.94"/><circle class="cls-3" cx="1248.3" cy="341.93" r="4.94"/><circle class="cls-3" cx="1275.06" cy="341.93" r="4.94"/><circle class="cls-3" cx="1288.45" cy="368.69" r="4.94"/><circle class="cls-3" cx="1315.21" cy="315.16" r="4.94"/><circle class="cls-3" cx="1261.68" cy="315.16" r="4.94"/><circle class="cls-3" cx="1288.45" cy="315.16" r="4.94"/><circle class="cls-3" cx="1181.38" cy="261.63" r="4.94"/><circle class="cls-3" cx="1234.91" cy="261.63" r="4.94"/><circle class="cls-3" cx="1194.76" cy="288.4" r="4.94"/><circle class="cls-3" cx="1221.53" cy="288.4" r="4.94"/><circle class="cls-3" cx="1208.15" cy="261.63" r="4.94"/><circle class="cls-3" cx="1181.38" cy="368.69" r="4.94"/><circle class="cls-3" cx="1234.91" cy="368.69" r="4.94"/><circle class="cls-3" cx="1194.76" cy="341.93" r="4.94"/><circle class="cls-3" cx="1221.53" cy="341.93" r="4.94"/><circle class="cls-3" cx="1208.15" cy="368.69" r="4.94"/><circle class="cls-3" cx="1181.38" cy="315.16" r="4.94"/><circle class="cls-3" cx="1234.91" cy="315.16" r="4.94"/><circle class="cls-3" cx="1208.15" cy="315.16" r="4.94"/><circle class="cls-3" cx="1168" cy="288.4" r="4.94"/><circle class="cls-3" cx="1168" cy="341.93" r="4.94"/></g><g class="cls-8"><circle class="cls-3" cx="697.78" cy="509.93" r="3.63"/><circle class="cls-3" cx="697.78" cy="470.57" r="3.63"/><circle class="cls-3" cx="678.1" cy="500.09" r="3.63"/><circle class="cls-3" cx="678.1" cy="460.73" r="3.63"/><circle class="cls-3" cx="678.1" cy="480.41" r="3.63"/><circle class="cls-3" cx="697.78" cy="490.25" r="3.63"/><circle class="cls-3" cx="619.06" cy="509.93" r="3.63"/><circle class="cls-3" cx="619.06" cy="470.57" r="3.63"/><circle class="cls-3" cx="638.74" cy="500.09" r="3.63"/><circle class="cls-3" cx="638.74" cy="460.73" r="3.63"/><circle class="cls-3" cx="638.74" cy="480.41" r="3.63"/><circle class="cls-3" cx="619.06" cy="490.25" r="3.63"/><circle class="cls-3" cx="658.42" cy="509.93" r="3.63"/><circle class="cls-3" cx="658.42" cy="470.57" r="3.63"/><circle class="cls-3" cx="658.42" cy="490.25" r="3.63"/><circle class="cls-3" cx="697.78" cy="411.53" r="3.63"/><circle class="cls-3" cx="697.78" cy="450.89" r="3.63"/><circle class="cls-3" cx="678.1" cy="421.37" r="3.63"/><circle class="cls-3" cx="678.1" cy="441.05" r="3.63"/><circle class="cls-3" cx="697.78" cy="431.21" r="3.63"/><circle class="cls-3" cx="619.06" cy="411.53" r="3.63"/><circle class="cls-3" cx="619.06" cy="450.89" r="3.63"/><circle class="cls-3" cx="638.74" cy="421.37" r="3.63"/><circle class="cls-3" cx="638.74" cy="441.05" r="3.63"/><circle class="cls-3" cx="619.06" cy="431.21" r="3.63"/><circle class="cls-3" cx="658.42" cy="411.53" r="3.63"/><circle class="cls-3" cx="658.42" cy="450.89" r="3.63"/><circle class="cls-3" cx="658.42" cy="431.21" r="3.63"/><circle class="cls-3" cx="678.1" cy="401.69" r="3.63"/><circle class="cls-3" cx="638.74" cy="401.69" r="3.63"/></g><circle class="cls-3" cx="1260.85" cy="573.26" r="6.77"/><circle class="cls-3" cx="1260.85" cy="646.71" r="6.77"/><circle class="cls-3" cx="1260.85" cy="609.99" r="6.77"/><circle class="cls-3" cx="1371.01" cy="554.9" r="6.77"/><circle class="cls-3" cx="1334.29" cy="573.26" r="6.77"/><circle class="cls-3" cx="1334.29" cy="609.99" r="6.77"/><circle class="cls-3" cx="1371.01" cy="591.62" r="6.77"/><circle class="cls-3" cx="1297.57" cy="554.9" r="6.77"/><circle class="cls-3" cx="1297.57" cy="628.35" r="6.77"/><circle class="cls-3" cx="1297.57" cy="591.62" r="6.77"/><g class="cls-9"><line class="cls-3" x1="1658.55" y1="539.83" x2="1658.55" y2="621.57"/><line class="cls-3" x1="1622.61" y1="539.83" x2="1622.61" y2="621.57"/><line class="cls-3" x1="1640.58" y1="539.83" x2="1640.58" y2="621.57"/><line class="cls-3" x1="1586.67" y1="539.83" x2="1586.67" y2="621.57"/><line class="cls-3" x1="1604.64" y1="539.83" x2="1604.64" y2="621.57"/><line class="cls-3" x1="1514.78" y1="539.83" x2="1514.78" y2="621.57"/><line class="cls-3" x1="1550.72" y1="539.83" x2="1550.72" y2="621.57"/><line class="cls-3" x1="1532.75" y1="539.83" x2="1532.75" y2="621.57"/><line class="cls-3" x1="1568.7" y1="539.83" x2="1568.7" y2="621.57"/><line class="cls-3" x1="1371.01" y1="539.83" x2="1371.01" y2="621.57"/><line class="cls-3" x1="1406.96" y1="539.83" x2="1406.96" y2="621.57"/><line class="cls-3" x1="1388.98" y1="539.83" x2="1388.98" y2="621.57"/><line class="cls-3" x1="1442.9" y1="539.83" x2="1442.9" y2="621.57"/><line class="cls-3" x1="1424.93" y1="539.83" x2="1424.93" y2="621.57"/><line class="cls-3" x1="1478.84" y1="539.83" x2="1478.84" y2="621.57"/><line class="cls-3" x1="1496.81" y1="539.83" x2="1496.81" y2="621.57"/><line class="cls-3" x1="1460.87" y1="539.83" x2="1460.87" y2="621.57"/></g><g class="cls-10"><line class="cls-3" x1="1658.55" y1="801.95" x2="1658.55" y2="883.7"/><line class="cls-3" x1="1622.61" y1="801.95" x2="1622.61" y2="883.7"/><line class="cls-3" x1="1640.58" y1="801.95" x2="1640.58" y2="883.7"/><line class="cls-3" x1="1586.67" y1="801.95" x2="1586.67" y2="883.7"/><line class="cls-3" x1="1604.64" y1="801.95" x2="1604.64" y2="883.7"/><line class="cls-3" x1="1514.78" y1="801.95" x2="1514.78" y2="883.7"/><line class="cls-3" x1="1550.72" y1="801.95" x2="1550.72" y2="883.7"/><line class="cls-3" x1="1532.75" y1="801.95" x2="1532.75" y2="883.7"/><line class="cls-3" x1="1568.7" y1="801.95" x2="1568.7" y2="883.7"/><line class="cls-3" x1="1371.01" y1="801.95" x2="1371.01" y2="883.7"/><line class="cls-3" x1="1406.96" y1="801.95" x2="1406.96" y2="883.7"/><line class="cls-3" x1="1388.98" y1="801.95" x2="1388.98" y2="883.7"/><line class="cls-3" x1="1442.9" y1="801.95" x2="1442.9" y2="883.7"/><line class="cls-3" x1="1424.93" y1="801.95" x2="1424.93" y2="883.7"/><line class="cls-3" x1="1478.84" y1="801.95" x2="1478.84" y2="883.7"/><line class="cls-3" x1="1496.81" y1="801.95" x2="1496.81" y2="883.7"/><line class="cls-3" x1="1460.87" y1="801.95" x2="1460.87" y2="883.7"/></g><polyline class="cls-11" points="1312.4 245.38 1450.79 245.38 1450.79 383.77 1312.4 383.77 1312.4 297.08"/><polyline class="cls-11" points="766.41 1037.16 766.41 988.28 743.98 988.28"/><polyline class="cls-11" points="368.41 978.28 368.41 1092.44 766.41 1092.44 766.41 1070.63"/><rect class="cls-11" x="368.41" y="1092.44" width="398" height="39.51" transform="translate(1134.82 2224.39) rotate(-180)"/><path class="cls-11" d="M442.28,570.38a105,105,0,0,1-53.87-188.12"/><path class="cls-11" d="M556.64,474a105,105,0,0,1-90.93,95.94"/><path class="cls-11" d="M516.39,382.94a104.9,104.9,0,0,1,39.49,67.88"/><path class="cls-11" d="M660.42,799.36c61.74,0,83.55,31.3,83.55,67.17H576.87C576.87,830.65,596.42,799.36,660.42,799.36Z"/><path class="cls-11" d="M751.48,882c-14.83,0-14.83,16.18-29.66,16.18S707,882,692.15,882s-14.83,16.18-29.67,16.18S647.65,882,632.81,882,618,898.14,603.14,898.14,588.31,882,573.47,882"/><path class="cls-11" d="M585,978.28H735.89a8.09,8.09,0,0,1,8.09,8.09v18.36a0,0,0,0,1,0,0H576.87a0,0,0,0,1,0,0V986.38a8.09,8.09,0,0,1,8.09-8.09Z" transform="translate(1320.85 1983.03) rotate(-180)"/><line class="cls-11" x1="754.12" y1="918.16" x2="358.27" y2="918.16"/><line class="cls-11" x1="662.8" y1="839.34" x2="658.05" y2="839.34"/><line class="cls-11" x1="615.47" y1="839.34" x2="620.22" y2="839.34"/><line class="cls-11" x1="642.61" y1="822.32" x2="637.86" y2="822.32"/><line class="cls-11" x1="705.38" y1="839.34" x2="700.63" y2="839.34"/><line class="cls-11" x1="678.24" y1="822.32" x2="682.99" y2="822.32"/><path class="cls-11" d="M452,724.82c61.74,0,83.55,31.3,83.55,67.17H368.41C368.41,756.12,388,724.82,452,724.82Z"/><path class="cls-11" d="M543,839.74c-14.83,0-14.83,16.18-29.66,16.18s-14.83-16.18-29.67-16.18S468.85,855.92,454,855.92s-14.83-16.18-29.67-16.18-14.83,16.18-29.67,16.18"/><path class="cls-11" d="M543,808.84c-14.83,0-14.83,16.18-29.66,16.18s-14.83-16.18-29.67-16.18S468.85,825,454,825s-14.83-16.18-29.67-16.18S409.52,825,394.68,825,379.85,808.84,365,808.84"/><rect class="cls-11" x="358.27" y="874.04" width="191.49" height="24.02" rx="8.09" ry="8.09" transform="translate(908.03 1772.09) rotate(-180)"/><path class="cls-11" d="M376.5,978.28H527.42a8.09,8.09,0,0,1,8.09,8.09v18.36a0,0,0,0,1,0,0H368.41a0,0,0,0,1,0,0V986.38A8.09,8.09,0,0,1,376.5,978.28Z" transform="translate(903.93 1983.03) rotate(-180)"/><line class="cls-11" x1="451.96" y1="767.18" x2="451.96" y2="762.43"/><line class="cls-11" x1="409.39" y1="762.43" x2="409.39" y2="767.18"/><line class="cls-11" x1="431.77" y1="750.16" x2="431.77" y2="745.41"/><line class="cls-11" x1="494.54" y1="767.18" x2="494.54" y2="762.43"/><line class="cls-11" x1="472.15" y1="745.41" x2="472.15" y2="750.16"/><rect class="cls-11" x="356.92" y="938.26" width="401.3" height="24.02" rx="8.09" ry="8.09" transform="translate(1115.14 1900.53) rotate(-180)"/><line class="cls-11" x1="1129.99" y1="1039.51" x2="1129.99" y2="907.07"/><path class="cls-11" d="M1151.42,871.34v14.29a21.44,21.44,0,0,1-42.88,0V871.34Z"/><line class="cls-11" x1="1151.42" y1="871.34" x2="1151.42" y2="805.58"/><line class="cls-11" x1="1129.98" y1="871.34" x2="1129.98" y2="805.58"/><line class="cls-11" x1="1108.54" y1="871.34" x2="1108.54" y2="805.58"/><line class="cls-11" x1="285.54" y1="1049.19" x2="393.04" y2="1049.19"/><path class="cls-11" d="M428.78,1070.63H414.48a21.44,21.44,0,1,1,0-42.88h14.29Z"/><line class="cls-11" x1="428.78" y1="1070.63" x2="494.54" y2="1070.63"/><line class="cls-11" x1="428.78" y1="1049.19" x2="494.54" y2="1049.19"/><line class="cls-11" x1="428.78" y1="1027.75" x2="494.54" y2="1027.75"/><path class="cls-11" d="M1056.06,803.71h0a15,15,0,0,1,15,15v192.64a30,30,0,0,1-30,30h0a0,0,0,0,1,0,0V818.72A15,15,0,0,1,1056.06,803.71Z" transform="translate(2112.12 1845.08) rotate(-180)"/><line class="cls-11" x1="1071.07" y1="946.75" x2="1041.05" y2="946.75"/><path class="cls-11" d="M696.05,936.79h0a15,15,0,0,1,15,15v192.64a30,30,0,0,1-30,30h0a0,0,0,0,1,0,0V951.8A15,15,0,0,1,696.05,936.79Z" transform="translate(1751.67 359.57) rotate(90)"/><line class="cls-11" x1="720.26" y1="1040.61" x2="720.26" y2="1070.63"/><rect class="cls-11" x="394.65" y="163.65" width="118.74" height="156.54" rx="12" ry="12"/><rect class="cls-11" x="423.43" y="194.41" width="61.18" height="71.25"/><line class="cls-11" x1="442.32" y1="243.51" x2="465.71" y2="243.51"/><line class="cls-11" x1="442.32" y1="222.57" x2="465.71" y2="222.57"/><rect class="cls-11" x="410.82" y="321.15" width="86.39" height="30.04"/><line class="cls-11" x1="454.01" y1="351.18" x2="454.01" y2="325.03"/><line class="cls-11" x1="474.59" y1="351.18" x2="474.59" y2="325.03"/><line class="cls-11" x1="433.44" y1="351.18" x2="433.44" y2="325.03"/><polygon class="cls-11" points="461.32 403.18 454.01 403.18 446.71 403.18 433.44 353.68 454.01 353.68 474.59 353.68 461.32 403.18"/><path class="cls-11" d="M747.15,490.43,840,478.36V451.61l-92.89-12.07a39.7,39.7,0,0,0-32-16.12H583.93v83.14H715.17A39.7,39.7,0,0,0,747.15,490.43Z"/><rect class="cls-11" x="639.54" y="405.97" width="55.21" height="89.69" transform="translate(216.33 1117.96) rotate(-90)"/><path class="cls-11" d="M864.26,483a9,9,0,0,1,0-18"/><path class="cls-11" d="M864.26,465a9,9,0,0,1,0-18"/><line class="cls-11" x1="882.29" y1="479.16" x2="882.29" y2="450.81"/><line class="cls-11" x1="1096.52" y1="537.58" x2="1096.52" y2="391.36"/><line class="cls-11" x1="1061.94" y1="550.61" x2="1061.94" y2="491.29"/><line class="cls-11" x1="1123.1" y1="554.02" x2="1123.1" y2="434.94"/><line class="cls-11" x1="1184.26" y1="558.92" x2="1184.26" y2="520.74"/><line class="cls-11" x1="1198.42" y1="747.79" x2="1198.42" y2="1020.21"/><ellipse class="cls-11" cx="1198.42" cy="1070.96" rx="30.46" ry="50.75"/><path class="cls-11" d="M1188.39,1044.9a10.2,10.2,0,1,1,20.41,0"/><line class="cls-11" x1="775.38" y1="314.57" x2="775.38" y2="337.96"/><line class="cls-11" x1="796.32" y1="314.57" x2="796.32" y2="337.96"/><line class="cls-11" x1="754.44" y1="314.57" x2="754.44" y2="337.96"/><path class="cls-11" d="M572.52,346.4H540.71V306.14h31.81c40,0,79.65-9.93,113.84-30.67a59.08,59.08,0,0,1,30.74-8.57H843.24a12,12,0,0,1,12,12v94.74a12,12,0,0,1-12,12H717.1a59.08,59.08,0,0,1-30.74-8.57C652.17,356.33,612.5,346.4,572.52,346.4Z"/><rect class="cls-11" x="533.52" y="313.33" width="40.26" height="25.88" transform="translate(879.92 -227.38) rotate(90)"/><path class="cls-11" d="M706.17,356.85a30.59,30.59,0,0,1,0-61.17H824.47v61.17Z"/><circle class="cls-11" cx="714.81" cy="326.27" r="11.7"/><polyline class="cls-11" points="857.85 870.62 933.35 870.62 933.35 1000.73 803.24 1000.73 803.24 870.62 839.14 870.62"/><path class="cls-11" d="M933.35,843.79h40.57A11.19,11.19,0,0,1,985.12,855v81.1a11.19,11.19,0,0,1-11.19,11.19H933.35a0,0,0,0,1,0,0V843.79A0,0,0,0,1,933.35,843.79Z"/><rect class="cls-11" x="933.35" y="870.8" width="32.05" height="51.74"/><path class="cls-11" d="M837.76,783.7a34.28,34.28,0,1,0,2.6,62.58V903.6a8.74,8.74,0,1,0,17.49,0V835.43A34.36,34.36,0,0,0,885.26,831a34.28,34.28,0,1,0,7.51-50.81,34.25,34.25,0,0,0-55,3.51Z"/><line class="cls-11" x1="803.24" y1="870.62" x2="803.24" y2="844.69"/><line class="cls-11" x1="868.29" y1="1019.4" x2="868.29" y2="972.67"/><line class="cls-11" x1="897.44" y1="1019.4" x2="897.44" y2="972.67"/><line class="cls-11" x1="839.15" y1="1019.4" x2="839.15" y2="972.67"/><line class="cls-11" x1="451.96" y1="724.82" x2="451.96" y2="655"/><circle class="cls-11" cx="451.96" cy="617.15" r="34.5"/><circle class="cls-11" cx="959.08" cy="675.89" r="14.3"/><circle class="cls-11" cx="999.02" cy="615.32" r="14.3"/><circle class="cls-11" cx="984.73" cy="752.88" r="14.3"/><circle class="cls-11" cx="994.44" cy="1007.62" r="14.3"/><circle class="cls-11" cx="897.44" cy="927.79" r="14.3"/><circle class="cls-11" cx="839.15" cy="927.79" r="14.3"/><path class="cls-11" d="M203.07,811.4c-1.19-7.4-8.59-15.74-18.12-15.74s-16.17,9.07-16.17,19.08c0,19,17.14,32.71,34.29,43.21,17.14-10.5,34.29-24.22,34.29-43.21,0-10-6.64-19.08-16.17-19.08S204.26,804,203.07,811.4Z"/><path class="cls-11" d="M660.42,587.85c-1.49-9.28-10.77-19.74-22.71-19.74S617.43,579.48,617.43,592c0,23.8,21.5,41,43,54.17,21.5-13.16,43-30.37,43-54.17,0-12.56-8.33-23.93-20.28-23.93S661.91,578.57,660.42,587.85Z"/><path class="cls-11" d="M563.49,677.23c9.28-1.49,19.74-10.77,19.74-22.71s-11.37-20.28-23.93-20.28c-23.8,0-41,21.5-54.17,43,13.16,21.5,30.37,43,54.17,43,12.56,0,23.93-8.33,23.93-20.28S572.77,678.72,563.49,677.23Z"/><line class="cls-11" x1="660.42" y1="799.36" x2="660.42" y2="646.21"/><line class="cls-11" x1="624.8" y1="803.17" x2="624.8" y2="615.32"/><line class="cls-11" x1="642.61" y1="799.36" x2="642.61" y2="638"/><line class="cls-11" x1="696.05" y1="803.17" x2="696.05" y2="615.32"/><line class="cls-11" x1="678.24" y1="799.36" x2="678.24" y2="638"/><path class="cls-11" d="M809.23,522.41H811a13.67,13.67,0,0,1,13.67,13.67V750.16a0,0,0,0,1,0,0H795.56a0,0,0,0,1,0,0V536.08a13.67,13.67,0,0,1,13.67-13.67Z" transform="translate(1620.27 1272.57) rotate(-180)"/><path class="cls-11" d="M839.56,536.38h0A14.57,14.57,0,0,1,854.14,551V701a2.85,2.85,0,0,1-2.85,2.85H827.84A2.85,2.85,0,0,1,825,701V551a14.57,14.57,0,0,1,14.57-14.57Z" transform="translate(1679.13 1240.28) rotate(180)"/><path class="cls-11" d="M897.44,556.18h0A14.57,14.57,0,0,1,912,570.75V720.84a2.85,2.85,0,0,1-2.85,2.85H885.72a2.85,2.85,0,0,1-2.85-2.85V570.75A14.57,14.57,0,0,1,897.44,556.18Z" transform="translate(1794.89 1279.87) rotate(180)"/><path class="cls-11" d="M868.16,522.41h0A14.57,14.57,0,0,1,882.73,537v90.24a0,0,0,0,1,0,0H853.58a0,0,0,0,1,0,0V537A14.57,14.57,0,0,1,868.16,522.41Z" transform="translate(1736.31 1149.63) rotate(180)"/><path class="cls-11" d="M781,548.62h0a14.57,14.57,0,0,1,14.57,14.57v90.24a0,0,0,0,1,0,0H766.41a0,0,0,0,1,0,0V563.19A14.57,14.57,0,0,1,781,548.62Z" transform="translate(1561.97 1202.04) rotate(-180)"/><path class="cls-11" d="M928.66,522.41h0A14.57,14.57,0,0,1,943.23,537v90.24a0,0,0,0,1,0,0H914.08a0,0,0,0,1,0,0V537a14.57,14.57,0,0,1,14.57-14.57Z" transform="translate(1857.31 1149.63) rotate(-180)"/><rect class="cls-11" x="944.01" y="485.17" width="29.15" height="104.81" rx="14.57" ry="14.57" transform="translate(1917.18 1075.16) rotate(180)"/><path class="cls-11" d="M452,516.89a54.58,54.58,0,0,1,54.58-54.58"/><line class="cls-11" x1="504.43" y1="462.31" x2="583.93" y2="462.31"/><line class="cls-11" x1="451.96" y1="516.89" x2="451.96" y2="582.65"/><circle class="cls-11" cx="433.44" cy="460.66" r="11.2"/><circle class="cls-11" cx="406.26" cy="510.55" r="11.2"/><circle class="cls-11" cx="395.06" cy="582.65" r="11.2"/><circle class="cls-11" cx="451.96" cy="627.22" r="10.38"/><line class="cls-11" x1="876.64" y1="952.41" x2="884.34" y2="960.12"/><line class="cls-11" x1="859.95" y1="952.41" x2="852.25" y2="960.12"/><path class="cls-11" d="M285.54,1049.19a23,23,0,1,1,0-46"/><path class="cls-11" d="M308.55,874a23,23,0,0,1,23-23"/><path class="cls-11" d="M308.55,980.18a23,23,0,0,1-23,23"/><line class="cls-11" x1="308.55" y1="980.18" x2="308.55" y2="874.04"/><path class="cls-11" d="M331.56,815.73a17.65,17.65,0,0,1,0,35.3"/><path class="cls-11" d="M331.56,815.73a17.65,17.65,0,0,1-17.65-17.65V709.23a32,32,0,0,1,32-32h89.87"/><polygon class="cls-11" points="371.04 834.51 382.79 854.88 359.29 854.88 371.04 834.51"/><path class="cls-11" d="M1120.91,574.81c57,0,77.12,28.89,77.12,62H1043.79C1043.79,603.7,1061.83,574.81,1120.91,574.81Z"/><path class="cls-11" d="M1205,651.06c-13.69,0-13.69,14.94-27.38,14.94s-13.69-14.94-27.38-14.94S1136.5,666,1122.81,666s-13.69-14.94-27.38-14.94S1081.73,666,1068,666s-13.69-14.94-27.39-14.94"/><rect class="cls-11" x="1034.43" y="703.02" width="176.75" height="22.17" rx="7.47" ry="7.47" transform="translate(2245.61 1428.22) rotate(-180)"/><path class="cls-11" d="M1051.25,740h139.31a7.47,7.47,0,0,1,7.47,7.47v17a0,0,0,0,1,0,0H1043.79a0,0,0,0,1,0,0v-17a7.47,7.47,0,0,1,7.47-7.47Z" transform="translate(2241.82 1504.36) rotate(-180)"/><line class="cls-11" x1="1207.39" y1="684.47" x2="1034.43" y2="684.47"/><line class="cls-11" x1="1123.1" y1="611.72" x2="1118.72" y2="611.72"/><line class="cls-11" x1="1079.42" y1="611.72" x2="1083.8" y2="611.72"/><line class="cls-11" x1="1104.47" y1="596.01" x2="1100.08" y2="596.01"/><line class="cls-11" x1="1162.4" y1="611.72" x2="1158.02" y2="611.72"/><line class="cls-11" x1="1137.35" y1="596.01" x2="1141.74" y2="596.01"/><path class="cls-11" d="M1596.34,915.4c73.52,0,99.49,37.26,99.49,80h-199C1496.85,952.67,1520.13,915.4,1596.34,915.4Z"/><path class="cls-11" d="M1704.76,1013.76c-17.66,0-17.66,19.27-35.32,19.27s-17.66-19.27-35.32-19.27-17.66,19.27-35.32,19.27-17.66-19.27-35.32-19.27S1545.8,1033,1528.14,1033s-17.66-19.27-35.33-19.27"/><rect class="cls-11" x="1484.78" y="1080.79" width="228.01" height="28.6" rx="9.63" ry="9.63" transform="translate(3197.57 2190.18) rotate(-180)"/><path class="cls-11" d="M1506.49,1128.46H1686.2a9.63,9.63,0,0,1,9.63,9.63V1160a0,0,0,0,1,0,0h-199a0,0,0,0,1,0,0v-21.87a9.63,9.63,0,0,1,9.63-9.63Z" transform="translate(3192.69 2288.41) rotate(-180)"/><line class="cls-11" x1="1707.9" y1="1056.86" x2="1484.78" y2="1056.86"/><line class="cls-11" x1="1599.17" y1="963.01" x2="1593.51" y2="963.01"/><line class="cls-11" x1="1542.82" y1="963.01" x2="1548.47" y2="963.01"/><line class="cls-11" x1="1575.13" y1="942.75" x2="1569.48" y2="942.75"/><line class="cls-11" x1="1649.87" y1="963.01" x2="1644.21" y2="963.01"/><line class="cls-11" x1="1617.55" y1="942.75" x2="1623.21" y2="942.75"/><path class="cls-11" d="M936.85,1053.68c75.25,0,101.82,38.14,101.82,81.86H835C835,1091.82,858.85,1053.68,936.85,1053.68Z"/><path class="cls-11" d="M1047.81,1154.34c-18.08,0-18.08,19.72-36.15,19.72s-18.08-19.72-36.15-19.72-18.08,19.72-36.15,19.72-18.08-19.72-36.15-19.72-18.08,19.72-36.16,19.72-18.08-19.72-36.16-19.72"/><line class="cls-11" x1="1051.03" y1="1198.46" x2="822.67" y2="1198.46"/><path class="cls-11" d="M118.18,930.47c75.25,0,101.82,38.14,101.82,81.86H16.36C16.36,968.61,40.18,930.47,118.18,930.47Z"/><path class="cls-11" d="M229.14,1106.25c-18.08,0-18.08,19.72-36.15,19.72s-18.08-19.72-36.15-19.72S138.76,1126,120.68,1126s-18.08-19.72-36.15-19.72S66.45,1126,48.37,1126s-18.08-19.72-36.16-19.72"/><rect class="cls-11" x="4" y="1174.86" width="233.36" height="29.27" rx="9.86" ry="9.86" transform="translate(241.36 2378.98) rotate(-180)"/><rect class="cls-11" x="4" y="1037.16" width="233.36" height="29.27" rx="9.86" ry="9.86" transform="translate(241.36 2103.59) rotate(-180)"/><path class="cls-11" d="M26.22,1223.64H210.14a9.86,9.86,0,0,1,9.86,9.86v22.38a0,0,0,0,1,0,0H16.36a0,0,0,0,1,0,0V1233.5A9.86,9.86,0,0,1,26.22,1223.64Z" transform="translate(236.36 2479.52) rotate(-180)"/><line class="cls-11" x1="232.36" y1="1150.36" x2="4" y2="1150.36"/><line class="cls-11" x1="232.36" y1="1085.73" x2="4" y2="1085.73"/><path class="cls-11" d="M1514.44,560c41.26,0,55.84,20.92,55.84,44.89H1458.6C1458.6,581,1471.67,560,1514.44,560Z"/><path class="cls-11" d="M1575.3,625.25c-9.91,0-9.91,10.81-19.83,10.81s-9.91-10.81-19.83-10.81-9.91,10.81-19.83,10.81-9.91-10.81-19.83-10.81-9.91,10.81-19.83,10.81-9.91-10.81-19.83-10.81"/><path class="cls-11" d="M1456.33,684.72c9.91,0,9.91-10.81,19.83-10.81s9.91,10.81,19.83,10.81,9.91-10.81,19.83-10.81,9.91,10.81,19.83,10.81,9.91-10.81,19.83-10.81,9.91,10.81,19.83,10.81"/><path class="cls-11" d="M1456.33,817.65c9.91,0,9.91-10.81,19.83-10.81s9.91,10.81,19.83,10.81,9.91-10.81,19.83-10.81,9.91,10.81,19.83,10.81,9.91-10.81,19.83-10.81,9.91,10.81,19.83,10.81"/><rect class="cls-11" x="1451.83" y="723.43" width="127.97" height="16.05" rx="5.41" ry="5.41" transform="translate(3031.63 1462.92) rotate(-180)"/><rect class="cls-11" x="1451.83" y="755.06" width="127.97" height="16.05" rx="5.41" ry="5.41" transform="translate(3031.63 1526.17) rotate(-180)"/><path class="cls-11" d="M1464,834h100.86a5.41,5.41,0,0,1,5.41,5.41v12.27a0,0,0,0,1,0,0H1458.6a0,0,0,0,1,0,0V839.39A5.41,5.41,0,0,1,1464,834Z" transform="translate(3028.89 1685.65) rotate(-180)"/><line class="cls-11" x1="1577.06" y1="653.52" x2="1451.83" y2="653.52"/><line class="cls-11" x1="1639.7" y1="701.49" x2="1451.83" y2="701.49"/><line class="cls-11" x1="1577.06" y1="792.02" x2="1451.83" y2="792.02"/><polygon class="cls-11" points="1514.44 414.21 1504.88 443.65 1473.92 443.65 1498.96 461.85 1489.4 491.29 1514.44 473.1 1539.49 491.29 1529.92 461.85 1554.97 443.65 1524.01 443.65 1514.44 414.21"/><line class="cls-11" x1="1514.44" y1="560.04" x2="1514.44" y2="473.1"/><path class="cls-11" d="M1262.19,314.24c0,57-28.89,77.12-62,77.12V237.12C1233.3,237.12,1262.19,255.16,1262.19,314.24Z"/><path class="cls-11" d="M1185.95,398.29c0-13.69-14.94-13.69-14.94-27.38s14.94-13.69,14.94-27.38S1171,329.83,1171,316.14s14.94-13.69,14.94-27.38S1171,275.06,1171,261.37s14.94-13.69,14.94-27.39"/><rect class="cls-11" x="1034.52" y="305.05" width="176.75" height="22.17" rx="7.47" ry="7.47" transform="translate(806.76 1439.03) rotate(-90)"/><path class="cls-11" d="M1015.17,302h139.31a7.47,7.47,0,0,1,7.47,7.47v17a0,0,0,0,1,0,0H1007.7a0,0,0,0,1,0,0v-17A7.47,7.47,0,0,1,1015.17,302Z" transform="translate(770.58 1399.06) rotate(-90)"/><line class="cls-11" x1="1152.53" y1="539.83" x2="1152.53" y2="227.76"/><line class="cls-11" x1="505.13" y1="677.23" x2="468.85" y2="677.23"/><rect class="cls-11" x="883.15" y="233.78" width="151.86" height="151.86" transform="translate(1918.16 619.42) rotate(-180)"/><rect class="cls-11" x="883.15" y="283.67" width="101.97" height="101.97" transform="translate(1868.27 669.31) rotate(-180)"/><line class="cls-11" x1="985.12" y1="283.67" x2="1035.01" y2="233.78"/><polygon class="cls-11" points="934.13 283.42 922.1 320.46 883.15 320.46 914.66 343.35 902.62 380.39 934.13 357.5 965.64 380.39 953.61 343.35 985.12 320.46 946.17 320.46 934.13 283.42"/><rect class="cls-11" x="999.02" y="197.18" width="35.99" height="35.99" transform="translate(2034.03 430.34) rotate(-180)"/><rect class="cls-11" x="963.04" y="197.18" width="35.99" height="35.99" transform="translate(1962.06 430.34) rotate(-180)"/><rect class="cls-11" x="963.04" y="160.58" width="35.99" height="35.99" transform="translate(1962.06 357.14) rotate(-180)"/><rect class="cls-11" x="927.05" y="160.58" width="35.99" height="35.99" transform="translate(1890.09 357.14) rotate(-180)"/><rect class="cls-11" x="891.07" y="124.59" width="35.99" height="35.99" transform="translate(1818.12 285.17) rotate(-180)"/><rect class="cls-11" x="925.24" y="91.45" width="35.99" height="35.99" transform="translate(1886.46 218.88) rotate(-180)"/><rect class="cls-11" x="1355.66" y="302.81" width="93" height="36.56" transform="translate(2620.68 -443.34) rotate(135)"/><rect class="cls-11" x="1279.66" y="287.86" width="135.29" height="36.56" transform="translate(611.09 -863.02) rotate(45)"/><polyline class="cls-11" points="252.89 191.08 361.49 191.08 361.49 299.67 252.89 299.67 252.89 231.65"/><rect class="cls-11" x="286.84" y="236.15" width="72.97" height="28.69" transform="translate(729.08 198.99) rotate(135)"/><rect class="cls-11" x="227.2" y="224.41" width="106.16" height="28.69" transform="translate(250.92 -128.26) rotate(45)"/><polyline class="cls-11" points="182.5 792.55 182.5 782.55 286.42 782.55 286.42 886.47 182.5 886.47 182.5 842.62"/><rect class="cls-11" x="1310.24" y="746.65" width="70.27" height="70.27" transform="translate(2690.75 1563.58) rotate(-180)"/><rect class="cls-11" x="1239.97" y="746.65" width="70.27" height="70.27" transform="translate(2550.2 1563.58) rotate(-180)"/><rect class="cls-11" x="1382.79" y="699.32" width="45.06" height="45.06" transform="translate(2810.64 1443.7) rotate(-180)"/><rect class="cls-11" x="1310.24" y="816.93" width="70.27" height="70.27" transform="translate(2690.75 1704.13) rotate(-180)"/><line class="cls-11" x1="1380.51" y1="746.65" x2="1310.24" y2="816.93"/><line class="cls-11" x1="1310.24" y1="746.65" x2="1380.51" y2="816.93"/><rect class="cls-11" x="1330.02" y="650.64" width="50.49" height="50.49" transform="translate(2710.54 1351.78) rotate(-180)"/><line class="cls-11" x1="1380.51" y1="650.64" x2="1330.02" y2="701.13"/><rect class="cls-11" x="1239.97" y="816.93" width="70.27" height="70.27" transform="translate(2550.2 1704.13) rotate(-180)"/><line class="cls-11" x1="1310.24" y1="816.93" x2="1239.97" y2="887.2"/><line class="cls-11" x1="1239.97" y1="816.93" x2="1310.24" y2="887.2"/><path class="cls-11" d="M1422.22,887.2h45.56a0,0,0,0,1,0,0v162a0,0,0,0,1,0,0H1260.24a0,0,0,0,1,0,0v0A162,162,0,0,1,1422.22,887.2Z" transform="translate(2728.02 1936.39) rotate(-180)"/><path class="cls-11" d="M1467.78,923.75h0a162,162,0,0,1-162,162h-45.56v-36.55"/><path class="cls-11" d="M296.35,467.1a19.54,19.54,0,1,1,0,39.08h-76.1a19.54,19.54,0,0,1,0-39.08c.51,0,1,0,1.52.05a24.1,24.1,0,0,1,44.08-16.23,19.54,19.54,0,0,1,30.5,16.18Z"/><path class="cls-11" d="M736.62,190.51a22.78,22.78,0,0,0,0,45.57h88.74a22.78,22.78,0,1,0,0-45.57c-.6,0-1.19,0-1.77.06a28.1,28.1,0,0,0-51.4-18.93,22.79,22.79,0,0,0-35.57,18.86Z"/><path class="cls-11" d="M1035,385.64h0a62.81,62.81,0,0,1-62.81,62.81H909.06"/><path class="cls-11" d="M307.19,299.67v30.84a64,64,0,0,0,64,64H375"/><path class="cls-11" d="M1448,301.14h35.85a32,32,0,0,0,32-32v-40a32,32,0,0,0-32-32h-79.9a21.13,21.13,0,0,1-21.13-21.13h0a21.13,21.13,0,0,0-21.13-21.13h-37.29"/><circle class="cls-11" cx="1304.34" cy="154.92" r="20.02"/><circle class="cls-11" cx="1216.19" cy="154.92" r="20.02"/><circle class="cls-11" cx="1102.82" cy="154.92" r="20.02"/><circle class="cls-11" cx="1216.19" cy="154.92" r="36.59"/><circle class="cls-11" cx="1102.82" cy="154.92" r="48.65"/><path class="cls-11" d="M616,197.18h55.33a0,0,0,0,1,0,0v73a0,0,0,0,1,0,0H543a0,0,0,0,1,0,0v0A73,73,0,0,1,616,197.18Z" transform="translate(1214.37 467.36) rotate(-180)"/><circle class="cls-11" cx="254.8" cy="613.68" r="78.53"/><line class="cls-11" x1="254.8" y1="692.21" x2="254.8" y2="535.16"/><line class="cls-11" x1="254.8" y1="585.2" x2="198.31" y2="559.15"/><line class="cls-11" x1="254.8" y1="629.96" x2="180.55" y2="595.72"/><line class="cls-11" x1="254.8" y1="666.57" x2="180.48" y2="632.3"/><line class="cls-11" x1="254.8" y1="585.2" x2="311.3" y2="559.15"/><line class="cls-11" x1="254.8" y1="629.96" x2="329.05" y2="595.72"/><line class="cls-11" x1="254.8" y1="666.57" x2="329.13" y2="632.3"/><rect class="cls-11" x="243.99" y="691.47" width="21.62" height="90.43" transform="translate(509.61 1473.36) rotate(-180)"/><path class="cls-11" d="M1639.7,701.58a20.36,20.36,0,0,1,20.36,20.36"/><path class="cls-11" d="M1660.06,721.94v28.66A41.39,41.39,0,0,0,1701.45,792h0a41.39,41.39,0,0,1,41.39,41.39v196.18a41.39,41.39,0,0,0,41.39,41.39h305.51"/><rect class="cls-11" x="1742.84" y="886.05" width="139.92" height="41.74" transform="translate(3625.6 1813.83) rotate(-180)"/><polyline class="cls-11" points="1882.76 906.92 1964.11 906.92 1934.46 927.78 1964.11 948.65 1824.19 948.65 1824.19 930.49"/><path class="cls-11" d="M1389.86,458.63a35.75,35.75,0,0,1,0,71.5H1250.62a35.75,35.75,0,0,1,0-71.5c.94,0,1.86,0,2.78.1A44.1,44.1,0,0,1,1334,429a35.76,35.76,0,0,1,55.81,29.6Z"/><path class="cls-11" d="M1214.13,490.87h0a29.87,29.87,0,0,0-29.87,29.87h0"/><line class="cls-11" x1="1198.42" y1="1121.71" x2="1198.42" y2="1239.7"/><rect class="cls-11" x="714.81" y="1131.95" width="29.17" height="107.75" transform="translate(1458.78 2371.65) rotate(-180)"/><rect class="cls-11" x="390.84" y="1131.95" width="29.17" height="107.75"/><line class="cls-11" x1="576.87" y1="988.28" x2="536.14" y2="988.28"/><path class="cls-11" d="M393,4V24.49a29.58,29.58,0,0,0,29.58,29.58h0a29.58,29.58,0,0,1,29.58,29.58V162"/></g></g></svg>