<svg width="131" height="74" viewBox="0 0 131 74" fill="none" xmlns="http://www.w3.org/2000/svg">
<path d="M65.5 73.3387C101.675 73.3387 131 56.9213 131 36.6694C131 16.4174 101.675 0 65.5 0C29.3254 0 0 16.4174 0 36.6694C0 56.9213 29.3254 73.3387 65.5 73.3387Z" fill="#CF3339"/>
<path d="M11.9574 38.5293C11.0274 41.9837 12.4888 45.0394 16.8732 45.0394C19.3975 45.0394 21.5233 43.578 22.0547 41.5851C22.5862 39.3265 21.2576 37.865 19.7961 36.4035L18.3347 34.9421C16.4746 33.082 15.0132 31.3549 15.6775 28.4319C16.6075 24.3133 20.9919 21.7889 25.9077 21.7889C28.5649 21.7889 30.5578 22.5861 32.1521 23.9147C35.3408 27.2362 31.355 29.2291 30.4249 29.0962C30.1592 29.0962 30.1592 28.9634 30.1592 28.9634C30.9564 26.3062 30.1592 23.3833 26.4391 23.3833C24.3134 23.3833 21.789 24.4461 21.3904 26.3062C20.859 28.4319 22.4533 29.8934 23.7819 31.3549L25.1105 32.6835C27.2363 34.6764 28.8306 36.6693 28.1663 39.725C27.1034 44.2423 22.5862 46.8995 17.2718 46.8995C14.3489 46.8995 11.4259 45.9695 9.83163 44.2423C6.64298 40.3893 10.2302 38.5293 11.9574 38.5293Z" fill="white"/>
<path d="M48.6269 55.4027L53.8084 43.9768H53.9413C54.6056 45.4382 56.0671 46.3683 58.06 46.3683C64.703 46.3683 69.2202 39.991 69.8845 35.208C69.8845 35.208 70.0174 34.5437 69.8845 33.8794C69.7517 31.6208 68.1573 29.8936 64.8358 29.8936C62.4444 29.8936 60.3186 30.8236 58.8571 32.2851L58.7243 32.1522L59.2557 30.8236C58.5914 29.495 57.3957 28.4321 55.9342 28.0336L45.1725 52.0812C45.8368 53.8084 47.1655 55.0042 48.6269 55.4027ZM64.703 34.4109C64.4373 37.0681 61.1158 44.5082 56.9971 44.5082C55.4028 44.5082 54.8713 43.3125 55.0042 42.1167C55.2699 39.8581 58.3257 32.1522 62.4444 32.1522C64.1715 32.1522 64.8358 33.2151 64.703 34.4109Z" fill="white"/>
<path d="M47.2981 44.2423C47.0324 44.3751 46.7666 44.508 46.5009 44.508C45.8366 44.508 45.7038 43.7108 45.8366 43.1794C45.9695 42.6479 46.6338 41.0536 46.8995 40.3893L51.5496 30.4248C50.0881 29.8934 48.361 29.8934 46.7666 30.4248L45.7038 32.5506C45.0395 30.9563 43.578 30.1591 41.4522 30.1591C34.9421 30.1591 29.4948 36.4035 28.9634 41.1865C28.5648 44.1094 30.1591 46.5009 34.0121 46.5009C37.0679 46.5009 39.7251 44.6409 41.3194 42.648L41.4522 42.7808C41.4522 42.7808 41.1865 43.578 41.1865 44.1094C41.0537 45.438 42.1165 46.6338 43.8437 46.6338C44.9066 46.6338 45.9695 46.368 46.8995 45.8366L47.2981 44.2423ZM44.3752 34.2778C44.1094 36.935 40.3894 44.3751 36.2707 44.3751C34.6764 44.3751 34.2778 43.0465 34.4107 41.9837C34.6764 39.3265 38.2636 32.2849 42.2494 32.2849C43.8437 32.152 44.508 33.082 44.3752 34.2778Z" fill="white"/>
<path d="M87.6877 37.0681L90.4778 31.7537C90.4778 31.7537 88.8835 31.6209 87.9534 31.6209C87.2891 31.6209 85.6948 31.3552 85.6948 31.3552L84.3662 33.7466C83.1705 36.1381 79.0518 44.1097 75.3317 44.1097C74.5346 44.1097 74.0031 43.844 74.136 43.1797C74.2689 42.3825 77.3246 36.8024 77.3246 36.8024C77.9889 35.6067 78.919 33.7466 79.0518 32.5509C79.1847 31.0894 77.9889 30.1594 76.2618 30.1594C74.8003 30.1594 72.9403 30.8237 71.4788 31.7537C71.6117 32.0195 71.7445 32.2852 71.8774 32.6838C72.4088 32.5509 72.8074 32.418 73.0731 32.418C73.6046 32.418 73.8703 32.8166 73.7374 33.2152C73.6046 33.6138 70.9474 39.1939 70.9474 39.1939C70.2831 40.3896 69.2202 42.3825 69.0873 43.5783C68.8216 45.4383 70.4159 46.5012 72.4088 46.5012C75.996 46.5012 78.919 44.1097 81.0447 41.3197L81.1776 41.4525C80.9119 42.2497 80.6461 42.914 80.5133 43.844C80.3804 45.3055 81.3104 46.5012 83.1705 46.5012C84.8977 46.5012 86.3591 45.8369 87.6877 44.774C87.5549 44.3754 87.5549 44.1097 87.5549 43.7111V43.5783C87.1563 43.844 86.6248 44.1097 86.2263 44.1097C85.562 44.1097 85.4291 43.4454 85.562 42.914C85.6948 41.4525 87.0234 38.5296 87.6877 37.0681Z" fill="white"/>
<path d="M115.455 30.2916C113.064 28.5644 108.679 27.2358 101.239 27.103L102.966 23.25C101.505 22.7186 99.7778 22.7186 98.3164 23.25L96.4563 27.103C91.5405 27.3687 85.5618 28.6973 74.8001 26.4387L74.5344 26.9701C80.5131 29.4944 89.6805 30.0259 94.9949 30.0259L91.1419 38.1303C90.7433 38.9275 90.3448 39.8575 89.9462 40.9204C89.2819 42.249 89.149 43.179 89.149 43.7105C89.0162 45.3048 90.4776 46.6334 92.4705 46.6334C94.862 46.6334 96.8549 45.3048 98.3164 43.8433C98.1835 43.5776 97.9178 43.179 97.9178 42.7804C97.6521 43.0462 97.1206 43.4447 96.8549 43.7105C96.3235 44.109 95.6592 44.3748 95.1277 44.3748C94.3306 44.3748 94.1977 43.7105 94.1977 43.179C94.3306 42.1161 95.3935 39.9904 95.9249 38.9275L100.044 29.7602C104.162 29.3616 109.211 28.8301 112.001 30.4245C108.148 30.6902 104.162 31.8859 101.771 34.8088C100.309 36.4032 99.5121 38.3961 99.2464 40.389C99.1135 41.1861 99.2464 41.9833 99.2464 42.249C99.7778 44.9062 102.169 46.6334 106.022 46.6334C112.4 46.6334 117.98 41.5847 118.511 36.6689C118.511 36.536 119.043 34.4103 117.448 32.1516C119.574 32.9488 121.168 34.2774 121.567 34.9417C122.63 34.5431 123.693 33.6131 124.224 32.4174C123.161 31.4873 119.574 30.4245 115.455 30.2916ZM110.141 42.249C107.085 46.5005 102.302 46.5005 104.029 40.5218C104.295 39.5918 106.421 31.8859 112.931 31.3545C113.197 31.7531 113.462 32.2845 113.462 32.8159C114.127 35.2074 112.267 39.4589 110.141 42.249Z" fill="white"/>
</svg>
