<svg width="71" height="76" viewBox="0 0 71 76" fill="none" xmlns="http://www.w3.org/2000/svg">
<path d="M26.259 72.1705V73.9951H26.741C27.2574 73.9951 27.6361 73.582 27.6361 73.0656C27.6361 72.5836 27.2574 72.1705 26.7754 72.1361H26.741L26.259 72.1705ZM26.741 71.6197C27.6016 71.6197 28.2902 72.2738 28.2902 73.1C28.2902 73.9262 27.6361 74.5803 26.741 74.5803H25.7082C25.6738 74.5803 25.6393 74.5459 25.6393 74.5115V71.6885C25.6393 71.6541 25.6738 71.6197 25.7082 71.6197H26.741Z" fill="#FF3008"/>
<path d="M30.5279 74.0639C31.0787 74.0639 31.4918 73.6164 31.4918 73.1C31.4918 72.5836 31.0443 72.1361 30.5279 72.1361C29.9771 72.1361 29.5639 72.5836 29.5639 73.1C29.5295 73.6508 29.9771 74.0639 30.5279 74.0639ZM30.5279 71.5508C31.4574 71.5508 32.1459 72.2393 32.1459 73.1C32.1459 73.9606 31.4574 74.6492 30.5279 74.6492C29.5984 74.6492 28.9099 73.9606 28.9099 73.1C28.9099 72.2393 29.5984 71.5508 30.5279 71.5508Z" fill="#FF3008"/>
<path d="M34.3836 74.0639C34.9344 74.0639 35.382 73.6164 35.382 73.1C35.382 72.5836 34.9344 72.1016 34.418 72.1016C33.8672 72.1016 33.4197 72.5492 33.4197 73.0656C33.3852 73.6508 33.8328 74.0639 34.3836 74.0639ZM34.3836 71.5508C35.3131 71.5508 36.0016 72.2393 36.0016 73.1C36.0016 73.9606 35.3131 74.6492 34.3836 74.6492C33.4541 74.6492 32.7656 73.9606 32.7656 73.1C32.7656 72.2393 33.4541 71.5508 34.3836 71.5508Z" fill="#FF3008"/>
<path d="M38.1361 72.1705H37.482V72.9623H38.1361C38.3426 72.9623 38.5148 72.7902 38.5492 72.5836C38.5492 72.3771 38.3771 72.2049 38.1361 72.1705C38.1361 72.1705 38.1705 72.1705 38.1361 72.1705ZM36.8279 71.6885C36.8279 71.6541 36.8623 71.6197 36.8967 71.6197H38.1361C38.7213 71.6197 39.1689 72.0672 39.1689 72.5836C39.1689 72.9623 38.9623 73.3066 38.6525 73.4443L39.2377 74.4426C39.2721 74.4771 39.2377 74.5115 39.2033 74.5459H39.1689H38.6525C38.618 74.5459 38.5836 74.5459 38.5836 74.5115L38.0328 73.5475H37.482V74.5115C37.482 74.5459 37.4476 74.5803 37.4131 74.5803H36.9312C36.8967 74.5803 36.8623 74.5459 36.8623 74.5115L36.8279 71.6885Z" fill="#FF3008"/>
<path d="M40.8558 72.2049V74.0295H41.3377C41.8541 74.0295 42.2328 73.6164 42.2328 73.1C42.2328 72.618 41.8541 72.2049 41.3721 72.1705H41.3377H40.8558V72.2049ZM41.3377 71.6197C42.1984 71.6197 42.8869 72.2738 42.8869 73.1C42.8869 73.9262 42.2328 74.5803 41.3377 74.5803H40.3049C40.2705 74.5803 40.2361 74.5459 40.2361 74.5115V71.6885C40.2361 71.6541 40.2705 71.6197 40.3049 71.6197H41.3377Z" fill="#FF3008"/>
<path d="M44.8147 72.3426L44.436 73.3066H45.159L44.8147 72.3426ZM44.2295 73.8918L43.9885 74.5459C43.9885 74.5803 43.9541 74.6148 43.9197 74.5803H43.4033C43.3688 74.5803 43.3344 74.5459 43.3344 74.5115V74.4771L44.436 71.6541C44.436 71.6197 44.4705 71.6197 44.5049 71.6197H45.0901C45.1246 71.6197 45.159 71.6541 45.159 71.6541L46.2606 74.4771C46.2951 74.5115 46.2606 74.5459 46.2262 74.5803H46.1918H45.6754C45.641 74.5803 45.6065 74.5459 45.6065 74.5459L45.3656 73.8918H44.2295Z" fill="#FF3008"/>
<path d="M46.8803 72.4115C46.8803 71.9295 47.2934 71.5508 47.9131 71.5508C48.2574 71.5508 48.6016 71.6541 48.8426 71.8951C48.877 71.9295 48.877 71.9639 48.8426 71.9984L48.5672 72.2738C48.5328 72.3082 48.4983 72.3082 48.4639 72.2738C48.3262 72.1361 48.1541 72.0672 47.982 72.0672C47.741 72.0672 47.5344 72.2049 47.5344 72.377C47.5344 72.9279 49.0492 72.618 49.0492 73.6852C49.0492 74.2016 48.6361 74.6147 47.9131 74.6147C47.5 74.6147 47.1213 74.477 46.8459 74.1672C46.8115 74.1328 46.8115 74.0984 46.8459 74.0639L47.1213 73.7885C47.1557 73.7541 47.1901 73.7541 47.2246 73.7885C47.3967 73.9951 47.6033 74.0984 47.8442 74.0984C48.1541 74.0984 48.3606 73.9262 48.3606 73.7197C48.3951 73.1688 46.8803 73.4787 46.8803 72.4115Z" fill="#FF3008"/>
<path d="M51.7688 71.6885V72.7902H50.4951V71.6885C50.4951 71.6541 50.4606 71.6197 50.4262 71.6197H49.9442C49.9098 71.6197 49.8754 71.6541 49.8754 71.6885V74.5115C49.8754 74.5459 49.9098 74.5803 49.9442 74.5803H50.4262C50.4606 74.5803 50.4951 74.5459 50.4951 74.5115V73.3754H51.7688V74.5115C51.7688 74.5459 51.8033 74.5803 51.8377 74.5803H52.3197C52.3541 74.5803 52.3885 74.5459 52.3885 74.5115V71.6885C52.3885 71.6541 52.3541 71.6197 52.3197 71.6197H51.8377C51.8033 71.5852 51.7688 71.6197 51.7688 71.6885Z" fill="#FF3008"/>
<path d="M23.0918 71.9984C22.782 71.3787 22.1279 71 21.4393 71H16.1721C16.0689 71 16 71.0689 16 71.1721C16 71.2066 16.0344 71.2754 16.0689 71.3098L17.2049 72.4459C17.3082 72.5492 17.4459 72.618 17.5836 72.618H21.3016C21.577 72.618 21.7836 72.8246 21.7836 73.1C21.7836 73.3754 21.577 73.582 21.3016 73.582H18.7541C18.6508 73.582 18.5475 73.6508 18.5475 73.7541C18.5475 73.7885 18.582 73.8574 18.6164 73.8918L19.7525 75.0279C19.8557 75.1311 19.9934 75.2 20.1311 75.2H21.3016C22.782 75.2 23.9525 73.582 23.0918 71.9984Z" fill="#FF3008"/>
<g clip-path="url(#clip0)">
<path d="M22.0932 66.9365C17.758 66.9365 13.6798 66.9048 10.4686 65.7015C6.51877 64.1815 4.4957 61.0465 4.46359 56.3282L3.53234 56.3915C3.50023 56.3915 3.436 56.3915 3.40389 56.3915C2.79376 56.3915 2.18363 56.1698 1.73406 55.7582C1.25237 55.3148 0.963365 54.7132 0.89914 54.0482L0.834916 52.6232C0.802804 52.2432 0.89914 51.8948 1.02759 51.5465L0.963365 50.8498C0.89914 49.8048 1.50927 48.8865 2.40841 48.4748C2.40841 48.3482 2.44052 48.2215 2.47264 48.0948L4.11036 41.2548C1.09181 40.7798 0 38.6265 0 36.5998C0 34.0032 1.66983 31.5015 4.4957 29.7915C4.52781 20.1648 15.0285 9.96817 34.4242 9.99984C43.1909 10.0315 50.7051 12.1532 56.1321 16.1432C61.0773 19.7848 63.9353 24.8198 63.9353 29.9182V30.9632C63.9353 31.0265 63.9353 31.0898 63.9353 31.1532V34.4782H64.2885C64.6739 34.4782 65.0271 34.5732 65.3482 34.6998C65.8299 34.5415 66.3437 34.4782 66.8896 34.4782C69.2017 34.4782 71.0321 36.3465 71.0321 38.7215C71.0321 41.0965 69.2017 42.9015 66.7933 42.9015C66.5043 42.9015 66.0547 42.8698 65.573 42.7115L65.0592 45.0865L65.7015 45.0548C65.7336 45.0548 65.7978 45.0548 65.8299 45.0548C66.4401 45.0548 67.0181 45.2765 67.4998 45.6882C67.9814 46.1315 68.2705 46.7332 68.3347 47.3982L68.3668 48.1265C68.5274 48.4432 68.6558 48.7915 68.6558 49.1715L68.72 50.5965C68.7521 51.2615 68.5274 51.8948 68.0778 52.3698C67.6282 52.8448 67.0181 53.1298 66.3437 53.1932L65.4125 53.2565C65.3161 53.2565 65.284 53.2565 65.2519 53.2565C65.1877 53.2882 64.995 53.4465 64.8344 53.5415C64.5776 53.7315 64.2564 53.9532 63.839 54.2065V56.3282C63.839 61.1415 61.7838 64.3398 57.8019 65.8598C54.5907 67.0632 50.5124 67.0632 46.1773 67.0632L22.0932 66.9365Z" fill="white"/>
<path d="M61.9765 29.6967C61.9765 21.2733 52.6319 11.9 34.36 11.9C16.0561 11.9 6.35822 21.2733 6.35822 29.6967V30.9633H61.9765V29.6967Z" fill="#AB7029"/>
<path d="M28.355 14.4017H26.5568C26.4604 14.4017 26.3962 14.465 26.3641 14.5283C26.332 14.5917 26.2999 14.7183 26.2999 14.9083C26.2999 15.0983 26.332 15.225 26.3641 15.2883C26.3962 15.3833 26.4925 15.415 26.5568 15.415H28.355C28.4514 15.415 28.5156 15.3517 28.5477 15.2883C28.5798 15.225 28.6119 15.0983 28.6119 14.9083C28.6119 14.7183 28.5798 14.5917 28.5477 14.5283C28.5156 14.4333 28.4514 14.4017 28.355 14.4017Z" fill="#9C6226"/>
<path d="M35.0986 14.4017H33.3003C33.204 14.4017 33.1398 14.465 33.1076 14.5283C33.0755 14.5917 33.0434 14.7183 33.0434 14.9083C33.0434 15.0983 33.0755 15.225 33.1076 15.2883C33.1398 15.3833 33.2361 15.415 33.3003 15.415H35.0986C35.1949 15.415 35.2592 15.3517 35.2913 15.2883C35.3234 15.225 35.3555 15.0983 35.3555 14.9083C35.3555 14.7183 35.3234 14.5917 35.2913 14.5283C35.2592 14.4333 35.1949 14.4017 35.0986 14.4017Z" fill="#9C6226"/>
<path d="M41.8422 14.4017H40.0439C39.9475 14.4017 39.8833 14.465 39.8512 14.5283C39.8191 14.5917 39.787 14.7183 39.787 14.9083C39.787 15.0983 39.8191 15.225 39.8512 15.2883C39.8833 15.3833 39.9797 15.415 40.0439 15.415H41.8422C41.9385 15.415 42.0027 15.3517 42.0348 15.2883C42.0669 15.225 42.0991 15.0983 42.0991 14.9083C42.0991 14.7183 42.0669 14.5917 42.0348 14.5283C42.0348 14.4333 41.9385 14.4017 41.8422 14.4017Z" fill="#9C6226"/>
<path d="M24.9511 18.36H23.1529C23.0565 18.36 22.9923 18.4233 22.9602 18.4867C22.9281 18.55 22.896 18.6767 22.896 18.8667C22.896 19.0567 22.9281 19.1833 22.9602 19.2467C22.9923 19.3417 23.0886 19.3733 23.1529 19.3733H24.9511C25.0475 19.3733 25.1117 19.31 25.1438 19.2467C25.1759 19.1833 25.208 19.0567 25.208 18.8667C25.208 18.6767 25.1759 18.55 25.1438 18.4867C25.1117 18.4233 25.0475 18.36 24.9511 18.36Z" fill="#9C6226"/>
<path d="M31.6947 18.36H29.8964C29.8001 18.36 29.7359 18.4233 29.7037 18.4867C29.6716 18.55 29.6395 18.6767 29.6395 18.8667C29.6395 19.0567 29.6716 19.1833 29.7037 19.2467C29.7359 19.3417 29.8322 19.3733 29.8964 19.3733H31.6947C31.791 19.3733 31.8553 19.31 31.8874 19.2467C31.9195 19.1833 31.9516 19.0567 31.9516 18.8667C31.9516 18.6767 31.9195 18.55 31.8874 18.4867C31.8874 18.4233 31.791 18.36 31.6947 18.36Z" fill="#9C6226"/>
<path d="M18.2397 18.36H16.4414C16.3451 18.36 16.2809 18.4233 16.2488 18.4867C16.2167 18.55 16.1845 18.6767 16.1845 18.8667C16.1845 19.0567 16.2167 19.1833 16.2488 19.2467C16.2809 19.3417 16.3772 19.3733 16.4414 19.3733H18.2397C18.3361 19.3733 18.4003 19.31 18.4324 19.2467C18.4645 19.1833 18.4966 19.0567 18.4966 18.8667C18.4966 18.6767 18.4645 18.55 18.4324 18.4867C18.4003 18.4233 18.3039 18.36 18.2397 18.36Z" fill="#9C6226"/>
<path d="M38.4704 18.36H36.6721C36.5758 18.36 36.5115 18.4233 36.4794 18.4867C36.4473 18.55 36.4152 18.6767 36.4152 18.8667C36.4152 19.0567 36.4473 19.1833 36.4794 19.2467C36.5115 19.3417 36.6079 19.3733 36.6721 19.3733H38.4704C38.5667 19.3733 38.6309 19.31 38.663 19.2467C38.6951 19.1833 38.7273 19.0567 38.7273 18.8667C38.7273 18.6767 38.6951 18.55 38.663 18.4867C38.6309 18.4233 38.5667 18.36 38.4704 18.36Z" fill="#9C6226"/>
<path d="M45.2139 18.36H43.4157C43.3193 18.36 43.2551 18.4233 43.223 18.4867C43.1909 18.55 43.1588 18.6767 43.1588 18.8667C43.1588 19.0567 43.1909 19.1833 43.223 19.2467C43.2551 19.3417 43.3514 19.3733 43.4157 19.3733H45.2139C45.3103 19.3733 45.3745 19.31 45.4066 19.2467C45.4387 19.1833 45.4708 19.0567 45.4708 18.8667C45.4708 18.6767 45.4387 18.55 45.4066 18.4867C45.4066 18.4233 45.3103 18.36 45.2139 18.36Z" fill="#9C6226"/>
<path d="M51.9896 18.36H50.1913C50.095 18.36 50.0308 18.4233 49.9986 18.4867C49.9665 18.55 49.9344 18.6767 49.9344 18.8667C49.9344 19.0567 49.9665 19.1833 49.9986 19.2467C50.0308 19.3417 50.1271 19.3733 50.1913 19.3733H51.9896C52.0859 19.3733 52.1502 19.31 52.1823 19.2467C52.2144 19.1833 52.2465 19.0567 52.2465 18.8667C52.2465 18.6767 52.2144 18.55 52.1823 18.4867C52.1502 18.4233 52.0538 18.36 51.9896 18.36Z" fill="#9C6226"/>
<path d="M28.355 22.5083H26.5568C26.4604 22.5083 26.3962 22.5717 26.3641 22.635C26.332 22.6983 26.2999 22.825 26.2999 23.015C26.2999 23.205 26.332 23.3317 26.3641 23.395C26.3962 23.49 26.4925 23.5217 26.5568 23.5217H28.355C28.4514 23.5217 28.5156 23.4583 28.5477 23.395C28.5798 23.3317 28.6119 23.205 28.6119 23.015C28.6119 22.825 28.5798 22.6983 28.5477 22.635C28.5156 22.5717 28.4193 22.5083 28.355 22.5083Z" fill="#9C6226"/>
<path d="M35.0986 22.5083H33.3003C33.204 22.5083 33.1398 22.5717 33.1076 22.635C33.0755 22.6983 33.0434 22.825 33.0434 23.015C33.0434 23.205 33.0755 23.3317 33.1076 23.395C33.1398 23.49 33.2361 23.5217 33.3003 23.5217H35.0986C35.1949 23.5217 35.2592 23.4583 35.2913 23.395C35.3234 23.3317 35.3555 23.205 35.3555 23.015C35.3555 22.825 35.3234 22.6983 35.2913 22.635C35.2592 22.5717 35.1949 22.5083 35.0986 22.5083Z" fill="#9C6226"/>
<path d="M41.8422 22.5083H40.0439C39.9475 22.5083 39.8833 22.5717 39.8512 22.635C39.8191 22.6983 39.787 22.825 39.787 23.015C39.787 23.205 39.8191 23.3317 39.8512 23.395C39.8833 23.49 39.9797 23.5217 40.0439 23.5217H41.8422C41.9385 23.5217 42.0027 23.4583 42.0348 23.395C42.0669 23.3317 42.0991 23.205 42.0991 23.015C42.0991 22.825 42.0669 22.6983 42.0348 22.635C42.0348 22.5717 41.9385 22.5083 41.8422 22.5083Z" fill="#9C6226"/>
<path d="M31.6947 26.4983H29.8964C29.8001 26.4983 29.7359 26.5617 29.7037 26.625C29.6716 26.6883 29.6395 26.815 29.6395 27.005C29.6395 27.195 29.6716 27.3217 29.7037 27.385C29.7359 27.48 29.8322 27.5117 29.8964 27.5117H31.6947C31.791 27.5117 31.8553 27.4483 31.8874 27.385C31.9195 27.3217 31.9516 27.195 31.9516 27.005C31.9516 26.815 31.9195 26.6883 31.8874 26.625C31.8874 26.53 31.791 26.4983 31.6947 26.4983Z" fill="#9C6226"/>
<path d="M38.4704 26.4983H36.6721C36.5758 26.4983 36.5115 26.5617 36.4794 26.625C36.4473 26.6883 36.4152 26.815 36.4152 27.005C36.4152 27.195 36.4473 27.3217 36.4794 27.385C36.5115 27.48 36.6079 27.5117 36.6721 27.5117H38.4704C38.5667 27.5117 38.6309 27.4483 38.663 27.385C38.6951 27.3217 38.7273 27.195 38.7273 27.005C38.7273 26.815 38.6951 26.6883 38.663 26.625C38.6309 26.53 38.5667 26.4983 38.4704 26.4983Z" fill="#9C6226"/>
<path d="M48.5536 22.5083H46.8195C46.7232 22.5083 46.659 22.5717 46.6268 22.635C46.5947 22.6983 46.5626 22.825 46.5626 23.015C46.5626 23.205 46.5947 23.3317 46.6268 23.395C46.659 23.49 46.7553 23.5217 46.8195 23.5217H48.5536C48.6499 23.5217 48.7141 23.4583 48.7462 23.395C48.7784 23.3317 48.8105 23.205 48.8105 23.015C48.8105 22.825 48.7784 22.6983 48.7462 22.635C48.7141 22.5717 48.6499 22.5083 48.5536 22.5083Z" fill="#9C6226"/>
<path d="M55.5219 22.6667C55.4898 22.5717 55.3935 22.54 55.3293 22.54H53.531C53.4346 22.54 53.3704 22.6033 53.3383 22.6667C53.3062 22.73 53.2741 22.8567 53.2741 23.0467C53.2741 23.2367 53.3062 23.3633 53.3383 23.4267C53.3704 23.5217 53.4668 23.5533 53.531 23.5533H55.3293C55.4256 23.5533 55.4898 23.49 55.5219 23.4267C55.554 23.3633 55.5862 23.2367 55.5862 23.0467C55.5862 22.825 55.554 22.6983 55.5219 22.6667Z" fill="#9C6226"/>
<path d="M51.9896 26.4983H50.1271C50.0307 26.4983 49.9665 26.5617 49.9344 26.625C49.9023 26.6883 49.8702 26.815 49.8702 27.005C49.8702 27.195 49.9023 27.3217 49.9344 27.385C49.9665 27.48 50.0629 27.5117 50.1271 27.5117H51.9896C52.0859 27.5117 52.1501 27.4483 52.1823 27.385C52.2144 27.3217 52.2465 27.195 52.2465 27.005C52.2465 26.815 52.2144 26.6883 52.1823 26.625C52.1501 26.53 52.0538 26.4983 51.9896 26.4983Z" fill="#9C6226"/>
<path d="M45.1818 26.4983H43.4157C43.3193 26.4983 43.2551 26.5617 43.223 26.625C43.1909 26.6883 43.1588 26.815 43.1588 27.005C43.1588 27.195 43.1909 27.3217 43.223 27.385C43.2551 27.48 43.3514 27.5117 43.4157 27.5117H45.1818C45.2782 27.5117 45.3424 27.4483 45.3745 27.385C45.4066 27.3217 45.4387 27.195 45.4387 27.005C45.4387 26.815 45.4066 26.6883 45.3745 26.625C45.3745 26.53 45.2782 26.4983 45.1818 26.4983Z" fill="#9C6226"/>
<path d="M14.8358 22.5083H13.0375C12.9412 22.5083 12.877 22.5717 12.8449 22.635C12.8128 22.6983 12.7806 22.825 12.7806 23.015C12.7806 23.205 12.8128 23.3317 12.8449 23.395C12.877 23.49 12.9733 23.5217 13.0375 23.5217H14.8358C14.9322 23.5217 14.9964 23.4583 15.0285 23.395C15.0606 23.3317 15.0927 23.205 15.0927 23.015C15.0927 22.825 15.0606 22.6983 15.0285 22.635C14.9964 22.5717 14.9 22.5083 14.8358 22.5083Z" fill="#9C6226"/>
<path d="M21.5794 22.5083H19.7811C19.6848 22.5083 19.6205 22.5717 19.5884 22.635C19.5563 22.6983 19.5242 22.825 19.5242 23.015C19.5242 23.205 19.5563 23.3317 19.5884 23.395C19.6205 23.49 19.7169 23.5217 19.7811 23.5217H21.5794C21.6757 23.5217 21.7399 23.4583 21.7721 23.395C21.8042 23.3317 21.8363 23.205 21.8363 23.015C21.8363 22.825 21.8042 22.6983 21.7721 22.635C21.7399 22.5717 21.6757 22.5083 21.5794 22.5083Z" fill="#9C6226"/>
<path d="M18.1755 26.4983H16.4093C16.313 26.4983 16.2487 26.5617 16.2166 26.625C16.1845 26.6883 16.1524 26.815 16.1524 27.005C16.1524 27.195 16.1845 27.3217 16.2166 27.385C16.2487 27.48 16.3451 27.5117 16.4093 27.5117H18.1755C18.2718 27.5117 18.336 27.4483 18.3681 27.385C18.4003 27.3217 18.4324 27.195 18.4324 27.005C18.4324 26.815 18.4003 26.6883 18.3681 26.625C18.3681 26.53 18.2718 26.4983 18.1755 26.4983Z" fill="#9C6226"/>
<path d="M25.0796 26.53C25.0475 26.4983 24.9833 26.4983 24.9511 26.4983H23.1529C23.0565 26.4983 22.9923 26.5617 22.9602 26.625C22.9281 26.6883 22.896 26.815 22.896 27.005C22.896 27.195 22.9281 27.3217 22.9602 27.385C22.9923 27.48 23.0886 27.5117 23.1529 27.5117H24.9511C25.0475 27.5117 25.1117 27.4483 25.1438 27.385C25.1759 27.3217 25.208 27.195 25.208 27.005C25.208 26.815 25.1759 26.6883 25.1438 26.625C25.1438 26.5933 25.1117 26.5617 25.0796 26.53Z" fill="#9C6226"/>
<path d="M61.9444 36.8533C61.9444 37.3917 61.9444 37.8033 61.3985 37.8033H6.90412C6.35822 37.8033 6.35822 37.36 6.35822 36.8533V34.985C6.35822 34.4467 6.35822 34.035 6.90412 34.035H61.3985C61.9444 34.035 61.9444 34.4467 61.9444 34.985V36.8533Z" fill="#B32029"/>
<path d="M61.9765 31.7867H6.35822V33.2433H61.9765V31.7867Z" fill="#FAA21E"/>
<path d="M42.3559 32.2617L34.3279 37.0433L25.9787 32.2617H42.3559Z" fill="#FAA21E"/>
<path d="M6.39032 55.3467V56.6133C6.39032 65.0367 13.3265 65.1 21.8684 65.1H46.4984C55.0403 65.1 61.9765 65.0683 61.9765 56.6133V55.3467H6.39032Z" fill="#AB7029"/>
<path d="M9.11985 56.8983C9.11985 58.2283 9.21619 59.1467 11.0787 58.2283C12.9412 57.31 15.2212 56.075 19.9738 56.2017C18.2076 56.7083 16.1524 57.6267 15.9276 58.8617C15.735 60.0967 16.9552 60.6033 19.6526 59.97C19.9738 61.0783 21.0977 62.3133 23.474 60.2867C25.8503 58.26 27.199 57.4367 28.3229 57.025C29.4469 56.6133 29.768 57.215 28.5156 57.9433C27.2632 58.6717 26.1393 59.0517 25.9466 59.875C25.754 60.6983 25.9466 62.0283 28.0018 61.395C28.0018 62.82 28.4193 64.055 30.1854 64.055C31.9516 64.055 32.6581 63.1367 32.6581 61.395C33.782 61.9967 35.4518 62.4083 35.5482 60.16C35.6445 57.9117 36.6721 56.8983 37.7318 56.3917C38.7594 55.885 38.9521 56.835 38.2456 57.12C37.3143 57.5 36.929 58.1333 36.8969 58.8617C36.8648 59.78 38.4704 61.1417 40.1081 59.4633C40.2365 60.445 42.0669 61.0783 42.6771 59.0517C43.2872 57.025 43.4799 55.7583 45.3745 55.695C44.09 56.17 43.3193 58.0383 44.957 58.64C46.5948 59.2417 47.4297 57.7217 47.6545 57.215C47.8471 56.7083 48.393 55.6 49.9344 55.695C48.5857 56.2967 48.5857 58.355 49.9344 58.45C51.2831 58.545 51.7969 58.1333 52.8245 57.215C53.8521 56.2967 55.9394 55.2833 58.5084 55.695C57.9946 57.025 58.9258 57.5633 59.7607 57.405C60.7883 57.215 60.692 56.1067 61.0131 55.3783H8.02804V55.41C7.22524 55.885 6.64722 58.0067 9.11985 56.8983Z" fill="#A9AE38"/>
<path d="M3.59656 52.3067C4.59204 52.2433 5.04161 52.4967 5.74807 52.9083C6.6151 53.415 7.80325 54.08 9.92265 53.9533C12.0421 53.8267 13.166 53.035 13.9688 52.465C14.6431 51.99 15.0606 51.705 16.0561 51.6417C17.0516 51.5783 17.5011 51.8317 18.2076 52.2433C19.0746 52.75 20.2628 53.415 22.3822 53.2883C24.5016 53.1617 25.6255 52.37 26.4283 51.8C27.1027 51.325 27.5201 51.04 28.5156 50.9767C29.5111 50.9133 29.9606 51.1667 30.6671 51.5783C31.5341 52.085 32.7223 52.75 34.8417 52.6233C36.9611 52.4967 38.085 51.705 38.8878 51.135C39.5622 50.66 39.9796 50.375 40.9751 50.3117C41.9706 50.2483 42.4202 50.5017 43.1266 50.9133C43.9937 51.42 45.1818 52.085 47.3012 51.9583C49.4206 51.8317 50.5445 51.04 51.3473 50.47C52.0217 49.995 52.4392 49.71 53.4346 49.6467C54.4301 49.5833 54.8797 49.8367 55.5862 50.2483C56.4532 50.755 57.6413 51.42 59.7607 51.2933C61.8801 51.1667 63.0041 50.375 63.8069 49.805C64.4812 49.33 64.8987 49.045 65.8942 48.9817L66.6006 48.95L66.5364 47.62L65.8299 47.6517C63.6463 47.7783 62.4903 48.6017 61.6553 49.2033C61.0131 49.6783 60.6278 49.9317 59.7286 49.995C58.7974 50.0583 58.412 49.8367 57.7056 49.425C56.8064 48.9183 55.5861 48.2217 53.3704 48.3483C51.1868 48.475 50.0307 49.2983 49.1958 49.9C48.5536 50.375 48.1682 50.6283 47.237 50.6917C46.3057 50.755 45.9204 50.5333 45.2139 50.1217C44.3148 49.615 43.0945 48.9183 40.9109 49.045C38.7273 49.1717 37.5712 49.995 36.7363 50.5967C36.0941 51.0717 35.7087 51.325 34.7775 51.3883C33.8462 51.4517 33.4609 51.23 32.7544 50.8183C31.8553 50.3117 30.635 49.615 28.4193 49.7417C26.2356 49.8683 25.0796 50.6917 24.2447 51.2933C23.6024 51.7683 23.2171 52.0217 22.3179 52.085C21.3867 52.1483 21.0014 51.9267 20.2949 51.515C19.3957 51.0083 18.1755 50.3117 15.9597 50.4383C13.7761 50.565 12.6201 51.3883 11.7852 51.99C11.1429 52.465 10.7576 52.7183 9.85843 52.7817C8.92718 52.845 8.54183 52.6233 7.83536 52.2117C6.93622 51.705 5.71596 51.0083 3.53233 51.135L2.82587 51.1667L2.89009 52.4967L3.59656 52.3067Z" fill="#B32029"/>
<path d="M64.0638 50.2167C63.1967 50.85 62.0086 51.6733 59.7607 51.8C57.5129 51.9267 56.2284 51.1983 55.2971 50.6917C54.6228 50.3117 54.2696 50.1217 53.4025 50.1533C52.5355 50.185 52.2465 50.4383 51.6042 50.8817C50.7372 51.515 49.5491 52.3383 47.3012 52.465C45.0534 52.5917 43.7689 51.8633 42.8376 51.3567C42.1633 50.9767 41.81 50.7867 40.943 50.8183C40.076 50.85 39.787 51.1033 39.1447 51.5467C38.2777 52.18 37.0895 53.0033 34.8417 53.13C32.5938 53.2567 31.3094 52.5283 30.3781 52.0217C29.7037 51.6417 29.3505 51.4517 28.4835 51.4833C27.6165 51.515 27.3274 51.7683 26.6852 52.2117C25.8182 52.845 24.63 53.6683 22.3822 53.795C20.1343 53.9217 18.8498 53.1933 17.9186 52.6867C17.2442 52.3067 16.891 52.1167 16.024 52.1483C15.1569 52.18 14.8679 52.4333 14.2257 52.8767C13.3586 53.51 12.1705 54.3333 9.92265 54.46C7.6748 54.5867 6.39031 53.8583 5.45906 53.3517C4.7847 52.9717 4.43147 52.7817 3.56444 52.8133L2.60107 52.8767L2.6653 54.3333L3.62866 54.27C4.55992 54.2067 4.94526 54.4283 5.65173 54.84C6.55087 55.3467 7.77113 56.0433 9.98687 55.9167C12.1705 55.79 13.3265 54.9667 14.1615 54.365C14.8037 53.89 15.189 53.6367 16.0882 53.5733C17.0194 53.51 17.4048 53.7317 18.1113 54.1433C19.0104 54.65 20.2307 55.3467 22.4464 55.22C24.63 55.0933 25.7861 54.27 26.621 53.6683C27.2632 53.1933 27.6486 52.94 28.5477 52.8767C29.479 52.8133 29.8643 53.035 30.5708 53.4467C31.4699 53.9533 32.6902 54.65 34.8738 54.5233C37.0574 54.3967 38.2135 53.5733 39.0484 52.9717C39.6906 52.4967 40.076 52.2433 40.9751 52.18C41.9064 52.1167 42.2917 52.3383 42.9982 52.75C43.8973 53.2567 45.1176 53.9533 47.3333 53.8267C49.5169 53.7 50.673 52.8767 51.5079 52.275C52.1501 51.8 52.5355 51.5467 53.4346 51.4833C54.3659 51.42 54.7512 51.6417 55.4577 52.0533C56.3568 52.56 57.5771 53.2567 59.7928 53.13C61.9765 53.0033 63.1325 52.18 63.9674 51.5783C64.6097 51.1033 64.995 50.85 65.8941 50.7867L66.8575 50.7233L66.7612 49.2667L65.7978 49.33C65.0271 49.52 64.706 49.7733 64.0638 50.2167Z" fill="#B32029"/>
<path d="M12.299 32.2933L10.9824 37.93H11.1429C13.3908 37.93 15.2212 35.7133 15.2212 33.8133C15.2212 32.3567 14.1615 31.0583 11.4962 31.0583C8.1886 31.0583 4.43148 33.0217 4.43148 37.2333C4.43148 38.5317 4.78471 38.7217 4.81682 38.975C2.95432 38.975 1.79828 38.3417 1.79828 36.6317C1.79828 33.1167 6.71144 29.9183 12.0742 29.9183C16.2166 29.9183 18.1113 31.8817 18.1113 33.94C18.1113 35.4283 17.1158 37.0433 15.2854 37.9617C17.6938 38.405 18.6251 40.1467 18.6251 42.0467C18.6251 44.485 17.1479 49.3617 12.4274 49.3617C11.2071 49.3617 9.63365 49.045 9.63365 47.4933C9.63365 47.0817 9.7621 46.6067 9.98688 46.0367C10.6934 46.7017 11.2393 46.955 11.8815 46.955C13.9367 46.955 14.6753 44.3267 14.6753 42.395C14.6753 40.6217 14.0651 39.165 11.9778 39.165C11.7531 39.165 11.175 39.1967 10.6612 39.2283L8.34916 48.95H4.27092L8.12438 32.8L12.299 32.2933Z" fill="#6D1F11"/>
<path d="M12.3953 50.4067C11.0145 50.4067 9.95478 50.0583 9.28042 49.3933C9.11986 49.7417 8.73452 49.9633 8.34917 49.9633H4.27093C3.9498 49.9633 3.62868 49.805 3.43601 49.5833C3.24334 49.33 3.147 49.0133 3.24334 48.6967L5.36274 39.8617C5.20218 39.9567 5.0095 40.02 4.81683 40.02C1.25238 40.02 0.738586 37.8983 0.738586 36.6317C0.738586 32.4833 6.03709 28.8733 12.0421 28.8733C15.5744 28.8733 19.1067 30.4567 19.1067 33.94C19.1067 35.3333 18.4966 36.6633 17.4048 37.7083C18.8177 38.595 19.6205 40.115 19.6205 42.0783C19.6205 43.4083 19.2352 45.4667 18.1434 47.2083C16.8268 49.2983 14.8358 50.4067 12.3953 50.4067ZM10.6934 47.7783C10.8539 48.1583 11.4319 48.3483 12.3953 48.3483C16.602 48.3483 17.5333 43.6933 17.5333 42.0783C17.5333 40.875 17.1158 39.3867 15.0606 39.0067C14.611 38.9117 14.2899 38.5633 14.1936 38.1517C14.1936 38.0567 14.1936 37.9617 14.1936 37.8667C13.9367 38.0567 13.6798 38.215 13.4229 38.3733C14.5468 38.785 15.7029 39.83 15.7029 42.395C15.7029 45.0867 14.4826 48 11.8494 48C11.4319 47.9683 11.0787 47.905 10.6934 47.7783ZM5.61964 47.905H7.51425L9.63366 38.975C9.69788 38.7217 9.82633 38.5317 10.019 38.3733C9.92267 38.1517 9.89055 37.8983 9.92267 37.6767L10.9181 33.4967L8.99141 33.75L5.61964 47.905ZM10.3401 45.055C10.4686 45.1183 10.5649 45.1817 10.6612 45.2767C11.2714 45.8467 11.5604 45.91 11.8173 45.91C13.1018 45.91 13.5513 43.7567 13.5513 42.3633C13.5513 40.3367 12.7164 40.1783 11.9136 40.1783C11.8173 40.1783 11.6567 40.1783 11.4641 40.1783L10.3401 45.055ZM6.77567 33.94C6.00498 34.7317 5.49119 35.8083 5.49119 37.265C5.49119 37.9617 5.61964 38.1517 5.68386 38.31C5.68386 38.3417 5.71597 38.3733 5.74808 38.405L6.77567 33.94ZM4.23881 33.7817C3.33967 34.6367 2.82588 35.6183 2.82588 36.6317C2.82588 36.98 2.82588 37.4233 3.37178 37.6767C3.37178 37.55 3.37178 37.3917 3.37178 37.2333C3.37178 35.9667 3.66079 34.795 4.23881 33.7817ZM15.6386 31.755C16.024 32.2933 16.2809 32.99 16.2809 33.8133C16.2809 34.9217 15.8955 35.935 15.2854 36.7583C16.3772 36.03 17.0195 34.985 17.0195 33.94C17.0195 33.0217 16.5057 32.2617 15.6386 31.755ZM13.3266 32.4833C13.3266 32.515 13.3266 32.515 13.3266 32.5467L12.3632 36.5683C13.3908 35.9983 14.1615 34.8267 14.1615 33.8133C14.1615 33.1483 13.8404 32.7367 13.3266 32.4833Z" fill="white"/>
<path d="M29.8965 36.885L28.1303 45.1183C28.0661 45.435 28.0339 45.6883 28.0339 45.8783C28.0339 46.5433 28.3551 46.765 29.0294 46.765C29.9928 46.765 30.635 45.8467 31.0204 44.6433H32.048C30.635 48.6017 28.4514 49.1083 27.1027 49.1083C25.6898 49.1083 24.8227 48.3167 24.6622 46.7967C23.4419 48.7917 22.0611 49.1083 21.0335 49.1083C19.5563 49.1083 18.4003 48.2533 18.4003 46.195C18.4003 45.72 18.4645 45.2133 18.593 44.6117L20.2628 36.8533H23.7951L22.029 45.0867C21.9647 45.34 21.9648 45.53 21.9648 45.7517C21.9648 46.3217 22.1574 46.7333 22.7033 46.7333C23.6667 46.7333 24.3089 45.815 24.6622 44.6117L26.332 36.8533H29.8965V36.885Z" fill="#6D1F11"/>
<path d="M27.1348 49.995C25.9145 49.995 24.9512 49.52 24.4053 48.6333C23.474 49.5517 22.3822 49.995 21.0977 49.995C19.3958 49.995 17.5654 49.0133 17.5654 46.195C17.5654 45.6883 17.6296 45.1183 17.7902 44.4533L19.46 36.695C19.5563 36.2833 19.9096 35.9983 20.327 35.9983H23.8594C24.1163 35.9983 24.3731 36.125 24.5658 36.315C24.7585 36.505 24.7906 36.79 24.7585 37.0433L22.9923 45.2767C22.9602 45.4667 22.9281 45.625 22.9281 45.7833C22.9281 45.815 22.9281 45.8467 22.9281 45.8467C23.4098 45.6567 23.7309 44.77 23.8594 44.4217L25.5292 36.695C25.6255 36.2833 25.9788 35.9983 26.3962 35.9983H29.9286C30.1854 35.9983 30.4423 36.125 30.635 36.315C30.8277 36.505 30.8598 36.79 30.8277 37.0433L29.0615 45.2767C28.9973 45.53 28.9973 45.6883 28.9973 45.8783C29.0294 45.8783 29.0615 45.8783 29.0936 45.8783C29.5753 45.8783 29.9928 45.1183 30.2176 44.39C30.346 44.01 30.6671 43.7567 31.0846 43.7567H32.1122C32.4012 43.7567 32.6902 43.8833 32.8508 44.1367C33.0113 44.3583 33.0755 44.675 32.9792 44.9283C31.4378 49.1083 28.9331 49.995 27.1348 49.995ZM25.1117 46.0367C25.3686 46.1633 25.5613 46.4483 25.5934 46.7333C25.7219 48.0633 26.5247 48.2217 27.1348 48.2217C27.8092 48.2217 28.4514 48.0317 28.9973 47.6517C27.3275 47.62 27.1348 46.385 27.1348 45.8783C27.1348 45.5617 27.1669 45.2767 27.2632 44.8967L28.8046 37.7717H27.1027L25.5934 44.8333C25.5934 44.865 25.5934 44.8967 25.5613 44.8967C25.4328 45.34 25.2723 45.72 25.1117 46.0367ZM21.0335 37.7717L19.5242 44.8333C19.3958 45.3717 19.3636 45.8467 19.3636 46.2267C19.3636 47.5883 19.9417 48.2533 21.0977 48.2533C21.6115 48.2533 22.1895 48.1583 22.8318 47.6833C22.7997 47.6833 22.7675 47.6833 22.7675 47.6833C22.029 47.6833 21.1298 47.1767 21.1298 45.815C21.1298 45.53 21.1619 45.2767 21.2262 44.96L22.7675 37.8033H21.0335V37.7717Z" fill="white"/>
<path d="M36.2225 36.885L35.9014 38.3733C36.7684 37.645 37.6997 36.885 38.8557 36.885C39.9475 36.885 40.5576 37.7717 40.5576 38.69C40.5576 39.545 39.9796 40.4633 38.7915 40.4633C37.4107 40.4633 38.1171 38.88 37.3785 38.88C36.64 38.88 36.1904 39.2283 35.5803 39.7983L33.6214 48.9817H30.0891L32.6902 36.885H36.2225Z" fill="#6D1F11"/>
<path d="M33.6214 49.8683H30.0891C29.8322 49.8683 29.5753 49.7417 29.3826 49.5517C29.19 49.3617 29.1578 49.0767 29.19 48.8233L31.791 36.7267C31.8874 36.315 32.2406 36.03 32.6581 36.03H36.1904C36.4473 36.03 36.7042 36.1567 36.8969 36.3467C36.929 36.41 36.9611 36.4417 36.9932 36.505C37.5391 36.22 38.1493 36.03 38.8557 36.03C40.3329 36.03 41.4568 37.2017 41.4568 38.7217C41.4568 40.02 40.5256 41.3817 38.7915 41.3817C37.4428 41.3817 37.0895 40.4317 36.9611 39.8617C36.8005 39.925 36.64 40.0517 36.4152 40.2733L34.5206 49.1717C34.4242 49.5517 34.0389 49.8683 33.6214 49.8683ZM31.213 48.095H32.915L34.7132 39.6083C34.7454 39.4183 34.8417 39.26 34.9701 39.1333C35.0344 39.07 35.1307 39.0067 35.1949 38.9433C35.0344 38.7533 34.9701 38.4683 35.0344 38.215L35.1307 37.7717H33.4288L31.213 48.095ZM38.7594 39.5767H38.7915C39.6264 39.5767 39.6585 38.8483 39.6585 38.69C39.6585 38.595 39.6264 37.7717 38.8557 37.7717C38.5025 37.7717 38.1493 37.8983 37.8281 38.0567C38.4704 38.31 38.6309 39.0383 38.663 39.3233C38.7273 39.3867 38.7273 39.4817 38.7594 39.5767Z" fill="white"/>
<path d="M51.0262 36.885L48.5857 48.095C50.095 47.5567 50.9941 46.7333 51.6685 44.6433H52.6961C51.7327 47.8417 49.8702 48.76 48.3609 49.1717L48.0077 50.9133C47.2691 54.365 45.2139 55.03 43.6083 55.03C42.099 55.03 40.8467 54.27 40.8467 52.6867C40.8467 50.66 42.9982 49.6467 44.8286 49.0767L45.1176 47.81C44.4111 48.57 43.4477 49.14 42.1633 49.14C40.4934 49.14 38.8878 48.1267 38.8878 45.245C38.8878 41.9833 40.9109 36.79 45.1818 36.79C46.5947 36.79 47.1728 37.3283 47.1728 38.025V38.1833L47.4297 36.9167H51.0262V36.885ZM43.0303 53.13C43.5441 53.13 44.1221 52.4017 44.4432 50.9767L44.6038 50.28C43.3514 50.755 42.1954 51.3567 42.1954 52.3383C42.1954 52.655 42.4844 53.13 43.0303 53.13ZM42.5807 44.865C42.5807 46.7333 43.3514 46.765 43.801 46.765C44.4753 46.765 45.4066 46.1 45.7598 44.865L47.0122 39.1333C46.9801 38.88 46.7874 38.2467 46.0167 38.2467C43.9294 38.2467 42.5807 42.6167 42.5807 44.865Z" fill="#6D1F11"/>
<path d="M43.6083 55.9167C41.4247 55.9167 39.9475 54.6183 39.9475 52.6867C39.9475 51.61 40.3971 50.6917 41.2641 49.9317C39.5943 49.5833 38.0529 48.2217 38.0529 45.245C38.0529 41.3183 40.5577 35.9033 45.246 35.9033C45.9525 35.9033 46.4984 36.03 46.948 36.22C47.1086 36.0933 47.3012 36.03 47.526 36.03H51.0584C51.3153 36.03 51.5721 36.1567 51.7648 36.3467C51.9254 36.5683 51.9896 36.8217 51.9575 37.075L49.9987 46.195C50.3519 45.7833 50.6409 45.2133 50.8978 44.39C51.0262 44.01 51.3795 43.7883 51.7648 43.7883H52.7924C53.0814 43.7883 53.3383 43.915 53.4989 44.1367C53.6594 44.3583 53.7237 44.6433 53.6273 44.9283C52.6319 48.2217 50.7372 49.3617 49.1958 49.9L48.9389 51.135C48.0398 55.0617 45.5351 55.9167 43.6083 55.9167ZM42.6771 53.985C43.0303 54.1117 43.3835 54.1433 43.6083 54.1433C44.8286 54.1433 46.4984 53.795 47.1407 50.7233L47.4939 48.9817C47.526 48.7917 47.6545 48.6017 47.7829 48.475C47.6866 48.285 47.6545 48.095 47.7187 47.905L49.9023 37.7717H48.2004L48.0719 38.31C48.0398 38.5 47.9435 38.6583 47.815 38.7533C47.8471 38.8483 47.8471 38.9433 47.8792 39.0383C47.8792 39.1333 47.8792 39.2283 47.8471 39.2917L46.5948 45.0233C46.5948 45.055 46.5948 45.055 46.5948 45.0867C46.37 45.8783 45.9525 46.5117 45.4387 46.9233C45.4708 46.9233 45.5029 46.955 45.5351 46.955C45.8883 47.145 46.081 47.5567 45.9846 47.9367L45.6956 49.2033C45.6314 49.425 45.5029 49.615 45.3424 49.7417C45.4708 49.9317 45.5029 50.185 45.4708 50.4067L45.3103 51.1033C44.8928 52.94 44.0579 53.9533 42.9982 53.9533C42.9019 54.0167 42.8055 54.0167 42.6771 53.985ZM44.8286 37.6767C41.3605 38.025 39.8512 42.775 39.8512 45.245C39.8512 47.2083 40.654 48.2533 42.2275 48.2533C42.8697 48.2533 43.4478 48.0633 43.9937 47.6833C43.9294 47.6833 43.8973 47.6833 43.8331 47.6833C42.4202 47.6833 41.7137 46.7333 41.7137 44.8967C41.6816 43.0283 42.6129 38.8167 44.8286 37.6767ZM46.0167 39.1333C44.8286 39.1333 43.4799 42.6167 43.4799 44.865C43.4799 45.6567 43.6404 45.8783 43.6404 45.8783C43.6404 45.8783 43.7368 45.8783 43.801 45.8783C44.0258 45.8783 44.6359 45.53 44.8928 44.675L46.081 39.165C46.081 39.1333 46.0489 39.1333 46.0167 39.1333Z" fill="white"/>
<path d="M55.9715 47.0817C57.8982 47.0817 59.0864 46.005 60.3067 44.6433H61.1416C59.7286 46.86 57.6734 49.1083 54.398 49.1083C52.0859 49.1083 50.5767 48 50.5767 45.2767C50.5767 42.49 52.1823 36.6633 57.1918 36.6633C59.3754 36.6633 59.8892 37.7717 59.8892 38.975C59.8892 41.7617 57.1918 43.915 54.2374 44.0733C54.2053 44.4217 54.1732 44.7383 54.1732 45.055C54.2053 46.7017 54.7834 47.0817 55.9715 47.0817ZM57.3844 37.93C56.1321 37.93 54.9439 40.5267 54.4301 42.9017C56.3247 42.775 57.9946 40.9067 57.9946 38.9117C57.9946 38.31 57.834 37.93 57.3844 37.93Z" fill="#6D1F11"/>
<path d="M54.398 49.995C51.3795 49.995 49.6775 48.2533 49.6775 45.245C49.6775 42.1417 51.5079 35.745 57.1918 35.745C59.5038 35.745 60.7883 36.885 60.7883 38.9433C60.7883 41.7933 58.3157 44.3267 55.1045 44.8333C55.1045 44.8967 55.1045 44.96 55.1045 44.9917C55.1045 46.1317 55.2972 46.1317 55.9715 46.1317C57.4487 46.1317 58.412 45.3717 59.6323 43.9783C59.7929 43.7883 60.0498 43.6617 60.3066 43.6617H61.1416C61.4627 43.6617 61.7838 43.8517 61.9444 44.105C62.1049 44.3583 62.1049 44.7383 61.9123 44.9917C59.825 48.4117 57.3844 49.995 54.398 49.995ZM55.8431 37.74C52.5676 38.69 51.4758 43.0283 51.4758 45.2767C51.4758 47.335 52.3749 48.2217 54.398 48.2217C54.976 48.2217 55.554 48.1267 56.1 47.9683C56.0678 47.9683 56.0357 47.9683 55.9715 47.9683C54.1411 47.9683 53.3062 47.05 53.3062 45.055C53.3062 44.7383 53.3383 44.3583 53.3704 44.01C53.4025 43.7567 53.4989 43.535 53.6915 43.3767C53.5631 43.1867 53.531 42.965 53.5631 42.7433C53.6594 42.3 54.3338 39.1333 55.8431 37.74ZM57.0954 39.0067C56.7101 39.355 56.1963 40.2417 55.7467 41.5083C56.5174 40.9383 57.0633 39.9883 57.0954 39.0067ZM58.7653 38.0567C58.8295 38.2783 58.8937 38.5633 58.8937 38.9433C58.8937 39.4817 58.7974 39.9883 58.6368 40.4633C58.8616 39.9883 58.99 39.4817 58.99 38.975C58.99 38.6267 58.9579 38.31 58.7653 38.0567Z" fill="white"/>
<path d="M64.8666 36.885L64.5455 38.3733C65.4125 37.645 66.3437 36.885 67.4998 36.885C68.5916 36.885 69.2017 37.7717 69.2017 38.69C69.2017 39.545 68.6237 40.4633 67.4356 40.4633C66.0547 40.4633 66.7612 38.88 66.0226 38.88C65.284 38.88 64.8345 39.2283 64.2243 39.7983L62.2655 48.9817H58.7332L61.3342 36.885H64.8666Z" fill="#6D1F11"/>
<path d="M62.2655 49.8683H58.7331C58.4762 49.8683 58.2193 49.7417 58.0267 49.5517C57.834 49.3617 57.8019 49.0767 57.834 48.8233L60.4351 36.7267C60.5314 36.315 60.8847 36.03 61.3021 36.03H64.8344C65.0913 36.03 65.3482 36.1567 65.5409 36.3467C65.573 36.41 65.6051 36.4417 65.6372 36.505C66.1832 36.22 66.7933 36.03 67.4998 36.03C68.9769 36.03 70.1008 37.2017 70.1008 38.7217C70.1008 40.02 69.1696 41.3817 67.4355 41.3817C66.0868 41.3817 65.7336 40.4317 65.6051 39.8617C65.4446 39.925 65.284 40.0517 65.0592 40.2733L63.1646 49.1717C63.0683 49.5517 62.715 49.8683 62.2655 49.8683ZM59.8571 48.095H61.559L63.3573 39.6083C63.3894 39.4183 63.4857 39.26 63.6142 39.1333C63.6784 39.07 63.7747 39.0067 63.839 38.9433C63.6784 38.7533 63.6142 38.4683 63.6784 38.215L63.7747 37.7717H62.0728L59.8571 48.095ZM67.4034 39.5767H67.4355C68.2704 39.5767 68.3026 38.8483 68.3026 38.69C68.3026 38.595 68.2704 37.7717 67.4998 37.7717C67.1465 37.7717 66.7933 37.8983 66.4722 38.0567C67.1144 38.31 67.275 39.0383 67.3071 39.3233C67.3713 39.3867 67.3713 39.4817 67.4034 39.5767Z" fill="white"/>
<path d="M12.299 32.2933L10.9824 37.93H11.1429C13.3908 37.93 15.2212 35.7133 15.2212 33.8133C15.2212 32.3567 14.1615 31.0583 11.4962 31.0583C8.1886 31.0583 4.43148 33.0217 4.43148 37.2333C4.43148 38.5317 4.78471 38.7217 4.81682 38.975C2.95432 38.975 1.79828 38.3417 1.79828 36.6317C1.79828 33.1167 6.71144 29.9183 12.0742 29.9183C16.2166 29.9183 18.1113 31.8817 18.1113 33.94C18.1113 35.4283 17.1158 37.0433 15.2854 37.9617C17.6938 38.405 18.6251 40.1467 18.6251 42.0467C18.6251 44.485 17.1479 49.3617 12.4274 49.3617C11.2071 49.3617 9.63365 49.045 9.63365 47.4933C9.63365 47.0817 9.7621 46.6067 9.98688 46.0367C10.6934 46.7017 11.2393 46.955 11.8815 46.955C13.9367 46.955 14.6753 44.3267 14.6753 42.395C14.6753 40.6217 14.0651 39.165 11.9778 39.165C11.7531 39.165 11.175 39.1967 10.6612 39.2283L8.34916 48.95H4.27092L8.12438 32.8L12.299 32.2933Z" fill="#411F1F"/>
<path d="M29.8964 36.885L28.1303 45.1183C28.066 45.435 28.0339 45.6883 28.0339 45.8783C28.0339 46.5433 28.355 46.765 29.0294 46.765C29.9928 46.765 30.635 45.8467 31.0203 44.6433H32.0479C30.635 48.6017 28.4514 49.1083 27.1027 49.1083C25.6897 49.1083 24.8227 48.3167 24.6621 46.7967C23.4419 48.7917 22.0611 49.1083 21.0335 49.1083C19.5563 49.1083 18.4003 48.2533 18.4003 46.195C18.4003 45.72 18.4645 45.2133 18.5929 44.6117L20.2628 36.8533H23.7951L22.0289 45.0867C21.9647 45.34 21.9647 45.53 21.9647 45.7517C21.9647 46.3217 22.1574 46.7333 22.7033 46.7333C23.6667 46.7333 24.3089 45.815 24.6621 44.6117L26.332 36.8533H29.8964V36.885Z" fill="#411F1F"/>
<path d="M36.2225 36.885L35.9014 38.3733C36.7684 37.645 37.6997 36.885 38.8557 36.885C39.9475 36.885 40.5577 37.7717 40.5577 38.69C40.5577 39.545 39.9797 40.4633 38.7915 40.4633C37.4107 40.4633 38.1171 38.88 37.3786 38.88C36.64 38.88 36.1904 39.2283 35.5803 39.7983L33.6214 48.9817H30.0891L32.6902 36.885H36.2225Z" fill="#411F1F"/>
<path d="M51.0262 36.885L48.5857 48.095C50.095 47.5567 50.9941 46.7333 51.6685 44.6433H52.6961C51.7327 47.8417 49.8702 48.76 48.3609 49.1717L48.0077 50.9133C47.2691 54.365 45.2139 55.03 43.6083 55.03C42.099 55.03 40.8467 54.27 40.8467 52.6867C40.8467 50.66 42.9982 49.6467 44.8286 49.0767L45.1176 47.81C44.4111 48.57 43.4477 49.14 42.1633 49.14C40.4934 49.14 38.8878 48.1267 38.8878 45.245C38.8878 41.9833 40.9109 36.79 45.1818 36.79C46.5947 36.79 47.1728 37.3283 47.1728 38.025V38.1833L47.4297 36.9167H51.0262V36.885ZM43.0303 53.13C43.5441 53.13 44.1221 52.4017 44.4432 50.9767L44.6038 50.28C43.3514 50.755 42.1954 51.3567 42.1954 52.3383C42.1954 52.655 42.4844 53.13 43.0303 53.13ZM42.5807 44.865C42.5807 46.7333 43.3514 46.765 43.801 46.765C44.4753 46.765 45.4066 46.1 45.7598 44.865L47.0122 39.1333C46.9801 38.88 46.7874 38.2467 46.0167 38.2467C43.9294 38.2467 42.5807 42.6167 42.5807 44.865Z" fill="#411F1F"/>
<path d="M55.9715 47.0817C57.8982 47.0817 59.0864 46.005 60.3067 44.6433H61.1416C59.7286 46.86 57.6734 49.1083 54.398 49.1083C52.0859 49.1083 50.5767 48 50.5767 45.2767C50.5767 42.49 52.1823 36.6633 57.1918 36.6633C59.3754 36.6633 59.8892 37.7717 59.8892 38.975C59.8892 41.7617 57.1918 43.915 54.2374 44.0733C54.2053 44.4217 54.1732 44.7383 54.1732 45.055C54.2053 46.7017 54.7834 47.0817 55.9715 47.0817ZM57.3844 37.93C56.1321 37.93 54.9439 40.5267 54.4301 42.9017C56.3247 42.775 57.9946 40.9067 57.9946 38.9117C57.9946 38.31 57.834 37.93 57.3844 37.93Z" fill="#411F1F"/>
<path d="M64.8666 36.885L64.5455 38.3733C65.4125 37.645 66.3437 36.885 67.4998 36.885C68.5916 36.885 69.2017 37.7717 69.2017 38.69C69.2017 39.545 68.6237 40.4633 67.4356 40.4633C66.0547 40.4633 66.7612 38.88 66.0226 38.88C65.284 38.88 64.8345 39.2283 64.2243 39.7983L62.2655 48.9817H58.7332L61.3342 36.885H64.8666Z" fill="#411F1F"/>
<path d="M18.3039 55.8533L20.4233 49.7417H21.7399V55.8533L23.9236 49.7417H24.63L21.8041 57.1833H20.2949V52.1167L18.3039 57.1833H16.8268V50.375C15.7349 50.7233 15.189 51.4833 15.189 52.5917C15.189 53.0983 15.3175 53.1933 15.3175 53.2567C14.611 53.2567 14.2257 53.0033 14.2257 52.275C14.2257 50.945 16.0882 49.6783 17.7901 49.6783C17.9186 49.6783 18.0791 49.6783 18.2076 49.71L18.3039 55.8533Z" fill="#6D1F11"/>
<path d="M21.8042 58.07H20.2949C19.8132 58.07 19.3957 57.6583 19.3957 57.1833V56.835L19.1388 57.5C19.0104 57.8483 18.6572 58.07 18.3039 58.07H16.8268C16.3451 58.07 15.9276 57.6583 15.9276 57.1833V53.9217C15.7671 54.08 15.5423 54.1433 15.3175 54.1433C14.0651 54.1433 13.3265 53.4467 13.3265 52.275C13.3265 50.3117 15.735 48.7917 17.7901 48.7917C17.9507 48.7917 18.1113 48.7917 18.2718 48.8233C18.7214 48.855 19.1067 49.235 19.1067 49.71V50.755L19.5563 49.4567C19.6847 49.1083 20.038 48.855 20.4233 48.855H21.7399C22.2216 48.855 22.6391 49.2667 22.6391 49.7417V50.6283L23.0565 49.425C23.185 49.0767 23.5382 48.8233 23.8914 48.8233H24.5979C24.8869 48.8233 25.1759 48.9817 25.3365 49.2033C25.4971 49.4567 25.5292 49.7417 25.4328 50.0267L22.6712 57.5C22.5427 57.8483 22.1895 58.07 21.8042 58.07ZM20.8087 51.3567C20.8087 51.3567 20.8408 51.3567 20.8408 51.3883V51.2617L20.8087 51.3567Z" fill="white"/>
<path d="M25.3044 56.3917C26.1072 56.3917 26.5889 55.9483 27.1027 55.3783H27.4559C26.8779 56.2967 26.0109 57.215 24.6622 57.215C23.6988 57.215 23.0887 56.7717 23.0887 55.6317C23.0887 54.4917 23.7309 52.085 25.8182 52.085C26.7173 52.085 26.9421 52.5283 26.9421 53.035C26.9421 54.175 25.8182 55.0617 24.63 55.125C24.63 55.2517 24.5979 55.41 24.5979 55.5367C24.5979 56.2333 24.8227 56.3917 25.3044 56.3917ZM25.8824 52.6233C25.3686 52.6233 24.8869 53.7 24.6622 54.6817C25.4328 54.6183 26.1393 53.8583 26.1393 53.035C26.1393 52.7817 26.0751 52.6233 25.8824 52.6233Z" fill="#6D1F11"/>
<path d="M24.6622 58.1333C23.1208 58.1333 22.1895 57.1833 22.1895 55.6633C22.1895 53.8267 23.3134 51.23 25.8182 51.23C27.0706 51.23 27.8413 51.9267 27.8413 53.0667C27.8413 53.605 27.6807 54.08 27.4238 54.5233H27.4559C27.777 54.5233 28.0982 54.7133 28.2587 54.9667C28.4193 55.2517 28.4193 55.6 28.2266 55.8533C27.2632 57.3733 26.0751 58.1333 24.6622 58.1333Z" fill="white"/>
<path d="M29.19 56.3917C29.9928 56.3917 30.4744 55.9483 30.9882 55.3783H31.3415C30.7634 56.2967 29.8964 57.215 28.5477 57.215C27.5843 57.215 26.9742 56.7717 26.9742 55.6317C26.9742 54.4917 27.6165 52.085 29.7037 52.085C30.6029 52.085 30.8277 52.5283 30.8277 53.035C30.8277 54.175 29.7037 55.0617 28.5156 55.125C28.5156 55.2517 28.4835 55.41 28.4835 55.5367C28.4514 56.2333 28.7083 56.3917 29.19 56.3917ZM29.768 52.6233C29.2542 52.6233 28.7404 53.7 28.5477 54.6817C29.3184 54.6183 30.0249 53.8583 30.0249 53.035C30.0249 52.7817 29.9606 52.6233 29.768 52.6233Z" fill="#6D1F11"/>
<path d="M28.5477 58.1333C27.0063 58.1333 26.0751 57.1833 26.0751 55.6633C26.0751 53.8267 27.199 51.23 29.7037 51.23C30.9561 51.23 31.7268 51.9267 31.7268 53.0667C31.7268 53.605 31.5663 54.08 31.3094 54.5233H31.3415C31.6626 54.5233 31.9837 54.7133 32.1443 54.9667C32.3048 55.2517 32.3048 55.6 32.1122 55.8533C31.1488 57.3733 29.9606 58.1333 28.5477 58.1333Z" fill="white"/>
<path d="M35.7408 52.18L33.7178 53.5733C33.8141 53.5417 33.9426 53.5417 34.0389 53.5417C34.7775 53.5417 35.1628 54.08 35.1628 54.7133C35.1628 54.84 35.1628 54.9667 35.1307 55.0933L35.0344 55.6C35.0023 55.695 34.9701 55.8217 34.9701 55.9167C34.9701 56.1067 35.0665 56.2967 35.3555 56.2967C35.6124 56.2967 35.6445 56.265 35.7087 56.2333C35.6445 56.93 35.0344 57.2467 34.7775 57.2467C33.9426 57.2467 33.493 56.835 33.493 56.1067C33.493 55.9483 33.5251 55.79 33.5572 55.6L33.6535 55.22C33.6857 55.0933 33.6857 54.9667 33.6857 54.84C33.6857 54.555 33.5893 54.365 33.3324 54.365C33.1076 54.365 32.8829 54.4917 32.5938 54.745L32.0801 57.215H30.635L32.1122 50.4383L33.6214 50.2483L32.8507 53.7633L34.8096 52.2433H35.7408V52.18Z" fill="#6D1F11"/>
<path d="M34.7775 58.1333C33.9426 58.1333 33.3003 57.8167 32.9471 57.2783L32.915 57.3417C32.8186 57.7533 32.4654 58.0383 32.048 58.0383H30.6029C30.346 58.0383 30.0891 57.9117 29.8964 57.7217C29.7359 57.5 29.6717 57.2467 29.7038 56.9933L31.1809 50.2167C31.2452 49.8367 31.5663 49.5833 31.9516 49.52L33.4609 49.33C33.7499 49.2983 34.0389 49.3933 34.2316 49.615C34.4243 49.8367 34.5206 50.1217 34.4564 50.4067L34.2316 51.515C34.3921 51.3883 34.5848 51.325 34.7775 51.325H35.773C36.1583 51.325 36.5115 51.5783 36.64 51.9583C36.7684 52.3383 36.6079 52.7183 36.2868 52.94L35.6445 53.3833C35.9335 53.7317 36.0941 54.2067 36.0941 54.745C36.0941 54.935 36.062 55.1567 36.0299 55.315L35.9978 55.41C36.0941 55.4417 36.1583 55.4733 36.2547 55.5367C36.5115 55.7267 36.64 56.0117 36.64 56.3283C36.5437 57.4683 35.484 58.1333 34.7775 58.1333Z" fill="white"/>
<path d="M18.3039 55.8533L20.4233 49.7417H21.7399V55.8533L23.9236 49.7417H24.63L21.8041 57.1833H20.2949V52.1167L18.3039 57.1833H16.8268V50.375C15.735 50.7233 15.189 51.4833 15.189 52.5917C15.189 53.0983 15.3175 53.1933 15.3175 53.2567C14.611 53.2567 14.2257 53.0033 14.2257 52.275C14.2257 50.945 16.0882 49.6783 17.7901 49.6783C17.9186 49.6783 18.0791 49.6783 18.2076 49.71L18.3039 55.8533Z" fill="#411F1F"/>
<path d="M25.3044 56.3917C26.1072 56.3917 26.5889 55.9483 27.1027 55.3783H27.4559C26.8779 56.2967 26.0109 57.215 24.6622 57.215C23.6988 57.215 23.0887 56.7717 23.0887 55.6317C23.0887 54.4917 23.7309 52.085 25.8182 52.085C26.7173 52.085 26.9421 52.5283 26.9421 53.035C26.9421 54.175 25.8182 55.0617 24.63 55.125C24.63 55.2517 24.5979 55.41 24.5979 55.5367C24.5979 56.2333 24.8227 56.3917 25.3044 56.3917ZM25.8824 52.6233C25.3686 52.6233 24.8869 53.7 24.6622 54.6817C25.4328 54.6183 26.1393 53.8583 26.1393 53.035C26.1393 52.7817 26.0751 52.6233 25.8824 52.6233Z" fill="#411F1F"/>
<path d="M29.19 56.3917C29.9928 56.3917 30.4744 55.9483 30.9882 55.3783H31.3415C30.7634 56.2967 29.8964 57.215 28.5477 57.215C27.5843 57.215 26.9742 56.7717 26.9742 55.6317C26.9742 54.4917 27.6165 52.085 29.7037 52.085C30.6029 52.085 30.8277 52.5283 30.8277 53.035C30.8277 54.175 29.7037 55.0617 28.5156 55.125C28.5156 55.2517 28.4835 55.41 28.4835 55.5367C28.4514 56.2333 28.7083 56.3917 29.19 56.3917ZM29.768 52.6233C29.2542 52.6233 28.7404 53.7 28.5477 54.6817C29.3184 54.6183 30.0249 53.8583 30.0249 53.035C30.0249 52.7817 29.9606 52.6233 29.768 52.6233Z" fill="#411F1F"/>
<path d="M35.7408 52.18L33.7178 53.5733C33.8141 53.5417 33.9426 53.5417 34.0389 53.5417C34.7775 53.5417 35.1628 54.08 35.1628 54.7133C35.1628 54.84 35.1628 54.9667 35.1307 55.0933L35.0344 55.6C35.0023 55.695 34.9701 55.8217 34.9701 55.9167C34.9701 56.1067 35.0665 56.2967 35.3555 56.2967C35.6124 56.2967 35.6445 56.265 35.7087 56.2333C35.6445 56.93 35.0344 57.2467 34.7775 57.2467C33.9426 57.2467 33.493 56.835 33.493 56.1067C33.493 55.9483 33.5251 55.79 33.5572 55.6L33.6535 55.22C33.6857 55.0933 33.6857 54.9667 33.6857 54.84C33.6857 54.555 33.5893 54.365 33.3324 54.365C33.1076 54.365 32.8829 54.4917 32.5938 54.745L32.0801 57.215H30.635L32.1122 50.4383L33.6214 50.2483L32.8507 53.7633L34.8096 52.2433H35.7408V52.18Z" fill="#411F1F"/>
<path d="M44.5396 28.8733H39.4016V31.47H44.5396V28.8733Z" fill="white"/>
<path d="M18.6572 31.5967C17.1479 31.5967 16.1524 30.71 16.1524 29.4117C16.1524 28.4617 16.6662 27.7967 17.3084 27.48C17.1479 27.195 17.0194 26.8467 17.0194 26.4667C17.0194 25.2 18.1434 24.2183 19.6526 24.2183C20.9371 24.2183 21.8041 24.9467 21.8041 26.055C21.8041 26.625 21.5794 27.1 21.194 27.385C21.4509 27.765 21.6115 28.24 21.6115 28.8733C21.6757 30.425 20.3912 31.5967 18.6572 31.5967Z" fill="white"/>
<path d="M20.2628 26.7517C20.1343 26.7517 20.038 26.72 19.9416 26.5933C20.1343 26.4667 20.2628 26.2133 20.2628 25.9917C20.2628 25.7383 20.1343 25.5167 19.749 25.5167C19.3636 25.5167 19.1067 25.7383 19.1067 26.15C19.1067 27.195 20.7123 27.3217 20.7123 28.8417C20.7123 30.0133 19.749 30.615 18.7214 30.615C17.9186 30.615 17.2121 30.2667 17.2121 29.4117C17.2121 28.6517 17.758 28.2717 18.2718 28.2717C18.5287 28.2717 18.8819 28.3667 18.914 28.7467C18.5287 28.7467 18.0791 28.9367 18.0791 29.4117C18.0791 29.76 18.3039 30.0767 18.7535 30.0767C19.2352 30.0767 19.5884 29.7283 19.5884 29.1267C19.5884 27.9233 18.1112 27.48 18.1112 26.4667C18.1112 25.7383 18.8498 25.2 19.749 25.2C20.0701 25.2 20.905 25.2633 20.905 26.055C20.8408 26.435 20.616 26.7517 20.2628 26.7517Z" fill="white"/>
<path d="M22.0611 31.47C20.7766 31.47 19.9417 30.6467 19.9417 29.38C19.9417 27.9233 20.8408 25.8967 22.8639 25.8967C23.9557 25.8967 24.63 26.53 24.63 27.5433C24.63 27.8283 24.5658 28.0817 24.4695 28.335C24.63 28.43 24.7585 28.5567 24.8548 28.715C25.0154 29.0317 25.0154 29.4117 24.8227 29.6967C24.1162 30.9 23.185 31.47 22.0611 31.47Z" fill="white"/>
<path d="M22.5106 29.9183C23.0886 29.9183 23.4098 29.6017 23.763 29.2217H24.0199C23.6024 29.855 22.9923 30.52 22.0611 30.52C21.3867 30.52 20.9371 30.2033 20.9371 29.4117C20.9371 28.5883 21.3867 26.91 22.8639 26.91C23.5061 26.91 23.6346 27.2267 23.6346 27.575C23.6346 28.3983 22.8639 29 21.9968 29.0633C21.9968 29.1583 21.9968 29.2533 21.9968 29.3483C21.9968 29.7917 22.1574 29.9183 22.5106 29.9183ZM22.9281 27.2583C22.5749 27.2583 22.2216 28.0183 22.0611 28.715C22.607 28.6833 23.0886 28.145 23.0886 27.5433C23.0886 27.3533 23.0565 27.2583 22.9281 27.2583Z" fill="white"/>
<path d="M28.0981 31.47C27.6486 31.47 27.2953 31.3433 26.9742 31.1533C26.7815 31.3433 26.5568 31.4383 26.2677 31.4383H25.2402C25.1117 31.4383 24.9833 31.4067 24.8869 31.375C24.7585 31.4067 24.6621 31.4383 24.5337 31.4383H23.5061C23.2171 31.4383 22.9281 31.3117 22.7354 31.09C22.5427 30.8683 22.4785 30.5517 22.5427 30.2667L23.3134 26.7517C23.4098 26.3083 23.8272 25.9917 24.2768 25.9917H25.3044C25.4007 25.9917 25.4649 25.9917 25.5613 26.0233C25.7218 25.9917 25.9145 25.96 26.1072 25.96C26.4283 25.96 26.7173 26.0233 26.9742 26.15C27.2311 26.0233 27.5201 25.96 27.8412 25.96C28.9009 25.96 29.6395 26.6883 29.6395 27.7333C29.6395 27.8917 29.6074 28.0817 29.6074 28.24C29.8964 28.2717 30.1533 28.43 30.3139 28.6517C30.5065 28.905 30.5387 29.2217 30.4423 29.5383C29.8001 31.1533 28.8367 31.47 28.0981 31.47Z" fill="white"/>
<path d="M27.3275 27.5433C27.0706 27.5433 26.8779 27.8283 26.7815 28.1767L26.2999 30.425H25.2723L25.7861 27.9867C25.7861 27.9233 25.8182 27.86 25.8182 27.7967C25.8182 27.6383 25.754 27.48 25.5934 27.48C25.3044 27.48 25.1117 27.7967 25.0154 28.145L24.5337 30.3933H23.5061L24.2768 26.8783H25.3044L25.2402 27.2583C25.5292 26.91 25.8503 26.8467 26.1072 26.8467C26.4925 26.8467 26.7494 27.005 26.8458 27.4483C27.199 26.9417 27.5843 26.8467 27.8412 26.8467C28.2908 26.8467 28.6441 27.0683 28.6441 27.6383C28.6441 28.2083 28.2908 29.0633 28.2908 29.4433C28.2908 29.6333 28.355 29.7283 28.5798 29.7283C28.9009 29.7283 29.0294 29.475 29.19 29.095H29.479C29.0936 30.235 28.5156 30.3933 28.1624 30.3933C27.5522 30.3933 27.3275 30.0133 27.3275 29.6017C27.3275 29.1267 27.6486 28.2717 27.6486 27.7967C27.5844 27.67 27.488 27.5433 27.3275 27.5433Z" fill="white"/>
<path d="M31.7589 31.47C31.4378 31.47 31.1488 31.4067 30.924 31.2483C30.6029 31.4067 30.2818 31.47 30.0249 31.47C29.0615 31.47 28.0981 30.805 28.0981 29.3483C28.0981 27.955 28.9973 25.8967 30.924 25.8967C31.0846 25.8967 31.2451 25.9283 31.4057 25.96C31.4699 25.96 31.5341 25.9283 31.5984 25.9283H32.626C32.915 25.9283 33.204 26.055 33.3967 26.2767C33.5893 26.4983 33.6535 26.815 33.5893 27.1L33.3645 28.1767C33.6535 28.2083 33.9104 28.3667 34.071 28.5883C34.2637 28.8417 34.2958 29.19 34.1995 29.475C33.5251 31.2167 32.3691 31.47 31.7589 31.47Z" fill="white"/>
<path d="M32.5617 26.9417L32.0479 29.3483C32.0158 29.4433 32.0158 29.5067 32.0158 29.57C32.0158 29.76 32.1122 29.8867 32.3048 29.8867C32.5938 29.8867 32.7865 29.57 32.8829 29.2217H33.1719C32.7544 30.3617 32.1122 30.52 31.7268 30.52C31.3415 30.52 31.0846 30.2983 31.0203 29.8867C30.7956 30.2033 30.4744 30.52 29.9606 30.52C29.479 30.52 28.9973 30.235 28.9973 29.38C28.9973 28.43 29.5753 26.91 30.8277 26.91C31.2451 26.91 31.4057 27.0683 31.4057 27.2583V27.3217L31.4699 26.9417H32.5617ZM30.0891 29.285C30.0891 29.8233 30.3139 29.8233 30.4423 29.8233C30.635 29.8233 30.9561 29.6017 31.0203 29.19L31.3736 27.6067C31.3736 27.5117 31.3094 27.3533 31.0846 27.3533C30.4744 27.3533 30.0891 28.62 30.0891 29.285Z" fill="white"/>
<path d="M33.5893 31.47C32.5617 31.47 31.8232 30.71 31.8232 29.6333C31.8232 29.4433 31.8553 29.2217 31.8874 28.9683L32.3691 26.72C32.4012 26.5933 32.4654 26.4667 32.5296 26.34C32.4975 26.2133 32.4975 26.0867 32.4975 25.96C32.4975 25.105 33.204 24.4083 34.0389 24.4083C34.9059 24.4083 35.6124 25.105 35.6124 25.96C35.6124 26.2767 35.5161 26.5617 35.3555 26.7833C35.3555 26.8783 35.3555 26.9733 35.3234 27.0683L35.0986 28.145C35.3876 28.145 35.6766 28.3033 35.8693 28.5567C36.062 28.81 36.0941 29.1583 35.9977 29.4433C35.3876 31.28 34.1031 31.47 33.5893 31.47Z" fill="white"/>
<path d="M34.3921 26.9417L33.8783 29.3483C33.8462 29.4433 33.8462 29.5067 33.8462 29.57C33.8462 29.76 33.9425 29.8233 34.1352 29.8233C34.4242 29.8233 34.6811 29.57 34.7775 29.19H35.0665C34.649 30.33 33.9425 30.4883 33.5572 30.4883C33.1397 30.4883 32.7865 30.235 32.7865 29.6333C32.7865 29.5067 32.8186 29.3483 32.8507 29.19L33.3324 26.9417H34.3921ZM34.071 25.4533C34.3921 25.4533 34.649 25.7067 34.649 26.0233C34.649 26.34 34.3921 26.5933 34.071 26.5933C33.7499 26.5933 33.493 26.34 33.493 26.0233C33.5251 25.7067 33.7499 25.4533 34.071 25.4533Z" fill="white"/>
<path d="M37.3785 31.47C36.929 31.47 36.5757 31.3433 36.2546 31.1533C36.0619 31.3433 35.8372 31.4383 35.5481 31.4383H34.5206C34.2316 31.4383 33.9425 31.3117 33.7499 31.09C33.5572 30.8683 33.493 30.5517 33.5572 30.2667L34.3279 26.7517C34.4242 26.3083 34.8417 25.9917 35.2913 25.9917H36.3188C36.4152 25.9917 36.4794 25.9917 36.5757 26.0233C36.7363 25.9917 36.8969 25.96 37.0895 25.96C38.1492 25.96 38.8878 26.6883 38.8878 27.7333C38.8878 27.8917 38.8557 28.0817 38.8557 28.24C39.1447 28.2717 39.4016 28.43 39.5622 28.6517C39.7548 28.905 39.787 29.2217 39.6906 29.5383C39.0805 31.1533 38.085 31.47 37.3785 31.47Z" fill="white"/>
<path d="M36.5758 27.5433C36.3189 27.5433 36.1262 27.8283 36.0298 28.1767L35.5482 30.425H34.5206L35.2913 26.91H36.3189L36.2546 27.29C36.5436 26.9417 36.8648 26.91 37.0895 26.91C37.5391 26.91 37.8924 27.1317 37.8924 27.7017C37.8924 28.2717 37.5391 29.1267 37.5391 29.5067C37.5391 29.6967 37.6033 29.7917 37.8281 29.7917C38.1493 29.7917 38.2777 29.5383 38.4383 29.1583H38.7273C38.3419 30.2983 37.7639 30.4567 37.4107 30.4567C36.8005 30.4567 36.5758 30.0767 36.5758 29.665C36.5758 29.19 36.8969 28.335 36.8969 27.86C36.8327 27.67 36.7684 27.5433 36.5758 27.5433Z" fill="white"/>
<path d="M39.4016 31.47C38.1171 31.47 37.3143 30.6467 37.3143 29.38C37.3143 27.9233 38.2135 25.8967 40.2365 25.8967C41.3284 25.8967 42.0027 26.53 42.0027 27.5433C42.0027 28.0817 41.81 28.5567 41.4889 28.9683C41.6174 29.1583 41.6495 29.4117 41.6174 29.6333C41.3926 30.805 40.5577 31.47 39.4016 31.47Z" fill="white"/>
<path d="M39.7869 29.8233C40.0438 29.8233 40.3971 29.6333 40.6219 29.4433C40.4613 30.235 39.9475 30.4883 39.4016 30.4883C38.7272 30.4883 38.3098 30.1717 38.3098 29.38C38.3098 28.5567 38.7594 26.8783 40.2365 26.8783C40.8788 26.8783 41.0072 27.195 41.0072 27.5433C41.0072 28.3667 40.2365 28.9683 39.3695 29.0317C39.3695 29.095 39.3695 29.19 39.3695 29.2533C39.3374 29.6967 39.53 29.8233 39.7869 29.8233ZM40.2686 27.2583C39.9154 27.2583 39.5622 28.05 39.4016 28.715C39.9475 28.6833 40.4292 28.145 40.4292 27.5433C40.4613 27.3533 40.3971 27.2583 40.2686 27.2583Z" fill="white"/>
<path d="M43.4156 31.47C42.4523 31.47 41.4889 30.805 41.4889 29.3483C41.4889 27.9867 42.3559 26.0233 44.1863 25.9283L44.2827 25.4533C44.379 25.0417 44.7001 24.7567 45.1176 24.6933L46.1773 24.5667C46.2094 24.5667 46.2736 24.5667 46.3057 24.5667C46.5947 24.5667 46.8516 24.6933 47.0443 24.8833C47.2691 25.105 47.3654 25.4533 47.3012 25.7383L46.7553 28.24C47.0443 28.2717 47.3012 28.43 47.4618 28.6517C47.6544 28.905 47.6865 29.2533 47.5902 29.5383C47.0443 31.1217 45.9846 31.4383 45.2139 31.4383C44.9249 31.4383 44.6359 31.375 44.4111 31.2483C44.0579 31.4067 43.7367 31.47 43.4156 31.47Z" fill="white"/>
<path d="M46.2736 25.5483L45.4387 29.3483C45.4066 29.4433 45.4066 29.5067 45.4066 29.57C45.4066 29.76 45.5029 29.8233 45.6956 29.8233C45.9846 29.8233 46.1773 29.57 46.2736 29.19H46.5626C46.1452 30.33 45.5029 30.4567 45.1176 30.4567C44.7322 30.4567 44.4753 30.235 44.4111 29.855C44.1863 30.1717 43.8652 30.4883 43.3514 30.4883C42.8697 30.4883 42.388 30.2033 42.388 29.3483C42.388 28.3983 42.966 26.8783 44.2184 26.8783C44.6359 26.8783 44.7964 27.0367 44.7964 27.2267V27.2583L45.1497 25.6433L46.2736 25.5483ZM44.4432 29.19L44.7964 27.575C44.7964 27.48 44.7322 27.3217 44.5074 27.3217C43.8973 27.3217 43.512 28.5883 43.512 29.2533C43.512 29.7917 43.7367 29.7917 43.8652 29.7917C44.0579 29.7917 44.3469 29.6017 44.4432 29.2217V29.19Z" fill="white"/>
<path d="M48.7784 31.47C48.4572 31.47 48.2004 31.4067 47.9435 31.2483C47.6544 31.375 47.3654 31.47 47.0122 31.47C45.9846 31.47 45.246 30.71 45.246 29.6333C45.246 29.4433 45.2781 29.2217 45.3103 28.9683L45.7919 26.72C45.8883 26.2767 46.3057 25.96 46.7553 25.96H47.7829C47.9113 25.96 48.0398 25.9917 48.1361 26.0233C48.2646 25.9917 48.3609 25.96 48.4894 25.96H49.5169C49.806 25.96 50.095 26.0867 50.2876 26.3083C50.4803 26.53 50.5445 26.8467 50.4803 27.1317L50.095 28.9683C50.095 28.9683 50.095 28.9683 50.1271 28.9683C50.384 29.1583 50.5445 29.475 50.5124 29.8233C50.4803 30.805 49.7417 31.47 48.7784 31.47Z" fill="white"/>
<path d="M47.815 26.9417L47.3012 29.3483C47.3012 29.4117 47.2691 29.475 47.2691 29.5383C47.2691 29.6967 47.3333 29.855 47.4939 29.855C47.7829 29.855 47.9434 29.6017 48.0719 29.2217L48.5536 26.9733H49.5812L49.0674 29.38C49.0353 29.475 49.0353 29.5383 49.0353 29.6017C49.0353 29.7917 49.1316 29.855 49.3243 29.855C49.4527 29.855 49.4848 29.8233 49.549 29.8233C49.5169 30.33 49.1316 30.5517 48.7462 30.5517C48.3609 30.5517 48.104 30.2983 48.0398 29.8867C47.6865 30.4567 47.2691 30.5517 46.9801 30.5517C46.5626 30.5517 46.2094 30.2983 46.2094 29.6967C46.2094 29.57 46.2415 29.4117 46.2736 29.2533L46.7553 27.005H47.815V26.9417Z" fill="white"/>
<path d="M20.2628 26.7517C20.1343 26.7517 20.038 26.72 19.9416 26.5933C20.1343 26.4667 20.2628 26.2133 20.2628 25.9917C20.2628 25.7383 20.1343 25.5167 19.749 25.5167C19.3636 25.5167 19.1067 25.7383 19.1067 26.15C19.1067 27.195 20.7123 27.3217 20.7123 28.8417C20.7123 30.0133 19.749 30.615 18.7214 30.615C17.9186 30.615 17.2121 30.2667 17.2121 29.4117C17.2121 28.6517 17.758 28.2717 18.2718 28.2717C18.5287 28.2717 18.8819 28.3667 18.914 28.7467C18.5287 28.7467 18.0791 28.9367 18.0791 29.4117C18.0791 29.76 18.3039 30.0767 18.7535 30.0767C19.2352 30.0767 19.5884 29.7283 19.5884 29.1267C19.5884 27.9233 18.1112 27.48 18.1112 26.4667C18.1112 25.7383 18.8498 25.2 19.749 25.2C20.0701 25.2 20.905 25.2633 20.905 26.055C20.8408 26.435 20.616 26.7517 20.2628 26.7517Z" fill="#411F1F"/>
<path d="M22.5106 29.9183C23.0886 29.9183 23.4097 29.6017 23.763 29.2217H24.0199C23.6024 29.855 22.9923 30.52 22.061 30.52C21.3867 30.52 20.9371 30.2033 20.9371 29.4117C20.9371 28.5883 21.3867 26.91 22.8638 26.91C23.5061 26.91 23.6345 27.2267 23.6345 27.575C23.6345 28.3983 22.8638 29 21.9968 29.0633C21.9968 29.1583 21.9968 29.2533 21.9968 29.3483C21.9968 29.7917 22.1574 29.9183 22.5106 29.9183ZM22.9281 27.2583C22.5748 27.2583 22.2216 28.0183 22.061 28.715C22.6069 28.6833 23.0886 28.145 23.0886 27.5433C23.0886 27.3533 23.0565 27.2583 22.9281 27.2583Z" fill="#411F1F"/>
<path d="M27.3274 27.5433C27.0705 27.5433 26.8779 27.8283 26.7815 28.1767L26.2998 30.425H25.2722L25.786 27.9867C25.786 27.9233 25.8182 27.86 25.8182 27.7967C25.8182 27.6383 25.7539 27.48 25.5934 27.48C25.3044 27.48 25.1117 27.7967 25.0153 28.145L24.5337 30.3933H23.5061L24.2768 26.8783H25.3044L25.2401 27.2583C25.5291 26.91 25.8503 26.8467 26.1072 26.8467C26.4925 26.8467 26.7494 27.005 26.8457 27.4483C27.199 26.9417 27.5843 26.8467 27.8412 26.8467C28.2908 26.8467 28.644 27.0683 28.644 27.6383C28.644 28.2083 28.2908 29.0633 28.2908 29.4433C28.2908 29.6333 28.355 29.7283 28.5798 29.7283C28.9009 29.7283 29.0294 29.475 29.1899 29.095H29.4789C29.0936 30.235 28.5156 30.3933 28.1623 30.3933C27.5522 30.3933 27.3274 30.0133 27.3274 29.6017C27.3274 29.1267 27.6485 28.2717 27.6485 27.7967C27.5843 27.67 27.488 27.5433 27.3274 27.5433Z" fill="#411F1F"/>
<path d="M32.5617 26.9417L32.0479 29.3483C32.0158 29.4433 32.0158 29.5067 32.0158 29.57C32.0158 29.76 32.1121 29.8867 32.3048 29.8867C32.5938 29.8867 32.7865 29.57 32.8828 29.2217H33.1718C32.7544 30.3617 32.1121 30.52 31.7268 30.52C31.3414 30.52 31.0845 30.2983 31.0203 29.8867C30.7955 30.2033 30.4744 30.52 29.9606 30.52C29.4789 30.52 28.9973 30.235 28.9973 29.38C28.9973 28.43 29.5753 26.91 30.8276 26.91C31.2451 26.91 31.4057 27.0683 31.4057 27.2583V27.3217L31.4699 26.9417H32.5617ZM30.0891 29.285C30.0891 29.8233 30.3139 29.8233 30.4423 29.8233C30.635 29.8233 30.9561 29.6017 31.0203 29.19L31.3736 27.6067C31.3736 27.5117 31.3093 27.3533 31.0845 27.3533C30.4744 27.3533 30.0891 28.62 30.0891 29.285Z" fill="#411F1F"/>
<path d="M34.3921 26.9417L33.8783 29.3483C33.8462 29.4433 33.8462 29.5067 33.8462 29.57C33.8462 29.76 33.9425 29.8233 34.1352 29.8233C34.4242 29.8233 34.6811 29.57 34.7775 29.19H35.0665C34.649 30.33 33.9425 30.4883 33.5572 30.4883C33.1397 30.4883 32.7865 30.235 32.7865 29.6333C32.7865 29.5067 32.8186 29.3483 32.8507 29.19L33.3324 26.9417H34.3921ZM34.071 25.4533C34.3921 25.4533 34.649 25.7067 34.649 26.0233C34.649 26.34 34.3921 26.5933 34.071 26.5933C33.7499 26.5933 33.493 26.34 33.493 26.0233C33.5251 25.7067 33.7499 25.4533 34.071 25.4533Z" fill="#411F1F"/>
<path d="M36.5758 27.5433C36.3189 27.5433 36.1262 27.8283 36.0298 28.1767L35.5482 30.425H34.5206L35.2913 26.91H36.3189L36.2546 27.29C36.5436 26.9417 36.8648 26.91 37.0895 26.91C37.5391 26.91 37.8924 27.1317 37.8924 27.7017C37.8924 28.2717 37.5391 29.1267 37.5391 29.5067C37.5391 29.6967 37.6033 29.7917 37.8281 29.7917C38.1493 29.7917 38.2777 29.5383 38.4383 29.1583H38.7273C38.3419 30.2983 37.7639 30.4567 37.4107 30.4567C36.8005 30.4567 36.5758 30.0767 36.5758 29.665C36.5758 29.19 36.8969 28.335 36.8969 27.86C36.8327 27.67 36.7684 27.5433 36.5758 27.5433Z" fill="#411F1F"/>
<path d="M39.7869 29.8233C40.0438 29.8233 40.3971 29.6333 40.6219 29.4433C40.4613 30.235 39.9475 30.4883 39.4016 30.4883C38.7272 30.4883 38.3098 30.1717 38.3098 29.38C38.3098 28.5567 38.7594 26.8783 40.2365 26.8783C40.8788 26.8783 41.0072 27.195 41.0072 27.5433C41.0072 28.3667 40.2365 28.9683 39.3695 29.0317C39.3695 29.095 39.3695 29.19 39.3695 29.2533C39.3374 29.6967 39.53 29.8233 39.7869 29.8233ZM40.2686 27.2583C39.9154 27.2583 39.5622 28.05 39.4016 28.715C39.9475 28.6833 40.4292 28.145 40.4292 27.5433C40.4613 27.3533 40.3971 27.2583 40.2686 27.2583Z" fill="#411F1F"/>
<path d="M46.2736 25.5483L45.4387 29.3483C45.4066 29.4433 45.4066 29.5067 45.4066 29.57C45.4066 29.76 45.5029 29.8233 45.6956 29.8233C45.9846 29.8233 46.1773 29.57 46.2736 29.19H46.5626C46.1452 30.33 45.5029 30.4567 45.1176 30.4567C44.7322 30.4567 44.4753 30.235 44.4111 29.855C44.1863 30.1717 43.8652 30.4883 43.3514 30.4883C42.8697 30.4883 42.388 30.2033 42.388 29.3483C42.388 28.3983 42.966 26.8783 44.2184 26.8783C44.6359 26.8783 44.7964 27.0367 44.7964 27.2267V27.2583L45.1497 25.6433L46.2736 25.5483ZM44.4432 29.19L44.7964 27.575C44.7964 27.48 44.7322 27.3217 44.5074 27.3217C43.8973 27.3217 43.512 28.5883 43.512 29.2533C43.512 29.7917 43.7367 29.7917 43.8652 29.7917C44.0579 29.7917 44.3469 29.6017 44.4432 29.2217V29.19Z" fill="#411F1F"/>
<path d="M47.815 26.9417L47.3012 29.3483C47.3012 29.4117 47.2691 29.475 47.2691 29.5383C47.2691 29.6967 47.3333 29.855 47.4939 29.855C47.7829 29.855 47.9434 29.6017 48.0719 29.2217L48.5536 26.9733H49.5812L49.0674 29.38C49.0353 29.475 49.0353 29.5383 49.0353 29.6017C49.0353 29.7917 49.1316 29.855 49.3243 29.855C49.4527 29.855 49.4848 29.8233 49.549 29.8233C49.5169 30.33 49.1316 30.5517 48.7462 30.5517C48.3609 30.5517 48.104 30.2983 48.0398 29.8867C47.6865 30.4567 47.2691 30.5517 46.9801 30.5517C46.5626 30.5517 46.2094 30.2983 46.2094 29.6967C46.2094 29.57 46.2415 29.4117 46.2736 29.2533L46.7553 27.005H47.815V26.9417Z" fill="#411F1F"/>
</g>
<path d="M36.1111 6.091H36.6661V5.887H36.1111V5.287H35.8891V5.887H35.3341V6.091H35.8891V6.712H36.1111V6.091Z" fill="#411F1F"/>
<path d="M42.25 3.13174C41.9167 2.96407 41.4167 2.88024 41.0417 2.88024C40.6667 2.88024 40.1667 3.0479 40.1667 3.63473C40.1667 4.5988 42.5833 4.17964 42.5833 6.02395C42.5833 7.23952 41.625 7.65868 40.5 7.65868C39.9167 7.65868 39.625 7.57485 39.0833 7.4491V6.44311C39.4583 6.65269 40 6.77844 40.4583 6.77844C40.875 6.77844 41.4583 6.56886 41.4583 6.06587C41.4167 5.05988 39 5.47904 39 3.67665C39 2.46108 39.9583 2 40.9167 2C41.375 2 41.8333 2.04192 42.25 2.20958V3.13174Z" fill="#0075BF"/>
<path d="M48.5833 4.47306C48.25 4.34731 48 4.30539 47.625 4.30539C47.3333 4.30539 47 4.38922 47 4.72455C47 5.35329 48.7917 4.93413 48.7917 6.35928C48.7917 7.28144 47.9583 7.65868 47.125 7.65868C46.75 7.65868 46.3333 7.57485 45.9583 7.49102L46 6.6527C46.3333 6.82036 46.6667 6.90419 47 6.90419C47.25 6.90419 47.6667 6.82036 47.6667 6.44312C47.6667 5.68862 45.875 6.19162 45.875 4.76647C45.875 3.92815 46.625 3.5509 47.4167 3.5509C47.9167 3.5509 48.2083 3.63473 48.5417 3.67665L48.5833 4.47306Z" fill="#0075BF"/>
<path d="M51.875 4.51497C51.7083 4.43114 51.5 4.38922 51.1667 4.38922C50.5417 4.38922 50.125 4.89221 50.125 5.64671C50.125 6.35928 50.4583 6.94611 51.2083 6.94611C51.5 6.94611 51.8333 6.82036 52 6.77844L52.0417 7.61677C51.75 7.7006 51.4167 7.74251 51 7.74251C49.7083 7.74251 49.0417 6.86227 49.0417 5.68862C49.0417 4.55689 49.7083 3.63473 50.9583 3.63473C51.375 3.63473 51.6667 3.67665 51.9583 3.76048L51.875 4.51497Z" fill="#0075BF"/>
<path d="M54.2083 3.59282C55.375 3.59282 56.2917 4.38922 56.2917 5.68862C56.2917 6.82036 55.5417 7.7006 54.2083 7.7006C52.9167 7.7006 52.125 6.82036 52.125 5.68862C52.125 4.34731 53.0417 3.59282 54.2083 3.59282ZM54.2083 6.90419C55 6.90419 55.2083 6.19162 55.2083 5.56287C55.2083 4.97605 54.875 4.38922 54.2083 4.38922C53.5417 4.38922 53.2083 4.97605 53.2083 5.56287C53.2083 6.19162 53.4167 6.90419 54.2083 6.90419Z" fill="#0075BF"/>
<path d="M46.0417 3.59282H45L43.0417 9H44L46.0417 3.59282Z" fill="#0075BF"/>
<path d="M41.7917 3.50898C42.2083 3.97006 42.6667 4.51497 43 5.14371C43.2917 5.73054 43.4167 6.27545 43.5417 6.82036C43.5417 6.82036 43.5417 6.82036 43.5833 6.82036C43.9583 6.1497 44.2083 5.26946 43.8333 4.5988C43.4167 3.88623 42.5833 3.5509 41.7917 3.50898C41.75 3.46707 41.75 3.50898 41.7917 3.50898Z" fill="#5F9E43"/>
<path d="M24 10.0771C28.9706 10.0771 33 7.82125 33 5.03854C33 2.25583 28.9706 0 24 0C19.0294 0 15 2.25583 15 5.03854C15 7.82125 19.0294 10.0771 24 10.0771Z" fill="#CF3339"/>
<path d="M16.643 5.29412C16.5152 5.76877 16.716 6.18865 17.3185 6.18865C17.6653 6.18865 17.9574 5.98783 18.0304 5.714C18.1034 5.40366 17.9209 5.20284 17.7201 5.00203L17.5193 4.80122C17.2637 4.54564 17.0629 4.30832 17.1542 3.9067C17.2819 3.34078 17.8844 2.99392 18.5598 2.99392C18.9249 2.99392 19.1988 3.10345 19.4178 3.28601C19.856 3.7424 19.3083 4.01623 19.1805 3.99798C19.144 3.99798 19.144 3.97972 19.144 3.97972C19.2535 3.61461 19.144 3.21299 18.6329 3.21299C18.3408 3.21299 17.9939 3.35903 17.9391 3.61461C17.8661 3.9067 18.0852 4.10751 18.2677 4.30832L18.4503 4.49088C18.7424 4.76471 18.9615 5.03854 18.8702 5.45842C18.7241 6.07911 18.1034 6.44422 17.3732 6.44422C16.9716 6.44422 16.57 6.31643 16.3509 6.07911C15.9128 5.5497 16.4057 5.29412 16.643 5.29412Z" fill="white"/>
<path d="M21.6816 7.61258L22.3935 6.0426H22.4118C22.5031 6.24341 22.7039 6.3712 22.9777 6.3712C23.8905 6.3712 24.5112 5.49493 24.6024 4.83773C24.6024 4.83773 24.6207 4.74645 24.6024 4.65518C24.5842 4.34483 24.3651 4.10751 23.9087 4.10751C23.5801 4.10751 23.288 4.2353 23.0872 4.43611L23.069 4.41785L23.142 4.2353C23.0507 4.05274 22.8864 3.9067 22.6856 3.85193L21.2069 7.15619C21.2982 7.39351 21.4807 7.55781 21.6816 7.61258ZM23.8905 4.7282C23.854 5.09331 23.3976 6.11562 22.8317 6.11562C22.6126 6.11562 22.5396 5.95132 22.5578 5.78702C22.5943 5.47668 23.0142 4.41785 23.5801 4.41785C23.8175 4.41785 23.9087 4.5639 23.8905 4.7282Z" fill="white"/>
<path d="M21.499 6.07911C21.4625 6.09737 21.426 6.11562 21.3894 6.11562C21.2982 6.11562 21.2799 6.00609 21.2982 5.93307C21.3164 5.86004 21.4077 5.64098 21.4442 5.5497L22.0832 4.18053C21.8823 4.10751 21.645 4.10751 21.426 4.18053L21.2799 4.47262C21.1886 4.25355 20.9878 4.14402 20.6957 4.14402C19.8012 4.14402 19.0527 5.00203 18.9797 5.65923C18.9249 6.06086 19.144 6.38946 19.6734 6.38946C20.0933 6.38946 20.4584 6.13388 20.6775 5.86005L20.6957 5.8783C20.6957 5.8783 20.6592 5.98783 20.6592 6.06086C20.641 6.24341 20.787 6.40771 21.0243 6.40771C21.1704 6.40771 21.3164 6.3712 21.4442 6.29818L21.499 6.07911ZM21.0974 4.70994C21.0608 5.07505 20.5497 6.09737 19.9838 6.09737C19.7647 6.09737 19.7099 5.91481 19.7282 5.76877C19.7647 5.40366 20.2576 4.43611 20.8053 4.43611C21.0243 4.41785 21.1156 4.54564 21.0974 4.70994Z" fill="white"/>
<path d="M27.0487 5.09331L27.4321 4.36309C27.4321 4.36309 27.213 4.34483 27.0852 4.34483C26.9939 4.34483 26.7749 4.30832 26.7749 4.30832L26.5923 4.63692C26.428 4.96552 25.8621 6.06086 25.3509 6.06086C25.2414 6.06086 25.1684 6.02434 25.1866 5.93307C25.2049 5.82353 25.6248 5.0568 25.6248 5.0568C25.716 4.8925 25.8438 4.63692 25.8621 4.47262C25.8803 4.27181 25.716 4.14402 25.4787 4.14402C25.2779 4.14402 25.0223 4.2353 24.8215 4.36309C24.8398 4.3996 24.858 4.43611 24.8763 4.49088C24.9493 4.47262 25.0041 4.45437 25.0406 4.45437C25.1136 4.45437 25.1501 4.50913 25.1319 4.5639C25.1136 4.61867 24.7485 5.3854 24.7485 5.3854C24.6572 5.5497 24.5112 5.82353 24.4929 5.98783C24.4564 6.24341 24.6755 6.38946 24.9493 6.38946C25.4422 6.38946 25.8438 6.06086 26.1359 5.67749L26.1542 5.69574C26.1177 5.80528 26.0811 5.89656 26.0629 6.02434C26.0446 6.22516 26.1724 6.38946 26.428 6.38946C26.6653 6.38946 26.8661 6.29818 27.0487 6.15213C27.0304 6.09737 27.0304 6.06086 27.0304 6.00609V5.98783C26.9757 6.02434 26.9026 6.06086 26.8479 6.06086C26.7566 6.06086 26.7383 5.96958 26.7566 5.89656C26.7749 5.69574 26.9574 5.29412 27.0487 5.09331Z" fill="white"/>
<path d="M30.8641 4.16228C30.5355 3.92495 29.933 3.7424 28.9107 3.72414L29.1481 3.19473C28.9472 3.12171 28.7099 3.12171 28.5091 3.19473L28.2535 3.72414C27.5781 3.76065 26.7566 3.94321 25.2779 3.63286L25.2414 3.70589C26.0629 4.05274 27.3225 4.12577 28.0527 4.12577L27.5233 5.23936C27.4685 5.34889 27.4138 5.47668 27.359 5.62272C27.2677 5.80528 27.2495 5.93307 27.2495 6.00609C27.2312 6.22516 27.432 6.40771 27.7059 6.40771C28.0345 6.40771 28.3083 6.22516 28.5091 6.02434C28.4909 5.98783 28.4543 5.93307 28.4543 5.8783C28.4178 5.91481 28.3448 5.96958 28.3083 6.00609C28.2353 6.06086 28.144 6.09737 28.071 6.09737C27.9614 6.09737 27.9432 6.00609 27.9432 5.93307C27.9614 5.78702 28.1075 5.49493 28.1805 5.34889L28.7464 4.08925C29.3124 4.03449 30.0061 3.96146 30.3894 4.18053C29.86 4.21704 29.3124 4.38134 28.9838 4.78297C28.7829 5.00203 28.6734 5.27587 28.6369 5.5497C28.6186 5.65923 28.6369 5.76877 28.6369 5.80528C28.7099 6.17039 29.0385 6.40771 29.5679 6.40771C30.4442 6.40771 31.2109 5.714 31.284 5.03854C31.284 5.02029 31.357 4.7282 31.1379 4.41785C31.43 4.52739 31.6491 4.70994 31.7038 4.80122C31.8499 4.74645 31.9959 4.61867 32.0689 4.45437C31.9229 4.32658 31.43 4.18053 30.8641 4.16228ZM30.1339 5.80528C29.714 6.38946 29.0568 6.38946 29.2941 5.56796C29.3306 5.44017 29.6227 4.38134 30.5172 4.30832C30.5537 4.36309 30.5902 4.43611 30.5902 4.50913C30.6815 4.83773 30.4259 5.42191 30.1339 5.80528Z" fill="white"/>
<defs>
<clipPath id="clip0">
<rect width="71" height="57" fill="white" transform="translate(0 10)"/>
</clipPath>
</defs>
</svg>
