<svg width="70" height="83" viewBox="0 0 70 83" fill="none" xmlns="http://www.w3.org/2000/svg">
<path d="M27.2563 13.552V12.799C27.3733 12.955 27.5383 13.036 27.7213 13.036C28.0963 13.036 28.3633 12.751 28.3633 12.274C28.3633 11.797 28.0963 11.515 27.7213 11.515C27.5323 11.515 27.3643 11.605 27.2563 11.749V11.551H26.9413V13.552H27.2563ZM28.0363 12.274C28.0363 12.556 27.8773 12.757 27.6283 12.757C27.4813 12.757 27.3253 12.667 27.2563 12.562V11.989C27.3253 11.881 27.4813 11.794 27.6283 11.794C27.8773 11.794 28.0363 11.995 28.0363 12.274ZM28.6815 13H28.9965V12.013C29.0595 11.911 29.2365 11.821 29.3685 11.821C29.4075 11.821 29.4405 11.824 29.4675 11.83V11.518C29.2785 11.518 29.1045 11.626 28.9965 11.764V11.551H28.6815V13ZM30.4686 11.332L30.9636 10.9H30.6636L30.2436 11.332H30.4686ZM29.6316 12.274C29.6316 12.733 29.9556 13.036 30.3906 13.036C30.6216 13.036 30.8346 12.964 30.9786 12.826L30.8346 12.619C30.7326 12.721 30.5646 12.778 30.4236 12.778C30.1506 12.778 29.9856 12.598 29.9616 12.379H31.0806V12.304C31.0806 11.848 30.8016 11.515 30.3666 11.515C29.9376 11.515 29.6316 11.854 29.6316 12.274ZM30.3666 11.773C30.6516 11.773 30.7686 11.986 30.7746 12.157H29.9586C29.9736 11.98 30.0966 11.773 30.3666 11.773ZM31.2655 12.811C31.4155 12.958 31.6405 13.036 31.8865 13.036C32.2765 13.036 32.4895 12.841 32.4895 12.586C32.4895 12.244 32.1805 12.172 31.9285 12.118C31.7575 12.079 31.6135 12.04 31.6135 11.929C31.6135 11.827 31.7185 11.767 31.8835 11.767C32.0635 11.767 32.2255 11.842 32.3125 11.941L32.4445 11.719C32.3125 11.602 32.1265 11.515 31.8805 11.515C31.5145 11.515 31.3105 11.719 31.3105 11.956C31.3105 12.28 31.6075 12.346 31.8565 12.4C32.0335 12.439 32.1865 12.484 32.1865 12.61C32.1865 12.718 32.0905 12.787 31.9015 12.787C31.7125 12.787 31.5115 12.688 31.4095 12.583L31.2655 12.811ZM32.7165 12.274C32.7165 12.733 33.0405 13.036 33.4755 13.036C33.7065 13.036 33.9195 12.964 34.0635 12.826L33.9195 12.619C33.8175 12.721 33.6495 12.778 33.5085 12.778C33.2355 12.778 33.0705 12.598 33.0465 12.379H34.1655V12.304C34.1655 11.848 33.8865 11.515 33.4515 11.515C33.0225 11.515 32.7165 11.854 32.7165 12.274ZM33.4515 11.773C33.7365 11.773 33.8535 11.986 33.8595 12.157H33.0435C33.0585 11.98 33.1815 11.773 33.4515 11.773ZM35.4545 13H35.7695V11.98C35.7695 11.683 35.6135 11.515 35.3015 11.515C35.0735 11.515 34.8875 11.635 34.7915 11.749V11.551H34.4765V13H34.7915V11.989C34.8635 11.89 35.0015 11.794 35.1635 11.794C35.3405 11.794 35.4545 11.869 35.4545 12.094V13ZM36.6136 13.036C36.7606 13.036 36.8536 12.997 36.9106 12.943L36.8356 12.706C36.8116 12.733 36.7546 12.757 36.6946 12.757C36.6046 12.757 36.5566 12.685 36.5566 12.586V11.827H36.8506V11.551H36.5566V11.155H36.2416V11.551H36.0016V11.827H36.2416V12.664C36.2416 12.904 36.3706 13.036 36.6136 13.036ZM37.0466 12.274C37.0466 12.733 37.3706 13.036 37.8056 13.036C38.0366 13.036 38.2496 12.964 38.3936 12.826L38.2496 12.619C38.1476 12.721 37.9796 12.778 37.8386 12.778C37.5656 12.778 37.4006 12.598 37.3766 12.379H38.4956V12.304C38.4956 11.848 38.2166 11.515 37.7816 11.515C37.3526 11.515 37.0466 11.854 37.0466 12.274ZM37.7816 11.773C38.0666 11.773 38.1836 11.986 38.1896 12.157H37.3736C37.3886 11.98 37.5116 11.773 37.7816 11.773ZM39.7845 13H40.0995V11.98C40.0995 11.683 39.9435 11.515 39.6315 11.515C39.4035 11.515 39.2175 11.635 39.1215 11.749V11.551H38.8065V13H39.1215V11.989C39.1935 11.89 39.3315 11.794 39.4935 11.794C39.6705 11.794 39.7845 11.869 39.7845 12.094V13ZM40.9437 13.036C41.0907 13.036 41.1837 12.997 41.2407 12.943L41.1657 12.706C41.1417 12.733 41.0847 12.757 41.0247 12.757C40.9347 12.757 40.8867 12.685 40.8867 12.586V11.827H41.1807V11.551H40.8867V11.155H40.5717V11.551H40.3317V11.827H40.5717V12.664C40.5717 12.904 40.7007 13.036 40.9437 13.036Z" fill="white"/>
<path d="M41.25 3.13174C40.9167 2.96407 40.4167 2.88024 40.0417 2.88024C39.6667 2.88024 39.1667 3.0479 39.1667 3.63473C39.1667 4.5988 41.5833 4.17964 41.5833 6.02395C41.5833 7.23952 40.625 7.65868 39.5 7.65868C38.9167 7.65868 38.625 7.57485 38.0833 7.4491V6.44311C38.4583 6.65269 39 6.77844 39.4583 6.77844C39.875 6.77844 40.4583 6.56886 40.4583 6.06587C40.4167 5.05988 38 5.47904 38 3.67665C38 2.46108 38.9583 2 39.9167 2C40.375 2 40.8333 2.04192 41.25 2.20958V3.13174Z" fill="#0075BF"/>
<path d="M47.5833 4.47306C47.25 4.34731 47 4.30539 46.625 4.30539C46.3333 4.30539 46 4.38923 46 4.72456C46 5.3533 47.7917 4.93414 47.7917 6.35929C47.7917 7.28144 46.9583 7.65869 46.125 7.65869C45.75 7.65869 45.3333 7.57485 44.9583 7.49102L45 6.6527C45.3333 6.82036 45.6667 6.9042 46 6.9042C46.25 6.9042 46.6667 6.82036 46.6667 6.44312C46.6667 5.68863 44.875 6.19162 44.875 4.76647C44.875 3.92815 45.625 3.5509 46.4167 3.5509C46.9167 3.5509 47.2083 3.63474 47.5417 3.67665L47.5833 4.47306Z" fill="#0075BF"/>
<path d="M50.875 4.51497C50.7083 4.43114 50.5 4.38923 50.1667 4.38923C49.5417 4.38923 49.125 4.89222 49.125 5.64671C49.125 6.35929 49.4583 6.94611 50.2083 6.94611C50.5 6.94611 50.8333 6.82036 51 6.77845L51.0417 7.61677C50.75 7.7006 50.4167 7.74252 50 7.74252C48.7083 7.74252 48.0417 6.86228 48.0417 5.68863C48.0417 4.55689 48.7083 3.63474 49.9583 3.63474C50.375 3.63474 50.6667 3.67665 50.9583 3.76048L50.875 4.51497Z" fill="#0075BF"/>
<path d="M53.2083 3.59282C54.375 3.59282 55.2917 4.38923 55.2917 5.68863C55.2917 6.82036 54.5417 7.7006 53.2083 7.7006C51.9167 7.7006 51.125 6.82036 51.125 5.68863C51.125 4.34731 52.0417 3.59282 53.2083 3.59282ZM53.2083 6.9042C54 6.9042 54.2083 6.19162 54.2083 5.56288C54.2083 4.97605 53.875 4.38923 53.2083 4.38923C52.5417 4.38923 52.2083 4.97605 52.2083 5.56288C52.2083 6.19162 52.4167 6.9042 53.2083 6.9042Z" fill="#0075BF"/>
<path d="M45.0417 3.59282H44L42.0417 9H43L45.0417 3.59282Z" fill="#0075BF"/>
<path d="M40.7917 3.50899C41.2083 3.97006 41.6667 4.51497 42 5.14372C42.2917 5.73054 42.4167 6.27545 42.5417 6.82036C42.5417 6.82036 42.5417 6.82036 42.5833 6.82036C42.9583 6.1497 43.2083 5.26947 42.8333 4.59881C42.4167 3.88623 41.5833 3.5509 40.7917 3.50899C40.75 3.46707 40.75 3.50899 40.7917 3.50899Z" fill="#5F9E43"/>
<path d="M22 10.0771C26.9706 10.0771 31 7.82125 31 5.03854C31 2.25583 26.9706 0 22 0C17.0294 0 13 2.25583 13 5.03854C13 7.82125 17.0294 10.0771 22 10.0771Z" fill="#CF3339"/>
<path d="M14.643 5.29411C14.5152 5.76876 14.716 6.18864 15.3185 6.18864C15.6653 6.18864 15.9574 5.98783 16.0304 5.71399C16.1034 5.40365 15.9209 5.20284 15.7201 5.00203L15.5193 4.80121C15.2637 4.54564 15.0629 4.30831 15.1542 3.90669C15.2819 3.34077 15.8844 2.99391 16.5598 2.99391C16.9249 2.99391 17.1988 3.10344 17.4178 3.286C17.856 3.74239 17.3083 4.01622 17.1805 3.99797C17.144 3.99797 17.144 3.97971 17.144 3.97971C17.2535 3.6146 17.144 3.21298 16.6329 3.21298C16.3408 3.21298 15.9939 3.35902 15.9391 3.6146C15.8661 3.90669 16.0852 4.1075 16.2677 4.30831L16.4503 4.49087C16.7424 4.7647 16.9615 5.03854 16.8702 5.45841C16.7241 6.0791 16.1034 6.44422 15.3732 6.44422C14.9716 6.44422 14.57 6.31643 14.3509 6.0791C13.9128 5.54969 14.4057 5.29411 14.643 5.29411Z" fill="white"/>
<path d="M19.6815 7.61258L20.3935 6.0426H20.4118C20.503 6.24341 20.7039 6.3712 20.9777 6.3712C21.8905 6.3712 22.5112 5.49493 22.6024 4.83773C22.6024 4.83773 22.6207 4.74645 22.6024 4.65517C22.5842 4.34483 22.3651 4.10751 21.9087 4.10751C21.5801 4.10751 21.288 4.2353 21.0872 4.43611L21.069 4.41785L21.142 4.2353C21.0507 4.05274 20.8864 3.9067 20.6856 3.85193L19.2069 7.15619C19.2982 7.39351 19.4807 7.55781 19.6815 7.61258ZM21.8905 4.7282C21.854 5.09331 21.3976 6.11562 20.8316 6.11562C20.6126 6.11562 20.5396 5.95132 20.5578 5.78702C20.5943 5.47668 21.0142 4.41785 21.5801 4.41785C21.8174 4.41785 21.9087 4.5639 21.8905 4.7282Z" fill="white"/>
<path d="M19.499 6.07911C19.4625 6.09737 19.426 6.11562 19.3895 6.11562C19.2982 6.11562 19.2799 6.00609 19.2982 5.93307C19.3164 5.86004 19.4077 5.64098 19.4442 5.5497L20.0832 4.18053C19.8824 4.10751 19.645 4.10751 19.426 4.18053L19.2799 4.47262C19.1886 4.25355 18.9878 4.14402 18.6957 4.14402C17.8012 4.14402 17.0527 5.00203 16.9797 5.65923C16.925 6.06085 17.144 6.38945 17.6734 6.38945C18.0933 6.38945 18.4584 6.13388 18.6775 5.86004L18.6957 5.8783C18.6957 5.8783 18.6592 5.98783 18.6592 6.06085C18.641 6.24341 18.787 6.40771 19.0243 6.40771C19.1704 6.40771 19.3164 6.3712 19.4442 6.29818L19.499 6.07911ZM19.0974 4.70994C19.0609 5.07505 18.5497 6.09737 17.9838 6.09737C17.7647 6.09737 17.7099 5.91481 17.7282 5.76877C17.7647 5.40365 18.2576 4.43611 18.8053 4.43611C19.0243 4.41785 19.1156 4.54564 19.0974 4.70994Z" fill="white"/>
<path d="M25.0487 5.0933L25.432 4.36308C25.432 4.36308 25.213 4.34482 25.0852 4.34482C24.9939 4.34482 24.7748 4.30831 24.7748 4.30831L24.5923 4.63691C24.428 4.96551 23.8621 6.06085 23.3509 6.06085C23.2414 6.06085 23.1684 6.02434 23.1866 5.93306C23.2049 5.82353 23.6247 5.05679 23.6247 5.05679C23.716 4.89249 23.8438 4.63691 23.8621 4.47261C23.8803 4.2718 23.716 4.14401 23.4787 4.14401C23.2779 4.14401 23.0223 4.23529 22.8215 4.36308C22.8398 4.39959 22.858 4.4361 22.8763 4.49087C22.9493 4.47261 23.0041 4.45436 23.0406 4.45436C23.1136 4.45436 23.1501 4.50912 23.1318 4.56389C23.1136 4.61866 22.7485 5.38539 22.7485 5.38539C22.6572 5.54969 22.5112 5.82353 22.4929 5.98783C22.4564 6.2434 22.6755 6.38945 22.9493 6.38945C23.4422 6.38945 23.8438 6.06085 24.1359 5.67748L24.1542 5.69574C24.1176 5.80527 24.0811 5.89655 24.0629 6.02434C24.0446 6.22515 24.1724 6.38945 24.428 6.38945C24.6653 6.38945 24.8661 6.29817 25.0487 6.15213C25.0304 6.09736 25.0304 6.06085 25.0304 6.00608V5.98783C24.9757 6.02434 24.9026 6.06085 24.8479 6.06085C24.7566 6.06085 24.7383 5.96957 24.7566 5.89655C24.7748 5.69574 24.9574 5.29411 25.0487 5.0933Z" fill="white"/>
<path d="M28.8641 4.16227C28.5355 3.92494 27.9331 3.74239 26.9108 3.72413L27.1481 3.19472C26.9473 3.1217 26.7099 3.1217 26.5091 3.19472L26.2535 3.72413C25.5781 3.76064 24.7566 3.9432 23.2779 3.63285L23.2414 3.70588C24.0629 4.05273 25.3225 4.12576 26.0527 4.12576L25.5233 5.23935C25.4686 5.34888 25.4138 5.47667 25.359 5.62271C25.2677 5.80527 25.2495 5.93306 25.2495 6.00608C25.2312 6.22515 25.432 6.4077 25.7059 6.4077C26.0345 6.4077 26.3083 6.22515 26.5091 6.02433C26.4909 5.98782 26.4544 5.93306 26.4544 5.87829C26.4179 5.9148 26.3448 5.96957 26.3083 6.00608C26.2353 6.06085 26.144 6.09736 26.071 6.09736C25.9615 6.09736 25.9432 6.00608 25.9432 5.93306C25.9615 5.78701 26.1075 5.49492 26.1805 5.34888L26.7465 4.08924C27.3124 4.03448 28.0061 3.96145 28.3895 4.18052C27.86 4.21703 27.3124 4.38133 26.9838 4.78296C26.783 5.00202 26.6734 5.27586 26.6369 5.54969C26.6187 5.65922 26.6369 5.76876 26.6369 5.80527C26.7099 6.17038 27.0385 6.4077 27.568 6.4077C28.4442 6.4077 29.211 5.71399 29.284 5.03853C29.284 5.02028 29.357 4.72819 29.1379 4.41784C29.43 4.52738 29.6491 4.70993 29.7039 4.80121C29.8499 4.74644 29.9959 4.61866 30.069 4.45436C29.9229 4.32657 29.43 4.18052 28.8641 4.16227ZM28.1339 5.80527C27.714 6.38945 27.0568 6.38945 27.2941 5.56795C27.3306 5.44016 27.6227 4.38133 28.5172 4.30831C28.5538 4.36308 28.5903 4.4361 28.5903 4.50912C28.6815 4.83772 28.426 5.4219 28.1339 5.80527Z" fill="white"/>
<path d="M35.259 79.1705V80.9951H35.741C36.2574 80.9951 36.6361 80.582 36.6361 80.0656C36.6361 79.5836 36.2574 79.1705 35.7754 79.1361H35.741L35.259 79.1705ZM35.741 78.6197C36.6016 78.6197 37.2902 79.2738 37.2902 80.1C37.2902 80.9262 36.6361 81.5803 35.741 81.5803H34.7082C34.6738 81.5803 34.6393 81.5459 34.6393 81.5115V78.6885C34.6393 78.6541 34.6738 78.6197 34.7082 78.6197H35.741Z" fill="#FF3008"/>
<path d="M39.5279 81.0639C40.0787 81.0639 40.4918 80.6164 40.4918 80.1C40.4918 79.5836 40.0443 79.1361 39.5279 79.1361C38.977 79.1361 38.5639 79.5836 38.5639 80.1C38.5295 80.6508 38.977 81.0639 39.5279 81.0639ZM39.5279 78.5508C40.4574 78.5508 41.1459 79.2393 41.1459 80.1C41.1459 80.9606 40.4574 81.6492 39.5279 81.6492C38.5984 81.6492 37.9098 80.9606 37.9098 80.1C37.9098 79.2393 38.5984 78.5508 39.5279 78.5508Z" fill="#FF3008"/>
<path d="M43.3836 81.0639C43.9344 81.0639 44.382 80.6164 44.382 80.1C44.382 79.5836 43.9344 79.1016 43.418 79.1016C42.8672 79.1016 42.4197 79.5492 42.4197 80.0656C42.3852 80.6508 42.8328 81.0639 43.3836 81.0639ZM43.3836 78.5508C44.3131 78.5508 45.0016 79.2393 45.0016 80.1C45.0016 80.9606 44.3131 81.6492 43.3836 81.6492C42.4541 81.6492 41.7656 80.9606 41.7656 80.1C41.7656 79.2393 42.4541 78.5508 43.3836 78.5508Z" fill="#FF3008"/>
<path d="M47.1361 79.1705H46.482V79.9623H47.1361C47.3426 79.9623 47.5148 79.7902 47.5492 79.5836C47.5492 79.3771 47.377 79.2049 47.1361 79.1705C47.1705 79.1705 47.1361 79.1705 47.1361 79.1705ZM45.8279 78.6885C45.8279 78.6541 45.8623 78.6197 45.8967 78.6197H47.1361C47.7213 78.6197 48.1689 79.0672 48.1689 79.5836C48.1689 79.9623 47.9623 80.3066 47.6525 80.4443L48.2377 81.4426C48.2721 81.4771 48.2377 81.5115 48.2033 81.5459H48.1689H47.6525C47.618 81.5459 47.5836 81.5459 47.5836 81.5115L47.0328 80.5476H46.482V81.5115C46.482 81.5459 46.4475 81.5803 46.4131 81.5803H45.9311C45.8967 81.5803 45.8623 81.5459 45.8623 81.5115L45.8279 78.6885Z" fill="#FF3008"/>
<path d="M49.8557 79.2049V81.0295H50.3377C50.8541 81.0295 51.2328 80.6164 51.2328 80.1C51.2328 79.6181 50.8541 79.2049 50.3721 79.1705H50.3377H49.8557V79.2049ZM50.3377 78.6197C51.1984 78.6197 51.8869 79.2738 51.8869 80.1C51.8869 80.9262 51.2328 81.5803 50.3377 81.5803H49.3049C49.2705 81.5803 49.2361 81.5459 49.2361 81.5115V78.6885C49.2361 78.6541 49.2705 78.6197 49.3049 78.6197H50.3377Z" fill="#FF3008"/>
<path d="M53.8148 79.3426L53.4361 80.3066H54.159L53.8148 79.3426ZM53.2295 80.8918L52.9885 81.5459C52.9885 81.5803 52.9541 81.6148 52.9197 81.5803H52.4033C52.3689 81.5803 52.3344 81.5459 52.3344 81.5115V81.4771L53.4361 78.6541C53.4361 78.6197 53.4705 78.6197 53.5049 78.6197H54.0902C54.1246 78.6197 54.159 78.6541 54.159 78.6541L55.2607 81.4771C55.2951 81.5115 55.2607 81.5459 55.2262 81.5803H55.1918H54.6754C54.641 81.5803 54.6066 81.5459 54.6066 81.5459L54.3656 80.8918H53.2295Z" fill="#FF3008"/>
<path d="M55.8803 79.4115C55.8803 78.9295 56.2934 78.5508 56.9131 78.5508C57.2574 78.5508 57.6016 78.6541 57.8426 78.8951C57.877 78.9295 57.877 78.9639 57.8426 78.9984L57.5672 79.2738C57.5328 79.3082 57.4983 79.3082 57.4639 79.2738C57.3262 79.1361 57.1541 79.0672 56.982 79.0672C56.741 79.0672 56.5344 79.2049 56.5344 79.377C56.5344 79.9279 58.0492 79.618 58.0492 80.6852C58.0492 81.2016 57.6361 81.6147 56.9131 81.6147C56.5 81.6147 56.1213 81.477 55.8459 81.1672C55.8115 81.1328 55.8115 81.0984 55.8459 81.0639L56.1213 80.7885C56.1557 80.7541 56.1901 80.7541 56.2246 80.7885C56.3967 80.9951 56.6033 81.0984 56.8442 81.0984C57.1541 81.0984 57.3606 80.9262 57.3606 80.7197C57.3951 80.1688 55.8803 80.4787 55.8803 79.4115Z" fill="#FF3008"/>
<path d="M60.7688 78.6885V79.7902H59.4951V78.6885C59.4951 78.6541 59.4606 78.6197 59.4262 78.6197H58.9442C58.9098 78.6197 58.8754 78.6541 58.8754 78.6885V81.5115C58.8754 81.5459 58.9098 81.5803 58.9442 81.5803H59.4262C59.4606 81.5803 59.4951 81.5459 59.4951 81.5115V80.3754H60.7688V81.5115C60.7688 81.5459 60.8033 81.5803 60.8377 81.5803H61.3197C61.3541 81.5803 61.3885 81.5459 61.3885 81.5115V78.6885C61.3885 78.6541 61.3541 78.6197 61.3197 78.6197H60.8377C60.8033 78.5852 60.7688 78.6197 60.7688 78.6885Z" fill="#FF3008"/>
<path d="M32.0918 78.9984C31.782 78.3787 31.1279 78 30.4393 78H25.1721C25.0689 78 25 78.0689 25 78.1721C25 78.2066 25.0344 78.2754 25.0689 78.3098L26.2049 79.4459C26.3082 79.5492 26.4459 79.618 26.5836 79.618H30.3016C30.577 79.618 30.7836 79.8246 30.7836 80.1C30.7836 80.3754 30.577 80.582 30.3016 80.582H27.7541C27.6508 80.582 27.5475 80.6508 27.5475 80.7541C27.5475 80.7885 27.582 80.8574 27.6164 80.8918L28.7525 82.0279C28.8557 82.1311 28.9934 82.2 29.1311 82.2H30.3016C31.782 82.2 32.9525 80.582 32.0918 78.9984Z" fill="#FF3008"/>
<path d="M8.00206 81H9.23506V80.691H8.35306V78.999H8.00206V81ZM9.69887 79.311C9.80687 79.311 9.89387 79.224 9.89387 79.116C9.89387 79.008 9.80687 78.921 9.69887 78.921C9.59387 78.921 9.50387 79.008 9.50387 79.116C9.50387 79.224 9.59387 79.311 9.69887 79.311ZM9.54287 81H9.85787V79.551H9.54287V81ZM10.6475 81H10.9865L11.5775 79.551H11.2385L10.8155 80.637L10.3925 79.551H10.0565L10.6475 81ZM11.7753 81H12.0903V80.013C12.1533 79.911 12.3303 79.821 12.4623 79.821C12.5013 79.821 12.5343 79.824 12.5613 79.83V79.518C12.3723 79.518 12.1983 79.626 12.0903 79.764V79.551H11.7753V81ZM13.5623 79.332L14.0573 78.9H13.7573L13.3373 79.332H13.5623ZM12.7253 80.274C12.7253 80.733 13.0493 81.036 13.4843 81.036C13.7153 81.036 13.9283 80.964 14.0723 80.826L13.9283 80.619C13.8263 80.721 13.6583 80.778 13.5173 80.778C13.2443 80.778 13.0793 80.598 13.0553 80.379H14.1743V80.304C14.1743 79.848 13.8953 79.515 13.4603 79.515C13.0313 79.515 12.7253 79.854 12.7253 80.274ZM13.4603 79.773C13.7453 79.773 13.8623 79.986 13.8683 80.157H13.0523C13.0673 79.98 13.1903 79.773 13.4603 79.773ZM14.3953 80.274C14.3953 80.733 14.7193 81.036 15.1543 81.036C15.3853 81.036 15.5983 80.964 15.7423 80.826L15.5983 80.619C15.4963 80.721 15.3283 80.778 15.1873 80.778C14.9143 80.778 14.7493 80.598 14.7253 80.379H15.8443V80.304C15.8443 79.848 15.5653 79.515 15.1303 79.515C14.7013 79.515 14.3953 79.854 14.3953 80.274ZM15.1303 79.773C15.4153 79.773 15.5323 79.986 15.5383 80.157H14.7222C14.7373 79.98 14.8603 79.773 15.1303 79.773ZM17.8107 81H18.1257V80.04C18.1257 79.65 17.8437 79.515 17.5227 79.515C17.2917 79.515 17.0817 79.59 16.9137 79.749L17.0427 79.968C17.1687 79.845 17.3097 79.785 17.4717 79.785C17.6727 79.785 17.8107 79.887 17.8107 80.055V80.271C17.7057 80.148 17.5377 80.085 17.3427 80.085C17.1057 80.085 16.8387 80.223 16.8387 80.556C16.8387 80.877 17.1057 81.036 17.3427 81.036C17.5347 81.036 17.7027 80.967 17.8107 80.844V81ZM17.8107 80.67C17.7387 80.769 17.6037 80.82 17.4657 80.82C17.2887 80.82 17.1567 80.718 17.1567 80.562C17.1567 80.403 17.2887 80.301 17.4657 80.301C17.6037 80.301 17.7387 80.352 17.8107 80.451V80.67ZM18.9151 81H19.2541L19.8451 79.551H19.5061L19.0831 80.637L18.6601 79.551H18.3241L18.9151 81ZM19.9529 80.274C19.9529 80.733 20.2769 81.036 20.7119 81.036C20.9429 81.036 21.1559 80.964 21.2999 80.826L21.1559 80.619C21.0539 80.721 20.8859 80.778 20.7449 80.778C20.4719 80.778 20.3069 80.598 20.2829 80.379H21.4019V80.304C21.4019 79.848 21.1229 79.515 20.6879 79.515C20.2589 79.515 19.9529 79.854 19.9529 80.274ZM20.6879 79.773C20.9729 79.773 21.0899 79.986 21.0959 80.157H20.2799C20.2949 79.98 20.4179 79.773 20.6879 79.773ZM21.6228 80.274C21.6228 80.715 21.9318 81.036 22.3728 81.036C22.6548 81.036 22.8258 80.916 22.9278 80.778L22.7208 80.586C22.6398 80.697 22.5288 80.757 22.3878 80.757C22.1238 80.757 21.9498 80.556 21.9498 80.274C21.9498 79.992 22.1238 79.794 22.3878 79.794C22.5288 79.794 22.6398 79.851 22.7208 79.965L22.9278 79.773C22.8258 79.635 22.6548 79.515 22.3728 79.515C21.9318 79.515 21.6228 79.836 21.6228 80.274Z" fill="white"/>
<path d="M33.3 6.274C33.3 6.733 33.624 7.036 34.059 7.036C34.29 7.036 34.503 6.964 34.647 6.826L34.503 6.619C34.401 6.721 34.233 6.778 34.092 6.778C33.819 6.778 33.654 6.598 33.63 6.379H34.749V6.304C34.749 5.848 34.47 5.515 34.035 5.515C33.606 5.515 33.3 5.854 33.3 6.274ZM34.035 5.773C34.32 5.773 34.437 5.986 34.443 6.157H33.627C33.642 5.98 33.765 5.773 34.035 5.773ZM35.495 7.036C35.642 7.036 35.735 6.997 35.792 6.943L35.717 6.706C35.693 6.733 35.636 6.757 35.576 6.757C35.486 6.757 35.438 6.685 35.438 6.586V5.827H35.732V5.551H35.438V5.155H35.123V5.551H34.883V5.827H35.123V6.664C35.123 6.904 35.252 7.036 35.495 7.036Z" fill="white"/>
<line x1="43" y1="12.875" x2="55" y2="12.875" stroke="white" stroke-width="0.25"/>
<line x1="13" y1="12.875" x2="25" y2="12.875" stroke="white" stroke-width="0.25"/>
<g clip-path="url(#clip0)">
<path d="M21.7559 72.9681C17.5 72.9681 13.4664 72.9363 10.3221 71.7289C6.41561 70.2039 4.44646 67.0584 4.38294 62.356L3.46189 62.4196C3.43013 62.4196 3.36661 62.4196 3.33485 62.4196C2.7314 62.4196 2.15971 62.1972 1.6833 61.7841C1.2069 61.3393 0.921053 60.7356 0.889292 60.1002L0.825771 58.6704C0.794011 58.2891 0.857532 57.9396 1.01633 57.5901L0.952813 56.8276C0.889292 55.7791 1.49274 54.8577 2.38203 54.4764C2.38203 54.3493 2.41379 54.2223 2.44555 54.0952L4.06534 47.2641C1.07986 46.7875 0 44.6269 0 42.5935C0 39.9881 1.65154 37.5099 4.44646 35.7942C4.47822 26.1671 14.8004 15.9681 33.9202 15.9998C42.559 16.0316 49.9592 18.1286 55.3267 22.132C60.2178 25.7858 63.0127 30.8059 63.0127 35.9213V36.9697C63.0127 37.0333 63.0127 37.0968 63.0127 37.1604V40.4965H63.3621C63.7114 40.4965 64.0926 40.5918 64.4102 40.7189C64.8866 40.56 65.363 40.4965 65.9347 40.4965C68.2214 40.4965 70.0318 42.3711 70.0318 44.7223C70.0318 47.1052 68.2214 48.9162 65.8711 48.8845C65.5853 48.8845 65.1407 48.8527 64.6643 48.6938L64.1561 51.045L64.7913 51.0132C64.8231 51.0132 64.8866 51.0132 64.9183 51.0132C65.5218 51.0132 66.0935 51.2356 66.5699 51.6487C67.0463 52.0935 67.3321 52.6972 67.3639 53.3326L67.3957 54.0316C67.5545 54.3493 67.6815 54.6988 67.6815 55.0801L67.745 56.5099C67.7768 57.1453 67.5545 57.8126 67.1098 58.2891C66.6652 58.7657 66.0617 59.0517 65.4265 59.0835L64.5055 59.1152C64.4102 59.1152 64.3784 59.1152 64.3466 59.1152C64.2831 59.147 64.0926 59.3059 63.9338 59.4012C63.6797 59.5918 63.3621 59.8142 62.9492 60.0684V62.1972C62.9492 66.9948 60.9165 70.2039 56.9782 71.7289C53.8339 72.9363 49.8004 72.9363 45.5445 72.9363L21.7559 72.9681Z" fill="white"/>
<path d="M61.0753 35.699C61.0753 27.2793 51.8648 17.9064 33.8566 17.9064C15.8484 17.9064 6.28856 27.2793 6.28856 35.699V36.9699H61.1071V35.699H61.0753Z" fill="#AB7029"/>
<path d="M27.9492 20.3846H26.1706C26.0753 20.3846 26.0118 20.4482 25.98 20.5117C25.9483 20.5753 25.9165 20.7024 25.9165 20.893C25.9165 21.0836 25.9483 21.2107 25.98 21.2743C26.0118 21.3696 26.1071 21.4014 26.1706 21.4014H27.9492C28.0445 21.4014 28.108 21.3378 28.1397 21.2743C28.1715 21.2107 28.2033 21.0836 28.2033 20.893C28.2033 20.7024 28.1715 20.5753 28.1397 20.5117C28.108 20.4482 28.0445 20.3846 27.9492 20.3846Z" fill="#9C6226"/>
<path d="M34.5871 20.3846H32.8085C32.7132 20.3846 32.6497 20.4482 32.618 20.5117C32.5862 20.5753 32.5544 20.7024 32.5544 20.893C32.5544 21.0836 32.5862 21.2107 32.618 21.2743C32.6497 21.3696 32.745 21.4014 32.8085 21.4014H34.5871C34.6824 21.4014 34.7459 21.3378 34.7777 21.2743C34.8094 21.2107 34.8412 21.0836 34.8412 20.893C34.8412 20.7024 34.8094 20.5753 34.7777 20.5117C34.7777 20.4482 34.6824 20.3846 34.5871 20.3846Z" fill="#9C6226"/>
<path d="M41.2568 20.3846H39.4782C39.383 20.3846 39.3194 20.4482 39.2877 20.5117C39.2559 20.5753 39.2242 20.7024 39.2242 20.893C39.2242 21.0836 39.2559 21.2107 39.2877 21.2743C39.3194 21.3696 39.4147 21.4014 39.4782 21.4014H41.2568C41.3521 21.4014 41.4156 21.3378 41.4474 21.2743C41.4791 21.2107 41.5109 21.0836 41.5109 20.893C41.5109 20.7024 41.4791 20.5753 41.4474 20.5117C41.4474 20.4482 41.3521 20.3846 41.2568 20.3846Z" fill="#9C6226"/>
<path d="M24.5826 24.3562H22.804C22.7087 24.3562 22.6452 24.4197 22.6134 24.4833C22.5817 24.5468 22.5499 24.6739 22.5499 24.8646C22.5499 25.0552 22.5817 25.1823 22.6134 25.2458C22.6452 25.3412 22.7405 25.3729 22.804 25.3729H24.5826C24.6779 25.3729 24.7414 25.3094 24.7731 25.2458C24.8049 25.1823 24.8367 25.0552 24.8367 24.8646C24.8367 24.6739 24.8049 24.5468 24.7731 24.4833C24.7731 24.4197 24.6779 24.3562 24.5826 24.3562Z" fill="#9C6226"/>
<path d="M31.2523 24.3562H29.4737C29.3784 24.3562 29.3149 24.4197 29.2831 24.4833C29.2514 24.5468 29.2196 24.6739 29.2196 24.8646C29.2196 25.0552 29.2514 25.1823 29.2831 25.2458C29.3149 25.3412 29.4102 25.3729 29.4737 25.3729H31.2523C31.3476 25.3729 31.4111 25.3094 31.4428 25.2458C31.4746 25.1823 31.5064 25.0552 31.5064 24.8646C31.5064 24.6739 31.4746 24.5468 31.4428 24.4833C31.4428 24.4197 31.3476 24.3562 31.2523 24.3562Z" fill="#9C6226"/>
<path d="M17.9764 24.3562H16.1978C16.1025 24.3562 16.039 24.4197 16.0073 24.4833C15.9755 24.5468 15.9437 24.6739 15.9437 24.8646C15.9437 25.0552 15.9755 25.1823 16.0073 25.2458C16.039 25.3412 16.1343 25.3729 16.1978 25.3729H17.9764C18.0717 25.3729 18.1352 25.3094 18.167 25.2458C18.1987 25.1823 18.2305 25.0552 18.2305 24.8646C18.2305 24.6739 18.1987 24.5468 18.167 24.4833C18.1352 24.4197 18.0399 24.3562 17.9764 24.3562Z" fill="#9C6226"/>
<path d="M37.922 24.3562H36.1434C36.0481 24.3562 35.9846 24.4197 35.9528 24.4833C35.9211 24.5468 35.8893 24.6739 35.8893 24.8646C35.8893 25.0552 35.9211 25.1823 35.9528 25.2458C35.9846 25.3412 36.0799 25.3729 36.1434 25.3729H37.922C38.0172 25.3729 38.0808 25.3094 38.1125 25.2458C38.1443 25.1823 38.176 25.0552 38.176 24.8646C38.176 24.6739 38.1443 24.5468 38.1125 24.4833C38.0808 24.4197 38.0172 24.3562 37.922 24.3562Z" fill="#9C6226"/>
<path d="M44.5917 24.3562H42.8131C42.7178 24.3562 42.6543 24.4197 42.6225 24.4833C42.5908 24.5468 42.559 24.6739 42.559 24.8646C42.559 25.0552 42.5908 25.1823 42.6225 25.2458C42.6543 25.3412 42.7496 25.3729 42.8131 25.3729H44.5917C44.6869 25.3729 44.7505 25.3094 44.7822 25.2458C44.814 25.1823 44.8457 25.0552 44.8457 24.8646C44.8457 24.6739 44.814 24.5468 44.7822 24.4833C44.7505 24.4197 44.6552 24.3562 44.5917 24.3562Z" fill="#9C6226"/>
<path d="M51.2296 24.3562H49.451C49.3557 24.3562 49.2922 24.4197 49.2604 24.4833C49.2287 24.5468 49.1969 24.6739 49.1969 24.8646C49.1969 25.0552 49.2287 25.1823 49.2604 25.2458C49.2922 25.3412 49.3875 25.3729 49.451 25.3729H51.2296C51.3249 25.3729 51.3884 25.3094 51.4201 25.2458C51.4519 25.1823 51.4837 25.0552 51.4837 24.8646C51.4837 24.6739 51.4519 24.5468 51.4201 24.4833C51.4201 24.4197 51.3249 24.3562 51.2296 24.3562Z" fill="#9C6226"/>
<path d="M27.9492 28.5184H26.1706C26.0753 28.5184 26.0118 28.5819 25.98 28.6455C25.9483 28.709 25.9165 28.8361 25.9165 29.0268C25.9165 29.2174 25.9483 29.3445 25.98 29.408C26.0118 29.5034 26.1071 29.5351 26.1706 29.5351H27.9492C28.0445 29.5351 28.108 29.4716 28.1397 29.408C28.1715 29.3445 28.2033 29.2174 28.2033 29.0268C28.2033 28.8361 28.1715 28.709 28.1397 28.6455C28.108 28.5819 28.0445 28.5184 27.9492 28.5184Z" fill="#9C6226"/>
<path d="M34.5871 28.5184H32.8085C32.7132 28.5184 32.6497 28.5819 32.618 28.6455C32.5862 28.709 32.5544 28.8361 32.5544 29.0268C32.5544 29.2174 32.5862 29.3445 32.618 29.408C32.6497 29.5034 32.745 29.5351 32.8085 29.5351H34.5871C34.6824 29.5351 34.7459 29.4716 34.7777 29.408C34.8094 29.3445 34.8412 29.2174 34.8412 29.0268C34.8412 28.8361 34.8094 28.709 34.7777 28.6455C34.7777 28.5819 34.6824 28.5184 34.5871 28.5184Z" fill="#9C6226"/>
<path d="M41.2568 28.5184H39.4782C39.383 28.5184 39.3194 28.5819 39.2877 28.6455C39.2559 28.709 39.2242 28.8361 39.2242 29.0268C39.2242 29.2174 39.2559 29.3445 39.2877 29.408C39.3194 29.5034 39.4147 29.5351 39.4782 29.5351H41.2568C41.3521 29.5351 41.4156 29.4716 41.4474 29.408C41.4791 29.3445 41.5109 29.2174 41.5109 29.0268C41.5109 28.8361 41.4791 28.709 41.4474 28.6455C41.4474 28.5819 41.3521 28.5184 41.2568 28.5184Z" fill="#9C6226"/>
<path d="M31.2523 32.49H29.4737C29.3784 32.49 29.3149 32.5535 29.2831 32.6171C29.2514 32.6806 29.2196 32.8077 29.2196 32.9983C29.2196 33.189 29.2514 33.3161 29.2831 33.3796C29.3149 33.4749 29.4102 33.5067 29.4737 33.5067H31.2523C31.3476 33.5067 31.4111 33.4432 31.4428 33.3796C31.4746 33.3161 31.5064 33.189 31.5064 32.9983C31.5064 32.8077 31.4746 32.6806 31.4428 32.6171C31.4428 32.5535 31.3476 32.49 31.2523 32.49Z" fill="#9C6226"/>
<path d="M37.922 32.49H36.1434C36.0481 32.49 35.9846 32.5535 35.9528 32.6171C35.9211 32.6806 35.8893 32.8077 35.8893 32.9983C35.8893 33.189 35.9211 33.3161 35.9528 33.3796C35.9846 33.4749 36.0799 33.5067 36.1434 33.5067H37.922C38.0172 33.5067 38.0808 33.4432 38.1125 33.3796C38.1443 33.3161 38.176 33.189 38.176 32.9983C38.176 32.8077 38.1443 32.6806 38.1125 32.6171C38.0808 32.5535 38.0172 32.49 37.922 32.49Z" fill="#9C6226"/>
<path d="M47.863 28.5184H46.1479C46.0526 28.5184 45.9891 28.5819 45.9573 28.6455C45.9256 28.709 45.8938 28.8361 45.8938 29.0268C45.8938 29.2174 45.9256 29.3445 45.9573 29.408C45.9891 29.5034 46.0844 29.5351 46.1479 29.5351H47.863C47.9583 29.5351 48.0218 29.4716 48.0535 29.408C48.0853 29.3445 48.1171 29.2174 48.1171 29.0268C48.1171 28.8361 48.0853 28.709 48.0535 28.6455C48.0218 28.5819 47.9583 28.5184 47.863 28.5184Z" fill="#9C6226"/>
<path d="M54.7232 28.6455C54.6915 28.5502 54.5962 28.5184 54.5327 28.5184H52.7541C52.6588 28.5184 52.5953 28.5819 52.5635 28.6455C52.5318 28.709 52.5 28.8361 52.5 29.0268C52.5 29.2174 52.5318 29.3445 52.5635 29.408C52.5953 29.5034 52.6906 29.5351 52.7541 29.5351H54.5327C54.6279 29.5351 54.6915 29.4716 54.7232 29.408C54.755 29.3445 54.7867 29.2174 54.7867 29.0268C54.7867 28.8361 54.755 28.709 54.7232 28.6455Z" fill="#9C6226"/>
<path d="M51.2296 32.49H49.3875C49.2922 32.49 49.2287 32.5535 49.1969 32.6171C49.1652 32.6806 49.1334 32.8077 49.1334 32.9983C49.1334 33.189 49.1652 33.3161 49.1969 33.3796C49.2287 33.4749 49.324 33.5067 49.3875 33.5067H51.2296C51.3249 33.5067 51.3884 33.4432 51.4201 33.3796C51.4519 33.3161 51.4837 33.189 51.4837 32.9983C51.4837 32.8077 51.4519 32.6806 51.4201 32.6171C51.4201 32.5535 51.3249 32.49 51.2296 32.49Z" fill="#9C6226"/>
<path d="M44.5599 32.49H42.8131C42.7178 32.49 42.6543 32.5535 42.6225 32.6171C42.5907 32.6806 42.559 32.8077 42.559 32.9983C42.559 33.189 42.5907 33.3161 42.6225 33.3796C42.6543 33.4749 42.7496 33.5067 42.8131 33.5067H44.5599C44.6552 33.5067 44.7187 33.4432 44.7505 33.3796C44.7822 33.3161 44.814 33.189 44.814 32.9983C44.814 32.8077 44.7822 32.6806 44.7505 32.6171C44.7187 32.5535 44.6552 32.49 44.5599 32.49Z" fill="#9C6226"/>
<path d="M14.6098 28.5184H12.8312C12.7359 28.5184 12.6724 28.5819 12.6407 28.6455C12.6089 28.709 12.5771 28.8361 12.5771 29.0268C12.5771 29.2174 12.6089 29.3445 12.6407 29.408C12.6724 29.5034 12.7677 29.5351 12.8312 29.5351H14.6098C14.7051 29.5351 14.7686 29.4716 14.8004 29.408C14.8321 29.3445 14.8639 29.2174 14.8639 29.0268C14.8639 28.8361 14.8321 28.709 14.8004 28.6455C14.7686 28.5819 14.7051 28.5184 14.6098 28.5184Z" fill="#9C6226"/>
<path d="M21.2795 28.5184H19.5009C19.4056 28.5184 19.3421 28.5819 19.3103 28.6455C19.2786 28.709 19.2468 28.8361 19.2468 29.0268C19.2468 29.2174 19.2786 29.3445 19.3103 29.408C19.3421 29.5034 19.4374 29.5351 19.5009 29.5351H21.2795C21.3748 29.5351 21.4383 29.4716 21.4701 29.408C21.5018 29.3445 21.5336 29.2174 21.5336 29.0268C21.5336 28.8361 21.5018 28.709 21.4701 28.6455C21.4383 28.5819 21.3748 28.5184 21.2795 28.5184Z" fill="#9C6226"/>
<path d="M17.9447 32.49H16.1978C16.1025 32.49 16.039 32.5535 16.0073 32.6171C15.9755 32.6806 15.9437 32.8077 15.9437 32.9983C15.9437 33.189 15.9755 33.3161 16.0073 33.3796C16.039 33.4749 16.1343 33.5067 16.1978 33.5067H17.9447C18.0399 33.5067 18.1035 33.4432 18.1352 33.3796C18.167 33.3161 18.1987 33.189 18.1987 32.9983C18.1987 32.8077 18.167 32.6806 18.1352 32.6171C18.1035 32.5535 18.0082 32.49 17.9447 32.49Z" fill="#9C6226"/>
<path d="M24.7096 32.5217C24.6779 32.49 24.6143 32.49 24.5826 32.49H22.804C22.7087 32.49 22.6452 32.5535 22.6134 32.6171C22.5817 32.6806 22.5499 32.8077 22.5499 32.9983C22.5499 33.189 22.5817 33.3161 22.6134 33.3796C22.6452 33.4749 22.7405 33.5067 22.804 33.5067H24.5826C24.6779 33.5067 24.7414 33.4432 24.7731 33.3796C24.8049 33.3161 24.8367 33.189 24.8367 32.9983C24.8367 32.8077 24.8049 32.6806 24.7731 32.6171C24.7731 32.5853 24.7414 32.5535 24.7096 32.5217Z" fill="#9C6226"/>
<path d="M61.0753 42.8478C61.0753 43.388 61.0753 43.801 60.5354 43.801H6.82849C6.28856 43.801 6.28856 43.388 6.28856 42.8478V41.005C6.28856 40.4649 6.28856 40.0518 6.82849 40.0518H60.5671C61.1071 40.0518 61.1071 40.4649 61.1071 41.005V42.8478H61.0753Z" fill="#B32029"/>
<path d="M61.1071 37.7642H6.28856V39.194H61.1071V37.7642Z" fill="#FAA21E"/>
<path d="M41.7332 38.2726L33.8249 43.0385L25.6307 38.2726H41.7332Z" fill="#FAA21E"/>
<path d="M6.28856 61.3395V62.6104C6.28856 71.0301 13.1171 71.0937 21.5336 71.0937H45.8303C54.2468 71.0937 61.0753 71.0619 61.0753 62.6104V61.3395H6.28856Z" fill="#AB7029"/>
<path d="M8.98821 62.8963C8.98821 64.2308 9.08349 65.1522 10.9256 64.2308C12.7677 63.3094 14.9909 62.102 19.6915 62.1973C17.9447 62.7057 15.912 63.6271 15.7214 64.8345C15.5309 66.0736 16.7378 66.582 19.3739 65.9465C19.6915 67.0585 20.8031 68.2977 23.1534 66.2642C25.5036 64.2308 26.8058 63.4047 27.9492 62.9917C29.0608 62.5786 29.3784 63.1823 28.1398 63.9131C26.9329 64.6121 25.7895 65.0251 25.5989 65.8512C25.4084 66.6773 25.5989 67.9799 27.6316 67.3763C27.6316 68.806 28.0445 70.0134 29.7595 70.0134C31.5064 70.0134 32.2051 69.092 32.2051 67.3763C33.3167 67.9799 34.9683 68.393 35.0635 66.1689C35.1588 63.9131 36.1751 62.8963 37.1915 62.388C38.2078 61.8796 38.3984 62.8328 37.6996 63.087C36.7786 63.4365 36.3975 64.1037 36.3657 64.8345C36.334 65.7559 37.922 67.1221 39.51 65.4381C39.637 66.4231 41.4474 67.0585 42.0508 65.0251C42.6543 62.9917 42.8448 61.7207 44.6869 61.6572C43.4165 62.1338 42.6543 64.0084 44.2741 64.6121C45.8938 65.2157 46.7196 63.6907 46.9102 63.1823C47.1007 62.6739 47.6089 61.5619 49.1652 61.6572C47.8312 62.2609 47.8312 64.2943 49.1652 64.4214C50.4991 64.5167 51.0073 64.1037 52.0236 63.1823C53.0399 62.2609 55.0726 61.2442 57.6134 61.6572C57.1053 62.9917 58.0263 63.5 58.8521 63.3412C59.8684 63.1505 59.7732 62.0385 60.0908 61.3077H7.94012V61.3395C7.11435 61.8796 6.54266 64.0084 8.98821 62.8963Z" fill="#A9AE38"/>
<path d="M3.52541 58.3211C4.50998 58.2575 4.92287 58.5117 5.65336 58.9248C6.51089 59.4331 7.68603 60.1004 9.78221 59.9733C11.8784 59.8462 12.9583 59.0519 13.7523 58.48C14.4192 58.0034 14.8004 57.7174 15.7849 57.6539C16.7695 57.5903 17.1824 57.8445 17.9129 58.2575C18.7704 58.7659 19.9456 59.4331 22.0417 59.306C24.1379 59.179 25.2178 58.3846 26.0118 57.8127C26.6788 57.3361 27.0599 57.0502 28.0445 56.9866C29.029 56.9231 29.4737 57.1773 30.1724 57.5903C31.0299 58.0987 32.2051 58.7659 34.3013 58.6388C36.3975 58.5117 37.4773 57.7174 38.3031 57.1455C38.97 56.6689 39.3512 56.383 40.3357 56.3194C41.3203 56.2559 41.765 56.5101 42.4637 56.9231C43.3212 57.4315 44.4964 58.0987 46.5926 57.9716C48.6887 57.8445 49.7686 57.0502 50.5944 56.4783C51.2613 56.0017 51.6425 55.7157 52.627 55.6522C53.6116 55.5886 54.0563 55.8428 54.755 56.2559C55.6125 56.7642 56.7877 57.4315 58.8838 57.3044C60.98 57.1773 62.0599 56.383 62.8539 55.8111C63.5209 55.3345 63.902 55.0485 64.8866 54.985L65.5853 54.9532L65.5218 53.6187L64.823 53.6505C62.6633 53.7776 61.52 54.6037 60.6942 55.2074C60.059 55.684 59.6779 55.9381 58.7886 56.0017C57.8675 56.0652 57.4864 55.8428 56.7877 55.4298C55.8984 54.9214 54.6915 54.2224 52.5318 54.3495C50.372 54.4766 49.2604 55.3027 48.4029 55.9064C47.7677 56.383 47.3866 56.6371 46.4973 56.7007C45.5762 56.7642 45.1951 56.5418 44.4964 56.1288C43.6071 55.6204 42.4002 54.9214 40.2405 55.0485C38.0808 55.1756 36.9374 56.0017 36.1116 56.6054C35.4764 57.082 35.0953 57.3361 34.206 57.3997C33.2849 57.4632 32.9038 57.2408 32.2051 56.8278C31.3158 56.3194 30.1089 55.6204 27.9492 55.7475C25.7895 55.8746 24.6461 56.7007 23.8203 57.3044C23.1851 57.781 22.804 58.0351 21.9147 58.0987C20.9936 58.1622 20.6125 57.9398 19.9138 57.5268C19.0245 57.0184 17.8176 56.3194 15.6579 56.4465C13.4982 56.5736 12.3548 57.3997 11.529 58.0034C10.8938 58.48 10.5127 58.7341 9.62341 58.7977C8.70236 58.8612 8.32123 58.6388 7.6225 58.2258C6.73321 57.7174 5.52632 57.0184 3.36661 57.1455L2.66788 57.1773L2.7314 58.5117L3.52541 58.3211Z" fill="#B32029"/>
<path d="M63.1715 56.2241C62.314 56.8595 61.1388 57.6856 58.9156 57.8127C56.6924 57.9398 55.422 57.209 54.5327 56.7007C53.8657 56.3194 53.5163 56.1288 52.6906 56.1605C51.8648 56.1923 51.5472 56.4465 50.912 56.8913C50.0544 57.5268 48.8793 58.3528 46.6561 58.4799C44.4328 58.607 43.1624 57.8763 42.2731 57.3679C41.6062 56.9866 41.2568 56.796 40.431 56.8278C39.6053 56.8595 39.2877 57.1137 38.6524 57.5585C37.7949 58.194 36.6198 59.0201 34.3965 59.1472C32.1733 59.2742 30.9347 58.5435 30.0136 58.0351C29.3466 57.6538 28.9973 57.4632 28.1715 57.495C27.3457 57.5268 27.0281 57.7809 26.3929 58.2257C25.5354 58.8612 24.3602 59.6873 22.137 59.8144C19.9138 59.9415 18.6434 59.2107 17.7541 58.7023C17.0871 58.3211 16.7377 58.1304 15.912 58.1622C15.0862 58.194 14.7686 58.4482 14.1334 58.893C13.2759 59.5284 12.1007 60.3545 9.87749 60.4816C7.65426 60.6087 6.38384 59.8779 5.49455 59.3696C4.82758 58.9883 4.47822 58.7977 3.65244 58.8294L2.69963 58.893L2.76315 60.3545L3.71596 60.291C4.63702 60.2274 5.01814 60.4498 5.71687 60.8629C6.60616 61.3712 7.81306 62.0702 9.97277 61.9431C12.1325 61.816 13.2759 60.99 14.1016 60.3863C14.7368 59.9097 15.118 59.6555 16.0073 59.592C16.9283 59.5284 17.3094 59.7508 18.0082 60.1639C18.8975 60.6722 20.1043 61.3712 22.2641 61.2441C24.4238 61.117 25.5671 60.291 26.3929 59.6873C27.0281 59.2107 27.4093 58.9565 28.2985 58.893C29.2196 58.8294 29.6007 59.0518 30.2994 59.4649C31.1887 59.9732 32.3956 60.6722 34.5553 60.5451C36.7151 60.4181 37.8584 59.592 38.6842 58.9883C39.3194 58.5117 39.7005 58.2575 40.5898 58.194C41.5109 58.1304 41.892 58.3528 42.5907 58.7659C43.48 59.2742 44.6869 59.9732 46.8466 59.8461C49.0063 59.7191 50.1497 58.893 50.9755 58.2893C51.6107 57.8127 51.9918 57.5585 52.8811 57.495C53.8022 57.4314 54.1833 57.6538 54.882 58.0669C55.7713 58.5752 56.9782 59.2742 59.1379 59.1472C61.2976 59.0201 62.441 58.194 63.2668 57.5903C63.902 57.1137 64.2831 56.8595 65.1724 56.796L66.1252 56.7324L66.0299 55.2709L65.0771 55.3345C64.0926 55.5251 63.8067 55.7793 63.1715 56.2241Z" fill="#B32029"/>
<path d="M12.1325 38.3043L10.8303 43.9281H10.9891C13.2123 43.9281 14.9909 41.704 14.9909 39.8294C14.9909 38.3679 13.9746 37.097 11.3067 37.097C8.03539 37.097 4.35118 39.0669 4.35118 43.2609C4.35118 44.5635 4.70055 44.7542 4.73231 44.9766C2.8902 44.9766 1.74683 44.3411 1.74683 42.6254C1.74683 39.1304 6.60617 35.8896 11.8784 35.8896C15.9755 35.8896 17.8176 37.8278 17.8176 39.9248C17.8176 41.4181 16.833 43.0067 15.0227 43.9599C17.4047 44.4047 18.3258 46.1522 18.3258 48.0585C18.3258 50.505 16.8648 55.3662 12.2278 55.3662C11.0209 55.3662 9.46461 55.0485 9.46461 53.4916C9.46461 53.0786 9.59165 52.602 9.81398 52.0301C10.5127 52.6973 11.0526 52.9515 11.6878 52.9515C13.7205 52.9515 14.451 50.3144 14.451 48.3763C14.451 46.597 13.8476 45.1672 11.8149 45.1672C11.5926 45.1672 11.0209 45.199 10.5445 45.2308L8.25772 54.9532H4.22414L8.00363 38.8127L12.1325 38.3043Z" fill="#6D1F11"/>
<path d="M12.196 56.4147C10.8303 56.4147 9.78221 56.0652 9.14701 55.398C8.9882 55.7475 8.60708 55.9699 8.22595 55.9699H4.22414C3.90653 55.9699 3.62069 55.811 3.39837 55.5886C3.2078 55.3345 3.14428 55.0167 3.2078 54.699L5.27223 45.8662C5.11343 45.9615 4.92287 46.0251 4.73231 46.0251C1.23866 46.0251 0.69873 43.8963 0.69873 42.6572C0.69873 38.5268 5.90744 34.9047 11.8466 34.9047C15.3085 34.9047 18.8339 36.4615 18.8339 39.9883C18.8339 41.3545 18.2305 42.689 17.1506 43.7375C18.5481 44.6271 19.3421 46.1522 19.3421 48.0903C19.3421 49.4248 18.961 51.4582 17.8811 53.2057C16.5789 55.3027 14.6098 56.4147 12.196 56.4147ZM10.5445 53.7776C10.7033 54.1589 11.275 54.3495 12.196 54.3495C16.3249 54.3495 17.2777 49.7107 17.2777 48.0903C17.2777 46.8829 16.8648 45.3896 14.8321 45.0401C14.3875 44.9448 14.0699 44.6271 14.0064 44.1823C14.0064 44.087 14.0064 43.9916 14.0064 43.8963C13.7523 44.087 13.4982 44.2458 13.2441 44.4047C14.324 44.8177 15.4991 45.8345 15.4991 48.408C15.4991 51.1087 14.324 54.0318 11.6878 54.0318C11.275 54 10.9256 53.9047 10.5445 53.7776ZM5.52632 53.9047H7.40018L9.49637 44.9766C9.55989 44.7224 9.68693 44.5318 9.8775 44.3729C9.78221 44.1505 9.75045 43.9281 9.78221 43.6739L10.7668 39.5117L8.8294 39.7341L5.52632 53.9047ZM10.1951 51.0769C10.3221 51.1405 10.4174 51.204 10.5127 51.2993C11.1162 51.8712 11.402 51.9348 11.6561 51.9348C12.8947 51.9348 13.3711 49.7743 13.3711 48.408C13.3711 46.4064 12.5454 46.2157 11.7514 46.2157C11.6561 46.2157 11.4973 46.2157 11.3067 46.2157L10.1951 51.0769ZM6.66969 39.9248C5.90744 40.7191 5.39927 41.7993 5.39927 43.2291C5.39927 43.9281 5.52632 44.1187 5.58984 44.2776C5.58984 44.3094 5.6216 44.3411 5.65336 44.3729L6.66969 39.9248ZM4.19238 39.7977C3.33485 40.6555 2.79492 41.6405 2.79492 42.6572C2.79492 43.0067 2.79492 43.4515 3.33485 43.7057C3.33485 43.5786 3.33485 43.4197 3.33485 43.2609C3.30309 41.9582 3.62069 40.8144 4.19238 39.7977ZM15.4038 37.7642C15.7849 38.3044 16.039 38.9716 16.039 39.8294C16.039 40.9415 15.6579 41.9582 15.0544 42.7525C16.1343 42.0217 16.7695 41.005 16.7695 39.9565C16.7695 39.0351 16.2931 38.2726 15.4038 37.7642ZM13.1488 38.4632C13.1488 38.495 13.1488 38.495 13.1488 38.5268L12.196 42.5619C13.2123 41.99 13.9428 40.8144 13.9428 39.8294C13.9746 39.1622 13.6252 38.7174 13.1488 38.4632Z" fill="white"/>
<path d="M29.4737 42.8796L27.7269 51.1087C27.6633 51.4264 27.6316 51.6806 27.6316 51.8712C27.6316 52.5385 27.9492 52.7609 28.6162 52.7609C29.569 52.7609 30.2042 51.8395 30.5853 50.6321H31.6016C30.2359 54.5719 28.0445 55.112 26.7423 55.112C25.3766 55.112 24.4873 54.3177 24.3603 52.8244C23.1534 54.7943 21.7877 55.112 20.7713 55.112C19.3103 55.112 18.1987 54.2542 18.1987 52.2207C18.1987 51.7759 18.2623 51.2358 18.3893 50.6639L20.0091 42.8796H23.5027L21.7559 51.1087C21.7241 51.3629 21.6924 51.5535 21.6924 51.7759C21.6924 52.3478 21.8829 52.7609 22.4229 52.7609C23.3757 52.7609 23.9791 51.8395 24.3603 50.6321L26.0118 42.8796H29.4737Z" fill="#6D1F11"/>
<path d="M26.7423 56.0017C25.5354 56.0017 24.6143 55.5251 24.0426 54.6672C23.1216 55.5569 22.0417 56.0017 20.7713 56.0017C19.088 56.0017 17.3094 55.0167 17.3094 52.2207C17.3094 51.7124 17.373 51.1405 17.5318 50.4733L19.1515 42.689C19.2468 42.2759 19.5962 41.99 20.0091 41.99H23.5027C23.7568 41.99 24.0109 42.1171 24.2014 42.3077C24.3602 42.5301 24.4238 42.7843 24.392 43.0385L22.6452 51.2676C22.6134 51.4582 22.5817 51.6171 22.5817 51.7759C22.5817 51.8077 22.5817 51.8395 22.5817 51.8395C23.0581 51.6488 23.3757 50.7592 23.5027 50.4097L25.1225 42.689C25.2178 42.2759 25.5671 41.99 25.98 41.99H29.4737C29.7278 41.99 29.9818 42.1171 30.1724 42.3077C30.3312 42.5301 30.3947 42.7843 30.363 43.0385L28.6161 51.2676C28.5526 51.49 28.5526 51.6806 28.5526 51.8712C28.5844 51.8712 28.6161 51.8712 28.6479 51.8712C29.1243 51.8712 29.5372 51.1087 29.7595 50.3779C29.8866 49.9967 30.2042 49.7425 30.6171 49.7425H31.6334C31.9192 49.7425 32.2051 49.8696 32.3639 50.1238C32.5227 50.3462 32.5862 50.6639 32.4909 50.9181C30.9664 55.112 28.5209 56.0017 26.7423 56.0017ZM24.7414 52.0301C24.9955 52.1572 25.186 52.4432 25.2178 52.7291C25.3448 54.0636 26.1388 54.2224 26.7423 54.2224C27.4092 54.2224 28.0445 54.0318 28.5844 53.6505C26.9328 53.6187 26.7423 52.4114 26.7423 51.8712C26.7423 51.5535 26.774 51.2676 26.8693 50.8863L28.3938 43.7375H26.7423L25.2495 50.791C25.2495 50.8228 25.2495 50.8545 25.2178 50.8545C25.059 51.3311 24.9002 51.7124 24.7414 52.0301ZM20.7396 43.7692L19.2468 50.8227C19.1198 51.3629 19.088 51.8395 19.088 52.2207C19.088 53.587 19.6279 54.2224 20.7713 54.2224C21.2795 54.2224 21.8512 54.1271 22.4864 53.6505C22.4546 53.6505 22.4229 53.6505 22.4229 53.6505C21.6924 53.6505 20.8031 53.1421 20.8031 51.7759C20.8031 51.49 20.8348 51.2358 20.8984 50.9181L22.4229 43.7692H20.7396Z" fill="white"/>
<path d="M35.6987 42.8796L35.3811 44.3729C36.2387 43.6422 37.1597 42.8796 38.3031 42.8796C39.3829 42.8796 39.9546 43.7692 39.9546 44.6906C39.9546 45.5485 39.4147 46.4699 38.2078 46.4699C36.8421 46.4699 37.5408 44.8813 36.8103 44.8813C36.0799 44.8813 35.6352 45.2308 35.0318 45.8027L33.0944 54.985H29.6007L32.1733 42.8796H35.6987Z" fill="#6D1F11"/>
<path d="M33.1579 55.8428H29.6642C29.4102 55.8428 29.1561 55.7157 28.9655 55.5251C28.775 55.3345 28.7432 55.0485 28.775 54.7943L31.3475 42.689C31.4428 42.2759 31.7922 41.99 32.2051 41.99H35.6987C35.9528 41.99 36.2069 42.1171 36.3975 42.3077C36.4292 42.3712 36.461 42.403 36.4927 42.4666C37.0327 42.1806 37.6361 41.99 38.3031 41.99C39.7641 41.99 40.8439 43.1656 40.8439 44.6906C40.8439 45.9933 39.9229 47.3595 38.2078 47.3595C36.8739 47.3595 36.5245 46.4064 36.3975 45.8662C36.2387 45.9298 36.0799 46.0569 35.8575 46.2793L33.9837 55.1756C33.9201 55.5569 33.5708 55.8428 33.1579 55.8428ZM30.7759 54.0953H32.4274L34.206 45.612C34.2377 45.4214 34.333 45.2625 34.4601 45.1355C34.5236 45.0719 34.6189 45.0084 34.6824 44.9448C34.5236 44.7542 34.4601 44.4682 34.5236 44.2141L34.6189 43.7692H32.9356L30.7759 54.0953ZM38.2078 45.5803H38.2396C39.0653 45.5803 39.0971 44.8495 39.0971 44.6906C39.0971 44.5953 39.0653 43.7692 38.3031 43.7692C37.9537 43.7692 37.6044 43.8963 37.2867 44.0552C37.922 44.3094 38.0808 45.0401 38.1125 45.2943C38.176 45.3896 38.176 45.485 38.2078 45.5803Z" fill="white"/>
<path d="M50.3085 42.8796L47.9265 54.0953C49.3875 53.5552 50.3085 52.7291 50.9755 50.6321H51.9918C51.039 53.8094 49.1969 54.7308 47.7042 55.1438L47.3548 56.8913C46.6243 60.3545 44.5916 60.99 43.0036 60.99C41.5426 60.99 40.304 60.2274 40.304 58.6388C40.304 56.6054 42.4319 55.5886 44.2423 55.0485L44.5281 53.7776C43.8294 54.5401 42.8766 55.1121 41.6379 55.1121C39.9864 55.1121 38.4301 54.0953 38.4301 51.204C38.4301 47.9314 40.431 42.7525 44.6552 42.7525C46.0209 42.7525 46.6243 43.2927 46.6243 43.9916V44.1505L46.8784 42.8796H50.3085ZM42.4319 59.1154C42.9401 59.1154 43.5118 58.3846 43.8294 56.9549L43.9882 56.2559C42.7495 56.7007 41.6062 57.3361 41.6062 58.3211C41.6062 58.6706 41.892 59.1154 42.4319 59.1154ZM41.9555 50.8863C41.9555 52.7609 42.7178 52.7609 43.1624 52.7609C43.8294 52.7609 44.7504 52.0937 45.0998 50.8863L46.3385 45.1672C46.3067 44.9131 46.1161 44.2776 45.3539 44.2776C43.2895 44.2458 41.9555 48.5987 41.9555 50.8863Z" fill="#6D1F11"/>
<path d="M42.9719 61.9114C40.8122 61.9114 39.3829 60.6087 39.3829 58.6706C39.3829 57.5903 39.8276 56.6689 40.6534 55.9064C39.0018 55.5569 37.4773 54.1906 37.4773 51.204C37.4773 47.296 39.9546 41.8629 44.5916 41.8629C45.2904 41.8629 45.8303 41.99 46.2432 42.1806C46.402 42.0535 46.5926 41.99 46.8149 41.99H50.3085C50.5626 41.99 50.8167 42.1171 51.0073 42.3077C51.1661 42.5301 51.2296 42.7843 51.1978 43.0385L49.2604 52.1572C49.6098 51.7442 49.8956 51.1722 50.1497 50.3462C50.2768 49.9649 50.5944 49.7425 51.0073 49.7425H52.0236C52.3094 49.7425 52.5635 49.8696 52.7223 50.092C52.8811 50.3144 52.9446 50.6003 52.8494 50.8863C51.8648 54.1906 49.9909 55.3345 48.4664 55.8428L48.2123 57.0819C47.3548 61.0535 44.9093 61.9114 42.9719 61.9114ZM42.0826 59.9732C42.4002 60.1003 42.7495 60.1321 43.0036 60.1321C44.1788 60.1321 45.8303 59.7826 46.4973 56.7324L46.8466 54.985C46.8784 54.7943 47.0054 54.6037 47.1325 54.4766C47.0372 54.286 47.0054 54.0953 47.069 53.9047L49.2287 43.7692H47.5771L47.4501 44.3094C47.4183 44.5 47.323 44.6589 47.196 44.7542C47.2278 44.8495 47.2278 44.9448 47.2595 45.0401C47.2595 45.1355 47.2595 45.2308 47.2278 45.2943L45.9891 51.0134C45.9891 51.0452 45.9891 51.0452 45.9891 51.0769C45.7668 51.8712 45.3539 52.5067 44.8457 52.9197C44.8775 52.9197 44.9093 52.9515 44.941 52.9515C45.2904 53.1421 45.4809 53.5552 45.3857 53.9365L45.0998 55.2074C45.0363 55.4298 44.9092 55.6204 44.7504 55.7475C44.8775 55.9381 44.9093 56.1605 44.8775 56.4147L44.7187 57.1137C44.3058 58.9248 43.48 59.9732 42.4319 59.9732C42.3049 60.005 42.1779 60.005 42.0826 59.9732ZM44.1788 43.6739C40.7486 44.0234 39.2877 48.7575 39.2877 51.2358C39.2877 53.2057 40.0817 54.2542 41.6062 54.2542C42.2414 54.2542 42.8131 54.0635 43.3212 53.6823C43.2577 53.6823 43.2259 53.6823 43.1624 53.6823C41.765 53.6823 41.0662 52.7609 41.0662 50.9181C41.0662 49.0435 42.0191 44.8177 44.1788 43.6739ZM45.3539 45.1355C44.2105 45.1355 42.8448 48.5987 42.8448 50.8863C42.8448 51.6806 43.0036 51.903 43.0036 51.903C43.0036 51.903 43.0989 51.903 43.1624 51.903C43.3847 51.903 43.9882 51.5535 44.2423 50.6957L45.4174 45.199C45.4174 45.1355 45.3857 45.1355 45.3539 45.1355Z" fill="white"/>
<path d="M55.1679 53.0786C57.0735 53.0786 58.2486 51.9983 59.4555 50.6321H60.2813C58.9156 52.8562 56.8512 55.112 53.6434 55.112C51.3566 55.112 49.8639 54 49.8639 51.2676C49.8639 48.4716 51.4202 42.6572 56.4065 42.6572C58.5663 42.6572 59.0744 43.7692 59.0744 44.9766C59.0744 47.7726 56.4065 49.9013 53.5163 50.092C53.4846 50.4415 53.4528 50.7592 53.4528 51.0452C53.4211 52.6973 53.9927 53.0786 55.1679 53.0786ZM56.5653 43.9281C55.3267 43.9281 54.1516 46.5017 53.6751 48.9164C55.549 48.7893 57.1688 46.9465 57.1688 44.913C57.1688 44.3411 57.01 43.9281 56.5653 43.9281Z" fill="#6D1F11"/>
<path d="M53.6116 56.0017C50.6579 56.0017 48.9428 54.286 48.9428 51.2676C48.9428 48.1539 50.7532 41.7676 56.3748 41.7676C58.6615 41.7676 59.9319 42.9114 59.9319 44.9766C59.9319 47.8361 57.4864 50.3462 54.3104 50.8863C54.3104 50.9498 54.3104 51.0134 54.3104 51.0452C54.3104 52.189 54.5009 52.189 55.1679 52.189C56.6289 52.189 57.5499 51.4264 58.7886 50.0602C58.9474 49.8696 59.2015 49.7425 59.4555 49.7425H60.2813C60.5989 49.7425 60.8848 49.9013 61.0436 50.1873C61.2024 50.4732 61.2024 50.8227 61.0118 51.0769C58.9791 54.413 56.5653 56.0017 53.6116 56.0017ZM55.0408 43.7375C51.8013 44.6906 50.7214 49.0435 50.7214 51.2676C50.7214 53.301 51.6107 54.2224 53.6116 54.2224C54.1833 54.2224 54.755 54.1271 55.2632 53.9682C55.2314 53.9682 55.1996 53.9682 55.1361 53.9682C53.3575 53.9682 52.5 53.0468 52.5 51.0452C52.5 50.7274 52.5318 50.3462 52.5635 49.9967C52.5953 49.7425 52.6906 49.5201 52.8811 49.3612C52.7541 49.1706 52.7223 48.9482 52.7541 48.7258C52.8811 48.2809 53.5799 45.1355 55.0408 43.7375ZM56.2795 45.0084C55.8984 45.3579 55.3902 46.2475 54.9456 47.5184C55.7078 46.9465 56.2477 45.9933 56.2795 45.0084ZM57.931 44.0552C57.9946 44.2776 58.0581 44.5635 58.0581 44.9448C58.0581 45.485 57.9628 45.9933 57.804 46.4699C58.0263 45.9933 58.1534 45.5167 58.1534 44.9766C58.1534 44.6271 58.1216 44.3094 57.931 44.0552Z" fill="white"/>
<path d="M63.9655 42.8796L63.6479 44.3729C64.5054 43.6422 65.4265 42.8796 66.5699 42.8796C67.6497 42.8796 68.2532 43.7692 68.2532 44.6906C68.2532 45.5485 67.6815 46.4699 66.5064 46.4699C65.1407 46.4699 65.8394 44.8813 65.1089 44.8813C64.3784 44.8813 63.9338 45.2308 63.3303 45.8027L61.3929 54.985H57.8993L60.4719 42.8796H63.9655Z" fill="#6D1F11"/>
<path d="M61.3929 55.8428H57.8993C57.6452 55.8428 57.3911 55.7157 57.2005 55.5251C57.01 55.3345 56.9782 55.0485 57.01 54.7943L59.5826 42.689C59.6779 42.2759 60.0272 41.99 60.4401 41.99H63.9338C64.1878 41.99 64.4419 42.1171 64.6325 42.3077C64.6642 42.3712 64.696 42.403 64.7278 42.4666C65.2677 42.1806 65.8711 41.99 66.5381 41.99C67.9991 41.99 69.1107 43.1656 69.1107 44.6906C69.1107 45.9933 68.1897 47.3595 66.4746 47.3595C65.1407 47.3595 64.7913 46.4064 64.6642 45.8662C64.5054 45.9298 64.3466 46.0569 64.1243 46.2793L62.2505 55.1756C62.1869 55.5569 61.8058 55.8428 61.3929 55.8428ZM59.0109 54.0953H60.6624L62.441 45.612C62.4728 45.4214 62.5681 45.2625 62.6951 45.1355C62.7586 45.0719 62.8539 45.0084 62.9174 44.9448C62.7586 44.7542 62.6951 44.4682 62.7586 44.2141L62.8539 43.7692H61.1706L59.0109 54.0953ZM66.4428 45.5803H66.4746C67.3004 45.5803 67.3321 44.8495 67.3321 44.6906C67.3321 44.5953 67.3004 43.7692 66.5381 43.7692C66.1887 43.7692 65.8394 43.8963 65.5218 44.0552C66.157 44.3094 66.3158 45.0401 66.3475 45.2943C66.4111 45.3896 66.4111 45.485 66.4428 45.5803Z" fill="white"/>
<path d="M12.1325 38.3043L10.8303 43.9281H10.9891C13.2123 43.9281 14.9909 41.704 14.9909 39.8294C14.9909 38.3679 13.9746 37.097 11.3067 37.097C8.03539 37.097 4.35118 39.0669 4.35118 43.2609C4.35118 44.5636 4.70055 44.7542 4.73231 44.9766C2.8902 44.9766 1.74683 44.3411 1.74683 42.6254C1.74683 39.1304 6.60617 35.8896 11.8784 35.8896C15.9755 35.8896 17.8176 37.8278 17.8176 39.9248C17.8176 41.4181 16.833 43.0067 15.0227 43.9599C17.4047 44.4047 18.3258 46.1522 18.3258 48.0585C18.3258 50.505 16.8648 55.3662 12.2278 55.3662C11.0209 55.3662 9.46461 55.0485 9.46461 53.4916C9.46461 53.0786 9.59165 52.602 9.81398 52.0301C10.5127 52.6973 11.0526 52.9515 11.6878 52.9515C13.7205 52.9515 14.451 50.3144 14.451 48.3763C14.451 46.597 13.8476 45.1672 11.8149 45.1672C11.5926 45.1672 11.0209 45.199 10.5445 45.2308L8.25772 54.9532H4.22414L8.00363 38.8127L12.1325 38.3043Z" fill="#411F1F"/>
<path d="M29.4737 42.8796L27.7269 51.1087C27.6633 51.4264 27.6316 51.6806 27.6316 51.8712C27.6316 52.5385 27.9492 52.7609 28.6162 52.7609C29.569 52.7609 30.2042 51.8395 30.5853 50.6321H31.6016C30.2359 54.5719 28.0445 55.112 26.7423 55.112C25.3766 55.112 24.4873 54.3177 24.3603 52.8244C23.1534 54.7943 21.7877 55.112 20.7713 55.112C19.3103 55.112 18.1987 54.2542 18.1987 52.2207C18.1987 51.7759 18.2623 51.2358 18.3893 50.6639L20.0091 42.8796H23.5027L21.7559 51.1087C21.7241 51.3629 21.6924 51.5535 21.6924 51.7759C21.6924 52.3478 21.8829 52.7609 22.4229 52.7609C23.3757 52.7609 23.9791 51.8395 24.3603 50.6321L26.0118 42.8796H29.4737Z" fill="#411F1F"/>
<path d="M35.6987 42.8796L35.3811 44.3729C36.2387 43.6422 37.1597 42.8796 38.3031 42.8796C39.3829 42.8796 39.9546 43.7692 39.9546 44.6906C39.9546 45.5485 39.4147 46.4699 38.2078 46.4699C36.8421 46.4699 37.5408 44.8813 36.8103 44.8813C36.0799 44.8813 35.6352 45.2308 35.0318 45.8027L33.0944 54.985H29.6007L32.1733 42.8796H35.6987Z" fill="#411F1F"/>
<path d="M50.3085 42.8796L47.9265 54.0953C49.3875 53.5552 50.3085 52.7291 50.9755 50.6321H51.9918C51.039 53.8094 49.1969 54.7308 47.7042 55.1438L47.3548 56.8913C46.6243 60.3545 44.5917 60.99 43.0036 60.99C41.5427 60.99 40.304 60.2274 40.304 58.6388C40.304 56.6054 42.4319 55.5886 44.2423 55.0485L44.5281 53.7776C43.8294 54.5401 42.8766 55.112 41.6379 55.112C39.9864 55.112 38.4301 54.0953 38.4301 51.204C38.4301 47.9314 40.431 42.7525 44.6552 42.7525C46.0209 42.7525 46.6243 43.2927 46.6243 43.9916V44.1505L46.8784 42.8796H50.3085ZM42.4319 59.1154C42.9401 59.1154 43.5118 58.3846 43.8294 56.9549L43.9882 56.2559C42.7495 56.7007 41.6062 57.3361 41.6062 58.3211C41.6062 58.6706 41.892 59.1154 42.4319 59.1154ZM41.9555 50.8863C41.9555 52.7609 42.7178 52.7609 43.1624 52.7609C43.8294 52.7609 44.7505 52.0937 45.0998 50.8863L46.3385 45.1672C46.3067 44.9131 46.1162 44.2776 45.3539 44.2776C43.2895 44.2458 41.9555 48.5987 41.9555 50.8863Z" fill="#411F1F"/>
<path d="M55.1679 53.0786C57.0735 53.0786 58.2486 51.9983 59.4555 50.6321H60.2813C58.9156 52.8562 56.8512 55.112 53.6434 55.112C51.3566 55.112 49.8639 54 49.8639 51.2676C49.8639 48.4716 51.4202 42.6572 56.4065 42.6572C58.5663 42.6572 59.0744 43.7692 59.0744 44.9766C59.0744 47.7726 56.4065 49.9013 53.5163 50.092C53.4846 50.4415 53.4528 50.7592 53.4528 51.0452C53.4211 52.6973 53.9927 53.0786 55.1679 53.0786ZM56.5653 43.9281C55.3267 43.9281 54.1516 46.5017 53.6751 48.9164C55.549 48.7893 57.1688 46.9465 57.1688 44.913C57.1688 44.3411 57.01 43.9281 56.5653 43.9281Z" fill="#411F1F"/>
<path d="M63.9655 42.8796L63.6479 44.3729C64.5054 43.6422 65.4265 42.8796 66.5699 42.8796C67.6497 42.8796 68.2532 43.7692 68.2532 44.6906C68.2532 45.5485 67.6815 46.4699 66.5064 46.4699C65.1407 46.4699 65.8394 44.8813 65.1089 44.8813C64.3784 44.8813 63.9338 45.2308 63.3303 45.8027L61.3929 54.985H57.8993L60.4719 42.8796H63.9655Z" fill="#411F1F"/>
<path d="M18.961 37.3512C20.1538 37.3512 21.1207 36.3839 21.1207 35.1906C21.1207 33.9974 20.1538 33.0301 18.961 33.0301C17.7682 33.0301 16.8013 33.9974 16.8013 35.1906C16.8013 36.3839 17.7682 37.3512 18.961 37.3512Z" fill="white"/>
<path d="M46.6878 34.9047H41.4791V37.5736H46.6878V34.9047Z" fill="white"/>
<path d="M20.4537 37.7007C18.9292 37.7007 17.9129 36.8111 17.9129 35.4448C17.9129 34.4917 18.4211 33.7927 19.088 33.4749C18.9292 33.189 18.8022 32.8395 18.8022 32.4264C18.8022 31.1238 19.9456 30.1388 21.4701 30.1388C22.7722 30.1388 23.6298 30.9014 23.6298 32.0134C23.6298 32.5853 23.4074 33.0937 23.0263 33.4114C23.2804 33.7927 23.471 34.301 23.471 34.9365C23.5027 36.5251 22.2323 37.7007 20.4537 37.7007Z" fill="white"/>
<path d="M22.0735 32.7124C21.9465 32.7124 21.8194 32.6806 21.7559 32.5535C21.9465 32.4264 22.0735 32.1723 22.0735 31.9181C22.0735 31.6639 21.9465 31.4415 21.5336 31.4415C21.1207 31.4415 20.8666 31.6639 20.8666 32.1087C20.8666 33.189 22.4864 33.3161 22.4864 34.8729C22.4864 36.0803 21.5018 36.684 20.4537 36.684C19.6279 36.684 18.9292 36.3345 18.9292 35.4448C18.9292 34.6505 19.5009 34.2693 20.0091 34.2693C20.2632 34.2693 20.6125 34.3646 20.6443 34.7458C20.2632 34.7458 19.7867 34.9365 19.7867 35.4131C19.7867 35.7626 20.0091 36.1121 20.4855 36.1121C20.9619 36.1121 21.3112 35.7626 21.3112 35.1589C21.3112 33.9198 19.8185 33.4749 19.8185 32.4264C19.8185 31.6639 20.549 31.1238 21.5018 31.1238C21.8512 31.1238 22.6769 31.1873 22.6769 31.9816C22.6769 32.3947 22.4229 32.7124 22.0735 32.7124Z" fill="white"/>
<path d="M23.8839 37.5736C22.5817 37.5736 21.7559 36.7157 21.7559 35.4131C21.7559 33.9197 22.677 31.8228 24.7096 31.8228C25.7895 31.8228 26.52 32.49 26.52 33.5385C26.52 33.8244 26.4564 34.1104 26.3612 34.3646C26.52 34.4599 26.647 34.587 26.7423 34.7458C26.9329 35.0636 26.9011 35.4448 26.7105 35.7626C25.98 36.9699 25.0272 37.5736 23.8839 37.5736Z" fill="white"/>
<path d="M24.3603 35.985C24.9319 35.985 25.2813 35.6672 25.6307 35.2542H25.8848C25.4719 35.9214 24.8684 36.5886 23.8839 36.5886C23.2169 36.5886 22.7405 36.2709 22.7405 35.4448C22.7405 34.6187 23.2169 32.8712 24.7096 32.8712C25.3448 32.8712 25.5036 33.189 25.5036 33.5702C25.5036 34.3963 24.7096 35.0318 23.8521 35.0953C23.8521 35.1906 23.8521 35.286 23.8521 35.3813C23.8203 35.8579 24.0109 35.985 24.3603 35.985ZM24.7731 33.2525C24.392 33.2525 24.0427 34.0151 23.9156 34.7458C24.4873 34.7141 24.9637 34.1421 24.9637 33.5385C24.9637 33.3478 24.9002 33.2525 24.7731 33.2525Z" fill="white"/>
<path d="M30.0454 37.5736C29.6007 37.5736 29.2196 37.4465 28.902 37.2241C28.7114 37.4147 28.4573 37.51 28.2033 37.51H27.1552C27.0281 37.51 26.9011 37.4783 26.774 37.4465C26.647 37.4783 26.52 37.51 26.3929 37.51H25.3448C25.0272 37.51 24.7414 37.383 24.5508 37.1288C24.3602 36.9064 24.2967 36.5886 24.3602 36.3027L25.1225 32.6806C25.2178 32.204 25.6307 31.8863 26.1071 31.8863H27.1552C27.2504 31.8863 27.314 31.8863 27.4092 31.9181C27.5681 31.8863 27.7586 31.8545 27.9492 31.8545C28.2668 31.8545 28.5526 31.9181 28.8067 32.0452C29.0925 31.9181 29.3784 31.8545 29.696 31.8545C30.7759 31.8545 31.5063 32.6171 31.5063 33.6656C31.5063 33.8562 31.4746 34.0151 31.4428 34.2057C31.7287 34.2375 31.9827 34.3963 32.1415 34.6187C32.3321 34.8729 32.3956 35.2224 32.2686 35.5401C31.7604 37.2241 30.7759 37.5736 30.0454 37.5736Z" fill="white"/>
<path d="M29.2514 33.5385C28.9973 33.5385 28.8067 33.8562 28.6797 34.2057L28.2033 36.5251H27.1552L27.6951 34.0151C27.6951 33.9515 27.7269 33.888 27.7269 33.8244C27.7269 33.6656 27.6633 33.5067 27.5045 33.5067C27.2187 33.5067 27.0281 33.8244 26.9329 34.1739L26.4565 36.4933H25.4084L26.1706 32.8712H27.2187L27.1234 33.2525C27.441 32.903 27.7586 32.8395 28.0127 32.8395C28.3938 32.8395 28.6797 32.9983 28.7432 33.4749C29.0926 32.9348 29.4737 32.8712 29.7595 32.8712C30.2359 32.8712 30.5535 33.1254 30.5535 33.6973C30.5535 34.2692 30.2042 35.1589 30.2042 35.5719C30.2042 35.7626 30.2677 35.8896 30.49 35.8896C30.8076 35.8896 30.9347 35.6355 31.0935 35.2542H31.4111C30.9982 36.4298 30.4583 36.5886 30.0771 36.5886C29.4419 36.5886 29.2196 36.1756 29.2196 35.7626C29.2196 35.286 29.5372 34.3646 29.5372 33.9197C29.5055 33.6656 29.4102 33.5385 29.2514 33.5385Z" fill="white"/>
<path d="M33.7296 37.5736C33.412 37.5736 33.1261 37.5101 32.8721 37.3512C32.5227 37.5101 32.2051 37.5736 31.951 37.5736C30.9664 37.5736 29.9819 36.9064 29.9819 35.4131C29.9819 33.9833 30.9029 31.8863 32.8403 31.8863C33.0309 31.8863 33.1897 31.9181 33.3167 31.9499C33.3802 31.9499 33.4437 31.9181 33.5073 31.9181H34.5554C34.873 31.9181 35.1588 32.0452 35.3494 32.2994C35.5399 32.5218 35.6035 32.8395 35.5399 33.1254L35.3176 34.2375C35.6035 34.2693 35.8575 34.4281 36.0163 34.6505C36.2069 34.9047 36.2387 35.2542 36.1434 35.5719C35.5082 37.3194 34.3648 37.5736 33.7296 37.5736Z" fill="white"/>
<path d="M34.5554 32.9348L34.0472 35.3813C34.0154 35.4766 34.0154 35.5401 34.0154 35.6037C34.0154 35.7943 34.1107 35.9214 34.3013 35.9214C34.5871 35.9214 34.7777 35.6037 34.873 35.2542H35.1906C34.7777 36.4298 34.1107 36.5886 33.7296 36.5886C33.3167 36.5886 33.0626 36.3662 33.0309 35.9214C32.8085 36.2391 32.4592 36.5886 31.951 36.5886C31.4746 36.5886 30.9982 36.2709 30.9982 35.4131C30.9982 34.4281 31.6016 32.8712 32.8721 32.8712C33.2849 32.8712 33.4437 33.0301 33.4437 33.2525V33.3161L33.539 32.9348H34.5554ZM32.0463 35.3177C32.0463 35.8896 32.2686 35.8896 32.3956 35.8896C32.618 35.8896 32.9038 35.6672 32.9991 35.2542L33.3485 33.602C33.3485 33.5067 33.2849 33.3161 33.0626 33.3161C32.4592 33.3161 32.0463 34.6505 32.0463 35.3177Z" fill="white"/>
<path d="M35.6034 37.5736C34.5553 37.5736 33.8249 36.8111 33.8249 35.699C33.8249 35.5084 33.8566 35.286 33.8884 35.0318L34.3965 32.7124C34.4283 32.5853 34.4918 32.4582 34.5554 32.3311C34.5236 32.204 34.5236 32.0769 34.5236 31.9499C34.5236 31.0602 35.2223 30.3612 36.1116 30.3612C37.0009 30.3612 37.6996 31.0602 37.6996 31.9499C37.6996 32.2676 37.6044 32.5535 37.4456 32.8077C37.4456 32.903 37.4456 32.9983 37.4138 33.1254L37.1915 34.2375C37.5091 34.2375 37.7949 34.3963 37.9537 34.6505C38.1443 34.9047 38.176 35.2542 38.0808 35.5719C37.4456 37.383 36.1434 37.5736 35.6034 37.5736Z" fill="white"/>
<path d="M36.4292 32.9348L35.8893 35.3813C35.8575 35.4766 35.8575 35.5401 35.8575 35.6037C35.8575 35.7943 35.9528 35.8579 36.1434 35.8579C36.4292 35.8579 36.6833 35.5719 36.8103 35.2224H37.1279C36.7151 36.398 35.9846 36.5569 35.6034 36.5569C35.1588 36.5569 34.8412 36.3027 34.8412 35.699C34.8412 35.5719 34.8729 35.4131 34.9047 35.2224L35.3811 32.903H36.4292V32.9348ZM36.0798 31.3779C36.3974 31.3779 36.6515 31.6321 36.6515 31.9499C36.6515 32.2676 36.3974 32.5218 36.0798 32.5218C35.7622 32.5218 35.5082 32.2676 35.5082 31.9499C35.5082 31.6321 35.7622 31.3779 36.0798 31.3779Z" fill="white"/>
<path d="M39.4147 37.5736C38.9701 37.5736 38.5889 37.4465 38.2713 37.2241C38.0808 37.4147 37.8267 37.51 37.5726 37.51H36.5245C36.2069 37.51 35.9211 37.383 35.7305 37.1288C35.5399 36.9064 35.4764 36.5886 35.5399 36.3027L36.3022 32.6806C36.3975 32.204 36.8103 31.8863 37.2868 31.8863H38.3348C38.4301 31.8863 38.4936 31.8863 38.5889 31.9181C38.7477 31.8863 38.9383 31.8545 39.0971 31.8545C40.1769 31.8545 40.9074 32.6171 40.9074 33.6656C40.9074 33.8562 40.8757 34.0151 40.8439 34.2057C41.1298 34.2375 41.3838 34.3963 41.5426 34.6187C41.7332 34.8729 41.7967 35.2224 41.6697 35.5401C41.1615 37.2241 40.1769 37.5736 39.4147 37.5736Z" fill="white"/>
<path d="M38.6525 33.5385C38.3984 33.5385 38.2078 33.8562 38.0808 34.2057L37.6044 36.5251H36.5563L37.3185 32.903H38.3666L38.2713 33.2843C38.5889 32.9348 38.9065 32.8712 39.1289 32.8712C39.6053 32.8712 39.9229 33.1254 39.9229 33.6973C39.9229 34.2692 39.5735 35.1589 39.5735 35.5719C39.5735 35.7626 39.637 35.8896 39.8594 35.8896C40.177 35.8896 40.304 35.6355 40.4628 35.2542H40.7804C40.3675 36.4298 39.8276 36.5886 39.4465 36.5886C38.8113 36.5886 38.5889 36.1756 38.5889 35.7626C38.5889 35.286 38.9065 34.3646 38.9065 33.9197C38.9065 33.6656 38.8113 33.5385 38.6525 33.5385Z" fill="white"/>
<path d="M41.4791 37.5736C40.177 37.5736 39.3512 36.7157 39.3512 35.4131C39.3512 33.9197 40.2722 31.8228 42.3049 31.8228C43.3848 31.8228 44.1152 32.49 44.1152 33.5385C44.1152 34.0786 43.9247 34.587 43.6071 35C43.7341 35.1906 43.7659 35.4448 43.7341 35.699C43.5118 36.8746 42.686 37.5736 41.4791 37.5736Z" fill="white"/>
<path d="M41.892 35.8896C42.1779 35.8896 42.5272 35.699 42.7495 35.5084C42.5907 36.3345 42.0826 36.5886 41.5109 36.5886C40.8439 36.5886 40.3993 36.2709 40.3993 35.4448C40.3993 34.6187 40.8757 32.8712 42.3684 32.8712C43.0036 32.8712 43.1624 33.189 43.1624 33.5702C43.1624 34.3963 42.3684 35.0318 41.5109 35.0953C41.5109 35.1589 41.5109 35.2542 41.5109 35.3177C41.4474 35.7626 41.6379 35.8896 41.892 35.8896ZM42.3684 33.2525C42.0191 33.2525 41.6379 34.0468 41.4791 34.7458C42.0508 34.7141 42.5272 34.1739 42.5272 33.5385C42.559 33.3478 42.5272 33.2525 42.3684 33.2525Z" fill="white"/>
<path d="M45.5762 37.5736C44.5917 37.5736 43.6071 36.9064 43.6071 35.4131C43.6071 34.0151 44.4646 31.9816 46.3385 31.8863L46.4338 31.4097C46.529 30.9967 46.8466 30.6789 47.2913 30.6154L48.3712 30.4565C48.4029 30.4565 48.4664 30.4565 48.4982 30.4565C48.784 30.4565 49.0381 30.5836 49.2287 30.7743C49.451 31.0284 49.5463 31.3462 49.4828 31.6639L48.9428 34.2375C49.2287 34.2692 49.4828 34.4281 49.6416 34.6505C49.8321 34.9047 49.8639 35.2542 49.7686 35.5719C49.1969 37.1923 48.1488 37.5418 47.3548 37.5418C47.069 37.5418 46.7831 37.4783 46.529 37.3512C46.2432 37.51 45.8938 37.5736 45.5762 37.5736Z" fill="white"/>
<path d="M48.4664 31.4733L47.6406 35.3813C47.6089 35.4766 47.6089 35.5401 47.6089 35.6037C47.6089 35.7943 47.7042 35.8579 47.8947 35.8579C48.1806 35.8579 48.3711 35.5719 48.4664 35.2224H48.784C48.3711 36.398 47.7042 36.5251 47.323 36.5251C46.9419 36.5251 46.6561 36.3027 46.6243 35.8896C46.402 36.2074 46.0526 36.5569 45.5445 36.5569C45.0681 36.5569 44.5916 36.2391 44.5916 35.3813C44.5916 34.3963 45.1951 32.8395 46.4655 32.8395C46.8784 32.8395 47.0372 32.9983 47.0372 33.2207V33.2525L47.3866 31.6003L48.4664 31.4733ZM46.6243 35.2542L46.9737 33.602C46.9737 33.5067 46.8784 33.3478 46.6878 33.3478C46.0844 33.3478 45.6715 34.6505 45.6715 35.3177C45.6715 35.8896 45.8938 35.8896 46.0209 35.8896C46.2114 35.8896 46.529 35.699 46.6243 35.286V35.2542Z" fill="white"/>
<path d="M51.0073 37.5736C50.6897 37.5736 50.4038 37.51 50.1497 37.3512C49.8639 37.4783 49.5463 37.5736 49.1969 37.5736C48.1488 37.5736 47.4183 36.8111 47.4183 35.699C47.4183 35.5084 47.4501 35.286 47.4819 35.0318L47.99 32.7124C48.0853 32.2358 48.4982 31.9181 48.9746 31.9181H50.0227C50.1497 31.9181 50.2768 31.9498 50.4038 31.9816C50.5309 31.9498 50.6579 31.9181 50.7849 31.9181H51.833C52.1506 31.9181 52.4365 32.0452 52.627 32.2993C52.8176 32.5218 52.8811 32.8395 52.8176 33.1254L52.4047 35.0318C52.4047 35.0318 52.4047 35.0318 52.4365 35.0318C52.6906 35.2224 52.8494 35.5719 52.8176 35.8896C52.7223 36.9064 51.9918 37.5736 51.0073 37.5736Z" fill="white"/>
<path d="M50.0227 32.9348L49.5145 35.3813C49.5145 35.4448 49.4828 35.5084 49.4828 35.5719C49.4828 35.7308 49.5463 35.8896 49.7051 35.8896C49.9909 35.8896 50.1815 35.6037 50.2768 35.2542L50.7849 32.9348H51.833L51.3249 35.3813C51.2931 35.4766 51.2931 35.5401 51.2931 35.6037C51.2931 35.7943 51.3884 35.8579 51.5789 35.8579C51.706 35.8579 51.7378 35.8261 51.833 35.8261C51.8013 36.3345 51.4201 36.5569 51.039 36.5569C50.6261 36.5569 50.3721 36.3027 50.3403 35.8579C49.9909 36.4616 49.578 36.5569 49.2604 36.5569C48.8158 36.5569 48.4982 36.3027 48.4982 35.699C48.4982 35.5719 48.5299 35.4131 48.5617 35.2224L49.0381 32.903H50.0227V32.9348Z" fill="white"/>
<path d="M22.0735 32.7124C21.9465 32.7124 21.8194 32.6806 21.7559 32.5535C21.9465 32.4264 22.0735 32.1723 22.0735 31.9181C22.0735 31.6639 21.9465 31.4415 21.5336 31.4415C21.1207 31.4415 20.8666 31.6639 20.8666 32.1087C20.8666 33.189 22.4864 33.3161 22.4864 34.8729C22.4864 36.0803 21.5018 36.684 20.4537 36.684C19.6279 36.684 18.9292 36.3345 18.9292 35.4448C18.9292 34.6505 19.5009 34.2693 20.0091 34.2693C20.2632 34.2693 20.6125 34.3646 20.6443 34.7458C20.2632 34.7458 19.7867 34.9365 19.7867 35.4131C19.7867 35.7626 20.0091 36.1121 20.4855 36.1121C20.9619 36.1121 21.3112 35.7626 21.3112 35.1589C21.3112 33.9198 19.8185 33.4749 19.8185 32.4264C19.8185 31.6639 20.549 31.1238 21.5018 31.1238C21.8512 31.1238 22.6769 31.1873 22.6769 31.9816C22.6769 32.3947 22.4229 32.7124 22.0735 32.7124Z" fill="#411F1F"/>
<path d="M24.3602 35.985C24.9319 35.985 25.2813 35.6672 25.6307 35.2542H25.8847C25.4719 35.9214 24.8684 36.5886 23.8838 36.5886C23.2169 36.5886 22.7405 36.2709 22.7405 35.4448C22.7405 34.6187 23.2169 32.8712 24.7096 32.8712C25.3448 32.8712 25.5036 33.189 25.5036 33.5702C25.5036 34.3963 24.7096 35.0318 23.8521 35.0953C23.8521 35.1906 23.8521 35.286 23.8521 35.3813C23.8203 35.8579 24.0109 35.985 24.3602 35.985ZM24.7731 33.2525C24.392 33.2525 24.0426 34.0151 23.9156 34.7458C24.4873 34.7141 24.9637 34.1421 24.9637 33.5385C24.9637 33.3478 24.9002 33.2525 24.7731 33.2525Z" fill="#411F1F"/>
<path d="M29.2514 33.5385C28.9973 33.5385 28.8067 33.8562 28.6797 34.2057L28.2033 36.5251H27.1552L27.6951 34.0151C27.6951 33.9515 27.7269 33.888 27.7269 33.8244C27.7269 33.6656 27.6633 33.5067 27.5045 33.5067C27.2187 33.5067 27.0281 33.8244 26.9328 34.1739L26.4564 36.4933H25.4083L26.1706 32.8712H27.2187L27.1234 33.2525C27.441 32.903 27.7586 32.8395 28.0127 32.8395C28.3938 32.8395 28.6797 32.9983 28.7432 33.4749C29.0926 32.9348 29.4737 32.8712 29.7595 32.8712C30.2359 32.8712 30.5535 33.1254 30.5535 33.6973C30.5535 34.2692 30.2042 35.1589 30.2042 35.5719C30.2042 35.7626 30.2677 35.8896 30.49 35.8896C30.8076 35.8896 30.9347 35.6355 31.0935 35.2542H31.4111C30.9982 36.4298 30.4582 36.5886 30.0771 36.5886C29.4419 36.5886 29.2196 36.1756 29.2196 35.7626C29.2196 35.286 29.5372 34.3646 29.5372 33.9197C29.5054 33.6656 29.4102 33.5385 29.2514 33.5385Z" fill="#411F1F"/>
<path d="M34.5554 32.9348L34.0472 35.3813C34.0154 35.4766 34.0154 35.5401 34.0154 35.6037C34.0154 35.7943 34.1107 35.9214 34.3013 35.9214C34.5871 35.9214 34.7777 35.6037 34.873 35.2542H35.1906C34.7777 36.4298 34.1107 36.5886 33.7296 36.5886C33.3167 36.5886 33.0626 36.3662 33.0309 35.9214C32.8085 36.2391 32.4592 36.5886 31.951 36.5886C31.4746 36.5886 30.9982 36.2709 30.9982 35.4131C30.9982 34.4281 31.6016 32.8712 32.8721 32.8712C33.2849 32.8712 33.4437 33.0301 33.4437 33.2525V33.3161L33.539 32.9348H34.5554ZM32.0463 35.3177C32.0463 35.8896 32.2686 35.8896 32.3956 35.8896C32.618 35.8896 32.9038 35.6672 32.9991 35.2542L33.3485 33.602C33.3485 33.5067 33.2849 33.3161 33.0626 33.3161C32.4592 33.3478 32.0463 34.6505 32.0463 35.3177Z" fill="#411F1F"/>
<path d="M36.4292 32.9348L35.8893 35.3813C35.8575 35.4766 35.8575 35.5401 35.8575 35.6037C35.8575 35.7943 35.9528 35.8579 36.1434 35.8579C36.4292 35.8579 36.6833 35.5719 36.8103 35.2224H37.1279C36.7151 36.398 35.9846 36.5569 35.6034 36.5569C35.1588 36.5569 34.8412 36.3027 34.8412 35.699C34.8412 35.5719 34.8729 35.4131 34.9047 35.2224L35.3811 32.903H36.4292V32.9348ZM36.0798 31.3779C36.3974 31.3779 36.6515 31.6321 36.6515 31.9499C36.6515 32.2676 36.3974 32.5218 36.0798 32.5218C35.7622 32.5218 35.5082 32.2676 35.5082 31.9499C35.5082 31.6321 35.7622 31.3779 36.0798 31.3779Z" fill="#411F1F"/>
<path d="M38.6524 33.5385C38.3984 33.5385 38.2078 33.8562 38.0808 34.2057L37.6044 36.5251H36.5563L37.3185 32.903H38.3666L38.2713 33.2843C38.5889 32.9348 38.9065 32.8712 39.1288 32.8712C39.6053 32.8712 39.9229 33.1254 39.9229 33.6973C39.9229 34.2692 39.5735 35.1589 39.5735 35.5719C39.5735 35.7625 39.637 35.8896 39.8593 35.8896C40.1769 35.8896 40.304 35.6355 40.4628 35.2542H40.7804C40.3675 36.4298 39.8276 36.5886 39.4465 36.5886C38.8112 36.5886 38.5889 36.1756 38.5889 35.7625C38.5889 35.286 38.9065 34.3646 38.9065 33.9197C38.9065 33.6656 38.8112 33.5385 38.6524 33.5385Z" fill="#411F1F"/>
<path d="M41.892 35.8896C42.1779 35.8896 42.5272 35.699 42.7495 35.5084C42.5907 36.3345 42.0826 36.5886 41.5109 36.5886C40.8439 36.5886 40.3993 36.2709 40.3993 35.4448C40.3993 34.6187 40.8757 32.8712 42.3684 32.8712C43.0036 32.8712 43.1624 33.189 43.1624 33.5702C43.1624 34.3963 42.3684 35.0318 41.5109 35.0953C41.5109 35.1589 41.5109 35.2542 41.5109 35.3177C41.4474 35.7625 41.6379 35.8896 41.892 35.8896ZM42.3684 33.2525C42.0191 33.2525 41.6379 34.0468 41.4791 34.7458C42.0508 34.7141 42.5272 34.1739 42.5272 33.5385C42.559 33.3478 42.5272 33.2525 42.3684 33.2525Z" fill="#411F1F"/>
<path d="M48.4664 31.4733L47.6406 35.3813C47.6089 35.4766 47.6089 35.5402 47.6089 35.6037C47.6089 35.7943 47.7042 35.8579 47.8947 35.8579C48.1806 35.8579 48.3711 35.5719 48.4664 35.2224H48.784C48.3711 36.398 47.7042 36.5251 47.323 36.5251C46.9419 36.5251 46.6561 36.3027 46.6243 35.8897C46.402 36.2074 46.0526 36.5569 45.5445 36.5569C45.0681 36.5569 44.5916 36.2392 44.5916 35.3813C44.5916 34.3963 45.1951 32.8395 46.4655 32.8395C46.8784 32.8395 47.0372 32.9983 47.0372 33.2208V33.2525L47.3866 31.6004L48.4664 31.4733ZM46.6243 35.2542L46.9737 33.602C46.9737 33.5067 46.8784 33.3478 46.6878 33.3478C46.0844 33.3478 45.6715 34.6505 45.6715 35.3177C45.6715 35.8897 45.8938 35.8897 46.0209 35.8897C46.2114 35.8897 46.529 35.699 46.6243 35.286V35.2542Z" fill="#411F1F"/>
<path d="M50.0227 32.9348L49.5145 35.3813C49.5145 35.4448 49.4828 35.5084 49.4828 35.5719C49.4828 35.7308 49.5463 35.8896 49.7051 35.8896C49.9909 35.8896 50.1815 35.6037 50.2768 35.2542L50.7532 32.9348H51.8013L51.2931 35.3813C51.2613 35.4766 51.2613 35.5401 51.2613 35.6037C51.2613 35.7943 51.3566 35.8579 51.5472 35.8579C51.6742 35.8579 51.706 35.8261 51.8013 35.8261C51.7695 36.3345 51.3884 36.5569 51.0073 36.5569C50.5944 36.5569 50.3403 36.3027 50.3085 35.8579C49.9592 36.4616 49.5463 36.5569 49.2287 36.5569C48.784 36.5569 48.4664 36.3027 48.4664 35.699C48.4664 35.5719 48.4982 35.4131 48.53 35.2224L49.0064 32.903H50.0227V32.9348Z" fill="#411F1F"/>
<path d="M16.8966 36.811C16.4201 36.811 15.9755 36.4616 15.5309 36.1121C15.118 35.7626 14.6733 35.4131 14.1652 35.4131C14.1652 35.4131 14.1652 35.4131 14.1334 35.4131C14.1016 35.4131 14.0699 35.4131 14.0381 35.4131H14.0064C13.9428 35.4131 13.8793 35.3813 13.8476 35.3495C13.784 35.286 13.784 35.2224 13.784 35.1589L14.2604 32.9348C14.2287 32.9666 14.1969 32.9666 14.1652 32.9666C13.4347 32.9666 13.2759 32.5217 13.2759 32.1405C13.2759 31.1238 14.578 30.3294 15.6261 30.3294C15.7214 30.3294 15.8167 30.3294 15.8802 30.3294C15.9437 30.3294 16.0073 30.3612 16.039 30.4248C16.0708 30.4883 16.1025 30.5518 16.0708 30.6154L15.245 34.7776C15.4673 34.8411 15.6579 34.9682 15.8802 35.0953C16.2296 35.286 16.6107 35.5084 17.0236 35.5084C17.1824 35.5084 17.3094 35.4766 17.4365 35.4448C17.4682 35.4448 17.5 35.4131 17.5318 35.4131C17.5953 35.4131 17.627 35.4131 17.6588 35.4448C17.7223 35.5084 17.7541 35.5719 17.7541 35.6672C17.6588 36.3662 17.3412 36.811 16.8966 36.811ZM14.6098 31.505C14.4192 31.6957 14.3557 31.9816 14.3557 32.2993C14.3557 32.4582 14.3875 32.5217 14.3875 32.5535L14.6098 31.505Z" fill="#411F1F"/>
<path d="M15.6579 30.5518C15.7532 30.5518 15.8167 30.5518 15.912 30.5518L14.9909 34.9047C15.6261 35.0318 16.2613 35.699 17.0236 35.699C17.1824 35.699 17.3412 35.6672 17.5318 35.6037C17.4682 36.1756 17.2142 36.5569 16.8966 36.5569C16.039 36.5569 15.2768 35.1906 14.1969 35.1906C14.1334 35.1906 14.1016 35.1906 14.0699 35.1906L14.9592 30.9967C14.4192 31.2191 14.1016 31.6639 14.1016 32.3311C14.1016 32.6488 14.1652 32.6806 14.1969 32.7442C13.784 32.7442 13.5617 32.5853 13.5617 32.1405C13.53 31.3462 14.6416 30.5518 15.6579 30.5518ZM15.6579 30.107C14.1969 30.107 13.0535 31.2191 13.0535 32.1405C13.0535 32.4264 13.1488 33.0937 13.9746 33.189L13.5617 35.0953C13.53 35.2542 13.5617 35.3813 13.6888 35.5084C13.784 35.6037 13.9111 35.6672 14.0381 35.6672C14.0699 35.6672 14.0699 35.6672 14.1016 35.6672C14.1334 35.6672 14.1334 35.6672 14.1652 35.6672H14.1969C14.6098 35.6672 14.9909 35.985 15.4038 36.3027C15.8485 36.6522 16.3249 37.0335 16.8966 37.0335C17.3412 37.0335 17.8811 36.684 17.9764 35.6672C18.0082 35.5084 17.9129 35.3495 17.7859 35.2542C17.6906 35.1906 17.5953 35.1589 17.5 35.1589C17.4365 35.1589 17.373 35.1589 17.3094 35.1906C17.2142 35.2224 17.0871 35.2542 16.9918 35.2542C16.6425 35.2542 16.3249 35.0636 15.9755 34.8729C15.8167 34.7776 15.6579 34.7141 15.4991 34.6187L16.3566 30.6472C16.3884 30.5201 16.3566 30.393 16.2613 30.2659C16.1661 30.1706 16.0708 30.107 15.912 30.0753C15.8485 30.107 15.7532 30.107 15.6579 30.107Z" fill="white"/>
<path d="M18.0082 35.3177C17.7223 35.3177 17.4682 35.1906 17.3412 34.9682C17.0871 35.1906 16.833 35.3177 16.5154 35.3177C16.0073 35.3177 15.4673 35 15.4673 34.1104C15.4673 33.1254 16.1025 31.7592 17.2459 31.7592C17.4047 31.7592 17.5635 31.791 17.6588 31.8227C17.6906 31.791 17.7541 31.7592 17.7858 31.7592H18.6751C18.7387 31.7592 18.8022 31.791 18.8657 31.8545C18.8975 31.9181 18.9292 31.9816 18.8975 32.0452L18.4528 34.1104C18.4528 34.1739 18.4211 34.2057 18.4211 34.2375C18.4211 34.2375 18.4211 34.2375 18.4528 34.2375C18.4846 34.2375 18.4846 34.2375 18.4846 34.2375C18.5163 34.2375 18.5481 34.2057 18.5799 34.2057C18.6434 34.2057 18.7069 34.2375 18.7387 34.2692C18.8022 34.3328 18.8339 34.4281 18.8022 34.5234C18.6751 35 18.5163 35.3177 18.0082 35.3177ZM17.4682 32.5853C17.1824 32.5853 16.8648 33.4431 16.8648 34.0151C16.8648 34.2057 16.8966 34.2692 16.8966 34.2692H16.9283C16.9918 34.2692 17.1506 34.1739 17.2142 33.9197L17.4682 32.5853Z" fill="#411F1F"/>
<path d="M17.2777 31.9816C17.627 31.9816 17.7541 32.1087 17.7541 32.2993V32.3311L17.8176 32.0134H18.7069L18.2623 34.0786C18.2305 34.1421 18.2305 34.2057 18.2305 34.2692C18.2305 34.4281 18.294 34.4916 18.4846 34.4916C18.5481 34.4916 18.5799 34.4916 18.6116 34.4599C18.4528 34.8729 18.3258 35.0635 18.0082 35.0635C17.6906 35.0635 17.4682 34.8411 17.4047 34.4916C17.2142 34.7776 16.9283 35.0635 16.5154 35.0635C16.1025 35.0635 15.7214 34.8094 15.7214 34.0786C15.7214 33.2843 16.2296 31.9816 17.2777 31.9816ZM16.9283 34.4916C17.1189 34.4916 17.373 34.301 17.4365 33.9515L17.7223 32.5853C17.7223 32.5217 17.6588 32.3629 17.4682 32.3629C16.9601 32.3629 16.6107 33.4431 16.6107 34.0151C16.6107 34.4916 16.8013 34.4916 16.9283 34.4916ZM17.2777 31.5368C16.6425 31.5368 16.0708 31.8863 15.6897 32.5217C15.4356 32.9666 15.245 33.5702 15.245 34.1104C15.245 35.1589 15.9437 35.5401 16.5154 35.5401C16.8013 35.5401 17.0871 35.4448 17.3094 35.286C17.5 35.4448 17.7223 35.5401 18.0082 35.5401C18.7069 35.5401 18.8975 35 19.0563 34.6187C19.1198 34.4599 19.088 34.2375 18.961 34.1104C18.8975 34.0468 18.8339 34.0151 18.7704 33.9833L19.1833 32.0769C19.2151 31.9498 19.1833 31.791 19.088 31.6957C18.9927 31.6003 18.8657 31.5368 18.7387 31.5368H17.8494C17.7858 31.5368 17.7541 31.5368 17.6906 31.5686C17.5635 31.5368 17.4365 31.5368 17.2777 31.5368Z" fill="white"/>
</g>
<defs>
<clipPath id="clip0">
<rect width="70" height="57" fill="white" transform="translate(0 16)"/>
</clipPath>
</defs>
</svg>
