<svg width="76" height="84" viewBox="0 0 76 84" fill="none" xmlns="http://www.w3.org/2000/svg">
<path d="M33.4213 13.552V12.799C33.5383 12.955 33.7033 13.036 33.8863 13.036C34.2613 13.036 34.5283 12.751 34.5283 12.274C34.5283 11.797 34.2613 11.515 33.8863 11.515C33.6973 11.515 33.5293 11.605 33.4213 11.749V11.551H33.1063V13.552H33.4213ZM34.2013 12.274C34.2013 12.556 34.0423 12.757 33.7933 12.757C33.6463 12.757 33.4903 12.667 33.4213 12.562V11.989C33.4903 11.881 33.6463 11.794 33.7933 11.794C34.0423 11.794 34.2013 11.995 34.2013 12.274ZM34.8466 13H35.1616V12.013C35.2246 11.911 35.4016 11.821 35.5336 11.821C35.5726 11.821 35.6056 11.824 35.6326 11.83V11.518C35.4436 11.518 35.2696 11.626 35.1616 11.764V11.551H34.8466V13ZM35.7966 12.274C35.7966 12.733 36.1206 13.036 36.5556 13.036C36.7866 13.036 36.9996 12.964 37.1436 12.826L36.9996 12.619C36.8976 12.721 36.7296 12.778 36.5886 12.778C36.3156 12.778 36.1506 12.598 36.1266 12.379H37.2456V12.304C37.2456 11.848 36.9666 11.515 36.5316 11.515C36.1026 11.515 35.7966 11.854 35.7966 12.274ZM36.5316 11.773C36.8166 11.773 36.9336 11.986 36.9396 12.157H36.1236C36.1386 11.98 36.2616 11.773 36.5316 11.773ZM37.4305 12.811C37.5805 12.958 37.8055 13.036 38.0515 13.036C38.4415 13.036 38.6545 12.841 38.6545 12.586C38.6545 12.244 38.3455 12.172 38.0935 12.118C37.9225 12.079 37.7785 12.04 37.7785 11.929C37.7785 11.827 37.8835 11.767 38.0485 11.767C38.2285 11.767 38.3905 11.842 38.4775 11.941L38.6095 11.719C38.4775 11.602 38.2915 11.515 38.0455 11.515C37.6795 11.515 37.4755 11.719 37.4755 11.956C37.4755 12.28 37.7725 12.346 38.0215 12.4C38.1985 12.439 38.3515 12.484 38.3515 12.61C38.3515 12.718 38.2555 12.787 38.0665 12.787C37.8775 12.787 37.6765 12.688 37.5745 12.583L37.4305 12.811ZM38.8816 12.274C38.8816 12.733 39.2056 13.036 39.6406 13.036C39.8716 13.036 40.0846 12.964 40.2286 12.826L40.0846 12.619C39.9826 12.721 39.8146 12.778 39.6736 12.778C39.4006 12.778 39.2356 12.598 39.2116 12.379H40.3306V12.304C40.3306 11.848 40.0516 11.515 39.6166 11.515C39.1876 11.515 38.8816 11.854 38.8816 12.274ZM39.6166 11.773C39.9016 11.773 40.0186 11.986 40.0246 12.157H39.2086C39.2236 11.98 39.3466 11.773 39.6166 11.773ZM41.6195 13H41.9345V11.98C41.9345 11.683 41.7785 11.515 41.4665 11.515C41.2385 11.515 41.0525 11.635 40.9565 11.749V11.551H40.6415V13H40.9565V11.989C41.0285 11.89 41.1665 11.794 41.3285 11.794C41.5055 11.794 41.6195 11.869 41.6195 12.094V13ZM42.7786 13.036C42.9256 13.036 43.0186 12.997 43.0756 12.943L43.0006 12.706C42.9766 12.733 42.9196 12.757 42.8596 12.757C42.7696 12.757 42.7216 12.685 42.7216 12.586V11.827H43.0156V11.551H42.7216V11.155H42.4066V11.551H42.1666V11.827H42.4066V12.664C42.4066 12.904 42.5356 13.036 42.7786 13.036Z" fill="white"/>
<path d="M39.259 80.1705V81.9951H39.741C40.2574 81.9951 40.6361 81.582 40.6361 81.0656C40.6361 80.5836 40.2574 80.1705 39.7754 80.1361H39.741L39.259 80.1705ZM39.741 79.6197C40.6016 79.6197 41.2902 80.2738 41.2902 81.1C41.2902 81.9262 40.6361 82.5803 39.741 82.5803H38.7082C38.6738 82.5803 38.6393 82.5459 38.6393 82.5115V79.6885C38.6393 79.6541 38.6738 79.6197 38.7082 79.6197H39.741Z" fill="#FF3008"/>
<path d="M43.5279 82.0639C44.0787 82.0639 44.4918 81.6164 44.4918 81.1C44.4918 80.5836 44.0443 80.1361 43.5279 80.1361C42.977 80.1361 42.5639 80.5836 42.5639 81.1C42.5295 81.6508 42.977 82.0639 43.5279 82.0639ZM43.5279 79.5508C44.4574 79.5508 45.1459 80.2393 45.1459 81.1C45.1459 81.9606 44.4574 82.6492 43.5279 82.6492C42.5984 82.6492 41.9098 81.9606 41.9098 81.1C41.9098 80.2393 42.5984 79.5508 43.5279 79.5508Z" fill="#FF3008"/>
<path d="M47.3836 82.0639C47.9344 82.0639 48.382 81.6164 48.382 81.1C48.382 80.5836 47.9344 80.1016 47.418 80.1016C46.8672 80.1016 46.4197 80.5492 46.4197 81.0656C46.3852 81.6508 46.8328 82.0639 47.3836 82.0639ZM47.3836 79.5508C48.3131 79.5508 49.0016 80.2393 49.0016 81.1C49.0016 81.9606 48.3131 82.6492 47.3836 82.6492C46.4541 82.6492 45.7656 81.9606 45.7656 81.1C45.7656 80.2393 46.4541 79.5508 47.3836 79.5508Z" fill="#FF3008"/>
<path d="M51.1361 80.1705H50.482V80.9623H51.1361C51.3426 80.9623 51.5148 80.7902 51.5492 80.5836C51.5492 80.3771 51.377 80.2049 51.1361 80.1705C51.1705 80.1705 51.1361 80.1705 51.1361 80.1705ZM49.8279 79.6885C49.8279 79.6541 49.8623 79.6197 49.8967 79.6197H51.1361C51.7213 79.6197 52.1689 80.0672 52.1689 80.5836C52.1689 80.9623 51.9623 81.3066 51.6525 81.4443L52.2377 82.4426C52.2721 82.4771 52.2377 82.5115 52.2033 82.5459H52.1689H51.6525C51.618 82.5459 51.5836 82.5459 51.5836 82.5115L51.0328 81.5476H50.482V82.5115C50.482 82.5459 50.4475 82.5803 50.4131 82.5803H49.9311C49.8967 82.5803 49.8623 82.5459 49.8623 82.5115L49.8279 79.6885Z" fill="#FF3008"/>
<path d="M53.8557 80.2049V82.0295H54.3377C54.8541 82.0295 55.2328 81.6164 55.2328 81.1C55.2328 80.6181 54.8541 80.2049 54.3721 80.1705H54.3377H53.8557V80.2049ZM54.3377 79.6197C55.1984 79.6197 55.8869 80.2738 55.8869 81.1C55.8869 81.9262 55.2328 82.5803 54.3377 82.5803H53.3049C53.2705 82.5803 53.2361 82.5459 53.2361 82.5115V79.6885C53.2361 79.6541 53.2705 79.6197 53.3049 79.6197H54.3377Z" fill="#FF3008"/>
<path d="M57.8148 80.3426L57.4361 81.3066H58.159L57.8148 80.3426ZM57.2295 81.8918L56.9885 82.5459C56.9885 82.5803 56.9541 82.6148 56.9197 82.5803H56.4033C56.3689 82.5803 56.3344 82.5459 56.3344 82.5115V82.4771L57.4361 79.6541C57.4361 79.6197 57.4705 79.6197 57.5049 79.6197H58.0902C58.1246 79.6197 58.159 79.6541 58.159 79.6541L59.2607 82.4771C59.2951 82.5115 59.2607 82.5459 59.2262 82.5803H59.1918H58.6754C58.641 82.5803 58.6066 82.5459 58.6066 82.5459L58.3656 81.8918H57.2295Z" fill="#FF3008"/>
<path d="M59.8803 80.4115C59.8803 79.9295 60.2934 79.5508 60.9131 79.5508C61.2574 79.5508 61.6016 79.6541 61.8426 79.8951C61.877 79.9295 61.877 79.9639 61.8426 79.9984L61.5672 80.2738C61.5328 80.3082 61.4984 80.3082 61.4639 80.2738C61.3262 80.1361 61.1541 80.0672 60.982 80.0672C60.741 80.0672 60.5344 80.2049 60.5344 80.377C60.5344 80.9279 62.0492 80.618 62.0492 81.6852C62.0492 82.2016 61.6361 82.6147 60.9131 82.6147C60.5 82.6147 60.1213 82.477 59.8459 82.1672C59.8115 82.1328 59.8115 82.0984 59.8459 82.0639L60.1213 81.7885C60.1557 81.7541 60.1902 81.7541 60.2246 81.7885C60.3967 81.9951 60.6033 82.0984 60.8443 82.0984C61.1541 82.0984 61.3607 81.9262 61.3607 81.7197C61.3951 81.1688 59.8803 81.4787 59.8803 80.4115Z" fill="#FF3008"/>
<path d="M64.7688 79.6885V80.7902H63.4951V79.6885C63.4951 79.6541 63.4606 79.6197 63.4262 79.6197H62.9442C62.9098 79.6197 62.8754 79.6541 62.8754 79.6885V82.5115C62.8754 82.5459 62.9098 82.5803 62.9442 82.5803H63.4262C63.4606 82.5803 63.4951 82.5459 63.4951 82.5115V81.3754H64.7688V82.5115C64.7688 82.5459 64.8033 82.5803 64.8377 82.5803H65.3197C65.3541 82.5803 65.3885 82.5459 65.3885 82.5115V79.6885C65.3885 79.6541 65.3541 79.6197 65.3197 79.6197H64.8377C64.8033 79.5852 64.7688 79.6197 64.7688 79.6885Z" fill="#FF3008"/>
<path d="M36.0918 79.9984C35.782 79.3787 35.1279 79 34.4393 79H29.1721C29.0689 79 29 79.0689 29 79.1721C29 79.2066 29.0344 79.2754 29.0689 79.3098L30.2049 80.4459C30.3082 80.5492 30.4459 80.618 30.5836 80.618H34.3016C34.577 80.618 34.7836 80.8246 34.7836 81.1C34.7836 81.3754 34.577 81.582 34.3016 81.582H31.7541C31.6508 81.582 31.5475 81.6508 31.5475 81.7541C31.5475 81.7885 31.582 81.8574 31.6164 81.8918L32.7525 83.0279C32.8557 83.1311 32.9934 83.2 33.1311 83.2H34.3016C35.782 83.2 36.9525 81.582 36.0918 79.9984Z" fill="#FF3008"/>
<path d="M7.91515 82H8.65915C9.28315 82 9.70615 81.589 9.70615 81.001C9.70615 80.413 9.28315 79.999 8.65915 79.999H7.91515V82ZM8.26615 81.691V80.308H8.65915C9.10615 80.308 9.34615 80.614 9.34615 81.001C9.34615 81.379 9.09415 81.691 8.65915 81.691H8.26615ZM9.94603 81.274C9.94603 81.733 10.27 82.036 10.705 82.036C10.936 82.036 11.149 81.964 11.293 81.826L11.149 81.619C11.047 81.721 10.879 81.778 10.738 81.778C10.465 81.778 10.3 81.598 10.276 81.379H11.395V81.304C11.395 80.848 11.116 80.515 10.681 80.515C10.252 80.515 9.94603 80.854 9.94603 81.274ZM10.681 80.773C10.966 80.773 11.083 80.986 11.089 81.157H10.273C10.288 80.98 10.411 80.773 10.681 80.773ZM11.706 82H12.021V79.999H11.706V82ZM12.5856 80.311C12.6936 80.311 12.7806 80.224 12.7806 80.116C12.7806 80.008 12.6936 79.921 12.5856 79.921C12.4806 79.921 12.3906 80.008 12.3906 80.116C12.3906 80.224 12.4806 80.311 12.5856 80.311ZM12.4296 82H12.7446V80.551H12.4296V82ZM13.5342 82H13.8732L14.4642 80.551H14.1252L13.7022 81.637L13.2792 80.551H12.9432L13.5342 82ZM14.572 81.274C14.572 81.733 14.896 82.036 15.331 82.036C15.562 82.036 15.775 81.964 15.919 81.826L15.775 81.619C15.673 81.721 15.505 81.778 15.364 81.778C15.091 81.778 14.926 81.598 14.902 81.379H16.021V81.304C16.021 80.848 15.742 80.515 15.307 80.515C14.878 80.515 14.572 80.854 14.572 81.274ZM15.307 80.773C15.592 80.773 15.709 80.986 15.715 81.157H14.899C14.914 80.98 15.037 80.773 15.307 80.773ZM16.3319 82H16.6469V81.013C16.7099 80.911 16.8869 80.821 17.0189 80.821C17.0579 80.821 17.0909 80.824 17.1179 80.83V80.518C16.9289 80.518 16.7549 80.626 16.6469 80.764V80.551H16.3319V82ZM17.282 81.274C17.282 81.733 17.606 82.036 18.041 82.036C18.272 82.036 18.485 81.964 18.629 81.826L18.485 81.619C18.383 81.721 18.215 81.778 18.074 81.778C17.801 81.778 17.636 81.598 17.612 81.379H18.731V81.304C18.731 80.848 18.452 80.515 18.017 80.515C17.588 80.515 17.282 80.854 17.282 81.274ZM18.017 80.773C18.302 80.773 18.419 80.986 18.425 81.157H17.609C17.624 80.98 17.747 80.773 18.017 80.773ZM20.0619 82H20.3769V79.999H20.0619V80.752C19.9449 80.599 19.7769 80.515 19.5969 80.515C19.2219 80.515 18.9519 80.809 18.9519 81.277C18.9519 81.754 19.2249 82.036 19.5969 82.036C19.7829 82.036 19.9509 81.946 20.0619 81.802V82ZM20.0619 81.565C19.9899 81.673 19.8369 81.757 19.6869 81.757C19.4379 81.757 19.2789 81.556 19.2789 81.277C19.2789 80.995 19.4379 80.794 19.6869 80.794C19.8369 80.794 19.9899 80.881 20.0619 80.989V81.565ZM22.8186 82H23.1486L23.5986 80.551H23.2716L22.9656 81.604L22.6206 80.551H22.3446L21.9996 81.604L21.6936 80.551H21.3666L21.8166 82H22.1466L22.4826 80.938L22.8186 82ZM23.9733 80.311C24.0813 80.311 24.1683 80.224 24.1683 80.116C24.1683 80.008 24.0813 79.921 23.9733 79.921C23.8683 79.921 23.7783 80.008 23.7783 80.116C23.7783 80.224 23.8683 80.311 23.9733 80.311ZM23.8173 82H24.1323V80.551H23.8173V82ZM24.9759 82.036C25.1229 82.036 25.2159 81.997 25.2729 81.943L25.1979 81.706C25.1739 81.733 25.1169 81.757 25.0569 81.757C24.9669 81.757 24.9189 81.685 24.9189 81.586V80.827H25.2129V80.551H24.9189V80.155H24.6039V80.551H24.3639V80.827H24.6039V81.664C24.6039 81.904 24.7329 82.036 24.9759 82.036ZM26.4799 82H26.7949V80.974C26.7949 80.677 26.6389 80.515 26.3269 80.515C26.0989 80.515 25.9099 80.635 25.8139 80.749V79.999H25.4989V82H25.8139V80.989C25.8889 80.89 26.0269 80.794 26.1859 80.794C26.3629 80.794 26.4799 80.863 26.4799 81.088V82Z" fill="white"/>
<line x1="46" y1="12.8836" x2="59" y2="12.8836" stroke="white" stroke-width="0.232737"/>
<line x1="16" y1="12.8866" x2="30" y2="12.8866" stroke="white" stroke-width="0.226871"/>
<path d="M72.237 48.9956C74.3919 48.9956 76 47.3522 76 45.1933C76 43.0022 74.424 41.3267 72.3013 41.3267C71.7224 41.3267 71.1756 41.4233 70.6932 41.6167C70.3716 41.4233 70.0178 41.3267 69.664 41.3267H68.7634C68.7634 40.94 68.6991 40.6178 68.6348 40.36C68.7313 40.1344 68.7634 39.9089 68.7634 39.6511V38.2011C68.7634 38.0722 68.7634 37.9111 68.7313 37.7822C68.7634 37.6533 68.7634 37.5244 68.7634 37.3633V36.0744C68.7634 30.9511 65.9331 25.8922 61.0123 22.2189C55.5446 18.1589 47.9865 16 39.1418 16C19.6835 16 9.16631 26.3433 9.16631 36.0744V36.3644C6.33601 38.04 4.6314 40.4889 4.59924 43.0667C2.25138 43.4856 0 45.3222 0 47.6422C0 48.8022 0.5146 49.7044 1.38299 50.22L0.90055 52.4111C0.7719 53.0556 0.932713 53.7 1.38299 54.1833C1.8011 54.6667 2.44435 54.8922 3.05544 54.8278H3.0876C3.3449 54.8278 3.98815 55.3433 4.3741 55.6333C4.82438 55.9878 5.33898 56.3744 5.9179 56.6967C5.72493 57.0189 5.59628 57.4378 5.62844 57.8567L5.6606 58.7267C5.53195 59.0167 5.43546 59.3711 5.46763 59.6933L5.53195 61.1756C5.56411 61.7233 5.78925 62.2067 6.20736 62.5611C6.59331 62.9156 7.10791 63.1089 7.65468 63.0767L8.61955 63.0122C8.65171 63.0122 8.71604 63.0122 8.7482 63.0122C8.90901 63.0122 8.94118 63.0122 9.16631 63.1411V63.3667C9.16631 73.9678 18.4613 73.9678 26.6306 73.9678H51.267C59.4685 73.9678 68.7313 73.9678 68.7313 63.3667V62.0778C68.7313 61.6911 68.6348 61.3367 68.4418 61.0144C69.0851 60.6922 69.5675 60.3378 69.9534 60.0478C70.5002 59.6611 70.5002 59.6611 70.8218 59.6289L71.7867 59.5644C72.3335 59.5322 72.8159 59.3067 73.1697 58.8878C73.5235 58.5011 73.7165 57.9533 73.6843 57.4378L73.62 55.9556C73.5878 55.6011 73.4913 55.2789 73.3305 54.9889L73.2983 54.1189C73.2662 53.5711 73.0411 53.0878 72.6229 52.7333C72.237 52.3789 71.6902 52.1856 71.1756 52.2178L70.468 52.25C70.2429 52.25 70.0178 52.2822 69.7926 52.3144L70.5967 48.5122C71.1435 48.9311 71.7867 48.9956 72.237 48.9956Z" fill="white"/>
<path d="M66.7372 36.0744C66.7372 27.5033 57.4101 18.03 39.1418 18.03C20.8735 18.03 11.1926 27.5356 11.1926 36.0744V37.3633H66.7372V36.0744Z" fill="#AB7029"/>
<path d="M33.1595 20.5433H31.3584C31.262 20.5433 31.1976 20.6078 31.1655 20.6722C31.1333 20.7367 31.1011 20.8656 31.1011 21.0589C31.1011 21.2522 31.1333 21.3811 31.1655 21.4456C31.1976 21.5422 31.2941 21.5744 31.3584 21.5744H33.1595C33.256 21.5744 33.3204 21.51 33.3525 21.4456C33.3847 21.3811 33.4168 21.2522 33.4168 21.0589C33.4168 20.8656 33.3847 20.7367 33.3525 20.6722C33.3204 20.5756 33.2239 20.5433 33.1595 20.5433Z" fill="#9C6226"/>
<path d="M39.9137 20.5433H38.1126C38.0161 20.5433 37.9518 20.6078 37.9196 20.6722C37.8874 20.7367 37.8553 20.8656 37.8553 21.0589C37.8553 21.2522 37.8874 21.3811 37.9196 21.4456C37.9518 21.5422 38.0482 21.5744 38.1126 21.5744H39.9137C40.0102 21.5744 40.0745 21.51 40.1066 21.4456C40.1388 21.3811 40.171 21.2522 40.171 21.0589C40.171 20.8656 40.1388 20.7367 40.1066 20.6722C40.0745 20.5756 39.978 20.5433 39.9137 20.5433Z" fill="#9C6226"/>
<path d="M46.6356 20.5433H44.8345C44.738 20.5433 44.6737 20.6078 44.6416 20.6722C44.6094 20.7367 44.5772 20.8656 44.5772 21.0589C44.5772 21.2522 44.6094 21.3811 44.6416 21.4456C44.6737 21.5422 44.7702 21.5744 44.8345 21.5744H46.6356C46.7321 21.5744 46.7964 21.51 46.8286 21.4456C46.8608 21.3811 46.8929 21.2522 46.8929 21.0589C46.8929 20.8656 46.8608 20.7367 46.8286 20.6722C46.8286 20.5756 46.7321 20.5433 46.6356 20.5433Z" fill="#9C6226"/>
<path d="M29.7503 24.5711H27.9492C27.8527 24.5711 27.7884 24.6356 27.7563 24.7C27.7241 24.7644 27.6919 24.8933 27.6919 25.0867C27.6919 25.28 27.7241 25.4089 27.7563 25.4733C27.7884 25.57 27.8849 25.6022 27.9492 25.6022H29.7503C29.8468 25.6022 29.9111 25.5378 29.9433 25.4733C29.9755 25.4089 30.0076 25.28 30.0076 25.0867C30.0076 24.8933 29.9755 24.7644 29.9433 24.7C29.9433 24.6356 29.8468 24.5711 29.7503 24.5711Z" fill="#9C6226"/>
<path d="M36.5044 24.5711H34.7034C34.6069 24.5711 34.5425 24.6356 34.5104 24.7C34.4782 24.7644 34.4461 24.8933 34.4461 25.0867C34.4461 25.28 34.4782 25.4089 34.5104 25.4733C34.5425 25.57 34.639 25.6022 34.7034 25.6022H36.5044C36.6009 25.6022 36.6653 25.5378 36.6974 25.4733C36.7296 25.4089 36.7617 25.28 36.7617 25.0867C36.7617 24.8933 36.7296 24.7644 36.6974 24.7C36.6653 24.6356 36.6009 24.5711 36.5044 24.5711Z" fill="#9C6226"/>
<path d="M23.0284 24.5711H21.2273C21.1308 24.5711 21.0664 24.6356 21.0343 24.7C21.0021 24.7644 20.97 24.8933 20.97 25.0867C20.97 25.28 21.0021 25.4089 21.0343 25.4733C21.0664 25.57 21.1629 25.6022 21.2273 25.6022H23.0284C23.1248 25.6022 23.1892 25.5378 23.2213 25.4733C23.2535 25.4089 23.2857 25.28 23.2857 25.0867C23.2857 24.8933 23.2535 24.7644 23.2213 24.7C23.2213 24.6356 23.1248 24.5711 23.0284 24.5711Z" fill="#9C6226"/>
<path d="M43.2586 24.5711H41.4575C41.361 24.5711 41.2967 24.6356 41.2645 24.7C41.2323 24.7644 41.2002 24.8933 41.2002 25.0867C41.2002 25.28 41.2323 25.4089 41.2645 25.4733C41.2967 25.57 41.3932 25.6022 41.4575 25.6022H43.2586C43.3551 25.6022 43.4194 25.5378 43.4515 25.4733C43.4837 25.4089 43.5159 25.28 43.5159 25.0867C43.5159 24.8933 43.4837 24.7644 43.4515 24.7C43.4194 24.6356 43.3551 24.5711 43.2586 24.5711Z" fill="#9C6226"/>
<path d="M50.0127 24.5711H48.2116C48.1151 24.5711 48.0508 24.6356 48.0186 24.7C47.9865 24.7644 47.9543 24.8933 47.9543 25.0867C47.9543 25.28 47.9865 25.4089 48.0186 25.4733C48.0508 25.57 48.1473 25.6022 48.2116 25.6022H50.0127C50.1092 25.6022 50.1735 25.5378 50.2057 25.4733C50.2378 25.4089 50.27 25.28 50.27 25.0867C50.27 24.8933 50.2378 24.7644 50.2057 24.7C50.1735 24.6356 50.1092 24.5711 50.0127 24.5711Z" fill="#9C6226"/>
<path d="M56.7668 24.5711H54.9657C54.8692 24.5711 54.8049 24.6356 54.7728 24.7C54.7406 24.7644 54.7084 24.8933 54.7084 25.0867C54.7084 25.28 54.7406 25.4089 54.7728 25.4733C54.8049 25.57 54.9014 25.6022 54.9657 25.6022H56.7668C56.8633 25.6022 56.9276 25.5378 56.9598 25.4733C56.992 25.4089 57.0241 25.28 57.0241 25.0867C57.0241 24.8933 56.992 24.7644 56.9598 24.7C56.9276 24.6356 56.8633 24.5711 56.7668 24.5711Z" fill="#9C6226"/>
<path d="M33.1595 28.7922H31.3584C31.262 28.7922 31.1976 28.8567 31.1655 28.9211C31.1333 28.9856 31.1011 29.1144 31.1011 29.3078C31.1011 29.5011 31.1333 29.63 31.1655 29.6944C31.1976 29.7911 31.2941 29.8233 31.3584 29.8233H33.1595C33.256 29.8233 33.3204 29.7589 33.3525 29.6944C33.3847 29.63 33.4168 29.5011 33.4168 29.3078C33.4168 29.1144 33.3847 28.9856 33.3525 28.9211C33.3204 28.8244 33.2239 28.7922 33.1595 28.7922Z" fill="#9C6226"/>
<path d="M39.9137 28.7922H38.1126C38.0161 28.7922 37.9518 28.8567 37.9196 28.9211C37.8874 28.9856 37.8553 29.1144 37.8553 29.3078C37.8553 29.5011 37.8874 29.63 37.9196 29.6944C37.9518 29.7911 38.0482 29.8233 38.1126 29.8233H39.9137C40.0102 29.8233 40.0745 29.7589 40.1066 29.6944C40.1388 29.63 40.171 29.5011 40.171 29.3078C40.171 29.1144 40.1388 28.9856 40.1066 28.9211C40.0745 28.8244 39.978 28.7922 39.9137 28.7922Z" fill="#9C6226"/>
<path d="M46.6356 28.7922H44.8345C44.738 28.7922 44.6737 28.8567 44.6416 28.9211C44.6094 28.9856 44.5772 29.1144 44.5772 29.3078C44.5772 29.5011 44.6094 29.63 44.6416 29.6944C44.6737 29.7911 44.7702 29.8233 44.8345 29.8233H46.6356C46.7321 29.8233 46.7964 29.7589 46.8286 29.6944C46.8608 29.63 46.8929 29.5011 46.8929 29.3078C46.8929 29.1144 46.8608 28.9856 46.8286 28.9211C46.8286 28.8244 46.7321 28.7922 46.6356 28.7922Z" fill="#9C6226"/>
<path d="M36.5044 32.82H34.7034C34.6069 32.82 34.5425 32.8845 34.5104 32.9489C34.4782 33.0133 34.4461 33.1422 34.4461 33.3356C34.4461 33.5289 34.4782 33.6578 34.5104 33.7222C34.5425 33.8189 34.639 33.8511 34.7034 33.8511H36.5044C36.6009 33.8511 36.6653 33.7867 36.6974 33.7222C36.7296 33.6578 36.7617 33.5289 36.7617 33.3356C36.7617 33.1422 36.7296 33.0133 36.6974 32.9489C36.6653 32.8845 36.6009 32.82 36.5044 32.82Z" fill="#9C6226"/>
<path d="M43.2586 32.82H41.4575C41.361 32.82 41.2967 32.8845 41.2645 32.9489C41.2323 33.0133 41.2002 33.1422 41.2002 33.3356C41.2002 33.5289 41.2323 33.6578 41.2645 33.7222C41.2967 33.8189 41.3932 33.8511 41.4575 33.8511H43.2586C43.3551 33.8511 43.4194 33.7867 43.4515 33.7222C43.4837 33.6578 43.5159 33.5289 43.5159 33.3356C43.5159 33.1422 43.4837 33.0133 43.4515 32.9489C43.4194 32.8845 43.3551 32.82 43.2586 32.82Z" fill="#9C6226"/>
<path d="M53.3576 28.7922H51.6208C51.5243 28.7922 51.46 28.8567 51.4278 28.9211C51.3957 28.9856 51.3635 29.1144 51.3635 29.3078C51.3635 29.5011 51.3957 29.63 51.4278 29.6944C51.46 29.7911 51.5565 29.8233 51.6208 29.8233H53.3576C53.4541 29.8233 53.5184 29.7589 53.5506 29.6944C53.5827 29.63 53.6149 29.5011 53.6149 29.3078C53.6149 29.1144 53.5827 28.9856 53.5506 28.9211C53.5184 28.8244 53.4219 28.7922 53.3576 28.7922Z" fill="#9C6226"/>
<path d="M60.3047 28.9211C60.2725 28.8244 60.176 28.7922 60.1117 28.7922H58.3106C58.2141 28.7922 58.1498 28.8567 58.1176 28.9211C58.0855 28.9856 58.0533 29.1144 58.0533 29.3078C58.0533 29.5011 58.0855 29.63 58.1176 29.6944C58.1498 29.7911 58.2463 29.8233 58.3106 29.8233H60.1117C60.2082 29.8233 60.2725 29.7589 60.3047 29.6944C60.3369 29.63 60.369 29.5011 60.369 29.3078C60.369 29.1144 60.3369 28.9856 60.3047 28.9211Z" fill="#9C6226"/>
<path d="M56.7668 32.82H54.9014C54.8049 32.82 54.7406 32.8845 54.7084 32.9489C54.6763 33.0133 54.6441 33.1422 54.6441 33.3356C54.6441 33.5289 54.6763 33.6578 54.7084 33.7222C54.7406 33.8189 54.8371 33.8511 54.9014 33.8511H56.7668C56.8633 33.8511 56.9276 33.7867 56.9598 33.7222C56.992 33.6578 57.0241 33.5289 57.0241 33.3356C57.0241 33.1422 56.992 33.0133 56.9598 32.9489C56.9276 32.8845 56.8633 32.82 56.7668 32.82Z" fill="#9C6226"/>
<path d="M49.9805 32.82H48.2116C48.1151 32.82 48.0508 32.8845 48.0186 32.9489C47.9865 33.0133 47.9543 33.1422 47.9543 33.3356C47.9543 33.5289 47.9865 33.6578 48.0186 33.7222C48.0508 33.8189 48.1473 33.8511 48.2116 33.8511H49.9805C50.077 33.8511 50.1414 33.7867 50.1735 33.7222C50.2057 33.6578 50.2378 33.5289 50.2378 33.3356C50.2378 33.1422 50.2057 33.0133 50.1735 32.9489C50.1735 32.8845 50.077 32.82 49.9805 32.82Z" fill="#9C6226"/>
<path d="M19.6513 28.7922H17.8502C17.7537 28.7922 17.6894 28.8567 17.6572 28.9211C17.6251 28.9856 17.5929 29.1144 17.5929 29.3078C17.5929 29.5011 17.6251 29.63 17.6572 29.6944C17.6894 29.7911 17.7859 29.8233 17.8502 29.8233H19.6513C19.7478 29.8233 19.8121 29.7589 19.8443 29.6944C19.8764 29.63 19.9086 29.5011 19.9086 29.3078C19.9086 29.1144 19.8764 28.9856 19.8443 28.9211C19.8121 28.8244 19.7156 28.7922 19.6513 28.7922Z" fill="#9C6226"/>
<path d="M26.4054 28.7922H24.6043C24.5078 28.7922 24.4435 28.8567 24.4113 28.9211C24.3792 28.9856 24.347 29.1144 24.347 29.3078C24.347 29.5011 24.3792 29.63 24.4113 29.6944C24.4435 29.7911 24.54 29.8233 24.6043 29.8233H26.4054C26.5019 29.8233 26.5662 29.7589 26.5984 29.6944C26.6306 29.63 26.6627 29.5011 26.6627 29.3078C26.6627 29.1144 26.6306 28.9856 26.5984 28.9211C26.5662 28.8244 26.4697 28.7922 26.4054 28.7922Z" fill="#9C6226"/>
<path d="M22.9962 32.82H21.2273C21.1308 32.82 21.0664 32.8845 21.0343 32.9489C21.0021 33.0133 20.97 33.1422 20.97 33.3356C20.97 33.5289 21.0021 33.6578 21.0343 33.7222C21.0664 33.8189 21.1629 33.8511 21.2273 33.8511H22.9962C23.0927 33.8511 23.157 33.7867 23.1892 33.7222C23.2213 33.6578 23.2535 33.5289 23.2535 33.3356C23.2535 33.1422 23.2213 33.0133 23.1892 32.9489C23.157 32.8845 23.0927 32.82 22.9962 32.82Z" fill="#9C6226"/>
<path d="M29.879 32.8522C29.8468 32.82 29.7825 32.82 29.7503 32.82H27.9492C27.8527 32.82 27.7884 32.8845 27.7563 32.9489C27.7241 33.0133 27.6919 33.1422 27.6919 33.3356C27.6919 33.5289 27.7241 33.6578 27.7563 33.7222C27.7884 33.8189 27.8849 33.8511 27.9492 33.8511H29.7503C29.8468 33.8511 29.9111 33.7867 29.9433 33.7222C29.9755 33.6578 30.0076 33.5289 30.0076 33.3356C30.0076 33.1422 29.9755 33.0133 29.9433 32.9489C29.9433 32.9167 29.9111 32.8845 29.879 32.8522Z" fill="#9C6226"/>
<path d="M66.7372 43.3244C66.7372 43.8722 66.7372 44.2911 66.1904 44.2911H11.7393C11.1926 44.2911 11.1926 43.8722 11.1926 43.3244V41.4556C11.1926 40.9078 11.1926 40.4889 11.7393 40.4889H66.1904C66.7372 40.4889 66.7372 40.9078 66.7372 41.4556V43.3244Z" fill="#B32029"/>
<path d="M66.7694 38.1689H11.1926V39.6189H66.7694V38.1689Z" fill="#FAA21E"/>
<path d="M47.1502 38.6844L39.1096 43.5178L30.7795 38.6844H47.1502Z" fill="#FAA21E"/>
<path d="M11.1926 62.11V63.3989C11.1926 71.97 18.1075 72.0022 26.6627 72.0022H51.2992C59.8544 72.0022 66.7694 71.97 66.7694 63.3989V62.11H11.1926Z" fill="#AB7029"/>
<path d="M13.9585 63.6889C13.9585 65.0422 14.055 65.9767 15.9204 65.0422C17.7859 64.1078 20.0372 62.8833 24.7973 62.98C23.0284 63.4956 20.97 64.43 20.777 65.6544C20.584 66.9111 21.8062 67.4267 24.5078 66.7822C24.8295 67.91 25.9551 69.1667 28.3352 67.1044C30.7152 65.0422 32.066 64.2044 33.1917 63.7856C34.3174 63.3667 34.639 63.9789 33.3847 64.72C32.1303 65.4289 31.0047 65.8478 30.8117 66.6856C30.6187 67.5233 30.8117 68.8444 32.8701 68.2322C32.8701 69.6822 33.2882 70.9067 35.025 70.9067C36.7939 70.9067 37.5015 69.9722 37.5015 68.2322C38.6272 68.8444 40.2996 69.2633 40.3961 66.9756C40.4926 64.6878 41.5218 63.6567 42.551 63.1411C43.5802 62.6256 43.7732 63.5922 43.0656 63.85C42.1329 64.2044 41.7469 64.8811 41.7148 65.6222C41.6826 66.5567 43.2907 67.9422 44.931 66.2344C45.0597 67.2333 46.8929 67.8778 47.504 65.8156C48.1151 63.7533 48.3081 62.4644 50.1735 62.4C48.887 62.8833 48.1151 64.7844 49.7554 65.3967C51.3957 66.0089 52.2319 64.4622 52.4249 63.9467C52.6179 63.4311 53.1325 62.3033 54.7084 62.4C53.3576 63.0122 53.3576 65.0744 54.7084 65.2033C56.0593 65.3 56.5739 64.8811 57.6031 63.9467C58.6323 63.0122 60.6907 61.9811 63.2958 62.4C62.7812 63.7533 63.7139 64.3011 64.5502 64.14C65.5794 63.9467 65.4829 62.8189 65.8045 62.0778H12.865V62.11C12.0288 62.6578 11.4499 64.8167 13.9585 63.6889Z" fill="#A9AE38"/>
<path d="M8.39441 59.0489C9.39145 58.9844 9.80956 59.2422 10.5493 59.6611C11.4177 60.1767 12.6077 60.8533 14.7304 60.7244C16.8532 60.5956 17.9467 59.79 18.7829 59.21C19.4583 58.7267 19.8443 58.4367 20.8413 58.3722C21.8383 58.3078 22.2565 58.5656 22.9962 58.9844C23.8646 59.5 25.0546 60.1767 27.1773 60.0478C29.3 59.9189 30.3936 59.1133 31.2298 58.5333C31.9052 58.05 32.2912 57.76 33.3204 57.6956C34.3174 57.6311 34.7677 57.8889 35.4752 58.3078C36.3436 58.8233 37.5336 59.5 39.6564 59.3711C41.7791 59.2422 42.8726 58.4367 43.7088 57.8567C44.3843 57.3733 44.7702 57.0833 45.7673 57.0189C46.7643 56.9544 47.2146 57.2122 47.9221 57.6311C48.7905 58.1467 49.9805 58.8233 52.1033 58.6944C54.226 58.5656 55.3195 57.76 56.1557 57.18C56.8312 56.6967 57.2171 56.4067 58.2141 56.3422C59.2112 56.2778 59.6615 56.5356 60.369 56.9544C61.2374 57.47 62.4274 58.1467 64.5502 58.0178C66.6729 57.8889 67.7664 57.0833 68.6026 56.5033C69.278 56.02 69.664 55.73 70.6932 55.6656L71.4008 55.6333L71.3364 54.28L70.6289 54.3122C68.4418 54.4411 67.284 55.2789 66.4478 55.8911C65.8045 56.3744 65.4185 56.6322 64.518 56.6967C63.5853 56.7611 63.1993 56.5356 62.4918 56.1167C61.5912 55.6011 60.369 54.8922 58.182 55.0211C55.9949 55.15 54.8371 55.9878 54.0009 56.6C53.3576 57.0833 52.9717 57.3411 52.0711 57.4056C51.1384 57.47 50.7524 57.2444 50.0449 56.8256C49.1443 56.31 47.9221 55.6011 45.7351 55.73C43.548 55.8589 42.3902 56.6967 41.554 57.3089C40.9107 57.7922 40.5248 58.05 39.6242 58.1144C38.6915 58.1789 38.3055 57.9533 37.598 57.5344C36.6974 57.0189 35.4752 56.31 33.2882 56.4389C31.1011 56.5678 29.9433 57.4056 29.1071 58.0178C28.4638 58.5011 28.0779 58.7589 27.1773 58.8233C26.2446 58.8878 25.8587 58.6622 25.1511 58.2433C24.2505 57.7278 23.0284 57.0189 20.8413 57.1478C18.6543 57.2767 17.4964 58.1144 16.6602 58.7267C16.0169 59.21 15.631 59.4678 14.7304 59.5322C13.7977 59.5967 13.4118 59.3711 12.7042 58.9522C11.8036 58.4367 10.5815 57.7278 8.39441 57.8567L7.68684 57.8889L7.75116 59.2422L8.39441 59.0489Z" fill="#B32029"/>
<path d="M68.8599 56.9222C67.9915 57.5667 66.8015 58.4045 64.5501 58.5333C62.2988 58.6622 61.0123 57.9211 60.1117 57.4056C59.4363 57.0189 59.0825 56.8256 58.2463 56.8578C57.4101 56.89 57.0884 57.1478 56.4452 57.5989C55.5768 58.2433 54.3868 59.0811 52.1354 59.21C49.884 59.3389 48.5975 58.5978 47.697 58.0822C47.0216 57.6956 46.6678 57.5022 45.8316 57.5345C44.9953 57.5667 44.6737 57.8245 44.0305 58.2756C43.1621 58.92 41.9721 59.7578 39.7207 59.8867C37.4693 60.0156 36.1828 59.2745 35.2823 58.7589C34.6069 58.3722 34.2531 58.1789 33.4168 58.2111C32.5806 58.2433 32.259 58.5011 31.6157 58.9522C30.7474 59.5967 29.5573 60.4345 27.306 60.5633C25.0546 60.6922 23.7681 59.9511 22.8675 59.4356C22.1921 59.0489 21.8383 58.8556 21.0021 58.8878C20.1659 58.92 19.8443 59.1778 19.201 59.6289C18.3326 60.2733 17.1426 61.1111 14.8912 61.24C12.6399 61.3689 11.3534 60.6278 10.4528 60.1122C9.7774 59.7256 9.42361 59.5322 8.58739 59.5645L7.62251 59.6289L7.68684 61.1111L8.65171 61.0467C9.58443 60.9822 9.97038 61.2078 10.678 61.6267C11.5785 62.1422 12.8007 62.8511 14.9877 62.7222C17.1748 62.5933 18.3326 61.7556 19.1689 61.1433C19.8121 60.66 20.1981 60.4022 21.0986 60.3378C22.0313 60.2733 22.4173 60.4989 23.1248 60.9178C24.0254 61.4333 25.2476 62.1422 27.4346 62.0133C29.6217 61.8845 30.7795 61.0467 31.6157 60.4344C32.259 59.9511 32.6449 59.6933 33.5455 59.6289C34.4782 59.5645 34.8642 59.79 35.5717 60.2089C36.4723 60.7245 37.6945 61.4333 39.8815 61.3045C42.0686 61.1756 43.2264 60.3378 44.0626 59.7256C44.7059 59.2422 45.0918 58.9845 45.9924 58.92C46.9251 58.8556 47.311 59.0811 48.0186 59.5C48.9192 60.0156 50.1413 60.7244 52.3284 60.5956C54.5154 60.4667 55.6733 59.6289 56.5095 59.0167C57.1528 58.5333 57.5387 58.2756 58.4393 58.2111C59.372 58.1467 59.7579 58.3722 60.4655 58.7911C61.3661 59.3067 62.5882 60.0156 64.7753 59.8867C66.9623 59.7578 68.1202 58.92 68.9564 58.3078C69.5997 57.8245 69.9856 57.5667 70.8862 57.5022L71.851 57.4378L71.7546 55.9556L70.7897 56.02C69.7926 56.2133 69.5032 56.4389 68.8599 56.9222Z" fill="#B32029"/>
<path d="M23.1248 62.6255L25.2476 56.4389H26.5662V62.6255L28.7533 56.4389H29.4609L26.6627 63.9789H25.1832V58.8233L23.1892 63.9789H21.7097V57.0511C20.6162 57.4055 20.0694 58.1789 20.0694 59.3067C20.0694 59.8222 20.198 59.9189 20.198 59.9833C19.4905 59.9833 19.1045 59.7255 19.1045 59.0167C19.1045 57.6633 20.9699 56.3744 22.6424 56.3744C22.771 56.3744 22.8997 56.3744 23.0605 56.4067L23.1248 62.6255Z" fill="#6D1D0E"/>
<path d="M26.6306 64.8167H25.1511C24.7008 64.8167 24.3149 64.43 24.3149 63.9789V63.2378L23.9289 64.2689C23.8003 64.5911 23.5108 64.7844 23.157 64.7844H21.6775C21.2273 64.7844 20.8413 64.3978 20.8413 63.9467V60.4667C20.8091 60.4989 20.8091 60.4989 20.777 60.5311C20.6162 60.6922 20.391 60.7889 20.1659 60.7889C18.4291 60.7889 18.2683 59.5322 18.2683 58.9844C18.2683 57.0511 20.6162 55.5367 22.6424 55.5367C22.8032 55.5367 22.964 55.5367 23.1248 55.5689C23.543 55.6011 23.8967 55.9555 23.8967 56.3744L23.9289 57.8567L24.5078 56.1489C24.6365 55.8267 24.9259 55.6011 25.2797 55.6011H26.5984C27.0487 55.6011 27.4346 55.9878 27.4346 56.4389V57.76L28.0135 56.1489C28.1422 55.8267 28.4317 55.6011 28.7854 55.6011H29.493C29.7503 55.6011 30.0076 55.73 30.1684 55.9555C30.3292 56.1811 30.3614 56.4711 30.2649 56.7289L27.4668 64.2689C27.2738 64.5911 26.9843 64.8167 26.6306 64.8167ZM25.537 58.0822C25.6014 58.1144 25.6657 58.1789 25.73 58.2433V57.5344L25.537 58.0822Z" fill="white"/>
<path d="M30.1041 63.1733C30.9082 63.1733 31.3906 62.7222 31.9052 62.1422H32.259C31.6801 63.0767 30.8117 64.0111 29.493 64.0111C28.5281 64.0111 27.917 63.56 27.917 62.4C27.917 61.24 28.5603 58.7911 30.6509 58.7911C31.5514 58.7911 31.7765 59.2422 31.7765 59.7578C31.7765 60.9178 30.6509 61.82 29.4608 61.8845C29.4608 62.0133 29.4287 62.1745 29.4287 62.3033C29.3965 63.0122 29.6217 63.1733 30.1041 63.1733ZM30.7152 59.3711C30.2006 59.3711 29.7181 60.4667 29.493 61.4656C30.2649 61.4011 30.9725 60.6278 30.9725 59.79C30.9725 59.5322 30.9082 59.3711 30.7152 59.3711Z" fill="#6D1D0E"/>
<path d="M29.4608 64.8489C27.9492 64.8489 27.0487 63.9467 27.0487 62.4C27.0487 60.5633 28.1422 57.9533 30.6187 57.9533C31.8087 57.9533 32.5485 58.63 32.5485 59.7578C32.5485 60.3056 32.3876 60.8533 32.066 61.3045H32.2268C32.5163 61.3045 32.8058 61.4656 32.9344 61.7233C33.0952 61.9811 33.0631 62.3033 32.9022 62.5611C32.0339 64.1078 30.8438 64.8489 29.4608 64.8489Z" fill="white"/>
<path d="M33.9958 63.1733C34.7998 63.1733 35.2823 62.7222 35.7969 62.1422H36.1507C35.5717 63.0767 34.7034 64.0111 33.3847 64.0111C32.4198 64.0111 31.8087 63.56 31.8087 62.4C31.8087 61.24 32.452 58.7911 34.5425 58.7911C35.4431 58.7911 35.6682 59.2422 35.6682 59.7578C35.6682 60.9178 34.5425 61.82 33.3525 61.8845C33.3525 62.0133 33.3204 62.1745 33.3204 62.3033C33.256 63.0122 33.5133 63.1733 33.9958 63.1733ZM34.5747 59.3711C34.0601 59.3711 33.5777 60.4667 33.3525 61.4656C34.1244 61.4011 34.832 60.6278 34.832 59.79C34.832 59.5322 34.7677 59.3711 34.5747 59.3711Z" fill="#6D1D0E"/>
<path d="M33.3525 64.8489C31.8409 64.8489 30.9403 63.9467 30.9403 62.4C30.9403 60.5633 32.0339 57.9533 34.5104 57.9533C35.7004 57.9533 36.4401 58.63 36.4401 59.7578C36.4401 60.3056 36.2471 60.8533 35.9255 61.3045H36.1185C36.408 61.3045 36.6974 61.4656 36.8261 61.7233C36.9869 61.9811 36.9547 62.3033 36.7939 62.5611C35.8934 64.1078 34.7355 64.8489 33.3525 64.8489Z" fill="white"/>
<path d="M40.5569 58.92L38.5307 60.3378C38.6272 60.3055 38.7558 60.3055 38.8523 60.3055C39.592 60.3055 39.978 60.8533 39.978 61.4978C39.978 61.6267 39.978 61.7555 39.9458 61.8844L39.8493 62.4C39.8172 62.4967 39.785 62.6255 39.785 62.7222C39.785 62.9155 39.8815 63.1089 40.171 63.1089C40.4283 63.1089 40.4604 63.0767 40.5248 63.0444C40.4604 63.7533 39.8493 64.0755 39.592 64.0755C38.7558 64.0755 38.3055 63.6567 38.3055 62.9155C38.3055 62.7544 38.3377 62.5933 38.3699 62.4L38.4664 62.0133C38.4985 61.8844 38.4985 61.7555 38.4985 61.6267C38.4985 61.3367 38.402 61.1433 38.1447 61.1433C37.9196 61.1433 37.6945 61.2722 37.405 61.53L36.8904 64.0433H35.4431L36.9226 57.1478L38.4342 56.9544L37.6623 60.5311L39.6242 58.9844H40.5569V58.92Z" fill="#6D1D0E"/>
<path d="M39.592 64.8489C38.7237 64.8489 38.0482 64.4944 37.7266 63.8822L37.6623 64.14C37.5658 64.5267 37.2442 64.7844 36.8582 64.7844H35.4109C35.1536 64.7844 34.9285 64.6555 34.7677 64.4622C34.6069 64.2689 34.5425 64.0111 34.6069 63.7533L36.0863 56.8578C36.1507 56.5033 36.4401 56.2455 36.7939 56.2133L38.3055 56.02C38.5628 55.9878 38.8523 56.0844 39.0131 56.2778C39.2061 56.4711 39.2704 56.7611 39.2061 57.0189L38.9166 58.34L39.0774 58.2111C39.2383 58.0822 39.3991 58.0178 39.592 58.0178H40.5891C40.9429 58.0178 41.2645 58.2433 41.3931 58.5978C41.4896 58.9522 41.361 59.3067 41.0715 59.5322L40.3639 60.0156C40.6534 60.37 40.8464 60.8533 40.8464 61.4011C40.8464 61.5944 40.8142 61.7878 40.7821 61.9811L40.7499 62.1422C40.8464 62.1744 40.9429 62.2067 41.0394 62.2711C41.2645 62.4322 41.3931 62.7222 41.3931 63.0122C41.2645 64.2044 40.2675 64.8489 39.592 64.8489Z" fill="white"/>
<path d="M23.1248 62.6256L25.2476 56.4389H26.5662V62.6256L28.7533 56.4389H29.4609L26.6627 63.9789H25.1832V58.8233L23.1892 63.9789H21.7097V57.0511C20.6162 57.4056 20.0694 58.1789 20.0694 59.3067C20.0694 59.8222 20.1981 59.9189 20.1981 59.9833C19.4905 59.9833 19.1045 59.7256 19.1045 59.0167C19.1045 57.6633 20.97 56.3745 22.6424 56.3745C22.7711 56.3745 22.8997 56.3745 23.0605 56.4067L23.1248 62.6256Z" fill="#411F1F"/>
<path d="M30.1041 63.1733C30.9082 63.1733 31.3906 62.7222 31.9052 62.1422H32.259C31.6801 63.0767 30.8117 64.0111 29.493 64.0111C28.5281 64.0111 27.9171 63.56 27.9171 62.4C27.9171 61.24 28.5603 58.7911 30.6509 58.7911C31.5514 58.7911 31.7766 59.2422 31.7766 59.7578C31.7766 60.9178 30.6509 61.82 29.4609 61.8844C29.4609 62.0133 29.4287 62.1744 29.4287 62.3033C29.3965 63.0122 29.6217 63.1733 30.1041 63.1733ZM30.7152 59.3711C30.2006 59.3711 29.7182 60.4667 29.493 61.4656C30.2649 61.4011 30.9725 60.6278 30.9725 59.79C30.9725 59.5322 30.9082 59.3711 30.7152 59.3711Z" fill="#411F1F"/>
<path d="M33.9958 63.1733C34.7998 63.1733 35.2823 62.7222 35.7969 62.1422H36.1507C35.5717 63.0767 34.7034 64.0111 33.3847 64.0111C32.4198 64.0111 31.8087 63.56 31.8087 62.4C31.8087 61.24 32.452 58.7911 34.5425 58.7911C35.4431 58.7911 35.6682 59.2422 35.6682 59.7578C35.6682 60.9178 34.5425 61.82 33.3525 61.8844C33.3525 62.0133 33.3204 62.1744 33.3204 62.3033C33.256 63.0122 33.5133 63.1733 33.9958 63.1733ZM34.5747 59.3711C34.0601 59.3711 33.5777 60.4667 33.3525 61.4656C34.1244 61.4011 34.832 60.6278 34.832 59.79C34.832 59.5322 34.7677 59.3711 34.5747 59.3711Z" fill="#411F1F"/>
<path d="M40.5569 58.92L38.5307 60.3378C38.6272 60.3056 38.7558 60.3056 38.8523 60.3056C39.592 60.3056 39.978 60.8533 39.978 61.4978C39.978 61.6267 39.978 61.7556 39.9458 61.8844L39.8493 62.4C39.8172 62.4967 39.785 62.6256 39.785 62.7222C39.785 62.9156 39.8815 63.1089 40.171 63.1089C40.4283 63.1089 40.4604 63.0767 40.5247 63.0444C40.4604 63.7533 39.8493 64.0756 39.592 64.0756C38.7558 64.0756 38.3055 63.6567 38.3055 62.9156C38.3055 62.7544 38.3377 62.5933 38.3699 62.4L38.4664 62.0133C38.4985 61.8844 38.4985 61.7556 38.4985 61.6267C38.4985 61.3367 38.402 61.1433 38.1447 61.1433C37.9196 61.1433 37.6945 61.2722 37.405 61.53L36.8904 64.0433H35.4431L36.9226 57.1478L38.4342 56.9545L37.6623 60.5311L39.6242 58.9844H40.5569V58.92Z" fill="#411F1F"/>
<path d="M17.1105 38.7167L15.7918 44.4522H15.9526C18.204 44.4522 20.0051 42.1967 20.0051 40.2633C20.0051 38.7811 18.9437 37.4922 16.2742 37.4922C12.9615 37.4922 9.19848 39.49 9.19848 43.7433C9.19848 45.0644 9.55226 45.2578 9.58442 45.4833C7.719 45.4833 6.56115 44.8389 6.56115 43.0989C6.56115 39.5544 11.482 36.2678 16.821 36.2678C20.97 36.2678 22.8354 38.2656 22.8354 40.36C22.8354 41.8744 21.8383 43.5178 20.0051 44.4522C22.4173 44.9033 23.35 46.6756 23.35 48.6089C23.35 51.09 21.8705 56.02 17.1748 56.02C15.9526 56.02 14.3766 55.6978 14.3766 54.1189C14.3766 53.7 14.5053 53.2167 14.7304 52.6367C15.438 53.3133 15.9848 53.5711 16.628 53.5711C18.6864 53.5711 19.4262 50.8967 19.4262 48.9311C19.4262 47.1267 18.8151 45.6444 16.7567 45.6444C16.5315 45.6444 15.9526 45.6767 15.4702 45.7089L13.1545 55.6333H9.10199L12.9293 39.2322L17.1105 38.7167Z" fill="#6D1D0E"/>
<path d="M17.2069 57.0189C15.7918 57.0189 14.7304 56.6322 14.0872 55.9233C13.9585 56.31 13.5726 56.5678 13.1866 56.5678H9.10199C8.81253 56.5678 8.52307 56.4389 8.33009 56.2133C8.13712 55.9878 8.07279 55.6656 8.13712 55.3756L10.292 46.16C10.099 46.3533 9.87389 46.45 9.61659 46.45C6.14304 46.45 5.62844 44.3556 5.62844 43.0989C5.62844 39.0389 10.9996 35.3333 16.8532 35.3333C20.3267 35.3333 23.8324 36.9122 23.8324 40.3922C23.8324 41.81 23.1892 43.1633 22.0635 44.2267C23.5108 45.0967 24.3149 46.6433 24.3149 48.6411C24.3149 49.9944 23.9289 52.0244 22.8354 53.7967C21.581 55.8911 19.6191 57.0189 17.2069 57.0189ZM15.3737 54.28C15.438 54.8278 16.0491 55.0856 17.2069 55.0856C21.4524 55.0856 22.4173 50.3167 22.4173 48.6411C22.4173 47.3844 21.967 45.8378 19.8764 45.4511C19.4583 45.3867 19.1689 45.0644 19.1045 44.6456C19.0724 44.4522 19.1045 44.2911 19.1689 44.13C18.8472 44.42 18.4613 44.71 18.0432 44.9033C20.1659 45.5478 20.4232 47.8678 20.4232 48.9633C20.4232 51.67 19.2332 54.57 16.6602 54.57C16.2099 54.5378 15.7918 54.4733 15.3737 54.28ZM10.3242 54.6344H12.4147L14.5696 45.5156C14.6339 45.2578 14.7948 45.0644 14.9877 44.9356C14.8591 44.71 14.8269 44.4522 14.8912 44.2267L15.8561 39.8444L13.7334 40.1022L10.3242 54.6344ZM15.0842 51.7344C15.2129 51.7667 15.3415 51.8633 15.438 51.96C16.0813 52.5722 16.3707 52.6367 16.6602 52.6367C17.9788 52.6367 18.4934 50.3811 18.4934 48.9633C18.4934 46.9333 17.6572 46.6756 16.7888 46.6756C16.6923 46.6756 16.4994 46.6756 16.2742 46.7078L15.0842 51.7344ZM11.7393 40.1022C10.8388 40.94 10.1955 42.1322 10.1955 43.7111C10.1955 44.42 10.3242 44.6456 10.3885 44.8067C10.4207 44.9033 10.485 45 10.5493 45.1289L11.7393 40.1022ZM9.45578 39.7478C8.29793 40.7144 7.55819 41.9067 7.55819 43.0989C7.55819 43.4856 7.55819 44.0333 8.26577 44.2911C8.26577 44.13 8.2336 43.9044 8.2336 43.7111C8.26577 42.2289 8.68388 40.8756 9.45578 39.7478ZM20.1337 37.8789C20.7448 38.5556 21.0021 39.4256 21.0021 40.2633C21.0021 41.3911 20.4875 42.6478 19.6513 43.6144C21.0343 42.8733 21.9027 41.6489 21.9027 40.3922C21.9027 39.2967 21.2594 38.4267 20.1337 37.8789ZM18.0753 38.7811C18.0753 38.8455 18.0753 38.8778 18.0432 38.9422L17.0461 43.2278C18.204 42.68 19.0402 41.3911 19.0402 40.2956C19.0724 39.49 18.6221 39.0389 18.0753 38.7811Z" fill="white"/>
<path d="M34.7033 43.3567L32.9344 51.7022C32.8701 52.0244 32.8379 52.2822 32.8379 52.4756C32.8379 53.1522 33.1595 53.3778 33.835 53.3778C34.7998 53.3778 35.4431 52.4433 35.829 51.2189H36.8582C35.4752 55.2144 33.256 55.7622 31.9374 55.7622C30.5544 55.7622 29.6538 54.9567 29.5252 53.4422C28.303 55.44 26.92 55.7622 25.8908 55.7622C24.4113 55.7622 23.2535 54.8922 23.2535 52.83C23.2535 52.3789 23.3178 51.8311 23.4465 51.2189L25.1189 43.3244H28.6568L26.8879 51.67C26.8557 51.9278 26.8235 52.1211 26.8235 52.3467C26.8235 52.9267 27.0165 53.3456 27.5633 53.3456C28.5281 53.3456 29.1714 52.4111 29.5252 51.1867L31.1976 43.2922H34.7033V43.3567Z" fill="#6D1D0E"/>
<path d="M31.9374 56.6C30.7152 56.6 29.7503 56.0844 29.2036 55.1822C28.2708 56.1167 27.1773 56.6 25.8908 56.6C24.2184 56.6 22.4494 55.6011 22.4494 52.83C22.4494 52.3467 22.5138 51.7667 22.6746 51.0578L24.347 43.1633C24.4435 42.7767 24.7651 42.5189 25.1511 42.5189H28.689C28.9463 42.5189 29.1714 42.6478 29.3322 42.8411C29.493 43.0344 29.5573 43.2922 29.493 43.55L27.7241 51.8956C27.6919 52.0889 27.6598 52.25 27.6598 52.4111C27.6598 52.4756 27.6598 52.54 27.6598 52.5722C28.2387 52.4433 28.5925 51.4122 28.7211 51.0578L30.3936 43.1956C30.4901 42.8089 30.8117 42.5511 31.1976 42.5511H34.7355C34.9928 42.5511 35.218 42.68 35.3788 42.8733C35.5396 43.0667 35.6039 43.3244 35.5396 43.5822L33.7706 51.9278C33.7063 52.1856 33.6742 52.3789 33.6742 52.54C33.6742 52.5722 33.6742 52.6044 33.6742 52.6044C33.7063 52.6044 33.7706 52.6044 33.835 52.6044C34.5104 52.6044 34.9285 51.4122 35.025 51.0256C35.1215 50.6711 35.4431 50.4456 35.829 50.4456H36.8582C37.1155 50.4456 37.3728 50.5744 37.5337 50.8C37.6945 51.0256 37.7266 51.3156 37.6301 51.5411C36.1828 55.73 33.7385 56.6 31.9374 56.6ZM29.8146 52.6689C30.1041 52.7978 30.2971 53.0556 30.3292 53.3456C30.4257 54.4411 30.9403 54.9245 31.9374 54.9245C32.7093 54.9245 33.4169 54.6667 34.0279 54.1833C33.9636 54.1833 33.8993 54.1833 33.835 54.1833C32.2268 54.1833 32.0017 53.0878 32.0017 52.4433C32.0017 52.1533 32.0339 51.8311 32.1304 51.4767L33.6742 44.13H31.8409L30.3292 51.3478C30.3292 51.38 30.3292 51.38 30.2971 51.4122C30.1684 51.96 30.0076 52.3467 29.8146 52.6689ZM25.7943 44.1944L24.2827 51.4122C24.154 51.9922 24.0897 52.4433 24.0897 52.83C24.0897 54.2478 24.7008 54.9567 25.8908 54.9567C26.4376 54.9567 27.1452 54.86 27.8527 54.2156C27.7562 54.2156 27.6598 54.2478 27.5633 54.2478C26.8557 54.2478 25.9873 53.7644 25.9873 52.4111C25.9873 52.1533 26.0195 51.8633 26.0838 51.5733L27.6276 44.2267H25.7943V44.1944Z" fill="white"/>
<path d="M41.0394 43.3567L40.7177 44.8711C41.5861 44.13 42.5188 43.3567 43.6767 43.3567C44.7702 43.3567 45.3813 44.2589 45.3813 45.1933C45.3813 46.0633 44.8024 46.9978 43.6124 46.9978C42.2294 46.9978 42.9369 45.3867 42.1972 45.3867C41.4575 45.3867 41.0072 45.7411 40.3961 46.3211L38.4342 55.6656H34.8963L37.5015 43.3889H41.0394V43.3567Z" fill="#6D1D0E"/>
<path d="M38.4342 56.4711H34.8963C34.639 56.4711 34.4139 56.3422 34.2531 56.1489C34.0922 55.9556 34.0279 55.6978 34.0922 55.44L36.6974 43.1633C36.7939 42.7767 37.1155 42.5189 37.5015 42.5189H41.0393C41.2966 42.5189 41.5218 42.6156 41.6826 42.8411C41.7469 42.9056 41.7791 42.97 41.8112 43.0667C42.358 42.7767 42.9691 42.5511 43.6767 42.5511C45.124 42.5511 46.1853 43.7111 46.1853 45.2256C46.1853 46.4822 45.2848 47.8356 43.5802 47.8356C42.1972 47.8356 41.9077 46.8044 41.8112 46.2889C41.6183 46.3533 41.4253 46.5144 41.1358 46.7722L39.2382 55.8267C39.1418 56.1811 38.8201 56.4711 38.4342 56.4711ZM35.9255 54.7956H37.7588L39.592 46.1278C39.6242 45.9667 39.7207 45.8056 39.8493 45.6767C39.9458 45.58 40.0423 45.5156 40.1388 45.4189C39.9458 45.2256 39.8815 44.9356 39.9458 44.6778L40.0423 44.1622H38.209L35.9255 54.7956ZM43.5159 46.16C43.548 46.16 43.5802 46.16 43.6123 46.16C44.5129 46.16 44.5451 45.3544 44.5451 45.1933C44.5451 45.0967 44.5129 44.1944 43.6767 44.1944C43.2586 44.1944 42.8404 44.3556 42.4545 44.5811C43.1942 44.7422 43.355 45.5478 43.4194 45.8378C43.4515 45.9344 43.4837 46.0956 43.5159 46.16Z" fill="white"/>
<path d="M55.802 43.3567L53.3898 54.7633C54.8692 54.2156 55.802 53.3778 56.4774 51.2511H57.5066C56.5417 54.5056 54.6763 55.44 53.1646 55.8267L52.8108 57.5989C52.0711 61.1111 50.0127 61.7878 48.4046 61.7878C46.8929 61.7878 45.6708 61.0144 45.6708 59.4033C45.6708 57.3411 47.8257 56.31 49.6589 55.73L49.9484 54.4411C49.2408 55.2144 48.2759 55.7944 47.0216 55.7944C45.3491 55.7944 43.7732 54.7633 43.7732 51.8311C43.7732 48.5122 45.7994 43.2278 50.077 43.2278C51.46 43.2278 52.0711 43.7756 52.0711 44.4845V44.6456L52.3284 43.3567H55.802ZM47.8257 59.8545C48.3403 59.8545 48.9192 59.1133 49.2408 57.6633L49.4016 56.9544C48.1473 57.4378 46.9894 58.05 46.9894 59.0489C46.9894 59.4033 47.2789 59.8545 47.8257 59.8545ZM47.3754 51.4767C47.3754 53.3778 48.1473 53.41 48.5976 53.41C49.273 53.41 50.2057 52.7333 50.5595 51.4767L51.8138 45.6444C51.7816 45.3867 51.5887 44.7422 50.8168 44.7422C48.694 44.7744 47.3754 49.1889 47.3754 51.4767Z" fill="#6D1D0E"/>
<path d="M48.4046 62.5933C46.2819 62.5933 44.8345 61.3044 44.8345 59.3711C44.8345 58.2756 45.2848 57.3089 46.2175 56.5356C44.5129 56.2456 42.9048 54.8922 42.9048 51.8311C42.9048 47.8678 45.3813 42.4222 50.0449 42.4222C50.7524 42.4222 51.3314 42.5511 51.7495 42.7767C51.9103 42.6478 52.1033 42.5511 52.2962 42.5511H55.8341C56.0914 42.5511 56.3166 42.68 56.4774 42.8733C56.6382 43.0667 56.7025 43.3244 56.6382 43.5822L54.6119 53.12C55.0301 52.6689 55.3838 52.0244 55.7055 51.0256C55.802 50.6711 56.1236 50.4456 56.5095 50.4456H57.5387C57.796 50.4456 58.0533 50.5744 58.2141 50.7678C58.375 50.9933 58.4071 51.2511 58.3428 51.5089C57.3458 54.86 55.4482 55.9878 53.9044 56.5033L53.6471 57.7922C52.7787 61.7556 50.3022 62.5933 48.4046 62.5933ZM46.7 60.2411C47.1181 60.8533 47.9543 60.95 48.3724 60.95C50.9454 60.95 51.653 58.9522 51.9746 57.4378L52.3284 55.6656C52.3606 55.4722 52.4892 55.2789 52.65 55.1822C52.5535 55.0211 52.5214 54.7956 52.5535 54.6022L54.7728 44.2267H52.9395L52.8108 44.8389C52.7787 45.0322 52.6822 45.1933 52.5535 45.29C52.5857 45.3867 52.6179 45.5156 52.6179 45.6122C52.6179 45.7089 52.6179 45.7733 52.6179 45.87L51.3635 51.7022V51.7344C51.1384 52.5722 50.656 53.2167 50.1414 53.6678C50.2057 53.6678 50.27 53.7 50.3343 53.7322C50.656 53.8933 50.8489 54.28 50.7524 54.6344L50.463 55.9233C50.3987 56.1489 50.27 56.3422 50.077 56.4711C50.2378 56.6644 50.27 56.89 50.2378 57.1478L50.077 57.8567C49.6911 59.6611 48.8549 60.6922 47.8578 60.6922C47.3754 60.6922 46.9894 60.5311 46.7 60.2411ZM47.8257 59.0167C47.8257 59.0489 47.8257 59.0489 47.8257 59.0167V59.0167ZM48.0508 58.5978C47.89 58.7589 47.8257 58.8556 47.8257 58.9522C47.89 58.8878 47.9865 58.7911 48.0508 58.5978ZM50.0127 44.0656C46.2175 44.0978 44.5772 49.2211 44.5772 51.8311C44.5772 53.8611 45.4135 54.9567 47.0216 54.9567C47.7613 54.9567 48.4367 54.6989 49.0157 54.1833C48.887 54.2156 48.7262 54.2156 48.5976 54.2156C47.2467 54.2156 46.5391 53.2811 46.5391 51.4767C46.5391 50.1233 46.9251 48.3511 47.5362 46.9333C48.2116 45.3867 49.0478 44.42 50.0127 44.0656ZM50.7846 45.58C49.5624 45.58 48.1794 49.0922 48.1794 51.4767C48.1794 52.3467 48.3724 52.54 48.3724 52.54C48.4046 52.54 48.5332 52.54 48.5654 52.54C48.8227 52.54 49.4659 52.1533 49.7232 51.2511L50.9454 45.6122C50.9133 45.58 50.8489 45.58 50.7846 45.58Z" fill="white"/>
<path d="M60.755 53.7322C62.6847 53.7322 63.8747 52.6367 65.0969 51.2511H65.9331C64.5501 53.5067 62.4596 55.7944 59.179 55.7944C56.8633 55.7944 55.3517 54.6667 55.3517 51.8956C55.3517 49.06 56.9598 43.1633 61.9771 43.1633C64.1642 43.1633 64.6788 44.2911 64.6788 45.5156C64.6788 48.3511 61.9771 50.51 59.0504 50.7033C59.0182 51.0578 58.986 51.38 58.986 51.7022C58.986 53.3133 59.565 53.7322 60.755 53.7322ZM62.1701 44.4522C60.9158 44.4522 59.7258 47.0945 59.2433 49.5111C61.1409 49.3822 62.8134 47.5133 62.8134 45.4511C62.7812 44.8389 62.6204 44.4522 62.1701 44.4522Z" fill="#6D1D0E"/>
<path d="M59.179 56.6C56.2201 56.6 54.5154 54.86 54.5154 51.8633C54.5154 48.7378 56.3487 42.2933 61.9771 42.2933C64.2607 42.2933 65.515 43.4211 65.515 45.4833C65.515 48.3833 63.0385 50.8967 59.8223 51.4122C59.8223 51.5089 59.8223 51.5733 59.8223 51.6378C59.8223 52.83 60.0474 52.8622 60.755 52.8622C62.2666 52.8622 63.2315 52.0889 64.4858 50.6711C64.6466 50.4778 64.8718 50.3811 65.0969 50.3811H65.9331C66.2226 50.3811 66.5121 50.5422 66.6407 50.8C66.8015 51.0578 66.7694 51.38 66.6086 51.6378C64.5502 54.9889 62.138 56.6 59.179 56.6ZM60.9479 44.0656C59.5328 44.3556 58.3749 45.29 57.5066 46.8367C56.5417 48.5767 56.1879 50.6389 56.1879 51.8633C56.1879 53.9578 57.1528 54.9244 59.179 54.9244C59.9509 54.9244 60.6585 54.7956 61.3339 54.5056C61.1409 54.5378 60.9479 54.5378 60.7228 54.5378C58.9539 54.5378 58.1176 53.6033 58.1176 51.6378C58.1176 51.3156 58.1498 50.9611 58.182 50.6067C58.2141 50.3489 58.3428 50.1233 58.5358 49.9944C58.4071 49.8011 58.3428 49.5756 58.3749 49.35C58.7609 47.6744 59.5971 45.0967 60.9479 44.0656ZM61.945 45.3544C61.5269 45.6444 60.8836 46.6756 60.4012 48.2222C61.3017 47.6422 61.945 46.5467 61.945 45.4189C61.945 45.4189 61.945 45.3867 61.945 45.3544ZM63.328 44.2589C63.4888 44.5167 63.5853 44.9033 63.5853 45.4511C63.5853 46.3211 63.328 47.1589 62.9099 47.9C63.4888 47.1911 63.8104 46.3856 63.8104 45.4833C63.8426 45.0322 63.7782 44.5489 63.328 44.2589ZM62.1701 45.2578V44.42V45.2578Z" fill="white"/>
<path d="M69.664 43.3567L69.3424 44.8711C70.2107 44.13 71.1435 43.3567 72.3013 43.3567C73.3948 43.3567 74.0059 44.2589 74.0059 45.1933C74.0059 46.0633 73.427 46.9978 72.237 46.9978C70.854 46.9978 71.5616 45.3867 70.8218 45.3867C70.0821 45.3867 69.6318 45.7411 69.0207 46.3211L67.0588 55.6656H63.521L66.1261 43.3889H69.664V43.3567Z" fill="#6D1D0E"/>
<path d="M67.0588 56.4711H63.521C63.2637 56.4711 63.0385 56.3422 62.8777 56.1489C62.7169 55.9556 62.6526 55.6978 62.7169 55.44L65.3221 43.1633C65.4185 42.7767 65.7402 42.5189 66.1261 42.5189H69.664C69.9213 42.5189 70.1464 42.6156 70.3072 42.8411C70.3716 42.9056 70.4037 42.97 70.4359 43.0667C70.9826 42.7767 71.5937 42.5511 72.3013 42.5511C73.7486 42.5511 74.81 43.7111 74.81 45.2256C74.81 46.4822 73.9094 47.8356 72.2048 47.8356C70.8218 47.8356 70.5324 46.8044 70.4359 46.2889C70.2429 46.3533 70.0499 46.5144 69.7605 46.7722L67.8629 55.8267C67.7986 56.1811 67.4448 56.4711 67.0588 56.4711ZM64.5502 54.7956H66.3834L68.2167 46.1278C68.2488 45.9667 68.3453 45.8056 68.474 45.6767C68.5705 45.58 68.667 45.5156 68.7634 45.4189C68.5705 45.2256 68.5061 44.9356 68.5705 44.6778L68.667 44.1622H66.8337L64.5502 54.7956ZM72.1405 46.16C72.1727 46.16 72.2048 46.16 72.237 46.16C73.1375 46.16 73.1697 45.29 73.1697 45.1933C73.1697 45.0967 73.1375 44.1944 72.3013 44.1944C71.8832 44.1944 71.4651 44.3556 71.0791 44.5811C71.8189 44.7422 71.9797 45.5478 72.044 45.8378C72.0762 45.9344 72.1083 46.0956 72.1405 46.16Z" fill="white"/>
<path d="M17.1105 38.7167L15.7918 44.4522H15.9526C18.204 44.4522 20.0051 42.1967 20.0051 40.2633C20.0051 38.7811 18.9437 37.4922 16.2742 37.4922C12.9615 37.4922 9.19848 39.49 9.19848 43.7433C9.19848 45.0644 9.55226 45.2578 9.58442 45.4833C7.719 45.4833 6.56115 44.8389 6.56115 43.0989C6.56115 39.5544 11.482 36.2678 16.821 36.2678C20.97 36.2678 22.8354 38.2656 22.8354 40.36C22.8354 41.8744 21.8383 43.5178 20.0051 44.4522C22.4173 44.9033 23.35 46.6756 23.35 48.6089C23.35 51.09 21.8705 56.02 17.1748 56.02C15.9526 56.02 14.3766 55.6978 14.3766 54.1189C14.3766 53.7 14.5053 53.2167 14.7304 52.6367C15.438 53.3133 15.9848 53.5711 16.628 53.5711C18.6864 53.5711 19.4262 50.8967 19.4262 48.9311C19.4262 47.1267 18.8151 45.6444 16.7567 45.6444C16.5315 45.6444 15.9526 45.6767 15.4702 45.7089L13.1545 55.6333H9.10199L12.9293 39.2322L17.1105 38.7167Z" fill="#411F1F"/>
<path d="M34.7033 43.3567L32.9344 51.7022C32.8701 52.0244 32.8379 52.2822 32.8379 52.4756C32.8379 53.1522 33.1595 53.3778 33.835 53.3778C34.7998 53.3778 35.4431 52.4433 35.829 51.2189H36.8582C35.4752 55.2144 33.256 55.7622 31.9374 55.7622C30.5544 55.7622 29.6538 54.9567 29.5252 53.4422C28.303 55.44 26.92 55.7622 25.8908 55.7622C24.4113 55.7622 23.2535 54.8922 23.2535 52.83C23.2535 52.3789 23.3178 51.8311 23.4465 51.2189L25.1189 43.3244H28.6568L26.8879 51.67C26.8557 51.9278 26.8235 52.1211 26.8235 52.3467C26.8235 52.9267 27.0165 53.3456 27.5633 53.3456C28.5281 53.3456 29.1714 52.4111 29.5252 51.1867L31.1976 43.2922H34.7033V43.3567Z" fill="#411F1F"/>
<path d="M41.0394 43.3567L40.7177 44.8711C41.5861 44.13 42.5188 43.3567 43.6767 43.3567C44.7702 43.3567 45.3813 44.2589 45.3813 45.1933C45.3813 46.0633 44.8024 46.9978 43.6124 46.9978C42.2294 46.9978 42.9369 45.3867 42.1972 45.3867C41.4575 45.3867 41.0072 45.7411 40.3961 46.3211L38.4342 55.6656H34.8963L37.5015 43.3889H41.0394V43.3567Z" fill="#411F1F"/>
<path d="M55.8019 43.3567L53.3898 54.7633C54.8692 54.2156 55.8019 53.3778 56.4774 51.2511H57.5066C56.5417 54.5056 54.6763 55.44 53.1646 55.8267L52.8108 57.5989C52.0711 61.1111 50.0127 61.7878 48.4046 61.7878C46.8929 61.7878 45.6708 61.0144 45.6708 59.4033C45.6708 57.3411 47.8256 56.31 49.6589 55.73L49.9484 54.4411C49.2408 55.2144 48.2759 55.7944 47.0216 55.7944C45.3491 55.7944 43.7732 54.7633 43.7732 51.8311C43.7732 48.5122 45.7994 43.2278 50.077 43.2278C51.46 43.2278 52.0711 43.7756 52.0711 44.4845V44.6456L52.3284 43.3567H55.8019ZM47.8256 59.8545C48.3402 59.8545 48.9192 59.1133 49.2408 57.6633L49.4016 56.9544C48.1473 57.4378 46.9894 58.05 46.9894 59.0489C46.9894 59.4033 47.2789 59.8545 47.8256 59.8545ZM47.3754 51.4767C47.3754 53.3778 48.1473 53.41 48.5975 53.41C49.273 53.41 50.2057 52.7333 50.5595 51.4767L51.8138 45.6444C51.7816 45.3867 51.5887 44.7422 50.8168 44.7422C48.694 44.7744 47.3754 49.1889 47.3754 51.4767Z" fill="#411F1F"/>
<path d="M60.755 53.7322C62.6847 53.7322 63.8747 52.6367 65.0969 51.2511H65.9331C64.5501 53.5067 62.4596 55.7944 59.179 55.7944C56.8633 55.7944 55.3517 54.6667 55.3517 51.8955C55.3517 49.06 56.9598 43.1633 61.9771 43.1633C64.1642 43.1633 64.6788 44.2911 64.6788 45.5155C64.6788 48.3511 61.9771 50.51 59.0504 50.7033C59.0182 51.0578 58.986 51.38 58.986 51.7022C58.986 53.3133 59.565 53.7322 60.755 53.7322ZM62.1701 44.4522C60.9158 44.4522 59.7258 47.0944 59.2433 49.5111C61.1409 49.3822 62.8134 47.5133 62.8134 45.4511C62.7812 44.8389 62.6204 44.4522 62.1701 44.4522Z" fill="#411F1F"/>
<path d="M69.664 43.3567L69.3424 44.8711C70.2107 44.13 71.1435 43.3567 72.3013 43.3567C73.3948 43.3567 74.0059 44.2589 74.0059 45.1933C74.0059 46.0633 73.427 46.9978 72.237 46.9978C70.854 46.9978 71.5616 45.3867 70.8218 45.3867C70.0821 45.3867 69.6318 45.7411 69.0207 46.3211L67.0588 55.6656H63.521L66.1261 43.3889H69.664V43.3567Z" fill="#411F1F"/>
<path d="M4.43843 52.3789C5.49979 52.6044 6.59332 53.7 7.87982 53.7C8.16928 53.7 8.42658 53.6678 8.74821 53.5389C8.65172 54.5378 8.23361 55.15 7.68684 55.15C6.20737 55.15 4.92087 52.83 3.11977 52.83C3.02328 52.83 2.95895 52.83 2.89463 52.83L4.40627 45.7089C3.50572 46.0633 2.95895 46.8367 2.95895 47.9322C2.95895 48.4478 3.0876 48.5445 3.0876 48.6411C2.38003 48.6411 1.99408 48.3833 1.99408 47.6422C1.99408 46.2889 3.89167 44.9678 5.59628 44.9678C5.72493 44.9678 5.88574 44.9678 6.01439 45L4.43843 52.3789Z" fill="#6D1D0E"/>
<path d="M7.65468 55.9556C6.65764 55.9556 5.88574 55.3111 5.11384 54.6989C4.40626 54.1511 3.76302 53.6356 3.0876 53.6356C3.05544 53.6356 2.99111 53.6356 2.95895 53.6356C2.70165 53.6678 2.41219 53.5711 2.25138 53.3778C2.0584 53.1845 1.99408 52.8945 2.0584 52.6367L2.73381 49.4467C1.31866 49.2856 1.15785 48.1578 1.15785 47.6422C1.15785 46.0311 3.0876 44.13 5.56411 44.13C5.72493 44.13 5.88574 44.13 6.01439 44.1622C6.23953 44.1944 6.46466 44.2911 6.62548 44.4844C6.78629 44.6778 6.81845 44.9356 6.78629 45.1611L5.37114 51.7989C5.62844 51.9278 5.88574 52.0567 6.14304 52.1856C6.72196 52.5078 7.30089 52.83 7.84765 52.83C8.04063 52.83 8.2336 52.7978 8.39442 52.7333C8.65172 52.6367 8.97334 52.6689 9.19848 52.83C9.42362 52.9911 9.55227 53.2811 9.5201 53.5711C9.39145 55.3433 8.45874 55.9556 7.65468 55.9556Z" fill="white"/>
<path d="M7.81549 51.67C8.20144 51.67 8.68388 51.4122 9.03766 51.1222C8.81253 52.2822 8.07279 52.6367 7.26873 52.6367C6.30385 52.6367 5.69276 52.1533 5.69276 50.9933C5.69276 49.8011 6.36818 47.3522 8.45874 47.3522C9.35929 47.3522 9.58443 47.8356 9.58443 48.3511C9.58443 49.5433 8.45874 50.4456 7.23656 50.51C7.23656 50.6067 7.2044 50.7356 7.2044 50.8322C7.2044 51.4445 7.4617 51.67 7.81549 51.67ZM8.52306 47.9C8.00846 47.9 7.49386 49.0278 7.30089 50.0267C8.10495 49.9945 8.78036 49.1889 8.78036 48.3511C8.78036 48.0611 8.71604 47.9 8.52306 47.9Z" fill="#6D1D0E"/>
<path d="M7.26872 53.4745C5.78925 53.4745 4.85654 52.54 4.85654 51.0256C4.85654 49.1567 5.98222 46.5467 8.45874 46.5467C9.64875 46.5467 10.4206 47.2556 10.4206 48.3511C10.4206 49.1567 10.0669 49.8656 9.48794 50.4133C9.7774 50.6067 9.93821 50.9289 9.87389 51.2833C9.58442 52.6689 8.65171 53.4745 7.26872 53.4745Z" fill="white"/>
<path d="M4.43843 52.3789C5.49979 52.6044 6.59332 53.7 7.87982 53.7C8.16928 53.7 8.42658 53.6678 8.74821 53.5389C8.65172 54.5378 8.23361 55.15 7.68684 55.15C6.20737 55.15 4.92087 52.83 3.11977 52.83C3.02328 52.83 2.95895 52.83 2.89463 52.83L4.40627 45.7089C3.50572 46.0633 2.95895 46.8367 2.95895 47.9322C2.95895 48.4478 3.0876 48.5444 3.0876 48.6411C2.38003 48.6411 1.99408 48.3833 1.99408 47.6422C1.99408 46.2889 3.89167 44.9678 5.59628 44.9678C5.72493 44.9678 5.88574 44.9678 6.01439 45L4.43843 52.3789Z" fill="#411F1F"/>
<path d="M7.81549 51.67C8.20144 51.67 8.68388 51.4122 9.03766 51.1222C8.81253 52.2822 8.07279 52.6367 7.26873 52.6367C6.30385 52.6367 5.69276 52.1533 5.69276 50.9933C5.69276 49.8011 6.36818 47.3522 8.45874 47.3522C9.35929 47.3522 9.58443 47.8355 9.58443 48.3511C9.58443 49.5433 8.45874 50.4455 7.23656 50.51C7.23656 50.6067 7.2044 50.7355 7.2044 50.8322C7.2044 51.4444 7.4617 51.67 7.81549 51.67ZM8.52306 47.9C8.00846 47.9 7.49386 49.0278 7.30089 50.0266C8.10495 49.9944 8.78036 49.1889 8.78036 48.3511C8.78036 48.0611 8.71604 47.9 8.52306 47.9Z" fill="#411F1F"/>
<path d="M45.25 3.13174C44.9167 2.96407 44.4167 2.88024 44.0417 2.88024C43.6667 2.88024 43.1667 3.0479 43.1667 3.63473C43.1667 4.5988 45.5833 4.17964 45.5833 6.02395C45.5833 7.23952 44.625 7.65868 43.5 7.65868C42.9167 7.65868 42.625 7.57485 42.0833 7.4491V6.44311C42.4583 6.65269 43 6.77844 43.4583 6.77844C43.875 6.77844 44.4583 6.56886 44.4583 6.06587C44.4167 5.05988 42 5.47904 42 3.67665C42 2.46108 42.9583 2 43.9167 2C44.375 2 44.8333 2.04192 45.25 2.20958V3.13174Z" fill="#0075BF"/>
<path d="M51.5833 4.47306C51.25 4.34731 51 4.30539 50.625 4.30539C50.3333 4.30539 50 4.38923 50 4.72456C50 5.3533 51.7917 4.93414 51.7917 6.35929C51.7917 7.28144 50.9583 7.65869 50.125 7.65869C49.75 7.65869 49.3333 7.57485 48.9583 7.49102L49 6.6527C49.3333 6.82036 49.6667 6.9042 50 6.9042C50.25 6.9042 50.6667 6.82036 50.6667 6.44312C50.6667 5.68863 48.875 6.19162 48.875 4.76647C48.875 3.92815 49.625 3.5509 50.4167 3.5509C50.9167 3.5509 51.2083 3.63474 51.5417 3.67665L51.5833 4.47306Z" fill="#0075BF"/>
<path d="M54.875 4.51497C54.7083 4.43114 54.5 4.38923 54.1667 4.38923C53.5417 4.38923 53.125 4.89222 53.125 5.64671C53.125 6.35929 53.4583 6.94611 54.2083 6.94611C54.5 6.94611 54.8333 6.82036 55 6.77845L55.0417 7.61677C54.75 7.7006 54.4167 7.74252 54 7.74252C52.7083 7.74252 52.0417 6.86228 52.0417 5.68863C52.0417 4.55689 52.7083 3.63474 53.9583 3.63474C54.375 3.63474 54.6667 3.67665 54.9583 3.76048L54.875 4.51497Z" fill="#0075BF"/>
<path d="M57.2083 3.59282C58.375 3.59282 59.2917 4.38923 59.2917 5.68863C59.2917 6.82036 58.5417 7.7006 57.2083 7.7006C55.9167 7.7006 55.125 6.82036 55.125 5.68863C55.125 4.34731 56.0417 3.59282 57.2083 3.59282ZM57.2083 6.9042C58 6.9042 58.2083 6.19162 58.2083 5.56288C58.2083 4.97605 57.875 4.38923 57.2083 4.38923C56.5417 4.38923 56.2083 4.97605 56.2083 5.56288C56.2083 6.19162 56.4167 6.9042 57.2083 6.9042Z" fill="#0075BF"/>
<path d="M49.0417 3.59282H48L46.0417 9H47L49.0417 3.59282Z" fill="#0075BF"/>
<path d="M44.7917 3.50899C45.2083 3.97006 45.6667 4.51497 46 5.14372C46.2917 5.73054 46.4167 6.27545 46.5417 6.82036C46.5417 6.82036 46.5417 6.82036 46.5833 6.82036C46.9583 6.1497 47.2083 5.26947 46.8333 4.59881C46.4167 3.88623 45.5833 3.5509 44.7917 3.50899C44.75 3.46707 44.75 3.50899 44.7917 3.50899Z" fill="#5F9E43"/>
<path d="M25 10.0771C29.9706 10.0771 34 7.82125 34 5.03854C34 2.25583 29.9706 0 25 0C20.0294 0 16 2.25583 16 5.03854C16 7.82125 20.0294 10.0771 25 10.0771Z" fill="#CF3339"/>
<path d="M17.643 5.29411C17.5152 5.76876 17.716 6.18864 18.3185 6.18864C18.6653 6.18864 18.9574 5.98783 19.0304 5.71399C19.1034 5.40365 18.9209 5.20284 18.7201 5.00203L18.5193 4.80121C18.2637 4.54564 18.0629 4.30831 18.1542 3.90669C18.2819 3.34077 18.8844 2.99391 19.5598 2.99391C19.9249 2.99391 20.1988 3.10344 20.4178 3.286C20.856 3.74239 20.3083 4.01622 20.1805 3.99797C20.144 3.99797 20.144 3.97971 20.144 3.97971C20.2535 3.6146 20.144 3.21298 19.6329 3.21298C19.3408 3.21298 18.9939 3.35902 18.9391 3.6146C18.8661 3.90669 19.0852 4.1075 19.2677 4.30831L19.4503 4.49087C19.7424 4.7647 19.9615 5.03854 19.8702 5.45841C19.7241 6.0791 19.1034 6.44422 18.3732 6.44422C17.9716 6.44422 17.57 6.31643 17.3509 6.0791C16.9128 5.54969 17.4057 5.29411 17.643 5.29411Z" fill="white"/>
<path d="M22.6815 7.61258L23.3935 6.0426H23.4118C23.503 6.24341 23.7039 6.3712 23.9777 6.3712C24.8905 6.3712 25.5112 5.49493 25.6024 4.83773C25.6024 4.83773 25.6207 4.74645 25.6024 4.65517C25.5842 4.34483 25.3651 4.10751 24.9087 4.10751C24.5801 4.10751 24.288 4.2353 24.0872 4.43611L24.069 4.41785L24.142 4.2353C24.0507 4.05274 23.8864 3.9067 23.6856 3.85193L22.2069 7.15619C22.2982 7.39351 22.4807 7.55781 22.6815 7.61258ZM24.8905 4.7282C24.854 5.09331 24.3976 6.11562 23.8316 6.11562C23.6126 6.11562 23.5396 5.95132 23.5578 5.78702C23.5943 5.47668 24.0142 4.41785 24.5801 4.41785C24.8174 4.41785 24.9087 4.5639 24.8905 4.7282Z" fill="white"/>
<path d="M22.499 6.07911C22.4625 6.09737 22.426 6.11562 22.3894 6.11562C22.2982 6.11562 22.2799 6.00609 22.2982 5.93307C22.3164 5.86004 22.4077 5.64098 22.4442 5.5497L23.0832 4.18053C22.8824 4.10751 22.645 4.10751 22.426 4.18053L22.2799 4.47262C22.1886 4.25355 21.9878 4.14402 21.6957 4.14402C20.8012 4.14402 20.0527 5.00203 19.9797 5.65923C19.9249 6.06085 20.144 6.38945 20.6734 6.38945C21.0933 6.38945 21.4584 6.13388 21.6775 5.86004L21.6957 5.8783C21.6957 5.8783 21.6592 5.98783 21.6592 6.06085C21.641 6.24341 21.787 6.40771 22.0243 6.40771C22.1704 6.40771 22.3164 6.3712 22.4442 6.29818L22.499 6.07911ZM22.0974 4.70994C22.0608 5.07505 21.5497 6.09737 20.9838 6.09737C20.7647 6.09737 20.7099 5.91481 20.7282 5.76877C20.7647 5.40365 21.2576 4.43611 21.8053 4.43611C22.0243 4.41785 22.1156 4.54564 22.0974 4.70994Z" fill="white"/>
<path d="M28.0487 5.0933L28.4321 4.36308C28.4321 4.36308 28.213 4.34482 28.0852 4.34482C27.9939 4.34482 27.7749 4.30831 27.7749 4.30831L27.5923 4.63691C27.428 4.96551 26.8621 6.06085 26.3509 6.06085C26.2414 6.06085 26.1684 6.02434 26.1866 5.93306C26.2049 5.82353 26.6247 5.05679 26.6247 5.05679C26.716 4.89249 26.8438 4.63691 26.8621 4.47261C26.8803 4.2718 26.716 4.14401 26.4787 4.14401C26.2779 4.14401 26.0223 4.23529 25.8215 4.36308C25.8398 4.39959 25.858 4.4361 25.8763 4.49087C25.9493 4.47261 26.0041 4.45436 26.0406 4.45436C26.1136 4.45436 26.1501 4.50912 26.1318 4.56389C26.1136 4.61866 25.7485 5.38539 25.7485 5.38539C25.6572 5.54969 25.5112 5.82353 25.4929 5.98783C25.4564 6.2434 25.6755 6.38945 25.9493 6.38945C26.4422 6.38945 26.8438 6.06085 27.1359 5.67748L27.1542 5.69574C27.1176 5.80527 27.0811 5.89655 27.0629 6.02434C27.0446 6.22515 27.1724 6.38945 27.428 6.38945C27.6653 6.38945 27.8661 6.29817 28.0487 6.15213C28.0304 6.09736 28.0304 6.06085 28.0304 6.00608V5.98783C27.9757 6.02434 27.9026 6.06085 27.8479 6.06085C27.7566 6.06085 27.7383 5.96957 27.7566 5.89655C27.7749 5.69574 27.9574 5.29411 28.0487 5.0933Z" fill="white"/>
<path d="M31.8641 4.16227C31.5355 3.92494 30.9331 3.74239 29.9108 3.72413L30.1481 3.19472C29.9473 3.1217 29.7099 3.1217 29.5091 3.19472L29.2535 3.72413C28.5781 3.76064 27.7566 3.9432 26.2779 3.63285L26.2414 3.70588C27.0629 4.05273 28.3225 4.12576 29.0527 4.12576L28.5233 5.23935C28.4686 5.34888 28.4138 5.47667 28.359 5.62271C28.2677 5.80527 28.2495 5.93306 28.2495 6.00608C28.2312 6.22515 28.432 6.4077 28.7059 6.4077C29.0345 6.4077 29.3083 6.22515 29.5091 6.02433C29.4909 5.98782 29.4544 5.93306 29.4544 5.87829C29.4179 5.9148 29.3448 5.96957 29.3083 6.00608C29.2353 6.06085 29.144 6.09736 29.071 6.09736C28.9615 6.09736 28.9432 6.00608 28.9432 5.93306C28.9615 5.78701 29.1075 5.49492 29.1805 5.34888L29.7465 4.08924C30.3124 4.03448 31.0061 3.96145 31.3895 4.18052C30.86 4.21703 30.3124 4.38133 29.9838 4.78296C29.783 5.00202 29.6734 5.27586 29.6369 5.54969C29.6187 5.65922 29.6369 5.76876 29.6369 5.80527C29.7099 6.17038 30.0385 6.4077 30.568 6.4077C31.4442 6.4077 32.211 5.71399 32.284 5.03853C32.284 5.02028 32.357 4.72819 32.1379 4.41784C32.43 4.52738 32.6491 4.70993 32.7039 4.80121C32.8499 4.74644 32.9959 4.61866 33.069 4.45436C32.9229 4.32657 32.43 4.18052 31.8641 4.16227ZM31.1339 5.80527C30.714 6.38945 30.0568 6.38945 30.2941 5.56795C30.3306 5.44016 30.6227 4.38133 31.5172 4.30831C31.5538 4.36308 31.5903 4.4361 31.5903 4.50912C31.6815 4.83772 31.426 5.4219 31.1339 5.80527Z" fill="white"/>
<path d="M38.5271 6.607C38.6441 6.448 38.7341 6.271 38.8031 6.112L38.5451 5.995C38.5091 6.109 38.4431 6.268 38.3471 6.412C38.2811 6.337 38.2151 6.262 38.1491 6.181C38.0921 6.115 38.0201 6.028 37.9541 5.935C38.2031 5.812 38.4521 5.683 38.4521 5.38C38.4521 5.119 38.2301 4.969 37.9571 4.969C37.6451 4.969 37.4141 5.173 37.4141 5.443C37.4141 5.581 37.4711 5.731 37.5551 5.881C37.3271 6.001 37.1201 6.157 37.1201 6.466C37.1201 6.847 37.4081 7.036 37.7651 7.036C37.9931 7.036 38.1761 6.952 38.3261 6.826C38.3921 6.892 38.4551 6.955 38.5031 7H38.9141C38.7731 6.862 38.6471 6.733 38.5271 6.607ZM37.7321 5.449C37.7321 5.305 37.8371 5.203 37.9721 5.203C38.0861 5.203 38.1731 5.272 38.1731 5.395C38.1731 5.563 38.0201 5.659 37.8311 5.749C37.7741 5.644 37.7321 5.539 37.7321 5.449ZM37.8041 6.784C37.6211 6.784 37.4561 6.658 37.4561 6.439C37.4561 6.271 37.5521 6.166 37.6811 6.079C37.7531 6.181 37.8311 6.28 37.9031 6.367C37.9571 6.43 38.0501 6.535 38.1491 6.643C38.0501 6.727 37.9331 6.784 37.8041 6.784Z" fill="white"/>
</svg>
