<svg xmlns="http://www.w3.org/2000/svg" viewBox="0 0 346.87 344.14"><defs><style>.cls-1{fill:#fff}</style></defs><title>japanese-white</title><g id="Layer_2" data-name="Layer 2"><g id="japanese"><path d="M40.75,102.67c.18,1-.59,2.1-2.44,2.81,6.3,23.45,4.12,43.39-10.87,57.36a131.83,131.83,0,0,0-15.94-5.43C26,146.76,25.91,125.86,20,108.07Q30.35,105.32,40.75,102.67Zm37.4,37.59c13.14-7.93,19.48-22.51,20.27-38.62,4.14,1.82,13,4.38,17.48,5.59-3.64,24.65-16.33,41.6-40.6,52a8.46,8.46,0,0,1-3,2.52q-6.6-6.09-13.52-11.47c.66-.73,1.31-1.47,2-2.21a216.21,216.21,0,0,0-12.6-60.22q10.28-3.31,20.56-6.55c.18,1.19-.34,2.52-2.51,3.68A234.21,234.21,0,0,1,78.15,140.26Z" class="cls-1"/><path d="M163.23,105.5c1.79,10.08-4.56,19.18-13.43,20.13s-17-5.59-18.53-14.48,3.77-17.85,12.44-20C152.59,89,161.51,95.68,163.23,105.5Z" class="cls-1"/><path d="M216,54.27a4,4,0,0,1-2.48,4c6.2,36.43.82,75.65-12.21,98.09a67.2,67.2,0,0,0-17.61-10.61c12-20.25,16.74-54.13,8.59-90.65Q204.08,54.49,216,54.27ZM274.28,154c-4.9-27.17-21.94-72.12-42.22-100.8q6.67-7.77,13-16c20.85,27,40.87,72.38,47.76,103.51Q283.68,147.65,274.28,154ZM239.86,10.45c6.34,4.46,14.64,13,19.11,18.74q-2.5,5.49-5.14,10.84A119,119,0,0,0,235,20.73Q237.51,15.66,239.86,10.45ZM253.46,0a122.8,122.8,0,0,1,19.68,18.81q-2.4,5.79-5,11.44C264,24.45,254.43,15.15,249,10.76,250.55,7.21,252,3.63,253.46,0Z" class="cls-1"/><path d="M1.47,185l55.24,8.19q-1,6.56-2.35,13.05l-51.74-11A3.55,3.55,0,0,1,0,196Q.93,190.49,1.47,185Z" class="cls-1"/><path d="M163.59,192.73a4.57,4.57,0,0,1-1.85,2.16c-6.26,40-18.11,60.76-24.28,66.16-6.37,5.37-13.93,6.17-21.39,3.33a115,115,0,0,1-17.62-8.81A75,75,0,0,0,102.51,239c5.73,3.1,13,6.58,15.91,7.47,3.09,1,5.71.79,8.26-2.1,3.37-3.72,10.68-19.12,14.35-39.82l-24.09-3.48c-8.06,20-22.22,38.74-48,45.56A70.49,70.49,0,0,0,58.3,233.5c21.75-5.08,34.32-20.55,40.07-35.18l-26.05-3.76q.95-6.57,1.51-13.18l29.46,2.53c1.63-7.06,2-13,2.56-20.82q11.3.91,22.59,2c-.25,1.38-1.43,2.39-3.75,2.68a167.36,167.36,0,0,1-2.82,17.88l25.87,2.23,3.35-1.09Q157.36,189.65,163.59,192.73ZM144.45,161c4.56,4.33,10,12.09,12.56,17.09q-4.27,3.08-8.62,6a87.8,87.8,0,0,0-11.75-17.13Q140.59,164,144.45,161Zm18.73-5a83.24,83.24,0,0,1,12.95,17.38q-4.23,3.36-8.54,6.53c-2.13-4.77-8.27-13.48-12-17.47Q159.42,159.32,163.18,156Z" class="cls-1"/><path d="M173.5,210.52,227,218.45q-1.75,11.82-4.24,23.54l-50.12-10.64a3.77,3.77,0,0,1-2.83,2Q172.07,222,173.5,210.52Z" class="cls-1"/><path d="M292.1,209.07c-2.38,26.53-12.24,64.46-29,84a59.56,59.56,0,0,0-8.77-15.2c-.11.4-.22.79-.34,1.18,1,18.06,11.48,21.87,33.7,29.16,13.76,4.55,30.29,9.21,42.12,11.06-3.69,5.87-10.34,17.45-14.15,24.9-8.95-2.57-21.26-6.73-32.59-11.17-27.13-10.49-38.37-15.44-41.38-37.09a172.73,172.73,0,0,1-17.12,12.25c-.73,1.88-1.53,2.65-2.86,2.85q.75-12.76.64-25.26a123.7,123.7,0,0,0,16-9.08q4.68-16,8-32.36l-10.56-2.17q2.2-10.68,3.81-21.45l26.14,3.9A426.62,426.62,0,0,1,255,275.66c13.61-17.45,20-46.81,22-68.19a437.37,437.37,0,0,0,2.41-45.61h67.46a501.82,501.82,0,0,1-16.43,127.29c-5,18.71-10.75,25.78-27.8,19.59a106.76,106.76,0,0,0,2.77-20.7l-12.74-3.49c-.6,2.2-1.22,4.39-1.86,6.59l-11.91-3.46a452.77,452.77,0,0,0,11.38-49.44l30.84,5.3q-3.75,21.92-9.55,43.52a4.86,4.86,0,0,0,2.67.31c.55-.27,1-1,1.39-2.52a486.46,486.46,0,0,0,15.28-100.09l-9.26-.44a3.5,3.5,0,0,1-2.9,2.18q-.15,3.08-.36,6.15l10.3.68q-.62,9.33-1.58,18.64l-10.26-1.07c-.26,2.49-.54,5-.84,7.48l10.24,1.23q-1.11,9.28-2.59,18.55l-33.08-5.28q1.37-8.61,2.41-17.27l9.44,1.13q.44-3.62.81-7.26l-9.45-1q.9-8.67,1.47-17.35l9.48.61c.18-2.73.34-5.48.47-8.22L294.09,183Q293.48,196.07,292.1,209.07Zm-36.22-47.55c5.71,8,12.3,19.66,14.6,28.37q-7.64,6.53-15.46,12.56c-1.58-8.28-7.27-20.8-12.64-29.3Q249.21,167.53,255.88,161.52Zm47.34,107.37q1.18-5.06,2.25-10.12l-6.23-1.32q-1.07,5-2.22,10Z" class="cls-1"/></g></g></svg>