<svg xmlns="http://www.w3.org/2000/svg" xmlns:xlink="http://www.w3.org/1999/xlink" id="Layer_1" x="0" y="0" version="1.1" viewBox="0 0 346.9 344.1" xml:space="preserve" style="enable-background:new 0 0 346.9 344.1"><style type="text/css">.st0{opacity:.2}</style><title>japanese-black</title><g id="Layer_2_1_" class="st0"><g id="japanese"><path d="M40.8,102.7c0.2,1-0.6,2.1-2.4,2.8c6.3,23.4,4.1,43.4-10.9,57.4c-5.2-2.1-10.5-4-15.9-5.4c14.5-10.7,14.4-31.6,8.5-49.3 C26.9,106.2,33.8,104.4,40.8,102.7z M78.2,140.3c13.1-7.9,19.5-22.5,20.3-38.6c4.1,1.8,13,4.4,17.5,5.6 c-3.6,24.6-16.3,41.6-40.6,52c-0.8,1.1-1.8,1.9-3,2.5c-4.4-4.1-8.9-7.9-13.5-11.5c0.7-0.7,1.3-1.5,2-2.2 c-1.3-20.6-5.6-40.8-12.6-60.2c6.9-2.2,13.7-4.4,20.6-6.6c0.2,1.2-0.3,2.5-2.5,3.7C72.4,102.9,76.4,121.4,78.2,140.3z"/><path d="M163.2,105.5c1.8,10.1-4.6,19.2-13.4,20.1s-17-5.6-18.5-14.5s3.8-17.8,12.4-20C152.6,89,161.5,95.7,163.2,105.5z"/><path d="M216,54.3c0.1,1.7-0.9,3.3-2.5,4c6.2,36.4,0.8,75.6-12.2,98.1c-5.3-4.4-11.2-8-17.6-10.6c12-20.2,16.7-54.1,8.6-90.7 C200.2,54.7,208.1,54.4,216,54.3z M274.3,154c-4.9-27.2-21.9-72.1-42.2-100.8c4.4-5.2,8.8-10.5,13-16 c20.9,27,40.9,72.4,47.8,103.5C286.7,145.3,280.5,149.8,274.3,154z M239.9,10.4c6.3,4.5,14.6,13,19.1,18.7 c-1.7,3.7-3.4,7.3-5.1,10.8c-5.5-7.1-11.8-13.6-18.8-19.3C236.7,17.4,238.3,13.9,239.9,10.4z M253.5,0 c7.2,5.5,13.8,11.8,19.7,18.8c-1.6,3.9-3.3,7.7-5,11.4c-4.1-5.8-13.7-15.1-19.1-19.5C250.6,7.2,252,3.6,253.5,0z"/><path d="M1.5,185l55.2,8.2c-0.7,4.4-1.4,8.7-2.3,13.1l-51.7-11c-0.7,0.6-1.7,0.9-2.6,0.8C0.6,192.3,1.1,188.7,1.5,185z"/><path d="M163.6,192.7c-0.4,0.9-1,1.7-1.9,2.2c-6.3,40-18.1,60.8-24.3,66.2c-6.4,5.4-13.9,6.2-21.4,3.3c-6.1-2.4-12-5.4-17.6-8.8 c2-5.4,3.3-10.9,4.1-16.6c5.7,3.1,13,6.6,15.9,7.5c3.1,1,5.7,0.8,8.3-2.1c3.4-3.7,10.7-19.1,14.3-39.8l-24.1-3.5 c-8.1,20-22.2,38.7-48,45.6c-3-4.8-6.6-9.2-10.6-13.1c21.8-5.1,34.3-20.6,40.1-35.2l-26.1-3.8c0.6-4.4,1.1-8.8,1.5-13.2l29.5,2.5 c1.6-7.1,2-13,2.6-20.8c7.5,0.6,15.1,1.3,22.6,2c-0.2,1.4-1.4,2.4-3.8,2.7c-0.6,6-1.6,12-2.8,17.9l25.9,2.2l3.4-1.1 C155.3,188.7,159.4,190.7,163.6,192.7z M144.4,161c4.6,4.3,10,12.1,12.6,17.1c-2.8,2.1-5.7,4.1-8.6,6c-3.2-6.2-7.2-11.9-11.8-17.1 C139.3,165,141.9,163,144.4,161z M163.2,156c5.1,5.2,9.4,11,12.9,17.4c-2.8,2.2-5.7,4.4-8.5,6.5c-2.1-4.8-8.3-13.5-12-17.5 C158.1,160.4,160.7,158.2,163.2,156z"/><path d="M173.5,210.5l53.5,7.9c-1.2,7.9-2.6,15.7-4.2,23.5l-50.1-10.6c-0.6,1.1-1.6,1.8-2.8,2 C171.3,225.8,172.5,218.2,173.5,210.5z"/><path d="M292.1,209.1c-2.4,26.5-12.2,64.5-29,84c-2.2-5.5-5.1-10.6-8.8-15.2c-0.1,0.4-0.2,0.8-0.3,1.2c1,18.1,11.5,21.9,33.7,29.2 c13.8,4.5,30.3,9.2,42.1,11.1c-3.7,5.9-10.3,17.5-14.1,24.9c-9-2.6-21.3-6.7-32.6-11.2c-27.1-10.5-38.4-15.4-41.4-37.1 c-5.5,4.4-11.2,8.5-17.1,12.2c-0.7,1.9-1.5,2.6-2.9,2.9c0.5-8.5,0.7-16.9,0.6-25.3c5.6-2.6,10.9-5.7,16-9.1 c3.1-10.7,5.8-21.5,8-32.4l-10.6-2.2c1.5-7.1,2.7-14.3,3.8-21.4l26.1,3.9c-2.5,17.2-6.1,34.3-10.7,51.1c13.6-17.5,20-46.8,22-68.2 c1.6-15.2,2.4-30.4,2.4-45.6h67.5c0,43-5.5,85.7-16.4,127.3c-5,18.7-10.8,25.8-27.8,19.6c1.6-6.8,2.5-13.7,2.8-20.7l-12.7-3.5 c-0.6,2.2-1.2,4.4-1.9,6.6l-11.9-3.5c4.7-16.3,8.5-32.8,11.4-49.4l30.8,5.3c-2.5,14.6-5.7,29.1-9.5,43.5c0.8,0.4,1.8,0.5,2.7,0.3 c0.5-0.3,1-1,1.4-2.5c8.6-32.7,13.7-66.3,15.3-100.1l-9.3-0.4c-0.5,1.2-1.6,2.1-2.9,2.2c-0.1,2.1-0.2,4.1-0.4,6.1l10.3,0.7 c-0.4,6.2-0.9,12.4-1.6,18.6l-10.3-1.1c-0.3,2.5-0.5,5-0.8,7.5l10.2,1.2c-0.7,6.2-1.6,12.4-2.6,18.6l-33.1-5.3 c0.9-5.7,1.7-11.5,2.4-17.3l9.4,1.1c0.3-2.4,0.6-4.8,0.8-7.3l-9.5-1c0.6-5.8,1.1-11.6,1.5-17.4l9.5,0.6c0.2-2.7,0.3-5.5,0.5-8.2 l-11.1-0.5C293.7,191.7,293,200.4,292.1,209.1z M255.9,161.5c5.7,8,12.3,19.7,14.6,28.4c-5.1,4.4-10.2,8.5-15.5,12.6 c-1.6-8.3-7.3-20.8-12.6-29.3C246.9,169.4,251.4,165.5,255.9,161.5z M303.2,268.9c0.8-3.4,1.5-6.7,2.2-10.1l-6.2-1.3 c-0.7,3.3-1.5,6.7-2.2,10L303.2,268.9z"/></g></g></svg>